<svg width="400" height="360" viewBox="0 0 400 360" xmlns="http://www.w3.org/2000/svg"><path d="M129.937 163.683c16.95 0 25.21 8.69 25.373 26.96l.003.557v43.108c0 6.726-.612 11.312-2.446 15.592-3.057 7.95-10.7 12.536-22.013 12.536-7.17 0-12.006-1.752-16.787-5.827l-.334-.288v38.522H94.472v-129.63h18.038v6.114c4.586-5.503 9.784-7.644 17.427-7.644zm71.236 0c16.95 0 25.21 8.69 25.373 26.96l.003.557v43.108c0 6.726-.612 11.312-2.446 15.592-3.057 7.95-10.7 12.536-22.013 12.536-7.17 0-12.006-1.752-16.787-5.827l-.334-.288v38.522h-19.261v-129.63h18.038v6.114c4.586-5.503 9.784-7.644 17.427-7.644zm96.306 0c19.977 0 28.866 8.091 29.042 26.052l.003.547v62.676c0 1.048.044 2.007.133 2.997l.075.749c.027.253.058.51.091.771l.108.805.06.418.134.875.23 1.431.086.514h-18.956l-.305-6.114c-3.67 5.197-9.172 7.643-18.039 7.643-15.739 0-23.987-7.192-24.15-21.278l-.003-.43v-11.617c0-11.092 3.704-16.892 13.573-20.847l.752-.293c.254-.097.513-.192.775-.287l.799-.28 25.07-8.255v-8.866c0-7.644-3.363-11.007-10.09-11.007-6.92 0-10.583 3.258-10.697 10.355l-.003.346v6.726h-18.344v-7.032c0-17.732 9.783-26.599 29.656-26.599zm-40.968 1.53v95.694h-19.567v-95.695h19.567zm118.624-1.53c6.42 0 12.841 2.14 16.816 5.81 1.834 1.528 3.363 3.668 4.28 6.114l.212.469.194.454.179.442c.057.146.111.29.163.433l.15.428c.118.354.223.706.316 1.062l.105.43.095.438.085.448.076.46.068.478.061.496.054.518.071.825.042.586.055.94.082 1.756.132 3.4v71.237h-19.567v-70.319c0-7.949-3.669-11.618-10.395-11.618-6.62 0-10.28 3.555-10.392 11.249l-.003.369v70.319h-19.567v-95.695h18.344v6.726c5.504-5.809 11.007-8.255 18.344-8.255zM83.16 126.69v134.217H66.344v-.306h-1.528v-45.554l-24.153 7.949-.803.315-1.48.568-.683.27-.437.183c-.072.03-.143.06-.213.092l-.416.19c-2.185 1.028-3.833 2.41-5.587 5.989l-.165.342-9.478 29.962H.611L47.083 126.69H83.16zm224.103 88.051l-14.064 4.586c-5.405 1.802-7.271 4.488-7.336 10.956l-.002 7.694c0 7.032 3.363 10.395 10.09 10.395 7.53 0 11.203-3.562 11.31-11.855l.002-.375v-21.401zm-182.524-35.77c-7.224 0-10.892 3.556-11.003 11.253l-.003.364v44.331c0 7.644 3.669 11.618 11.006 11.618 7.223 0 10.891-3.851 11.004-11.262l.003-.356v-44.331c0-7.949-3.669-11.618-11.007-11.618zm71.236 0c-7.224 0-10.892 3.556-11.003 11.253l-.003.364v44.331c0 7.644 3.669 11.618 11.006 11.618 7.223 0 10.891-3.851 11.004-11.262l.003-.356v-44.331c0-7.949-3.669-11.618-11.007-11.618zM64.51 147.784h-7.644l-18.65 59.007 26.294-8.56v-50.447zm182.523-18.65l13.452 13.453v1.223l-13.452 13.452h-.917l-13.147-13.452v-1.223l13.147-13.452h.917z" fill="#FFF" fill-rule="nonzero"/></svg>