<svg width="400" height="360" viewBox="0 0 400 360" xmlns="http://www.w3.org/2000/svg"><path d="M268.27 268.7v9.16h-47.907v-9.16h47.907zM76.956 213.37v24.005c0 6.573 3.31 10.344 9.08 10.344 2.928 0 5.926-1.556 8.69-4.508l.39-.427V213.37h14.823v46.17H95.116v-3.563l-.716.55c-3.966 3.047-7.982 4.466-12.637 4.466-11.81 0-19.483-8.152-19.635-20.808l-.002-.384V213.37h14.83zm63.967-18.971v18.97h16.007v12.596h-16.007v13.939c0 4.851 2.775 7.523 7.816 7.523 1.841 0 3.89-.312 6.573-.814l1.397-.267 1.636 12.45c-5.923 1.854-9.314 2.197-13.778 2.197-11.11 0-18.328-7.926-18.472-20.23l-.003-.378v-14.42h-9.212v-12.596h9.212v-11.34l14.83-7.63zm157.069-4.12v23.09h16.005v12.596h-16.005v13.939c0 4.851 2.775 7.523 7.814 7.523 1.828 0 3.857-.307 6.507-.802l1.464-.279 1.636 12.45c-5.923 1.854-9.312 2.197-13.777 2.197-11.11 0-18.33-7.926-18.474-20.23l-.002-.378v-14.42h-9.212v-12.596h9.212v-15.457l14.832-7.632zm-109.936 22.025c13.907 0 23.62 9.513 23.62 23.136l-.003 1.152c-.01 1.157-.045 2.325-.19 3.462l-.08.565h-33.644l.17.571c1.508 5.086 5.416 7.887 11.005 7.887 3.177 0 5.732-1.124 7.258-3.18l.154-.217h14.717c-2.368 9.088-11.064 14.926-22.326 14.926-14.874 0-25.262-9.952-25.262-24.203 0-14.19 10.108-24.1 24.581-24.1zm-165.118 0c4.58 0 8.705 1.102 12.269 3.277l.393.247.685.438v-2.897h14.83v46.171h-14.83v-2.991l-.685.439c-3.653 2.337-7.913 3.523-12.662 3.523C10.076 260.511 0 249.921 0 236.403c0-13.513 10.076-24.1 22.938-24.1zm348.884 0c4.58 0 8.705 1.102 12.269 3.277l.393.247.685.438v-2.897H400v46.171h-14.83v-2.991l-.686.439c-3.653 2.337-7.913 3.523-12.662 3.523-12.862 0-22.938-10.59-22.938-24.108 0-13.513 10.076-24.1 22.938-24.1zm-123.187-.388c11.808 0 19.48 8.153 19.633 20.808l.002.384v26.432h-14.925v-23.912c0-6.573-3.272-10.343-8.977-10.343-3.78 0-6.013 1.528-8.585 4.362l-.597.672v29.221h-14.823v-46.17h14.823v3.685l.722-.574c3.861-3.072 8.024-4.565 12.727-4.565zm90.808 1.454l-.001 46.17h-14.83v-46.17h14.831zm-313.4 10.849c-6.559 0-11.505 5.238-11.505 12.184 0 6.893 4.946 12.09 11.505 12.09 7.712 0 12.135-4.405 12.135-12.087l-.008-.516c-.117-3.89-1.662-11.671-12.127-11.671zm348.885 0c-6.56 0-11.505 5.238-11.505 12.184 0 6.893 4.946 12.09 11.505 12.09 7.6 0 12.006-4.279 12.132-11.755l.003-.332c0-3.664-1.182-12.187-12.135-12.187zm-186.872-.68c-5.184 0-8.906 2.877-10.255 7.908l-.075.292-.136.551h20.31l-.088-.519c-.898-5.308-4.362-8.232-9.755-8.232zm143.476-35.29c2.501-.114 4.905.785 6.626 2.435 1.642 1.575 2.547 3.718 2.548 6.034.002 4.437-3.907 8.278-8.535 8.387-2.546.07-4.876-.826-6.577-2.5-1.585-1.56-2.451-3.67-2.436-5.944.03-4.448 3.787-8.222 8.374-8.412z" fill="#FFF"/></svg>