<svg width="400" height="360" viewBox="0 0 400 360" xmlns="http://www.w3.org/2000/svg"><g fill="#FFF" fill-rule="evenodd"><path d="M86.74 183.44l.568.998.077.143c.108.21.23.497.35.852.698 2.092.55 4.397-.995 6.55l-.256.339-.234.282c-2.015 2.335-5.611 4.098-11.041 5.198l-.66.13-.48.086.132.228c3.994 7.306 1.286 16.863-6.386 20.88-2.178 1.144-4.495 1.959-6.92 2.368.206.257.415.531.624.82 4.108 5.69 5.011 13.06.782 21.884l-1.084 2.24-.813 1.647c-2.21 4.444-4.026 7.773-5.49 10.145l-.437.695-.224.348c-1.024 1.57-1.704 2.388-2.158 2.74l-.094.067-.376.255H35.662l-.976-1.27c-12.24-16.142-13.58-29.034-8.29-38.452.23-.41.461-.79.69-1.143-2.145-.366-4.207-1.06-6.186-2.026l-.628-.317-.414-.225c-7.223-4.066-9.799-13.143-6.188-20.235l.211-.4.142-.25-.463-.086c-6.017-1.13-9.887-3.039-11.928-5.61-1.785-2.247-1.99-4.687-1.257-6.888.118-.354.24-.64.346-.85l.077-.143.568-1 1.11.302 9.18 2.468 4.847 1.282 5.577 1.451 3.66.932c2.438.613 4.484 1.11 6.076 1.474l1.394.31.863.177.53.115c3.837.92 6.796 3.374 9.038 6.458l.315.445.089.134.083-.124c2.225-3.25 5.324-5.944 9.35-6.911l1.722-.365.955-.213c1.474-.335 3.35-.788 5.575-1.345l4.37-1.11 6.025-1.568 4.318-1.142 4.369-1.167 5.928-1.604z" fill-opacity=".5" fill-rule="nonzero"/><path d="M34.224 221.516l-.21.353-.203.358c-3.33 5.99-6.872 18.772 6.584 37.257a2.821 2.821 0 011.509-.425c1.415 0 2.562.995 2.562 2.225 0 1.228-1.147 2.225-2.562 2.225-1.417 0-2.564-.997-2.564-2.225 0-.328.081-.639.228-.919h-.457c.147.28.228.591.228.919 0 1.228-1.147 2.225-2.564 2.225-1.415 0-2.562-.997-2.562-2.225 0-1.23 1.147-2.225 2.562-2.225h.075l-.094-.125c-14.791-19.984-10.184-32.289-6.974-37.177l.504.017a20.883 20.883 0 003.713-.22l.225-.038zm-2.575 37.377c1.415 0 2.563 1.023 2.563 2.282 0 1.26-1.148 2.283-2.563 2.283-1.417 0-2.564-1.023-2.564-2.283s1.147-2.282 2.564-2.282zm18.624-38.254c2.122.702 4.222 1.078 6.282 1.145l.524.01.212.234.225.258c2.847 3.328 6.687 10.37 1.73 21.09l-.624 1.303-.876 1.8c-3.613 7.354-5.827 11.043-7.084 12.87.498.288.873.724 1.043 1.236.298-.94 1.291-1.63 2.47-1.63 1.148 0 2.12.654 2.447 1.557.268-1.002 1.28-1.745 2.487-1.745 1.417 0 2.564 1.021 2.564 2.282 0 1.26-1.147 2.281-2.564 2.281-1.153 0-2.128-.678-2.45-1.61-.274.967-1.283 1.683-2.483 1.683-1.171 0-2.158-.68-2.465-1.61-.298.942-1.29 1.634-2.47 1.634-1.415 0-2.562-.998-2.562-2.226 0-1.153 1.01-2.103 2.306-2.214l.464-.816c1.07-1.898 2.385-4.383 4-7.639l.477-.967 1.288-2.657c6.812-14.213-1.05-22.398-2.69-23.893l-.288-.25-.524-.572-1.44-1.554zm-5.978-10.983c.868 3.89 2.593 5.413 4.012 5.981l.104.04c.52.19.993.255 1.36.264.054.005.103.02.147.044.202.093.28.36.121.537l-1.446 1.633-4.362 4.939c-.125.148-.377.148-.523 0l-4.132-4.818-.011.006-.11-.135-1.418-1.655c-.17-.207-.07-.551.206-.563 3.286-.281 5.723-6.273 5.723-6.273h.329zm-16.41-11.485c5.77 0 10.448 3.793 10.448 8.474 0 4.682-4.679 8.475-10.448 8.475-5.77 0-10.447-3.793-10.447-8.475 0-4.681 4.677-8.474 10.447-8.474zm30.567 0c5.77 0 10.446 3.793 10.446 8.474 0 4.682-4.677 8.475-10.446 8.475-5.77 0-10.446-3.793-10.446-8.475 0-4.681 4.676-8.474 10.446-8.474zm-30.154 1.728c-3.958 0-7.164 2.965-7.164 6.623 0 3.659 3.206 6.624 7.164 6.624 3.955 0 7.164-2.965 7.164-6.624 0-3.658-3.209-6.623-7.164-6.623zm30.426-.804c-3.958 0-7.164 2.965-7.164 6.623 0 3.659 3.206 6.624 7.164 6.624 3.956 0 7.163-2.965 7.163-6.624 0-3.658-3.207-6.623-7.163-6.623zm-32.332 3.48c1.595 0 2.886 1.496 2.886 3.342 0 1.844-1.291 3.34-2.886 3.34-1.593 0-2.886-1.496-2.886-3.34 0-1.846 1.293-3.342 2.886-3.342zm30.567 0c1.594 0 2.887 1.496 2.887 3.342 0 1.844-1.293 3.34-2.887 3.34-1.593 0-2.886-1.496-2.886-3.34 0-1.846 1.293-3.342 2.886-3.342zm29.061-18.131l.09.19c.312.723 1.195 3.391-1.347 5.998l-6.755 1.81c-7.922 2.105-19.455 5.111-23.711 5.948-5.662 1.143-9.06 6.443-9.983 8.095-.125.213-.418.213-.522 0l-.228-.386c-1.19-1.97-4.5-6.644-9.774-7.709l-.923-.19c-6.73-1.444-24.63-6.237-29.522-7.568-2.98-3.052-1.26-6.188-1.26-6.188l8.068 2.178c7.915 2.118 19.395 5.133 23.637 5.961 5.66 1.121 9.058 6.42 10.002 8.053.104.212.397.212.522 0l.142-.244c1.095-1.862 4.436-6.739 9.84-7.809l.655-.133c7.553-1.584 31.07-8.006 31.07-8.006z"/><path d="M327.99 217.182l.95 1.36c-.38.846-.744 1.631-1.092 2.357-.348.694-.886 1.42-1.614 2.175a50.452 50.452 0 01-3.56.498 60.927 60.927 0 01-3.891.272 14.076 14.076 0 011.898 3.671c.475 1.3.712 2.674.712 4.125 0 2.326-.554 4.456-1.66 6.39a16.643 16.643 0 01-4.272 4.94c-1.772 1.36-3.781 2.432-6.028 3.217a21.314 21.314 0 01-6.834 1.133h-.19c-1.518 1.209-2.563 2.221-3.132 3.037-.57.785-.854 1.269-.854 1.45 0 .363.158.725.474 1.088.348.332.965.665 1.851.997.918.302 2.168.62 3.75.952 1.582.302 3.606.589 6.074.86 3.45.363 6.297.907 8.543 1.632 2.247.725 4.034 1.571 5.363 2.538 1.329.937 2.246 1.949 2.753 3.037.538 1.087.806 2.16.806 3.217a11.38 11.38 0 01-.996 4.714 15.643 15.643 0 01-2.705 4.17c-1.14 1.268-2.484 2.416-4.034 3.444a28.62 28.62 0 01-4.984 2.628 31.182 31.182 0 01-5.505 1.677c-1.898.393-3.78.59-5.648.59-1.487 0-3.021-.106-4.603-.318a31.412 31.412 0 01-4.699-.906 26.264 26.264 0 01-4.414-1.632 14.601 14.601 0 01-3.606-2.357 11.027 11.027 0 01-2.516-3.127c-.6-1.148-.902-2.462-.902-3.943 0-.785.143-1.616.428-2.492.316-.846.933-1.768 1.85-2.765.918-.997 2.2-2.07 3.845-3.218 1.645-1.148 3.828-2.417 6.55-3.806-2.057-.695-3.481-1.48-4.272-2.357-.791-.876-1.187-1.768-1.187-2.674 0-.242.08-.559.238-.952.158-.423.474-.921.949-1.495.506-.605 1.202-1.284 2.088-2.04.918-.755 2.104-1.616 3.56-2.583-1.614-.423-3.085-1.027-4.414-1.813a14.532 14.532 0 01-3.37-2.9 14.16 14.16 0 01-2.183-3.853c-.506-1.45-.76-3.021-.76-4.713 0-2.206.523-4.29 1.567-6.254a17.143 17.143 0 014.129-5.167 19.71 19.71 0 015.837-3.49 17.938 17.938 0 016.74-1.314c1.898 0 3.67.257 5.315.77a16.496 16.496 0 014.556 2.176 51.308 51.308 0 004.461-.59 49.112 49.112 0 003.56-.77 41.806 41.806 0 002.847-.815 80.189 80.189 0 002.231-.77zm-27.574 42.783c-2.278 1.178-4.082 2.236-5.41 3.172-1.298.937-2.278 1.768-2.943 2.493-.664.755-1.091 1.435-1.281 2.04-.158.604-.238 1.147-.238 1.63 0 1.27.443 2.463 1.33 3.581.885 1.148 2.072 2.13 3.559 2.946 1.487.846 3.211 1.51 5.173 1.994 1.962.514 4.018.77 6.17.77 2.12 0 4.05-.271 5.79-.815 1.74-.544 3.227-1.3 4.46-2.266 1.235-.937 2.184-2.07 2.848-3.4.697-1.298 1.045-2.734 1.045-4.305 0-.846-.206-1.631-.617-2.356-.412-.695-1.155-1.33-2.231-1.904-1.076-.574-2.547-1.088-4.414-1.54-1.835-.454-4.192-.832-7.071-1.134a70.185 70.185 0 01-3.322-.408 53.962 53.962 0 01-2.848-.498zM178.777 202.68l1.471 1.133v14.729h15.52l1.376 1.314c-.285.423-.649.876-1.092 1.36-.41.483-.838.936-1.281 1.36-.443.422-.886.815-1.329 1.178-.411.332-.775.559-1.091.68-.76-.363-1.915-.71-3.465-1.043-1.55-.362-3.607-.544-6.17-.544h-2.468v23.93c0 1.812.08 3.323.238 4.532.19 1.208.49 2.175.901 2.9.412.695.934 1.194 1.567 1.496.664.302 1.47.453 2.42.453 1.107 0 2.5-.212 4.176-.635 1.677-.423 3.75-1.238 6.218-2.447l1.376 2.311a52.604 52.604 0 01-4.604 2.901 47.677 47.677 0 01-4.366 2.085c-1.36.544-2.626.951-3.797 1.223-1.17.303-2.167.454-2.99.454a8.715 8.715 0 01-3.18-.59c-.98-.392-1.85-1.027-2.61-1.903-.759-.906-1.36-2.085-1.803-3.535-.443-1.45-.665-3.233-.665-5.348v-27.827h-6.122l-.997-1.269 3.702-3.036h3.417v-11.149l5.648-4.713zm44.565 14.502c2.056 0 3.891.272 5.505.816 1.614.544 3.022 1.284 4.224 2.22a13.038 13.038 0 013.037 3.218 17.96 17.96 0 011.994 3.853c.537 1.36.917 2.75 1.139 4.17.221 1.389.332 2.718.332 3.987-.57.605-1.329 1.164-2.278 1.677-.95.514-1.93.967-2.943 1.36H209.39c.031 2.357.363 4.607.996 6.753.665 2.115 1.598 3.988 2.8 5.62a14.627 14.627 0 004.414 3.852c1.74.967 3.686 1.45 5.838 1.45.98 0 1.93-.06 2.847-.181.95-.121 1.962-.393 3.038-.816 1.075-.423 2.262-1.042 3.559-1.858 1.329-.816 2.88-1.919 4.651-3.309.411.212.76.514 1.044.907.317.393.554.71.712.951-2.12 2.206-3.987 3.989-5.6 5.348-1.582 1.33-3.085 2.357-4.509 3.082-1.392.725-2.784 1.194-4.176 1.405-1.36.242-2.848.363-4.461.363-2.437 0-4.762-.499-6.977-1.496-2.183-.997-4.113-2.402-5.79-4.215-1.677-1.843-3.022-4.048-4.034-6.617-.981-2.598-1.471-5.498-1.471-8.701 0-2.024.237-4.019.712-5.982a25.679 25.679 0 012.04-5.575 24.755 24.755 0 013.322-4.85 21.899 21.899 0 014.414-3.851 22.83 22.83 0 012.326-1.315 21.998 21.998 0 012.752-1.178 20.5 20.5 0 012.8-.77 12.45 12.45 0 012.706-.318zm158.325 0c3.48 0 6.154.876 8.02 2.629 1.899 1.722 2.848 4.14 2.848 7.251v25.56c0 1.27.174 2.176.522 2.72.348.544.807.816 1.376.816.443 0 1.013-.076 1.709-.227.696-.15 1.677-.483 2.942-.997l.712 2.04c-2.689 1.782-4.92 3.066-6.691 3.852-1.74.816-3.054 1.224-3.94 1.224-1.044 0-1.914-.695-2.61-2.085-.696-1.39-1.076-3.309-1.139-5.756-1.424 1.36-2.847 2.538-4.271 3.535-1.424.997-2.816 1.813-4.177 2.447-1.36.635-2.657 1.103-3.891 1.405-1.203.303-2.31.454-3.323.454-1.139 0-2.31-.182-3.512-.544a9.647 9.647 0 01-3.274-1.722c-.95-.786-1.74-1.798-2.373-3.037-.633-1.239-.95-2.734-.95-4.487 0-2.296.412-4.214 1.235-5.755.854-1.541 1.866-2.87 3.037-3.989a18.933 18.933 0 012.563-2.039c.98-.665 2.262-1.3 3.844-1.903 1.614-.605 3.623-1.179 6.027-1.723 2.405-.543 5.427-1.072 9.065-1.586v-6.39c0-1.027-.126-1.98-.38-2.855-.253-.907-.68-1.677-1.281-2.312-.601-.664-1.424-1.163-2.468-1.495-1.012-.363-2.294-.529-3.844-.499-1.013.03-2.01.197-2.99.499-.98.302-1.835.725-2.563 1.269a6.003 6.003 0 00-1.708 1.949c-.412.725-.57 1.54-.475 2.447.032.272-.3.59-.997.952-.664.332-1.47.634-2.42.906-.918.272-1.835.483-2.753.635-.886.15-1.518.18-1.898.09l-.665-1.767c.728-1.511 1.836-2.961 3.323-4.351a25.717 25.717 0 015.078-3.671 31.26 31.26 0 016.075-2.538c2.151-.635 4.224-.952 6.217-.952zm-274.27-14.956c3.165 0 6.028.287 8.591.862 2.563.543 4.73 1.344 6.502 2.402 1.804 1.057 3.18 2.341 4.13 3.852.98 1.51 1.47 3.218 1.47 5.121 0 3.263-.807 6.073-2.42 8.43-1.614 2.326-3.813 4.003-6.597 5.03a17.46 17.46 0 015.648 2.04 16.987 16.987 0 014.508 3.716 16.211 16.211 0 013.038 4.985c.727 1.843 1.091 3.807 1.091 5.892 0 2.568-.538 4.894-1.613 6.98-1.044 2.054-2.531 3.806-4.462 5.256-1.898 1.45-4.176 2.569-6.834 3.354-2.657.786-5.584 1.178-8.78 1.178a83.51 83.51 0 01-2.515-.045c-.95 0-1.978-.015-3.085-.045l-3.417-.09a119.93 119.93 0 01-3.417-.137c-2.626-.09-5.379-.196-8.258-.317h-3.465v-1.949c2.152-.423 3.829-.876 5.031-1.36 1.234-.513 1.851-.981 1.851-1.404v-49.219c-1.202.152-2.389.318-3.56.499a95.79 95.79 0 00-3.322.499l-.427-2.81a56.762 56.762 0 014.272-.952 79.44 79.44 0 015.173-.861 80.432 80.432 0 015.505-.635 55.549 55.549 0 015.363-.272zm48.362 14.956v38.795c0 .362.522.815 1.566 1.36 1.076.513 2.769.981 5.079 1.404v1.949h-20.408v-1.949c2.151-.423 3.797-.876 4.936-1.36 1.139-.513 1.708-.981 1.708-1.404v-25.652c0-1.54-.031-2.78-.095-3.716-.063-.967-.3-1.707-.712-2.22-.41-.545-1.075-.937-1.993-1.18-.886-.24-2.167-.437-3.844-.588v-1.813c.98-.181 2.01-.393 3.085-.635 1.107-.272 2.199-.559 3.275-.86a59.893 59.893 0 003.084-1.043 47.96 47.96 0 002.706-1.088h1.613zm117.463 0c1.012 0 2.104.121 3.274.363 1.171.242 2.342.68 3.512 1.314.285.181.412.71.38 1.586 0 .877-.126 1.889-.38 3.037a32.08 32.08 0 01-.901 3.535c-.38 1.208-.76 2.22-1.14 3.036h-2.04c-.19-1.208-.459-2.236-.807-3.082-.348-.846-.76-1.51-1.234-1.994-.443-.513-.95-.876-1.519-1.087a4.121 4.121 0 00-1.708-.363c-.696 0-1.519.287-2.468.861-.918.544-1.867 1.42-2.848 2.629-.98 1.178-1.961 2.704-2.942 4.577-.95 1.843-1.804 4.049-2.563 6.617v17.766c0 .453.585.921 1.756 1.405 1.202.483 3.29.936 6.265 1.36v1.948h-21.784v-1.949c2.088-.453 3.717-.891 4.888-1.314 1.17-.453 1.756-.937 1.756-1.45V229.6c0-.997-.032-1.828-.095-2.493a13.595 13.595 0 00-.237-1.676c-.095-.423-.222-.756-.38-.997a3.323 3.323 0 00-.38-.59 2.51 2.51 0 00-.759-.498c-.253-.151-.6-.272-1.044-.363a9.393 9.393 0 00-1.519-.181c-.6-.06-1.344-.12-2.23-.181v-1.813a548.603 548.603 0 006.027-1.541c1.993-.544 3.781-1.239 5.363-2.085l1.661 1.586.617 10.288a45.255 45.255 0 012.753-4.668c1.012-1.45 2.088-2.704 3.227-3.761 1.14-1.088 2.326-1.934 3.56-2.538a9.04 9.04 0 013.939-.907zm73.325 0v38.795c0 .362.522.815 1.566 1.36 1.076.513 2.768.981 5.078 1.404v1.949h-20.408v-1.949c2.152-.423 3.797-.876 4.936-1.36 1.14-.513 1.709-.981 1.709-1.404v-25.652c0-1.54-.032-2.78-.095-3.716-.063-.967-.3-1.707-.712-2.22-.411-.545-1.076-.937-1.993-1.18-.886-.24-2.168-.437-3.845-.588v-1.813c.981-.181 2.01-.393 3.085-.635 1.108-.272 2.2-.559 3.275-.86a59.892 59.892 0 003.085-1.043c.98-.363 1.882-.725 2.705-1.088h1.614zm-236.729 14.05c-1.518 0-2.926.075-4.224.226a58.15 58.15 0 00-3.606.453v24.066c0 .241.142.468.427.68.538.18 1.155.332 1.85.453.697.09 1.409.166 2.136.226a52.889 52.889 0 004.224.182c2.278 0 4.335-.272 6.17-.816 1.835-.574 3.401-1.36 4.698-2.357 1.33-.997 2.342-2.19 3.038-3.58.696-1.42 1.044-2.976 1.044-4.668 0-1.662-.316-3.37-.95-5.121-.6-1.753-1.55-3.354-2.847-4.804-1.265-1.45-2.895-2.629-4.888-3.535-1.962-.937-4.319-1.405-7.072-1.405zm275.598 7.432c-2.658.423-4.857.831-6.597 1.224-1.708.393-3.116.8-4.224 1.224-1.107.392-1.993.815-2.657 1.268a11.8 11.8 0 00-1.756 1.45 10.017 10.017 0 00-1.994 2.81c-.506 1.028-.76 2.252-.76 3.672 0 1.208.19 2.19.57 2.945.38.756.839 1.36 1.377 1.813.538.423 1.091.71 1.66.861.602.151 1.108.227 1.52.227 1.898 0 3.907-.453 6.027-1.36 2.151-.936 4.43-2.402 6.834-4.396v-11.738zm-83.671-16.95c-.791 0-1.677.197-2.658.59-.949.392-1.85.966-2.705 1.722-.854.755-1.566 1.707-2.136 2.855-.57 1.148-.854 2.462-.854 3.943 0 1.601.253 3.127.76 4.577a10.539 10.539 0 002.372 3.716c1.076 1.058 2.42 1.904 4.034 2.538 1.646.605 3.591.907 5.838.907.917 0 1.867-.182 2.847-.544a8.15 8.15 0 002.706-1.722c.822-.786 1.487-1.738 1.993-2.855.538-1.118.807-2.433.807-3.943a12.06 12.06 0 00-.854-4.532 9.884 9.884 0 00-2.468-3.762c-1.076-1.088-2.437-1.934-4.082-2.538-1.614-.634-3.48-.952-5.6-.952zm-79.732.227c-1.645 0-3.164.302-4.556.906a11.544 11.544 0 00-3.655 2.584c-1.044 1.087-1.93 2.402-2.657 3.942-.697 1.511-1.187 3.188-1.472 5.031h20.313c.728 0 1.202-.106 1.424-.317.253-.242.38-.68.38-1.314 0-.816-.127-1.828-.38-3.037-.222-1.239-.696-2.432-1.424-3.58-.696-1.179-1.693-2.176-2.99-2.991-1.266-.816-2.927-1.224-4.983-1.224zM104.74 206.033c-.443 0-.902.015-1.376.046-.443 0-.902.015-1.376.045v21.709h1.613c3.607 0 6.518-.333 8.733-.997 2.246-.695 3.986-1.572 5.22-2.63 1.234-1.057 2.073-2.25 2.516-3.58.443-1.329.664-2.643.664-3.942 0-1.511-.269-2.916-.807-4.215-.506-1.3-1.376-2.417-2.61-3.354-1.234-.967-2.88-1.722-4.936-2.266-2.025-.544-4.572-.816-7.64-.816zm48.409-6.798c2.69 0 4.034 1.435 4.034 4.306a6.75 6.75 0 01-.427 2.402 6.393 6.393 0 01-1.187 1.994 5.518 5.518 0 01-1.708 1.314 4.811 4.811 0 01-2.183.499c-1.424 0-2.452-.378-3.085-1.133-.601-.756-.902-1.828-.902-3.218 0-.846.142-1.647.427-2.402a5.854 5.854 0 011.187-1.949 5.344 5.344 0 011.708-1.314 4.708 4.708 0 012.136-.499zm190.787 0c2.69 0 4.035 1.435 4.035 4.306a6.75 6.75 0 01-.428 2.402 6.393 6.393 0 01-1.186 1.994 5.518 5.518 0 01-1.709 1.314 4.811 4.811 0 01-2.183.499c-1.424 0-2.452-.378-3.085-1.133-.6-.756-.901-1.828-.901-3.218 0-.846.142-1.647.427-2.402a5.854 5.854 0 011.186-1.949 5.344 5.344 0 011.709-1.314 4.708 4.708 0 012.135-.499z" fill-rule="nonzero"/></g></svg>