<svg width="400" height="400" viewBox="0 0 400 400" xmlns="http://www.w3.org/2000/svg"><path d="M94.203 238.547l11.623 25.788 11.742-25.788h10.155L99.289 301H89.134l11.864-26.06-16.95-36.393h10.155zm-51.467-26.911v32.336c4.213-6.455 10.204-9.147 17.021-9.147 14.449 0 26.162 11.558 26.162 25.817 0 14.258-11.713 25.817-26.162 25.817a26.47 26.47 0 01-7.881-1.192v-8.851c2.235 1.138 4.733 1.814 7.368 1.814 9.556 0 17.304-7.864 17.304-17.565 0-9.7-7.748-17.564-17.304-17.564-7.743 0-14.299 5.83-16.508 13.202v28.449h-9.14v-73.116h9.14zm243.963 23.189c6.686 0 12.577 2.59 16.776 8.779l.245.368v-5.425h9.14v46.205h-9.14v-28.449c-2.21-7.372-8.765-13.202-16.508-13.202-9.557 0-17.304 7.864-17.304 17.564s7.747 17.565 17.304 17.565c2.48 0 4.838-.599 6.971-1.618l.397-.196v8.85a26.47 26.47 0 01-7.881 1.193c-14.449 0-26.162-11.559-26.162-25.817 0-14.259 11.713-25.817 26.162-25.817zm-101.825.03c14.455 0 26.185 11.442 26.292 25.597l-43.04.195c0 8.67 6.202 17.537 16.748 17.537 6.683 0 11.621-3.56 14.343-8.376l8.847 3.006c-4.431 8.11-13.154 13.625-23.19 13.625-14.521 0-26.293-11.547-26.293-25.792 0-14.245 11.772-25.792 26.293-25.792zm55.57-17.212l-2.764 7.529c-5.403-3.079-10.788-1.107-10.868 5.205v8.17h8.721v8.124h-8.72l-.001 38.08h-9.14l-.023-38.097-3.958.017v-8.124l3.961-.005.02-7.947c.046-4.6 2.028-8.774 5.83-12.121 3.802-3.347 12.031-3.306 16.942-.831zm93.332 20.904v46.205h-9.14v-46.205h9.14zm-82.377-26.911v73.116h-9.14v-73.116h9.14zm110.587 26.212l4.418 7.581c-6.14 1.054-11.098 4.925-12.923 11.86l-.001 27.463h-9.14v-46.205h9.14v6.007c1.925-3.701 4.975-5.685 8.506-6.706zm-213.968-17.034v17.732h8.632v8.125h-8.632v38.08h-9.14v-38.08h-8.631v-8.124h8.631v-17.733h9.14zm36.856 22.296c-8.428 0-13.081 3.982-15.234 9.218h30.468c-2.153-5.236-6.806-9.218-15.234-9.218zm144.332-17.399a4.57 4.57 0 110 9.14 4.57 4.57 0 010-9.14zm-138.668-70.455c.139 8.946 1.55 16.015 4.234 21.208 4.027 7.79 12.308 13.823 22.969 18.13-9.418 3.455-18.145 4.002-26.18 1.64-4.664-6.387-6.995-13.327-6.995-20.82 0-7.494 1.99-14.213 5.972-20.158zm-6.98-134.53c3.987 1.17 9.514 5.09 16.58 11.765v21.57h17.511v22.182h15.227v7.398h7.957v7.42h7.876c11.217 18.66 15.653 35.394 13.308 50.204-3.708 23.421-16.176 40.122-37.405 50.103 10.814-13.086 16.221-25.72 16.221-37.901 0-12.182-3.513-21.551-10.539-28.109l-.786.902c-7.669 8.718-13.524 13.078-17.565 13.078 6.594-14.89 2.924-37.01-14.275-48.277l-.177 1.07c-1.658 9.565-5.437 20.461-18.503 28.576l-.495.303c-13.964 8.448-20.565 23.231-16.411 41.715 2.769 12.322 10.366 23.118 22.792 32.386-27.915-10.975-43.535-29.566-46.858-55.773-4.986-39.312 30.871-43.693 45.543-118.611zm58.701 31.476v18.766h-18.766V52.202h18.766zM222.875 32.49v16.643h-16.643V32.491h16.643zm19.384-4.682v11.965h-11.965V27.809h11.965zM259.6 0v18.766h-18.766V0H259.6zm-26.723 7.662v8.564h-8.564V7.662h8.564z" fill="#FFF" fill-rule="evenodd"/></svg>