<svg width="400" height="360" viewBox="0 0 400 360" xmlns="http://www.w3.org/2000/svg"><g fill="#FFF"><path d="M151.174 314.973c-.092-.08-2.294-.298-4.895-.483-20.565-1.47-39.852-9.583-53.65-22.57-20.07-18.89-30.794-46.58-32.065-82.793-1.077-30.691 5.744-62.357 19.21-89.174 18.047-35.94 46.403-61.117 79.008-70.15 7.726-2.141 15.25-3.806 16.232-3.593.203.044 1.548-.144 2.99-.418 8.84-1.676 34.176-1.685 48.386-.017 7.97.935 22.557 3.077 23.054 3.384.19.117 1.403.37 2.697.56 1.295.192 5.308 1.047 8.92 1.9 46.337 10.955 78.007 33.822 87.437 63.134 2.695 8.378 3.185 12.305 3.1 24.781-.072 10.41-.245 12.493-1.74 21.01-.912 5.2-1.862 10.754-2.11 12.342-.248 1.59-1.16 6.316-2.029 10.505a2331.39 2331.39 0 00-2.419 11.818c-4.479 22.375-6.339 29.837-10.146 40.705-6.206 17.713-14.54 30.262-25.651 38.623-6.308 4.746-18.082 9.833-27.268 11.78-1.156.245-4.347.967-7.092 1.605-2.745.638-5.464 1.23-6.041 1.314-.578.084-3.77.786-7.092 1.56-3.323.773-7.578 1.74-9.456 2.147-1.878.407-5.07 1.233-7.091 1.837-2.023.603-5.214 1.52-7.092 2.037-1.878.518-7.788 2.367-13.133 4.11-27.577 8.992-37.07 11.349-54.37 13.5-2.769.343-17.408.796-17.694.546z" fill-opacity=".15"/><path d="M209.627 320.859c-7.168-.697-12.58-2.333-20.575-6.22-3.041-1.479-6.242-3.11-7.112-3.623-1.858-1.097-10.33-6.376-12.069-7.52a462.074 462.074 0 00-4.52-2.9 562.78 562.78 0 01-4.966-3.191c-3.399-2.227-15.143-9.251-16.025-9.584-.505-.19-2.223-1.097-3.819-2.015-1.595-.917-9.07-4.826-16.612-8.687-16.384-8.386-21.548-11.304-30.513-17.238-27.46-18.177-43.887-40.111-49.474-66.06-2.297-10.666-1.811-26.193 1.18-37.765 6.156-23.807 21.956-47.813 45.004-68.374 23.52-20.983 50.494-35.306 79.684-42.312 19.1-4.583 41.193-5.151 59.284-1.523 32.017 6.42 60.724 27.481 89.426 65.608 23.758 31.56 36.764 61.82 38.194 88.847 1.341 25.427-6.86 44.762-26.042 61.39-4.62 4.005-11.553 9.348-17.152 13.22-2.378 1.645-3.846 2.677-9.758 6.858-1.555 1.1-27.97 18.5-30.399 20.023-20.435 12.825-37.164 19.629-51.607 20.99-6.01.565-7.025.572-12.129.076z" fill-opacity=".15"/><path d="M197.463 338.858c-.866-.12-3.7-.47-6.298-.784-2.598-.314-5.432-.771-6.298-1.019a217.05 217.05 0 00-3.937-1.065c-7.108-1.847-12.385-3.848-20.47-7.758-27.657-13.373-55.002-40.95-72.614-73.23-2.498-4.58-4.542-8.432-4.542-8.562 0-.13-.618-1.578-1.374-3.219-3.3-7.166-8.288-21.49-10.084-28.96-3.265-13.58-4.427-23.182-4.393-36.275.046-16.418 2.548-29.948 8.14-44.017 8.819-22.186 23.287-40.178 51.029-63.46 7.66-6.428 24.964-18.339 35.15-24.194 5.205-2.992 20.29-10.195 21.038-10.48.744-.283 1.067-.331 1.977-.736 4.242-1.89 14.978-5.368 19.762-6.404 1.01-.219 2.073-.459 2.362-.533 5.85-1.513 11.005-2.412 21.59-2.437 10.927-.022 11.816.482 17.775 1.9a75.49 75.49 0 016.797 1.968c.912.329.723.188 1.313.473 1.25.005 11.454 5.318 14.95 7.784 9.885 6.972 20.24 18.491 30.742 34.195 1.254 1.876 2.418 3.529 2.586 3.673.457.393 14.207 20.978 14.207 21.27 0 .138 1.025 1.726 2.279 3.529 12.456 17.918 21.034 35.098 24.694 49.458 1.827 7.17 2.104 9.458 2.059 17.055-.076 12.855-3.124 21.69-13.128 38.047a25.23 25.23 0 00-1.017 1.837c-.207.432-.512.905-.677 1.049-.537.469-2.663 3.622-2.663 3.95 0 .175-.59 1.092-1.312 2.038-.721.946-1.312 1.964-1.312 2.262 0 .299-.368.848-.818 1.221-.45.373-1.16 1.406-1.578 2.295-.42.889-1.291 2.367-1.938 3.284-2.152 3.05-5.262 8.16-7.099 11.664a428.957 428.957 0 01-4.41 8.103 241.214 241.214 0 00-4.83 9.184c-6.741 13.693-14.232 27.203-19.685 35.503-18.592 28.297-41.146 44.994-67.729 50.14-5.228 1.012-16.778 1.727-20.244 1.25z" fill-opacity=".15"/><path d="M197.463 338.858c-.866-.12-3.7-.47-6.299-.784-2.598-.314-5.432-.771-6.298-1.019-.866-.247-2.637-.727-3.937-1.062-7.107-1.85-12.384-3.851-20.47-7.76-27.657-13.374-55.001-40.95-72.613-73.231-2.498-4.579-4.542-8.432-4.542-8.561 0-.13-.618-1.579-1.374-3.22-3.301-7.166-8.289-21.49-10.084-28.96-3.265-13.58-4.427-23.182-4.393-36.275.046-16.417 2.548-29.948 8.14-44.017 8.818-22.186 23.286-40.178 51.029-63.46 7.66-6.428 24.963-18.338 35.15-24.194 5.205-2.992 20.236-10.48 21.037-10.48.178 0 1.068-.331 1.978-.736 4.242-1.889 14.978-5.368 19.762-6.404a94.933 94.933 0 002.361-.533c5.85-1.512 10.935-1.987 21.52-2.016 10.926-.018 11.886.061 17.846 1.48 3.464.824 6.523 1.71 6.797 1.967.274.259.864.471 1.312.473 1.25.005 11.454 5.318 14.95 7.784 9.885 6.972 20.24 18.491 30.742 34.195 1.254 1.876 2.418 3.53 2.586 3.674.457.393 14.207 20.978 14.207 21.27 0 .137 1.026 1.725 2.279 3.528 12.457 17.918 21.034 35.098 24.694 49.458 1.828 7.171 2.104 9.459 2.059 17.055-.076 12.855-3.124 21.69-13.127 38.047a25.28 25.28 0 00-1.018 1.837c-.207.433-.511.905-.677 1.05-.537.468-2.662 3.62-2.662 3.949 0 .175-.59 1.093-1.313 2.039-.721.946-1.312 1.964-1.312 2.262 0 .298-.368.847-.817 1.22-.45.374-1.16 1.406-1.579 2.295-.419.889-1.29 2.367-1.938 3.285-2.151 3.05-5.261 8.16-7.099 11.663a427.938 427.938 0 01-4.41 8.104 240.977 240.977 0 00-4.83 9.183c-6.74 13.693-14.231 27.203-19.685 35.503-18.591 28.297-41.146 44.994-67.728 50.14-5.229 1.012-16.779 1.727-20.244 1.25z" fill-opacity=".15"/><path d="M214.23 343.744a590.36 590.36 0 00-5.863-.73c-2.418-.292-5.056-.718-5.862-.947-.807-.232-2.455-.677-3.665-.99-6.616-1.721-11.527-3.583-19.053-7.223-25.744-12.448-51.197-38.117-67.59-68.164-2.325-4.262-4.228-7.848-4.228-7.969 0-.12-.576-1.47-1.28-2.997-3.071-6.67-7.714-20.003-9.386-26.957-3.038-12.639-4.12-21.577-4.088-33.765.043-15.281 2.371-27.875 7.576-40.97 8.209-20.652 21.676-37.4 47.499-59.07 7.13-5.984 23.236-17.07 32.718-22.52 4.845-2.785 18.837-9.755 19.582-9.755.166 0 .994-.309 1.84-.686 3.95-1.758 13.943-4.996 18.395-5.96a95.14 95.14 0 002.199-.497c5.444-1.407 10.178-1.85 20.03-1.876 10.17-.017 11.064.057 16.612 1.377 3.224.767 6.071 1.591 6.326 1.832.256.24.805.438 1.222.44 1.163.005 10.661 4.95 13.916 7.246 9.2 6.489 18.84 17.211 28.614 31.829 1.168 1.746 2.251 3.284 2.408 3.419.425.366 13.224 19.526 13.224 19.797 0 .13.955 1.608 2.12 3.285 11.596 16.679 19.58 32.67 22.987 46.037 1.701 6.674 1.958 8.804 1.918 15.875-.073 11.966-2.91 20.188-12.221 35.414a23.485 23.485 0 00-.947 1.71c-.193.403-.476.843-.63.977-.5.436-2.478 3.371-2.478 3.676 0 .163-.55 1.017-1.222 1.898-.672.88-1.221 1.828-1.221 2.106 0 .277-.343.788-.762 1.136-.418.347-1.08 1.308-1.469 2.136-.39.827-1.201 2.203-1.804 3.057-2.002 2.84-4.897 7.596-6.607 10.857a398.473 398.473 0 01-4.105 7.542 224.325 224.325 0 00-4.496 8.548c-6.275 12.746-13.247 25.322-18.323 33.047-17.305 26.34-38.3 41.88-63.043 46.672-4.867.94-15.618 1.605-18.843 1.163z" fill-opacity=".15"/><path d="M139.415 125.232a41.13 41.13 0 00-14.172 2.532 32.791 32.791 0 00-11.53 7.462 34.06 34.06 0 00-7.505 11.268 35.953 35.953 0 00-2.582 13.875 35.207 35.207 0 004.545 17.933 33.072 33.072 0 0013.4 12.92 31.28 31.28 0 008.167 3.102c3.09.825 6.238 1.093 9.4 1.099a40.413 40.413 0 007.857-.805 43.63 43.63 0 007.849-2.39v-.058l.57-17.506a32.497 32.497 0 007.295 10.58c3.343 3.224 7.292 5.81 10.172 6.984 2.879 1.174 4.38 1.658 5.911 2.046l.034 64.104h23.135l.025-33.075 19.622 33.092 68.651-.017v-18.093l-21.541-.025v-6.866l19.043-.034v-17.086l-19.043-.034v-6.28h29.642v48.384h.067v.068l23.915-.034.034-48.417 13.274-.034v-18.084l-11.002-.034a26.308 26.308 0 0010.406-9.306 20.881 20.881 0 003.002-7.722c.695-3.863.931-11.72.931-11.72l-.033-36.203-24 .034.06 37.82c.116 1.471-.425 4.475-1.661 7.152a5.582 5.582 0 01-2.214 1.911c-.89.425-1.887.605-3.589.562-1.7-.043-3.386-.828-4.377-2.398-.001-.001-.008.002-.008 0v-.008a17.78 17.78 0 01-1.493-8.686l-.033-36.387h-24.033l-.034 12.602a18.264 18.264 0 00-5.098-6.833v-.009a30.647 30.647 0 00-20.083-5.793h-.008l-30.188.033-.033 21.656a33.921 33.921 0 00-.688-1.878 33.563 33.563 0 00-7.513-11.226 34.433 34.433 0 00-11.589-7.512 37.25 37.25 0 00-14.054-2.574c-4.787.038-9.573.91-14.062 2.574l.05.117-.008.009c-.015-.042-.027-.085-.042-.126a33.89 33.89 0 00-11.547 7.512c-3.214 3.614-5.946 7.443-7.555 11.235l-.033-17.984-.009-.05a38.002 38.002 0 00-7.69-2.54 37.97 37.97 0 00-8.007-.84zm110.712 18.755c.118-.002.235-.004.352 0a7.63 7.63 0 014.596 1.736 6.49 6.49 0 011.861 4.938v.008a6.228 6.228 0 01-1.861 4.804l-.051-.059.042.059a7.75 7.75 0 01-5.3 1.685h-3.739v-.067h-.059v-13.029h.059v-.067h3.74c.117-.007.242-.006.36-.008zm-109.589 3.052c.218-.002.437-.002.654.008a17.361 17.361 0 017.22 1.56 21.55 21.55 0 015.199 3.336l-.042.05.067.009a38.584 38.584 0 00-.889 8.367 41.4 41.4 0 00.847 8.175l-.058.016.033.05a31.872 31.872 0 01-5.769 3.229 18.34 18.34 0 01-7.06 1.492h-.009a12.28 12.28 0 01-4.964-.805 12.3 12.3 0 01-4.235-2.725 13.023 13.023 0 01-2.675-4.376 12.966 12.966 0 01-.763-5.056c-.083-1.765.19-3.55.805-5.206a13.218 13.218 0 012.793-4.469v-.008a12.79 12.79 0 014.368-2.809 12.828 12.828 0 014.478-.838zm47.193.536c.192 0 .388.014.579.025h.008c1.53-.057 3.07.227 4.478.83a10.422 10.422 0 013.698 2.675 13.64 13.64 0 013.094 9.264c.162 3.3-.969 6.642-3.094 9.172v.008a10.48 10.48 0 01-8.176 3.463h-.008a10.546 10.546 0 01-8.2-3.463v-.008a13.33 13.33 0 01-3.112-9.172 13.586 13.586 0 013.111-9.239 9.978 9.978 0 017.622-3.555zm89.85 10.497l.05.025h.076v4.964c-.114 4.317.04 7.942.905 11.787.595 2.642.931 4.698 2.91 7.58 2.67 3.887 6.254 7.361 10.582 9.39l-.025.058v.059h-8.922v-.059l-.05.034-16.695-25.446.058-.033-.008-.067a13.499 13.499 0 005.24-1.694 13.517 13.517 0 004.126-3.655 17.005 17.005 0 001.753-2.943zm-31.79 13.481l10.76 20.29-.05.033v.059h-10.768v-.059h-.058v-20.298h.067l.05-.025zm-23.63.193l.068.025h.058v53.657h-.058l-.059.034-19.521-32.856.05-.034-.016-.059a34.437 34.437 0 0011.06-7.269 33.74 33.74 0 007.589-11.25c.303-.738.58-1.49.83-2.248z"/><path d="M165.747 235.981a11.694 11.694 0 00-8.17 3.385 11.69 11.69 0 00-3.386 8.17 11.69 11.69 0 003.385 8.169 11.69 11.69 0 008.171 3.38 11.69 11.69 0 008.17-3.38 11.686 11.686 0 003.382-8.17c0-3.025-1.242-6.03-3.381-8.17a11.694 11.694 0 00-8.17-3.384z"/></g></svg>