<svg width="400" height="360" viewBox="0 0 400 360" xmlns="http://www.w3.org/2000/svg"><path d="M372.638 224.523c5.397-1.222 10.783.992 13.783 5.178l-23.857 5.397c.824-5.05 4.676-9.355 10.074-10.575zm13.917 19.859a13.166 13.166 0 01-7.975 5.368c-5.433 1.23-10.855-1.022-13.841-5.262l23.929-5.414 3.897-.882 7.455-1.685a23.61 23.61 0 00-.621-4.754c-3.034-12.877-16.144-20.905-29.282-17.933-13.137 2.974-21.33 15.823-18.296 28.698 3.032 12.878 16.142 20.907 29.28 17.935 7.74-1.753 13.763-6.933 16.785-13.528l-11.33-2.543zm-56.314 15.42v-34.139h-7.368v-11.63h7.368v-16.01h12.513v16.01h9.398v11.63h-9.398v34.14H330.24zm-23.903 0h12.084v-45.77h-12.084v45.77zm-1.57-61.827c0-4.236 3.34-7.414 7.662-7.414 4.323 0 7.565 3.178 7.565 7.414 0 4.238-3.242 7.51-7.565 7.51-4.322 0-7.663-3.272-7.663-7.51zm-2.636 16.186c-6.178.32-9.821 1.268-13.526 3.954v-4.082h-12.078v45.77h12.076v-22.445c0-7.062 1.723-11.08 13.528-11.474V214.16zm-67.334 23.476c.3 6.679 6.114 12.28 13.23 12.28 7.218 0 13.132-5.896 13.132-12.87 0-6.877-5.914-12.77-13.132-12.77-7.114 0-12.93 5.697-13.23 12.28v1.08zm-11.783 22.165v-67.608l12.084-2.734v27.98c3.733-2.987 8.156-4.24 12.97-4.24 13.754 0 24.758 10.594 24.758 23.884 0 13.191-11.002 23.977-24.759 23.977-4.813 0-9.236-1.25-12.97-4.237v2.98h-12.083v-.002zm-25.72 0V225.43h-7.368v-11.396h7.368V198.01l12.512-2.831v18.853h9.399v11.396h-9.399v34.373h-12.512zm-22.143 0v-24.454c0-8.86-4.816-10.785-9.631-10.785-4.814 0-9.627 1.83-9.627 10.593v24.646H143.81v-45.77h12.084v3.405c2.651-1.926 5.893-4.238 12.282-4.238 10.216 0 19.06 5.875 19.06 20.223v26.38h-12.084zm-61.944-35.279c5.399-1.222 10.785.992 13.783 5.178l-23.854 5.397c.821-5.05 4.675-9.355 10.071-10.575zm13.918 19.859a13.166 13.166 0 01-7.976 5.368c-5.43 1.23-10.853-1.022-13.841-5.262l23.93-5.414 3.898-.882 7.453-1.685a23.61 23.61 0 00-.621-4.754c-3.034-12.877-16.144-20.905-29.282-17.933-13.137 2.974-21.33 15.823-18.295 28.698 3.034 12.878 16.141 20.907 29.28 17.935 7.742-1.753 13.764-6.933 16.784-13.528l-11.33-2.543zm-63.2 15.42l-18.767-45.77h13.166l11.89 31.041 11.985-31.04h13.165l-18.764 45.77H63.926zm-42.46-35.291c5.4-1.222 10.786.992 13.786 5.178l-23.857 5.399c.822-5.05 4.675-9.355 10.072-10.577zm13.918 19.859a13.166 13.166 0 01-7.976 5.37c-5.43 1.229-10.853-1.022-13.84-5.262l23.93-5.414 3.898-.882 7.452-1.687a23.61 23.61 0 00-.62-4.752c-3.035-12.877-16.142-20.907-29.282-17.935C5.808 216.782-2.38 229.633.65 242.51c3.034 12.877 16.144 20.905 29.281 17.933 7.741-1.751 13.763-6.933 16.785-13.526l-11.332-2.545v-.002z" fill="#FFF"/></svg>