<svg width="600" height="400" viewBox="0 0 600 400" xmlns="http://www.w3.org/2000/svg"><path d="M323.413 291.606c7.263 0 13.408 2.848 18.424 8.538 5.168 5.769 7.751 12.695 7.751 20.783 0 8.157-2.583 15.088-7.751 20.778-5.016 5.69-11.16 8.538-18.424 8.538-4.04 0-7.732-.86-11.063-2.584-3.331-1.72-5.9-4.005-7.698-6.853h-.449l.45 7.64v24.265h-10.336v-79.307h9.886v7.639h.45c1.797-2.843 4.366-5.129 7.697-6.858 3.331-1.72 7.024-2.579 11.063-2.579zm-77.178 1.798v33.922c.225 8.987 4.758 13.48 13.594 13.48 4.117 0 7.565-1.665 10.335-5.001 2.774-3.326 4.156-7.317 4.156-11.962v-30.44h10.336v55.043h-9.886v-7.64h-.45c-1.567 2.701-3.985 4.943-7.243 6.746-3.258 1.792-6.648 2.691-10.164 2.691-6.74 0-11.933-1.924-15.562-5.783-3.634-3.859-5.45-9.344-5.45-16.456v-34.6h10.334zm131.404-1.798c4.865 0 9.27 1.158 13.203 3.483 3.927 2.32 6.687 5.426 8.254 9.324l-9.212 3.815c-1.05-2.315-2.75-4.132-5.113-5.446-2.355-1.304-4.997-1.964-7.918-1.964-2.691 0-5.114.674-7.244 2.022-2.139 1.348-3.199 2.994-3.199 4.943 0 3.146 2.955 5.393 8.87 6.736l8.313 2.14c10.932 2.69 16.407 8.195 16.407 16.508 0 4.797-2.1 8.841-6.296 12.138-4.196 3.292-9.476 4.938-15.84 4.938-5.539 0-10.413-1.446-14.604-4.323-4.191-2.881-7.19-6.681-8.987-11.4l9.212-3.937c1.348 3.297 3.316 5.862 5.9 7.698 2.579 1.832 5.407 2.755 8.48 2.755 3.296 0 6.05-.713 8.259-2.14 2.207-1.42 3.311-3.106 3.311-5.055 0-3.521-2.691-6.1-8.088-7.751l-9.432-2.354c-10.716-2.701-16.07-7.87-16.07-15.508 0-5.012 2.037-9.041 6.12-12.07 4.084-3.033 9.31-4.552 15.674-4.552zM27.636 266.217c6.144 0 11.463 1.573 15.957 4.719 4.494 3.072 7.488 6.93 8.987 11.57l-9.666 4.045c-.894-2.994-2.677-5.485-5.334-7.468-2.662-1.988-5.9-2.98-9.72-2.98-4.039 0-7.448 1.119-10.223 3.356-2.769 2.085-4.151 4.806-4.151 8.166 0 2.755 1.08 5.144 3.258 7.156 2.393 2.017 7.595 4.4 15.61 7.156 8.167 2.784 13.989 6.178 17.471 10.193 3.483 4.015 5.227 8.953 5.227 14.805 0 7.058-2.59 12.724-7.752 17.002-5.246 4.206-11.61 6.306-19.103 6.306-6.667 0-12.543-1.944-17.637-5.842C5.466 340.508 1.949 335.19 0 328.45l9.886-4.044c.674 2.403 1.612 4.571 2.813 6.515 1.197 1.95 2.599 3.62 4.21 5.002a19 19 0 005.34 3.258c1.943.786 4.004 1.177 6.173 1.177 4.718 0 8.577-1.216 11.571-3.649 3-2.432 4.494-5.675 4.494-9.715 0-3.375-1.236-6.256-3.703-8.655-2.325-2.315-6.672-4.562-13.031-6.735-6.447-2.325-10.448-3.893-12.02-4.718-8.538-4.348-12.807-10.746-12.807-19.216 0-5.915 2.354-10.97 7.077-15.16 4.787-4.196 10.668-6.292 17.633-6.292zM121 291.607c7.64 0 13.667 2.04 18.092 6.12 4.415 4.083 6.623 9.68 6.623 16.792v33.927h-9.88v-7.64h-.455c-4.264 6.291-9.96 9.437-17.071 9.437-6.066 0-11.146-1.797-15.225-5.392-4.083-3.59-6.12-8.084-6.12-13.481 0-5.69 2.15-10.223 6.457-13.593 4.309-3.37 10.053-5.056 17.242-5.056 6.14 0 11.195 1.124 15.171 3.37v-2.359c0-3.59-1.426-6.642-4.269-9.153-2.847-2.506-6.183-3.76-9.998-3.76-5.773 0-10.335 2.432-13.71 7.301l-9.095-5.73c5.011-7.194 12.43-10.784 22.238-10.784zm93.467-15.054v16.85h13.481v9.437h-13.48v27.411c0 3.668.713 6.155 2.139 7.468 1.421 1.314 3.028 1.964 4.826 1.964.825 0 1.631-.093 2.417-.278a12.11 12.11 0 002.189-.733l3.257 9.212c-2.69.972-5.841 1.46-9.431 1.46-4.499 0-8.226-1.382-11.18-4.156-2.96-2.77-4.475-6.628-4.553-11.571V302.84h-9.661v-9.436h9.661v-16.851h10.335zm-136.278 0v16.85h13.48v9.437H78.19v27.411c0 3.668.708 6.155 2.134 7.468 1.422 1.314 3.034 1.964 4.831 1.964.825 0 1.631-.093 2.418-.278a12.11 12.11 0 002.188-.733l3.258 9.212c-2.696.972-5.842 1.46-9.437 1.46-4.493 0-8.22-1.382-11.18-4.156-2.955-2.77-4.474-6.628-4.547-11.571V302.84h-9.662v-9.436h9.662v-16.851h10.335zm106.513 15.278l2.13.225v10.784l-4.601-.45c-4.797 0-8.748 1.48-11.855 4.436-3.111 2.96-4.664 6.72-4.664 11.288v30.332h-10.33v-55.042h9.88v8.987h.45c3.072-7.038 9.402-10.56 18.99-10.56zm-62.354 29.204c-4.195 0-7.692 1.01-10.506 3.033-2.803 2.022-4.21 4.532-4.21 7.526 0 2.697 1.143 4.943 3.424 6.74 2.286 1.798 4.962 2.702 8.035 2.702 4.347 0 8.22-1.612 11.63-4.836 3.404-3.218 5.113-6.999 5.113-11.346-3.228-2.545-7.717-3.82-13.486-3.82zm199.38-19.992c-5.016 0-9.212 1.87-12.582 5.617-3.297 3.746-4.943 8.499-4.943 14.267 0 5.837 1.646 10.628 4.943 14.375 3.37 3.673 7.566 5.504 12.582 5.504 4.943 0 9.1-1.87 12.47-5.617 3.37-3.668 5.055-8.425 5.055-14.262 0-5.768-1.685-10.52-5.055-14.267-3.37-3.746-7.527-5.617-12.47-5.617zM71.527 175.553c8.161 0 14.897 2.77 20.216 8.314 5.397 5.544 8.084 12.543 8.084 21.008 0 8.537-2.687 15.537-8.084 21.002-5.32 5.544-12.055 8.318-20.216 8.318-8.167 0-14.947-2.774-20.339-8.318-5.314-5.539-7.976-12.543-7.976-21.002 0-8.465 2.662-15.464 7.976-21.008 5.392-5.544 12.172-8.313 20.339-8.313zM34.225 151.06c3.746 0 6.813.64 9.217 1.914l-2.814 9.095c-1.797-.899-3.82-1.343-6.061-1.343-2.545 0-4.626.879-6.238 2.637-1.612 1.759-2.413 4.103-2.413 7.02v6.97h14.375v9.436H25.916v45.61h-10.34v-45.61H5.241v-9.437h10.335v-7.98c0-5.466 1.744-9.882 5.227-13.257 3.482-3.365 7.956-5.055 13.422-5.055zm99.646 24.72c2.994 0 5.543.449 7.639 1.343l-3.146 10.003c-1.275-.528-3.297-.787-6.061-.787-3.898 0-7.288 1.568-10.17 4.719-2.881 3.14-4.327 6.813-4.327 11.01v30.331H107.47v-55.047h9.886v8.987h.449c1.05-2.925 3.2-5.411 6.462-7.473 3.253-2.056 6.462-3.087 9.603-3.087zm-62.344 9.206c-5.022 0-9.295 1.876-12.812 5.622-3.448 3.669-5.168 8.421-5.168 14.268 0 5.915 1.72 10.706 5.168 14.374 3.443 3.673 7.717 5.505 12.812 5.505 5.09 0 9.358-1.832 12.802-5.505 3.443-3.668 5.167-8.46 5.167-14.374 0-5.847-1.724-10.6-5.167-14.268-3.522-3.746-7.786-5.622-12.802-5.622zM256.12 59.706c6.99 0 12.538 3.107 15.425 6.545h.45V61.48h12.21v52.625c0 21.642-12.767 30.527-27.87 30.527-14.208 0-22.751-9.55-25.975-17.32l11.215-4.66c1.997 4.772 6.882 10.433 14.76 10.433 9.662 0 15.66-5.998 15.66-17.207v-4.22h-.45c-2.887 3.555-8.435 6.662-15.425 6.662-14.653 0-28.085-12.763-28.085-29.199 0-16.538 13.432-29.414 28.085-29.414zM49.068 27.29c13.882 0 23.758 5.441 31.197 12.543l-8.773 8.772c-5.328-4.996-12.543-8.88-22.424-8.88-18.316 0-32.642 14.766-32.642 33.077 0 18.322 14.326 33.087 32.642 33.087 11.88 0 18.649-4.777 22.981-9.104 3.551-3.556 5.886-8.66 6.77-15.655h-29.75V68.7h41.849c.449 2.217.669 4.884.669 7.77 0 9.325-2.555 20.871-10.765 29.087-7.996 8.323-18.21 12.763-31.754 12.763-25.086 0-46.176-20.427-46.176-45.518 0-25.086 21.09-45.512 46.176-45.512zm78.365 32.417c15.913 0 28.886 12.319 28.886 29.307 0 16.875-12.973 29.306-28.886 29.306-15.913 0-28.881-12.43-28.881-29.306 0-16.988 12.968-29.307 28.881-29.307zm64.752 0c15.908 0 28.886 12.319 28.886 29.307 0 16.875-12.978 29.306-28.886 29.306-15.913 0-28.881-12.43-28.881-29.306 0-16.988 12.968-29.307 28.881-29.307zm149.335 0c15.21 0 22.648 12.099 25.09 18.649l1.329 3.331-39.187 16.206c2.999 5.886 7.658 8.88 14.208 8.88 6.555 0 11.103-3.214 14.434-8.103l9.988 6.662c-3.214 4.772-10.985 12.988-24.422 12.988-16.645 0-28.67-12.88-28.67-29.306 0-17.428 12.132-29.307 27.23-29.307zM306.772 30.4v86.146h-12.88V30.4h12.88zM127.433 71.248c-8.719 0-16.24 7.214-16.24 17.765 0 10.433 7.521 17.76 16.24 17.76 8.719 0 16.24-7.327 16.24-17.76 0-10.55-7.521-17.765-16.24-17.765zm64.752 0c-8.719 0-16.245 7.214-16.245 17.765 0 10.433 7.526 17.76 16.245 17.76 8.723 0 16.24-7.327 16.24-17.76 0-10.55-7.517-17.765-16.24-17.765zm65.045 0c-8.88 0-16.323 7.551-16.323 17.872 0 10.218 7.443 17.652 16.323 17.652 8.768 0 15.65-7.434 15.65-17.652 0-10.32-6.882-17.872-15.65-17.872zm84.734-.22c-6.55 0-15.65 5.774-15.322 17.096l26.2-10.878c-1.446-3.663-5.769-6.218-10.878-6.218z" fill="#FFFFFE" fill-rule="evenodd"/></svg>