<?xml version="1.0" encoding="UTF-8"?>
<svg width="400px" height="400px" viewBox="0 0 400 400" version="1.1" xmlns="http://www.w3.org/2000/svg" xmlns:xlink="http://www.w3.org/1999/xlink">
    <title>logos/idealista</title>
    <g id="logos/idealista" stroke="none" stroke-width="1" fill="none" fill-rule="evenodd">
        <path d="M64.8648649,300.573335 L64.8648649,268.140902 L43.2432432,268.140902 L43.2432432,257.330092 L64.8648649,257.330092 L64.8648649,235.70847 L75.6756757,235.70847 L75.6756757,311.384146 L64.8648649,311.384146 L43.2432432,311.384146 L43.2432432,300.573335 L64.8648649,300.573335 Z M335.135135,257.330092 L345.945946,257.330092 L345.945946,268.140902 L335.135135,268.140902 L335.135135,300.573335 L324.324324,300.573335 L324.324324,268.140902 L313.513514,268.140902 L313.513514,257.330092 L324.324324,257.330092 L324.324324,235.70847 L335.135135,235.70847 L335.135135,257.330092 Z M248.648649,268.140902 L248.648649,311.384146 L237.837838,311.384146 L237.837838,268.140902 L227.027027,268.140902 L227.027027,257.330092 L248.648649,257.330092 L248.648649,268.140902 Z M21.6216216,268.140902 L21.6216216,311.384146 L10.8108108,311.384146 L10.8108108,268.140902 L5.68434189e-14,268.140902 L5.68434189e-14,257.330092 L21.6216216,257.330092 L21.6216216,268.140902 Z M172.972973,300.573335 L172.972973,289.762524 L151.351351,289.762524 L151.351351,278.951713 L172.972973,278.951713 L172.972973,268.140902 L183.783784,268.140902 L183.783784,311.384146 L172.972973,311.384146 L151.351351,311.384146 L151.351351,300.573335 L172.972973,300.573335 Z M389.189189,300.573335 L389.189189,289.762524 L367.567568,289.762524 L367.567568,278.951713 L389.189189,278.951713 L389.189189,268.140902 L400,268.140902 L400,311.384146 L389.189189,311.384146 L367.567568,311.384146 L367.567568,300.573335 L389.189189,300.573335 Z M118.918919,289.762524 L97.2972973,289.762524 L97.2972973,300.573335 L86.4864865,300.573335 L86.4864865,268.140902 L97.2972973,268.140902 L97.2972973,278.951713 L118.918919,278.951713 L118.918919,268.140902 L129.72973,268.140902 L129.72973,289.762524 L118.918919,289.762524 Z M216.216216,246.519281 L216.216216,311.384146 L205.405405,311.384146 L205.405405,246.519281 L194.594595,246.519281 L194.594595,235.70847 L216.216216,235.70847 L216.216216,246.519281 Z M270.27027,257.330092 L302.702703,257.330092 L302.702703,268.140902 L270.27027,268.140902 L270.27027,257.330092 Z M259.459459,268.140902 L270.27027,268.140902 L270.27027,278.951713 L259.459459,278.951713 L259.459459,268.140902 Z M270.27027,278.951713 L291.891892,278.951713 L291.891892,289.762524 L270.27027,289.762524 L270.27027,278.951713 Z M291.891892,289.762524 L302.702703,289.762524 L302.702703,300.573335 L291.891892,300.573335 L291.891892,289.762524 Z M259.459459,300.573335 L291.891892,300.573335 L291.891892,311.384146 L259.459459,311.384146 L259.459459,300.573335 Z M97.2972973,300.573335 L118.918919,300.573335 L118.918919,311.384146 L97.2972973,311.384146 L97.2972973,300.573335 Z M97.2972973,257.330092 L118.918919,257.330092 L118.918919,268.140902 L97.2972973,268.140902 L97.2972973,257.330092 Z M367.567568,257.330092 L389.189189,257.330092 L389.189189,268.140902 L367.567568,268.140902 L367.567568,257.330092 Z M356.756757,289.762524 L367.567568,289.762524 L367.567568,300.573335 L356.756757,300.573335 L356.756757,289.762524 Z M151.351351,257.330092 L172.972973,257.330092 L172.972973,268.140902 L151.351351,268.140902 L151.351351,257.330092 Z M140.540541,289.762524 L151.351351,289.762524 L151.351351,300.573335 L140.540541,300.573335 L140.540541,289.762524 Z M10.8108108,235.70847 L21.6216216,235.70847 L21.6216216,246.519281 L10.8108108,246.519281 L10.8108108,235.70847 Z M237.837838,235.70847 L248.648649,235.70847 L248.648649,246.519281 L237.837838,246.519281 L237.837838,235.70847 Z M335.135135,300.573335 L345.945946,300.573335 L345.945946,311.384146 L335.135135,311.384146 L335.135135,300.573335 Z M32.4324324,268.140902 L43.2432432,268.140902 L43.2432432,300.573335 L32.4324324,300.573335 L32.4324324,268.140902 Z" id="Rectangle-84" fill="#FFFFFF" fill-rule="nonzero"></path>
    </g>
</svg>