<svg width="400" height="400" viewBox="0 0 400 400" xmlns="http://www.w3.org/2000/svg"><path d="M22.882 270.864v28.06a13.41 13.41 0 01-22.64 9.717L0 308.406l5.592-5.592a5.491 5.491 0 009.376-3.652l.004-.238v-28.06h7.91zm277.027 0v26.72a16.776 16.776 0 01-1.118 6.358 12.665 12.665 0 01-7.728 7.416 17.945 17.945 0 01-11.506 0 12.645 12.645 0 01-7.738-7.416 16.977 16.977 0 01-1.11-5.857l.001-.5v-21.16l5.552-5.561v26.57c0 3.133.786 5.48 2.378 7.163a8.715 8.715 0 006.67 2.519 8.615 8.615 0 006.64-2.519c1.497-1.613 2.278-3.868 2.343-6.765l.004-.399v-26.569h5.612zm84.527-.852l.45-.004a16.12 16.12 0 015.905.916 12.887 12.887 0 014.03 2.429c.896.801 1.66 1.736 2.268 2.77l.22.393-4.03 4.03-.196-.48c-.07-.17-.146-.346-.227-.527a7.98 7.98 0 00-1.602-2.257 8.191 8.191 0 00-2.579-1.693 9.43 9.43 0 00-3.667-.654 9.23 9.23 0 00-3.144.513 7.718 7.718 0 00-2.469 1.431 6.469 6.469 0 00-1.632 2.146 6.398 6.398 0 00-.564 2.66 5.693 5.693 0 001.31 3.758 6.821 6.821 0 003.6 2.088l.3.058 6.044 1.32c2.971.53 5.704 1.97 7.819 4.121a10.378 10.378 0 012.75 7.214 10.821 10.821 0 01-1.007 4.524 11.325 11.325 0 01-2.8 3.84 14.106 14.106 0 01-4.414 2.67 16.02 16.02 0 01-5.834 1.007 17.128 17.128 0 01-6.388-1.089 14.861 14.861 0 01-4.584-2.8 12.806 12.806 0 01-2.892-3.87c-.134-.282-.25-.564-.361-.846l-.163-.423 4.575-4.564c.119 1.077.39 2.132.806 3.133a8.423 8.423 0 001.894 2.781 9.21 9.21 0 003.023 1.914c1.283.501 2.652.745 4.03.716 2.78 0 4.876-.625 6.267-1.884a5.975 5.975 0 002.096-4.585 5.907 5.907 0 00-1.492-3.92 7.87 7.87 0 00-4.257-2.322l-.327-.055-5.783-1.26a14.186 14.186 0 01-7.124-3.758 9.924 9.924 0 01-2.78-7.355 10.58 10.58 0 011.007-4.574 12.282 12.282 0 012.841-3.839 14.106 14.106 0 014.262-2.67 13.894 13.894 0 014.819-1.003zm-346.119 1.053l10.52 10.52-6.066 6.075-4.454-4.453v28.463H30.53v-40.605h7.788zm91.507-.201l12.252 33.39 12.372-33.39h5.895l-15.628 40.605h-5.561l-15.285-40.605h5.955zm73.833 0l20.272 31.154v-31.154h5.613v40.605h-5.844l-21.935-33.099v33.099h-5.602v-40.605h7.496zm103.799 0h15.285a13.562 13.562 0 015.188.947 11.597 11.597 0 013.92 2.58 11.244 11.244 0 012.458 3.838c.527 1.367.815 2.814.853 4.276l.004.44a11.406 11.406 0 01-2.6 7.536 11.93 11.93 0 01-6.923 3.923l-.351.057 9.672 17.008h-6.529l-9.27-16.605h-6.045v16.605h-5.662v-40.605zm58.448 0v5.209h-19.063v12.484h13.451v5.27h-13.45v12.432h20.785l-5.219 5.21H341.23v-40.605h24.675zm-95.708 0l-5.209 5.209h-11.909v35.396h-5.612v-35.396h-13.572v-5.209h36.302zm-163.707 0v7.446H88.967v9.28h11.285v7.042H88.967v9.39h19.809l-7.436 7.447H81.068v-40.605h25.42zm-33.068 0v40.605h-7.789v-28.464L51.87 296.768l-3.91-3.91-2.155-2.165 19.828-19.829h7.789zm115.919 0v5.209h-19.063v12.484h13.451v5.27h-13.45v12.432h19.062v5.21h-24.675v-40.605h24.675zm132.692 5.03l-.32.008h-8.594v13.914h8.595a8.06 8.06 0 005.551-1.854 6.338 6.338 0 002.116-5.017 6.55 6.55 0 00-2.116-5.149 8.06 8.06 0 00-5.232-1.902z" fill="#FFF"/></svg>