<svg width="400" height="360" viewBox="0 0 400 360" xmlns="http://www.w3.org/2000/svg"><path d="M105.46 205.8c6.146 0 9.25 1.776 12.717 5.328l.48.5v-2.077c0-.705.239-1.281.717-1.73a2.371 2.371 0 011.675-.673h10.813c.702 0 1.276.224 1.722.673.447.449.67 1.025.67 1.73v45.462c0 .64-.223 1.201-.67 1.682-.446.48-1.02.72-1.722.72h-10.813c-.638 0-1.196-.24-1.675-.72-.478-.48-.717-1.042-.717-1.682v-2.48c-3.498 3.708-6.655 5.563-13.197 5.563-6.601 0-11.67-1.889-15.206-5.665-3.383-3.613-5.291-8.688-5.726-15.225l-.05-.9a55.048 55.048 0 01-.072-2.664l-.007-1.694.007-1.694c.01-1.019.029-1.817.057-2.394l.015-.27c.314-6.844 2.292-12.186 5.933-16.028 3.641-3.841 8.657-5.762 15.049-5.762zm292.052-19.324c.702 0 1.292.224 1.77.673.479.449.718 1.025.718 1.73v65.796c0 .705-.24 1.282-.718 1.73-.478.449-1.068.673-1.77.673h-11.387c-.637 0-1.196-.24-1.674-.72-.479-.482-.718-1.042-.718-1.683v-2.98c-3.444 4.23-8.388 6.344-14.831 6.344-6.188 0-11.052-1.954-14.592-5.863-3.54-3.91-5.439-9.484-5.694-16.726l-.095-3.364.095-3.46c.255-6.986 2.17-12.48 5.741-16.486 3.573-4.005 8.42-6.008 14.545-6.008 5.741 0 10.366 1.859 13.874 5.576v-22.829c0-.705.24-1.281.718-1.73a2.371 2.371 0 011.675-.673h12.343zm-82.025 19.52c5.487 0 10.128 1.106 13.923 3.317 3.796 2.21 6.635 5.255 8.517 9.132 1.882 3.877 2.823 8.283 2.823 13.218v2.403c0 .705-.24 1.297-.718 1.778-.478.48-1.068.721-1.77.721h-30.334v.577c.064 2.884.733 5.207 2.01 6.97 1.275 1.761 3.093 2.643 5.454 2.643 1.53 0 2.759-.305 3.684-.914.74-.487 1.45-1.086 2.128-1.8l.503-.555c.574-.64 1.037-1.041 1.388-1.201.35-.16.909-.24 1.674-.24h12.536c.574 0 1.068.176 1.483.528.415.353.622.785.622 1.298 0 1.666-.94 3.62-2.823 5.864-1.882 2.243-4.625 4.165-8.23 5.767-3.604 1.602-7.862 2.403-12.774 2.403-7.783 0-13.907-2.098-18.373-6.296-4.465-4.197-6.762-10.302-6.89-18.312v-2.98c.256-7.626 2.616-13.586 7.082-17.88 4.465-4.294 10.494-6.44 18.085-6.44zm-255.776.19c5.231 0 9.49 1.78 12.775 5.336 3.285 3.557 4.928 8.86 4.928 15.91v27.58c0 .641-.223 1.202-.67 1.683-.446.48-1.02.72-1.722.72h-11.77c-.702 0-1.292-.224-1.77-.672-.48-.449-.718-1.025-.718-1.73v-26.909c0-2.948-.622-5.11-1.866-6.489-1.244-1.377-2.919-2.066-5.024-2.066-1.978 0-3.588.689-4.832 2.066-1.244 1.378-1.866 3.541-1.866 6.489v6.462c0 1.05-.85 1.901-1.896 1.901H32.42a1.898 1.898 0 01-1.896-1.9v-6.463c0-2.948-.638-5.11-1.913-6.489-1.276-1.377-2.935-2.066-4.976-2.066-1.978 0-3.605.689-4.88 2.066-1.276 1.378-1.914 3.509-1.914 6.393v6.558c0 1.05-.85 1.901-1.896 1.901H1.896a1.898 1.898 0 01-1.896-1.9V209.55c0-.705.24-1.281.718-1.73a2.371 2.371 0 011.674-.673h11.1c.702 0 1.276.224 1.723.673.446.449.67 1.025.67 1.73v3.269c1.53-1.859 3.508-3.429 5.933-4.71 2.424-1.282 5.167-1.923 8.229-1.923 7.017 0 11.834 2.756 14.45 8.267 1.53-2.435 3.667-4.422 6.41-5.96 2.744-1.538 5.678-2.307 8.804-2.307zm118.274 0c3.636 0 6.874.834 9.713 2.5 2.838 1.666 5.071 4.134 6.698 7.402 1.627 3.268 2.44 7.21 2.44 11.824v27.1c0 .641-.223 1.202-.67 1.683-.446.48-1.02.72-1.722.72h-12.727c-.702 0-1.292-.224-1.77-.672-.479-.449-.718-1.025-.718-1.73v-26.524c0-2.884-.686-5.095-2.057-6.633-1.372-1.538-3.365-2.307-5.981-2.307-2.552 0-4.561.785-6.029 2.355-1.467 1.57-2.2 3.765-2.2 6.585v6.077c0 1.05-.85 1.901-1.896 1.901h-13.72a1.898 1.898 0 01-1.896-1.9V209.55c0-.705.24-1.281.718-1.73a2.371 2.371 0 011.674-.673h11.77c.702 0 1.276.224 1.723.673.446.449.67 1.025.67 1.73v3.653c1.722-2.115 3.939-3.813 6.65-5.095 2.711-1.281 5.821-1.922 9.33-1.922zM241.428 186c.702 0 1.292.224 1.77.673.479.448.718 1.025.718 1.73v8.267c0 .705-.24 1.282-.718 1.73-.478.45-1.068.673-1.77.673h-6.794c-2.041 0-3.493.465-4.354 1.394-.861.93-1.292 2.355-1.292 4.278v2.403h11.483c.702 0 1.292.224 1.77.673.479.449.718 1.025.718 1.73v8.267c0 .705-.24 1.282-.718 1.73-.478.45-1.068.674-1.77.674h-11.483v34.79c0 .641-.223 1.202-.67 1.683-.446.48-1.02.72-1.722.72h-11.674c-.702 0-1.292-.224-1.77-.672-.48-.449-.718-1.025-.718-1.73v-34.791h-7.177c-.702 0-1.292-.225-1.77-.673-.479-.449-.718-1.026-.718-1.73v-8.268c0-.705.24-1.281.718-1.73.478-.449 1.068-.673 1.77-.673h7.177v-2.884c0-6.408 1.85-11.054 5.55-13.938 3.7-2.884 8.995-4.326 15.884-4.326h7.56zm22.968 56.18c1.047 0 1.896.851 1.896 1.901v11.434c0 1.05-.849 1.9-1.896 1.9H250.7a1.898 1.898 0 01-1.896-1.9V244.08c0-1.05.85-1.9 1.896-1.9h13.697zm-103.328 0c1.047 0 1.895.851 1.895 1.901v11.434c0 1.05-.848 1.9-1.895 1.9h-13.726a1.898 1.898 0 01-1.896-1.9V244.08c0-1.05.85-1.9 1.896-1.9h13.726zm-115.775 0c1.047 0 1.896.851 1.896 1.901v11.434c0 1.05-.849 1.9-1.896 1.9h-12.89a1.898 1.898 0 01-1.897-1.9V244.08c0-1.05.85-1.9 1.896-1.9h12.891zm-30.341 0c1.047 0 1.895.851 1.895 1.901v11.434c0 1.05-.848 1.9-1.895 1.9H1.899a1.898 1.898 0 01-1.895-1.9V244.08c0-1.05.848-1.9 1.895-1.9h13.053zm93.37-24.177c-2.635 0-4.596.839-5.88 2.517-1.286 1.68-2.025 4.197-2.218 7.554l-.097 3.874.097 3.874c.193 3.422.932 5.956 2.217 7.602 1.285 1.646 3.246 2.47 5.88 2.47 2.636 0 4.596-.824 5.881-2.47 1.194-1.529 1.916-3.823 2.168-6.883l.084-1.184c.031-.542.05-1.317.058-2.324v-2.17c-.009-1.175-.034-2.033-.074-2.576l-.018-.213c-.193-3.357-.932-5.875-2.218-7.554-1.285-1.678-3.245-2.517-5.88-2.517zm266.13 1.49c-2.871 0-4.928.85-6.172 2.548-1.244 1.698-1.962 4.053-2.153 7.065l-.096 2.98.096 2.98c.191 3.012.909 5.367 2.153 7.065 1.244 1.698 3.301 2.547 6.172 2.547 2.743 0 4.784-.881 6.124-2.643 1.228-1.616 1.946-3.622 2.156-6.018l.167-2.54c.046-.8.069-1.391.069-1.776l-.021-.865a55.566 55.566 0 00-.064-1.185l-.107-1.506c-.127-2.5-.877-4.566-2.248-6.2-1.372-1.634-3.397-2.451-6.076-2.451zm-111.59-12.345c.703 0 1.293.24 1.771.721.479.48.718 1.074.718 1.778v3.653c1.786-1.986 3.875-3.508 6.268-4.566 2.392-1.057 5.055-1.586 7.99-1.586h4.306c.702 0 1.276.224 1.722.673.447.449.67 1.025.67 1.73v10.478c0 .641-.223 1.202-.67 1.683-.446.48-1.02.72-1.722.72h-9.665c-2.552 0-4.513.705-5.885 2.115-1.372 1.41-2.057 3.397-2.057 5.96v4.06c0 1.05-.85 1.9-1.896 1.9h-13.72a1.898 1.898 0 01-1.896-1.9v-24.92c0-.704.224-1.297.67-1.778.447-.48 1.02-.72 1.723-.72h11.674zm52.625 9.71c-2.424 0-4.29.85-5.598 2.548-1.207 1.568-1.857 3.723-1.95 6.464l-.011.89h15.215v-.192c0-3.076-.67-5.463-2.01-7.162-1.34-1.698-3.221-2.547-5.646-2.547z" fill="#FFF" fill-rule="nonzero"/></svg>