<svg width="400" height="400" viewBox="0 0 400 400" xmlns="http://www.w3.org/2000/svg"><g fill="#FFF" fill-rule="nonzero"><path d="M57.25 255.178c-4.75 16.919-8.668 31.131-8.987 33.057a4.028 4.028 0 01-4.028 3.527h-.45a4.035 4.035 0 01-3.54-4.438c.176-1.588 3.359-13.288 7.244-27.2-5.493 2.557-10.009 4.21-12.794 4.554-.449.063-.9.096-1.354.098-2.726 0-4.1-1.301-4.783-2.447a4.028 4.028 0 015.265-5.635c2.395-.339 8.525-2.857 16.58-7.035a9914.152 9914.152 0 0110.302-36.298 4.028 4.028 0 017.744 2.213c-2.473 8.654-5.35 18.754-8.14 28.632a247.793 247.793 0 0010.853-6.637c20.128-13.015 33.839-25.457 36.605-33.39 1.04-2.96.28-4.327-1.191-5.466-3.527-2.74-14.369-3.078-34.23 4.171-29.764 10.861-61.208 31.951-64.208 42.949.307.06.619.088.93.085a4.028 4.028 0 11.365 8.043c-.852.039-5.251.104-7.809-2.929a7.386 7.386 0 01-1.438-6.507c2.004-9.39 14.818-19.672 25.21-26.693a213.879 213.879 0 0144.218-22.516c14.199-5.206 32.999-9.904 41.933-2.974 4.165 3.254 5.675 7.913 4.256 13.184-1.828 6.813-9.891 18.813-37.905 37.275a283.006 283.006 0 01-20.648 12.377zm270.278-5.395c-3.097 8.57-10.353 28.633-1.353 32.758a4.028 4.028 0 01-3.352 7.321c-11.42-5.206-9.975-19.327-6.728-31.086-12.813 15.195-20.824 22.906-27.175 22.906a6.02 6.02 0 01-4.959-2.505c-3.416-4.692-1.184-14.18 5.473-35.049.228-.716.462-1.458.703-2.206a73.31 73.31 0 00-1.887 2.603c-4.094 5.857-8.362 13.288-12.13 19.848-2.603 4.555-4.894 8.537-6.814 11.466-1.92 2.928-4.75 7.268-8.778 5.765a4.907 4.907 0 01-2.733-2.635c-.65-1.517-1.952-4.34 3.084-24.598.86-3.462 1.79-6.976 2.662-10.126-6.807 6.013-12.787 9.494-17.778 11.46a34.327 34.327 0 01-3.215 9.663c-7.386 14.61-16.32 21.533-25.151 19.522-3.39-.78-5.928-3.195-7.158-6.787-3.052-8.908 2.27-23.016 14.244-37.743a4.022 4.022 0 014.556-1.223 22.965 22.965 0 012.603-1.81c3.175-1.854 5.915-2.283 8.147-1.3 2.779 1.3 4.327 4.268 5.134 6.565a22.84 22.84 0 011.015 4.172c5.154-2.603 11.681-7.25 19.327-15.495 1.627-1.757 4.66-5.017 8.011-2.915 3.351 2.102 1.75 6.039 1.009 7.946-1.048 2.68-5.148 17.25-7.477 28.099.794-1.367 1.58-2.74 2.33-4.048 11.192-19.522 19.131-32.335 27.11-32.967a4.282 4.282 0 013.695 1.608c1.914 2.414 1.21 4.88-2.837 17.57-2.102 6.579-6.716 21.051-6.722 26.517 1.49-.787 4.25-2.726 8.89-7.47 4.977-5.089 10.294-11.518 14.563-16.678 6.728-8.135 8.212-9.762 10.086-10.412a4.204 4.204 0 014.432.982c2.102 2.135 1.301 4.354-.846 10.282h.02zm-90.615 8.108a23.687 23.687 0 01-3.664.072c-3.905-.247-7.1-1.575-8.993-3.683-6.86 10.893-7.47 18.22-6.45 21.162.463 1.347 1.114 1.503 1.36 1.555 4.719 1.093 10.758-4.62 16.146-15.28a28.327 28.327 0 001.6-3.826zm1.158-8.31a13.47 13.47 0 00-1.49-5.856c-1.952.793-5.206 3.754-5.922 5.453a8.46 8.46 0 003.859.761c1.194.01 2.385-.11 3.553-.358zm159.88-12.702c-10.815 11.954-20.173 16.821-27.428 18.429a40.066 40.066 0 01-2.512 6.09c-8.681 17.005-17.024 21.26-23.193 21.26-.94 0-1.878-.099-2.798-.292-3.319-.71-5.856-3.013-7.073-6.508-3.254-9.11 2.453-24.181 15.305-40.261a4.022 4.022 0 014.555-1.302c3.208-2.713 7.549-5.114 11.102-3.52 2.134.956 3.846 3.123 4.952 6.266a25.965 25.965 0 011.256 9.397c5.343-1.952 12.02-6.312 19.893-15.012a4.028 4.028 0 015.974 5.4l-.033.053zm-36.213 18.936c-5.792-.69-9.86-3.364-11.902-5.798a62.302 62.302 0 00-5.857 11.662c-1.744 4.789-2.278 9.11-1.419 11.485.417 1.165.937 1.302 1.165 1.302 4.842 1.028 11.264-5.206 17.147-16.75.273-.632.599-1.27.866-1.9zm1.015-17.212c-2.232.99-5.974 4.64-6.54 6.462.852.853 3.254 2.551 7.282 2.824h.39c.514-4.45-.312-7.848-1.132-9.286zM342.17 216.85c.943-3.638-.911-7.275-4.158-8.121-3.248-.846-6.638 1.418-7.594 5.063-.957 3.644.917 7.268 4.158 8.114 3.24.846 6.637-1.418 7.594-5.056zm-132.42 15.813c-1.685-.872-4.268-.696-5.856-.475-8.037 1.126-16.958 6.696-19.997 10.132 1.08.475 2.603 1.009 3.8 1.445 5.818 2.069 13.79 4.913 17.01 12.025 1.953 4.36 1.79 9.586-.566 15.527-7.1 17.908-21.077 22.32-28.938 22.32a14.355 14.355 0 01-3.957-.481c-4.75-1.406-8.192-4.36-9.956-8.538-4.418-10.45 2.993-25.151 3.852-26.79a4.037 4.037 0 117.159 3.734c-1.842 3.534-6.072 14.017-3.566 19.926.832 1.952 2.368 3.221 4.835 3.95.728.215 4.756.586 9.76-1.763 4.068-1.9 9.677-6.104 13.328-15.325 1.523-3.833 1.763-6.937.722-9.234-1.815-4.002-7.672-6.091-12.364-7.77-4.555-1.614-8.121-2.89-9.488-6.078a5.993 5.993 0 01.04-4.738c-11.525 1.953-20.785 9.293-27.573 21.84a76.547 76.547 0 00-6.097 15.162c-1.12 4.984-1.952 8.46-1.952 8.492a4.028 4.028 0 01-4.647 3.052 4.028 4.028 0 01-3.253-4.523 73.013 73.013 0 012.108-9.306c1.952-8.804 3.853-17.465 5.206-24.207-8.381 11.29-28.958 36.884-43.268 36.982-4.093.052-7.483-1.849-9.82-5.434a12.364 12.364 0 01-.741-1.302 33.533 33.533 0 01-6.93 1.829c-6.41.943-12.065-.397-16.34-3.859a4.028 4.028 0 015.069-6.26c3.136 2.544 7.223 2.57 10.1 2.154a26.947 26.947 0 006.448-1.848c-.098-9.033 4.132-19.483 5.857-23.303 5.03-11.375 13.717-24.039 22.938-25.49 4.38-.69 8.037.742 10.048 3.905 4.418 7.008-1.523 18.565-7.282 27.025-6.664 9.761-14.596 17.492-22.672 22.327.074.16.159.314.254.462 1.028 1.575 2.089 1.796 3.013 1.776 2.29 0 9.175-1.77 23.641-17.654a210.625 210.625 0 0016.633-20.824l.729-1.165c2.727-4.366 4.711-7.522 8.219-7.158a4.868 4.868 0 014.021 3.423c.352 1.015.651 1.952-1.067 11.134 8.818-10.308 20.232-15.748 33.559-15.832a4.1 4.1 0 011.575.319c5.544-3.905 12.95-7.12 19.405-8.044 7.913-1.125 12.038 1.569 14.114 4.035 2.076 2.466 2.727 7.158-6.006 15.546a4.028 4.028 0 11-5.57-5.811 29.635 29.635 0 004.464-5.31zm-117.419 35.79c5.779-4.23 11.46-10.229 16.457-17.57 7.913-11.602 7.81-17.016 7.158-18.122-.162-.254-.65-.345-1.145-.345a6.02 6.02 0 00-.846.065c-5.368.846-12.546 11.101-16.86 20.823a61.508 61.508 0 00-4.764 15.15zm296.087 35.96H8.906v8.057h379.506l.006-8.056zM44.658 367.56v-16.573h5.669v-2.702h-14.49v2.702h5.67v16.572h3.15zm11.221 0v-7.239c0-1.828.306-3.13.917-3.909.61-.777 1.566-1.166 2.867-1.166.985 0 1.703.276 2.156.83.452.554.679 1.393.679 2.518v8.965h3.111v-9.505c0-3.56-1.767-5.34-5.3-5.34-1.002 0-1.878.194-2.63.58a4.302 4.302 0 00-1.76 1.635h-.198c.106-.949.158-1.841.158-2.676v-5.208h-3.098v20.514h3.098zm20.24.263c.993 0 1.876-.075 2.65-.224a9.512 9.512 0 002.294-.765v-2.518c-.853.378-1.65.648-2.393.81-.743.163-1.545.245-2.406.245-1.31 0-2.325-.38-3.045-1.14-.721-.761-1.103-1.849-1.147-3.264h9.716v-1.674c0-2.048-.558-3.656-1.674-4.825-1.117-1.17-2.637-1.754-4.562-1.754-2.074 0-3.705.682-4.891 2.044-1.187 1.362-1.78 3.234-1.78 5.616 0 2.32.64 4.142 1.918 5.465 1.28 1.322 3.052 1.984 5.32 1.984zm2.623-9.097h-6.618c.115-1.195.468-2.105 1.062-2.729.593-.624 1.382-.936 2.366-.936.984 0 1.758.31 2.32.93.563.62.853 1.531.87 2.735zm16.723 8.833v-8.688h8.885v8.688h3.164v-19.274h-3.164v7.883h-8.885v-7.883h-3.151v19.274h3.15zm20.107 0v-7.7h3.111l4.615 7.7h3.586l-5.445-8.53c2.496-1.02 3.744-2.729 3.744-5.128 0-1.881-.598-3.287-1.793-4.219-1.195-.932-3.037-1.397-5.524-1.397h-5.445v19.274h3.151zm2.189-10.31h-2.189v-6.301h2.083c1.433 0 2.505.237 3.217.712.712.474 1.068 1.256 1.068 2.346 0 1.073-.33 1.881-.989 2.426-.66.545-1.723.818-3.19.818zm26.689 10.574c2.874 0 5.095-.87 6.664-2.61 1.569-1.74 2.353-4.18 2.353-7.317 0-3.147-.782-5.586-2.347-7.317-1.564-1.732-3.779-2.598-6.644-2.598-2.91 0-5.148.853-6.717 2.558-1.569 1.705-2.353 4.148-2.353 7.33 0 3.182.78 5.636 2.34 7.363 1.56 1.727 3.794 2.59 6.704 2.59zm0-2.69c-1.881 0-3.3-.613-4.259-1.839-.958-1.226-1.437-3.025-1.437-5.398 0-2.365.481-4.158 1.444-5.38.962-1.221 2.388-1.832 4.278-1.832 1.872 0 3.28.61 4.225 1.833.945 1.221 1.417 3.014 1.417 5.379 0 2.399-.476 4.205-1.43 5.418s-2.366 1.82-4.238 1.82zm15.757 8.912v-5.972c0-.263-.062-1.01-.185-2.241h.185c1.02 1.327 2.452 1.99 4.297 1.99 1.82 0 3.246-.667 4.278-2.003 1.033-1.336 1.55-3.195 1.55-5.577s-.508-4.232-1.523-5.55c-1.015-1.318-2.433-1.978-4.252-1.978-1.933 0-3.384.739-4.35 2.215h-.159a65.419 65.419 0 00-.435-1.951h-2.505v21.067h3.099zm3.599-8.754c-1.275 0-2.193-.397-2.756-1.193-.562-.795-.843-2.08-.843-3.856v-.461c0-1.582.283-2.734.85-3.454.567-.721 1.465-1.081 2.696-1.081 1.116 0 1.962.42 2.538 1.259.575.839.863 2.076.863 3.71 0 1.627-.29 2.88-.87 3.758-.58.879-1.406 1.318-2.478 1.318zm16.324 2.532c.993 0 1.876-.075 2.65-.224a9.512 9.512 0 002.293-.765v-2.518c-.852.378-1.65.648-2.392.81-.743.163-1.545.245-2.406.245-1.31 0-2.325-.38-3.046-1.14-.72-.761-1.103-1.849-1.147-3.264h9.717v-1.674c0-2.048-.559-3.656-1.675-4.825-1.116-1.17-2.637-1.754-4.561-1.754-2.075 0-3.705.682-4.891 2.044-1.187 1.362-1.78 3.234-1.78 5.616 0 2.32.64 4.142 1.918 5.465 1.279 1.322 3.052 1.984 5.32 1.984zm2.623-9.097h-6.618c.114-1.195.468-2.105 1.061-2.729.593-.624 1.382-.936 2.367-.936.984 0 1.757.31 2.32.93.562.62.853 1.531.87 2.735zm9.495 8.833v-7.62c0-1.292.384-2.342 1.154-3.15.769-.81 1.773-1.214 3.012-1.214.475 0 .932.053 1.371.158l.303-2.887c-.404-.088-.918-.132-1.542-.132-.897 0-1.734.255-2.512.765s-1.408 1.2-1.892 2.07h-.158l-.408-2.571h-2.426v14.581h3.098zm11.367.264c1.116 0 2.03-.16 2.742-.481.712-.321 1.42-.926 2.123-1.813h.105l.62 2.03h2.215v-9.822c0-1.731-.473-3.001-1.418-3.81-.945-.808-2.344-1.213-4.199-1.213-.835 0-1.722.108-2.663.323-.94.216-1.806.53-2.597.943l1.002 2.215a16.217 16.217 0 011.978-.778 6.997 6.997 0 012.148-.33c.915 0 1.59.231 2.024.693.435.461.653 1.157.653 2.09v.777l-2.518.08c-2.285.07-3.986.487-5.102 1.252-1.117.764-1.675 1.898-1.675 3.4 0 1.416.402 2.51 1.207 3.284.804.773 1.922 1.16 3.355 1.16zm.975-2.373c-.773 0-1.353-.178-1.74-.534-.387-.356-.58-.86-.58-1.51 0-.896.332-1.562.995-1.997.664-.435 1.725-.679 3.184-.732l1.872-.079v1.266c0 1.134-.34 2.015-1.021 2.643-.682.628-1.585.943-2.71.943zm15.678 2.373c.58 0 1.14-.05 1.681-.152.54-.1.982-.226 1.325-.376v-2.333a7.534 7.534 0 01-2.267.356c-.607 0-1.097-.178-1.47-.534-.374-.356-.56-.908-.56-1.655v-7.804h4.152v-2.347h-4.153v-3.243h-1.911l-1.055 3.085-2.136 1.134v1.37h1.991v7.858c0 3.094 1.468 4.64 4.403 4.64zm7.32-17.007c.545 0 .969-.152 1.272-.455.303-.303.455-.718.455-1.246 0-.553-.152-.98-.455-1.279-.303-.298-.727-.448-1.272-.448-.563 0-.995.15-1.299.448-.303.3-.455.726-.455 1.28 0 .527.152.942.455 1.245.304.303.736.455 1.299.455zm1.53 16.743v-14.581h-3.099v14.581h3.098zm7.358 0v-7.264c0-1.82.303-3.116.91-3.89.606-.773 1.564-1.16 2.874-1.16.984 0 1.703.277 2.155.831.453.554.68 1.393.68 2.518v8.965h3.11v-9.505c0-3.56-1.748-5.34-5.246-5.34-.985 0-1.881.19-2.69.567-.808.378-1.432.914-1.872 1.609h-.158l-.435-1.912h-2.426v14.581h3.098zm18.078 6.486c2.575 0 4.544-.448 5.906-1.344 1.362-.897 2.043-2.171 2.043-3.824 0-1.292-.417-2.28-1.252-2.966-.835-.685-2.057-1.028-3.665-1.028h-2.545c-.835 0-1.408-.084-1.72-.25-.312-.168-.468-.418-.468-.752 0-.554.334-1.037 1.002-1.45.378.07.8.105 1.265.105 1.82 0 3.248-.43 4.285-1.292 1.037-.861 1.556-2.043 1.556-3.546 0-.501-.075-.976-.224-1.424a4.022 4.022 0 00-.567-1.134l2.492-.461v-1.701h-5.05a8.175 8.175 0 00-1.022-.178 10.381 10.381 0 00-1.298-.086c-1.846 0-3.267.435-4.265 1.306-.998.87-1.496 2.096-1.496 3.678 0 .984.235 1.843.705 2.577s1.083 1.264 1.84 1.589c-.607.369-1.064.742-1.372 1.12-.308.378-.461.84-.461 1.385 0 .43.134.841.402 1.232s.608.675 1.021.85c-1.02.238-1.812.662-2.38 1.273-.566.61-.85 1.364-.85 2.26 0 1.302.523 2.304 1.57 3.007 1.045.703 2.561 1.054 4.548 1.054zm.712-13.5c-.88 0-1.554-.246-2.024-.738s-.705-1.195-.705-2.11c0-.975.23-1.718.692-2.227.461-.51 1.14-.765 2.037-.765.905 0 1.58.257 2.023.771.444.514.666 1.246.666 2.195 0 1.916-.897 2.874-2.69 2.874zm-.62 11.365c-1.09 0-1.936-.18-2.538-.54-.602-.361-.903-.875-.903-1.543 0-.712.261-1.277.784-1.694.523-.418 1.229-.627 2.116-.627h2.347c1.23 0 2.072.134 2.525.402.452.269.679.719.679 1.352 0 .8-.413 1.441-1.24 1.925-.826.483-2.083.725-3.77.725zm21.85-4.087c2.18 0 3.89-.488 5.129-1.464 1.24-.975 1.859-2.32 1.859-4.034 0-.87-.154-1.626-.462-2.267-.307-.642-.79-1.218-1.45-1.727-.66-.51-1.696-1.06-3.111-1.648-1.257-.519-2.127-.936-2.61-1.253-.484-.316-.831-.652-1.042-1.008-.211-.356-.317-.785-.317-1.286 0-.73.264-1.316.791-1.76.528-.444 1.301-.666 2.32-.666 1.346 0 2.875.36 4.589 1.081l1.002-2.57c-1.828-.809-3.665-1.213-5.511-1.213-1.925 0-3.459.461-4.601 1.384-1.143.923-1.714 2.189-1.714 3.797 0 1.283.36 2.382 1.081 3.296.72.914 1.96 1.727 3.718 2.439 1.705.685 2.83 1.279 3.375 1.78.545.5.817 1.111.817 1.832 0 .8-.296 1.437-.89 1.912-.593.474-1.514.712-2.762.712-.852 0-1.773-.119-2.762-.356a14.548 14.548 0 01-2.801-.976v2.98c1.389.676 3.173 1.015 5.352 1.015zm10.576 6.222c2.646 0 4.535-1.516 5.67-4.548l6.235-16.519h-3.349c-2.021 5.862-3.137 9.138-3.348 9.828-.211.69-.356 1.277-.435 1.76h-.106c-.15-1.037-.448-2.144-.896-3.322l-2.967-8.266h-3.375l5.854 14.581-.54 1.371c-.607 1.732-1.657 2.597-3.151 2.597a7.26 7.26 0 01-1.596-.158v2.452c.65.15 1.319.224 2.004.224zm17.735-6.222c1.933 0 3.419-.38 4.456-1.14 1.037-.76 1.556-1.853 1.556-3.277 0-.703-.132-1.307-.396-1.813-.264-.505-.668-.95-1.213-1.338-.545-.386-1.42-.813-2.623-1.278-1.433-.554-2.362-.99-2.789-1.306-.426-.316-.64-.703-.64-1.16 0-.931.818-1.397 2.453-1.397 1.072 0 2.395.325 3.968.975l1.002-2.333a11.631 11.631 0 00-4.865-1.042c-1.731 0-3.1.345-4.106 1.035-1.007.69-1.51 1.66-1.51 2.907 0 1.037.297 1.881.89 2.531.593.65 1.73 1.301 3.408 1.952.861.334 1.534.632 2.017.896.484.264.83.519 1.042.765.21.246.316.554.316.923 0 1.151-.953 1.727-2.86 1.727-1.477 0-3.072-.396-4.786-1.187v2.676c1.177.59 2.737.884 4.68.884zm13.885 0c.58 0 1.14-.05 1.68-.152.541-.1.983-.226 1.326-.376v-2.333a7.534 7.534 0 01-2.268.356c-.606 0-1.096-.178-1.47-.534-.373-.356-.56-.908-.56-1.655v-7.804h4.153v-2.347H317.4v-3.243h-1.912l-1.055 3.085-2.135 1.134v1.37h1.99v7.858c0 3.094 1.468 4.64 4.404 4.64zm12.118 0c.993 0 1.877-.075 2.65-.224a9.512 9.512 0 002.294-.765v-2.518c-.853.378-1.65.648-2.393.81-.743.163-1.545.245-2.406.245-1.31 0-2.325-.38-3.045-1.14-.72-.761-1.103-1.849-1.147-3.264h9.716v-1.674c0-2.048-.558-3.656-1.674-4.825-1.116-1.17-2.637-1.754-4.562-1.754-2.074 0-3.704.682-4.89 2.044-1.187 1.362-1.78 3.234-1.78 5.616 0 2.32.639 4.142 1.918 5.465 1.278 1.322 3.052 1.984 5.32 1.984zm2.624-9.097h-6.618c.114-1.195.468-2.105 1.06-2.729.594-.624 1.383-.936 2.367-.936.985 0 1.758.31 2.32.93.563.62.853 1.531.87 2.735zm9.495 8.833v-7.264c0-1.81.279-3.105.837-3.883.558-.777 1.434-1.166 2.63-1.166.896 0 1.555.274 1.977.824.422.549.633 1.382.633 2.498v8.991h3.111v-7.726c0-1.555.28-2.709.838-3.46.558-.752 1.439-1.127 2.643-1.127.896 0 1.558.274 1.984.824.426.549.64 1.382.64 2.498v8.991h3.098v-9.505c0-1.802-.398-3.142-1.193-4.021-.796-.88-2.064-1.319-3.804-1.319-1.01 0-1.907.202-2.69.607a4.445 4.445 0 00-1.819 1.687h-.21c-.73-1.529-2.216-2.294-4.457-2.294-.923 0-1.769.19-2.538.567-.769.378-1.355.914-1.76 1.609h-.158l-.435-1.912h-2.426v14.581h3.099z"/></g></svg>