<svg width="400" height="400" viewBox="0 0 400 400" xmlns="http://www.w3.org/2000/svg"><path d="M49.056 217.412c7.843-7.844 20.502-7.935 28.458-.274l.279.274 28.735 28.737c7.844 7.842 7.935 20.501.274 28.457l-.274.279-28.735 28.736L92.16 317.99l-14.367 14.368c-7.844 7.844-20.503 7.935-28.458.274l-.279-.274-43.104-43.104c-7.844-7.844-7.935-20.503-.274-28.458l.274-.279 43.104-43.104zm14.368 14.368L20.32 274.885l43.105 43.104 14.369-14.368-14.369-14.368 28.736-28.737-28.736-28.736zm247.409 16.68v12.622h17.863v9.413h-17.863v22.143c0 13.157 8.237 14.013 18.827 10.269l1.176 8.771c-17.65 5.456-31.448 1.39-31.448-18.827v-22.356h-10.483v-9.413h10.483V248.46h11.445zm-106.485-10.804H215.9v56.372c0 8.557 2.245 11.232 11.124 9.842l.428 8.984c-15.83 2.568-23.105-1.497-23.105-18.72v-56.478zm54.778 22.243l.502.006c7.38 0 14.442 1.82 21.18 4.814v33.344c.013 4.164.278 6.733 5.562 6.234v7.916l-.54.098c-7.206 1.246-14.435.228-14.435-8.121v-2.138l-.151.36c-2.984 6.943-10.14 10.87-17.606 10.87-15.724 0-23.318-12.622-23.318-27.17.317-16.943 12.272-26.338 28.806-26.213zm-88.868-22.243c16.688 0 26.422 12.195 26.422 26.42 0 14.014-9.949 25.995-26.422 25.995h-18.505v22.463h-12.515v-74.878h31.02zm228.565 23.426v51.452h-11.66v-51.452h11.66zm-19.799-.107v1.498l-15.938 24.71-10.483 15.296h26.314v10.055h-42.894v-2.354L351 286.754l11.232-16.259h-24.603v-9.52h41.396zm-120.25 8.343c-9.842 0-16.475 5.67-16.795 16.795 0 9.413 4.6 16.793 14.12 16.793 8.664 0 13.157-6.739 13.478-16.259v-15.189c-3.53-1.604-7.488-2.14-10.804-2.14zm-88.516-20.858h-18.72v30.7h18.72c8.45 0 14.44-6.74 14.44-15.403 0-8.665-5.775-15.297-14.44-15.297zm222.79-10.927c3.529 0 6.952 2.354 6.952 6.847 0 4.599-3.423 6.952-6.846 6.952-3.53 0-7.166-2.246-7.166-6.952 0-4.6 3.53-6.847 7.06-6.847z" fill="#FFFFFE" fill-rule="evenodd"/></svg>