<?xml version="1.0" encoding="UTF-8"?>
<svg width="400px" height="400px" viewBox="0 0 400 400" version="1.1" xmlns="http://www.w3.org/2000/svg" xmlns:xlink="http://www.w3.org/1999/xlink">
    <title>logos/adagio</title>
    <g id="logos/adagio" stroke="none" stroke-width="1" fill="none" fill-rule="evenodd">
        <g id="Group" transform="translate(-0.270084, 69.978355)" fill="#FFFFFF">
            <path d="M347.402314,96.8027833 C347.677687,97.4843571 347.832891,98.1972687 347.875712,98.9318948 L347.888003,99.3003992 L347.888003,209.974389 L341.436852,209.974389 L341.436419,209.082006 L341.173603,208.750601 C334.308564,200.133936 328.336847,193.737198 323.258453,189.560388 L322.297917,188.776503 C314.611536,182.402197 308.892654,173.648184 308.892654,154.782197 C308.892654,142.864368 313.904061,131.903373 323.926874,121.899212 C324.316195,123.614107 324.210128,125.06315 323.608671,126.246341 C316.122985,140.972258 316.441188,148.53061 317.390093,159.135567 C318.501174,171.553002 326.516629,180.360024 341.436458,185.556633 L341.437527,110.070881 C338.960115,112.128233 335.871401,113.980388 332.354162,115.401444 C321.641881,119.729487 311.011129,118.419726 308.609712,112.476012 C306.208296,106.532297 312.945583,98.2053929 323.657864,93.8773505 C334.370145,89.549308 345.000897,90.8590689 347.402314,96.8027833 Z M356.722858,91.325532 L356.722858,117.953263 L350.271707,117.953263 L350.271707,91.325532 L356.722858,91.325532 Z M223.342964,96.8027833 C223.618338,97.4843571 223.773542,98.1972687 223.816363,98.9318948 L223.828654,99.3003992 L223.828654,117.543286 L217.377503,117.543286 L217.378178,110.070881 C214.900766,112.128233 211.812052,113.980388 208.294813,115.401444 C197.582532,119.729487 186.95178,118.419726 184.550363,112.476012 C182.148947,106.532297 188.886234,98.2053929 199.598515,93.8773505 C210.310796,89.549308 220.941548,90.8590689 223.342964,96.8027833 Z M265.976338,9.39560642e-14 L265.975443,0.971900826 L266.174916,1.22378825 C273.039955,9.84045299 279.011672,16.2371907 284.090066,20.4140013 L285.050602,21.1978854 L285.583622,21.6465628 C292.999884,27.9848244 298.455865,36.764949 298.455865,55.1921918 C298.455865,67.1100207 293.444458,78.0710156 283.421645,88.0751765 C283.032324,86.3602814 283.138391,84.9112383 283.739848,83.7280474 C291.225534,69.0021305 290.907331,61.4437784 289.958426,50.8388215 C288.848938,38.4391948 280.854866,29.639633 265.976209,24.440136 L265.976338,99.3003992 C266.018249,104.902927 259.721655,111.652422 250.442497,115.401444 C239.730216,119.729487 229.099464,118.419726 226.698047,112.476012 C224.296631,106.532297 231.033918,98.2053929 241.746199,93.8773505 C248.335787,91.2149839 254.894525,90.6859697 259.525839,92.0566407 L259.525187,9.39560642e-14 L265.976338,9.39560642e-14 Z M305.254629,96.8027833 C305.530003,97.4843571 305.685207,98.1972687 305.728028,98.9318948 L305.740319,99.3003992 L305.740319,117.543286 L299.289168,117.543286 L299.289843,110.070881 C296.812431,112.128233 293.723717,113.980388 290.206478,115.401444 C279.494197,119.729487 268.863445,118.419726 266.462028,112.476012 C264.060612,106.532297 270.797899,98.2053929 281.51018,93.8773505 C292.222461,89.549308 302.853213,90.8590689 305.254629,96.8027833 Z M398.771115,96.8027833 C401.172532,102.746498 394.435245,111.073402 383.722964,115.401444 C373.010683,119.729487 362.379931,118.419726 359.978514,112.476012 C357.577098,106.532297 364.314384,98.2053929 375.026665,93.8773505 C385.738947,89.549308 396.369699,90.8590689 398.771115,96.8027833 Z M200.958878,100.40264 C193.781754,105.617126 189.449228,111.889168 191.281909,114.411637 C193.114591,116.934107 200.418481,114.751797 207.595605,109.537311 C214.772729,104.322825 219.105256,98.0507835 217.272574,95.5283139 C215.439893,93.0058442 208.136002,95.1881544 200.958878,100.40264 Z M282.870543,100.40264 L282.173887,100.918782 L281.496281,101.440727 C275.151729,106.423566 271.481069,112.054575 273.193574,114.411637 C275.026256,116.934107 282.330146,114.751797 289.50727,109.537311 C296.684394,104.322825 301.016921,98.0507835 299.184239,95.5283139 C297.351558,93.0058442 290.047667,95.1881544 282.870543,100.40264 Z M325.018228,100.40264 L324.321572,100.918782 L323.643965,101.440727 C317.299413,106.423566 313.628753,112.054575 315.341259,114.411637 C317.17394,116.934107 324.47783,114.751797 331.654954,109.537311 C338.832078,104.322825 343.164605,98.0507835 341.331923,95.5283139 C339.499242,93.0058442 332.195352,95.1881544 325.018228,100.40264 Z M376.387029,100.40264 C369.209905,105.617126 364.877379,111.889168 366.71006,114.411637 C368.542742,116.934107 375.846632,114.751797 383.023756,109.537311 C390.20088,104.322825 394.533407,98.0507835 392.700725,95.5283139 C390.868044,93.0058442 383.564153,95.1881544 376.387029,100.40264 Z" id="Shape"></path>
            <path d="M84.3702285,63.6030045 C78.5259189,67.3747417 45.4766765,86.1198993 33.4975098,108.421843 C25.5113987,123.289805 21.1510337,139.455995 20.4164148,156.920412 C27.8989102,122.603428 44.3478456,98.97687 69.7632209,86.0407363 C107.886284,66.6365358 156.354991,73.0280432 166.801788,80.5516098 C177.248586,88.0751765 173.891148,93.475594 167.335535,98.6290461 C160.779922,103.782498 100.261026,127.295325 88.3270553,156.920412 C76.3930849,186.545498 87.2219695,218.133394 92.0869554,234.12642 C96.9519413,250.119447 95.3916644,262.96918 77.0495071,258.278452 C58.7073497,253.587724 26.9709516,225.949122 11.1662426,197.706827 C-4.63846643,169.464532 -4.63846643,134.349174 17.4496018,104.046143 C39.5376699,73.7431129 71.8573153,62.1730758 78.5259189,60.5748537 C85.1945226,58.9766315 90.2145381,59.8312672 84.3702285,63.6030045 Z M51.7541171,152.418539 C50.1130616,152.418539 48.734306,152.734644 47.6178503,153.366854 C46.5013945,153.999064 45.6001592,154.826317 44.9141442,155.848614 C44.2281292,156.870911 43.5824681,158.155507 42.9771607,159.702404 C42.4391098,161.077423 41.9701419,162.277078 41.5702571,163.301367 L41.4235386,163.677256 L26.2908552,202.094094 C25.6720966,203.62754 25.2282045,204.824703 24.9591791,205.685585 C24.6901536,206.546466 24.5556408,207.380445 24.5556408,208.187522 C24.5556408,209.586454 25.1340456,210.837423 26.2908552,211.940427 C27.4476648,213.043431 28.7793409,213.594934 30.2858836,213.594934 C32.0614518,213.594934 33.3393228,213.07706 34.1194967,212.041312 C34.86575,211.050596 35.7596876,209.179928 36.8013095,206.429308 L36.9442643,206.048769 L39.7690319,198.46225 L63.81991,198.46225 L66.6446775,205.887354 C67.0213132,206.80204 67.4719309,207.857965 67.9965306,209.055129 C68.5211303,210.252292 69.0121018,211.140076 69.4694451,211.718481 C69.9267884,212.296886 70.4917419,212.754229 71.1643056,213.090511 C71.8368693,213.426793 72.6439458,213.594934 73.585535,213.594934 C75.1996878,213.594934 76.5784434,213.023255 77.7218017,211.879896 C78.86516,210.736538 79.4368392,209.478844 79.4368392,208.106814 C79.4368392,206.845903 78.883023,204.858878 77.7753907,202.145738 L77.6209172,201.771264 L62.1654032,163.596548 C61.4390344,161.686467 60.8404527,160.159747 60.3696581,159.016389 C59.8988636,157.873031 59.3204588,156.803654 58.6344438,155.80826 C57.9484288,154.812866 57.0471934,153.999064 55.9307377,153.366854 C54.8142819,152.734644 53.4220751,152.418539 51.7541171,152.418539 Z M51.6734094,165.049285 L60.5916042,189.463348 L42.91663,189.463348 L51.6734094,165.049285 Z" id="Combined-Shape" fill-rule="nonzero" opacity="0.6"></path>
            <path d="M92.0272317,168.802191 C93.5337744,168.802191 94.7914686,169.306614 95.8003141,170.315459 C96.7461068,171.261252 97.2485592,172.543983 97.3076713,174.163653 L97.3135825,174.49208 L97.3135825,175.541279 L97.673299,175.119613 C99.479763,173.046751 101.404451,171.505897 103.447363,170.497051 C105.62647,169.42095 108.047699,168.882899 110.711051,168.882899 C113.482014,168.882899 115.862889,169.434401 117.853678,170.537405 C119.844467,171.64041 121.485522,173.308368 122.776844,175.541279 C124.63312,173.281465 126.623909,171.606782 128.74921,170.517228 C130.874511,169.427675 133.228484,168.882899 135.811129,168.882899 C138.824214,168.882899 141.42031,169.474755 143.599417,170.658467 C145.778523,171.842179 147.406127,173.537039 148.482229,175.743048 C149.384585,177.650887 149.854563,180.60879 149.892161,184.616756 L149.894613,185.145489 L149.894613,206.654076 L149.889756,207.034324 C149.834705,209.158712 149.311724,210.767177 148.320814,211.859719 C147.271614,213.016529 145.886133,213.594934 144.16437,213.594934 C142.496412,213.594934 141.131108,213.009803 140.068457,211.839542 C139.068315,210.73812 138.538829,209.142213 138.479997,207.05182 L138.474481,206.654076 L138.472937,187.631573 L138.460584,186.674611 C138.426613,184.973024 138.33036,183.562082 138.171828,182.441783 C137.970058,181.015948 137.425282,179.818784 136.537498,178.850293 C135.649714,177.881801 134.304586,177.397555 132.502116,177.397555 C131.049378,177.397555 129.670622,177.827996 128.365849,178.688877 C127.061075,179.549759 126.045504,180.706569 125.319135,182.159306 C124.540883,183.949286 124.137859,187.065075 124.110065,191.506672 L124.10852,206.654076 L124.103663,207.034324 C124.048613,209.158712 123.525632,210.767177 122.534721,211.859719 C121.485522,213.016529 120.100041,213.594934 118.378278,213.594934 C116.71032,213.594934 115.358467,213.016529 114.322719,211.859719 C113.347897,210.770957 112.831815,209.169837 112.774472,207.056358 L112.769096,206.654076 L112.767993,188.587859 L112.759166,187.606757 C112.730477,185.543878 112.639628,183.889476 112.48662,182.643552 C112.298302,181.110107 111.787153,179.852413 110.953174,178.87047 C110.119195,177.888527 108.800971,177.397555 106.9985,177.397555 C103.393558,177.397555 101.019408,178.635072 99.8760502,181.110107 C98.7803318,183.482015 98.2096452,186.842218 98.1639902,191.190716 L98.1610127,191.763516 L98.1610127,206.654076 L98.1556369,207.05182 C98.0982944,209.142213 97.5822123,210.73812 96.6073906,211.839542 C95.5716425,213.009803 94.2063382,213.594934 92.5114776,213.594934 C90.8435196,213.594934 89.4782153,213.009803 88.4155647,211.839542 C87.4154229,210.73812 86.885936,209.142213 86.8271042,207.05182 L86.8215887,206.654076 L86.8215887,175.137741 L86.8271846,174.755168 C86.883144,172.871464 87.3587989,171.425189 88.2541494,170.416344 C89.2091898,169.340242 90.466884,168.802191 92.0272317,168.802191 Z M179.514319,168.721483 C184.356777,168.721483 188.163488,169.293162 190.93445,170.436521 C193.705413,171.579879 195.662573,173.389075 196.805931,175.86411 C197.894844,178.221286 198.465227,181.310503 198.51708,185.131763 L198.520969,185.710442 L198.510444,190.695759 L198.510444,190.695759 L198.482822,194.401016 C198.471262,195.62214 198.457075,196.922079 198.440261,198.300835 C198.440261,200.372331 198.783269,202.531261 199.469284,204.777624 L199.674518,205.460397 C200.22371,207.319542 200.498306,208.537963 200.498306,209.115659 C200.498306,210.245566 199.966981,211.274589 198.90433,212.202727 C197.841679,213.130865 196.63779,213.594934 195.292663,213.594934 C194.162756,213.594934 193.0463,213.063608 191.943296,212.000958 C190.840291,210.938307 189.67003,209.398136 188.432513,207.380445 C185.769161,209.451941 183.193242,211.005563 180.704756,212.041312 C178.216271,213.07706 175.425131,213.594934 172.331338,213.594934 C169.506571,213.594934 167.024811,213.036706 164.886058,211.92025 C162.747305,210.803794 161.099524,209.290526 159.942715,207.380445 C158.785905,205.470364 158.2075,203.398868 158.2075,201.165956 C158.2075,198.152871 159.162541,195.583678 161.072622,193.458376 C162.891746,191.43428 165.357508,190.04462 168.469907,189.289396 L169.579024,189.039549 C170.483317,188.84395 172.006062,188.527873 174.14726,188.091318 L175.499674,187.812765 C177.698583,187.355048 179.621929,186.930025 181.26971,186.537696 C183.247047,186.066901 185.392525,185.495222 187.706144,184.822658 C187.571632,181.917183 186.986501,179.785156 185.950753,178.426578 C184.915005,177.067999 182.769527,176.38871 179.514319,176.38871 C176.716454,176.38871 174.611329,176.778796 173.198945,177.55897 C171.786562,178.339144 170.575947,179.509405 169.567101,181.069753 L169.179346,181.665555 C168.373405,182.895061 167.78974,183.725483 167.428349,184.15682 C167.011359,184.654517 166.11685,184.903366 164.74482,184.903366 C163.507302,184.903366 162.437926,184.506553 161.536691,183.712928 C160.635455,182.919303 160.184838,181.903732 160.184838,180.666215 C160.184838,178.729231 160.870853,176.846053 162.242883,175.01668 C163.614913,173.187306 165.753665,171.680764 168.65914,170.497051 C171.564616,169.313339 175.183008,168.721483 179.514319,168.721483 Z M187.706144,191.440685 L187.413684,191.54548 C185.913332,192.071196 183.842231,192.623094 181.200382,193.201173 L177.556884,193.994277 C176.097283,194.319822 175.001096,194.578355 174.268322,194.769876 C173.08461,195.079255 171.954702,195.684562 170.878601,196.585798 C169.802499,197.487033 169.264448,198.744727 169.264448,200.35888 C169.264448,202.026838 169.896658,203.445947 171.161077,204.616208 C172.425497,205.786469 174.080004,206.3716 176.124597,206.3716 C178.303704,206.3716 180.314669,205.894079 182.157494,204.939039 C184.000318,203.983998 185.352171,202.753207 186.213053,201.246664 C187.166973,199.648204 187.663806,197.06145 187.703552,193.4864 L187.706144,193.014484 L187.706144,191.440685 Z" id="Shape" fill-rule="nonzero"></path>
            <path d="M117.294858,238.724931 C119.748853,238.724931 121.734528,236.83292 121.734528,234.360193 C121.734528,232.112259 120.179707,231.194353 118.343894,230.388843 L117.407255,229.976722 C116.451883,229.545868 115.196787,228.983884 115.196787,227.766253 C115.196787,226.473691 116.283288,225.574518 117.538384,225.574518 C118.737283,225.574518 119.411663,226.136501 119.973646,227.110606 L121.228743,226.305096 C120.479431,224.918871 119.149404,224.113361 117.57585,224.113361 C115.477778,224.113361 113.623233,225.51832 113.623233,227.710055 C113.623233,229.733196 115.046924,230.576171 116.695409,231.325482 L117.557117,231.700138 C118.868412,232.299587 120.160974,232.86157 120.160974,234.510055 C120.160974,236.102342 118.774748,237.263774 117.257393,237.263774 C115.740037,237.263774 114.634803,236.083609 114.428743,234.641185 L112.892654,235.072039 C113.342241,237.263774 115.028192,238.724931 117.294858,238.724931 Z M127.560423,238.724931 C129.35877,238.724931 130.782462,237.825758 131.625437,236.252204 L130.351608,235.521625 C129.770891,236.570661 128.946649,237.338705 127.67282,237.338705 C125.968137,237.338705 124.806704,236.02741 124.787971,234.397658 L131.700368,234.397658 C131.85023,231.775069 130.351608,229.433471 127.522957,229.433471 C124.769238,229.433471 123.251883,231.587741 123.251883,234.191598 C123.251883,236.720523 124.937834,238.724931 127.560423,238.724931 Z M130.126814,233.123829 L124.862902,233.123829 C125.05023,231.85 126.249128,230.819697 127.54169,230.819697 C128.852985,230.819697 129.920754,231.85 130.126814,233.123829 Z M135.184665,238.481405 L135.184665,234.079201 C135.184665,232.936501 135.259597,230.819697 136.908081,230.819697 C137.30147,230.819697 137.50753,231.007025 137.807255,231.213085 L138.519101,229.845592 C138.088247,229.602066 137.676126,229.433471 137.17034,229.433471 C136.196236,229.433471 135.746649,229.939256 135.222131,230.632369 L135.184665,230.632369 L135.184665,229.676997 L133.686043,229.676997 L133.686043,238.481405 L135.184665,238.481405 Z M142.95877,239.062121 L147.26731,229.676997 L145.58136,229.676997 L142.95877,235.596556 L140.336181,229.676997 L138.631497,229.676997 L142.95877,239.062121 Z M149.740037,227.429063 C150.320754,227.429063 150.807806,226.960744 150.807806,226.361295 C150.807806,225.780579 150.320754,225.293526 149.740037,225.293526 C149.159321,225.293526 148.672269,225.780579 148.672269,226.361295 C148.672269,226.960744 149.159321,227.429063 149.740037,227.429063 Z M150.489349,238.481405 L150.489349,229.676997 L148.990726,229.676997 L148.990726,238.481405 L150.489349,238.481405 Z M157.420478,238.724931 C158.469514,238.724931 159.349955,238.406474 160.211663,237.825758 L160.211663,235.82135 L160.174197,235.82135 C159.443619,236.776722 158.563178,237.338705 157.308081,237.338705 C155.472269,237.338705 154.273371,235.82135 154.273371,234.079201 C154.273371,232.31832 155.565933,230.819697 157.383013,230.819697 C158.563178,230.819697 159.424886,231.419146 160.117999,232.299587 L160.155464,232.299587 L160.155464,230.313912 C159.368688,229.751928 158.394583,229.433471 157.439211,229.433471 C154.854087,229.433471 152.737283,231.456612 152.737283,234.079201 C152.737283,236.739256 154.760423,238.724931 157.420478,238.724931 Z M163.564831,227.429063 C164.145547,227.429063 164.632599,226.960744 164.632599,226.361295 C164.632599,225.780579 164.145547,225.293526 163.564831,225.293526 C162.984114,225.293526 162.497062,225.780579 162.497062,226.361295 C162.497062,226.960744 162.984114,227.429063 163.564831,227.429063 Z M164.314142,238.481405 L164.314142,229.676997 L162.815519,229.676997 L162.815519,238.481405 L164.314142,238.481405 Z M171.282737,238.724931 C173.849128,238.724931 175.909734,236.683058 175.909734,234.097934 C175.909734,231.51281 173.867861,229.433471 171.282737,229.433471 C168.697613,229.433471 166.65574,231.51281 166.65574,234.097934 C166.65574,236.683058 168.716346,238.724931 171.282737,238.724931 Z M171.282737,237.338705 C169.428192,237.338705 168.154362,235.877548 168.154362,234.079201 C168.154362,232.299587 169.428192,230.819697 171.282737,230.819697 C173.137283,230.819697 174.411112,232.299587 174.411112,234.079201 C174.411112,235.877548 173.137283,237.338705 171.282737,237.338705 Z M180.349404,238.724931 C181.979156,238.724931 183.327916,237.526033 183.327916,235.858815 C183.327916,234.378926 182.316346,233.760744 181.286043,233.32989 C180.25574,232.899036 179.24417,232.599311 179.24417,231.793802 C179.24417,231.231818 179.806153,230.819697 180.330671,230.819697 C180.873922,230.819697 181.323508,231.250551 181.529569,231.718871 L182.784665,231.063223 C182.391277,230.145317 181.454638,229.433471 180.443068,229.433471 C179.019376,229.433471 177.820478,230.445041 177.820478,231.924931 C177.820478,234.697383 181.791828,234.023003 181.791828,235.989945 C181.791828,236.795455 181.173646,237.338705 180.368137,237.338705 C179.375299,237.338705 178.944445,236.757989 178.569789,235.933747 L177.239762,236.49573 C177.708081,237.881956 178.869514,238.724931 180.349404,238.724931 Z M194.960974,238.481405 L194.960974,225.818044 L198.407806,225.818044 L198.407806,224.356887 L189.978054,224.356887 L189.978054,225.818044 L193.38742,225.818044 L193.38742,238.481405 L194.960974,238.481405 Z M203.540588,238.724931 C205.338935,238.724931 206.762627,237.825758 207.605602,236.252204 L206.331773,235.521625 C205.751057,236.570661 204.926814,237.338705 203.652985,237.338705 C201.948302,237.338705 200.786869,236.02741 200.768137,234.397658 L207.680533,234.397658 C207.830395,231.775069 206.331773,229.433471 203.503123,229.433471 C200.749404,229.433471 199.232048,231.587741 199.232048,234.191598 C199.232048,236.720523 200.917999,238.724931 203.540588,238.724931 Z M206.10698,233.123829 L200.843068,233.123829 C201.030395,231.85 202.229294,230.819697 203.521856,230.819697 C204.83315,230.819697 205.900919,231.85 206.10698,233.123829 Z M213.543894,238.724931 C214.59293,238.724931 215.473371,238.406474 216.335079,237.825758 L216.335079,235.82135 L216.297613,235.82135 C215.567035,236.776722 214.686594,237.338705 213.431497,237.338705 C211.595685,237.338705 210.396787,235.82135 210.396787,234.079201 C210.396787,232.31832 211.689349,230.819697 213.506429,230.819697 C214.686594,230.819697 215.548302,231.419146 216.241415,232.299587 L216.27888,232.299587 L216.27888,230.313912 C215.492103,229.751928 214.517999,229.433471 213.562627,229.433471 C210.977503,229.433471 208.860699,231.456612 208.860699,234.079201 C208.860699,236.739256 210.883839,238.724931 213.543894,238.724931 Z M220.156566,238.481405 L220.156566,234.303994 C220.156566,232.730441 220.287696,230.819697 222.348302,230.819697 C224.025927,230.819697 224.192286,232.000916 224.202308,233.359704 L224.202847,238.481405 L225.70147,238.481405 L225.70147,233.254959 C225.70147,231.194353 225.139486,229.433471 222.704225,229.433471 C221.617723,229.433471 220.812214,229.901791 220.194032,230.744766 L220.156566,230.744766 L220.156566,229.676997 L218.657944,229.676997 L218.657944,238.481405 L220.156566,238.481405 Z M232.389073,238.724931 C234.955464,238.724931 237.01607,236.683058 237.01607,234.097934 C237.01607,231.51281 234.974197,229.433471 232.389073,229.433471 C229.803949,229.433471 227.762076,231.51281 227.762076,234.097934 C227.762076,236.683058 229.822682,238.724931 232.389073,238.724931 Z M232.389073,237.338705 C230.534528,237.338705 229.260699,235.877548 229.260699,234.079201 C229.260699,232.299587 230.534528,230.819697 232.389073,230.819697 C234.243619,230.819697 235.517448,232.299587 235.517448,234.079201 C235.517448,235.877548 234.243619,237.338705 232.389073,237.338705 Z M240.537834,238.481405 L240.537834,223.02686 L239.039211,223.02686 L239.039211,238.481405 L240.537834,238.481405 Z M246.963178,228.140909 L249.829294,225.256061 L248.25574,224.544215 L246.026539,227.616391 L246.963178,228.140909 Z M247.169238,238.724931 C249.73563,238.724931 251.796236,236.683058 251.796236,234.097934 C251.796236,231.51281 249.754362,229.433471 247.169238,229.433471 C244.584114,229.433471 242.542241,231.51281 242.542241,234.097934 C242.542241,236.683058 244.602847,238.724931 247.169238,238.724931 Z M247.169238,237.338705 C245.314693,237.338705 244.040864,235.877548 244.040864,234.079201 C244.040864,232.299587 245.314693,230.819697 247.169238,230.819697 C249.023784,230.819697 250.297613,232.299587 250.297613,234.079201 C250.297613,235.877548 249.023784,237.338705 247.169238,237.338705 Z M257.491002,243.389394 C258.802296,243.389394 260.076126,242.883609 260.900368,241.834573 C261.799541,240.67314 261.799541,239.45551 261.799541,238.050551 L261.799541,229.676997 L260.300919,229.676997 L260.300919,230.932094 L260.263453,230.932094 C259.551608,229.976722 258.483839,229.433471 257.266208,229.433471 C254.662351,229.433471 253.013867,231.643939 253.013867,234.116667 C253.013867,236.570661 254.643619,238.724931 257.21001,238.724931 C258.390175,238.724931 259.551608,238.18168 260.263453,237.263774 L260.300919,237.263774 L260.300919,238.31281 C260.300919,240.298485 259.795134,242.003168 257.472269,242.003168 C255.861249,242.003168 254.681084,240.972865 254.662351,239.343113 L253.163729,239.343113 C253.219927,241.834573 255.037007,243.389394 257.491002,243.389394 Z M257.434803,237.338705 C255.561525,237.338705 254.549955,235.708953 254.549955,233.985537 C254.549955,232.337052 255.673922,230.819697 257.41607,230.819697 C259.270616,230.819697 260.37585,232.243388 260.37585,234.00427 C260.37585,235.783884 259.36428,237.338705 257.434803,237.338705 Z M265.752159,227.429063 C266.332875,227.429063 266.819927,226.960744 266.819927,226.361295 C266.819927,225.780579 266.332875,225.293526 265.752159,225.293526 C265.171442,225.293526 264.68439,225.780579 264.68439,226.361295 C264.68439,226.960744 265.171442,227.429063 265.752159,227.429063 Z M266.50147,238.481405 L266.50147,229.676997 L265.002847,229.676997 L265.002847,238.481405 L266.50147,238.481405 Z M273.432599,238.724931 C274.481635,238.724931 275.362076,238.406474 276.223784,237.825758 L276.223784,235.82135 L276.186318,235.82135 C275.45574,236.776722 274.575299,237.338705 273.320203,237.338705 C271.48439,237.338705 270.285492,235.82135 270.285492,234.079201 C270.285492,232.31832 271.578054,230.819697 273.395134,230.819697 C274.575299,230.819697 275.437007,231.419146 276.13012,232.299587 L276.167586,232.299587 L276.167586,230.313912 C275.380809,229.751928 274.406704,229.433471 273.451332,229.433471 C270.866208,229.433471 268.749404,231.456612 268.749404,234.079201 C268.749404,236.739256 270.772544,238.724931 273.432599,238.724931 Z M282.386869,238.724931 C284.953261,238.724931 287.013867,236.683058 287.013867,234.097934 C287.013867,231.51281 284.971993,229.433471 282.386869,229.433471 C279.801745,229.433471 277.759872,231.51281 277.759872,234.097934 C277.759872,236.683058 279.820478,238.724931 282.386869,238.724931 Z M282.386869,237.338705 C280.532324,237.338705 279.258495,235.877548 279.258495,234.079201 C279.258495,232.299587 280.532324,230.819697 282.386869,230.819697 C284.241415,230.819697 285.515244,232.299587 285.515244,234.079201 C285.515244,235.877548 284.241415,237.338705 282.386869,237.338705 Z M291.453536,238.724931 C293.083288,238.724931 294.432048,237.526033 294.432048,235.858815 C294.432048,234.378926 293.420478,233.760744 292.390175,233.32989 C291.359872,232.899036 290.348302,232.599311 290.348302,231.793802 C290.348302,231.231818 290.910285,230.819697 291.434803,230.819697 C291.978054,230.819697 292.427641,231.250551 292.633701,231.718871 L293.888798,231.063223 C293.495409,230.145317 292.55877,229.433471 291.5472,229.433471 C290.123508,229.433471 288.92461,230.445041 288.92461,231.924931 C288.92461,234.697383 292.89596,234.023003 292.89596,235.989945 C292.89596,236.795455 292.277778,237.338705 291.472269,237.338705 C290.479431,237.338705 290.048577,236.757989 289.673922,235.933747 L288.343894,236.49573 C288.812214,237.881956 289.973646,238.724931 291.453536,238.724931 Z" id="ServiciosTecnológicos" fill-rule="nonzero"></path>
            <path d="M249.695454,213.407477 C251.44412,213.407477 252.869955,212.808895 253.972959,211.611732 C255.075964,210.414568 255.627466,208.57847 255.627466,206.103435 L255.627466,206.103435 L255.627466,163.126614 L268.702105,163.126614 C270.746698,163.126614 272.280144,162.675997 273.30244,161.774761 C274.324737,160.873526 274.835886,159.683088 274.835886,158.203448 C274.835886,156.723808 274.331463,155.526644 273.322617,154.611958 C272.313772,153.697271 270.773601,153.239928 268.702105,153.239928 L268.702105,153.239928 L230.608096,153.239928 C228.64421,153.239928 227.144393,153.68382 226.108645,154.571604 C225.072897,155.459388 224.555023,156.670003 224.555023,158.203448 C224.555023,159.683088 225.05272,160.873526 226.048114,161.774761 C227.043509,162.675997 228.563503,163.126614 230.608096,163.126614 L230.608096,163.126614 L243.682735,163.126614 L243.682735,206.103435 C243.682735,208.551567 244.240963,210.38094 245.357418,211.591555 C246.473874,212.80217 247.919886,213.407477 249.695454,213.407477 Z M288.354416,213.407477 C290.156887,213.407477 291.61635,212.80217 292.732806,211.591555 C293.849262,210.38094 294.407489,208.551567 294.407489,206.103435 L294.407489,206.103435 L294.407489,159.49477 C294.407489,157.046638 293.849262,155.223991 292.732806,154.026827 C291.61635,152.829664 290.156887,152.231082 288.354416,152.231082 C286.60575,152.231082 285.179915,152.83639 284.076911,154.047004 C282.973906,155.257619 282.422404,157.073541 282.422404,159.49477 L282.422404,159.49477 L282.422404,206.103435 C282.422404,208.524664 282.980632,210.347312 284.097088,211.571378 C285.213544,212.795444 286.632653,213.407477 288.354416,213.407477 Z" id="TI" fill-rule="nonzero" opacity="0.6"></path>
        </g>
    </g>
</svg>