<?xml version="1.0" encoding="UTF-8"?>
<svg width="400px" height="400px" viewBox="0 0 400 400" version="1.1" xmlns="http://www.w3.org/2000/svg" xmlns:xlink="http://www.w3.org/1999/xlink">
    <title>logos/adagio</title>
    <g id="logos/adagio" stroke="none" stroke-width="1" fill="none" fill-rule="evenodd">
        <g id="Group" transform="translate(21.500000, 49.500000)" fill="#FFFFFF">
            <path d="M270.824205,160.44165 C271.280611,161.571296 271.537848,162.752881 271.608819,163.970455 L271.629191,164.581217 L271.629191,348.013107 L260.937005,348.013107 L260.936288,346.534065 L260.500694,345.984792 C249.122527,331.703468 239.22496,321.101467 230.807991,314.17879 L229.215992,312.879575 C216.476528,302.314752 206.998011,287.805786 206.998011,256.53716 C206.998011,236.784462 215.303953,218.617628 231.915838,202.036657 C232.561102,204.878937 232.385304,207.280592 231.388446,209.241621 C218.981614,233.648465 219.509007,246.175734 221.081729,263.752468 C222.923242,284.333216 236.208117,298.930039 260.936351,307.542937 L260.938123,182.432294 C256.832043,185.842163 251.712786,188.911939 245.883287,191.267209 C228.128674,198.440539 210.509186,196.269731 206.52906,186.418575 C202.548935,176.567418 213.715364,162.766346 231.469978,155.593016 C249.224592,148.419686 266.84408,150.590494 270.824205,160.44165 Z M286.272144,151.363613 L286.272144,195.496612 L275.579959,195.496612 L275.579959,151.363613 L286.272144,151.363613 Z M65.2073206,160.44165 C65.663727,161.571296 65.9209635,162.752881 65.9919349,163.970455 L66.0123065,164.581217 L66.0123065,194.817113 L55.3201206,194.817113 L55.3212387,182.432294 C51.2151583,185.842163 46.0959011,188.911939 40.266403,191.267209 C22.5117891,198.440539 4.89230147,196.269731 0.91217596,186.418575 C-3.06794955,176.567418 8.09847961,162.766346 25.8530936,155.593016 C43.6077075,148.419686 61.2271951,150.590494 65.2073206,160.44165 Z M135.868191,0 L135.866706,1.61083563 L136.197315,2.02831571 C147.575481,16.3096397 157.473049,26.9116401 165.890017,33.8343169 L167.482016,35.1335322 L168.365447,35.8771735 C180.657216,46.3822552 189.699998,60.9344988 189.699998,91.4759475 C189.699998,111.228645 181.394055,129.395479 164.78217,145.97645 C164.136907,143.13417 164.312704,140.732515 165.309563,138.771486 C177.716394,114.364642 177.189002,101.837373 175.61628,84.2606393 C173.777407,63.7094063 160.527972,49.1249474 135.867976,40.5072625 L135.868191,164.581217 C135.937653,173.866888 125.501631,185.053551 110.122287,191.267209 C92.3676731,198.440539 74.7481855,196.269731 70.76806,186.418575 C66.7879345,176.567418 77.9543637,162.766346 95.7089776,155.593016 C106.63061,151.18039 117.501111,150.303598 125.177084,152.575358 L125.176005,0 L135.868191,0 Z M200.968321,160.44165 C201.424727,161.571296 201.681964,162.752881 201.752935,163.970455 L201.773307,164.581217 L201.773307,194.817113 L191.081121,194.817113 L191.082239,182.432294 C186.976159,185.842163 181.856901,188.911939 176.027403,191.267209 C158.27279,198.440539 140.653302,196.269731 136.673176,186.418575 C132.693051,176.567418 143.85948,162.766346 161.614094,155.593016 C179.368708,148.419686 196.988196,150.590494 200.968321,160.44165 Z M355.963237,160.44165 C359.943363,170.292806 348.776934,184.093879 331.02232,191.267209 C313.267706,198.440539 295.648218,196.269731 291.668093,186.418575 C287.687967,176.567418 298.854396,162.766346 316.60901,155.593016 C334.363624,148.419686 351.983112,150.590494 355.963237,160.44165 Z M28.1077706,166.40808 C16.2123522,175.050607 9.0315905,185.445935 12.0690904,189.626695 C15.1065902,193.807455 27.2121123,190.190478 39.1075307,181.54795 C51.0029491,172.905423 58.1837108,162.510095 55.1462109,158.329335 C52.1087111,154.148575 40.003189,157.765552 28.1077706,166.40808 Z M163.868771,166.40808 L162.714128,167.263536 L161.591058,168.128613 C151.075551,176.387207 144.991771,185.720083 147.830091,189.626695 C150.867591,193.807455 162.973113,190.190478 174.868531,181.54795 C186.763949,172.905423 193.944711,162.510095 190.907211,158.329335 C187.869711,154.148575 175.764189,157.765552 163.868771,166.40808 Z M233.724655,166.40808 L232.570012,167.263536 L231.446943,168.128613 C220.931435,176.387207 214.847655,185.720083 217.685975,189.626695 C220.723475,193.807455 232.828997,190.190478 244.724415,181.54795 C256.619834,172.905423 263.800595,162.510095 260.763095,158.329335 C257.725596,154.148575 245.620073,157.765552 233.724655,166.40808 Z M318.863687,166.40808 C306.968269,175.050607 299.787507,185.445935 302.825007,189.626695 C305.862507,193.807455 317.968029,190.190478 329.863448,181.54795 C341.758866,172.905423 348.939628,162.510095 345.902128,158.329335 C342.864628,154.148575 330.759106,157.765552 318.863687,166.40808 Z" id="Shape"></path>
        </g>
    </g>
</svg>