<svg width="400" height="400" viewBox="0 0 400 400" xmlns="http://www.w3.org/2000/svg"><path d="M292.324 209.942c.457 1.13.714 2.31.785 3.528l.02.611v183.432h-10.692v-1.479l-.436-.55c-11.378-14.28-21.276-24.883-29.693-31.805l-1.592-1.3c-12.74-10.564-22.218-25.073-22.218-56.342 0-19.753 8.306-37.92 24.918-54.5.645 2.842.47 5.244-.528 7.205-12.406 24.406-11.879 36.934-10.306 54.51 1.841 20.581 15.126 35.178 39.854 43.79l.002-125.11c-4.106 3.41-9.225 6.48-15.055 8.835-17.754 7.174-35.374 5.003-39.354-4.848-3.98-9.852 7.186-23.653 24.941-30.826 17.755-7.173 35.374-5.003 39.354 4.849zm15.448-9.078v44.133H297.08v-44.133h10.692zm-221.065 9.078c.457 1.13.714 2.31.785 3.528l.02.611v30.236H76.82l.001-12.385c-4.106 3.41-9.225 6.48-15.055 8.835-17.754 7.174-35.374 5.003-39.354-4.848-3.98-9.852 7.186-23.653 24.941-30.826 17.755-7.173 35.374-5.003 39.354 4.849zM157.368 49.5l-.001 1.61.33.418c11.378 14.282 21.276 24.884 29.693 31.806l1.592 1.3.883.743c12.292 10.505 21.335 25.057 21.335 55.599 0 19.753-8.306 37.92-24.918 54.5-.645-2.842-.47-5.243.528-7.205 12.406-24.406 11.879-36.934 10.306-54.51-1.839-20.552-15.088-35.136-39.748-43.754v124.074c.07 9.286-10.366 20.473-25.746 26.686-17.754 7.174-35.374 5.003-39.354-4.848-3.98-9.852 7.186-23.653 24.941-30.826 10.922-4.413 21.792-5.29 29.468-3.018L146.676 49.5h10.692zm65.1 160.442c.457 1.13.714 2.31.785 3.528l.02.611v30.236h-10.692l.001-12.385c-4.106 3.41-9.225 6.48-15.055 8.835-17.754 7.174-35.374 5.003-39.354-4.848-3.98-9.852 7.186-23.653 24.941-30.826 17.755-7.173 35.374-5.003 39.354 4.849zm154.995 0c3.98 9.85-7.186 23.652-24.94 30.825-17.755 7.174-35.375 5.003-39.355-4.848-3.98-9.852 7.186-23.653 24.941-30.826 17.755-7.173 35.374-5.003 39.354 4.849zm-327.855 5.966c-11.896 8.643-19.076 19.038-16.039 23.219 3.038 4.18 15.143.563 27.039-8.08 11.895-8.642 19.076-19.037 16.038-23.218-3.037-4.18-15.143-.563-27.038 8.08zm135.76 0l-1.154.856-1.123.865c-10.515 8.258-16.6 17.591-13.76 21.498 3.037 4.18 15.142.563 27.038-8.08 11.895-8.642 19.076-19.037 16.038-23.218-3.037-4.18-15.143-.563-27.038 8.08zm69.857 0l-1.155.856-1.123.865c-10.516 8.258-16.6 17.591-13.761 21.498 3.037 4.18 15.143.563 27.038-8.08 11.896-8.642 19.077-19.037 16.04-23.218-3.038-4.18-15.144-.563-27.04 8.08zm85.139 0c-11.896 8.643-19.076 19.038-16.039 23.219 3.038 4.18 15.143.563 27.038-8.08 11.896-8.642 19.077-19.037 16.04-23.218-3.038-4.18-15.144-.563-27.04 8.08z" fill="#FFF" fill-rule="evenodd"/></svg>