<?xml version="1.0" encoding="UTF-8"?>
<svg width="400px" height="360px" viewBox="0 0 400 360" version="1.1" xmlns="http://www.w3.org/2000/svg" xmlns:xlink="http://www.w3.org/1999/xlink">
    <title>logos/autentia</title>
    <g id="logos/autentia" stroke="none" stroke-width="1" fill="none" fill-rule="evenodd">
        <path d="M268.270382,268.700469 L268.270382,277.860837 L220.362595,277.860837 L220.362595,268.700469 L268.270382,268.700469 Z M76.9561865,213.369693 L76.9561865,237.374923 C76.9561865,243.948335 80.2657712,247.71884 86.0367584,247.71884 C88.9641752,247.71884 91.9616192,246.162554 94.7256496,243.211312 L95.1162144,242.784317 L95.1162144,213.369693 L109.939314,213.369693 L109.939314,259.54038 L95.1162144,259.54038 L95.1162144,255.976898 L94.3997232,256.527101 C90.4339136,259.574418 86.41844,260.993449 81.7629248,260.993449 C69.9529803,260.993449 62.2804113,252.840661 62.1281409,240.185477 L62.125832,239.800613 L62.125832,213.369693 L76.9561865,213.369693 Z M140.922853,194.398646 L140.922853,213.369469 L156.929502,213.369469 L156.929502,225.964975 L140.922853,225.964975 L140.922853,239.903622 C140.922853,244.755001 143.698418,247.426775 148.738964,247.426775 C150.580412,247.426775 152.628895,247.114788 155.312422,246.612751 L156.709086,246.346459 L158.344627,258.795765 C152.42186,260.650048 149.030806,260.993226 144.566688,260.993226 C133.457812,260.993226 126.239408,253.066835 126.094715,240.762653 L126.092498,240.384631 L126.092498,225.964975 L116.880235,225.964975 L116.880235,213.369469 L126.092498,213.369469 L126.092498,202.029496 L140.922853,194.398646 Z M297.992026,190.27994 L297.992026,213.369469 L313.997002,213.369469 L313.997002,225.964975 L297.992026,225.964975 L297.992026,239.903622 C297.992026,244.755001 300.767033,247.426775 305.806463,247.426775 C307.634463,247.426775 309.663239,247.119966 312.313274,246.625262 L313.776586,246.346459 L315.413242,258.795765 C309.490475,260.650048 306.100537,260.993226 301.635862,260.993226 C290.525329,260.993226 283.306907,253.066835 283.162214,240.762653 L283.159998,240.384631 L283.159998,225.964975 L273.948293,225.964975 L273.948293,213.369469 L283.159998,213.369469 L283.159998,197.912464 L297.992026,190.27994 Z M188.05645,212.303717 C201.962733,212.303717 211.675535,221.81675 211.675535,235.439561 L211.672534,236.591524 C211.663533,237.748805 211.627526,238.917246 211.483498,240.053694 L211.402108,240.619053 L177.758849,240.619053 L177.928485,241.19046 C179.436798,246.276205 183.344575,249.077438 188.93365,249.077438 C192.111338,249.077438 194.666435,247.952706 196.191666,245.896293 L196.345758,245.680245 L211.063393,245.680245 C208.694621,254.767513 199.999079,260.606021 188.73667,260.606021 C173.863349,260.606021 163.475349,250.653829 163.475349,236.403253 C163.475349,222.213498 173.583226,212.303717 188.05645,212.303717 Z M22.9383069,212.303661 C27.5184909,212.303661 31.6425897,213.406256 35.2065333,215.581425 L35.6002166,215.827524 L36.2849005,216.266123 L36.2849005,213.369469 L51.115255,213.369469 L51.115255,259.540157 L36.2849005,259.540157 L36.2849005,256.54864 L35.6002166,256.987797 C31.9468949,259.325321 27.6870113,260.511102 22.9383069,260.511102 C10.0755119,260.511102 0,249.921658 0,236.403197 C0,222.889757 10.0755119,212.303661 22.9383069,212.303661 Z M371.822494,212.303661 C376.402678,212.303661 380.527295,213.406256 384.090776,215.581425 L384.484403,215.827524 L385.169087,216.266123 L385.169087,213.369469 L400,213.369469 L400,259.540157 L385.169087,259.540157 L385.169087,256.54864 L384.484403,256.987797 C380.831082,259.325321 376.571198,260.511102 371.822494,260.511102 C358.960257,260.511102 348.884187,249.921658 348.884187,236.403197 C348.884187,222.889757 358.960257,212.303661 371.822494,212.303661 Z M248.634518,211.916064 C260.443357,211.916064 268.115368,220.069401 268.267627,232.723512 L268.269936,233.108343 L268.269936,259.54038 L253.345277,259.54038 L253.345277,235.628337 C253.345277,229.055483 250.073079,225.284978 244.367938,225.284978 C240.588143,225.284978 238.35451,226.812849 235.783358,229.646681 L235.185807,230.319386 L235.185807,259.54038 L220.362706,259.54038 L220.362706,213.369693 L235.185807,213.369693 L235.185807,217.055379 L235.908436,216.481181 C239.769339,213.409311 243.93157,211.916064 248.634518,211.916064 Z M339.443138,213.369525 L339.442022,259.540213 L324.611667,259.539654 L324.611667,213.369525 L339.443138,213.369525 Z M26.0431002,224.218947 C19.4841964,224.218947 14.5379548,229.45703 14.5379548,236.403197 C14.5379548,243.295793 19.4841964,248.493141 26.0431002,248.493141 C33.7554202,248.493141 38.1776861,244.087616 38.1776861,236.405986 L38.1699252,235.889775 C38.0532827,232.000778 36.5084907,224.218947 26.0431002,224.218947 Z M374.928403,224.218947 C368.368942,224.218947 363.4227,229.45703 363.4227,236.403197 C363.4227,243.295793 368.368942,248.493141 374.928403,248.493141 C382.528401,248.493141 386.934101,244.214387 387.060206,236.737902 L387.062989,236.405986 C387.062989,232.741505 385.880556,224.218947 374.928403,224.218947 Z M188.05645,223.539341 C182.872305,223.539341 179.150298,226.416349 177.801124,231.446765 L177.725926,231.739366 L177.590328,232.290126 L197.898712,232.290126 L197.810546,231.771173 C196.913258,226.463338 193.449104,223.539341 188.05645,223.539341 Z M331.53183,188.248655 C334.033409,188.135378 336.436778,189.033782 338.158254,190.683831 C339.799932,192.258549 340.705032,194.401882 340.706149,196.717643 C340.707822,201.154976 336.79893,204.99579 332.171314,205.105161 C329.624536,205.175471 327.295382,204.278741 325.593996,202.605256 C324.008677,201.045605 323.142638,198.934635 323.158262,196.660725 C323.188395,192.212791 326.94495,188.438938 331.53183,188.248655 Z" id="Shape" fill="#FFFFFF" fill-rule="nonzero"></path>
    </g>
</svg>