<?xml version="1.0" encoding="UTF-8"?>
<svg width="400px" height="400px" viewBox="0 0 400 400" version="1.1" xmlns="http://www.w3.org/2000/svg" xmlns:xlink="http://www.w3.org/1999/xlink">
    <title>logos/bitergia</title>
    <g id="logos/bitergia" stroke="none" stroke-width="1" fill="none" fill-rule="evenodd">
        <path d="M86.7401323,150 L87.3084726,150.998683 L87.3854988,151.142072 C87.4926479,151.352512 87.615863,151.639304 87.7344546,151.994396 C88.4327985,154.085405 88.2854579,156.391319 86.7397395,158.543873 L86.4839772,158.882422 L86.2497825,159.165305 C84.2350425,161.499848 80.639012,163.26286 75.2089954,164.363225 L74.5485741,164.492082 L74.0696831,164.578907 L74.2011909,164.807256 C78.1954689,172.112827 75.4871024,181.669621 67.8153339,185.686661 C65.6365525,186.830512 63.3204237,187.645603 60.8940837,188.055168 C61.1013315,188.31191 61.3104229,188.586195 61.5192178,188.875409 C65.6269556,194.565258 66.5304969,201.934285 62.3009399,210.758929 L61.2170298,212.998227 L60.4044702,214.646291 C58.1946926,219.089817 56.3777485,222.41935 54.9135706,224.791372 L54.4772598,225.486302 L54.2526644,225.834274 C53.2292759,227.403965 52.5492119,228.221986 52.0947339,228.573134 L52.0007557,228.641338 L51.6247976,228.895536 L35.6621587,228.895536 L34.686062,227.626425 C22.4452186,211.483591 21.1059831,198.591789 26.3969022,189.173728 C26.6267663,188.76456 26.8574706,188.383673 27.0857421,188.030945 C24.9406196,187.665117 22.8787265,186.971234 20.8999389,186.004866 L20.2717487,185.687532 L19.8579242,185.462813 C12.6345386,181.397381 10.05906,172.319986 13.6700814,165.227406 L13.8810963,164.828106 L14.0230164,164.57724 L13.560225,164.492042 C7.54304197,163.361037 3.67289312,161.452903 1.63227896,158.882749 C-0.152766,156.634484 -0.357167642,154.194847 0.37482245,151.99362 C0.492537222,151.63963 0.614867128,151.35371 0.721277221,151.143875 L0.797778967,151.00089 L1.36554311,150 L2.47578369,150.302494 L11.6567226,152.77098 L16.5034077,154.052891 L22.0799908,155.503926 L25.7408389,156.436077 C28.1780182,157.049185 30.2243758,157.546528 31.8155651,157.910056 L33.2097855,158.219183 L34.0732107,158.396412 L34.6029931,158.512383 C38.4399583,159.431626 41.3994356,161.885911 43.640663,164.970077 L43.9559695,165.41486 L44.0446831,165.548907 L44.1276558,165.425014 C46.35275,162.175817 49.4520325,159.481015 53.477451,158.513582 L55.1995094,158.149325 L56.1551361,157.936261 C57.6291719,157.600994 59.5051113,157.147671 61.7300418,156.591142 L66.1003983,155.481134 L72.1247206,153.91306 L76.4433209,152.770904 L80.8115025,151.603682 L86.7401323,150 Z" id="Path" fill-opacity="0.5" fill="#FFFFFF" fill-rule="nonzero"></path>
        <path d="M34.2236363,188.076564 L34.0143355,188.42983 L33.8109048,188.788081 C30.4814604,194.778261 26.9387026,207.559541 40.3951705,226.044965 C40.8185562,225.777308 41.3396918,225.619555 41.9035162,225.619555 C43.3186526,225.619555 44.4657818,226.615394 44.4657818,227.844936 C44.4657818,229.072989 43.3186526,230.070317 41.9035162,230.070317 C40.4869073,230.070317 39.3397781,229.072989 39.3397781,227.844936 C39.3397781,227.517215 39.4212739,227.206096 39.5676465,226.926013 L39.1113166,226.926013 C39.2576892,227.206096 39.339185,227.517215 39.339185,227.844936 C39.339185,229.072989 38.1920558,230.070317 36.7754469,230.070317 C35.3603106,230.070317 34.2131813,229.072989 34.2131813,227.844936 C34.2131813,226.615394 35.3603106,225.619555 36.7754469,225.619555 L36.8496392,225.620845 L36.7563794,225.495291 C21.964732,205.510694 26.5717377,193.206084 29.782213,188.318258 L30.2855832,188.334943 C31.5128417,188.371896 32.7507802,188.299923 33.9986846,188.113976 L34.2236363,188.076564 Z M31.6487072,225.453884 C33.0638435,225.453884 34.2124453,226.476797 34.2124453,227.736354 C34.2124453,228.995911 33.0638435,230.018824 31.6487072,230.018824 C30.2320983,230.018824 29.0849691,228.995911 29.0849691,227.736354 C29.0849691,226.476797 30.2320983,225.453884 31.6487072,225.453884 Z M50.2728304,187.199556 C52.3948275,187.902304 54.49483,188.277989 56.5549132,188.344641 L57.0791136,188.354984 L57.2910435,188.588607 L57.5164701,188.846887 C60.3631219,192.174439 64.2034405,199.216192 59.2451943,209.937096 L58.622376,211.240268 L57.7461725,213.039213 C54.1329261,220.393549 51.9185281,224.082499 50.6618684,225.910249 C51.16017,226.198233 51.5354053,226.634373 51.7049266,227.145846 C52.0032661,226.205589 52.9960861,225.514975 54.17579,225.514975 C55.323256,225.514975 56.2954807,226.169721 56.6222167,227.072901 C56.8896734,226.070964 57.9019494,225.327481 59.1093104,225.327481 C60.5259193,225.327481 61.6730485,226.348875 61.6730485,227.60997 C61.6730485,228.869537 60.5259193,229.890932 59.1093104,229.890932 C57.9563905,229.890932 56.9813591,229.212985 56.6596082,228.280626 C56.3849629,229.247592 55.3762824,229.964249 54.17579,229.964249 C53.0050389,229.964249 52.018346,229.284077 51.7111216,228.354781 C51.4133249,229.295765 50.420505,229.987411 49.240801,229.987411 C47.8256647,229.987411 46.6785355,228.990083 46.6785355,227.76203 C46.6785355,226.608945 47.6898832,225.659275 48.9848299,225.547624 L49.4493107,224.732289 C50.5182152,222.833822 51.8344672,220.348774 53.4483471,217.093338 L53.9255408,216.125908 L55.2138984,213.468691 C62.0259906,199.255873 54.1645181,191.070475 52.5241027,189.575523 L52.2363691,189.32591 L51.7121354,188.754307 L50.2728304,187.199556 Z M44.2945176,176.21669 C45.1633318,180.10712 46.8878873,181.629541 48.3068747,182.198184 L48.4109484,182.238305 C48.9309635,182.428619 49.4040781,182.492475 49.7705368,182.501953 C49.8247719,182.50666 49.8743705,182.522338 49.9179298,182.546083 C50.1200669,182.638866 50.1970533,182.906123 50.0389991,183.083368 L48.5929389,184.716306 L44.2309086,189.65442 C44.1057405,189.803275 43.8539316,189.803275 43.7081476,189.65442 L39.575724,184.837352 L39.5646208,184.842995 L39.4552091,184.707983 L38.0371276,183.052716 C37.8677825,182.845808 37.9664444,182.501953 38.2432869,182.490045 C41.5285826,182.208709 43.96568,176.217298 43.96568,176.217298 L44.2945176,176.21669 Z M27.8846811,164.731933 C33.6541962,164.731933 38.3325397,168.524756 38.3325397,173.206244 C38.3325397,177.887731 33.6541962,181.680555 27.8846811,181.680555 C22.1151659,181.680555 17.4382949,177.887731 17.4382949,173.206244 C17.4382949,168.524756 22.1151659,164.731933 27.8846811,164.731933 Z M58.4519268,164.731933 C64.221442,164.731933 68.8983129,168.524756 68.8983129,173.206244 C68.8983129,177.887731 64.221442,181.680555 58.4519268,181.680555 C52.6824116,181.680555 48.0055407,177.887731 48.0055407,173.206244 C48.0055407,168.524756 52.6824116,164.731933 58.4519268,164.731933 Z M28.2980288,166.460143 C24.3397703,166.460143 21.1339933,169.425333 21.1339933,173.082699 C21.1339933,176.741553 24.3397703,179.706743 28.2980288,179.706743 C32.2533422,179.706743 35.4620644,176.741553 35.4620644,173.082699 C35.4620644,169.425333 32.2533422,166.460143 28.2980288,166.460143 Z M58.7244987,165.656174 C54.7662402,165.656174 51.5604631,168.621364 51.5604631,172.27873 C51.5604631,175.937584 54.7662402,178.902774 58.7244987,178.902774 C62.6798121,178.902774 65.8870617,175.937584 65.8870617,172.27873 C65.8870617,168.621364 62.6798121,165.656174 58.7244987,165.656174 Z M26.3922353,169.13611 C27.9870247,169.13611 29.2784655,170.632103 29.2784655,172.477904 C29.2784655,174.322216 27.9870247,175.818208 26.3922353,175.818208 C24.7989184,175.818208 23.5060051,174.322216 23.5060051,172.477904 C23.5060051,170.632103 24.7989184,169.13611 26.3922353,169.13611 Z M56.9594772,169.13611 C58.552794,169.13611 59.8457073,170.632103 59.8457073,172.477904 C59.8457073,174.322216 58.552794,175.818208 56.9594772,175.818208 C55.3661603,175.818208 54.073247,174.322216 54.073247,172.477904 C54.073247,170.632103 55.3661603,169.13611 56.9594772,169.13611 Z M86.0204096,151.004845 L86.1101626,151.194962 C86.4217938,151.917817 87.3048863,154.586233 84.7628379,157.192745 L78.0083232,159.003049 C70.0858686,161.108383 58.5525816,164.114168 54.2969114,164.951064 C48.6348936,166.09427 45.2376828,171.393505 44.3143837,173.045795 C44.1892156,173.258657 43.8961748,173.258657 43.7916226,173.045795 L43.564395,172.659438 C42.3739299,170.690203 39.0645506,166.016324 33.7899516,164.951064 L32.8672808,164.7605 C26.1374313,163.316927 8.23636642,158.523933 3.34464105,157.192745 C0.365639206,154.141219 2.08559677,151.004845 2.08559677,151.004845 L10.1527411,153.183037 C18.0677673,155.300942 29.5484302,158.316168 33.7899516,159.144233 C39.4504969,160.265111 42.8477076,165.564346 43.7916226,167.197285 C43.8961748,167.408659 44.1892156,167.408659 44.3143837,167.197285 L44.4556027,166.952623 C45.5511995,165.09123 48.892258,160.214162 54.2969114,159.144233 L54.9507234,159.011392 C62.5036776,157.426487 86.0204096,151.004845 86.0204096,151.004845 Z" id="Shape" fill="#FFFFFF"></path>
        <path d="M327.990023,183.743131 L328.939218,185.102746 C328.559539,185.948733 328.195681,186.734292 327.847645,187.459421 C327.499609,188.154334 326.961733,188.879463 326.234018,189.63481 C325.03171,189.846303 323.845221,190.012478 322.674551,190.133335 C321.535523,190.254188 320.238294,190.344828 318.782863,190.405257 C319.605497,191.553377 320.238292,192.777033 320.681246,194.076222 C321.155844,195.375417 321.393143,196.750144 321.393143,198.200403 C321.393143,200.526856 320.839448,202.656922 319.732059,204.5906 C318.656307,206.494067 317.232519,208.140716 315.460695,209.530546 C313.688871,210.890165 311.679748,211.962753 309.433326,212.748311 C307.18691,213.503653 304.90885,213.881323 302.599148,213.881323 L302.409313,213.881323 C300.890607,215.089872 299.846496,216.102032 299.276979,216.917802 C298.707463,217.70336 298.422705,218.18678 298.422705,218.368061 C298.422705,218.730628 298.580904,219.093193 298.897303,219.455755 C299.245339,219.788111 299.862315,220.120464 300.748229,220.452814 C301.665782,220.754948 302.915549,221.072192 304.497531,221.404548 C306.079518,221.706681 308.10446,221.993711 310.572356,222.265638 C314.021086,222.6282 316.868662,223.172046 319.115084,223.897176 C321.361505,224.622305 323.149148,225.46829 324.478012,226.435129 C325.806882,227.371756 326.724434,228.383916 327.23067,229.471608 C327.768543,230.559305 328.037479,231.631893 328.037479,232.689373 C328.037479,234.35113 327.705265,235.922244 327.040835,237.402715 C326.376401,238.913403 325.474667,240.303233 324.335635,241.572206 C323.196608,242.841184 321.851919,243.989307 320.30157,245.016575 C318.751226,246.043843 317.090142,246.920042 315.318318,247.645171 C313.546493,248.370301 311.711389,248.929255 309.813003,249.322034 C307.914623,249.714808 306.032061,249.911195 304.165319,249.911195 C302.67825,249.911195 301.143722,249.805449 299.561735,249.593956 C297.979753,249.412675 296.413588,249.110536 294.863238,248.68754 C293.312894,248.264549 291.841647,247.720703 290.449497,247.056002 C289.08899,246.421513 287.886682,245.635955 286.842573,244.699328 C285.798464,243.792917 284.960012,242.750543 284.327215,241.572206 C283.726061,240.424085 283.425484,239.109789 283.425484,237.629319 C283.425484,236.84376 283.567861,236.012882 283.852617,235.136683 C284.169015,234.290701 284.785991,233.369182 285.703543,232.372126 C286.621096,231.375075 287.902503,230.302489 289.547766,229.154368 C291.193034,228.006243 293.376175,226.737265 296.097189,225.347435 C294.040609,224.652522 292.616822,223.866966 291.825825,222.990768 C291.034834,222.114569 290.639339,221.223264 290.639339,220.316853 C290.639339,220.075144 290.718439,219.757899 290.876638,219.36512 C291.034837,218.942124 291.351233,218.443596 291.825825,217.869536 C292.332061,217.265263 293.028136,216.585454 293.914051,215.830108 C294.831603,215.074766 296.018092,214.213676 297.473518,213.246837 C295.859893,212.823846 294.388646,212.219571 293.059776,211.434013 C291.76255,210.618243 290.639339,209.651404 289.690143,208.533495 C288.772596,207.385374 288.044884,206.101291 287.507005,204.681243 C287.00077,203.230984 286.747652,201.65987 286.747652,199.967902 C286.747652,197.762301 287.269709,195.677553 288.313823,193.713658 C289.357931,191.719555 290.734257,189.997375 292.442801,188.547116 C294.151344,187.06664 296.097186,185.903411 298.280327,185.057429 C300.463468,184.18123 302.70989,183.743131 305.019593,183.743131 C306.917973,183.743131 308.689797,183.999946 310.335065,184.513578 C312.011966,185.027214 313.530672,185.752344 314.891184,186.688966 C316.536447,186.537897 318.023513,186.341507 319.352382,186.099798 C320.681252,185.858088 321.867741,185.601272 322.911849,185.32935 C323.987601,185.057429 324.936791,184.785505 325.75942,184.513578 C326.582054,184.241656 327.325588,183.98484 327.990023,183.743131 Z M300.416009,226.525772 C298.13795,227.704109 296.334485,228.761589 295.005616,229.698212 C293.708389,230.634839 292.727559,231.465718 292.063124,232.190847 C291.398689,232.946189 290.971554,233.625998 290.781717,234.230275 C290.623517,234.834547 290.544418,235.378393 290.544418,235.861813 C290.544418,237.130791 290.987375,238.324234 291.87329,239.442142 C292.759199,240.590263 293.945688,241.572208 295.432757,242.387978 C296.91982,243.233965 298.644185,243.898669 300.605852,244.382088 C302.567513,244.89572 304.624092,245.152535 306.77559,245.152535 C308.895456,245.152535 310.825479,244.880611 312.56566,244.336763 C314.305847,243.79292 315.792913,243.037578 317.026858,242.070739 C318.260809,241.134111 319.210002,240.001094 319.874437,238.671688 C320.570509,237.372498 320.918545,235.937347 320.918545,234.366236 C320.918545,233.520249 320.712887,232.734691 320.30157,232.009561 C319.890253,231.314648 319.146721,230.680162 318.070975,230.106102 C316.995223,229.532036 315.523976,229.018402 313.657233,228.5652 C311.822129,228.111992 309.464969,227.734319 306.585756,227.43218 C305.383448,227.311328 304.276059,227.175367 303.263588,227.024298 C302.251117,226.873228 301.301924,226.707053 300.416009,226.525772 Z M178.777122,169.24054 L180.248371,170.373552 L180.248371,185.102746 L195.767647,185.102746 L197.143976,186.417045 C196.85922,186.840036 196.495365,187.293241 196.052411,187.776661 C195.641094,188.26008 195.213955,188.713288 194.770995,189.136284 C194.32804,189.559275 193.885086,189.952052 193.442131,190.314614 C193.030814,190.646964 192.666956,190.873568 192.350558,190.994426 C191.591205,190.631858 190.436356,190.2844 188.886012,189.952049 C187.335668,189.589487 185.279086,189.408206 182.716265,189.408206 L180.248371,189.408206 L180.248371,213.33748 C180.248371,215.150301 180.327471,216.660986 180.48567,217.869536 C180.675507,219.078085 180.976084,220.044924 181.387401,220.770054 C181.798718,221.464971 182.320772,221.963499 182.953564,222.265638 C183.617999,222.567771 184.424811,222.718838 185.374001,222.718838 C186.481391,222.718838 187.873538,222.507343 189.550444,222.084352 C191.227349,221.661361 193.299751,220.845591 195.767647,219.637042 L197.143976,221.948391 C195.593632,223.036088 194.059106,224.002927 192.5404,224.848909 C191.021694,225.664679 189.566265,226.359594 188.174115,226.933654 C186.813608,227.477503 185.548019,227.885388 184.377349,228.15731 C183.206679,228.459448 182.21003,228.610517 181.387401,228.610517 C180.280012,228.610517 179.220082,228.414128 178.207611,228.021349 C177.226777,227.62857 176.356684,226.994083 175.597331,226.11789 C174.837978,225.211474 174.236824,224.033136 173.793869,222.582877 C173.350909,221.132618 173.129429,219.350009 173.129429,217.235049 L173.129429,189.408206 L167.007147,189.408206 L166.010495,188.139225 L169.71234,185.102746 L173.129429,185.102746 L173.129429,173.953882 L178.777122,169.24054 Z M223.341661,183.743131 C225.398246,183.743131 227.233351,184.015055 228.846975,184.558903 C230.4606,185.102746 231.868567,185.842982 233.070874,186.779609 C234.273182,187.68602 235.285653,188.758608 236.108287,189.997375 C236.930921,191.205924 237.595356,192.490008 238.101591,193.849626 C238.639464,195.209239 239.019141,196.59907 239.240621,198.019117 C239.462096,199.408947 239.572833,200.738351 239.572833,202.007329 C239.003322,202.611606 238.243969,203.170561 237.294774,203.684192 C236.345583,204.197824 235.364753,204.651029 234.352282,205.043808 L209.388548,205.043808 C209.420191,207.400478 209.752408,209.651401 210.3852,211.796578 C211.049635,213.911538 211.983006,215.78479 213.185314,217.416335 C214.419265,219.017659 215.890512,220.30174 217.599055,221.268579 C219.339236,222.235418 221.285078,222.718838 223.436582,222.718838 C224.417415,222.718838 225.366605,222.658412 226.284152,222.53756 C227.233348,222.416702 228.245819,222.144778 229.321565,221.721787 C230.397317,221.298796 231.583808,220.679416 232.88104,219.863646 C234.209904,219.047875 235.760248,217.945073 237.532072,216.555237 C237.943389,216.766735 238.291428,217.068874 238.576189,217.461653 C238.892582,217.854432 239.129878,218.171677 239.288078,218.413387 C237.168217,220.618987 235.301475,222.401596 233.68785,223.761215 C232.105863,225.090621 230.602975,226.11789 229.179187,226.843019 C227.787043,227.568149 226.394895,228.03646 225.002745,228.247953 C223.642238,228.489662 222.155172,228.610517 220.541547,228.610517 C218.105288,228.610517 215.779769,228.111992 213.56499,227.114941 C211.381849,226.117884 209.451826,224.712946 207.77492,222.900124 C206.098015,221.057086 204.753326,218.851483 203.740856,216.283316 C202.760028,213.684936 202.269614,210.784418 202.269614,207.581761 C202.269614,205.557442 202.50691,203.563337 202.981502,201.599447 C203.4561,199.635551 204.136354,197.777407 205.022263,196.025015 C205.939815,194.272617 207.047208,192.65618 208.344439,191.175704 C209.641666,189.695233 211.112913,188.411152 212.758181,187.32346 C213.454253,186.870253 214.229425,186.432153 215.083697,186.009162 C215.969606,185.555954 216.887159,185.163175 217.836354,184.830825 C218.785544,184.498474 219.718916,184.241659 220.636468,184.060378 C221.585658,183.84888 222.487389,183.743131 223.341661,183.743131 Z M381.6668,183.743131 C385.147168,183.743131 387.820725,184.619329 389.687473,186.371727 C391.585854,188.093908 392.535044,190.511006 392.535044,193.623022 L392.535044,219.183834 C392.535044,220.452812 392.709062,221.359225 393.057098,221.903073 C393.405134,222.446917 393.863911,222.718838 394.433427,222.718838 C394.876381,222.718838 395.445898,222.643306 396.141976,222.492242 C396.838048,222.341173 397.818878,222.00882 399.084467,221.495183 L399.796356,223.534611 C397.106984,225.31722 394.876387,226.601304 393.104563,227.386862 C391.364376,228.202632 390.051326,228.610517 389.165411,228.610517 C388.121302,228.610517 387.251212,227.915602 386.555139,226.525772 C385.859067,225.135942 385.47939,223.217369 385.41611,220.770054 C383.992322,222.129672 382.568534,223.308009 381.144746,224.305066 C379.720958,225.302117 378.328811,226.117887 376.968303,226.752376 C375.607796,227.386865 374.310567,227.855176 373.076616,228.15731 C371.874308,228.459448 370.766919,228.610517 369.754448,228.610517 C368.615421,228.610517 367.444751,228.429236 366.242438,228.066674 C365.04013,227.704107 363.948559,227.130044 362.967726,226.344486 C362.018536,225.558933 361.227545,224.546773 360.594753,223.308007 C359.961956,222.069246 359.645558,220.573667 359.645558,218.821269 C359.645558,216.525028 360.056875,214.606458 360.879509,213.065558 C361.73378,211.524654 362.746251,210.195249 363.916922,209.077346 C364.676275,208.352216 365.530546,207.672407 366.479737,207.037918 C367.46057,206.373212 368.74198,205.738723 370.323967,205.134451 C371.937592,204.530174 373.946712,203.956114 376.351328,203.412271 C378.755949,202.868422 381.777543,202.339682 385.41611,201.826051 L385.41611,195.435846 C385.41611,194.408578 385.289551,193.456844 385.036433,192.580646 C384.783315,191.674235 384.35618,190.903785 383.755026,190.269296 C383.153872,189.604595 382.331238,189.10607 381.287124,188.773719 C380.274653,188.411152 378.993245,188.244974 377.442901,188.275186 C376.43043,188.305403 375.433778,188.471581 374.452945,188.773719 C373.472117,189.075853 372.617846,189.498844 371.89013,190.042692 C371.162415,190.586541 370.592898,191.236136 370.181581,191.991477 C369.77027,192.716606 369.612073,193.532376 369.706992,194.438787 C369.738635,194.710714 369.406417,195.027958 368.71034,195.390521 C368.045905,195.722871 367.239092,196.025009 366.289902,196.296936 C365.37235,196.568858 364.454797,196.780353 363.537245,196.931423 C362.65133,197.082492 362.018536,197.112706 361.638862,197.022066 L360.97443,195.25456 C361.70214,193.743872 362.809529,192.293613 364.296598,190.903783 C365.783667,189.513952 367.476391,188.290297 369.374772,187.232817 C371.304795,186.175337 373.329737,185.329353 375.449597,184.694864 C377.6011,184.060375 379.673502,183.743131 381.6668,183.743131 Z M107.397922,168.787325 C110.561896,168.787325 113.425291,169.074355 115.988106,169.648415 C118.550921,170.192263 120.71824,170.992928 122.490064,172.050407 C124.293532,173.107887 125.66986,174.391971 126.61905,175.902659 C127.599884,177.413347 128.0903,179.120422 128.0903,181.023883 C128.0903,184.286969 127.283485,187.096846 125.669855,189.453516 C124.05623,191.779974 121.85727,193.456837 119.072975,194.484105 C121.097917,194.846667 122.980481,195.526476 124.720668,196.523532 C126.460854,197.520584 127.963741,198.759345 129.22933,200.239815 C130.526556,201.690074 131.539027,203.351832 132.266743,205.225087 C132.994453,207.068125 133.358308,209.032015 133.358308,211.116758 C133.358308,213.684934 132.820432,216.011391 131.74468,218.096139 C130.700572,220.150676 129.213506,221.903073 127.283482,223.353332 C125.385102,224.803591 123.107043,225.921497 120.449304,226.707051 C117.79157,227.492609 114.864898,227.885388 111.669286,227.885388 C110.973213,227.885388 110.13476,227.870279 109.153927,227.840062 C108.204737,227.840062 107.176447,227.824954 106.069058,227.794737 C104.961663,227.76452 103.822633,227.734308 102.651969,227.704102 C101.481298,227.673885 100.342269,227.628564 99.2348792,227.568141 C96.608778,227.477495 93.8561207,227.371746 90.9769072,227.250894 L87.5123613,227.250894 L87.5123613,225.302109 C89.6638593,224.879118 91.3407649,224.425913 92.5430782,223.942493 C93.7770238,223.428857 94.3939965,222.960543 94.3939965,222.537552 L94.3939965,173.319388 C93.1916887,173.470457 92.0051997,173.636632 90.8345295,173.817914 C89.6955024,173.968983 88.588113,174.135158 87.5123613,174.316439 L87.0852282,171.506564 C88.3191737,171.174214 89.7429589,170.856969 91.3565838,170.554831 C93.0018517,170.22248 94.7262166,169.93545 96.5296784,169.69374 C98.3331456,169.421814 100.16825,169.210316 102.034993,169.059246 C103.901736,168.877965 105.689379,168.787325 107.397922,168.787325 Z M155.759227,183.743131 L155.759227,222.53756 C155.759227,222.900122 156.281284,223.353327 157.325398,223.897176 C158.401144,224.410812 160.093869,224.879126 162.403571,225.302117 L162.403571,227.250902 L141.995948,227.250902 L141.995948,225.302117 C144.147452,224.879126 145.792717,224.425921 146.931744,223.942501 C148.070777,223.428864 148.640293,222.960551 148.640293,222.53756 L148.640293,196.886105 C148.640293,195.345205 148.608653,194.106442 148.545372,193.169814 C148.482091,192.202975 148.244795,191.46274 147.833483,190.949108 C147.422166,190.40526 146.757731,190.01248 145.840179,189.770771 C144.954264,189.529061 143.672854,189.332671 141.995948,189.181602 L141.995948,187.368778 C142.976782,187.187497 144.005074,186.976002 145.080826,186.734292 C146.188215,186.462365 147.279786,186.175335 148.355537,185.873201 C149.431284,185.540846 150.459574,185.193387 151.440407,184.830825 C152.42124,184.468258 153.322971,184.105693 154.145599,183.743131 L155.759227,183.743131 Z M273.221672,183.743131 C274.234143,183.743131 275.325714,183.863985 276.496384,184.105695 C277.667054,184.347405 278.837724,184.785505 280.008394,185.419994 C280.29315,185.601275 280.419709,186.130015 280.388071,187.006213 C280.388071,187.882412 280.261512,188.894572 280.008394,190.042692 C279.786914,191.190813 279.486337,192.369148 279.106663,193.577697 C278.726984,194.786246 278.347308,195.798406 277.967634,196.614176 L275.926873,196.614176 C275.737031,195.405626 275.468091,194.378361 275.120055,193.532379 C274.772019,192.686392 274.360705,192.021689 273.886112,191.538269 C273.443152,191.024638 272.936917,190.662073 272.367406,190.450575 C271.829527,190.208865 271.260011,190.08801 270.658857,190.08801 C269.962785,190.08801 269.140154,190.375043 268.190963,190.949108 C267.273411,191.492951 266.324218,192.369148 265.343385,193.577697 C264.362552,194.756034 263.381721,196.281828 262.400893,198.155078 C261.451703,199.998116 260.597432,202.203719 259.838078,204.771887 L259.838078,222.53756 C259.838078,222.990768 260.423411,223.459081 261.594076,223.942501 C262.796389,224.425921 264.884611,224.879126 267.858743,225.302117 L267.858743,227.250902 L246.0748,227.250902 L246.0748,225.302117 C248.163022,224.848909 249.792466,224.41081 250.963131,223.987819 C252.133801,223.534611 252.719136,223.051191 252.719136,222.53756 L252.719136,196.160975 C252.719136,195.163919 252.687498,194.333041 252.624223,193.66834 C252.560942,192.973422 252.481843,192.414468 252.386924,191.991477 C252.292006,191.568486 252.165447,191.236136 252.007248,190.994426 C251.880686,190.752716 251.754127,190.556326 251.627571,190.405257 C251.406091,190.193759 251.152973,190.027584 250.868218,189.906731 C250.6151,189.755662 250.267061,189.634807 249.824101,189.544167 C249.41279,189.453526 248.906554,189.393097 248.305395,189.36288 C247.704241,189.302457 246.960709,189.242031 246.0748,189.181602 L246.0748,187.368778 C248.131379,186.855147 250.1405,186.341513 252.102161,185.827876 C254.095465,185.284028 255.88311,184.589112 257.465098,183.743131 L259.126182,185.32935 L259.743157,195.617124 C260.597429,193.955373 261.514981,192.399367 262.495815,190.949108 C263.508285,189.498849 264.584034,188.244977 265.723061,187.187492 C266.862094,186.0998 268.048583,185.253816 269.282529,184.649539 C270.548117,184.045267 271.861165,183.743131 273.221672,183.743131 Z M346.546719,183.743131 L346.546719,222.53756 C346.546719,222.900122 347.068774,223.353327 348.112882,223.897176 C349.188634,224.410812 350.881359,224.879126 353.191056,225.302117 L353.191056,227.250902 L332.783441,227.250902 L332.783441,225.302117 C334.934939,224.879126 336.580204,224.425921 337.719237,223.942501 C338.858264,223.428864 339.427777,222.960551 339.427777,222.53756 L339.427777,196.886105 C339.427777,195.345205 339.39614,194.106442 339.332864,193.169814 C339.269583,192.202975 339.032284,191.46274 338.620967,190.949108 C338.209651,190.40526 337.545216,190.01248 336.627663,189.770771 C335.741754,189.529061 334.460347,189.332671 332.783441,189.181602 L332.783441,187.368778 C333.764274,187.187497 334.792564,186.976002 335.86831,186.734292 C336.9757,186.462365 338.06727,186.175335 339.143022,185.873201 C340.218774,185.540846 341.247066,185.193387 342.227899,184.830825 C343.208727,184.468258 344.110458,184.105693 344.933092,183.743131 L346.546719,183.743131 Z M109.818359,197.792513 C108.299653,197.792513 106.891686,197.868048 105.59446,198.019117 C104.328871,198.139974 103.126561,198.291044 101.987528,198.472325 L101.987528,222.53756 C101.987528,222.779269 102.129909,223.005873 102.41467,223.217371 C102.952543,223.398653 103.569516,223.549719 104.265588,223.670572 C104.961666,223.761212 105.67356,223.836747 106.40127,223.897176 C107.128985,223.957604 107.856698,224.002925 108.584408,224.033136 C109.312124,224.063353 109.99238,224.078462 110.625177,224.078462 C112.903237,224.078462 114.959816,223.806538 116.794916,223.262689 C118.63002,222.688629 120.196186,221.903071 121.493412,220.906014 C122.822282,219.908963 123.834753,218.715523 124.530825,217.325692 C125.226903,215.905645 125.574942,214.349637 125.574942,212.657668 C125.574942,210.995916 125.258543,209.288841 124.625746,207.536444 C124.024592,205.784046 123.075402,204.182718 121.778176,202.732459 C120.512587,201.2822 118.883141,200.103865 116.889837,199.197454 C114.928176,198.260827 112.571017,197.792513 109.818359,197.792513 Z M385.41611,205.225094 C382.758371,205.648085 380.559411,206.05597 378.81923,206.448749 C377.110681,206.841529 375.702712,207.249414 374.595323,207.672405 C373.487933,208.065184 372.602021,208.488175 371.937587,208.941377 C371.273152,209.394585 370.687817,209.878005 370.181581,210.391636 C369.358953,211.207412 368.694521,212.144039 368.188285,213.201519 C367.68205,214.228782 367.428932,215.452437 367.428932,216.872484 C367.428932,218.081034 367.618769,219.062979 367.998443,219.81832 C368.378122,220.573667 368.836898,221.177941 369.374772,221.631144 C369.912645,222.05414 370.466339,222.341173 371.035856,222.492242 C371.63701,222.643306 372.143245,222.718838 372.554562,222.718838 C374.452948,222.718838 376.462071,222.265633 378.581931,221.359222 C380.733429,220.4226 383.011489,218.957235 385.41611,216.963127 L385.41611,205.225094 Z M301.744881,188.275186 C300.953885,188.275186 300.067973,188.471576 299.087145,188.864355 C298.13795,189.257134 297.236216,189.831197 296.381944,190.586543 C295.527673,191.341885 294.815779,192.293615 294.246263,193.441736 C293.676752,194.589856 293.391996,195.904155 293.391996,197.384631 C293.391996,198.985959 293.645114,200.511753 294.151349,201.962012 C294.689223,203.382054 295.480214,204.620815 296.524322,205.678295 C297.600074,206.73578 298.944762,207.581764 300.558387,208.216248 C302.203655,208.820525 304.149497,209.122664 306.395914,209.122664 C307.313466,209.122664 308.262659,208.94138 309.243492,208.578813 C310.255963,208.186039 311.157694,207.611978 311.948685,206.856632 C312.771319,206.071074 313.435753,205.119343 313.941989,204.001439 C314.479862,202.883531 314.748799,201.569232 314.748799,200.058545 C314.748799,198.457216 314.464043,196.946529 313.894532,195.526481 C313.356654,194.076222 312.53402,192.822353 311.42663,191.764873 C310.350879,190.677181 308.990372,189.831197 307.345109,189.22692 C305.731484,188.592431 303.864742,188.275186 301.744881,188.275186 Z M222.012797,188.50179 C220.367529,188.50179 218.848822,188.803929 217.456678,189.408206 C216.09617,190.012478 214.878041,190.873568 213.802289,191.991477 C212.758175,193.079174 211.872263,194.393472 211.144553,195.934372 C210.448481,197.445059 209.958064,199.12192 209.673303,200.964953 L229.986005,200.964953 C230.713715,200.964953 231.18831,200.859206 231.40979,200.647713 C231.662908,200.406004 231.789467,199.967904 231.789467,199.333415 C231.789467,198.517645 231.662908,197.505485 231.40979,196.296936 C231.18831,195.05817 230.713715,193.864727 229.986005,192.716606 C229.289927,191.538274 228.293275,190.54122 226.996049,189.725445 C225.73046,188.909675 224.069376,188.50179 222.012797,188.50179 Z M104.740186,172.594266 C104.297231,172.594266 103.838455,172.609375 103.363857,172.639592 C102.920902,172.639592 102.462126,172.6547 101.987528,172.684917 L101.987528,194.393485 L103.601156,194.393485 C107.208085,194.393485 110.118939,194.061134 112.333718,193.396434 C114.580139,192.701516 116.320323,191.825317 117.554269,190.767837 C118.78822,189.710357 119.626673,188.516914 120.069627,187.187507 C120.512582,185.858106 120.734059,184.54381 120.734059,183.24462 C120.734059,181.733933 120.465123,180.328994 119.927249,179.029804 C119.421014,177.730614 118.550921,176.612706 117.31697,175.676078 C116.083024,174.709239 114.437759,173.953895 112.381174,173.410047 C110.356232,172.866203 107.809236,172.594266 104.740186,172.594266 Z M153.148956,165.796171 C155.838327,165.796171 157.183012,167.231324 157.183012,170.101631 C157.183012,170.947618 157.040635,171.748282 156.755879,172.503623 C156.471124,173.258964 156.075628,173.923665 155.569393,174.497725 C155.094795,175.041574 154.525279,175.479673 153.860844,175.812024 C153.196409,176.144374 152.468697,176.310549 151.677706,176.310549 C150.253918,176.310549 149.225628,175.932879 148.592836,175.177537 C147.991677,174.422196 147.691097,173.349608 147.691097,171.959772 C147.691097,171.11379 147.833478,170.313129 148.118239,169.557787 C148.402994,168.802441 148.798489,168.152843 149.304725,167.608995 C149.81096,167.034935 150.380477,166.596838 151.013274,166.294705 C151.677708,165.962349 152.389602,165.796171 153.148956,165.796171 Z M343.93644,165.796171 C346.625816,165.796171 347.970505,167.231324 347.970505,170.101631 C347.970505,170.947618 347.828127,171.748282 347.543372,172.503623 C347.258611,173.258964 346.863113,173.923665 346.356877,174.497725 C345.882285,175.041574 345.312771,175.479673 344.648336,175.812024 C343.983902,176.144374 343.256186,176.310549 342.46519,176.310549 C341.041407,176.310549 340.013118,175.932879 339.380321,175.177537 C338.779167,174.422196 338.47859,173.349608 338.47859,171.959772 C338.47859,171.11379 338.620967,170.313129 338.905723,169.557787 C339.190484,168.802441 339.585982,168.152843 340.092217,167.608995 C340.598453,167.034935 341.167966,166.596838 341.800758,166.294705 C342.465193,165.962349 343.177087,165.796171 343.93644,165.796171 Z" id="Combined-Shape" fill="#FFFFFF" fill-rule="nonzero"></path>
    </g>
</svg>