<?xml version="1.0" encoding="UTF-8"?>
<svg width="400px" height="360px" viewBox="0 0 400 360" version="1.1" xmlns="http://www.w3.org/2000/svg" xmlns:xlink="http://www.w3.org/1999/xlink">
    <title>logos/bitergia</title>
    <g id="logos/bitergia" stroke="none" stroke-width="1" fill="none" fill-rule="evenodd">
        <path d="M86.7401323,183.439097 L87.3084726,184.437779 L87.3854988,184.581168 C87.4926479,184.791609 87.615863,185.0784 87.7344546,185.433492 C88.4327985,187.524502 88.2854579,189.830415 86.7397395,191.98297 L86.4839772,192.321518 L86.2497825,192.604401 C84.2350425,194.938944 80.639012,196.701957 75.2089954,197.802321 L74.5485741,197.931179 L74.0696831,198.018003 L74.2011909,198.246352 C78.1954689,205.551924 75.4871024,215.108718 67.8153339,219.125758 C65.6365525,220.269609 63.3204237,221.0847 60.8940837,221.494264 C61.1013315,221.751007 61.3104229,222.025292 61.5192178,222.314505 C65.6269556,228.004355 66.5304969,235.373382 62.3009399,244.198025 L61.2170298,246.437324 L60.4044702,248.085388 C58.1946926,252.528913 56.3777485,255.858447 54.9135706,258.230468 L54.4772598,258.925399 L54.2526644,259.27337 C53.2292759,260.843062 52.5492119,261.661083 52.0947339,262.012231 L52.0007557,262.080434 L51.6247976,262.334632 L35.6621587,262.334632 L34.686062,261.065522 C22.4452186,244.922687 21.1059831,232.030886 26.3969022,222.612825 C26.6267663,222.203657 26.8574706,221.822769 27.0857421,221.470042 C24.9406196,221.104213 22.8787265,220.410331 20.8999389,219.443963 L20.2717487,219.126629 L19.8579242,218.901909 C12.6345386,214.836477 10.05906,205.759082 13.6700814,198.666502 L13.8810963,198.267202 L14.0230164,198.016337 L13.560225,197.931138 C7.54304197,196.800133 3.67289312,194.892 1.63227896,192.321845 C-0.152766,190.07358 -0.357167642,187.633944 0.37482245,185.432716 C0.492537222,185.078726 0.614867128,184.792806 0.721277221,184.582971 L0.797778967,184.439986 L1.36554311,183.439097 L2.47578369,183.74159 L11.6567226,186.210077 L16.5034077,187.491987 L22.0799908,188.943022 L25.7408389,189.875173 C28.1780182,190.488282 30.2243758,190.985624 31.8155651,191.349153 L33.2097855,191.658279 L34.0732107,191.835508 L34.6029931,191.95148 C38.4399583,192.870722 41.3994356,195.325008 43.640663,198.409174 L43.9559695,198.853956 L44.0446831,198.988003 L44.1276558,198.864111 C46.35275,195.614914 49.4520325,192.920112 53.477451,191.952678 L55.1995094,191.588421 L56.1551361,191.375357 C57.6291719,191.04009 59.5051113,190.586767 61.7300418,190.030238 L66.1003983,188.920231 L72.1247206,187.352156 L76.4433209,186.21 L80.8115025,185.042779 L86.7401323,183.439097 Z" id="Path" fill-opacity="0.5" fill="#FFFFFF" fill-rule="nonzero"></path>
        <path d="M34.2236363,221.51566 L34.0143355,221.868927 L33.8109048,222.227178 C30.4814604,228.217358 26.9387026,240.998638 40.3951705,259.484062 C40.8185562,259.216404 41.3396918,259.058652 41.9035162,259.058652 C43.3186526,259.058652 44.4657818,260.054491 44.4657818,261.284033 C44.4657818,262.512086 43.3186526,263.509414 41.9035162,263.509414 C40.4869073,263.509414 39.3397781,262.512086 39.3397781,261.284033 C39.3397781,260.956311 39.4212739,260.645193 39.5676465,260.365109 L39.1113166,260.365109 C39.2576892,260.645193 39.339185,260.956311 39.339185,261.284033 C39.339185,262.512086 38.1920558,263.509414 36.7754469,263.509414 C35.3603106,263.509414 34.2131813,262.512086 34.2131813,261.284033 C34.2131813,260.054491 35.3603106,259.058652 36.7754469,259.058652 L36.8496392,259.059942 L36.7563794,258.934387 C21.964732,238.949791 26.5717377,226.645181 29.782213,221.757355 L30.2855832,221.774039 C31.5128417,221.810993 32.7507802,221.73902 33.9986846,221.553073 L34.2236363,221.51566 Z M31.6487072,258.892981 C33.0638435,258.892981 34.2124453,259.915894 34.2124453,261.175451 C34.2124453,262.435008 33.0638435,263.45792 31.6487072,263.45792 C30.2320983,263.45792 29.0849691,262.435008 29.0849691,261.175451 C29.0849691,259.915894 30.2320983,258.892981 31.6487072,258.892981 Z M50.2728304,220.638652 C52.3948275,221.3414 54.49483,221.717085 56.5549132,221.783738 L57.0791136,221.79408 L57.2910435,222.027704 L57.5164701,222.285984 C60.3631219,225.613536 64.2034405,232.655289 59.2451943,243.376193 L58.622376,244.679364 L57.7461725,246.478309 C54.1329261,253.832645 51.9185281,257.521596 50.6618684,259.349345 C51.16017,259.637329 51.5354053,260.07347 51.7049266,260.584943 C52.0032661,259.644686 52.9960861,258.954072 54.17579,258.954072 C55.323256,258.954072 56.2954807,259.608817 56.6222167,260.511998 C56.8896734,259.510061 57.9019494,258.766577 59.1093104,258.766577 C60.5259193,258.766577 61.6730485,259.787972 61.6730485,261.049066 C61.6730485,262.308634 60.5259193,263.330028 59.1093104,263.330028 C57.9563905,263.330028 56.9813591,262.652082 56.6596082,261.719722 C56.3849629,262.686688 55.3762824,263.403346 54.17579,263.403346 C53.0050389,263.403346 52.018346,262.723174 51.7111216,261.793877 C51.4133249,262.734861 50.420505,263.426508 49.240801,263.426508 C47.8256647,263.426508 46.6785355,262.42918 46.6785355,261.201126 C46.6785355,260.048042 47.6898832,259.098372 48.9848299,258.986721 L49.4493107,258.171385 C50.5182152,256.272919 51.8344672,253.78787 53.4483471,250.532434 L53.9255408,249.565005 L55.2138984,246.907787 C62.0259906,232.69497 54.1645181,224.509571 52.5241027,223.01462 L52.2363691,222.765006 L51.7121354,222.193403 L50.2728304,220.638652 Z M44.2945176,209.655786 C45.1633318,213.546216 46.8878873,215.068638 48.3068747,215.637281 L48.4109484,215.677402 C48.9309635,215.867715 49.4040781,215.931572 49.7705368,215.94105 C49.8247719,215.945757 49.8743705,215.961434 49.9179298,215.985179 C50.1200669,216.077963 50.1970533,216.34522 50.0389991,216.522464 L48.5929389,218.155403 L44.2309086,223.093516 C44.1057405,223.242371 43.8539316,223.242371 43.7081476,223.093516 L39.575724,218.276448 L39.5646208,218.282091 L39.4552091,218.14708 L38.0371276,216.491813 C37.8677825,216.284905 37.9664444,215.94105 38.2432869,215.929141 C41.5285826,215.647806 43.96568,209.656395 43.96568,209.656395 L44.2945176,209.655786 Z M27.8846811,198.171029 C33.6541962,198.171029 38.3325397,201.963853 38.3325397,206.64534 C38.3325397,211.326828 33.6541962,215.119652 27.8846811,215.119652 C22.1151659,215.119652 17.4382949,211.326828 17.4382949,206.64534 C17.4382949,201.963853 22.1151659,198.171029 27.8846811,198.171029 Z M58.4519268,198.171029 C64.221442,198.171029 68.8983129,201.963853 68.8983129,206.64534 C68.8983129,211.326828 64.221442,215.119652 58.4519268,215.119652 C52.6824116,215.119652 48.0055407,211.326828 48.0055407,206.64534 C48.0055407,201.963853 52.6824116,198.171029 58.4519268,198.171029 Z M28.2980288,199.89924 C24.3397703,199.89924 21.1339933,202.86443 21.1339933,206.521795 C21.1339933,210.18065 24.3397703,213.14584 28.2980288,213.14584 C32.2533422,213.14584 35.4620644,210.18065 35.4620644,206.521795 C35.4620644,202.86443 32.2533422,199.89924 28.2980288,199.89924 Z M58.7244987,199.09527 C54.7662402,199.09527 51.5604631,202.060461 51.5604631,205.717826 C51.5604631,209.37668 54.7662402,212.341871 58.7244987,212.341871 C62.6798121,212.341871 65.8870617,209.37668 65.8870617,205.717826 C65.8870617,202.060461 62.6798121,199.09527 58.7244987,199.09527 Z M26.3922353,202.575207 C27.9870247,202.575207 29.2784655,204.071199 29.2784655,205.917 C29.2784655,207.761313 27.9870247,209.257305 26.3922353,209.257305 C24.7989184,209.257305 23.5060051,207.761313 23.5060051,205.917 C23.5060051,204.071199 24.7989184,202.575207 26.3922353,202.575207 Z M56.9594772,202.575207 C58.552794,202.575207 59.8457073,204.071199 59.8457073,205.917 C59.8457073,207.761313 58.552794,209.257305 56.9594772,209.257305 C55.3661603,209.257305 54.073247,207.761313 54.073247,205.917 C54.073247,204.071199 55.3661603,202.575207 56.9594772,202.575207 Z M86.0204096,184.443942 L86.1101626,184.634059 C86.4217938,185.356913 87.3048863,188.02533 84.7628379,190.631841 L78.0083232,192.442146 C70.0858686,194.54748 58.5525816,197.553265 54.2969114,198.39016 C48.6348936,199.533366 45.2376828,204.832602 44.3143837,206.484891 C44.1892156,206.697754 43.8961748,206.697754 43.7916226,206.484891 L43.564395,206.098535 C42.3739299,204.129299 39.0645506,199.45542 33.7899516,198.39016 L32.8672808,198.199597 C26.1374313,196.756024 8.23636642,191.96303 3.34464105,190.631841 C0.365639206,187.580315 2.08559677,184.443942 2.08559677,184.443942 L10.1527411,186.622133 C18.0677673,188.740038 29.5484302,191.755264 33.7899516,192.58333 C39.4504969,193.704207 42.8477076,199.003443 43.7916226,200.636381 C43.8961748,200.847755 44.1892156,200.847755 44.3143837,200.636381 L44.4556027,200.39172 C45.5511995,198.530327 48.892258,193.653258 54.2969114,192.58333 L54.9507234,192.450489 C62.5036776,190.865583 86.0204096,184.443942 86.0204096,184.443942 Z" id="Shape" fill="#FFFFFF"></path>
        <path d="M327.990023,217.182227 L328.939218,218.541843 C328.559539,219.38783 328.195681,220.173388 327.847645,220.898518 C327.499609,221.59343 326.961733,222.31856 326.234018,223.073906 C325.03171,223.285399 323.845221,223.451574 322.674551,223.572432 C321.535523,223.693284 320.238294,223.783925 318.782863,223.844354 C319.605497,224.992474 320.238292,226.216129 320.681246,227.515319 C321.155844,228.814514 321.393143,230.189241 321.393143,231.6395 C321.393143,233.965952 320.839448,236.096018 319.732059,238.029697 C318.656307,239.933164 317.232519,241.579812 315.460695,242.969643 C313.688871,244.329261 311.679748,245.401849 309.433326,246.187408 C307.18691,246.942749 304.90885,247.32042 302.599148,247.32042 L302.409313,247.32042 C300.890607,248.528969 299.846496,249.541129 299.276979,250.356899 C298.707463,251.142457 298.422705,251.625877 298.422705,251.807158 C298.422705,252.169725 298.580904,252.53229 298.897303,252.894852 C299.245339,253.227207 299.862315,253.55956 300.748229,253.891911 C301.665782,254.194044 302.915549,254.511289 304.497531,254.843644 C306.079518,255.145778 308.10446,255.432808 310.572356,255.704735 C314.021086,256.067297 316.868662,256.611143 319.115084,257.336272 C321.361505,258.061402 323.149148,258.907386 324.478012,259.874225 C325.806882,260.810853 326.724434,261.823013 327.23067,262.910704 C327.768543,263.998401 328.037479,265.07099 328.037479,266.128469 C328.037479,267.790226 327.705265,269.36134 327.040835,270.841811 C326.376401,272.352499 325.474667,273.742329 324.335635,275.011302 C323.196608,276.28028 321.851919,277.428403 320.30157,278.455671 C318.751226,279.482939 317.090142,280.359138 315.318318,281.084268 C313.546493,281.809397 311.711389,282.368351 309.813003,282.761131 C307.914623,283.153905 306.032061,283.350292 304.165319,283.350292 C302.67825,283.350292 301.143722,283.244545 299.561735,283.033052 C297.979753,282.851771 296.413588,282.549633 294.863238,282.126636 C293.312894,281.703646 291.841647,281.1598 290.449497,280.495099 C289.08899,279.86061 287.886682,279.075052 286.842573,278.138424 C285.798464,277.232014 284.960012,276.18964 284.327215,275.011302 C283.726061,273.863182 283.425484,272.548886 283.425484,271.068415 C283.425484,270.282857 283.567861,269.451978 283.852617,268.57578 C284.169015,267.729798 284.785991,266.808279 285.703543,265.811222 C286.621096,264.814171 287.902503,263.741585 289.547766,262.593465 C291.193034,261.445339 293.376175,260.176361 296.097189,258.786531 C294.040609,258.091619 292.616822,257.306063 291.825825,256.429864 C291.034834,255.553665 290.639339,254.662361 290.639339,253.75595 C290.639339,253.51424 290.718439,253.196996 290.876638,252.804216 C291.034837,252.38122 291.351233,251.882692 291.825825,251.308632 C292.332061,250.70436 293.028136,250.024551 293.914051,249.269204 C294.831603,248.513863 296.018092,247.652773 297.473518,246.685933 C295.859893,246.262942 294.388646,245.658668 293.059776,244.87311 C291.76255,244.057339 290.639339,243.0905 289.690143,241.972591 C288.772596,240.824471 288.044884,239.540387 287.507005,238.12034 C287.00077,236.670081 286.747652,235.098967 286.747652,233.406998 C286.747652,231.201398 287.269709,229.11665 288.313823,227.152754 C289.357931,225.158652 290.734257,223.436471 292.442801,221.986212 C294.151344,220.505736 296.097186,219.342507 298.280327,218.496525 C300.463468,217.620327 302.70989,217.182227 305.019593,217.182227 C306.917973,217.182227 308.689797,217.439043 310.335065,217.952674 C312.011966,218.466311 313.530672,219.19144 314.891184,220.128063 C316.536447,219.976994 318.023513,219.780604 319.352382,219.538894 C320.681252,219.297184 321.867741,219.040369 322.911849,218.768447 C323.987601,218.496525 324.936791,218.224601 325.75942,217.952674 C326.582054,217.680753 327.325588,217.423937 327.990023,217.182227 Z M300.416009,259.964869 C298.13795,261.143206 296.334485,262.200686 295.005616,263.137308 C293.708389,264.073936 292.727559,264.904814 292.063124,265.629944 C291.398689,266.385285 290.971554,267.065094 290.781717,267.669372 C290.623517,268.273644 290.544418,268.817489 290.544418,269.300909 C290.544418,270.569887 290.987375,271.76333 291.87329,272.881239 C292.759199,274.029359 293.945688,275.011305 295.432757,275.827075 C296.91982,276.673062 298.644185,277.337765 300.605852,277.821185 C302.567513,278.334816 304.624092,278.591632 306.77559,278.591632 C308.895456,278.591632 310.825479,278.319708 312.56566,277.775859 C314.305847,277.232016 315.792913,276.476675 317.026858,275.509835 C318.260809,274.573208 319.210002,273.440191 319.874437,272.110784 C320.570509,270.811594 320.918545,269.376444 320.918545,267.805332 C320.918545,266.959345 320.712887,266.173787 320.30157,265.448658 C319.890253,264.753745 319.146721,264.119259 318.070975,263.545198 C316.995223,262.971133 315.523976,262.457499 313.657233,262.004296 C311.822129,261.551088 309.464969,261.173415 306.585756,260.871277 C305.383448,260.750424 304.276059,260.614463 303.263588,260.463394 C302.251117,260.312325 301.301924,260.14615 300.416009,259.964869 Z M178.777122,202.679637 L180.248371,203.812649 L180.248371,218.541843 L195.767647,218.541843 L197.143976,219.856141 C196.85922,220.279132 196.495365,220.732337 196.052411,221.215757 C195.641094,221.699177 195.213955,222.152385 194.770995,222.575381 C194.32804,222.998372 193.885086,223.391148 193.442131,223.75371 C193.030814,224.086061 192.666956,224.312665 192.350558,224.433522 C191.591205,224.070955 190.436356,223.723496 188.886012,223.391146 C187.335668,223.028584 185.279086,222.847302 182.716265,222.847302 L180.248371,222.847302 L180.248371,246.776576 C180.248371,248.589398 180.327471,250.100083 180.48567,251.308632 C180.675507,252.517181 180.976084,253.484021 181.387401,254.20915 C181.798718,254.904068 182.320772,255.402596 182.953564,255.704735 C183.617999,256.006868 184.424811,256.157935 185.374001,256.157935 C186.481391,256.157935 187.873538,255.946439 189.550444,255.523448 C191.227349,255.100457 193.299751,254.284687 195.767647,253.076138 L197.143976,255.387487 C195.593632,256.475184 194.059106,257.442024 192.5404,258.288006 C191.021694,259.103776 189.566265,259.798691 188.174115,260.372751 C186.813608,260.916599 185.548019,261.324484 184.377349,261.596406 C183.206679,261.898545 182.21003,262.049614 181.387401,262.049614 C180.280012,262.049614 179.220082,261.853224 178.207611,261.460445 C177.226777,261.067666 176.356684,260.43318 175.597331,259.556986 C174.837978,258.65057 174.236824,257.472233 173.793869,256.021974 C173.350909,254.571715 173.129429,252.789105 173.129429,250.674146 L173.129429,222.847302 L167.007147,222.847302 L166.010495,221.578322 L169.71234,218.541843 L173.129429,218.541843 L173.129429,207.392979 L178.777122,202.679637 Z M223.341661,217.182227 C225.398246,217.182227 227.233351,217.454151 228.846975,217.998 C230.4606,218.541843 231.868567,219.282078 233.070874,220.218706 C234.273182,221.125117 235.285653,222.197705 236.108287,223.436471 C236.930921,224.64502 237.595356,225.929104 238.101591,227.288723 C238.639464,228.648336 239.019141,230.038166 239.240621,231.458213 C239.462096,232.848044 239.572833,234.177448 239.572833,235.446426 C239.003322,236.050703 238.243969,236.609657 237.294774,237.123289 C236.345583,237.63692 235.364753,238.090126 234.352282,238.482905 L209.388548,238.482905 C209.420191,240.839574 209.752408,243.090498 210.3852,245.235674 C211.049635,247.350634 211.983006,249.223887 213.185314,250.855432 C214.419265,252.456755 215.890512,253.740836 217.599055,254.707676 C219.339236,255.674515 221.285078,256.157935 223.436582,256.157935 C224.417415,256.157935 225.366605,256.097509 226.284152,255.976656 C227.233348,255.855799 228.245819,255.583874 229.321565,255.160884 C230.397317,254.737893 231.583808,254.118512 232.88104,253.302742 C234.209904,252.486972 235.760248,251.384169 237.532072,249.994334 C237.943389,250.205832 238.291428,250.50797 238.576189,250.90075 C238.892582,251.293529 239.129878,251.610773 239.288078,251.852483 C237.168217,254.058083 235.301475,255.840693 233.68785,257.200311 C232.105863,258.529718 230.602975,259.556986 229.179187,260.282116 C227.787043,261.007245 226.394895,261.475556 225.002745,261.687049 C223.642238,261.928759 222.155172,262.049614 220.541547,262.049614 C218.105288,262.049614 215.779769,261.551088 213.56499,260.554037 C211.381849,259.556981 209.451826,258.152042 207.77492,256.339221 C206.098015,254.496183 204.753326,252.29058 203.740856,249.722412 C202.760028,247.124033 202.269614,244.223515 202.269614,241.020858 C202.269614,238.996539 202.50691,237.002434 202.981502,235.038543 C203.4561,233.074648 204.136354,231.216504 205.022263,229.464111 C205.939815,227.711714 207.047208,226.095277 208.344439,224.614801 C209.641666,223.13433 211.112913,221.850249 212.758181,220.762557 C213.454253,220.309349 214.229425,219.87125 215.083697,219.448259 C215.969606,218.995051 216.887159,218.602272 217.836354,218.269921 C218.785544,217.937571 219.718916,217.680755 220.636468,217.499474 C221.585658,217.287976 222.487389,217.182227 223.341661,217.182227 Z M381.6668,217.182227 C385.147168,217.182227 387.820725,218.058426 389.687473,219.810824 C391.585854,221.533004 392.535044,223.950103 392.535044,227.062119 L392.535044,252.62293 C392.535044,253.891908 392.709062,254.798321 393.057098,255.34217 C393.405134,255.886013 393.863911,256.157935 394.433427,256.157935 C394.876381,256.157935 395.445898,256.082403 396.141976,255.931338 C396.838048,255.780269 397.818878,255.447916 399.084467,254.93428 L399.796356,256.973707 C397.106984,258.756317 394.876387,260.040401 393.104563,260.825959 C391.364376,261.641729 390.051326,262.049614 389.165411,262.049614 C388.121302,262.049614 387.251212,261.354699 386.555139,259.964869 C385.859067,258.575038 385.47939,256.656465 385.41611,254.20915 C383.992322,255.568769 382.568534,256.747106 381.144746,257.744162 C379.720958,258.741213 378.328811,259.556983 376.968303,260.191472 C375.607796,260.825961 374.310567,261.294273 373.076616,261.596406 C371.874308,261.898545 370.766919,262.049614 369.754448,262.049614 C368.615421,262.049614 367.444751,261.868333 366.242438,261.505771 C365.04013,261.143203 363.948559,260.569141 362.967726,259.783582 C362.018536,258.998029 361.227545,257.98587 360.594753,256.747103 C359.961956,255.508342 359.645558,254.012763 359.645558,252.260365 C359.645558,249.964125 360.056875,248.045554 360.879509,246.504655 C361.73378,244.96375 362.746251,243.634346 363.916922,242.516442 C364.676275,241.791313 365.530546,241.111504 366.479737,240.477015 C367.46057,239.812309 368.74198,239.17782 370.323967,238.573548 C371.937592,237.969271 373.946712,237.39521 376.351328,236.851367 C378.755949,236.307519 381.777543,235.778779 385.41611,235.265147 L385.41611,228.874942 C385.41611,227.847674 385.289551,226.895941 385.036433,226.019742 C384.783315,225.113332 384.35618,224.342882 383.755026,223.708393 C383.153872,223.043692 382.331238,222.545166 381.287124,222.212816 C380.274653,221.850249 378.993245,221.684071 377.442901,221.714283 C376.43043,221.7445 375.433778,221.910677 374.452945,222.212816 C373.472117,222.514949 372.617846,222.93794 371.89013,223.481789 C371.162415,224.025637 370.592898,224.675232 370.181581,225.430573 C369.77027,226.155703 369.612073,226.971473 369.706992,227.877884 C369.738635,228.14981 369.406417,228.467055 368.71034,228.829617 C368.045905,229.161967 367.239092,229.464106 366.289902,229.736033 C365.37235,230.007954 364.454797,230.21945 363.537245,230.370519 C362.65133,230.521588 362.018536,230.551803 361.638862,230.461162 L360.97443,228.693656 C361.70214,227.182968 362.809529,225.732709 364.296598,224.342879 C365.783667,222.953049 367.476391,221.729394 369.374772,220.671914 C371.304795,219.614434 373.329737,218.76845 375.449597,218.133961 C377.6011,217.499472 379.673502,217.182227 381.6668,217.182227 Z M107.397922,202.226421 C110.561896,202.226421 113.425291,202.513451 115.988106,203.087512 C118.550921,203.63136 120.71824,204.432024 122.490064,205.489504 C124.293532,206.546984 125.66986,207.831068 126.61905,209.341756 C127.599884,210.852443 128.0903,212.559518 128.0903,214.46298 C128.0903,217.726065 127.283485,220.535943 125.669855,222.892612 C124.05623,225.21907 121.85727,226.895933 119.072975,227.923201 C121.097917,228.285763 122.980481,228.965573 124.720668,229.962629 C126.460854,230.95968 127.963741,232.198441 129.22933,233.678912 C130.526556,235.129171 131.539027,236.790928 132.266743,238.664183 C132.994453,240.507221 133.358308,242.471112 133.358308,244.555855 C133.358308,247.12403 132.820432,249.450488 131.74468,251.535236 C130.700572,253.589772 129.213506,255.34217 127.283482,256.792429 C125.385102,258.242688 123.107043,259.360594 120.449304,260.146147 C117.79157,260.931705 114.864898,261.324484 111.669286,261.324484 C110.973213,261.324484 110.13476,261.309376 109.153927,261.279159 C108.204737,261.279159 107.176447,261.264051 106.069058,261.233834 C104.961663,261.203617 103.822633,261.173405 102.651969,261.143198 C101.481298,261.112981 100.342269,261.067661 99.2348792,261.007237 C96.608778,260.916592 93.8561207,260.810843 90.9769072,260.68999 L87.5123613,260.68999 L87.5123613,258.741206 C89.6638593,258.318215 91.3407649,257.865009 92.5430782,257.38159 C93.7770238,256.867953 94.3939965,256.399639 94.3939965,255.976648 L94.3939965,206.758485 C93.1916887,206.909554 92.0051997,207.075729 90.8345295,207.25701 C89.6955024,207.408079 88.588113,207.574255 87.5123613,207.755536 L87.0852282,204.945661 C88.3191737,204.61331 89.7429589,204.296066 91.3565838,203.993927 C93.0018517,203.661577 94.7262166,203.374547 96.5296784,203.132837 C98.3331456,202.86091 100.16825,202.649412 102.034993,202.498343 C103.901736,202.317062 105.689379,202.226421 107.397922,202.226421 Z M155.759227,217.182227 L155.759227,255.976656 C155.759227,256.339218 156.281284,256.792424 157.325398,257.336272 C158.401144,257.849909 160.093869,258.318223 162.403571,258.741213 L162.403571,260.689998 L141.995948,260.689998 L141.995948,258.741213 C144.147452,258.318223 145.792717,257.865017 146.931744,257.381598 C148.070777,256.867961 148.640293,256.399647 148.640293,255.976656 L148.640293,230.325202 C148.640293,228.784302 148.608653,227.545538 148.545372,226.608911 C148.482091,225.642071 148.244795,224.901836 147.833483,224.388205 C147.422166,223.844356 146.757731,223.451577 145.840179,223.209867 C144.954264,222.968157 143.672854,222.771768 141.995948,222.620698 L141.995948,220.807875 C142.976782,220.626594 144.005074,220.415098 145.080826,220.173388 C146.188215,219.901461 147.279786,219.614431 148.355537,219.312298 C149.431284,218.979942 150.459574,218.632484 151.440407,218.269921 C152.42124,217.907354 153.322971,217.544789 154.145599,217.182227 L155.759227,217.182227 Z M273.221672,217.182227 C274.234143,217.182227 275.325714,217.303082 276.496384,217.544792 C277.667054,217.786502 278.837724,218.224601 280.008394,218.85909 C280.29315,219.040371 280.419709,219.569111 280.388071,220.44531 C280.388071,221.321509 280.261512,222.333668 280.008394,223.481789 C279.786914,224.629909 279.486337,225.808244 279.106663,227.016793 C278.726984,228.225342 278.347308,229.237502 277.967634,230.053272 L275.926873,230.053272 C275.737031,228.844723 275.468091,227.817457 275.120055,226.971476 C274.772019,226.125489 274.360705,225.460785 273.886112,224.977366 C273.443152,224.463734 272.936917,224.101169 272.367406,223.889671 C271.829527,223.647961 271.260011,223.527106 270.658857,223.527106 C269.962785,223.527106 269.140154,223.814139 268.190963,224.388205 C267.273411,224.932048 266.324218,225.808244 265.343385,227.016793 C264.362552,228.195131 263.381721,229.720924 262.400893,231.594174 C261.451703,233.437212 260.597432,235.642815 259.838078,238.210983 L259.838078,255.976656 C259.838078,256.429864 260.423411,256.898178 261.594076,257.381598 C262.796389,257.865017 264.884611,258.318223 267.858743,258.741213 L267.858743,260.689998 L246.0748,260.689998 L246.0748,258.741213 C248.163022,258.288006 249.792466,257.849906 250.963131,257.426915 C252.133801,256.973707 252.719136,256.490288 252.719136,255.976656 L252.719136,229.600072 C252.719136,228.603016 252.687498,227.772137 252.624223,227.107436 C252.560942,226.412519 252.481843,225.853564 252.386924,225.430573 C252.292006,225.007582 252.165447,224.675232 252.007248,224.433522 C251.880686,224.191812 251.754127,223.995423 251.627571,223.844354 C251.406091,223.632856 251.152973,223.46668 250.868218,223.345828 C250.6151,223.194759 250.267061,223.073904 249.824101,222.983263 C249.41279,222.892623 248.906554,222.832194 248.305395,222.801977 C247.704241,222.741553 246.960709,222.681127 246.0748,222.620698 L246.0748,220.807875 C248.131379,220.294243 250.1405,219.780609 252.102161,219.266973 C254.095465,218.723124 255.88311,218.028209 257.465098,217.182227 L259.126182,218.768447 L259.743157,229.056221 C260.597429,227.394469 261.514981,225.838464 262.495815,224.388205 C263.508285,222.937946 264.584034,221.684073 265.723061,220.626588 C266.862094,219.538897 268.048583,218.692912 269.282529,218.088635 C270.548117,217.484363 271.861165,217.182227 273.221672,217.182227 Z M346.546719,217.182227 L346.546719,255.976656 C346.546719,256.339218 347.068774,256.792424 348.112882,257.336272 C349.188634,257.849909 350.881359,258.318223 353.191056,258.741213 L353.191056,260.689998 L332.783441,260.689998 L332.783441,258.741213 C334.934939,258.318223 336.580204,257.865017 337.719237,257.381598 C338.858264,256.867961 339.427777,256.399647 339.427777,255.976656 L339.427777,230.325202 C339.427777,228.784302 339.39614,227.545538 339.332864,226.608911 C339.269583,225.642071 339.032284,224.901836 338.620967,224.388205 C338.209651,223.844356 337.545216,223.451577 336.627663,223.209867 C335.741754,222.968157 334.460347,222.771768 332.783441,222.620698 L332.783441,220.807875 C333.764274,220.626594 334.792564,220.415098 335.86831,220.173388 C336.9757,219.901461 338.06727,219.614431 339.143022,219.312298 C340.218774,218.979942 341.247066,218.632484 342.227899,218.269921 C343.208727,217.907354 344.110458,217.544789 344.933092,217.182227 L346.546719,217.182227 Z M109.818359,231.23161 C108.299653,231.23161 106.891686,231.307144 105.59446,231.458213 C104.328871,231.579071 103.126561,231.73014 101.987528,231.911421 L101.987528,255.976656 C101.987528,256.218366 102.129909,256.44497 102.41467,256.656468 C102.952543,256.837749 103.569516,256.988816 104.265588,257.109668 C104.961666,257.200309 105.67356,257.275843 106.40127,257.336272 C107.128985,257.396701 107.856698,257.442021 108.584408,257.472233 C109.312124,257.50245 109.99238,257.517558 110.625177,257.517558 C112.903237,257.517558 114.959816,257.245634 116.794916,256.701786 C118.63002,256.127725 120.196186,255.342167 121.493412,254.345111 C122.822282,253.34806 123.834753,252.154619 124.530825,250.764789 C125.226903,249.344742 125.574942,247.788733 125.574942,246.096765 C125.574942,244.435013 125.258543,242.727938 124.625746,240.97554 C124.024592,239.223143 123.075402,237.621814 121.778176,236.171555 C120.512587,234.721296 118.883141,233.542961 116.889837,232.636551 C114.928176,231.699923 112.571017,231.23161 109.818359,231.23161 Z M385.41611,238.664191 C382.758371,239.087182 380.559411,239.495067 378.81923,239.887846 C377.110681,240.280625 375.702712,240.68851 374.595323,241.111501 C373.487933,241.50428 372.602021,241.927271 371.937587,242.380474 C371.273152,242.833682 370.687817,243.317101 370.181581,243.830733 C369.358953,244.646508 368.694521,245.583136 368.188285,246.640616 C367.68205,247.667879 367.428932,248.891534 367.428932,250.311581 C367.428932,251.52013 367.618769,252.502075 367.998443,253.257417 C368.378122,254.012763 368.836898,254.617038 369.374772,255.07024 C369.912645,255.493237 370.466339,255.780269 371.035856,255.931338 C371.63701,256.082403 372.143245,256.157935 372.554562,256.157935 C374.452948,256.157935 376.462071,255.704729 378.581931,254.798319 C380.733429,253.861696 383.011489,252.396331 385.41611,250.402224 L385.41611,238.664191 Z M301.744881,221.714283 C300.953885,221.714283 300.067973,221.910672 299.087145,222.303451 C298.13795,222.696231 297.236216,223.270293 296.381944,224.02564 C295.527673,224.780981 294.815779,225.732712 294.246263,226.880832 C293.676752,228.028953 293.391996,229.343251 293.391996,230.823727 C293.391996,232.425055 293.645114,233.950849 294.151349,235.401108 C294.689223,236.82115 295.480214,238.059911 296.524322,239.117391 C297.600074,240.174876 298.944762,241.020861 300.558387,241.655344 C302.203655,242.259622 304.149497,242.56176 306.395914,242.56176 C307.313466,242.56176 308.262659,242.380476 309.243492,242.017909 C310.255963,241.625135 311.157694,241.051075 311.948685,240.295728 C312.771319,239.51017 313.435753,238.558439 313.941989,237.440536 C314.479862,236.322627 314.748799,235.008329 314.748799,233.497641 C314.748799,231.896313 314.464043,230.385625 313.894532,228.965578 C313.356654,227.515319 312.53402,226.261449 311.42663,225.203969 C310.350879,224.116278 308.990372,223.270293 307.345109,222.666016 C305.731484,222.031527 303.864742,221.714283 301.744881,221.714283 Z M222.012797,221.940887 C220.367529,221.940887 218.848822,222.243025 217.456678,222.847302 C216.09617,223.451574 214.878041,224.312665 213.802289,225.430573 C212.758175,226.51827 211.872263,227.832568 211.144553,229.373468 C210.448481,230.884156 209.958064,232.561016 209.673303,234.404049 L229.986005,234.404049 C230.713715,234.404049 231.18831,234.298303 231.40979,234.08681 C231.662908,233.8451 231.789467,233.407001 231.789467,232.772512 C231.789467,231.956742 231.662908,230.944582 231.40979,229.736033 C231.18831,228.497267 230.713715,227.303823 229.986005,226.155703 C229.289927,224.977371 228.293275,223.980317 226.996049,223.164542 C225.73046,222.348772 224.069376,221.940887 222.012797,221.940887 Z M104.740186,206.033363 C104.297231,206.033363 103.838455,206.048471 103.363857,206.078688 C102.920902,206.078688 102.462126,206.093797 101.987528,206.124014 L101.987528,227.832581 L103.601156,227.832581 C107.208085,227.832581 110.118939,227.500231 112.333718,226.83553 C114.580139,226.140612 116.320323,225.264414 117.554269,224.206934 C118.78822,223.149454 119.626673,221.956011 120.069627,220.626604 C120.512582,219.297202 120.734059,217.982907 120.734059,216.683717 C120.734059,215.173029 120.465123,213.76809 119.927249,212.468901 C119.421014,211.169711 118.550921,210.051802 117.31697,209.115175 C116.083024,208.148335 114.437759,207.392992 112.381174,206.849143 C110.356232,206.3053 107.809236,206.033363 104.740186,206.033363 Z M153.148956,199.235268 C155.838327,199.235268 157.183012,200.670421 157.183012,203.540727 C157.183012,204.386714 157.040635,205.187378 156.755879,205.94272 C156.471124,206.698061 156.075628,207.362762 155.569393,207.936822 C155.094795,208.48067 154.525279,208.91877 153.860844,209.25112 C153.196409,209.583471 152.468697,209.749646 151.677706,209.749646 C150.253918,209.749646 149.225628,209.371975 148.592836,208.616634 C147.991677,207.861292 147.691097,206.788704 147.691097,205.398869 C147.691097,204.552887 147.833478,203.752225 148.118239,202.996884 C148.402994,202.241537 148.798489,201.59194 149.304725,201.048092 C149.81096,200.474031 150.380477,200.035934 151.013274,199.733801 C151.677708,199.401445 152.389602,199.235268 153.148956,199.235268 Z M343.93644,199.235268 C346.625816,199.235268 347.970505,200.670421 347.970505,203.540727 C347.970505,204.386714 347.828127,205.187378 347.543372,205.94272 C347.258611,206.698061 346.863113,207.362762 346.356877,207.936822 C345.882285,208.48067 345.312771,208.91877 344.648336,209.25112 C343.983902,209.583471 343.256186,209.749646 342.46519,209.749646 C341.041407,209.749646 340.013118,209.371975 339.380321,208.616634 C338.779167,207.861292 338.47859,206.788704 338.47859,205.398869 C338.47859,204.552887 338.620967,203.752225 338.905723,202.996884 C339.190484,202.241537 339.585982,201.59194 340.092217,201.048092 C340.598453,200.474031 341.167966,200.035934 341.800758,199.733801 C342.465193,199.401445 343.177087,199.235268 343.93644,199.235268 Z" id="Combined-Shape" fill="#FFFFFF" fill-rule="nonzero"></path>
    </g>
</svg>