<?xml version="1.0" encoding="UTF-8"?>
<svg width="400px" height="360px" viewBox="0 0 400 360" version="1.1" xmlns="http://www.w3.org/2000/svg" xmlns:xlink="http://www.w3.org/1999/xlink">
    <title>logos/corunet</title>
    <g id="logos/corunet" stroke="none" stroke-width="1" fill="none" fill-rule="evenodd">
        <path d="M145.041764,325.977784 C144.938262,325.887352 142.455981,325.642198 139.525426,325.432721 C116.348752,323.776689 94.6122739,314.632836 79.0633077,299.998078 C56.4437073,278.708461 44.3578187,247.50314 42.9254289,206.690857 C41.7114883,172.102117 49.3992488,136.415832 64.5755019,106.192544 C84.9138195,65.6886474 116.870147,37.3149722 153.615473,27.134474 C162.323064,24.7219945 170.801396,22.8455352 171.909185,23.0856033 C172.137384,23.1350582 173.653529,22.9233913 175.278475,22.6152521 C185.241866,20.7261112 213.794992,20.715761 229.808834,22.5954702 C238.790899,23.6498128 255.23076,26.0629988 255.791013,26.4093949 C256.004375,26.5411568 257.372156,26.8254164 258.830368,27.0411103 C260.288934,27.2568395 264.812289,28.2205384 268.882425,29.1827184 C321.103948,41.5278211 356.795179,67.2984036 367.422325,100.332848 C370.459561,109.774844 371.012042,114.200349 370.916665,128.261076 C370.835418,139.991773 370.640778,142.340173 368.956133,151.937951 C367.927471,157.798001 366.857126,164.057575 366.57806,165.848195 C366.29864,167.638815 365.269625,172.966165 364.291478,177.686632 C363.313331,182.4071 362.086497,188.400325 361.565101,191.004831 C356.517525,216.221165 354.420991,224.63132 350.130074,236.87882 C343.136448,256.841634 333.743908,270.983962 321.221933,280.406882 C314.113501,285.75578 300.843698,291.488307 290.491027,293.68269 C289.188597,293.958578 285.592168,294.772817 282.498765,295.491679 C279.405363,296.210894 276.341633,296.876769 275.690595,296.971793 C275.039204,297.066817 271.442775,297.858095 267.698334,298.730267 C263.95354,299.602086 259.158184,300.6908 257.041868,301.14967 C254.925199,301.608188 251.32877,302.540059 249.049607,303.220063 C246.77009,303.900068 243.173661,304.933321 241.057346,305.516536 C238.940677,306.09975 232.280518,308.183567 226.256561,310.147985 C195.178411,320.281289 184.479202,322.937722 164.982323,325.361364 C161.862427,325.749232 145.364281,326.259324 145.041764,325.977784 L145.041764,325.977784 Z" id="Path" fill-opacity="0.15" fill="#FFFFFF" fill-rule="nonzero"></path>
        <path d="M210.917425,332.610743 C202.839324,331.825823 196.739419,329.98151 187.7298,325.601221 C184.302224,323.934238 180.695197,322.096989 179.714578,321.517661 C177.621223,320.281995 168.073606,314.332221 166.113074,313.042155 C165.368071,312.551845 163.075838,311.080916 161.019221,309.773894 C158.962958,308.466519 156.443939,306.848638 155.421989,306.178525 C151.592062,303.668336 138.356525,295.752377 137.362128,295.377226 C136.793044,295.162804 134.856886,294.141561 133.058848,293.107248 C131.261163,292.073288 122.836172,287.667565 114.337351,283.316949 C95.87302,273.865415 90.0532409,270.577373 79.949963,263.88966 C49.0026913,243.404391 30.4891173,218.684725 24.1925931,189.440643 C21.6046901,177.420989 22.1520496,159.922441 25.5238831,146.880131 C32.460106,120.05086 50.2673585,92.9958636 76.2415538,69.8237815 C102.749014,46.1762262 133.147866,30.0345079 166.044543,22.1395669 C187.569778,16.9736872 212.468542,16.3336704 232.855961,20.422317 C268.939652,27.6587664 301.290912,51.3937156 333.63758,94.3622312 C360.412803,129.930178 375.070875,164.031788 376.681691,194.491399 C378.193597,223.146967 368.951187,244.937139 347.332695,263.676651 C342.126156,268.189762 334.312992,274.212306 328.003256,278.576345 C325.322802,280.429844 323.66889,281.592033 317.006612,286.304023 C315.253436,287.544281 285.484427,307.152786 282.747453,308.870283 C259.717024,323.323824 240.863412,330.991449 224.587106,332.52455 C217.813201,333.162518 216.669733,333.169583 210.917425,332.610743 L210.917425,332.610743 Z" id="Path" fill-opacity="0.15" fill="#FFFFFF" fill-rule="nonzero"></path>
        <path d="M197.20924,352.895013 C196.233213,352.760779 193.039134,352.36514 190.111052,352.011891 C187.18297,351.658641 183.988892,351.142898 183.012864,350.863831 C182.036837,350.584764 180.040273,350.044293 178.576409,349.662784 C170.566132,347.582147 164.619183,345.326651 155.507122,340.920575 C124.337834,325.849555 93.5207342,294.770698 73.6727263,258.390985 C70.8573308,253.230368 68.5537934,248.888583 68.5537934,248.742338 C68.5537934,248.596446 67.8568329,246.963729 67.004796,245.114117 C63.2854361,237.037782 57.664183,220.894298 55.6404188,212.476018 C51.9613999,197.172913 50.6513756,186.351127 50.6898254,171.594852 C50.7419487,153.092723 53.5611945,137.844372 59.8638652,121.988785 C69.8018225,96.9858123 86.1070951,76.7086068 117.372114,50.4703224 C126.004463,43.2258896 145.505933,29.8031298 156.985823,23.204295 C162.851878,19.8323556 179.851285,11.7143378 180.694844,11.3933756 C181.533457,11.074321 181.89801,11.0199207 182.923492,10.5634875 C187.704013,8.4350203 199.803501,4.51434372 205.194789,3.34682007 C206.333311,3.10021687 207.531179,2.82962805 207.856521,2.74551943 C214.448503,1.04141039 220.259098,0.0275854338 232.188674,1.98951966e-13 C244.502584,-0.0249427093 245.504046,0.54290524 252.220371,2.14086293 C256.12448,3.06969614 259.481407,4.21457652 259.880578,4.35870216 C260.907826,4.7294371 260.695524,4.57040435 261.359632,4.89157845 C262.76839,4.89751303 274.268061,10.8848382 278.208908,13.6643082 C289.348266,21.5213456 301.019263,34.5034625 312.853815,52.201243 C314.267518,54.3157922 315.579132,56.1784748 315.768473,56.3413226 C316.283511,56.784297 331.779843,79.983226 331.779843,80.3117477 C331.779843,80.4675306 332.935321,82.2570906 334.347611,84.2886262 C348.386084,104.482112 358.053099,123.843696 362.177635,140.027098 C364.237431,148.108731 364.548643,150.686743 364.497776,159.248442 C364.412289,173.735894 360.977295,183.691514 349.703703,202.126172 C349.305944,202.776857 348.789847,203.708375 348.556703,204.196212 C348.323558,204.684049 347.980554,205.216396 347.794038,205.37889 C347.188922,205.906998 344.793187,209.460684 344.793187,209.830182 C344.793187,210.027649 344.128019,211.061609 343.314486,212.127715 C342.501307,213.19382 341.835785,214.341173 341.835785,214.677113 C341.835785,215.013407 341.421071,215.632299 340.914158,216.053019 C340.407599,216.473385 339.606783,217.636988 339.135196,218.638802 C338.663255,219.640617 337.680516,221.306539 336.951057,222.3405 C334.526708,225.777613 331.021417,231.536987 328.951024,235.485606 C327.825925,237.630534 325.589505,241.739881 323.981162,244.617448 C322.372819,247.495016 319.923036,252.152605 318.53724,254.967294 C310.940618,270.399335 302.498671,285.625078 296.352842,294.979115 C275.400578,326.868678 249.982185,345.686259 220.023834,351.485549 C214.131285,352.626544 201.114762,353.431952 197.20924,352.895013 L197.20924,352.895013 Z" id="Path" fill-opacity="0.15" fill="#FFFFFF" fill-rule="nonzero"></path>
        <path d="M197.208533,352.895013 C196.232506,352.760779 193.038428,352.36514 190.110346,352.011891 C187.182264,351.658641 183.988185,351.142898 183.012158,350.863831 C182.036131,350.584764 180.03992,350.044293 178.575702,349.666316 C170.565425,347.582147 164.618477,345.326651 155.506416,340.920928 C124.337127,325.849555 93.5203809,294.770698 73.672373,258.390985 C70.8569776,253.230722 68.5530869,248.888937 68.5530869,248.742692 C68.5530869,248.596446 67.8564796,246.963729 67.0044428,245.114117 C63.2847296,237.037782 57.6638297,220.894651 55.6400655,212.476371 C51.960976,197.172913 50.6509517,186.35148 50.6894015,171.595205 C50.7415248,153.093076 53.5608413,137.844725 59.8631587,121.989138 C69.8014692,96.9861656 86.1063886,76.70896 117.371761,50.4706756 C126.00411,43.2265961 145.50558,29.803483 156.98547,23.2047189 C162.851525,19.8328149 179.791586,11.3937995 180.694491,11.3937995 C180.894783,11.3937995 181.897657,11.0203799 182.922786,10.5639467 C187.703306,8.4354442 199.803148,4.51476762 205.194083,3.34724397 C206.332958,3.10067609 207.530472,2.83008727 207.855815,2.74597866 C214.44815,1.04186961 220.178557,0.506626556 232.108133,0.474562372 C244.422044,0.454098413 245.503339,0.543364464 252.220018,2.14132215 C256.123774,3.07015537 259.571132,4.06815476 259.880225,4.35916138 C260.188964,4.65013268 260.854486,4.88991817 261.358926,4.89203767 C262.768036,4.89797225 274.267355,10.8852621 278.208202,13.6647674 C289.347559,21.5217695 301.018557,34.5038157 312.853109,52.2015963 C314.266811,54.3161455 315.578425,56.1791813 315.767767,56.3416759 C316.282804,56.7846503 331.779136,79.9835793 331.779136,80.312101 C331.779136,80.4678838 332.934614,82.2574438 334.346904,84.2889795 C348.385377,104.482466 358.052392,123.844049 362.176929,140.027451 C364.236724,148.109084 364.547584,150.687096 364.497069,159.248442 C364.411583,173.735894 360.976588,183.691514 349.702996,202.126526 C349.305238,202.776857 348.789141,203.708375 348.555996,204.196212 C348.322852,204.684402 347.979847,205.216749 347.793332,205.379243 C347.188216,205.906998 344.79248,209.460684 344.79248,209.830536 C344.79248,210.028002 344.127312,211.061962 343.31378,212.128068 C342.5006,213.194174 341.835079,214.341527 341.835079,214.677467 C341.835079,215.013407 341.420364,215.632652 340.913452,216.053019 C340.406893,216.473738 339.606077,217.637341 339.134489,218.639155 C338.662548,219.64097 337.679809,221.306539 336.95035,222.340853 C334.526001,225.777967 331.02071,231.53734 328.950317,235.485606 C327.825219,237.630887 325.588799,241.740234 323.980456,244.617802 C322.372112,247.495369 319.92233,252.152605 318.536533,254.967647 C310.939911,270.399335 302.497964,285.625078 296.352136,294.979115 C275.399871,326.868678 249.981478,345.686259 220.023127,351.485549 C214.130579,352.626544 201.114056,353.431952 197.208533,352.895013 L197.208533,352.895013 Z" id="Path" fill-opacity="0.15" fill="#FFFFFF" fill-rule="nonzero"></path>
        <path d="M216.104888,358.402167 C215.196331,358.27853 212.223034,357.907618 209.497717,357.579097 C206.772047,357.250575 203.799102,356.770156 202.890545,356.512284 C201.981989,356.25088 200.123898,355.749266 198.761063,355.396017 C191.305034,353.456679 185.769621,351.35838 177.287756,347.256451 C148.275053,333.227869 119.590165,304.299239 101.115237,270.436779 C98.4948349,265.632945 96.3506128,261.591775 96.3506128,261.455774 C96.3506128,261.319773 95.7016942,259.799742 94.9090032,258.078359 C91.4464554,250.560512 86.2144828,235.534354 84.3306053,227.698229 C80.9062084,213.453812 79.6867924,203.380913 79.7226059,189.645528 C79.771219,172.423574 82.3955066,158.230378 88.2615614,143.47163 C97.5124492,120.198519 112.689444,101.324418 141.791166,76.9014808 C149.826523,70.1583084 167.978582,57.6638873 178.664368,51.521945 C184.124539,48.3833266 199.892873,40.5281261 200.7329,40.5281261 C200.919769,40.5281261 201.853053,40.180529 202.807179,39.7555703 C207.257058,37.774196 218.519699,34.1247794 223.537603,33.0381851 C224.597703,32.8085732 225.712558,32.5567066 226.015292,32.4786386 C232.151229,30.8921968 237.485644,30.3941155 248.589677,30.3642299 C260.051551,30.3450139 261.057957,30.4283807 267.310113,31.9155595 C270.943987,32.7803133 274.152549,33.7093585 274.440093,33.9799473 C274.727991,34.2508894 275.347237,34.4741428 275.816705,34.4762623 C277.128319,34.481561 287.832121,40.0547723 291.500259,42.6419688 C301.868827,49.9552852 312.732297,62.0392308 323.748018,78.51265 C325.064224,80.4806008 326.285053,82.2147007 326.460971,82.3662445 C326.940683,82.7784863 341.364904,104.372252 341.364904,104.677812 C341.364904,104.822998 342.440548,106.48892 343.754988,108.379863 C356.822026,127.176248 365.82034,145.197958 369.659452,160.261913 C371.577241,167.784353 371.866905,170.183975 371.820983,178.153275 C371.739736,191.638559 368.542125,200.905343 358.048507,218.064772 C357.678301,218.670241 357.197883,219.537115 356.980988,219.991393 C356.764093,220.445671 356.444756,220.940927 356.27131,221.09247 C355.707878,221.58384 353.47817,224.891665 353.47817,225.235729 C353.47817,225.419419 352.858571,226.381669 352.101558,227.374299 C351.344545,228.366576 350.724946,229.434448 350.724946,229.747427 C350.724946,230.060052 350.339198,230.636202 349.867257,231.027955 C349.39567,231.419355 348.650314,232.502417 348.211225,233.434995 C347.772137,234.367219 346.857221,235.917629 346.178277,236.880233 C343.921721,240.079964 340.659112,245.440519 338.731785,249.115723 C337.684402,251.11264 335.602705,254.937621 334.105635,257.615956 C332.608565,260.294644 330.328342,264.629717 329.03863,267.249766 C321.967289,281.613935 314.109616,295.786289 308.389099,304.493173 C288.886216,334.176696 265.22665,351.690434 237.340812,357.091613 C231.855913,358.15136 219.739822,358.900248 216.104888,358.402167 L216.104888,358.402167 Z" id="Path" fill-opacity="0.15" fill="#FFFFFF" fill-rule="nonzero"></path>
        <path d="M131.78927,112.142248 C126.353826,112.144792 120.918029,113.115521 115.818171,114.995866 C110.958877,116.840179 106.495927,119.726578 102.824256,123.404961 C99.1914422,127.017286 96.2993917,131.360131 94.3664126,136.103913 C92.3769136,141.053993 91.3786316,146.407483 91.4556399,151.741545 C91.3192857,158.772968 93.110612,165.833005 96.577752,171.951986 C100.078097,178.116183 105.390611,183.239355 111.679152,186.512208 C114.56555,188.101476 117.670257,189.280268 120.883764,190.008315 C124.366447,190.93736 127.914128,191.240094 131.477351,191.2461 C134.446057,191.236209 137.422534,190.927116 140.332247,190.338956 C143.356413,189.71971 146.322645,188.821045 149.177605,187.646138 L149.177605,187.58008 L149.820165,167.851471 C151.732302,172.319365 154.542399,176.402219 158.042038,179.775394 C161.808733,183.408208 166.260025,186.323573 169.504972,187.646138 C172.749918,188.968703 174.442335,189.514473 176.16725,189.951795 L176.205048,262.195831 L202.278365,262.195831 L202.306625,224.920984 L224.420372,262.214553 L301.788993,262.195831 L301.788993,241.805585 L277.511594,241.777326 L277.511594,234.03905 L298.972891,234.001253 L298.972891,214.744937 L277.511594,214.70714 L277.511594,207.630147 L310.91801,207.630147 L310.91801,262.158033 L310.993605,262.158033 L310.993605,262.233628 L337.945806,262.195831 L337.983604,207.630147 L352.942997,207.592349 L352.942997,187.211642 L340.544306,187.173844 C345.303279,184.813433 349.404147,181.156952 352.272177,176.685878 C353.963181,174.048873 355.127136,171.071336 355.655244,167.983586 C356.438044,163.629437 356.704394,154.774542 356.704394,154.774542 L356.666596,113.975329 L329.620078,114.013127 L329.686135,156.635811 C329.817544,158.293963 329.208189,161.679149 327.814975,164.695543 C327.195376,165.617877 326.32285,166.37065 325.320329,166.849656 C324.317455,167.329015 323.19271,167.531427 321.275627,167.482679 C319.358191,167.434283 317.459124,166.549748 316.342503,164.780676 C316.34109,164.77891 316.333672,164.782442 316.332966,164.780676 L316.332966,164.771138 C314.962006,161.719419 314.378791,158.316571 314.650793,154.982252 L314.612996,113.975329 L287.52868,113.975329 L287.490882,128.17665 C286.215299,125.204058 284.235338,122.54162 281.745285,120.476172 L281.745285,120.466635 C278.505991,118.105518 274.851629,116.324436 271.000154,115.213114 C267.150445,114.102145 263.109628,113.666236 259.111908,113.937531 C259.110495,113.937531 259.103783,113.937531 259.10237,113.937531 L225.081655,113.975329 L225.043857,138.38131 C224.802235,137.668453 224.551781,136.960542 224.269182,136.264641 C222.34468,131.531457 219.441679,127.199209 215.8018,123.613024 C212.077142,119.949125 207.608894,117.046477 202.741474,115.147056 C197.714033,113.168508 192.305436,112.180823 186.902844,112.246175 C181.508023,112.289271 176.113909,113.272363 171.055029,115.147056 L171.111549,115.279171 C171.108369,115.282351 171.105543,115.285883 171.102011,115.288709 C171.085055,115.24208 171.072338,115.193332 171.055029,115.147056 C166.197853,117.036939 161.740203,119.941353 158.042038,123.613024 C154.419115,127.68528 151.340196,132.001278 149.527321,136.274179 L149.489524,116.006865 L149.479986,115.949991 C146.703801,114.693484 143.793735,113.726288 140.814079,113.087261 C137.850319,112.451412 134.820501,112.138434 131.78927,112.142248 L131.78927,112.142248 Z M256.56039,133.27898 C256.693565,133.276392 256.82462,133.274741 256.957442,133.27898 C258.834254,133.339032 260.690578,134.033167 262.136074,135.23492 C263.582275,136.680769 264.364016,138.759287 264.23402,140.800007 C264.23402,140.80142 264.23402,140.807778 264.23402,140.809545 C264.358364,142.803636 263.574151,144.835878 262.136074,146.22344 L262.0792,146.157383 L262.126536,146.22344 C260.461673,147.563668 258.287071,148.260628 256.154153,148.122508 L256.144615,148.122508 L251.939185,148.122508 L251.939185,148.046912 L251.873127,148.046912 L251.873127,133.36376 L251.939185,133.36376 L251.939185,133.288164 L256.144615,133.288164 C256.147441,133.288164 256.150974,133.288518 256.154153,133.288164 C256.286622,133.279686 256.427215,133.281099 256.56039,133.27898 Z M133.055668,136.718213 C133.301177,136.716447 133.547391,136.7168 133.792546,136.727751 C136.589219,136.71892 139.383773,137.326508 141.929286,138.485165 C144.048781,139.449889 146.030508,140.718406 147.788276,142.245502 L147.741294,142.302375 L147.816889,142.31156 C147.141477,145.404609 146.802711,148.575726 146.815075,151.741545 C146.827085,154.834594 147.146422,157.923758 147.769554,160.953928 L147.703496,160.972651 L147.741294,161.029524 C145.707639,162.463362 143.525266,163.684191 141.239391,164.667283 C138.733088,165.745046 136.010597,166.325435 133.282454,166.349102 C133.280688,166.349102 133.27433,166.349102 133.272917,166.349102 C131.37067,166.439534 129.456413,166.123023 127.67851,165.441958 C125.898841,164.760188 124.261532,163.710685 122.906115,162.371164 C121.589555,160.951102 120.553829,159.258333 119.891487,157.4391 C119.229498,155.62128 118.937008,153.673818 119.031325,151.741545 C118.938068,149.751693 119.245394,147.740999 119.938469,145.873724 C120.63225,144.005036 121.714959,142.285419 123.085565,140.837804 L123.085565,140.828267 C124.488671,139.451302 126.173316,138.366474 128.009152,137.663155 C129.614316,137.048148 131.336405,136.731284 133.055668,136.718213 L133.055668,136.718213 Z M186.241208,137.322792 C186.457397,137.323682 186.677824,137.338519 186.893306,137.351236 C186.896485,137.351236 186.899664,137.351236 186.902844,137.351236 C188.627053,137.286591 190.363272,137.606988 191.949361,138.286639 C193.537922,138.96735 194.973526,140.00449 196.11664,141.300914 C198.513436,144.191552 199.785132,147.991099 199.603916,151.741545 C199.785839,155.460552 198.512023,159.227247 196.11664,162.07832 L196.11664,162.087505 C194.965401,163.370506 193.527678,164.392455 191.939823,165.063982 C190.354794,165.734449 188.62246,166.055905 186.902844,165.989848 C186.899664,165.989848 186.896485,165.990201 186.893306,165.989848 C185.170157,166.054492 183.435704,165.734095 181.847142,165.063982 C180.255402,164.392809 178.808494,163.369799 177.651249,162.087505 L177.651249,162.07832 C175.240678,159.234665 173.963329,155.464437 174.144899,151.741545 C173.972513,147.995691 175.247389,144.207095 177.651249,141.329174 C178.770696,139.996012 180.209833,138.92708 181.809345,138.239304 C183.008626,137.72356 184.295512,137.416587 185.598648,137.341698 C185.814483,137.329334 186.025373,137.321916 186.241208,137.322792 L186.241208,137.322792 Z M287.50042,149.152582 L287.55694,149.180842 L287.642073,149.180842 L287.642073,154.774542 C287.51349,159.639842 287.686582,163.725874 288.662609,168.059181 C289.333429,171.036011 289.712112,173.353326 291.942174,176.600745 C294.950443,180.98174 298.989847,184.897507 303.868217,187.183028 L303.839957,187.249439 L303.839957,187.315497 L293.784721,187.315497 L293.784721,187.249439 L293.728202,187.287237 L274.912741,158.610474 L274.978798,158.572676 L274.969614,158.497081 C277.041773,158.274887 279.066244,157.622436 280.875939,156.588476 C282.685634,155.554516 284.281614,154.141519 285.525404,152.468885 C286.291954,151.437751 286.946172,150.335967 287.50042,149.152582 L287.50042,149.152582 Z M251.674601,164.345826 L263.79917,187.211642 L263.742651,187.249439 L263.742651,187.315497 L251.608544,187.315497 L251.608544,187.249439 L251.542486,187.249439 L251.542486,164.374086 L251.618081,164.374086 L251.674601,164.345826 L251.674601,164.345826 Z M225.043857,164.563075 L225.119452,164.591688 L225.18551,164.591688 L225.18551,187.249439 L225.18551,189.167229 L225.18551,225.062637 L225.119452,225.062637 L225.053393,225.100435 L203.053393,188.07145 L203.109913,188.033652 L203.091191,187.967595 C207.723346,186.077712 211.983178,183.277153 215.555939,179.775394 C219.228317,176.185677 222.153573,171.843892 224.108453,167.095518 C224.450398,166.264676 224.761964,165.417938 225.043857,164.563075 L225.043857,164.563075 Z" id="Shape" fill="#FFFFFF" fill-rule="nonzero"></path>
        <path d="M161.465728,236.955122 C158.055461,236.955122 154.668509,238.358581 152.25723,240.769506 C149.845952,243.180431 148.44214,246.566677 148.44214,249.976237 C148.44214,253.385798 149.845952,256.772044 152.25723,259.182969 C154.668509,261.593894 158.055461,262.992761 161.465728,262.992761 C164.875642,262.992761 168.262595,261.593894 170.673873,259.182969 C173.085151,256.772044 174.484371,253.385798 174.484371,249.976237 C174.484371,246.566677 173.085151,243.180431 170.673873,240.769506 C168.262595,238.358581 164.875642,236.955122 161.465728,236.955122 L161.465728,236.955122 Z" id="Path" fill="#FFFFFF" fill-rule="nonzero"></path>
    </g>
</svg>