<?xml version="1.0" encoding="UTF-8"?>
<svg width="400px" height="360px" viewBox="0 0 400 360" version="1.1" xmlns="http://www.w3.org/2000/svg" xmlns:xlink="http://www.w3.org/1999/xlink">
    <title>logos/corunet</title>
    <g id="logos/corunet" stroke="none" stroke-width="1" fill="none" fill-rule="evenodd">
        <g id="Group" transform="translate(42.500000, 25.725352)" fill="#FFFFFF" fill-rule="nonzero">
            <path d="M108.67393,289.247892 C108.58209,289.16765 106.379503,288.950119 103.779151,288.764245 C83.2139331,287.294808 63.926636,279.181248 50.129666,266.195477 C30.0587529,247.30469 19.3346546,219.615462 18.0636608,183.401746 C16.9865023,152.710329 23.8080362,121.045034 37.274289,94.2271865 C55.3209652,58.2871097 83.67658,33.1104683 116.281587,24.0770685 C124.008041,21.9364177 131.531068,20.2713904 132.514036,20.4844086 C132.716522,20.5282911 134.061834,20.340474 135.503688,20.0670547 C144.344443,18.3907748 169.680315,18.3815908 183.889781,20.0495018 C191.859782,20.9850452 206.447264,23.1263229 206.94439,23.4336885 C207.133712,23.5506039 208.347376,23.8028343 209.641283,23.9942247 C210.935503,24.1856463 214.949185,25.0407595 218.560714,25.8945248 C264.898121,36.84863 296.567805,59.7154849 305.997526,89.027738 C308.692539,97.4058471 309.182768,101.332704 309.098138,113.809123 C309.026046,124.218052 308.853337,126.301843 307.358511,134.818181 C306.445755,140.017944 305.496012,145.572214 305.24839,147.161074 C305.000454,148.749934 304.087384,153.477019 303.219451,157.665603 C302.351518,161.854187 301.262918,167.172119 300.800271,169.483159 C296.321436,191.858216 294.461131,199.320748 290.653698,210.188248 C284.448086,227.901731 276.113861,240.450557 265.002812,248.81174 C258.69533,253.557945 246.920717,258.644554 237.734544,260.591682 C236.578866,260.836484 233.387669,261.558978 230.642818,262.196842 C227.897969,262.835018 225.179448,263.425865 224.601766,263.510182 C224.023771,263.594499 220.832574,264.296619 217.510041,265.070518 C214.187196,265.844104 209.932162,266.810146 208.054304,267.217312 C206.176133,267.624166 202.984935,268.451038 200.962579,269.054422 C198.939909,269.657806 195.748712,270.574637 193.870855,271.092137 C191.992684,271.609637 186.082965,273.458658 180.737764,275.201733 C153.161377,284.193256 143.667713,286.550373 126.367665,288.700928 C123.599307,289.045093 108.960107,289.49771 108.67393,289.247892 L108.67393,289.247892 Z" id="Path" fill-opacity="0.15"></path>
            <path d="M167.126981,295.133476 C159.959089,294.436997 154.546497,292.800494 146.552046,288.913759 C143.510676,287.434605 140.310075,285.80437 139.439948,285.290318 C137.582464,284.193882 129.110635,278.914506 127.371008,277.769799 C126.709949,277.334735 124.675996,276.029545 122.85111,274.869793 C121.026539,273.709728 118.791353,272.274143 117.884552,271.679536 C114.486166,269.452185 102.741957,262.428165 101.859605,262.095285 C101.354643,261.905023 99.6366439,260.998849 98.0412017,260.081079 C96.4460728,259.163621 88.9703765,255.254318 81.4291694,251.393912 C65.0453262,243.00734 59.8812968,240.089781 50.9164164,234.155613 C23.4561613,215.978544 7.02862376,194.044192 1.44156713,168.095218 C-0.854741175,157.429891 -0.369055984,141.903011 2.62285256,130.330257 C8.77752927,106.524002 24.5783308,82.5174565 47.6258562,61.9563132 C71.1465603,40.9732712 98.1201895,26.650338 127.310199,19.6449678 C146.410055,15.0611591 168.503325,14.4932569 186.59357,18.1212109 C218.611493,24.5422857 247.31754,45.6028744 276.019513,83.7298671 C299.77781,115.290158 312.784268,145.549333 314.213584,172.576875 C315.555134,198.003646 307.354122,217.338588 288.171517,233.966605 C283.55163,237.971197 276.618822,243.315144 271.020043,247.187461 C268.641612,248.832115 267.174056,249.863353 261.262457,254.044414 C259.706822,255.144925 233.292068,272.544021 230.863485,274.067997 C210.428034,286.89297 193.698773,293.696637 179.256417,295.056995 C173.245768,295.623079 172.231142,295.629348 167.126981,295.133476 L167.126981,295.133476 Z" id="Path" fill-opacity="0.15"></path>
            <path d="M154.963381,313.132194 C154.097328,313.013085 151.263146,312.662025 148.664988,312.348579 C146.066831,312.035132 143.232649,311.577501 142.366596,311.329878 C141.500544,311.082255 139.728945,310.602682 138.430023,310.26416 C131.322313,308.417961 126.045443,306.416605 117.960093,302.506989 C90.3028372,289.134112 62.9580867,261.557098 45.346474,229.276507 C42.8483062,224.697368 40.8043223,220.844799 40.8043223,220.715032 C40.8043223,220.585578 40.1858926,219.13683 39.4298598,217.495625 C36.1295827,210.329299 31.1417103,196.004799 29.3459758,188.535058 C26.0814943,174.956246 24.9190783,165.353816 24.9531958,152.26022 C24.999446,135.842838 27.5010303,122.312611 33.0935409,108.243569 C41.9117284,86.0578335 56.3797872,68.0653835 84.1219873,44.7835255 C91.781677,38.3553669 109.085798,26.4450307 119.27218,20.5897266 C124.477271,17.597724 139.561251,10.3944124 140.309762,10.109615 C141.053883,9.82651021 141.37736,9.77823952 142.287294,9.37323541 C146.529165,7.48459548 157.26533,4.00568527 162.049149,2.96971358 C163.059387,2.75089666 164.122284,2.51079672 164.410968,2.43616513 C170.260191,0.924068375 175.416071,0.0244772159 186.00147,1.76534843e-13 C196.927897,-0.0221322631 197.816518,0.481732819 203.776074,1.89963894 C207.240284,2.72381489 210.218965,3.73969466 210.573159,3.86758079 C211.484661,4.19654278 211.29628,4.05542921 211.885559,4.34041468 C213.135584,4.34568058 223.339517,9.65837759 226.836325,12.1246679 C236.720544,19.0964053 247.0765,30.6157484 257.577581,46.3194128 C258.831993,48.195703 259.99582,49.8485058 260.163827,49.9930046 C260.620832,50.3860664 274.371099,70.9710315 274.371099,71.2625367 C274.371099,71.4007666 275.396382,72.9886861 276.649541,74.7913162 C289.106214,92.7094792 297.683988,109.889476 301.343787,124.249396 C303.171494,131.420423 303.44764,133.707955 303.402504,141.304955 C303.326649,154.160018 300.278697,162.993878 290.275369,179.351392 C289.922428,179.92876 289.464483,180.755318 289.257608,181.188188 C289.050733,181.621057 288.746377,182.093421 288.580877,182.237606 C288.043943,182.706209 285.91815,185.85948 285.91815,186.187344 C285.91815,186.362561 285.327931,187.280019 284.606064,188.226 C283.88451,189.171981 283.293977,190.190054 283.293977,190.488142 C283.293977,190.786544 282.925991,191.335702 282.476195,191.709016 C282.026713,192.082017 281.31613,193.11451 280.89768,194.003444 C280.478915,194.892378 279.606907,196.370591 278.959641,197.288049 C276.808458,200.337882 273.698129,205.448312 271.86102,208.952016 C270.862693,210.855262 268.878264,214.501584 267.451142,217.054918 C266.024021,219.608253 263.85027,223.741043 262.62062,226.238584 C255.879955,239.931804 248.389214,253.44197 242.935872,261.742031 C224.344427,290.038404 201.790078,306.735694 175.207316,311.881543 C169.978716,312.893975 158.428844,313.608633 154.963381,313.132194 L154.963381,313.132194 Z" id="Path" fill-opacity="0.15"></path>
            <path d="M154.962753,313.132194 C154.096701,313.013085 151.262519,312.662025 148.664362,312.348579 C146.066205,312.035132 143.232022,311.577501 142.36597,311.329878 C141.499918,311.082255 139.728632,310.602682 138.429396,310.267294 C131.321686,308.417961 126.044816,306.416605 117.959466,302.507302 C90.3022099,289.134112 62.9577732,261.557098 45.3461605,229.276507 C42.8479928,224.697682 40.8036954,220.845113 40.8036954,220.715346 C40.8036954,220.585578 40.1855791,219.13683 39.4295464,217.495625 C36.1289558,210.329299 31.1413968,196.005112 29.3456623,188.535371 C26.0811181,174.956246 24.9187022,165.35413 24.9528196,152.260534 C24.9990699,135.843152 27.5007169,122.312925 33.092914,108.243883 C41.9114149,86.058147 56.3791603,68.0656969 84.1216739,44.7838389 C91.7813638,38.3559938 109.085485,26.4453441 119.271866,20.5901027 C124.476957,17.5981316 139.508279,10.1099911 140.309448,10.1099911 C140.487172,10.1099911 141.377046,9.77864698 142.286668,9.37364287 C146.528538,7.48497162 157.265017,4.00606141 162.048523,2.97008972 C163.059074,2.75130414 164.121657,2.5112042 164.410341,2.43657261 C170.259878,0.924475852 175.344605,0.449541874 185.930004,0.421090555 C196.856432,0.402932395 197.815891,0.482140299 203.775761,1.90004642 C207.239657,2.72422237 210.29858,3.60977113 210.572846,3.86798827 C210.846798,4.12617407 211.437331,4.33894148 211.884933,4.34082216 C213.13527,4.34608805 223.338891,9.65875372 226.835699,12.1250753 C236.719917,19.0967814 247.075873,30.6160618 257.576954,46.3197263 C258.831366,48.1960165 259.995193,49.8491327 260.1632,49.9933181 C260.620205,50.3863799 274.370471,70.971345 274.370471,71.2628502 C274.370471,71.40108 275.395755,72.9889995 276.648913,74.7916297 C289.105587,92.7097934 297.68336,109.88979 301.343161,124.24971 C303.170866,131.420736 303.4467,133.708268 303.401877,141.304955 C303.326023,154.160018 300.27807,162.993878 290.274742,179.351706 C289.921801,179.92876 289.463856,180.755318 289.256981,181.188188 C289.050107,181.62137 288.74575,182.093735 288.580251,182.237919 C288.043317,182.706209 285.917523,185.85948 285.917523,186.187658 C285.917523,186.362875 285.327304,187.280332 284.605437,188.226313 C283.883883,189.172295 283.29335,190.190369 283.29335,190.488456 C283.29335,190.786544 282.925364,191.336015 282.475569,191.709016 C282.026087,192.08233 281.315504,193.114823 280.897052,194.003757 C280.478288,194.892691 279.60628,196.370591 278.959013,197.288362 C276.80783,200.338196 273.697502,205.448625 271.860393,208.952016 C270.862066,210.855575 268.877637,214.501897 267.450516,217.055232 C266.023394,219.608566 263.849644,223.741043 262.619993,226.238898 C255.879328,239.931804 248.388586,253.44197 242.935246,261.742031 C224.3438,290.038404 201.789451,306.735694 175.206689,311.881543 C169.97809,312.893975 158.428217,313.608633 154.962753,313.132194 L154.962753,313.132194 Z" id="Path" fill-opacity="0.15"></path>
            <path d="M171.729941,318.018824 C170.923757,317.909118 168.285479,317.579999 165.86724,317.288494 C163.448688,316.996989 160.810723,316.570701 160.004539,316.341885 C159.198355,316.109935 157.549626,315.664841 156.34035,315.351395 C149.724437,313.630574 144.812733,311.768703 137.286571,308.128963 C111.542905,295.681066 86.0901173,270.012 69.6968708,239.965029 C67.3717253,235.702472 65.4691057,232.116645 65.4691057,231.995968 C65.4691057,231.875291 64.8933047,230.526531 64.189931,228.999107 C61.1175294,222.328341 56.4750749,208.995271 54.8034652,202.04209 C51.7649159,189.402678 50.6828989,180.464753 50.714677,168.277017 C50.7578126,152.995565 53.0864058,140.401603 58.2914967,127.305812 C66.500031,106.655023 79.9669419,89.9075818 105.789597,68.2365252 C112.919561,62.2531469 129.026318,51.1665479 138.508072,45.7166555 C143.353012,42.9316842 157.344632,35.9615767 158.090008,35.9615767 C158.255822,35.9615767 159.083947,35.6531455 159.930566,35.2760694 C163.87905,33.5179486 173.872661,30.2797339 178.325167,29.3155727 C179.26582,29.1118326 180.255057,28.8883453 180.52368,28.8190737 C185.968244,27.4113859 190.701598,26.9694265 200.554473,26.9429082 C210.724868,26.9258574 211.617876,26.9998308 217.165564,28.3194401 C220.389987,29.0867569 223.237021,29.911121 223.492166,30.1512209 C223.747624,30.3916343 224.297096,30.5897324 224.713666,30.5916131 C225.877493,30.5963147 235.375233,35.5415585 238.630059,37.8372399 C247.830338,44.3265207 257.469755,55.048895 267.244268,69.6661543 C268.412169,71.4123641 269.49544,72.9510725 269.651536,73.0855409 C270.077196,73.4513329 282.876153,92.6119978 282.876153,92.8831285 C282.876153,93.0119556 283.830598,94.490168 284.996932,96.168047 C296.591627,112.846529 304.576047,128.837624 307.982583,142.204232 C309.684283,148.879073 309.941309,151.008315 309.900561,158.079666 C309.828469,170.045482 306.991152,178.268121 297.679913,193.494093 C297.351421,194.03134 296.925134,194.800538 296.732678,195.20363 C296.540222,195.606722 296.256867,196.046174 296.102964,196.180642 C295.603017,196.616646 293.624544,199.551759 293.624544,199.857055 C293.624544,200.020047 293.074759,200.873875 292.403043,201.754659 C291.731327,202.63513 291.181542,203.582679 291.181542,203.860393 C291.181542,204.137792 290.839259,204.649024 290.420494,204.996636 C290.002044,205.343934 289.340672,206.304961 288.951057,207.13246 C288.561444,207.959645 287.749617,209.335361 287.147174,210.189502 C285.144878,213.0287 282.249887,217.785249 280.539723,221.046345 C279.610355,222.818258 277.763216,226.212255 276.43483,228.588806 C275.106444,230.96567 273.083147,234.812284 271.938755,237.137116 C265.664185,249.882787 258.691883,262.458256 253.615931,270.184083 C236.310556,296.522983 215.316857,312.063342 190.573085,316.855938 C185.706203,317.796277 174.955305,318.460783 171.729941,318.018824 L171.729941,318.018824 Z" id="Path" fill-opacity="0.15"></path>
            <path d="M96.9146748,99.5065021 C92.0916752,99.5087587 87.2683622,100.37011 82.7431367,102.038585 C78.431368,103.675088 74.4712863,106.236259 71.2133244,109.500176 C67.9898417,112.705479 65.423656,116.558989 63.7084774,120.76826 C61.9431473,125.160585 61.0573477,129.910865 61.125679,134.643906 C61.0046887,140.883056 62.5941754,147.147596 65.6706518,152.577114 C68.7765921,158.046754 73.4905125,162.592667 79.0704852,165.496748 C81.6316557,166.906943 84.3865361,167.952913 87.2379579,168.598927 C90.3282262,169.423291 93.4761685,169.691914 96.6379016,169.697243 C99.2721055,169.688467 101.913205,169.414201 104.495063,168.892313 C107.178478,168.342841 109.810486,167.545434 112.343761,166.502911 L112.343761,166.444296 L112.91392,148.938629 C114.610605,152.903098 117.104071,156.525912 120.209384,159.519011 C123.551663,162.742494 127.501401,165.329367 130.38072,166.502911 C133.260038,167.676454 134.761761,168.160729 136.292319,168.548775 L136.325858,232.652638 L159.461337,232.652638 L159.486412,199.577774 L179.10847,232.669251 L247.759499,232.652638 L247.759499,214.559885 L226.217582,214.53481 L226.217582,207.668452 L245.260705,207.634914 L245.260705,190.548324 L226.217582,190.514786 L226.217582,184.2352 L255.859895,184.2352 L255.859895,232.619099 L255.926972,232.619099 L255.926972,232.686177 L279.842305,232.652638 L279.875844,184.2352 L293.149672,184.201661 L293.149672,166.117372 L282.148017,166.083833 C286.370767,163.989384 290.009566,160.744901 292.554437,156.77761 C294.054906,154.437732 295.087711,151.795692 295.556314,149.055858 C296.250911,145.192317 296.48725,137.335157 296.48725,137.335157 L296.453711,101.133038 L272.454688,101.166577 L272.513301,138.986705 C272.629904,140.458023 272.089209,143.46178 270.852976,146.138298 C270.303191,146.956707 269.528978,147.624661 268.639417,148.049694 C267.749543,148.475041 266.75153,148.654646 265.050456,148.611391 C263.349069,148.568448 261.663982,147.783579 260.673177,146.213839 C260.671924,146.212272 260.665341,146.215406 260.664715,146.213839 L260.664715,146.205376 C259.448229,143.497512 258.930729,140.478084 259.172083,137.519463 L259.138544,101.133038 L235.105982,101.133038 L235.072443,113.73421 C233.940588,111.096558 232.183721,108.734113 229.974237,106.901392 L229.974237,106.892929 C227.099934,104.797854 223.857331,103.217457 220.439825,102.231354 C217.023886,101.245565 213.438373,100.858772 209.8911,101.099499 C209.889846,101.099499 209.883891,101.099499 209.882637,101.099499 L179.695242,101.133038 L179.661703,122.789049 C179.447306,122.156514 179.225072,121.528368 178.974315,120.910878 C177.266658,116.711011 174.690756,112.866903 171.461004,109.684796 C168.156026,106.43373 164.191243,103.858141 159.872264,102.172739 C155.411295,100.417126 150.612118,99.5407299 145.818269,99.5987182 C141.031315,99.6369584 136.244988,100.509279 131.756123,102.172739 L131.806274,102.289968 C131.803453,102.29279 131.800945,102.295924 131.797811,102.298432 C131.782766,102.257056 131.771482,102.213801 131.756123,102.172739 C127.446234,103.849678 123.490855,106.426834 120.209384,109.684796 C116.994678,113.298206 114.26268,117.127894 112.654072,120.919342 L112.620534,102.935669 L112.612071,102.885203 C110.148695,101.770274 107.566524,100.912058 104.922604,100.345034 C102.292789,99.78083 99.6043586,99.5031171 96.9146748,99.5065021 L96.9146748,99.5065021 Z M207.627077,118.26163 C207.745246,118.259334 207.861535,118.257868 207.979391,118.26163 C209.644731,118.314915 211.291892,118.930838 212.574515,119.997182 C213.857764,121.280119 214.551421,123.124437 214.436073,124.935217 C214.436073,124.936471 214.436073,124.942112 214.436073,124.94368 C214.546406,126.713085 213.850555,128.516342 212.574515,129.747559 L212.524049,129.688945 L212.566052,129.747559 C211.088779,130.936775 209.159202,131.555205 207.266613,131.432648 L207.25815,131.432648 L203.526571,131.432648 L203.526571,131.365569 L203.467956,131.365569 L203.467956,118.336857 L203.526571,118.336857 L203.526571,118.269779 L207.25815,118.269779 C207.260657,118.269779 207.263792,118.270093 207.266613,118.269779 C207.384156,118.262256 207.508908,118.26351 207.627077,118.26163 Z M98.03838,121.313344 C98.2562261,121.311776 98.4746976,121.31209 98.6922295,121.321807 C101.173784,121.313971 103.653459,121.853098 105.912154,122.881202 C107.792832,123.737225 109.551266,124.862811 111.110976,126.217839 L111.069288,126.268304 L111.136365,126.276454 C110.537056,129.020991 110.23646,131.834799 110.247431,134.643906 C110.258088,137.388442 110.541443,140.129531 111.094363,142.818274 L111.035749,142.834887 L111.069288,142.885352 C109.264777,144.157631 107.328305,145.240901 105.299993,146.113223 C103.076091,147.069547 100.660359,147.58454 98.2396127,147.605541 C98.2380457,147.605541 98.2324041,147.605541 98.2311503,147.605541 C96.543241,147.685783 94.8446749,147.404935 93.267099,146.80061 C91.6879561,146.195659 90.2351326,145.26441 89.0324386,144.075821 C87.8642239,142.815766 86.945199,141.313732 86.357487,139.699483 C85.7700884,138.086487 85.5105549,136.358458 85.5942451,134.643906 C85.5114952,132.878262 85.7841935,131.094125 86.3991754,129.437248 C87.0147841,127.779116 87.9754973,126.253259 89.1916689,124.968755 L89.1916689,124.960293 C90.4366785,123.738479 91.9315043,122.775885 93.5604856,122.151813 C94.984786,121.606103 96.5128368,121.324942 98.03838,121.313344 L98.03838,121.313344 Z M145.231183,121.849802 C145.423013,121.850591 145.618603,121.863756 145.809805,121.87504 C145.812626,121.87504 145.815447,121.87504 145.818269,121.87504 C147.348201,121.817679 148.888789,122.101975 150.296164,122.705045 C151.705732,123.309057 152.979578,124.229336 153.99389,125.379684 C156.120625,127.944616 157.249031,131.316045 157.088234,134.643906 C157.249659,137.94387 156.119371,141.286148 153.99389,143.815974 L153.99389,143.824124 C152.972368,144.962561 151.696642,145.869361 150.287701,146.465223 C148.881266,147.060144 147.344125,147.34538 145.818269,147.286766 C145.815447,147.286766 145.812626,147.287079 145.809805,147.286766 C144.280814,147.344126 142.741792,147.05983 141.332223,146.465223 C139.919834,145.869675 138.635958,144.961934 137.609107,143.824124 L137.609107,143.815974 C135.470149,141.29273 134.336727,137.947317 134.497839,134.643906 C134.344876,131.32012 135.476104,127.958408 137.609107,125.40476 C138.602419,124.221813 139.8794,123.273324 141.298685,122.663044 C142.362836,122.205412 143.50472,121.933027 144.661024,121.866577 C144.85254,121.855606 145.039668,121.849024 145.231183,121.849802 L145.231183,121.849802 Z M235.080906,132.346657 L235.131058,132.371733 L235.206599,132.371733 L235.206599,137.335157 C235.092504,141.652254 235.246092,145.277888 236.112145,149.122935 C236.707379,151.764347 237.043394,153.820556 239.022181,156.702069 C241.69149,160.589431 245.27575,164.063985 249.604445,166.091982 L249.579369,166.15091 L249.579369,166.209525 L240.657117,166.209525 L240.657117,166.15091 L240.606967,166.184449 L223.911557,140.738871 L223.970171,140.705332 L223.962022,140.638255 C225.800699,140.441096 227.59706,139.862161 229.202846,138.944704 C230.808632,138.027246 232.224783,136.77346 233.328427,135.289292 C234.008606,134.374342 234.589109,133.396703 235.080906,132.346657 L235.080906,132.346657 Z M203.291799,145.827986 L214.05022,166.117372 L214.000069,166.15091 L214.000069,166.209525 L203.233186,166.209525 L203.233186,166.15091 L203.174571,166.15091 L203.174571,145.853062 L203.241648,145.853062 L203.291799,145.827986 L203.291799,145.827986 Z M179.661703,146.020756 L179.72878,146.046145 L179.787395,146.046145 L179.787395,166.15091 L179.787395,167.852611 L179.787395,199.703466 L179.72878,199.703466 L179.670164,199.737005 L160.149037,166.8803 L160.199189,166.846761 L160.182577,166.788147 C164.292799,165.111209 168.072649,162.626206 171.242846,159.519011 C174.501435,156.333769 177.097084,152.4812 178.831696,148.267854 C179.135112,147.530628 179.411572,146.779297 179.661703,146.020756 L179.661703,146.020756 Z" id="Shape"></path>
            <path d="M123.247307,210.255953 C120.221295,210.255953 117.215971,211.501276 115.076386,213.640547 C112.936801,215.779819 111.691165,218.784516 111.691165,221.8099 C111.691165,224.835285 112.936801,227.839982 115.076386,229.979254 C117.215971,232.118525 120.221295,233.359773 123.247307,233.359773 C126.273005,233.359773 129.278329,232.118525 131.417914,229.979254 C133.557499,227.839982 134.79906,224.835285 134.79906,221.8099 C134.79906,218.784516 133.557499,215.779819 131.417914,213.640547 C129.278329,211.501276 126.273005,210.255953 123.247307,210.255953 L123.247307,210.255953 Z" id="Path"></path>
        </g>
    </g>
</svg>