<?xml version="1.0" encoding="UTF-8"?>
<svg width="400px" height="400px" viewBox="0 0 400 400" version="1.1" xmlns="http://www.w3.org/2000/svg" xmlns:xlink="http://www.w3.org/1999/xlink">
    <title>logos/corunet</title>
    <g id="logos/corunet" stroke="none" stroke-width="1" fill="none" fill-rule="evenodd">
        <path d="M145.041764,346.538687 C144.938262,346.448255 142.455981,346.203101 139.525426,345.993624 C116.348752,344.337592 94.6122739,335.193739 79.0633077,320.558981 C56.4437073,299.269364 44.3578187,268.064043 42.9254289,227.25176 C41.7114883,192.66302 49.3992488,156.976735 64.5755019,126.753447 C84.9138195,86.2495509 116.870147,57.8758757 153.615473,47.6953775 C162.323064,45.282898 170.801396,43.4064387 171.909185,43.6465068 C172.137384,43.6959617 173.653529,43.4842948 175.278475,43.1761556 C185.241866,41.2870147 213.794992,41.2766645 229.808834,43.1563737 C238.790899,44.2107163 255.23076,46.6239023 255.791013,46.9702984 C256.004375,47.1020603 257.372156,47.3863199 258.830368,47.6020138 C260.288934,47.817743 264.812289,48.7814419 268.882425,49.7436219 C321.103948,62.0887246 356.795179,87.8593071 367.422325,120.893751 C370.459561,130.335747 371.012042,134.761252 370.916665,148.821979 C370.835418,160.552676 370.640778,162.901076 368.956133,172.498854 C367.927471,178.358904 366.857126,184.618478 366.57806,186.409098 C366.29864,188.199718 365.269625,193.527068 364.291478,198.247535 C363.313331,202.968003 362.086497,208.961228 361.565101,211.565734 C356.517525,236.782068 354.420991,245.192223 350.130074,257.439723 C343.136448,277.402537 333.743908,291.544865 321.221933,300.967785 C314.113501,306.316683 300.843698,312.04921 290.491027,314.243593 C289.188597,314.519481 285.592168,315.33372 282.498765,316.052582 C279.405363,316.771797 276.341633,317.437672 275.690595,317.532696 C275.039204,317.62772 271.442775,318.418998 267.698334,319.29117 C263.95354,320.162989 259.158184,321.251703 257.041868,321.710573 C254.925199,322.169091 251.32877,323.100962 249.049607,323.780966 C246.77009,324.460971 243.173661,325.494224 241.057346,326.077439 C238.940677,326.660653 232.280518,328.74447 226.256561,330.708888 C195.178411,340.842192 184.479202,343.498625 164.982323,345.922267 C161.862427,346.310135 145.364281,346.820227 145.041764,346.538687 L145.041764,346.538687 Z" id="Path" fill-opacity="0.15" fill="#FFFFFF" fill-rule="nonzero"></path>
        <path d="M210.917425,353.171646 C202.839324,352.386726 196.739419,350.542413 187.7298,346.162124 C184.302224,344.495141 180.695197,342.657892 179.714578,342.078564 C177.621223,340.842898 168.073606,334.893124 166.113074,333.603058 C165.368071,333.112748 163.075838,331.641819 161.019221,330.334797 C158.962958,329.027422 156.443939,327.409541 155.421989,326.739428 C151.592062,324.229239 138.356525,316.31328 137.362128,315.938129 C136.793044,315.723707 134.856886,314.702464 133.058848,313.668151 C131.261163,312.634191 122.836172,308.228468 114.337351,303.877852 C95.87302,294.426318 90.0532409,291.138276 79.949963,284.450563 C49.0026913,263.965294 30.4891173,239.245628 24.1925931,210.001546 C21.6046901,197.981892 22.1520496,180.483344 25.5238831,167.441034 C32.460106,140.611763 50.2673585,113.556767 76.2415538,90.384685 C102.749014,66.7371297 133.147866,50.5954114 166.044543,42.7004704 C187.569778,37.5345907 212.468542,36.8945739 232.855961,40.9832205 C268.939652,48.2196699 301.290912,71.9546191 333.63758,114.923135 C360.412803,150.491081 375.070875,184.592691 376.681691,215.052302 C378.193597,243.70787 368.951187,265.498042 347.332695,284.237554 C342.126156,288.750665 334.312992,294.773209 328.003256,299.137248 C325.322802,300.990747 323.66889,302.152936 317.006612,306.864926 C315.253436,308.105184 285.484427,327.713689 282.747453,329.431186 C259.717024,343.884727 240.863412,351.552352 224.587106,353.085453 C217.813201,353.723421 216.669733,353.730486 210.917425,353.171646 L210.917425,353.171646 Z" id="Path" fill-opacity="0.15" fill="#FFFFFF" fill-rule="nonzero"></path>
        <path d="M197.20924,373.455916 C196.233213,373.321682 193.039134,372.926043 190.111052,372.572794 C187.18297,372.219544 183.988892,371.703801 183.012864,371.424734 C182.036837,371.145667 180.040273,370.605196 178.576409,370.223687 C170.566132,368.14305 164.619183,365.887554 155.507122,361.481478 C124.337834,346.410458 93.5207342,315.331601 73.6727263,278.951888 C70.8573308,273.791271 68.5537934,269.449486 68.5537934,269.303241 C68.5537934,269.157349 67.8568329,267.524632 67.004796,265.67502 C63.2854361,257.598685 57.664183,241.455201 55.6404188,233.036921 C51.9613999,217.733816 50.6513756,206.91203 50.6898254,192.155755 C50.7419487,173.653626 53.5611945,158.405275 59.8638652,142.549688 C69.8018225,117.546716 86.1070951,97.2695103 117.372114,71.0312259 C126.004463,63.7867931 145.505933,50.3640333 156.985823,43.7651985 C162.851878,40.3932591 179.851285,32.2752413 180.694844,31.9542791 C181.533457,31.6352245 181.89801,31.5808242 182.923492,31.124391 C187.704013,28.9959238 199.803501,25.0752472 205.194789,23.9077235 C206.333311,23.6611203 207.531179,23.3905315 207.856521,23.3064229 C214.448503,21.6023139 220.259098,20.5884889 232.188674,20.5609035 C244.502584,20.5359608 245.504046,21.1038087 252.220371,22.7017664 C256.12448,23.6305996 259.481407,24.77548 259.880578,24.9196056 C260.907826,25.2903406 260.695524,25.1313078 261.359632,25.4524819 C262.76839,25.4584165 274.268061,31.4457417 278.208908,34.2252117 C289.348266,42.0822491 301.019263,55.064366 312.853815,72.7621465 C314.267518,74.8766957 315.579132,76.7393783 315.768473,76.9022261 C316.283511,77.3452005 331.779843,100.544129 331.779843,100.872651 C331.779843,101.028434 332.935321,102.817994 334.347611,104.84953 C348.386084,125.043015 358.053099,144.404599 362.177635,160.588001 C364.237431,168.669634 364.548643,171.247646 364.497776,179.809345 C364.412289,194.296797 360.977295,204.252417 349.703703,222.687075 C349.305944,223.33776 348.789847,224.269278 348.556703,224.757115 C348.323558,225.244952 347.980554,225.777299 347.794038,225.939793 C347.188922,226.467901 344.793187,230.021587 344.793187,230.391085 C344.793187,230.588552 344.128019,231.622512 343.314486,232.688618 C342.501307,233.754723 341.835785,234.902076 341.835785,235.238016 C341.835785,235.57431 341.421071,236.193202 340.914158,236.613922 C340.407599,237.034288 339.606783,238.197891 339.135196,239.199705 C338.663255,240.20152 337.680516,241.867442 336.951057,242.901403 C334.526708,246.338516 331.021417,252.09789 328.951024,256.046509 C327.825925,258.191437 325.589505,262.300784 323.981162,265.178351 C322.372819,268.055919 319.923036,272.713508 318.53724,275.528197 C310.940618,290.960238 302.498671,306.185981 296.352842,315.540018 C275.400578,347.429581 249.982185,366.247162 220.023834,372.046452 C214.131285,373.187447 201.114762,373.992855 197.20924,373.455916 L197.20924,373.455916 Z" id="Path" fill-opacity="0.15" fill="#FFFFFF" fill-rule="nonzero"></path>
        <path d="M197.208533,373.455916 C196.232506,373.321682 193.038428,372.926043 190.110346,372.572794 C187.182264,372.219544 183.988185,371.703801 183.012158,371.424734 C182.036131,371.145667 180.03992,370.605196 178.575702,370.227219 C170.565425,368.14305 164.618477,365.887554 155.506416,361.481831 C124.337127,346.410458 93.5203809,315.331601 73.672373,278.951888 C70.8569776,273.791625 68.5530869,269.44984 68.5530869,269.303595 C68.5530869,269.157349 67.8564796,267.524632 67.0044428,265.67502 C63.2847296,257.598685 57.6638297,241.455554 55.6400655,233.037274 C51.960976,217.733816 50.6509517,206.912383 50.6894015,192.156108 C50.7415248,173.653979 53.5608413,158.405628 59.8631587,142.550041 C69.8014692,117.547069 86.1063886,97.2698635 117.371761,71.0315791 C126.00411,63.7874996 145.50558,50.3643865 156.98547,43.7656224 C162.851525,40.3937184 179.791586,31.954703 180.694491,31.954703 C180.894783,31.954703 181.897657,31.5812834 182.922786,31.1248502 C187.703306,28.9963477 199.803148,25.0756711 205.194083,23.9081474 C206.332958,23.6615796 207.530472,23.3909907 207.855815,23.3068821 C214.44815,21.6027731 220.178557,21.06753 232.108133,21.0354658 C244.422044,21.0150019 245.503339,21.1042679 252.220018,22.7022256 C256.123774,23.6310588 259.571132,24.6290582 259.880225,24.9200649 C260.188964,25.2110362 260.854486,25.4508216 261.358926,25.4529411 C262.768036,25.4588757 274.267355,31.4461656 278.208202,34.2256709 C289.347559,42.082673 301.018557,55.0647192 312.853109,72.7624998 C314.266811,74.877049 315.578425,76.7400848 315.767767,76.9025794 C316.282804,77.3455538 331.779136,100.544483 331.779136,100.873004 C331.779136,101.028787 332.934614,102.818347 334.346904,104.849883 C348.385377,125.043369 358.052392,144.404952 362.176929,160.588354 C364.236724,168.669987 364.547584,171.247999 364.497069,179.809345 C364.411583,194.296797 360.976588,204.252417 349.702996,222.687429 C349.305238,223.33776 348.789141,224.269278 348.555996,224.757115 C348.322852,225.245305 347.979847,225.777652 347.793332,225.940146 C347.188216,226.467901 344.79248,230.021587 344.79248,230.391439 C344.79248,230.588905 344.127312,231.622865 343.31378,232.688971 C342.5006,233.755077 341.835079,234.90243 341.835079,235.23837 C341.835079,235.57431 341.420364,236.193555 340.913452,236.613922 C340.406893,237.034641 339.606077,238.198244 339.134489,239.200058 C338.662548,240.201873 337.679809,241.867442 336.95035,242.901756 C334.526001,246.33887 331.02071,252.098243 328.950317,256.046509 C327.825219,258.19179 325.588799,262.301137 323.980456,265.178705 C322.372112,268.056272 319.92233,272.713508 318.536533,275.52855 C310.939911,290.960238 302.497964,306.185981 296.352136,315.540018 C275.399871,347.429581 249.981478,366.247162 220.023127,372.046452 C214.130579,373.187447 201.114056,373.992855 197.208533,373.455916 L197.208533,373.455916 Z" id="Path" fill-opacity="0.15" fill="#FFFFFF" fill-rule="nonzero"></path>
        <path d="M216.104888,378.96307 C215.196331,378.839433 212.223034,378.468521 209.497717,378.14 C206.772047,377.811478 203.799102,377.331059 202.890545,377.073187 C201.981989,376.811783 200.123898,376.310169 198.761063,375.95692 C191.305034,374.017582 185.769621,371.919283 177.287756,367.817354 C148.275053,353.788772 119.590165,324.860142 101.115237,290.997682 C98.4948349,286.193848 96.3506128,282.152678 96.3506128,282.016677 C96.3506128,281.880676 95.7016942,280.360645 94.9090032,278.639262 C91.4464554,271.121415 86.2144828,256.095257 84.3306053,248.259132 C80.9062084,234.014715 79.6867924,223.941816 79.7226059,210.206431 C79.771219,192.984477 82.3955066,178.791281 88.2615614,164.032533 C97.5124492,140.759422 112.689444,121.885321 141.791166,97.4623843 C149.826523,90.7192119 167.978582,78.2247908 178.664368,72.0828485 C184.124539,68.9442301 199.892873,61.0890296 200.7329,61.0890296 C200.919769,61.0890296 201.853053,60.7414325 202.807179,60.3164738 C207.257058,58.3350995 218.519699,54.6856829 223.537603,53.5990886 C224.597703,53.3694767 225.712558,53.1176101 226.015292,53.0395421 C232.151229,51.4531003 237.485644,50.955019 248.589677,50.9251333 C260.051551,50.9059174 261.057957,50.9892842 267.310113,52.476463 C270.943987,53.3412168 274.152549,54.270262 274.440093,54.5408508 C274.727991,54.8117929 275.347237,55.0350463 275.816705,55.0371658 C277.128319,55.0424645 287.832121,60.6156758 291.500259,63.2028723 C301.868827,70.5161887 312.732297,82.6001343 323.748018,99.0735535 C325.064224,101.041504 326.285053,102.775604 326.460971,102.927148 C326.940683,103.33939 341.364904,124.933155 341.364904,125.238715 C341.364904,125.383901 342.440548,127.049823 343.754988,128.940766 C356.822026,147.737151 365.82034,165.758861 369.659452,180.822816 C371.577241,188.345256 371.866905,190.744878 371.820983,198.714178 C371.739736,212.199462 368.542125,221.466246 358.048507,238.625675 C357.678301,239.231144 357.197883,240.098018 356.980988,240.552296 C356.764093,241.006574 356.444756,241.50183 356.27131,241.653373 C355.707878,242.144743 353.47817,245.452568 353.47817,245.796632 C353.47817,245.980322 352.858571,246.942572 352.101558,247.935202 C351.344545,248.927479 350.724946,249.995351 350.724946,250.30833 C350.724946,250.620955 350.339198,251.197105 349.867257,251.588858 C349.39567,251.980258 348.650314,253.06332 348.211225,253.995898 C347.772137,254.928122 346.857221,256.478532 346.178277,257.441136 C343.921721,260.640867 340.659112,266.001422 338.731785,269.676626 C337.684402,271.673543 335.602705,275.498524 334.105635,278.176859 C332.608565,280.855547 330.328342,285.19062 329.03863,287.810669 C321.967289,302.174838 314.109616,316.347192 308.389099,325.054076 C288.886216,354.737599 265.22665,372.251337 237.340812,377.652516 C231.855913,378.712263 219.739822,379.461151 216.104888,378.96307 L216.104888,378.96307 Z" id="Path" fill-opacity="0.15" fill="#FFFFFF" fill-rule="nonzero"></path>
        <path d="M131.78927,132.703152 C126.353826,132.705695 120.918029,133.676424 115.818172,135.556769 C110.958877,137.401082 106.495927,140.287481 102.824256,143.965864 C99.1914422,147.578189 96.2993917,151.921034 94.3664126,156.664816 C92.3769136,161.614896 91.3786316,166.968386 91.4556399,172.302448 C91.3192857,179.333871 93.110612,186.393908 96.577752,192.512889 C100.078097,198.677086 105.390611,203.800258 111.679152,207.073111 C114.56555,208.662379 117.670257,209.841171 120.883764,210.569218 C124.366447,211.498263 127.914128,211.800997 131.477351,211.807003 C134.446057,211.797112 137.422534,211.488019 140.332247,210.899859 C143.356413,210.280613 146.322645,209.381948 149.177605,208.207041 L149.177605,208.140983 L149.820165,188.412374 C151.732302,192.880268 154.542399,196.963122 158.042038,200.336297 C161.808733,203.969111 166.260025,206.884476 169.504972,208.207041 C172.749918,209.529606 174.442335,210.075376 176.16725,210.512698 L176.205048,282.756734 L202.278365,282.756734 L202.306625,245.481887 L224.420372,282.775456 L301.788993,282.756734 L301.788993,262.366488 L277.511594,262.338229 L277.511594,254.599953 L298.972891,254.562156 L298.972891,235.30584 L277.511594,235.268043 L277.511594,228.19105 L310.91801,228.19105 L310.91801,282.718936 L310.993605,282.718936 L310.993605,282.794531 L337.945806,282.756734 L337.983604,228.19105 L352.942997,228.153252 L352.942997,207.772545 L340.544306,207.734747 C345.303279,205.374336 349.404147,201.717855 352.272177,197.246781 C353.963181,194.609776 355.127136,191.632239 355.655244,188.544489 C356.438044,184.19034 356.704394,175.335445 356.704394,175.335445 L356.666596,134.536232 L329.620078,134.57403 L329.686135,177.196714 C329.817544,178.854866 329.208189,182.240052 327.814975,185.256446 C327.195376,186.17878 326.32285,186.931553 325.320329,187.410559 C324.317455,187.889918 323.19271,188.09233 321.275627,188.043582 C319.358191,187.995186 317.459124,187.110651 316.342503,185.341579 C316.34109,185.339813 316.333672,185.343345 316.332966,185.341579 L316.332966,185.332041 C314.962006,182.280322 314.378791,178.877474 314.650793,175.543155 L314.612996,134.536232 L287.52868,134.536232 L287.490882,148.737553 C286.215299,145.764961 284.235338,143.102523 281.745285,141.037075 L281.745285,141.027538 C278.505991,138.666421 274.851629,136.885339 271.000154,135.774017 C267.150445,134.663048 263.109628,134.227139 259.111908,134.498434 C259.110495,134.498434 259.103783,134.498434 259.10237,134.498434 L225.081655,134.536232 L225.043857,158.942213 C224.802235,158.229356 224.551781,157.521445 224.269182,156.825544 C222.34468,152.09236 219.441679,147.760112 215.8018,144.173927 C212.077142,140.510028 207.608894,137.60738 202.741474,135.707959 C197.714033,133.729411 192.305436,132.741726 186.902844,132.807078 C181.508023,132.850174 176.113909,133.833266 171.055029,135.707959 L171.111549,135.840074 C171.108369,135.843254 171.105543,135.846786 171.102011,135.849612 C171.085055,135.802983 171.072338,135.754235 171.055029,135.707959 C166.197853,137.597842 161.740203,140.502256 158.042038,144.173927 C154.419115,148.246183 151.340196,152.562181 149.527321,156.835082 L149.489524,136.567768 L149.479986,136.510894 C146.703801,135.254387 143.793735,134.287191 140.814079,133.648164 C137.850319,133.012315 134.820501,132.699337 131.78927,132.703152 L131.78927,132.703152 Z M256.56039,153.839883 C256.693565,153.837296 256.82462,153.835644 256.957442,153.839883 C258.834254,153.899935 260.690578,154.59407 262.136074,155.795823 C263.582275,157.241672 264.364016,159.32019 264.23402,161.36091 C264.23402,161.362323 264.23402,161.368681 264.23402,161.370448 C264.358364,163.364539 263.574151,165.396781 262.136074,166.784343 L262.0792,166.718286 L262.126536,166.784343 C260.461673,168.124571 258.287071,168.821531 256.154153,168.683411 L256.144615,168.683411 L251.939185,168.683411 L251.939185,168.607815 L251.873127,168.607815 L251.873127,153.924663 L251.939185,153.924663 L251.939185,153.849067 L256.144615,153.849067 C256.147441,153.849067 256.150974,153.849421 256.154153,153.849067 C256.286622,153.840589 256.427215,153.842002 256.56039,153.839883 Z M133.055668,157.279116 C133.301177,157.27735 133.547391,157.277703 133.792546,157.288654 C136.589219,157.279823 139.383773,157.887411 141.929286,159.046068 C144.048781,160.010792 146.030508,161.279309 147.788276,162.806405 L147.741294,162.863278 L147.816889,162.872463 C147.141477,165.965512 146.802711,169.136629 146.815075,172.302448 C146.827085,175.395497 147.146422,178.484661 147.769554,181.514831 L147.703496,181.533554 L147.741294,181.590427 C145.707639,183.024265 143.525266,184.245094 141.239391,185.228186 C138.733088,186.305949 136.010597,186.886338 133.282454,186.910005 C133.280688,186.910005 133.27433,186.910005 133.272917,186.910005 C131.37067,187.000437 129.456413,186.683926 127.67851,186.002861 C125.898841,185.321091 124.261532,184.271588 122.906115,182.932067 C121.589555,181.512005 120.553829,179.819236 119.891487,178.000003 C119.229498,176.182183 118.937008,174.234721 119.031325,172.302448 C118.938068,170.312596 119.245394,168.301902 119.938469,166.434627 C120.63225,164.565939 121.714959,162.846322 123.085565,161.398707 L123.085565,161.38917 C124.488671,160.012205 126.173316,158.927377 128.009152,158.224058 C129.614316,157.609051 131.336405,157.292187 133.055668,157.279116 L133.055668,157.279116 Z M186.241208,157.883696 C186.457397,157.884585 186.677824,157.899422 186.893306,157.912139 C186.896485,157.912139 186.899664,157.912139 186.902844,157.912139 C188.627053,157.847494 190.363272,158.167891 191.949361,158.847542 C193.537922,159.528253 194.973526,160.565393 196.11664,161.861817 C198.513436,164.752455 199.785132,168.552002 199.603916,172.302448 C199.785839,176.021455 198.512023,179.78815 196.11664,182.639223 L196.11664,182.648408 C194.965401,183.931409 193.527678,184.953358 191.939823,185.624885 C190.354794,186.295352 188.62246,186.616808 186.902844,186.550751 C186.899664,186.550751 186.896485,186.551104 186.893306,186.550751 C185.170157,186.615395 183.435704,186.294998 181.847142,185.624885 C180.255402,184.953712 178.808494,183.930702 177.651249,182.648408 L177.651249,182.639223 C175.240678,179.795568 173.963329,176.02534 174.144899,172.302448 C173.972513,168.556594 175.247389,164.767998 177.651249,161.890077 C178.770696,160.556915 180.209833,159.487983 181.809345,158.800207 C183.008626,158.284463 184.295512,157.97749 185.598648,157.902601 C185.814483,157.890237 186.025373,157.882819 186.241208,157.883696 L186.241208,157.883696 Z M287.50042,169.713485 L287.55694,169.741745 L287.642073,169.741745 L287.642073,175.335445 C287.51349,180.200745 287.686582,184.286777 288.662609,188.620084 C289.333429,191.596914 289.712112,193.914229 291.942174,197.161648 C294.950443,201.542643 298.989847,205.45841 303.868217,207.743931 L303.839957,207.810342 L303.839957,207.8764 L293.784721,207.8764 L293.784721,207.810342 L293.728202,207.84814 L274.912741,179.171377 L274.978798,179.133579 L274.969614,179.057984 C277.041773,178.83579 279.066244,178.183339 280.875939,177.149379 C282.685634,176.115419 284.281614,174.702422 285.525404,173.029788 C286.291954,171.998654 286.946172,170.89687 287.50042,169.713485 L287.50042,169.713485 Z M251.674601,184.906729 L263.79917,207.772545 L263.742651,207.810342 L263.742651,207.8764 L251.608544,207.8764 L251.608544,207.810342 L251.542486,207.810342 L251.542486,184.934989 L251.618081,184.934989 L251.674601,184.906729 L251.674601,184.906729 Z M225.043857,185.123978 L225.119452,185.152591 L225.18551,185.152591 L225.18551,207.810342 L225.18551,209.728132 L225.18551,245.62354 L225.119452,245.62354 L225.053393,245.661338 L203.053393,208.632353 L203.109913,208.594555 L203.091191,208.528498 C207.723346,206.638615 211.983178,203.838056 215.555939,200.336297 C219.228317,196.74658 222.153573,192.404795 224.108453,187.656421 C224.450398,186.825579 224.761964,185.978841 225.043857,185.123978 L225.043857,185.123978 Z" id="Shape" fill="#FFFFFF" fill-rule="nonzero"></path>
        <path d="M161.465728,257.516025 C158.055461,257.516025 154.668509,258.919484 152.25723,261.330409 C149.845952,263.741334 148.44214,267.12758 148.44214,270.53714 C148.44214,273.946701 149.845952,277.332947 152.25723,279.743872 C154.668509,282.154797 158.055461,283.553664 161.465728,283.553664 C164.875642,283.553664 168.262595,282.154797 170.673873,279.743872 C173.085151,277.332947 174.484371,273.946701 174.484371,270.53714 C174.484371,267.12758 173.085151,263.741334 170.673873,261.330409 C168.262595,258.919484 164.875642,257.516025 161.465728,257.516025 L161.465728,257.516025 Z" id="Path" fill="#FFFFFF" fill-rule="nonzero"></path>
    </g>
</svg>