<svg width="400" height="360" viewBox="0 0 400 360" xmlns="http://www.w3.org/2000/svg"><path d="M75.08 247.388l22.257 12.764-47.872 27.467-21.998-12.561 47.613-27.67zm-50.275-29.06l21.997 12.62v29.233l-21.997 12.706V218.33zm260.752-16.324c10.275 0 16.585 2.692 16.585 2.692 0 3.3-1.013 6.918-3.155 9.291l-.613-.171c-1.553-.412-5.87-1.42-10.849-1.42-6.801 0-10.043 2.054-10.043 6.077 0 4.342 6.541 5.355 13.198 7.728l.563.208c6.754 2.528 13.33 6.526 13.33 16.58 0 11.432-7.033 17.655-21.331 17.655-11.607 0-18.872-3.85-18.872-3.85 0-3.3 1.187-7.09 3.01-9.609l.755.241c2.03.62 7.89 2.22 14.238 2.22 6.252 0 9.089-2.056 9.089-6.079 0-3.618-3.56-5.21-8.133-6.772l-1.545-.5c-7.684-2.45-17.095-5.273-17.095-16.925 0-10.361 6.57-17.366 20.868-17.366zm92.706.927c12.07 0 18.64 7.004 18.64 17.424 0 7.41-3.56 13.256-9.87 15.774l12.88 22.865-.408.098c-.869.191-3.097.598-6.422.624l-.348.002c-4.428 0-6.946-.724-6.946-.724l-11.693-21.273h-4.892v21.273l-.362.096c-.772.19-2.744.596-5.561.626l-.329.002c-4.254 0-6.396-.724-6.396-.724v-56.063h21.707zm-144.196 0c.405 1.186.781 2.836.781 4.573 0 1.91-.318 3.704-.781 5.036h-21.969v13.719h18.003l.171.577c.334 1.17.61 2.446.61 4.083a15.06 15.06 0 01-.78 4.891h-18.004v14.27h22.75c.463 1.273.782 3.01.782 4.717 0 1.708-.232 3.474-.782 4.892h-35.369v-56.73h34.588v-.028zm15.63 0c3.935 0 6.396.723 6.396.723v55.311l-.479.12c-.866.197-2.854.573-5.51.602l-.321.002c-4.197 0-6.31-.724-6.31-.724v-55.31h-.029l.092-.027c.47-.13 2.725-.697 6.16-.697zm97.365 0c.405 1.186.782 2.836.782 4.573 0 1.91-.319 3.704-.782 5.036h-21.968v13.719h18.003c.405 1.331.781 2.75.781 4.66a15.06 15.06 0 01-.781 4.891h-18.003v14.27h22.75c.463 1.273.781 3.01.781 4.717 0 1.708-.231 3.474-.781 4.892h-35.37v-56.73h34.588v-.028zm-180.752 0c15.485 0 24.4 7.959 24.4 28.364s-8.915 28.365-24.4 28.365h-19.508v-56.73h19.508zM51.056 175l47.873 27.467v54.964l-22.344-12.85v-29.292l-25.529-14.645V175zm114.974 37.772h-6.609v37.047h6.397c7.12 0 11.52-3.3 11.52-18.524l-.006-.907c-.171-14.438-4.476-17.554-11.302-17.616zm-144.38 6.57v23.068L1.592 230.86l20.058-11.52zM47.873 175v25.644L0 228.14v-25.673L47.873 175zm328.567 37.713h-7.265v15.196h7.265c4.805 0 7.265-2.75 7.265-7.554 0-4.892-2.46-7.642-7.265-7.642z" fill="#FFF"/></svg>