<?xml version="1.0" encoding="UTF-8"?>
<svg width="400px" height="400px" viewBox="0 0 400 400" version="1.1" xmlns="http://www.w3.org/2000/svg" xmlns:xlink="http://www.w3.org/1999/xlink">
    <title>logos/digital55</title>
    <g id="logos/digital55" stroke="none" stroke-width="1" fill="none" fill-rule="evenodd">
        <path d="M13.4786277,242.755311 L13.4786277,165.117063 L31.5536416,165.117063 C36.2362661,165.117063 40.1540837,165.585329 43.3070943,166.521858 C46.460065,167.458387 48.988683,168.94121 50.8929485,170.970386 C52.7972539,172.999522 54.1397419,175.496932 54.9201327,178.462617 C55.7316912,181.397054 56.1376702,185.018299 56.1376702,189.326352 L56.1376702,217.328477 C56.1376702,221.76148 55.7316912,225.523179 54.9201327,228.613575 C54.1085742,231.70437 52.7660063,234.326451 50.8929485,236.480618 C49.0511383,238.634784 46.5849355,240.226733 43.4943801,241.256865 C40.4038248,242.255829 36.6108777,242.755311 32.1155389,242.755311 L13.4786277,242.755311 Z M27.6202002,232.828005 L31.6473045,232.828005 C33.0520878,232.828005 34.2851692,232.703334 35.3465886,232.453593 C36.4079681,232.203852 37.2976855,231.90736 38.015701,231.563716 C38.7336765,231.220472 39.3268215,230.658654 39.795096,229.877864 C40.294578,229.097473 40.6691896,228.379418 40.9189306,227.724097 C41.1686717,227.068377 41.3559575,226.084997 41.480828,224.773956 C41.6056985,223.431748 41.6837776,222.29213 41.7149852,221.355501 C41.7461928,220.419272 41.7618166,219.029912 41.7618166,217.188222 L41.7618166,188.811246 C41.7618166,186.969396 41.730569,185.486574 41.6681538,184.362739 C41.6056985,183.238904 41.4496204,182.11507 41.1998793,180.991235 C40.9813459,179.836193 40.637982,178.946475 40.1697075,178.322123 C39.7326407,177.69777 39.1395357,177.135833 38.3903126,176.636351 C37.6410895,176.105661 36.7045406,175.746673 35.5807059,175.559347 C34.4568712,175.340854 33.0989193,175.231567 31.5068101,175.231567 L27.6202002,175.231567 L27.6202002,232.828005 Z M67.0012057,242.755311 L67.0012057,165.117063 L80.9555364,165.117063 L80.9555364,242.755311 L67.0012057,242.755311 Z M112.329405,243.785443 C104.993012,243.785443 99.7016983,241.491022 96.4550648,236.90218 C93.2395989,232.312939 91.6320658,225.632266 91.6320658,216.860162 L91.6320658,191.574022 C91.6320658,187.10989 91.9753099,183.270112 92.6621976,180.054686 C93.3802531,176.808053 94.5666229,173.967278 96.2209076,171.532283 C97.8755918,169.097328 100.154429,167.271101 103.057818,166.053596 C105.960808,164.836106 109.519518,164.227362 113.733948,164.227362 C121.413585,164.227362 126.923472,166.116027 130.263608,169.893342 C133.604145,173.639458 135.274413,179.336711 135.274413,186.98502 L135.274413,190.777967 L121.741245,190.777967 L121.741245,186.750903 C121.741245,185.033923 121.694494,183.6291 121.600991,182.536513 C121.538655,181.443886 121.35125,180.351259 121.039173,179.258671 C120.757865,178.134797 120.336702,177.276327 119.774485,176.683182 C119.212667,176.090077 118.44786,175.606179 117.480064,175.231567 C116.512267,174.856956 115.326297,174.66967 113.921354,174.66967 C112.860054,174.66967 111.907842,174.810124 111.065116,175.091113 C110.253157,175.340854 109.566669,175.668634 109.004452,176.074453 C108.442635,176.449065 107.958737,176.995378 107.553157,177.713394 C107.178346,178.431369 106.881853,179.133761 106.66328,179.820569 C106.475874,180.476129 106.320036,181.334639 106.194965,182.396018 C106.101462,183.457438 106.038727,184.393947 106.00756,185.205625 C105.976392,186.017263 105.960808,187.063059 105.960808,188.342972 L105.960808,219.670049 C105.960808,224.352393 106.538209,227.786433 107.693412,229.971767 C108.848614,232.125533 111.049532,233.202816 114.296165,233.202816 C115.981618,233.202816 117.386561,232.89034 118.510196,232.266188 C119.665398,231.610467 120.555275,230.643071 121.179428,229.362798 C121.835148,228.051758 122.287879,226.568895 122.53762,224.91461 C122.818528,223.228759 122.958783,221.199663 122.958783,218.826923 L122.958783,212.458726 L114.577074,212.458726 L114.577074,203.327394 L135.695576,203.327394 L135.695576,242.755311 L126.517493,242.755311 L125.487361,234.888269 C123.146189,240.819718 118.759937,243.785443 112.329405,243.785443 Z M146.793668,242.755311 L146.793668,165.117063 L160.747999,165.117063 L160.747999,242.755311 L146.793668,242.755311 Z M180.274552,242.755311 L180.274552,175.559347 L167.25685,175.559347 L167.25685,165.117063 L207.012427,165.117063 L207.012427,175.559347 L194.415888,175.559347 L194.415888,242.755311 L180.274552,242.755311 Z M226.86664,215.50237 L237.262261,215.50237 L232.06445,183.613516 L226.86664,215.50237 Z M208.838533,242.755311 L224.618971,165.117063 L239.369276,165.117063 L255.102962,242.755311 L241.945005,242.755311 L238.807458,224.727205 L225.368194,224.727205 L222.184295,242.755311 L208.838533,242.755311 Z M262.782598,242.755311 L262.782598,165.117063 L276.924335,165.117063 L276.924335,232.968659 L295.514259,232.968659 L295.514259,242.755311 L262.782598,242.755311 Z M321.596814,243.832195 C317.787963,243.832195 314.572497,243.301545 311.950416,242.240245 C309.327935,241.147778 307.298839,239.539845 305.863128,237.417246 C304.427017,235.26308 303.396885,232.828005 302.772333,230.112021 C302.179348,227.36487 301.882855,224.102652 301.882855,220.325369 L314.947308,220.325369 C314.947308,222.448368 315.025228,224.212139 315.181466,225.616682 C315.337704,227.021626 315.64978,228.395002 316.118094,229.737609 C316.586409,231.04865 317.319649,232.03203 318.318613,232.68775 C319.317577,233.343071 320.582266,233.655547 322.111879,233.62398 C323.079676,233.62398 323.922402,233.452557 324.640458,233.108914 C325.389681,232.76567 325.99825,232.375274 326.466564,231.938527 C326.966046,231.501381 327.387609,230.814493 327.730853,229.877864 C328.074497,228.910467 328.324238,228.067341 328.480076,227.349286 C328.667482,226.600063 328.792153,225.507596 328.854888,224.071485 C328.948391,222.604206 328.995142,221.402252 328.995142,220.466023 C329.02631,219.529394 329.041894,218.156018 329.041894,216.345096 C329.041894,214.378336 328.995142,212.739635 328.901639,211.428594 C328.839304,210.117154 328.667482,208.774946 328.386573,207.40117 C328.105664,206.027794 327.715269,204.950911 327.215787,204.17052 C326.716305,203.38973 326.013833,202.749913 325.108772,202.250431 C324.203311,201.750949 323.110844,201.501208 321.830971,201.501208 C319.988881,201.501208 318.428099,202.125561 317.148226,203.374146 C315.899521,204.622851 315.009644,206.246368 314.478994,208.244296 L303.053241,208.244296 L303.66221,165.117063 L338.922448,165.117063 L338.922448,177.245119 L315.040811,177.245119 L314.244837,195.554254 C315.274969,194.43042 316.695496,193.525118 318.506018,192.838311 C320.348108,192.120295 322.377204,191.7301 324.593706,191.667644 C327.621766,191.542774 330.259431,192.011048 332.507101,193.072468 C334.75477,194.133847 336.549709,195.725956 337.892317,197.848755 C339.265693,199.971554 340.280241,202.484588 340.935961,205.387658 C341.591681,208.25988 341.919341,211.553265 341.919341,215.268213 C341.919341,218.702252 341.747519,221.76148 341.404275,224.446296 C341.092199,227.130713 340.48323,229.737609 339.578169,232.266188 C338.703875,234.763598 337.517505,236.823862 336.019059,238.447378 C334.55178,240.070495 332.601003,241.381536 330.165928,242.3805 C327.730853,243.348296 324.874615,243.832195 321.596814,243.832195 Z M369.453191,243.832195 C365.64474,243.832195 362.429274,243.301545 359.807193,242.240245 C357.184712,241.147778 355.155616,239.539845 353.719505,237.417246 C352.283394,235.26308 351.253263,232.828005 350.62911,230.112021 C350.035725,227.36487 349.739232,224.102652 349.739232,220.325369 L362.804085,220.325369 C362.804085,222.448368 362.882005,224.212139 363.038243,225.616682 C363.194081,227.021626 363.506157,228.395002 363.974472,229.737609 C364.442786,231.04865 365.176425,232.03203 366.17539,232.68775 C367.174354,233.343071 368.438643,233.655547 369.968257,233.62398 C370.936053,233.62398 371.779179,233.452557 372.496835,233.108914 C373.246058,232.76567 373.855027,232.375274 374.323341,231.938527 C374.822823,231.501381 375.243986,230.814493 375.58763,229.877864 C375.930874,228.910467 376.180615,228.067341 376.336853,227.349286 C376.524259,226.600063 376.64893,225.507596 376.711265,224.071485 C376.805168,222.604206 376.851919,221.402252 376.851919,220.466023 C376.883087,219.529394 376.898671,218.156018 376.898671,216.345096 C376.898671,214.378336 376.851919,212.739635 376.758016,211.428594 C376.695681,210.117154 376.524259,208.774946 376.242951,207.40117 C375.962042,206.027794 375.572046,204.950911 375.072564,204.17052 C374.573082,203.38973 373.87061,202.749913 372.965149,202.250431 C372.060088,201.750949 370.967221,201.501208 369.687348,201.501208 C367.845658,201.501208 366.284876,202.125561 365.004604,203.374146 C363.755898,204.622851 362.866421,206.246368 362.335771,208.244296 L350.910018,208.244296 L351.518587,165.117063 L386.779225,165.117063 L386.779225,177.245119 L362.897588,177.245119 L362.101614,195.554254 C363.131746,194.43042 364.552273,193.525118 366.362795,192.838311 C368.204486,192.120295 370.233582,191.7301 372.450083,191.667644 C375.478144,191.542774 378.116208,192.011048 380.363877,193.072468 C382.611547,194.133847 384.406486,195.725956 385.748694,197.848755 C387.122469,199.971554 388.137017,202.484588 388.792738,205.387658 C389.448058,208.25988 389.776118,211.553265 389.776118,215.268213 C389.776118,218.702252 389.604296,221.76148 389.261052,224.446296 C388.948576,227.130713 388.340007,229.737609 387.434546,232.266188 C386.560652,234.763598 385.374282,236.823862 383.875836,238.447378 C382.408557,240.070495 380.457381,241.381536 378.022705,242.3805 C375.58763,243.348296 372.730992,243.832195 369.453191,243.832195 Z" id="Shape" fill="#FFFFFF" fill-rule="nonzero"></path>
        <path d="M8.664,310.302073 C10.9186667,310.302073 12.673,309.662406 13.927,308.383073 C15.181,307.103739 15.808,305.362073 15.808,303.158073 L15.808,303.158073 L15.808,283.246073 L12.35,283.246073 L12.35,303.158073 C12.35,304.298073 12.046,305.248073 11.438,306.008073 C10.83,306.768073 9.85466667,307.148073 8.512,307.148073 C7.09333333,307.148073 6.042,306.698406 5.358,305.799073 C4.674,304.899739 4.332,303.677406 4.332,302.132073 L4.332,302.132073 L0.874,302.132073 C0.874,304.716073 1.56433333,306.723739 2.945,308.155073 C4.32566667,309.586406 6.232,310.302073 8.664,310.302073 Z M29.716,310.302073 C31.7426667,310.302073 33.459,309.795406 34.865,308.782073 C36.271,307.768739 37.2526667,306.413406 37.81,304.716073 L37.81,304.716073 L37.81,310.036073 L41.268,310.036073 L41.268,289.174073 L37.81,289.174073 L37.81,294.494073 C37.2526667,292.796739 36.271,291.441406 34.865,290.428073 C33.459,289.414739 31.7426667,288.908073 29.716,288.908073 C27.8666667,288.908073 26.22,289.338739 24.776,290.200073 C23.332,291.061406 22.1983333,292.302739 21.375,293.924073 C20.5516667,295.545406 20.14,297.445406 20.14,299.624073 C20.14,301.802739 20.5516667,303.696406 21.375,305.305073 C22.1983333,306.913739 23.332,308.148739 24.776,309.010073 C26.22,309.871406 27.8666667,310.302073 29.716,310.302073 Z M30.704,307.262073 C28.576,307.262073 26.8723333,306.584406 25.593,305.229073 C24.3136667,303.873739 23.674,302.005406 23.674,299.624073 C23.674,297.242739 24.3136667,295.374406 25.593,294.019073 C26.8723333,292.663739 28.576,291.986073 30.704,291.986073 C32.072,291.986073 33.2943333,292.296406 34.371,292.917073 C35.4476667,293.537739 36.29,294.430739 36.898,295.596073 C37.506,296.761406 37.81,298.104073 37.81,299.624073 C37.81,301.144073 37.506,302.480406 36.898,303.633073 C36.29,304.785739 35.4476667,305.678739 34.371,306.312073 C33.2943333,306.945406 32.072,307.262073 30.704,307.262073 Z M56.886,310.036073 L65.056,289.174073 L61.332,289.174073 L54.872,306.350073 L48.336,289.174073 L44.612,289.174073 L52.782,310.036073 L56.886,310.036073 Z M76.988,310.302073 C79.0146667,310.302073 80.731,309.795406 82.137,308.782073 C83.543,307.768739 84.5246667,306.413406 85.082,304.716073 L85.082,304.716073 L85.082,310.036073 L88.54,310.036073 L88.54,289.174073 L85.082,289.174073 L85.082,294.494073 C84.5246667,292.796739 83.543,291.441406 82.137,290.428073 C80.731,289.414739 79.0146667,288.908073 76.988,288.908073 C75.1386667,288.908073 73.492,289.338739 72.048,290.200073 C70.604,291.061406 69.4703333,292.302739 68.647,293.924073 C67.8236667,295.545406 67.412,297.445406 67.412,299.624073 C67.412,301.802739 67.8236667,303.696406 68.647,305.305073 C69.4703333,306.913739 70.604,308.148739 72.048,309.010073 C73.492,309.871406 75.1386667,310.302073 76.988,310.302073 Z M77.976,307.262073 C75.848,307.262073 74.1443333,306.584406 72.865,305.229073 C71.5856667,303.873739 70.946,302.005406 70.946,299.624073 C70.946,297.242739 71.5856667,295.374406 72.865,294.019073 C74.1443333,292.663739 75.848,291.986073 77.976,291.986073 C79.344,291.986073 80.5663333,292.296406 81.643,292.917073 C82.7196667,293.537739 83.562,294.430739 84.17,295.596073 C84.778,296.761406 85.082,298.104073 85.082,299.624073 C85.082,301.144073 84.778,302.480406 84.17,303.633073 C83.562,304.785739 82.7196667,305.678739 81.643,306.312073 C80.5663333,306.945406 79.344,307.262073 77.976,307.262073 Z M102.714,310.302073 C104.538,310.302073 106.070667,309.960073 107.312,309.276073 C108.553333,308.592073 109.478,307.705406 110.086,306.616073 C110.694,305.526739 110.998,304.348739 110.998,303.082073 C110.998,301.384739 110.630667,300.023073 109.896,298.997073 C109.161333,297.971073 108.268333,297.204739 107.217,296.698073 C106.165667,296.191406 104.778667,295.659406 103.056,295.102073 C101.637333,294.646073 100.522667,294.234406 99.712,293.867073 C98.9013333,293.499739 98.2236667,292.993073 97.679,292.347073 C97.1343333,291.701073 96.862,290.858739 96.862,289.820073 C96.862,288.502739 97.28,287.483073 98.116,286.761073 C98.952,286.039073 100.066667,285.678073 101.46,285.678073 C102.98,285.678073 104.183333,286.083406 105.07,286.894073 C105.956667,287.704739 106.501333,288.642073 106.704,289.706073 L106.704,289.706073 L110.428,289.706073 C110.174667,287.730073 109.275333,286.102406 107.73,284.823073 C106.184667,283.543739 104.094667,282.904073 101.46,282.904073 C99.7626667,282.904073 98.287,283.195406 97.033,283.778073 C95.779,284.360739 94.8163333,285.184073 94.145,286.248073 C93.4736667,287.312073 93.138,288.540739 93.138,289.934073 C93.138,291.555406 93.499,292.860073 94.221,293.848073 C94.943,294.836073 95.817,295.577073 96.843,296.071073 C97.869,296.565073 99.2306667,297.090739 100.928,297.648073 C102.372,298.104073 103.512,298.528406 104.348,298.921073 C105.184,299.313739 105.887,299.852073 106.457,300.536073 C107.027,301.220073 107.312,302.106739 107.312,303.196073 C107.312,304.462739 106.906667,305.501406 106.096,306.312073 C105.285333,307.122739 104.12,307.528073 102.6,307.528073 C101.434667,307.528073 100.440333,307.293739 99.617,306.825073 C98.7936667,306.356406 98.1603333,305.761073 97.717,305.039073 C97.2736667,304.317073 97.014,303.576073 96.938,302.816073 L96.938,302.816073 L93.252,302.816073 C93.3786667,304.260073 93.8536667,305.545739 94.677,306.673073 C95.5003333,307.800406 96.6023333,308.687073 97.983,309.333073 C99.3636667,309.979073 100.940667,310.302073 102.714,310.302073 Z M124.868,310.302073 C127.528,310.302073 129.732,309.599073 131.48,308.193073 C133.228,306.787073 134.304667,304.880739 134.71,302.474073 L134.71,302.474073 L131.062,302.474073 C130.808667,303.968739 130.118333,305.146739 128.991,306.008073 C127.863667,306.869406 126.464,307.300073 124.792,307.300073 C123.576,307.300073 122.467667,307.021406 121.467,306.464073 C120.466333,305.906739 119.662,305.051739 119.054,303.899073 C118.446,302.746406 118.142,301.321406 118.142,299.624073 C118.142,297.926739 118.446,296.501739 119.054,295.349073 C119.662,294.196406 120.466333,293.341406 121.467,292.784073 C122.467667,292.226739 123.576,291.948073 124.792,291.948073 C126.464,291.948073 127.863667,292.372406 128.991,293.221073 C130.118333,294.069739 130.808667,295.241406 131.062,296.736073 L131.062,296.736073 L134.71,296.736073 C134.304667,294.354739 133.228,292.454739 131.48,291.036073 C129.732,289.617406 127.528,288.908073 124.868,288.908073 C122.866667,288.908073 121.093333,289.338739 119.548,290.200073 C118.002667,291.061406 116.793,292.302739 115.919,293.924073 C115.045,295.545406 114.608,297.445406 114.608,299.624073 C114.608,301.802739 115.045,303.696406 115.919,305.305073 C116.793,306.913739 118.002667,308.148739 119.548,309.010073 C121.093333,309.871406 122.866667,310.302073 124.868,310.302073 Z M142.69,310.036073 L142.69,299.054073 C142.69,296.748739 143.310667,295.095739 144.552,294.095073 C145.793333,293.094406 147.389333,292.594073 149.34,292.594073 L149.34,292.594073 L150.404,292.594073 L150.404,288.832073 C148.58,288.832073 147.009333,289.231073 145.692,290.029073 C144.374667,290.827073 143.374,291.948073 142.69,293.392073 L142.69,293.392073 L142.69,289.174073 L139.232,289.174073 L139.232,310.036073 L142.69,310.036073 Z M155.572,285.184073 C156.281333,285.184073 156.851333,284.987739 157.282,284.595073 C157.712667,284.202406 157.928,283.689406 157.928,283.056073 C157.928,282.422739 157.712667,281.909739 157.282,281.517073 C156.851333,281.124406 156.281333,280.928073 155.572,280.928073 C154.862667,280.928073 154.292667,281.124406 153.862,281.517073 C153.431333,281.909739 153.216,282.422739 153.216,283.056073 C153.216,283.689406 153.431333,284.202406 153.862,284.595073 C154.292667,284.987739 154.862667,285.184073 155.572,285.184073 Z M157.282,310.036073 L157.282,289.174073 L153.824,289.174073 L153.824,310.036073 L157.282,310.036073 Z M166.288,319.916073 L166.288,304.716073 C166.82,306.388073 167.789,307.737073 169.195,308.763073 C170.601,309.789073 172.317333,310.302073 174.344,310.302073 C176.193333,310.302073 177.84,309.871406 179.284,309.010073 C180.728,308.148739 181.861667,306.913739 182.685,305.305073 C183.508333,303.696406 183.92,301.802739 183.92,299.624073 C183.92,297.445406 183.508333,295.545406 182.685,293.924073 C181.861667,292.302739 180.728,291.061406 179.284,290.200073 C177.84,289.338739 176.193333,288.908073 174.344,288.908073 C172.317333,288.908073 170.601,289.421073 169.195,290.447073 C167.789,291.473073 166.82,292.822073 166.288,294.494073 L166.288,294.494073 L166.288,289.174073 L162.83,289.174073 L162.83,319.916073 L166.288,319.916073 Z M173.356,307.262073 C172.013333,307.262073 170.797333,306.945406 169.708,306.312073 C168.618667,305.678739 167.77,304.785739 167.162,303.633073 C166.554,302.480406 166.25,301.144073 166.25,299.624073 C166.25,298.104073 166.554,296.761406 167.162,295.596073 C167.77,294.430739 168.618667,293.537739 169.708,292.917073 C170.797333,292.296406 172.013333,291.986073 173.356,291.986073 C175.509333,291.986073 177.225667,292.663739 178.505,294.019073 C179.784333,295.374406 180.424,297.242739 180.424,299.624073 C180.424,302.005406 179.784333,303.873739 178.505,305.229073 C177.225667,306.584406 175.509333,307.262073 173.356,307.262073 Z M198.398,310.036073 L198.398,306.996073 L196.27,306.996073 C195.054,306.996073 194.199,306.749073 193.705,306.255073 C193.211,305.761073 192.964,304.842739 192.964,303.500073 L192.964,303.500073 L192.964,292.176073 L198.36,292.176073 L198.36,289.174073 L192.964,289.174073 L192.964,283.968073 L189.468,283.968073 L189.468,289.174073 L186.352,289.174073 L186.352,292.176073 L189.468,292.176073 L189.468,303.424073 C189.468,305.805406 189.993667,307.502739 191.045,308.516073 C192.096333,309.529406 193.686,310.036073 195.814,310.036073 L195.814,310.036073 L198.398,310.036073 Z M223.858,310.264073 C227.126,310.264073 229.824,309.459739 231.952,307.851073 C234.08,306.242406 235.549333,304.044739 236.36,301.258073 L236.36,301.258073 L232.712,301.258073 C232.028,303.031406 230.926,304.443739 229.406,305.495073 C227.886,306.546406 226.024,307.072073 223.82,307.072073 C222.072,307.072073 220.507667,306.647739 219.127,305.799073 C217.746333,304.950406 216.657,303.740739 215.859,302.170073 C215.061,300.599406 214.662,298.762739 214.662,296.660073 C214.662,294.532073 215.061,292.676406 215.859,291.093073 C216.657,289.509739 217.746333,288.293739 219.127,287.445073 C220.507667,286.596406 222.072,286.172073 223.82,286.172073 C226.024,286.172073 227.886,286.697739 229.406,287.749073 C230.926,288.800406 232.028,290.212739 232.712,291.986073 L232.712,291.986073 L236.36,291.986073 C235.549333,289.199406 234.08,287.001739 231.952,285.393073 C229.824,283.784406 227.126,282.980073 223.858,282.980073 C221.35,282.980073 219.133333,283.556406 217.208,284.709073 C215.282667,285.861739 213.781667,287.476739 212.705,289.554073 C211.628333,291.631406 211.09,294.000073 211.09,296.660073 C211.09,299.294739 211.628333,301.644406 212.705,303.709073 C213.781667,305.773739 215.282667,307.382406 217.208,308.535073 C219.133333,309.687739 221.35,310.264073 223.858,310.264073 Z M250.458,310.302073 C252.459333,310.302073 254.251667,309.871406 255.835,309.010073 C257.418333,308.148739 258.659667,306.913739 259.559,305.305073 C260.458333,303.696406 260.908,301.802739 260.908,299.624073 C260.908,297.445406 260.458333,295.545406 259.559,293.924073 C258.659667,292.302739 257.418333,291.061406 255.835,290.200073 C254.251667,289.338739 252.459333,288.908073 250.458,288.908073 C248.456667,288.908073 246.664333,289.338739 245.081,290.200073 C243.497667,291.061406 242.25,292.302739 241.338,293.924073 C240.426,295.545406 239.97,297.445406 239.97,299.624073 C239.97,301.802739 240.426,303.696406 241.338,305.305073 C242.25,306.913739 243.497667,308.148739 245.081,309.010073 C246.664333,309.871406 248.456667,310.302073 250.458,310.302073 Z M250.458,307.262073 C249.216667,307.262073 248.070333,306.983406 247.019,306.426073 C245.967667,305.868739 245.119,305.013739 244.473,303.861073 C243.827,302.708406 243.504,301.296073 243.504,299.624073 C243.504,297.926739 243.827,296.501739 244.473,295.349073 C245.119,294.196406 245.967667,293.341406 247.019,292.784073 C248.070333,292.226739 249.216667,291.948073 250.458,291.948073 C251.699333,291.948073 252.845667,292.226739 253.897,292.784073 C254.948333,293.341406 255.797,294.196406 256.443,295.349073 C257.089,296.501739 257.412,297.926739 257.412,299.624073 C257.412,301.296073 257.089,302.708406 256.443,303.861073 C255.797,305.013739 254.948333,305.868739 253.897,306.426073 C252.845667,306.983406 251.699333,307.262073 250.458,307.262073 Z M268.888,310.036073 L268.888,298.978073 C268.888,296.647406 269.439,294.880406 270.541,293.677073 C271.643,292.473739 273.118667,291.872073 274.968,291.872073 C276.690667,291.872073 278.058667,292.416739 279.072,293.506073 C280.085333,294.595406 280.592,296.166073 280.592,298.218073 L280.592,298.218073 L280.592,310.036073 L284.05,310.036073 L284.05,298.978073 C284.05,296.647406 284.601,294.880406 285.703,293.677073 C286.805,292.473739 288.268,291.872073 290.092,291.872073 C291.84,291.872073 293.214333,292.416739 294.215,293.506073 C295.215667,294.595406 295.716,296.166073 295.716,298.218073 L295.716,298.218073 L295.716,310.036073 L299.174,310.036073 L299.174,297.914073 C299.174,294.975406 298.433,292.727073 296.951,291.169073 C295.469,289.611073 293.512,288.832073 291.08,288.832073 C289.357333,288.832073 287.812,289.294406 286.444,290.219073 C285.076,291.143739 284.100667,292.454739 283.518,294.152073 C282.960667,292.404073 282.029667,291.080406 280.725,290.181073 C279.420333,289.281739 277.881333,288.832073 276.108,288.832073 C274.410667,288.832073 272.909667,289.269073 271.605,290.143073 C270.300333,291.017073 269.394667,292.277406 268.888,293.924073 L268.888,293.924073 L268.888,289.174073 L265.43,289.174073 L265.43,310.036073 L268.888,310.036073 Z M307.99,319.916073 L307.99,304.716073 C308.522,306.388073 309.491,307.737073 310.897,308.763073 C312.303,309.789073 314.019333,310.302073 316.046,310.302073 C317.895333,310.302073 319.542,309.871406 320.986,309.010073 C322.43,308.148739 323.563667,306.913739 324.387,305.305073 C325.210333,303.696406 325.622,301.802739 325.622,299.624073 C325.622,297.445406 325.210333,295.545406 324.387,293.924073 C323.563667,292.302739 322.43,291.061406 320.986,290.200073 C319.542,289.338739 317.895333,288.908073 316.046,288.908073 C314.019333,288.908073 312.303,289.421073 310.897,290.447073 C309.491,291.473073 308.522,292.822073 307.99,294.494073 L307.99,294.494073 L307.99,289.174073 L304.532,289.174073 L304.532,319.916073 L307.99,319.916073 Z M315.058,307.262073 C313.715333,307.262073 312.499333,306.945406 311.41,306.312073 C310.320667,305.678739 309.472,304.785739 308.864,303.633073 C308.256,302.480406 307.952,301.144073 307.952,299.624073 C307.952,298.104073 308.256,296.761406 308.864,295.596073 C309.472,294.430739 310.320667,293.537739 311.41,292.917073 C312.499333,292.296406 313.715333,291.986073 315.058,291.986073 C317.211333,291.986073 318.927667,292.663739 320.207,294.019073 C321.486333,295.374406 322.126,297.242739 322.126,299.624073 C322.126,302.005406 321.486333,303.873739 320.207,305.229073 C318.927667,306.584406 317.211333,307.262073 315.058,307.262073 Z M338.694,310.302073 C340.720667,310.302073 342.437,309.795406 343.843,308.782073 C345.249,307.768739 346.230667,306.413406 346.788,304.716073 L346.788,304.716073 L346.788,310.036073 L350.246,310.036073 L350.246,289.174073 L346.788,289.174073 L346.788,294.494073 C346.230667,292.796739 345.249,291.441406 343.843,290.428073 C342.437,289.414739 340.720667,288.908073 338.694,288.908073 C336.844667,288.908073 335.198,289.338739 333.754,290.200073 C332.31,291.061406 331.176333,292.302739 330.353,293.924073 C329.529667,295.545406 329.118,297.445406 329.118,299.624073 C329.118,301.802739 329.529667,303.696406 330.353,305.305073 C331.176333,306.913739 332.31,308.148739 333.754,309.010073 C335.198,309.871406 336.844667,310.302073 338.694,310.302073 Z M339.682,307.262073 C337.554,307.262073 335.850333,306.584406 334.571,305.229073 C333.291667,303.873739 332.652,302.005406 332.652,299.624073 C332.652,297.242739 333.291667,295.374406 334.571,294.019073 C335.850333,292.663739 337.554,291.986073 339.682,291.986073 C341.05,291.986073 342.272333,292.296406 343.349,292.917073 C344.425667,293.537739 345.268,294.430739 345.876,295.596073 C346.484,296.761406 346.788,298.104073 346.788,299.624073 C346.788,301.144073 346.484,302.480406 345.876,303.633073 C345.268,304.785739 344.425667,305.678739 343.349,306.312073 C342.272333,306.945406 341.05,307.262073 339.682,307.262073 Z M359.214,310.036073 L359.214,298.978073 C359.214,296.622073 359.784,294.829739 360.924,293.601073 C362.064,292.372406 363.584,291.758073 365.484,291.758073 C367.308,291.758073 368.752,292.315406 369.816,293.430073 C370.88,294.544739 371.412,296.140739 371.412,298.218073 L371.412,298.218073 L371.412,310.036073 L374.87,310.036073 L374.87,297.914073 C374.87,294.975406 374.122667,292.727073 372.628,291.169073 C371.133333,289.611073 369.17,288.832073 366.738,288.832073 C364.964667,288.832073 363.400333,289.288073 362.045,290.200073 C360.689667,291.112073 359.746,292.416739 359.214,294.114073 L359.214,294.114073 L359.214,289.174073 L355.756,289.174073 L355.756,310.036073 L359.214,310.036073 Z M386.118,319.916073 L398.506,289.174073 L394.668,289.174073 L388.398,305.590073 L381.634,289.174073 L377.758,289.174073 L386.536,309.694073 L382.204,319.916073 L386.118,319.916073 Z" id="JavaScriptCompany" fill="#FFFFFF" fill-rule="nonzero"></path>
    </g>
</svg>