<svg width="400" height="400" viewBox="0 0 400 400" xmlns="http://www.w3.org/2000/svg"><path d="M13.479 242.755v-77.638h18.075c4.682 0 8.6.468 11.753 1.405 3.153.936 5.682 2.42 7.586 4.448 1.904 2.03 3.247 4.527 4.027 7.493.812 2.934 1.218 6.555 1.218 10.863v28.002c0 4.433-.406 8.195-1.218 11.286-.811 3.09-2.154 5.712-4.027 7.867-1.842 2.154-4.308 3.746-7.399 4.776-3.09.999-6.883 1.498-11.378 1.498H13.479zm14.141-9.927h4.027c1.405 0 2.638-.125 3.7-.374 1.061-.25 1.95-.547 2.669-.89.718-.344 1.31-.905 1.78-1.686.499-.78.873-1.499 1.123-2.154.25-.656.437-1.639.562-2.95.125-1.342.203-2.482.234-3.418.031-.937.047-2.326.047-4.168v-28.377c0-1.842-.031-3.324-.094-4.448a20.854 20.854 0 00-.468-3.372c-.219-1.155-.562-2.045-1.03-2.669-.437-.624-1.03-1.186-1.78-1.686-.749-.53-1.685-.89-2.81-1.077-1.123-.218-2.481-.327-4.073-.327H27.62v57.596zm39.381 9.927v-77.638h13.955v77.638H67zm45.328 1.03c-7.336 0-12.627-2.294-15.874-6.883-3.215-4.59-4.823-11.27-4.823-20.042v-25.286c0-4.464.343-8.304 1.03-11.52.718-3.246 1.905-6.087 3.559-8.522 1.655-2.435 3.933-4.26 6.837-5.478 2.903-1.218 6.462-1.827 10.676-1.827 7.68 0 13.19 1.889 16.53 5.666 3.34 3.746 5.01 9.444 5.01 17.092v3.793h-13.533v-4.027c0-1.717-.047-3.122-.14-4.214a15.021 15.021 0 00-.562-3.278c-.281-1.124-.702-1.983-1.265-2.576-.561-.593-1.326-1.077-2.294-1.451-.968-.375-2.154-.562-3.559-.562-1.06 0-2.013.14-2.856.421-.812.25-1.498.578-2.06.983-.562.375-1.046.921-1.452 1.64-.375.717-.671 1.42-.89 2.107-.187.655-.343 1.514-.468 2.575a57.735 57.735 0 00-.187 2.81 84.971 84.971 0 00-.047 3.137v31.327c0 4.682.577 8.116 1.732 10.302 1.156 2.154 3.357 3.23 6.603 3.23 1.686 0 3.09-.312 4.214-.936 1.155-.656 2.045-1.623 2.67-2.903.655-1.311 1.108-2.794 1.358-4.448.28-1.686.42-3.715.42-6.088v-6.368h-8.38v-9.132h21.118v39.428h-9.179l-1.03-7.867c-2.34 5.932-6.727 8.897-13.158 8.897zm34.465-1.03v-77.638h13.954v77.638h-13.954zm33.48 0V175.56h-13.017v-10.442h39.755v10.442h-12.596v67.196h-14.141zm46.593-27.253h10.395l-5.198-31.888-5.197 31.888zm-18.028 27.253l15.78-77.638h14.75l15.734 77.638h-13.158l-3.138-18.028h-13.439l-3.184 18.028H208.84zm53.944 0v-77.638h14.141v67.852h18.59v9.786h-32.731zm58.814 1.077c-3.809 0-7.025-.53-9.647-1.592-2.622-1.092-4.651-2.7-6.087-4.823-1.436-2.154-2.466-4.589-3.09-7.305-.594-2.747-.89-6.01-.89-9.787h13.064c0 2.123.078 3.887.234 5.292.157 1.405.469 2.778.937 4.12.468 1.312 1.202 2.295 2.2 2.95 1 .656 2.264.969 3.794.937.968 0 1.81-.171 2.528-.515.75-.343 1.358-.734 1.827-1.17.499-.438.92-1.125 1.264-2.061.343-.968.593-1.81.75-2.529.186-.749.311-1.841.374-3.278.093-1.467.14-2.669.14-3.605.031-.937.047-2.31.047-4.12 0-1.968-.047-3.606-.14-4.917a26.337 26.337 0 00-.515-4.028c-.281-1.373-.672-2.45-1.171-3.23-.5-.781-1.202-1.421-2.107-1.92-.906-.5-1.998-.75-3.278-.75-1.842 0-3.403.625-4.683 1.873-1.248 1.249-2.138 2.872-2.669 4.87h-11.426l.61-43.127h35.26v12.128H315.04l-.796 18.31c1.03-1.125 2.45-2.03 4.261-2.717 1.842-.718 3.871-1.108 6.088-1.17 3.028-.125 5.665.343 7.913 1.404 2.248 1.062 4.043 2.654 5.385 4.777 1.374 2.123 2.388 4.636 3.044 7.539.656 2.872.983 6.165.983 9.88 0 3.434-.171 6.493-.515 9.178a35.187 35.187 0 01-1.826 7.82c-.874 2.498-2.06 4.558-3.559 6.181-1.467 1.623-3.418 2.935-5.853 3.934-2.435.967-5.291 1.451-8.57 1.451zm47.856 0c-3.808 0-7.024-.53-9.646-1.592-2.622-1.092-4.651-2.7-6.087-4.823-1.437-2.154-2.467-4.589-3.09-7.305-.594-2.747-.89-6.01-.89-9.787h13.064c0 2.123.078 3.887.234 5.292.156 1.405.468 2.778.936 4.12.469 1.312 1.202 2.295 2.201 2.95 1 .656 2.264.969 3.793.937.968 0 1.811-.171 2.529-.515.75-.343 1.358-.734 1.826-1.17.5-.438.921-1.125 1.265-2.061.343-.968.593-1.81.749-2.529.187-.749.312-1.841.374-3.278.094-1.467.14-2.669.14-3.605.032-.937.048-2.31.048-4.12 0-1.968-.047-3.606-.141-4.917a26.287 26.287 0 00-.515-4.028c-.281-1.373-.671-2.45-1.17-3.23-.5-.781-1.202-1.421-2.108-1.92-.905-.5-1.998-.75-3.278-.75-1.841 0-3.402.625-4.682 1.873-1.25 1.249-2.139 2.872-2.67 4.87H350.91l.609-43.127h35.26v12.128h-23.881l-.796 18.31c1.03-1.125 2.45-2.03 4.26-2.717 1.842-.718 3.872-1.108 6.088-1.17 3.028-.125 5.666.343 7.914 1.404 2.248 1.062 4.042 2.654 5.385 4.777 1.373 2.123 2.388 4.636 3.044 7.539.655 2.872.983 6.165.983 9.88 0 3.434-.172 6.493-.515 9.178a35.187 35.187 0 01-1.826 7.82c-.874 2.498-2.06 4.558-3.56 6.181-1.466 1.623-3.418 2.935-5.852 3.934-2.435.967-5.292 1.451-8.57 1.451zM8.664 310.302c2.255 0 4.009-.64 5.263-1.919 1.254-1.28 1.881-3.02 1.881-5.225v-19.912H12.35v19.912c0 1.14-.304 2.09-.912 2.85-.608.76-1.583 1.14-2.926 1.14-1.419 0-2.47-.45-3.154-1.349-.684-.9-1.026-2.122-1.026-3.667H.874c0 2.584.69 4.592 2.071 6.023 1.38 1.431 3.287 2.147 5.719 2.147zm21.052 0c2.027 0 3.743-.507 5.149-1.52 1.406-1.013 2.388-2.369 2.945-4.066v5.32h3.458v-20.862H37.81v5.32c-.557-1.697-1.539-3.053-2.945-4.066s-3.122-1.52-5.149-1.52c-1.85 0-3.496.43-4.94 1.292-1.444.861-2.578 2.103-3.401 3.724s-1.235 3.521-1.235 5.7c0 2.179.412 4.072 1.235 5.681.823 1.609 1.957 2.844 3.401 3.705 1.444.861 3.09 1.292 4.94 1.292zm.988-3.04c-2.128 0-3.832-.678-5.111-2.033-1.28-1.355-1.919-3.224-1.919-5.605 0-2.381.64-4.25 1.919-5.605 1.28-1.355 2.983-2.033 5.111-2.033 1.368 0 2.59.31 3.667.931 1.077.62 1.919 1.514 2.527 2.68.608 1.164.912 2.507.912 4.027s-.304 2.856-.912 4.01c-.608 1.152-1.45 2.045-2.527 2.678-1.077.633-2.299.95-3.667.95zm26.182 2.774l8.17-20.862h-3.724l-6.46 17.176-6.536-17.176h-3.724l8.17 20.862h4.104zm20.102.266c2.027 0 3.743-.507 5.149-1.52 1.406-1.013 2.388-2.369 2.945-4.066v5.32h3.458v-20.862h-3.458v5.32c-.557-1.697-1.539-3.053-2.945-4.066s-3.122-1.52-5.149-1.52c-1.85 0-3.496.43-4.94 1.292-1.444.861-2.578 2.103-3.401 3.724s-1.235 3.521-1.235 5.7c0 2.179.412 4.072 1.235 5.681.823 1.609 1.957 2.844 3.401 3.705 1.444.861 3.09 1.292 4.94 1.292zm.988-3.04c-2.128 0-3.832-.678-5.111-2.033-1.28-1.355-1.919-3.224-1.919-5.605 0-2.381.64-4.25 1.919-5.605 1.28-1.355 2.983-2.033 5.111-2.033 1.368 0 2.59.31 3.667.931 1.077.62 1.919 1.514 2.527 2.68.608 1.164.912 2.507.912 4.027s-.304 2.856-.912 4.01c-.608 1.152-1.45 2.045-2.527 2.678-1.077.633-2.299.95-3.667.95zm24.738 3.04c1.824 0 3.357-.342 4.598-1.026 1.241-.684 2.166-1.57 2.774-2.66a7.133 7.133 0 00.912-3.534c0-1.697-.367-3.059-1.102-4.085-.735-1.026-1.628-1.792-2.679-2.299-1.051-.507-2.438-1.039-4.161-1.596-1.419-.456-2.533-.868-3.344-1.235a5.686 5.686 0 01-2.033-1.52c-.545-.646-.817-1.488-.817-2.527 0-1.317.418-2.337 1.254-3.059.836-.722 1.95-1.083 3.344-1.083 1.52 0 2.723.405 3.61 1.216.887.81 1.431 1.748 1.634 2.812h3.724c-.253-1.976-1.153-3.604-2.698-4.883-1.545-1.28-3.635-1.919-6.27-1.919-1.697 0-3.173.291-4.427.874-1.254.583-2.217 1.406-2.888 2.47-.671 1.064-1.007 2.293-1.007 3.686 0 1.621.361 2.926 1.083 3.914s1.596 1.73 2.622 2.223c1.026.494 2.388 1.02 4.085 1.577 1.444.456 2.584.88 3.42 1.273a6.058 6.058 0 012.109 1.615c.57.684.855 1.57.855 2.66 0 1.267-.405 2.305-1.216 3.116-.81.81-1.976 1.216-3.496 1.216-1.165 0-2.16-.234-2.983-.703s-1.457-1.064-1.9-1.786c-.443-.722-.703-1.463-.779-2.223h-3.686c.127 1.444.602 2.73 1.425 3.857.823 1.127 1.925 2.014 3.306 2.66 1.38.646 2.958.97 4.731.97zm22.154 0c2.66 0 4.864-.703 6.612-2.109 1.748-1.406 2.825-3.312 3.23-5.719h-3.648c-.253 1.495-.944 2.673-2.071 3.534-1.127.861-2.527 1.292-4.199 1.292-1.216 0-2.324-.279-3.325-.836-1-.557-1.805-1.412-2.413-2.565-.608-1.153-.912-2.578-.912-4.275 0-1.697.304-3.122.912-4.275.608-1.153 1.412-2.008 2.413-2.565 1-.557 2.109-.836 3.325-.836 1.672 0 3.072.424 4.199 1.273 1.127.849 1.818 2.02 2.071 3.515h3.648c-.405-2.381-1.482-4.281-3.23-5.7-1.748-1.419-3.952-2.128-6.612-2.128-2.001 0-3.775.43-5.32 1.292-1.545.861-2.755 2.103-3.629 3.724-.874 1.621-1.311 3.521-1.311 5.7 0 2.179.437 4.072 1.311 5.681.874 1.609 2.084 2.844 3.629 3.705 1.545.861 3.319 1.292 5.32 1.292zm17.822-.266v-10.982c0-2.305.62-3.958 1.862-4.959 1.241-1 2.837-1.5 4.788-1.5h1.064v-3.763c-1.824 0-3.395.4-4.712 1.197-1.317.798-2.318 1.92-3.002 3.363v-4.218h-3.458v20.862h3.458zm12.882-24.852c.71 0 1.28-.196 1.71-.589.43-.393.646-.906.646-1.539 0-.633-.215-1.146-.646-1.539-.43-.393-1-.589-1.71-.589s-1.28.196-1.71.59c-.43.392-.646.905-.646 1.538s.215 1.146.646 1.54c.43.392 1 .588 1.71.588zm1.71 24.852v-20.862h-3.458v20.862h3.458zm9.006 9.88v-15.2c.532 1.672 1.501 3.021 2.907 4.047 1.406 1.026 3.122 1.54 5.149 1.54 1.85 0 3.496-.432 4.94-1.293 1.444-.861 2.578-2.096 3.401-3.705s1.235-3.502 1.235-5.68c0-2.18-.412-4.08-1.235-5.7-.823-1.622-1.957-2.864-3.401-3.725-1.444-.861-3.09-1.292-4.94-1.292-2.027 0-3.743.513-5.149 1.54-1.406 1.025-2.375 2.374-2.907 4.046v-5.32h-3.458v30.742h3.458zm7.068-12.654c-1.343 0-2.559-.317-3.648-.95-1.09-.633-1.938-1.526-2.546-2.679-.608-1.153-.912-2.489-.912-4.009 0-1.52.304-2.863.912-4.028.608-1.165 1.457-2.058 2.546-2.679 1.09-.62 2.305-.93 3.648-.93 2.153 0 3.87.677 5.149 2.032 1.28 1.355 1.919 3.224 1.919 5.605 0 2.381-.64 4.25-1.919 5.605-1.28 1.355-2.996 2.033-5.149 2.033zm25.042 2.774v-3.04h-2.128c-1.216 0-2.071-.247-2.565-.74-.494-.495-.741-1.413-.741-2.756v-11.324h5.396v-3.002h-5.396v-5.206h-3.496v5.206h-3.116v3.002h3.116v11.248c0 2.381.526 4.079 1.577 5.092s2.641 1.52 4.769 1.52h2.584zm25.46.228c3.268 0 5.966-.804 8.094-2.413 2.128-1.609 3.597-3.806 4.408-6.593h-3.648c-.684 1.773-1.786 3.186-3.306 4.237-1.52 1.051-3.382 1.577-5.586 1.577-1.748 0-3.312-.424-4.693-1.273-1.38-.849-2.47-2.058-3.268-3.629-.798-1.57-1.197-3.407-1.197-5.51 0-2.128.399-3.984 1.197-5.567.798-1.583 1.887-2.8 3.268-3.648 1.38-.849 2.945-1.273 4.693-1.273 2.204 0 4.066.526 5.586 1.577 1.52 1.051 2.622 2.464 3.306 4.237h3.648c-.81-2.787-2.28-4.984-4.408-6.593-2.128-1.609-4.826-2.413-8.094-2.413-2.508 0-4.725.576-6.65 1.73-1.925 1.152-3.426 2.767-4.503 4.844-1.077 2.077-1.615 4.446-1.615 7.106 0 2.635.538 4.984 1.615 7.05 1.077 2.064 2.578 3.672 4.503 4.825 1.925 1.153 4.142 1.73 6.65 1.73zm26.6.038c2.001 0 3.794-.43 5.377-1.292 1.583-.861 2.825-2.096 3.724-3.705.9-1.609 1.349-3.502 1.349-5.68 0-2.18-.45-4.08-1.349-5.7-.9-1.622-2.14-2.864-3.724-3.725-1.583-.861-3.376-1.292-5.377-1.292s-3.794.43-5.377 1.292c-1.583.861-2.831 2.103-3.743 3.724-.912 1.621-1.368 3.521-1.368 5.7 0 2.179.456 4.072 1.368 5.681.912 1.609 2.16 2.844 3.743 3.705 1.583.861 3.376 1.292 5.377 1.292zm0-3.04a7.229 7.229 0 01-3.439-.836c-1.051-.557-1.9-1.412-2.546-2.565-.646-1.153-.969-2.565-.969-4.237 0-1.697.323-3.122.969-4.275.646-1.153 1.495-2.008 2.546-2.565a7.229 7.229 0 013.439-.836c1.241 0 2.388.279 3.439.836 1.051.557 1.9 1.412 2.546 2.565.646 1.153.969 2.578.969 4.275 0 1.672-.323 3.084-.969 4.237-.646 1.153-1.495 2.008-2.546 2.565a7.229 7.229 0 01-3.439.836zm18.43 2.774v-11.058c0-2.33.551-4.098 1.653-5.3 1.102-1.204 2.578-1.806 4.427-1.806 1.723 0 3.09.545 4.104 1.634 1.013 1.09 1.52 2.66 1.52 4.712v11.818h3.458v-11.058c0-2.33.551-4.098 1.653-5.3 1.102-1.204 2.565-1.806 4.389-1.806 1.748 0 3.122.545 4.123 1.634 1 1.09 1.501 2.66 1.501 4.712v11.818h3.458v-12.122c0-2.939-.741-5.187-2.223-6.745-1.482-1.558-3.439-2.337-5.871-2.337-1.723 0-3.268.462-4.636 1.387-1.368.925-2.343 2.236-2.926 3.933-.557-1.748-1.488-3.072-2.793-3.97-1.305-.9-2.844-1.35-4.617-1.35-1.697 0-3.198.437-4.503 1.311-1.305.874-2.21 2.134-2.717 3.781v-4.75h-3.458v20.862h3.458zm39.102 9.88v-15.2c.532 1.672 1.501 3.021 2.907 4.047 1.406 1.026 3.122 1.54 5.149 1.54 1.85 0 3.496-.432 4.94-1.293 1.444-.861 2.578-2.096 3.401-3.705s1.235-3.502 1.235-5.68c0-2.18-.412-4.08-1.235-5.7-.823-1.622-1.957-2.864-3.401-3.725-1.444-.861-3.09-1.292-4.94-1.292-2.027 0-3.743.513-5.149 1.54-1.406 1.025-2.375 2.374-2.907 4.046v-5.32h-3.458v30.742h3.458zm7.068-12.654c-1.343 0-2.559-.317-3.648-.95-1.09-.633-1.938-1.526-2.546-2.679-.608-1.153-.912-2.489-.912-4.009 0-1.52.304-2.863.912-4.028.608-1.165 1.457-2.058 2.546-2.679 1.09-.62 2.305-.93 3.648-.93 2.153 0 3.87.677 5.149 2.032 1.28 1.355 1.919 3.224 1.919 5.605 0 2.381-.64 4.25-1.919 5.605-1.28 1.355-2.996 2.033-5.149 2.033zm23.636 3.04c2.027 0 3.743-.507 5.149-1.52 1.406-1.013 2.388-2.369 2.945-4.066v5.32h3.458v-20.862h-3.458v5.32c-.557-1.697-1.539-3.053-2.945-4.066s-3.122-1.52-5.149-1.52c-1.85 0-3.496.43-4.94 1.292-1.444.861-2.578 2.103-3.401 3.724s-1.235 3.521-1.235 5.7c0 2.179.412 4.072 1.235 5.681.823 1.609 1.957 2.844 3.401 3.705 1.444.861 3.09 1.292 4.94 1.292zm.988-3.04c-2.128 0-3.832-.678-5.111-2.033-1.28-1.355-1.919-3.224-1.919-5.605 0-2.381.64-4.25 1.919-5.605 1.28-1.355 2.983-2.033 5.111-2.033 1.368 0 2.59.31 3.667.931 1.077.62 1.919 1.514 2.527 2.68.608 1.164.912 2.507.912 4.027s-.304 2.856-.912 4.01c-.608 1.152-1.45 2.045-2.527 2.678-1.077.633-2.299.95-3.667.95zm19.532 2.774v-11.058c0-2.356.57-4.148 1.71-5.377 1.14-1.229 2.66-1.843 4.56-1.843 1.824 0 3.268.557 4.332 1.672 1.064 1.115 1.596 2.71 1.596 4.788v11.818h3.458v-12.122c0-2.939-.747-5.187-2.242-6.745-1.495-1.558-3.458-2.337-5.89-2.337-1.773 0-3.338.456-4.693 1.368-1.355.912-2.299 2.217-2.831 3.914v-4.94h-3.458v20.862h3.458zm26.904 9.88l12.388-30.742h-3.838l-6.27 16.416-6.764-16.416h-3.876l8.778 20.52-4.332 10.222h3.914z" fill="#FFF"/></svg>