<?xml version="1.0" encoding="UTF-8"?>
<svg width="400px" height="360px" viewBox="0 0 400 360" version="1.1" xmlns="http://www.w3.org/2000/svg" xmlns:xlink="http://www.w3.org/1999/xlink">
    <title>logos/eventbrite</title>
    <g id="logos/eventbrite" stroke="none" stroke-width="1" fill="none" fill-rule="evenodd">
        <path d="M372.638201,224.523065 C378.034766,223.300672 383.421311,225.515007 386.421183,229.701203 L362.56448,235.097767 C363.388092,230.047881 367.239632,225.743455 372.638201,224.523065 Z M386.555446,244.381943 C384.668701,247.11285 381.820059,249.030315 378.579833,249.750452 C373.147197,250.980861 367.724582,248.728452 364.738736,244.48815 L388.667581,239.07355 L392.565211,238.191824 L400.019805,236.506525 C399.974535,234.905117 399.76639,233.312475 399.398589,231.75322 C396.36465,218.87601 383.254985,210.848295 370.117266,213.820113 C356.979546,216.793934 348.787509,229.643089 351.821449,242.518294 C354.853384,255.395504 367.963049,263.425223 381.100768,260.453405 C388.841922,258.699973 394.863711,253.519832 397.885627,246.924921 L386.555446,244.381943 L386.555446,244.381943 Z M330.241202,259.80213 L330.241202,225.663298 L322.872777,225.663298 L322.872777,214.032528 L330.241202,214.032528 L330.241202,198.023187 L342.753697,198.023187 L342.753697,214.032528 L352.152096,214.032528 L352.152096,225.663298 L342.753697,225.663298 L342.753697,259.80213 L330.241202,259.80213 Z M306.338408,259.80213 L318.422064,259.80213 L318.422064,214.032528 L306.338408,214.032528 L306.338408,259.80213 Z M304.767332,197.975093 C304.767332,193.7388 308.107872,190.560578 312.430334,190.560578 C316.752796,190.560578 319.995143,193.7388 319.995143,197.975093 C319.995143,202.21339 316.752796,205.485797 312.430334,205.485797 C308.107872,205.485797 304.767332,202.21339 304.767332,197.975093 Z M302.132173,214.160779 C295.954079,214.481407 292.310947,215.429263 288.605693,218.11452 L288.605693,214.032528 L276.528049,214.032528 L276.528049,259.80213 L288.603689,259.80213 L288.603689,237.358192 C288.603689,230.296368 290.327063,226.278502 302.132173,225.883729 L302.132173,214.160779 L302.132173,214.160779 Z M234.798356,237.636738 C235.098944,244.315813 240.912325,249.916778 248.028256,249.916778 C255.246386,249.916778 261.159963,244.021236 261.159963,237.047584 C261.159963,230.170121 255.246386,224.276583 248.028256,224.276583 C240.914329,224.276583 235.098944,229.973736 234.798356,236.556623 L234.798356,237.636738 Z M223.015289,259.80213 L223.015289,192.193775 L235.098944,189.460424 L235.098944,217.439198 C238.832253,214.453352 243.254911,213.2009 248.068334,213.2009 C261.823262,213.2009 272.826803,223.793637 272.826803,237.083655 C272.826803,250.27548 261.825266,261.060594 248.068334,261.060594 C243.254911,261.060594 238.832253,259.810146 235.098944,256.824301 L235.098944,259.804134 L223.015289,259.804134 L223.015289,259.80213 Z M197.294937,259.80213 L197.294937,225.428839 L189.926512,225.428839 L189.926512,214.032528 L197.294937,214.032528 L197.294937,198.011164 L209.807432,195.179621 L209.807432,214.032528 L219.205831,214.032528 L219.205831,225.428839 L209.807432,225.428839 L209.807432,259.80213 L197.294937,259.80213 Z M175.151587,259.80213 L175.151587,235.348258 C175.151587,226.488914 170.33616,224.563144 165.520733,224.563144 C160.70731,224.563144 155.893887,226.392726 155.893887,235.155881 L155.893887,259.80213 L143.810231,259.80213 L143.810231,214.032528 L155.893887,214.032528 L155.893887,217.437194 C158.545077,215.511424 161.787425,213.198896 168.175931,213.198896 C178.391931,213.198896 187.235243,219.074399 187.235243,233.422488 L187.235243,259.80213 L175.151587,259.80213 Z M113.208323,224.523065 C118.606891,223.300672 123.993436,225.515007 126.991305,229.701203 L103.136606,235.097767 C103.958214,230.047881 107.811758,225.743455 113.208323,224.523065 L113.208323,224.523065 Z M127.125568,244.381943 C125.238823,247.11285 122.39018,249.030315 119.149954,249.750452 C113.719323,250.980861 108.296707,248.728452 105.308858,244.48815 L129.239707,239.07355 L133.137337,238.191824 L140.589927,236.506525 C140.544656,234.905117 140.336512,233.312475 139.968711,231.75322 C136.934771,218.87601 123.825107,210.848295 110.687387,213.820113 C97.5496681,216.793934 89.3576308,229.643089 92.3915703,242.518294 C95.4255097,255.395504 108.53317,263.425223 121.672893,260.453405 C129.414048,258.699973 135.435837,253.519832 138.455749,246.924921 L127.125568,244.381943 L127.125568,244.381943 Z M63.9258438,259.80213 L45.1591047,214.032528 L58.3248789,214.032528 L70.2141542,245.073296 L82.1996178,214.032528 L95.3653921,214.032528 L76.6006569,259.80213 L63.9258438,259.80213 Z M21.4667228,224.511042 C26.8652914,223.288649 32.2518365,225.502984 35.2517093,229.689179 L11.3950057,235.087748 C12.2166141,230.037862 16.0701581,225.733435 21.4667228,224.511042 Z M35.3839682,244.369919 C33.4975839,247.10158 30.6488941,249.019793 27.4083545,249.740433 C21.9777232,250.968838 16.5551075,248.718432 13.5672582,244.478131 L37.498107,239.063531 L41.3957372,238.181805 L48.848327,236.494502 C48.8029209,234.893765 48.5947772,233.301802 48.2271108,231.7432 C45.1931714,218.865991 32.0855109,210.836271 18.9457876,213.808089 C5.80806829,216.781911 -2.37996117,229.633069 0.649970436,242.510278 C3.68390989,255.387488 16.7935743,263.415203 29.9312936,260.443386 C37.6724483,258.691957 43.6942369,253.509812 46.7161529,246.916905 L35.3839682,244.371923 L35.3839682,244.369919 Z" id="Shape" fill="#FFFFFF" fill-rule="nonzero"></path>
    </g>
</svg>