<?xml version="1.0" encoding="UTF-8"?>
<svg width="600px" height="400px" viewBox="0 0 600 400" version="1.1" xmlns="http://www.w3.org/2000/svg" xmlns:xlink="http://www.w3.org/1999/xlink">
    <title>logos/eventbrite</title>
    <g id="logos/eventbrite" stroke="none" stroke-width="1" fill="none" fill-rule="evenodd">
        <path d="M558.947399,201.151598 C567.042246,199.318009 575.122064,202.639511 579.621873,208.918804 L543.836817,217.013651 C545.072236,209.438822 550.849546,202.982182 558.947399,201.151598 Z M579.823267,230.939914 C576.993149,235.036275 572.720186,237.912473 567.859846,238.992679 C559.710894,240.838292 551.57697,237.459677 547.098202,231.099226 L582.991469,222.977326 L588.837915,221.654737 L600.019805,219.126788 C599.951899,216.724676 599.639683,214.335713 599.087981,211.99683 C594.537072,192.681016 574.872575,180.639442 555.165996,185.097169 C535.459417,189.557902 523.171361,208.831633 527.72227,228.144441 C532.270174,247.460255 551.93467,259.504835 571.641249,255.047108 C583.252981,252.416959 592.285664,244.646747 596.818538,234.754381 L579.823267,230.939914 L579.823267,230.939914 Z M495.3519,254.070195 L495.3519,202.861946 L484.299262,202.861946 L484.299262,185.415793 L495.3519,185.415793 L495.3519,161.401781 L514.120643,161.401781 L514.120643,185.415793 L528.218241,185.415793 L528.218241,202.861946 L514.120643,202.861946 L514.120643,254.070195 L495.3519,254.070195 Z M459.497709,254.070195 L477.623193,254.070195 L477.623193,185.415793 L459.497709,185.415793 L459.497709,254.070195 Z M457.141096,161.32964 C457.141096,154.9752 462.151905,150.207867 468.635598,150.207867 C475.119291,150.207867 479.982812,154.9752 479.982812,161.32964 C479.982812,167.687086 475.119291,172.595695 468.635598,172.595695 C462.151905,172.595695 457.141096,167.687086 457.141096,161.32964 Z M453.188357,185.608169 C443.921215,186.089111 438.456517,187.510894 432.898637,191.538779 L432.898637,185.415793 L414.782171,185.415793 L414.782171,254.070195 L432.895631,254.070195 L432.895631,220.404289 C432.895631,209.811551 435.480692,203.784753 453.188357,203.192594 L453.188357,185.608169 L453.188357,185.608169 Z M352.187631,220.822107 C352.638514,230.84072 361.358585,239.242167 372.032481,239.242167 C382.859677,239.242167 391.730042,230.398855 391.730042,219.938376 C391.730042,209.622181 382.859677,200.781874 372.032481,200.781874 C361.361591,200.781874 352.638514,209.327604 352.187631,219.201935 L352.187631,220.822107 Z M334.51303,254.070195 L334.51303,152.657663 L352.638514,148.557636 L352.638514,190.525796 C358.238477,186.047028 364.872464,184.168351 372.092599,184.168351 C392.72499,184.168351 409.230302,200.057456 409.230302,219.992482 C409.230302,239.78022 392.727996,255.957891 372.092599,255.957891 C364.872464,255.957891 358.238477,254.082219 352.638514,249.603451 L352.638514,254.073201 L334.51303,254.073201 L334.51303,254.070195 Z M295.932502,254.070195 L295.932502,202.510258 L284.879865,202.510258 L284.879865,185.415793 L295.932502,185.415793 L295.932502,161.383746 L314.701245,157.136431 L314.701245,185.415793 L328.798844,185.415793 L328.798844,202.510258 L314.701245,202.510258 L314.701245,254.070195 L295.932502,254.070195 Z M262.717478,254.070195 L262.717478,217.389386 C262.717478,204.100371 255.494338,201.211716 248.271197,201.211716 C241.051062,201.211716 233.830928,203.956088 233.830928,217.100821 L233.830928,254.070195 L215.705444,254.070195 L215.705444,185.415793 L233.830928,185.415793 L233.830928,190.52279 C237.807713,187.634135 242.671234,184.165345 252.253994,184.165345 C267.577993,184.165345 280.842962,192.978598 280.842962,214.500731 L280.842962,254.070195 L262.717478,254.070195 Z M169.802581,201.151598 C177.900434,199.318009 185.980252,202.639511 190.477055,208.918804 L154.695006,217.013651 C155.927418,209.438822 161.707734,202.982182 169.802581,201.151598 L169.802581,201.151598 Z M190.678449,230.939914 C187.848331,235.036275 183.575368,237.912473 178.715029,238.992679 C170.569082,240.838292 162.435158,237.459677 157.953385,231.099226 L193.849658,222.977326 L199.696103,221.654737 L210.874988,219.126788 C210.807082,216.724676 210.494865,214.335713 209.943163,211.99683 C205.392254,192.681016 185.727758,180.639442 166.021179,185.097169 C146.3146,189.557902 134.026544,208.831633 138.577453,228.144441 C143.128362,247.460255 162.789853,259.504835 182.499438,255.047108 C194.11117,252.416959 203.143853,244.646747 207.673721,234.754381 L190.678449,230.939914 L190.678449,230.939914 Z M95.8788631,254.070195 L67.7287545,185.415793 L87.4774158,185.415793 L105.311329,231.976944 L123.289524,185.415793 L143.038186,185.415793 L114.891083,254.070195 L95.8788631,254.070195 Z M32.1901816,201.133563 C40.2880346,199.299973 48.3678522,202.621476 52.8676613,208.900768 L17.082606,216.998621 C18.3150186,209.423792 24.0953346,202.967152 32.1901816,201.133563 Z M53.0660497,230.921879 C50.2364732,235.01937 45.9634386,237.89669 41.1026293,238.977649 C32.9566822,240.820256 24.8227586,237.444648 20.3409848,231.084196 L56.2372579,222.962296 L62.0837033,221.639707 L73.2625879,219.108752 C73.1944789,216.707648 72.8822633,214.319703 72.3307637,211.9818 C67.7798545,192.665986 48.1183638,180.621407 28.4087789,185.079134 C8.70219989,189.539866 -3.57984431,208.816604 0.965053103,228.132418 C5.51596229,247.448232 25.1804589,259.489805 44.8870379,255.032078 C56.4987698,252.404935 65.5314529,244.631718 70.0643267,234.742358 L53.0660497,230.924884 L53.0660497,230.921879 Z" id="Shape" fill="#FFFFFF" fill-rule="nonzero"></path>
    </g>
</svg>