<svg width="400" height="400" viewBox="0 0 400 400" xmlns="http://www.w3.org/2000/svg"><path d="M105.538 234.205c24.103 24.103 24.103 63.282 0 87.385-24.102 24.102-63.282 24.102-87.384 0-24.103-24.103-24.103-63.282 0-87.385 24.102-24.102 63.282-24.102 87.384 0zm-43.794-6.256c-13.334 0-25.847 5.23-35.282 14.666-9.436 9.436-14.565 21.95-14.667 35.282 0 13.334 5.23 25.847 14.667 35.282 9.435 9.436 21.948 14.667 35.282 14.667 13.333 0 25.846-5.23 35.282-14.667 9.436-9.435 14.666-21.948 14.666-35.282 0-13.333-5.23-25.846-14.666-35.282-9.436-9.436-21.95-14.666-35.282-14.666zm13.64 14.666c3.315 1.206 4.859 5.066 3.189 8.21l-.111.2-.308.41c-1.393 2.388-4.232 3.328-6.834 2.541l-.243-.079c-2.77-.923-5.744-1.435-8.82-1.333-12.513.308-22.975 10.36-23.795 22.974-.924 14.257 10.461 26.154 24.512 26.154 11.898 0 21.847-8.41 24.103-19.692.598-2.69 2.938-4.703 5.704-4.816l.245-.005.216.004c3.591.133 6.436 3.556 5.732 7.176-3.384 16.82-18.153 29.538-36 29.538-20.718 0-37.436-17.23-36.512-38.05.717-19.078 16.307-34.565 35.384-35.283 4.718-.205 9.333.513 13.539 2.051zm320 14.154c.924 0 1.744.308 2.462.923.718.616 1.128 1.436 1.23 2.462 0 .44-.074.879-.225 1.254l-.082.182-22.154 46.974c-.307.718-.718 1.23-1.333 1.641-.615.308-1.23.513-1.846.513-.923 0-1.744-.308-2.462-.923-.718-.616-1.128-1.333-1.128-2.257 0-.256.08-.552.19-.889l.22-.649 6.565-13.949-14.462-30.666a2.84 2.84 0 01-.308-1.334c0-.923.41-1.743 1.231-2.359.82-.615 1.641-.923 2.667-.923 1.367 0 2.456.558 3.088 1.852l.091.2 11.59 25.743 11.487-25.64c.308-.719.718-1.334 1.333-1.642.616-.308 1.231-.513 1.847-.513zm-229.948-.307c2.77 0 5.23.512 7.385 1.743 2.034 1.163 3.519 2.782 4.628 4.773l.192.355v-3.18c0-1.025.308-1.948 1.026-2.563.718-.616 1.64-.923 2.769-.923 1.23 0 2.051.307 2.77 1.025.67.575.982 1.417.854 2.444l-.034.223v30.462c0 5.538-1.436 9.743-4.41 12.615-2.975 2.872-7.385 4.308-13.129 4.308-5.143 0-9.523-.954-13.048-2.861l-.388-.216-.1-.086c-.419-.39-.663-.99-.466-1.534l.053-.124 1.436-3.18c.29-.675 1.034-.987 1.719-.68l.128.065h.101l.609.266c1.602.69 3.05 1.227 4.418 1.683 1.538.513 3.384.718 5.538.718 6.76 0 10.145-3.374 10.254-10.024l.003-.335v-5.744c-1.129 2.257-2.667 3.898-4.82 5.129-2.155 1.23-4.616 1.846-7.488 1.846-3.18 0-6.051-.718-8.513-2.257-2.461-1.538-4.41-3.59-5.744-6.359-1.333-2.769-2.05-5.948-2.05-9.538 0-3.487.615-6.667 2.05-9.436 1.334-2.667 3.283-4.82 5.744-6.36 2.462-1.538 5.333-2.255 8.513-2.255zm43.487 0c4.923 0 8.718 1.538 11.59 4.717 2.872 3.18 4.308 7.385 4.308 12.718 0 1.978-.859 2.907-2.575 2.88l-.195-.008h-23.077c.513 7.693 4.308 11.59 11.18 11.59 1.846 0 3.487-.205 4.82-.718 1.436-.513 2.77-1.128 4.308-1.949.037-.037.115-.088.234-.152l.209-.107.27-.127.518-.23c.615-.307 1.23-.512 1.64-.512a2.19 2.19 0 011.744.82c.513.513.718 1.231.718 2.052 0 1.436-.923 2.667-2.666 3.692a21.843 21.843 0 01-5.744 2.36c-2.051.512-4.102.82-5.949.82-5.743 0-10.256-1.641-13.64-5.026-3.385-3.282-5.026-7.897-5.026-13.744 0-3.794.718-7.076 2.154-9.948 1.435-2.975 3.487-5.128 6.153-6.77 2.565-1.538 5.641-2.358 9.026-2.358zm142.872-13.539c1.128 0 2.051.308 2.77.923.67.575 1.071 1.328 1.122 2.426l.005.24v46.667a1.14 1.14 0 01-1.006 1.122l-.122.007h-5.333a1.14 1.14 0 01-1.122-1.007l-.006-.122v-46.666c0-1.128.307-2.051 1.025-2.667.718-.615 1.539-.923 2.667-.923zm-16.205 0c1.128 0 2.051.308 2.769.923.67.575.983 1.328 1.105 2.426l.023.24v46.667a1.14 1.14 0 01-1.006 1.122l-.122.007h-5.333a1.14 1.14 0 01-1.122-1.007l-.007-.122v-46.666c0-1.128.308-2.051 1.026-2.667.718-.615 1.539-.923 2.667-.923zm-82.667 13.641c8.6 0 12.908 4.691 13.023 14.27l.003.397v21.948a.919.919 0 01-.815.917l-.108.007h-5.641a.919.919 0 01-.917-.815l-.006-.109v-21.64c0-3.077-.616-5.334-1.847-6.77-1.23-1.436-3.18-2.154-5.743-2.154-2.975 0-5.436 1.026-7.282 2.872-1.773 1.772-2.694 4.206-2.765 7.211l-.004.379v20.205a.919.919 0 01-.815.917l-.109.006v.103h-5.743a.919.919 0 01-.917-.815l-.006-.108v-33.026c0-1.026.41-1.846 1.128-2.564s1.744-1.026 2.77-1.026c1.025 0 1.948.308 2.563.923.564.658.87 1.403.917 2.312l.006.252v1.641c0 .41.513.513.718.206 1.129-1.641 2.564-2.872 4.308-3.795 2.154-1.129 4.615-1.744 7.282-1.744zm26.77.103c1.025 0 1.948.307 2.666.923.67.67.983 1.43 1.021 2.528l.005.241v33.026c0 .378-.35.757-.726.813l-.095.007h-5.949c-.378 0-.757-.35-.813-.726l-.007-.094v-33.026c0-1.23.41-2.154 1.128-2.77.718-.615 1.744-.922 2.77-.922zm29.025-.205c4.82 0 8.41 1.23 10.77 3.692 2.282 2.382 3.508 5.917 3.585 10.697l.004.482v21.744a1.14 1.14 0 01-1.007 1.121l-.121.007h-5.026a1.14 1.14 0 01-1.121-1.006l-.007-.122v-5.23c-.872 2.033-2.201 3.519-3.729 4.455l-.271.16c-1.846 1.128-4.103 1.64-6.564 1.64-2.36 0-4.616-.512-6.564-1.435-2.052-1.026-3.59-2.36-4.718-4.103-1.128-1.743-1.641-3.692-1.641-5.846 0-2.667.718-4.718 2.051-6.256 1.333-1.539 3.59-2.667 6.77-3.283.978-.189 2.063-.35 3.258-.48l.916-.093c.47-.044.953-.083 1.453-.119l1.021-.065.527-.029 1.084-.05 1.127-.037c.191-.006.384-.01.58-.015l1.19-.022c.405-.006.816-.01 1.235-.011l2.377-.002v-2.153c0-2.77-.615-4.82-1.743-6.052-1.128-1.23-2.975-1.846-5.539-1.846-1.743 0-3.384.308-4.923.718-1.64.41-3.282 1.128-5.128 1.949l-.485.254c-.078.04-.155.08-.231.117l-.437.209-.206.092-.384.161c-.488.192-.872.295-1.129.295-.718 0-1.333-.308-1.846-.82-.513-.513-.718-1.231-.718-2.052 0-.718.205-1.333.616-1.949.41-.512 1.128-1.128 2.05-1.64 1.744-.924 3.796-1.642 6.155-2.257 2.359-.513 4.615-.82 6.769-.82zM71.795 273.59c4.41 0 7.897 3.59 7.897 7.897 0 4.41-3.59 7.898-7.897 7.898-4.41 0-7.898-3.59-7.898-7.898 0-4.41 3.59-7.897 7.898-7.897zm244 5.128v-1.949l-1.846.001-1 .01-.484.009-.942.024-.902.033-.86.04-.819.05a59.9 59.9 0 00-.392.027l-.752.06-.706.066-.658.073c-.211.025-.415.052-.61.079l-.286.041c-2.153.308-3.59.923-4.512 1.744-.923.82-1.334 2.05-1.334 3.59 0 1.748.553 3.13 1.744 4.229l.205.18c1.23 1.129 2.872 1.744 4.82 1.744 2.667 0 4.924-.923 6.77-2.872 1.57-1.765 2.482-4 2.559-6.795l.005-.384zm-148.513-16.205c-3.282 0-5.846 1.025-7.692 3.18-1.846 2.153-2.77 5.128-2.77 8.922 0 3.795 1.026 6.77 2.872 8.923 1.846 2.154 4.41 3.18 7.693 3.18 3.18 0 5.743-1.026 7.59-3.18 1.846-2.153 2.769-5.128 2.769-8.923 0-3.692-.923-6.666-2.77-8.82-1.846-2.154-4.41-3.282-7.692-3.282zm41.949-.513c-2.872 0-5.231.923-6.975 2.77-1.664 1.761-2.768 4.178-3.132 6.892l-.047.39h19.282c-.103-2.873-1.026-5.437-2.564-7.283-1.539-1.846-3.692-2.769-6.564-2.769zm70.359-21.333c2.461 0 4.41 2.05 4.41 4.41a4.378 4.378 0 01-4.41 4.41 4.378 4.378 0 01-4.41-4.41 4.378 4.378 0 014.41-4.41z" fill="#FFF" fill-rule="nonzero"/></svg>