<svg width="400" height="400" viewBox="0 0 400 400" xmlns="http://www.w3.org/2000/svg"><path d="M96.387 102.521c9.588-4.155 14.559-1.857 19.776.349 6.324 2.682 11.012 5.387 15.117 8.23l.583.406c5.288 3.727 7.699 6.948.424 21.55l-.468.937c-.878 1.809-2.067 4.73-4.505 9.76l-.901 1.836c-2.126 4.276-4.64 8.96-6.392 12.109l-1.222 2.181c-2.087 3.815-5.784 11.982.293 22.344l1.3 2.173c2.005 3.317 4.928 8.073 6.81 11.426l.274.493c3.287 5.947 6.487 10.708 7.804 15.372 2.192 7.793-1.43 12.68-4.358 16.383l-.588.741c-2.231 2.824-4.321 5.189-7.558 8.644l-1.342 1.422c-4.254 4.457-5.598 5.277-6.8 7.055-2.905 4.306-2.584 6.526.327 11.156l.256.403c2.726 4.254 4.758 7.98 6.453 11.212l.335.64c4.808 9.152 1.796 11.551-2.967 14.94l-1.235.872c-2.138 1.487-3.31 2.158-5.891 3.542l-1.512.808c-4.604 2.462-6.908 3.04-17.575 1.203l-1.415-.254c-6.254-1.158-13.961-3.061-18.144-4.284-4.067-1.191-7.042-2.776-9.516-4.975-1.745-1.548-4.249-4.19-6.415-6.538l-2.453-2.68c-2.104-2.31-2.424-3.418-7.342-4.533-6.108-1.394-10.104-1.322-12.72-2.492-2.617-1.17-4.797-2.705-6.688-5.339l-8.65-12.293c-1.234-1.758-2.975-4.509-4.254-4.979l-2.379-.832a60.088 60.088 0 01-1.872-.703c-1.97-.771-3.416-1.862-4.65-3.912-1.216-2.014-3.2-6.77-4.362-10.063C.802 223.54.423 221.564.29 218.347c-.15-3.783.278-10.464.837-13.212.508-2.483 1.346-4.823 3.525-6.4 1.22-.88 3.054-1.497 4.325-2.194 1.088-.595 1.417-1.392 2-2.709l.082-.202c.872-2.306 5.71-17.917 7.043-21.162 1.38-3.365 2.763-5.416 5.596-7.24 2.834-1.832 13.955-7.172 16.501-8.56 2.546-1.393 3.925-2.491 5.087-4.32l.234-.396c1.887-3.344 10.924-21.443 12.996-24.924 2.183-3.653 4.58-6.87 8.795-9.36l1.128-.653c5.632-3.205 21.469-11.685 27.948-14.494zm-7.86 150.245l-6.808-1.07c-17.967-2.763-17.241-1.295-22.303 7.719l-.171.303c-2.466 4.354-2.294 7.266 1.74 11.34l.744.738c4.294 4.326 5.67 7.527 19.993 10.502l8.809 1.804c8.229 1.64 8.344 1.058 15.915-2.977l.68-.376c6.248-3.574 6.158-7.382 1.021-14.911l-2.716-3.867c-4.739-6.643-6.14-7.464-16.904-9.205zM32.03 223.15l-1.055-.046c-5.54-.188-7.305.908-8.298 7.798l-.244 1.8c-.959 7.315-.638 8.426 5.478 17.242l.869 1.23c3.797 5.287 5.586 6.308 11.973 7.938l.755.188c6.118 1.477 7.942.724 11.159-5.484l.194-.38c3.638-7.14 2.932-9.21-2.868-17.287l-2.123-2.93c-6.642-9.141-8.858-9.725-15.84-10.07zm247.39-33.305h14.874l1.347-.027c.79-.007 1.56.044 2.154.379.7.385 1.524 1.241 1.72 2.025l1.984 31.259.459 7.552c.039.498.118.976.363 1.368.401.63 1.191.907 1.943.907l25.338-30.629c2.218-2.681 4.332-5.501 6.553-8.183 1.043-1.152 2.622-4.617 7.462-4.617l52.821-.063c3.3.036 4.682.363 3.273 3.242l-.12.24c-.848 1.656-1.103 2.481-2.071 4.129-1.234 2.087-2.592 1.875-3.949 1.875l-21.75.09c-1.683 0-4.21-.246-5.72.085-.456.098-.945.407-1.32.682-1.804 1.317-2.201 3.656-2.978 5.575l-.528 1.393-.533 1.393c-.259.708-.667 1.44-.756 2.216-.117.919.952 2.058 1.754 2.261.618.157 1.466.098 2.16.098l4.234.004h14.599l.521-.01c1.375-.041 3.735-.187 4.527.154 1.208.512 1.884 1.788 1.411 3.054-.726 1.902-1.206 4.274-2.97 5.578-1.598 1.186-4.296.776-6.492.776h-20.194c-.798 0-1.721-.106-2.422.105-.953.276-1.975 1.152-2.535 2.034-.71 1.092-1.028 2.545-1.528 3.773-.894 2.377-1.8 4.753-2.715 7.133-.18.547-.114 1.013.18 1.487.291.49.725.961 1.256 1.199 1.003.44 3.98.186 5.308.186h21.698l.82-.01c.373.002.74.028 1.038.137.832.3 1.5 1.207 1.654 2.075.09.518-.325 1.23-.497 1.678l-.546 1.507c-.606 1.63-1.37 3.24-3.066 3.927-.865.351-2.046.233-3.09.233l-5.321.005-32.075-.005c-.8-.012-1.703.11-2.405-.118-.777-.259-1.554-1.165-1.666-1.987-.138-.931.613-2.076.905-2.88l14.582-38.083c.95-2.477 2.97-8.141 3.434-9.398.655-1.746-.74-1.28-.994-1.606-1.027.055-2.046.394-2.699 1.317l-3.132 3.735c-2.034 2.44-4.236 5.092-6.003 7.189l-.572.678c-8.962 10.567-17.92 21.135-26.882 31.7l-3.728 4.374c-1.474 1.75-3.116 4.236-5.382 4.884-1.714.487-4.707.2-6.67.2-1.394 0-4.302.317-5.329-.272-.747-.432-1.457-1.045-1.791-1.863-.418-1-.337-2.385-.425-3.537l-.202-2.496-.207-2.49c-.84-10.156-1.68-20.305-2.528-30.459l-.562-6.92c-.077-1.186.032-2.724-.514-3.686-.61-1.062-2.113-1.206-3.671.094l-1.555 1.36c-1.635 1.442-3.462 3.077-5.022 4.442l-19.058 16.55-3.75 3.27-.786.652c-1.579 1.327-3.175 2.806-4.085 4.625-.718 1.402-1.19 2.935-1.786 4.413l-3.939 10.255c-.751 1.839-1.152 3.986-2.855 5.29-.385.284-.866.577-1.33.687-1.444.326-4.108.102-5.708.08-.84-.017-1.812.106-2.568-.089-.852-.22-1.845-1.309-1.804-2.253.147-.458.292-.919.43-1.381.385-.982.77-1.961 1.145-2.948l4.117-10.788.594-1.434c.446-1.104.834-2.276.777-3.53-.072-1.512-.736-2.876-1.261-4.181l-1.642-4.15-8.06-20.726c-.317-.775-.48-2.342-2.731-2.385-1.437.462-1.662 1.572-1.958 2.097l-18.132 47.85c-.924 2.69-2.627 4.13-4.761 4.13h-7.157c-1.703 0-2.342-1.25-1.892-2.69l7.061-18.577c.877-2.639-.095-4.016-2.372-4.016l-23.03.017c-3.168-.015-4.036 1.042-4.59 2.445l-1.207 3.245c-1.695 4.516-4.77 12.63-5.857 15.446-.928 2.69-3.153 4.13-4.648 4.13h-7.53c-2.315 0-2.273-1.803-2.021-2.603l15.472-41.002c1.973-5.266 3.526-9.436 4.151-11.183.749-2.103 2.87-3.537 5.486-3.653l.344-.007c1.746-.013 6.326-.008 6.326 0 1.608 0 2.606 1.352 2.109 2.694l-1.734 4.597a1760.046 1760.046 0 01-5.357 13.815c-.54 1.381-.104 2.521 1.642 2.521l23.952-.072c3.793 0 4.61-1.382 5.25-2.964l.702-1.775c1.67-4.278 4.296-11.537 5.633-15.016.881-2.211 3.06-3.8 5.287-3.8h21.147c3.123 0 4.843 1.203 5.687 3.173.571 1.337.706 1.86 1.101 3.003l3.838 11.114c.59 1.558.873 3.372 1.747 4.795.392.64 1.239 1.13 2.008 1.148 1.198.016 8.706-7.273 10.143-8.548l9.872-8.823c2.263-2.024 4.547-4.756 7.403-5.672 1.387-.444 3.337-.224 4.928-.224zm-166.597 5.44l-2.682-3.957c-6.591-9.682-8.033-10.486-25.277-8.283l-3.643.477c-15.731 2.14-17.538 4.004-24.354 17.575l-2.712 5.427c-5.514 11.148-5.453 12.913 1.761 23.805l.775 1.158c6.322 9.341 9.48 10.98 26.592 12.346l2.451.188c16.964 1.244 16.87-.28 28.246-13.277l3.098-3.514c7.149-8.191 8.998-12.306-4.255-31.946zm-97.246 17.85l-1.031-2.282c-2.96-6.468-3.584-7.026-5.59-6.23l-.435.182c-2.074.916-3.221 2.243-3.623 8.789l-.071 1.273c-.268 5.486.19 7.821 2.344 12.725l1.793 4.026c1.142 2.552 1.793 3.707 3.43 4.486l.23.104c2.358 1.015 3.2.931 4.545-6.106l.44-2.329c.941-5.19.973-7.829-2.032-14.638zm34.609-37.05l-1.087-2.226c-3.991-8.212-6.98-9.5-16.054-4.627l-.922.5c-8.338 4.568-9.333 6.515-12.292 16.463l-.325 1.097c-3.02 10.234-2.31 13.511.01 18.64l1.389 2.99c2.214 4.692 3.755 7.024 10.462 6.8l1.814-.088c6.48-.36 7.435-1.022 11.52-9.403l2.84-5.9c6.8-14.097 5.844-17.63 2.645-24.246zm63.514-61.037l-.842-.47c-10.676-5.932-15.528-3.635-26.73 2.012l-3.661 1.844c-13.688 6.932-17.912 10.323-24.151 23.218l-.91 1.895c-6.075 12.772-6.015 15.577-.519 25.001l.266.454c4.596 7.816 8.902 8.772 22.175 6.414l1.251-.227c19.583-3.627 22.547-6.284 31.794-24.422l4.307-8.531c9.297-18.529 9.23-20.34-2.98-27.188z" fill="#FFF" fill-rule="evenodd"/></svg>