<svg width="600" height="400" viewBox="0 0 600 400" xmlns="http://www.w3.org/2000/svg"><path d="M159.608 177.355c9.126 0 13.737 2.637 18.885 7.912l.712.742v-3.083c0-1.047.355-1.904 1.066-2.57.71-.666 1.54-.999 2.487-.999h16.057c1.042 0 1.895.333 2.558 1 .663.665.995 1.522.995 2.569v67.51c0 .951-.332 1.784-.995 2.498-.663.714-1.516 1.07-2.558 1.07h-16.057c-.948 0-1.777-.356-2.487-1.07-.71-.714-1.066-1.547-1.066-2.498v-3.684c-5.194 5.508-9.883 8.262-19.597 8.262-9.803 0-17.33-2.804-22.581-8.413-5.023-5.364-7.857-12.9-8.503-22.607l-.074-1.337c-.055-.873-.09-2.192-.106-3.957l-.011-2.515.01-2.515a96.9 96.9 0 01.085-3.555l.022-.402c.467-10.163 3.403-18.096 8.81-23.8 5.407-5.705 12.856-8.558 22.348-8.558zm433.698-28.696c1.042 0 1.918.333 2.628 1 .71.665 1.066 1.522 1.066 2.569v97.706c0 1.047-.355 1.903-1.066 2.57-.71.666-1.586.999-2.628.999h-16.91c-.947 0-1.776-.357-2.486-1.07-.71-.714-1.066-1.547-1.066-2.499v-4.425c-5.116 6.28-12.457 9.421-22.025 9.421-9.189 0-16.412-2.902-21.67-8.707-5.257-5.805-8.075-14.084-8.454-24.837l-.142-4.997.142-5.138c.38-10.373 3.22-18.533 8.526-24.48 5.305-5.949 12.504-8.922 21.598-8.922 8.526 0 15.394 2.76 20.604 8.279v-33.9c0-1.047.355-1.904 1.066-2.57.71-.666 1.539-.999 2.486-.999h18.33zm-121.807 28.988c8.147 0 15.039 1.641 20.675 4.925 5.637 3.283 9.853 7.803 12.647 13.56 2.795 5.758 4.192 12.301 4.192 19.629v3.569c0 1.047-.355 1.927-1.065 2.64-.71.714-1.587 1.071-2.63 1.071h-45.045v.857c.094 4.282 1.09 7.732 2.984 10.35 1.895 2.616 4.594 3.925 8.1 3.925 2.273 0 4.097-.452 5.47-1.356a18.2 18.2 0 003.16-2.673l.748-.825c.853-.951 1.54-1.546 2.06-1.784.522-.238 1.35-.357 2.487-.357h18.616c.852 0 1.587.262 2.202.785.616.523.924 1.166.924 1.927 0 2.475-1.397 5.377-4.192 8.708-2.795 3.33-6.868 6.186-12.22 8.565-5.353 2.38-11.677 3.569-18.971 3.569-11.558 0-20.652-3.117-27.284-9.35-6.631-6.234-10.041-15.298-10.23-27.194v-4.426c.378-11.324 3.883-20.175 10.515-26.551 6.631-6.376 15.583-9.564 26.857-9.564zm-379.828.283c7.768 0 14.092 2.64 18.97 7.922 4.88 5.282 7.319 13.157 7.319 23.625v40.959c0 .951-.332 1.784-.995 2.498-.663.714-1.516 1.07-2.558 1.07H96.93c-1.042 0-1.919-.333-2.63-.999-.71-.666-1.065-1.522-1.065-2.57v-39.958c0-4.378-.924-7.59-2.77-9.636-1.848-2.046-4.335-3.07-7.461-3.07-2.937 0-5.329 1.024-7.176 3.07-1.848 2.046-2.771 5.258-2.771 9.636v9.596a2.819 2.819 0 01-2.815 2.823H51.145a2.819 2.819 0 01-2.815-2.823v-9.596c0-4.378-.947-7.59-2.842-9.636-1.895-2.046-4.358-3.07-7.39-3.07-2.936 0-5.352 1.024-7.246 3.07-1.895 2.046-2.842 5.21-2.842 9.493v9.739a2.819 2.819 0 01-2.815 2.823H5.815A2.819 2.819 0 013 220.073v-37.147c0-1.047.355-1.904 1.066-2.57.71-.666 1.54-.999 2.487-.999h16.483c1.042 0 1.895.333 2.558 1 .663.665.995 1.522.995 2.569v4.853c2.273-2.76 5.21-5.091 8.81-6.994 3.6-1.904 7.673-2.855 12.22-2.855 10.421 0 17.574 4.092 21.458 12.276 2.274-3.616 5.447-6.566 9.52-8.85 4.074-2.284 8.432-3.426 13.074-3.426zm175.637 0c5.4 0 10.207 1.237 14.423 3.711 4.216 2.474 7.531 6.138 9.947 10.992 2.416 4.853 3.624 10.706 3.624 17.558v40.245c0 .951-.332 1.784-.995 2.498-.663.714-1.516 1.07-2.558 1.07h-18.9c-1.041 0-1.918-.333-2.628-.999-.71-.666-1.066-1.522-1.066-2.57v-39.387c0-4.283-1.018-7.566-3.055-9.85s-4.997-3.426-8.881-3.426c-3.79 0-6.774 1.166-8.953 3.497-2.179 2.332-3.268 5.591-3.268 9.779v9.025a2.819 2.819 0 01-2.815 2.823h-20.374a2.819 2.819 0 01-2.816-2.823v-37.147c0-1.047.356-1.904 1.066-2.57.71-.666 1.54-.999 2.487-.999h17.478c1.042 0 1.895.333 2.558 1 .663.665.995 1.522.995 2.569v5.424c2.558-3.14 5.85-5.662 9.876-7.565 4.026-1.904 8.644-2.855 13.855-2.855zm94.213-29.978c1.042 0 1.918.333 2.628 1 .711.665 1.066 1.522 1.066 2.569v12.276c0 1.047-.355 1.904-1.066 2.57-.71.666-1.586.999-2.628.999h-10.09c-3.031 0-5.186.69-6.465 2.07s-1.918 3.497-1.918 6.352v3.569H360.1c1.042 0 1.918.333 2.628 1 .711.665 1.066 1.522 1.066 2.569v12.276c0 1.047-.355 1.904-1.066 2.57-.71.666-1.586.999-2.628.999h-17.052v51.665c0 .951-.332 1.784-.995 2.498-.663.714-1.516 1.07-2.558 1.07h-17.336c-1.042 0-1.919-.333-2.63-.999-.71-.666-1.065-1.522-1.065-2.57v-51.664h-10.658c-1.042 0-1.918-.333-2.628-1-.71-.665-1.066-1.522-1.066-2.569v-12.276c0-1.047.355-1.904 1.066-2.57.71-.666 1.586-.999 2.628-.999h10.658v-4.282c0-9.517 2.747-16.417 8.242-20.7 5.495-4.282 13.357-6.423 23.589-6.423h11.226zm34.107 83.428a2.819 2.819 0 012.815 2.823v16.979a2.819 2.819 0 01-2.815 2.822h-20.34a2.819 2.819 0 01-2.815-2.822v-16.98a2.819 2.819 0 012.815-2.822h20.34zm-153.443 0a2.819 2.819 0 012.816 2.823v16.979a2.819 2.819 0 01-2.816 2.822h-20.382a2.819 2.819 0 01-2.815-2.822v-16.98a2.819 2.819 0 012.815-2.822h20.382zm-171.924 0a2.819 2.819 0 012.815 2.823v16.979a2.819 2.819 0 01-2.815 2.822H51.117a2.819 2.819 0 01-2.815-2.822v-16.98a2.819 2.819 0 012.815-2.822h19.144zm-45.058 0a2.819 2.819 0 012.815 2.823v16.979a2.819 2.819 0 01-2.815 2.822H5.821a2.819 2.819 0 01-2.816-2.822v-16.98a2.819 2.819 0 012.816-2.822h19.382zm138.655-35.904c-3.913 0-6.824 1.246-8.733 3.739-1.909 2.493-3.006 6.232-3.293 11.217l-.143 5.753.143 5.752c.287 5.082 1.384 8.845 3.293 11.29 1.909 2.445 4.82 3.667 8.733 3.667 3.913 0 6.824-1.222 8.732-3.667 1.773-2.27 2.846-5.677 3.22-10.22l.125-1.76c.045-.805.074-1.956.086-3.451v-3.222c-.014-1.745-.05-3.02-.11-3.825l-.028-.317c-.286-4.985-1.384-8.724-3.293-11.217-1.908-2.493-4.82-3.74-8.732-3.74zm395.203 2.214c-4.263 0-7.318 1.26-9.165 3.783-1.848 2.522-2.913 6.019-3.198 10.491l-.142 4.425.142 4.426c.285 4.472 1.35 7.97 3.198 10.491 1.847 2.522 4.902 3.783 9.165 3.783 4.073 0 7.104-1.309 9.094-3.926 1.823-2.398 2.89-5.377 3.202-8.935l.248-3.772c.068-1.187.102-2.067.102-2.637l-.031-1.285a82.518 82.518 0 00-.095-1.76l-.158-2.237c-.19-3.711-1.303-6.78-3.34-9.207-2.036-2.427-5.044-3.64-9.022-3.64zm-165.71-18.333c1.042 0 1.919.357 2.63 1.07.71.714 1.065 1.595 1.065 2.642v5.424c2.652-2.95 5.755-5.21 9.307-6.78 3.553-1.57 7.508-2.356 11.866-2.356h6.394c1.043 0 1.895.333 2.558 1 .663.665.995 1.522.995 2.569v15.56c0 .951-.332 1.784-.995 2.498-.663.713-1.515 1.07-2.558 1.07h-14.352c-3.79 0-6.702 1.047-8.739 3.14-2.037 2.094-3.055 5.045-3.055 8.851v6.028a2.819 2.819 0 01-2.815 2.823h-20.374a2.819 2.819 0 01-2.816-2.823v-37.004c0-1.047.332-1.928.995-2.641.663-.714 1.516-1.071 2.558-1.071h17.336zm78.148 14.42c-3.6 0-6.371 1.261-8.313 3.783-1.793 2.328-2.758 5.528-2.896 9.6l-.017 1.32h22.594v-.285c0-4.568-.995-8.113-2.984-10.635-1.99-2.522-4.784-3.783-8.384-3.783z" fill="#FFF"/></svg>