<svg width="400" height="360" viewBox="0 0 400 360" xmlns="http://www.w3.org/2000/svg"><g fill="#FFF"><path d="M17.004 243.05c9.382 0 17.004 7.422 17.004 16.6 0 9.177-7.622 16.599-17.004 16.599-9.382 0-17.004-7.422-17.004-16.6 0-9.177 7.622-16.599 17.004-16.599zm0 3.24c-7.612 0-13.765 5.99-13.765 13.36 0 7.369 6.153 13.36 13.765 13.36 7.612 0 13.765-5.991 13.765-13.36 0-7.37-6.153-13.36-13.765-13.36zm15.79-140.891c9.25 0 16.889 6.893 18.062 15.822a61.998 61.998 0 0113.516-1.482c33.307 0 60.324 26.307 60.324 58.78 0 24.775-15.728 45.962-37.977 54.613.476 1.741.73 3.574.73 5.465 0 11.635-9.614 21.053-21.457 21.053s-21.458-9.418-21.458-21.053c0-1.508.162-2.98.469-4.397-23.81-7.86-40.954-29.815-40.954-55.682 0-15.92 6.493-30.358 17.038-40.94a18.178 18.178 0 01-6.512-13.96c0-10.063 8.157-18.22 18.219-18.22zm50.864 128.829l-.222.074a61.706 61.706 0 01-19.064 2.995 61.86 61.86 0 01-16.256-2.159 17.525 17.525 0 00-.343 3.459c0 9.83 8.15 17.814 18.219 17.814 10.07 0 18.219-7.983 18.219-17.814 0-1.507-.192-2.97-.553-4.37zm-69.893-13.85c5.804 0 10.526 4.598 10.526 10.292s-4.722 10.292-10.526 10.292c-5.804 0-10.526-4.598-10.526-10.292s4.722-10.292 10.526-10.292zm0 3.24c-4.034 0-7.287 3.167-7.287 7.052 0 3.886 3.253 7.053 7.287 7.053s7.288-3.167 7.288-7.053c0-3.885-3.254-7.053-7.288-7.053zm52.227-2.835c-7.696 0-14.27 4.663-16.942 11.25a58.565 58.565 0 0015.322 2.025c6.36 0 12.476-1.011 18.189-2.878-2.878-6.134-9.21-10.397-16.57-10.397zm-1.62-97.805c-4.609 0-9.09.531-13.382 1.534-.467 9.647-8.435 17.324-18.196 17.324-3.275 0-6.348-.864-9.003-2.376-10.205 10.034-16.504 23.832-16.504 39.058 0 24.39 16.164 45.12 38.648 52.58 3.082-7.928 10.904-13.554 20.057-13.554 8.757 0 16.296 5.15 19.63 12.538 21.008-8.202 35.835-28.203 35.835-51.564 0-30.664-25.548-55.54-57.085-55.54zm-16.703 2.418l-.49.145a57.423 57.423 0 00-20.868 11.584 14.91 14.91 0 006.483 1.472c7.67 0 13.995-5.766 14.875-13.2zm-14.875-16.759c-8.274 0-14.98 6.707-14.98 14.98 0 4.741 2.202 8.968 5.64 11.713a60.652 60.652 0 0124.234-13.313c-.797-7.52-7.162-13.38-14.894-13.38zm-16.6-34.008c6.708 0 12.146 5.438 12.146 12.146 0 6.708-5.438 12.146-12.146 12.146-6.708 0-12.145-5.438-12.145-12.146 0-6.708 5.437-12.146 12.145-12.146zm0 3.24a8.907 8.907 0 100 17.813 8.907 8.907 0 000-17.814z" fill-opacity=".6"/><path d="M181.609 219.12c8.474 0 15.948 4.568 16.119 10.527l.003.209v20.457c0 6.417-7.148 10.142-15.815 10.227l-.307.002h-30.728v7.518c0 2.4-1.897 4.355-4.274 4.45l-.179.003a4.454 4.454 0 01-4.45-4.274l-.003-.18v-38.203c0-6.931 6.71-10.649 15.726-10.734l.32-.002h23.588zm129.162 0c5.779 0 12.902 4.623 13.082 10.932l.003.243v26.52a4.453 4.453 0 01-8.903.18l-.004-.18v-26.52c0 .023-.012-.012-.114-.155-.214-.299-.597-.65-1.11-.986-.977-.64-2.214-1.073-2.843-1.122l-.111-.005h-28.495c-3.439 0-4.758.793-4.82 2.164l-.003.104v26.52a4.453 4.453 0 01-8.903.18l-.004-.18v-26.52c0-7.302 5.75-11.08 13.441-11.173l.29-.002h28.494zm-64.62 0c2.984 0 6.395.58 9.25 1.847 4.378 1.945 7.244 5.41 7.354 10.233l.004.29v18.359c0 4.317-2.56 7.46-6.427 9.29-2.36 1.117-5.212 1.719-7.597 1.78l-.393.004h-29.578c-2.409 0-5.78-.945-8.55-2.37-3.858-1.982-6.492-4.701-6.607-8.447l-.004-.257v-7.883c0-4.035 2.515-7.046 6.294-8.904 2.534-1.246 5.659-1.956 8.451-2.02l.416-.005h35.024c-.478-1.688-3.557-2.954-7.38-3.008l-.257-.002h-9.346a4.453 4.453 0 01-.179-8.903l.18-.004h9.345zm123.754 0c2.41 0 5.78.945 8.551 2.37 3.857 1.982 6.491 4.702 6.606 8.448l.004.257v14.766l-47.009-.003v.152c0 4.506 2.598 6.823 7.434 6.904l.266.002h9.346a4.453 4.453 0 01.18 8.904l-.18.003h-9.346c-9.554 0-16.462-5.86-16.605-15.508l-.002-.305v-13.296c0-4.084 2.313-7.426 5.868-9.785 2.568-1.704 5.749-2.82 8.252-2.904l.297-.005h26.338zm25.642-10.887c2.4 0 4.355 1.897 4.45 4.274l.003.18v43.724a4.453 4.453 0 01-8.903.179l-.004-.18v-43.724a4.453 4.453 0 014.454-4.453zm-141.696 31.71h-35.087c-1.575 0-3.544.427-4.937 1.112-.984.484-1.285.808-1.314.898l-.003.013v7.449l.01.01c.311.328.851.716 1.551 1.094l.215.114c1.519.78 3.427 1.331 4.353 1.38l.125.003h29.578c2.73 0 5.37-1.215 5.504-2.098l.006-.07-.001-9.904zm-72.242-11.916H158.02c-2.782 0-4.988.453-6.315 1.172l-.238.134c-.46.27-.57.408-.584.502l-.001.02-.001 21.78h30.728c2.52 0 4.697-.433 6.17-1.126l.206-.101a4.43 4.43 0 00.775-.487l.063-.055v-19.499l-.077-.086a4.584 4.584 0 00-.78-.631l-.172-.11c-1.427-.884-3.459-1.459-5.842-1.51l-.343-.003zm188.296 0h-26.338c-.67 0-2.333.567-3.624 1.424-1.233.818-1.826 1.626-1.882 2.264l-.004.099v4.237l38.103.003v-5.425l-.01-.01c-.312-.328-.851-.716-1.551-1.095l-.215-.113c-1.52-.781-3.427-1.332-4.353-1.38l-.126-.004z"/></g></svg>