<svg width="400" height="360" viewBox="0 0 400 360" xmlns="http://www.w3.org/2000/svg"><path d="M353.854 215.287l14.39 43.147 14.42-43.147h16.906l-14.433 43.186h-33.753l-14.404-43.176-21.87 65.682h-16.906l21.874-65.692h33.776zM15.509 226.928c4.445 0 8.063 1.511 10.92 4.596 2.859 3.085 4.256 6.926 4.256 11.585 0 4.66-1.397 8.5-4.255 11.586-2.858 3.023-6.476 4.533-10.92 4.533-3.248 0-6.08-.936-8.44-2.753l-.261-.206v14.483h-7.24v-43.068h7.112v3.136c2.153-2.257 5.02-3.793 8.489-3.887l.34-.005zm56.327.756l8.5 24.648 8.73-24.648h7.756l-15.235 43.014h-7.758l4.282-12.089h-3.367l-10.665-30.925h7.757zm-23.905-.756c7.97.002 13.148 3.935 13.273 11.375l.002.277v19.96h-7.111v-2.395c-2.35 2.078-5.335 3.085-8.89 3.085-2.984 0-5.46-.819-7.493-2.52-1.969-1.7-2.984-4.03-2.984-6.863 0-6.647 4.994-9.902 12.447-9.986l.3-.002h6.49v-1.345c0-3.085-2.602-5.1-6.096-5.1-3.14 0-5.043 1.345-6.494 3.1l-.134.165-5.378-3.669c2.273-3.833 6.796-5.99 11.75-6.079l.318-.003zm111.104 0c4.658 0 8.677 1.61 12.181 4.887l.291.277-4.92 4.911c-2.024-2.582-4.585-3.904-7.752-3.904-2.766 0-4.518 1.32-4.518 2.895 0 1.399 1.006 2.328 3.017 2.844l.219.053 5.19 1.133c6.744 1.449 10.114 4.66 10.114 9.635 0 5.603-4.72 9.571-13.08 9.571-5.6 0-10.11-1.925-13.457-5.72l-.226-.262 4.853-4.66c2.427 2.96 5.595 4.47 9.437 4.47 3.572 0 5.056-1.387 5.056-3.149 0-1.283-.954-2.212-3.79-2.956l-.255-.065-4.383-1.007c-6.673-1.447-10.043-4.658-10.043-9.76 0-5.604 4.987-9.193 12.066-9.193zm48.223-.113c8.927 0 16.162 7.243 16.162 16.179 0 8.935-7.237 16.179-16.162 16.179-8.928 0-16.163-7.244-16.163-16.18 0-8.935 7.237-16.178 16.163-16.178zm-102.676.869l8.345 24.2 8.494-24.19 7.755.048-10.855 30.867H107.49l-10.665-30.925h7.758zm139.097-.756c7.592.002 12.208 4.922 12.316 13.363l.002.303v17.945h-7.24v-17.945c0-4.344-2.284-7.178-6.158-7.178-4.304 0-6.77 2.978-6.855 7.8l-.002.261v17.062h-7.24v-30.853h7.112v2.885c1.907-2.135 4.469-3.552 7.745-3.638l.32-.005zm-58.063.756v30.853h-7.239v-30.853h7.24zm-44.91 0v30.853h-7.24v-30.853h7.24zm150.554-12.397l14.433 43.186h-16.905l-14.433-43.186h16.905zM15 233.412c-5.335 0-8.32 4.22-8.32 9.761 0 5.541 2.985 9.76 8.32 9.76 2.51 0 4.489-.88 5.937-2.635l.158-.2c1.461-1.89 2.223-4.22 2.223-6.927s-.762-5.037-2.223-6.925c-1.46-1.888-3.493-2.834-6.096-2.834zm38.965 12.213h-6.558c-3.319.023-5.444 1.405-5.444 3.84 0 2.078 1.65 3.467 4.699 3.467 2.873 0 5.276-.817 7.094-2.451l.207-.192h.002v-4.664zm153.293-11.684c-4.994 0-9.043 4.053-9.043 9.053 0 5 4.049 9.053 9.043 9.053 4.994 0 9.042-4.053 9.042-9.053 0-5-4.048-9.053-9.042-9.053zm-73.796-18.753l7.225.036.033 7.23-7.223-.035-.035-7.23zm44.851 0l7.223.036.035 7.228-7.223-.033-.035-7.23z" fill="#FFF"/></svg>