<?xml version="1.0" encoding="UTF-8"?>
<svg width="400px" height="400px" viewBox="0 0 400 400" version="1.1" xmlns="http://www.w3.org/2000/svg" xmlns:xlink="http://www.w3.org/1999/xlink">
    <title>logos/personio</title>
    <g id="logos/personio" stroke="none" stroke-width="1" fill="none" fill-rule="evenodd">
        <path d="M57.2496194,255.177625 C52.4992129,272.096882 48.5817543,286.309057 48.2628914,288.235249 C48.0088317,290.26226 46.2776159,291.778123 44.2348069,291.762387 C44.0873057,291.762387 43.9376353,291.762387 43.7857958,291.762387 C41.588556,291.503732 40.0093698,289.523944 40.2457668,287.324212 C40.4214668,285.736405 43.6035885,274.036089 47.48851,260.123254 C41.9962591,262.680665 37.4801191,264.333546 34.6949492,264.678438 C34.2464391,264.741014 33.7942566,264.773623 33.3414087,264.776049 C30.6148055,264.776049 29.2417428,263.474568 28.5584651,262.329265 C27.6668197,260.793412 27.8862106,258.854835 29.0985373,257.557091 C30.310864,256.259347 32.230042,255.908677 33.8229568,256.693851 C36.2176823,256.355466 42.347659,253.837099 50.403828,249.659345 C54.4449273,235.297499 58.6226822,220.649327 60.7050522,213.361032 C61.3574841,211.274974 63.5544876,210.089855 65.6560953,210.690314 C67.7577031,211.290773 68.9969825,213.457688 68.4488657,215.57355 C65.9760513,224.228401 63.0997777,234.327895 60.3081004,244.206138 C63.7830554,242.19535 67.4662473,239.969817 71.1624541,237.568584 C91.2898618,224.553771 105.000967,212.11161 107.766614,204.179082 C108.807799,201.218212 108.046433,199.851657 106.575759,198.712861 C103.048745,195.973243 92.207406,195.634858 72.346802,202.884108 C42.5819257,213.744969 11.1381385,234.835473 8.13822417,245.83299 C8.44469064,245.893012 8.75651713,245.92136 9.06878327,245.917586 C10.5362556,245.800428 11.9507588,246.493148 12.7579449,247.724266 C13.5651311,248.955384 13.636418,250.528787 12.943868,251.827854 C12.2513181,253.126922 10.9052525,253.944715 9.43319802,253.96074 C8.58072779,253.999785 4.18172114,254.064859 1.62431047,251.032407 C0.137933735,249.215121 -0.395935701,246.799423 0.186173677,244.525001 C2.19045482,235.134814 15.0035378,224.853112 25.3958657,217.83162 C39.211662,208.636273 54.0507773,201.080226 69.6136914,195.315995 C83.8128519,190.11007 102.612749,185.411722 111.547418,192.34211 C115.712158,195.595813 117.221876,200.255116 115.803261,205.526115 C113.97468,212.33937 105.912004,224.339027 77.8976196,242.800538 C70.9151727,247.401275 63.7570257,251.657118 57.2496194,255.177625 Z M327.528232,249.782985 C324.430707,258.353239 317.174949,278.415573 326.174692,282.541269 C328.116622,283.511931 328.939943,285.846958 328.036288,287.820961 C327.132633,289.794963 324.827141,290.69769 322.823378,289.862101 C311.40288,284.656176 312.847524,270.535104 316.09472,258.776221 C303.281637,273.971015 295.271019,281.682291 288.919791,281.682291 L288.919791,281.682291 C286.957314,281.705498 285.106752,280.770502 283.961147,279.17694 C280.544759,274.4851 282.776799,264.997301 289.433876,244.128049 C289.661635,243.412235 289.895902,242.67039 290.136676,241.922039 C289.551009,242.689912 288.92196,243.557567 288.249528,244.525001 C284.156369,250.381667 279.887511,257.813125 276.119723,264.37259 C273.51676,268.927775 271.226153,272.910307 269.306468,275.83864 C267.386783,278.766973 264.556062,283.107413 260.527977,281.604202 C259.300182,281.12807 258.315317,280.178378 257.794867,278.968703 C257.144126,277.452477 255.842645,274.628263 260.879377,254.370707 C261.738355,250.908767 262.668914,247.394767 263.540906,244.245183 C256.734159,250.258026 250.753853,253.739488 245.762672,255.704725 C245.177574,259.067814 244.094099,262.324817 242.548014,265.368223 C235.162107,279.977351 226.227439,286.901231 217.396888,284.890442 C214.00653,284.109554 211.468641,281.695306 210.238741,278.103218 C207.186768,269.194578 212.509826,255.086521 224.483454,240.360261 C225.578232,239.011401 227.415383,238.517994 229.038638,239.136869 C229.863589,238.474615 230.733314,237.870156 231.641601,237.32781 C234.817215,235.473199 237.556833,235.04371 239.788873,236.026328 C242.567536,237.32781 244.116299,240.295187 244.923217,242.592301 C245.391807,243.947763 245.731693,245.344346 245.938372,246.763549 C251.092238,244.160586 257.619167,239.514298 265.265369,231.269414 C266.892221,229.512415 269.924672,226.252204 273.275986,228.354096 C276.6273,230.455989 275.026478,234.392969 274.284634,236.29964 C273.236942,238.980691 269.137276,253.550774 266.807624,264.39862 C267.601528,263.032065 268.388924,261.659002 269.137276,260.351013 C280.330015,240.828794 288.26905,228.015711 296.24713,227.384493 C297.670101,227.27064 299.056228,227.87341 299.943337,228.991822 C301.856515,231.40607 301.153715,233.872377 297.106108,246.561819 C295.004216,253.140807 290.390465,267.613279 290.383957,273.0795 C291.874153,272.292104 294.633294,270.352897 299.273074,265.608997 C304.25124,260.520206 309.567791,254.090888 313.83665,248.930515 C320.565308,240.796257 322.048996,239.169406 323.923129,238.518665 C325.465404,237.952007 327.196462,238.33584 328.354673,239.501283 C330.456565,241.635713 329.656154,243.854738 327.50871,249.782985 L327.528232,249.782985 Z M236.9126,257.891214 C235.695057,258.009642 234.470169,258.033574 233.24893,257.962795 C229.344486,257.715514 226.14935,256.388003 224.255695,254.279603 C217.396888,265.173001 216.785192,272.500341 217.806855,275.441688 C218.268881,276.788721 218.919621,276.944899 219.166903,276.996958 C223.884772,278.090203 229.923645,272.3767 235.311778,261.717568 C235.938172,260.48295 236.473213,259.204071 236.9126,257.891214 L236.9126,257.891214 Z M238.070918,249.581256 C238.024168,247.541366 237.514614,245.538752 236.580722,243.72459 C234.6285,244.518494 231.374797,247.479364 230.658982,249.177797 C231.867596,249.731244 233.189624,249.992083 234.517874,249.939163 C235.711703,249.949192 236.903074,249.829182 238.070918,249.581256 L238.070918,249.581256 Z M397.951383,236.878799 C387.136074,248.832904 377.778424,253.700444 370.522666,255.307773 C369.854016,257.4036 369.01389,259.440797 368.010807,261.398706 C359.329927,278.402558 350.987432,282.658402 344.818411,282.658402 C343.878092,282.657322 342.940395,282.559191 342.020226,282.365569 C338.701449,281.656261 336.163561,279.35264 334.946676,275.858162 C331.692972,266.747794 337.399968,251.676641 350.252095,235.59684 C351.326722,234.219801 353.167368,233.693902 354.80728,234.295358 C358.015431,231.58177 362.355871,229.180537 365.908915,230.774852 C368.043344,231.73144 369.754792,233.898407 370.861051,237.041484 C371.852817,240.070097 372.278555,243.255414 372.11698,246.438179 C377.459561,244.485957 384.13616,240.125994 392.010121,231.425592 C393.516265,229.843778 396.008659,229.750517 397.628802,231.215352 C399.248945,232.680187 399.406472,235.169346 397.98392,236.826739 L397.951383,236.878799 Z M361.737667,255.815351 C355.946076,255.125566 351.878947,252.451022 349.835621,250.017252 C347.480577,253.688612 345.51759,257.597137 343.978955,261.678524 C342.234971,266.467975 341.701363,270.788893 342.560341,273.164096 C342.976815,274.328922 343.497407,274.465577 343.725167,274.465577 C348.566677,275.493748 354.989487,269.259652 360.872182,257.715514 C361.145493,257.084295 361.470864,256.446569 361.737667,255.815351 L361.737667,255.815351 Z M362.752823,238.603261 C360.520782,239.592387 356.779024,243.243042 356.212879,245.065116 C357.06535,245.917586 359.466582,247.616019 363.494667,247.88933 L363.885111,247.88933 C364.399196,243.438264 363.572756,240.041398 362.752823,238.603261 L362.752823,238.603261 Z M342.169897,216.849002 C343.11347,213.211362 341.25886,209.573722 338.011664,208.727759 C334.764468,207.881796 331.374109,210.146374 330.417521,213.790521 C329.460932,217.434669 331.335065,221.059294 334.575753,221.905257 C337.816442,222.75122 341.213308,220.486642 342.169897,216.849002 Z M209.750686,232.661999 C208.065268,231.790007 205.481827,231.965707 203.89402,232.186959 C195.857373,233.31274 186.935719,238.88308 183.896761,242.31899 C184.97699,242.794031 186.499723,243.327638 187.697086,243.763635 C193.514707,245.83299 201.48628,248.676726 204.707446,255.789321 C206.659668,260.149284 206.496983,265.374731 204.141302,271.315993 C197.041721,289.224375 183.063813,293.636396 175.202866,293.636396 C173.868056,293.660636 172.536389,293.498559 171.246363,293.154848 C166.495956,291.749249 163.053538,288.794886 161.290031,284.617131 C156.871502,274.166237 164.283438,259.466006 165.142416,257.82614 C165.809654,256.54746 167.108375,255.721878 168.549364,255.660384 C169.990352,255.598889 171.354687,256.310824 172.128437,257.528009 C172.902187,258.745195 172.967801,260.282711 172.300563,261.561391 C170.458967,265.094912 166.229153,275.578344 168.734504,281.487069 C169.567452,283.439291 171.1032,284.708235 173.569507,285.437064 C174.298336,285.651809 178.326421,286.022731 183.330616,283.673557 C187.397745,281.773395 193.007129,277.56961 196.657784,268.348615 C198.180518,264.515753 198.421292,261.41172 197.380107,259.114606 C195.56454,255.112551 189.707875,253.023674 185.016035,251.344763 C180.46085,249.730926 176.894792,248.455474 175.528236,245.266845 C174.890083,243.749367 174.904202,242.036207 175.567281,240.529454 C164.042664,242.481675 154.782625,249.82203 147.9954,262.368309 C145.427685,267.19033 143.383559,272.273376 141.89796,277.530566 C140.778687,282.515239 139.945739,285.990194 139.945739,286.022731 C139.523614,287.840858 137.907761,289.130848 136.041295,289.139779 C135.792547,289.140746 135.544231,289.118964 135.299451,289.074705 C133.17907,288.681218 131.744764,286.687532 132.045747,284.552057 C132.544901,281.407541 133.249204,278.299041 134.154147,275.246466 C136.106369,266.441945 138.006532,257.780588 139.360072,251.038915 C130.978533,262.329265 110.402114,287.922894 96.0923276,288.020505 C91.999169,288.072564 88.6088104,286.172401 86.2726515,282.58682 C85.9992914,282.168387 85.7515554,281.733762 85.5308072,281.285339 C83.2926425,282.140718 80.969244,282.753747 78.6004195,283.11392 C72.1906243,284.057494 66.5356882,282.716969 62.2603223,279.255028 C60.571511,277.84414 60.327562,275.339038 61.7124384,273.628831 C63.0973149,271.918624 65.5983901,271.636364 67.3295918,272.994904 C70.4661616,275.539299 74.5528128,275.565329 77.4290864,275.148855 C79.6472875,274.80384 81.8136837,274.182996 83.877926,273.300752 C83.7803149,264.268472 88.010129,253.817577 89.7345917,249.99773 C94.7648167,238.622784 103.452204,225.959371 112.673199,224.508219 C117.052683,223.818434 120.709846,225.250064 122.720634,228.412663 C127.139163,235.42114 121.197901,246.978293 115.438847,255.437921 C108.775262,265.199031 100.842734,272.92983 92.767043,277.764832 C92.8411344,277.924382 92.9259239,278.078743 93.0208318,278.226858 C94.049002,279.801651 95.1097093,280.022902 96.0337609,280.00338 C98.324368,280.00338 105.209204,278.233366 119.675168,262.348787 C125.653508,255.765635 131.208936,248.810482 136.308098,241.525087 L137.036928,240.360261 C139.763531,235.993791 141.74829,232.837699 145.255782,233.202114 C147.152537,233.453509 148.726083,234.792806 149.277359,236.62501 C149.628759,237.640165 149.9281,238.577232 148.210145,247.759182 C157.02768,237.45145 168.441671,232.011259 181.768839,231.926662 L181.768839,231.926662 C182.309663,231.928037 182.844871,232.036405 183.343631,232.245525 C188.887941,228.341082 196.29337,225.126423 202.748717,224.202371 C210.661723,223.07659 214.787418,225.770656 216.863281,228.236963 C218.939144,230.70327 219.589884,235.39511 210.856945,243.783157 C209.832068,244.847555 208.306683,245.265382 206.882451,244.871834 C205.45822,244.478286 204.36378,243.33654 204.030816,241.89694 C203.697853,240.457339 204.179816,238.950988 205.286605,237.972043 C206.977386,236.382899 208.475676,234.600677 209.750686,232.661999 Z M92.3310468,268.452734 C98.1096236,264.22292 103.790589,258.223091 108.788277,250.882737 C116.701283,239.280032 116.597165,233.86587 115.946424,232.75961 C115.783739,232.505822 115.295684,232.414718 114.801121,232.414718 C114.517953,232.416484 114.235264,232.438229 113.955158,232.479792 C108.586548,233.325755 101.408879,243.581427 97.0944682,253.303492 C94.8587071,258.126188 93.2575582,263.218367 92.3310468,268.452734 L92.3310468,268.452734 Z M388.418033,304.412661 L8.90609811,304.412661 L8.90609811,312.46883 L388.411526,312.46883 L388.418033,304.412661 Z" id="Shape" fill="#FFFFFF" fill-rule="nonzero"></path>
        <path d="M44.6576087,367.559075 L44.6576087,350.987298 L50.326554,350.987298 L50.326554,348.284661 L35.8377845,348.284661 L35.8377845,350.987298 L41.5067298,350.987298 L41.5067298,367.559075 L44.6576087,367.559075 Z M55.8794837,367.559075 L55.8794837,360.321282 C55.8794837,358.493157 56.1849036,357.190179 56.7957435,356.412346 C57.4065833,355.634514 58.3623939,355.245598 59.6631751,355.245598 C60.6475501,355.245598 61.366056,355.522454 61.8186927,356.076165 C62.2713294,356.629876 62.4976478,357.469231 62.4976478,358.594231 L62.4976478,358.594231 L62.4976478,367.559075 L65.6089759,367.559075 L65.6089759,358.053704 C65.6089759,354.494134 63.8423743,352.714348 60.3091712,352.714348 C59.3072181,352.714348 58.4305091,352.907708 57.6790443,353.294427 C56.9275794,353.681145 56.3409095,354.226067 55.9190345,354.929192 L55.9190345,354.929192 L55.7212806,354.929192 C55.8267493,353.979973 55.8794837,353.087884 55.8794837,352.252923 L55.8794837,352.252923 L55.8794837,347.045403 L52.7813392,347.045403 L52.7813392,367.559075 L55.8794837,367.559075 Z M76.1189368,367.822747 C77.1121009,367.822747 77.9954017,367.74804 78.7688392,367.598626 C79.5422767,367.449212 80.3069251,367.194329 81.0627845,366.833977 L81.0627845,366.833977 L81.0627845,364.315911 C80.2102454,364.693841 79.412638,364.964104 78.6699622,365.126702 C77.9272864,365.2893 77.1252845,365.370598 76.2639564,365.370598 C74.9543861,365.370598 73.9392493,364.990471 73.2185462,364.230218 C72.4978431,363.469964 72.1155189,362.382317 72.0715736,360.967278 L72.0715736,360.967278 L81.7878821,360.967278 L81.7878821,359.292962 C81.7878821,357.24511 81.2297767,355.636712 80.1135657,354.467766 C78.9973548,353.298821 77.476847,352.714348 75.5520423,352.714348 C73.4778236,352.714348 71.8474525,353.395501 70.660929,354.757805 C69.4744056,356.12011 68.8811439,357.99218 68.8811439,360.374016 C68.8811439,362.694329 69.5205482,364.515862 70.7993568,365.838616 C72.0781653,367.16137 73.8513587,367.822747 76.1189368,367.822747 Z M78.742472,358.726067 L72.1243079,358.726067 C72.2385657,357.530755 72.5923255,356.621087 73.1855872,355.997063 C73.7788489,355.37304 74.5676673,355.061028 75.5520423,355.061028 C76.5364173,355.061028 77.3098548,355.370843 77.8723548,355.990471 C78.4348548,356.6101 78.7248939,357.521966 78.742472,358.726067 L78.742472,358.726067 Z M95.4645423,367.559075 L95.4645423,358.871087 L104.350284,358.871087 L104.350284,367.559075 L107.514347,367.559075 L107.514347,348.284661 L104.350284,348.284661 L104.350284,356.16845 L95.4645423,356.16845 L95.4645423,348.284661 L92.3136634,348.284661 L92.3136634,367.559075 L95.4645423,367.559075 Z M115.572159,367.559075 L115.572159,359.859856 L118.683488,359.859856 L123.297745,367.559075 L126.883683,367.559075 L121.438859,359.02929 C123.934952,358.009759 125.182999,356.300286 125.182999,353.900872 C125.182999,352.020013 124.585343,350.613763 123.390031,349.682122 C122.194718,348.750481 120.353409,348.284661 117.866105,348.284661 L117.866105,348.284661 L112.421281,348.284661 L112.421281,367.559075 L115.572159,367.559075 Z M117.760636,357.249505 L115.572159,357.249505 L115.572159,350.947747 L117.655167,350.947747 C119.087784,350.947747 120.16005,351.185052 120.871964,351.659661 C121.583878,352.13427 121.939835,352.916497 121.939835,354.006341 C121.939835,355.078606 121.610245,355.8872 120.951066,356.432122 C120.291886,356.977044 119.228409,357.249505 117.760636,357.249505 L117.760636,357.249505 Z M144.449503,367.822747 C147.323527,367.822747 149.544962,366.95263 151.11381,365.212395 C152.682658,363.472161 153.467081,361.033196 153.467081,357.895501 C153.467081,354.749016 152.684855,352.310052 151.120402,350.578606 C149.555949,348.847161 147.341105,347.981438 144.47587,347.981438 C141.566691,347.981438 139.327677,348.833977 137.758829,350.539055 C136.189982,352.244134 135.405558,354.687493 135.405558,357.869134 C135.405558,361.050774 136.185587,363.50512 137.745646,365.232171 C139.305704,366.959221 141.540324,367.822747 144.449503,367.822747 Z M144.449503,365.133294 C142.568644,365.133294 141.14921,364.520257 140.191202,363.294182 C139.233195,362.068108 138.754191,360.268548 138.754191,357.895501 C138.754191,355.531243 139.235392,353.738274 140.197794,352.516595 C141.160197,351.294915 142.586222,350.684075 144.47587,350.684075 C146.347941,350.684075 147.756388,351.294915 148.701212,352.516595 C149.646036,353.738274 150.118449,355.531243 150.118449,357.895501 C150.118449,360.294915 149.641642,362.101067 148.688029,363.313958 C147.734415,364.526848 146.321574,365.133294 144.449503,365.133294 Z M160.206534,374.045403 L160.206534,368.073235 C160.206534,367.809563 160.145011,367.062493 160.021964,365.832024 L160.021964,365.832024 L160.206534,365.832024 C161.226066,367.159173 162.658683,367.822747 164.504386,367.822747 C166.323722,367.822747 167.749747,367.154778 168.782462,365.818841 C169.815177,364.482903 170.331534,362.624016 170.331534,360.24218 C170.331534,357.860345 169.823966,356.010247 168.808829,354.691888 C167.793693,353.373528 166.376456,352.714348 164.55712,352.714348 C162.623527,352.714348 161.173331,353.45263 160.206534,354.929192 L160.206534,354.929192 L160.048331,354.929192 C159.828605,353.900872 159.683585,353.250481 159.613273,352.97802 L159.613273,352.97802 L157.10839,352.97802 L157.10839,374.045403 L160.206534,374.045403 Z M163.805656,365.291497 C162.531242,365.291497 161.612784,364.893792 161.050284,364.098382 C160.487784,363.302971 160.206534,362.017571 160.206534,360.24218 L160.206534,360.24218 L160.206534,359.780755 C160.206534,358.198723 160.489982,357.047356 161.056876,356.326653 C161.623771,355.60595 162.522452,355.245598 163.752921,355.245598 C164.869132,355.245598 165.715079,355.665276 166.290763,356.504632 C166.866447,357.343987 167.154288,358.581048 167.154288,360.215813 C167.154288,361.84179 166.864249,363.094231 166.284171,363.973138 C165.704093,364.852044 164.877921,365.291497 163.805656,365.291497 Z M180.129581,367.822747 C181.122745,367.822747 182.006046,367.74804 182.779484,367.598626 C183.552921,367.449212 184.31757,367.194329 185.073429,366.833977 L185.073429,366.833977 L185.073429,364.315911 C184.22089,364.693841 183.423283,364.964104 182.680607,365.126702 C181.937931,365.2893 181.135929,365.370598 180.274601,365.370598 C178.965031,365.370598 177.949894,364.990471 177.229191,364.230218 C176.508488,363.469964 176.126163,362.382317 176.082218,360.967278 L176.082218,360.967278 L185.798527,360.967278 L185.798527,359.292962 C185.798527,357.24511 185.240421,355.636712 184.12421,354.467766 C183.007999,353.298821 181.487492,352.714348 179.562687,352.714348 C177.488468,352.714348 175.858097,353.395501 174.671574,354.757805 C173.48505,356.12011 172.891788,357.99218 172.891788,360.374016 C172.891788,362.694329 173.531193,364.515862 174.810001,365.838616 C176.08881,367.16137 177.862003,367.822747 180.129581,367.822747 Z M182.753117,358.726067 L176.134952,358.726067 C176.24921,357.530755 176.60297,356.621087 177.196232,355.997063 C177.789493,355.37304 178.578312,355.061028 179.562687,355.061028 C180.547062,355.061028 181.320499,355.370843 181.882999,355.990471 C182.445499,356.6101 182.735538,357.521966 182.753117,358.726067 L182.753117,358.726067 Z M192.247941,367.559075 L192.247941,359.938958 C192.247941,358.646966 192.632462,357.596673 193.401505,356.788079 C194.170548,355.979485 195.174699,355.575188 196.413956,355.575188 C196.888566,355.575188 197.345597,355.627923 197.78505,355.733391 L197.78505,355.733391 L198.088273,352.846184 C197.683976,352.758294 197.169816,352.714348 196.545792,352.714348 C195.649308,352.714348 194.81215,352.969231 194.034318,353.478997 C193.256486,353.988763 192.62587,354.678704 192.142472,355.548821 L192.142472,355.548821 L191.984269,355.548821 L191.575577,352.97802 L189.149796,352.97802 L189.149796,367.559075 L192.247941,367.559075 Z M203.614835,367.822747 C204.731046,367.822747 205.645109,367.662346 206.357023,367.341546 C207.068937,367.020745 207.776456,366.416497 208.479581,365.528802 L208.479581,365.528802 L208.58505,365.528802 L209.204679,367.559075 L211.419523,367.559075 L211.419523,357.737298 C211.419523,356.005852 210.947111,354.735833 210.002286,353.927239 C209.057462,353.118645 207.657804,352.714348 205.803312,352.714348 C204.968351,352.714348 204.080656,352.822014 203.140226,353.037346 C202.199796,353.252679 201.334074,353.566888 200.543058,353.979973 L200.543058,353.979973 L201.545011,356.194817 C202.177824,355.895989 202.837003,355.636712 203.52255,355.416985 C204.208097,355.197259 204.924406,355.087395 205.671476,355.087395 C206.585538,355.087395 207.260099,355.318108 207.695158,355.779534 C208.130216,356.24096 208.347745,356.937493 208.347745,357.869134 L208.347745,357.869134 L208.347745,358.646966 L205.829679,358.726067 C203.544523,358.79638 201.843839,359.21386 200.727628,359.978509 C199.611417,360.743157 199.053312,361.876946 199.053312,363.379876 C199.053312,364.794915 199.455411,365.889153 200.259611,366.662591 C201.06381,367.436028 202.182218,367.822747 203.614835,367.822747 Z M204.590421,365.4497 C203.816984,365.4497 203.236906,365.271721 202.850187,364.915764 C202.463468,364.559807 202.270109,364.056634 202.270109,363.406243 C202.270109,362.509759 202.601896,361.843987 203.26547,361.408929 C203.929044,360.97387 204.990324,360.729973 206.449308,360.677239 L206.449308,360.677239 L208.321378,360.598138 L208.321378,361.863763 C208.321378,362.997552 207.980802,363.878655 207.29965,364.507073 C206.618497,365.135491 205.715421,365.4497 204.590421,365.4497 Z M220.268351,367.822747 C220.848429,367.822747 221.408732,367.77221 221.949259,367.671136 C222.489786,367.570061 222.931437,367.444817 223.27421,367.295403 L223.27421,367.295403 L223.27421,364.961907 C222.518351,365.199212 221.762492,365.317864 221.006632,365.317864 C220.400187,365.317864 219.910197,365.139886 219.536661,364.783929 C219.163126,364.427971 218.976359,363.876458 218.976359,363.129388 L218.976359,363.129388 L218.976359,355.3247 L223.129191,355.3247 L223.129191,352.97802 L218.976359,352.97802 L218.976359,349.734856 L217.064738,349.734856 L216.01005,352.819817 L213.874308,353.953606 L213.874308,355.3247 L215.865031,355.3247 L215.865031,363.182122 C215.865031,366.275872 217.332804,367.822747 220.268351,367.822747 Z M227.587882,350.815911 C228.132804,350.815911 228.556876,350.6643 228.860099,350.361077 C229.163322,350.057854 229.314933,349.642571 229.314933,349.115227 C229.314933,348.561516 229.163322,348.135247 228.860099,347.836419 C228.556876,347.537591 228.132804,347.388177 227.587882,347.388177 C227.025382,347.388177 226.592521,347.537591 226.289298,347.836419 C225.986076,348.135247 225.834464,348.561516 225.834464,349.115227 C225.834464,349.642571 225.986076,350.057854 226.289298,350.361077 C226.592521,350.6643 227.025382,350.815911 227.587882,350.815911 Z M229.117179,367.559075 L229.117179,352.97802 L226.019034,352.97802 L226.019034,367.559075 L229.117179,367.559075 Z M236.476261,367.559075 L236.476261,360.294915 C236.476261,358.475579 236.779484,357.179192 237.385929,356.405755 C237.992374,355.632317 238.950382,355.245598 240.259952,355.245598 C241.244327,355.245598 241.962833,355.522454 242.41547,356.076165 C242.868107,356.629876 243.094425,357.469231 243.094425,358.594231 L243.094425,358.594231 L243.094425,367.559075 L246.205753,367.559075 L246.205753,358.053704 C246.205753,354.494134 244.45673,352.714348 240.958683,352.714348 C239.974308,352.714348 239.077824,352.903313 238.26923,353.281243 C237.460636,353.659173 236.836613,354.195305 236.397159,354.889641 L236.397159,354.889641 L236.238956,354.889641 L235.803898,352.97802 L233.378117,352.97802 L233.378117,367.559075 L236.476261,367.559075 Z M254.553605,374.045403 C257.1288,374.045403 259.09755,373.597161 260.459855,372.700677 C261.822159,371.804192 262.503312,370.529778 262.503312,368.877434 C262.503312,367.585442 262.085831,366.596673 261.25087,365.911126 C260.415909,365.225579 259.19423,364.882805 257.585831,364.882805 L257.585831,364.882805 L255.041398,364.882805 C254.206437,364.882805 253.632951,364.799309 253.320939,364.632317 C253.008927,364.465325 252.852921,364.214837 252.852921,363.880852 C252.852921,363.327141 253.186906,362.843743 253.854874,362.430657 C254.232804,362.50097 254.654679,362.536126 255.120499,362.536126 C256.939835,362.536126 258.368058,362.105462 259.405167,361.244134 C260.442277,360.382805 260.960831,359.200677 260.960831,357.697747 C260.960831,357.19677 260.886124,356.722161 260.73671,356.273919 C260.587296,355.825677 260.398331,355.447747 260.169816,355.14013 L260.169816,355.14013 L262.661515,354.678704 L262.661515,352.97802 L257.612199,352.97802 C257.383683,352.916497 257.043107,352.857171 256.59047,352.800042 C256.137833,352.742913 255.704972,352.714348 255.291886,352.714348 C253.446183,352.714348 252.024552,353.149407 251.026993,354.019524 C250.029435,354.889641 249.530656,356.115716 249.530656,357.697747 C249.530656,358.682122 249.765763,359.541253 250.235978,360.275139 C250.706193,361.009026 251.31923,361.538567 252.075089,361.863763 C251.468644,362.232903 251.011613,362.606438 250.703995,362.984368 C250.396378,363.362298 250.24257,363.823723 250.24257,364.368645 C250.24257,364.799309 250.376603,365.210198 250.644669,365.601311 C250.912736,365.992425 251.253312,366.275872 251.666398,366.451653 C250.646867,366.688958 249.853654,367.11303 249.286759,367.72387 C248.719865,368.33471 248.436417,369.088372 248.436417,369.984856 C248.436417,371.285638 248.959367,372.287591 250.005265,372.990716 C251.051163,373.693841 252.567277,374.045403 254.553605,374.045403 Z M255.265519,360.545403 C254.386613,360.545403 253.712052,360.299309 253.241837,359.807122 C252.771622,359.314934 252.536515,358.611809 252.536515,357.697747 C252.536515,356.722161 252.767228,355.979485 253.228654,355.46972 C253.690079,354.959954 254.369034,354.705071 255.265519,354.705071 C256.170792,354.705071 256.845353,354.962151 257.289201,355.476311 C257.733048,355.990471 257.954972,356.722161 257.954972,357.67138 C257.954972,359.587395 257.058488,360.545403 255.265519,360.545403 Z M254.64589,371.909661 C253.556046,371.909661 252.710099,371.729485 252.108048,371.369134 C251.505997,371.008782 251.204972,370.494622 251.204972,369.826653 C251.204972,369.114739 251.466447,368.550042 251.989396,368.132561 C252.512345,367.715081 253.217667,367.506341 254.105363,367.506341 L254.105363,367.506341 L256.452042,367.506341 C257.682511,367.506341 258.524064,367.640374 258.976701,367.90844 C259.429337,368.176507 259.655656,368.626946 259.655656,369.259759 C259.655656,370.059563 259.24257,370.701165 258.416398,371.184563 C257.590226,371.667962 256.33339,371.909661 254.64589,371.909661 Z M276.496378,367.822747 C278.676066,367.822747 280.385538,367.334954 281.624796,366.359368 C282.864054,365.383782 283.483683,364.039055 283.483683,362.325188 C283.483683,361.455071 283.329874,360.699212 283.022257,360.05761 C282.71464,359.416009 282.231242,358.840325 281.572062,358.330559 C280.912882,357.820794 279.875773,357.271477 278.460734,356.68261 C277.203898,356.164055 276.333781,355.746575 275.850382,355.430169 C275.366984,355.113763 275.019816,354.777581 274.808878,354.421624 C274.597941,354.065667 274.492472,353.6372 274.492472,353.136223 C274.492472,352.406731 274.756144,351.820061 275.283488,351.376214 C275.810831,350.932366 276.584269,350.710442 277.6038,350.710442 C278.948527,350.710442 280.477824,351.070794 282.191691,351.791497 L282.191691,351.791497 L283.193644,349.220696 C281.365519,348.412102 279.528605,348.007805 277.682902,348.007805 C275.758097,348.007805 274.224406,348.469231 273.081827,349.392083 C271.939249,350.314934 271.36796,351.580559 271.36796,353.188958 C271.36796,354.472161 271.728312,355.570794 272.449015,356.484856 C273.169718,357.398919 274.408976,358.211907 276.166788,358.923821 C277.871867,359.609368 278.996867,360.20263 279.541788,360.703606 C280.08671,361.204583 280.359171,361.815423 280.359171,362.536126 C280.359171,363.33593 280.06254,363.973138 279.469279,364.447747 C278.876017,364.922356 277.955363,365.159661 276.707316,365.159661 C275.854777,365.159661 274.934122,365.041009 273.945353,364.803704 C272.956583,364.566399 272.022745,364.241204 271.143839,363.828118 L271.143839,363.828118 L271.143839,366.80761 C272.532511,367.484368 274.316691,367.822747 276.496378,367.822747 Z M287.072257,374.045403 C289.717765,374.045403 291.607413,372.52929 292.741202,369.497063 L292.741202,369.497063 L298.977042,352.97802 L295.628409,352.97802 C293.606925,358.840325 292.490714,362.116448 292.279777,362.806389 C292.068839,363.496331 291.92382,364.083001 291.844718,364.566399 L291.844718,364.566399 L291.739249,364.566399 C291.589835,363.52929 291.291007,362.421868 290.842765,361.244134 L290.842765,361.244134 L287.876456,352.97802 L284.501456,352.97802 L290.354972,367.559075 L289.814445,368.930169 C289.207999,370.661614 288.157706,371.527337 286.663566,371.527337 C286.065909,371.527337 285.534171,371.474602 285.068351,371.369134 L285.068351,371.369134 L285.068351,373.821282 C285.718742,373.970696 286.38671,374.045403 287.072257,374.045403 Z M304.806827,367.822747 C306.740421,367.822747 308.225773,367.44262 309.262882,366.682366 C310.299992,365.922112 310.818546,364.830071 310.818546,363.406243 C310.818546,362.703118 310.68671,362.09887 310.423038,361.593499 C310.159367,361.088128 309.75507,360.642083 309.210148,360.255364 C308.665226,359.868645 307.790714,359.442376 306.586613,358.976555 C305.153995,358.422845 304.224552,357.987786 303.798283,357.67138 C303.372013,357.354973 303.158878,356.968255 303.158878,356.511223 C303.158878,355.579583 303.976261,355.113763 305.611027,355.113763 C306.683292,355.113763 308.006046,355.438958 309.579288,356.089348 L309.579288,356.089348 L310.581242,353.755852 C309.051945,353.061516 307.430363,352.714348 305.716495,352.714348 C303.98505,352.714348 302.616154,353.059319 301.609806,353.749261 C300.603458,354.439202 300.100284,355.408196 300.100284,356.656243 C300.100284,357.693352 300.396915,358.537102 300.990177,359.187493 C301.583439,359.837884 302.719425,360.488274 304.398136,361.138665 C305.259464,361.472649 305.931827,361.771477 306.415226,362.035149 C306.898624,362.298821 307.245792,362.553704 307.45673,362.799798 C307.667667,363.045891 307.773136,363.353509 307.773136,363.722649 C307.773136,364.874016 306.819523,365.4497 304.912296,365.4497 C303.435734,365.4497 301.840519,365.054192 300.126652,364.263177 L300.126652,364.263177 L300.126652,366.939446 C301.304386,367.528313 302.864445,367.822747 304.806827,367.822747 Z M318.691788,367.822747 C319.271867,367.822747 319.832169,367.77221 320.372697,367.671136 C320.913224,367.570061 321.354874,367.444817 321.697648,367.295403 L321.697648,367.295403 L321.697648,364.961907 C320.941788,365.199212 320.185929,365.317864 319.43007,365.317864 C318.823624,365.317864 318.333634,365.139886 317.960099,364.783929 C317.586564,364.427971 317.399796,363.876458 317.399796,363.129388 L317.399796,363.129388 L317.399796,355.3247 L321.552628,355.3247 L321.552628,352.97802 L317.399796,352.97802 L317.399796,349.734856 L315.488175,349.734856 L314.433488,352.819817 L312.297745,353.953606 L312.297745,355.3247 L314.288468,355.3247 L314.288468,363.182122 C314.288468,366.275872 315.756242,367.822747 318.691788,367.822747 Z M330.810148,367.822747 C331.803312,367.822747 332.686613,367.74804 333.46005,367.598626 C334.233488,367.449212 334.998136,367.194329 335.753995,366.833977 L335.753995,366.833977 L335.753995,364.315911 C334.901456,364.693841 334.103849,364.964104 333.361173,365.126702 C332.618497,365.2893 331.816495,365.370598 330.955167,365.370598 C329.645597,365.370598 328.63046,364.990471 327.909757,364.230218 C327.189054,363.469964 326.80673,362.382317 326.762784,360.967278 L326.762784,360.967278 L336.479093,360.967278 L336.479093,359.292962 C336.479093,357.24511 335.920988,355.636712 334.804777,354.467766 C333.688566,353.298821 332.168058,352.714348 330.243253,352.714348 C328.169034,352.714348 326.538663,353.395501 325.35214,354.757805 C324.165617,356.12011 323.572355,357.99218 323.572355,360.374016 C323.572355,362.694329 324.211759,364.515862 325.490568,365.838616 C326.769376,367.16137 328.54257,367.822747 330.810148,367.822747 Z M333.433683,358.726067 L326.815519,358.726067 C326.929777,357.530755 327.283536,356.621087 327.876798,355.997063 C328.47006,355.37304 329.258878,355.061028 330.243253,355.061028 C331.227628,355.061028 332.001066,355.370843 332.563566,355.990471 C333.126066,356.6101 333.416105,357.521966 333.433683,358.726067 L333.433683,358.726067 Z M342.928507,367.559075 L342.928507,360.294915 C342.928507,358.484368 343.20756,357.190179 343.765665,356.412346 C344.323771,355.634514 345.20048,355.245598 346.395792,355.245598 C347.292277,355.245598 347.951456,355.520257 348.373331,356.069573 C348.795206,356.618889 349.006144,357.451653 349.006144,358.567864 L349.006144,358.567864 L349.006144,367.559075 L352.117472,367.559075 L352.117472,359.833489 C352.117472,358.277825 352.396525,357.124261 352.95463,356.372796 C353.512736,355.621331 354.393839,355.245598 355.597941,355.245598 C356.494425,355.245598 357.155802,355.520257 357.582072,356.069573 C358.008341,356.618889 358.221476,357.451653 358.221476,358.567864 L358.221476,358.567864 L358.221476,367.559075 L361.31962,367.559075 L361.31962,358.053704 C361.31962,356.251946 360.921915,354.911614 360.126505,354.032708 C359.331095,353.153802 358.063273,352.714348 356.323038,352.714348 C355.312296,352.714348 354.415812,352.916497 353.633585,353.320794 C352.851359,353.725091 352.244913,354.287591 351.814249,355.008294 L351.814249,355.008294 L351.603312,355.008294 C350.87382,353.478997 349.388468,352.714348 347.147257,352.714348 C346.224406,352.714348 345.378458,352.903313 344.609415,353.281243 C343.840372,353.659173 343.253702,354.195305 342.849406,354.889641 L342.849406,354.889641 L342.691202,354.889641 L342.256144,352.97802 L339.830363,352.97802 L339.830363,367.559075 L342.928507,367.559075 Z" id="TheHROperatingSystem" fill="#FFFFFF" fill-rule="nonzero"></path>
    </g>
</svg>