<?xml version="1.0" encoding="UTF-8"?>
<svg width="400px" height="400px" viewBox="0 0 400 400" version="1.1" xmlns="http://www.w3.org/2000/svg" xmlns:xlink="http://www.w3.org/1999/xlink">
    <title>logos/platzi</title>
    <g id="logos/platzi" stroke="none" stroke-width="1" fill="none" fill-rule="evenodd">
        <path d="M49.0559709,217.411984 C56.899487,209.568468 69.5584327,209.477265 77.5139356,217.138373 L77.7927496,217.411984 L106.528487,246.148763 C114.372003,253.99125 114.463206,266.650183 106.802098,274.605686 L106.528487,274.8845 L77.7927496,303.621279 L92.1600972,317.988626 L77.7927496,332.357016 C69.9492334,340.200532 57.2902877,340.291735 49.3347848,332.630627 L49.0559709,332.357016 L5.95184459,289.252889 C-1.89167154,281.409373 -1.98287521,268.750427 5.67823356,260.794925 L5.95184459,260.516111 L49.0559709,217.411984 Z M63.4243602,231.780374 L20.3191922,274.8845 L63.4243602,317.988626 L77.7927496,303.621279 L63.4243602,289.252889 L92.1600972,260.516111 L63.4243602,231.780374 Z M310.832961,248.459602 L310.832961,261.082075 L328.696308,261.082075 L328.696308,270.495021 L310.832961,270.495021 L310.832961,292.637737 C310.832961,305.794611 319.06981,306.650901 329.659895,302.906974 L330.835993,311.678223 C313.186198,317.13369 299.387627,313.068914 299.387627,292.851289 L299.387627,270.495021 L288.904839,270.495021 L288.904839,261.082075 L299.387627,261.082075 L299.387627,248.459602 L310.832961,248.459602 Z M204.347914,237.655965 L215.900545,237.655965 L215.900545,294.028428 C215.900545,302.585084 218.146485,305.260211 227.025031,303.86952 L227.453176,312.85432 C211.622218,315.42215 204.347914,311.357374 204.347914,294.134683 L204.347914,237.655965 Z M259.125929,259.898645 L259.628347,259.905353 C267.008905,259.905353 274.069656,261.724189 280.808517,264.719122 L280.808871,298.063129 C280.820519,302.226509 281.085561,304.796181 286.370239,304.29704 L286.370239,312.21304 L285.829929,312.310709 C278.623704,313.557379 271.39453,312.538716 271.39453,304.189743 L271.394113,302.051933 L271.243941,302.412846 C268.260249,309.354728 261.1049,313.282882 253.63848,313.282882 C237.913776,313.282882 230.319666,300.660409 230.319666,286.112845 C230.637306,269.168604 242.592143,259.773533 259.125929,259.898645 L259.125929,259.898645 Z M170.258486,237.655548 C186.945735,237.655548 196.67953,249.850918 196.67953,264.076592 C196.67953,278.089756 186.731142,290.070532 170.258486,290.070532 L151.753442,290.070532 L151.753442,312.534097 L139.238266,312.534097 L139.238266,237.655548 L170.258486,237.655548 Z M398.822861,261.082492 L398.822861,312.533889 L387.162933,312.533889 L387.162933,261.082492 L398.822861,261.082492 Z M379.024318,260.974882 L379.024318,262.47287 L363.086063,287.182375 L352.603274,302.478933 L378.917022,302.478933 L378.917022,312.533576 L336.023322,312.533576 L336.023322,310.18034 L350.999032,286.754229 L362.230814,270.495125 L337.627565,270.495125 L337.627565,260.974882 L379.024318,260.974882 Z M258.773098,269.318299 C248.932007,269.318299 242.299401,274.988359 241.978552,286.112845 C241.978552,295.525791 246.57877,302.906349 256.099013,302.906349 C264.762965,302.906349 269.255887,296.167488 269.576735,286.647245 L269.576735,271.457983 C266.046359,269.853741 262.08888,269.318299 258.773098,269.318299 Z M170.258486,248.460227 L151.538849,248.460227 L151.538849,279.159598 L170.258486,279.159598 C178.708887,279.159598 184.698754,272.420737 184.698754,263.756785 C184.698754,255.091791 178.92348,248.460227 170.258486,248.460227 Z M393.047587,237.533459 C396.576921,237.533459 400,239.886695 400,244.379617 C400,248.978793 396.576921,251.33203 393.153842,251.33203 C389.624508,251.33203 385.987878,249.08609 385.987878,244.379617 C385.987878,239.779399 389.517211,237.533459 393.047587,237.533459 Z" id="Shape" fill="#FFFFFE"></path>
    </g>
</svg>