<svg width="400" height="400" viewBox="0 0 400 400" xmlns="http://www.w3.org/2000/svg"><path d="M253.558 337.164c6.606 0 12.154 5.397 12.32 11.52l.004.284v12.22c0 8.684-4.42 13.104-13.208 13.104-2.524 0-5.138-.317-7.547-1.12l-.513-.18v-6.812c2.535.975 4.75 1.402 7.374 1.451l.53.005c3.11 0 6.57-.75 6.704-5.14l.004-.268v-12.376c0-4.108-2.964-5.928-5.668-5.928-3.276 0-5.668 2.444-5.668 6.084 0 3.64 2.392 5.876 5.668 5.876 1.442 0 2.416-.234 3.293-.5l.399-.124v6.916c-1.352.468-2.808.676-3.692.676-7.696 0-12.324-5.356-12.324-12.74s4.628-12.948 12.324-12.948zm-28.444 0c7.852 0 12.792 6.032 12.792 13.26s-4.94 13.26-12.792 13.26c-7.852 0-12.792-6.032-12.792-13.26s4.94-13.26 12.792-13.26zm-40.456 0c7.852 0 12.792 6.032 12.792 13.26s-4.94 13.26-12.792 13.26c-7.852 0-12.792-6.032-12.792-13.26s4.94-13.26 12.792-13.26zm-75.556 0c6.63 0 10.459 3.501 12.174 7.266l.098.222-12.844 9.62-3.224-4.212 6.604-5.096c-.676-.78-1.872-1.144-3.276-1.144-3.276 0-5.668 2.964-5.668 6.604 0 3.12 2.444 6.604 6.396 6.604 3.243 0 5.942-1.925 6.608-5.15l.048-.258 6.708.728c-1.248 6.812-6.5 11.336-13.624 11.336-7.852 0-12.792-6.032-12.792-13.26s4.94-13.26 12.792-13.26zm184.964 0c7.475 0 12.329 4.638 12.477 11.035l.003.301v14.56h-6.656v-14.248c0-3.016-2.288-4.992-5.928-4.992-3.172 0-5.616 2.912-5.616 6.604 0 3.38 2.444 6.084 5.824 6.084 1.324 0 2.346-.258 3.46-.656l.336-.124v6.916c-1.508.364-2.86.624-4.212.624-7.8 0-12.064-5.98-12.064-12.584 0-8.112 5.408-13.52 12.376-13.52zm-151.424.624v6.656h-4.42c-3.692 0-6.032 2.496-6.032 5.98 0 3.405 2.235 5.866 5.782 5.976l.25.004h4.42v6.656h-4.628c-7.8 0-12.48-4.888-12.48-12.636 0-7.634 4.543-12.492 12.138-12.633l.342-.003h4.628zm134.94 0v25.272h-6.656v-25.272h6.656zm-69.368-11.128v36.4h-6.656v-36.4h6.656zm-51.012 10.504c6.081 0 10.304 2.812 10.448 8.141l.004.283v17.472h-6.656v-15.184c0-2.6-1.352-4.056-3.796-4.056-2.368 0-3.71 1.366-3.792 3.816l-.004.24v15.184h-6.656v-17.472c0-5.512 4.264-8.424 10.452-8.424zm169.416.624v6.24h-7.82c-.79.013-1.54.156-1.54 1.144 0 2.288 10.712 3.536 10.712 10.192 0 4.95-3.607 7.597-8.263 7.693l-.265.003h-9.308v-6.24h8.58c1.248 0 1.872-.624 1.872-1.404 0-3.172-10.192-3.9-10.192-10.192 0-5.36 3.71-7.363 7.978-7.434l.238-.002h8.008zM98.13 326.66v7.28h-7.904v29.12H82.53v-29.12h-7.904v-7.28H98.13zm126.984 17.16c-3.692 0-6.136 2.392-6.136 6.604s2.444 6.604 6.136 6.604 6.136-2.392 6.136-6.604-2.444-6.604-6.136-6.604zm-40.456 0c-3.692 0-6.136 2.392-6.136 6.604s2.444 6.604 6.136 6.604 6.136-2.392 6.136-6.604-2.444-6.604-6.136-6.604zm98.124-17.16l-7.696 7.488h-5.148l4.836-7.488h8.008zm-172.975-79.848c16.511 0 28.124 13.035 28.204 28.598.077 14-9.29 25.212-22.05 28.04l-.387.084v7.584h-10.112v-27.176h10.112v7.584c5.688-1.106 10.744-8.848 10.744-16.116 0-9.243-6.162-17.222-16.511-17.222s-16.511 7.979-16.511 17.222c0 5.884 2.428 11.313 8.25 15.096l.361.23v12.324c-11.613-3.476-20.303-14.062-20.303-27.65 0-15.563 11.692-28.598 28.203-28.598zm91.561 16.906c10.112 0 15.935 5.361 18.525 11.106l.119.27-19.513 14.615-4.898-6.399 10.033-7.742c-1.027-1.185-2.844-1.738-4.977-1.738-4.977 0-8.611 4.503-8.611 10.033 0 4.74 3.713 10.033 9.717 10.033 4.96 0 9.085-2.966 10.06-7.928l.052-.288 10.191 1.106c-1.896 10.349-9.875 17.222-20.698 17.222-11.929 0-19.434-9.164-19.434-20.145s7.505-20.145 19.434-20.145zm70.231 0c10.112 0 15.935 5.361 18.525 11.106l.119.27-19.513 14.615-4.898-6.399 10.033-7.742c-1.027-1.185-2.844-1.738-4.977-1.738-4.977 0-8.611 4.503-8.611 10.033 0 4.74 3.713 10.033 9.717 10.033 4.96 0 9.085-2.966 10.06-7.928l.052-.288 10.191 1.106c-1.896 10.349-9.875 17.222-20.698 17.222-11.929 0-19.434-9.164-19.434-20.145s7.505-20.145 19.434-20.145zm-117.078.948v23.068c0 3.95 2.054 6.162 5.767 6.162 3.629 0 5.673-2.113 5.764-5.895l.003-.267v-23.068h10.112v26.544c0 8.374-6.478 12.798-15.879 12.798-9.277 0-15.708-4.308-15.876-12.47l-.003-.328v-26.544h10.112zm94.642-.474v10.744h-2.449c-4.966 0-8.255 3.353-8.37 9.011l-.004.311v18.802h-10.744v-38.394h9.559v7.268h.158c1.7-4.866 5.287-7.618 9.433-7.738l.284-.004h2.133zm71.89.474v9.48h-11.832l-.28.008c-1.11.045-2.108.326-2.108 1.73 0 3.476 16.274 5.372 16.274 15.484 0 7.549-5.52 11.57-12.632 11.69l-.324.002H296.01v-9.48h13.035c1.896 0 2.844-.948 2.844-2.133 0-4.819-15.484-5.925-15.484-15.484 0-8.177 5.68-11.21 12.198-11.295l.284-.002h12.166zM200.25 25.708c55.919 0 101.25 44.068 101.25 98.426 0 46.582-33.287 85.605-78 95.818v24.608h-40v-100h40v27.846c18.052-8.802 30.443-26.968 30.443-47.95 0-29.604-24.67-53.604-55.1-53.604h-20.344V25.708h21.751zM178.5 166.06v47h-40v-47h40zm-40-47v47h-40v-47h40zm40-47v47h-40v-47h40z" fill="#FFF" fill-rule="nonzero"/></svg>