<svg width="400" height="360" viewBox="0 0 400 360" xmlns="http://www.w3.org/2000/svg"><path d="M321.35 212.19c4.2 0 7.6.3 10.15.85 2.55.55 4.65 1.1 6.3 1.6v41.45c0 6.8-1.75 11.65-5.25 14.55-3.5 2.9-8.8 4.35-15.9 4.35-2.95 0-5.6-.2-7.95-.65-2.35-.45-4.4-.95-6.1-1.55l1.15-5.2c1.4.65 3.3 1.2 5.75 1.65 2.45.45 4.9.7 7.35.7 5.4 0 9.3-1.05 11.75-3.1 2.45-2.1 3.65-5.65 3.65-10.65l-.05-3c-.35.3-.9.65-1.6 1-.7.4-1.55.8-2.6 1.2-1.05.4-2.2.75-3.5 1-1.3.25-2.8.4-4.45.4-2.65 0-5.2-.4-7.65-1.25s-4.6-2.1-6.45-3.85c-1.85-1.75-3.3-4.05-4.45-6.8-1.1-2.8-1.65-6.15-1.65-10.15 0-3.2.5-6.2 1.5-8.95 1-2.75 2.4-5.15 4.25-7.15s4.1-3.6 6.75-4.75c2.65-1.15 5.65-1.7 9-1.7zm-72.75-21.9v66.75c-1.7.6-3.85 1.15-6.5 1.65-2.65.55-5.95.8-10 .8-3.35 0-6.35-.55-9.1-1.6-2.7-1.1-5.05-2.65-7.05-4.7-1.95-2.05-3.5-4.55-4.55-7.45-1.1-2.95-1.6-6.25-1.6-9.95 0-3.45.45-6.65 1.35-9.55.9-2.9 2.25-5.4 4-7.5 1.75-2.1 3.9-3.75 6.45-4.9 2.55-1.15 5.45-1.75 8.75-1.75 3 0 5.6.45 7.75 1.25 2.2.85 3.8 1.65 4.8 2.4v-24.4l5.7-1.05zm-62.55 21.7c5.55 0 10 1.8 13.3 5.45 3.3 3.65 4.95 9.2 4.95 16.8 0 .45 0 .95-.05 1.4-.05.45-.05.9-.15 1.3h-31.9c.2 5.55 1.55 9.85 4.15 12.85 2.6 3 6.7 4.5 12.3 4.5 3.1 0 5.55-.3 7.4-.9l1.025-.349c1.293-.448 2.285-.832 2.925-1.152l1.05 4.9c-.8.45-2.35 1-4.6 1.65-2.25.65-4.9.95-7.95.95-4 0-7.4-.6-10.2-1.75-2.8-1.15-5.1-2.8-6.95-4.9-1.8-2.1-3.15-4.6-3.95-7.5-.8-2.9-1.2-6.1-1.2-9.55 0-4 .55-7.45 1.7-10.4s2.65-5.45 4.5-7.4c1.85-2 3.95-3.45 6.3-4.45 2.35-.95 4.8-1.45 7.35-1.45zm90.1 0c5.55 0 10 1.8 13.3 5.45 3.3 3.65 4.95 9.2 4.95 16.8 0 .45 0 .95-.05 1.4-.05.45-.05.9-.15 1.3h-31.9c.2 5.55 1.55 9.85 4.15 12.85 2.6 3 6.7 4.5 12.3 4.5 3.1 0 5.55-.3 7.4-.9l1.025-.349c1.293-.448 2.285-.832 2.925-1.152l1.05 4.9c-.8.45-2.35 1-4.6 1.65-2.25.65-4.9.95-7.95.95-4 0-7.4-.6-10.2-1.75-2.8-1.15-5.1-2.8-6.95-4.9-1.8-2.1-3.15-4.6-3.95-7.5-.8-2.9-1.2-6.1-1.2-9.55 0-4 .55-7.45 1.7-10.4s2.65-5.45 4.5-7.4c1.85-2 3.95-3.45 6.3-4.45 2.35-.95 4.8-1.45 7.35-1.45zm85.5 0c3 0 5.5.45 7.6 1.25 2.1.85 3.75 2 5.05 3.5 1.3 1.5 2.2 3.25 2.8 5.3.6 2.05.9 4.3.9 6.7v28.65c-.48.16-1.12.287-1.92.434l-1.95.356c-.776.14-1.624.284-2.53.41-1.45.25-3.1.4-4.9.55-1.8.15-3.6.2-5.5.2-2.4 0-4.6-.25-6.65-.8-2.05-.55-3.8-1.35-5.25-2.5-1.5-1.15-2.65-2.6-3.5-4.4-.85-1.8-1.25-3.95-1.25-6.55 0-2.45.45-4.55 1.4-6.3s2.25-3.2 3.95-4.35c1.579-1.069 3.416-1.878 5.552-2.388l.498-.113c2.35-.55 4.9-.8 7.65-.8.8 0 1.7.05 2.6.15.9.1 1.8.2 2.65.35l.703.129a27.5 27.5 0 011.497.321c.6.15 1.05.3 1.25.4v-2.8c0-1.6-.1-3.1-.35-4.6-.25-1.5-.75-2.85-1.55-4.05-.8-1.2-1.9-2.15-3.35-2.9-1.45-.75-3.3-1.1-5.65-1.1-3.35 0-5.85.25-7.45.7l-.68.19c-1.304.372-2.277.703-2.92.96l-.8-5c1-.45 2.55-.9 4.6-1.3s4.55-.6 7.5-.6zm31.6-21.7v57.1c0 1.4.15 2.55.4 3.4.25.85.65 1.5 1.2 2 .55.5 1.2.85 2.05 1.1.85.25 1.85.45 3.05.6l-.8 4.75c-1.95-.05-3.6-.3-5.05-.75-1.45-.45-2.65-1.1-3.6-2-.95-.9-1.7-2.1-2.2-3.5-.5-1.45-.75-3.25-.75-5.4v-56.25l5.7-1.05zM68.3 158.94c4.573 0 7.23 3.963 7.645 4.654l5.905 10.295 5.6-1.5c1-.25 1.9-.4 2.8-.4 4.983 0 7.533 4.133 8.309 6.546l.091.304 3.05 11.35h5.8c8.809 0 9.138 8.574 9.15 9.123v50.477c0 8.205-7.44 9.053-8.903 9.14l-.247.01H37.4c-7.364 0-9.907-2.65-12.553-7.1l-.147-.25-25.25-43.7c-2.35-4.05-1.3-7.25 0-9.25a11.591 11.591 0 013.206-3.114l.144-.086 60.75-35.1c1.6-.95 3.2-1.4 4.75-1.4zm88.65 53.2c1.85 0 3.65.15 5.3.45l.633.12c1.315.26 2.254.52 2.817.78l-1.15 4.9c-.45-.25-1.4-.5-2.85-.75-1.45-.25-3.3-.4-5.65-.4-2.45 0-4.45.2-5.95.55l-.84.203c-1.038.264-1.75.496-2.11.696v39.75h-5.65v-43.3c1.45-.65 3.5-1.3 6.05-2 2.6-.65 5.7-1 9.4-1zm-49.45-18.8h-4.95l9.2 34.25c.3 1.1.4 2.1.4 3-.098 4.392-3.34 6.64-5.355 7.583l-.145.066-.3.15c-.2.1-.35.15-.5.2a3.941 3.941 0 01-.394.145L41.55 255.84h65.95l.526-.045c1.502-.168 5.362-.985 5.52-5.705l.004-.3v-50.4l-.045-.526c-.168-1.502-.985-5.362-5.705-5.519l-.3-.005zm123.3 23.95c-2.8 0-5.15.5-7.05 1.5-1.9 1-3.45 2.35-4.6 4-1.15 1.65-2 3.65-2.55 5.9-.55 2.25-.8 4.65-.8 7.15 0 5.95 1.5 10.55 4.5 13.75 3 3.2 6.95 4.8 11.85 4.8 2.625 0 4.81-.133 6.474-.355l.326-.046c1.75-.25 3.05-.55 3.9-.85v-31.85a20.261 20.261 0 00-4.75-2.6c-1.05-.4-2.2-.75-3.45-1s-2.5-.4-3.85-.4zm132.55 18.9c-1.4 0-2.85.1-4.4.3-1.5.2-2.95.65-4.2 1.3-1.3.65-2.35 1.6-3.15 2.75-.8 1.15-1.25 2.7-1.25 4.65 0 1.7.3 3.15.85 4.3s1.35 2.1 2.35 2.8c1 .7 2.25 1.2 3.7 1.55 1.45.3 3.1.5 4.9.5 2.2 0 4.15-.05 5.85-.2 1.65-.15 3.1-.35 4.25-.55v-16c-.65-.3-1.65-.6-3.1-.9-1.4-.3-3.35-.5-5.8-.5zM89.5 193.29H37.4l-.526.044c-1.502.168-5.362.985-5.52 5.705l-.004.3.001 50.481c.012.245.118 1.892.949 3.37.963.045 1.967-.245 2.975-.795l.275-.156 60.75-35.1.218-.139c1.011-.673 4.49-3.396 2.128-7.847l-.146-.264-9-15.6zm9.85.05H93.1l8.1 14.05c3.865 6.742-1.308 11.087-2.907 12.21l-.443.29-57.1 32.95 63.75-17.1.146-.037c.888-.25 4.494-1.647 4.354-5.614 0-.417-.07-.903-.18-1.4l-.07-.3-9.4-35.05zm222.15 24c-2.45 0-4.65.45-6.55 1.25-1.9.85-3.55 2.05-4.9 3.6-1.35 1.55-2.35 3.4-3.05 5.55-.7 2.15-1.05 4.5-1.05 7.05 0 2.812.352 5.229 1.096 7.291l.154.408c.8 2.15 1.9 3.9 3.2 5.25 1.3 1.35 2.8 2.35 4.5 2.95 1.7.6 3.45.9 5.2.9 2.6 0 4.95-.4 7.05-1.15 2.15-.75 3.8-1.65 4.95-2.65v-29.2c-1-.3-2.3-.55-3.85-.85-1.6-.25-3.85-.4-6.75-.4zm-253.25-55.3c-.917 0-1.917.251-2.925.794l-.275.155-60.861 35.169c-.837.532-4.69 3.292-2.235 7.917l.146.264 23.15 40.1-12-44.7c-1.22-4.439.56-7.26 2.272-8.834l.128-.116c1.722-1.536 3.662-2.162 4.002-2.241l.048-.009 59.05-15.8-5.45-9.5-.207-.297c-.574-.794-2.307-2.903-4.843-2.903zm12.45 16.05l-.35-.6-59.85 16.05c-.59.196-5.57 1.743-4.323 7.108l.073.291 11.95 44.6v-46.25c0-4.7 2.55-6.95 4.65-8 1.687-.843 3.373-1.04 4.114-1.086l.386-.014H87.7l-7-12.1zm105.4 39c-2.05 0-3.9.4-5.5 1.25-1.6.8-3 1.9-4.2 3.3-1.2 1.4-2.15 2.95-2.8 4.8-.65 1.8-1.05 3.7-1.2 5.7l26-.05c-.1-4.75-1.25-8.45-3.35-11.05-2.1-2.65-5.1-3.95-8.95-3.95zm90.15 0c-2.05 0-3.9.4-5.5 1.25-1.6.8-3 1.9-4.2 3.3-1.2 1.4-2.15 2.95-2.8 4.8-.65 1.8-1.05 3.7-1.2 5.7l26-.05c-.1-4.75-1.25-8.45-3.35-11.05-2.1-2.65-5.1-3.95-8.95-3.95zm-186-42c-.5 0-1.035.069-1.604.207L83.5 176.69l7.8 13.5h7.2l-2.877-10.646c-.207-.677-1.553-4.454-5.373-4.454z" fill="#FFF"/></svg>