<?xml version="1.0" encoding="UTF-8"?>
<svg width="400px" height="400px" viewBox="0 0 400 400" version="1.1" xmlns="http://www.w3.org/2000/svg" xmlns:xlink="http://www.w3.org/1999/xlink">
    <title>logos/siteground</title>
    <g id="logos/siteground" stroke="none" stroke-width="1" fill="none" fill-rule="evenodd">
        <g id="SITEGROUND_mono_white" transform="translate(0.000000, 233.000000)" fill="#FFFFFF" fill-rule="nonzero">
            <path d="M87.804878,15.1916376 C81.8118467,5.15679443 68.1533101,10.8710801 71.0801394,22.4390244 C74.9825784,38.0487805 93.9372822,41.8118467 100.905923,55.6097561 C104.808362,63.2752613 102.299652,70.8013937 96.445993,74.1463415 C90.5923345,77.4912892 80.2787456,78.8850174 74.0069686,74.2857143 C70.9407666,71.9163763 71.0801394,70.2439024 69.5470383,74.5644599 C68.989547,75.9581882 68.1533101,77.4912892 66.3414634,75.9581882 C64.5296167,74.4250871 63.6933798,66.3414634 68.2926829,63.2752613 C72.8919861,60.2090592 73.1707317,62.5783972 75.8188153,65.2264808 C82.369338,70.6620209 90.7317073,68.989547 92.8222997,64.5296167 C94.912892,60.0696864 92.8222997,57.1428571 90.0348432,54.0766551 C87.2473868,51.010453 79.7212544,45.7142857 74.4250871,39.5818815 C69.1289199,33.4494774 62.2996516,22.71777 65.7839721,13.7979094 C69.2682927,4.87804878 77.3519164,-1.11498258 87.5261324,4.04181185 C93.5191638,7.10801394 99.3728223,13.9372822 96.0278746,20.9059233 C93.6585366,25.6445993 86.5505226,27.1777003 83.2055749,22.2996516 C79.8606272,17.4216028 89.4773519,17.9790941 87.804878,15.1916376 Z" id="Path"></path>
            <path d="M114.285714,31.4982578 C114.56446,40 104.808362,39.4425087 104.529617,31.2195122 C104.390244,28.8501742 106.202091,26.7595819 108.571429,26.6202091 C108.850174,26.6202091 109.12892,26.6202091 109.407666,26.6202091 C110.522648,26.7595819 111.637631,27.3170732 112.473868,28.0139373 C113.449477,28.8501742 114.146341,30.1045296 114.146341,31.4982578 L114.285714,31.4982578 Z" id="Path"></path>
            <path d="M105.226481,50.5923345 L104.808362,50.8710801 C100.627178,53.2404181 101.881533,48.5017422 104.111498,45.7142857 C106.341463,42.9268293 108.292683,41.8118467 109.965157,42.0905923 C111.358885,42.2299652 112.61324,43.2055749 113.031359,44.5993031 C114.146341,50.0348432 108.013937,65.2264808 114.56446,69.2682927 C115.818815,70.1045296 117.351916,69.825784 118.327526,68.7108014 C119.581882,67.3170732 119.721254,64.9477352 121.254355,64.5296167 C122.787456,64.1114983 122.508711,64.6689895 122.787456,66.4808362 C123.205575,71.9163763 120.836237,79.7212544 113.310105,77.0731707 C105.783972,74.4250871 106.898955,61.184669 107.038328,54.2160279 C107.038328,53.7979094 106.898955,49.6167247 105.226481,50.5923345 L105.226481,50.5923345 Z" id="Path"></path>
            <path d="M153.310105,41.1149826 C152.891986,39.7212544 151.498258,38.8850174 150.10453,38.8850174 L142.299652,39.3031359 L133.519164,39.7212544 L134.912892,27.1777003 C136.167247,15.0522648 136.30662,7.5261324 135.052265,4.73867596 C133.797909,1.95121951 132.404181,1.11498258 130.87108,2.22996516 C127.804878,2.78745645 126.968641,8.22299652 126.689895,18.2578397 C126.689895,25.7839721 126.968641,33.1707317 127.665505,40.6968641 L123.205575,41.9512195 C121.95122,42.2299652 120.696864,42.7874564 119.581882,43.3449477 C119.02439,43.6236934 118.745645,44.3205575 118.885017,44.8780488 C118.885017,45.8536585 119.163763,46.8292683 119.581882,47.6655052 L125.156794,60.4878049 L130.313589,72.195122 C131.84669,75.6794425 133.797909,77.4912892 136.30662,77.3519164 C138.815331,77.2125436 139.930314,76.9337979 139.790941,76.5156794 C139.651568,76.097561 139.372822,74.8432056 139.233449,73.0313589 C137.142857,68.2926829 135.609756,63.4146341 134.773519,58.3972125 C134.355401,54.4947735 134.216028,50.5923345 134.216028,46.6898955 C141.881533,44.8780488 147.038328,45.4355401 151.498258,44.1811847 L151.777003,44.1811847 C153.449477,43.0662021 152.473868,43.6236934 153.170732,43.0662021 C153.728223,42.5087108 153.867596,41.6724739 153.310105,41.1149826 Z M130.313589,64.8083624 L130.034843,65.087108 L129.616725,65.087108 L129.059233,63.8327526 C128.641115,62.8571429 126.829268,56.7247387 126.829268,56.7247387 C126.829268,56.7247387 125.296167,51.010453 125.017422,50.4529617 C124.878049,50.174216 124.878049,49.7560976 125.017422,49.4773519 C125.156794,49.1986063 125.296167,48.9198606 125.574913,48.641115 C126.132404,48.2229965 126.689895,47.9442509 127.38676,47.804878 L127.804878,47.804878 L128.083624,48.2229965 L128.083624,49.4773519 L128.501742,52.4041812 L129.89547,61.0452962 L130.313589,64.2508711 L130.313589,64.8083624 Z" id="Shape"></path>
            <path d="M179.930314,67.8745645 C175.191638,73.728223 168.501742,79.1637631 161.114983,77.0731707 C156.794425,75.5400697 154.006969,71.358885 152.61324,66.2020906 C151.358885,61.184669 151.219512,55.8885017 152.334495,50.8710801 C154.006969,43.0662021 158.745645,36.6550523 164.181185,36.6550523 C174.494774,37.630662 179.790941,49.0592334 174.494774,57.1428571 C171.567944,61.6027875 165.43554,63.8327526 162.508711,65.3658537 C159.581882,66.8989547 160.557491,66.2020906 160.696864,68.2926829 C161.114983,73.4494774 169.89547,73.4494774 175.470383,61.8815331 C176.027875,60.7665505 179.512195,56.3066202 181.74216,57.5609756 C186.480836,60.4878049 180.487805,67.1777003 179.930314,67.8745645 Z M158.327526,60.7665505 C164.45993,58.815331 169.616725,53.3797909 170.034843,50.4529617 C170.87108,44.8780488 162.369338,40.1393728 159.303136,49.1986063 C158.466899,51.5679443 158.327526,56.5853659 158.327526,60.6271777 L158.327526,60.7665505 Z" id="Shape"></path>
            <path d="M221.463415,47.5261324 C221.045296,52.1254355 228.013937,76.2369338 222.996516,76.6550523 C217.979094,77.0731707 218.118467,77.2125436 217.421603,75.5400697 C216.724739,73.8675958 219.651568,61.6027875 217.142857,65.3658537 C216.585366,66.2020906 216.724739,66.3414634 215.749129,67.8745645 C207.526132,82.6480836 196.236934,78.7456446 189.686411,66.7595819 C185.226481,58.1184669 183.554007,48.2229965 184.66899,38.6062718 C186.480836,21.4634146 193.867596,-1.11498258 211.149826,2.5087108 C224.808362,5.43554007 215.33101,23.6933798 210.592334,18.9547038 C199.303136,-5.71428571 176.864111,53.9372822 201.672474,68.2926829 C208.919861,72.4738676 215.052265,58.9547038 213.519164,52.9616725 C211.986063,46.9686411 212.264808,48.641115 210.174216,49.1986063 C208.083624,49.7560976 203.066202,54.4947735 201.393728,52.9616725 C199.721254,51.4285714 198.466899,44.0418118 202.229965,43.902439 C205.993031,43.7630662 209.337979,45.1567944 214.634146,38.7456446 C219.930314,32.3344948 223.414634,34.7038328 222.578397,40.9756098 C222.160279,43.7630662 221.463415,45.2961672 221.184669,47.3867596 L221.463415,47.5261324 Z" id="Path"></path>
            <path d="M253.379791,38.6062718 C249.198606,35.6794425 244.181185,34.1463415 239.163763,34.4250871 C231.637631,35.261324 224.529617,40.2787456 225.365854,48.2229965 C225.644599,51.5679443 226.062718,66.0627178 227.317073,72.0557491 C227.595819,74.1463415 228.989547,75.8188153 230.940767,76.5156794 C233.031359,77.2125436 235.121951,76.2369338 236.097561,74.2857143 C237.351916,71.358885 235.958188,68.7108014 235.261324,66.2020906 C234.006969,60.9059233 233.170732,55.3310105 232.752613,49.8954704 C231.916376,40.9756098 245.43554,39.8606272 248.501742,45.0174216 C246.271777,48.5017422 249.477352,50.7317073 253.658537,47.5261324 C257.839721,44.3205575 255.888502,40.5574913 253.240418,38.466899 L253.379791,38.6062718 Z" id="Path"></path>
            <path d="M271.777003,77.4912892 C290.452962,74.2857143 297.560976,45.4355401 274.425087,35.5400697 C250.313589,27.7351916 249.198606,82.2299652 271.777003,77.4912892 Z M263.275261,54.0766551 C265.505226,31.358885 280.418118,41.9512195 282.369338,56.7247387 C284.320557,71.4982578 260.069686,80.2787456 263.275261,54.0766551 Z" id="Shape"></path>
            <path d="M298.675958,47.6655052 C295.749129,54.0766551 296.864111,80 310.243902,67.7351916 C313.170732,65.087108 313.58885,56.445993 312.473868,49.0592334 C312.195122,47.3867596 310.801394,42.2299652 310.243902,40.6968641 C309.686411,39.1637631 311.219512,35.9581882 313.728223,35.1219512 C315.818815,34.5644599 318.04878,35.6794425 318.885017,37.630662 C320.278746,40.9756098 319.303136,46.4111498 319.163763,48.641115 C318.745645,55.3310105 317.630662,63.4146341 320,67.7351916 C320.97561,69.5470383 322.369338,69.825784 322.508711,71.0801394 C322.648084,75.9581882 316.794425,79.1637631 314.703833,76.097561 C314.146341,75.261324 314.56446,74.0069686 313.728223,73.3101045 C302.71777,83.2055749 290.592334,75.4006969 290.87108,61.3240418 C290.87108,58.2578397 290.452962,53.2404181 291.567944,48.7804878 C292.682927,44.3205575 292.961672,42.0905923 294.773519,40.2787456 C296.585366,38.466899 298.25784,39.5818815 299.094077,40.1393728 C299.930314,40.6968641 299.512195,45.2961672 298.675958,47.6655052 L298.675958,47.6655052 Z" id="Path"></path>
            <path d="M347.874564,69.6864111 C349.825784,62.9965157 352.195122,52.1254355 350.662021,48.0836237 C349.12892,44.0418118 340.069686,39.8606272 336.027875,45.9930314 C333.519164,49.7560976 333.379791,63.2752613 336.585366,71.2195122 C337.421603,73.1707317 335.888502,75.8188153 333.519164,76.5156794 C324.320557,79.5818815 331.428571,54.0766551 326.132404,45.8536585 C325.017422,44.0418118 323.623693,43.902439 323.344948,42.6480836 C322.787456,37.9094077 328.362369,34.9825784 330.87108,37.9094077 C331.567944,38.7456446 331.149826,40 332.125436,40.5574913 C342.299652,31.0801394 357.491289,38.1881533 358.466899,51.7073171 C358.606272,58.815331 357.351916,65.7839721 354.843206,72.3344948 C354.285714,73.8675958 353.449477,75.261324 352.334495,76.5156794 C351.080139,77.630662 349.268293,77.7700348 348.013937,76.6550523 C346.341463,75.5400697 347.1777,71.7770035 347.874564,69.6864111 L347.874564,69.6864111 Z" id="Path"></path>
            <path d="M388.432056,40.1393728 C389.268293,32.8919861 386.202091,11.5679443 380.627178,11.010453 C379.094077,10.8710801 378.815331,7.24738676 379.790941,5.0174216 C380.766551,2.78745645 383.275261,2.09059233 387.317073,3.7630662 C393.728223,6.41114983 394.285714,30.8013937 394.425087,38.0487805 C394.56446,45.2961672 394.146341,53.7979094 395.261324,60.4878049 C395.54007,62.5783972 396.236934,64.6689895 397.073171,66.6202091 C398.188153,69.2682927 399.442509,71.0801394 398.606272,72.6132404 C397.770035,74.1463415 391.916376,77.2125436 390.243902,75.5400697 C388.571429,73.8675958 388.571429,72.3344948 388.292683,69.9651568 C378.675958,85.2961672 363.205575,73.3101045 361.114983,58.3972125 C359.02439,43.4843206 371.986063,27.456446 388.432056,39.8606272 L388.432056,40.1393728 L388.432056,40.1393728 Z M373.240418,68.4320557 C385.365854,77.2125436 389.268293,54.4947735 383.135889,45.9930314 C377.003484,37.4912892 356.933798,55.7491289 373.240418,68.4320557 Z" id="Shape"></path>
            <path d="M42.6480836,21.0452962 C50.174216,18.3972125 52.9616725,9.89547038 52.6829268,3.90243902 C24.3902439,-9.47735192 -4.04181185,14.4947735 0.557491289,41.2543554 C2.22996516,50.8710801 8.91986063,60.0696864 18.3972125,63.2752613 C17.7003484,63.9721254 16.445993,65.7839721 15.8885017,66.4808362 C24.9477352,68.4320557 31.4982578,68.1533101 37.2125436,66.0627178 C41.8118467,64.3902439 45.8536585,61.6027875 48.9198606,57.9790941 C51.5679443,55.0522648 53.3797909,51.4285714 54.3554007,47.6655052 C54.4947735,47.2473868 53.5191638,46.271777 55.0522648,46.9686411 C56.5853659,47.6655052 54.6341463,53.5191638 54.0766551,54.912892 C53.2404181,56.7247387 52.4041812,58.3972125 51.2891986,59.9303136 C48.3623693,64.2508711 44.3205575,67.7351916 39.7212544,70.2439024 C32.6132404,74.1463415 20.3484321,75.1219512 12.6829268,71.2195122 C5.0174216,67.3170732 1.11498258,74.0069686 8.36236934,77.7700348 C48.0836237,93.9372822 80.5574913,44.8780488 42.6480836,21.0452962 Z M48.5017422,52.6829268 C40.1393728,66.3414634 23.554007,63.2752613 14.3554007,53.9372822 C5.15679443,44.5993031 6.13240418,31.358885 12.9616725,22.0209059 C20.4878049,12.1254355 32.195122,6.271777 44.5993031,6.271777 C44.738676,7.10801394 44.8780488,8.08362369 44.8780488,8.91986063 C45.1567944,12.8222997 43.6236934,16.7247387 40.6968641,19.3728223 L38.466899,21.3240418 C49.1986063,28.0139373 54.7735192,42.5087108 48.5017422,52.6829268 Z" id="Shape"></path>
            <path d="M12.4041812,36.3763066 C14.4947735,16.0278746 37.9094077,11.9860627 46.5505226,39.1637631 C55.1916376,66.3414634 9.19860627,60.9059233 12.4041812,36.3763066 Z M31.4982578,49.7560976 C50.0348432,50.4529617 41.1149826,31.4982578 28.989547,27.3170732 C16.8641115,23.1358885 10.174216,49.7560976 31.4982578,49.7560976 Z" id="Shape"></path>
        </g>
    </g>
</svg>