<svg width="400" height="400" viewBox="0 0 400 400" xmlns="http://www.w3.org/2000/svg"><g fill="#FFF" fill-rule="nonzero"><path d="M87.805 248.192c-5.993-10.035-19.652-4.32-16.725 7.247 3.903 15.61 22.857 19.373 29.826 33.17 3.902 7.666 1.394 15.192-4.46 18.537-5.854 3.345-16.167 4.739-22.439.14-3.066-2.37-2.927-4.042-4.46.278-.557 1.394-1.394 2.927-3.206 1.394-1.811-1.533-2.648-9.617 1.952-12.683 4.599-3.066 4.878-.697 7.526 1.951 6.55 5.436 14.913 3.764 17.003-.696s0-7.387-2.787-10.453c-2.788-3.067-10.314-8.363-15.61-14.495-5.296-6.133-12.125-16.864-8.641-25.784 3.484-8.92 11.568-14.913 21.742-9.756 5.993 3.066 11.847 9.895 8.502 16.864-2.37 4.739-9.477 6.272-12.822 1.394-3.345-4.878 6.271-4.32 4.599-7.108zM114.286 264.498c.278 8.502-9.478 7.945-9.756-.278-.14-2.37 1.672-4.46 4.041-4.6h.837c1.115.14 2.23.697 3.066 1.394.975.836 1.672 2.09 1.672 3.484h.14z"/><path d="M105.226 283.592l-.418.28c-4.18 2.368-2.926-2.37-.697-5.158 2.23-2.787 4.182-3.902 5.854-3.623 1.394.139 2.648 1.115 3.066 2.508 1.115 5.436-5.017 20.627 1.533 24.67 1.255.836 2.788.557 3.764-.558 1.254-1.394 1.393-3.763 2.926-4.181 1.533-.419 1.255.139 1.533 1.95.419 5.436-1.95 13.241-9.477 10.593-7.526-2.648-6.411-15.888-6.272-22.857 0-.418-.139-4.6-1.812-3.624zM153.31 274.115c-.418-1.394-1.812-2.23-3.205-2.23l-7.805.418-8.78.418 1.393-12.543c1.254-12.126 1.394-19.652.14-22.44-1.255-2.787-2.649-3.623-4.182-2.508-3.066.557-3.902 5.993-4.181 16.028 0 7.526.279 14.913.976 22.439l-4.46 1.254c-1.255.279-2.51.836-3.624 1.394-.558.279-.836.976-.697 1.533 0 .976.279 1.951.697 2.788l5.575 12.822 5.157 11.707c1.533 3.484 3.484 5.296 5.993 5.157 2.508-.14 3.623-.418 3.484-.836-.14-.418-.418-1.673-.558-3.485-2.09-4.738-3.623-9.616-4.46-14.634-.418-3.902-.557-7.805-.557-11.707 7.666-1.812 12.822-1.254 17.282-2.509h.279c1.672-1.115.697-.557 1.394-1.115.557-.557.697-1.394.14-1.951zm-22.996 23.693l-.28.28h-.417l-.558-1.255c-.418-.976-2.23-7.108-2.23-7.108s-1.533-5.715-1.812-6.272a1.19 1.19 0 010-.976c.14-.278.28-.557.558-.836.557-.418 1.115-.697 1.812-.836h.418l.279.418v1.254l.418 2.927 1.393 8.641.419 3.206v.557zM179.93 300.875c-4.738 5.853-11.428 11.289-18.815 9.198-4.32-1.533-7.108-5.714-8.502-10.87-1.254-5.018-1.393-10.314-.279-15.332 1.673-7.805 6.412-14.216 11.847-14.216 10.314.976 15.61 12.404 10.314 20.488-2.927 4.46-9.06 6.69-11.986 8.223-2.927 1.533-1.952.836-1.812 2.927.418 5.156 9.198 5.156 14.773-6.411.558-1.115 4.042-5.575 6.272-4.321 4.739 2.927-1.254 9.617-1.812 10.314zm-21.602-7.108c6.132-1.952 11.289-7.387 11.707-10.314.836-5.575-7.666-10.314-10.732-1.254-.836 2.369-.975 7.386-.975 11.428v.14zM221.463 280.526c-.418 4.6 6.55 28.71 1.534 29.13-5.018.417-4.879.557-5.575-1.116-.697-1.672 2.23-13.937-.28-10.174-.557.836-.417.975-1.393 2.509-8.223 14.773-19.512 10.87-26.063-1.115-4.46-8.642-6.132-18.537-5.017-28.154 1.812-17.143 9.199-39.721 26.48-36.097 13.66 2.927 4.182 21.184-.557 16.446-11.289-24.67-33.728 34.982-8.92 49.338 7.248 4.18 13.38-9.338 11.847-15.331-1.533-5.993-1.254-4.32-3.345-3.763-2.09.557-7.108 5.296-8.78 3.763-1.673-1.533-2.927-8.92.836-9.06 3.763-.139 7.108 1.255 12.404-5.156 5.296-6.412 8.78-4.042 7.944 2.23-.418 2.787-1.115 4.32-1.393 6.41l.278.14zM253.38 271.606c-4.181-2.927-9.199-4.46-14.216-4.18-7.526.835-14.634 5.853-13.798 13.797.279 3.345.697 17.84 1.951 23.833.279 2.09 1.673 3.763 3.624 4.46 2.09.697 4.181-.28 5.157-2.23 1.254-2.927-.14-5.575-.837-8.084-1.254-5.296-2.09-10.871-2.508-16.307-.837-8.92 12.683-10.034 15.749-4.878-2.23 3.485.975 5.715 5.157 2.51 4.18-3.206 2.23-6.97-.419-9.06l.14.14z"/><path d="M271.777 310.491c18.676-3.205 25.784-32.055 2.648-41.95-24.111-7.806-25.226 46.689-2.648 41.95zm-8.502-23.414c2.23-22.718 17.143-12.126 19.094 2.648 1.952 14.773-22.3 23.554-19.094-2.648z"/><path d="M298.676 280.666c-2.927 6.41-1.812 32.334 11.568 20.07 2.927-2.649 3.345-11.29 2.23-18.677-.279-1.672-1.673-6.829-2.23-8.362-.558-1.533.976-4.739 3.484-5.575 2.09-.558 4.32.557 5.157 2.509 1.394 3.345.418 8.78.279 11.01-.418 6.69-1.533 14.774.836 19.094.976 1.812 2.37 2.09 2.509 3.345.14 4.878-5.715 8.084-7.805 5.018-.558-.837-.14-2.091-.976-2.788-11.01 9.896-23.136 2.09-22.857-11.986 0-3.066-.418-8.084.697-12.544 1.115-4.46 1.394-6.69 3.206-8.501 1.811-1.812 3.484-.697 4.32-.14.836.558.418 5.157-.418 7.527zM347.875 302.686c1.95-6.69 4.32-17.56 2.787-21.602-1.533-4.042-10.592-8.223-14.634-2.091-2.509 3.763-2.648 17.282.557 25.227.837 1.95-.696 4.599-3.066 5.296-9.198 3.066-2.09-22.44-7.387-30.662-1.115-1.812-2.508-1.952-2.787-3.206-.558-4.739 5.017-7.665 7.526-4.739.697.837.279 2.091 1.254 2.648 10.175-9.477 25.366-2.369 26.342 11.15a54.564 54.564 0 01-3.624 20.627 12.869 12.869 0 01-2.509 4.182c-1.254 1.115-3.066 1.254-4.32.14-1.673-1.116-.836-4.879-.14-6.97zM388.432 273.14c.836-7.248-2.23-28.572-7.805-29.13-1.533-.139-1.812-3.763-.836-5.993.976-2.23 3.484-2.926 7.526-1.254 6.411 2.648 6.969 27.038 7.108 34.286.14 7.247-.279 15.749.836 22.439.28 2.09.976 4.181 1.812 6.132 1.115 2.648 2.37 4.46 1.533 5.993-.836 1.533-6.69 4.6-8.362 2.927-1.673-1.672-1.673-3.206-1.951-5.575-9.617 15.331-25.087 3.345-27.178-11.568-2.09-14.913 10.871-30.94 27.317-18.536v.278zm-15.192 28.292c12.126 8.78 16.028-13.937 9.896-22.439-6.133-8.502-26.202 9.756-9.896 22.44zM42.648 254.045c7.526-2.648 10.314-11.15 10.035-17.143C24.39 223.522-4.042 247.495.557 274.254c1.673 9.617 8.363 18.816 17.84 22.021-.697.697-1.951 2.509-2.508 3.206 9.059 1.951 15.61 1.672 21.324-.418 4.599-1.673 8.64-4.46 11.707-8.084 2.648-2.927 4.46-6.55 5.435-10.313.14-.419-.836-1.394.697-.697s-.418 6.55-.975 7.944c-.837 1.812-1.673 3.484-2.788 5.017-2.927 4.32-6.968 7.805-11.568 10.314-7.108 3.902-19.373 4.878-27.038.976-7.666-3.903-11.568 2.787-4.32 6.55 39.72 16.167 72.194-32.892 34.285-56.725zm5.854 31.638c-8.363 13.658-24.948 10.592-34.147 1.254-9.198-9.338-8.223-22.578-1.393-31.916 7.526-9.896 19.233-15.75 31.637-15.75.14.837.279 1.813.279 2.649.279 3.902-1.254 7.805-4.181 10.453l-2.23 1.951c10.732 6.69 16.307 21.185 10.035 31.359z"/><path d="M12.404 269.376c2.09-20.348 25.505-24.39 34.147 2.788 8.64 27.177-37.352 21.742-34.147-2.788zm19.094 13.38c18.537.697 9.617-18.258-2.508-22.439-12.126-4.181-18.816 22.44 2.508 22.44z"/></g></svg>