<svg width="400" height="360" viewBox="0 0 400 360" xmlns="http://www.w3.org/2000/svg"><path d="M61.317 179.347v106.146h-5.274V179.347h5.274zm99.103 26.77a23.996 23.996 0 0111.242 2.651 18.57 18.57 0 013.81 2.6c.957.84 1.813 1.78 2.552 2.813h.21v-6.815h14.646l-.184 47.198h-.003c0 9.769-2.474 17.203-7.428 22.297-4.948 5.096-12.427 7.628-22.43 7.596a60.424 60.424 0 01-13.619-1.538 30.694 30.694 0 01-12.304-5.994l8.8-13.157a33.287 33.287 0 007.8 4.88 21.929 21.929 0 008.965 1.808c4.877 0 8.468-1.185 10.77-3.552a12.502 12.502 0 003.44-9.082v-4.954h-.21a15.005 15.005 0 01-6.746 5.19 21.923 21.923 0 01-7.687 1.537c-3.563.05-7.1-.621-10.399-1.97a23.124 23.124 0 01-7.912-5.513 24.567 24.567 0 01-5.152-8.435 30.675 30.675 0 01-1.808-10.716 31.1 31.1 0 011.647-9.973 27.258 27.258 0 014.67-8.597 23.402 23.402 0 017.428-5.994 20.924 20.924 0 019.902-2.28zm63.942 1.214v25.271c0 1.486.055 3.026.162 4.619.087 1.511.41 3 .956 4.411a6.847 6.847 0 007.18 4.596 9.824 9.824 0 004.95-1.114 7.624 7.624 0 002.923-2.971 12.143 12.143 0 001.324-4.19c.216-1.617.323-3.248.323-4.882V207.37h15.944v51.592h-15.276v-7.011h-.213a17.552 17.552 0 01-2.176 2.971 14.265 14.265 0 01-3.23 2.651 18.787 18.787 0 01-4.36 1.922 18.19 18.19 0 01-5.313.743 22.271 22.271 0 01-9.818-1.857 14.016 14.016 0 01-5.829-5.155 20.136 20.136 0 01-2.761-7.74 63.074 63.074 0 01-.691-9.664v-28.491h15.905zm-199.255-1.156c3.478.174 6.918.833 10.212 1.957a19.087 19.087 0 018.558 5.713l-10.19 9.191-.002.004a11.265 11.265 0 00-9.011-4.78 8.662 8.662 0 00-3.963.765 3.386 3.386 0 00-2.018 3.207 2.962 2.962 0 001.783 2.94 25.73 25.73 0 004.954 1.817l6.4 1.786a24.393 24.393 0 016.35 2.797 14.5 14.5 0 014.767 4.844 13.752 13.752 0 011.595 7.88 14.45 14.45 0 01-2.612 8.126 16.678 16.678 0 01-5.804 4.954 23.883 23.883 0 01-7.764 2.403 45.455 45.455 0 01-8.406.41 40.573 40.573 0 01-10.845-2.044 20.379 20.379 0 01-9.075-5.897l10.14-10.257a15.974 15.974 0 004.803 4.347 13.29 13.29 0 006.19 1.724 14.737 14.737 0 004.952-.597 2.936 2.936 0 002.477-2.774 3.233 3.233 0 00-1.818-3.107 21.677 21.677 0 00-4.954-1.935l-6.389-1.782a26.722 26.722 0 01-6.349-2.687 13.535 13.535 0 01-4.767-4.748 13.77 13.77 0 01-1.598-7.89 15.728 15.728 0 012.218-7.75 16.322 16.322 0 015.087-5.184 21.15 21.15 0 017.082-2.8 31.899 31.899 0 017.997-.633zm312.746 1.773a16.752 16.752 0 017.218 5.154 19.91 19.91 0 013.714 8.339 55.221 55.221 0 011.066 11.407v26.114h-14.55v-6.54h-.21a14.97 14.97 0 01-7.056 5.943 24.258 24.258 0 01-9.285 1.808c-2.351.01-4.69-.328-6.943-1a17.514 17.514 0 01-5.894-2.972 14.614 14.614 0 01-4.037-4.958 15.23 15.23 0 01-1.486-6.898 15.825 15.825 0 011.647-7.531 14.74 14.74 0 014.457-5.093 22.13 22.13 0 016.414-3.133 46.642 46.642 0 017.428-1.647 71.761 71.761 0 017.735-.633c2.583-.065 4.97-.103 7.156-.11a8.29 8.29 0 00-3.02-6.74 10.903 10.903 0 00-7.156-2.477 15.58 15.58 0 00-7.157 1.647 19.562 19.562 0 00-5.78 4.508l-8.482-8.671a29.176 29.176 0 0110.4-6.191 37.12 37.12 0 0112.304-2.07 32.17 32.17 0 0111.517 1.744zm-222.793.016a14.113 14.113 0 015.781 5.151 20.853 20.853 0 012.81 7.754c.514 3.198.762 6.427.743 9.663v28.492h-15.906v-25.32a69.25 69.25 0 00-.161-4.619c-.087-1.51-.408-3-.953-4.411a6.847 6.847 0 00-7.157-4.56 9.811 9.811 0 00-4.954 1.117 7.59 7.59 0 00-2.92 2.971 12.143 12.143 0 00-1.324 4.189 36.2 36.2 0 00-.323 4.877v25.694H74.762V207.37h15.276v7.008h.213a12.918 12.918 0 012.115-2.971 15.502 15.502 0 013.294-2.649 18.848 18.848 0 014.347-1.912 18.176 18.176 0 015.297-.742c3.351-.135 6.69.501 9.756 1.86zm173.42-29.247v80.245h-15.91v-80.245h15.91zm105.342 27.377c.917 0 1.837.035 2.761.11.862.058 1.715.2 2.551.42v14.542a21.777 21.777 0 00-6.782-1.052 16.89 16.89 0 00-7.221 1.24 9.577 9.577 0 00-4.085 3.552 13.532 13.532 0 00-1.857 5.465 53.11 53.11 0 00-.42 6.998v21.554h-15.91V207.37h15.91v8.274h.21a19.558 19.558 0 016.039-7.16 15.282 15.282 0 018.804-2.39zm-58.485 30.222h-3.96c-1.236 0-2.7 0-4.504.162-1.763.1-3.508.403-5.2.904a11.588 11.588 0 00-4.247 2.229 5.14 5.14 0 00-1.76 4.14 4.547 4.547 0 002.477 4.247c1.547.912 3.307 1.4 5.103 1.414a16.11 16.11 0 004.505-.633 13.394 13.394 0 003.875-1.808 8.691 8.691 0 002.71-2.971 8.583 8.583 0 001.001-4.25v-3.434zm-169.902-16.212a11.791 11.791 0 00-5.038 1.066 14.016 14.016 0 00-4.085 2.76 12.392 12.392 0 00-3.714 8.87l.048.048c0 3.333 1.337 6.524 3.714 8.859a13.957 13.957 0 004.037 2.81c1.583.723 3.3 1.088 5.038 1.065 1.708.004 3.396-.36 4.951-1.066a13.727 13.727 0 004.086-2.81 12.528 12.528 0 000-17.727 13.83 13.83 0 00-4.086-2.81 11.917 11.917 0 00-4.95-1.065z" fill="#FFF"/></svg>