<?xml version="1.0" encoding="UTF-8"?>
<svg width="400px" height="400px" viewBox="0 0 400 400" version="1.1" xmlns="http://www.w3.org/2000/svg" xmlns:xlink="http://www.w3.org/1999/xlink">
    <title>logos/str</title>
    <g id="logos/str" stroke="none" stroke-width="1" fill="none" fill-rule="evenodd">
        <path d="M196.460747,253.192645 L198.703301,259.4324 C198.939816,260.101702 199.154091,260.800656 199.346127,261.529263 C199.517646,260.84319 199.717618,260.171344 199.946046,259.513726 L200.062631,259.186102 L202.260555,253.192645 L204.003402,253.192645 L200.041779,263.783593 C199.646176,264.841014 199.336832,265.574218 199.113748,265.983206 C198.803908,266.5577 198.448884,266.978888 198.048674,267.24677 C197.648465,267.514652 197.170796,267.648593 196.615667,267.648593 C196.313574,267.648593 195.980109,267.591079 195.615273,267.476051 L195.492498,267.435578 L195.298849,265.799238 L195.424004,265.831753 C195.75297,265.913356 196.043683,265.954158 196.296145,265.954158 C196.683444,265.954158 196.993284,265.889608 197.225663,265.760509 C197.458043,265.631409 197.648465,265.450669 197.79693,265.21829 C197.906665,265.044005 198.084177,264.61152 198.329466,263.920837 L198.392402,263.74171 L198.484386,263.494807 L194.582346,253.192645 L196.460747,253.192645 Z M356.647759,252.960265 C357.525638,252.960265 358.300237,253.18619 358.971555,253.638038 C359.642874,254.089888 360.149591,254.727318 360.491706,255.55033 C360.83382,256.373341 361.004877,257.275425 361.004877,258.256583 C361.004877,259.308746 360.816069,260.256017 360.438452,261.098393 C360.060835,261.940769 359.512161,262.586267 358.79243,263.03489 C358.072698,263.483511 357.31585,263.707822 356.521887,263.707822 C355.940938,263.707822 355.419698,263.585177 354.958166,263.339887 C354.535095,263.115038 354.18118,262.83595 353.896421,262.502622 L353.820474,262.410369 L353.820474,267.416214 L352.077627,267.416214 L352.077627,253.192645 L353.665554,253.192645 L353.665554,254.528827 L353.746522,254.418788 C354.100591,253.95062 354.496404,253.595159 354.93396,253.352406 C355.405174,253.090978 355.976441,252.960265 356.647759,252.960265 Z M178.751484,249.038859 L177.909108,253.192645 L180.95909,253.192645 L181.801466,249.038859 L183.263522,249.038859 L182.421146,253.192645 L184.096215,253.192645 L184.096215,254.635334 L182.130671,254.635334 L181.404485,258.150076 L184.096215,258.150076 L184.096215,259.592766 L181.11401,259.592766 L180.271634,263.717504 L178.819262,263.717504 L179.651955,259.592766 L176.611655,259.592766 L175.769279,263.717504 L174.316906,263.717504 L175.159282,259.592766 L173.522943,259.592766 L173.522943,258.150076 L175.449758,258.150076 L176.166261,254.635334 L173.522943,254.635334 L173.522943,253.192645 L176.456735,253.192645 L177.299112,249.038859 L178.751484,249.038859 Z M373.930993,252.960265 C375.305906,252.960265 376.429074,253.428251 377.300498,254.364225 C378.171921,255.300198 378.607633,256.617016 378.607633,258.314678 L378.606271,258.452654 C378.605363,258.505907 378.604002,258.566423 378.602186,258.6342 L378.59795,258.779438 L370.929423,258.779438 L370.938393,258.913722 C371.019942,259.977834 371.336474,260.798042 371.887989,261.374343 C372.462483,261.974658 373.178986,262.274814 374.0375,262.274814 C374.676544,262.274814 375.22199,262.106985 375.67384,261.771325 C376.09911,261.45541 376.44147,260.96224 376.70092,260.291815 L376.748596,260.164033 L378.549538,260.38673 L378.512774,260.517023 C378.221258,261.50653 377.70743,262.279655 376.971293,262.836398 C376.203149,263.417347 375.22199,263.707822 374.027818,263.707822 C372.523806,263.707822 371.331246,263.244677 370.45014,262.318386 C369.569034,261.392094 369.128481,260.093028 369.128481,258.421186 C369.128481,256.691249 369.573875,255.348611 370.464664,254.393273 C371.355452,253.437934 372.510895,252.960265 373.930993,252.960265 Z M384.116966,252.960265 C384.923839,252.960265 385.632274,253.076454 386.242271,253.308834 C386.852267,253.541214 387.302503,253.855894 387.592978,254.252877 C387.864087,254.623393 388.056474,255.110586 388.17014,255.714458 L388.193291,255.845645 L386.489174,256.078025 L386.47293,255.980141 C386.383102,255.49753 386.164206,255.117038 385.816242,254.838666 C385.44508,254.541738 384.920612,254.393273 384.242838,254.393273 C383.442419,254.393273 382.871153,254.5256 382.529038,254.790254 C382.186924,255.054909 382.015867,255.364748 382.015867,255.719773 C382.015867,255.945698 382.086872,256.14903 382.228882,256.32977 C382.370891,256.516964 382.593589,256.671884 382.896973,256.794529 L382.947604,256.812414 C383.15914,256.884406 383.655434,257.026908 384.436488,257.239922 L384.725227,257.317786 C385.804626,257.611864 386.568506,257.855406 387.01687,258.04841 C387.504222,258.258198 387.886679,258.563195 388.164244,258.963405 C388.441809,259.363614 388.580591,259.860648 388.580591,260.454507 C388.580591,261.035456 388.411147,261.582517 388.072261,262.095688 C387.733374,262.60886 387.244408,263.005842 386.605364,263.286634 C385.96632,263.567426 385.243362,263.707822 384.436488,263.707822 C383.100305,263.707822 382.08203,263.430258 381.381664,262.875128 C380.709313,262.342204 380.270456,261.5624 380.065094,260.535716 L380.04064,260.406095 L381.764122,260.134986 L381.781858,260.248605 C381.891424,260.883983 382.155008,261.375419 382.57261,261.722913 C383.014777,262.090847 383.632842,262.274814 384.426806,262.274814 C385.227224,262.274814 385.821083,262.111826 386.208382,261.785849 C386.595682,261.459872 386.789331,261.077414 386.789331,260.638474 C386.789331,260.24472 386.618274,259.934881 386.27616,259.708956 C386.046878,259.560233 385.490407,259.372842 384.606745,259.146783 L384.206601,259.044618 C383.082516,258.752882 382.292562,258.498274 381.836741,258.28079 C381.342934,258.045182 380.968545,257.719206 380.713573,257.302859 C380.458601,256.886512 380.331114,256.426594 380.331114,255.923105 C380.331114,255.464801 380.436008,255.040385 380.645795,254.649858 C380.855582,254.259331 381.141216,253.934968 381.502695,253.676769 C381.773805,253.476664 382.143353,253.307221 382.61134,253.168438 C383.079326,253.029656 383.581202,252.960265 384.116966,252.960265 Z M208.864009,252.960265 C209.670882,252.960265 210.379318,253.076454 210.989314,253.308834 C211.59931,253.541214 212.049546,253.855894 212.340021,254.252877 C212.61113,254.623393 212.803518,255.110586 212.917182,255.714458 L212.940334,255.845645 L211.236218,256.078025 L211.219973,255.980141 C211.130145,255.49753 210.911249,255.117038 210.563285,254.838666 C210.192123,254.541738 209.667655,254.393273 208.989881,254.393273 C208.189462,254.393273 207.618196,254.5256 207.276082,254.790254 C206.933967,255.054909 206.76291,255.364748 206.76291,255.719773 C206.76291,255.945698 206.833914,256.14903 206.975925,256.32977 C207.117934,256.516964 207.340631,256.671884 207.644016,256.794529 L207.759399,256.833796 C207.998771,256.910898 208.473482,257.046273 209.183531,257.239922 L209.47227,257.317786 C210.551668,257.611864 211.31555,257.855406 211.763913,258.04841 C212.251265,258.258198 212.633722,258.563195 212.911287,258.963405 C213.188852,259.363614 213.327634,259.860648 213.327634,260.454507 C213.327634,261.035456 213.15819,261.582517 212.819303,262.095688 C212.480417,262.60886 211.991451,263.005842 211.352407,263.286634 C210.713363,263.567426 209.990405,263.707822 209.183531,263.707822 C207.847348,263.707822 206.829074,263.430258 206.128707,262.875128 C205.456355,262.342204 205.017499,261.5624 204.812138,260.535716 L204.787683,260.406095 L206.511166,260.134986 L206.528902,260.248605 C206.638467,260.883983 206.90205,261.375419 207.319653,261.722913 C207.761819,262.090847 208.379885,262.274814 209.173848,262.274814 C209.974267,262.274814 210.568126,262.111826 210.955426,261.785849 C211.342725,261.459872 211.536374,261.077414 211.536374,260.638474 C211.536374,260.24472 211.365318,259.934881 211.023202,259.708956 C210.793922,259.560233 210.23745,259.372842 209.353788,259.146783 L208.953643,259.044618 C207.829558,258.752882 207.039606,258.498274 206.583784,258.28079 C206.089978,258.045182 205.715588,257.719206 205.460616,257.302859 C205.205644,256.886512 205.078158,256.426594 205.078158,255.923105 C205.078158,255.464801 205.183051,255.040385 205.392838,254.649858 C205.602626,254.259331 205.888259,253.934968 206.249738,253.676769 C206.520848,253.476664 206.890396,253.307221 207.358382,253.168438 C207.82637,253.029656 208.328245,252.960265 208.864009,252.960265 Z M219.747121,252.960265 C220.624999,252.960265 221.338275,253.063545 221.88695,253.270104 C222.435624,253.476664 222.839061,253.736478 223.09726,254.049544 C223.35546,254.362611 223.536199,254.757979 223.639479,255.235649 C223.694346,255.516082 223.723304,256.00955 223.726353,256.716053 L223.727542,259.593846 C223.733677,260.968333 223.770486,261.850692 223.83797,262.240926 C223.903954,262.622487 224.027317,262.990023 224.208056,263.343534 L224.278523,263.475442 L222.458216,263.475442 L222.40593,263.365159 C222.254884,263.02879 222.156122,262.642749 222.109646,262.207037 C221.464148,262.755711 220.842855,263.14301 220.245769,263.368935 C219.648682,263.594859 219.008025,263.707822 218.323795,263.707822 C217.194173,263.707822 216.325977,263.431871 215.719207,262.87997 C215.112438,262.328068 214.809054,261.62286 214.809054,260.764347 C214.809054,260.260858 214.92363,259.80094 215.152782,259.384593 C215.381934,258.968246 215.682091,258.6342 216.053253,258.382456 C216.424415,258.130711 216.842375,257.940289 217.307134,257.81119 C217.626442,257.726844 218.09757,257.64531 218.720519,257.566588 L218.856332,257.549762 C220.26352,257.381933 221.299546,257.181828 221.96441,256.949448 L221.974092,256.494371 C221.974092,255.784322 221.80949,255.284061 221.480286,254.993586 C221.034891,254.599832 220.373254,254.402955 219.495376,254.402955 C218.675593,254.402955 218.070438,254.546578 217.67991,254.833826 C217.309938,255.105954 217.031211,255.576507 216.84373,256.245483 L216.813328,256.358817 L215.109211,256.126437 L215.141529,255.982426 C215.298572,255.319111 215.542771,254.778098 215.874127,254.359384 C216.229151,253.910762 216.742323,253.56542 217.413642,253.323358 C218.084961,253.081296 218.862787,252.960265 219.747121,252.960265 Z M283.206119,249.280921 L283.206119,263.475442 L281.589145,263.475442 L281.589145,262.17799 L281.529032,262.269302 C280.878814,263.228315 279.940286,263.707822 278.713447,263.707822 C277.893663,263.707822 277.140043,263.481898 276.452587,263.030048 C275.76513,262.578198 275.232594,261.947224 274.854978,261.137122 C274.477361,260.327022 274.288552,259.395889 274.288552,258.343726 C274.288552,257.317382 274.45961,256.38625 274.801724,255.55033 C275.143838,254.714408 275.65701,254.07375 276.341238,253.628356 C277.025467,253.182962 277.790384,252.960265 278.635987,252.960265 C279.255666,252.960265 279.807568,253.090978 280.291692,253.352406 C280.738576,253.593722 281.108458,253.902416 281.401339,254.278486 L281.472955,254.373907 L281.472955,249.280921 L283.206119,249.280921 Z M328.752523,252.960265 C330.127436,252.960265 331.250604,253.428251 332.122028,254.364225 C332.993451,255.300198 333.429163,256.617016 333.429163,258.314678 L333.425381,258.568844 L333.419481,258.779438 L325.750954,258.779438 L325.759923,258.913722 C325.841473,259.977834 326.158005,260.798042 326.709519,261.374343 C327.284014,261.974658 328.000518,262.274814 328.85903,262.274814 C329.498074,262.274814 330.043522,262.106985 330.49537,261.771325 C330.920641,261.45541 331.263001,260.96224 331.522451,260.291815 L331.570126,260.164033 L333.371068,260.38673 L333.334305,260.517023 C333.042788,261.50653 332.528961,262.279655 331.792823,262.836398 C331.02468,263.417347 330.043522,263.707822 328.849348,263.707822 C327.345336,263.707822 326.152777,263.244677 325.27167,262.318386 C324.390565,261.392094 323.950011,260.093028 323.950011,258.421186 C323.950011,256.691249 324.395406,255.348611 325.286194,254.393273 C326.176982,253.437934 327.332426,252.960265 328.752523,252.960265 Z M234.716241,249.280921 L234.716241,263.475442 L233.099266,263.475442 L233.099266,262.17799 L233.039153,262.269302 C232.388935,263.228315 231.450407,263.707822 230.223568,263.707822 C229.403785,263.707822 228.650165,263.481898 227.962708,263.030048 C227.275252,262.578198 226.742715,261.947224 226.365098,261.137122 C225.987482,260.327022 225.798673,259.395889 225.798673,258.343726 C225.798673,257.317382 225.96973,256.38625 226.311845,255.55033 C226.653959,254.714408 227.16713,254.07375 227.85136,253.628356 C228.535589,253.182962 229.300505,252.960265 230.146108,252.960265 C230.765787,252.960265 231.317689,253.090978 231.801813,253.352406 C232.248697,253.593722 232.618579,253.902416 232.91146,254.278486 L232.983076,254.373907 L232.983076,249.280921 L234.716241,249.280921 Z M309.697395,253.192645 L309.697615,259.017899 L309.69951,259.262687 C309.708106,259.972703 309.742903,260.463574 309.803902,260.735299 C309.913638,261.193604 310.146017,261.55347 310.501042,261.814896 C310.856066,262.076323 311.295005,262.207037 311.817859,262.207037 C312.340714,262.207037 312.831293,262.073096 313.289597,261.805214 C313.747901,261.537332 314.072264,261.172625 314.262686,260.711093 C314.44253,260.275202 314.537447,259.653626 314.547438,258.846363 L314.54832,253.192645 L316.291166,253.192645 L316.291166,263.475442 L314.732287,263.475442 L314.732287,261.964975 L314.660916,262.065987 C313.867639,263.160544 312.803764,263.707822 311.46929,263.707822 C310.862521,263.707822 310.296095,263.591632 309.770014,263.359253 C309.243932,263.126873 308.853406,262.834785 308.598434,262.482988 C308.343462,262.13119 308.164335,261.70032 308.061055,261.190376 C307.998404,260.88851 307.963393,260.430854 307.956022,259.817406 L307.954548,259.563719 L307.954548,253.192645 L309.697395,253.192645 Z M290.167826,252.960265 C291.542738,252.960265 292.665906,253.428251 293.53733,254.364225 C294.381522,255.27095 294.816808,256.535087 294.843189,258.156638 L294.844465,258.314678 C294.844465,258.366318 294.843658,258.430868 294.842045,258.508328 L294.834782,258.779438 L287.166255,258.779438 L287.175226,258.913722 C287.256775,259.977834 287.573307,260.798042 288.124822,261.374343 C288.699315,261.974658 289.415819,262.274814 290.274333,262.274814 C290.913377,262.274814 291.458823,262.106985 291.910673,261.771325 C292.335942,261.45541 292.678302,260.96224 292.937753,260.291815 L292.985428,260.164033 L294.78637,260.38673 L294.749607,260.517023 C294.45809,261.50653 293.944263,262.279655 293.208126,262.836398 C292.439982,263.417347 291.458823,263.707822 290.26465,263.707822 C288.760638,263.707822 287.568078,263.244677 286.686973,262.318386 C285.805866,261.392094 285.365314,260.093028 285.365314,258.421186 C285.365314,256.691249 285.810708,255.348611 286.701496,254.393273 C287.592285,253.437934 288.747728,252.960265 290.167826,252.960265 Z M189.034282,252.960265 C189.841156,252.960265 190.54959,253.076454 191.159587,253.308834 C191.769584,253.541214 192.219819,253.855894 192.510294,254.252877 C192.781403,254.623393 192.97379,255.110586 193.087456,255.714458 L193.110608,255.845645 L191.40649,256.078025 L191.390246,255.980141 C191.300418,255.49753 191.081522,255.117038 190.733558,254.838666 C190.362396,254.541738 189.837928,254.393273 189.160154,254.393273 C188.359736,254.393273 187.788469,254.5256 187.446354,254.790254 C187.10424,255.054909 186.933183,255.364748 186.933183,255.719773 C186.933183,255.945698 187.004188,256.14903 187.146198,256.32977 C187.288207,256.516964 187.510905,256.671884 187.814289,256.794529 L187.929672,256.833796 C188.169045,256.910898 188.643755,257.046273 189.353804,257.239922 L189.642543,257.317786 C190.721942,257.611864 191.485822,257.855406 191.934186,258.04841 C192.421538,258.258198 192.803996,258.563195 193.08156,258.963405 C193.359125,259.363614 193.497907,259.860648 193.497907,260.454507 C193.497907,261.035456 193.328464,261.582517 192.989577,262.095688 C192.65069,262.60886 192.161724,263.005842 191.52268,263.286634 C190.883637,263.567426 190.160678,263.707822 189.353804,263.707822 C188.017622,263.707822 186.999346,263.430258 186.29898,262.875128 C185.626629,262.342204 185.187772,261.5624 184.98241,260.535716 L184.957956,260.406095 L186.681438,260.134986 L186.699174,260.248605 C186.80874,260.883983 187.072324,261.375419 187.489926,261.722913 C187.932093,262.090847 188.550158,262.274814 189.344122,262.274814 C190.14454,262.274814 190.738399,262.111826 191.125698,261.785849 C191.512998,261.459872 191.706647,261.077414 191.706647,260.638474 C191.706647,260.24472 191.53559,259.934881 191.193476,259.708956 C190.964194,259.560233 190.407723,259.372842 189.524061,259.146783 L189.123917,259.044618 C187.999832,258.752882 187.209878,258.498274 186.754057,258.28079 C186.26025,258.045182 185.885861,257.719206 185.630889,257.302859 C185.375917,256.886512 185.248431,256.426594 185.248431,255.923105 C185.248431,255.464801 185.353325,255.040385 185.563111,254.649858 C185.772898,254.259331 186.058532,253.934968 186.420011,253.676769 C186.691121,253.476664 187.060669,253.307221 187.528656,253.168438 C187.996642,253.029656 188.498518,252.960265 189.034282,252.960265 Z M395.000078,252.960265 C395.877956,252.960265 396.591233,253.063545 397.139906,253.270104 C397.688581,253.476664 398.092018,253.736478 398.350217,254.049544 C398.608417,254.362611 398.789156,254.757979 398.892436,255.235649 C398.944076,255.499586 398.972765,255.952232 398.978502,256.593587 L398.979578,256.842941 L398.979681,259.312388 C398.981862,260.848498 399.018944,261.824677 399.090927,262.240926 C399.156911,262.622487 399.280274,262.990023 399.461013,263.343534 L399.53148,263.475442 L397.711173,263.475442 L397.658888,263.365159 C397.507841,263.02879 397.40908,262.642749 397.362604,262.207037 C396.717105,262.755711 396.095812,263.14301 395.498726,263.368935 C394.901639,263.594859 394.260982,263.707822 393.576753,263.707822 C392.44713,263.707822 391.578934,263.431871 390.972165,262.87997 C390.365395,262.328068 390.062011,261.62286 390.062011,260.764347 C390.062011,260.260858 390.176587,259.80094 390.405739,259.384593 C390.634891,258.968246 390.935048,258.6342 391.30621,258.382456 C391.677372,258.130711 392.095333,257.940289 392.560092,257.81119 C392.879398,257.726844 393.350526,257.64531 393.973476,257.566588 L394.109289,257.549762 C395.516477,257.381933 396.552502,257.181828 397.217366,256.949448 L397.226662,256.543558 L397.227049,256.494371 L397.227049,256.494371 C397.227049,255.784322 397.062446,255.284061 396.733242,254.993586 C396.287848,254.599832 395.626212,254.402955 394.748333,254.402955 C393.92855,254.402955 393.323394,254.546578 392.932867,254.833826 C392.562894,255.105954 392.284168,255.576507 392.096687,256.245483 L392.066285,256.358817 L390.362168,256.126437 L390.394486,255.982426 C390.551529,255.319111 390.795728,254.778098 391.127084,254.359384 C391.482109,253.910762 391.99528,253.56542 392.666599,253.323358 C393.337918,253.081296 394.115744,252.960265 395.000078,252.960265 Z M304.536631,249.600443 L304.536631,253.192645 L306.289161,253.192645 L306.289161,254.548192 L304.536631,254.548192 L304.53699,260.652128 C304.540584,261.097296 304.571126,261.386446 304.628615,261.519581 C304.689938,261.66159 304.78999,261.774553 304.928772,261.858467 C305.067554,261.942382 305.266046,261.98434 305.524245,261.98434 C305.696378,261.98434 305.916963,261.966489 306.186001,261.930787 L306.289161,261.916562 L306.540906,263.456078 L306.379292,263.488591 C305.953422,263.570195 305.568354,263.610997 305.224088,263.610997 C304.591499,263.610997 304.10092,263.510945 303.75235,263.31084 C303.403781,263.110735 303.158491,262.847694 303.016482,262.521718 C302.880152,262.20878 302.809261,261.56419 302.803808,260.587947 L302.803467,254.548192 L301.525379,254.548192 L301.525379,253.192645 L302.803467,253.192645 L302.803467,250.646151 L304.536631,249.600443 Z M166.416,249.280921 L166.416,263.475442 L164.673153,263.475442 L164.673153,249.280921 L166.416,249.280921 Z M255.72723,253.192645 L255.72723,263.475442 L253.984383,263.475442 L253.984383,253.192645 L255.72723,253.192645 Z M248.213623,252.960265 C249.233511,252.960265 250.017793,253.24267 250.566466,253.807482 C251.094819,254.351375 251.36878,255.178091 251.388349,256.287633 L251.389478,256.416911 L251.389478,263.475442 L249.656313,263.475442 L249.655727,256.876863 C249.649473,256.242354 249.593187,255.78081 249.48687,255.492234 C249.373907,255.185622 249.168962,254.938719 248.872032,254.751524 C248.575102,254.56433 248.226533,254.470732 247.826324,254.470732 C247.103365,254.470732 246.503051,254.711181 246.025382,255.192078 C245.566819,255.653738 245.328367,256.381613 245.310024,257.375702 L245.308878,257.50135 L245.308878,263.475442 L243.566031,263.475442 L243.566031,256.794529 L243.564716,256.667222 C243.549814,255.955978 243.408242,255.417464 243.140002,255.051682 C242.855982,254.664382 242.391223,254.470732 241.745724,254.470732 C241.255145,254.470732 240.801682,254.599832 240.385335,254.858032 C239.968988,255.116231 239.667218,255.493848 239.480022,255.990882 C239.303228,256.460303 239.209919,257.125486 239.200098,257.98643 L239.19923,258.140394 L239.19923,263.475442 L237.456383,263.475442 L237.456383,253.192645 L239.015263,253.192645 L239.015263,254.635334 L239.086054,254.52895 C239.399878,254.074483 239.805538,253.704894 240.303034,253.420183 C240.838798,253.113571 241.448794,252.960265 242.133023,252.960265 C242.894712,252.960265 243.519232,253.118412 244.006584,253.434706 C244.493935,253.751001 244.837664,254.193168 245.037769,254.761207 C245.851097,253.560579 246.909715,252.960265 248.213623,252.960265 Z M346.316549,252.960265 C347.336438,252.960265 348.120718,253.24267 348.669393,253.807482 C349.197746,254.351375 349.471706,255.178091 349.491275,256.287633 L349.492404,256.416911 L349.492404,263.475442 L347.759239,263.475442 L347.758653,256.876863 C347.752399,256.242354 347.696113,255.78081 347.589796,255.492234 C347.476834,255.185622 347.271887,254.938719 346.974958,254.751524 C346.678029,254.56433 346.329459,254.470732 345.92925,254.470732 C345.206291,254.470732 344.605977,254.711181 344.128308,255.192078 C343.669746,255.653738 343.431293,256.381613 343.41295,257.375702 L343.411804,257.50135 L343.411804,263.475442 L341.668957,263.475442 L341.668957,256.794529 L341.667642,256.667222 C341.65274,255.955978 341.511168,255.417464 341.242927,255.051682 C340.958908,254.664382 340.494149,254.470732 339.84865,254.470732 C339.35807,254.470732 338.904608,254.599832 338.488261,254.858032 C338.071914,255.116231 337.770143,255.493848 337.582949,255.990882 C337.406154,256.460303 337.312846,257.125486 337.303023,257.98643 L337.302157,258.140394 L337.302157,263.475442 L335.55931,263.475442 L335.55931,253.192645 L337.11819,253.192645 L337.11819,254.635334 L337.18898,254.52895 C337.502805,254.074483 337.908465,253.704894 338.40596,253.420183 C338.941724,253.113571 339.55172,252.960265 340.23595,252.960265 C340.997638,252.960265 341.622158,253.118412 342.10951,253.434706 C342.596862,253.751001 342.94059,254.193168 343.140694,254.761207 C343.954023,253.560579 345.012642,252.960265 346.316549,252.960265 Z M162.01047,249.280921 L162.01047,250.95599 L153.625438,250.95599 L153.625438,255.303426 L161.477933,255.303426 L161.477933,256.968813 L153.625438,256.968813 L153.625438,261.800373 L162.339674,261.800373 L162.339674,263.475442 L151.747037,263.475442 L151.747037,249.280921 L162.01047,249.280921 Z M366.882145,252.960265 C367.432836,252.960265 367.992038,253.124791 368.559749,253.453845 L368.673404,253.521849 L368.07309,255.138824 L367.974776,255.082963 C367.581518,254.868459 367.18826,254.761207 366.795002,254.761207 C366.414158,254.761207 366.072043,254.875783 365.768659,255.104935 C365.465274,255.334087 365.249033,255.651995 365.119933,256.05866 C364.942421,256.626698 364.846268,257.243554 364.831475,257.909225 L364.829458,258.091982 L364.829458,263.475442 L363.086611,263.475442 L363.086611,253.192645 L364.655174,253.192645 L364.655174,254.751524 L364.71811,254.638419 C365.094198,253.972178 365.442767,253.528983 365.763818,253.308834 C366.102705,253.076454 366.47548,252.960265 366.882145,252.960265 Z M263.221473,252.960265 C263.841152,252.960265 264.410805,253.071614 264.930431,253.29431 C265.450058,253.517008 265.838971,253.809096 266.09717,254.170575 C266.35537,254.532054 266.53611,254.961311 266.63939,255.458346 C266.697145,255.747122 266.729062,256.229681 266.735142,256.906025 L266.736214,257.15278 L266.736214,263.475442 L264.993367,263.475442 L264.992574,257.089522 C264.98463,256.444843 264.917118,255.957598 264.790035,255.627789 C264.654481,255.275992 264.414032,254.9952 264.06869,254.785413 C263.723349,254.575626 263.318298,254.470732 262.853538,254.470732 C262.111215,254.470732 261.470557,254.706339 260.931566,255.177554 C260.41054,255.633061 260.141344,256.483653 260.123977,257.72933 L260.123078,257.859602 L260.123078,263.475442 L258.380231,263.475442 L258.380231,253.192645 L259.948794,253.192645 L259.948794,254.654699 L260.01435,254.559258 C260.766638,253.493262 261.835679,252.960265 263.221473,252.960265 Z M221.96441,258.314678 L221.880104,258.348137 C221.27741,258.58081 220.411039,258.781194 219.280989,258.949293 L219.117759,258.973087 C218.401255,259.076367 217.894538,259.192557 217.59761,259.321657 C217.30068,259.450757 217.071528,259.639565 216.910153,259.888082 C216.748778,260.136599 216.668091,260.41255 216.668091,260.715934 C216.668091,261.180694 216.84399,261.567993 217.195786,261.877833 C217.547583,262.187672 218.062369,262.342592 218.740142,262.342592 C219.411462,262.342592 220.008548,262.195741 220.531402,261.902038 C221.054256,261.608337 221.438328,261.206514 221.683618,260.69657 C221.859801,260.325977 221.953074,259.789566 221.963438,259.087334 L221.96441,258.953722 L221.96441,258.314678 Z M397.217366,258.314678 L397.133061,258.348137 C396.530368,258.58081 395.663996,258.781194 394.533946,258.949293 L394.370716,258.973087 C393.654213,259.076367 393.147496,259.192557 392.850566,259.321657 C392.553637,259.450757 392.324485,259.639565 392.16311,259.888082 C392.001735,260.136599 391.921048,260.41255 391.921048,260.715934 C391.921048,261.180694 392.096946,261.567993 392.448743,261.877833 C392.80054,262.187672 393.315326,262.342592 393.993099,262.342592 C394.664418,262.342592 395.261505,262.195741 395.784359,261.902038 C396.307213,261.608337 396.691285,261.206514 396.936574,260.69657 C397.112758,260.325977 397.206031,259.789566 397.216395,259.087334 L397.217366,258.314678 Z M356.483157,254.325495 C355.740834,254.325495 355.084038,254.67245 354.512772,255.366362 C353.941505,256.060274 353.655872,257.068866 353.655872,258.392138 C353.655872,259.715411 353.923754,260.693342 354.459518,261.325931 C354.995282,261.95852 355.644009,262.274814 356.405698,262.274814 C357.180296,262.274814 357.843546,261.947224 358.395448,261.292042 C358.94735,260.636861 359.2233,259.621814 359.2233,258.246901 C359.2233,256.936538 358.953804,255.95538 358.414813,255.303426 C357.875821,254.651472 357.231936,254.325495 356.483157,254.325495 Z M278.80059,254.402955 C278.02599,254.402955 277.378878,254.71925 276.859251,255.351838 C276.339625,255.984427 276.079811,256.981723 276.079811,258.343726 C276.079811,259.660544 276.357376,260.64493 276.912505,261.296883 C277.467634,261.948838 278.122815,262.274814 278.87805,262.274814 C279.639738,262.274814 280.28685,261.963361 280.819387,261.340454 C281.351924,260.717548 281.618192,259.767051 281.618192,258.488963 C281.618192,257.081775 281.347082,256.048978 280.804864,255.390568 C280.262645,254.732159 279.594553,254.402955 278.80059,254.402955 Z M230.31071,254.402955 C229.536112,254.402955 228.888999,254.71925 228.369373,255.351838 C227.849746,255.984427 227.589933,256.981723 227.589933,258.343726 C227.589933,259.660544 227.867497,260.64493 228.422626,261.296883 C228.977755,261.948838 229.632937,262.274814 230.38817,262.274814 C231.149859,262.274814 231.796972,261.963361 232.329509,261.340454 C232.862045,260.717548 233.128314,259.767051 233.128314,258.488963 C233.128314,257.081775 232.857204,256.048978 232.314985,255.390568 C231.772766,254.732159 231.104674,254.402955 230.31071,254.402955 Z M180.668616,254.635334 L177.618634,254.635334 L176.90213,258.150076 L179.94243,258.150076 L180.668616,254.635334 Z M373.950358,254.393273 C373.149939,254.393273 372.477006,254.661154 371.93156,255.196918 C371.410906,255.70833 371.11228,256.384423 371.03568,257.225199 L371.026248,257.34643 L376.767961,257.34643 C376.690501,256.481462 376.471031,255.832735 376.109552,255.40025 C375.554422,254.728932 374.834691,254.393273 373.950358,254.393273 Z M290.18719,254.393273 C289.386772,254.393273 288.713839,254.661154 288.168393,255.196918 C287.647739,255.70833 287.349112,256.384423 287.272513,257.225199 L287.26308,257.34643 L293.004794,257.34643 C292.927334,256.481462 292.707864,255.832735 292.346384,255.40025 C291.791255,254.728932 291.071524,254.393273 290.18719,254.393273 Z M328.771889,254.393273 C327.97147,254.393273 327.298537,254.661154 326.75309,255.196918 C326.232437,255.70833 325.93381,256.384423 325.85721,257.225199 L325.847778,257.34643 L331.589491,257.34643 C331.512031,256.481462 331.292562,255.832735 330.931082,255.40025 C330.375954,254.728932 329.656222,254.393273 328.771889,254.393273 Z M255.72723,249.280921 L255.72723,251.285195 L253.984383,251.285195 L253.984383,249.280921 L255.72723,249.280921 Z M385.12125,205.843232 C387.810829,205.843232 390.172279,206.230531 392.205601,207.00513 C394.238922,207.779729 395.739707,208.828665 396.707955,210.151938 C397.64497,211.432524 398.299873,213.131241 398.672663,215.248087 L398.709002,215.461166 L393.028612,216.235765 L393.00379,216.076435 C392.724647,214.388298 391.985218,213.064344 390.785503,212.104571 C389.548297,211.114806 387.80007,210.619924 385.540824,210.619924 C382.872762,210.619924 380.96854,211.061015 379.828158,211.943197 C378.687778,212.825378 378.117586,213.858177 378.117586,215.041592 C378.117586,215.794674 378.35427,216.472448 378.827635,217.074914 C379.301002,217.698895 380.043325,218.215294 381.054606,218.62411 L381.166435,218.664144 C381.83669,218.89731 383.509986,219.378848 386.186323,220.108758 L387.063262,220.345022 C390.706458,221.335718 393.281237,222.155283 394.787596,222.803716 C396.412102,223.503006 397.686962,224.519667 398.612178,225.853698 C399.537393,227.18773 400,228.84451 400,230.82404 C400,232.760537 399.435189,234.584071 398.305566,236.294644 C397.175942,238.005216 395.546058,239.328489 393.415911,240.264462 C391.285765,241.200435 388.875902,241.668422 386.186323,241.668422 C381.732381,241.668422 378.338132,240.743207 376.003578,238.892777 C373.712256,237.076614 372.234472,234.400276 371.570227,230.863764 L371.533498,230.662666 L377.278438,229.758967 L377.303723,229.93063 C377.646463,232.149129 378.536354,233.856271 379.973396,235.052058 C381.447285,236.278506 383.507502,236.89173 386.154048,236.89173 C388.82211,236.89173 390.80164,236.348435 392.092638,235.261846 C393.383636,234.175255 394.029135,232.900395 394.029135,231.437264 C394.029135,230.12475 393.458944,229.091951 392.318563,228.33887 L392.223381,228.279812 C391.404776,227.792627 389.574645,227.185899 386.732986,226.459626 L385.928514,226.255386 C381.910407,225.227981 379.107736,224.335623 377.5205,223.578315 C375.874478,222.792958 374.626514,221.706368 373.776606,220.318546 C372.926699,218.930722 372.501746,217.397662 372.501746,215.719366 C372.501746,214.191685 372.851391,212.776966 373.550682,211.47521 C374.249972,210.173454 375.202083,209.092243 376.407014,208.231578 C377.310713,207.564562 378.54254,206.999751 380.102496,206.537143 C381.662451,206.074536 383.33537,205.843232 385.12125,205.843232 Z M163.999139,205.843232 C166.688718,205.843232 169.050169,206.230531 171.08349,207.00513 C173.116812,207.779729 174.617597,208.828665 175.585845,210.151938 C176.52286,211.432524 177.177762,213.131241 177.550553,215.248087 L177.586892,215.461166 L171.906502,216.235765 L171.88168,216.076435 C171.602537,214.388298 170.863108,213.064344 169.663393,212.104571 C168.426186,211.114806 166.67796,210.619924 164.418714,210.619924 C161.750652,210.619924 159.84643,211.061015 158.706049,211.943197 C157.565667,212.825378 156.995476,213.858177 156.995476,215.041592 C156.995476,215.794674 157.232159,216.472448 157.705525,217.074914 C158.178891,217.698895 158.921214,218.215294 159.932496,218.62411 L160.086614,218.67873 C160.783294,218.917068 162.442494,219.393744 165.064213,220.108758 L165.725614,220.286548 C169.482966,221.303513 172.12959,222.142569 173.665486,222.803716 C175.289991,223.503006 176.564852,224.519667 177.490067,225.853698 C178.415282,227.18773 178.87789,228.84451 178.87789,230.82404 C178.87789,232.760537 178.313078,234.584071 177.183455,236.294644 C176.053832,238.005216 174.423947,239.328489 172.293801,240.264462 C170.163654,241.200435 167.753792,241.668422 165.064213,241.668422 C160.61027,241.668422 157.216022,240.743207 154.881467,238.892777 C152.590146,237.076614 151.112362,234.400276 150.448117,230.863764 L150.411387,230.662666 L156.156328,229.758967 L156.181613,229.93063 C156.524353,232.149129 157.414244,233.856271 158.851286,235.052058 C160.325175,236.278506 162.385392,236.89173 165.031938,236.89173 C167.7,236.89173 169.67953,236.348435 170.970528,235.261846 C172.261526,234.175255 172.907025,232.900395 172.907025,231.437264 C172.907025,230.12475 172.336834,229.091951 171.196453,228.33887 L171.10127,228.279812 C170.282666,227.792627 168.452534,227.185899 165.610876,226.459626 L164.806404,226.255386 C160.788297,225.227981 157.985626,224.335623 156.39839,223.578315 C154.752367,222.792958 153.504403,221.706368 152.654496,220.318546 C151.804589,218.930722 151.379636,217.397662 151.379636,215.719366 C151.379636,214.191685 151.729281,212.776966 152.428571,211.47521 C153.098725,210.227694 154.001069,209.182727 155.135605,208.34031 L155.284904,208.231578 C156.188602,207.564562 157.42043,206.999751 158.980386,206.537143 C160.540341,206.074536 162.213259,205.843232 163.999139,205.843232 Z M209.845239,205.843232 C212.534818,205.843232 214.896268,206.230531 216.92959,207.00513 C218.962911,207.779729 220.463697,208.828665 221.431945,210.151938 C222.368959,211.432524 223.023862,213.131241 223.396653,215.248087 L223.432992,215.461166 L217.752601,216.235765 L217.72778,216.076435 C217.448637,214.388298 216.709207,213.064344 215.509492,212.104571 C214.272286,211.114806 212.52406,210.619924 210.264814,210.619924 C207.596751,210.619924 205.69253,211.061015 204.552148,211.943197 C203.411766,212.825378 202.841576,213.858177 202.841576,215.041592 C202.841576,215.794674 203.078259,216.472448 203.551625,217.074914 C204.02499,217.698895 204.767314,218.215294 205.778596,218.62411 L205.932714,218.67873 C206.629394,218.917068 208.288594,219.393744 210.910313,220.108758 L211.787252,220.345022 C215.430448,221.335718 218.005226,222.155283 219.511586,222.803716 C221.136091,223.503006 222.410952,224.519667 223.336166,225.853698 C224.261382,227.18773 224.72399,228.84451 224.72399,230.82404 C224.72399,232.760537 224.159178,234.584071 223.029554,236.294644 C221.899932,238.005216 220.270047,239.328489 218.139901,240.264462 C216.009754,241.200435 213.599891,241.668422 210.910313,241.668422 C206.45637,241.668422 203.062122,240.743207 200.727567,238.892777 C198.436245,237.076614 196.958462,234.400276 196.294217,230.863764 L196.257487,230.662666 L202.002427,229.758967 L202.027713,229.93063 C202.370453,232.149129 203.260343,233.856271 204.697386,235.052058 C206.171274,236.278506 208.231492,236.89173 210.878038,236.89173 C213.5461,236.89173 215.52563,236.348435 216.816628,235.261846 C218.107626,234.175255 218.753125,232.900395 218.753125,231.437264 C218.753125,230.12475 218.182934,229.091951 217.042552,228.33887 L216.94737,228.279812 C216.128766,227.792627 214.298634,227.185899 211.456976,226.459626 L210.652504,226.255386 C206.634397,225.227981 203.831726,224.335623 202.24449,223.578315 C200.598467,222.792958 199.350502,221.706368 198.500596,220.318546 C197.650689,218.930722 197.225735,217.397662 197.225735,215.719366 C197.225735,214.191685 197.575381,212.776966 198.274671,211.47521 C198.944825,210.227694 199.847169,209.182727 200.981704,208.34031 L201.131004,208.231578 C202.034702,207.564562 203.26653,206.999751 204.826486,206.537143 C206.386441,206.074536 208.059359,205.843232 209.845239,205.843232 Z M352.531854,205.843232 C355.458115,205.843232 357.835703,206.187498 359.664617,206.87603 C361.49353,207.564562 362.83832,208.430607 363.698985,209.474163 C364.55965,210.51772 365.162116,211.835614 365.506382,213.427844 L365.53403,213.578371 C365.691277,214.489596 365.777964,215.980976 365.794092,218.052512 L365.796857,218.785486 L365.797151,226.983142 L365.800541,228.08653 C365.822736,232.593051 365.945229,235.490464 366.168018,236.778768 C366.402436,238.134315 366.854107,239.436757 367.52303,240.686093 L367.636528,240.893823 L361.568838,240.893823 L361.488018,240.728248 C360.931609,239.560348 360.57125,238.206201 360.406941,236.665806 C358.255278,238.494719 356.184302,239.785717 354.194014,240.538799 C352.203725,241.291881 350.068199,241.668422 347.787437,241.668422 C344.022026,241.668422 341.128039,240.748586 339.105476,238.908914 C337.082913,237.069242 336.071631,234.71855 336.071631,231.856838 C336.071631,230.178542 336.453551,228.645482 337.217392,227.257658 C337.981232,225.869836 338.981755,224.75635 340.218962,223.917202 C341.456168,223.078054 342.84937,222.443313 344.398567,222.01298 L344.619197,221.956625 C345.756384,221.67548 347.404171,221.40379 349.562558,221.141557 L350.078648,221.078954 C354.507296,220.532568 357.788686,219.88642 359.922816,219.14051 L359.94969,218.033493 C359.95329,217.848245 359.955091,217.71161 359.955091,217.623587 C359.955091,215.256758 359.406417,213.589219 358.309069,212.62097 C356.824422,211.308456 354.618967,210.652199 351.692705,210.652199 C348.960093,210.652199 346.942909,211.130944 345.641153,212.088434 C344.371146,213.02257 343.423698,214.658142 342.798807,216.995147 L342.752545,217.171738 L337.072154,216.397139 L337.121544,216.170569 C337.641998,213.843505 338.475442,211.955636 339.621875,210.506962 C340.80529,209.011556 342.515862,207.860416 344.753592,207.053542 C346.991322,206.246669 349.584075,205.843232 352.531854,205.843232 Z M262.178603,205.843232 C266.761646,205.843232 270.505539,207.403188 273.410285,210.523099 C276.31503,213.64301 277.767402,218.032403 277.767402,223.691278 L277.766111,223.918493 C277.763242,224.193906 277.755592,224.545822 277.74316,224.974242 L277.735127,225.240474 L252.17337,225.240474 L252.186198,225.448757 C252.428275,229.112369 253.489072,231.92617 255.36859,233.89016 C257.28357,235.891207 259.671916,236.89173 262.533628,236.89173 C264.663774,236.89173 266.48193,236.332298 267.988094,235.213433 C269.454622,234.124012 270.625363,232.402219 271.500318,230.048056 L271.570613,229.855792 L277.573753,230.598116 L277.517132,230.803516 C276.557942,234.211764 274.82321,236.86515 272.312936,238.763677 C269.752458,240.700174 266.48193,241.668422 262.501353,241.668422 C257.487978,241.668422 253.51278,240.124604 250.57576,237.036967 C247.63874,233.949331 246.17023,229.619109 246.17023,224.046302 C246.17023,218.279845 247.654878,213.804386 250.624173,210.619924 C253.593468,207.435462 257.444945,205.843232 262.178603,205.843232 Z M237.528844,194.643826 L237.528844,206.61783 L243.370609,206.61783 L243.370609,211.136323 L237.528844,211.136323 L237.529126,231.328051 C237.535132,232.899852 237.637242,233.915263 237.835456,234.374284 C238.039864,234.84765 238.373371,235.224191 238.835979,235.503907 C239.298586,235.783624 239.960223,235.923482 240.820888,235.923482 C241.428417,235.923482 242.217012,235.856773 243.186675,235.723354 L243.370609,235.697557 L244.209758,240.829274 L243.952989,240.882201 C242.420957,241.191182 241.043415,241.345673 239.820365,241.345673 C237.711735,241.345673 236.076471,241.012165 234.914573,240.34515 C233.752675,239.678134 232.935043,238.801331 232.461678,237.714742 C231.988311,236.628151 231.751629,234.34201 231.751629,230.856315 L231.751629,211.136323 L227.491335,211.136323 L227.491335,206.61783 L231.751629,206.61783 L231.751629,198.12952 L237.528844,194.643826 Z M319.781082,205.843232 C323.18071,205.843232 325.794981,206.784585 327.623894,208.66729 C329.420722,210.516965 330.334898,213.347942 330.366421,217.16022 L330.367265,240.893823 L324.59005,240.893823 L324.589589,219.104296 C324.579138,216.883025 324.391021,215.27597 324.025238,214.28313 C323.648697,213.26109 322.965544,212.438079 321.975779,211.814097 C320.986014,211.190114 319.824116,210.878124 318.490085,210.878124 C316.080222,210.878124 314.079175,211.679618 312.486945,213.282607 C310.923664,214.856451 310.127812,217.358469 310.099389,220.788661 L310.098599,220.980182 L310.098599,240.893823 L304.289109,240.893823 L304.289109,218.62411 L304.288264,218.436336 C304.265736,215.948036 303.792652,214.07413 302.869011,212.814621 C301.922279,211.523622 300.373082,210.878124 298.221418,210.878124 C296.586154,210.878124 295.074611,211.308456 293.686789,212.169122 C292.298966,213.029786 291.293064,214.28851 290.669082,215.94529 C290.060698,217.560651 289.748902,219.871457 289.733693,222.877706 L289.733108,223.110328 L289.733108,240.893823 L283.923618,240.893823 L283.923618,206.61783 L289.119884,206.61783 L289.119884,211.426798 L289.232443,211.254351 C290.294818,209.655776 291.688154,208.36309 293.412452,207.376292 C295.198332,206.354252 297.231654,205.843232 299.512417,205.843232 C302.051379,205.843232 304.133113,206.37039 305.757618,207.424705 C307.382124,208.479019 308.527885,209.952909 309.1949,211.846372 C311.905996,207.844278 315.434723,205.843232 319.781082,205.843232 Z M190.682221,206.61783 L190.682221,240.893823 L184.87273,240.893823 L184.87273,206.61783 L190.682221,206.61783 Z M359.922816,223.691278 L359.792399,223.74381 C357.77247,224.546834 354.823375,225.236083 350.945112,225.811557 L350.433982,225.885974 C348.045636,226.23024 346.356581,226.617539 345.366816,227.047872 C344.37705,227.478204 343.61321,228.107566 343.075294,228.935956 C342.537378,229.764346 342.268421,230.684182 342.268421,231.695464 C342.268421,233.244662 342.854749,234.535659 344.027406,235.568458 C345.200062,236.601256 346.916013,237.117654 349.175259,237.117654 C351.412989,237.117654 353.403277,236.628151 355.146124,235.649145 C356.888971,234.670138 358.169211,233.330728 358.986843,231.630914 C359.593492,230.354858 359.905242,228.489005 359.922094,226.033353 L359.922816,225.821424 L359.922816,223.691278 Z M262.243153,210.619924 C259.575091,210.619924 257.331982,211.512864 255.513827,213.298745 C253.73355,215.047419 252.732034,217.373718 252.50928,220.277642 L252.496119,220.463782 L271.635162,220.463782 C271.376963,217.580554 270.645398,215.418133 269.440466,213.976518 C267.590036,211.738789 265.190931,210.619924 262.243153,210.619924 Z M190.682221,193.578753 L190.682221,200.259666 L184.87273,200.259666 L184.87273,193.578753 L190.682221,193.578753 Z" id="Combined-Shape" fill="#FFFFFF" fill-rule="nonzero"></path>
        <path d="M27.6033987,210.142922 L35.3313264,210.292326 L35.2511682,214.421106 L35.30069,214.432438 C38.0208058,215.007878 40.540451,216.114092 42.7463555,217.639722 L42.9522365,217.783976 L45.9302626,214.920941 L51.2886954,220.486694 L48.3102495,223.349729 L48.3215808,223.366096 C48.9401843,224.314006 49.4794427,225.316223 49.9370931,226.362727 L50.0900986,226.718894 L50.166165,226.901401 L50.247897,227.104577 L50.3305734,227.322966 L50.499913,227.784663 L50.5773433,228.002266 L50.60756,228.098791 C50.7766898,228.605341 50.9260947,229.120704 51.0561945,229.643621 L51.0792767,229.731754 C51.11397,229.873884 51.1456789,230.016947 51.176393,230.160446 L51.2794625,230.648747 C51.302125,230.763738 51.3221762,230.87929 51.3416058,230.995151 L51.3705324,231.169146 L55.5072861,231.249305 L55.3570418,238.970937 L51.2186094,238.891198 C50.8799302,240.507793 50.3561737,242.055142 49.6641267,243.507224 L49.6334903,243.571853 C49.5641038,243.716222 49.4934115,243.859658 49.4210406,244.002038 L49.2893554,244.255926 C49.1978658,244.429113 49.1046976,244.600994 49.0089802,244.77132 L48.8604458,245.031069 L48.8310683,245.079332 C48.7325842,245.246643 48.6326079,245.413022 48.5301446,245.577722 L48.3711026,245.828874 L48.3404662,245.87378 C48.2372258,246.032698 48.1330526,246.19031 48.0264548,246.346118 L47.859097,246.586811 L50.7233908,249.56148 L45.1530214,254.916135 L42.2887275,251.941046 L42.281593,251.945663 C42.1321881,252.043308 41.9809179,252.137595 41.828653,252.23039 L41.5866083,252.376251 L41.5064501,252.425774 C41.3478122,252.519502 41.1874958,252.610431 41.0259979,252.699434 L40.6885001,252.883641 C40.5343388,252.965618 40.3786854,253.044983 40.2220371,253.122608 L39.8944717,253.282754 C39.7467454,253.353539 39.5980866,253.422273 39.4483709,253.489203 L39.2229889,253.588278 L39.105899,253.638639 C38.9531367,253.703829 38.7998148,253.767713 38.645436,253.82967 L38.3976946,253.926695 L38.3823763,253.931994 C37.7694085,254.166892 37.1425656,254.3725 36.5036977,254.548551 L36.1832702,254.634113 C36.1278729,254.648801 36.0733149,254.66433 36.0179175,254.677759 C35.8126956,254.728959 35.6062146,254.775963 35.3984746,254.821288 C35.3078245,254.841013 35.2171743,254.859898 35.1265242,254.878364 L34.8280815,254.937277 L34.4625955,255.004267 L34.3824373,259.132208 L26.6549293,258.982803 L26.7350876,254.855282 L26.657867,254.837656 L26.4403696,254.790075 L26.208813,254.736934 L25.9935187,254.682795 C25.7029975,254.610715 25.415073,254.532498 25.1295682,254.448498 L24.793663,254.347054 C24.5125844,254.258606 24.2333945,254.165674 23.9571554,254.066486 L23.5984235,253.934931 L23.3876934,253.851048 L22.9243702,253.661092 L22.6965382,253.564776 L22.5095722,253.480369 L22.2760221,253.372145 L22.2403496,253.354938 C22.0721991,253.276038 21.9049813,253.195834 21.7391934,253.113328 L21.4794757,252.981845 L21.368681,252.921831 C21.2094836,252.837896 21.0510323,252.753214 20.8939489,252.666046 L20.6522928,252.529434 L20.4886189,252.43081 C20.3450894,252.346035 20.2015599,252.260701 20.0595227,252.173314 L19.8381199,252.034215 L19.6333176,251.896981 C19.5012594,251.809968 19.3693876,251.723142 19.2390702,251.634512 L19.0335996,251.491573 L16.0564127,254.353769 L10.69798,248.788435 L13.6755865,245.92582 L13.6705504,245.918686 C13.4110223,245.521168 13.1670726,245.113981 12.9359079,244.699058 L12.6989987,244.266418 C12.6117059,244.101066 12.5279571,243.93534 12.4463844,243.768744 L12.278063,243.422029 C11.8141103,242.436418 11.4270342,241.40849 11.1223302,240.346325 L11.0377608,240.043316 L11.0345607,240.030201 C10.8929198,239.505605 10.7728457,238.971683 10.672881,238.431349 L10.6153037,238.106402 L6.47980899,238.026245 L6.62963359,230.304612 L10.7588331,230.38435 C11.3322387,227.64755 12.445889,225.113586 13.9819218,222.896115 L14.1271587,222.689158 L11.2624452,219.71323 L16.8328147,214.359414 L19.6975282,217.334502 C20.3408926,216.914406 21.0106049,216.531903 21.7013232,216.184746 L22.0615673,216.007065 C22.2165679,215.932922 22.3725011,215.86083 22.5294914,215.790542 L22.8379693,215.654956 C23.7040562,215.282912 24.5997177,214.968658 25.5209766,214.716171 L25.9519707,214.601987 C26.1668453,214.548268 26.3833985,214.498746 26.6012107,214.451323 L26.8412658,214.400962 C26.9797591,214.372983 27.118439,214.345564 27.2576784,214.3197 L27.5232405,214.271702 L27.6033987,210.142922 Z M30.9939672,220.286089 C23.0671128,220.286089 16.6410224,226.711759 16.6410224,234.639034 C16.6410224,242.565468 23.0671128,248.991978 30.9939672,248.991978 C38.9208216,248.991978 45.346912,242.565468 45.346912,234.639034 C45.346912,226.711759 38.9208216,220.286089 30.9939672,220.286089 Z M114.393346,194.829483 L114.393346,206.932588 L120.590136,206.932588 L120.590136,214.162176 L114.393346,214.162176 L114.393599,228.287526 C114.397896,230.894363 114.456982,232.420357 114.570858,232.865507 C114.6892,233.328115 114.958158,233.710035 115.377732,234.011268 C115.797306,234.312501 116.308326,234.463118 116.910792,234.463118 C117.721004,234.463118 118.882238,234.19233 120.39449,233.650756 L120.557861,233.591694 L121.332459,240.627632 L121.127526,240.713676 C119.069452,241.560012 116.749418,241.98318 114.167422,241.98318 C112.532158,241.98318 111.058268,241.708842 109.745754,241.160169 C108.433239,240.611494 107.47037,239.901446 106.857146,239.030022 C106.243922,238.158598 105.818969,236.980563 105.582286,235.495915 L105.559048,235.361381 C105.395982,234.358646 105.307542,232.526729 105.293729,229.865627 L105.291927,229.296544 L105.291811,214.162176 L101.128343,214.162176 L101.128343,206.932588 L105.291811,206.932588 L105.291811,200.122574 L114.393346,194.829483 Z M80.6014776,206.15799 C85.2921032,206.15799 88.7777976,206.92183 91.05856,208.449511 C93.2918072,209.945365 94.8442824,212.14262 95.7159864,215.041276 L95.7707024,215.22725 L87.2178416,216.808722 L87.1773952,216.666984 C86.8020752,215.402086 86.1216464,214.427292 85.1361072,213.742602 C84.114068,213.032553 82.656316,212.677529 80.762852,212.677529 C78.3745064,212.677529 76.6639342,213.011037 75.631136,213.678052 C74.9426038,214.151418 74.5983377,214.764642 74.5983377,215.517724 C74.5983377,216.163223 74.8995705,216.711897 75.5020362,217.163746 C76.2628882,217.724374 78.7611718,218.49927 82.9968872,219.488433 L83.9742096,219.713467 C88.8046928,220.810815 92.1774248,222.155605 94.0924048,223.747835 C95.9858688,225.361582 96.9326,227.61007 96.9326,230.493299 C96.9326,233.634727 95.6200856,236.335064 92.9950568,238.59431 C90.370028,240.853557 86.486276,241.98318 81.3438016,241.98318 C76.6746926,241.98318 72.9792112,241.036448 70.2573574,239.142985 C67.587847,237.285934 65.8238314,234.776926 64.9653107,231.615963 L64.9158538,231.429272 L74.0173886,230.04145 L74.0548642,230.205614 C74.4541615,231.889111 75.2270267,233.173801 76.3734598,234.059681 C77.5568744,234.974138 79.213655,235.431366 81.3438016,235.431366 C83.6891144,235.431366 85.4534776,235.001033 86.6368928,234.140368 C87.433008,233.537902 87.8310656,232.731029 87.8310656,231.719747 C87.8310656,231.031214 87.6158992,230.461024 87.1855664,230.009174 C86.7337176,229.578842 85.722436,229.180785 84.1517216,228.815002 L83.192176,228.600664 C76.4291958,227.070518 72.1122106,225.668075 70.24122,224.393334 C67.5301245,222.542904 66.1745768,219.971666 66.1745768,216.679622 C66.1745768,213.710327 67.3472331,211.214398 69.6925459,209.191834 C72.0378586,207.169271 75.6741692,206.15799 80.6014776,206.15799 Z M142.730749,206.15799 C144.731795,206.15799 146.662167,206.6931 148.521864,207.763322 L148.701614,207.868562 L145.893694,215.775923 L145.741284,215.678597 C144.271459,214.753716 142.902165,214.291276 141.633401,214.291276 C140.363919,214.291276 139.288088,214.640922 138.405906,215.340212 C137.550457,216.018312 136.872041,217.22751 136.370658,218.967809 L136.324172,219.132518 C135.846622,220.859826 135.594582,224.372017 135.568052,229.669093 L135.56571,230.622398 L135.56571,241.208581 L126.496451,241.208581 L126.496451,206.932588 L134.920212,206.932588 L134.920212,211.806105 L135.025437,211.639047 C136.424978,209.430297 137.68628,207.96906 138.809343,207.255338 C139.960482,206.523772 141.267618,206.15799 142.730749,206.15799 Z M50.6554871,166.539137 L58.0812475,168.682006 L56.934271,172.64921 L56.9858912,172.67649 C57.4646724,172.919902 57.9303387,173.181093 58.3833759,173.458361 L58.671313,173.63755 C60.4393412,174.758856 62.0054029,176.127224 63.3303446,177.685402 L63.5017924,177.889714 L67.1202453,175.894151 L70.8541094,182.656402 L67.2356564,184.651546 L67.2419515,184.670012 C67.2953904,184.832846 67.3452853,184.9968 67.3936258,185.161375 L67.4702557,185.42585 L67.5197776,185.59372 C67.5653824,185.757954 67.6074434,185.92312 67.6479499,186.088846 L67.7535375,186.524983 C67.7935467,186.701247 67.8301985,186.878258 67.8648606,187.05589 L67.939874,187.447852 C67.9720492,187.626914 68.000867,187.806909 68.0276952,187.987463 L68.0834034,188.374078 L68.108689,188.565294 L68.134604,188.780326 L68.1581059,189.014086 L68.2017523,189.501226 L68.2197984,189.730474 L68.2239951,189.82658 C68.2495115,190.247264 68.2615982,190.670365 68.2608998,191.095024 L68.2571496,191.538442 C68.2537922,191.685888 68.2472639,191.833521 68.2395542,191.98134 L68.2204803,192.342542 L68.2126638,192.476838 C68.2048299,192.59211 68.1945711,192.707567 68.1835041,192.822963 L68.1664994,192.995978 L72.1412579,194.142955 L69.9958704,201.56284 L66.0185938,200.415024 C65.0456153,202.338822 63.7980271,204.065753 62.3326387,205.554229 L62.1268789,205.760185 L62.096295,205.789405 C61.9452114,205.93769 61.7922625,206.083738 61.6371997,206.227174 L61.3611786,206.477465 L61.3391981,206.49656 C61.2174918,206.604557 61.0957856,206.712367 60.9725871,206.81825 L60.781028,206.980027 L62.7770106,210.594703 L56.009723,214.326469 L54.0137405,210.711794 L54.0074453,210.713892 C53.8499266,210.765372 53.6911023,210.813495 53.5318427,210.860374 L53.2260072,210.94975 C53.0295985,211.005427 52.8320706,211.05812 52.6336723,211.108077 L52.2359898,211.205333 C52.0672797,211.244503 51.8980101,211.280688 51.7281809,211.315009 L51.3680982,211.385794 C51.1246858,211.431539 50.8804338,211.471828 50.634923,211.508759 L50.5195118,211.525126 C49.5982794,211.65808 48.6637894,211.728826 47.720631,211.734608 L47.2582038,211.733286 C47.0403916,211.729929 46.8221597,211.721955 46.6039278,211.711463 C46.5183138,211.707266 46.4326997,211.70265 46.3475053,211.697194 C46.2081726,211.688801 46.0690265,211.679474 45.9296938,211.668594 L45.6613338,211.646414 L44.5143573,215.613198 L37.0890166,213.470329 L38.2355734,209.503963 L38.1747203,209.472068 L37.9663508,209.364264 L37.7542042,209.251738 L37.6677508,209.203999 L37.5771006,209.153114 C37.3108157,209.006122 37.048544,208.853937 36.7904625,208.696381 L36.4981117,208.514786 C36.2466204,208.355203 35.9986702,208.191608 35.7549691,208.022583 L35.4485002,207.80721 L35.2584915,207.665674 L34.8739626,207.372635 L34.6716785,207.215046 L34.511362,207.084055 L34.3422322,206.943516 L34.2805398,206.890637 C34.1378497,206.770609 33.9962787,206.649089 33.856573,206.52558 L33.6443098,206.334985 L33.5788402,206.273292 C33.4403469,206.14571 33.3031593,206.01701 33.1680234,205.886319 L32.9635942,205.685325 L32.8876326,205.606846 C32.7561339,205.473668 32.6257543,205.339558 32.497613,205.203645 L32.3059606,204.996635 L32.1922282,204.867375 C32.0758379,204.737275 31.9600071,204.606616 31.8462281,204.474402 L31.668052,204.26346 L28.0508581,206.258183 L24.3165744,199.496352 L27.934188,197.501628 L27.9308306,197.491976 C27.6745479,196.710071 27.46701,195.911255 27.3058588,195.09995 L27.247387,194.794451 C27.2089166,194.585906 27.1740834,194.376873 27.1424522,194.167178 L27.0939951,193.829876 C26.9897054,193.057618 26.9291146,192.276364 26.9139095,191.488643 L26.9101767,191.120863 C26.9091275,190.577731 26.9313937,190.032268 26.9747894,189.485202 L27.003345,189.156776 L23.0298455,188.009799 L25.1748134,180.589914 L29.1420177,181.734793 C30.4052192,179.239725 32.1368433,177.079696 34.1949196,175.335066 L34.3888163,175.172727 L32.3928338,171.557631 L39.1601213,167.826286 L41.1565236,171.441381 C41.3305495,171.384305 41.5058812,171.330586 41.6817724,171.278857 L41.9480339,171.201746 C42.4120286,171.070135 42.881395,170.954908 43.3552738,170.855851 L43.7853787,170.770318 C43.9532494,170.738702 44.1214932,170.709325 44.2902343,170.682062 L44.5863318,170.63665 L44.628929,170.630566 C45.5573379,170.495723 46.4993443,170.42377 47.4503591,170.41807 L47.9091225,170.419048 C48.0548902,170.421566 48.201031,170.42595 48.3472961,170.431825 L48.5667559,170.441711 C48.6515306,170.445487 48.7363054,170.450104 48.8210801,170.455141 C48.9606925,170.463814 49.1001185,170.473234 49.239731,170.484269 L49.4790807,170.504242 L49.5085106,170.506341 L50.6554871,166.539137 Z M47.5847123,176.62271 C39.602041,176.62271 33.1310451,183.094126 33.1310451,191.076377 C33.1310451,199.059049 39.602041,205.530045 47.5847123,205.530045 C55.5673838,205.530045 62.0383795,199.059049 62.0383795,191.076377 C62.0383795,183.094126 55.5673838,176.62271 47.5847123,176.62271 Z M86.6571216,169.66363 L86.9945416,172.487635 L87.0335712,172.490573 C87.3881144,172.516089 87.7391656,172.554766 88.0867248,172.60596 L88.3626872,172.64921 C88.89148,172.737342 89.4116392,172.855075 89.9210512,173.000822 L90.1832456,173.07854 C90.927332,173.306676 91.6479632,173.592942 92.3381016,173.935502 L92.5670088,174.05177 L94.3271336,171.816572 L98.5104712,175.105578 L96.7507664,177.340777 C97.396552,178.081086 97.966528,178.892558 98.4507912,179.761657 L98.5910496,180.019574 C98.8837216,180.570766 99.1413704,181.14413 99.361184,181.737978 L99.4694328,182.039478 L99.5261416,182.211546 L99.5806472,182.384872 L102.410108,182.047032 L103.040462,187.328664 L100.208903,187.666504 C100.124312,188.907435 99.8811128,190.112588 99.491408,191.257064 L99.4064808,191.498572 C99.3597568,191.628392 99.3115408,191.757466 99.2613352,191.885545 L99.1823736,192.082342 L99.1668456,192.117595 C99.1108888,192.252171 99.0530664,192.386002 98.9932552,192.518838 L98.88818,192.74669 L98.852508,192.819294 L98.720108,193.092893 L98.6485448,193.234774 L100.884582,194.992801 L97.5930576,199.173201 L95.3566008,197.415175 L95.3532432,197.418113 C95.1091592,197.630637 94.85648,197.83376 94.5973552,198.029202 L94.3518944,198.211722 C94.0451104,198.43373 93.7282544,198.64273 93.4030056,198.840817 L93.3664936,198.86264 C92.8182384,199.19387 92.24492,199.489434 91.6487896,199.746239 L91.3495272,199.871962 C91.1005536,199.97237 90.8478032,200.065932 90.5916304,200.152647 L90.3215816,200.24154 L90.309148,200.246314 L90.6461488,203.069899 L85.36032,203.700254 L85.0229,200.877088 L84.97044,200.872472 L84.8162616,200.860458 L84.6535848,200.846452 L84.4949464,200.828826 C84.222996,200.799868 83.952724,200.763775 83.6845512,200.71971 L83.6497176,200.713834 C83.4720544,200.684177 83.2951376,200.651722 83.1193392,200.615847 L82.7935768,200.545963 C82.6690728,200.517146 82.5453152,200.485903 82.4220544,200.45323 L82.145596,200.379352 L82.01366,200.340584 L81.8698688,200.297095 L81.8115336,200.27821 C81.6901072,200.240998 81.56924,200.202482 81.4490568,200.162161 L81.2613376,200.097749 L81.1912512,200.071309 C81.0717832,200.028222 80.952688,199.98439 80.834464,199.938691 L80.6540648,199.867346 L80.5751656,199.833772 C80.4590552,199.785649 80.3431312,199.73678 80.2280152,199.68617 L80.0514096,199.606726 L79.9091388,199.53748 C79.8086962,199.489917 79.70844,199.442167 79.6088678,199.392862 L79.4504321,199.312534 L77.6907275,201.547312 L73.5073897,198.258306 L75.2670942,196.023526 L75.1503154,195.887241 L74.8381846,195.507744 C74.7601248,195.40926 74.6841166,195.309283 74.6091655,195.208437 L74.4415901,194.982309 C74.1866365,194.628031 73.9474207,194.261222 73.7249143,193.88261 L73.591325,193.650254 C73.3828856,193.28024 73.1916412,192.898567 73.0166205,192.507422 L72.9059929,192.25357 C72.7653173,191.922194 72.6372654,191.583565 72.5216227,191.238974 L72.437214,190.979432 L69.608173,191.316852 L68.9773989,186.03522 L71.8110562,185.69738 C71.9423995,183.790276 72.4465631,181.967231 73.2725808,180.319311 L73.369316,180.129949 L71.132439,178.371503 L74.4239637,174.191103 L76.6608407,175.949129 C77.1972809,175.482075 77.7708598,175.055476 78.3762721,174.671396 L78.6236689,174.517611 C79.1796357,174.180506 79.761629,173.879388 80.3671184,173.618474 L80.6565832,173.496958 C80.909648,173.394662 81.1662544,173.299211 81.4267552,173.211138 L81.688568,173.125544 L81.7087128,173.11799 L81.371712,170.293985 L86.6571216,169.66363 Z M58.0090211,185.328233 C61.1855544,191.080322 59.0938855,198.316808 53.3371796,201.490823 C47.5800539,204.665258 40.3385317,202.575688 37.1619983,196.823598 C33.9858847,191.07109 36.0775536,183.835022 41.8342596,180.660588 C47.5913852,177.486153 54.8329075,179.576143 58.0090211,185.328233 Z M47.5863491,184.428866 C43.9145972,184.428866 40.9386694,187.405213 40.9386694,191.076545 C40.9386694,194.747878 43.9145972,197.724225 47.5863491,197.724225 C51.2576813,197.724225 54.2340288,194.747878 54.2340288,191.076545 C54.2340288,187.405213 51.2576813,184.428866 47.5863491,184.428866 Z M52.2145023,188.523274 C53.6250358,191.077426 52.6958715,194.291311 50.1396205,195.700586 C47.5833694,197.11028 44.3673865,196.182374 42.9568529,193.627802 C41.5463194,191.07365 42.4754837,187.860185 45.0317347,186.45049 C47.5884055,185.040796 50.8039687,185.969121 52.2145023,188.523274 Z M86.0087208,177.365538 C80.863064,177.365538 76.6918968,181.537125 76.6918968,186.682362 C76.6918968,191.828018 80.863064,195.999186 86.0087208,195.999186 C91.1543776,195.999186 95.3255448,191.828018 95.3255448,186.682362 C95.3255448,181.537125 91.1543776,177.365538 86.0087208,177.365538 Z M17.6797224,150.351407 L18.0167228,153.175412 L18.0549134,153.17877 C19.9507021,153.313346 21.7616527,153.822688 23.400823,154.643464 L23.5891906,154.739547 L25.349315,152.504769 L29.5330725,155.793355 L27.7729482,158.028554 C27.84849,158.115287 27.9221666,158.203513 27.995097,158.292484 L28.2060546,158.550212 C28.5341218,158.963894 28.8372142,159.397 29.1171814,159.846624 L29.3110634,160.165128 L29.3774248,160.277759 L29.4445206,160.393852 L29.5281937,160.547191 L29.6889823,160.849097 L29.7605373,160.986436 L29.7852982,161.038475 C29.9121454,161.294058 30.0316746,161.554127 30.1435316,161.818504 L30.2696051,162.124599 L30.3512847,162.338949 L30.4920338,162.728934 L30.5485328,162.900319 L30.6028285,163.072649 L33.4322891,162.735229 L34.0630633,168.016861 L31.2315042,168.354281 C31.1317095,169.814623 30.8115671,171.225246 30.2946282,172.545827 L30.204975,172.76928 L30.1869288,172.810408 C30.1362878,172.932674 30.0845277,173.054194 30.0309023,173.174719 L29.9464541,173.360185 L29.919175,173.416002 C29.8662958,173.528475 29.8126704,173.640762 29.7573042,173.752116 L29.6707264,173.922552 L31.9071838,175.680578 L28.615659,179.860978 L26.378782,178.102952 L26.3754246,178.10589 C26.1293262,178.320093 25.8746327,178.525163 25.6130633,178.722391 L25.3774333,178.89698 C25.147975,179.063172 24.9128511,179.222282 24.6727698,179.374842 L24.3941306,179.547479 C23.845141,179.879443 23.2710888,180.175742 22.6739421,180.433001 L22.3733871,180.5589 C22.1240991,180.659622 21.8710341,180.753499 21.6141919,180.84053 L21.3313298,180.934091 L21.6683302,183.757676 L16.3825015,184.388031 L16.0455011,181.564866 L15.8397022,181.548655 L15.6732478,181.534229 L15.5255216,181.517862 C15.3417032,181.498557 15.1590039,181.475707 14.9772994,181.449314 L14.6752566,181.40245 C14.4961945,181.372514 14.3178785,181.339778 14.1405573,181.303624 L13.817857,181.23416 C13.6967102,181.206182 13.5764962,181.175778 13.4567174,181.144194 L13.169876,181.067548 L13.0356844,181.028466 L12.9021222,180.98781 L12.8899517,180.984453 L12.8278395,180.964308 C12.7075322,180.927097 12.5877844,180.888953 12.4688449,180.84913 L12.197485,180.75363 C12.081934,180.711662 11.9667561,180.669135 11.8523242,180.62493 L11.6766662,180.555542 L11.5939898,180.52029 C11.4778793,180.472167 11.3623283,180.423298 11.2475855,180.372688 L11.0735906,180.294504 L10.964055,180.241625 C10.856338,180.190704 10.7488075,180.13941 10.6420853,180.086499 L10.4726136,180.00031 L8.71332864,182.235089 L4.52957114,178.946502 L6.28927575,176.711723 L6.28256092,176.70375 C6.07104384,176.461009 5.86865893,176.209941 5.67411693,175.952266 L5.46125353,175.666309 C5.38655106,175.562509 5.31371383,175.45703 5.24199574,175.350618 L5.09445605,175.129962 C4.85384138,174.760646 4.62867314,174.379673 4.42186577,173.986556 L4.30000796,173.749226 C4.21327477,173.576318 4.13101813,173.401546 4.0521189,173.225158 L3.92733501,172.93841 C3.85543039,172.76886 3.78651014,172.597632 3.72082296,172.424601 L3.59201329,172.072617 L3.52455025,171.8707 L3.46023479,171.667209 L0.630354476,172.005049 L2.38387088e-12,166.722997 L2.82946064,166.385577 C2.95918738,164.478069 3.4679611,162.655787 4.29469726,161.007174 L4.3914975,160.817726 L2.1550401,159.05928 L5.44656484,154.87888 L7.6834419,156.637326 C8.22025512,156.169526 8.79453872,155.742513 9.4006924,155.358054 L9.65340456,155.201611 C10.2075353,154.865608 10.7873711,154.565913 11.3903818,154.3059 L11.6817023,154.183895 C11.9341378,154.081599 12.1905866,153.986621 12.4506943,153.898607 L12.7308942,153.806186 L12.3938938,150.982182 L17.6797224,150.351407 Z M17.0313218,157.80025 C11.7467522,157.80025 7.46269194,162.08431 7.46269194,167.36888 C7.46269194,172.65345 11.7467522,176.93751 17.0313218,176.93751 C22.3158914,176.93751 26.5999517,172.65345 26.5999517,167.36888 C26.5999517,162.08431 22.3158914,157.80025 17.0313218,157.80025 Z" id="Combined-Shape" fill-opacity="0.6" fill="#FFFFFF" fill-rule="nonzero"></path>
    </g>
</svg>