<svg width="400" height="400" viewBox="0 0 400 400" xmlns="http://www.w3.org/2000/svg"><g fill="#FFF"><path d="M196.46 253.193l2.243 6.24c.237.669.451 1.368.643 2.096.172-.686.372-1.358.6-2.015l.117-.328 2.198-5.993h1.742l-3.961 10.59c-.396 1.058-.705 1.791-.928 2.2-.31.575-.665.996-1.065 1.264-.4.268-.878.402-1.433.402-.302 0-.636-.058-1-.173l-.124-.04-.193-1.637.125.033c.329.081.62.122.872.122.387 0 .697-.064.93-.193.232-.13.422-.31.57-.543.11-.174.288-.606.533-1.297l.063-.18.092-.246-3.902-10.302h1.879zm160.188-.233c.878 0 1.652.226 2.324.678.67.452 1.178 1.09 1.52 1.912.342.823.513 1.725.513 2.707 0 1.052-.189 1.999-.567 2.841-.377.843-.926 1.488-1.646 1.937-.72.449-1.476.673-2.27.673a3.28 3.28 0 01-1.564-.368 3.598 3.598 0 01-1.062-.837l-.076-.093v5.006h-1.742v-14.223h1.588v1.336l.08-.11c.355-.468.75-.824 1.188-1.067.471-.261 1.042-.392 1.714-.392zm-177.898-3.92l-.842 4.154h3.05l.842-4.154h1.463l-.843 4.154h1.675v1.442h-1.965l-.727 3.515h2.692v1.443h-2.982l-.842 4.125h-1.453l.833-4.125h-3.04l-.843 4.125h-1.452l.842-4.125h-1.636v-1.443h1.927l.716-3.515h-2.643v-1.442h2.934l.842-4.154h1.452zm195.18 3.921c1.375 0 2.498.468 3.37 1.404.87.936 1.307 2.253 1.307 3.95l-.002.139c0 .053-.002.113-.004.181l-.004.145h-7.669l.01.135c.08 1.064.397 1.884.949 2.46.574.6 1.291.9 2.15.9.639 0 1.184-.167 1.636-.503.425-.316.767-.809 1.027-1.48l.048-.127 1.8.223-.036.13c-.292.99-.806 1.763-1.542 2.32-.768.58-1.749.87-2.943.87-1.504 0-2.697-.462-3.578-1.389-.881-.926-1.322-2.225-1.322-3.897 0-1.73.446-3.072 1.337-4.028.89-.955 2.046-1.433 3.466-1.433zm10.186 0c.807 0 1.515.116 2.125.349.61.232 1.06.547 1.351.944.271.37.463.858.577 1.461l.023.132-1.704.232-.016-.098c-.09-.482-.309-.863-.657-1.141-.37-.297-.895-.446-1.573-.446-.8 0-1.372.133-1.714.397-.342.265-.513.575-.513.93 0 .226.07.429.213.61.142.187.365.342.668.465l.05.017c.212.072.708.215 1.49.428l.288.078c1.08.294 1.844.537 2.292.73.487.21.87.515 1.147.915.278.4.417.898.417 1.492 0 .58-.17 1.128-.509 1.64-.339.514-.828.91-1.467 1.192-.639.28-1.362.42-2.169.42-1.336 0-2.354-.277-3.054-.832-.673-.533-1.112-1.313-1.317-2.34l-.024-.129 1.723-.271.018.114c.11.635.373 1.126.79 1.474.443.368 1.06.552 1.855.552.8 0 1.394-.163 1.781-.49.388-.325.581-.708.581-1.147 0-.393-.17-.703-.513-.929-.23-.149-.786-.336-1.67-.562l-.4-.102c-1.123-.292-1.913-.547-2.37-.764-.493-.236-.867-.562-1.122-.978a2.59 2.59 0 01-.383-1.38c0-.458.105-.883.315-1.273.21-.39.495-.715.857-.973.27-.2.64-.37 1.108-.509.468-.138.97-.208 1.506-.208zm-175.253 0c.807 0 1.515.116 2.125.349.61.232 1.06.547 1.351.944.271.37.464.858.577 1.461l.023.132-1.704.232-.016-.098c-.09-.482-.309-.863-.657-1.141-.37-.297-.895-.446-1.573-.446-.8 0-1.372.133-1.714.397-.342.265-.513.575-.513.93 0 .226.07.429.213.61.142.187.365.342.668.465l.115.039c.24.077.714.212 1.425.406l.288.078c1.08.294 1.844.537 2.292.73.487.21.87.515 1.147.915.278.4.417.898.417 1.492 0 .58-.17 1.128-.509 1.64-.339.514-.828.91-1.467 1.192-.639.28-1.362.42-2.168.42-1.337 0-2.355-.277-3.055-.832-.673-.533-1.112-1.313-1.317-2.34l-.024-.129 1.723-.271.018.114c.11.635.373 1.126.79 1.474.443.368 1.06.552 1.855.552.8 0 1.394-.163 1.781-.49.388-.325.581-.708.581-1.147 0-.393-.17-.703-.513-.929-.23-.149-.786-.336-1.67-.562l-.4-.102c-1.123-.292-1.913-.547-2.37-.764-.493-.236-.867-.562-1.122-.978a2.59 2.59 0 01-.383-1.38c0-.458.105-.883.315-1.273.21-.39.495-.715.857-.973.27-.2.64-.37 1.108-.509.468-.138.97-.208 1.506-.208zm10.883 0c.878 0 1.591.104 2.14.31.549.207.952.466 1.21.78.258.313.44.708.542 1.186.055.28.084.774.087 1.48l.002 2.878c.006 1.374.042 2.257.11 2.647.066.381.19.749.37 1.103l.07.131h-1.82l-.052-.11a3.799 3.799 0 01-.296-1.158c-.646.549-1.267.936-1.864 1.162a5.386 5.386 0 01-1.922.339c-1.13 0-1.998-.276-2.605-.828-.607-.552-.91-1.257-.91-2.116a2.859 2.859 0 011.244-2.382 4.23 4.23 0 011.254-.57c.32-.085.79-.167 1.414-.245l.135-.017c1.408-.168 2.444-.368 3.108-.6l.01-.456c0-.71-.165-1.21-.494-1.5-.445-.394-1.107-.591-1.985-.591-.82 0-1.425.144-1.815.43-.37.273-.649.744-.836 1.412l-.03.114-1.705-.233.033-.144c.157-.663.4-1.204.732-1.623.355-.448.868-.794 1.54-1.036.671-.242 1.449-.363 2.333-.363zm63.46-3.68v14.195h-1.618v-1.297l-.06.091c-.65.96-1.589 1.439-2.816 1.439-.82 0-1.573-.226-2.26-.678-.688-.452-1.22-1.083-1.598-1.893-.378-.81-.566-1.741-.566-2.793 0-1.027.17-1.958.513-2.794.342-.836.855-1.476 1.54-1.922a4.116 4.116 0 012.294-.668c.62 0 1.172.131 1.656.392.447.242.816.55 1.11.926l.071.096v-5.093h1.733zm45.546 3.68c1.374 0 2.498.468 3.369 1.404.871.936 1.307 2.253 1.307 3.95l-.004.255-.006.21h-7.668l.009.135c.081 1.064.398 1.884.95 2.46.574.6 1.29.9 2.149.9.64 0 1.185-.167 1.636-.503.426-.316.768-.809 1.027-1.48l.048-.127 1.801.223-.037.13c-.291.99-.805 1.763-1.541 2.32-.768.58-1.75.87-2.944.87-1.504 0-2.696-.462-3.577-1.389-.881-.926-1.322-2.225-1.322-3.897 0-1.73.445-3.072 1.336-4.028.891-.955 2.046-1.433 3.467-1.433zm-94.037-3.68v14.195H233.1v-1.297l-.06.091c-.65.96-1.589 1.439-2.815 1.439a4.03 4.03 0 01-2.261-.678c-.688-.452-1.22-1.083-1.598-1.893-.378-.81-.566-1.741-.566-2.793 0-1.027.17-1.958.513-2.794.342-.836.855-1.476 1.54-1.922a4.116 4.116 0 012.294-.668c.62 0 1.172.131 1.656.392.447.242.817.55 1.11.926l.071.096v-5.093h1.733zm74.981 3.913v5.825l.003.245c.008.71.043 1.2.104 1.472.11.459.342.818.697 1.08.355.261.794.392 1.317.392a2.87 2.87 0 001.472-.402c.458-.268.782-.632.973-1.094.18-.436.274-1.057.284-1.865l.001-5.653h1.743v10.282h-1.559v-1.51l-.071.101c-.793 1.095-1.857 1.642-3.192 1.642a4.158 4.158 0 01-1.699-.349c-.526-.232-.917-.524-1.172-.876-.255-.352-.434-.783-.537-1.293-.063-.301-.098-.76-.105-1.373l-.001-.253v-6.371h1.742zm-19.53-.233c1.376 0 2.499.468 3.37 1.404.845.907 1.28 2.171 1.306 3.793l.001.158c0 .051 0 .116-.002.193l-.007.271h-7.669l.01.135c.08 1.064.397 1.884.949 2.46.574.6 1.29.9 2.15.9.638 0 1.184-.167 1.636-.503.425-.316.767-.809 1.027-1.48l.047-.127 1.801.223-.036.13c-.292.99-.806 1.763-1.542 2.32-.768.58-1.75.87-2.943.87-1.504 0-2.697-.462-3.578-1.389-.881-.926-1.322-2.225-1.322-3.897 0-1.73.446-3.072 1.336-4.028.891-.955 2.047-1.433 3.467-1.433zm-101.133 0c.807 0 1.516.116 2.126.349.61.232 1.06.547 1.35.944.271.37.464.858.577 1.461l.024.132-1.705.232-.016-.098c-.09-.482-.308-.863-.656-1.141-.372-.297-.896-.446-1.574-.446-.8 0-1.372.133-1.714.397-.342.265-.513.575-.513.93 0 .226.071.429.213.61.142.187.365.342.668.465l.116.039c.239.077.714.212 1.424.406l.289.078c1.079.294 1.843.537 2.291.73.488.21.87.515 1.148.915.277.4.416.898.416 1.492 0 .58-.17 1.128-.508 1.64-.34.514-.828.91-1.467 1.192-.64.28-1.362.42-2.17.42-1.335 0-2.354-.277-3.054-.832-.672-.533-1.111-1.313-1.317-2.34l-.024-.129 1.723-.271.018.114c.11.635.373 1.126.79 1.474.443.368 1.061.552 1.855.552.8 0 1.394-.163 1.782-.49.387-.325.58-.708.58-1.147 0-.393-.17-.703-.513-.929-.229-.149-.785-.336-1.669-.562l-.4-.102c-1.124-.292-1.914-.547-2.37-.764-.494-.236-.868-.562-1.123-.978a2.59 2.59 0 01-.383-1.38c0-.458.105-.883.315-1.273.21-.39.496-.715.857-.973.271-.2.64-.37 1.109-.509a5.3 5.3 0 011.505-.208zm205.966 0c.878 0 1.591.104 2.14.31.549.207.952.466 1.21.78.258.313.44.708.542 1.186.052.264.08.716.087 1.358v2.718c.003 1.535.04 2.512.112 2.928.066.381.19.749.37 1.103l.07.131h-1.82l-.052-.11a3.799 3.799 0 01-.296-1.158c-.646.549-1.267.936-1.864 1.162a5.386 5.386 0 01-1.922.339c-1.13 0-1.998-.276-2.605-.828-.607-.552-.91-1.257-.91-2.116 0-.503.115-.963.344-1.38a2.85 2.85 0 01.9-1.002 4.23 4.23 0 011.254-.57c.32-.085.79-.167 1.413-.245l.136-.017c1.407-.168 2.444-.368 3.108-.6l.01-.406v-.05c0-.71-.165-1.21-.494-1.5-.445-.394-1.107-.591-1.985-.591-.82 0-1.425.144-1.815.43-.37.273-.649.744-.836 1.412l-.03.114-1.705-.233.032-.144c.158-.663.402-1.204.733-1.623.355-.448.868-.794 1.54-1.036.67-.242 1.449-.363 2.333-.363zm-90.463-3.36v3.593h1.752v1.355h-1.752v6.104c.004.445.034.734.092.868a.726.726 0 00.3.338c.139.084.337.126.595.126.172 0 .393-.018.662-.053l.103-.014.252 1.54-.162.032c-.426.081-.81.122-1.155.122-.633 0-1.123-.1-1.472-.3-.348-.2-.594-.463-.736-.79-.136-.312-.207-.957-.212-1.933v-6.04h-1.279v-1.355h1.278v-2.547l1.734-1.046zm-138.121-.32v14.195h-1.743v-14.194h1.743zm89.311 3.913v10.282h-1.743v-10.282h1.743zm-7.513-.233c1.02 0 1.804.283 2.352.847.529.544.803 1.371.822 2.48l.001.13v7.058h-1.733v-6.598c-.007-.635-.063-1.096-.17-1.385a1.458 1.458 0 00-.614-.74 1.92 1.92 0 00-1.046-.281c-.723 0-1.323.24-1.8.721-.46.462-.698 1.19-.716 2.184l-.001.125v5.974h-1.743v-6.68l-.001-.128c-.015-.711-.157-1.25-.425-1.615-.284-.388-.749-.581-1.394-.581-.49 0-.944.129-1.36.387-.417.258-.719.636-.906 1.133-.177.47-.27 1.134-.28 1.995v5.489h-1.744v-10.282h1.56v1.442l.07-.106c.314-.455.72-.824 1.217-1.109.536-.306 1.146-.46 1.83-.46.762 0 1.386.158 1.874.475a2.54 2.54 0 011.03 1.326c.814-1.2 1.873-1.8 3.177-1.8zm98.103 0c1.02 0 1.804.283 2.352.847.529.544.803 1.371.822 2.48l.001.13v7.058h-1.733v-6.598c-.007-.635-.063-1.096-.17-1.385a1.458 1.458 0 00-.614-.74 1.92 1.92 0 00-1.046-.281c-.723 0-1.323.24-1.8.721-.46.462-.698 1.19-.716 2.184l-.001.125v5.974h-1.743v-6.68l-.001-.128c-.015-.711-.157-1.25-.425-1.615-.284-.388-.749-.581-1.394-.581-.49 0-.944.129-1.36.387-.417.258-.719.636-.906 1.133-.177.47-.27 1.134-.28 1.995v5.489h-1.744v-10.282h1.56v1.442l.07-.106c.314-.455.72-.824 1.217-1.109.536-.306 1.146-.46 1.83-.46.762 0 1.386.158 1.874.475a2.54 2.54 0 011.03 1.326c.814-1.2 1.873-1.8 3.177-1.8zm-184.307-3.68v1.676h-8.385v4.347h7.853v1.666h-7.853v4.831h8.715v1.675h-10.593v-14.194h10.263zm204.872 3.68c.55 0 1.11.165 1.678.494l.113.068-.6 1.617-.098-.056a2.445 2.445 0 00-1.18-.322c-.38 0-.723.115-1.026.344-.304.23-.52.547-.65.954a6.678 6.678 0 00-.288 1.85l-.002.183v5.383h-1.742v-10.282h1.568v1.559l.063-.114c.376-.666.725-1.109 1.046-1.33a1.935 1.935 0 011.118-.348zm-103.66 0c.62 0 1.189.112 1.708.334.52.223.909.515 1.167.877.258.361.44.79.542 1.287.058.29.09.772.096 1.448l.001.247v6.322h-1.743v-6.385c-.008-.645-.076-1.132-.203-1.462a1.675 1.675 0 00-.721-.843c-.346-.21-.75-.314-1.215-.314-.743 0-1.383.235-1.922.707-.521.455-.79 1.306-.808 2.551v5.745h-1.744v-10.282h1.569v1.462l.065-.096c.753-1.066 1.822-1.599 3.207-1.599zm-41.258 5.355l-.084.033c-.603.233-1.469.433-2.599.601l-.163.024c-.717.103-1.223.22-1.52.349a1.522 1.522 0 00-.688.566 1.488 1.488 0 00-.242.828c0 .465.176.852.528 1.162.352.31.866.465 1.544.465.671 0 1.269-.147 1.791-.441a2.713 2.713 0 001.153-1.205c.176-.371.27-.907.28-1.61v-.773zm175.253 0l-.084.033c-.603.233-1.469.433-2.6.601l-.162.024c-.717.103-1.224.22-1.52.349a1.488 1.488 0 00-.93 1.394c0 .465.176.852.528 1.162.352.31.866.465 1.544.465.671 0 1.269-.147 1.791-.441a2.713 2.713 0 001.153-1.205c.176-.371.269-.907.28-1.61v-.772zm-40.734-3.99c-.742 0-1.399.347-1.97 1.041s-.857 1.703-.857 3.026c0 1.323.268 2.301.804 2.934.535.633 1.184.949 1.946.949.774 0 1.438-.328 1.99-.983.551-.655.827-1.67.827-3.045 0-1.31-.27-2.292-.808-2.944-.54-.652-1.183-.978-1.932-.978zm-77.682.078c-.775 0-1.422.316-1.942.949-.52.632-.78 1.63-.78 2.992 0 1.317.278 2.3.834 2.953.555.652 1.21.978 1.965.978.762 0 1.409-.312 1.941-.935.533-.622.8-1.573.8-2.851 0-1.407-.272-2.44-.814-3.098-.542-.659-1.21-.988-2.004-.988zm-48.49 0c-.775 0-1.422.316-1.942.949-.52.632-.78 1.63-.78 2.992 0 1.317.278 2.3.834 2.953.555.652 1.21.978 1.965.978.762 0 1.409-.312 1.942-.935.532-.622.798-1.573.798-2.851 0-1.407-.27-2.44-.813-3.098-.542-.659-1.21-.988-2.004-.988zm-49.642.232h-3.05l-.717 3.515h3.04l.727-3.515zm193.281-.242c-.8 0-1.473.268-2.018.804-.521.511-.82 1.187-.896 2.028l-.01.121h5.742c-.077-.865-.297-1.513-.658-1.946-.556-.671-1.275-1.007-2.16-1.007zm-83.763 0c-.8 0-1.473.268-2.019.804-.52.511-.819 1.187-.895 2.028l-.01.121h5.742c-.078-.865-.297-1.513-.659-1.946-.555-.671-1.274-1.007-2.159-1.007zm38.585 0c-.8 0-1.473.268-2.019.804-.52.511-.82 1.187-.896 2.028l-.01.121h5.742c-.077-.865-.296-1.513-.658-1.946-.555-.671-1.275-1.007-2.16-1.007zm-73.045-5.112v2.004h-1.743v-2.004h1.743zm129.394-43.438c2.69 0 5.051.388 7.085 1.162 2.033.775 3.534 1.824 4.502 3.147.937 1.28 1.592 2.98 1.965 5.096l.036.213-5.68.775-.025-.16c-.28-1.688-1.019-3.012-2.218-3.971-1.238-.99-2.986-1.485-5.245-1.485-2.668 0-4.572.441-5.713 1.323-1.14.882-1.71 1.915-1.71 3.099 0 .753.236 1.43.71 2.033.473.624 1.215 1.14 2.227 1.55l.111.04c.67.232 2.344.714 5.02 1.444l.877.236c3.643.99 6.218 1.81 7.725 2.459 1.624.699 2.899 1.716 3.824 3.05.925 1.334 1.388 2.99 1.388 4.97 0 1.937-.565 3.76-1.694 5.47-1.13 1.711-2.76 3.034-4.89 3.97-2.13.936-4.54 1.404-7.23 1.404-4.454 0-7.848-.925-10.182-2.775-2.292-1.816-3.77-4.493-4.434-8.03l-.037-.2 5.745-.904.026.172c.342 2.218 1.232 3.925 2.67 5.121 1.473 1.227 3.534 1.84 6.18 1.84 2.668 0 4.648-.544 5.939-1.63 1.29-1.087 1.936-2.362 1.936-3.825 0-1.312-.57-2.345-1.71-3.098l-.096-.06c-.818-.486-2.648-1.093-5.49-1.82l-.804-.204c-4.019-1.027-6.821-1.92-8.408-2.677-1.647-.785-2.894-1.872-3.744-3.26-.85-1.387-1.275-2.92-1.275-4.599 0-1.527.35-2.942 1.049-4.244a9.406 9.406 0 012.856-3.243c.904-.667 2.136-1.232 3.695-1.695 1.56-.462 3.233-.694 5.02-.694zm-221.122 0c2.69 0 5.051.388 7.084 1.162 2.034.775 3.535 1.824 4.503 3.147.937 1.28 1.592 2.98 1.965 5.096l.036.213-5.68.775-.025-.16c-.28-1.688-1.019-3.012-2.219-3.971-1.237-.99-2.985-1.485-5.244-1.485-2.668 0-4.573.441-5.713 1.323-1.14.882-1.71 1.915-1.71 3.099 0 .753.236 1.43.71 2.033.473.624 1.215 1.14 2.226 1.55l.155.054c.696.238 2.355.715 4.977 1.43l.662.178c3.757 1.017 6.404 1.856 7.94 2.517 1.624.699 2.899 1.716 3.824 3.05.925 1.334 1.388 2.99 1.388 4.97 0 1.937-.565 3.76-1.695 5.47-1.13 1.711-2.76 3.034-4.89 3.97-2.13.936-4.54 1.404-7.229 1.404-4.454 0-7.848-.925-10.183-2.775-2.29-1.816-3.769-4.493-4.433-8.03l-.037-.2 5.745-.904.026.172c.342 2.218 1.232 3.925 2.67 5.121 1.473 1.227 3.533 1.84 6.18 1.84 2.668 0 4.648-.544 5.939-1.63 1.29-1.087 1.936-2.362 1.936-3.825 0-1.312-.57-2.345-1.71-3.098l-.096-.06c-.818-.486-2.648-1.093-5.49-1.82l-.805-.204c-4.018-1.027-6.82-1.92-8.408-2.677-1.646-.785-2.894-1.872-3.744-3.26-.85-1.387-1.274-2.92-1.274-4.599 0-1.527.35-2.942 1.049-4.244a9.395 9.395 0 012.707-3.135l.149-.108c.904-.667 2.135-1.232 3.695-1.695 1.56-.462 3.233-.694 5.02-.694zm45.846 0c2.69 0 5.051.388 7.085 1.162 2.033.775 3.534 1.824 4.502 3.147.937 1.28 1.592 2.98 1.965 5.096l.036.213-5.68.775-.025-.16c-.28-1.688-1.019-3.012-2.219-3.971-1.237-.99-2.985-1.485-5.244-1.485-2.668 0-4.572.441-5.713 1.323-1.14.882-1.71 1.915-1.71 3.099 0 .753.236 1.43.71 2.033.473.624 1.215 1.14 2.227 1.55l.154.054c.696.238 2.356.715 4.977 1.43l.877.236c3.643.99 6.218 1.81 7.725 2.459 1.624.699 2.899 1.716 3.824 3.05.925 1.334 1.388 2.99 1.388 4.97 0 1.937-.565 3.76-1.694 5.47-1.13 1.711-2.76 3.034-4.89 3.97-2.13.936-4.54 1.404-7.23 1.404-4.454 0-7.848-.925-10.182-2.775-2.292-1.816-3.77-4.493-4.434-8.03l-.037-.2 5.745-.904.026.172c.342 2.218 1.232 3.925 2.67 5.121 1.473 1.227 3.533 1.84 6.18 1.84 2.668 0 4.648-.544 5.939-1.63 1.29-1.087 1.936-2.362 1.936-3.825 0-1.312-.57-2.345-1.71-3.098l-.096-.06c-.818-.486-2.648-1.093-5.49-1.82l-.804-.204c-4.019-1.027-6.821-1.92-8.409-2.677-1.646-.785-2.893-1.872-3.743-3.26-.85-1.387-1.275-2.92-1.275-4.599 0-1.527.35-2.942 1.049-4.244a9.395 9.395 0 012.707-3.135l.149-.108c.904-.667 2.136-1.232 3.695-1.695 1.56-.462 3.233-.694 5.02-.694zm142.687 0c2.926 0 5.304.344 7.133 1.033 1.829.689 3.173 1.555 4.034 2.598.86 1.044 1.463 2.362 1.807 3.954l.028.15c.157.912.244 2.403.26 4.475l.003.732v8.198l.004 1.104c.022 4.506.144 7.403.367 8.692a12.885 12.885 0 001.355 3.907l.114.208h-6.068l-.081-.166c-.556-1.168-.917-2.522-1.081-4.062-2.152 1.829-4.223 3.12-6.213 3.873-1.99.753-4.126 1.13-6.407 1.13-3.765 0-6.659-.92-8.682-2.76-2.022-1.84-3.033-4.19-3.033-7.052 0-1.678.382-3.212 1.145-4.6.764-1.387 1.765-2.5 3.002-3.34 1.237-.839 2.63-1.474 4.18-1.904l.22-.056c1.137-.282 2.785-.553 4.944-.815l.516-.063c4.428-.546 7.71-1.193 9.844-1.938l.027-1.108c.003-.185.005-.321.005-.41 0-2.366-.549-4.034-1.646-5.002-1.485-1.313-3.69-1.969-6.616-1.969-2.733 0-4.75.479-6.052 1.436-1.27.935-2.217 2.57-2.842 4.907l-.046.177-5.68-.775.049-.226c.52-2.327 1.353-4.215 2.5-5.664 1.183-1.495 2.894-2.647 5.132-3.453 2.237-.807 4.83-1.21 7.778-1.21zm-90.353 0c4.583 0 8.327 1.56 11.231 4.68 2.905 3.12 4.357 7.51 4.357 13.168v.227a66.3 66.3 0 01-.024 1.056l-.008.266h-25.562l.013.209c.242 3.663 1.303 6.477 3.183 8.441 1.915 2.001 4.303 3.002 7.165 3.002 2.13 0 3.948-.56 5.454-1.679 1.467-1.089 2.637-2.81 3.512-5.165l.07-.192 6.004.742-.057.206c-.96 3.408-2.694 6.061-5.204 7.96-2.56 1.936-5.831 2.904-9.812 2.904-5.013 0-8.988-1.543-11.925-4.631-2.937-3.088-4.406-7.418-4.406-12.99 0-5.767 1.485-10.243 4.454-13.427 2.97-3.185 6.82-4.777 11.555-4.777zm-24.65-11.2v11.975h5.842v4.518h-5.842v20.192c.006 1.572.108 2.587.306 3.046.205.474.538.85 1.001 1.13.463.28 1.124.42 1.985.42.607 0 1.396-.067 2.366-.2l.184-.026.839 5.131-.257.053c-1.532.31-2.91.464-4.133.464-2.108 0-3.744-.334-4.905-1-1.162-.668-1.98-1.545-2.453-2.631-.474-1.087-.71-3.373-.71-6.859v-19.72h-4.26v-4.518h4.26v-8.488l5.777-3.486zm82.252 11.2c3.4 0 6.014.942 7.843 2.824 1.797 1.85 2.71 4.68 2.742 8.493l.001 23.734h-5.777v-21.79c-.01-2.221-.199-3.828-.565-4.82-.376-1.023-1.06-1.846-2.05-2.47-.989-.624-2.15-.936-3.485-.936-2.41 0-4.41.802-6.003 2.405-1.563 1.573-2.36 4.075-2.388 7.506v20.105h-5.81v-22.458c-.023-2.488-.496-4.362-1.42-5.621-.947-1.291-2.496-1.937-4.648-1.937-1.635 0-3.146.43-4.534 1.291-1.388.86-2.394 2.12-3.018 3.776-.608 1.616-.92 3.926-.935 6.933v18.016h-5.81v-34.276h5.196v4.809l.112-.173c1.063-1.598 2.456-2.89 4.18-3.878 1.786-1.022 3.82-1.533 6.1-1.533 2.54 0 4.621.527 6.246 1.582 1.624 1.054 2.77 2.528 3.437 4.421 2.711-4.002 6.24-6.003 10.586-6.003zm-129.099.775v34.276h-5.81v-34.276h5.81zm169.24 17.073l-.13.053c-2.02.803-4.969 1.492-8.847 2.068l-.511.074c-2.388.344-4.077.732-5.067 1.162-.99.43-1.754 1.06-2.292 1.888a4.96 4.96 0 00-.807 2.76c0 1.549.587 2.84 1.76 3.872 1.172 1.033 2.888 1.55 5.147 1.55 2.238 0 4.228-.49 5.971-1.469 1.743-.979 3.023-2.318 3.84-4.018.607-1.276.92-3.142.936-5.598v-2.342zm-97.679-13.071c-2.668 0-4.911.893-6.73 2.679-1.78 1.748-2.781 4.075-3.004 6.979l-.013.186h19.14c-.259-2.883-.99-5.046-2.196-6.487-1.85-2.238-4.25-3.357-7.197-3.357zm-71.56-17.041v6.68h-5.81v-6.68h5.81z"/><path d="M27.603 210.143l7.728.15-.08 4.128.05.011a20.56 20.56 0 017.445 3.208l.206.144 2.978-2.863 5.359 5.566-2.979 2.863.012.016c.618.948 1.157 1.95 1.615 2.997l.153.356.076.182.082.204.083.218.169.462.077.217.03.097c.17.506.32 1.022.45 1.545l.022.088c.035.142.067.285.097.428l.103.489c.023.115.043.23.063.346l.029.174 4.136.08-.15 7.722-4.138-.08a20.485 20.485 0 01-1.555 4.616l-.03.065c-.07.144-.14.288-.213.43l-.132.254c-.091.173-.184.345-.28.515l-.149.26-.029.048a22.72 22.72 0 01-.3.499l-.16.25-.03.046c-.104.159-.208.316-.315.472l-.167.24 2.864 2.975-5.57 5.355-2.864-2.975-.007.005c-.15.097-.301.192-.453.284l-.242.146-.08.05c-.16.094-.32.184-.481.273l-.337.185c-.155.082-.31.161-.467.239l-.328.16c-.147.07-.296.14-.446.206l-.225.1-.117.05c-.153.065-.306.129-.46.19l-.248.098-.016.005c-.613.235-1.24.44-1.878.617l-.32.085-.166.044a21.421 21.421 0 01-.891.2l-.299.06-.365.066-.08 4.128-7.728-.15.08-4.127-.077-.017-.218-.048-.231-.053-.215-.054a18.93 18.93 0 01-.864-.235l-.336-.1a22.14 22.14 0 01-.837-.282l-.359-.131-.21-.084-.464-.19-.227-.096-.187-.085-.234-.108-.036-.017a24.14 24.14 0 01-.5-.242l-.26-.131-.111-.06c-.16-.084-.318-.169-.475-.256l-.242-.137-.163-.098c-.144-.085-.287-.17-.43-.258l-.22-.139-.206-.137a38.465 38.465 0 01-.394-.262l-.205-.143-2.978 2.862-5.358-5.566 2.978-2.862-.005-.007c-.26-.398-.504-.805-.735-1.22l-.237-.433a18.334 18.334 0 01-.253-.497l-.168-.347a20.48 20.48 0 01-1.156-3.076l-.084-.303-.003-.013a20.31 20.31 0 01-.362-1.599l-.058-.325-4.135-.08.15-7.721 4.129.08a20.536 20.536 0 013.223-7.489l.145-.207-2.865-2.976 5.57-5.354 2.866 2.976c.643-.42 1.313-.803 2.003-1.15l.36-.178c.156-.074.312-.146.468-.216l.309-.136a20.573 20.573 0 012.683-.939l.431-.114c.215-.054.431-.103.65-.15l.24-.051c.138-.028.276-.055.416-.081l.265-.048.08-4.13zm3.391 10.143c-7.927 0-14.353 6.426-14.353 14.353 0 7.926 6.426 14.353 14.353 14.353s14.353-6.427 14.353-14.353c0-7.927-6.426-14.353-14.353-14.353zm83.4-25.457v12.104h6.196v7.23h-6.197v14.125c.005 2.606.064 4.132.178 4.578.118.462.387.844.807 1.145.42.302.93.452 1.533.452.81 0 1.971-.27 3.483-.812l.164-.06.774 7.037-.204.086c-2.059.846-4.379 1.27-6.96 1.27-1.636 0-3.11-.275-4.422-.824-1.313-.549-2.276-1.259-2.889-2.13s-1.038-2.05-1.275-3.534l-.023-.135c-.163-1.002-.251-2.834-.265-5.495l-.002-.57v-15.134h-4.164v-7.23h4.164v-6.81l9.101-5.293zM80.6 206.158c4.691 0 8.177.764 10.458 2.292 2.233 1.495 3.785 3.693 4.657 6.591l.055.186-8.553 1.582-.04-.142c-.376-1.265-1.056-2.24-2.042-2.924-1.022-.71-2.48-1.065-4.373-1.065-2.388 0-4.1.333-5.132 1-.688.473-1.033 1.087-1.033 1.84 0 .645.302 1.194.904 1.646.76.56 3.26 1.335 7.495 2.324l.977.225c4.83 1.098 8.203 2.443 10.118 4.035 1.894 1.614 2.84 3.862 2.84 6.745 0 3.142-1.312 5.842-3.937 8.101-2.625 2.26-6.509 3.39-11.651 3.39-4.67 0-8.365-.948-11.087-2.841-2.67-1.857-4.433-4.366-5.292-7.527l-.05-.187 9.102-1.388.038.165c.4 1.683 1.172 2.968 2.318 3.854 1.184.914 2.84 1.371 4.97 1.371 2.346 0 4.11-.43 5.294-1.29.796-.603 1.194-1.41 1.194-2.421 0-.689-.215-1.259-.645-1.71-.452-.431-1.464-.83-3.034-1.195l-.96-.214c-6.763-1.53-11.08-2.933-12.95-4.208-2.712-1.85-4.067-4.421-4.067-7.713 0-2.97 1.172-5.466 3.518-7.488 2.345-2.023 5.981-3.034 10.908-3.034zm62.13 0c2 0 3.931.535 5.79 1.605l.18.106-2.807 7.907-.153-.097c-1.47-.925-2.839-1.388-4.108-1.388-1.27 0-2.345.35-3.227 1.05-.856.677-1.534 1.887-2.035 3.627l-.047.165c-.477 1.727-.73 5.239-.756 10.536l-.002.953v10.587h-9.07v-34.276h8.424v4.873l.105-.167c1.4-2.209 2.661-3.67 3.784-4.384 1.151-.731 2.459-1.097 3.922-1.097zm-92.076-39.619l7.426 2.143-1.147 3.967.052.027c.479.244.944.505 1.397.782l.288.18a20.582 20.582 0 014.66 4.047l.17.205 3.62-1.996 3.733 6.762-3.618 1.996.006.018c.053.163.103.327.152.491l.076.265.05.168c.045.164.087.33.128.495l.106.436c.04.176.076.353.11.53l.076.393c.032.179.06.359.088.54l.055.386.026.191.026.215.023.234.044.487.018.23.004.096c.026.42.038.843.037 1.268l-.004.443c-.003.148-.01.296-.017.443l-.02.362-.007.134c-.008.115-.018.23-.03.346l-.017.173 3.975 1.147-2.145 7.42-3.977-1.148a20.512 20.512 0 01-3.686 5.14l-.206.205-.03.03a23.58 23.58 0 01-.46.437l-.276.25-.022.02c-.122.108-.243.215-.366.321l-.192.162 1.996 3.615-6.767 3.731-1.996-3.614-.007.002c-.157.051-.316.1-.475.146l-.306.09c-.196.055-.394.108-.592.158l-.398.097c-.169.04-.338.076-.508.11l-.36.07c-.243.047-.488.087-.733.124l-.115.016c-.922.133-1.856.204-2.8.21l-.462-.002a20.073 20.073 0 01-1.328-.064l-.269-.023-1.147 3.967-7.425-2.143 1.147-3.966-.061-.032-.209-.108-.212-.112-.086-.048-.09-.05a20.81 20.81 0 01-.788-.458l-.292-.181c-.251-.16-.5-.323-.743-.492l-.306-.216-.19-.141-.385-.293-.202-.158-.16-.13-.17-.141-.061-.053c-.143-.12-.285-.242-.424-.365l-.213-.191-.065-.062a23.258 23.258 0 01-.411-.387l-.204-.2-.076-.08a24.312 24.312 0 01-.39-.402l-.192-.207-.114-.13c-.116-.13-.232-.26-.346-.393l-.178-.21-3.617 1.994-3.734-6.762 3.617-1.994-.003-.01a20.501 20.501 0 01-.625-2.392l-.059-.306a19.442 19.442 0 01-.105-.627l-.048-.337a20.436 20.436 0 01-.18-2.341l-.004-.368a20.19 20.19 0 01.065-1.636l.028-.328-3.973-1.147 2.145-7.42 3.967 1.145a20.556 20.556 0 015.053-6.4l.194-.162-1.996-3.615 6.767-3.732 1.997 3.615c.174-.057.349-.11.525-.162l.266-.077a20.33 20.33 0 011.407-.346l.43-.086c.168-.031.336-.06.505-.088l.296-.045.043-.006c.928-.135 1.87-.207 2.821-.213l.46.001c.145.003.291.007.437.013l.22.01a17.17 17.17 0 01.673.042l.24.02.029.002 1.146-3.967zm-3.07 10.084c-7.983 0-14.454 6.471-14.454 14.453 0 7.983 6.471 14.454 14.454 14.454 7.982 0 14.453-6.471 14.453-14.454 0-7.982-6.47-14.453-14.453-14.453zm39.072-6.96l.338 2.825.039.003c.354.025.705.064 1.053.115l.276.043a14.08 14.08 0 011.558.352l.262.078c.744.228 1.465.514 2.155.857l.229.116 1.76-2.235 4.183 3.289-1.76 2.235a14.07 14.07 0 011.7 2.42l.141.259c.293.55.55 1.124.77 1.718l.108.301.057.173.055.173 2.83-.338.63 5.282-2.832.338a14.108 14.108 0 01-.718 3.59l-.085.242c-.046.13-.094.258-.145.387l-.079.196-.015.036c-.056.134-.114.268-.174.4l-.105.229-.035.072-.133.274-.071.142 2.236 1.758-3.292 4.18-2.236-1.758-.004.003c-.244.213-.497.416-.756.611l-.245.183a14.34 14.34 0 01-.949.629l-.037.022a14.32 14.32 0 01-1.717.883l-.3.126c-.248.1-.501.194-.757.28l-.27.09-.013.004.337 2.824-5.286.63-.337-2.823-.053-.005-.154-.012-.162-.014-.16-.017a14.405 14.405 0 01-.81-.11l-.034-.005c-.178-.03-.355-.062-.53-.098l-.326-.07c-.125-.029-.249-.06-.372-.093l-.276-.074-.132-.038-.144-.044-.058-.019a14.457 14.457 0 01-.363-.116l-.188-.064-.07-.027a16.76 16.76 0 01-.357-.132l-.18-.072-.079-.033a17.714 17.714 0 01-.347-.148l-.177-.08-.142-.069-.3-.144-.159-.08-1.76 2.234-4.183-3.289 1.76-2.234-.117-.137-.312-.38a12.127 12.127 0 01-.229-.299l-.167-.226a14.199 14.199 0 01-.717-1.1l-.134-.232c-.208-.37-.4-.751-.574-1.143l-.111-.253c-.14-.332-.269-.67-.384-1.015l-.085-.26-2.829.338-.63-5.282 2.833-.338a14.16 14.16 0 011.462-5.378l.096-.19-2.237-1.757 3.292-4.18 2.237 1.757c.536-.467 1.11-.894 1.715-1.278l.248-.153a14.203 14.203 0 011.743-.9l.29-.121c.253-.102.51-.198.77-.286l.262-.085.02-.008-.337-2.824 5.285-.63zM58.01 185.329c3.177 5.752 1.085 12.989-4.672 16.163-5.757 3.174-12.998 1.085-16.175-4.667-3.176-5.753-1.084-12.989 4.672-16.163 5.757-3.175 12.999-1.085 16.175 4.667zm-10.423-.9a6.648 6.648 0 100 13.296 6.648 6.648 0 000-13.295zm4.629 4.095a5.28 5.28 0 01-2.075 7.178 5.288 5.288 0 01-7.183-2.073 5.28 5.28 0 012.075-7.178 5.289 5.289 0 017.183 2.073zm33.794-11.157a9.317 9.317 0 100 18.633 9.317 9.317 0 000-18.633zm-68.33-27.015l.338 2.824.038.004c1.896.134 3.707.644 5.346 1.464l.188.097 1.76-2.235 4.184 3.288-1.76 2.236c.075.086.15.175.222.263l.211.258c.328.414.631.847.911 1.297l.194.318.066.113.068.116.083.153.161.302.072.137.024.052c.127.256.247.516.359.78l.126.307.081.214.141.39.057.171.054.173 2.83-.338.63 5.282-2.831.337c-.1 1.46-.42 2.871-.937 4.192l-.09.223-.018.041c-.05.123-.102.244-.156.365l-.085.185-.027.056c-.053.112-.106.225-.162.336l-.086.17 2.236 1.759-3.291 4.18-2.237-1.758-.004.003c-.246.214-.5.42-.762.616l-.236.175c-.229.166-.464.325-.704.478l-.279.172c-.549.332-1.123.629-1.72.886l-.3.126c-.25.1-.503.194-.76.282l-.283.093.337 2.824-5.285.63-.337-2.823-.206-.016-.167-.015-.147-.016c-.184-.02-.367-.042-.549-.069l-.302-.047a15.69 15.69 0 01-.534-.098l-.323-.07a12.057 12.057 0 01-.361-.09l-.287-.076-.134-.04-.134-.04-.012-.004-.062-.02a16.31 16.31 0 01-.36-.115l-.27-.095a14.411 14.411 0 01-.346-.13l-.175-.068-.083-.036a16.735 16.735 0 01-.346-.147l-.174-.078-.11-.053a19.14 19.14 0 01-.322-.156l-.17-.086-1.759 2.235-4.183-3.288 1.76-2.235-.007-.008a13.8 13.8 0 01-.609-.752l-.213-.286a14.626 14.626 0 01-.219-.315l-.148-.221c-.24-.37-.465-.75-.672-1.143l-.122-.238a13.075 13.075 0 01-.248-.524l-.125-.287c-.072-.17-.14-.34-.206-.513l-.129-.352-.067-.202-.065-.204-2.83.338-.63-5.282 2.83-.337c.13-1.908.638-3.73 1.465-5.379l.096-.19-2.236-1.758 3.292-4.18 2.236 1.758a14.14 14.14 0 011.718-1.279l.252-.156a14.172 14.172 0 011.737-.896l.292-.122c.252-.102.509-.197.769-.285l.28-.093-.337-2.824 5.286-.63zm-.648 7.45a9.569 9.569 0 100 19.137 9.569 9.569 0 000-19.138z" fill-opacity=".6"/></g></svg>