<?xml version="1.0" encoding="UTF-8"?>
<svg width="400px" height="360px" viewBox="0 0 400 360" version="1.1" xmlns="http://www.w3.org/2000/svg" xmlns:xlink="http://www.w3.org/1999/xlink">
    <title>logos/tecnofor</title>
    <g id="logos/tecnofor" stroke="none" stroke-width="1" fill="none" fill-rule="evenodd">
        <g id="Group" transform="translate(28.000000, 113.439097)" fill="#FFFFFF">
            <path d="M279.189506,43.28229 C275.548468,64.3176666 257.318701,71.6176147 241.224416,72.2587056 C229.340779,72.7344978 220.823429,70.6101861 218.667844,69.6474329 L219.552485,69.6615584 C224.247068,69.6990283 244.735194,69.2990292 257.618026,58.8159004 C271.713091,47.3477446 271.733195,33.1879004 270.267844,25.7338225 L270.001276,24.4533719 C268.550586,17.8334792 266.023742,11.2606501 265.29678,9.97320961 L265.179325,9.79143288 C264.634286,9.13247184 282.830545,22.2446796 279.189506,43.28229 Z M88.1622857,16.8680043 C105.568085,14.0380788 131.155916,30.0920925 146.347162,38.2185916 L147.097974,38.6181861 C171.836935,51.71029 196.515584,63.2409913 224.779429,65.9929913 L219.723595,66.3397989 C217.146696,66.5017103 213.983374,66.6774436 211.227169,66.7636407 C187.32587,67.5164199 166.491532,58.0988614 144.377247,50.3856666 L140.995864,49.2134583 C125.085461,43.7424203 115.157927,41.0766981 98.3884675,40.4811472 C88.9441039,40.148316 80.6702338,44.0730433 74.7394687,51.118342 L74.7506212,47.7780912 C74.8050856,40.1484779 75.1001384,25.6901069 76.5139101,23.084821 L76.6248831,22.9081082 L76.4484156,23.015329 L76.854961,22.6869653 C79.5823896,19.7249913 84.3358442,17.4912251 88.1622857,16.8680043 Z" id="Shape"></path>
            <path d="M97.6061846,43.8511695 L98.2700779,43.865303 C115.148974,44.4647202 124.814374,47.1814381 141.614067,53.0065 L143.262597,53.5799524 L145.878338,54.5494069 L142.90324,55.6219288 C140.955117,56.3186545 139.078474,56.9775457 137.278896,57.5910636 L133.75591,58.7615839 C125.777932,61.306332 74.052813,77.0225472 74.7127792,57.0177186 C78.9998021,48.9059561 88.5212066,43.7849647 97.6061846,43.8511695 L97.6061846,43.8511695 Z M228.609897,0.00055175549 L230.337039,0.0209393693 L232.076196,0.0673106189 C248.720471,0.619035242 260.481714,4.25437314 265.340156,18.1948614 C266.501714,21.5231731 267.111532,27.5610433 267.426494,32.3859783 C257.65578,20.2599234 237.539746,22.9916256 224.626043,25.9562691 L223.986442,26.1046277 C215.033324,28.2029092 200.339881,33.6521554 184.619566,39.7104647 L169.160883,45.7036926 L168.92187,45.8377186 C162.010597,42.6121601 155.546078,39.2570433 148.681714,35.6249394 L146.818558,34.62301 C141.996446,31.9960818 135.97119,28.4963343 129.384208,25.0904978 L176.354413,10.3765166 C181.202992,8.87178396 184.700029,7.79776132 186.185315,7.36281002 L186.367584,7.30971859 C200.596675,3.18833716 213.711371,-0.048570901 228.609897,0.00055175549 L228.609897,0.00055175549 Z" id="Shape" fill-opacity="0.5"></path>
            <path d="M114.556468,101.655069 C118.959221,101.655069 123.290494,102.492732 127.550286,104.165822 L127.550286,113.194706 C123.99413,111.75616 120.265974,111.036887 116.361351,111.036887 C112.222182,111.036887 109.139584,111.992939 107.111325,113.898342 C105.114338,115.779173 104.118078,119.449251 104.118078,124.910809 C104.118078,130.31429 105.114338,133.986602 107.111325,135.923277 C109.139584,137.830913 112.222182,138.784732 116.361351,138.784732 C120.089506,138.784732 123.819896,138.03642 127.550286,136.539797 L127.550286,145.56868 C123.290494,147.241771 118.959221,148.077199 114.556468,148.077199 C107.714442,148.077199 102.45839,146.08468 98.7883117,142.088472 C95.116,138.094498 93.2820779,132.369355 93.2820779,124.910809 C93.2820779,117.394186 95.116,111.640004 98.7883117,107.64603 C102.45839,103.652056 107.714442,101.657303 114.556468,101.655069 Z M65.3734026,101.567952 C71.9808831,101.567952 76.9711169,103.667693 80.3485714,107.864939 C83.7528312,112.06442 85.4571948,117.235589 85.4571948,123.369511 L85.4442353,125.288006 C85.4211961,126.862752 85.367438,128.08885 85.282961,128.962861 L56.3445195,128.962861 C56.6371429,132.869719 57.7942338,135.483225 59.8247273,136.803381 C61.8775584,138.123537 64.5357403,138.784732 67.797039,138.784732 C73.0821299,138.784732 78.1907532,137.625407 83.1229091,135.304524 L83.1229091,144.027381 C78.1326753,146.730238 72.479013,148.077199 66.1641558,148.077199 C64.1694026,148.077199 62.2908052,147.916368 60.5283636,147.594706 C58.7659221,147.273043 56.9163636,146.596212 54.9796883,145.56868 C53.0698182,144.541147 51.4101299,143.234394 50.0006234,141.64842 C48.6201558,140.062446 47.4742338,137.875589 46.5650909,135.085615 C45.684987,132.266602 45.2449351,129.023173 45.2449351,125.350861 C45.2449351,118.129095 46.8443117,112.359277 50.0475325,108.041407 C53.2753247,103.725771 58.3839481,101.567952 65.3734026,101.567952 Z M209.471429,101.742186 C216.342494,101.742186 221.611948,103.741407 225.28426,107.733147 C228.952104,111.729355 230.78826,117.452264 230.790494,124.910809 C230.790494,132.369355 228.952104,138.094498 225.28426,142.088472 C221.611948,146.08468 216.342494,148.077199 209.471429,148.077199 C202.629403,148.077199 197.373351,146.08468 193.703273,142.088472 C190.033195,138.094498 188.197039,132.369355 188.197039,124.910809 C188.197039,117.452264 190.033195,111.729355 193.703273,107.733147 C197.373351,103.741407 202.629403,101.74442 209.471429,101.742186 Z M290.170701,101.742186 C297.041766,101.742186 302.311221,103.741407 305.983532,107.733147 C309.651377,111.729355 311.487532,117.452264 311.489766,124.910809 C311.489766,132.369355 309.651377,138.094498 305.983532,142.088472 C302.311221,146.08468 297.041766,148.077199 290.170701,148.077199 C283.328675,148.077199 278.072623,146.08468 274.402545,142.088472 C270.732468,138.094498 268.896312,132.369355 268.896312,124.910809 C268.896312,117.452264 270.732468,111.729355 274.402545,107.733147 C278.072623,103.741407 283.328675,101.74442 290.170701,101.742186 Z M49.3304935,87.2070692 L49.3304935,98.0430692 L30.0396883,98.0430692 L30.0396883,147.373563 L19.2036883,147.373563 L19.2036883,98.0430692 L7.61849458e-13,98.0430692 L7.61849458e-13,87.2070692 L49.3304935,87.2070692 Z M158.646545,101.655069 C164.901091,101.655069 169.788571,103.299121 173.311221,106.587225 C176.836104,109.84629 178.596312,114.429978 178.596312,120.329355 L178.596312,147.373563 L167.851896,147.373563 L167.851896,119.404576 C167.851896,118.202809 167.731273,117.204316 167.498961,116.409095 C167.293455,115.587069 166.853403,114.736004 166.178805,113.8559 C165.531013,112.973563 164.458805,112.312368 162.959948,111.87455 C161.465558,111.432264 159.540052,111.213355 157.19013,111.213355 C154.549818,111.213355 151.759844,111.476939 148.822442,112.006342 L148.822442,147.373563 L137.988675,147.373563 L137.988675,106.587225 C144.596156,103.299121 151.480623,101.657303 158.646545,101.655069 Z M260.352156,83.6844199 C261.790701,83.6844199 263.258286,83.8318485 264.757143,84.1244718 L264.757143,92.6261861 L263.892604,92.5404043 C263.230158,92.4804899 262.712289,92.4497186 262.33574,92.4497186 C259.514494,92.4497186 257.488468,93.124316 256.255429,94.4757446 C255.02239,95.8271731 254.40587,98.4540822 254.40587,102.358706 L264.757143,102.358706 L264.757143,111.653407 L254.40587,111.653407 L254.40587,147.373563 L243.56987,147.373563 L243.56987,111.653407 L235.908052,111.653407 L235.908052,102.358706 L243.56987,102.358706 C243.627948,89.9099264 249.223532,83.6844199 260.352156,83.6844199 Z M343.405818,101.655069 L343.405818,111.036887 C338.882442,111.094965 335.006857,111.595329 331.779065,112.533511 L331.779065,147.373563 L320.940831,147.373563 L320.940831,106.412991 C321.570753,106.110476 322.404176,105.76529 323.443913,105.376029 L323.980987,105.177719 C325.274338,104.681822 327.872208,103.991589 331.779065,103.107017 C335.681455,102.197874 339.557039,101.713147 343.405818,101.655069 Z M209.516104,110.639277 C205.959948,110.639277 203.319636,111.624368 201.586234,113.592316 C199.884104,115.560264 199.033039,119.348732 199.033039,124.955485 C199.033039,130.535433 199.884104,134.308264 201.586234,136.273978 C203.319636,138.212887 205.959948,139.182342 209.516104,139.182342 C213.067792,139.182342 215.696935,138.212887 217.401299,136.273978 C219.101195,134.308264 219.95226,130.535433 219.954494,124.955485 C219.954494,119.348732 219.101195,115.560264 217.401299,113.592316 C215.696935,111.624368 213.067792,110.641511 209.516104,110.639277 Z M290.213143,110.639277 C286.659221,110.639277 284.018909,111.624368 282.285506,113.592316 C280.583377,115.560264 279.732312,119.348732 279.732312,124.955485 C279.732312,130.535433 280.583377,134.308264 282.285506,136.273978 C284.018909,138.212887 286.659221,139.182342 290.213143,139.182342 C293.767065,139.182342 296.396208,138.212887 298.098338,136.273978 C299.800468,134.308264 300.651532,130.535433 300.653766,124.955485 C300.653766,119.348732 299.800468,115.560264 298.098338,113.592316 C296.396208,111.624368 293.767065,110.641511 290.213143,110.639277 Z M65.3734026,110.375693 C62.6727792,110.375693 60.5574026,111.25803 59.0295065,113.018238 C57.5328831,114.751641 56.6371429,117.570654 56.3445195,121.475277 L74.4916364,121.475277 C74.1967792,118.363641 73.272,115.736732 71.7172987,113.592316 C70.1871688,111.450134 68.074026,110.375693 65.3734026,110.375693 Z" id="Shape"></path>
        </g>
    </g>
</svg>