<svg width="400" height="360" viewBox="0 0 400 360" xmlns="http://www.w3.org/2000/svg"><g fill="#FFF" fill-rule="evenodd"><path d="M307.19 156.721c-3.642 21.036-21.871 28.336-37.966 28.977-11.883.476-20.4-1.649-22.556-2.611l.884.014c4.695.037 25.183-.363 38.066-10.846 14.095-11.468 14.115-25.628 12.65-33.082l-.267-1.28c-1.45-6.62-3.977-13.193-4.704-14.48l-.118-.182c-.545-.66 17.652 12.453 14.01 33.49zm-191.028-26.414c17.406-2.83 42.994 13.224 58.185 21.35l.751.4c24.739 13.092 49.418 24.623 77.681 27.375l-5.055.347c-2.577.162-5.74.338-8.497.424-23.901.753-44.735-8.665-66.85-16.378l-3.381-1.172c-15.91-5.471-25.838-8.137-42.608-8.733-9.444-.333-17.718 3.592-23.649 10.637l.012-3.34c.054-7.63.35-22.088 1.763-24.693l.11-.177-.176.107.407-.328c2.727-2.962 7.48-5.196 11.307-5.819z"/><path d="M125.606 157.29l.664.014c16.879.6 26.544 3.317 43.344 9.142l1.649.573 2.615.97-2.975 1.072a401.784 401.784 0 01-5.624 1.97l-3.523 1.17c-7.978 2.544-59.703 18.26-59.043-1.744 4.287-8.112 13.808-13.233 22.893-13.167zm131.004-43.85l1.727.02 1.74.046c16.643.552 28.405 4.187 33.263 18.128 1.162 3.328 1.772 9.366 2.086 14.191-9.77-12.126-29.886-9.394-42.8-6.43l-.64.149c-8.953 2.098-23.646 7.547-39.366 13.606l-15.46 5.993-.238.134c-6.911-3.226-13.376-6.58-20.24-10.213l-1.863-1.002c-4.823-2.627-10.848-6.127-17.435-9.532l46.97-14.714c4.849-1.505 8.346-2.58 9.831-3.014l.183-.053c14.229-4.122 27.343-7.358 42.242-7.31z" fill-opacity=".5"/><path d="M142.556 215.094c4.403 0 8.734.838 12.994 2.51v9.03c-3.556-1.439-7.284-2.158-11.189-2.158-4.139 0-7.221.956-9.25 2.861-1.997 1.881-2.993 5.551-2.993 11.013 0 5.403.996 9.076 2.993 11.012 2.029 1.908 5.111 2.862 9.25 2.862 3.729 0 7.459-.748 11.19-2.245v9.029c-4.26 1.673-8.592 2.508-12.995 2.508-6.842 0-12.098-1.992-15.768-5.988-3.672-3.994-5.506-9.72-5.506-17.178 0-7.517 1.834-13.27 5.506-17.265 3.67-3.994 8.926-5.989 15.768-5.99zm-49.183-.087c6.608 0 11.598 2.1 14.976 6.297 3.404 4.2 5.108 9.37 5.108 15.505l-.013 1.918c-.023 1.575-.077 2.8-.161 3.675H84.345c.292 3.907 1.45 6.52 3.48 7.84 2.053 1.32 4.71 1.982 7.972 1.982 5.285 0 10.394-1.16 15.326-3.48v8.722c-4.99 2.703-10.644 4.05-16.959 4.05-1.995 0-3.873-.16-5.636-.482-1.762-.322-3.612-.999-5.548-2.026a18.03 18.03 0 01-4.98-3.92c-1.38-1.586-2.526-3.773-3.435-6.563-.88-2.82-1.32-6.063-1.32-9.735 0-7.222 1.6-12.992 4.803-17.31 3.227-4.315 8.336-6.473 15.325-6.473zm144.098.174c6.871 0 12.14 2 15.813 5.991 3.668 3.996 5.504 9.72 5.506 17.178 0 7.458-1.838 13.184-5.506 17.178-3.672 3.996-8.942 5.988-15.813 5.988-6.842 0-12.098-1.992-15.768-5.988-3.67-3.994-5.506-9.72-5.506-17.178 0-7.459 1.836-13.182 5.506-17.178 3.67-3.991 8.926-5.988 15.768-5.99zm80.7 0c6.87 0 12.14 2 15.813 5.991 3.667 3.996 5.504 9.72 5.506 17.178 0 7.458-1.839 13.184-5.506 17.178-3.673 3.996-8.942 5.988-15.813 5.988-6.842 0-12.098-1.992-15.768-5.988-3.67-3.994-5.507-9.72-5.507-17.178 0-7.459 1.836-13.182 5.507-17.178 3.67-3.991 8.926-5.988 15.768-5.99zM77.33 200.646v10.836H58.04v49.33H47.204v-49.33H28v-10.836h49.33zm109.316 14.448c6.254 0 11.142 1.644 14.664 4.932 3.525 3.26 5.285 7.843 5.285 13.742v27.045h-10.744v-27.97c0-1.201-.12-2.2-.353-2.995-.206-.822-.646-1.673-1.32-2.553-.648-.882-1.72-1.544-3.22-1.981-1.493-.443-3.419-.662-5.769-.662-2.64 0-5.43.264-8.368.793v35.368H165.99v-40.787c6.607-3.288 13.492-4.93 20.658-4.932zm101.705-17.97c1.439 0 2.906.147 4.405.44v8.501l-.864-.085a18.41 18.41 0 00-1.557-.091c-2.822 0-4.848.674-6.08 2.026-1.234 1.351-1.85 3.978-1.85 7.883h10.351v9.295h-10.351v35.72H271.57v-35.72h-7.662v-9.295h7.662c.058-12.449 5.654-18.674 16.782-18.674zm83.054 17.97v9.382c-4.524.058-8.4.558-11.627 1.497v34.84H348.94v-40.96c.63-.303 1.463-.649 2.503-1.038l.537-.198c1.293-.496 3.891-1.186 7.798-2.07 3.902-.91 7.778-1.395 11.627-1.453zm-133.89 8.984c-3.556 0-6.196.985-7.93 2.953-1.702 1.968-2.553 5.757-2.553 11.364 0 5.58.851 9.352 2.553 11.318 1.734 1.939 4.374 2.908 7.93 2.908 3.552 0 6.18-.969 7.885-2.908 1.7-1.966 2.551-5.738 2.553-11.318 0-5.607-.853-9.396-2.553-11.364-1.704-1.968-4.333-2.95-7.885-2.953zm80.697 0c-3.554 0-6.194.985-7.927 2.953-1.703 1.968-2.554 5.757-2.554 11.364 0 5.58.851 9.352 2.554 11.318 1.733 1.939 4.373 2.908 7.927 2.908 3.554 0 6.183-.969 7.885-2.908 1.702-1.966 2.554-5.738 2.556-11.318 0-5.607-.854-9.396-2.556-11.364s-4.33-2.95-7.885-2.953zm-224.84-.263c-2.7 0-4.816.882-6.343 2.642-1.497 1.734-2.393 4.553-2.685 8.457h18.147c-.295-3.111-1.22-5.738-2.775-7.883-1.53-2.142-3.643-3.216-6.344-3.216z"/></g></svg>