<svg width="437" height="738" viewBox="0 0 437 738" xmlns="http://www.w3.org/2000/svg"><g fill="none"><path d="M99.346 659.273c7-3 14-5.7 21-8.78a18 18 0 005.47-4.14 7.08 7.08 0 001.88-6.8 21.19 21.19 0 010-6.26c.41-4.92 1-9.84 1.41-14.76.72-8.06 1.29-16.13 2.1-24.18.78-7.68 1.74-15.35 2.7-23 .49-3.91 1.22-7.79 1.74-11.7.25-1.95 2.74-5.69 4.34-8.38 3.53-5.91 7-11.85 10.86-17.59 4.67-7 9.62-13.83 14.47-20.72 1-1.4 2-2.81 3.06-4.13 5.73-6.87 11.51-13.7 17.22-20.59 1.12-1.36 2-2.92 3-4.49-1.49-1.58-1.15-3.28-.35-5.07.94-2.14 1.76-4.34 2.63-6.52.1-.24.32-.51.27-.72-1.41-5.75.84-11.18 1.67-16.69 1.09-7.26 2.87-14.41 4.11-21.65a31.06 31.06 0 00.19-8.06c-.84-9-2.15-18-2.73-27.08-.3-4.77.58-9.61.9-14.42 0-.46 0-1.16-.22-1.37-3.17-2.48-5.8-5.9-9.86-6.94-8.35-2.13-16.53-5-25.21-5.86a103.17 103.17 0 01-33.47-9.46c-5.93-2.79-12-5.39-17.9-8.17-3.4-1.59-6.72-3.37-10.09-5a91.43 91.43 0 00-20.81-6.89 58.73 58.73 0 00-14.09-1.08c-3.87.07-7.68.14-11.32-2.25-2 18.46-4 36.54-5.92 54.63l-6 55.87c-2.38 22.1-4.77 44.197-7.17 66.29-2.23 21.52-12.23 117.41-15.1 144.31-.15 1.38-.31 2.75-.46 4.12-.41 3.75-1.78 4.79-5.57 4.93-3.06.11-6.08.3-8.87-1.2a5.67 5.67 0 01-3.2-4.81c-.71-8 13.58-124.31 16.22-147.79 2.846-25.333 5.713-50.637 8.6-75.91l11.61-102.66a2.67 2.67 0 110-.39c-2.39-1.41-4.76-2.34-6.48-4-2.22-2.1-4.71-4.6-3.89-8 .8-3.23.611-6.627-.54-9.75-.43-1.25.41-3.06 1-4.49.47-1.21.57-2.05-.52-2.92a6.51 6.51 0 01-1.51-1.83c-1.06-1.84-1.35-3.71.14-5.51.29-.36.52-.77.78-1.15 1.59-2.28 2.84-4.08.21-7-3-3.41.72-10.7 5.64-11.45 2.28-.34 4.7.21 7 .39 1.41.11 2.81.29 4.34.46.82-7.33 1.59-14.28 2.38-21.22 3.033-26.747 6.07-53.497 9.11-80.25 2.86-24.77 5.72-49.55 8.75-74.31 2.68-21.88 5.57-43.73 8.43-65.59 1.27-9.75 2.69-19.48 4.05-29.22.17-1.17 0-2.83.69-3.41a50.38 50.38 0 016.88-4.52 2.12 2.12 0 011.89.18c3 2.42 6.58 1.74 10 2 20.18 1.27 40.37 2.26 60.53 3.78 27.21 2.05 54.38 4.59 81.58 6.72 13.12 1 26.28 1.61 39.43 2.35 4.42.25 7.2 4 5.56 7.58a3.66 3.66 0 01-1.32 1.66c-1.44.76-1.91 2-2.4 3.42-2.4 7.12-2.55 14.51-2.89 21.88-.33 7.17-1 14.32-1 21.49a74.78 74.78 0 001.18 13.76c1.63 9.16 1.49 18.34 1.13 27.57-.26 6.69-.16 13.39-.33 20.09-.07 2.82-.37 5.65-.68 8.46-.22 2-2.91 4-5 4.09-3.81.21-7.61.71-11.42.9-6.17.33-12.35.6-18.53.71-5.77.11-11.56.17-17.33-.08-10.114-.44-20.22-1.023-30.32-1.75-15.85-1.12-31.3-4.75-46.9-7.45-12.36-2.14-24.85-2.93-37.36-3.56-6.37-.32-12.73-.87-19.1-1.07-4.39-.13-8.8.16-13.2.26-1.58 0-2.2.72-2.38 2.4a24533.935 24533.935 0 01-8.32 77.09c-2.4 22.1-4.79 44.197-7.17 66.29-.32 3-.34 3 2.64 3.69 1.48.35 3 .73 4.44 1.09 4.19 1 6.86 3.77 8.61 7.53 1.75 3.76 3.42 7.44 5 11.21a3 3 0 002.58 2c6.76 1.2 13.53 2.4 20.27 3.73 21.006 4.16 42.006 8.357 63 12.59 5.16 1 10.28 2.32 15.48 3.1 2.38.35 4.91-.26 7.38-.44 3.92-.3 7.84-.79 11.77-.84a91.7 91.7 0 0111.23.65c2.86.33 5.66 1.12 8.51 1.71.18-2.05.37-4.12.53-6.18a1.7 1.7 0 00-.1-.78c-2.43-5.77-3.29-11.87-3.72-18-.13-2 .23-4-.19-5.93-1.47-6.79-.31-13.47.49-20.18a2.65 2.65 0 000-1 22 22 0 012.57-18.64c8.81-14 20.13-25.12 35.94-31.06 8.23-3.09 16.75-4 25.44-3.93 13.95.09 26.23 5.1 37.4 13 10 7.08 17.36 16.53 22.85 27.48 5.49 10.95 7.15 22.59 7.48 34.53.11 4.09-.82 8.22-1.28 12.35 4 .24 8.43.45 12.82.8 2.724.06 5.433.42 8.08 1.07 4.43 1.37 6.92 5 8.07 9.2a67.25 67.25 0 012.26 13.36 72.66 72.66 0 01-.47 13.1c-1.1 9.47-2.35 18.93-3.85 28.34-1.16 7.3-2.76 14.53-4.23 21.78-.38 1.88-1 3.71-1.43 5.59a2.75 2.75 0 00.52 1.81c2.47 3.78 5.07 7.47 7.49 11.28a268.76 268.76 0 0120.71 39.66c4.43 10.47 9.06 20.86 13.56 31.3a28.26 28.26 0 006.73 9.18 115.06 115.06 0 0118.72 22.39c2.24 3.64.26 7.38-4 7.7l-3.35.26c1.23 2.23 2.68 4.68 4 7.22 2.81 5.58-.31 10-5.88 10.48l-1.14.09c-.4 3.17-1.66 5-3.76 5.46-3.49.82-6.63-.11-8-3-2.83-5.79-5.33-11.73-8-17.6a8.67 8.67 0 00-1.82-2.78c.58 3.51 1.14 7 1.75 10.53.84 4.76 1.86 9.49 2.52 14.27a7.27 7.27 0 01-4.53 7.11c-2.82.86-5.52-.48-7.52-3.33-2.59-3.73-3.54-7.9-4.16-12.3-.59-4.2-1.6-8.35-2.44-12.51-.41-2-.87-4-1.3-6.07l-.71-.19c-.62 1-1.27 1.94-1.86 2.93-1.81 3.1-3.52 6.26-5.4 9.31-1.71 2.78-4.58 3.13-7.47 3a5 5 0 01-4.07-4.27 33.24 33.24 0 01.32-5.64c.37-2.84 1-5.64 1.33-8.48.4-3.72 2.45-6.56 4.5-9.45.61-.86 1.16-1.76 1.78-2.61 2-2.68 2-5 .08-8.06-6.3-9.91-12.17-20.08-18.24-30.12-.93-1.54-2.08-2.93-3.34-4.69a285.22 285.22 0 01-8.49 50.37c-.92 3.45-1.43 7-2.63 10.37-1.85 5.15-4 10.29-9.42 12.8-4.27 2-8.77 3.4-13.63 2.7a4.72 4.72 0 00-.91.19c.68 2.45 1.32 4.86 2 7.26 2.84 9.86 5.65 19.72 8.57 29.55 1.34 4.48 3.36 8.8 4.29 13.35 1.8 8.84 6.62 16.52 9.06 25.1 1.52 5.36 3.72 10.53 5.29 15.88 1.51 5.11 2.62 10.34 3.88 15.52 1.16 4.81 2.33 9.61 3.41 14.43 1 4.2 1.78 8.43 2.68 12.64 1 4.85 2.13 9.68 3.07 14.55.85 4.43 1.54 8.9 2.27 13.36.32 1.94.6 3.9.85 5.85.68 5.18-1.29 9.65-4 13.85-1.37 2.16-3 4.15-4.53 6.2-3.61 4.86-8.72 7-14.48 8-4.3.78-8.56 1.94-12.89 2.47a102.29 102.29 0 01-12.63.52c-2 0-4-.72-6-.83-6-.32-9.35-4.14-12.08-8.84-3.35-5.76-4-12.14-3.27-18.51.31-2.65 2.22-5.21 3.73-7.6 1.61-2.55 3.87-4.71 5.39-7.31a37.25 37.25 0 005-16.29 3.57 3.57 0 00-.25-1.94c-3.38-5.69-4.57-12.14-6.53-18.34-2.31-7.32-5.07-14.42-9.37-21a150.5 150.5 0 01-9.45-17.63c-2.56-5.32-4.5-10.93-7-16.29-1.6-3.47-3.92-6.6-5.49-10.08-2.8-6.22-5.09-12.68-7.92-18.88-4.29-9.43-8.9-18.71-13.32-28.07-2.63-5.58-7.94-5.92-12.34-2.27-8.86 7.36-17.52 15-26.11 22.66-5.34 4.76-13.34 19.63-19.52 23.24a3.18 3.18 0 00-1.87 2.77c-.32 6-.89 11.89-1.06 17.84-.18 6.11 0 12.24 0 18.36a109.28 109.28 0 01-.52 11.16c-.57 5.07-1.54 10.09-2.24 15.14-.67 4.84-1 9.74-1.88 14.54-1.12 6.2-2.46 12.37-4 18.47a7.4 7.4 0 01-5.17 5.63 33.65 33.65 0 01-13.55 1.25c-5.77-.64-11.52-1.65-17.31-2.1a12.77 12.77 0 00-5.94 1.5 18 18 0 01-10.48 1.56c-8.57-1.27-17.19-2.26-25.75-3.61a88.51 88.51 0 01-9.87-2.59c-4.52-1.26-5.71-5-6.42-9a26.54 26.54 0 010-4.23s.06-13.03 13.02-17.11zm-24.42-531.2h2.76c4.73-.14 9.46-.48 14.18-.41 6.83.11 13.65.67 20.48.77a234.7 234.7 0 0135.62 2.95c12.89 2.19 25.72 4.78 38.67 6.5 10.36 1.37 20.86 1.83 31.31 2.45 5.82.35 11.68.34 17.52.25 6.64-.1 13.27-.43 19.9-.74 4-.19 8-.55 12-.78 2.81-.16 3-.28 3.33-3 .13-1.11.28-2.23.32-3.35.3-8.28.43-16.57.91-24.84a93 93 0 00-1-20.68 74.16 74.16 0 01-1.27-14.54c.27-8.16 1.29-16.29 1.89-24.44.52-7.08 1.41-14.06 4.19-20.67a8.16 8.16 0 00.36-1.56c-63.2-4.85-126.36-7.64-189.34-14-3.91 38.46-7.85 77.06-11.83 116.09zm230.28 331.28c1-4.32 2.11-8.64 3.15-13a35.18 35.18 0 011.39-5.66c2.62-6.08 5.46-12.07 8.17-18.11a14.93 14.93 0 001.17-3.53 90.18 90.18 0 001.43-24.43c-.06-.69.48-1.44.74-2.16.79.54 2.09.94 2.28 1.64 1.17 4.21 2.57 8.44 2.93 12.75.36 4.31-.33 9-.54 13.48a2.24 2.24 0 00.23 1.39c.76.9 1.66 1.68 2.5 2.52 4.86 4.9 9.91 9.63 14.51 14.76 4.4 4.9 8.46 10.13 12.41 15.41 3 4 5.58 8.3 8.35 12.48 7.52-7 15.86-12.37 26.11-14.79-2.12-4.42-4-8.95-6.38-13.17-5.47-9.64-11.23-19.11-16.8-28.7-2.85-4.9-5.43-10-8.35-14.83-3-5.06-5.76-10.3-9.88-14.68-1.43-1.52-2.09-3.86-2.82-5.92a54 54 0 00-11.12-18.7c-3-3.34-6-6.81-9.17-10-2-2-3.37-1.87-5.9-.44a46.69 46.69 0 01-5.5 2.7c-6.12 2.46-12.33 4.68-19 5.15-6.32.44-12.64 1.21-19 1.11-5.35-.08-10.69-1.23-16-1.85a1.83 1.83 0 00-1.46.48c-1.66 2.52-3.3 5.05-4.78 7.67a44.42 44.42 0 00-3.92 7.87 66.85 66.85 0 00-2.4 11.06c-1.29 9.21-2.5 18.43-3.49 27.68-1.16 10.87-2 21.77-3.06 32.65-.73 7.63-1.45 15.27-2.37 22.88-1 8.11-2.18 16.2-3.31 24.49 4.81.76 9.27 1.62 13.78 2.13 4.51.51 9.09.73 13.65 1a99 99 0 0018.27-.89c6.86-.91 13.06-3.46 19.3-6.09a2.07 2.07 0 001-1.17c.51-1.43.9-2.9 1.33-4.31a29.76 29.76 0 00-13-3.17c-.79 0-2-.15-2.29.27-2.34 3.23-5.75 3.66-9.29 3.81-4.93.2-12.3-3.68-13.79-9a18.71 18.71 0 01-.62-6c.33-6.37 1.81-11.19 9.2-14 5.51-2.11 11-.8 14.68 3.57a1.7 1.7 0 00.93.6c5.92.67 11.28 3.05 16.73 5.05zm-153.4 81.61c.89.19 1.45.35 2 .44a35.23 35.23 0 0115.38 5.81c3.68 2.62 4.49 6.12 3.19 10a53.26 53.26 0 01-4.07 8.18c-1.37 2.51-3.5 6.78-3.29 9.92a29.06 29.06 0 01-1.32 11.26c-1.59 4.81-5.23 7.89-10.43 7.5-5.82-.43-11.64-1.43-16.83-4.15-.1 1.14-.27 2.3-.29 3.46-.08 4.64 0 9.27-.2 13.91-.11 3.08-.23 3.12 2.59 4.26.77.35 1.57.627 2.39.83 5.81 1.18 11.61 2.42 17.45 3.45a106.48 106.48 0 0022.76 2c2.35-.09 2.17-1.39 2.32-2.75.54-5 1-10.11 1.54-15.15.29-2.63.82-5.24 1.15-7.87a12.68 12.68 0 00-.11-2.88 5.51 5.51 0 012.06-5.41 34.69 34.69 0 014.46-2.94c10.48-5.53 19.78-23.85 28.88-31.45 3.62-3 7.64-5.55 11.47-8.3l-.15-.6-23.46 3c.44-.39.67-.75 1-.87a88 88 0 0119.41-5.15c3.63-.5 7.2-1.42 10.83-1.89a65.67 65.67 0 018.87-.49c3.12 0 6.24.41 9.37.55 4.7.21 9.41.26 14.11.58 1.14.07 2.24.91 3.36 1.39 0 .33-.09.66-.13 1l-21.74 3c1.12 2.14 2.45 4.5 3.63 6.94 5.08 10.47 10.2 20.92 15.12 31.47 2 4.29 3.35 8.88 5.36 13.17 1.2 2.56 1.9 4.93 1 7.68a2.75 2.75 0 00.34 1.85c1.48 2.83 3 5.66 4.59 8.4 3.47 5.8 7.09 11.53 10.56 17.34a2.13 2.13 0 002.32 1.17 110.42 110.42 0 0022.07-2.89 60.11 60.11 0 0016.13-6.29 11.16 11.16 0 003.7-3.66c.42-.71-.33-2.17-.63-3.28a2333.8 2333.8 0 00-4.44-16.17c-.08-.29-.18-.74-.38-.8-4.31-1.44-5.56-5.27-6.71-9-1.53-4.91-2.65-9.95-4-14.92-1.22-4.51-2.63-9-3.78-13.51-2.44-9.67-4.87-19.35-7.08-29.08-1.52-6.7-2.62-13.49-4-20.22-.58-2.84-1.35-5.65-2-8.51a65.41 65.41 0 01-5.53 3.72 71.78 71.78 0 01-27.23 7.89c-2.89.27-5.81.28-8.71.28-4.52 0-9.08.19-13.57-.25a142.48 142.48 0 01-17-2.62c-8.21-1.83-16.44-3.78-23.85-8-3.49-2-7-3.92-10.52-5.89-.16-.09-.25-.29-.38-.44l-7.94-9.53c-1.72 2.42-3.51 5.13-5.48 7.69-4 5.19-8.08 10.3-12.11 15.46-1.38 1.77-2.76 3.54-4 5.4-2.72 4-5.29 8.15-8.07 12.13-3.16 4.59-6.52 9.09-9.98 13.83zm103-189.18a14.92 14.92 0 01-1.81-.3c-4.06-1.09-8.38-1.66-12.12-3.44a48.06 48.06 0 01-17.74-13.71 4.62 4.62 0 00-2.2-1.48c-3.8-1.14-7.43-2.39-11.68-2.22-5.09.21-10.24-1.37-15.39-1.91a41.68 41.68 0 00-7.4.22c-1.53.12-3.13 1-4.54.69-13.78-2.64-27.55-5.34-41.28-8.22-10-2.09-19.94-4.48-30.26-6.82-.22 1.07-.55 2.2-.68 3.35-.17 1.5-.15 3-.29 4.52-.68 7-1.1 14.06-3.79 21 2.47 1.22 4.91 2.24 7.17 3.57a122.7 122.7 0 0028.47 12c10.78 3.08 21.78 5.41 32.71 8a47.85 47.85 0 007.13 1.12c3.24.26 6.54.2 9.19 2.49 2.44 2.11 4.8 4.32 7 6.29 2.59-2.73 4.1-6.3 7.6-8.2a5 5 0 010 2.8c-.87 2.53-1.86 5-2.8 7.51-.11.31-.42.74-.31.89 1.5 2.23-.66 3.36-1.42 4.91-.33.67-1 1.34-1 2 .4 6.31.81 12.61 1.43 18.9.66 6.68 1.54 13.34 2.31 20a6.32 6.32 0 01-.12 1.56c-.62 4.58-1.37 9.14-1.86 13.73-.41 3.88-.36 7.81-.8 11.69-.55 4.71-1.42 9.38-2.08 14.09a2.49 2.49 0 00.53 1.79 50.44 50.44 0 0017.22 12.12c5 2.12 10.11 3.95 15.37 6a19.44 19.44 0 010-2.5c1.33-8.34 2.69-16.67 4-25 1.77-11.07 3.41-22.13 3.86-33.37.31-7.58 1.6-15.13 2.64-22.66 1.36-9.86 2.89-19.69 4.38-29.52.44-2.95.43-6.12 1.57-8.78 1.94-4.54 4.62-8.7 7.04-13.11h-.05zm43.7 282.49c6.09 8.43 8.4 12.94 11.52 22.71 1.66 5.19 3.36 10.38 4.65 15.67a8.18 8.18 0 01-.76 5.64 7.55 7.55 0 00-1.1 3.88 35.32 35.32 0 01-7.78 21.15 27.3 27.3 0 00-4 8c-.5 1.51.25 3.44.44 5.18a3.74 3.74 0 003.51 3.52c2.19.29 4.37.76 6.56.93 4.36.32 8.72.49 13.08.72 1.364.156 2.736.233 4.11.23 3.74-.22 7.56-.16 11.18-.95 5.27-1.15 8.87-5.16 12.56-8.76a16.89 16.89 0 004.66-10.82c.34-4.1.14-8.48-2.56-12.2-.66-.91-.61-2.36-.81-3.58-.52-3.1-.91-6.23-1.52-9.32-.76-3.91-1.76-7.78-2.52-11.69-.85-4.44-1.53-8.92-2.3-13.38-.94-5.49-1.79-11-2.85-16.47-.72-3.66-1.75-7.26-2.66-11-13.61 7.71-28.16 9.85-43.36 10.54h-.05zm-115.83-11.26a122 122 0 01-47-8.18 5.22 5.22 0 00-.22 1.07c-.15 2.61-.31 5.22-.39 7.83-.1 2.94.09 5.9-.24 8.81-.42 3.67-.38 7.54-2.88 10.68a2.11 2.11 0 00-.57 1.17c.09 4.56-2.79 7.47-6 9.82-7 5.18-15.28 8-23.52 10.61-7 2.19-10 5.67-9.62 12.2l4.26.65a54.69 54.69 0 016.93 1.12 137.68 137.68 0 0021.13 4.77c.398.003.793.07 1.17.2 2.47 1.31 5 .71 7.44.14a94.54 94.54 0 019.32-2 88.51 88.51 0 0110.31-.41c3.33 0 6.67.24 10 .27 3.33.03 6.88-.08 10.33-.12 1.8 0 2.43-1 2.64-2.7 1.26-10.367 2.593-20.73 4-31.09.76-5.71 1.77-11.4 2.51-17.11.36-2.62.33-5.25.45-7.73h-.05zm74.32-361.86c-2.59 2.65-4.93 5.26-7.5 7.63a10.66 10.66 0 00-3.53 7.46c-.27 4-2.2 7.36-4.27 10.72a19.83 19.83 0 00-2.7 6.76 63.69 63.69 0 00-.25 21.43 20 20 0 0010.83 15.2c2.39 1.3 5.35 1.52 7.85 2.67 3.74 1.71 7.24.86 10.9-.13 6.71-1.82 12-5.95 17.28-10.14 3.72-2.94 6.61-6.25 7.41-11.06.36-2.21 1.86-3.05 3.88-3.28a15.24 15.24 0 011.78-.14 2.91 2.91 0 002.82-1.78 21.74 21.74 0 002.75-13.35c-.37-3.13-1.49-4-4.68-3.61a6.27 6.27 0 01-3.26-.93c-.17-.09.31-1.57.58-2.38a18.44 18.44 0 00.51-11.05c-1.35-4.88-5.31-7.43-8.91-10.29a1.81 1.81 0 00-1.63.07c-5.06 3.16-10.75 3.49-16.4 3.3-5.41-.22-10.46-1.78-13.46-7.1zm69 30.47c-.17-1.19-.39-2.29-.46-3.4-.17-2.77-.1-5.57-.42-8.32-.75-6.28-1.7-12.53-4.11-18.44-3.82-9.4-8.46-18.24-17.13-24.22-2.56-1.76-4.91-3.9-7.66-5.28a86.11 86.11 0 00-12.63-5.27c-7.16-2.29-14.38-3.78-22-1.4-15.58 4.87-28.73 13-37.73 26.92-2.27 3.52-5.06 6.95-5.13 11.41-.06 3.82.29 7.64.45 11.46.046.592.063 1.186.05 1.78-.18 4-.64 7.94-.5 11.89.11 3.19 1 6.33 1.41 9.52.52 4.65.9 9.32 1.23 14a3.25 3.25 0 001.87 2.78 164.776 164.776 0 016.18 3.86c1 .66 1.84 1.51 2.82 2.18.98.67 2 1.21 3.39 2-2.41-7.15-2.14-14-1.93-20.86a4.41 4.41 0 00-.67-2.46c-3.77-5.6-7.7-11-9.78-17.65a64.51 64.51 0 01-2.61-14 1.35 1.35 0 010-.4c.72-3.34 1.11-6.81 2.3-10 .8-2.13 2.8-3.79 4.15-5.73 3.86-5.54 9.77-7.19 15.87-8.22a52.06 52.06 0 0120.6 1.14c7.07 1.66 14.09 3.52 21.12 5.34a33.34 33.34 0 0114.62 7.69c3.67 3.44 6.65 7.65 9.7 11.71 5.12 6.83 7.79 14.74 9.69 23 .35 1.5.76 3 1.24 4.82a20.11 20.11 0 016.11-5.86l-.04.01zm-.39 177.75c1-1 1.79-1.95 2.66-2.81 3.85-3.85 10.33-2.49 13.31.81 2.25 2.49 1.85 8 .24 10.87-1.4 2.5-3.48 4.63-5.26 6.92l5.84-2.14.46.3a8.27 8.27 0 01-1.11 2.42 6.63 6.63 0 01-6.17 2.23 32.56 32.56 0 00-8.88-.32c-2.72.24-5.63.43-8.21-1.1-1.91-1.13-3.81-2.29-5.75-3.37-1.38-.77-2.83-1.44-4.38-2.21-.2 1-.36 1.71-.46 2.41a3 3 0 00.07 1c.83 4.72 1.74 9.44.73 14.26a2.23 2.23 0 00.08 1c1.72 5.84 3.45 11.68 5.19 17.52 1.11 3.74 2.45 7.43 3.28 11.22.41 1.88 1.12 2.7 2.93 2.9 7.91.89 16.32-2 17.64-11.84.39-2.89 1-5.77 1.63-8.61 4.13-17.48 9.19-34.76 11.59-52.62a3.26 3.26 0 00-.37-2.12c-2-2.81-4-5.67-6.2-8.28-5.68-6.62-11.5-13.11-17.26-19.65-.83-.94-1.61-1.91-2.57-3-2.26 5.39-4.36 10.48-6.54 15.54-1 2.39-2.61 4.63-3.21 7.12-1.16 4.72-1.84 9.56-2.58 14.37a2.67 2.67 0 001.1 1.94c2.05 1.52 4.19 2.92 6.32 4.31 1.27.82 2.6 1.55 3.92 2.34l-.33-4.27c-.26-3.57 1-5.31 4.34-6.74 5-2.11 9.9-1.13 14.7.44a4.53 4.53 0 012.62 6.75 11.29 11.29 0 00-1.49-2.1c-1.19-1.06-2.38-2.5-3.79-2.82a23.37 23.37 0 00-7.77-.47c-5.18.56-6.87 2.83-6.4 7.8h.08zm-319.2 191.08h3.27c2.09 0 2.78-.91 3-3.06.95-10.51 2.08-21 3.23-31.48 3.826-34.88 7.67-69.75 11.53-104.61 3.09-28.06-3.32 30.06-.26 2a57462.13 57462.13 0 0010.2-94.41 32733.01 32733.01 0 0110-91c.28-2.48-1.07-3.79-2.23-5.38-.12-.17-1.35.16-1.76.56-.41.4-.26 1.12-.33 1.71-3.574 31.78-7.137 63.563-10.69 95.35-3.127 27.92-6.267 55.84-9.42 83.76-2.9 25.69 3.7-34.79.78-9.1-2.44 21.427-4.877 42.857-7.31 64.29-2.394 21.333-4.75 42.64-7.07 63.92-1.02 9.09-1.96 18.2-2.94 27.45zm217.52-342.09l-.63.36c.22 1.41.45 2.82.66 4.23a46.65 46.65 0 01.87 6.81 2 2 0 001.2 2.11c3.12 1.73 6.25 3.43 9.3 5.27 4 2.41 7.64 5.53 12.22 6.83a69.33 69.33 0 0010.6 2.38 501.52 501.52 0 0024.52 2.32c3.46.24 7-.51 10.47-.32a26.77 26.77 0 0010.44-1.69c4.73-1.66 9.59-2.8 14-5.75a33.44 33.44 0 007.55-6.42c4.9-6 9.72-12.1 14.56-18.16a2.65 2.65 0 00.33-.92 80.33 80.33 0 003.08-22.63 78.19 78.19 0 00-3.28-21.87c-5.42-18-16.35-31.507-32.79-40.52a50.16 50.16 0 00-13.8-5.18c3.21 2.05 6.77 4.16 10.15 6.52 3 2.07 6.22 4 8.5 6.73a107.67 107.67 0 0110.24 14.53 54.63 54.63 0 017.39 23.41c.42 4.94.77 9.88 1.15 14.77 3.22 1.43 4.46 4.17 4.84 7.28.82 6.66-.29 12.93-4.47 18.37-2.68 3.48-5.81 6.26-10.72 5.5a1.24 1.24 0 00-.76.14 22.31 22.31 0 00-3.6 2.31c-4.67 4.24-10.21 7-15.86 9.62-4.82 2.23-9.68 4.11-15.11 4.21-4.82.09-9.64.77-14.45.65a40.36 40.36 0 01-10-1.75c-4.11-1.19-8-3-12.11-4.33-7.63-2.46-14.66-5.92-20.63-11.36-1.32-1.16-2.59-2.3-3.86-3.45zm147.93 161.36c3.41 5.57 6.61 10.81 9.83 16 1.62 2.63 1.54 4.54-.36 7.15a2.24 2.24 0 00-.49 1.06c-.24 3.18-1.77 5.81-3.37 8.46-1.17 1.92-2.61 3.95-2.9 6.07-.52 4-1.06 7.87-2.66 11.56-.61 1.38.38 1.83 1.4 1.93 2.54.25 3.78-1.53 4.82-3.42 1.39-2.52 2.66-5.1 4-7.66 1.5-2.88 4.18-4.53 7-4 2.82.53 3.67 2.89 4.15 5.19 1.11 5.38 2 10.81 2.87 16.24.61 3.9 1.5 7.66 3.72 11a2.68 2.68 0 004.6.17 3.89 3.89 0 00.71-2.53c-.43-2.49-1.21-4.92-1.7-7.4-.62-3.08-1.154-6.18-1.6-9.3a76 76 0 01-.9-8.63 3.1 3.1 0 011.68-2.46 3.62 3.62 0 013 1.11 22.75 22.75 0 013.43 5.2c2 4.3 3.58 8.76 5.59 13 1.06 2.26 2.25 4.71 5.34 4.89 2.08.13 3.27-.74 2.67-2.65a16 16 0 00-1.71-3.69c-4.31-6.89-7-14.48-9.92-22a2.08 2.08 0 011-1.79c.69-.11 2 .24 2.19.76 2.9 6.38 5.64 12.83 8.47 19.24.68 1.52 1.35 3.28 3.25 3.5a5.94 5.94 0 003.36-.76 2.29 2.29 0 00.7-2.13 15 15 0 00-2.45-4.45c-5-5.54-6.78-12.75-10.31-19-.22-.4.1-1.1.17-1.66.58.19 1.35.21 1.69.6 1.88 2.19 3.65 4.46 5.47 6.7.204.318.482.582.81.77 1.82.73 3.64 1.45 5.5 2.06a7.22 7.22 0 002 .11l.26-.62c-2.65-3.54-5.19-7.17-8-10.58-2.81-3.41-5.38-7-8.79-9.56-3.41-2.56-5.13-6.73-9-8.88-1.38-.76-2.16-2.88-2.89-4.52-2.77-6.21-5.39-12.47-8.12-18.83-10.67.43-17.52 7.28-24.51 13.75zm-8.81-87.62c.36-2.14.58-3.85.93-5.52 2.21-10.57 4.55-21.12 6.64-31.71 1.76-8.92 3-17.92 2.11-27.06a72.23 72.23 0 00-1.18-9.21c-.58-2.5-2-4.89-4.57-5.77a51 51 0 00-20.09-2.28c-1.63.11-2.28.88-2.86 2.3-2 5-4.24 10-6.39 14.93-.41.95-1.21 1.83-1.28 2.79-.34 4.29-.46 8.61-.7 12.91-.14 2.51.57 4.12 2.67 6.07a44.44 44.44 0 0111.87 17.3c1.22 3.41 1.58 7.23 3.26 10.36 2.72 5.06 6.21 9.72 9.59 14.88v.01zm-296.33-103.75c-2.8-.19-6-.45-9.26-.64-1.38-.08-2.63.09-2.94 1.89-1 6.2-2.22 12.37-3.24 18.57-.37 2.23.41 3.21 2.63 3.21 1.13 0 2.77-.39 3.31-1.18a38.35 38.35 0 003.15-6.51c.41-1 .34-2.14.82-3 .32-.6 1.23-.88 1.88-1.31.4.65 1.13 1.29 1.15 1.95.06 1.77-.25 3.55-.3 5.33-.1 4.06 1.1 7.69 4.39 10.16 1.56 1.18 3.68 1.6 5.54 2.37-.81 1.44-2.46 1.37-4 1.34-5.12-.07-7.3-3.7-8.88-7.39a29.71 29.71 0 01-5.06 3c-1.41.51-2.37 1-2.52 2.59 2.6 1.58 1.2 3.73.7 5.66-.5 1.93-1.35 3.94-2.06 6 2 2.57 4.54 4.57 8.23 4.48 1.79-.05 3.58-.07 5.36 0a8.22 8.22 0 005.62-2c1.34-1 2.83-1.88 4.26-2.81l.47.36c-.47 1.37-.94 2.73-1.33 3.88 4.54.76 9.15 1.48 13.75 2.33 1.17.22 1.74 0 2-1.17.58-2.65 1.28-5.27 1.76-7.93.82-4.48 1.51-9 2.26-13.48.17-1.07.19-1.88-1.24-2.15-4.21-.82-8.37-2.05-12.61-2.55-2.85-.34-3.56-2.06-4.43-4.17a64.61 64.61 0 00-3.53-7.42c-1.78-3.19-3.79-6.11-5.88-9.41zm-15.39-3.25c.68-1.19 1.91-2.39 2.06-3.71 1.48-12.44 2.76-24.9 4.11-37.36 3.086-28.58 6.18-57.163 9.28-85.75 2.49-23 4.9-46 7.5-69 2.67-23.6 5.53-47.19 8.32-70.77.54-4.56 1.16-9.1 1.77-13.88-2.26.17-3.71 1.57-5.13 2.84a4.35 4.35 0 00-1.4 2.6c-1.53 15.81-2.85 31.63-4.44 47.43a15689.645 15689.645 0 01-8.73 84.66 3742.787 3742.787 0 01-4.2 38.56c-3.8 33.833-7.627 67.66-11.48 101.48-.19 1.62.06 2.71 2.34 2.9zm214.16-35.22c-.4-.31-.49-.44-.61-.47-8.12-2.11-16.33-3.27-24.59-1.1-4.2 1.11-8.51 2.14-11.26 6.26-4.39 6.54-6.45 13.4-4.31 21.21a45.71 45.71 0 009.88 18.94c.3-1 .51-1.88.83-2.72 1-2.65 1.82-5.51 4-7.45 2.18-1.94 3-4.71 3.75-7.5 1.07-4.19 1.78-8.57 3.59-12.43 3-6.32 8.16-10.61 14.67-13.22 1.28-.53 2.56-.97 4.05-1.52zM86.566 10.593c8.61.4 16.74.69 24.87 1.16a10797.8 10797.8 0 0158.73 3.58c20.49 1.34 41 2.84 61.46 4.25 12.8.88 25.606 1.74 38.42 2.58 2.83.19 5.65.46 8.48.54a3 3 0 001.91-1c.21-.22 0-1.22-.34-1.5s-1.09-.23-1.66-.23c-.72 0-1.44.18-2.16.15-11.29-.56-22.6-.9-33.87-1.77-17-1.3-34-3.11-51-4.47-26.63-2.13-53.28-4.07-79.92-6.09-7.29-.55-14.58-1.09-21.87-1.56a2.25 2.25 0 00-1.79.71 23 23 0 00-1.26 3.65zm201.11 455c0 .59 0 1.19.14 1.78.34 2.09 1.62 3.44 3.43 3.58 1.17.08 2.35.12 3.53.14a31 31 0 0116.17 4.4c3 1.88 6.46 3.33 9.11 5.65 4.28 3.76 14 3.58 18-2.79 1.5-2.35 1.81-6.43.23-8-3.56-3.43-6.29-3.77-10-.08-.66.65-1.17 1.44-1.83 2.09-.35.33-.91.75-1.3.69-2.48-.43-5.16-.52-7.36-1.58a99.66 99.66 0 01-11.06-6.57 45.9 45.9 0 00-11.76-5.06c-3.67-1.12-8.4 1.07-7.3 5.72v.03zm-85 26.75a58.14 58.14 0 0026.07 12.23c.5-3.93 1-7.76 1.48-11.56-8.54-2.54-16.6-5.81-24.1-10.91l-3.45 10.24zm55.86 15.67a50 50 0 005 .18c8.92-.56 17.86-1.05 26.42-4 .85-.29 1.51-.57 1.38-1.74-.28-2.56-.43-5.13-.63-7.78a92.22 92.22 0 01-31.66 3.3c-.17 3.28-.34 6.58-.52 10.01l.01.03zm-121.08 64c-.31 5-.6 9.56-.91 14.47 2.56.26 5.2.48 7.82.81 2.62.33 5.5.83 8.26 1.19 3 .39 6.13-.93 6.74-3.24a81.31 81.31 0 001.34-8.38l-23.25-4.85zm26.47-7.46c-3-1.12-6.08-2.36-9.21-3.37a92.39 92.39 0 00-8.64-2.3c-2.64-.57-4.6 0-5.87 3-1.35 3.19-2.41 7.16-1 7.34 4.52.61 9 1.35 13.53 2l8.18 1.25a41 41 0 003-7.95l.01.03zm138.31 161.68c1.87 3.24 4.49 5.58 6.63 5.78 7.27.66 14.51 1.85 21.84.4 4-.79 8.24-.92 12.24-1.89a26.28 26.28 0 007.53-3.44c4.17-2.58 6.55-6.8 8.76-11a14.1 14.1 0 001.66-9.49c-.81 1.78-1.27 3.53-2.27 4.88-2.46 3.33-5 6.6-7.79 9.67-4.29 4.78-10.21 6.11-16.2 6.84-4 .49-8 .44-12 .57a24.56 24.56 0 01-3.93-.15c-5.45-.68-10.84-1.44-16.48-2.2l.01.03zm-128-40.36c-3.74-.14-7.38-.29-11-.41-4.37-.15-8.73-.35-13.1-.39-4.37-.04-8.66-.3-12.93 1.17-2.67.92-5.7 1.86-8.37 1.45-8.57-1.32-17.06-3.22-25.56-5-3.77-.79-7.48-1.84-11.42-2.83-.021.481.006.964.08 1.44.93 2.73 3.56 3.23 5.73 3.71 6 1.33 12.08 2.19 18.12 3.26 4.54.81 9.19 1.28 13.58 2.59 3.51 1 6.3.07 9.4-1.09a28.75 28.75 0 016.81-1.35 27.18 27.18 0 014.31.18c4.7.2 9.41.29 14.1.6a25.39 25.39 0 0010.29-1.35c-.06-.84-.07-1.53-.08-2.01l.04.03zm139.36-397.15c-.72 3.77-1 7.27-2.09 10.54-2.34 7.36-5.07 14.59-7.59 21.89-.91 2.63-1.66 5.3-2.54 8.14a8.47 8.47 0 00.93-.21c5.51-2 9.52-6 13.33-10.31a1.7 1.7 0 00.34-1.4c-1.53-4.72-.72-9.25 1-13.72a4.24 4.24 0 00.5-1.69c-.41-4.54-2.23-8.68-3.88-13.24zm-80.6 205.48c-.15 3.29-.35 6.9-.45 10.51 0 .33.57.92.94 1 6.29.88 12.6 1.72 18.91 2.47.29 0 .9-.69 1-1.13.49-2.73.93-5.48 1.24-8.25a1.81 1.81 0 00-1.12-1.32c-6.76-1.15-13.52-2.18-20.52-3.28zm40.37-158.83c-.17-.06.14.18.43.15 5.4-.48 10.8-.94 16.19-1.55a34.57 34.57 0 004.56-1.22 3.23 3.23 0 002.52-2.2c1.16-3.52 2.44-7 3.68-10.48.91-2.58 1.82-5.15 2.7-7.61-1.66.13-3.22.58-4.63.28-2.46-.51-3 .76-3.56 2.69a17.87 17.87 0 01-7.85 11c-4.79 3.01-9.52 6.05-14.07 8.94h.03zm-130.37 220.77c8.39-.61 15.26 3.24 22.66 5.25 3.73-6.38 3.34-8.26-2.5-11.14a6.69 6.69 0 00-1.09-.38l-13.56-4-5.51 10.27zm133.71-292.12a12.42 12.42 0 009.3-2.25 2.18 2.18 0 011.75-.41c2.16 1.08 4.15 2.56 6.37 3.48 5.55 2.3 8.89 10.17 7.75 15.92-.28 1.44-.33 2.93-.48 4.4 4.4.27 6.63 2.51 7 6.79.12 1.38.21 2.77.32 4.16l.55-.08c2.07-8.56 1-16.56-4.64-23.62a43.16 43.16 0 00-10.28-9.81c-3.12-2-6.24-4-9.41-5.85a2.38 2.38 0 00-2-.2 16 16 0 00-6.23 7.47zm-174.52 77.7a12.3 12.3 0 00.72-2c.95-6.25 1.91-12.51 2.78-18.78.27-2 1.11-4.69.18-5.93-.93-1.24-3.78-1.34-5.79-1.9a.82.82 0 00-.4.07c-1.3 8.54-2.58 17-3.86 25.45l6.37 3.09zm267.22 134.2c3.65-3.13 7.13-6.65 11.14-9.41 4.01-2.76 8.49-5 13.75-5.18a28.31 28.31 0 01-1.48-3.27c-.52-1.67-1.64-2-3-1.43-3.33 1.24-6.7 2.41-9.9 3.93-5.32 2.52-9.44 6.62-13.49 10.54l2.98 4.82zm-327.07-193.84c-2.55-1.8-5.33-1.62-8.06-1.37a7.21 7.21 0 00-3.29 1.2c-2.42 1.7-2.54 4.75-.28 5.91 5.22 2.7 10.41 5.5 16.54 5.57 1 0 1.88.16 2-1.14.12-1.3 1.71-2.86-.51-3.92-1.66-.8-3.27-1.7-4.93-2.48-2.6-1.21-2.61-1.13-1.47-3.77zm5.51 15.6a47 47 0 01-16.32-3.82 1.88 1.88 0 00-1.61.15c-2.32 2-1.81 6.34 1 7.52 4.07 1.72 8.23 3.25 12.37 4.8.945.29 1.911.507 2.89.65.54-3.18 1.08-6.09 1.67-9.26v-.04zm-18.81 9.3c-1 3.6.06 5.94 3.3 7.33a44.49 44.49 0 006.21 2.58 54.46 54.46 0 009.14 1.5c.82.06 1.78-1.13 2.58-1.86a1.21 1.21 0 00-.11-1.17c-2.17-2-3.88-4.93-7.6-4.25a2.57 2.57 0 01-1.16-.22c-4.08-1.28-8.16-2.58-12.4-3.91h.04zm234.52-44.64a32.66 32.66 0 0010.11 1.78c.34 0 .77-.41 1-.75 2-2.82 3.89-5.66 5.82-8.49-7.49-4.71-13.25-2.9-16.93 7.46zm21.6 208.24c-1-4.31-1-8.34 1.66-12.25-2.38-.13-4.46-.28-6.55-.34-3.46-.11-6.77 3.73-5.74 6.93a7.14 7.14 0 005.88 4.84c1.52.28 3.05.53 4.75.82zm-234.48-148.65c-1.65.29-3.35 1-4.94.81-4-.47-7.89-1.36-11.83-2-.57-.1-1.5-.22-1.73.08-1.93 2.45-2.41 3.69.58 5.59a6.82 6.82 0 003.68 1.28 100.29 100.29 0 0011.47-1.25c2.81-.52 3.25-1.55 2.77-4.51zm231 153c-8-1.32-11.53-7.16-11.27-11.5a9.8 9.8 0 014.33-7.56 13.28 13.28 0 018.51-2.31c-2.9-.38-5.87-.82-8.65-.29-3.51.66-6.51 2.6-7.1 6.6a28 28 0 00-.12 5.86c.42 6.37 7.62 11.15 14.29 9.2h.01zm-85.22-1.43c-1 3-2 6-3 9.12a1.15 1.15 0 00.06.92c1.91 2.25 3.86 4.47 5.91 6.82 1.46-3.36 2.71-6.16 3.88-9a1.45 1.45 0 00-.14-1.29c-2.23-2.22-4.47-4.35-6.72-6.57h.01zm108.06 14.56c-3.19 1.66-6.36 3.28-9.48 5-.5.27-1.12 1-1 1.5.35 2.48.9 4.93 1.38 7.42 8.15-3.26 9.77-4.43 9.09-13.92h.01zm27.77-188.5c-4.43 3-8.48 13.49-6.73 17.41 4.99-1.04 8.72-10.82 6.72-17.41h.01zm-10.61 16.59c.17-7.48 2.37-13.85 7.17-19.22l-2.25-1.77a2.52 2.52 0 00-.46.29 25.71 25.71 0 00-6.9 15.59 4.7 4.7 0 002.43 5.11h.01zm-55.79-63.43l-8.21 3.35c2.24 1.29 1.57 4.55 4.37 4.91 1.2-2.55 2.38-5.1 3.84-8.26zm67.24 81l-6.71 7.6 4.1 2.15 2.61-9.75z" fill="#000"/><path d="M74.926 128.073c4-39 7.92-77.63 11.85-116.13 63 6.36 126.14 9.15 189.34 14a8.16 8.16 0 01-.36 1.56c-2.78 6.61-3.67 13.59-4.19 20.67-.6 8.15-1.62 16.28-1.89 24.44a74.16 74.16 0 001.27 14.54 93 93 0 011 20.68c-.48 8.27-.61 16.56-.91 24.84 0 1.12-.19 2.24-.32 3.35-.33 2.73-.52 2.85-3.33 3-4 .23-8 .59-12 .78-6.63.31-13.26.64-19.9.74-5.84.09-11.7.1-17.52-.25-10.45-.62-21-1.08-31.31-2.45-13-1.72-25.78-4.31-38.67-6.5a234.7 234.7 0 00-35.62-2.95c-6.83-.1-13.65-.66-20.48-.77-4.72-.07-9.45.27-14.18.41-.91.04-1.8.03-2.78.04zm230.28 331.28c-5.45-2-10.81-4.38-16.71-5a1.7 1.7 0 01-.93-.6c-3.63-4.37-9.17-5.68-14.68-3.57-7.39 2.82-8.87 7.64-9.2 14-.12 2.02.09 4.047.62 6 1.49 5.29 8.86 9.17 13.79 9 3.54-.15 7-.58 9.29-3.81.31-.42 1.5-.25 2.29-.27a29.76 29.76 0 0113 3.17c-.43 1.41-.82 2.88-1.33 4.31a2.07 2.07 0 01-1 1.17c-6.24 2.63-12.44 5.18-19.3 6.09a99 99 0 01-18.27.89c-4.56-.24-9.12-.46-13.65-1-4.53-.54-9-1.37-13.78-2.13 1.13-8.29 2.33-16.38 3.31-24.49.92-7.61 1.64-15.25 2.37-22.88 1-10.88 1.9-21.78 3.06-32.65 1-9.25 2.2-18.47 3.49-27.68a66.85 66.85 0 012.4-11.06 44.42 44.42 0 013.92-7.87c1.48-2.62 3.12-5.15 4.78-7.67a1.83 1.83 0 011.46-.48c5.35.62 10.69 1.77 16 1.85 6.31.1 12.63-.67 19-1.11 6.66-.47 12.87-2.69 19-5.15a46.69 46.69 0 005.5-2.7c2.53-1.43 3.86-1.6 5.9.44 3.2 3.18 6.12 6.65 9.17 10a54 54 0 0111.12 18.7c.73 2.06 1.39 4.4 2.82 5.92 4.12 4.38 6.86 9.62 9.88 14.68 2.92 4.86 5.5 9.93 8.35 14.83 5.57 9.59 11.33 19.06 16.8 28.7 2.4 4.22 4.26 8.75 6.38 13.17-10.25 2.42-18.59 7.77-26.11 14.79-2.77-4.18-5.36-8.48-8.35-12.48-3.95-5.28-8-10.51-12.41-15.41-4.6-5.13-9.65-9.86-14.51-14.76-.84-.84-1.74-1.62-2.5-2.52a2.24 2.24 0 01-.23-1.39c.21-4.49.92-9 .54-13.48s-1.76-8.54-2.93-12.75c-.19-.7-1.49-1.1-2.28-1.64-.26.72-.8 1.47-.74 2.16a90.18 90.18 0 01-1.43 24.43 14.93 14.93 0 01-1.17 3.53c-2.71 6-5.55 12-8.17 18.11a35.18 35.18 0 00-1.39 5.66c-1.06 4.32-2.12 8.63-3.17 12.95zm-6.36-86.56c.33-4.8-5.77-8.08-10.68-7.67-5.56.47-7.76 4.1-7.48 10 .19 3.94 5.27 8 9.45 7.74a9.19 9.19 0 008.71-10.07zm-147.04 168.17c3.46-4.74 6.82-9.21 10-13.8 2.78-4 5.35-8.11 8.07-12.13 1.26-1.86 2.64-3.63 4-5.4 4-5.16 8.12-10.27 12.11-15.46 2-2.56 3.76-5.27 5.48-7.69l7.94 9.53c.13.15.22.35.38.44 3.5 2 7 3.88 10.52 5.89 7.41 4.27 15.64 6.22 23.85 8a142.48 142.48 0 0017 2.62c4.49.44 9 .25 13.57.25 2.9 0 5.82 0 8.71-.28a71.78 71.78 0 0027.23-7.89 65.41 65.41 0 005.53-3.72c.69 2.86 1.46 5.67 2 8.51 1.36 6.73 2.46 13.52 4 20.22 2.21 9.73 4.64 19.41 7.08 29.08 1.15 4.53 2.56 9 3.78 13.51 1.35 5 2.47 10 4 14.92 1.15 3.69 2.4 7.52 6.71 9 .2.06.3.51.38.8a3410.782 3410.782 0 014.44 16.17c.3 1.11 1.05 2.57.63 3.28a11.16 11.16 0 01-3.7 3.66 60.11 60.11 0 01-16.13 6.29 110.42 110.42 0 01-22.07 2.89 2.13 2.13 0 01-2.32-1.17c-3.47-5.81-7.09-11.54-10.56-17.34-1.64-2.74-3.11-5.57-4.59-8.4a2.75 2.75 0 01-.34-1.85c.88-2.75.18-5.12-1-7.68-2-4.29-3.36-8.88-5.36-13.17-4.92-10.55-10-21-15.12-31.47-1.18-2.44-2.51-4.8-3.63-6.94l21.74-3c0-.33.08-.66.13-1-1.12-.48-2.22-1.32-3.36-1.39-4.7-.32-9.41-.37-14.11-.58-3.13-.14-6.25-.52-9.37-.55a65.67 65.67 0 00-8.87.49c-3.63.47-7.2 1.39-10.83 1.89a88 88 0 00-19.41 5.15c-.32.12-.55.48-1 .87l23.46-3 .15.6c-3.83 2.75-7.85 5.28-11.47 8.3-9.1 7.6-18.4 25.92-28.88 31.45a34.69 34.69 0 00-4.46 2.94 5.51 5.51 0 00-2.06 5.41c.146.953.182 1.919.11 2.88-.33 2.63-.86 5.24-1.15 7.87-.57 5-1 10.1-1.54 15.15-.15 1.36 0 2.66-2.32 2.75a106.48 106.48 0 01-22.76-2c-5.84-1-11.64-2.27-17.45-3.45a13.81 13.81 0 01-2.39-.83c-2.82-1.14-2.7-1.18-2.59-4.26.17-4.64.12-9.27.2-13.91 0-1.16.19-2.32.29-3.46 5.19 2.72 11 3.72 16.83 4.15 5.2.39 8.84-2.69 10.43-7.5a29.06 29.06 0 001.32-11.26c-.21-3.14 1.92-7.41 3.29-9.92a53.26 53.26 0 004.07-8.18c1.3-3.91.49-7.41-3.19-10a35.23 35.23 0 00-15.38-5.81c-.57-.12-1.13-.28-2.02-.47zm133.93 41.76c.44 1.63.85 3.27 1.34 4.89 1.07 3.55 2.74 7 3.16 10.65a23.22 23.22 0 007.34 14.36c5.76 5.56 12.69 5.9 19.92 3.31 3-1.06 5.87-2.39 8.81-3.58 2.65-1.08 3.86-2.67 3.36-5.46a88.12 88.12 0 00-2.63-10.38c-.83-2.65-2.34-5.1-3-7.78-1.46-5.54-3.48-10.79-7.14-15.25a5 5 0 00-4.83-2.07c-3.31.52-6.59 1.16-9.91 1.53a33 33 0 00-13.6 4.62c-2.04 1.25-3.38 2.61-2.82 5.16z" fill="#FFF"/><path d="M254.856 351.783c-2.42 4.41-5.1 8.57-7 13.05-1.14 2.66-1.13 5.83-1.57 8.78-1.49 9.83-3 19.66-4.38 29.52-1 7.53-2.33 15.08-2.64 22.66-.45 11.24-2.09 22.3-3.86 33.37-1.33 8.34-2.69 16.67-4 25a19.44 19.44 0 000 2.5c-5.26-2-10.38-3.86-15.37-6a50.44 50.44 0 01-17.1-12.1 2.49 2.49 0 01-.53-1.79c.66-4.71 1.53-9.38 2.08-14.09.44-3.88.39-7.81.8-11.69.49-4.59 1.24-9.15 1.86-13.73a6.32 6.32 0 00.12-1.56c-.77-6.67-1.65-13.33-2.31-20-.62-6.29-1-12.59-1.43-18.9 0-.64.64-1.31 1-2 .76-1.55 2.92-2.68 1.42-4.91-.11-.15.2-.58.31-.89.94-2.5 1.93-5 2.8-7.51a5 5 0 000-2.8c-3.5 1.9-5 5.47-7.6 8.2-2.19-2-4.55-4.18-7-6.29-2.65-2.29-5.95-2.23-9.19-2.49a47.85 47.85 0 01-7.13-1.12c-10.93-2.57-21.93-4.9-32.71-8a122.7 122.7 0 01-28.47-12c-2.26-1.33-4.7-2.35-7.17-3.57 2.69-7 3.11-14 3.79-21 .14-1.5.12-3 .29-4.52.13-1.15.46-2.28.68-3.35 10.32 2.34 20.26 4.73 30.26 6.82 13.73 2.88 27.5 5.58 41.28 8.22 1.41.27 3-.57 4.54-.69a41.68 41.68 0 017.4-.22c5.15.54 10.3 2.12 15.39 1.91 4.25-.17 7.88 1.08 11.68 2.22a4.62 4.62 0 012.2 1.48 48.06 48.06 0 0017.74 13.71c3.74 1.78 8.06 2.35 12.12 3.44.56.146 1.127.26 1.7.34zm43.7 282.49c15.2-.69 29.75-2.83 43.39-10.57.91 3.74 1.94 7.34 2.66 11 1.06 5.47 1.91 11 2.85 16.47.77 4.46 1.45 8.94 2.3 13.38.76 3.91 1.76 7.78 2.52 11.69.61 3.09 1 6.22 1.52 9.32.2 1.22.15 2.67.81 3.58 2.7 3.72 2.9 8.1 2.56 12.2a16.89 16.89 0 01-4.66 10.82c-3.69 3.6-7.29 7.61-12.56 8.76-3.62.79-7.44.73-11.18.95a35.527 35.527 0 01-4.11-.23c-4.36-.23-8.72-.4-13.08-.72-2.19-.17-4.37-.64-6.56-.93a3.74 3.74 0 01-3.51-3.52c-.19-1.74-.94-3.67-.44-5.18a27.3 27.3 0 014-8 35.32 35.32 0 007.78-21.15 7.55 7.55 0 011.1-3.88 8.18 8.18 0 00.76-5.64c-1.29-5.29-3-10.48-4.65-15.67-3.06-9.74-5.41-14.23-11.5-22.68zm35.22 43.2v-.15c-1.88.33-3.79.51-5.62 1-3.18.87-6.33 1.88-9.44 3-.46.16-.68 1-1 1.55.65.2 1.35.67 1.94.55 4.06-.79 8.07-1.83 12.15-2.52 1.54-.26 3.21.3 4.83.29 1.21 0 2.93.46 3.08-1.52.13-1.79-1.31-2.27-2.74-2.38-1.07-.02-2.14.04-3.2.18zm-5.19 9.25c.66 1.82 1.84 1.7 3 1.69 3.12 0 6.18-1.45 9.37-.41.29.1 1.17-.61 1.26-1 .19-1 .43-2.36-.07-3-.5-.64-1.89-.15-2.88-.09a8.19 8.19 0 00-1.5.42l-9.18 2.39zm-145.86-63.71c-.12 2.48-.09 5.11-.43 7.69-.74 5.71-1.75 11.4-2.51 17.11a2976.244 2976.244 0 00-4 31.09c-.21 1.72-.84 2.69-2.64 2.7-3.45 0-6.89.15-10.33.12-3.44-.03-6.67-.28-10-.27a88.51 88.51 0 00-10.31.41 94.54 94.54 0 00-9.32 2c-2.49.57-5 1.17-7.44-.14a3.68 3.68 0 00-1.17-.2 137.68 137.68 0 01-21.13-4.77 54.69 54.69 0 00-6.93-1.12l-4.26-.65c-.43-6.53 2.62-10 9.62-12.2 8.24-2.58 16.47-5.43 23.52-10.61 3.21-2.35 6.09-5.26 6-9.82.062-.44.261-.85.57-1.17 2.5-3.14 2.46-7 2.88-10.68.33-2.91.14-5.87.24-8.81.08-2.61.24-5.22.39-7.83a5.22 5.22 0 01.22-1.07 122 122 0 0047.03 8.22zm74.27-361.86c3 5.32 8.09 6.88 13.52 7.07 5.65.19 11.34-.14 16.4-3.3a1.81 1.81 0 011.63-.07c3.6 2.86 7.56 5.41 8.91 10.29a18.44 18.44 0 01-.51 11.05c-.27.81-.75 2.29-.58 2.38a6.27 6.27 0 003.26.93c3.19-.35 4.31.48 4.68 3.61a21.74 21.74 0 01-2.75 13.35 2.91 2.91 0 01-2.82 1.78 15.24 15.24 0 00-1.78.14c-2 .23-3.52 1.07-3.88 3.28-.8 4.81-3.69 8.12-7.41 11.06-5.31 4.19-10.57 8.32-17.28 10.14-3.66 1-7.16 1.84-10.9.13-2.5-1.15-5.46-1.37-7.85-2.67a20 20 0 01-10.83-15.2 63.69 63.69 0 01.19-21.4 19.83 19.83 0 012.64-6.73c2.07-3.36 4-6.7 4.27-10.72a10.66 10.66 0 013.53-7.46c2.56-2.4 4.93-5.01 7.56-7.66zm-4.67 24.39a21.79 21.79 0 00-3.55.33c-.81.21-2.06.81-2.14 1.37a21.11 21.11 0 000 5.78c.1.61 1.36 1 2.09 1.55.22-.9.45-1.8.64-2.7 0-.16-.14-.36-.2-.55-.63-1.91-.26-2.36 1.79-2.68a36.74 36.74 0 005.18-1.21c.44-.13.68-.9 1-1.37-.5-.27-1-.75-1.5-.77a27.08 27.08 0 00-3.35.25h.04zm-.83 24.11c.41.46.51.67.67.72a21.44 21.44 0 0010.73.29 7.64 7.64 0 003.28-1.69c.52-.42.54-1.44.78-2.19a8 8 0 00-2.07-.05c-.93.22-1.79.83-2.72 1-2.52.43-5.08.67-7.6 1.06a30.3 30.3 0 00-3.11.86h.04zm16.73-25c.216.626.487 1.231.81 1.81 1.19 1.89 2.52 1.88 3.47-.17a16.23 16.23 0 001.32-4.69c.24-1.75-1.09-2.66-2.77-2.14-2.06.65-3.06 2.33-2.87 5.26l.04-.07zm-19.93-4.19c.56.57 1.38 2 2.52 2.38 1.55.45 1.85-1.29 2.17-2.47a26 26 0 00.71-3.47c.2-1.54-.82-2.33-2.33-1.92-1.87.54-3.24 2.63-3.11 5.52l.04-.04z" fill="#FFF"/><path d="M325.916 291.623a20.11 20.11 0 00-6.11 5.86c-.48-1.84-.89-3.32-1.24-4.82-1.9-8.22-4.57-16.13-9.69-23-3.05-4.06-6-8.27-9.7-11.71a33.34 33.34 0 00-14.62-7.69c-7-1.82-14-3.68-21.12-5.34a52.06 52.06 0 00-20.6-1.14c-6.1 1-12 2.68-15.87 8.22-1.35 1.94-3.35 3.6-4.15 5.73-1.19 3.16-1.58 6.63-2.3 10a1.35 1.35 0 000 .4 64.51 64.51 0 002.61 14c2.08 6.7 6 12.05 9.78 17.65a4.41 4.41 0 01.67 2.46c-.21 6.86-.48 13.71 1.93 20.86-1.36-.8-2.41-1.34-3.39-2-.98-.66-1.83-1.52-2.82-2.18-2-1.333-4.06-2.62-6.18-3.86a3.25 3.25 0 01-1.87-2.78c-.33-4.66-.71-9.33-1.23-14-.36-3.19-1.3-6.33-1.41-9.52-.14-3.95.32-7.93.5-11.89a17.63 17.63 0 00-.05-1.78c-.16-3.82-.51-7.64-.45-11.46.07-4.46 2.86-7.89 5.13-11.41 9-13.94 22.15-22.05 37.73-26.92 7.64-2.38 14.86-.89 22 1.4a86.11 86.11 0 0112.63 5.27c2.75 1.38 5.1 3.52 7.66 5.28 8.67 6 13.31 14.82 17.13 24.22 2.41 5.91 3.36 12.16 4.11 18.44.32 2.75.25 5.55.42 8.32.11 1.1.33 2.2.5 3.39zm-.39 177.75c-.47-5 1.22-7.24 6.32-7.86a23.37 23.37 0 017.77.47c1.41.32 2.6 1.76 3.79 2.82a11.29 11.29 0 011.49 2.1 4.53 4.53 0 00-2.62-6.75c-4.8-1.57-9.7-2.55-14.7-.44-3.37 1.43-4.6 3.17-4.34 6.74l.33 4.27c-1.32-.79-2.65-1.52-3.92-2.34-2.13-1.39-4.27-2.79-6.32-4.31a2.67 2.67 0 01-1.1-1.94c.74-4.81 1.42-9.65 2.58-14.37.6-2.49 2.18-4.73 3.21-7.12 2.18-5.06 4.28-10.15 6.54-15.54 1 1.13 1.74 2.1 2.57 3 5.76 6.54 11.58 13 17.26 19.65 2.24 2.61 4.21 5.47 6.2 8.28.36.644.49 1.392.37 2.12-2.4 17.86-7.46 35.14-11.59 52.62-.67 2.84-1.24 5.72-1.63 8.61-1.32 9.82-9.73 12.73-17.64 11.84-1.81-.2-2.52-1-2.93-2.9-.83-3.79-2.17-7.48-3.28-11.22-1.74-5.84-3.47-11.68-5.19-17.52a2.23 2.23 0 01-.08-1c1-4.82.1-9.54-.73-14.26a3 3 0 01-.07-1c.1-.7.26-1.4.46-2.41 1.55.77 3 1.44 4.38 2.21 1.94 1.08 3.84 2.24 5.75 3.37 2.58 1.53 5.49 1.34 8.21 1.1a32.56 32.56 0 018.88.32 6.63 6.63 0 006.17-2.23 8.27 8.27 0 001.11-2.42l-.46-.3-5.84 2.14c1.78-2.29 3.86-4.42 5.26-6.92 1.61-2.89 2-8.38-.24-10.87-3-3.3-9.46-4.66-13.31-.81-.87.92-1.68 1.84-2.66 2.87zM6.406 660.454c1-9.251 13.62-120.871 16.52-146.561 3.146-27.92 6.286-55.84 9.42-83.76a156072.3 156072.3 0 0010.69-95.35c.07-.59 0-1.37.33-1.71.33-.34 1.64-.73 1.76-.56 1.16 1.59 2.51 2.9 2.23 5.38a14938.93 14938.93 0 00-10 91c-3.407 31.467-6.807 62.937-10.2 94.41-3.06 28.06-13.55 123.58-14.5 134.09-.2 2.15-.89 3.09-3 3.06h-3.25z" fill="#FFF"/><path d="M223.926 318.363c1.27 1.15 2.54 2.29 3.8 3.45 6 5.44 13 8.9 20.63 11.36 4.08 1.31 8 3.14 12.11 4.33a40.36 40.36 0 0010 1.75c4.81.12 9.63-.56 14.45-.65 5.43-.1 10.29-2 15.11-4.21 5.65-2.61 11.19-5.38 15.86-9.62a22.31 22.31 0 013.6-2.31 1.24 1.24 0 01.76-.14c4.91.76 8-2 10.72-5.5 4.18-5.44 5.29-11.71 4.47-18.37-.38-3.11-1.62-5.85-4.84-7.28-.38-4.89-.73-9.83-1.15-14.77a54.63 54.63 0 00-7.39-23.41 107.67 107.67 0 00-10.24-14.53c-2.28-2.72-5.53-4.66-8.5-6.73-3.38-2.36-6.94-4.47-10.15-6.52a50.16 50.16 0 0113.8 5.18c16.446 9.007 27.376 22.513 32.79 40.52a78.19 78.19 0 013.28 21.87 80.33 80.33 0 01-3.08 22.63 2.65 2.65 0 01-.33.92c-4.84 6.06-9.66 12.15-14.56 18.16a33.44 33.44 0 01-7.55 6.42c-4.37 2.95-9.23 4.09-14 5.75a26.77 26.77 0 01-10.44 1.69c-3.47-.19-7 .56-10.47.32a487.008 487.008 0 01-24.52-2.32 69.33 69.33 0 01-10.6-2.38c-4.58-1.3-8.21-4.42-12.22-6.83-3-1.84-6.18-3.54-9.3-5.27a2 2 0 01-1.2-2.11 46.65 46.65 0 00-.87-6.81c-.21-1.41-.44-2.82-.66-4.23l.69-.36zm147.93 161.36c7-6.46 13.84-13.31 24.5-13.78 2.73 6.36 5.35 12.62 8.12 18.83.73 1.64 1.51 3.76 2.89 4.52 3.88 2.15 5.55 6.3 9 8.88 3.45 2.58 6 6.21 8.79 9.56 2.79 3.35 5.34 7 8 10.58l-.26.62a7.22 7.22 0 01-2-.11c-1.86-.61-3.68-1.33-5.5-2.06a2.37 2.37 0 01-.81-.77c-1.82-2.24-3.59-4.51-5.47-6.7-.34-.39-1.11-.41-1.69-.6-.07.56-.39 1.26-.17 1.66 3.53 6.29 5.34 13.5 10.31 19a15 15 0 012.45 4.45 2.29 2.29 0 01-.7 2.13 5.94 5.94 0 01-3.36.76c-1.9-.22-2.57-2-3.25-3.5-2.83-6.41-5.57-12.86-8.47-19.24-.24-.52-1.5-.87-2.19-.76a2.08 2.08 0 00-1 1.79c2.87 7.54 5.61 15.13 9.92 22a16 16 0 011.71 3.69c.6 1.91-.59 2.78-2.67 2.65-3.09-.18-4.28-2.63-5.34-4.89-2-4.28-3.62-8.74-5.59-13a22.75 22.75 0 00-3.43-5.2 3.62 3.62 0 00-3-1.11 3.1 3.1 0 00-1.68 2.46 76 76 0 00.9 8.63c.446 3.12.98 6.22 1.6 9.3.49 2.48 1.27 4.91 1.7 7.4a3.89 3.89 0 01-.71 2.53 2.68 2.68 0 01-4.6-.17c-2.22-3.35-3.11-7.11-3.72-11-.84-5.43-1.76-10.86-2.87-16.24-.48-2.3-1.33-4.72-4.15-5.19-2.82-.47-5.54 1.17-7 4-1.33 2.56-2.6 5.14-4 7.66-1 1.89-2.28 3.67-4.82 3.42-1-.1-2-.55-1.4-1.93 1.6-3.69 2.14-7.59 2.66-11.56.29-2.12 1.73-4.15 2.9-6.07 1.6-2.65 3.13-5.28 3.37-8.46a2.24 2.24 0 01.49-1.06c1.9-2.61 2-4.52.36-7.15-3.21-5.17-6.41-10.41-9.82-15.97zm35.08 16.6a3.31 3.31 0 00-.21-1c-2.51-4.66-5-9.36-7.66-13.93a3.19 3.19 0 00-2.87-.89c-2.73.79-5.36 1.94-8 3-2.06.81-2 2.65-1.17 4.46a410.134 410.134 0 004.91 10.4 19.65 19.65 0 002.38 4.2c.81 1 1.94 2.27 3.51 1.51 2.45-1.2 4.77-2.66 7.21-3.89 1.58-.86 2.01-2.12 1.9-3.87v.01zm-43.89-104.23c-3.38-5.16-6.87-9.82-9.59-14.89-1.68-3.13-2-7-3.26-10.36a44.44 44.44 0 00-11.87-17.3c-2.1-1.95-2.81-3.56-2.67-6.07.24-4.3.36-8.62.7-12.91.07-1 .87-1.84 1.28-2.79 2.15-5 4.35-9.91 6.39-14.93.58-1.42 1.23-2.19 2.86-2.3a51 51 0 0120.11 2.28c2.61.88 4 3.27 4.57 5.77a72.23 72.23 0 011.18 9.21c.9 9.14-.35 18.14-2.11 27.06-2.09 10.59-4.43 21.14-6.64 31.71-.37 1.67-.59 3.38-.95 5.52zm-17.26-61.19c.4 1.1.91 2.85 1.66 4.5 2 4.33 8.27 5.85 11.71 5.24 6-1.08 9.35-9.93 7.3-15.51-1.45-3.93-4.93-4.54-8-5.68a9.78 9.78 0 00-5.65-.55c-5.35 1.46-6.89 5.36-7.02 12zm-279.07-42.55c2.09 3.3 4.1 6.22 5.85 9.3a64.61 64.61 0 013.53 7.42c.87 2.11 1.58 3.83 4.43 4.17 4.24.5 8.4 1.73 12.61 2.55 1.43.27 1.41 1.08 1.24 2.15-.75 4.49-1.44 9-2.26 13.48-.48 2.66-1.18 5.28-1.76 7.93-.25 1.15-.82 1.39-2 1.17-4.6-.85-9.21-1.57-13.75-2.33.39-1.15.86-2.51 1.33-3.88l-.47-.36c-1.43.93-2.92 1.77-4.26 2.81a8.22 8.22 0 01-5.62 2c-1.78-.1-3.57-.08-5.36 0-3.69.09-6.2-1.91-8.23-4.48.71-2 1.54-4 2.06-6s1.9-4.08-.7-5.66c.15-1.61 1.11-2.08 2.52-2.59a29.71 29.71 0 005.06-3c1.58 3.69 3.76 7.32 8.88 7.39 1.56 0 3.21.1 4-1.34-1.86-.77-4-1.19-5.54-2.37-3.29-2.47-4.49-6.1-4.39-10.16 0-1.78.36-3.56.3-5.33 0-.66-.75-1.3-1.15-1.95-.65.43-1.56.71-1.88 1.31-.48.9-.41 2.08-.82 3a38.35 38.35 0 01-3.15 6.51c-.54.79-2.18 1.18-3.31 1.18-2.22 0-3-1-2.63-3.21 1-6.2 2.19-12.37 3.24-18.57.31-1.8 1.56-2 2.94-1.89 3.26.3 6.49.56 9.29.75zm-15.39-3.25c-2.28-.19-2.53-1.28-2.34-2.93 3.846-33.82 7.673-67.647 11.48-101.48a5405.062 5405.062 0 004.2-38.56c2.94-28.213 5.85-56.433 8.73-84.66 1.59-15.8 2.91-31.62 4.44-47.43a4.35 4.35 0 011.4-2.6c1.42-1.27 2.87-2.67 5.13-2.84-.61 4.78-1.23 9.32-1.77 13.88-2.79 23.58-5.65 47.17-8.32 70.77-2.6 23-5 46-7.5 69-3.1 28.58-6.194 57.163-9.28 85.75-1.35 12.46-2.63 24.92-4.11 37.36-.15 1.36-1.39 2.55-2.06 3.74zm214.16-35.22c-1.48.55-2.77 1-4 1.5-6.51 2.61-11.72 6.9-14.67 13.22-1.81 3.86-2.52 8.24-3.59 12.43-.71 2.79-1.43 5.45-3.75 7.5-2.32 2.05-3 4.8-4 7.45-.32.84-.53 1.73-.83 2.72a45.71 45.71 0 01-9.88-18.92c-2.14-7.81-.08-14.67 4.31-21.21 2.75-4.12 7.06-5.15 11.26-6.26 8.26-2.17 16.47-1 24.59 1.1.07.03.16.16.56.47zM86.566 10.593a23 23 0 011.31-3.64 2.25 2.25 0 011.79-.71c7.29.47 14.58 1 21.87 1.56 26.64 2 53.29 4 79.92 6.09 17 1.36 34 3.17 51 4.47 11.27.87 22.58 1.21 33.87 1.77.72 0 1.44-.15 2.16-.15.57 0 1.29-.07 1.66.23.37.3.55 1.28.34 1.5a3 3 0 01-1.91 1c-2.83-.08-5.65-.35-8.48-.54l-38.42-2.58c-20.49-1.41-41-2.91-61.46-4.25a6654.534 6654.534 0 00-58.73-3.58c-8.18-.48-16.31-.77-24.92-1.17zm201.11 454.97c-1.1-4.65 3.63-6.84 7.33-5.7a45.9 45.9 0 0111.76 5.06 99.66 99.66 0 0011.06 6.57c2.2 1.06 4.88 1.15 7.36 1.58.39.06 1-.36 1.3-.69.66-.65 1.17-1.44 1.83-2.09 3.71-3.69 6.44-3.35 10 .08 1.58 1.52 1.27 5.6-.23 8-4 6.37-13.75 6.55-18 2.79-2.65-2.32-6.07-3.77-9.11-5.65a31 31 0 00-16.17-4.4c-1.18 0-2.36-.06-3.53-.14-1.81-.14-3.09-1.49-3.43-3.58-.12-.67-.13-1.24-.17-1.83zm-85.01 26.75l3.45-10.24c7.5 5.1 15.56 8.37 24.1 10.91-.49 3.8-1 7.63-1.48 11.56a58.14 58.14 0 01-26.07-12.23zm55.86 15.67c.18-3.43.35-6.73.53-10.06a92.22 92.22 0 0031.66-3.3c.2 2.65.35 5.22.63 7.78.13 1.17-.53 1.45-1.38 1.74-8.56 3-17.5 3.46-26.42 4a50 50 0 01-5.02-.16zm-121.08 64l23.25 4.85a81.31 81.31 0 01-1.34 8.38c-.61 2.31-3.74 3.63-6.74 3.24-2.76-.36-5.5-.84-8.26-1.19s-5.26-.55-7.82-.81c.31-4.91.6-9.48.91-14.47zm26.47-7.46a41 41 0 01-3 7.9l-8.18-1.25c-4.51-.68-9-1.42-13.53-2-1.39-.18-.33-4.15 1-7.34 1.27-3 3.23-3.52 5.87-3 2.91.63 5.8 1.39 8.64 2.3 3.12 1.03 6.18 2.27 9.2 3.39zm138.31 161.68c5.64.76 11 1.52 16.43 2.21a24.56 24.56 0 003.93.15c4-.13 8.06-.08 12-.57 6-.73 11.91-2.06 16.2-6.84 2.76-3.07 5.33-6.34 7.79-9.67 1-1.35 1.46-3.1 2.27-4.88a14.1 14.1 0 01-1.66 9.49c-2.21 4.16-4.59 8.38-8.76 11a26.28 26.28 0 01-7.53 3.44c-4 1-8.19 1.1-12.24 1.89-7.33 1.45-14.57.26-21.84-.4-2.1-.24-4.72-2.58-6.59-5.82zm-128.03-40.36v2a25.39 25.39 0 01-10.29 1.35c-4.69-.31-9.4-.4-14.1-.6a27.18 27.18 0 00-4.31-.18 28.75 28.75 0 00-6.81 1.35c-3.1 1.16-5.89 2.13-9.4 1.09-4.39-1.31-9-1.78-13.58-2.59-6-1.07-12.13-1.93-18.12-3.26-2.17-.48-4.8-1-5.73-3.71a7.34 7.34 0 01-.08-1.44c3.94 1 7.65 2 11.42 2.83 8.5 1.78 17 3.68 25.56 5 2.67.41 5.7-.53 8.37-1.45 4.27-1.47 8.59-1.2 12.93-1.17 4.34.03 8.73.24 13.1.39 3.66.1 7.3.27 11.04.39z" fill="#FFF"/><path d="M313.596 288.723c1.65 4.52 3.47 8.66 3.87 13.24a4.24 4.24 0 01-.5 1.69c-1.71 4.47-2.52 9-1 13.72a1.7 1.7 0 01-.34 1.4c-3.81 4.26-7.82 8.26-13.33 10.31a8.47 8.47 0 01-.93.21c.88-2.84 1.63-5.51 2.54-8.14 2.52-7.3 5.25-14.53 7.59-21.89 1.06-3.23 1.38-6.73 2.1-10.54zm-80.6 205.48c7.07 1.1 13.79 2.13 20.5 3.25a1.81 1.81 0 011.12 1.32c-.31 2.77-.75 5.52-1.24 8.25-.08.44-.69 1.17-1 1.13-6.31-.75-12.62-1.59-18.91-2.47-.37-.05-1-.64-.94-1 .09-3.58.29-7.19.47-10.48zm40.34-158.83c4.55-2.89 9.28-5.93 14-8.91a17.87 17.87 0 007.85-11c.52-1.93 1.1-3.2 3.56-2.69 1.41.3 3-.15 4.63-.28-.88 2.46-1.79 5-2.7 7.61-1.24 3.49-2.52 7-3.68 10.48a3.23 3.23 0 01-2.52 2.2 34.57 34.57 0 01-4.56 1.22c-5.39.61-10.79 1.07-16.19 1.55-.25 0-.56-.24-.39-.18zm-130.34 220.77l5.51-10.23 13.56 4a6.69 6.69 0 011.09.38c5.84 2.88 6.23 4.76 2.5 11.14-7.37-2.05-14.24-5.9-22.66-5.29zm133.71-292.12a16 16 0 016.25-7.47 2.38 2.38 0 012 .2c3.17 1.89 6.29 3.87 9.41 5.85a43.16 43.16 0 0110.28 9.81c5.69 7.06 6.71 15.06 4.64 23.62l-.55.08c-.11-1.39-.2-2.78-.32-4.16-.37-4.28-2.6-6.52-7-6.79.15-1.47.2-3 .48-4.4 1.14-5.75-2.2-13.62-7.75-15.92-2.22-.92-4.21-2.4-6.37-3.48a2.18 2.18 0 00-1.75.41 12.42 12.42 0 01-9.32 2.25zm-174.52 77.7l-6.37-3.08c1.28-8.46 2.56-16.91 3.86-25.45a.82.82 0 01.4-.07c2 .56 4.79.57 5.79 1.9s.09 3.92-.18 5.93c-.87 6.27-1.83 12.53-2.78 18.78a12.3 12.3 0 01-.72 1.99zm267.22 134.2l-3-4.82c4-3.92 8.17-8 13.49-10.54 3.2-1.52 6.57-2.69 9.9-3.93 1.4-.53 2.52-.24 3 1.43a28.31 28.31 0 001.48 3.27c-5.26.15-9.72 2.4-13.75 5.18-4.03 2.78-7.47 6.28-11.12 9.41zm-327.07-193.84c-1.14 2.59-1.13 2.56 1.48 3.77 1.66.78 3.27 1.68 4.93 2.48 2.22 1.06.64 2.58.51 3.92-.13 1.34-1 1.15-2 1.14-6.13-.07-11.32-2.87-16.54-5.57-2.26-1.16-2.14-4.21.28-5.91a7.21 7.21 0 013.29-1.2c2.71-.25 5.5-.43 8.05 1.37zm5.51 15.64c-.59 3.21-1.13 6.12-1.71 9.3a19.51 19.51 0 01-2.89-.65c-4.14-1.55-8.3-3.08-12.37-4.8-2.77-1.18-3.28-5.54-1-7.52a1.88 1.88 0 011.61-.15 47 47 0 0016.36 3.82zm-18.85 9.26c4.2 1.33 8.28 2.63 12.36 3.91a2.57 2.57 0 001.16.22c3.72-.68 5.43 2.22 7.6 4.25.236.345.277.787.11 1.17-.8.73-1.76 1.92-2.58 1.86a54.46 54.46 0 01-9.14-1.5 44.49 44.49 0 01-6.21-2.58c-3.2-1.39-4.3-3.73-3.3-7.33zm234.56-44.64c3.68-10.36 9.48-12.17 16.94-7.46-1.93 2.83-3.86 5.67-5.82 8.49-.24.34-.67.75-1 .75a32.66 32.66 0 01-10.12-1.78zm21.6 208.24c-1.7-.29-3.23-.54-4.75-.82a7.14 7.14 0 01-5.88-4.84c-1-3.2 2.28-7 5.74-6.93 2.09.06 4.17.21 6.55.34-2.7 3.91-2.7 7.94-1.66 12.25zm-234.48-148.65c.48 3 0 4-2.77 4.47a100.29 100.29 0 01-11.47 1.25 6.82 6.82 0 01-3.68-1.28c-3-1.9-2.51-3.14-.58-5.59.23-.3 1.16-.18 1.73-.08 3.94.68 7.86 1.57 11.83 2 1.59.23 3.26-.48 4.94-.77z" fill="#FFF"/><path d="M281.666 474.933c-6.7 1.95-13.87-2.83-14.3-9.2a28 28 0 01.12-5.86c.59-4 3.59-5.94 7.1-6.6 2.78-.53 5.75-.09 8.65.29a13.28 13.28 0 00-8.51 2.31 9.8 9.8 0 00-4.33 7.56c-.26 4.34 3.23 10.18 11.27 11.5zm-85.22-1.43c2.25 2.2 4.49 4.35 6.67 6.57.247.384.299.862.14 1.29-1.17 2.84-2.42 5.64-3.88 9-2.05-2.35-4-4.57-5.91-6.82a1.15 1.15 0 01-.06-.92c1-3.08 2.04-6.14 3.04-9.12zm108.06 14.56c.68 9.49-.94 10.63-9.15 13.91-.48-2.49-1-4.94-1.38-7.42-.07-.45.55-1.23 1-1.5 3.17-1.71 6.34-3.33 9.53-4.99zm27.77-188.5c2 6.59-1.73 16.37-6.73 17.41-1.75-3.92 2.3-14.38 6.73-17.41zm-10.61 16.59a4.7 4.7 0 01-2.44-5.11 25.71 25.71 0 016.9-15.59 2.52 2.52 0 01.46-.29l2.25 1.77c-4.84 5.37-7 11.79-7.17 19.22zm-55.78-63.43c-1.46 3.13-2.64 5.68-3.84 8.26-2.8-.36-2.13-3.62-4.37-4.91l8.21-3.35zm67.24 81l-2.61 9.75-4.1-2.15z" fill="#FFF"/><path d="M298.846 372.793a9.19 9.19 0 01-8.71 10.08c-4.18.29-9.26-3.8-9.45-7.74-.28-5.91 1.92-9.54 7.48-10 4.91-.41 11.01 2.86 10.68 7.66zm-10.26-3a4.5 4.5 0 00-3.93 5.13c.17 1.87 3 3.65 5.6 3.52 2.3-.12 5.53-3.44 5.36-5.5-.14-1.71-3.85-3.37-7.03-3.11v-.04zm-2.85 212.93c-.56-2.59.78-3.95 2.78-5.16a33 33 0 0113.6-4.62c3.32-.37 6.6-1 9.91-1.53a5 5 0 014.83 2.07c3.66 4.46 5.68 9.71 7.14 15.25.7 2.68 2.21 5.13 3 7.78a88.12 88.12 0 012.63 10.38c.5 2.79-.71 4.38-3.36 5.46-2.94 1.19-5.83 2.52-8.81 3.58-7.23 2.59-14.16 2.25-19.92-3.31a23.22 23.22 0 01-7.34-14.36c-.42-3.62-2.09-7.1-3.16-10.65-.45-1.58-.86-3.22-1.3-4.89zm5.59 7.3c3.93-.82 7.58-1.5 11.18-2.34 3.6-.84 7.31-1.49 10.7-2.87 5.17-2.1 4.45-1.74 2.07-5.85a5.71 5.71 0 01-.51-.84c-.7-2-2.34-2.33-4.14-2.1-3.65.47-7.32.9-10.94 1.56a25.75 25.75 0 00-10.48 4c-.52.37-1.24 1.27-1.1 1.61.99 2.41 2.18 4.72 3.22 6.87v-.04zm30.3 5.89a60.65 60.65 0 01-2.35-7c-.4-1.83-1.14-1.76-2.62-1.4-5.13 1.22-10.29 2.32-15.44 3.42-2.68.57-5.37 1.06-8.12 1.59l3.56 9.11c8.16-2.78 17.08-1.91 24.97-5.68v-.04zm-23.15 9.08c3 6.55 8.63 7.73 15.08 6.32a89.62 89.62 0 0010.72-3.43 2.07 2.07 0 00.94-1.75c-.44-2.19-1.1-4.33-1.7-6.56-8.09 4.06-16.93 3.06-25.04 5.46v-.04zm35.3 72.48a21.28 21.28 0 013.17-.21c1.43.11 2.87.59 2.74 2.38-.15 2-1.87 1.52-3.08 1.52-1.62 0-3.29-.55-4.83-.29-4.08.69-8.09 1.73-12.15 2.52-.59.12-1.29-.35-1.94-.55.33-.53.55-1.39 1-1.55 3.11-1.08 6.26-2.09 9.44-3 1.83-.5 3.74-.68 5.62-1l.03.18zm-5.19 9.25l9.2-2.39a8.19 8.19 0 011.5-.42c1-.06 2.46-.4 2.88.09.42.49.26 2 .07 3-.09.43-1 1.14-1.26 1-3.19-1-6.25.37-9.37.41-1.18.01-2.36.13-3.02-1.69zm-76.3-401.18a27.08 27.08 0 013.36-.22c.51 0 1 .5 1.5.77-.34.47-.58 1.24-1 1.37a36.74 36.74 0 01-5.15 1.26c-2 .32-2.42.77-1.79 2.68.06.19.23.39.2.55-.19.9-.42 1.8-.64 2.7-.73-.51-2-.94-2.09-1.55a21.11 21.11 0 010-5.78c.08-.56 1.33-1.16 2.14-1.37a21.79 21.79 0 013.55-.33l-.08-.08zm-.83 24.11a30.3 30.3 0 013.07-.87c2.52-.39 5.08-.63 7.6-1.06.93-.16 1.79-.77 2.72-1a8 8 0 012.07.05c-.24.75-.26 1.77-.78 2.19a7.64 7.64 0 01-3.28 1.69 21.44 21.44 0 01-10.73-.29c-.13-.04-.26-.25-.67-.71zm16.73-24.93c-.2-2.9.84-4.58 2.83-5.19 1.68-.52 3 .39 2.77 2.14a16.23 16.23 0 01-1.32 4.69c-1 2.05-2.28 2.06-3.47.17a11.35 11.35 0 01-.81-1.81zm-19.93-4.22c-.13-2.89 1.24-5 3.07-5.48 1.51-.41 2.53.38 2.33 1.92a26 26 0 01-.71 3.47c-.32 1.18-.62 2.92-2.17 2.47-1.14-.34-1.96-1.81-2.52-2.38zm158.68 215.81c.11 1.75-.32 3-1.91 3.82-2.44 1.23-4.76 2.69-7.21 3.89-1.57.76-2.7-.54-3.51-1.51a19.65 19.65 0 01-2.38-4.2 491.229 491.229 0 01-4.91-10.4c-.82-1.81-.89-3.65 1.17-4.46 2.65-1 5.28-2.19 8-3a3.19 3.19 0 012.87.89c2.69 4.57 5.15 9.27 7.66 13.93.128.333.203.684.22 1.04zm-17.51-10.08l7.56 12.74 6.87-2.6-6.69-12.87-7.74 2.73zm-43.64-155.33c.13-6.64 1.67-10.54 7-12a9.78 9.78 0 015.65.55c3.11 1.14 6.59 1.75 8 5.68 2 5.58-1.28 14.43-7.3 15.51-3.44.61-9.74-.91-11.71-5.24-.73-1.68-1.24-3.4-1.64-4.5zm17.9-2.87c-.08-1.7-.67-3-2.52-3.22-1.54-.2-3.13.14-3.59 1.71-.74 2.53-1.68 5.18.79 7.54.87.82 1.4 1 2.31.33 2.32-1.54 2.98-3.8 3.01-6.36zm-9.44-5.43a5.53 5.53 0 00-3.77 4.91c-.16 2.1-.09 4.34 1.77 5.49.67-3.5 1.35-7 2-10.4z" fill="#000"/><path d="M288.586 369.833c3.18-.26 6.89 1.4 7 3.15.17 2.06-3.06 5.38-5.36 5.5-2.59.13-5.43-1.65-5.6-3.52a4.5 4.5 0 013.96-5.13zm2.74 220.23c-1-2.15-2.23-4.46-3.22-6.86-.14-.34.58-1.24 1.1-1.61a25.75 25.75 0 0110.48-4c3.62-.66 7.29-1.09 10.94-1.56 1.8-.23 3.44.06 4.14 2.1.145.294.316.575.51.84 2.38 4.11 3.1 3.75-2.07 5.85-3.39 1.38-7.1 2-10.7 2.87-3.6.87-7.25 1.55-11.18 2.37zm30.3 5.89c-7.89 3.8-16.81 2.9-25 5.77l-3.56-9.11c2.75-.53 5.44-1 8.12-1.59 5.15-1.1 10.31-2.2 15.44-3.42 1.48-.36 2.22-.43 2.62 1.4a60.65 60.65 0 002.38 6.95zm-23.15 9.08c8.11-2.4 17-1.4 25-5.42.6 2.23 1.26 4.37 1.7 6.56a2.07 2.07 0 01-.94 1.75 89.62 89.62 0 01-10.72 3.43c-6.41 1.37-12.01.23-15.04-6.32zm90.95-118.8l7.74-2.73 6.69 12.87-6.87 2.6zm-25.74-158.2c0 2.56-.73 4.82-3 6.36-.91.62-1.44.49-2.31-.33-2.47-2.36-1.53-5-.79-7.54.46-1.57 2.05-1.91 3.59-1.71 1.82.24 2.43 1.52 2.51 3.22zm-9.44-5.43c-.65 3.4-1.33 6.9-2 10.4-1.86-1.15-1.93-3.39-1.77-5.49a5.53 5.53 0 013.77-4.91z" fill="#FFF"/></g></svg>