<?xml version="1.0" encoding="UTF-8"?>
<svg width="419px" height="683px" viewBox="0 0 419 683" version="1.1" xmlns="http://www.w3.org/2000/svg" xmlns:xlink="http://www.w3.org/1999/xlink">
    <title>astronauta</title>
    <g id="astronauta" stroke="none" stroke-width="1" fill="none" fill-rule="evenodd">
        <path d="M334.26,303.27 C334.26,303.27 359.62,307.45 366.6,312.69 C373.58,317.93 375.33,321.85 370.1,344.11 C364.87,366.37 326.88,499.11 326.88,499.11 C326.88,499.11 328.01,505.65 314.57,503.03 C301.13,500.41 290.3,498.23 290.3,498.23 C290.3,498.23 267.38,502.6 275.52,445.42 C283.66,388.24 312.39,302.15 334.26,303.27 Z" id="Path" fill="#DFEAF7" fill-rule="nonzero"></path>
        <path d="M358.77,309.06 C358.77,309.06 347.52,306.65 343.42,319.94 C339.32,333.23 306.42,490.22 306.42,490.22 L325.77,503.61 C325.77,503.61 311.4,504.69 302.77,503.61 C294.14,502.53 286.22,450.19 286.22,450.19 L312.39,325.53 L340.39,304.19 C347.47,305.33 353.84,306.84 358.77,309.06 Z" id="Path" fill="#5A7391" fill-rule="nonzero"></path>
        <ellipse id="Oval" fill="#90A5C4" fill-rule="nonzero" transform="translate(360.501244, 326.816407) rotate(-80.890000) translate(-360.501244, -326.816407) " cx="360.501244" cy="326.816407" rx="11.4" ry="8.73"></ellipse>
        <ellipse id="Oval" fill="#E5F5F9" fill-rule="nonzero" transform="translate(362.432911, 327.119834) rotate(-80.890000) translate(-362.432911, -327.119834) " cx="362.432911" cy="327.119834" rx="8.84" ry="5.65"></ellipse>
        <polygon id="Path" fill="#90A5C4" fill-rule="nonzero" points="354.08 335.19 312.44 496.41 317.96 499.65 356.35 335.84"></polygon>
        <path d="M0.67,661 L158.94,4.45 C159.18,-0.7 168.87,-1.06 168.87,4.45 L10.8,661 L0.67,661 Z" id="Path" fill="#DFEAF7" fill-rule="nonzero"></path>
        <path d="M200.53,450.19 C200.53,450.19 151.97,503.64 148.61,509.75 C145.25,515.86 148.61,563.81 148.61,563.81 C148.61,563.81 153.19,569.92 170.91,569 C188.63,568.08 192.91,563.2 192.91,563.2 L190.77,531.13 C190.77,531.13 196.27,529.6 196.57,527.13 C196.90228,525.309681 197.523453,523.554193 198.41,521.93 L236.59,502.39 L244.83,503.91 C244.83,503.91 265.6,554.91 265.6,557.67 C265.6,560.43 268.05,567.44 271.41,574.47 C274.073887,579.697651 277.136268,584.712468 280.57,589.47 C280.57,589.47 286.68,594.36 303.48,591 C320.28,587.64 324.86,583.37 324.86,583.37 L310.86,531.44 L301.69,486.54 L299.25,470.35 C282.319061,475.750846 264.196918,476.198434 247.02,471.64 C218.86,463.93 200.53,450.19 200.53,450.19 Z" id="Path" fill="#90A5C4" fill-rule="nonzero"></path>
        <path d="M242.27,254.61 C234.34,273.12 233.16,285.61 237.19,307.2 C242.44,316.01 267.97,328.78 275.61,329.67 C283.25,330.56 325.36,326.84 329.51,314.4 C333.66,301.96 349.8,270.97 319.51,251.33 C289.22,231.69 250.2,236.09 242.27,254.61 Z" id="Path" fill="#6682A3" fill-rule="nonzero"></path>
        <path d="M277.58,249.3 C277.58,249.3 290.01,245.08 301.14,249.3 C312.27,253.52 321,264 322.09,273.37 C323.18,282.74 303.32,332.73 303.32,332.73 L272.4,328.8 L269.4,316.37 C269.4,316.37 264.06,262.76 277.58,249.3 Z" id="Path" fill="#90A5C4" fill-rule="nonzero"></path>
        <path d="M119.42,288.52 C119.42,288.52 146.37,295.78 153.77,298.42 C161.17,301.06 200.77,313.48 200.77,313.48 C200.77,313.48 218.77,312.95 226.13,315.07 C233.49,317.19 242.25,322.99 242.25,322.99 C242.25,322.99 241.72,358.92 235.64,362.88 C229.56,366.84 213.45,370.81 213.45,370.81 L199.45,347.3 C193.518985,346.077837 187.66005,344.528809 181.9,342.66 C174.26,340 163,333 163,333 C155.170265,329.416103 147.159447,326.241817 139,323.49 C125,318.73 114.43,314.24 114.43,314.24 L119.42,288.52 Z" id="Path" fill="#BFD1E8" fill-rule="nonzero"></path>
        <path d="M131.31,290.18 L117.31,287.6 C117.31,287.6 112.14,275.18 111.1,272.6 C110.06,270.02 99.72,269.75 99.72,269.75 L95.32,265.61 C95.32,265.61 84.45,261.47 80.32,263.03 C76.19,264.59 77.22,271.31 77.22,271.31 C75.7914744,272.722559 74.8017467,274.51796 74.37,276.48 C73.9669005,278.595464 74.5360026,280.780082 75.92,282.43 C74.0860464,283.587848 72.8315098,285.471471 72.47,287.61 C71.8754883,289.698663 72.3967828,291.946273 73.85,293.56 C73.85,293.56 70.75,299.51 73.85,302.36 C76.95,305.21 89.38,307.36 89.38,307.36 C91.4458253,310.014201 94.2187661,312.031515 97.38,313.18 C102.55,314.99 103.85,312.66 103.85,312.66 C103.85,312.66 110.85,316.03 121.44,319.91 C126.1,314.73 131.27,294.81 131.27,294.81 L131.31,290.18 Z" id="Path" fill="#90A5C4" fill-rule="nonzero"></path>
        <path d="M99.75,269.74 C99.75,269.74 94.37,283.22 93.68,285.41 C92.99,287.6 96.93,289.68 99.75,289.8 C102.57,289.92 104,286 104,286 C104,286 99.92,291.21 105.35,298.14" id="Path" stroke="#6D84A0" stroke-width="1.96"></path>
        <path d="M77.24,271.3 C80.448854,273.432412 83.9169098,275.146277 87.56,276.4 C90.5233382,277.372306 93.6652362,277.676251 96.76,277.29" id="Path" stroke="#6D84A0" stroke-width="1.96"></path>
        <path d="M75.94,282.42 C78.6432421,284.968505 82.0446732,286.653554 85.71,287.26 C91.71,288.18 93.6,287.26 93.6,287.26" id="Path" stroke="#6D84A0" stroke-width="1.96"></path>
        <path d="M73.87,293.55 C73.87,293.55 82.01,297.55 86.52,298.11 C91.03,298.67 94.37,298.17 95.41,295.83 C96.226961,293.711011 96.8756364,291.530927 97.35,289.31" id="Path" stroke="#6D84A0" stroke-width="1.96"></path>
        <path d="M89.4,307.39 C91.4393509,306.78875 92.8754326,304.963563 92.98,302.84 C93.33,299.03 92.98,297.84 92.98,297.84" id="Path" stroke="#6D84A0" stroke-width="1.96"></path>
        <path d="M210.79,366.3 L212.79,398.84 L204.6,438.42 C204.6,438.42 204.91,456.62 242.29,462.53 C279.67,468.44 291.04,462.99 298.29,459.35 C301.48,448.43 319.22,388.35 319.22,388.35 L334.22,340.12 L321.32,330 C321.32,330 301.94,341.48 273.32,335.11 C244.7,328.74 226.19,315.04 226.19,315.04 C226.19,315.04 204.58,332.73 210.79,366.3 Z" id="Path" fill="#90A5C4" fill-rule="nonzero"></path>
        <path d="M334.25,340.14 C334.25,340.14 321.05,343.33 317.41,362.44 C315.219121,373.938957 314.942061,385.72077 316.59,397.31 L337.43,417 C337.43,417 342.89,435.66 345.62,443.39 C348.35,451.12 357.93,469.24 357.93,469.24 C357.93,469.24 387.93,466.82 387.93,465.12 C387.93,463.42 364.27,397.44 364.27,397.44 C364.27,397.44 344.71,348.33 334.25,340.14 Z" id="Path" fill="#BFD1E8" fill-rule="nonzero"></path>
        <path d="M277.58,249.3 C270.654853,252.234709 265.189624,257.815147 262.4,264.8 C257.88,276.42 251.75,282.22 250.14,288.52 C248.53,294.82 249.06,307.64 255.62,320 C262.18,332.36 288.23,325.17 293.72,320 C299.21,314.83 301.79,305.8 301.79,305.8 C301.79,305.8 309.66,304.87 312.12,299.02 C317.27,286.74 313.12,283.2 310.51,282.23 C308.743658,281.61123 306.891075,281.273783 305.02,281.23 C305.02,281.23 310.19,273.16 306.02,266.06 C301.85,258.96 298.27,257.66 298.27,257.66 C298.27,257.66 288.77,260.57 281.57,258.95 C274.37,257.33 277.58,249.3 277.58,249.3 Z" id="Path" fill="#DDC2F2" fill-rule="nonzero"></path>
        <ellipse id="Oval" fill="#90A5C4" fill-rule="nonzero" transform="translate(266.950365, 274.916610) rotate(-68.580000) translate(-266.950365, -274.916610) " cx="266.950365" cy="274.91661" rx="3.78" ry="2.36"></ellipse>
        <ellipse id="Oval" fill="#90A5C4" fill-rule="nonzero" transform="translate(283.141077, 279.862628) rotate(-68.580000) translate(-283.141077, -279.862628) " cx="283.141077" cy="279.862628" rx="3.78" ry="2.36"></ellipse>
        <path d="M269.41,279.92 C269.41,279.92 260.77,280.36 260.33,282.54 C259.89,284.72 262.51,288.07 262.51,288.07 C262.51,288.07 261.42,283.7 263.39,283.12 C265.36,282.54 270.15,281.45 271.46,279.92 C272.77,278.39 272.33,274.97 272.33,274.97 L269.41,279.92 Z" id="Path" fill="#90A5C4" fill-rule="nonzero"></path>
        <path d="M259.81,296.39 C263.509671,296.781521 267.240329,296.781521 270.94,296.39 C276.83,295.74 279.01,294.21 279.01,294.21 C279.01,294.21 276.83,299.21 269.41,299.01 C261.99,298.81 259.81,296.39 259.81,296.39 Z" id="Path" fill="#90A5C4" fill-rule="nonzero"></path>
        <path d="M237.19,323 L237.19,307.2 C244.865572,316.097875 255.63609,321.745873 267.32,323 C286.67,324.89 308.1,322.47 317.22,312.87 C326.34,303.27 326.35,274.98 326.35,274.98 L296.49,226.46 C296.49,226.46 330.97,229.74 340.36,265.75 C349.75,301.76 334.9,317.25 331.63,321.18 C328.36,325.11 318.7,332 318.7,332 C318.7,332 294.89,344.79 267.32,337.58 C239.75,330.37 237.19,323 237.19,323 Z" id="Path" fill="#C3E5F4" fill-rule="nonzero"></path>
        <ellipse id="Oval" fill="#E5F5F9" fill-rule="nonzero" transform="translate(331.552896, 303.347898) rotate(-70.770000) translate(-331.552896, -303.347898) " cx="331.552896" cy="303.347898" rx="15.45" ry="8.73"></ellipse>
        <path d="M240.67,258.51 C242.15,258.04 240.96,239.51 279.01,242.6 C317.06,245.69 328.01,303.27 328.01,303.27 C328.01,303.27 333.01,299.8 333.47,290.08 C333.93,280.36 341.32,240.2 301.61,226.45 C261.9,212.7 243.26,242.06 241.51,247.74 C239.76,253.42 239.24,256.71 240.67,258.51 Z" id="Path" fill="#E5F5F9" fill-rule="nonzero"></path>
        <ellipse id="Oval" fill="#90A5C4" fill-rule="nonzero" transform="translate(334.363878, 305.808765) rotate(-70.770000) translate(-334.363878, -305.808765) " cx="334.363878" cy="305.808765" rx="11.98" ry="6.77"></ellipse>
        <path d="M204.58,438.42 L200.58,450.19 C200.58,450.19 208.31,470.65 242.32,475.54 C276.33,480.43 290.99,474.93 299.24,470.34 C299.665715,466.650416 299.363337,462.913152 298.35,459.34 C298.35,459.34 285.8,468.5 251.29,462.09 C216.78,455.68 204.58,438.42 204.58,438.42 Z" id="Path" fill="#C3E5F4" fill-rule="nonzero"></path>
        <path d="M147.12,529.2 C147.12,529.2 164.72,532.79 166.68,529.2 C168.64,525.61 166.03,517.46 169.29,513.87 C172.55,510.28 182.99,507.02 182.66,500.87 C182.33,494.72 167.53,487.11 167.53,487.11 C167.53,487.11 153.05,498.49 148.61,509.8 C144.17,521.11 147.12,529.2 147.12,529.2 Z" id="Path" fill="#C3E5F4" fill-rule="nonzero"></path>
        <path d="M263.84,336.59 C263.84,336.59 251.6,355.7 249.94,375.8 C248.28,395.9 237.19,458.57 237.19,458.57 L242.27,458.57 C242.27,458.57 245.86,440.69 249.37,415.57 C252.88,390.45 255.37,373.71 257.9,361.15 C260.43,348.59 267.32,337.53 267.32,337.53 L263.84,336.59 Z" id="Path" fill="#C3E5F4" fill-rule="nonzero"></path>
        <circle id="Oval" fill="#BFD1E8" fill-rule="nonzero" cx="283.83" cy="363.78" r="11.42"></circle>
        <circle id="Oval" fill="#90A5C4" fill-rule="nonzero" cx="282.01" cy="362.97" r="6.49"></circle>
        <path d="M148.61,563.81 C147.249598,565.407761 146.396582,567.374919 146.16,569.46 C145.49,573.38 149.76,597.2 148.61,599.66 C147.291072,601.923391 145.746541,604.04754 144,606 L131.23,616.31 C131.23,616.31 118.71,618.77 117.48,624.9 C116.25,631.03 118.48,638.65 118.48,638.65 C118.48,638.65 135.73,641.35 147.12,641.11 C158.51,640.87 162.19,637.43 167.59,637.43 C172.99,637.43 194.35,637.18 195.59,636.69 C197.14173,635.81068 198.619873,634.807415 200.01,633.69 L200.01,603.99 C199.865493,601.026447 199.187995,598.113207 198.01,595.39 L196.3,568.39 L192.88,563.12 C192.88,563.12 181.57,569.94 170.88,568.92 C160.19,567.9 148.61,563.81 148.61,563.81 Z" id="Path" fill="#C3E5F4" fill-rule="nonzero"></path>
        <path d="M118.479994,638.69 L118.479994,641.21 C118.47677,642.934729 119.697244,644.419429 121.39,644.75 C129.553066,646.2746 137.881659,646.715071 146.16,646.06 C162.43,644.83 168.08,642.66 172.25,642.52 C176.42,642.38 195.58,642.16 198.25,641.17 L198.25,641.17 C199.82222,640.586433 200.766834,638.977245 200.51,637.32 L199.97,633.78 C199.97,633.78 176.89,637.96 167.56,637.47 C158.23,636.98 150.86,640.2 139.08,640.06 C132.192924,639.993976 125.315166,639.536572 118.479994,638.69 L118.479994,638.69 Z" id="Path" fill="#90A5C4" fill-rule="nonzero"></path>
        <path d="M280.56,589.46 C279.402729,592.451994 279.402729,595.768006 280.56,598.76 C282.56,603.61 288.56,617.26 289.81,622.76 C290.371104,625.556634 291.180991,628.297534 292.23,630.95 C292.921364,632.387878 292.921364,634.062122 292.23,635.5 C291.02,637.62 292.77,640.1 292.77,640.1 L286.23,654 C286.23,654 280.78,655.82 279.68,662.8 C278.58,669.78 280.68,671.29 281.31,672.5 C281.94,673.71 288.31,676.75 301.03,677.05 C313.75,677.35 319.23,676.14 320.75,674.32 C322.27,672.5 330.15,666.13 332.58,657.94 C335.01,649.75 331.97,638.83 332.58,635.8 C333.19,632.77 331.67,605.31 331.06,598.11 C330.45,590.91 324.85,583.4 324.85,583.4 C317.649037,587.958282 309.248556,590.256921 300.73,590 C286.17,589.66 280.56,589.46 280.56,589.46 Z" id="Path" fill="#C3E5F4" fill-rule="nonzero"></path>
        <path d="M281.31,672.46 C281.31,672.46 280.4,677.92 285.31,680.35 C290.22,682.78 302.31,683.69 313.52,681.87 C324.73,680.05 331.52,674.87 333.58,669.13 C335.64,663.39 336.27,661.85 336.27,656.99 C336.196292,653.856088 335.517154,650.766011 334.27,647.89 C334.27,647.89 335.02,670.34 318.04,673.68 C301.06,677.02 282.94,675.76 281.31,672.46 Z" id="Path" fill="#90A5C4" fill-rule="nonzero"></path>
        <path d="M273.73,534.76 C273.73,534.76 279.45,565.34 282.03,567.3 C284.61,569.26 291.65,569.3 297.55,567.3 C303.45,565.3 306.91,565.3 306.94,561.42 C306.94,558.3 300.94,536.78 298.56,528.14 C297.973791,526.05865 295.927224,524.741467 293.79,525.07 C286.8,526.16 272.61,529.07 273.73,534.76 Z" id="Path" fill="#C3E5F4" fill-rule="nonzero"></path>
        <path d="M355.79,471.41 C363.91,462.55 374.46,459.8 388.22,465.15 L394.05,488.53 C394.05,488.53 411.52,497.27 413.62,501.81 C415.72,506.35 418.37,509.37 418.14,511.27 C417.91,513.17 415.79,514.58 414.14,513.41 C412.49,512.24 409.45,506.14 405.22,503.32 C402.875942,501.712876 400.360495,500.371305 397.72,499.32 C397.72,499.32 404.05,506.58 405.46,510.69 C406.87,514.8 409.46,519.69 408.04,521.6 C406.62,523.51 403.35,524.18 403.11,522.78 C402.87,521.38 398.42,511.05 396.78,508.93 L395.14,506.82 C395.165765,509.581433 395.477427,512.332774 396.07,515.03 C397.01,518.79 399.36,523.48 397.95,524.89 C396.54,526.3 393.49,525.36 392.56,524.89 C391.63,524.42 387,506 387,506 C385.676829,507.191262 384.972902,508.923437 385.09,510.7 C385.32,513.64 387.97,525.45 387,525.64 C386.03,525.83 382.51,528.03 380.87,525.64 C379.23,523.25 378.05,511.52 377.35,508.71 C376.65,505.9 374.77,500.71 374.77,500.71 C374.77,500.71 370.54,504.71 368.9,505.98 C367.26,507.25 361.39,511.92 359.52,511.24 C357.65,510.56 353.65,509.63 354.83,507.75 C356.01,505.87 360.92,505.41 360.92,503.75 C360.92,502.09 361.39,497.69 363.04,495.91 C364.69,494.13 368.2,491.06 368.2,491.06 L355.79,471.41 Z" id="Path" fill="#90A5C4" fill-rule="nonzero"></path>
        <path d="M240.67,258.51 C240.67,258.51 239.27,257.19 239.97,253.89 C240.67,250.59 254.04,230.77 289.12,241.21 C324.2,251.65 327.89,292.46 327.89,292.46 L325.89,294.86 C325.89,294.86 314.08,254.21 288.18,245.33 C251.73,232.85 240.67,258.51 240.67,258.51 Z" id="Path" fill="#BFD1E8" fill-rule="nonzero"></path>
        <path d="M162.48,0.45 C162.48,0.45 210.09,3.28 224.99,4.11 C239.89,4.94 319.37,21.5 319.37,21.5 L290.3,129.5 C290.3,129.5 233.68,119.98 212.57,119.15 C191.46,118.32 137.65,114.6 137.65,114.6 L162.48,0.45 Z" id="Path" fill="#DFEAF7" fill-rule="nonzero"></path>
    </g>
</svg>