<svg width="1728" height="650" viewBox="0 0 1728 650" xmlns="http://www.w3.org/2000/svg"><g fill="none" fill-rule="evenodd"><path d="M1728 214.645c-.486-7.813-1.71-14.678-2.222-16.223-3.607-10.932-11.568-17.124-22.398-20.093-4.75-1.301-9.445-2.773-14.177-4.125-7.16-2.047-10.84-7.629-14.347-13.428 6.206 2.32 11.829 5.77 19.816 6.463-2.159-2.064-3.39-3.154-4.524-4.332-5.245-5.466-8.105-12.08-8.537-19.561-.53-9.177-.378-18.396-.98-27.566-1.25-18.757-2.528-37.523-4.354-56.23-1.25-12.775-5.433-24.583-14.375-34.326-10.452-11.38-23.567-18.333-37.95-23.19-3.005-1.016-6.235-1.597-9.4-1.839-16.57-1.265-31.7 3.754-46.174 11.123-2.393 1.217-4.435 3.355-6.27 5.397-4.677 5.21-7.529 11.386-9.004 18.224-1.268 5.85-2.366 11.742-3.913 17.517-2.15 8.002-2.23 15.939-.576 24.023 1.305 6.368 1.206 12.679-.9 19.014-4.83 14.548-4.668 29.016 1.575 43.22.846 1.93 1.538 3.93 1.88 4.823-2.815 10.295-10.857 11.74-19.7 13.405 3.4 5.43 6.36 10.153 9.508 15.165-1.745.398-3.166.721-4.596 1.056-10.183 2.386-20.357 4.838-30.557 7.147-10.759 2.435-17.397 9.518-21.94 19.059-.9 1.886-1.745 9.229-2.519 20.828a2127.99 2127.99 0 00-19.232-7.124c-3.796-1.39-7.78-2.285-12.512-3.642-2.23-6.884-4.12-14.355-13.52-14.386.63-4.315 1.35-8.23 1.736-12.177.225-2.368 1.08-4.01 3.22-5.107 8.762-4.501 13.367-12.404 16.84-21.103 5.748-14.364 9.049-29.396 12.017-44.523.9-4.56 2.222-9.063 3.697-13.475 3.257-9.755 1.566-19.164-2.365-28.12-4.813-10.928-12.26-19.575-24.018-23.66-.54-.19-.98-.684-2.402-1.707l15.04-.56c-6.377-18.964-30.25-26.432-57.264-18.058-.134-1.215-.27-2.363-.431-3.826-7.565-1.357-13.466 2.82-20.672 6.706 1.494-2.848 2.51-4.808 4.282-8.185-12.638 2.28-23.621 4.484-30.97 14.309-5.524 7.395-4.993 16.801.998 25.995-2.888.817-5.766 1.336-8.402 2.434-8.195 3.412-11.784 10.548-13.106 18.574-1.034 6.247-3.4 11.86-5.586 17.636-1.124 2.986-2.006 6.07-3.166 9.641-1.817.427-4.03 1.091-6.288 1.441-3.58.556-4.93 2.671-5.352 6.118-1.008 8.204 1.088 16.199 1.268 24.278.162 7.286 4.552 12.677 7.052 18.831 1.053 2.59 5.613 3.756 8.573 5.57l.89-.953c2.042 5.782 4.093 11.562 6.27 17.73l-5.028 1.128c-.468.53-.684.668-.729.85a10940.16 10940.16 0 00-5.829 23.55c-.504.279-1.034.817-1.583.838-20.545.829-39.372 7.648-57.624 16.443-6.773 3.264-13.367 6.908-20.15 10.147-3.814-10.04-11.531-15.826-21.876-18.663-4.75-1.3-9.445-2.771-14.177-4.124-7.16-2.047-10.84-7.63-14.347-13.428 6.207 2.321 11.829 5.77 19.816 6.463-2.158-2.065-3.39-3.153-4.524-4.333-5.244-5.464-8.105-12.08-8.537-19.56-.54-9.177-.378-18.396-.99-27.565-1.24-18.758-2.518-37.524-4.344-56.232-1.25-12.775-5.433-24.583-14.374-34.325-10.453-11.38-23.568-18.333-37.952-23.19-3.004-1.015-6.233-1.596-9.409-1.838-16.56-1.266-31.69 3.752-46.173 11.121-2.384 1.218-4.425 3.356-6.26 5.398-4.67 5.209-7.53 11.387-9.005 18.223-1.268 5.85-2.366 11.744-3.913 17.519-2.15 8.002-2.23 15.937-.575 24.022 1.304 6.367 1.205 12.68-.9 19.014-4.83 14.549-4.669 29.015 1.565 43.22.855 1.93 1.547 3.929 1.89 4.824-2.816 10.294-10.858 11.738-19.7 13.404 3.4 5.431 6.36 10.154 9.507 15.164-1.745.4-3.175.722-4.596 1.057-10.183 2.386-20.357 4.839-30.557 7.148-6.774 1.532-11.91 4.906-15.922 9.573-5.1-.678-10.246-1.19-15.364-1.787-2.042-.238-3.607-.584-3.877-3.201 1.331-.36 2.735-1.092 4.111-1.044 6.225.22 10.093-2.341 11.082-8.703.036-.194.477-.325.72-.482 3.769 4.866 4.237 5.045 10.165 3.968a137.45 137.45 0 014.893-.815c10.38-1.496 10.228-4.824 11.334-12.608.126-.902.072-1.842.01-2.758-.963-12.978-2.15-25.945-2.852-38.937-.801-14.758-3.482-29.144-7.916-43.185-3.598-11.38-7.17-22.793-15.355-32.07-7.125-8.075-16.075-11.39-26.519-10.73-3.409.216-6.791 1.573-10.083 2.712-2.123.735-3.868 1.112-6.27.414-3.814-1.109-7.97-1.848-11.9-1.55-8.564.654-16.39 3.805-23.452 8.826-9.463 6.73-15.597 16.012-20.212 26.387-12.461 28.016-17.639 57.812-21.153 87.99-.21 1.805-.237 3.766.258 5.48.533 1.85 1.412 3.914 2.802 5.126 2.173 1.895 4.798 3.372 7.423 4.623 3.177 1.516 6.577 2.807 9.357-.942 4.66 8.373 10.47 11.108 19.78 9.72 1.08-.16 2.267.407 3.724.701-.701 2.202-1.241 3.913-1.853 5.843-1.96.245-3.76.519-5.568.685-8.221.76-16.452 1.353-24.656 2.255-8.107.89-14.702 3.518-19.84 7.801-5.883-2.022-11.876-3.808-17.776-5.752-2.969-.98-6.26-.985-9.54-1.457l-4.771-23.02-4.418-1.986 6.278-14.972c.792-.237 1.385-.483 2.003-.587 8.61-1.455 11.816-7.438 8.137-15.25-1.186-2.521-2.27-5.106-3.662-7.51-3.32-5.743-3.045-11.54-.17-17.202 2.8-5.51 2.828-11.044 1.352-16.84-.895-3.512-1.602-7.076-2.233-10.647-1.582-8.936-3.92-17.47-9.753-24.82-7.56-9.53-16.955-16.232-28.47-20.025-5.486-1.807-11.278-2.987-16.405-5.518-8.65-4.271-17.049-3.535-25.451-.144-5.744 2.318-11.396 5-16.76 8.092-7.954 4.584-14.26 10.72-17.398 19.798-6.461 18.693-11.822 37.469-9.516 57.64 1.34 11.73 4.445 22.712 11.91 32.02 2.364 2.947 6.578 4.689 8.203 7.871 1.63 3.19 1.099 7.492 1.483 11.308.06.59-.049 1.195-.042 1.063-3.194 1.773-6.411 2.782-8.47 4.911-2.282 2.361-3.506 5.747-4.538 7.546-11.465 3.576-22.617 6.86-33.56 10.312-12.17-5.846-24.898-10.249-38.635-12.003-.546-.07-1.027-.651-1.506-.973-1.263-8.063-2.506-16.015-3.765-23.966-.03-.186-.239-.343-.655-.91l-4.913-1.56 7.78-17.12.804 1.025c3.11-1.549 7.755-2.315 9.027-4.804 3.022-5.916 7.862-10.906 8.656-18.151.88-8.033 3.659-15.817 3.368-24.076-.124-3.471-1.284-5.694-4.805-6.559-2.218-.544-4.362-1.397-6.14-1.98-.85-3.66-1.453-6.807-2.32-9.88-1.678-5.943-3.55-11.74-4.034-18.053-.622-8.109-3.581-15.53-11.449-19.638-2.533-1.323-5.356-2.089-8.16-3.153 6.769-8.64 8.105-17.966 3.24-25.811-6.46-10.425-17.214-13.573-29.606-16.938l3.552 8.525c-6.841-4.496-12.36-9.168-20.012-8.471l-.763 3.775c-26.179-10.683-50.614-5.31-58.608 13.029l14.933 1.862c-1.503.895-1.983 1.35-2.544 1.491-12.065 3.051-20.235 11.021-25.97 21.492-4.7 8.581-7.199 17.809-4.795 27.808 1.087 4.525 2.018 9.125 2.516 13.745 1.65 15.329 3.635 30.59 8.112 45.397 2.713 8.968 6.61 17.239 14.952 22.482 2.035 1.28 2.743 2.988 2.767 5.367.038 3.966.416 7.928.674 12.281-9.366-.782-11.893 6.497-14.718 13.161-4.824.943-8.873 1.488-12.784 2.545-12.195 3.295-24.377 6.65-36.49 10.235-11.998 3.55-23.157 8.905-33.326 16.286a29.05 29.05 0 00-3.484 2.971 2415.534 2415.534 0 00-4.314-13.917c-1.464-4.665-3.35-9.365-5.955-13.467-7.778-12.248-20.134-17.6-33.66-20.27-9.636-1.9-19.481-2.767-29.254-3.909-2.379-.278-4.204-.68-4.523-3.73 1.554-.418 3.187-1.272 4.788-1.215 7.256.256 11.76-2.73 12.92-10.142.037-.226.55-.378.836-.561 4.387 5.67 4.937 5.877 11.848 4.624a156.13 156.13 0 015.693-.95c12.096-1.744 11.92-5.622 13.207-14.692.15-1.051.094-2.147.015-3.214-1.118-15.122-2.503-30.231-3.324-45.37-.933-17.196-4.056-33.96-9.228-50.32-4.19-13.26-8.35-26.56-17.888-37.37-8.303-9.41-18.73-13.273-30.901-12.503-3.972.251-7.91 1.834-11.744 3.16-2.478.857-4.512 1.298-7.311.483-4.44-1.291-9.29-2.153-13.86-1.805-9.988.761-19.107 4.432-27.332 10.284-11.026 7.84-18.17 18.658-23.547 30.746-14.523 32.645-20.556 67.364-24.652 102.527-.245 2.104-.276 4.39.3 6.389.622 2.153 1.647 4.56 3.267 5.972 2.532 2.208 5.59 3.928 8.649 5.386 3.706 1.767 7.661 3.27 10.903-1.097 5.424 9.756 12.203 12.942 23.044 11.327 1.26-.188 2.647.474 4.34.815l-2.16 6.809c-2.282.284-4.377.604-6.486.799-9.533.88-19.088 1.57-28.603 2.613-.947-1.406-2.32-2.561-4.15-3.596-11.937-6.751-23.46-14.345-35.795-20.257-9.965-4.776-20.83-7.716-31.385-11.195-2.97-.98-6.26-.985-9.54-1.457-1.62-7.82-3.174-15.313-4.772-23.02l-4.418-1.986c2.195-5.235 4.25-10.133 6.278-14.973.792-.235 1.387-.482 2.004-.585 8.61-1.457 11.815-7.438 8.137-15.25-1.187-2.522-2.27-5.107-3.661-7.512-3.321-5.74-3.047-11.54-.171-17.2 2.8-5.51 2.827-11.045 1.35-16.841-.893-3.51-1.6-7.077-2.232-10.646-1.581-8.937-3.92-17.47-9.752-24.822-7.561-9.53-16.955-16.23-28.47-20.024-5.487-1.807-11.279-2.987-16.405-5.518-8.65-4.272-17.05-3.535-25.452-.145-5.743 2.318-11.396 5-16.76 8.093-7.954 4.584-14.26 10.72-17.398 19.798-6.461 18.693-11.822 37.468-9.516 57.64 1.34 11.73 4.446 22.713 11.91 32.02 2.364 2.948 6.578 4.689 8.204 7.871 1.63 3.192 1.098 7.491 1.483 11.308.058.59-.05 1.196-.042 1.062-3.195 1.774-6.412 2.784-8.47 4.912-2.282 2.362-3.507 5.747-4.537 7.547-18.09 5.64-35.402 10.557-52.337 16.543-7.366 2.604-14.066 7.223-20.83 11.322-2.006 1.216-3.943 3.54-4.645 5.757-.483 1.524-.98 8.122-1.484 17.993.394.07.394 146.429 0 439.077h1728c-.572-290.067-.572-435.186 0-435.355z" fill="#000"/><path d="M952.325 233.544c.036.498.072.995.099 1.494-4.642 1.513-9.256 3.09-13.925 4.514-2.457.75-4.96 1.35-7.468 1.892l.047.71c-4.642 1.513-9.265 3.089-13.934 4.514a76.709 76.709 0 01-4.335 1.177c-5.128 2.68-9.92 6.07-14.365 10.241.111-2.452.718-4.86 1.726-7.12l.252.132a172.761 172.761 0 00-6.356-3.235 96.145 96.145 0 00-3.455-1.564 22.342 22.342 0 015.57-1.72 305.66 305.66 0 019.76-1.45c3.213-2.875 7.229-4.932 11.59-5.664 7.952-1.336 15.985-2.21 23.973-3.335 2.365-.332 4.686-.956 7.052-1.173 1.232-.112 2.51.372 3.769.587zM792.392 81.8l.401.054c14.334 1.976 28.165 5.841 39.304 15.78 4.277 3.815 7.857 8.415 11.72 12.688.416.46.714 1.098.878 1.706l3.058 11.32c2.035 7.549 4.053 15.102 5.999 22.675.396 1.546.476 3.579-.203 4.933-4.32 8.628-4.693 17.058.258 25.58 1.271 2.19 2.015 4.687 3.348 7.867l-5.902 2.216-2.753-6.66-.37.691c-.83 1.534-1.438 2.542-1.88 3.62-2.434 5.943-4.696 11.96-7.237 17.856-2.39 5.542-.2 10.92.495 16.294.139 1.081 2.98 1.813 4.912 2.894.285 3.201.699 6.567.899 9.961l.064 1.274c.172 4.116 1.986 6.955 5.841 8.328 3.222 1.148 6.538 2.033 9.78 3.127 4.576 1.545 9.125 3.173 13.685 4.767-.291.425-.564.871-.838 1.317-6.69-1.372-13.445-2.5-20.031-4.256-4.783-1.276-9.332-3.401-14.029-5.028l-1.087-.366c-2.566-.838-3.956-2.127-3.712-4.816l.028-.256c.895-7.158-.669-14.072-2.324-20.932-.84-3.487-.57-6.548.851-9.89 5.717-13.437 10.239-27.274 12.026-41.831.644-5.24.664-10.555.938-15.843l.081-1.44c.325-5.234-.603-10.223-2.59-15.06l-.287-.695c-.479-1.171-.935-2.391-.978-3.598-.42-11.764-7.934-18.565-16.652-24.85-15.34-11.059-32.864-14.546-51.173-15.646 5.21-4.136 11.456-4.558 17.48-3.78zm286.074 137.857a148.83 148.83 0 01-.342 1.96l-10.773 2.937c-3.59.979-7.181 1.95-10.78 2.899-4.2 1.105-8.391 2.223-12.536 3.46l.384.067c7.196 1.3 13.214 5.349 18.845 9.752 1.961 1.534 2.978 4.279 4.417 6.47l-1.035.888c-1.33-1.026-2.815-1.906-3.966-3.102-5.356-5.552-11.6-8.629-19.466-8.794l-.504-.007c-5.776-.03-11.568-.88-17.332-1.605l-1.826-.227c-2.84-.38-2.927-.812-4.599-5.263 2.267-.188 4.372-.672 6.405-.473l.466.043c1.474-.526 2.994-.934 4.508-1.314 13.277-3.332 26.51-6.834 39.877-9.751 2.482-.543 5.496 1.312 8.257 2.06zm-320.882-24.876c3.502 1.33 4.552 3.357 4.584 5.768.108 8.298.041 16.599.041 25.628l-7.924 1.52c-1.191 5.518-5.222 8.307-10.816 10.072l-.352.11c-7.361 2.241-14.7 4.56-22.032 6.899-1.17-.675-2.345-1.34-3.523-1.995 6.21-2.241 12.43-4.452 18.668-6.61 2.578-.89 5.463-.893 8.421-.81 4.122-3.341 2.357-9.326 5.286-13.823h8.912l-1.265-26.759zm-95.956-54.523c1.55 1.6 3.268 2.586 3.2 3.426-.61 7.454 2.76 13.69 5.663 20.102.77 1.703 1.306 3.512 2.249 6.092l-6.827 2.01-2.562-7.659c-1.167 2.009-1.854 2.953-2.304 4.001-2.209 5.153-4.4 10.314-6.57 15.483l-2.163 5.172c-.558 1.343-1.321 2.803-1.25 4.17.24 4.663.812 9.308 1.314 14.549l5.27.96c.237.866.518 1.465.55 2.077.196 3.843.34 7.69.497 11.536.167 4.122 1.854 7.212 5.74 8.82l.303.121c2.194.841 4.322 1.956 6.588 2.487 7.641 1.789 14.741 4.918 21.8 8.148a464.14 464.14 0 00-5.013 1.73c-.388.137-.767.302-1.152.45-3.201-.85-6.384-1.753-9.474-2.9-9.4-3.495-18.617-7.476-27.926-11.214-2.142-.86-2.763-2.532-2.42-4.47l.039-.202c1.668-7.982-.265-15.72-1.934-23.346-.902-4.116-.065-7.374 1.298-11.048 4.305-11.6 8.514-23.246 12.31-35.019 1.477-4.575 1.753-9.536 2.774-15.476zm353.988 96.729c2.492.314 4.983.663 7.448 1.108.432.078.846.166 1.268.261a80.52 80.52 0 00-8.356 4.704c-.972-.075-1.934-.163-2.906-.263.441-1.946 1.332-3.94 2.546-5.81zm-11.613-1.252l2.753.27a52.697 52.697 0 00-1.116 2.181c-.297.639-.593 1.864-.89 3.605l-.977-.123-1.386-.172c-3.018-.388-3.071-.74-4.78-5.288 2.267-.188 4.363-.672 6.396-.473zm-695.521-24.599l.118 1.74c-5.408 1.764-10.795 3.6-16.234 5.261-3.066.936-6.2 1.673-9.337 2.343l-1.202.264a85.95 85.95 0 00-7.464 2.065l-.001-.01c-10.602 3.45-20.18 8.97-28.665 16.934.517-11.423 10.257-22.018 22.24-24.029 4.814-.808 9.653-1.472 14.496-2.106l7.266-.945.854-.11c1.776-.235 3.55-.475 5.323-.724 2.749-.387 5.457-1.115 8.213-1.367 1.431-.13 2.926.434 4.393.684zm248.1-3.57c.8.103 1.58.375 2.504.607-.28 2.283-.8 4.361-.738 6.421.152 5.051-3.089 8.134-6.898 9.39l-6.188 1.927c-7.942 2.45-15.99 4.65-24.622 4.38 7.454-2.769 14.851-5.715 22.409-8.166 1.598-.518 3.782.773 6.584 1.442l4.543-16.023c.857 0 1.643-.076 2.406.022zm782.173-82.443c.503 6.006.35 10.973 1.421 15.658 2.51 10.961 5.37 21.847 8.336 32.7l.893 3.254c1.044 3.778 1.592 7.096.342 11.119l-.924 2.947c-1.964 6.303-3.757 12.712-3.094 19.506l.07.638c.242 2.053-.496 3.752-2.78 4.447-9.598 2.918-19.125 6.086-28.794 8.753-5.497 1.515-11.2 2.278-16.822 3.306-4.452.813-8.923 1.513-13.385 2.264.585-1.137 1.287-1.657 2.07-1.902 11.603-3.625 22.74-8.777 34.919-10.534 2.093-.302 4.12-1.096 6.167-1.723l.615-.183c4.22-1.21 6.252-4.187 6.792-8.385.486-3.817.962-7.637 1.493-11.45.081-.606.414-1.179.729-2.02l5.334-.501c.953-5.178 1.925-9.756 2.564-14.38.198-1.356-.441-2.876-.882-4.262a2199.258 2199.258 0 00-6.908-21.334c-.36-1.082-.963-2.084-1.952-4.186l-3.212 7.409-6.63-2.594.415-.9c.923-2.026 1.554-3.549 2.356-4.975l2.235-3.933c2.703-4.813 5.113-9.727 5.142-15.603.009-.843 1.808-1.676 3.49-3.136zm-946.197 80.22l.512.016c.17.01.34.022.51.038l3.427.336c6.287.621 12.577 1.295 18.78 2.416 8.385 1.515 15.405 6.233 21.964 11.364 2.285 1.787 3.466 4.985 5.151 7.539l-1.211 1.034c-1.55-1.195-3.276-2.22-4.62-3.614-6.257-6.483-13.548-10.07-22.735-10.248l-.533-.007c-6.794-.035-13.595-1.044-20.37-1.891l-1.889-.235c-3.377-.446-3.46-.918-5.425-6.141 2.04-.17 3.961-.544 5.821-.6l.618-.006zm1047.412-3.88l2.834 14.758.305 1.598c2.852-.424 5.137-1.52 6.684-.865 7.322 3.096 14.437 6.671 21.625 10.076-10.786-.599-20.32-4.964-29.919-8.854-3.717-1.506-6.761-4.785-6.329-9.732l.032-.318c.243-2.048-.09-4.162-.17-6.462.935-.151 1.736-.354 2.545-.388.765-.031 1.538.113 2.393.188zm116.741-20.624l-.35 1.96c-7.188 1.948-14.357 3.94-21.553 5.835l-3.409.904c-14.19 3.79-28.197 8.042-40.399 16.887.1-6.122 5.667-13.624 12.054-16.2 1.559-.627 3.186-1.097 4.822-1.518l.701-.178c13.268-3.332 26.5-6.834 39.868-9.75 2.482-.543 5.496 1.312 8.266 2.06zM96.43 127.15c3.502 1.33 4.551 3.357 4.583 5.768.109 8.299.041 16.6.041 25.629l-7.924 1.518c-1.191 5.52-5.221 8.308-10.816 10.073l-.351.11c-18.848 5.74-37.563 11.918-56.33 17.921-.552.176-1.126.281-1.69.419l-.355-.933c5.26-2.104 10.475-4.33 15.789-6.287 11.865-4.37 23.749-8.694 35.698-12.825 2.578-.892 5.464-.895 8.422-.81 4.121-3.344 2.356-9.326 5.286-13.824h8.912l-1.265-26.76zm35.21-112.927c14.332 1.977 28.164 5.841 39.302 15.78 4.278 3.816 7.858 8.414 11.72 12.688.416.46.715 1.098.878 1.705l3.058 11.322c2.035 7.549 4.054 15.102 5.999 22.674.397 1.547.477 3.579-.202 4.934-4.321 8.627-4.693 17.056.258 25.58 1.272 2.19 2.015 4.686 3.347 7.867l-5.902 2.215-2.753-6.66-.369.691c-.83 1.534-1.439 2.542-1.88 3.62-2.434 5.943-4.696 11.96-7.238 17.856-2.39 5.542-.2 10.92.495 16.294.14 1.08 2.98 1.813 4.912 2.893.286 3.203.7 6.568.9 9.963l.064 1.273c.171 4.117 1.986 6.955 5.84 8.328 3.222 1.149 6.539 2.032 9.78 3.127 4.618 1.559 9.207 3.202 13.808 4.809l-.372 1.393c-6.881-1.426-13.84-2.565-20.62-4.374-4.783-1.276-9.332-3.4-14.03-5.028l-1.086-.366c-2.565-.838-3.956-2.127-3.712-4.815l.028-.256c.896-7.159-.667-14.073-2.323-20.933-.842-3.486-.57-6.548.851-9.89 5.716-13.437 10.238-27.274 12.025-41.83.703-5.717.662-11.524 1.02-17.285.324-5.234-.604-10.222-2.591-15.057l-.287-.697c-.478-1.171-.934-2.392-.978-3.598-.42-11.764-7.934-18.565-16.652-24.85-15.339-11.059-32.863-14.547-51.173-15.646 5.327-4.228 11.735-4.575 17.882-3.727zM575.737 56.55c-8.51 2.997-16.502 4.592-22.18 10.538-3.366 3.524-6.14 7.615-9.179 11.451 1.257 5.624-2.435 10.261-3.088 15.535-2.847 22.983.246 45.183 8.791 66.603 1.854 4.646 4.844 8.837 7.312 13.239-5.027-2.155-7.75-6.044-9.815-10.618-4.986-11.045-7.327-22.78-8.782-34.657-1.347-10.995-1.976-22.081-2.78-33.138-1.372-18.851 16.245-38.178 34.955-39.23 1.201-.068 2.416.131 4.766.277zM346.446 29.816c2.453.895 4.596 1.158 7.326.872l2.343-.238c8.327-.816 16.64-1.239 25.074.918 9.56 2.444 15.351 8.478 18.604 17.009 6.891 18.072 11.122 36.88 13.194 56.088 2.082 19.3 3.74 38.647 5.462 57.985l.52 5.801c.162 1.813 1.068 4.4-3.097 4.923-.981-8.994-1.52-17.52-2.911-25.903-2.411-14.539-5.224-29.017-8.161-43.461-.664-3.262-2.284-6.421-3.96-9.342-.679-1.182-2.61-1.865-4.107-2.3-1.79-.517-4.123.076-5.537-.854-7.68-5.052-15.996-3.801-24.307-2.968a12.794 12.794 0 00-3.12.74c-6.773 2.502-12.868 2.708-20.122-.13l-.486-.193c-7.58-3.082-16.569-2.083-24.71.779l-.487.174c-2.324.841-4.104.842-6.324-.055l-.306-.128c-9.89-4.283-18.912-.942-22.494 8.982l-1.408 3.918c-4.21 11.767-8.236 23.637-11.296 35.724-2.815 11.13-3.827 22.718-5.68 34.357-2.42.314-2.856-1.323-2.783-3.273l.008-.173c.334-6.397-.005-12.94 1.252-19.157 4.148-20.531 8.616-41.008 13.524-61.37 1.802-7.47 4.687-14.726 7.62-21.873l.464-1.128c8.846-21.513 25.777-32.992 47.973-37.377 2.454-.484 5.398.728 7.932 1.653zm1085.122 19.352l.708.014c1.906.027 2.998-.032 4.069.122 18.548 2.668 34.425 23.45 31.42 42.11-1.754 10.946-3.346 21.937-5.64 32.774-2.473 11.705-5.82 23.194-11.747 33.766-2.456 4.376-5.506 8.017-10.696 9.727 2.834-4.171 6.18-8.088 8.429-12.555 10.371-20.601 15.373-42.449 14.527-65.592-.189-5.31-3.472-10.25-1.727-15.745-2.698-4.084-5.11-8.4-8.159-12.203-5.136-6.414-12.962-8.695-21.184-12.418zm-347.255 19.53l1.242.283c-6.162 32.161-5.838 64.703-5.802 97.226l-1.25.318c-.576-.913-1.341-1.758-1.7-2.748-2.938-8.07-4.067-16.358-.983-24.488l.19-.488c4.192-10.475 3.257-21.012.99-31.495-1.556-7.153-1.241-13.981.837-20.848a451.098 451.098 0 014.506-14.041c.441-1.313 1.305-2.483 1.97-3.719zm-405.533 74.35l-2.744 16.603-1.51.357c-1.373-3.273-3.082-6.449-4.051-9.837-1.967-6.874.766-9.223 8.305-7.124zm650.305-8.815c-1.26 3.291-3.239 6.308-4.894 9.448l-1.475-.485-1.295-16.78c7.7-1.439 10.218 1.14 7.664 7.817zM651.24 80.68c3.862 1.656 7.134 6.519 8.16 11.025l.067.314c.47 2.297 1.513 4.537 2.641 6.64l.243.449c4.914 8.995 6.42 18.873 7.619 28.8l.09.745c.6 5.024-.206 5.488-6.236 4.731 0-2.447.239-5.006-.054-7.503-.47-4.005-1.259-7.976-1.972-11.95-.45-2.502-3.029-4.685-.798-7.642.404-.536-.444-2.255-1.081-3.33l-.086-.142c-2.538-4.177-5.209-8.276-8.092-12.816l3.241-.78-4.896-8.156c.225-.082.817-.53 1.154-.385zm911.308-50.8l1.25.285c-6.17 32.16-5.846 64.701-5.81 97.226l-1.25.316c-.577-.912-1.341-1.756-1.7-2.747-2.938-8.07-4.067-16.358-.983-24.488l.19-.488c4.192-10.475 3.257-21.011.99-31.495-1.556-7.153-1.241-13.982.846-20.847a427.46 427.46 0 014.497-14.043c.441-1.311 1.305-2.482 1.97-3.718zm-207.17 37.272l-5.587 7.702 3.166 1.057-3.964 5.16a414.282 414.282 0 00-5.21 6.908l-.198.276c-.713 1.02-1.606 2.538-1.27 3.08 1.97 3.141-.79 5.091-1.456 7.544-1.053 3.899-2.186 7.786-2.996 11.736-.504 2.463-.495 5.032-.701 7.47l-.563.02c-5.465.17-6.217-.456-5.287-5.041l.355-1.7c1.963-9.293 4.271-18.493 9.51-26.657l.42-.642c1.302-1.966 2.574-4.08 3.326-6.299l.163-.514c1.332-4.493 5.092-9.237 9.176-10.583.35-.115.9.382 1.115.483zm-259.92 19.128c5.523 5.187 11.801 4.597 18.88 1.96v10.023l-1.117-.353c-6.334-2.041-12.718-4.625-19.31-1.49-5.146-5.518-4.777-7.543 1.546-10.14zm36.628 1.38h7.008l.746 8.92c-2.824-2.927-9.859-2.38-7.754-8.92zm13.655-3.408c4.192 4.927 3.697 8.861-1.736 11.687 1.52-3.953-3.274-8.282 1.736-11.687zm-27.903 3.245h9.57l.307 4.073-9.877 3.914v-7.987zm41.432 2.132l9.247-4.808 1.26 7.355.459 2.691-10.966-5.238zm-5.793 2.619l-1.061-3.853 6.36 1.024c-1.08 3.27-3.176 2.912-5.299 2.829zm33.103-9.967c2.654 3.026 1.97 6.005.792 8.83h-15.95l-.935-4.832c.855.053 1.449-.05 1.916.14 6.702 2.664 10.003 1.776 14.177-4.138zm-412.088 3.387l-8.91 5.052-.563-1.147c3.07-1.488 5.544-4.232 9.473-3.905zM351.818 37.402c-3.22 1.1-6.412 2.284-9.907 3.536l-1.191-1.448c-3.379-4.053-3.96-3.95-9.208-1.61-4.291 1.914-8.42 4.206-12.562 6.437-7.387 3.975-12.685 10.102-16.995 17.114-1.204 1.957-2.155 4.246-2.536 6.498-1.01 5.972 2.593 9.481 8.47 8.551 1.895-.299 3.748-.936 5.647-1.1 3.545-.305 6.628-.039 9.532 2.886l.256.265c4.433 4.723 10.522 5.447 16.689 3.847 2.276-.59 4.589-1.477 6.587-2.714l.455-.292c4.436-2.94 8.12-2.371 12.953-.08 5.998 2.846 12.8 4.527 19.423 5.347 4.736.584 9.721-.786 14.603-1.463l.636-.084c5.505-.692 7.031-2.012 7.929-7.312.353-2.083.486-4.35.056-6.395l-.528-2.488c-1.545-7.127-3.468-14.152-8.944-19.552l-2.125-2.11c-5.213-5.165-10.63-10.028-19.149-8.775-.397.058-.85-.118-1.252-.256-6.447-2.196-12.675-.907-18.84 1.198zm282.2 4.301c10.455 2.495 18.24 13.739 15.039 23.276-1.592 4.747-5.638 8.68-8.689 12.898-.15.209-1.406-.381-3.149-.894l5.185-4.976.715-.68c5.385-5.114 5.267-11.744-.517-17.324l-4.145 8.939-7.697-10.868 6.906 1.285c1.707-4.913-2.688-7.777-3.647-11.656zM1374.8 29.33c-1.295 3.783-5.919 6.256-4.65 11.297l6.998-.681-8.618 10.16-3.355-9.264c-6.243 5.058-6.935 11.652-2.015 17.213l.984 1.113c1.318 1.498 2.692 3.078 4.404 5.033l-.453.096c-1.544.341-2.635.724-2.758.522-2.672-4.466-6.36-8.735-7.538-13.601-2.366-9.78 6.368-20.307 17.001-21.888zm198.895 18.132c5.523 5.187 11.802 4.597 18.882 1.96v10.023l-.745-.234c-6.457-2.057-12.962-4.806-19.684-1.61l-.427-.464c-4.692-5.17-4.169-7.153 1.974-9.675zm36.638 1.38h6.999l.746 8.92c-2.824-2.927-9.85-2.38-7.745-8.92zM583.578 37.268c10.126 1.31 19.493 4.565 27.99 10.152l.652.434c2.233 1.507 4.367 2.536 7.654 1.395l-3.54-8.362c1.072.21 1.763.156 2.196.463 3.305 2.343 6.559 4.756 9.545 7.92l-6.173-1.727.5 9.798c-8.53-4.369-16.294-9.366-24.762-12.396-8.507-3.044-17.714-4.13-26.979-6.154 4.32-1.741 8.479-2.097 12.917-1.523zm1040.4 8.164c4.192 4.926 3.697 8.86-1.736 11.686 1.53-3.951-3.265-8.282 1.736-11.686zm-27.903 3.244h9.57l.307 4.074-9.877 3.914v-7.988zm41.432 2.133l9.247-4.808 1.727 10.047-10.974-5.239zm-5.793 2.619l-1.061-3.853 6.36 1.024c-1.08 3.27-3.176 2.911-5.299 2.829zm33.103-9.967c2.654 3.027 1.97 6.006.791 8.83h-15.948l-.936-4.833c.855.053 1.449-.05 1.916.14 6.702 2.665 10.003 1.777 14.177-4.137zM1438.17 31.918c-9.41 1.214-18.674 1.497-27.418 3.793-8.698 2.286-16.866 6.591-25.735 10.205l1.34-9.718-6.297 1.187c3.248-2.894 6.702-5.016 10.192-7.064.459-.269 1.142-.154 2.23-.272l-4.254 8.025c3.073 1.375 5.253.633 7.518-.602l.227-.125c9.148-5.08 18.989-7.626 29.45-8.065 4.48-.188 8.591.527 12.747 2.636zM113.338 18.035l-8.91 5.051-.562-1.146c3.07-1.488 5.543-4.232 9.472-3.905z" fill="#FFF"/></g></svg>