<?xml version="1.0" encoding="UTF-8"?>
<svg width="1923px" height="416px" viewBox="0 0 1923 416" version="1.1" xmlns="http://www.w3.org/2000/svg" xmlns:xlink="http://www.w3.org/1999/xlink">
    <title>audience</title>
    <g id="audience" stroke="none" stroke-width="1" fill="none" fill-rule="evenodd">
        <g id="LOGOS-Y-GRAFICAMesa-de-trabajo-1-copia-3" fill-rule="nonzero">
            <path d="M610.45,217 C613.56,209.68 616.33,201.68 626.63,202.54 C626.34,197.76 625.93,193.4 625.88,189.04 C625.88,186.43 625.08,184.55 622.88,183.15 C613.71,177.39 609.43,168.3 606.45,158.45 C601.53,142.18 599.35,125.45 597.53,108.57 C596.935188,103.482624 596.013279,98.4388479 594.77,93.47 C592.13,82.47 594.87,72.34 600.04,62.92 C606.34,51.41 615.32,42.65 628.57,39.3 C629.557639,38.8518321 630.496015,38.3022118 631.37,37.66 L614.96,35.66 C623.74,15.51 650.59,9.61 679.35,21.34 C679.62,20.03 679.87,18.78 680.19,17.19 C688.6,16.43 694.66,21.56 702.19,26.5 C700.83,23.24 699.9,21 698.28,17.14 C711.9,20.83 723.71,24.29 730.81,35.75 C736.16,44.37 734.69,54.61 727.25,64.1 C730.314335,65.0823414 733.319344,66.2409392 736.25,67.57 C744.89,72.08 748.14,80.24 748.83,89.15 C749.36,96.08 751.42,102.45 753.26,108.98 C754.21,112.36 754.88,115.81 755.81,119.83 C757.81,120.48 760.12,121.41 762.56,122.01 C766.42,122.96 767.7,125.4 767.83,129.22 C768.15,138.29 765.1,146.84 764.13,155.67 C763.26,163.67 757.94,169.11 754.62,175.61 C753.23,178.35 748.12,179.19 744.7,180.89 L743.82,179.76 C741.04,185.9 738.25,192.03 735.27,198.57 L740.67,200.29 C741.13,200.91 741.36,201.08 741.39,201.29 C742.77,210.02 744.14,218.76 745.53,227.62 C746.05,227.97 746.53,228.62 747.18,228.69 C769.58,231.55 789.55,240.8 808.69,252.17 C817.59,257.45 826.13,263.38 835.23,268.29 C844.56,273.29 847.47,281.4 847.87,291.02 C848.2,299.02 848.13,381.42 848.43,389.42 C848.57,393.23 847.98,385.42 850.07,389.42 C851.32,391.79 848.7,386.01 847.39,389.42 C847.14,390.07 844.75,389.74 843.57,389.42 C831.32,386.06 818.77,390.23 806.37,389.42 C787.37,388.17 768.37,390.51 749.37,389.42 C738.37,388.79 727.27,390.34 716.27,389.42 C693.56,387.52 670.89,391.55 648.21,389.42 C643.53,388.98 638.85,389.49 634.21,389.42 C596.54,388.86 558.88,389.83 521.21,389.42 C516.51,389.37 511.81,389.42 507.11,389.42 C501.5,389.42 500.86,394.82 498.96,389.42 C495.53,379.67 498.31,295.91 501.43,286.97 C504.14,279.19 506.83,271.39 509.22,263.5 C510.961814,257.588252 514.65617,252.441534 519.7,248.9 C530.792099,240.881215 543.178735,234.826579 556.32,231 C569.63,227.06 583.01,223.37 596.41,219.75 C600.71,218.6 605.15,218 610.45,217 Z M729.67,209.26 C729.12,203.5 728.49,198.4 728.23,193.26 C728.15,191.75 728.99,190.15 729.6,188.68 C732.76,181.086667 735.956667,173.52 739.19,165.98 C739.69,164.83 740.44,163.79 741.73,161.59 L744.54,170 L752.04,167.79 C751.04,164.96 750.42,162.97 749.57,161.1 C746.38,154.1 742.68,147.2 743.35,139.01 C743.42,138.09 741.54,137.01 739.83,135.25 C738.71,141.78 738.41,147.25 736.83,152.25 C732.65,165.19 728.03,177.98 723.3,190.73 C721.8,194.73 720.88,198.34 721.87,202.87 C723.71,211.24 725.87,219.75 724,228.52 C723.53,230.74 724.18,232.67 726.61,233.65 C736.84,237.76 746.97,242.13 757.3,245.97 C763.17,248.15 769.3,249.53 775.4,251.19 C780.19,252.5 785.02,253.69 789.83,254.94 C789.490399,253.91999 788.734636,253.091557 787.75,252.66 C775.39,247.59 763.69,240.89 750.53,237.81 C748.058281,237.063079 745.639507,236.151027 743.29,235.08 C738.78,233.35 736.84,229.9 736.65,225.25 C736.48,221.03 736.32,216.8 736.1,212.58 C735.974384,211.802347 735.773438,211.038753 735.5,210.3 L729.67,209.26 Z M625.31,172.26 C622.6,167.42 619.31,162.82 617.31,157.71 C607.876671,134.549815 604.550392,109.3548 607.65,84.54 C608.37,78.74 612.42,73.65 611.04,67.47 C614.38,63.25 617.43,58.76 621.13,54.89 C627.36,48.35 636.13,46.6 645.49,43.31 C642.91,43.15 641.58,42.93 640.26,43 C619.7,44.16 600.35,65.39 601.85,86.11 C602.74,98.25 603.43,110.43 604.91,122.51 C606.51,135.51 609.08,148.46 614.56,160.59 C616.8,165.58 619.79,169.85 625.31,172.22 L625.31,172.26 Z M729,80 C732.17,85 735.1,89.49 737.89,94.08 C738.6,95.24 739.64,97.28 739.17,97.9 C736.72,101.15 739.56,103.54 740.05,106.29 C740.83,110.66 741.7,115.02 742.22,119.42 C742.399758,122.166517 742.419792,124.921159 742.28,127.67 C748.9,128.5 749.79,127.99 749.13,122.47 C747.79,111.29 746.19,100.14 740.66,90.01 C739.228228,87.5822474 738.1602,84.9576607 737.49,82.22 C736.49,77.17 732.79,71.62 728.49,69.76 C728.12,69.6 727.49,70.09 727.22,70.18 L732.6,79.18 L729,80 Z M694,35.23 C690.39,36.48 688,35.35 685.59,33.7 C676.166856,27.3901067 665.381869,23.4044252 654.12,22.07 C649.325718,21.3507388 644.426304,21.9273435 639.93,23.74 C650.11,25.96 660.22,27.16 669.57,30.5 C678.92,33.84 687.4,39.32 696.78,44.12 C696.59,40.47 696.42,37.18 696.23,33.35 L703.01,35.25 C699.81473,32.0046903 696.300277,29.0899389 692.52,26.55 C692.05,26.21 691.29,26.27 690.11,26.04 L694,35.23 Z M706,38.33 C709.17,42.82 711.42,45.99 714.45,50.27 C716.27,46.37 717.62,43.44 719.01,40.45 C725.36,46.58 725.49,53.87 719.58,59.45 L713,65.72 C714.92,66.28 716.3,66.93 716.46,66.72 C719.82,62.09 724.26,57.77 726.01,52.55 C729.53,42.07 721.01,29.72 709.49,26.98 C710.49,31.24 715.37,34.39 713.49,39.78 L706,38.33 Z M585,234.14 C596.86,234.51 607.71,230.64 618.58,227.29 C622.88,225.97 626.58,222.56 626.43,216.89 C626.526116,214.523267 626.796852,212.166861 627.24,209.84 C626.337506,209.562056 625.419201,209.338324 624.49,209.17 C623.610871,209.114631 622.729129,209.114631 621.85,209.17 L616.85,226.77 C613.78,226.04 611.38,224.62 609.62,225.19 C601.25,227.88 593.12,231.12 584.93,234.16 L585,234.14 Z M754,156.94 L755.66,156.55 C756.666667,150.45 757.666667,144.366667 758.66,138.3 C750.37,136 747.37,138.58 749.53,146.13 C750.62,149.85 752.49,153.34 754,156.94 Z" id="Shape" fill="#000000"></path>
            <path d="M729.67,209.23 L735.46,210.29 C735.733438,211.028753 735.934384,211.792347 736.06,212.57 C736.28,216.79 736.44,221.02 736.61,225.24 C736.8,229.89 738.74,233.34 743.25,235.07 C745.599507,236.141027 748.018281,237.053079 750.49,237.8 C763.65,240.88 775.35,247.58 787.71,252.65 C788.694636,253.081557 789.450399,253.90999 789.79,254.93 C784.98,253.68 780.15,252.49 775.36,251.18 C769.3,249.52 763.13,248.18 757.26,245.96 C746.93,242.12 736.8,237.75 726.57,233.64 C724.14,232.64 723.49,230.73 723.96,228.51 C725.79,219.74 723.67,211.23 721.83,202.86 C720.83,198.33 721.76,194.75 723.26,190.72 C727.99,177.97 732.61,165.18 736.79,152.24 C738.41,147.24 738.71,141.77 739.79,135.24 C741.5,137 743.38,138.08 743.31,139 C742.64,147.19 746.31,154 749.53,161.09 C750.38,162.96 750.97,164.95 752,167.78 L744.5,169.99 L741.69,161.58 C740.4,163.78 739.69,164.82 739.15,165.97 C735.916667,173.516667 732.72,181.083333 729.56,188.67 C728.95,190.14 728.11,191.74 728.19,193.25 C728.49,198.37 729.12,203.47 729.67,209.23 Z" id="Path" fill="#FFFFFF"></path>
            <path d="M625.31,172.22 C619.79,169.85 616.8,165.58 614.53,160.55 C609.05,148.42 606.53,135.55 604.88,122.47 C603.4,110.39 602.71,98.21 601.82,86.07 C600.32,65.35 619.67,44.12 640.23,42.96 C641.55,42.89 642.88,43.11 645.46,43.27 C636.11,46.56 627.33,48.27 621.1,54.85 C617.4,58.72 614.35,63.21 611.01,67.43 C612.39,73.61 608.34,78.7 607.62,84.5 C604.520392,109.3148 607.846671,134.509815 617.28,157.67 C619.31,162.78 622.6,167.38 625.31,172.22 Z" id="Path" fill="#FFFFFF"></path>
            <path d="M729,80 L732.56,79.14 L727.18,70.14 C727.43,70.05 728.08,69.56 728.45,69.72 C732.79,71.58 736.45,77.13 737.45,82.18 C738.1202,84.9176607 739.188228,87.5422474 740.62,89.97 C746.15,100.1 747.75,111.25 749.09,122.43 C749.75,127.95 748.86,128.43 742.24,127.63 C742.379792,124.881159 742.359758,122.126517 742.18,119.38 C741.66,114.98 740.79,110.62 740.01,106.25 C739.52,103.5 736.68,101.11 739.13,97.86 C739.6,97.24 738.56,95.2 737.85,94.04 C735.07,89.51 732.14,85 729,80 Z" id="Path" fill="#FFFFFF"></path>
            <path d="M694,35.25 L690.11,26.06 C691.29,26.29 692.05,26.23 692.52,26.57 C696.300277,29.1099389 699.81473,32.0246903 703.01,35.27 L696.23,33.37 C696.42,37.2 696.59,40.49 696.78,44.14 C687.4,39.34 678.87,33.85 669.57,30.52 C660.27,27.19 650.11,25.98 639.93,23.76 C644.426304,21.9473435 649.325718,21.3707388 654.12,22.09 C665.381869,23.4244252 676.166856,27.4101067 685.59,33.72 C688,35.37 690.35,36.5 694,35.25 Z" id="Path" fill="#FFFFFF"></path>
            <path d="M705.92,38.35 L713.51,39.76 C715.38,34.37 710.51,31.22 709.51,26.96 C720.99,29.7 729.51,42.05 726.03,52.53 C724.28,57.75 719.84,62.07 716.48,66.7 C716.32,66.93 714.94,66.28 713.02,65.7 L719.51,59.48 C725.42,53.87 725.29,46.58 718.94,40.48 C717.55,43.48 716.2,46.4 714.38,50.3 C711.34,46 709.09,42.84 705.92,38.35 Z" id="Path" fill="#FFFFFF"></path>
            <path d="M584.93,234.16 C593.12,231.16 601.25,227.88 609.55,225.16 C611.31,224.59 613.71,226.01 616.78,226.74 L621.78,209.14 C622.659129,209.084631 623.540871,209.084631 624.42,209.14 C625.349201,209.308324 626.267506,209.532056 627.17,209.81 C626.726852,212.136861 626.456116,214.493267 626.36,216.86 C626.53,222.53 622.81,225.94 618.51,227.26 C607.64,230.66 596.79,234.53 584.93,234.16 Z" id="Path" fill="#FFFFFF"></path>
            <path d="M754,156.94 C752.49,153.34 750.62,149.85 749.55,146.13 C747.39,138.58 750.39,136 758.68,138.3 C757.68,144.36 756.68,150.443333 755.68,156.55 L754,156.94 Z" id="Path" fill="#FFFFFF"></path>
            <path d="M1619.35,226.3 C1632.35,231.07 1645.4,235.9 1658.35,240.98 C1671.10855,245.931024 1682.92322,253.034033 1693.28,261.98 C1698.02152,265.914051 1701.28935,271.339286 1702.55,277.37 C1704.25,285.43 1706.25,381.37 1708.28,389.37 C1710.61,398.54 1712.62,379.95 1708.36,389.37 C1706,394.58 1705.21,389.88 1699.62,389.37 C1694.94,388.94 1690.31,389.73 1685.62,389.37 C1648.05,386.52 1610.49,392.08 1572.91,389.37 C1568.24,389.03 1563.52,389.37 1558.83,389.37 C1536.04,389.53 1513.25,389.44 1490.47,389.37 C1479.47,389.37 1468.39,389.7 1457.35,389.37 C1438.35,388.81 1419.35,389.77 1400.28,389.37 C1387.86,389.11 1375.51,387.08 1363.02,389.37 C1361.82,389.59 1359.47,390.04 1359.27,389.37 C1358.27,385.86 1356.05,391.62 1357.49,389.37 C1359.92,385.58 1359.66,393.15 1360.13,389.37 C1361.13,381.43 1361.74,283.37 1362.76,275.47 C1363.99,265.92 1367.59,258.12 1377.32,253.92 C1386.81,249.82 1395.83,244.65 1405.16,240.16 C1425.16,230.49 1445.9,223 1468.47,222.09 C1469.07,222.09 1469.65,221.48 1470.21,221.17 C1472.36,212.47 1474.48,203.88 1476.61,195.3 C1476.66,195.1 1476.9,194.94 1477.41,194.36 L1482.94,193.12 C1480.54,186.35 1478.3,180 1476.05,173.64 L1475.05,174.69 C1471.79,172.69 1466.78,171.42 1465.62,168.57 C1462.88,161.81 1458.05,155.89 1457.88,147.88 C1457.68,139 1455.37,130.22 1456.48,121.21 C1456.95,117.42 1458.48,115.1 1462.36,114.49 C1464.84,114.1 1467.27,113.37 1469.27,112.9 C1470.55,108.98 1471.51,105.59 1472.75,102.31 C1475.15,95.96 1477.75,89.8 1478.89,82.93 C1480.34,74.12 1484.28,66.27 1493.29,62.53 C1496.18,61.32 1499.35,60.75 1502.52,59.85 C1495.93,49.75 1495.36,39.42 1501.43,31.29 C1509.49,20.5 1521.56,18.07 1535.43,15.57 C1533.5,19.28 1532.37,21.43 1530.74,24.57 C1538.65,20.3 1545.14,15.71 1553.45,17.2 L1553.92,21.41 C1583.59,12.21 1609.83,20.41 1616.83,41.25 L1600.31,41.86 C1601.12633,42.5715808 1602.01058,43.2012696 1602.95,43.74 C1615.87,48.23 1624.05,57.74 1629.33,69.74 C1633.66,79.58 1635.52,89.92 1631.94,100.64 C1630.27148,105.482225 1628.91208,110.425502 1627.87,115.44 C1624.61,132.06 1620.99,148.58 1614.67,164.36 C1610.85,173.92 1605.8,182.6 1596.17,187.55 C1593.82,188.75 1592.88,190.55 1592.63,193.16 C1592.21,197.5 1591.42,201.8 1590.72,206.54 C1601.05,206.54 1603.12,214.78 1605.58,222.34 C1610.79,223.79 1615.17,224.78 1619.35,226.3 Z M1481.64,204.82 C1481.30507,205.532536 1481.04048,206.27606 1480.85,207.04 C1480.26,211.23 1479.74,215.43 1479.2,219.62 C1478.61,224.23 1476.38,227.5 1471.74,228.83 C1469.30561,229.693256 1466.81686,230.394783 1464.29,230.93 C1450.91,232.86 1438.67,238.52 1425.92,242.5 C1424.89916,242.839804 1424.07279,243.600644 1423.65,244.59 C1428.55,243.77 1433.47,243 1438.36,242.1 C1444.53,240.97 1450.8,240.1 1456.84,238.47 C1467.46,235.54 1477.93,232.06 1488.47,228.85 C1490.98,228.09 1491.79,226.22 1491.47,223.97 C1490.41,215.07 1493.26,206.79 1495.81,198.6 C1497.19,194.18 1496.59,190.53 1495.44,186.38 C1491.84,173.27 1488.34,160.13 1485.3,146.88 C1484.12,141.73 1484.3,136.27 1483.74,129.68 C1481.89,131.28 1479.92,132.19 1479.91,133.12 C1479.91,141.34 1475.59,147.84 1471.8,154.58 C1470.8,156.38 1470.03,158.31 1468.8,161.04 L1476.08,163.89 C1477.22,161.26 1478.17,159.06 1479.61,155.75 C1480.7,158.06 1481.36,159.16 1481.75,160.35 C1484.31667,168.15 1486.84667,175.963333 1489.34,183.79 C1489.83,185.31 1490.52,186.98 1490.34,188.47 C1489.63,193.55 1488.56,198.58 1487.51,204.27 L1481.64,204.82 Z M1606.43,165.75 C1612.94,154.13 1616.62,141.51 1619.34,128.65 C1621.86,116.74 1623.6,104.65 1625.54,92.65 C1628.83,72.15 1611.39,49.31 1591.01,46.38 C1589.7,46.19 1588.35,46.3 1585.77,46.23 C1594.77,50.32 1603.39,52.83 1609.04,59.88 C1612.39,64.06 1615.04,68.8 1618.04,73.29 C1616.13,79.29 1619.73,84.75 1619.94,90.58 C1620.86286,115.576787 1615.35373,140.392014 1603.94,162.65 C1601.47,167.56 1597.8,171.86 1594.68,176.44 C1600.38,174.55 1603.74,170.56 1606.43,165.75 L1606.43,165.75 Z M1495.92,74.44 L1502.05,65.98 C1501.81,65.87 1501.21,65.32 1500.83,65.45 C1496.34,66.93 1492.21,72.14 1490.74,77.08 C1489.84037,79.7490613 1488.54964,82.2698488 1486.91,84.56 C1480.52,94.18 1477.91,105.15 1475.66,116.17 C1474.53,121.61 1475.36,122.17 1482.04,121.94 C1482.13428,119.190526 1482.39139,116.449055 1482.81,113.73 C1483.71,109.39 1484.95,105.12 1486.11,100.84 C1486.84,98.15 1489.87,96 1487.71,92.55 C1487.3,91.9 1488.51,89.96 1489.31,88.86 C1492.49,84.53 1495.8,80.3 1499.39,75.61 L1495.92,74.44 Z M1542.82,25.22 C1541.99259,25.1895009 1541.1656,25.2907653 1540.37,25.52 C1536.38466,27.7225643 1532.63224,30.322454 1529.17,33.28 L1536.09,31.97 C1535.57,35.77 1535.09,39.03 1534.61,42.65 C1544.37,38.65 1553.34,33.95 1562.9,31.44 C1572.46,28.93 1582.68,28.6 1593.01,27.27 C1588.68414,25.0758981 1583.85149,24.0748511 1579.01,24.37 C1567.67474,24.7331523 1556.58616,27.7725761 1546.65,33.24 C1544.06,34.67 1541.65,35.6 1538.14,34.03 L1542.82,25.22 Z M1518.29,36.84 C1516.88,31.3 1521.97,28.58 1523.39,24.43 C1511.71,26.16 1502.12,37.73 1504.71,48.43 C1506,53.78 1510.06,58.43 1512.99,63.38 C1513.14,63.62 1514.57,63.09 1516.53,62.7 C1514.17,60.02 1512.4,57.97 1510.61,55.95 C1505.2,49.84 1505.96,42.59 1512.82,37.03 C1513.94,40.13 1515.04,43.16 1516.51,47.21 L1525.97,36.05 L1518.29,36.84 Z M1605.79,230.57 C1604.09,229.85 1601.58,231.05 1598.45,231.52 C1597.32,225.67 1596.2,219.83 1595,213.52 C1594.12481,213.39893 1593.24332,213.328812 1592.36,213.31 C1591.41945,213.401605 1590.48469,213.545157 1589.56,213.74 C1589.79767,216.098755 1589.86451,218.471606 1589.76,220.84 C1589.1,226.47 1592.51,230.19 1596.68,231.84 C1607.22,236.12 1617.68,240.91 1629.54,241.57 C1621.65,237.9 1613.83,234 1605.79,230.57 Z M1473.16,139.68 C1475.97,132.35 1473.16,129.52 1464.75,131.1 C1465.21667,137.22 1465.69,143.363333 1466.17,149.53 L1467.79,150.07 C1469.61,146.61 1471.78,143.3 1473.16,139.68 L1473.16,139.68 Z" id="Shape" fill="#000000"></path>
            <path d="M1487.5,204.27 L1481.64,204.82 C1481.30507,205.532536 1481.04048,206.27606 1480.85,207.04 C1480.26,211.23 1479.74,215.43 1479.2,219.62 C1478.61,224.23 1476.38,227.5 1471.74,228.83 C1469.30561,229.693256 1466.81686,230.394783 1464.29,230.93 C1450.91,232.86 1438.67,238.52 1425.92,242.5 C1424.89916,242.839804 1424.07279,243.600644 1423.65,244.59 C1428.55,243.77 1433.47,243 1438.36,242.1 C1444.53,240.97 1450.8,240.1 1456.84,238.47 C1467.46,235.54 1477.93,232.06 1488.47,228.85 C1490.98,228.09 1491.79,226.22 1491.47,223.97 C1490.41,215.07 1493.26,206.79 1495.81,198.6 C1497.19,194.18 1496.59,190.53 1495.44,186.38 C1491.84,173.27 1488.34,160.13 1485.3,146.88 C1484.12,141.73 1484.3,136.27 1483.74,129.68 C1481.89,131.28 1479.92,132.19 1479.91,133.12 C1479.91,141.34 1475.59,147.84 1471.8,154.58 C1470.8,156.38 1470.03,158.31 1468.8,161.04 L1476.08,163.89 C1477.22,161.26 1478.17,159.06 1479.61,155.75 C1480.7,158.06 1481.36,159.16 1481.75,160.35 C1484.31667,168.15 1486.84667,175.963333 1489.34,183.79 C1489.83,185.31 1490.52,186.98 1490.34,188.47 C1489.62,193.55 1488.55,198.58 1487.5,204.27 Z" id="Path" fill="#FFFFFF"></path>
            <path d="M1594.68,176.43 C1600.38,174.55 1603.74,170.56 1606.43,165.75 C1612.94,154.13 1616.62,141.51 1619.34,128.65 C1621.86,116.74 1623.6,104.65 1625.54,92.65 C1628.83,72.15 1611.39,49.31 1591.01,46.38 C1589.7,46.19 1588.35,46.3 1585.77,46.23 C1594.77,50.32 1603.39,52.83 1609.04,59.88 C1612.39,64.06 1615.04,68.8 1618.04,73.29 C1616.13,79.29 1619.73,84.75 1619.94,90.58 C1620.86286,115.576787 1615.35373,140.392014 1603.94,162.65 C1601.47,167.55 1597.8,171.85 1594.68,176.43 Z" id="Path" fill="#FFFFFF"></path>
            <path d="M1499.39,75.61 L1495.92,74.44 L1502.05,65.98 C1501.81,65.87 1501.21,65.32 1500.83,65.45 C1496.34,66.93 1492.21,72.14 1490.74,77.08 C1489.84037,79.7490613 1488.54964,82.2698488 1486.91,84.56 C1480.52,94.18 1477.91,105.15 1475.66,116.17 C1474.53,121.61 1475.36,122.17 1482.04,121.94 C1482.13428,119.190526 1482.39139,116.449055 1482.81,113.73 C1483.71,109.39 1484.95,105.12 1486.11,100.84 C1486.84,98.15 1489.87,96 1487.71,92.55 C1487.3,91.9 1488.51,89.96 1489.31,88.86 C1492.49,84.53 1495.8,80.3 1499.39,75.61 Z" id="Path" fill="#FFFFFF"></path>
            <path d="M1538.15,34 L1542.82,25.19 C1541.99259,25.1595009 1541.1656,25.2607653 1540.37,25.49 C1536.38466,27.6925643 1532.63224,30.292454 1529.17,33.25 L1536.09,31.94 C1535.57,35.74 1535.09,39 1534.61,42.62 C1544.37,38.62 1553.34,33.92 1562.9,31.41 C1572.46,28.9 1582.68,28.57 1593.01,27.24 C1588.68414,25.0458981 1583.85149,24.0448511 1579.01,24.34 C1567.67474,24.7031523 1556.58616,27.7425761 1546.65,33.21 C1544.07,34.67 1541.64,35.6 1538.15,34 Z" id="Path" fill="#FFFFFF"></path>
            <path d="M1526,36.09 L1518.32,36.84 C1516.91,31.3 1522,28.58 1523.41,24.43 C1511.74,26.16 1502.15,37.73 1504.74,48.43 C1506.03,53.78 1510.09,58.43 1513.02,63.38 C1513.17,63.62 1514.6,63.09 1516.56,62.7 C1514.2,60.02 1512.43,57.97 1510.64,55.95 C1505.23,49.84 1505.99,42.59 1512.85,37.03 C1513.97,40.13 1515.07,43.16 1516.54,47.21 L1526,36.09 Z" id="Path" fill="#FFFFFF"></path>
            <path d="M1629.54,241.64 C1621.65,237.9 1613.83,233.97 1605.79,230.57 C1604.09,229.85 1601.58,231.05 1598.45,231.52 C1597.32,225.67 1596.2,219.83 1595,213.52 C1594.12481,213.39893 1593.24332,213.328812 1592.36,213.31 C1591.41945,213.401605 1590.48469,213.545157 1589.56,213.74 C1589.79767,216.098755 1589.86451,218.471606 1589.76,220.84 C1589.1,226.47 1592.51,230.19 1596.68,231.84 C1607.22,236.19 1617.7,241 1629.54,241.64 Z" id="Path" fill="#FFFFFF"></path>
            <path d="M1467.79,150.07 C1469.61,146.61 1471.79,143.3 1473.16,139.68 C1475.97,132.35 1473.16,129.52 1464.75,131.1 C1465.21667,137.22 1465.69,143.363333 1466.17,149.53 L1467.79,150.07 Z" id="Path" fill="#FFFFFF"></path>
            <path d="M1348,211.75 C1339.22,210.98 1333,207.19 1326.23,204.64 C1330.08,211.02 1334.13,217.15 1341.99,219.4 C1347.19,220.88 1352.35,222.5 1357.56,223.93 C1369.47,227.19 1378.22,233.99 1382.18,246.01 C1388.61,265.5 1393.13,368.73 1393.36,389.35 C1393.48,400.35 1390.04,387.87 1380.27,389.35 C1363.56,391.88 1346.85,387.41 1330.06,389.35 C1302.44,392.54 1274.62,388.65 1246.89,389.35 C1237.96,389.57 1229.04,389.44 1220.13,389.35 C1208.86,389.23 1197.58,390.35 1186.35,389.35 C1168.56,387.83 1150.83,390.99 1133.06,389.35 C1124.66,388.58 1117.13,394.47 1110.48,389.35 C1106.66,386.35 1105.26,393.89 1105.03,389.35 C1104.03,368.57 1107.4,265.94 1116.41,247.04 C1121.41,236.56 1128.69,228.78 1140.51,226.1 C1151.72,223.57 1162.9,220.87 1174.09,218.25 C1175.65,217.88 1177.22,217.53 1179.09,217.09 L1168.65,200.43 C1178.37,198.6 1187.2,197.01 1190.3,185.7 C1189.92,184.7 1189.16,182.52 1188.22,180.4 C1181.37,164.8 1181.22,148.9 1186.5,132.92 C1188.7037,126.1729 1189.04913,118.956747 1187.5,112.03 C1185.61709,103.304214 1185.83301,94.2560381 1188.13,85.63 C1189.83,79.29 1191.04,72.81 1192.43,66.39 C1193.90562,58.9659502 1197.32146,52.0652552 1202.33,46.39 C1204.33,44.14 1206.58,41.79 1209.21,40.45 C1225.12,32.36 1241.74,26.84 1259.94,28.23 C1263.45201,28.4728818 1266.92112,29.1445382 1270.27,30.23 C1286.07,35.57 1300.48,43.23 1311.97,55.71 C1321.79,66.42 1326.39,79.39 1327.76,93.43 C1329.76,113.98 1331.17,134.6 1332.54,155.21 C1333.21,165.28 1333.03,175.41 1333.62,185.49 C1334.00568,193.567066 1337.34355,201.221395 1343,207 C1344.26,208.28 1345.61,209.48 1348,211.75 Z M1196,228.84 C1196.12,228.12 1196.25,227.4 1196.38,226.69 C1193.38,225.86 1190.03,223.83 1187.3,224.42 C1172.62,227.63 1158.08,231.48 1143.49,235.14 C1141.42892,235.617256 1139.40393,236.238787 1137.43,237 C1130.43,239.83 1124.29,248.07 1124.19,254.8 C1138.67,244.3 1155.45,239.69 1172.31,235.25 C1180.24,233.17 1188.12,231 1196,228.84 Z M1204.17,61.14 L1202.8,60.83 C1201.96392,62.1269707 1201.23805,63.4917498 1200.63,64.91 C1198.89,70.03 1197.24333,75.1733333 1195.69,80.34 C1193.38736,87.7648854 1193.06675,95.6629073 1194.76,103.25 C1197.25,114.77 1198.28,126.34 1193.68,137.85 C1190.03,146.95 1191.25,156.25 1194.55,165.29 C1195.06224,166.355105 1195.68929,167.36107 1196.42,168.29 L1197.79,167.94 C1197.77,132.23 1197.41,96.48 1204.19,61.14 L1204.17,61.14 Z M1215.05,80.14 C1208.05,82.99 1207.69,85.21 1213.34,91.28 C1221.01,87.63 1228.43,91.03 1235.79,93.28 L1235.79,82.28 C1228,85.2 1221.13,85.84 1215.07,80.15 L1215.05,80.14 Z M1298.51,85.44 L1316.03,85.44 C1317.32,82.34 1318.03,79.07 1315.16,75.74 C1310.57,82.24 1306.95,83.21 1299.59,80.29 C1298.89337,80.1442145 1298.18062,80.0904225 1297.47,80.13 C1297.90333,82.2766667 1298.25667,84.05 1298.53,85.45 L1298.51,85.44 Z M1239.63,81.44 L1239.63,90.22 L1250.48,85.92 C1250.36,84.28 1250.25,82.81 1250.15,81.44 L1239.63,81.44 Z M1263.81,91.44 C1263.54,88.27 1263.28,85.1 1262.99,81.64 L1255.29,81.64 C1253,88.85 1260.72,88.25 1263.83,91.46 L1263.81,91.44 Z M1285.16,83.8 L1297.16,89.56 C1296.35,84.85 1295.85,81.95 1295.27,78.56 L1285.16,83.8 Z M1268.38,90.74 C1274.38,87.63 1274.9,83.31 1270.28,77.9 C1264.81,81.66 1270.08,86.41 1268.4,90.76 L1268.38,90.74 Z M1209.8,207.42 L1209.1,206.72 L1202.22,214.36 L1202.56,214.66 L1209.8,207.42 Z M1278.8,86.68 C1281.13,86.77 1283.43,87.17 1284.62,83.57 L1277.62,82.45 C1278.17,84.37 1278.46,85.45 1278.81,86.7 L1278.8,86.68 Z" id="Shape" fill="#000000"></path>
            <path d="M1196,228.84 C1188.1,230.98 1180.22,233.17 1172.31,235.25 C1155.45,239.69 1138.67,244.3 1124.19,254.8 C1124.29,248.07 1130.41,239.8 1137.43,237 C1139.40393,236.238787 1141.42892,235.617256 1143.49,235.14 C1158.08,231.48 1172.62,227.63 1187.3,224.42 C1190.03,223.83 1193.3,225.86 1196.38,226.69 C1196.27,227.4 1196.14,228.12 1196,228.84 Z" id="Path" fill="#FFFFFF"></path>
            <path d="M1204.19,61.14 C1197.41,96.48 1197.77,132.23 1197.81,167.96 L1196.44,168.31 C1195.70929,167.38107 1195.08224,166.375105 1194.57,165.31 C1191.27,156.31 1190.05,146.97 1193.7,137.87 C1198.3,126.36 1197.27,114.79 1194.78,103.27 C1193.08675,95.6829073 1193.40736,87.7848854 1195.71,80.36 C1197.27,75.1866667 1198.91667,70.0433333 1200.65,64.93 C1201.25805,63.5117498 1201.98392,62.1469707 1202.82,60.85 L1204.19,61.14 Z" id="Path" fill="#FFFFFF"></path>
            <path d="M1215.07,80.15 C1221.13,85.84 1228.07,85.15 1235.81,82.3 L1235.81,93.3 C1228.45,91.03 1221.03,87.63 1213.36,91.3 C1207.71,85.22 1208.11,83 1215.07,80.15 Z" id="Path" fill="#FFFFFF"></path>
            <path d="M1298.53,85.45 C1298.26333,84.05 1297.93,82.28 1297.53,80.14 C1298.24062,80.1004225 1298.95337,80.1542145 1299.65,80.3 C1307.01,83.22 1310.65,82.25 1315.22,75.75 C1318.14,79.08 1317.38,82.35 1316.09,85.45 L1298.53,85.45 Z" id="Path" fill="#FFFFFF"></path>
            <path d="M1239.65,81.48 L1250.17,81.48 C1250.27,82.85 1250.38,84.32 1250.5,85.96 L1239.65,90.26 L1239.65,81.48 Z" id="Path" fill="#FFFFFF"></path>
            <path d="M1263.83,91.46 C1260.72,88.25 1253,88.85 1255.31,81.66 L1263.01,81.66 C1263.3,85.12 1263.56,88.29 1263.83,91.46 Z" id="Path" fill="#FFFFFF"></path>
            <path d="M1285.18,83.82 L1295.34,78.54 C1295.92,81.97 1296.42,84.87 1297.23,89.54 L1285.18,83.82 Z" id="Path" fill="#FFFFFF"></path>
            <path d="M1268.4,90.76 C1270.08,86.41 1264.81,81.66 1270.3,77.92 C1274.92,83.33 1274.38,87.65 1268.4,90.76 Z" id="Path" fill="#FFFFFF"></path>
            <polygon id="Path" fill="#FFFFFF" points="1209.82 207.44 1202.58 214.68 1202.24 214.38 1209.12 206.74"></polygon>
            <path d="M1278.81,86.7 C1278.46,85.45 1278.17,84.37 1277.64,82.47 L1284.64,83.59 C1283.44,87.19 1281.14,86.79 1278.81,86.7 Z" id="Path" fill="#FFFFFF"></path>
            <path d="M1874.84,211.75 C1866.06,210.98 1859.84,207.19 1853.06,204.64 C1856.92,211.02 1860.96,217.15 1868.83,219.4 C1874.03,220.88 1879.19,222.5 1884.4,223.93 C1896.3,227.19 1905.05,233.99 1909.01,246.01 C1915.45,265.5 1920.01,368.73 1920.19,389.35 C1920.32,400.35 1916.88,387.87 1907.1,389.35 C1890.39,391.88 1873.69,387.41 1856.9,389.35 C1829.27,392.54 1801.46,388.65 1773.72,389.35 C1764.79,389.57 1755.88,389.44 1746.96,389.35 C1735.69,389.23 1724.41,390.35 1713.18,389.35 C1695.4,387.83 1677.67,390.99 1659.89,389.35 C1651.5,388.58 1643.96,394.47 1637.32,389.35 C1633.5,386.35 1632.09,393.89 1631.87,389.35 C1630.87,368.57 1634.23,265.94 1643.24,247.04 C1648.24,236.56 1655.53,228.78 1667.35,226.1 C1678.56,223.57 1689.73,220.87 1700.92,218.25 L1705.92,217.09 L1695.47,200.43 C1705.19,198.6 1714.03,197.01 1717.12,185.7 C1716.74,184.7 1715.98,182.52 1715.05,180.4 C1708.2,164.8 1708.05,148.9 1713.33,132.92 C1715.52396,126.171114 1715.86927,118.957595 1714.33,112.03 C1712.44916,103.304498 1712.66162,94.2575889 1714.95,85.63 C1716.65,79.29 1717.87,72.81 1719.25,66.39 C1720.72562,58.9659502 1724.14146,52.0652552 1729.15,46.39 C1731.15,44.14 1733.4,41.79 1736.03,40.45 C1751.94,32.36 1768.57,26.84 1786.76,28.23 C1790.27528,28.4728689 1793.7477,29.1445161 1797.1,30.23 C1812.89,35.57 1827.31,43.23 1838.79,55.71 C1848.62,66.42 1853.21,79.39 1854.59,93.43 C1856.59,113.98 1857.99,134.6 1859.36,155.21 C1860.03,165.28 1859.86,175.41 1860.44,185.49 C1860.83321,193.561414 1864.17436,201.207994 1869.83,206.98 C1871.11,208.28 1872.46,209.48 1874.84,211.75 Z M1722.84,228.84 C1722.97,228.12 1723.1,227.4 1723.22,226.69 C1720.22,225.86 1716.87,223.83 1714.14,224.42 C1699.46,227.63 1684.92,231.48 1670.34,235.14 C1668.27603,235.618666 1666.24781,236.240162 1664.27,237 C1657.27,239.83 1651.14,248.07 1651.03,254.8 C1665.51,244.3 1682.3,239.69 1699.16,235.25 C1707.1,233.17 1715,231 1722.87,228.84 L1722.84,228.84 Z M1731.01,61.14 L1729.64,60.83 C1728.80708,62.1271505 1728.08454,63.4919442 1727.48,64.91 C1725.74,70.03 1724.07333,75.1733333 1722.48,80.34 C1720.17736,87.7648854 1719.85675,95.6629073 1721.55,103.25 C1724.05,114.77 1725.08,126.34 1720.47,137.85 C1716.83,146.95 1718.05,156.25 1721.34,165.29 C1721.85963,166.351026 1722.48621,167.356237 1723.21,168.29 L1724.58,167.94 C1724.62,132.23 1724.27,96.48 1731,61.14 L1731.01,61.14 Z M1741.89,80.14 C1734.89,82.99 1734.53,85.21 1740.18,91.28 C1747.85,87.63 1755.27,91.03 1762.63,93.28 L1762.63,82.28 C1754.89,85.2 1748,85.84 1741.92,80.15 L1741.89,80.14 Z M1825.35,85.44 L1842.87,85.44 C1844.16,82.34 1844.87,79.07 1842,75.74 C1837.42,82.24 1833.79,83.21 1826.43,80.29 C1825.73669,80.1446309 1825.0273,80.0908386 1824.32,80.13 C1824.76,82.28 1825.11,84.05 1825.38,85.45 L1825.35,85.44 Z M1766.48,81.44 L1766.48,90.22 L1777.33,85.92 C1777.21,84.28 1777.1,82.81 1777,81.44 L1766.48,81.44 Z M1790.65,91.44 C1790.39,88.27 1790.12,85.1 1789.83,81.64 L1782.14,81.64 C1779.85,88.85 1787.57,88.25 1790.68,91.46 L1790.65,91.44 Z M1812,83.8 L1824,89.56 C1823.19,84.85 1822.7,81.95 1822.11,78.56 L1812,83.8 Z M1795.22,90.74 C1801.22,87.63 1801.74,83.31 1797.13,77.9 C1791.67,81.66 1796.93,86.41 1795.25,90.76 L1795.22,90.74 Z M1736.65,207.42 L1735.95,206.72 C1733.65,209.26 1731.35667,211.806667 1729.07,214.36 L1729.4,214.66 L1736.65,207.42 Z M1805.65,86.68 C1807.98,86.77 1810.28,87.17 1811.47,83.57 L1804.47,82.45 C1805,84.37 1805.32,85.45 1805.66,86.7 L1805.65,86.68 Z" id="Shape" fill="#000000"></path>
            <path d="M1722.87,228.84 C1714.98,230.98 1707.1,233.17 1699.19,235.25 C1682.33,239.69 1665.54,244.3 1651.06,254.8 C1651.17,248.07 1657.29,239.8 1664.3,237 C1666.27781,236.240162 1668.30603,235.618666 1670.37,235.14 C1684.95,231.48 1699.49,227.63 1714.17,224.42 C1716.9,223.83 1720.17,225.86 1723.25,226.69 C1723.13,227.4 1723,228.12 1722.87,228.84 Z" id="Path" fill="#FFFFFF"></path>
            <path d="M1731,61.14 C1724.23,96.48 1724.58,132.23 1724.62,167.96 L1723.25,168.31 C1722.52621,167.376237 1721.89963,166.371026 1721.38,165.31 C1718.09,156.31 1716.87,146.97 1720.51,137.87 C1725.12,126.36 1724.09,114.79 1721.59,103.27 C1719.89675,95.6829073 1720.21736,87.7848854 1722.52,80.36 C1724.09333,75.1866667 1725.76,70.0433333 1727.52,64.93 C1728.12454,63.5119442 1728.84708,62.1471505 1729.68,60.85 L1731,61.14 Z" id="Path" fill="#FFFFFF"></path>
            <path d="M1741.92,80.15 C1747.98,85.84 1754.92,85.15 1762.66,82.3 L1762.66,93.3 C1755.3,91.03 1747.88,87.63 1740.21,91.3 C1734.56,85.22 1735,83 1741.92,80.15 Z" id="Path" fill="#FFFFFF"></path>
            <path d="M1825.38,85.45 C1825.11,84.05 1824.76,82.28 1824.38,80.14 C1825.0873,80.1008386 1825.79669,80.1546309 1826.49,80.3 C1833.85,83.22 1837.49,82.25 1842.06,75.75 C1844.98,79.08 1844.22,82.35 1842.93,85.45 L1825.38,85.45 Z" id="Path" fill="#FFFFFF"></path>
            <path d="M1766.51,81.48 L1777,81.48 C1777.1,82.85 1777.21,84.32 1777.33,85.96 L1766.48,90.26 L1766.51,81.48 Z" id="Path" fill="#FFFFFF"></path>
            <path d="M1790.68,91.46 C1787.57,88.25 1779.85,88.85 1782.17,81.66 L1789.86,81.66 C1790.15,85.12 1790.42,88.29 1790.68,91.46 Z" id="Path" fill="#FFFFFF"></path>
            <path d="M1812,83.82 L1822.16,78.54 C1822.75,81.97 1823.24,84.87 1824.05,89.54 L1812,83.82 Z" id="Path" fill="#FFFFFF"></path>
            <path d="M1795.25,90.76 C1796.93,86.41 1791.67,81.66 1797.16,77.92 C1801.77,83.33 1801.23,87.65 1795.25,90.76 Z" id="Path" fill="#FFFFFF"></path>
            <path d="M1736.68,207.44 L1729.43,214.68 L1729.1,214.38 C1731.39333,211.826667 1733.68667,209.28 1735.98,206.74 L1736.68,207.44 Z" id="Path" fill="#FFFFFF"></path>
            <path d="M1805.66,86.7 C1805.32,85.45 1805.02,84.37 1804.5,82.47 L1811.5,83.59 C1810.29,87.19 1808,86.79 1805.66,86.7 Z" id="Path" fill="#FFFFFF"></path>
            <path d="M220.64,181.53 L213.74,198 L218.6,200.18 C220.35,208.65 222.06,216.89 223.84,225.48 C227.44,226 231.06,226 234.32,227.08 C245.92,230.9 257.85,234.13 268.8,239.38 C282.35,245.87 295.01,254.22 308.13,261.63 C312.66,264.19 314.65,267.41 314.45,272.97 C313.96,286.6 314.32,375.72 314.25,389.37 C314.25,392.1 313.79,387.05 313.59,389.37 C313.162889,389.629098 312.627111,389.629098 312.2,389.37 C290.86,388.78 269.51,389.95 248.2,389.37 C234.09,388.99 219.96,390.16 205.88,389.37 C185.22,388.22 164.6,390.71 143.95,389.37 C133.16,388.67 122.35,389.37 111.56,389.37 C81.43,389.37 51.31,389.11 21.19,389.37 C16.74,389.37 12.3,389.29 7.85,389.37 C1.85,389.48 0.17,395.16 0.96,389.37 C3.47,370.86 8.96,271.05 14.56,253.37 C15.4991338,250.741546 17.2863969,248.500431 19.64,247 C27.07,242.5 34.43,237.43 42.52,234.57 C61.13,227.99 80.15,222.57 100.03,216.39 C101.16,214.39 102.5,210.69 105.03,208.1 C107.29,205.76 110.83,204.65 114.34,202.7 C114.39874,202.315564 114.39874,201.924436 114.34,201.54 C113.92,197.34 114.5,192.62 112.71,189.11 C110.92,185.6 106.3,183.7 103.71,180.46 C95.51,170.24 92.1,158.17 90.62,145.28 C88.1,123.1 94,102.47 101.09,81.93 C104.54,71.93 111.47,65.22 120.21,60.18 C126.133113,56.7933831 132.284626,53.8228805 138.62,51.29 C147.85,47.57 157.08,46.76 166.62,51.45 C172.26,54.23 178.62,55.53 184.62,57.51 C197.012358,61.5497521 207.908382,69.2131964 215.9,79.51 C222.31,87.59 224.9,96.97 226.61,106.78 C227.31,110.71 228.08,114.62 229.06,118.48 C230.69,124.85 230.66,130.93 227.58,136.98 C224.42,143.2 224.12,149.57 227.77,155.88 C229.3,158.52 230.49,161.36 231.77,164.13 C235.77,172.72 232.29,179.29 222.83,180.89 C222.087929,181.059618 221.356631,181.27333 220.64,181.53 Z M137.63,61 C157.84,62.19 177.19,66 194.11,78.21 C203.69,85.11 211.95,92.59 212.41,105.51 C212.596742,107.151908 213.067056,108.748944 213.8,110.23 C216.004469,115.452026 216.976266,121.111717 216.64,126.77 C216.25,133.1 216.3,139.48 215.52,145.77 C213.52,161.77 208.59,176.97 202.31,191.77 C200.767018,195.180617 200.438804,199.016846 201.38,202.64 C203.2,210.18 204.91,217.77 203.93,225.64 C203.54,228.78 205.07,230.26 207.93,231.21 C213.51,233.04 218.93,235.63 224.53,237.14 C231.98,239.14 239.63,240.38 247.19,241.94 C247.33,241.43 247.46,240.94 247.6,240.41 C242.54,238.65 237.5,236.84 232.43,235.13 C228.87,233.93 225.22,232.95 221.68,231.69 C217.45,230.18 215.45,227.07 215.27,222.54 C215.09,218.34 214.56,214.16 214.21,210.2 C212.09,209.01 208.96,208.2 208.81,207.02 C208.05,201.11 205.64,195.21 208.27,189.12 C211.06,182.64 213.54,176.03 216.27,169.5 C216.82,168.15 217.62,166.89 218.74,164.76 C219.95,167.68 220.74,169.57 221.74,172.08 L228.23,169.65 C226.76,166.15 225.95,163.41 224.55,161 C219.11,151.64 219.55,142.38 224.27,132.9 C224.934783,131.166151 225.012072,129.262024 224.49,127.48 C221.28,115 217.9,102.56 214.54,90.13 C214.355221,89.4349493 214.01307,88.7917046 213.54,88.25 C209.3,83.56 205.37,78.5 200.67,74.31 C188.43,63.39 173.23,59.15 157.49,56.97 C150.67,56.03 143.57,56.42 137.68,61.19 C133.19,60.65 130.42,63.78 126.97,65.45 L127.59,66.71 L137.63,61 Z M38.82,247.51 L39.21,248.51 C39.83,248.36 40.46,248.24 41.07,248.05 C61.69,241.45 82.25,234.67 102.96,228.36 C109.3,226.43 113.89,223.36 115.23,217.17 L123.93,215.5 C123.93,205.58 124.01,196.5 123.93,187.34 C123.93,184.7 122.74,182.47 118.93,181.01 C119.42,191.25 119.86,200.76 120.32,210.41 L110.53,210.41 C107.31,215.35 109.25,221.92 104.72,225.59 C101.47,225.5 98.3,225.51 95.47,226.48 C82.34,231.02 69.28,235.78 56.25,240.58 C50.33,242.76 44.6,245.2 38.82,247.51 Z" id="Shape" fill="#000000"></path>
            <path d="M137.74,61.18 C143.62,56.41 150.74,56.02 157.54,56.96 C173.28,59.14 188.48,63.38 200.72,74.3 C205.42,78.49 209.35,83.55 213.59,88.24 C214.06307,88.7817046 214.405221,89.4249493 214.59,90.12 C217.95,102.55 221.33,114.99 224.54,127.47 C225.062072,129.252024 224.984783,131.156151 224.32,132.89 C219.57,142.37 219.16,151.63 224.6,160.99 C226,163.4 226.81,166.14 228.28,169.64 L221.79,172.07 C220.79,169.56 219.98,167.67 218.79,164.75 C217.67,166.88 216.87,168.14 216.32,169.49 C213.64,176.02 211.16,182.63 208.32,189.11 C205.69,195.2 208.1,201.11 208.86,207.01 C209.01,208.2 212.14,209.01 214.26,210.19 C214.61,214.19 215.14,218.33 215.32,222.53 C215.5,227.06 217.5,230.17 221.73,231.68 C225.27,232.94 228.92,233.92 232.48,235.12 C237.55,236.83 242.59,238.64 247.65,240.4 C247.51,240.91 247.38,241.4 247.24,241.93 C239.68,240.37 232.03,239.11 224.58,237.13 C218.93,235.62 213.58,233.03 207.98,231.2 C205.07,230.25 203.54,228.77 203.98,225.63 C204.98,217.76 203.25,210.17 201.43,202.63 C200.488804,199.006846 200.817018,195.170617 202.36,191.76 C208.64,177 213.61,161.76 215.57,145.76 C216.35,139.48 216.3,133.1 216.69,126.76 C217.026266,121.101717 216.054469,115.442026 213.85,110.22 C213.117056,108.738944 212.646742,107.141908 212.46,105.5 C212,92.58 203.74,85.1 194.16,78.2 C177.24,66 157.89,62.2 137.68,60.99 L137.74,61.18 Z" id="Path" fill="#FFFFFF"></path>
            <path d="M38.82,247.51 C44.6,245.2 50.33,242.76 56.17,240.61 C69.17,235.81 82.26,231.05 95.39,226.51 C98.22,225.51 101.39,225.51 104.64,225.62 C109.17,221.95 107.23,215.38 110.45,210.44 L120.24,210.44 C119.78,200.79 119.34,191.28 118.85,181.04 C122.7,182.5 123.85,184.73 123.85,187.37 C123.97,196.49 123.85,205.61 123.85,215.53 L115.15,217.2 C113.81,223.39 109.22,226.46 102.88,228.39 C82.17,234.7 61.61,241.48 40.99,248.08 C40.38,248.27 39.75,248.39 39.13,248.54 L38.82,247.51 Z" id="Path" fill="#FFFFFF"></path>
            <path d="M137.63,61 L127.63,66.66 L127.01,65.4 C130.46,63.73 133.23,60.6 137.73,61.14 L137.63,61 Z" id="Path" fill="#FFFFFF"></path>
            <path d="M947.05,181.53 L940.15,198 L945,200.18 C946.76,208.65 948.47,216.89 950.25,225.48 C953.85,226 957.47,226 960.73,227.08 C972.33,230.9 984.26,234.13 995.21,239.38 C1008.76,245.87 1021.42,254.22 1034.54,261.63 C1039.06,264.19 1041.06,267.41 1040.86,272.97 C1040.37,286.6 1040.73,375.72 1040.65,389.37 C1040.65,392.1 1040.2,387.05 1039.99,389.37 C1039.56663,389.6296 1039.03337,389.6296 1038.61,389.37 C1017.26,388.78 995.92,389.95 974.61,389.37 C960.5,388.99 946.37,390.16 932.29,389.37 C911.63,388.22 891,390.71 870.36,389.37 C859.57,388.67 848.76,389.37 837.96,389.37 C807.84,389.37 777.72,389.11 747.6,389.37 C743.15,389.37 738.71,389.29 734.26,389.37 C728.26,389.48 726.58,395.16 727.37,389.37 C729.88,370.86 735.37,271.05 740.97,253.37 C741.921221,250.750007 743.719532,248.522354 746.08,247.04 C753.51,242.54 760.87,237.47 768.96,234.61 C787.57,228.03 806.59,222.61 826.46,216.43 C827.6,214.43 828.94,210.73 831.46,208.14 C833.72,205.8 837.26,204.69 840.77,202.74 C840.82874,202.355564 840.82874,201.964436 840.77,201.58 C840.35,197.38 840.93,192.66 839.14,189.15 C837.35,185.64 832.73,183.74 830.14,180.5 C821.94,170.28 818.53,158.21 817.05,145.32 C814.52,123.16 820.41,102.53 827.51,81.99 C830.96,71.99 837.89,65.28 846.62,60.24 C852.532963,56.836419 858.674289,53.8459476 865,51.29 C874.23,47.57 883.46,46.76 893,51.45 C898.63,54.23 905,55.53 911,57.51 C923.392358,61.5497521 934.288382,69.2131964 942.28,79.51 C948.68,87.59 951.28,96.97 952.99,106.78 C953.68,110.71 954.46,114.62 955.44,118.48 C957.07,124.85 957.03,130.93 953.96,136.98 C950.8,143.2 950.5,149.57 954.15,155.88 C955.67,158.52 956.87,161.36 958.15,164.13 C962.15,172.72 958.67,179.29 949.21,180.89 C948.478065,181.060761 947.756817,181.274464 947.05,181.53 Z M864,61 C884.21,62.19 903.55,66 920.48,78.21 C930.06,85.11 938.31,92.59 938.78,105.51 C938.961051,107.153055 939.431651,108.751064 940.17,110.23 C942.374469,115.452026 943.346266,121.111717 943.01,126.77 C942.62,133.1 942.66,139.48 941.89,145.77 C939.89,161.77 934.96,176.97 928.68,191.77 C927.138416,195.180685 926.806812,199.015305 927.74,202.64 C929.56,210.18 931.28,217.77 930.3,225.64 C929.9,228.78 931.44,230.26 934.3,231.21 C939.88,233.04 945.24,235.63 950.9,237.14 C958.35,239.14 966,240.38 973.56,241.94 C973.69,241.43 973.83,240.94 973.97,240.41 C968.91,238.65 963.87,236.84 958.8,235.13 C955.23,233.93 951.59,232.95 948.05,231.69 C943.82,230.18 941.82,227.07 941.63,222.54 C941.46,218.34 940.93,214.16 940.58,210.2 C938.45,209.01 935.33,208.2 935.18,207.02 C934.42,201.11 932.01,195.21 934.63,189.12 C937.43,182.64 939.91,176.03 942.63,169.5 C943.18,168.15 943.98,166.89 945.1,164.76 C946.3,167.68 947.1,169.57 948.1,172.08 L954.59,169.65 C953.12,166.15 952.31,163.41 950.91,161 C945.47,151.64 945.91,142.38 950.63,132.9 C951.289693,131.165105 951.366914,129.262654 950.85,127.48 C947.64,115 944.26,102.56 940.9,90.13 C940.715221,89.4349493 940.37307,88.7917046 939.9,88.25 C935.66,83.56 931.73,78.5 927.03,74.31 C914.79,63.39 899.59,59.15 883.84,56.97 C877.03,56.03 869.92,56.42 864.04,61.19 C859.54,60.65 856.78,63.78 853.33,65.45 L853.95,66.71 L864,61 Z M765.23,247.51 L765.62,248.51 C766.24,248.36 766.87,248.24 767.47,248.05 C788.09,241.45 808.66,234.67 829.36,228.36 C835.71,226.43 840.3,223.36 841.63,217.17 L850.34,215.5 C850.34,205.58 850.41,196.5 850.34,187.34 C850.34,184.7 849.15,182.47 845.34,181.01 C845.82,191.25 846.27,200.76 846.73,210.41 L836.94,210.41 C833.72,215.35 835.66,221.92 831.13,225.59 C827.88,225.5 824.71,225.51 821.88,226.48 C808.75,231.02 795.69,235.78 782.66,240.58 C776.74,242.76 771,245.2 765.23,247.51 Z" id="Shape" fill="#000000"></path>
            <path d="M864.15,61.18 C870.02,56.41 877.15,56.02 883.94,56.96 C899.69,59.14 914.89,63.38 927.13,74.3 C931.83,78.49 935.76,83.55 940,88.24 C940.47307,88.7817046 940.815221,89.4249493 941,90.12 C944.36,102.55 947.74,114.99 950.95,127.47 C951.466914,129.252654 951.389693,131.155105 950.73,132.89 C945.98,142.37 945.57,151.63 951.01,160.99 C952.41,163.4 953.22,166.14 954.69,169.64 L948.2,172.07 C947.2,169.56 946.38,167.67 945.2,164.75 C944.08,166.88 943.28,168.14 942.73,169.49 C940.05,176.02 937.57,182.63 934.73,189.11 C932.11,195.2 934.52,201.11 935.28,207.01 C935.43,208.2 938.55,209.01 940.68,210.19 C941.03,214.19 941.56,218.33 941.73,222.53 C941.92,227.06 943.92,230.17 948.15,231.68 C951.69,232.94 955.33,233.92 958.9,235.12 C963.97,236.83 969.01,238.64 974.07,240.4 C973.93,240.91 973.79,241.4 973.66,241.93 C966.1,240.37 958.45,239.11 951,237.13 C945.34,235.62 940,233.03 934.4,231.2 C931.49,230.25 929.95,228.77 930.4,225.63 C931.4,217.76 929.66,210.17 927.84,202.63 C926.906812,199.005305 927.238416,195.170685 928.78,191.76 C935.06,177 940.03,161.76 941.99,145.76 C942.76,139.48 942.72,133.1 943.11,126.76 C943.446266,121.101717 942.474469,115.442026 940.27,110.22 C939.531651,108.741064 939.061051,107.143055 938.88,105.5 C938.41,92.58 930.16,85.1 920.58,78.2 C903.65,66 884.31,62.2 864.1,60.99 L864.15,61.18 Z" id="Path" fill="#FFFFFF"></path>
            <path d="M765.23,247.51 C771.01,245.2 776.74,242.76 782.58,240.61 C795.58,235.81 808.67,231.05 821.8,226.51 C824.63,225.51 827.8,225.51 831.05,225.62 C835.58,221.95 833.64,215.38 836.86,210.44 L846.65,210.44 C846.19,200.79 845.74,191.28 845.26,181.04 C849.11,182.5 850.26,184.73 850.26,187.37 C850.37,196.49 850.26,205.61 850.26,215.53 L841.55,217.2 C840.22,223.39 835.63,226.46 829.28,228.39 C808.58,234.7 788.01,241.48 767.39,248.08 C766.79,248.27 766.16,248.39 765.54,248.54 L765.23,247.51 Z" id="Path" fill="#FFFFFF"></path>
            <path d="M864,61 L854,66.66 L853.38,65.4 C856.83,63.73 859.59,60.6 864.1,61.14 L864,61 Z" id="Path" fill="#FFFFFF"></path>
            <path d="M351.24,199.62 C352.03,197.15 352.72,194.96 353.61,192.14 C351.75,191.76 350.23,191.03 348.85,191.24 C336.94,193.02 329.49,189.51 323.53,178.8 C319.97,183.59 315.62,181.94 311.53,180 C308.110457,178.464855 304.914713,176.473402 302.03,174.08 C300.25,172.53 299.12,169.89 298.44,167.52 C297.876821,165.230185 297.764737,162.852641 298.11,160.52 C302.61,121.89 309.24,83.74 325.19,47.88 C331.1,34.59 338.95,22.71 351.06,14.1 C359.827177,7.63994127 370.209551,3.72924728 381.06,2.8 C386.214924,2.56241401 391.371195,3.23953428 396.29,4.8 C399.37,5.7 401.6,5.21 404.29,4.27 C408.51,2.81 412.83,1.07 417.2,0.8 C430.57,-0.05 442.03,4.2 451.2,14.54 C461.68,26.41 466.2,41.02 470.85,55.59 C476.551405,73.5045234 479.961854,92.0687873 481,110.84 C481.9,127.47 483.42,144.07 484.65,160.69 C484.775011,161.863346 484.775011,163.046654 484.65,164.22 C483.23,174.22 483.43,178.44 470.14,180.36 C468.04,180.66 465.96,181.03 463.88,181.36 C456.29,182.74 455.68,182.51 450.88,176.28 C450.57,176.49 450,176.65 449.97,176.9 C448.69,185.04 443.74,188.32 435.77,188.04 C434.01,187.98 432.22,188.92 430.51,189.38 C430.86,192.73 432.86,193.17 435.51,193.48 C446.25,194.73 457.06,195.68 467.65,197.77 C482.51,200.7 496.09,206.58 504.65,220.04 C507.462485,224.668901 509.660927,229.64397 511.19,234.84 C517.19,253.893333 522.963333,273.01 528.51,292.19 C530.45,298.85 528.63,386.74 522.43,389.31 C517.97,391.16 513.04,389.19 508.28,389.31 C477.67,390.08 447.05,388.61 416.44,389.31 C401.88,389.65 387.34,388.97 372.77,389.31 C356.77,389.676667 340.77,389.676667 324.77,389.31 C315.87,389.09 307,390.13 298.11,389.31 C296.71,389.18 295.11,388.83 293.93,389.31 C285.93,392.59 280.09,391.87 273.59,389.31 C271.17,388.31 269.25,393.49 270.33,389.31 C271.33,385.47 269.57,290.47 268.33,286.31 C266.47,280.24 266.76,274.18 267.53,268.12 C268.62,259.51 270.11,250.94 271.47,242.37 C271.65,241.21 272.06,240.09 272.34,238.95 C277.55,217.76 290.9,205.7 312.65,203.31 C323.15,202.16 333.7,201.4 344.22,200.43 C346.43,200.28 348.74,199.93 351.24,199.62 Z M469.82,169.41 C474.4,168.83 473.4,165.99 473.22,164 C471.12,140.63 469.17,117.24 466.65,93.92 C464.485682,72.839819 459.615628,52.1261265 452.16,32.29 C448.58,22.92 442.22,16.29 431.71,13.6 C421.58,11.01 411.6,11.81 401.59,12.86 C398.881708,13.1773373 396.136847,12.8342297 393.59,11.86 C390.81,10.86 387.59,9.51 384.88,10.04 C360.49,14.86 341.88,27.47 332.17,51.11 C328.77,59.36 325.37,67.74 323.29,76.38 C317.903333,98.7533333 312.95,121.23 308.43,143.81 C307.05,150.64 307.43,157.81 307.05,164.81 C306.94,167.04 307.37,168.96 310.1,168.6 C312.1,155.81 313.25,143.08 316.34,130.85 C320.08,116.1 325.13,101.64 330.34,87.3 C334.28,76.4 344.19,72.72 355.06,77.43 C357.345521,78.5383064 359.997076,78.6111514 362.34,77.63 C371.42,74.34 381.53,73.13 390.02,76.58 C397.208964,79.7657616 405.383424,79.8956868 412.67,76.94 C413.771009,76.525968 414.920247,76.2537801 416.09,76.13 C425.22,75.21 434.36,73.84 442.8,79.39 C444.35,80.39 446.92,79.76 448.88,80.33 C450.53,80.8 452.65,81.55 453.39,82.85 C455.377062,86.0213452 456.848668,89.4877217 457.75,93.12 C460.97,108.99 464.06,124.89 466.75,140.87 C468.15,150.16 468.74,159.52 469.82,169.41 Z M352,213 C352,212.36 351.92,211.72 351.87,211.08 C350.26,210.81 348.62,210.19 347.05,210.33 C344.05,210.61 341.05,211.41 338.05,211.83 C327.82,213.27 317.54,214.39 307.36,216.1 C294.19,218.31 283.49,229.95 282.92,242.5 C294.349564,231.768254 308.549931,224.442942 323.92,221.35 C327.36,220.62 330.81,219.81 334.17,218.78 C340.1,217 346,215 352,213 Z M498.23,229.71 L499.56,228.57 C497.71,225.77 496.41,222.25 493.9,220.29 C486.69,214.65 478.98,209.47 469.77,207.8 C461.71,206.35 453.52,205.58 445.37,204.8 C442.76,204.54 440.08,205.16 437.17,205.41 C439.45,211.48 439.43,211.71 443.81,212.24 C451.72,213.24 459.66,214.45 467.59,214.49 C477.96,214.54 486.15,218.49 493.15,225.76 C494.735439,227.202213 496.419524,228.532105 498.19,229.74 L498.23,229.71 Z" id="Shape" fill="#000000"></path>
            <path d="M469.82,169.41 C468.74,159.52 468.15,150.16 466.62,140.95 C463.97,124.95 460.88,109.07 457.62,93.2 C456.718668,89.5677217 455.247062,86.1013452 453.26,82.93 C452.52,81.63 450.4,80.88 448.75,80.41 C446.75,79.84 444.22,80.49 442.67,79.47 C434.23,73.92 425.09,75.29 415.96,76.21 C414.790247,76.3337801 413.641009,76.605968 412.54,77.02 C405.253424,79.9756868 397.078964,79.8457616 389.89,76.66 C381.4,73.21 371.29,74.42 362.21,77.71 C359.867076,78.6911514 357.215521,78.6183064 354.93,77.51 C344.06,72.8 334.15,76.51 330.21,87.38 C325.04,101.72 319.99,116.18 316.21,130.93 C313.12,143.16 312.01,155.93 309.97,168.68 C307.24,169.04 306.81,167.12 306.92,164.89 C307.29,157.89 306.92,150.68 308.3,143.89 C312.86,121.33 317.813333,98.8533333 323.16,76.46 C325.24,67.82 328.64,59.46 332.04,51.19 C341.76,27.55 360.36,14.94 384.75,10.12 C387.44,9.59 390.68,10.92 393.46,11.94 C396.006847,12.9142297 398.751708,13.2573373 401.46,12.94 C411.46,11.89 421.46,11.09 431.58,13.68 C442.09,16.37 448.45,23 452.03,32.37 C459.485628,52.2061265 464.355682,72.919819 466.52,94 C469.04,117.32 470.99,140.71 473.09,164.08 C473.400555,166 474.4,168.83 469.82,169.41 Z M388.56,24.12 C383.62,18.12 383.56,17.91 377.14,20.76 C372.42,22.86 367.88,25.38 363.33,27.83 C355.22,32.2 349.4,38.93 344.66,46.63 C343.29358,48.8155394 342.347358,51.2370537 341.87,53.77 C340.77,60.34 344.72,64.19 351.18,63.17 C353.26,62.84 355.3,62.17 357.38,61.96 C361.38,61.62 364.87,61.96 368.14,65.42 C373.01,70.61 379.7,71.42 386.47,69.65 C389.211665,68.9763523 391.825704,67.8618396 394.21,66.35 C399.09,63.12 403.13,63.74 408.44,66.26 C415.201566,69.3234399 422.402895,71.3043116 429.78,72.13 C435.21,72.8 440.94,71.13 446.53,70.43 C452.53,69.67 454.25,68.22 455.24,62.43 C455.685857,60.1197643 455.70619,57.747539 455.3,55.43 C453.46,46.69 451.61,37.84 444.89,31.22 C438.39,24.8 432.15,17.7 421.52,19.22 C421.045154,19.2276717 420.574305,19.1321372 420.14,18.94 C413.06,16.52 406.22,17.94 399.44,20.25 C395.91,21.44 392.4,22.74 388.56,24.12 Z" id="Shape" fill="#FFFFFF"></path>
            <path d="M352,213 C346.06,214.93 340.14,217 334.16,218.78 C330.8,219.78 327.35,220.62 323.91,221.35 C308.539931,224.442942 294.339564,231.768254 282.91,242.5 C283.48,229.95 294.18,218.31 307.35,216.1 C317.53,214.39 327.81,213.27 338.04,211.83 C341.04,211.41 344.04,210.61 347.04,210.33 C348.61,210.19 350.25,210.81 351.86,211.08 C351.88,211.75 351.92,212.39 352,213 Z" id="Path" fill="#FFFFFF"></path>
            <path d="M498.19,229.74 C496.405135,228.527206 494.707627,227.190586 493.11,225.74 C486.11,218.48 477.92,214.52 467.55,214.47 C459.62,214.47 451.68,213.18 443.77,212.22 C439.39,211.69 439.41,211.46 437.13,205.39 C440.04,205.14 442.72,204.52 445.33,204.78 C453.48,205.58 461.67,206.35 469.73,207.78 C478.94,209.45 486.65,214.63 493.86,220.27 C496.37,222.27 497.67,225.75 499.52,228.55 L498.19,229.74 Z" id="Path" fill="#FFFFFF"></path>
            <path d="M388.56,24.12 C392.4,22.74 395.91,21.44 399.44,20.23 C406.22,17.92 413.06,16.5 420.14,18.92 C420.574305,19.1121372 421.045154,19.2076717 421.52,19.2 C432.15,17.64 438.39,24.74 444.89,31.2 C451.61,37.82 453.46,46.67 455.3,55.41 C455.70619,57.727539 455.685857,60.0997643 455.24,62.41 C454.24,68.23 452.57,69.68 446.53,70.41 C440.94,71.11 435.21,72.78 429.78,72.11 C422.402895,71.2843116 415.201566,69.3034399 408.44,66.24 C403.13,63.72 399.09,63.1 394.21,66.33 C391.825704,67.8418396 389.211665,68.9563523 386.47,69.63 C379.7,71.39 373.01,70.63 368.14,65.4 C364.87,61.91 361.39,61.6 357.38,61.94 C355.3,62.12 353.26,62.82 351.18,63.15 C344.72,64.15 340.77,60.32 341.87,53.75 C342.347358,51.2170537 343.29358,48.7955394 344.66,46.61 C349.4,38.91 355.22,32.18 363.33,27.81 C367.88,25.36 372.42,22.81 377.14,20.74 C383.52,17.91 383.62,18.08 388.56,24.12 Z" id="Path" fill="#000000"></path>
            <path d="M1034.72,235.21 C1035.39,233.09 1035.99,231.21 1036.72,228.79 C1035.13,228.47 1033.82,227.79 1032.63,228.02 C1022.41,229.54 1016.02,226.54 1010.9,217.34 C1007.9,221.46 1004.12,220.04 1000.62,218.34 C997.684484,217.026063 994.942419,215.316899 992.47,213.26 C990.951259,211.697748 989.886516,209.75148 989.39,207.63 C988.905293,205.66771 988.806798,203.629889 989.1,201.63 C992.97,168.47 998.65,135.74 1012.35,104.96 C1017.42,93.56 1024.15,83.36 1034.55,75.96 C1042.08145,70.4126875 1051,67.0556858 1060.32,66.26 C1064.74281,66.051868 1069.16759,66.6273937 1073.39,67.96 C1075.67349,68.6062703 1078.10979,68.447381 1080.29,67.51 C1083.9,66.26 1087.61,64.76 1091.36,64.51 C1102.83,63.78 1112.67,67.42 1120.49,76.3 C1129.49,86.49 1133.41,99.03 1137.36,111.53 C1142.25378,126.915399 1145.1771,142.859203 1146.06,158.98 C1146.84,173.25 1148.14,187.5 1149.2,201.76 C1149.30294,202.757351 1149.30294,203.762649 1149.2,204.76 C1147.99,213.31 1148.2,216.97 1136.75,218.61 C1134.95,218.87 1133.17,219.18 1131.38,219.51 C1124.87,220.69 1124.38,220.51 1120.21,215.15 C1119.94,215.32 1119.46,215.46 1119.42,215.68 C1118.33,222.68 1114.08,225.48 1107.24,225.24 C1105.73,225.19 1104.24,225.99 1102.73,226.38 C1103.03,229.26 1104.73,229.64 1106.99,229.9 C1116.2,230.98 1125.49,231.8 1134.57,233.59 C1147.33,236.1 1158.98,241.15 1166.31,252.7 C1168.72506,256.672277 1170.61418,260.941289 1171.93,265.4 C1177.06,281.75 1181.93,372.83 1186.79,389.28 C1188.45,395 1186.89,387.07 1181.57,389.28 C1177.75,390.87 1173.51,389.18 1169.42,389.28 C1143.16,389.94 1116.88,388.68 1090.61,389.28 C1078.11,389.57 1065.61,388.99 1053.13,389.28 C1039.41,389.6 1025.68,389.6 1011.94,389.28 C1004.3,389.09 996.69,389.98 989.06,389.28 C987.85,389.17 986.47,388.87 985.47,389.28 C978.63,392.1 973.59,391.47 968.01,389.28 C965.94,388.46 964.29,392.87 965.21,389.28 C966.06,385.98 964.56,392.83 963.47,389.28 C961.87,384.07 962.11,299.18 962.78,293.98 C963.72,286.59 964.99,279.25 966.16,271.89 C966.32,270.89 966.67,269.94 966.91,268.96 C971.38,250.77 982.83,240.42 1001.5,238.37 C1010.5,237.37 1019.56,236.72 1028.59,235.89 C1030.59,235.78 1032.57,235.48 1034.72,235.21 Z M1136.48,209.28 C1140.41,208.79 1139.55,206.35 1139.4,204.64 C1137.6,184.58 1135.92,164.51 1133.76,144.49 C1131.90555,126.401555 1127.72435,108.628082 1121.32,91.61 C1118.25,83.56 1112.79,77.87 1103.78,75.61 C1095.08,73.39 1086.52,74.07 1077.93,74.97 C1075.59426,75.2640266 1073.22205,74.9825202 1071.02,74.15 C1068.63,73.28 1065.85,72.15 1063.54,72.59 C1042.61,76.72 1026.65,87.59 1018.31,107.83 C1015.39,114.91 1012.47,122.11 1010.68,129.52 C1006.06,148.72 1001.81,168.006667 997.93,187.38 C996.75,193.25 997.07,199.38 996.75,205.45 C996.65,207.36 997.02,209 999.37,208.7 C1001.12,197.7 1002.07,186.8 1004.72,176.3 C1007.93,163.64 1012.26,151.23 1016.72,138.92 C1020.1,129.57 1028.61,126.42 1037.93,130.45 C1039.89007,131.407776 1042.16806,131.473382 1044.18,130.63 C1051.98,127.8 1060.65,126.76 1067.94,129.73 C1074.10873,132.45742 1081.12001,132.565674 1087.37,130.03 C1088.33623,129.672158 1089.34452,129.440251 1090.37,129.34 C1098.2,128.55 1106.04,127.34 1113.28,132.13 C1114.62,133.01 1116.82,132.45 1118.5,132.94 C1119.92,133.35 1121.74,133.99 1122.38,135.11 C1124.08173,137.830767 1125.34073,140.804444 1126.11,143.92 C1128.88,157.54 1131.53,171.19 1133.81,184.92 C1135.05,192.76 1135.56,200.8 1136.48,209.28 Z M1035.34,246.72 L1035.22,245.07 C1033.87123,244.688782 1032.48092,244.473855 1031.08,244.43 C1028.48,244.67 1025.93,245.35 1023.34,245.72 C1014.56,246.95 1005.73,247.91 996.99,249.38 C985.7,251.28 976.51,261.27 975.99,272.04 C985.803213,262.826751 997.994452,256.537181 1011.19,253.88 C1014.19,253.25 1017.11,252.56 1020,251.68 C1025.16,250.11 1030.24,248.38 1035.34,246.72 L1035.34,246.72 Z M1160.83,261.06 L1161.97,260.06 C1160.38,257.65 1159.27,254.64 1157.11,252.95 C1150.93,248.11 1144.31,243.67 1136.4,242.24 C1129.49,240.99 1122.46,240.33 1115.46,239.64 C1113.23,239.42 1110.92,239.96 1108.46,240.16 C1110.46,245.37 1110.39,245.57 1114.16,246.03 C1120.94,246.85 1127.75,247.92 1134.56,247.96 C1143.46,247.96 1150.49,251.4 1156.5,257.63 C1157.85954,258.8753 1159.30658,260.02157 1160.83,261.06 Z" id="Shape" fill="#000000"></path>
            <path d="M1136.48,209.28 C1135.56,200.8 1135.05,192.76 1133.74,184.86 C1131.46,171.15 1128.81,157.5 1126.04,143.86 C1125.27073,140.744444 1124.01173,137.770767 1122.31,135.05 C1121.67,133.93 1119.85,133.29 1118.43,132.88 C1116.75,132.39 1114.55,132.95 1113.21,132.07 C1105.97,127.31 1098.13,128.49 1090.3,129.28 C1089.27452,129.380251 1088.26623,129.612158 1087.3,129.97 C1081.05001,132.505674 1074.03873,132.39742 1067.87,129.67 C1060.58,126.67 1051.87,127.74 1044.11,130.57 C1042.09806,131.413382 1039.82007,131.347776 1037.86,130.39 C1028.54,126.39 1020.03,129.51 1016.65,138.86 C1012.21,151.17 1007.88,163.58 1004.65,176.24 C1002,186.74 1001.05,197.66 999.3,208.64 C996.95,208.94 996.58,207.3 996.68,205.39 C997,199.39 996.68,193.19 997.86,187.32 C1001.77333,167.986667 1006.02333,148.7 1010.61,129.46 C1012.4,122.05 1015.32,114.85 1018.24,107.77 C1026.58,87.49 1042.54,76.66 1063.47,72.53 C1065.78,72.07 1068.56,73.22 1070.95,74.09 C1073.15205,74.9225202 1075.52426,75.2040266 1077.86,74.91 C1086.45,74.01 1095.01,73.33 1103.71,75.55 C1112.71,77.85 1118.18,83.55 1121.25,91.55 C1127.65435,108.568082 1131.83555,126.341555 1133.69,144.43 C1135.85,164.43 1137.53,184.52 1139.33,204.58 C1139.55,206.35 1140.41,208.79 1136.48,209.28 Z M1066.74,84.59 C1062.5,79.41 1062.42,79.27 1056.94,81.71 C1052.94,83.52 1049,85.71 1045.09,87.78 C1038.09,91.53 1033.09,97.31 1029.09,103.92 C1027.91453,105.791033 1027.10361,107.867538 1026.7,110.04 C1025.75,115.68 1029.14,118.98 1034.7,118.11 C1036.48,117.82 1038.23,117.22 1040.02,117.11 C1043.46,116.81 1046.44,117.11 1049.25,120.11 C1053.43,124.57 1059.17,125.25 1064.98,123.74 C1067.33531,123.167487 1069.57917,122.207762 1071.62,120.9 C1075.81,118.13 1079.28,118.67 1083.84,120.83 C1089.64248,123.449005 1095.82174,125.136405 1102.15,125.83 C1106.81,126.41 1111.73,124.97 1116.52,124.37 C1121.71,123.72 1123.15,122.47 1124,117.48 C1124.36602,115.496746 1124.36602,113.463254 1124,111.48 C1122.42,103.97 1120.83,96.38 1115.07,90.7 C1109.48,85.19 1104.14,79.09 1095.01,80.43 C1094.6034,80.4423332 1094.19948,80.3601801 1093.83,80.19 C1087.75,78.12 1081.88,79.34 1076.06,81.32 C1073.05,82.3 1070,83.41 1066.74,84.59 L1066.74,84.59 Z" id="Shape" fill="#000000"></path>
            <path d="M1035.34,246.72 C1030.24,248.38 1025.16,250.11 1020.03,251.72 C1017.14,252.6 1014.18,253.29 1011.22,253.92 C998.025971,256.550909 985.828258,262.81254 976,272 C976.49,261.23 985.68,251.24 997,249.34 C1005.74,247.87 1014.57,246.91 1023.35,245.68 C1025.94,245.31 1028.49,244.63 1031.09,244.39 C1032.49092,244.433855 1033.88123,244.648782 1035.23,245.03 L1035.34,246.72 Z" id="Path" fill="#FFFFFF"></path>
            <path d="M1160.83,261.06 C1159.29692,260.029162 1157.83984,258.889565 1156.47,257.65 C1150.47,251.42 1143.47,248.03 1134.53,247.98 C1127.72,247.98 1120.91,246.87 1114.13,246.05 C1110.36,245.59 1110.39,245.39 1108.43,240.18 C1110.92,239.98 1113.23,239.44 1115.43,239.66 C1122.43,240.35 1129.43,241.01 1136.37,242.26 C1144.28,243.69 1150.9,248.13 1157.08,252.97 C1159.24,254.66 1160.35,257.67 1161.94,260.08 L1160.83,261.06 Z" id="Path" fill="#FFFFFF"></path>
            <path d="M1066.74,84.59 C1070.04,83.41 1073.05,82.3 1076.08,81.26 C1081.9,79.26 1087.77,78.06 1093.85,80.13 C1094.21948,80.3001801 1094.6234,80.3823332 1095.03,80.37 C1104.16,79.03 1109.5,85.13 1115.09,90.64 C1120.85,96.32 1122.44,103.91 1124.02,111.42 C1124.38602,113.403254 1124.38602,115.436746 1124.02,117.42 C1123.17,122.42 1121.73,123.66 1116.54,124.31 C1111.75,124.91 1106.83,126.31 1102.17,125.77 C1095.84174,125.076405 1089.66248,123.389005 1083.86,120.77 C1079.3,118.61 1075.86,118.07 1071.64,120.84 C1069.59917,122.147762 1067.35531,123.107487 1065,123.68 C1059.19,125.19 1053.45,124.51 1049.27,120.05 C1046.46,117.05 1043.48,116.78 1040.04,117.05 C1038.25,117.2 1036.5,117.8 1034.72,118.05 C1029.17,118.92 1025.78,115.62 1026.72,109.98 C1027.12361,107.807538 1027.93453,105.731033 1029.11,103.86 C1033.17,97.25 1038.17,91.47 1045.11,87.72 C1049.02,85.62 1052.91,83.46 1056.96,81.65 C1062.42,79.27 1062.5,79.41 1066.74,84.59 Z" id="Path" fill="#000000"></path>
            <rect id="Rectangle" fill="#000000" x="3" y="352.47" width="1920" height="63.14"></rect>
        </g>
    </g>
</svg>