<svg width="1728" height="750" viewBox="0 0 1728 750" xmlns="http://www.w3.org/2000/svg"><path d="M16.06 200.713c7.65-.696 13.17 3.976 20.01 8.472l-3.551-8.525c12.391 3.365 23.145 6.513 29.607 16.937 4.863 7.846 3.527 17.17-3.24 25.811 2.803 1.064 5.626 1.83 8.159 3.153 7.867 4.11 10.827 11.53 11.448 19.639.484 6.313 2.358 12.11 4.035 18.053.867 3.073 1.47 6.22 2.32 9.88 1.778.584 3.921 1.436 6.14 1.98 3.521.864 4.68 3.088 4.804 6.558.292 8.26-2.488 16.044-3.368 24.077-.793 7.244-5.633 12.235-8.655 18.15-1.272 2.489-5.916 3.255-9.028 4.804l-.803-1.023-7.78 17.12 4.913 1.558c.417.568.625.725.655.912 1.26 7.95 2.502 15.902 3.764 23.965.48.321.96.903 1.506.972 20.39 2.604 38.561 11.03 55.98 21.372 5.951 3.533 11.727 7.38 17.655 10.943 1.154-.553 2.356-1.12 3.558-1.787-.008.145.11-.512.046-1.15-.417-4.137.159-8.797-1.607-12.255-1.762-3.449-6.33-5.336-8.89-8.53-8.09-10.087-11.455-21.988-12.908-34.7-2.5-21.86 3.312-42.206 10.313-62.464 3.4-9.837 10.235-16.488 18.854-21.455 5.813-3.35 11.938-6.257 18.162-8.77 9.106-3.674 18.208-4.471 27.583.157 5.555 2.743 11.831 4.022 17.776 5.98 12.48 4.11 22.66 11.373 30.854 21.701 6.32 7.966 8.854 17.214 10.569 26.898.684 3.868 1.45 7.733 2.419 11.538 1.6 6.28 1.568 12.278-1.465 18.25-3.116 6.134-3.414 12.417.186 18.64 1.507 2.605 2.681 5.406 3.967 8.138 3.986 8.466.513 14.95-8.819 16.527-.668.113-1.312.38-2.17.635l-6.803 16.226 4.788 2.151c1.73 8.354 3.414 16.473 5.17 24.948 3.555.511 7.12.518 10.339 1.578 11.44 3.77 23.213 6.957 34.012 12.133 11.777 5.645 22.873 12.703 34.196 19.307 4.097-4.35 9.504-7.259 15.933-9.022 4.744-1.3 9.441-2.771 14.172-4.124 7.159-2.046 10.84-7.628 14.347-13.427-6.207 2.32-11.826 5.77-19.814 6.463 2.16-2.065 3.387-3.154 4.52-4.332 5.25-5.467 8.11-12.081 8.544-19.562.532-9.176.371-18.396.981-27.565 1.249-18.758 2.52-37.524 4.348-56.23 1.249-12.776 5.43-24.584 14.378-34.326 10.45-11.38 23.568-18.334 37.947-23.191 3.005-1.015 6.238-1.596 9.407-1.838 16.56-1.266 31.693 3.753 46.172 11.123 2.391 1.217 4.43 3.355 6.264 5.398 4.675 5.207 7.535 11.385 9.009 18.222 1.262 5.85 2.367 11.744 3.914 17.518 2.144 8.001 2.224 15.939.569 24.023-1.304 6.367-1.205 12.679.9 19.013 4.834 14.55 4.67 29.016-1.567 43.22-.847 1.931-1.54 3.93-1.889 4.823 2.819 10.295 10.859 11.74 19.708 13.406l-9.509 15.163c1.738.4 3.168.723 4.594 1.057 10.187 2.387 20.357 4.839 30.56 7.147 10.758 2.435 17.39 9.519 21.94 19.06.966 2.025 1.86 9.571 2.687 21.334 6.267-6.998 15.012-11.185 26.318-12.426 9.377-1.03 18.791-1.71 28.186-2.577 2.068-.19 4.124-.504 6.362-.783l2.119-6.68c-1.66-.336-3.02-.985-4.257-.8-10.636 1.584-17.287-1.543-22.609-11.114-3.18 4.286-7.06 2.81-10.697 1.077-3-1.43-6.002-3.118-8.486-5.285-1.589-1.386-2.593-3.746-3.204-5.86-.565-1.958-.535-4.202-.295-6.265 4.018-34.5 9.938-68.563 24.186-100.59 5.276-11.86 12.284-22.472 23.102-30.166 8.07-5.741 17.016-9.342 26.815-10.09 4.484-.34 9.244.504 13.6 1.772 2.745.799 4.74.367 7.172-.474 3.76-1.3 7.625-2.854 11.522-3.1 11.94-.756 22.17 3.035 30.316 12.267 9.358 10.605 13.44 23.653 17.551 36.663 5.073 16.051 8.138 32.497 9.053 49.368.805 14.854 2.164 29.677 3.26 44.513.078 1.048.132 2.122-.014 3.154-1.264 8.898-1.09 12.703-12.957 14.413-1.868.268-3.728.596-5.586.932-6.78 1.23-7.318 1.027-11.624-4.536-.281.18-.784.33-.818.55-1.139 7.273-5.56 10.202-12.677 9.951-1.57-.057-3.174.783-4.697 1.192.312 2.993 2.103 3.387 4.436 3.66 9.589 1.12 19.248 1.971 28.7 3.836 13.272 2.617 25.394 7.869 33.025 19.885 2.522 3.971 4.356 8.514 5.782 13.03 8.675-5.514 17.995-9.696 27.897-12.626 12.113-3.585 24.296-6.94 36.49-10.235 3.911-1.056 7.959-1.602 12.784-2.546 2.825-6.664 5.352-13.943 14.718-13.16-.258-4.352-.637-8.315-.675-12.281-.023-2.379-.73-4.088-2.766-5.367-8.343-5.243-12.24-13.514-14.95-22.482-4.48-14.808-6.464-30.069-8.114-45.397-.498-4.62-1.428-9.22-2.516-13.744-2.404-10.001.095-19.228 4.796-27.81 5.735-10.47 13.904-18.44 25.97-21.491.56-.142 1.04-.596 2.543-1.492l-14.933-1.861c7.994-18.34 32.43-23.712 58.613-13.03.234-1.2.467-2.332.755-3.775 7.655-.696 13.178 3.976 20.015 8.472-1.233-2.967-2.087-5.007-3.553-8.525 12.395 3.365 23.145 6.513 29.603 16.937 4.867 7.845 3.535 17.17-3.238 25.812 2.806 1.064 5.631 1.83 8.159 3.153 7.87 4.108 10.83 11.529 11.45 19.638.486 6.313 2.357 12.11 4.04 18.053.863 3.073 1.466 6.22 2.311 9.88 1.781.583 3.922 1.437 6.144 1.981 3.517.864 4.687 3.086 4.804 6.558.297 8.26-2.483 16.043-3.365 24.077-.791 7.243-5.63 12.234-8.653 18.149-1.277 2.49-5.919 3.256-9.031 4.805-.27-.342-.531-.684-.8-1.024l-7.782 17.12 4.912 1.559c.413.567.63.725.656.91 1.26 7.95 2.5 15.903 3.76 23.966.486.322.963.903 1.511.973 6.117.782 12.036 2.097 17.793 3.822.36-2.413.729-4.061 1.107-4.856 4.551-9.54 11.18-16.623 21.94-19.057 10.2-2.31 20.374-4.761 30.556-7.149 1.43-.334 2.86-.656 4.597-1.057-3.14-5.01-6.108-9.733-9.508-15.163 8.851-1.666 16.884-3.11 19.709-13.404-.351-.895-1.044-2.893-1.89-4.824-6.242-14.205-6.404-28.671-1.565-43.22 2.105-6.335 2.204-12.647.9-19.014-1.655-8.083-1.583-16.021.567-24.023 1.547-5.774 2.653-11.668 3.913-17.518 1.475-6.836 4.335-13.014 9.004-18.222 1.835-2.043 3.877-4.181 6.27-5.398 14.482-7.37 29.612-12.388 46.173-11.122 3.166.242 6.395.823 9.4 1.837 14.383 4.858 27.498 11.811 37.95 23.19 8.951 9.743 13.134 21.551 14.375 34.327 1.835 18.707 3.104 37.472 4.354 56.23.612 9.17.45 18.39.98 27.565.37 6.446 2.555 12.246 6.504 17.224a31.312 31.312 0 014.22-1.276c10.2-2.308 20.364-4.76 30.556-7.147 1.421-.334 2.852-.656 4.597-1.057-3.149-5.01-6.108-9.732-9.517-15.163 8.851-1.666 16.893-3.11 19.708-13.406-.341-.894-1.034-2.892-1.889-4.822-6.233-14.205-6.395-28.67-1.565-43.22 2.105-6.335 2.204-12.647.9-19.014-1.655-8.084-1.574-16.022.575-24.023 1.548-5.774 2.645-11.669 3.913-17.518 1.467-6.837 4.336-13.015 9.005-18.222 1.835-2.043 3.877-4.181 6.27-5.398 14.473-7.37 29.603-12.389 46.163-11.123 3.176.242 6.405.823 9.41 1.838 14.374 4.857 27.498 11.811 37.95 23.19 8.942 9.743 13.125 21.55 14.375 34.327 1.826 18.706 3.104 37.472 4.345 56.23.612 9.17.45 18.389.99 27.565.431 7.481 3.292 14.095 8.536 19.562 1.133 1.178 2.366 2.267 4.525 4.332-7.988-.694-13.61-4.142-19.817-6.463 3.508 5.799 7.187 11.38 14.348 13.427 4.731 1.353 9.427 2.825 14.176 4.124 6.423 1.763 11.829 4.673 15.93 9.022 11.326-6.604 22.417-13.662 34.192-19.307 10.803-5.176 22.578-8.363 34.011-12.133 3.22-1.06 6.792-1.067 10.345-1.578a31564.72 31564.72 0 015.172-24.948l4.786-2.15c-2.384-5.675-4.606-10.983-6.81-16.227-.854-.255-1.502-.522-2.168-.635-9.328-1.577-12.8-8.061-8.815-16.527 1.286-2.732 2.456-5.533 3.967-8.139 3.598-6.222 3.301-12.505.18-18.64-3.032-5.97-3.059-11.969-1.457-18.25.962-3.804 1.736-7.669 2.42-11.537 1.709-9.684 4.245-18.932 10.569-26.898 8.186-10.328 18.368-17.59 30.854-21.7 5.937-1.96 12.215-3.238 17.775-5.98 9.373-4.629 18.476-3.832 27.58-.157 6.224 2.512 12.35 5.42 18.16 8.77 8.618 4.966 15.455 11.617 18.855 21.454 6.998 20.258 12.81 40.605 10.318 62.464-1.458 12.712-4.822 24.613-12.909 34.7-2.563 3.194-7.133 5.081-8.896 8.53-1.763 3.458-1.187 8.118-1.601 12.254-.063.639.054 1.296.045 1.15 1.196.668 2.401 1.235 3.553 1.788 5.928-3.564 11.703-7.41 17.658-10.943 17.415-10.343 35.594-18.768 55.978-21.372.548-.069 1.025-.651 1.51-.972 1.26-8.063 2.501-16.015 3.76-23.965.028-.187.244-.344.657-.912l4.912-1.559-7.781-17.12c-.27.342-.53.683-.8 1.024-3.113-1.549-7.755-2.315-9.032-4.804-3.022-5.915-7.862-10.906-8.653-18.15-.882-8.033-3.662-15.816-3.365-24.077.117-3.47 1.278-5.694 4.804-6.557 2.222-.545 4.363-1.397 6.135-1.981.854-3.66 1.457-6.807 2.32-9.88 1.683-5.944 3.554-11.74 4.04-18.053.62-8.11 3.58-15.53 11.45-19.639 2.528-1.322 5.353-2.089 8.16-3.153-6.774-8.64-8.106-17.965-3.248-25.81 3.616-5.835 11.985-11.463 25.109-16.885V750L0 749.553c.047-367.29.047-550.474 0-549.55 4.954.882 10.088 2.36 15.296 4.485l.763-3.775z" fill="#FFF" fill-rule="evenodd"/></svg>