<?xml version="1.0" encoding="UTF-8"?>
<svg width="1728px" height="650px" viewBox="0 0 1728 650" version="1.1" xmlns="http://www.w3.org/2000/svg" xmlns:xlink="http://www.w3.org/1999/xlink">
    <title>audience</title>
    <g id="audience" stroke="none" stroke-width="1" fill="none" fill-rule="evenodd">
        <g id="Group" transform="translate(-0.412485, -0.150314)">
            <path d="M1728.41249,214.795619 C1727.92674,206.982289 1726.70338,200.117064 1726.19064,198.572569 C1722.58352,187.640563 1714.62267,181.448188 1703.79231,178.478834 C1699.04278,177.178112 1694.34723,175.706478 1689.61569,174.354482 C1682.45542,172.307149 1678.77634,166.725556 1675.26816,160.926276 C1681.47493,163.247068 1687.097,166.695871 1695.08484,167.38941 C1692.92597,165.324985 1691.69361,164.235653 1690.5602,163.057266 C1685.31593,157.591713 1682.45542,150.976558 1682.02365,143.496055 C1681.49292,134.319034 1681.64584,125.100636 1681.04316,115.930811 C1679.79281,97.1728812 1678.51547,78.4077547 1676.68942,59.7001983 C1675.43908,46.925052 1671.25625,35.1169021 1662.31491,25.3740764 C1651.86236,13.995003 1638.74719,7.0416246 1624.36368,2.18415453 C1621.35924,1.16858347 1618.12992,0.587486128 1614.96357,0.345512156 C1598.3942,-0.919229125 1583.26408,4.09925708 1568.79062,11.4682191 C1566.39787,12.6852852 1564.35593,14.8234716 1562.52089,16.865408 C1557.84332,22.0745949 1554.99181,28.2516777 1553.51658,35.0890166 C1552.24824,40.9386699 1551.15081,46.8315007 1549.60361,52.6064929 C1547.45373,60.6087251 1547.37278,68.5452914 1549.02791,76.629381 C1550.33224,82.9971644 1550.23329,89.3082774 1548.12838,95.6436777 C1543.2979,110.191801 1543.45981,124.658966 1549.70256,138.863467 C1550.54812,140.793862 1551.24076,142.792621 1551.58258,143.686755 C1548.76705,153.980994 1540.72524,155.425641 1531.88284,157.091574 C1535.28307,162.522045 1538.24253,167.244586 1541.39089,172.255876 C1539.6458,172.654368 1538.22454,172.9773 1536.79429,173.311925 C1526.61159,175.698383 1516.43789,178.150505 1506.2372,180.459603 C1495.4788,182.894634 1488.84026,189.977545 1484.29763,199.517976 C1483.3981,201.404294 1482.55254,208.74717 1481.77894,220.346628 C1475.38327,217.938582 1468.96961,215.570116 1462.54696,213.222339 C1458.75093,211.831663 1454.76601,210.937529 1450.03447,209.580136 C1447.80364,202.696021 1445.91462,195.225412 1436.51452,195.193929 C1437.14419,190.879776 1437.86381,186.965014 1438.25061,183.016971 C1438.47549,180.649404 1439.33005,179.007759 1441.47093,177.91033 C1450.23237,173.409075 1454.83797,165.506691 1458.31016,156.807322 C1464.05817,142.443603 1467.35945,127.411532 1470.3279,112.284111 C1471.22744,107.724386 1472.54975,103.221331 1474.02498,98.809129 C1477.28128,89.0546095 1475.59016,79.6455101 1471.65921,70.688875 C1466.84672,59.7613664 1459.3986,51.1141701 1447.64172,47.0293976 C1447.102,46.8395965 1446.66123,46.3448542 1445.23997,45.3220869 C1450.85305,45.112496 1455.51262,44.9388864 1460.28014,44.7616787 C1453.90246,25.7986553 1430.02889,18.3298453 1403.01596,26.7044835 C1402.88103,25.4892165 1402.7461,24.3414143 1402.58419,22.8778765 C1395.01913,21.5213831 1389.1182,25.6979078 1381.91295,29.5847834 C1383.40618,26.7359671 1384.42265,24.7767875 1386.19472,21.3990468 C1373.55631,23.6784596 1362.57303,25.8832113 1355.22385,35.7078942 C1349.70073,43.1029427 1350.23145,52.5093435 1356.22233,61.7034549 C1353.33484,62.5202295 1350.45634,63.0392592 1347.82071,64.1375871 C1339.62598,67.5495101 1336.03685,74.6854934 1334.71454,82.7111134 C1333.68007,88.9583596 1331.31431,94.5705366 1329.12845,100.347328 C1328.00403,103.332873 1327.12249,106.416467 1325.96209,109.988506 C1324.14504,110.415784 1321.93219,111.079638 1319.67437,111.429556 C1316.09423,111.985466 1314.74494,114.100265 1314.32216,117.54727 C1313.31468,125.750997 1315.41059,133.746033 1315.5905,141.825625 C1315.75241,149.11093 1320.14213,154.502722 1322.64282,160.656417 C1323.69528,163.246168 1328.2559,164.411961 1331.21536,166.225416 C1331.5122,165.907882 1331.80905,165.590347 1332.10589,165.273712 C1334.14783,171.055001 1336.19876,176.83539 1338.37563,183.002578 C1336.5136,183.419961 1334.74152,183.819353 1333.34725,184.13149 C1332.87949,184.660415 1332.6636,184.798943 1332.61863,184.981548 C1330.67564,192.793079 1328.74165,200.608209 1326.78966,208.531282 C1326.28593,208.810137 1325.7552,209.348057 1325.20649,209.369645 C1304.66119,210.198114 1285.83399,217.017462 1267.5825,225.812182 C1260.80903,229.076581 1254.21546,232.720583 1247.433,235.958897 C1243.61898,225.920125 1235.901,220.133439 1225.55639,217.296317 C1220.80686,215.995594 1216.11131,214.52486 1211.37977,213.171965 C1204.2195,211.125531 1200.54042,205.543038 1197.03225,199.744658 C1203.23901,202.06545 1208.86108,205.514253 1216.84892,206.207792 C1214.69005,204.142468 1213.45769,203.054035 1212.32428,201.874749 C1207.08001,196.410095 1204.2195,189.794941 1203.78773,182.313537 C1203.24801,173.137416 1203.40992,163.918118 1202.79824,154.749194 C1201.55689,135.991263 1200.27955,117.225237 1198.45351,98.5176808 C1197.20316,85.7425345 1193.02034,73.9343846 1184.07899,64.1924585 C1173.62644,52.8124856 1160.51127,45.8591072 1146.12776,41.0016371 C1143.12332,39.9869656 1139.89401,39.4058682 1136.71866,39.1638942 C1120.15828,37.8982534 1105.02816,42.9167396 1090.54571,50.2857016 C1088.16195,51.5036673 1086.12001,53.6409541 1084.28497,55.6837901 C1079.6164,60.8920775 1076.75589,67.0700598 1075.28066,73.9064991 C1074.01232,79.7561524 1072.91489,85.6498828 1071.3677,91.424875 C1069.21782,99.4271072 1069.13686,107.362774 1070.792,115.446864 C1072.09632,121.814647 1071.99737,128.126659 1069.89246,134.46116 C1065.06198,149.010183 1065.2239,163.476448 1071.45765,177.68095 C1072.3122,179.612244 1073.00484,181.610104 1073.34667,182.505137 C1070.53113,192.799376 1062.48932,194.243124 1053.64693,195.909056 C1057.04715,201.340427 1060.00661,206.062968 1063.15497,211.073358 C1061.40988,211.47275 1059.97963,211.795682 1058.55837,212.130308 C1048.37567,214.516765 1038.20197,216.968887 1028.00128,219.277985 C1021.22781,220.809887 1016.09149,224.18403 1012.07958,228.851699 C1006.97923,228.173452 1001.83391,227.661618 996.715577,227.064329 C994.673641,226.825954 993.108456,226.480533 992.838597,223.862897 C994.169903,223.503984 995.573172,222.770866 996.949455,222.81944 C1003.17421,223.039826 1007.0422,220.47796 1008.03168,214.116473 C1008.06766,213.922174 1008.50844,213.791742 1008.75131,213.634324 C1012.52035,218.50079 1012.9881,218.678897 1018.91601,217.602158 C1020.54417,217.308011 1022.17232,217.022859 1023.80947,216.787182 C1034.19006,215.291261 1034.03714,211.962995 1035.14356,204.179349 C1035.2695,203.277119 1035.21553,202.337108 1035.15256,201.421385 C1034.19006,188.442945 1033.00268,175.476198 1032.30104,162.484265 C1031.50046,147.726551 1028.81986,133.340344 1024.38517,119.299557 C1020.78704,107.919584 1017.2159,96.5063284 1009.03016,87.2294601 C1001.90587,79.1543659 992.955536,75.8386928 982.511975,76.4989489 C979.102751,76.7148365 975.720512,78.0722295 972.428227,79.2110364 C970.305333,79.9459536 968.560242,80.3237568 966.158492,79.6257204 C962.344479,78.516598 958.188643,77.7771832 954.257691,78.0758276 C945.694151,78.729787 937.868227,81.8799463 930.806905,86.9011311 C921.343833,93.6314257 915.209029,102.913691 910.594432,113.287988 C898.133222,141.303896 892.955519,171.099978 889.441049,201.27746 C889.230559,203.08282 889.204473,205.044698 889.699215,206.759205 C890.232637,208.607742 891.111479,210.672167 892.501256,211.884735 C894.674524,213.779149 897.299357,215.25618 899.924189,216.507428 C903.101335,218.023138 906.501564,219.313966 909.281116,215.565618 C913.940689,223.938457 919.751663,226.673033 929.061814,225.285956 C930.141251,225.12494 931.328633,225.692544 932.785874,225.986691 C932.084239,228.188744 931.544521,229.899653 930.932839,231.829148 C928.97186,232.07382 927.172798,232.348177 925.364739,232.514591 C917.143021,233.273795 908.912308,233.867486 900.708581,234.768817 C892.601104,235.658453 886.006638,238.287784 880.867615,242.570453 C874.985578,240.548307 868.9929,238.762737 863.092872,236.817949 C860.123519,235.839259 856.833033,235.832962 853.552441,235.361608 C851.932385,227.541981 850.378894,220.048883 848.781326,212.340798 C847.452718,211.743509 845.964893,211.074258 844.363727,210.355532 C846.558584,205.119359 848.612214,200.22141 850.641558,195.38283 C851.433145,195.146253 852.026836,194.900681 852.644814,194.796336 C861.25513,193.340894 864.46016,187.35811 860.781976,179.545679 C859.595494,177.025191 858.511559,174.439938 857.119983,172.03549 C853.799813,166.293781 854.07417,160.495401 856.949972,154.834649 C859.749314,149.324119 859.777199,143.790201 858.301068,137.99452 C857.406934,134.482749 856.699902,130.917906 856.068431,127.347665 C854.486155,118.411719 852.148273,109.877864 846.315711,102.526893 C838.755148,92.997256 829.360441,86.2948469 817.845539,82.5024221 C812.359296,80.6952633 806.567213,79.515078 801.440783,76.9846959 C792.790888,72.7128208 784.391963,73.4495371 775.989439,76.8398713 C770.245031,79.157964 764.593274,81.8403669 759.229368,84.9320567 C751.275711,89.5160692 744.969095,95.652673 741.831529,104.729845 C735.370195,123.423009 730.008987,142.19893 732.315386,162.370024 C733.655688,174.100815 736.76087,185.082295 744.225183,194.390647 C746.589151,197.337512 750.803457,199.079005 752.42891,202.261548 C754.058861,205.452186 753.527238,209.752846 753.911338,213.569558 C753.970707,214.158751 753.862763,214.764136 753.869959,214.631905 C750.675723,216.405781 747.458099,217.414156 745.399971,219.543347 C743.117859,221.904617 741.893597,225.290453 740.861834,227.089516 C729.396406,230.665154 718.244914,233.950243 707.302113,237.400846 C695.130553,231.55569 682.403082,227.152484 668.666336,225.398397 C668.120321,225.328234 667.639071,224.747136 667.160521,224.425104 C665.897578,216.362603 664.654426,208.409845 663.395082,200.459786 C663.366297,200.273583 663.156706,200.116165 662.740223,199.54946 C661.381031,199.117685 659.644035,198.566272 657.827881,197.989672 C660.534572,192.033874 663.07125,186.451382 665.607929,180.869789 C665.87599,181.211611 666.14315,181.553433 666.411211,181.894355 C669.521791,180.345362 674.166072,179.578961 675.438909,177.089958 C678.460435,171.174639 683.300814,166.184038 684.094201,158.939211 C684.973943,150.906395 687.753495,143.122749 687.462047,134.863251 C687.338811,131.391959 686.178415,129.169216 682.657649,128.304767 C680.439404,127.76055 678.295821,126.907794 676.517447,126.323998 C675.668289,122.664704 675.064704,119.517244 674.197555,116.444444 C672.519929,110.501239 670.647105,104.703759 670.163157,98.3908469 C669.54158,90.28247 666.582122,82.8622347 658.714819,78.7531748 C656.181739,77.429964 653.358109,76.6644627 650.55427,75.6003169 C657.323244,66.9594174 658.659048,57.6339744 653.795282,49.7891603 C647.333947,39.3644898 636.580048,36.2161295 624.188102,32.8509822 C625.654338,36.3699494 626.504396,38.4100869 627.740352,41.3767417 C620.899415,36.8799838 615.380789,32.2087167 607.728475,32.9049541 C607.437027,34.3478026 607.207646,35.4803128 606.965672,36.6802878 C580.786607,25.9974518 556.351733,31.3703534 548.357597,49.709102 C553.085535,50.2982951 557.712725,50.8748948 563.290719,51.5711321 C561.787602,52.466166 561.307252,52.9204294 560.746844,53.0625554 C548.681428,56.1137662 540.511883,64.0836152 534.776471,74.5541618 C530.076419,83.1356923 527.57752,92.3630863 529.981068,102.362278 C531.068602,106.886922 531.999617,111.487126 532.497058,116.10712 C534.147698,131.436036 536.132065,146.696588 540.609932,161.504675 C543.32202,170.472105 547.21879,178.743297 555.561945,183.986666 C557.596685,185.2658 558.304616,186.97401 558.328004,189.353271 C558.366684,193.319305 558.744487,197.281741 559.002653,201.634574 C549.636731,200.851982 547.109947,208.130991 544.284518,214.795619 C539.460331,215.738328 535.41154,216.283444 531.500377,217.340394 C519.305428,220.635378 507.123073,223.99063 495.010882,227.575263 C483.012931,231.125714 471.853343,236.480625 461.68414,243.861281 C460.413102,244.7842 459.257204,245.775484 458.200254,246.832434 C456.775396,242.189052 455.338844,237.549269 453.886101,232.914882 C452.422563,228.250811 450.537145,223.550759 447.931202,219.447996 C440.153853,207.199975 427.797889,201.847763 414.270734,199.178853 C404.635852,197.278143 394.79048,196.410995 385.01707,195.269489 C382.638709,194.991534 380.81356,194.589443 380.494226,191.539132 C382.048616,191.12175 383.681266,190.267195 385.282432,190.323865 C392.538053,190.580232 397.042907,187.594687 398.203302,180.182547 C398.239284,179.955865 398.752017,179.804744 399.038068,179.621239 C403.425982,185.290986 403.975596,185.497879 410.886697,184.244831 C412.779311,183.90121 414.675523,183.568384 416.579831,183.294926 C428.675831,181.551634 428.498624,177.673754 429.786753,168.603778 C429.936075,167.552225 429.880304,166.456596 429.801145,165.389752 C428.683927,150.266828 427.298649,135.158297 426.477376,120.019182 C425.544562,102.822839 422.421389,86.0600692 417.249982,69.6993903 C413.059065,56.4393966 408.899631,43.1398235 399.360999,32.329254 C391.058324,22.9201545 380.630955,19.0566668 368.460294,19.8266657 C364.488862,20.077635 360.549814,21.6608104 356.71691,22.9858203 C354.238701,23.8430738 352.20486,24.2838443 349.405518,23.4697683 C344.96633,22.178041 340.116056,21.3162899 335.544637,21.6644086 C325.557139,22.4254122 316.438588,26.0964002 308.213272,31.9478526 C297.187715,39.7890686 290.043636,50.6059349 284.666236,62.6947386 C270.1433,95.339636 264.110143,130.057954 260.014576,165.221539 C259.769004,167.325543 259.73842,169.612152 260.315019,171.610012 C260.936596,173.76349 261.961162,176.169737 263.581218,177.582001 C266.113399,179.790351 269.170907,181.510256 272.230213,182.968396 C275.936283,184.735076 279.891523,186.238193 283.133435,181.870968 C288.55761,191.627286 295.336479,194.813427 306.177632,193.197868 C307.437876,193.009866 308.824054,193.671921 310.516972,194.013743 C309.702896,196.580107 309.070526,198.573468 308.357197,200.822297 C306.075985,201.106549 303.980077,201.426782 301.871575,201.621081 C292.33834,202.500823 282.783517,203.191663 273.268273,204.23422 C272.321066,202.828252 270.949281,201.673254 269.118734,200.638793 C257.181052,193.886909 245.658053,186.293064 233.323677,180.381343 C223.358667,175.605731 212.494126,172.665162 201.938124,169.186674 C198.96877,168.207084 195.678284,168.201687 192.397693,167.729433 C190.777637,159.909806 189.224146,152.416708 187.626578,144.708623 C186.29797,144.112234 184.810145,143.442982 183.208979,142.723357 C185.403836,137.488084 187.458365,132.590135 189.486809,127.750655 C190.278397,127.514978 190.872987,127.268506 191.490066,127.16506 C200.100381,125.708719 203.305412,119.726834 199.627227,111.914403 C198.440745,109.393017 197.35681,106.808663 195.966134,104.403315 C192.645064,98.6625054 192.919421,92.8641254 195.795223,87.2024742 C198.594565,81.6928438 198.622451,76.1580265 197.14632,70.3623451 C196.252185,66.8514736 195.545154,63.2857308 194.913682,59.7163898 C193.332306,50.7795444 190.993524,42.2456891 185.161862,34.8947178 C177.6004,25.3650811 168.206592,18.6635715 156.69079,14.8702472 C151.204548,13.0630884 145.412464,11.8838026 140.286934,9.35252101 C131.63614,5.08064594 123.237214,5.81736223 114.83469,9.20769643 C109.091182,11.5257891 103.438526,14.208192 98.0746195,17.2998818 C90.120962,21.8838942 83.8143467,28.0204981 80.6767808,37.0985699 C74.2154461,55.7917339 68.8542384,74.5667553 71.1606372,94.738749 C72.5009391,106.46864 75.6061218,117.45102 83.0713337,126.758472 C85.4344029,129.706237 89.648708,131.44683 91.2741614,134.629373 C92.9041124,137.82091 92.3724893,142.120671 92.7574888,145.937383 C92.8159584,146.527476 92.7080146,147.13286 92.7152108,146.99883 C89.5209745,148.773606 86.3033503,149.78288 84.2461218,151.911172 C81.9631109,154.273341 80.7388485,157.658278 79.7079854,159.458241 C61.6184071,165.098303 44.3060239,170.015143 27.371444,176.001525 C20.0051806,178.605668 13.3054701,183.223863 6.54189276,187.323028 C4.53593753,188.539195 2.59834669,190.862684 1.89671213,193.08003 C1.41366372,194.603836 0.917122332,201.202799 0.412485164,211.073358 C0.806822638,211.143318 0.806822638,357.502303 0.412485164,650.150314 L1728.41249,650.150314 C1727.8409,360.082887 1727.8409,214.964656 1728.41249,214.795619 Z" id="Path" fill="#000000"></path>
            <path d="M952.737483,233.693877 C952.773464,234.192217 952.809445,234.689658 952.836431,235.187998 C948.194849,236.70101 943.580252,238.277889 938.911683,239.702747 C936.454682,240.451587 933.950776,241.051898 931.443692,241.594774 L931.490549,242.304192 L931.490549,242.304192 C926.848966,243.817204 922.225374,245.393183 917.556806,246.818041 C916.127518,247.255149 914.679585,247.641649 913.221703,247.995805 C908.093454,250.675463 903.3013,254.065496 898.856446,258.236694 C898.967619,255.783892 899.57432,253.375682 900.58265,251.116246 L900.834515,251.248234 C898.734109,250.132815 896.622009,249.040783 894.478426,248.013518 C893.338719,247.466603 892.184621,246.951172 891.023325,246.449233 C892.785508,245.645052 894.655634,245.055859 896.594124,244.730228 C899.837446,244.186007 903.093626,243.718185 906.354375,243.278732 C909.566273,240.404793 913.582147,238.347186 917.943604,237.614934 C925.895463,236.27913 933.928279,235.404785 941.916119,234.280371 C944.281887,233.948444 946.602678,233.324169 948.968446,233.107382 C950.200804,232.994941 951.478138,233.479788 952.737483,233.693877 Z M792.804356,81.9505391 L793.205572,82.0040817 C807.539606,83.9803523 821.370803,87.8456392 832.509701,97.7836631 C836.786074,101.599476 840.366209,106.19968 844.229697,110.472454 C844.645281,110.933014 844.943925,111.570782 845.10764,112.177966 L848.165647,123.498803 C850.200587,131.047338 852.218736,138.600804 854.164123,146.17306 C854.560816,147.719355 854.640875,149.752296 853.961728,151.106091 C849.641279,159.734397 849.268872,168.163907 854.219894,176.686968 C855.490932,178.876427 856.234844,181.373527 857.56705,184.553371 L851.665224,186.768917 L851.665224,186.768917 L848.912658,180.108785 L848.912658,180.108785 L848.5433,180.800351 C847.7134,182.334746 847.104487,183.342714 846.66293,184.42024 C844.228798,190.363444 841.966476,196.379511 839.425299,202.27594 C837.035244,207.817954 839.225603,213.196252 839.920042,218.570054 C840.059469,219.65129 842.901089,220.383509 844.832383,221.463846 C845.117834,224.665379 845.531219,228.031803 845.731382,231.425394 L845.795781,232.698995 C845.967592,236.815251 847.781947,239.654172 851.636439,241.027757 C854.858561,242.175559 858.174234,243.060698 861.417045,244.154528 C865.992962,245.699024 870.541893,247.327176 875.101618,248.921146 C874.81017,249.346624 874.537612,249.792792 874.263255,250.23806 C867.573439,248.866274 860.818857,247.739161 854.232487,245.982376 C849.449678,244.70607 844.90033,242.581239 840.203448,240.953965 L839.11676,240.587886 C836.550533,239.750504 835.160024,238.461443 835.404551,235.772542 L835.432279,235.516327 C836.327313,228.357856 834.763927,221.444057 833.108789,214.584229 C832.267727,211.097645 832.537587,208.03654 833.959746,204.693881 C839.676269,191.257579 844.198213,177.420086 845.985583,162.862968 C846.629572,157.622822 846.649224,152.307846 846.923096,147.020586 L847.004752,145.57937 C847.329483,140.345895 846.401166,135.357094 844.414101,130.521212 L844.127267,129.825187 C843.6486,128.65436 843.192837,127.43387 843.14936,126.227748 C842.729279,114.463676 835.215492,107.662318 826.497233,101.376392 C811.158422,90.3184513 793.633749,86.8309676 775.324685,85.7308406 C780.535026,81.5949513 786.780965,81.1736147 792.804356,81.9505391 L792.804356,81.9505391 Z M1078.87878,219.807809 C1078.77084,220.459969 1078.6539,221.113929 1078.53696,221.766988 L1067.76395,224.704633 C1064.17369,225.683099 1060.58231,226.655043 1056.98419,227.603149 C1052.78401,228.708696 1048.59217,229.82675 1044.44729,231.062683 L1044.83152,231.130212 L1044.83152,231.130212 C1052.02777,232.430035 1058.04563,236.478826 1063.6767,240.882033 C1065.63768,242.416633 1066.65415,245.161104 1068.0934,247.352363 L1067.05894,248.2402 L1067.05894,248.2402 C1065.72763,247.214734 1064.24341,246.334093 1063.09201,245.138616 C1057.7368,239.586108 1051.49327,236.509669 1043.62674,236.344204 L1043.12241,236.3376 C1037.34622,236.307375 1031.55435,235.45673 1025.7907,234.732766 L1023.96413,234.505123 C1021.12432,234.125097 1021.03781,233.693234 1019.36578,229.242095 C1021.6326,229.054093 1023.7375,228.570145 1025.77044,228.768942 L1026.23691,228.812173 C1027.71002,228.28675 1029.23041,227.878343 1030.74485,227.497904 C1044.02194,224.166039 1057.25405,220.664163 1070.62108,217.746982 C1073.10379,217.204565 1076.11722,219.059399 1078.87878,219.807809 Z M757.99611,194.931265 C761.498886,196.261672 762.548639,198.288317 762.580123,200.699061 C762.688966,208.997239 762.621501,217.298116 762.621501,226.327613 L754.697528,227.846922 L754.697528,227.846922 C753.506182,233.365713 749.475801,236.154232 743.881513,237.919694 L743.529845,238.028719 C736.168079,240.270351 728.829701,242.589343 721.49762,244.928125 C720.32733,244.253477 719.152541,243.587823 717.974155,242.932965 C724.183621,240.692232 730.403881,238.481183 736.642132,236.323207 C739.220189,235.432671 742.104987,235.429972 745.063546,235.512729 C749.185199,232.171869 747.420319,226.187286 750.349193,221.690528 L759.261751,221.690528 L757.99611,194.931265 L757.99611,194.931265 Z M662.040387,140.407963 C663.59028,142.008229 665.308385,142.994116 665.240021,143.834278 C664.631038,151.288696 668.000683,157.524248 670.903471,163.936109 C671.67437,165.638922 672.209591,167.448779 673.1523,170.028636 L666.325755,172.038189 L666.325755,172.038189 L663.76389,164.379578 L663.76389,164.379578 C662.596298,166.388232 661.909056,167.33274 661.45929,168.380694 C659.25049,173.53366 657.058894,178.694216 654.889056,183.8635 L652.726638,189.035736 C652.168029,190.378737 651.405226,191.838676 651.476289,193.205964 C651.717364,197.868236 652.288566,202.513416 652.790505,207.754087 L658.06086,208.714786 L658.06086,208.714786 C658.297437,209.580136 658.578091,210.179224 658.609574,210.790905 C658.806572,214.634603 658.950497,218.481899 659.107015,222.327397 C659.27453,226.4495 660.961589,229.539476 664.846854,231.147941 L665.150068,231.26874 C667.344025,232.109802 669.472317,233.224321 671.738236,233.755045 C679.379756,235.544213 686.479758,238.673683 693.539282,241.903001 C691.865254,242.473304 690.192125,243.043607 688.525293,243.6328 C688.137595,243.770428 687.757993,243.935043 687.372993,244.082566 C684.17246,243.232509 680.989018,242.330278 677.899128,241.182476 C668.499923,237.688696 659.282424,233.70737 649.973172,229.968917 C647.831478,229.108935 647.21036,227.43781 647.553228,225.499134 L647.592112,225.29765 C649.260743,217.315207 647.32765,209.576538 645.65812,201.951209 C644.756789,197.834953 645.593353,194.57685 646.956144,190.903163 C651.261301,179.302805 655.470209,167.657471 659.267132,155.884402 C660.743263,151.309385 661.019419,146.348469 662.040387,140.407963 Z M1016.02852,237.137283 C1018.52022,237.45122 1021.01192,237.800238 1023.47664,238.245506 C1023.90841,238.322866 1024.3222,238.41102 1024.74498,238.50637 C1021.89346,239.903342 1019.09592,241.456833 1016.38833,243.21002 C1015.41684,243.135359 1014.45434,243.047205 1013.48284,242.947357 C1013.92361,241.00167 1014.81415,239.00651 1016.02852,237.137283 Z M1004.41557,235.885135 L1007.16813,236.155894 L1007.16813,236.155894 C1006.78133,236.869223 1006.41253,237.592446 1006.05271,238.336359 C1005.75587,238.975026 1005.45902,240.200188 1005.16218,241.941681 L1004.18506,241.817883 L1004.18506,241.817883 L1002.79946,241.646068 C999.781451,241.258168 999.728273,240.906192 998.019898,236.358289 C1000.28672,236.170287 1002.38263,235.686339 1004.41557,235.885135 Z M308.894218,211.286547 L309.012956,213.02714 L309.012956,213.02714 C303.604073,214.790222 298.217678,216.627066 292.778211,218.287601 C289.712608,219.223113 286.57864,219.960729 283.441074,220.629981 L282.239933,220.894676 L282.239933,220.894676 C279.697758,221.47562 277.210837,222.165837 274.774988,222.958868 L274.774435,222.948574 C264.172944,226.398654 254.595232,231.919583 246.109618,239.883553 C246.626849,228.460402 256.366976,217.86572 268.349635,215.854368 C273.163741,215.046099 278.002113,214.3827 282.845468,213.748216 L290.111827,212.803684 L290.965953,212.692367 C292.741076,212.457834 294.515459,212.21865 296.288183,211.969291 C299.037151,211.582493 301.745641,210.854772 304.501805,210.602004 C305.93296,210.471572 307.427981,211.036477 308.894218,211.286547 Z M556.993999,207.716307 C557.794582,207.819753 558.573576,208.091411 559.498295,208.32349 C559.217641,210.606501 558.698611,212.684419 558.760679,214.744346 C558.912175,219.795684 555.671689,222.878068 551.862297,224.134214 L545.674093,226.06105 C537.732079,228.510596 529.684942,230.71121 521.052319,230.44207 C528.506736,227.672413 535.903584,224.726447 543.461447,222.275224 C545.059915,221.757094 547.243977,223.047921 550.045118,223.717173 L554.588652,207.694718 L554.588652,207.694718 C555.445905,207.694718 556.231196,207.618258 556.993999,207.716307 Z M1339.16722,125.273346 C1339.67095,131.279517 1339.51803,136.245831 1340.58848,140.93149 C1343.09899,151.89269 1345.9589,162.778806 1348.92492,173.630386 L1349.81767,176.884865 C1350.86113,180.662897 1351.40984,183.981269 1350.15949,188.003973 L1349.235,190.951483 C1347.271,197.253901 1345.47873,203.662947 1346.14118,210.45688 L1346.21055,211.094947 C1346.45342,213.148577 1345.71581,214.847792 1343.431,215.542231 C1333.833,218.460311 1324.30696,221.628461 1314.63699,224.295572 C1309.14086,225.810383 1303.43783,226.573185 1297.81575,227.60135 C1293.36307,228.414526 1288.8924,229.114362 1284.43073,229.865471 C1285.01542,228.728463 1285.71706,228.208533 1286.49965,227.962961 C1298.1036,224.338749 1309.2398,219.186233 1321.41946,217.429448 C1323.51292,217.127696 1325.53946,216.333803 1327.58696,215.70603 L1328.20193,215.52334 C1332.42073,214.312571 1334.45367,211.336021 1334.99339,207.138807 C1335.47914,203.321196 1335.95589,199.501785 1336.48661,195.688671 C1336.56757,195.082387 1336.9004,194.509385 1337.21523,193.667424 L1342.54946,193.167284 L1342.54946,193.167284 C1343.50296,187.989581 1344.47445,183.410966 1345.11312,178.787374 C1345.31102,177.43178 1344.67235,175.911572 1344.23158,174.525393 C1341.96476,167.401104 1339.66196,160.290308 1337.32318,153.191205 C1336.96336,152.109069 1336.36068,151.106991 1335.37119,149.005685 L1332.15987,156.414226 L1332.15987,156.414226 L1325.53032,153.819978 L1325.53032,153.819978 L1325.94489,152.920038 C1326.86739,150.894659 1327.49804,149.371345 1328.30088,147.945137 L1330.53521,144.012463 C1333.23816,139.199543 1335.64876,134.285238 1335.67703,128.409112 C1335.68603,127.566251 1337.48509,126.733285 1339.16722,125.273346 Z M392.970838,205.493821 L393.482568,205.509753 C393.652697,205.518568 393.822391,205.531023 393.991696,205.547536 L397.419632,205.883451 C403.706003,206.504489 409.996783,207.178041 416.19933,208.299203 C424.584762,209.814014 431.604706,214.532057 438.16319,219.662984 C440.448,221.450353 441.629085,224.648188 443.314807,227.201958 L442.103138,228.236419 C440.553245,227.040942 438.827944,226.015476 437.484044,224.622101 C431.226699,218.139704 423.935461,214.5529 414.748017,214.37398 L414.215863,214.367442 C407.421754,214.331884 400.620474,213.323413 393.845021,212.475946 L391.956549,212.24142 C388.579402,211.795683 388.495608,211.323411 386.531881,206.099848 C388.570631,205.930531 390.492682,205.556188 392.352958,205.500036 L392.970838,205.493821 Z M1440.3825,201.613885 L1443.21659,216.371729 C1443.31848,216.904391 1443.42022,217.436734 1443.52187,217.969167 C1446.37338,217.545487 1448.65819,216.448958 1450.20538,217.103817 C1457.52757,220.200005 1464.64287,223.775642 1471.83012,227.180369 C1461.04474,226.581281 1451.50971,222.215855 1441.9117,218.326281 C1438.19477,216.820127 1435.15053,213.541657 1435.58265,208.593896 L1435.61498,208.275815 C1435.85786,206.228481 1435.52503,204.114582 1435.44407,201.81448 C1436.37959,201.663359 1437.18017,201.460065 1437.98975,201.426782 C1438.75435,201.395299 1439.52795,201.539224 1440.3825,201.613885 Z M1557.1237,180.989427 L1556.77288,182.948606 L1556.77288,182.948606 C1549.58562,184.896992 1542.41636,186.888554 1535.22011,188.784767 L1531.81175,189.687903 C1517.62149,193.478972 1503.6149,197.730308 1491.41292,206.575701 C1491.51187,200.453489 1497.07997,192.951397 1503.46664,190.376038 C1505.02508,189.74794 1506.65239,189.278244 1508.28831,188.857274 L1508.98977,188.679522 C1522.25786,185.347657 1535.48997,181.845781 1548.857,178.9295 C1551.33971,178.386183 1554.35314,180.241017 1557.1237,180.989427 Z M96.8422613,127.299091 C100.344137,128.629498 101.393891,130.656142 101.425374,133.066886 C101.534218,141.365964 101.466753,149.666841 101.466753,158.696338 L93.5427798,160.214747 L93.5427798,160.214747 C92.3514329,165.734419 88.3210523,168.522093 82.7267641,170.28752 L82.3750963,170.396544 C63.5272129,176.137354 44.8124602,182.315336 26.0446351,188.318809 C25.4932223,188.494218 24.9193212,188.599463 24.3562145,188.737092 L24,187.804277 L24,187.804277 C29.2604602,185.700273 34.4750442,183.474832 39.7894763,181.517452 C51.6542967,177.147528 63.5380073,172.82348 75.4873837,168.691932 C78.0654409,167.800496 80.9511379,167.797797 83.909697,167.881454 C88.0304508,164.538795 86.26557,158.556011 89.1953441,154.058353 L98.1079021,154.058353 L96.8422613,127.299091 L96.8422613,127.299091 Z M132.051723,14.3728063 C146.384858,16.349077 160.216954,20.2134643 171.354953,30.1523877 C175.632225,33.9682003 179.21236,38.5666053 183.074948,42.8402795 C183.490532,43.3008396 183.789176,43.9386074 183.952891,44.5448916 L187.010898,55.8669614 C189.045839,63.415963 191.063988,70.969229 193.009374,78.5408854 C193.406068,80.0880796 193.486126,82.1201212 192.807879,83.4748156 C188.48653,92.1022222 188.114124,100.531732 193.065145,109.055692 C194.337083,111.245152 195.080096,113.741352 196.412302,116.922095 L190.510476,119.137641 L190.510476,119.137641 L187.757909,112.47751 L187.757909,112.47751 L187.388812,113.168779 C186.559354,114.702572 185.949851,115.710539 185.509081,116.788065 C183.074049,122.73127 180.812627,128.748236 178.270551,134.644665 C175.880496,140.186678 178.070855,145.564077 178.765293,150.937879 C178.90472,152.019115 181.74634,152.751334 183.677635,153.831671 C183.963086,157.034004 184.377181,160.399806 184.577502,163.79388 L184.641932,165.067719 C184.812843,169.183975 186.627198,172.021997 190.481691,173.395582 C193.703813,174.544284 197.020385,175.427624 200.262297,176.522353 C204.879592,178.081241 209.468102,179.724686 214.069206,181.331249 L213.697699,182.724623 L213.697699,182.724623 C206.816283,181.297966 199.857508,180.159159 193.077739,178.350201 C188.29493,177.073895 183.745581,174.949839 179.047979,173.322677 L177.961112,172.956611 C175.396629,172.118356 174.005328,170.829269 174.249804,168.141187 L174.27753,167.885052 C175.173464,160.72658 173.610078,153.811882 171.954041,146.952055 C171.112979,143.46637 171.383738,140.404365 172.805897,137.061706 C178.52152,123.625404 183.043465,109.787911 184.830834,95.2316923 C185.533368,89.5151696 185.492889,83.7086938 185.850903,77.9471946 C186.174734,72.7137204 185.246417,67.7249187 183.259352,62.8899369 L182.972831,62.193533 C182.494476,61.0221847 182.038088,59.8016954 181.994611,58.5955736 C181.57453,46.8315007 174.060743,40.0301431 165.342484,33.7451165 C150.003673,22.6862763 132.479001,19.1987927 114.169936,18.0995653 C119.496062,13.8717672 125.904325,13.5245481 132.051723,14.3728063 Z M576.150422,56.6993612 C567.639954,59.6966001 559.648516,61.2914695 553.969774,67.2373726 C550.604627,70.7608375 547.831371,74.8519067 544.791854,78.6884086 C546.0485,84.3122795 542.356822,88.9493643 541.703763,94.2233175 C538.856745,117.206347 541.949335,139.405885 550.494884,160.826428 C552.348818,165.472509 555.338861,169.663426 557.806276,174.064833 C552.779694,171.910455 550.055913,168.020881 547.991488,163.447663 C543.005385,152.402316 540.664804,140.667028 539.209362,128.790514 C537.862763,117.79554 537.233091,106.708815 536.42891,95.652673 C535.057124,76.8011915 552.674449,57.4738578 571.384704,56.421406 C572.585578,56.3539411 573.800845,56.5536371 576.150422,56.6993612 Z M346.858944,29.9661847 C349.311067,30.8612186 351.454651,31.1247813 354.184729,30.8387303 L356.527102,30.6005522 C364.853985,29.7841967 373.168364,29.3614683 381.601549,31.5178765 C391.16177,33.9619036 396.952954,39.9959609 400.20566,48.5271176 C407.09697,66.5996048 411.327467,85.4079088 413.399088,104.615605 C415.481095,123.915462 417.139355,143.262154 418.861819,162.600263 L419.380972,168.401383 C419.543788,170.213939 420.449616,172.801891 416.284785,173.324519 C415.303396,164.330104 414.763677,155.805244 413.373002,147.42161 C410.962257,132.882482 408.149422,118.404523 405.212452,103.959846 C404.548598,100.698145 402.928541,97.5389906 401.251815,94.6182118 C400.573568,93.4362274 398.643173,92.753483 397.145453,92.3190093 C395.355386,91.8008792 393.022001,92.3945699 391.608837,91.4644544 C383.928637,86.4126855 375.612469,87.6630343 367.301697,88.4960004 C366.245647,88.6012456 365.178803,88.869306 364.181222,89.2372144 C357.408923,91.7381075 351.31325,91.9439837 344.059195,89.1070294 L343.573855,88.9133831 C335.99398,85.8311648 327.004803,86.8298661 318.863615,89.6920382 L318.376179,89.8659869 C316.052181,90.7074791 314.272193,90.7086762 312.052181,89.8113233 L311.746632,89.683382 C301.857183,85.4007126 292.834882,88.7415725 289.252947,98.665204 L287.844279,102.583609 C283.635265,114.349948 279.608261,126.220552 276.548864,138.307557 C273.733331,149.43746 272.721358,161.025225 270.869222,172.664263 C268.448712,172.977968 268.011996,171.340984 268.085496,169.390987 L268.093268,169.218158 C268.427894,162.821589 268.08877,156.278397 269.345416,150.060835 C273.493156,129.529929 277.961129,109.052994 282.869872,88.6911988 C284.671274,81.2215342 287.556465,73.9653802 290.489675,66.8178487 L290.953062,65.6901785 C299.799954,44.1769833 316.730036,32.6980619 338.926876,28.3137454 C341.380798,27.8288979 344.324065,29.0414663 346.858944,29.9661847 Z M1431.98088,49.3187053 L1432.68874,49.3323476 C1434.5949,49.3595206 1435.68695,49.3008093 1436.75739,49.4545345 C1455.30573,52.122545 1471.18246,72.9035215 1468.17802,91.5652019 C1466.42394,102.510701 1464.83177,113.501177 1462.53796,124.337833 C1460.06425,136.043436 1456.71799,147.532252 1450.79008,158.104446 C1448.33436,162.480667 1445.28495,166.121071 1440.09465,167.83108 C1442.92817,163.659953 1446.27443,159.743392 1448.52326,155.276319 C1458.89486,134.675249 1463.89625,112.827428 1463.05069,89.6842815 C1462.86179,84.3743471 1459.5785,79.4350197 1461.32359,73.9397818 C1458.625,69.8550093 1456.21426,65.5399567 1453.16484,61.7367376 C1448.02852,55.3221785 1440.20259,53.0409666 1431.98088,49.3187053 Z M1084.72574,68.8484336 L1085.96709,69.131786 L1085.96709,69.131786 C1079.8053,101.292735 1080.12913,133.834187 1080.16511,166.357648 L1078.91477,166.675182 L1078.91477,166.675182 C1078.33907,165.762158 1077.57446,164.917498 1077.21465,163.927113 C1074.27794,155.857787 1073.14826,147.569716 1076.23291,139.439257 L1076.42306,138.951621 C1080.61488,128.476577 1079.67937,117.939465 1077.41255,107.456325 C1075.85636,100.303251 1076.17119,93.4749073 1078.24911,86.6087834 C1079.67937,81.9060327 1081.17259,77.2203732 1082.75576,72.5670967 C1083.19654,71.2546803 1084.06009,70.0843898 1084.72574,68.8484336 Z M679.192654,143.19741 L676.448183,159.800962 L676.448183,159.800962 L674.93787,160.158076 L674.93787,160.158076 C673.565185,156.885581 671.856974,153.709335 670.88728,150.3217 C668.920004,143.44748 671.65368,141.097904 679.192654,143.19741 Z M1329.49725,134.383801 C1328.23791,137.674287 1326.25894,140.691315 1324.6038,143.83158 L1323.12857,143.345833 L1323.12857,143.345833 L1321.83325,126.566872 L1321.83325,126.566872 C1329.53323,125.127621 1332.05192,127.705679 1329.49725,134.383801 Z M651.653497,80.8292935 C655.515329,82.4854946 658.787812,87.3478879 659.812771,91.8541222 L659.880612,92.167888 C660.350767,94.4649316 661.393728,96.7055566 662.521682,98.8085829 L662.76451,99.2570957 C667.678146,108.252411 669.185014,118.130454 670.383258,128.057593 L670.472596,128.802208 C671.072583,133.826091 670.267502,134.290249 664.237943,133.533743 C664.237943,131.086118 664.476319,128.526951 664.183971,126.030751 C663.714415,122.025137 662.924627,118.054605 662.211298,114.079576 C661.762432,111.577979 659.182576,109.395715 661.413414,106.438056 C661.817812,105.902013 660.969586,104.183303 660.332194,103.109082 L660.246721,102.966764 C657.708244,98.7893393 655.037535,94.6901743 652.154536,90.1502389 L655.395548,89.3703451 L655.395548,89.3703451 L650.499398,81.214293 L650.499398,81.214293 C650.724281,81.1324356 651.316173,80.6844689 651.653497,80.8292935 Z M1562.96166,30.0300515 L1564.21201,30.3143034 L1564.21201,30.3143034 C1558.04122,62.4752529 1558.36505,95.0158047 1558.40103,127.540165 L1557.15068,127.8568 L1557.15068,127.8568 C1556.57498,126.944675 1555.81038,126.100015 1555.45057,125.109631 C1552.51386,117.039422 1551.38418,108.751334 1554.46883,100.620875 L1554.65898,100.133239 C1558.8508,89.6581951 1557.91529,79.1219827 1555.64847,68.6379432 C1554.09228,61.4857683 1554.40711,54.6565252 1556.49403,47.7913008 C1557.91529,43.0876506 1559.40851,38.4019911 1560.99168,33.7487147 C1561.43245,32.4371977 1562.296,31.2660077 1562.96166,30.0300515 Z M1355.79056,67.3012394 L1350.20447,75.003028 L1350.20447,75.003028 L1353.37082,76.0599775 L1353.37082,76.0599775 L1349.40679,81.2194309 C1347.61157,83.5592529 1345.88522,85.8282149 1344.1956,88.1280921 L1343.99817,88.4044621 C1343.28571,89.4237592 1342.39262,90.9422568 1342.72936,91.4851436 C1344.69934,94.625408 1341.93777,96.5755923 1341.27212,99.0286147 C1340.21967,102.927184 1339.08626,106.81406 1338.27668,110.764802 C1337.77294,113.22682 1337.78194,115.795882 1337.57505,118.234512 L1337.01271,118.254025 C1331.54756,118.423808 1330.79522,117.797892 1331.72518,113.212911 L1332.08058,111.51254 C1334.04392,102.220404 1336.35195,93.0204455 1341.59007,84.8565767 L1342.00974,84.2142305 C1343.31277,82.2479832 1344.58478,80.1351443 1345.33602,77.9153258 L1345.49992,77.401179 C1346.83123,72.9080192 1350.59127,68.1647896 1354.67514,66.818191 C1355.02596,66.7030509 1355.57467,67.2004919 1355.79056,67.3012394 Z M1095.87093,86.4297766 C1101.39406,91.6164752 1107.67279,91.0263825 1114.7521,88.3889562 L1114.7521,98.4124356 L1113.63473,98.0591362 C1107.30026,96.0179772 1100.91631,93.4343784 1094.32374,96.5683961 C1089.17842,91.0515694 1089.54723,89.0258245 1095.87093,86.4297766 Z M1132.49986,87.8087584 L1139.50721,87.8087584 L1140.25382,96.7285127 L1140.25382,96.7285127 C1137.42929,93.8023367 1130.39495,94.3501514 1132.49986,87.8087584 Z M1146.15474,84.4013331 C1150.34656,89.3280671 1149.85182,93.2626178 1144.41865,96.0880463 C1145.93886,92.1355049 1141.14435,87.8060598 1146.15474,84.4013331 Z M1118.25128,87.6459432 L1127.82229,87.6459432 L1128.12813,91.7190218 L1128.12813,91.7190218 L1118.25128,95.6328833 L1118.25128,95.6328833 L1118.25128,87.6459432 Z M1159.6837,89.7787324 L1168.93088,84.969837 L1168.93088,84.969837 L1170.19108,92.3248436 C1170.3322,93.1537912 1170.48339,94.042757 1170.64899,95.0167042 L1159.6837,89.7787324 L1159.6837,89.7787324 Z M1153.89072,92.3972685 L1152.82927,88.5445751 L1152.82927,88.5445751 L1159.18896,89.568242 L1159.18896,89.568242 C1158.10952,92.8389385 1156.01361,92.4800254 1153.89072,92.3972685 Z M1186.99347,82.4304596 C1189.64709,85.4564835 1188.96345,88.4357318 1187.78506,91.2611603 L1171.83637,91.2611603 L1170.90086,86.4279775 L1170.90086,86.4279775 C1171.75541,86.4810499 1172.3491,86.3785033 1172.81686,86.5674049 C1179.51837,89.2318172 1182.81965,88.3439796 1186.99347,82.4304596 Z M774.905503,85.8171957 L765.995644,90.8689645 L765.995644,90.8689645 L765.432537,89.7220619 L765.432537,89.7220619 C768.502638,88.2342368 770.97635,85.4906657 774.905503,85.8171957 Z M352.230047,37.5519338 C349.009724,38.6520608 345.818186,39.8367438 342.323507,41.0879921 L341.132156,39.6399154 C337.75396,35.5873832 337.172644,35.690542 331.924023,38.0304846 C327.633258,39.9446876 323.505308,42.2366938 319.362066,44.4675319 C311.975113,48.4425616 306.677772,54.5692706 302.367217,61.5811186 C301.163644,63.5384991 300.212839,65.8269073 299.831438,68.0793341 C298.822163,74.0513237 302.424787,77.5603961 308.302326,76.6302805 C310.196739,76.331636 312.049774,75.6938682 313.948685,75.5301535 C317.493816,75.2251866 320.576316,75.4915052 323.480675,78.4161991 L323.736487,78.6812123 C328.169378,83.4046522 334.258307,84.128775 340.425495,82.5285085 C342.701631,81.9379661 345.014221,81.0511382 347.01252,79.8140086 L347.467927,79.5222743 C351.903517,76.5817058 355.587998,77.1511092 360.420281,79.4431155 C366.418357,82.2883336 373.219715,83.969558 379.843865,84.7890312 C384.579111,85.3735017 389.564675,84.0033435 394.446663,83.3260348 L395.082828,83.241837 C400.587061,82.5500973 402.113566,81.2304846 403.011298,75.930445 C403.364814,73.8471301 403.497945,71.5803107 403.067969,69.5356756 L402.539238,67.0477929 C400.993985,59.9207881 399.071425,52.8952238 393.595003,47.4953549 L391.470195,45.3843859 C386.257298,40.2202413 380.841271,35.3575672 372.321982,36.6101243 C371.924389,36.6685939 371.471925,36.4922857 371.069834,36.3546574 C364.622892,34.1580015 358.394536,35.4470301 352.230047,37.5519338 Z M634.431067,41.8534934 C644.885422,44.3478942 652.669968,55.5920379 649.469435,65.1297704 C647.877264,69.876598 643.831171,73.8093497 640.78086,78.0272529 C640.629739,78.2359442 639.374892,77.6458516 637.6316,77.1331186 L642.816818,72.1575213 C643.055747,71.9295408 643.293551,71.7030668 643.531627,71.4768646 C648.916223,66.363028 648.798384,59.7334809 643.014397,54.1536871 L638.869356,63.0923315 L638.869356,63.0923315 L631.172065,52.224192 L631.172065,52.224192 L638.078667,53.5096225 L638.078667,53.5096225 C639.785978,48.5963815 635.390867,45.7322732 634.431067,41.8534934 Z M1375.21144,29.4795382 C1373.91612,33.2620681 1369.29253,35.7348802 1370.56087,40.7767542 L1377.55922,40.0949093 L1377.55922,40.0949093 L1368.94171,50.2551176 L1368.94171,50.2551176 L1365.58646,40.9908427 L1365.58646,40.9908427 C1359.34371,46.0489083 1358.65107,52.6433737 1363.57151,58.2042774 L1364.55502,59.3169906 C1365.87395,60.8150776 1367.24699,62.3953745 1368.9597,64.3498765 L1368.50654,64.4459158 C1366.96213,64.78778 1365.87157,65.1699755 1365.74837,64.9687542 C1363.07676,60.5025803 1359.38869,56.2334039 1358.2103,51.3669385 C1355.84453,41.5872321 1364.57898,31.060015 1375.21144,29.4795382 Z M1574.10685,47.6113945 C1579.62998,52.7980931 1585.90871,52.2080004 1592.98802,49.5705741 L1592.98802,59.5940535 L1592.24321,59.3601494 C1585.78645,57.3031122 1579.28149,54.5545783 1572.55966,57.7509135 L1572.13215,57.2864226 C1567.44027,52.1169649 1567.96382,50.1332696 1574.10685,47.6113945 Z M1610.74477,48.9903763 L1617.74313,48.9903763 L1618.48974,57.9110301 L1618.48974,57.9110301 C1615.66521,54.9839546 1608.63987,55.5317693 1610.74477,48.9903763 Z M583.990738,37.4197027 C594.116202,38.7291282 603.483177,41.9848003 611.980776,47.5710727 L612.63272,48.0053893 C614.865358,49.5121046 616.999946,50.5411686 620.286834,49.4005627 L616.747178,41.0385179 L616.747178,41.0385179 C617.81852,41.2490083 618.50936,41.1941368 618.942934,41.5017766 C622.247813,43.8441566 625.501418,46.2575996 628.487863,49.4221514 L622.314378,47.6941514 L622.314378,47.6941514 L622.815417,57.492748 L622.815417,57.492748 C614.28426,53.1237235 606.520404,48.1259265 598.052214,45.0963045 C589.545345,42.0522899 580.33864,40.9665554 571.073466,38.9426095 C575.393016,37.2011165 579.55245,36.8458016 583.990738,37.4197027 Z M1624.39066,45.582951 C1628.58248,50.509685 1628.08774,54.4442357 1622.65457,57.2696642 C1624.18377,53.3180223 1619.38927,48.9876777 1624.39066,45.582951 Z M1596.4872,48.8275611 L1606.05821,48.8275611 L1606.36405,52.9015392 L1606.36405,52.9015392 L1596.4872,56.8154008 L1596.4872,56.8154008 L1596.4872,48.8275611 Z M1637.91962,50.9603503 L1647.1668,46.1523544 L1647.1668,46.1523544 L1648.8939,56.1992217 L1648.8939,56.1992217 L1637.91962,50.9603503 L1637.91962,50.9603503 Z M1632.12663,53.5788864 L1631.06519,49.7261931 L1631.06519,49.7261931 L1637.42487,50.7498599 L1637.42487,50.7498599 C1636.34544,54.0205564 1634.24953,53.6616433 1632.12663,53.5788864 Z M1665.22939,43.6120775 C1667.88301,46.639001 1667.19937,49.6182493 1666.02098,52.4427782 L1650.07229,52.4427782 L1649.13677,47.6095954 L1649.13677,47.6095954 C1649.99133,47.6626678 1650.58502,47.5601212 1651.05278,47.7490228 C1657.75429,50.4143346 1661.05557,49.5264971 1665.22939,43.6120775 Z M1438.58344,32.0683898 C1429.17434,33.2818578 1419.90916,33.5652102 1411.16572,35.8617141 C1402.46725,38.1474237 1394.2995,42.4525814 1385.43012,46.0659994 L1386.77042,36.3483607 L1386.77042,36.3483607 L1380.4737,37.5357422 L1380.4737,37.5357422 C1383.72101,34.6410499 1387.17521,32.5190551 1390.6654,30.4708219 C1391.12416,30.2027615 1391.8078,30.317002 1392.89623,30.1991634 L1388.64145,38.2238838 L1388.64145,38.2238838 C1391.71436,39.5992965 1393.8943,38.856832 1396.15957,37.6221148 L1396.38642,37.4970624 C1405.53465,32.417408 1415.37553,29.8708344 1425.83708,29.431863 C1430.31674,29.2447605 1434.4276,29.9589885 1438.58344,32.0683898 Z M113.750755,18.1850207 L104.840895,23.2367896 L104.840895,23.2367896 L104.278688,22.089887 L104.278688,22.089887 C107.34789,20.6020619 109.821601,17.8584908 113.750755,18.1850207 Z" id="Shape" fill="#FFFFFF"></path>
        </g>
    </g>
</svg>