<?xml version="1.0" encoding="UTF-8"?>
<svg width="1728px" height="539px" viewBox="0 0 1728 539" version="1.1" xmlns="http://www.w3.org/2000/svg" xmlns:xlink="http://www.w3.org/1999/xlink">
    <title>audience</title>
    <g id="audience" stroke="none" stroke-width="1" fill="none" fill-rule="evenodd">
        <g>
            <path d="M952.423946,235.037685 C947.782363,236.550697 943.167767,238.127575 938.499198,239.552433 C935.863571,240.355715 933.173972,240.988085 930.484373,241.561986 C918.376679,244.143642 907.663259,249.434686 898.44396,258.08638 C898.888329,248.282386 907.249474,239.190821 917.531119,237.464621 C925.482978,236.128816 933.515794,235.254472 941.503634,234.130057 C943.869401,233.79813 946.190193,233.173855 948.55596,232.957068 C949.788319,232.844627 951.065653,233.329474 952.324997,233.543563 C952.360979,234.041903 952.39696,234.539344 952.423946,235.037685" id="Fill-1" fill="#FFFFFF"></path>
            <path d="M1066.64645,248.089887 C1065.31515,247.064421 1063.83092,246.183779 1062.67952,244.988302 C1057.21037,239.317655 1050.8147,236.229564 1042.70992,236.187286 C1036.52115,236.154903 1030.31438,235.18071 1024.14359,234.429601 C1020.71638,234.014018 1020.73437,233.833212 1018.9533,229.091781 C1021.22011,228.903779 1023.32502,228.419831 1025.35796,228.618628 C1031.72664,229.242903 1038.12231,229.84289 1044.41903,230.979898 C1051.61528,232.279721 1057.63315,236.328512 1063.26422,240.731719 C1065.2252,242.26632 1066.24167,245.01079 1067.68092,247.202049 C1067.33909,247.497995 1066.98828,247.793941 1066.64645,248.089887" id="Fill-2" fill="#FFFFFF"></path>
            <path d="M341.911021,40.9376783 C337.412464,35.4406413 337.322511,35.28952 331.511538,37.8801707 C327.220773,39.7943738 323.092822,42.08638 318.94958,44.3172181 C311.562628,48.2922478 306.265287,54.4189568 301.954732,61.4308048 C300.751159,63.3881853 299.800354,65.6765934 299.418953,67.9290203 C298.409678,73.9010099 302.012302,77.4100822 307.889841,76.4799667 C309.784254,76.1813222 311.637289,75.5435544 313.5362,75.3798397 C317.185599,75.0659032 320.344754,75.3573514 323.324002,78.5308985 C327.756893,83.2543384 333.845822,83.9784612 340.01301,82.3781947 C342.464233,81.7422259 344.957735,80.7626361 347.055442,79.3719604 C351.491032,76.431392 355.175513,77.0007954 360.007796,79.2928017 C366.005872,82.1380198 372.80723,83.8192441 379.431379,84.6387173 C384.372506,85.2485997 389.586191,83.7301905 394.670343,83.0915232 C400.174576,82.3997834 401.701081,81.0801707 402.598813,75.7801312 C402.952329,73.6968162 403.08546,71.4299969 402.655484,69.3853618 C400.980556,61.4263071 399.295733,53.3728017 393.182517,47.3450411 C387.261801,41.5070817 381.588456,35.0367517 371.909497,36.4598105 C371.511904,36.5182801 371.05944,36.3419719 370.657349,36.2043436 C364.210407,34.0076877 357.982051,35.2967163 351.817562,37.40162 C348.597239,38.501747 345.405701,39.68643 341.911021,40.9376783 M415.8723,173.174205 C414.890911,164.17979 414.351192,155.65493 412.960516,147.271296 C410.549772,132.732169 407.736937,118.254209 404.799967,103.809533 C404.136112,100.547831 402.516056,97.3886767 400.83933,94.467898 C400.161083,93.2859136 398.230688,92.6031692 396.732968,92.1686955 C394.942901,91.6505653 392.609516,92.2442561 391.196352,91.3141406 C383.516152,86.2623717 375.199983,87.5127205 366.889212,88.3456866 C365.833162,88.4509318 364.766318,88.7189922 363.768737,89.0869006 C356.845943,91.6433691 350.63018,91.8016866 343.16137,88.7630692 C335.429897,85.6192067 326.232187,86.7211327 317.963694,89.7156731 C315.534059,90.5954149 313.699015,90.556735 311.334147,89.5330682 C301.444698,85.2503988 292.422397,88.5912587 288.840462,98.5148902 C284.129616,111.564394 279.535708,124.727238 276.136379,138.157243 C273.320845,149.287146 272.308872,160.874911 270.456737,172.513949 C267.965035,172.836881 267.575538,171.092689 267.680783,169.067844 C268.015409,162.671275 267.676285,156.128083 268.932931,149.910522 C273.08067,129.379615 277.548643,108.90268 282.457387,88.540885 C284.353599,80.6780802 287.450686,73.0518522 290.540577,65.5398647 C299.387469,44.0266694 316.317551,32.547748 338.51439,28.1634315 C340.968312,27.6785841 343.911579,28.8911525 346.446459,29.8158709 C348.898582,30.7109047 351.042166,30.9744675 353.772244,30.6884164 C362.883598,29.7358126 371.965268,29.0089912 381.189064,31.3675627 C390.749285,33.8115898 396.540469,39.8456471 399.793174,48.3768037 C406.684485,66.449291 410.914982,85.257595 412.986603,104.465291 C415.27681,125.695134 417.054284,146.981647 418.968487,168.251069 C419.131302,170.063625 420.037131,172.651577 415.8723,173.174205" id="Fill-3" fill="#FFFFFF"></path>
            <path d="M308.600471,212.876827 C303.191588,214.639908 297.805193,216.475852 292.365726,218.137287 C289.300123,219.0728 286.166155,219.810415 283.028589,220.479667 C268.927534,223.486801 256.437539,229.653089 245.697133,239.733239 C246.214363,228.310088 255.95449,217.715407 267.937149,215.704054 C277.205922,214.147865 286.564648,213.128695 295.875698,211.818978 C298.624666,211.432179 301.333156,210.704458 304.08932,210.45169 C305.520475,210.321258 307.015496,210.886163 308.481732,211.136233 C308.521312,211.716431 308.560891,212.296629 308.600471,212.876827" id="Fill-4" fill="#FFFFFF"></path>
            <path d="M441.690653,228.086105 C440.14076,226.890628 438.415459,225.865162 437.071559,224.471788 C430.69388,217.864729 423.242161,214.265703 413.803377,214.217129 C406.584637,214.179348 399.357801,213.04324 392.162449,212.168895 C388.170328,211.684048 388.196414,211.474457 386.119396,205.949535 C388.76222,205.730049 391.208945,205.166043 393.579211,205.397222 C401.003044,206.124044 408.456562,206.823879 415.786844,208.148889 C424.172277,209.6637 431.192221,214.381743 437.750705,219.51267 C440.035515,221.30004 441.2166,224.497874 442.902322,227.051644 C442.498432,227.396164 442.094542,227.741585 441.690653,228.086105" id="Fill-5" fill="#FFFFFF"></path>
            <path d="M341.911021,40.9376783 C345.405701,39.68643 348.597239,38.501747 351.817562,37.40162 C357.982051,35.2967163 364.210407,34.0076877 370.657349,36.2043436 C371.05944,36.3419719 371.511904,36.5182801 371.909497,36.4598105 C381.588456,35.0367517 387.261801,41.5070817 393.182517,47.3450411 C399.295733,53.3728017 400.980556,61.4263071 402.655484,69.3853618 C403.08546,71.4299969 402.952329,73.6968162 402.598813,75.7801312 C401.701081,81.0801707 400.174576,82.3997834 394.670343,83.0915232 C389.586191,83.7301905 384.372506,85.2485997 379.431379,84.6387173 C372.80723,83.8192441 366.005872,82.1380198 360.007796,79.2928017 C355.175513,77.0007954 351.491032,76.431392 347.055442,79.3719604 C344.957735,80.7626361 342.464233,81.7422259 340.01301,82.3781947 C333.845822,83.9784612 327.756893,83.2543384 323.324002,78.5308985 C320.344754,75.3573514 317.185599,75.0659032 313.5362,75.3798397 C311.637289,75.5435544 309.784254,76.1813222 307.889841,76.4799667 C302.012302,77.4100822 298.409678,73.9010099 299.418953,67.9290203 C299.800354,65.6765934 300.751159,63.3881853 301.954732,61.4308048 C306.265287,54.4189568 311.562628,48.2922478 318.94958,44.3172181 C323.092822,42.08638 327.220773,39.7943738 331.511538,37.8801707 C337.322511,35.28952 337.412464,35.4406413 341.911021,40.9376783" id="Fill-6" fill="#000000"></path>
            <path d="M192.997181,290.109701 C187.557714,289.847938 182.113749,290.80234 177.439783,294.512008 C177.443382,294.512908 177.447879,294.512908 177.452377,294.512908 C182.120046,290.80234 187.560412,289.847938 192.997181,290.109701" id="Fill-7" fill="#000000"></path>
            <path d="M176.98552,294.60556 C173.543913,294.319509 171.132269,296.203128 168.579398,297.790801 C171.13047,296.204027 173.541214,294.323107 176.981022,294.608258 C176.982821,294.607359 176.983721,294.606459 176.98552,294.60556" id="Fill-8" fill="#000000"></path>
            <path d="M949.779323,340.20551 C950.453972,342.946382 952.846726,345.181718 953.593337,347.990055 C952.846726,345.182617 950.453972,342.947282 949.779323,340.206409 C949.779323,340.206409 949.779323,340.20551 949.779323,340.20551" id="Fill-9" fill="#000000"></path>
            <path d="M42.7612085,220.12795 C43.5411023,223.279908 46.588715,225.761716 46.788411,229.216816 C46.588715,225.762615 43.5429014,223.280808 42.7648067,220.12885 C42.7639071,220.12795 42.7621081,220.12795 42.7612085,220.12795" id="Fill-10" fill="#000000"></path>
            <path d="M39.3769912,181.367138 C51.2418116,176.997214 63.1255221,172.673166 75.0748985,168.541618 C77.6529558,167.650182 80.5386528,167.647484 83.4972119,167.73114 C87.6179656,164.388481 85.8530849,158.405697 88.7828589,153.90804 L97.695417,153.90804 C97.2798334,145.131311 96.8705466,136.47422 96.4297762,127.148777 C99.9316523,128.479184 100.981406,130.505828 101.012889,132.916573 C101.121732,141.21565 101.054268,149.516527 101.054268,158.546024 C98.9772493,158.943617 96.3290286,159.451852 93.1302946,160.064433 C91.9141281,165.699098 87.7394024,168.486746 81.9626111,170.24623 C63.1147277,175.98704 44.399975,182.165022 25.6321499,188.168496 C25.0807371,188.343904 24.506836,188.449149 23.9437293,188.586778 C23.8249912,188.27554 23.706253,187.964302 23.5875148,187.653964 C28.847975,185.549959 34.0625591,183.324518 39.3769912,181.367138 L39.3769912,181.367138 Z M113.33827,18.0347069 C110.368017,19.7186299 107.398663,21.4025528 104.42841,23.0864758 C104.241308,22.7041749 104.053306,22.321874 103.866203,21.9395731 C106.935404,20.451748 109.409116,17.708177 113.33827,18.0347069 L113.33827,18.0347069 Z M131.639238,14.2224925 C145.972373,16.1987631 159.804469,20.0631504 170.942467,30.0020739 C175.21974,33.8178865 178.799875,38.4162915 182.662463,42.6899656 C183.078047,43.1505258 183.376691,43.7882936 183.540406,44.3945778 C186.597014,55.7169807 189.678809,67.0330869 192.596889,78.3905716 C192.993583,79.9377657 193.073641,81.9698074 192.395394,83.3245018 C188.074045,91.9519084 187.701639,100.381418 192.65266,108.905378 C193.924598,111.094838 194.667611,113.591038 195.999817,116.771781 C193.946186,117.54268 192.164214,118.211931 190.097991,118.987327 C189.154382,116.703417 188.442853,114.982613 187.345424,112.327196 C186.324456,114.265687 185.600333,115.406293 185.096596,116.637751 C182.661564,122.580956 180.400142,128.597922 177.858066,134.494351 C175.46801,140.036364 177.65837,145.413764 178.352808,150.787565 C178.492235,151.868802 181.333855,152.60102 183.265149,153.681358 C183.586282,157.283981 184.07023,161.093497 184.229447,164.917406 C184.400358,169.033662 186.214713,171.871683 190.069206,173.245268 C193.291327,174.39397 196.6079,175.27731 199.849812,176.37204 C204.467107,177.930928 209.055617,179.574372 213.65672,181.180935 C213.532585,181.645993 213.40845,182.110151 213.285214,182.574309 C206.403798,181.147652 199.445022,180.008845 192.665254,178.199888 C187.514536,176.825403 182.634578,174.467731 177.548627,172.806297 C174.904004,171.941847 173.507032,170.597947 173.865045,167.734738 C174.760979,160.576267 173.197593,153.661568 171.541555,146.801741 C170.700493,143.316056 170.971252,140.254051 172.393412,136.911392 C178.109035,123.47509 182.63098,109.637597 184.418349,95.0813784 C185.120883,89.3648558 185.080404,83.55838 185.438417,77.7968808 C185.762249,72.5634066 184.833932,67.5746049 182.846867,62.7396231 C182.281062,61.3606413 181.634299,59.8926059 181.582126,58.4452598 C181.162045,46.6811869 173.648258,39.8798293 164.929999,33.5948027 C149.591188,22.5359625 132.066515,19.0484789 113.757451,17.9492514 C119.083577,13.7214534 125.49184,13.3742343 131.639238,14.2224925 L131.639238,14.2224925 Z M274.40658,214.701976 C281.54976,213.664816 288.726222,212.824654 295.875698,211.818978 C298.624666,211.432179 301.333156,210.704458 304.08932,210.45169 C305.520475,210.321258 307.015496,210.886163 308.481732,211.136233 C308.521312,211.716431 308.560891,212.296629 308.600471,212.876827 C303.191588,214.639908 297.805193,216.476752 292.365726,218.137287 C289.300123,219.0728 286.166155,219.810415 283.028589,220.479667 C280.067332,221.111138 277.180735,221.891032 274.362503,222.808554 C274.375996,219.439808 274.390388,216.716927 274.40658,214.701976 L274.40658,214.701976 Z M288.840462,98.5148902 C284.128716,111.564394 279.534809,124.728137 276.136379,138.157243 C273.319946,149.287146 272.308872,160.874911 270.456737,172.513949 C267.965035,172.836881 267.575538,171.092689 267.680783,169.067844 C268.015409,162.671275 267.676285,156.128083 268.932031,149.910522 C273.08067,129.379615 277.547744,108.90268 282.457387,88.540885 C284.353599,80.6780802 287.450686,73.0518522 290.539677,65.5398647 C299.386569,44.0266694 316.317551,32.547748 338.513491,28.1634315 C340.968312,27.6785841 343.911579,28.8911525 346.44556,29.8158709 C348.898582,30.7109047 351.042166,30.9744675 353.772244,30.689316 C362.883598,29.7358126 371.964369,29.0089912 381.189064,31.3675627 C390.749285,33.8115898 396.540469,39.8456471 399.793174,48.3768037 C406.684485,66.449291 410.914982,85.257595 412.986603,104.465291 C415.27681,125.695134 417.053385,146.981647 418.967588,168.251069 C419.130403,170.063625 420.036231,172.651577 415.8723,173.175105 C414.890911,164.17979 414.350293,155.655829 412.960516,147.272196 C410.548872,132.732169 407.736037,118.254209 404.799067,103.809533 C404.136112,100.547831 402.515157,97.3895763 400.83843,94.467898 C400.161083,93.2859136 398.230688,92.6031692 396.732968,92.1686955 C394.942001,91.6505653 392.609516,92.2433566 391.196352,91.3141406 C383.516152,86.2623717 375.199983,87.51362 366.889212,88.3456866 C365.833162,88.4518313 364.765418,88.7189922 363.768737,89.0869006 C356.845043,91.6433691 350.63018,91.8016866 343.16137,88.7639688 C335.429897,85.6192067 326.232187,86.7220323 317.963694,89.7156731 C315.534059,90.5954149 313.698116,90.556735 311.334147,89.5330682 C301.443798,85.2503988 292.422397,88.5912587 288.840462,98.5148902 L288.840462,98.5148902 Z M393.579211,205.397222 C401.003044,206.124044 408.456562,206.823879 415.786844,208.148889 C424.172277,209.6637 431.192221,214.381743 437.750705,219.51267 C440.035515,221.30004 441.2166,224.497874 442.902322,227.051644 C442.498432,227.396164 442.094542,227.741585 441.690653,228.086105 C440.14076,226.890628 438.415459,225.865162 437.071559,224.471788 C430.69388,217.864729 423.242161,214.265703 413.803377,214.217129 C406.584637,214.179348 399.357801,213.04324 392.162449,212.168895 C388.170328,211.684048 388.196414,211.473558 386.119396,205.949535 C388.76222,205.730049 391.208945,205.166043 393.579211,205.397222 L393.579211,205.397222 Z M543.048962,222.12491 C544.647429,221.60678 546.831492,222.897607 549.632633,223.566859 C551.111463,218.351375 552.588493,213.143988 554.176167,207.544404 C555.03342,207.544404 555.818711,207.467944 556.581514,207.565993 C557.382097,207.669439 558.161091,207.941097 559.085809,208.173176 C558.805156,210.456187 558.286126,212.534105 558.348194,214.594032 C558.502913,219.752845 555.119775,222.858028 551.205914,224.061601 C541.306569,227.105616 531.430613,230.628181 520.639833,230.291756 C528.094251,227.522099 535.491098,224.576133 543.048962,222.12491 L543.048962,222.12491 Z M553.557289,67.0870588 C550.192142,70.6105237 547.418886,74.7015929 544.379369,78.5380947 C545.636015,84.1619656 541.944337,88.7990505 541.291277,94.0730036 C538.44426,117.056033 541.53685,139.255571 550.082399,160.676115 C551.936333,165.322195 554.926376,169.513112 557.393791,173.91452 C552.367209,171.760142 549.643427,167.870567 547.579003,163.297349 C542.5929,152.252002 540.252319,140.516714 538.796877,128.6402 C537.450278,117.645226 536.820606,106.558501 536.016425,95.5023592 C534.644639,76.6508777 552.261964,57.323544 570.972219,56.2710921 C572.173093,56.2036273 573.38836,56.4033233 575.737936,56.5490474 C567.227469,59.5462863 559.236031,61.1411556 553.557289,67.0870588 L553.557289,67.0870588 Z M583.578253,37.2693889 C593.963344,38.6123894 603.550551,42.0027236 612.220235,47.8550755 C614.452872,49.3617907 616.587461,50.3908548 619.874349,49.2502488 C618.690565,46.4536054 617.592237,43.8575575 616.334692,40.8882041 C617.406034,41.0986944 618.096875,41.043823 618.530449,41.3514628 C621.835327,43.6938428 625.088933,46.1072858 628.075377,49.2718376 C626.279913,48.7689995 624.484448,48.2670609 621.901893,47.5438376 C622.08,51.0232254 622.23292,54.0186653 622.402932,57.3424341 C613.871775,52.9734097 606.107919,47.9756127 597.639729,44.9459906 C589.13286,41.9019761 579.926155,40.8162415 570.660981,38.7922957 C574.980531,37.0508027 579.139965,36.6954878 583.578253,37.2693889 L583.578253,37.2693889 Z M634.018582,41.7031796 C644.472937,44.1975804 652.257483,55.4417241 649.05695,64.9794565 C647.464779,69.7262842 643.418686,73.6590359 640.368375,77.8769391 C640.217254,78.0856304 638.962407,77.4955377 637.219115,76.9828048 C639.563294,74.7348756 641.333572,73.0230672 643.119142,71.3265508 C648.503738,66.2127142 648.385899,59.5831671 642.601912,54.0033732 C641.341668,56.7208579 640.105712,59.3861697 638.45687,62.9420177 C635.69351,59.0407496 633.650674,56.1568516 630.759579,52.0738782 C633.779307,52.6360854 635.589164,52.9725102 637.666182,53.3593087 C639.373493,48.4460677 634.978382,45.5819594 634.018582,41.7031796 L634.018582,41.7031796 Z M651.241012,80.6789797 C655.192654,82.373697 658.527217,87.4254659 659.468127,92.0175742 C659.971865,94.4786923 661.13316,96.8750442 662.352025,99.1067819 C667.388502,108.32698 668.845743,118.474594 670.06011,128.651894 C670.660098,133.675777 669.855017,134.139935 663.825458,133.383429 C663.825458,130.935804 664.063833,128.376637 663.771486,125.880437 C663.30193,121.874824 662.512142,117.904292 661.798813,113.929262 C661.349947,111.427665 658.770091,109.245401 661.000929,106.287742 C661.423708,105.727334 660.477401,103.874299 659.834236,102.81645 C657.295758,98.6390255 654.625049,94.5398605 651.742051,89.999925 C652.403207,89.840708 653.22268,89.6437106 654.983063,89.2200312 C653.293743,86.4053972 651.745649,83.8264404 650.086913,81.0639792 C650.311796,80.9821218 650.903688,80.5341551 651.241012,80.6789797 L651.241012,80.6789797 Z M678.780169,143.047096 C677.868943,148.558526 676.952321,154.105037 676.035698,159.650649 C675.53286,159.769387 675.029122,159.889024 674.525385,160.007763 C673.1527,156.735267 671.444489,153.559021 670.474794,150.171386 C668.507519,143.297166 671.241195,140.94759 678.780169,143.047096 L678.780169,143.047096 Z M665.91327,171.887875 C665.084802,169.412364 664.393961,167.346141 663.351404,164.229264 C662.183813,166.237918 661.496571,167.182426 661.046805,168.23038 C658.101739,175.101002 655.187257,181.985116 652.314153,188.885422 C651.755544,190.228423 650.992741,191.688362 651.063804,193.05565 C651.304879,197.717922 651.876081,202.363103 652.37802,207.603773 C654.449641,207.980677 656.0643,208.275723 657.648375,208.564473 C657.884952,209.429822 658.165605,210.02891 658.197089,210.640591 C658.394086,214.484289 658.538011,218.331586 658.69453,222.177083 C658.86634,226.404881 660.636618,229.546944 664.737583,231.118426 C666.93154,231.959488 669.059831,233.074007 671.325751,233.604731 C678.967271,235.393899 686.067273,238.523369 693.126796,241.752687 C691.452768,242.32299 689.77964,242.893293 688.112808,243.482486 C687.72511,243.620115 687.345508,243.784729 686.960508,243.932252 C683.759975,243.082195 680.576533,242.179965 677.486642,241.032162 C668.087438,237.538382 658.869939,233.557056 649.560687,229.818603 C647.345141,228.928966 646.756847,227.171282 647.179627,225.147336 C648.848258,217.164893 646.915165,209.426224 645.245635,201.800895 C644.344304,197.684639 645.180868,194.426536 646.543659,190.75285 C650.848816,179.152491 655.057724,167.507157 658.854647,155.734088 C660.330778,151.159071 660.606934,146.198155 661.627902,140.257649 C663.177795,141.857916 664.8959,142.843802 664.827536,143.683965 C664.218553,151.138382 667.588198,157.373934 670.490986,163.785795 C671.261884,165.488608 671.797106,167.298465 672.739815,169.878322 C670.249012,170.61144 668.143209,171.231217 665.91327,171.887875 L665.91327,171.887875 Z M705.396406,247.213743 C706.074653,247.543871 706.658449,248.117772 707.09832,249.19721 C705.704945,248.836498 704.308872,248.481183 702.9128,248.124968 C703.740369,247.820927 704.568837,247.517784 705.396406,247.213743 L705.396406,247.213743 Z M736.229647,236.172893 C738.807704,235.282357 741.692502,235.279659 744.651061,235.362415 C748.772714,232.021555 747.007833,226.036972 749.936708,221.540214 L758.849266,221.540214 C758.434582,212.763486 758.025295,204.106395 757.583625,194.780952 C761.086401,196.111359 762.136154,198.138003 762.167638,200.548748 C762.276481,208.846926 762.209016,217.147802 762.209016,226.177299 C760.131998,226.575792 757.482878,227.084027 754.285043,227.696608 C753.068877,233.330374 748.894151,236.118921 743.11736,237.878405 C735.755594,240.120037 728.417216,242.43903 721.085135,244.777812 C719.914844,244.103163 718.740056,243.43751 717.56167,242.782651 C723.771136,240.541918 729.991396,238.330869 736.229647,236.172893 L736.229647,236.172893 Z M774.493018,85.6668818 C771.522765,87.3508048 768.553412,89.0338282 765.583159,90.7186507 C765.395157,90.3363498 765.208054,89.9540489 765.020052,89.571748 C768.090153,88.083923 770.563865,85.3403519 774.493018,85.6668818 L774.493018,85.6668818 Z M792.793087,81.8537678 C807.127121,83.8300385 820.958318,87.6953254 832.097216,97.6333493 C836.373589,101.449162 839.953724,106.049366 843.817212,110.322141 C844.232795,110.782701 844.53144,111.420469 844.695155,112.027652 C847.751763,123.348256 850.833558,134.664362 853.751638,146.022746 C854.148331,147.569041 854.228389,149.601982 853.549243,150.955777 C849.228793,159.584083 848.856387,168.013593 853.807409,176.536654 C855.078447,178.726113 855.822359,181.223213 857.154565,184.403057 C855.100935,185.173955 853.318963,185.843207 851.252739,186.618603 C850.309131,184.335592 849.597601,182.614788 848.500173,179.958472 C847.478305,181.897862 846.755082,183.038467 846.250445,184.269926 C843.816312,190.213131 841.553991,196.229197 839.012814,202.125626 C836.622759,207.66764 838.813118,213.045939 839.507556,218.41974 C839.646984,219.500977 842.488604,220.233195 844.419898,221.313533 C844.741031,224.915257 845.224079,228.725672 845.383296,232.548681 C845.555107,236.664937 847.369462,239.503858 851.223954,240.877443 C854.446076,242.025245 857.761749,242.910384 861.00456,244.004214 C865.580477,245.54871 870.129408,247.176862 874.689133,248.770832 C874.397685,249.19631 874.125126,249.642478 873.850769,250.087746 C867.160954,248.71596 860.406372,247.588847 853.820002,245.832062 C848.669285,244.457578 843.789326,242.099007 838.704275,240.437572 C836.057853,239.574022 834.66178,238.230122 835.019794,235.366014 C835.914828,228.207542 834.351442,221.293743 832.696304,214.433916 C831.855242,210.947332 832.125102,207.886226 833.547261,204.543567 C839.263783,191.107265 843.785728,177.269772 845.573097,162.712654 C846.275631,156.996131 846.235153,151.190555 846.592267,145.429056 C846.916997,140.195581 845.988681,135.20678 844.001616,130.370898 C843.434911,128.992816 842.789047,127.524781 842.736875,126.077435 C842.316793,114.313362 834.803007,107.512004 826.084748,101.226078 C810.745936,90.1681374 793.221264,86.6806538 774.9122,85.5805268 C780.238326,81.3527288 786.646588,81.0064092 792.793087,81.8537678 L792.793087,81.8537678 Z M896.181639,244.579915 C904.137095,243.24501 912.169912,242.369766 920.157751,241.245351 C922.514524,240.913424 924.84431,240.289149 927.210078,240.072362 C928.433441,239.959921 929.719771,240.444768 930.979115,240.659756 C931.015096,241.158097 931.042082,241.655538 931.078064,242.153878 C926.436481,243.66689 921.812889,245.242869 917.144321,246.667727 C914.517689,247.471009 911.82809,248.103379 909.129495,248.67818 C906.14305,249.315948 903.237564,250.120129 900.42203,251.09792 C898.321624,249.982501 896.209524,248.89047 894.065941,247.863205 C892.926234,247.316289 891.772135,246.800858 890.61084,246.298919 C892.373022,245.494738 894.243148,244.905545 896.181639,244.579915 L896.181639,244.579915 Z M1004.00308,235.734821 C1004.9206,235.824775 1005.83813,235.915627 1006.75565,236.00558 C1006.36885,236.718909 1006.00004,237.442132 1005.64023,238.186045 C1005.34338,238.824712 1005.04654,240.049874 1004.74969,241.791367 C1004.10203,241.70861 1003.44537,241.625853 1002.78871,241.545795 C999.370495,241.130211 999.388485,240.949406 997.607413,236.207975 C999.874232,236.019973 1001.97014,235.536025 1004.00308,235.734821 L1004.00308,235.734821 Z M1015.61603,236.986969 C1018.10774,237.300906 1020.59944,237.649924 1023.06415,238.095192 C1023.49593,238.172552 1023.90971,238.260706 1024.33249,238.356056 C1021.48098,239.753029 1018.68344,241.30652 1015.97585,243.059706 C1015.00435,242.985045 1014.04185,242.896891 1013.07036,242.797043 C1013.51113,240.851357 1014.40167,238.856196 1015.61603,236.986969 L1015.61603,236.986969 Z M1024.81824,229.043207 C1026.59931,228.325381 1028.47034,227.815346 1030.33237,227.34759 C1043.60945,224.015725 1056.84156,220.513849 1070.2086,217.596668 C1072.69131,217.054251 1075.70474,218.909085 1078.4663,219.657495 C1078.35836,220.309655 1078.24142,220.963615 1078.12448,221.616675 C1070.93722,223.56506 1063.76795,225.556623 1056.5717,227.452835 C1049.01564,229.441699 1041.48656,231.471042 1034.20935,234.154345 C1030.43132,232.481216 1026.36543,231.297433 1022.16462,230.428485 C1023.02817,229.88247 1023.90971,229.408416 1024.81824,229.043207 L1024.81824,229.043207 Z M1076.01058,138.801308 C1080.20239,128.326263 1079.26688,117.789151 1077.00006,107.306011 C1075.44387,100.152937 1075.75871,93.3245934 1077.83663,86.4584695 C1079.26688,81.7557189 1080.7601,77.0700593 1082.34328,72.4167829 C1082.78405,71.1043665 1083.6476,69.934076 1084.31325,68.6981197 C1084.72704,68.7925705 1085.14082,68.8879209 1085.55461,68.9814721 C1079.39282,101.142422 1079.71665,133.683873 1079.75263,166.207334 C1079.33884,166.313478 1078.91606,166.418724 1078.50228,166.524868 C1077.92658,165.611844 1077.16198,164.767184 1076.80217,163.7768 C1073.80673,155.546086 1072.69131,147.087792 1076.01058,138.801308 L1076.01058,138.801308 Z M1090.05226,201.500452 C1090.26815,201.71454 1090.47504,201.927729 1090.69093,202.141818 C1088.49607,204.335775 1086.29222,206.530632 1084.09737,208.725489 L1083.79153,208.451132 C1085.87844,206.134838 1087.96535,203.817645 1090.05226,201.500452 L1090.05226,201.500452 Z M1095.45845,86.2794628 C1100.98157,91.4661614 1107.2603,90.8760687 1114.33961,88.2386424 L1114.33961,98.2621218 C1107.63811,96.1914003 1100.89162,93.0997106 1093.91125,96.4180822 C1088.76593,90.9012556 1089.13474,88.8755107 1095.45845,86.2794628 L1095.45845,86.2794628 Z M1117.83879,87.4956294 L1127.40981,87.4956294 C1127.50876,88.7414805 1127.6077,90.0781843 1127.71565,91.568708 C1124.42336,92.8730286 1121.34697,94.0918938 1117.83879,95.4825695 L1117.83879,87.4956294 Z M1132.08737,87.6584446 L1139.09472,87.6584446 C1139.36458,90.8086039 1139.59846,93.6934014 1139.84133,96.5781989 C1137.0168,93.6520229 1129.98247,94.1998376 1132.08737,87.6584446 L1132.08737,87.6584446 Z M1145.74226,84.2510193 C1149.93408,89.1777533 1149.43933,93.112304 1144.00616,95.9377324 C1145.52637,91.985191 1140.73187,87.655746 1145.74226,84.2510193 L1145.74226,84.2510193 Z M1158.77647,89.4179282 C1157.69703,92.6886247 1155.60112,92.3297116 1153.47823,92.2469547 C1153.16339,91.1036502 1152.89353,90.1231609 1152.41678,88.3942613 C1154.84552,88.7855575 1156.68056,89.0806039 1158.77647,89.4179282 L1158.77647,89.4179282 Z M1168.5184,84.8195232 C1169.05812,87.9408974 1169.50788,90.5810224 1170.2365,94.8663904 C1166.12564,92.9018136 1163.39107,91.5956939 1159.27121,89.6284185 C1163.06724,87.6539469 1165.39702,86.4458761 1168.5184,84.8195232 L1168.5184,84.8195232 Z M1172.40437,86.4170911 C1179.10588,89.0815034 1182.40716,88.1936658 1186.58099,82.2801458 C1189.23461,85.3061697 1188.55096,88.285418 1187.37258,91.1108464 L1171.42388,91.1108464 C1171.18101,89.8362103 1170.86617,88.2197522 1170.48837,86.2776637 C1171.34293,86.3307361 1171.93662,86.2281895 1172.40437,86.4170911 L1172.40437,86.4170911 Z M1286.08716,227.812648 C1297.69112,224.188435 1308.82732,219.035919 1321.00698,217.279134 C1323.30978,216.947207 1325.53162,216.01979 1327.78944,215.373027 C1332.00825,214.162257 1334.04119,211.185707 1334.58091,206.988493 C1335.06665,203.170882 1335.5434,199.351471 1336.07413,195.538357 C1336.15509,194.932073 1336.48791,194.359071 1336.80275,193.51711 C1338.40391,193.366888 1340.04106,193.213068 1342.13697,193.01697 C1343.09047,187.839267 1344.06197,183.260652 1344.70064,178.63706 C1344.89853,177.281466 1344.25986,175.761258 1343.81909,174.37508 C1341.55227,167.25079 1339.24947,160.139994 1336.91069,153.040891 C1336.55088,151.958755 1335.94819,150.956677 1334.95871,148.855371 C1333.65439,151.869701 1332.78184,153.86846 1331.74738,156.263913 C1329.57951,155.415654 1327.53757,154.615971 1325.11783,153.669664 C1326.27823,151.18156 1326.97087,149.424775 1327.88839,147.794824 C1331.3336,141.65822 1335.22857,135.737503 1335.26455,128.258799 C1335.27355,127.415938 1337.07261,126.582971 1338.75473,125.123032 C1339.25847,131.129204 1339.10555,136.095517 1340.17599,140.781176 C1342.93755,152.838497 1346.12189,164.804964 1349.40518,176.734551 C1350.44864,180.512583 1350.99736,183.830955 1349.74701,187.85366 C1347.41722,195.306278 1344.82657,202.84795 1345.79806,210.944633 C1346.04094,212.998263 1345.30332,214.697478 1343.01851,215.391917 C1333.42051,218.309997 1323.89447,221.478147 1314.22451,224.145258 C1308.72837,225.660069 1303.02534,226.422871 1297.40327,227.451036 C1292.95059,228.264212 1288.47992,228.964048 1284.01824,229.715157 C1284.60294,228.578149 1285.30457,228.05822 1286.08716,227.812648 L1286.08716,227.812648 Z M1322.71609,143.195519 C1322.28431,137.590538 1321.85254,131.986457 1321.42076,126.416558 C1329.12075,124.977308 1331.63944,127.555365 1329.08477,134.233487 C1327.82542,137.523973 1325.84645,140.541002 1324.19132,143.681266 C1323.70557,143.51935 1323.21083,143.357435 1322.71609,143.195519 L1322.71609,143.195519 Z M1331.36058,112.830034 C1333.4475,102.79666 1335.77728,92.81276 1341.59725,84.0639167 C1343.00052,81.9464196 1344.36781,79.658911 1345.08743,77.2508652 C1346.41874,72.7577054 1350.17878,68.0144758 1354.26265,66.6678771 C1354.61347,66.5527371 1355.16219,67.050178 1355.37807,67.1509256 C1353.48906,69.7595669 1351.71698,72.1945986 1349.79198,74.8527142 C1351.51009,75.4275148 1352.31067,75.6937762 1352.95833,75.9096637 C1349.68404,80.1833378 1346.6796,84.0351317 1343.78311,87.9777782 C1343.05449,88.9753587 1341.94807,90.7402395 1342.31688,91.3348298 C1344.28685,94.4750942 1341.52529,96.4252785 1340.85964,98.8783009 C1339.80718,102.77687 1338.67377,106.663746 1337.8642,110.614488 C1337.36046,113.076506 1337.36945,115.645568 1337.16256,118.084198 C1331.09072,118.314478 1330.32612,117.783754 1331.36058,112.830034 L1331.36058,112.830034 Z M1374.79896,29.3292244 C1373.50363,33.1117543 1368.88004,35.5845664 1370.14838,40.6264404 C1372.25328,40.4213472 1374.08833,40.2423404 1377.14674,39.9445955 C1373.90842,43.7604081 1371.62361,46.4572035 1368.52922,50.1048037 C1367.19792,46.4185237 1366.19944,43.656962 1365.17397,40.8405289 C1358.93122,45.8985945 1358.23858,52.4930599 1363.15902,58.0539636 C1364.79617,59.8980031 1366.40633,61.7564352 1368.54721,64.1995627 C1366.76614,64.5593753 1365.47082,65.0388256 1365.33589,64.8184404 C1362.66428,60.3522665 1358.9762,56.0830901 1357.79781,51.2166247 C1355.43205,41.4369183 1364.1665,30.9097012 1374.79896,29.3292244 L1374.79896,29.3292244 Z M1390.25291,30.3205081 C1390.71167,30.0524477 1391.39531,30.1666882 1392.48375,30.0488496 C1390.97254,32.8994649 1389.65022,35.389368 1388.22896,38.07357 C1391.40431,39.4948298 1393.62615,38.6546674 1395.97393,37.3467486 C1405.12217,32.2670942 1414.96304,29.7205206 1425.42459,29.2815492 C1429.90426,29.0944466 1434.01512,29.8086746 1438.17095,31.918076 C1428.76185,33.131544 1419.49668,33.4148964 1410.75323,35.7114003 C1402.05476,37.9971098 1393.88702,42.3022676 1385.01764,45.9156856 C1385.4674,42.6198022 1385.88119,39.6495492 1386.35794,36.1980469 C1383.72231,36.6945882 1381.89626,37.0400083 1380.06122,37.3854284 C1383.30853,34.4907361 1386.76273,32.3687413 1390.25291,30.3205081 L1390.25291,30.3205081 Z M1467.76554,91.4148881 C1466.01145,102.360387 1464.41928,113.350863 1462.12548,124.187519 C1459.65176,135.893122 1456.30551,147.381939 1450.3776,157.954132 C1447.92187,162.330353 1444.87246,165.970757 1439.68217,167.680766 C1442.51569,163.509639 1445.86195,159.593079 1448.11078,155.126005 C1458.48237,134.524935 1463.48377,112.677114 1462.63821,89.5339677 C1462.44931,84.2240333 1459.16602,79.2847059 1460.91111,73.789468 C1458.21251,69.7046955 1455.80177,65.3896429 1452.75236,61.5864237 C1447.61603,55.1718647 1439.79011,52.8906528 1431.56839,49.1683915 C1433.92516,49.2259615 1435.14853,49.1324102 1436.3449,49.3042207 C1454.89324,51.9722311 1470.76997,72.7532077 1467.76554,91.4148881 L1467.76554,91.4148881 Z M1437.57726,201.276469 C1438.34186,201.244985 1439.11546,201.38891 1439.97002,201.463571 C1441.06744,207.179194 1442.09291,212.494526 1443.10938,217.818853 C1445.9609,217.395173 1448.24571,216.298644 1449.7929,216.953503 C1457.11509,220.049691 1464.23038,223.625328 1471.41764,227.030055 C1460.63225,226.430967 1451.09722,222.065541 1441.49922,218.175967 C1437.7032,216.637768 1434.60881,213.251032 1435.2025,208.125501 C1435.44537,206.078168 1435.11255,203.964269 1435.03159,201.664167 C1435.9671,201.513045 1436.76768,201.309751 1437.57726,201.276469 L1437.57726,201.276469 Z M1503.05416,190.225724 C1504.83523,189.507898 1506.70626,188.996964 1508.57728,188.529208 C1521.84537,185.197343 1535.07748,181.695467 1548.44452,178.779186 C1550.92723,178.235869 1553.94066,180.090703 1556.71121,180.839113 C1556.59427,181.492173 1556.47733,182.145233 1556.3604,182.798293 C1549.17314,184.746678 1542.00387,186.73824 1534.80762,188.634453 C1519.46161,192.677847 1504.17857,196.872362 1491.00044,206.425387 C1491.09939,200.303175 1496.66749,192.801083 1503.05416,190.225724 L1503.05416,190.225724 Z M1554.2465,99.9829256 C1558.43831,89.5078813 1557.5028,78.9716689 1555.23598,68.4876294 C1553.67979,61.3354545 1553.99463,54.5062113 1556.08154,47.640987 C1557.5028,42.9373368 1558.99602,38.2516773 1560.5792,33.5984008 C1561.01997,32.2868839 1561.88352,31.1156939 1562.54917,29.8797376 C1562.96296,29.975088 1563.37674,30.0695388 1563.79952,30.1639896 C1557.62874,62.3249391 1557.95257,94.8654909 1557.98855,127.389851 C1557.57476,127.495096 1557.16098,127.601241 1556.7382,127.706486 C1556.1625,126.794361 1555.3979,125.949701 1555.03808,124.959317 C1552.04264,116.727704 1550.92723,108.26941 1554.2465,99.9829256 L1554.2465,99.9829256 Z M1568.28818,162.682969 C1568.50407,162.896158 1568.71096,163.110247 1568.92685,163.323436 C1566.73199,165.518293 1564.52814,167.71225 1562.33328,169.907107 C1562.23434,169.816254 1562.12639,169.724502 1562.02744,169.633649 C1564.11436,167.316456 1566.20127,164.999263 1568.28818,162.682969 L1568.28818,162.682969 Z M1573.69437,47.4610807 C1579.21749,52.6477793 1585.49622,52.0576866 1592.57553,49.4202603 L1592.57553,59.4437397 C1585.87402,57.3730182 1579.12754,54.2813285 1572.14717,57.6005997 C1567.00185,52.0828735 1567.37066,50.0571286 1573.69437,47.4610807 L1573.69437,47.4610807 Z M1596.07471,48.6772473 L1605.64573,48.6772473 C1605.74467,49.9230984 1605.84362,51.2598022 1605.95157,52.7512254 C1602.65928,54.0555461 1599.59188,55.2735117 1596.07471,56.6650869 L1596.07471,48.6772473 Z M1610.33229,48.8400625 L1617.33064,48.8400625 C1617.6005,51.9902218 1617.83438,54.8759188 1618.07725,57.7607163 C1615.25272,54.8336408 1608.22738,55.3814555 1610.33229,48.8400625 L1610.33229,48.8400625 Z M1623.97818,45.4326372 C1628.16999,50.3593712 1627.67525,54.2939219 1622.24208,57.1193503 C1623.77129,53.1677085 1618.97678,48.8373639 1623.97818,45.4326372 L1623.97818,45.4326372 Z M1637.01239,50.5995461 C1635.93295,53.8702426 1633.83704,53.5113295 1631.71415,53.4285726 C1631.39931,52.2852681 1631.12945,51.3056783 1630.6527,49.5758792 C1633.08144,49.9671754 1634.91648,50.2622218 1637.01239,50.5995461 L1637.01239,50.5995461 Z M1646.75432,46.0020406 C1647.29403,49.1225154 1647.7438,51.7626403 1648.48142,56.0489079 C1644.36156,54.0834315 1641.62699,52.7773118 1637.50713,50.8100364 C1641.30315,48.8355648 1643.63294,47.627494 1646.75432,46.0020406 L1646.75432,46.0020406 Z M1650.64029,47.598709 C1657.3418,50.2640208 1660.64308,49.3761832 1664.81691,43.4617637 C1667.47053,46.4886871 1666.78688,49.4679355 1665.6085,52.2924643 L1649.6598,52.2924643 C1649.41693,51.0187277 1649.10209,49.4022697 1648.72429,47.4592816 C1649.57884,47.512354 1650.17254,47.4098074 1650.64029,47.598709 L1650.64029,47.598709 Z M15.2956335,214.954744 C15.538507,213.755669 15.766988,212.623159 16.0593358,211.179411 C23.7107507,210.483173 29.2302759,215.15534 36.0703134,219.651198 C34.8343571,216.684543 33.9842998,214.644406 32.518963,211.126338 C44.9100094,214.491486 55.6639084,217.639846 62.1261426,228.063617 C66.9890099,235.909331 65.6532056,245.233874 58.8851307,253.874774 C61.6889703,254.938919 64.5117002,255.70532 67.0447808,257.027631 C74.9120833,261.136691 77.8715419,268.556927 78.4931182,276.666203 C78.9770661,282.979115 80.8507902,288.775696 82.5275169,294.7198 C83.3946653,297.7926 83.9982509,300.94006 84.8474086,304.599355 C86.6257824,305.18315 88.769366,306.035906 90.9885102,306.580123 C94.5092764,307.443673 95.6687725,309.667315 95.7920083,313.137707 C96.0843561,321.398105 93.3039042,329.181751 92.4241624,337.214567 C91.6307756,344.458495 86.7912962,349.449995 83.7688704,355.364414 C82.4969328,357.853418 77.8526517,358.619819 74.7411723,360.168812 C74.4740115,359.82789 74.2059511,359.486068 73.9378907,359.145145 C71.4021114,364.726738 68.8654326,370.308331 66.1587423,376.265029 C67.9748964,376.841628 69.7118917,377.392142 71.0710838,377.823917 C71.4875669,378.391521 71.6962582,378.548939 71.7259427,378.735142 C72.9852868,386.685201 74.2284394,394.63706 75.490482,402.70046 C75.9699323,403.021593 76.4502821,403.60359 76.9962978,403.672854 C97.3859781,406.276997 115.557414,414.702009 132.975942,425.044822 C138.927242,428.577283 144.703134,432.423679 150.631046,435.987623 C151.785145,435.434411 152.986919,434.867706 154.188693,434.200254 C154.181497,434.345079 154.298436,433.688421 154.234569,433.049753 C153.818086,428.913707 154.393787,424.253235 152.628006,420.795436 C150.865824,417.346632 146.298903,415.459415 143.737936,412.265179 C135.64845,402.178732 132.283302,390.27793 130.82966,377.565751 C128.330761,355.706236 134.141735,335.359733 141.142788,315.101385 C144.543017,305.265008 151.377657,298.613872 159.996968,293.646659 C165.809741,290.296804 171.934651,287.389518 178.159409,284.877126 C187.265366,281.20254 196.366826,280.405555 205.741743,285.033645 C211.297249,287.776317 217.573281,289.05545 223.518284,291.01373 C235.998384,295.12369 246.177483,302.386507 254.372214,312.714928 C260.692323,320.680279 263.226303,329.928362 264.94081,339.612718 C265.625353,343.480704 266.390855,347.345091 267.35965,351.150109 C268.959917,357.430638 268.928433,363.428714 265.895213,369.399804 C262.779236,375.534609 262.481491,381.817837 266.080516,388.039896 C267.588131,390.645839 268.76202,393.44698 270.04835,396.178857 C274.034174,404.644348 270.561083,411.128171 261.229343,412.705949 C260.560991,412.81839 259.916927,413.085551 259.059673,413.341018 C256.860319,418.584387 254.634878,423.892523 252.255617,429.566767 C253.990813,430.346661 255.603673,431.070784 257.043823,431.717547 C258.774522,440.071496 260.457545,448.190667 262.21433,456.665154 C265.769279,457.176987 269.334122,457.183284 272.552645,458.243831 C283.992887,462.013768 295.765955,465.200808 306.564831,470.376712 C318.342397,476.021272 329.438118,483.079896 340.760521,489.683357 C344.857887,485.334122 350.26497,482.425037 356.693922,480.661955 C361.438051,479.362132 366.135404,477.890499 370.866041,476.537603 C378.024512,474.491169 381.705395,468.909576 385.212668,463.110297 C379.005901,465.431088 373.387427,468.879892 365.398688,469.573431 C367.559363,467.509006 368.786324,466.419673 369.918834,465.241287 C375.1685,459.774834 378.029909,453.160579 378.462584,445.679175 C378.995107,436.503055 378.834091,427.283756 379.443973,418.114832 C380.692523,399.356902 381.96446,380.590876 383.792308,361.884219 C385.040858,349.108173 389.22278,337.300922 398.16952,327.558097 C408.619377,316.179023 421.738145,309.224745 436.117156,304.367275 C439.121591,303.352604 442.354507,302.771507 445.523556,302.529533 C462.084831,301.263892 477.21675,306.282378 491.695609,313.652239 C494.087463,314.869306 496.125801,317.007492 497.959946,319.050328 C502.634811,324.257716 505.495321,330.435698 506.968754,337.272137 C508.230796,343.121791 509.336321,349.016421 510.882615,354.790513 C513.027098,362.791846 513.107157,370.729312 511.452019,378.813401 C510.147698,385.180285 510.246647,391.492298 512.35155,397.826799 C517.185632,412.37672 517.022817,426.842986 510.785466,441.047488 C509.938107,442.977882 509.244568,444.975742 508.89645,445.869876 C511.714682,456.165014 519.754694,457.609662 528.604285,459.275594 C525.198659,464.706066 522.237401,469.428606 519.095338,474.438996 C520.833233,474.839288 522.262588,475.16132 523.689245,475.495946 C533.87554,477.882403 544.045643,480.334526 554.248129,482.642724 C565.006526,485.077755 571.639671,492.161566 576.188602,501.701997 C577.154699,503.727742 578.049732,511.273912 578.875502,523.036185 C585.142538,516.03873 593.887783,511.851411 605.193995,510.610057 C614.570711,509.580094 623.985208,508.900947 633.379915,508.033799 C635.447938,507.843098 637.504267,507.529162 639.742301,507.250307 C640.442136,505.044656 641.062813,503.088175 641.860698,500.570386 C640.200162,500.234861 638.840071,499.585399 637.604115,499.769803 C626.968054,501.354778 620.316918,498.228006 614.99529,488.656991 C611.814547,492.942359 607.934867,491.467128 604.298061,489.73373 C601.297224,488.303475 598.296387,486.615055 595.811881,484.448983 C594.223309,483.062805 593.218532,480.702434 592.60775,478.589435 C592.042844,476.630255 592.072529,474.386824 592.312704,472.323298 C596.330911,437.823567 602.250728,403.761008 616.499307,371.733189 C621.775059,359.872866 628.783309,349.261093 639.601074,341.5674 C647.670771,335.82659 656.616612,332.225766 666.416108,331.478255 C670.900273,331.137333 675.659694,331.981993 680.015225,333.249433 C682.761495,334.048217 684.755756,333.616441 687.18809,332.775379 C690.948131,331.474657 694.813418,329.921166 698.710188,329.675594 C710.64967,328.919988 720.880941,332.710613 729.026199,341.942505 C738.384025,352.547981 742.465199,365.595686 746.576958,378.60561 C751.650315,394.65685 754.715019,411.102984 755.629843,427.973697 C756.434923,442.827661 757.794116,457.650141 758.890644,472.487013 C758.968004,473.534068 759.021976,474.609008 758.876252,475.64077 C757.61241,484.538936 757.786919,488.343055 745.9194,490.053964 C744.051073,490.322024 742.190842,490.649453 740.33331,490.985878 C733.552641,492.215538 733.014721,492.012244 728.708664,486.449541 C728.42801,486.629447 727.925172,486.778769 727.89099,487.000053 C726.752183,494.272766 722.331885,497.201641 715.213893,496.950672 C713.643311,496.894001 712.040346,497.733264 710.516539,498.142551 C710.828677,501.135292 712.619644,501.529287 714.953029,501.801845 C724.542034,502.921762 734.201204,503.773618 743.65348,505.638347 C756.925168,508.255983 769.047255,513.507448 776.67798,525.52339 C779.200267,529.494821 781.033512,534.037455 782.460169,538.553104 C791.13525,533.039875 800.455296,528.857953 810.357339,525.92728 C822.47043,522.342647 834.652785,518.988294 846.847733,515.69241 C850.757997,514.63636 854.805889,514.090345 859.630976,513.146736 C862.456404,506.483007 864.983188,499.203098 874.34911,499.98659 C874.090944,495.634657 873.712242,491.671321 873.673562,487.705287 C873.651073,485.326926 872.943142,483.617816 870.908402,482.338682 C862.565247,477.095313 858.668477,468.824121 855.957289,459.856691 C851.478522,445.048604 849.494155,429.788052 847.843515,414.459136 C847.346074,409.839142 846.415958,405.238938 845.327525,400.715194 C842.923977,390.714203 845.422876,381.487708 850.123827,372.906178 C855.85924,362.435631 864.027885,354.465782 876.093301,351.414572 C876.65371,351.272446 877.134059,350.818182 878.637176,349.922249 C873.059182,349.226911 868.431992,348.650311 863.704054,348.061118 C871.698191,329.72237 896.133064,324.349468 922.316627,335.032304 C922.550505,333.832329 922.784383,332.699819 923.072233,331.25697 C930.727246,330.560733 936.25037,335.2329 943.086809,339.728758 C941.854451,336.761204 940.999896,334.721966 939.53366,331.203898 C951.929204,334.568146 962.678605,337.716506 969.137241,348.140277 C974.003706,355.985991 972.6724,365.311434 965.898928,373.952333 C968.705466,375.016479 971.529995,375.78198 974.057678,377.105191 C981.928579,381.213351 984.888037,388.634486 985.508714,396.743763 C985.994461,403.056675 987.865487,408.853256 989.547611,414.79646 C990.411161,417.86926 991.013847,421.01672 991.859407,424.676015 C993.640479,425.259811 995.781364,426.113466 998.003207,426.657682 C1001.52037,427.521233 1002.68977,429.743975 1002.8067,433.215267 C1003.10355,441.475665 1000.324,449.258411 999.442457,457.292127 C998.650869,464.535155 993.81139,469.526655 990.788964,475.441074 C989.511629,477.930978 984.870047,478.697378 981.757668,480.246372 C981.487808,479.90455 981.226944,479.562728 980.957085,479.222705 C978.420406,484.804298 975.883727,490.38679 973.176137,496.341689 C974.993191,496.918288 976.729287,497.470601 978.087579,497.901476 C978.501364,498.468181 978.717251,498.626499 978.744237,498.811802 C980.003581,506.761862 981.244935,514.714619 982.504279,522.77712 C982.990026,523.099153 983.466778,523.68025 984.015492,523.750413 C990.132306,524.532106 996.051223,525.847221 1001.80822,527.572523 C1002.16804,525.15908 1002.53685,523.511138 1002.91465,522.716852 C1007.46628,513.17732 1014.09583,506.09351 1024.85422,503.659377 C1035.05491,501.349381 1045.22861,498.898157 1055.41131,496.510801 C1056.84156,496.176175 1058.27182,495.854143 1060.00791,495.453851 C1056.86855,490.443461 1053.90009,485.72092 1050.49986,480.290449 C1059.35125,478.624516 1067.38407,477.179869 1070.2086,466.88653 C1069.85778,465.991496 1069.16514,463.993637 1068.31958,462.062343 C1062.07683,447.857841 1061.91492,433.391575 1066.7544,418.842553 C1068.8593,412.508052 1068.95825,406.19604 1067.65393,399.828256 C1065.99879,391.745066 1066.07075,383.8076 1068.22064,375.805368 C1069.76783,370.031275 1070.87425,364.137545 1072.1336,358.287892 C1073.60883,351.451452 1076.46934,345.27347 1081.13791,340.065183 C1082.97295,338.022347 1085.01489,335.88416 1087.40764,334.667094 C1101.8901,327.298132 1117.02022,322.279646 1133.58059,323.545287 C1136.74694,323.787261 1139.97626,324.368358 1142.9807,325.38303 C1157.36421,330.2405 1170.47938,337.193878 1180.93193,348.572952 C1189.88227,358.315777 1194.06509,370.123927 1195.30644,382.899073 C1197.14149,401.60663 1198.40983,420.371756 1199.66018,439.129687 C1200.27186,448.299511 1200.10994,457.518809 1200.64067,466.69493 C1201.00947,473.140073 1203.19534,478.940252 1207.14428,483.918259 C1208.47559,483.411823 1209.87885,482.979148 1211.36308,482.642724 C1221.56377,480.334526 1231.72847,477.882403 1241.92017,475.495946 C1243.34143,475.16132 1244.77168,474.839288 1246.51677,474.438996 C1243.36841,469.428606 1240.40895,464.706066 1236.99973,459.275594 C1245.85112,457.609662 1253.89293,456.165014 1256.70846,445.869876 C1256.36664,444.975742 1255.674,442.977882 1254.81945,441.047488 C1248.58569,426.842986 1248.42378,412.37672 1253.25426,397.826799 C1255.35917,391.492298 1255.45812,385.180285 1254.15379,378.813401 C1252.49866,370.729312 1252.57961,362.791846 1254.7295,354.790513 C1256.27669,349.016421 1257.37412,343.121791 1258.64246,337.272137 C1260.10869,330.435698 1262.9782,324.257716 1267.64677,319.050328 C1269.48181,317.007492 1271.52375,314.869306 1273.9165,313.652239 C1288.38996,306.282378 1303.52008,301.263892 1320.08046,302.529533 C1323.2558,302.771507 1326.48512,303.352604 1329.48956,304.367275 C1343.86407,309.224745 1356.98824,316.179023 1367.44079,327.558097 C1376.38213,337.300922 1380.56496,349.108173 1381.8153,361.884219 C1383.64135,380.590876 1384.91869,399.356902 1386.16004,418.114832 C1386.77172,427.283756 1386.60981,436.503055 1387.14953,445.679175 C1387.5813,453.160579 1390.44181,459.774834 1395.68608,465.241287 C1396.81949,466.419673 1398.05185,467.509006 1400.21072,469.573431 C1392.22288,468.879892 1386.60081,465.431088 1380.39404,463.110297 C1383.90222,468.909576 1387.5813,474.491169 1394.74157,476.537603 C1399.47311,477.890499 1404.16866,479.362132 1408.91819,480.661955 C1415.34084,482.425037 1420.74703,485.334122 1424.84889,489.683357 C1436.17399,483.079896 1447.26522,476.021272 1459.04008,470.376712 C1469.84346,465.200808 1481.61832,462.013768 1493.05137,458.243831 C1496.27169,457.183284 1499.84283,457.176987 1503.39598,456.665154 C1505.15007,448.190667 1506.83219,440.071496 1508.56829,431.717547 C1510.00754,431.070784 1511.6177,430.346661 1513.35379,429.566767 C1510.97004,423.892523 1508.74819,418.584387 1506.54434,413.341018 C1505.68979,413.085551 1505.04212,412.81839 1504.37647,412.705949 C1495.04833,411.128171 1491.57614,404.644348 1495.56106,396.178857 C1496.84739,393.44698 1498.01678,390.645839 1499.528,388.039896 C1503.12612,381.817837 1502.82928,375.534609 1499.7079,369.399804 C1496.67648,363.428714 1496.6495,357.430638 1498.25066,351.150109 C1499.21316,347.345091 1499.98676,343.480704 1500.6704,339.612718 C1502.37951,329.928362 1504.91619,320.680279 1511.2399,312.714928 C1519.42563,302.386507 1529.60833,295.12369 1542.09383,291.01373 C1548.03073,289.05545 1554.30946,287.776317 1559.86857,285.033645 C1569.24169,280.405555 1578.34495,281.20254 1587.4482,284.877126 C1593.67296,287.389518 1599.79877,290.296804 1605.60974,293.646659 C1614.22726,298.613872 1621.0637,305.265008 1624.46393,315.101385 C1631.46228,335.359733 1637.27325,355.706236 1634.78155,377.565751 C1633.32431,390.27793 1629.96006,402.178732 1621.87327,412.265179 C1619.30961,415.459415 1614.73999,417.346632 1612.97691,420.795436 C1611.21383,424.253235 1611.78953,428.913707 1611.37574,433.049753 C1611.31277,433.688421 1611.42971,434.345079 1611.42072,434.200254 C1612.6171,434.867706 1613.82247,435.434411 1614.97387,435.987623 C1620.90178,432.423679 1626.67677,428.577283 1632.63167,425.044822 C1650.0466,414.702009 1668.22613,406.276997 1688.60952,403.672854 C1689.15823,403.60359 1689.63498,403.021593 1690.12073,402.70046 C1691.38007,394.63706 1692.62143,386.685201 1693.88077,378.735142 C1693.90776,378.548939 1694.12364,378.391521 1694.53743,377.823917 C1695.89572,377.392142 1697.63182,376.841628 1699.44887,376.265029 C1696.74128,370.308331 1694.2046,364.726738 1691.66792,359.145145 C1691.39806,359.486068 1691.1372,359.82789 1690.86734,360.168812 C1687.75496,358.619819 1683.11338,357.853418 1681.83604,355.364414 C1678.81362,349.449995 1673.97414,344.458495 1673.18255,337.214567 C1672.30101,329.181751 1669.52146,321.398105 1669.8183,313.137707 C1669.93524,309.667315 1671.09564,307.443673 1674.6218,306.580123 C1676.84364,306.035906 1678.98453,305.18315 1680.75661,304.599355 C1681.61116,300.94006 1682.21385,297.7926 1683.0774,294.7198 C1684.75952,288.775696 1686.63055,282.979115 1687.11629,276.666203 C1687.73697,268.556927 1690.69643,261.136691 1698.56733,257.027631 C1701.09501,255.70532 1703.91954,254.938919 1706.72608,253.874774 C1699.95261,245.233874 1698.6213,235.909331 1703.47877,228.063617 C1708.90295,219.312075 1717.36754,215.691461 1727.27138,212.762586 C1726.78563,204.949256 1726.29089,199.966751 1725.77816,198.422255 C1722.17104,187.490249 1714.21018,181.297874 1703.37982,178.328521 C1698.6303,177.027798 1693.93474,175.556164 1689.20321,174.204169 C1682.04294,172.156835 1678.36385,166.575242 1674.85568,160.775963 C1681.06245,163.096754 1686.68452,166.545558 1694.67236,167.239096 C1692.51348,165.174672 1691.28112,164.085339 1690.14771,162.906953 C1684.90345,157.441399 1682.04294,150.826245 1681.61116,143.345741 C1681.08044,134.16872 1681.23336,124.950322 1680.63067,115.780498 C1679.38032,97.0225674 1678.10299,78.2574409 1676.27694,59.5498844 C1675.02659,46.7747382 1670.84377,34.9665882 1661.90243,25.2237626 C1651.44987,13.8446892 1638.3347,6.89131078 1623.95119,2.03384071 C1620.94676,1.01826965 1617.71744,0.437172306 1614.55109,0.195198334 C1597.98172,-1.06954295 1582.8516,3.94894326 1568.37814,11.3179053 C1565.98538,12.5349714 1563.94345,14.6731577 1562.1084,16.7150942 C1557.43084,21.9242811 1554.57932,28.1013639 1553.10409,34.9387028 C1551.83575,40.7883561 1550.73832,46.6811869 1549.19113,52.4561791 C1547.04125,60.4584112 1546.96029,68.3949776 1548.61543,76.4790672 C1549.91975,82.8468506 1549.8208,89.1579636 1547.7159,95.4933639 C1542.88541,110.041487 1543.04733,124.508652 1549.29008,138.713154 C1550.13564,140.643548 1550.82828,142.642307 1551.1701,143.536441 C1548.35457,153.83068 1540.31275,155.275327 1531.47036,156.94126 C1534.87059,162.371731 1537.83005,167.094272 1540.97841,172.105562 C1539.23332,172.504054 1537.81206,172.826986 1536.3818,173.161612 C1526.1991,175.548069 1516.0254,178.000192 1505.82472,180.309289 C1495.06632,182.744321 1488.42778,189.827232 1483.88514,199.367663 C1482.98561,201.25398 1482.14005,208.596856 1481.36645,220.196314 C1474.97079,217.788269 1468.55713,215.419802 1462.13447,213.072025 C1458.33845,211.681349 1454.35352,210.787215 1449.62199,209.429822 C1447.39115,202.545707 1445.50213,195.075098 1436.10203,195.043615 C1436.7317,190.729462 1437.45133,186.814701 1437.83813,182.866657 C1438.06301,180.49909 1438.91756,178.857445 1441.05845,177.760017 C1449.81989,173.258761 1454.42549,165.356377 1457.89768,156.657008 C1463.64568,142.293289 1466.94697,127.261218 1469.91542,112.133797 C1470.81495,107.574072 1472.13726,103.071017 1473.61249,98.6588152 C1476.8688,88.9042957 1475.17768,79.4951963 1471.24673,70.5385612 C1466.43423,59.6110526 1458.98611,50.9638563 1447.22923,46.8790838 C1446.68952,46.6892827 1446.24875,46.1945403 1444.82749,45.171773 C1450.44056,44.9621822 1455.10014,44.7885726 1459.86765,44.6113649 C1453.48997,25.6483415 1429.61641,18.1795315 1402.60348,26.5541697 C1402.46855,25.3389027 1402.33362,24.1911005 1402.1717,22.7275627 C1394.60664,21.3710692 1388.70572,25.547594 1381.50047,29.4344695 C1382.99369,26.5856533 1384.01016,24.6264737 1385.78224,21.248733 C1373.14382,23.5281458 1362.16054,25.7328974 1354.81137,35.5575804 C1349.28825,42.9526288 1349.81897,52.3590297 1355.80985,61.5531411 C1352.92235,62.3699157 1350.04385,62.8889453 1347.40822,63.9872733 C1339.21349,67.3991963 1335.62436,74.5351796 1334.30205,82.5607996 C1333.26759,88.8080458 1330.90182,94.4202228 1328.71596,100.197014 C1327.59155,103.182559 1326.71001,106.266153 1325.54961,109.838193 C1323.73256,110.26547 1321.51971,110.929324 1319.26188,111.279242 C1315.68175,111.835153 1314.33245,113.949951 1313.90967,117.396956 C1312.9022,125.600683 1314.99811,133.595719 1315.17801,141.675311 C1315.33993,148.960616 1319.72964,154.352408 1322.23034,160.506103 C1323.28279,163.095854 1327.84341,164.261647 1330.80287,166.075103 C1331.09972,165.757568 1331.39656,165.440033 1331.69341,165.123398 C1333.73535,170.904687 1335.78628,176.685077 1337.96314,182.852264 C1336.10111,183.269647 1334.32904,183.669039 1332.93476,183.981176 C1332.46701,184.510101 1332.25112,184.648629 1332.20614,184.831234 C1330.26315,192.642765 1328.32916,200.457895 1326.37718,208.380968 C1325.87344,208.659823 1325.34272,209.197743 1324.794,209.219332 C1304.2487,210.0478 1285.42151,216.867148 1267.17002,225.661868 C1260.39654,228.926268 1253.80298,232.57027 1247.02051,235.808583 C1243.2065,225.769812 1235.48852,219.983125 1225.1439,217.146003 C1220.39438,215.845281 1215.69882,214.374547 1210.96729,213.021651 C1203.80702,210.975217 1200.12793,205.392725 1196.61976,199.594345 C1202.82653,201.915136 1208.4486,205.36394 1216.43644,206.057478 C1214.27756,203.992154 1213.04521,202.903721 1211.9118,201.724435 C1206.66753,196.259781 1203.80702,189.644627 1203.37524,182.163223 C1202.83552,172.987103 1202.99744,163.767804 1202.38576,154.59888 C1201.1444,135.84095 1199.86707,117.074923 1198.04102,98.367367 C1196.79067,85.5922207 1192.60785,73.7840708 1183.66651,64.0421447 C1173.21395,52.6621718 1160.09878,45.7087933 1145.71527,40.8513233 C1142.71084,39.8366517 1139.48152,39.2555544 1136.30617,39.0135804 C1119.7458,37.7479396 1104.61568,42.7664258 1090.13322,50.1353878 C1087.74946,51.3533535 1085.70753,53.4906403 1083.87248,55.5334763 C1079.20391,60.7417637 1076.3434,66.919746 1074.86817,73.7561853 C1073.59983,79.6058386 1072.5024,85.499569 1070.95521,91.2745612 C1068.80533,99.2767933 1068.72437,107.21246 1070.37951,115.29655 C1071.68383,121.664333 1071.58488,127.976346 1069.47998,134.310846 C1064.6495,148.859869 1064.81141,163.326134 1071.04516,177.530636 C1071.89972,179.46193 1072.59236,181.45979 1072.93418,182.354824 C1070.11865,192.649062 1062.07683,194.09281 1053.23444,195.758742 C1056.63467,201.190113 1059.59413,205.912654 1062.74249,210.923044 C1060.9974,211.322436 1059.56714,211.645368 1058.14588,211.979994 C1047.96319,214.366451 1037.78948,216.818574 1027.5888,219.127671 C1020.81533,220.659573 1015.679,224.033716 1011.66709,228.701385 C1006.56675,228.023138 1001.42143,227.511305 996.303092,226.914016 C994.261156,226.67564 992.695971,226.33022 992.426111,223.712583 C993.757418,223.35367 995.160687,222.620552 996.53697,222.669126 C1002.76173,222.889512 1006.62971,220.327646 1007.6192,213.966159 C1007.65518,213.77186 1008.09595,213.641428 1008.33882,213.48401 C1012.10786,218.350476 1012.57562,218.528583 1018.50353,217.451844 C1020.13168,217.157697 1021.75983,216.872546 1023.39698,216.636868 C1033.77757,215.140947 1033.62465,211.812681 1034.73108,204.029035 C1034.85701,203.126805 1034.80304,202.186794 1034.74007,201.271071 C1033.77757,188.292631 1032.59019,175.325884 1031.88856,162.333951 C1031.08798,147.576237 1028.40737,133.19003 1023.97268,119.149243 C1020.37455,107.76927 1016.80341,96.3560146 1008.61768,87.0791463 C1001.49339,79.0040521 992.54305,75.688379 982.09949,76.3486351 C978.690265,76.5645226 975.308027,77.9219157 972.015742,79.0607225 C969.892847,79.7956398 968.147756,80.173443 965.746007,79.4754066 C961.931994,78.3662842 957.776158,77.6268693 953.845206,77.9255138 C945.281666,78.5794732 937.455742,81.7296325 930.39442,86.7508173 C920.931348,93.4811119 914.796543,102.763377 910.181947,113.137674 C897.720737,141.153583 892.543034,170.949664 889.028564,201.127146 C888.818074,202.932506 888.791988,204.894384 889.28673,206.608891 C889.820152,208.457428 890.698994,210.521853 892.08877,211.734422 C894.262039,213.628835 896.886871,215.105866 899.511704,216.357114 C902.68885,217.872825 906.089079,219.163652 908.868631,215.415305 C913.528204,223.788144 919.339178,226.522719 928.649328,225.135642 C929.728766,224.974626 930.916148,225.54223 932.373389,225.836377 C931.671754,228.03843 931.132035,229.749339 930.520354,231.678834 C928.559375,231.923507 926.760312,232.197864 924.952254,232.364277 C916.730536,233.123482 908.499823,233.717172 900.296096,234.618503 C892.188618,235.50814 885.594153,238.13747 880.45513,242.42014 C874.573093,240.397993 868.580414,238.612423 862.680387,236.667636 C859.711034,235.688945 856.420548,235.682649 853.139956,235.211294 C851.5199,227.391667 849.966409,219.898569 848.368841,212.190484 C847.040233,211.593195 845.552408,210.923944 843.951242,210.205218 C846.146099,204.969045 848.199729,200.071096 850.229072,195.232516 C851.02066,194.99594 851.614351,194.750368 852.232329,194.646022 C860.842644,193.19058 864.047675,187.207796 860.369491,179.395365 C859.183009,176.874878 858.099073,174.289624 856.707498,171.885176 C853.387327,166.143467 853.661685,160.345087 856.537487,154.684335 C859.336829,149.173805 859.364714,143.639888 857.888583,137.844206 C856.994449,134.332435 856.287417,130.767592 855.655946,127.197351 C854.07367,118.261406 851.735788,109.72755 845.903225,102.376579 C838.342663,92.8469422 828.947956,86.1445331 817.433054,82.3521083 C811.946811,80.5449495 806.154728,79.3647642 801.028298,76.8343821 C792.378403,72.562507 783.979477,73.2992233 775.576954,76.6895575 C769.832546,79.0076502 764.180789,81.6900531 758.816883,84.7817428 C750.863225,89.3657553 744.55661,95.5023592 741.419044,104.579531 C734.95771,123.272695 729.596502,142.048616 731.902901,162.219711 C733.243202,173.950501 736.348385,184.931981 743.812698,194.240333 C746.176666,197.187198 750.390971,198.928691 752.016425,202.111234 C753.646376,205.301872 753.114753,209.602532 753.498853,213.419244 C753.558222,214.008437 753.450278,214.613822 753.457474,214.481591 C750.263238,216.255467 747.045614,217.263842 744.987486,219.393033 C742.705374,221.754303 741.481112,225.14014 740.449349,226.939202 C728.983921,230.51484 717.832429,233.799929 706.889628,237.250532 C694.718068,231.405376 681.990597,227.00217 668.253851,225.248083 C667.707836,225.17792 667.226586,224.596822 666.748035,224.27479 C665.485093,216.212289 664.241941,208.259531 662.982597,200.309472 C662.953812,200.123269 662.744221,199.965851 662.327738,199.399146 C660.968546,198.967371 659.23155,198.415958 657.415396,197.839359 C660.122086,191.883561 662.658765,186.301068 665.195444,180.719475 C665.463504,181.061297 665.730665,181.403119 665.998726,181.744042 C669.109306,180.195048 673.753587,179.428648 675.026424,176.939644 C678.04795,171.024325 682.888329,166.033724 683.681716,158.788897 C684.561458,150.756081 687.34101,142.972435 687.049562,134.712937 C686.926326,131.241645 685.76593,129.018903 682.245164,128.154453 C680.026919,127.610236 677.883336,126.75748 676.104962,126.173685 C675.255804,122.51439 674.652219,119.36693 673.78507,116.29413 C672.107444,110.350926 670.234619,104.553445 669.750672,98.2405331 C669.129095,90.1321562 666.169637,82.7119209 658.302334,78.602861 C655.769254,77.2796502 652.945624,76.5141489 650.141784,75.4500031 C656.910759,66.8091036 658.246563,57.4836606 653.382796,49.6388464 C646.921462,39.214176 636.167563,36.0658157 623.775617,32.7006684 C625.241853,36.2196356 626.09191,38.259773 627.327867,41.2264279 C620.48693,36.72967 614.968304,32.0584029 607.31599,32.7546403 C607.024541,34.1974888 606.795161,35.329999 606.553187,36.529974 C580.374122,25.8471379 555.939248,31.2200396 547.945112,49.5587881 C552.673049,50.1479813 557.300239,50.7245809 562.878234,51.4208183 C561.375117,52.3158522 560.894767,52.7701156 560.334359,52.9122415 C548.268943,55.9634524 540.099398,63.9333014 534.363985,74.403848 C529.663933,82.9853784 527.165035,92.2127725 529.568583,102.211965 C530.656117,106.736608 531.587132,111.336812 532.084573,115.956806 C533.735213,131.285722 535.719579,146.546274 540.197447,161.354361 C542.909535,170.321791 546.806305,178.592983 555.14946,183.836352 C557.1842,185.115486 557.892131,186.823696 557.915519,189.202957 C557.954199,193.168991 558.332002,197.131427 558.590168,201.48426 C549.224246,200.701668 546.697462,207.980677 543.872033,214.645306 C539.047846,215.588015 534.999055,216.133131 531.087892,217.19008 C518.892943,220.485064 506.710588,223.840317 494.598397,227.42495 C482.600446,230.9754 471.440858,236.330311 461.271654,243.710967 C460.000616,244.633887 458.844718,245.62517 457.787769,246.68212 C456.362911,242.038738 454.926359,237.398955 453.473616,232.764568 C452.010078,228.100498 450.12466,223.400446 447.518717,219.297682 C439.741368,207.049662 427.385403,201.697449 413.858249,199.028539 C404.223367,197.127829 394.377995,196.260681 384.604585,195.119175 C382.226224,194.84122 380.401074,194.43913 380.081741,191.388818 C381.636131,190.971436 383.268781,190.116881 384.869947,190.173551 C392.125568,190.429918 396.630422,187.444373 397.790817,180.032233 C397.826799,179.805551 398.339531,179.65443 398.625583,179.470926 C403.013497,185.140673 403.563111,185.347565 410.474211,184.094517 C412.366826,183.750896 414.263038,183.41807 416.167346,183.144612 C428.263346,181.40132 428.086138,177.52344 429.374268,168.453464 C429.52359,167.401912 429.467819,166.306282 429.38866,165.239438 C428.271442,150.116514 426.886163,135.007983 426.064891,119.868868 C425.132077,102.672525 422.008904,85.9097553 416.837497,69.5490765 C412.64658,56.2890828 408.487146,42.9895096 398.948514,32.1789401 C390.645839,22.7698407 380.21847,18.9063529 368.047808,19.6763519 C364.076377,19.9273212 360.137328,21.5104966 356.304425,22.8355065 C353.826216,23.69276 351.792375,24.1335305 348.993033,23.3194545 C344.553845,22.0277272 339.703571,21.1659761 335.132152,21.5140947 C325.144654,22.2750984 316.026103,25.9460864 307.800787,31.7975388 C296.77523,39.6387548 289.63115,50.455621 284.253751,62.5444248 C269.730815,95.1893222 263.697657,129.90764 259.602091,165.071225 C259.356518,167.17523 259.325934,169.461839 259.902534,171.459698 C260.52411,173.613176 261.548677,176.019423 263.168733,177.431688 C265.700914,179.640037 268.758422,181.359942 271.817728,182.818082 C275.523798,184.584762 279.479038,186.087879 282.72095,181.720654 C288.145124,191.476972 294.923994,194.663113 305.765147,193.047554 C307.025391,192.859552 308.411569,193.521607 310.104487,193.863429 C309.290411,196.429793 308.658041,198.423155 307.944712,200.671983 C305.6635,200.956235 303.567592,201.276469 301.45909,201.470767 C291.925855,202.350509 282.371032,203.041349 272.855788,204.083906 C271.908581,202.677939 270.536795,201.52294 268.706249,200.488479 C256.768566,193.736596 245.245568,186.142751 232.911192,180.23103 C222.946182,175.455417 212.081641,172.514849 201.525639,169.03636 C198.556285,168.05677 195.265799,168.051373 191.985208,167.579119 C190.365151,159.759492 188.811661,152.266395 187.214093,144.558309 C185.885485,143.96192 184.39766,143.292668 182.796493,142.573043 C184.99135,137.33777 187.04588,132.439821 189.074324,127.600341 C189.865912,127.364664 190.460502,127.118193 191.07758,127.014746 C199.687896,125.558405 202.892927,119.576521 199.214742,111.76409 C198.02826,109.242703 196.944325,106.658349 195.553649,104.253002 C192.232579,98.5121916 192.506936,92.7138116 195.382738,87.0521603 C198.18208,81.5425299 198.209966,76.0077126 196.733834,70.2120312 C195.8397,66.7011598 195.132668,63.135417 194.501197,59.566076 C192.919821,50.6292306 190.581039,42.0953753 184.749376,34.744404 C177.187915,25.2147673 167.794107,18.5132577 156.278305,14.7199334 C150.792062,12.9127746 144.999979,11.7334888 139.874449,9.20220718 C131.223654,4.93033212 122.824729,5.66704841 114.422205,9.05738261 C108.678697,11.3754753 103.026041,14.0578782 97.6621343,17.1495679 C89.7084768,21.7335804 83.4018615,27.8701843 80.2642957,36.9482561 C73.802961,55.6414201 68.4417533,74.4164414 70.748152,94.5884352 C72.0884539,106.318326 75.1936366,117.300706 82.6588485,126.608158 C85.0219178,129.555923 89.2362228,131.296516 90.8616762,134.479059 C92.4916273,137.670597 91.9600042,141.970357 92.3450036,145.787069 C92.4034732,146.377162 92.2955294,146.982547 92.3027257,146.848516 C89.1084893,148.623292 85.8908652,149.632566 83.8336366,151.760858 C81.5506257,154.123028 80.3263634,157.507965 79.2955003,159.307927 C61.2059219,164.94799 43.8935388,169.864829 26.9589589,175.851211 C19.5926955,178.455355 12.8929849,183.073549 6.1294076,187.172714 C4.12345237,188.388881 2.18586153,190.712371 1.48422697,192.929716 C1.00117855,194.453522 0.504637168,200.60182 0,210.472379 C4.95371994,211.351221 10.0882457,212.830051 15.2956335,214.954744 L15.2956335,214.954744 Z" id="Fill-11" fill="#000000"></path>
            <path d="M1597.02821,297.790801 C1594.47355,296.203128 1592.0628,294.319509 1588.62659,294.60556 C1588.62659,294.606459 1588.62659,294.607359 1588.62659,294.608258 C1592.0628,294.323107 1594.48254,296.204027 1597.02821,297.790801" id="Fill-12" fill="#000000"></path>
            <path d="M1719.03167,227.912496 C1719.77828,225.104158 1722.17104,222.869722 1722.84568,220.12885 C1722.84568,220.12885 1722.84568,220.12885 1722.84568,220.129749 C1722.16204,222.870622 1719.77828,225.105058 1719.03167,227.912496" id="Fill-13" fill="#000000"></path>
            <path d="M1588.16783,294.512008 C1583.49027,290.797843 1578.0391,289.846138 1572.58794,290.110601 C1578.03011,289.846138 1583.48127,290.797843 1588.15883,294.512908 C1588.15883,294.512908 1588.16783,294.512008 1588.16783,294.512008" id="Fill-14" fill="#000000"></path>
        </g>
    </g>
</svg>