<?xml version="1.0" encoding="UTF-8"?>
<svg width="1510px" height="233px" viewBox="0 0 1510 233" version="1.1" xmlns="http://www.w3.org/2000/svg" xmlns:xlink="http://www.w3.org/1999/xlink">
    <title>building</title>
    <g id="building" stroke="none" stroke-width="1" fill="none" fill-rule="evenodd">
        <g id="Pie-edificios-1" transform="translate(5.000000, 5.000000)" fill-rule="nonzero">
            <polyline id="Path" stroke="#FFFFFF" stroke-width="3" fill="#08082C" points="25.59 226 25.59 10.02 1480.02 10.02 1480.02 226"></polyline>
            <path d="M1496,0.76 L3.87,0.76 C2.88604682,0.76 1.94239381,1.15087388 1.24663384,1.84663384 C0.550873878,2.54239381 0.16,3.48604682 0.16,4.47 L0.16,37.07 L25.59,56.6 L1480,56.6 L1499.00015,37.07 L1499.00015,3.79 C1499.00015,2.98916536 1498.69548,2.21837392 1498.132,1.64925961 C1497.56852,1.0801453 1496.80087,0.76 1496,0.76 L1496,0.76 Z" id="Path" stroke="#FFFFFF" stroke-width="3" fill="#08082C"></path>
            <rect id="Rectangle" fill="#FFFFFF" x="33.51" y="64.39" width="50.93" height="21.44" rx="3.16"></rect>
            <rect id="Rectangle" fill="#FFFFFF" x="33.51" y="115.97" width="50.93" height="21.44" rx="2.15"></rect>
            <rect id="Rectangle" fill="#FFFFFF" x="33.51" y="90.18" width="34.01" height="21.44" rx="2.15"></rect>
            <rect id="Rectangle" fill="#FFFFFF" x="33.51" y="141.76" width="34.01" height="21.44" rx="2.15"></rect>
            <rect id="Rectangle" fill="#FFFFFF" x="72.41" y="90.18" width="34.01" height="21.44" rx="2.15"></rect>
            <rect id="Rectangle" fill="#FFFFFF" transform="translate(1445.000000, 75.110000) rotate(180.000000) translate(-1445.000000, -75.110000) " x="1421.16" y="64.39" width="47.68" height="21.44" rx="3.06"></rect>
            <rect id="Rectangle" fill="#FFFFFF" transform="translate(1445.000000, 126.700000) rotate(180.000000) translate(-1445.000000, -126.700000) " x="1421.16" y="115.98" width="47.68" height="21.44" rx="2.08"></rect>
            <rect id="Rectangle" fill="#FFFFFF" transform="translate(1452.930000, 100.910000) rotate(180.000000) translate(-1452.930000, -100.910000) " x="1437.01" y="90.19" width="31.84" height="21.44" rx="2.08"></rect>
            <rect id="Rectangle" fill="#FFFFFF" transform="translate(1452.930000, 152.490000) rotate(180.000000) translate(-1452.930000, -152.490000) " x="1437.01" y="141.77" width="31.84" height="21.44" rx="2.08"></rect>
            <rect id="Rectangle" fill="#FFFFFF" transform="translate(1416.520000, 100.910000) rotate(180.000000) translate(-1416.520000, -100.910000) " x="1400.6" y="90.19" width="31.84" height="21.44" rx="2.08"></rect>
            <polygon id="Path" stroke="#FFFFFF" stroke-width="3" fill="#08082C" stroke-linejoin="round" points="0.16 37.07 86.34 37.07 1499.02 37.07 1480.02 56.6 25.59 56.6"></polygon>
        </g>
    </g>
</svg>