<?xml version="1.0" encoding="UTF-8"?>
<svg width="1920px" height="221px" viewBox="0 0 1920 221" version="1.1" xmlns="http://www.w3.org/2000/svg" xmlns:xlink="http://www.w3.org/1999/xlink">
    <title>edificios</title>
    <g id="edificios" stroke="none" stroke-width="1" fill="none" fill-rule="evenodd">
        <g id="Pie-edificios-2" transform="translate(0.000000, 7.000000)" fill-rule="nonzero">
            <path d="M0,40.49 L142.86,40.49 C144.516854,40.49 145.86,41.8331458 145.86,43.49 L145.86,213.83 L0,213.83 L0,40.49 Z" id="Path" fill="#08082C"></path>
            <rect id="Rectangle" fill="#13134F" x="121.83" y="52.24" width="13.16" height="19.6"></rect>
            <rect id="Rectangle" fill="#13134F" x="121.83" y="81.59" width="13.16" height="19.6"></rect>
            <rect id="Rectangle" fill="#F9B233" x="100.47" y="52.24" width="13.16" height="19.6"></rect>
            <rect id="Rectangle" fill="#13134F" x="79.12" y="52.24" width="13.16" height="19.6"></rect>
            <rect id="Rectangle" fill="#08082C" x="15.26" y="12.55" width="61.04" height="29.15"></rect>
            <rect id="Rectangle" fill="#08082C" x="82.61" y="12.55" width="6.17" height="29.15"></rect>
            <rect id="Rectangle" fill="#08082C" x="1736.73" y="94.38" width="53.54" height="119.47"></rect>
            <rect id="Rectangle" fill="#08082C" x="1667.43" y="70.55" width="94.9" height="143.3"></rect>
            <rect id="Rectangle" fill="#08082C" x="1783.67" y="34.69" width="136.33" height="179.16"></rect>
            <rect id="Rectangle" fill="#F9B233" x="1814.92" y="44.73" width="13.16" height="19.6"></rect>
            <rect id="Rectangle" fill="#13134F" x="1793.56" y="44.73" width="13.16" height="19.6"></rect>
            <rect id="Rectangle" fill="#08082C" x="1765.41" y="79.81" width="6.17" height="29.15"></rect>
            <rect id="Rectangle" fill="#08082C" x="1850.61" y="10.23" width="6.17" height="27.11"></rect>
            <polygon id="Path" fill="#08082C" points="1907.57 39.49 1860.19 39.49 1860.19 15.32 1907.57 0.85"></polygon>
            <polygon id="Path" fill="#08082C" points="1591.28 50.26 1484.71 50.26 1484.71 114.27 1479.22 114.27 1479.22 70.55 1437.98 70.55 1437.98 114.27 1428.38 114.27 1428.38 47.92 1375.7 47.92 1375.7 70.55 1268.86 70.55 1268.86 34.69 1103.06 34.69 1103.06 94.38 1081.68 94.38 1081.68 79.81 1070.78 79.81 1070.78 94.38 1020.1 94.38 1020.1 114.27 1010.84 114.27 1010.84 70.55 969.6 70.55 969.6 114.27 960 114.27 960 47.92 907.32 47.92 907.32 114.27 889.23 114.27 889.23 73.36 805.37 54.53 721.5 73.36 721.5 114.27 705.87 114.27 705.87 34.69 642.65 34.69 642.65 10.23 636.49 10.23 636.49 34.69 569.54 34.69 569.54 94.38 557.45 94.38 557.45 79.81 551.28 79.81 551.28 94.38 548.2 94.38 548.2 70.55 465.73 70.55 465.73 34.69 453.3 34.69 453.3 0.85 405.92 15.32 405.92 34.69 402.51 34.69 402.51 10.23 396.34 10.23 396.34 34.69 329.4 34.69 329.4 94.38 317.3 94.38 317.3 79.81 311.13 79.81 311.13 94.38 308.06 94.38 308.06 70.55 213.16 70.55 213.16 114.27 96.62 114.27 96.62 213.85 1681.85 213.85 1681.85 114.27 1591.28 114.27"></polygon>
        </g>
    </g>
</svg>