<?xml version="1.0" encoding="UTF-8"?>
<svg width="578px" height="894px" viewBox="0 0 578 894" version="1.1" xmlns="http://www.w3.org/2000/svg" xmlns:xlink="http://www.w3.org/1999/xlink">
    <title>guest</title>
    <g id="guest" stroke="none" stroke-width="1" fill="none" fill-rule="evenodd">
        <g transform="translate(196.000000, 404.893142)">
            <path d="M123.187914,180.901858 C122.851914,180.405858 122.702914,179.926858 122.475914,179.887858 C119.734914,179.410858 116.981914,178.998858 113.935914,178.523858 C115.802914,181.871858 118.698914,182.291858 123.187914,180.901858 M226.666914,171.300858 C228.660914,168.918858 229.049914,166.475858 227.831914,164.467858 C226.925914,162.976858 226.016914,162.646858 223.878914,163.077858 C224.430914,165.929858 224.945914,168.784858 226.666914,171.300858 M240.926914,145.547858 C238.540914,141.809858 233.182914,139.364858 229.411914,140.279858 C232.723914,143.263858 236.324914,145.274858 240.926914,145.547858 M229.283914,186.737858 C233.088914,188.909858 239.909914,188.198858 242.795914,185.558858 C239.835914,184.917858 236.792914,184.257858 233.343914,183.510858 C232.274914,184.360858 230.814914,185.521858 229.283914,186.737858 M168.354914,98.3448582 C171.056914,94.4058582 174.833914,94.5158582 178.817914,94.8338582 C178.637914,93.2478582 178.487914,91.9218582 178.295914,90.2268582 C173.949914,91.5188582 169.900914,92.7218582 165.660914,93.9828582 C166.067914,94.7468582 166.292914,95.2388582 166.579914,95.6918582 C167.060914,96.4548582 167.580914,97.1928582 168.354914,98.3448582 M249.898914,157.814858 C246.616914,158.141858 243.720914,158.583858 240.815914,158.664858 C238.933914,158.715858 236.918914,158.569858 235.169914,157.938858 C230.309914,156.186858 225.905914,153.611858 222.358914,149.730858 C221.675914,148.984858 220.773914,148.437858 219.973914,147.797858 C219.869914,147.913858 219.765914,148.028858 219.662914,148.142858 C220.822914,152.260858 221.982914,156.379858 223.279914,160.985858 C223.992914,158.182858 224.246914,157.774858 226.115914,157.550858 C228.778914,157.232858 231.449914,157.384858 233.827914,158.795858 C235.816914,159.975858 237.634914,161.424858 238.179914,163.849858 C239.351914,169.058858 239.523914,174.182858 236.666914,179.006858 C236.342914,179.553858 236.205914,180.211858 235.888914,181.065858 C242.135914,176.547858 248.019914,172.209858 252.884914,166.548858 C251.867914,163.572858 250.872914,160.661858 249.898914,157.814858 M25.9339138,209.422858 C25.0579138,209.281858 24.2409138,209.250858 23.4889138,209.010858 C21.7479138,208.456858 20.3629138,206.400858 20.5409138,204.789858 C20.7069138,203.285858 22.3459138,201.792858 24.2199138,201.625858 C25.3949138,201.520858 26.6219138,201.489858 27.7719138,201.705858 C32.5189138,202.593858 34.9709138,206.450858 33.6129138,211.088858 C32.1529138,216.070858 29.3339138,219.976858 24.2019138,221.799858 C23.5299138,222.039858 22.8969138,222.386858 22.2689138,222.673858 C22.9389138,225.113858 23.7629138,225.664858 26.5209138,225.189858 C30.7619138,224.460858 34.9819138,223.607858 39.2039138,222.767858 C41.0649138,222.396858 41.3089138,222.142858 41.0509138,220.115858 C40.7149138,217.483858 40.2909138,214.850858 39.6949138,212.266858 C37.7179138,203.700858 35.6519138,195.155858 33.6069138,186.605858 C33.4179138,185.820858 33.1339138,185.057858 32.8649138,184.191858 C26.1159138,184.920858 19.5189138,185.632858 12.4609138,186.395858 C13.1549138,188.388858 13.5529138,190.076858 14.3019138,191.588858 C16.8989138,196.824858 18.4699138,202.332858 19.1159138,208.129858 C19.1809138,208.716858 19.3869138,209.437858 19.7919138,209.814858 C21.5269138,211.432858 23.8649138,211.270858 25.9339138,209.422858 M225.634914,77.6418582 C223.405914,77.8108582 221.216914,77.8938582 219.050914,78.1568582 C211.482914,79.0728582 204.055914,80.7518582 196.879914,83.2598582 C192.499914,84.7928582 188.324914,86.9678582 184.170914,89.0778582 C181.619914,90.3728582 181.563914,90.6058582 182.404914,93.4538582 C183.517914,97.2238582 184.761914,100.969858 186.202914,104.626858 C187.418914,107.715858 189.198914,108.504858 192.527914,107.961858 C193.160914,107.858858 193.783914,107.698858 194.410914,107.562858 C204.366914,105.401858 214.075914,102.380858 223.710914,99.1148582 C224.833914,98.7338582 225.888914,98.1608582 226.972914,97.6688582 C229.068914,96.7178582 230.125914,95.0358582 229.738914,92.8098582 C229.034914,88.7628582 228.162914,84.7428582 227.227914,80.7418582 C226.988914,79.7158582 226.250914,78.8068582 225.634914,77.6418582 M163.257914,94.8658582 C161.314914,95.2148582 159.863914,95.4118582 158.443914,95.7408582 C146.811914,98.4358582 135.466914,102.043858 124.423914,106.582858 C122.225914,107.485858 120.123914,108.623858 117.965914,109.630858 C116.491914,110.317858 116.086914,111.388858 116.384914,112.983858 C117.181914,117.246858 119.159914,120.911858 121.801914,124.272858 C122.635914,125.333858 123.700914,126.081858 125.071914,126.031858 C127.525914,125.942858 130.048914,126.043858 132.414914,125.501858 C142.607914,123.161858 152.630914,120.213858 162.335914,116.272858 C163.433914,115.827858 164.485914,115.243858 165.501914,114.630858 C166.777914,113.860858 167.457914,112.748858 167.203914,111.175858 C166.619914,107.562858 166.199914,103.916858 165.434914,100.342858 C165.041914,98.5108582 164.051914,96.8078582 163.257914,94.8658582 M365.397914,391.919858 C364.857914,391.528858 364.597914,391.253858 364.277914,391.111858 C358.167914,388.454858 352.787914,384.667858 347.617914,380.526858 C345.977914,379.213858 344.317914,377.806858 342.417914,376.988858 C341.177914,376.450858 340.497914,375.849858 340.007914,374.690858 C339.167914,372.693858 338.857914,372.459858 336.687914,372.837858 C334.167914,373.275858 331.677914,373.928858 329.187914,374.532858 C326.837914,375.103858 326.077914,375.005858 325.867914,373.994858 C325.657914,372.929858 326.337914,372.275858 328.367914,371.603858 C329.797914,371.132858 331.227914,370.680858 333.177914,370.052858 C331.617914,368.671858 330.467914,367.656858 329.317914,366.648858 C324.007914,362.011858 318.327914,357.699858 315.537914,350.864858 C315.477914,350.714858 315.287914,350.621858 314.957914,350.325858 C313.197914,351.472858 311.377914,352.665858 309.550914,353.840858 C306.559914,355.768858 303.418914,357.139858 299.724914,356.493858 C299.393914,356.435858 299.031914,356.552858 298.537914,356.604858 C298.579914,357.240858 298.521914,357.786858 298.661914,358.275858 C300.142914,363.467858 301.629914,368.658858 303.189914,373.827858 C303.412914,374.566858 303.867914,375.500858 304.483914,375.808858 C306.811914,376.973858 309.250914,377.918858 311.977914,379.087858 C311.627914,377.581858 311.397914,376.577858 311.077914,375.186858 C312.137914,375.247858 312.947914,375.056858 313.467914,375.359858 C317.827914,377.863858 322.567914,379.754858 326.277914,383.299858 C329.587914,386.461858 332.997914,389.522858 336.217914,392.765858 C337.527914,394.083858 338.957914,394.893858 340.737914,395.109858 C344.737914,395.594858 348.737914,396.059858 352.787914,395.538858 C355.237914,395.221858 357.707914,394.893858 360.177914,394.854858 C362.427914,394.817858 363.897914,393.726858 365.397914,391.919858 M280.241914,333.564858 C274.823914,335.451858 269.508914,337.301858 264.339914,339.101858 C263.986914,343.583858 263.629914,347.957858 263.299914,352.334858 C263.082914,355.213858 263.832914,356.049858 267.092914,356.511858 C267.092914,355.223858 267.103914,353.954858 267.089914,352.686858 C267.076914,351.346858 266.853914,349.942858 268.183914,349.077858 C268.514914,349.197858 268.763914,349.209858 268.835914,349.328858 C269.068914,349.712858 269.275914,350.122858 269.421914,350.546858 C273.284914,361.713858 274.129914,373.312858 274.017914,384.987858 C273.987914,388.139858 274.307914,391.062858 275.836914,393.703858 C277.481914,396.542858 279.395914,399.245858 281.388914,401.857858 C284.447914,405.866858 288.998914,408.123858 292.860914,411.190858 C293.645914,411.814858 294.760914,412.023858 296.135914,412.595858 C295.938914,411.344858 295.871914,410.643858 295.712914,409.963858 C295.111914,407.374858 294.419914,404.804858 293.875914,402.204858 C293.141914,398.707858 292.472914,395.194858 291.852914,391.674858 C291.352914,388.838858 291.731914,386.053858 293.067914,383.181858 C288.083914,383.073858 283.277914,384.555858 278.818914,381.498858 C281.773914,379.306858 285.014914,379.805858 288.015914,379.348858 C285.407914,363.987858 282.820914,348.755858 280.241914,333.564858 M113.169914,145.449858 C108.441914,144.510858 103.833914,143.379858 99.6739138,140.985858 C97.2279138,139.577858 94.6179138,138.325858 93.2029138,135.634858 C93.0529138,135.350858 92.6839138,135.042858 92.3809138,135.000858 C89.8009138,134.645858 87.2179138,134.208858 84.2799138,134.419858 C84.6529138,135.032858 84.7869138,135.354858 85.0069138,135.597858 C88.6989138,139.641858 90.4979138,144.641858 92.1299138,149.717858 C93.3929138,153.639858 94.5719138,157.589858 95.8249138,161.514858 C96.5679138,163.844858 97.5499138,166.124858 96.7389138,168.888858 C100.394914,169.785858 103.825914,170.775858 107.316914,171.454858 C115.664914,173.076858 124.045914,174.519858 132.396914,176.130858 C133.423914,176.329858 133.930914,175.913858 134.545914,175.369858 C140.540914,170.070858 145.391914,163.971858 148.179914,156.355858 C149.854914,151.780858 152.020914,147.433858 154.833914,143.430858 C155.165914,142.958858 155.430914,142.437858 155.800914,141.814858 C155.352914,141.839858 155.142914,141.789858 155.012914,141.869858 C154.546914,142.156858 154.099914,142.476858 153.659914,142.802858 C150.153914,145.401858 147.407914,148.682858 144.953914,152.265858 C143.197914,154.831858 141.281914,157.292858 139.361914,159.741858 C134.106914,166.446858 126.761914,169.582858 118.791914,171.536858 C115.100914,172.441858 111.714914,171.205858 108.552914,169.400858 C107.122914,168.584858 105.954914,167.421858 105.899914,165.388858 C117.382914,164.530858 124.021914,156.720858 130.800914,148.837858 C127.330914,147.514858 124.113914,146.525858 121.109914,145.090858 C116.224914,142.756858 114.407914,141.113858 113.141914,138.470858 C119.415914,142.402858 126.207914,143.779858 133.153914,145.377858 C136.344914,139.182858 139.125914,132.916858 144.332914,127.989858 C143.708914,127.861858 143.528914,127.774858 143.367914,127.801858 C142.916914,127.879858 142.467914,127.981858 142.029914,128.112858 C136.488914,129.774858 130.930914,131.335858 125.058914,131.179858 C124.702914,131.170858 124.322914,131.260858 123.986914,131.391858 C120.894914,132.597858 117.737914,132.380858 114.530914,131.994858 C108.989914,131.325858 103.552914,131.938858 98.2539138,133.688858 C97.7099138,133.868858 97.2239138,134.222858 96.4069138,134.659858 C102.086914,138.553858 108.523914,140.597858 113.169914,145.449858 M251.042914,194.068858 C248.140914,195.170858 245.329914,196.230858 242.522914,197.305858 C235.049914,200.167858 227.830914,203.564858 221.242914,208.125858 C217.718914,210.563858 213.995914,213.036858 212.293914,217.211858 C209.765914,223.415858 207.724914,229.809858 207.140914,236.529858 C206.502914,243.869858 205.437914,251.082858 202.658914,257.972858 C201.575914,260.658858 200.151914,263.076858 198.083914,265.083858 C195.217914,267.863858 191.356914,268.452858 187.954914,266.678858 C186.936914,266.148858 185.957914,265.544858 185.994914,264.033858 C187.426914,264.251858 188.638914,264.435858 190.459914,264.712858 C189.982914,263.425858 189.856914,262.531858 189.378914,261.906858 C188.121914,260.260858 185.661914,259.536858 184.235914,260.218858 C182.226914,261.179858 180.811914,263.503858 180.985914,265.555858 C181.272914,268.941858 184.285914,272.168858 187.666914,272.670858 C188.753914,272.832858 189.857914,272.878858 190.947914,273.028858 C194.715914,273.548858 198.011914,272.368858 201.000914,270.192858 C204.435914,267.692858 206.715914,264.281858 208.397914,260.448858 C210.384914,255.918858 212.264914,251.339858 214.291914,246.827858 C217.142914,240.473858 220.046914,234.141858 223.015914,227.841858 C223.858914,226.051858 225.205914,224.489858 225.968914,222.674858 C228.163914,217.455858 231.656914,213.530858 236.800914,211.133858 C242.706914,208.382858 248.887914,206.902858 255.442914,207.102858 C259.338914,207.220858 263.059914,207.917858 266.606914,209.644858 C269.577914,211.091858 271.589914,213.298858 272.799914,216.319858 C273.131914,217.149858 273.500914,217.964858 273.902914,218.901858 C275.335914,218.499858 276.592914,218.146858 277.988914,217.755858 C276.999914,215.318858 275.211914,212.968858 277.637914,210.768858 C279.568914,209.017858 281.877914,208.204858 284.429914,209.824858 C284.759914,208.872858 284.987914,208.256858 283.851914,207.727858 C281.800914,206.773858 280.925914,205.022858 281.374914,202.863858 C281.666914,201.458858 282.284914,200.121858 282.899914,198.339858 C281.114914,196.371858 279.116914,194.169858 277.147914,191.998858 C274.604914,193.766858 273.763914,193.808858 272.058914,191.697858 C271.155914,190.577858 270.800914,189.013858 269.980914,187.156858 C268.321914,185.645858 266.189914,183.704858 263.930914,181.647858 C263.318914,182.605858 262.887914,183.404858 262.337914,184.112858 C261.164914,185.625858 259.426914,186.218858 258.298914,185.444858 C256.390914,184.133858 255.635914,182.166858 255.772914,179.952858 C255.889914,178.062858 256.908914,176.706858 258.876914,176.234858 C259.101914,176.181858 259.274914,175.913858 259.596914,175.637858 C259.117914,174.953858 258.666914,174.310858 258.585914,174.196858 C256.553914,174.086858 255.076914,173.993858 253.597914,173.930858 C252.997914,173.905858 252.177914,173.696858 251.828914,173.999858 C249.314914,176.172858 246.895914,178.457858 244.446914,180.706858 C246.383914,180.765858 247.992914,180.208858 249.411914,179.187858 C250.823914,178.170858 252.185914,177.085858 253.570914,176.029858 C253.757914,176.169858 253.945914,176.308858 254.133914,176.448858 C253.833914,177.455858 253.731914,178.583858 253.201914,179.448858 C250.099914,184.509858 246.302914,188.868858 240.102914,191.089858 C240.825914,191.560858 241.168914,191.972858 241.470914,191.943858 C242.188914,191.875858 242.891914,191.620858 243.588914,191.401858 C249.472914,189.558858 255.442914,188.139858 261.639914,188.041858 C263.169914,188.016858 264.729914,188.324858 266.228914,188.677858 C266.676914,188.783858 267.243914,189.549858 267.269914,190.039858 C267.318914,190.936858 266.542914,191.174858 265.722914,191.166858 C264.377914,191.151858 263.032914,191.162858 261.669914,191.162858 C261.919914,195.432858 260.837914,197.279858 257.852914,198.131858 C254.612914,199.056858 253.596914,198.494858 251.042914,194.068858 M59.5419138,140.901858 C60.7309138,141.395858 61.3929138,141.642858 62.0319138,141.941858 C66.5999138,144.072858 65.5669138,146.756858 63.0549138,150.065858 C62.7309138,150.492858 61.4499138,150.604858 60.8449138,150.337858 C58.3589138,149.232858 56.2899138,147.654858 55.4909138,144.814858 C54.8349138,142.483858 55.0019138,141.990858 57.3289138,140.848858 C57.4079138,140.809858 57.3729138,140.536858 57.4089138,140.221858 C56.7279138,140.075858 56.0339138,139.900858 55.3299138,139.778858 C52.8149138,139.343858 51.4859138,137.246858 52.2639138,134.825858 C52.5329138,133.992858 52.9539138,133.207858 53.3299138,132.340858 C51.7619138,132.284858 51.8059138,132.309858 51.3389138,133.137858 C50.4909138,134.644858 49.7619138,136.269858 48.6639138,137.575858 C46.5809138,140.050858 45.2599138,139.962858 43.0879138,137.379858 C41.2199138,139.192858 39.3649138,140.991858 37.3949138,142.902858 C38.0419138,143.277858 38.3569138,143.449858 38.6619138,143.639858 C40.9019138,145.036858 41.1699138,146.054858 39.3749138,147.940858 C38.3369138,149.029858 36.9759138,150.063858 35.5709138,150.473858 C34.2389138,150.863858 32.6599138,150.406858 30.8989138,150.304858 C30.7279138,150.508858 30.2969138,150.981858 29.9129138,151.488858 C26.0899138,156.529858 22.2709138,161.573858 18.4599138,166.622858 C16.4849138,169.239858 14.3399138,171.753858 12.5979138,174.518858 C8.48691375,181.045858 6.08591375,188.247858 5.00991375,195.859858 C4.71891375,197.916858 4.81091375,200.067858 5.01991375,202.146858 C5.49791375,206.912858 7.47491375,211.161858 10.1759138,215.032858 C10.9599138,216.155858 12.2779138,217.106858 13.5569138,217.631858 C15.2269138,218.318858 17.0839138,218.677858 18.8929138,218.869858 C23.9899138,219.410858 30.4189138,216.538858 31.7619138,210.505858 C32.2469138,208.327858 31.6249138,206.745858 30.1089138,205.348858 C28.5729138,203.933858 26.6559138,203.683858 24.7059138,203.883858 C24.1039138,203.945858 23.4369138,204.500858 23.0519138,205.017858 C22.8849138,205.243858 23.2369138,206.053858 23.5629138,206.400858 C24.1139138,206.984858 24.6969138,207.398858 25.7069138,206.884858 C27.3059138,206.071858 28.6119138,206.860858 28.6589138,208.582858 C28.6789138,209.360858 28.4359138,210.246858 28.0369138,210.920858 C26.4699138,213.564858 24.0839138,214.533858 21.0419138,214.223858 C18.0039138,213.915858 15.8609138,212.596858 14.9529138,209.551858 C14.2719138,207.268858 13.6129138,204.972858 12.7879138,202.740858 C11.0609138,198.068858 10.1479138,193.215858 9.38191375,188.325858 C9.25491375,187.516858 9.25191375,186.681858 9.26991375,185.860858 C9.32291375,183.371858 9.77891375,182.586858 12.1839138,181.863858 C14.2799138,181.233858 16.4589138,180.853858 18.6229138,180.487858 C21.6009138,179.981858 24.6049138,179.616858 27.5879138,179.135858 C28.2919138,179.022858 28.9999138,178.763858 29.6379138,178.440858 C34.6229138,175.923858 39.6019138,173.395858 44.5609138,170.829858 C49.4449138,168.301858 54.3129138,165.747858 59.1599138,163.149858 C59.9769138,162.711858 61.0009138,162.360858 61.3099138,161.134858 C59.3299138,160.224858 57.4199138,159.346858 55.5119138,158.469858 C55.5779138,158.264858 55.6439138,158.059858 55.7099138,157.854858 C61.6789138,156.950858 67.4339138,158.613858 73.1419138,159.918858 C78.9669138,161.249858 84.6529138,163.194858 90.9029138,165.017858 C89.7569138,161.374858 88.7629138,158.209858 87.7769138,155.071858 C83.6749138,155.481858 80.8019138,153.736858 78.9399138,150.679858 C77.6789138,148.612858 76.8459138,146.182858 76.3019138,143.805858 C75.5709138,140.614858 76.9889138,138.690858 80.1869138,137.694858 C80.2959138,137.661858 80.3389138,137.416858 80.5599138,136.977858 C79.4059138,136.090858 78.3189138,134.686858 76.9609138,134.338858 C74.2609138,133.643858 71.4119138,133.529858 68.6539138,133.179858 C68.0769138,134.485858 67.6099138,135.574858 67.1159138,136.650858 C65.9119138,139.272858 64.2119138,141.106858 60.9709138,140.508858 C60.7319138,140.464858 60.4519138,140.642858 59.5419138,140.901858 M136.723914,224.119858 C136.336914,226.622858 136.104914,228.743858 134.771914,230.606858 C133.025914,233.048858 131.307914,235.515858 129.696914,238.047858 C128.500914,239.923858 128.873914,241.799858 130.675914,243.116858 C132.066914,244.131858 133.604914,244.946858 135.227914,245.942858 C137.413914,242.385858 140.663914,240.303858 144.045914,238.494858 C149.294914,235.686858 154.668914,233.114858 159.967914,230.399858 C161.584914,229.570858 163.228914,228.733858 164.692914,227.670858 C172.177914,222.228858 179.606914,216.708858 187.064914,211.227858 C187.826914,210.667858 188.649914,210.189858 189.444914,209.673858 C189.572914,209.857858 189.699914,210.040858 189.827914,210.223858 L167.385914,228.443858 C167.462914,228.676858 167.540914,228.909858 167.618914,229.142858 C168.549914,229.161858 169.492914,229.278858 170.412914,229.183858 C175.727914,228.632858 181.018914,228.612858 186.276914,229.718858 C188.607914,230.209858 190.939914,230.697858 193.281914,231.128858 C193.981914,231.255858 194.763914,231.355858 195.429914,231.175858 C198.332914,230.396858 201.205914,229.508858 204.159914,228.639858 C205.340914,224.824858 206.517914,220.969858 207.728914,217.126858 C208.826914,213.643858 210.671914,210.561858 213.370914,208.138858 C216.017914,205.759858 218.738914,203.364858 221.760914,201.524858 C226.128914,198.864858 230.798914,196.699858 235.335914,194.316858 C235.649914,194.152858 235.935914,193.936858 236.395914,193.641858 C236.138914,192.852858 235.897914,192.115858 235.628914,191.292858 C232.026914,191.201858 228.413914,191.542858 225.864914,188.337858 C222.340914,189.544858 218.826914,189.708858 215.221914,189.172858 C206.011914,187.800858 198.989914,183.104858 194.281914,175.165858 C191.549914,170.560858 189.962914,165.463858 189.456914,160.082858 C189.399914,159.484858 189.250914,158.896858 189.089914,157.993858 C188.714914,158.481858 188.491914,158.649858 188.437914,158.861858 C187.486914,162.586858 186.438914,166.290858 185.647914,170.048858 C184.308914,176.407858 183.089914,182.791858 181.903914,189.179858 C180.441914,197.042858 176.175914,203.400858 171.110914,209.289858 C167.150914,213.891858 162.210914,217.226858 156.474914,219.219858 C149.536914,221.630858 143.419914,219.731858 138.209914,214.922858 C134.673914,211.659858 134.244914,205.506858 136.921914,202.056858 C137.999914,200.669858 139.345914,199.793858 141.163914,199.982858 C143.086914,200.183858 143.943914,201.923858 142.989914,203.575858 C142.003914,205.279858 142.005914,206.433858 142.993914,207.478858 C144.020914,208.567858 145.816914,208.889858 147.281914,208.047858 C148.544914,207.320858 149.771914,206.477858 150.867914,205.516858 C156.516914,200.564858 160.682914,194.598858 162.516914,187.251858 C163.846914,181.922858 164.860914,176.511858 165.971914,171.129858 C166.834914,166.948858 167.631914,162.754858 168.458914,158.566858 C167.915914,158.818858 167.627914,159.163858 167.407914,159.545858 C165.204914,163.353858 162.932914,167.126858 160.836914,170.992858 C158.055914,176.123858 154.680914,180.781858 150.227914,184.567858 C145.347914,188.715858 139.937914,191.921858 133.488914,192.966858 C131.429914,193.300858 129.340914,193.455858 127.160914,193.704858 C127.256914,194.443858 127.265914,195.088858 127.431914,195.689858 C129.143914,201.913858 129.699914,208.298858 130.281914,214.696858 C130.627914,218.519858 131.377914,222.307858 131.991914,226.104858 C132.079914,226.647858 132.420914,227.149858 132.658914,227.700858 C134.232914,226.711858 134.333914,224.561858 136.723914,224.119858 M202.729914,132.440858 C204.036914,131.496858 205.228914,131.478858 206.310914,132.063858 C208.072914,133.016858 209.882914,133.968858 211.418914,135.230858 C215.594914,138.659858 219.639914,142.248858 223.727914,145.783858 C224.211914,146.201858 224.625914,146.698858 225.098914,147.130858 C226.854914,148.735858 228.435914,150.631858 230.429914,151.847858 C232.819914,153.304858 235.484914,154.807858 238.175914,155.153858 C242.155914,155.665858 246.236914,154.990858 249.915914,153.036858 C253.146914,151.319858 256.083914,147.236858 256.445914,143.754858 C252.699914,147.419858 248.204914,148.887858 243.450914,149.715858 C238.560914,150.567858 233.996914,149.719858 229.723914,147.120858 C225.443914,144.516858 222.304914,140.986858 220.059914,136.501858 C217.435914,131.258858 214.738914,126.036858 211.729914,121.009858 C209.329914,116.999858 206.070914,113.779858 201.045914,113.107858 C200.621914,113.050858 200.248914,112.607858 199.380914,112.030858 C201.565914,111.335858 203.243914,111.308858 204.916914,111.749858 C209.857914,113.047858 213.636914,116.093858 216.387914,120.225858 C219.124914,124.336858 221.475914,128.707858 223.895914,133.020858 C225.404914,135.710858 225.320914,135.756858 228.859914,135.203858 C228.591914,134.327858 228.454914,133.423858 228.055914,132.656858 C226.877914,130.383858 225.822914,127.997858 224.310914,125.957858 C220.874914,121.320858 217.205914,116.856858 213.606914,112.341858 C212.479914,110.928858 211.271914,109.579858 210.135914,108.241858 C209.005914,108.533858 208.125914,108.780858 207.236914,108.987858 C202.504914,110.087858 197.799914,111.332858 193.030914,112.226858 C188.239914,113.125858 185.056914,111.463858 182.830914,107.151858 C181.826914,105.208858 181.026914,103.138858 180.343914,101.057858 C179.909914,99.7338582 179.162914,99.0078582 177.855914,98.8808582 C176.677914,98.7658582 175.456914,98.6018582 174.306914,98.7888582 C171.189914,99.2928582 169.643914,101.698858 170.328914,104.719858 C170.469914,105.345858 170.609914,105.972858 170.762914,106.595858 C171.909914,111.244858 168.919914,117.017858 165.159914,119.073858 C162.848914,120.337858 160.752914,122.005858 158.614914,123.565858 C155.439914,125.878858 152.345914,128.303858 149.153914,130.590858 C146.059914,132.807858 143.348914,135.376858 141.364914,138.633858 C140.078914,140.744858 138.916914,142.931858 137.718914,145.094858 C132.534914,154.448858 125.929914,162.339858 115.707914,166.514858 C115.465914,166.612858 115.247914,166.763858 114.744914,167.042858 C116.508914,168.136858 117.999914,167.792858 119.307914,167.399858 C122.372914,166.479858 125.389914,165.389858 128.382914,164.255858 C131.886914,162.925858 134.746914,160.695858 137.120914,157.784858 C140.073914,154.160858 143.064914,150.563858 146.125914,147.030858 C149.983914,142.578858 154.813914,139.472858 160.223914,137.237858 C161.098914,136.876858 162.005914,136.344858 163.330914,136.930858 C162.905914,137.547858 162.666914,138.136858 162.234914,138.480858 C159.730914,140.467858 157.883914,142.991858 156.609914,145.852858 C154.747914,150.031858 152.913914,154.246858 151.456914,158.577858 C148.563914,167.175858 143.560914,174.233858 136.671914,180.033858 C132.687914,183.387858 128.206914,185.542858 122.887914,185.361858 C120.453914,185.278858 118.030914,184.865858 115.441914,184.584858 C116.161914,186.008858 117.322914,186.964858 118.822914,187.398858 C125.890914,189.439858 132.912914,189.535858 139.826914,186.697858 C146.782914,183.841858 151.986914,178.955858 155.957914,172.680858 C160.417914,165.630858 164.724914,158.480858 169.306914,151.511858 C171.049914,148.861858 173.328914,146.551858 175.460914,144.174858 C176.062914,143.505858 176.875914,142.787858 178.508914,143.111858 C177.877914,144.103858 177.470914,144.859858 176.957914,145.534858 C175.098914,147.978858 173.713914,150.664858 173.083914,153.665858 C172.406914,156.884858 171.771914,160.125858 171.354914,163.386858 C170.564914,169.565858 170.213914,175.811858 169.194914,181.949858 C167.054914,194.844858 161.750914,205.674858 148.950914,211.360858 C145.231914,213.012858 141.704914,211.944858 140.189914,208.148858 C139.699914,206.919858 139.464914,205.588858 139.080914,204.186858 C137.951914,204.862858 137.783914,205.915858 137.774914,207.032858 C137.751914,209.741858 138.962914,211.894858 141.183914,213.271858 C146.325914,216.461858 151.641914,217.842858 157.583914,215.065858 C168.171914,210.114858 174.535914,201.645858 178.208914,190.899858 C180.830914,183.225858 181.530914,175.153858 182.853914,167.204858 C183.678914,162.251858 185.041914,157.381858 186.300914,152.509858 C186.886914,150.243858 188.221914,148.347858 190.183914,146.992858 C190.648914,146.671858 191.254914,146.552858 192.174914,146.194858 C192.174914,147.540858 192.240914,148.507858 192.164914,149.465858 C191.778914,154.286858 192.326914,158.981858 193.990914,163.529858 C198.189914,175.010858 206.167914,182.005858 218.344914,183.993858 C220.659914,184.371858 222.881914,184.051858 225.096914,183.263858 C231.056914,181.144858 234.625914,176.779858 236.219914,170.901858 C237.761914,165.214858 234.721914,160.319858 228.200914,160.630858 C232.705914,165.443858 230.819914,170.065858 228.081914,174.704858 C228.921914,174.098858 229.761914,173.493858 230.733914,172.794858 C230.578914,176.017858 228.425914,178.985858 225.668914,179.796858 C222.481914,180.734858 219.500914,180.316858 216.903914,178.080858 C213.346914,175.019858 210.708914,171.347858 209.397914,166.797858 C208.306914,163.008858 207.183914,159.229858 206.154914,155.425858 C205.221914,151.975858 204.357914,148.505858 203.548914,145.025858 C203.324914,144.057858 203.407914,143.018858 203.348914,142.011858 C203.554914,141.980858 203.761914,141.948858 203.967914,141.917858 C204.243914,142.533858 204.556914,143.136858 204.786914,143.769858 C205.348914,145.319858 205.776914,146.924858 206.429914,148.433858 C209.092914,154.572858 211.640914,160.771858 214.599914,166.766858 C216.038914,169.679858 218.228914,172.236858 220.202914,174.861858 C221.001914,175.924858 222.146914,176.587858 223.566914,175.106858 C219.998914,169.032858 219.576914,162.077858 218.290914,155.362858 C217.523914,151.354858 216.215914,147.579858 214.510914,143.912858 C214.168914,143.177858 213.766914,142.384858 213.174914,141.866858 C210.702914,139.696858 208.178914,137.578858 205.604914,135.529858 C204.537914,134.680858 203.341914,134.006858 202.729914,132.440858 M198.877914,79.1378582 C198.622914,76.3998582 198.421914,73.9458582 198.158914,71.4988582 C197.610914,66.3978582 197.040914,61.2988582 196.457914,56.2038582 C196.259914,54.4788582 196.117914,52.7348582 195.738914,51.0478582 C194.089914,43.7138582 191.049914,36.9928582 186.690914,30.8578582 C181.830914,24.0188582 176.480914,17.6428582 169.453914,12.9108582 C160.734914,7.03785817 151.163914,4.48485817 140.708914,6.30885817 C124.580914,9.12185817 110.324914,16.0058582 98.4799138,27.2978582 C88.1389138,37.1558582 83.4259138,49.4348582 84.8879138,63.8208582 C85.7369138,72.1688582 89.4669138,79.4058582 93.9149138,86.3238582 C94.3949138,87.0718582 95.1489138,87.6838582 95.8759138,88.2258582 C97.4919138,89.4298582 99.1199138,90.6328582 100.836914,91.6818582 C103.189914,93.1178582 105.645914,94.6058582 108.486914,94.4658582 C112.135914,94.2868582 115.769914,93.7518582 119.401914,93.3038582 C120.068914,93.2218582 120.696914,92.8258582 121.618914,92.4658582 C120.418914,90.5468582 119.364914,88.8578582 118.225914,87.0338582 C120.299914,86.1338582 121.530914,87.1228582 122.537914,88.0898582 C125.557914,90.9928582 129.258914,93.2248582 131.418914,96.9918582 C131.826914,97.7028582 132.358914,98.3408582 132.640914,98.7408582 C138.305914,97.3708582 143.390914,96.1968582 148.444914,94.9058582 C158.745914,92.2738582 169.029914,89.6098582 178.997914,85.8218582 C184.125914,83.8738582 189.440914,82.4228582 194.662914,80.7198582 C195.954914,80.2978582 197.209914,79.7678582 198.877914,79.1378582 M35.3139138,180.736858 C36.6209138,184.530858 37.9769138,187.836858 38.8909138,191.259858 C40.7349138,198.162858 42.4609138,205.102858 43.9879138,212.082858 C44.7439138,215.540858 45.4839138,219.055858 44.7769138,222.692858 C44.1509138,225.912858 42.9879138,227.143858 39.8149138,227.572858 C35.8219138,228.111858 31.8409138,228.748858 27.8559138,229.339858 C27.0409138,229.461858 26.2259138,229.630858 25.4059138,229.674858 C21.9599138,229.860858 20.1839138,228.913858 19.0679138,225.641858 C18.3509138,223.537858 17.2799138,222.512858 15.0819138,222.296858 C11.8729138,221.980858 9.31791375,220.020858 6.67991375,218.411858 C5.73791375,217.836858 5.02991375,216.674858 4.51591375,215.632858 C-0.739086246,204.952858 -1.81908625,194.113858 3.47591375,183.082858 C4.94391375,180.026858 6.24991375,176.882858 7.89391375,173.924858 C9.57891375,170.890858 11.4109138,167.905858 13.4859138,165.128858 C18.3629138,158.599858 22.7799138,151.686858 28.5469138,145.874858 C32.8669138,141.522858 37.4339138,137.416858 41.8999138,133.210858 C43.4339138,131.766858 45.0679138,130.422858 46.5279138,128.908858 C48.2019138,127.173858 50.2209138,126.534858 52.5089138,126.796858 C58.0569138,127.428858 63.6159138,128.021858 69.1269138,128.896858 C72.2809138,129.397858 75.3509138,130.419858 78.6039138,131.244858 C79.9199138,129.607858 81.8129138,129.462858 83.7459138,129.740858 C86.8229138,130.183858 89.9079138,130.635858 92.9369138,131.316858 C94.2309138,131.606858 95.1469138,131.435858 96.2359138,130.743858 C100.572914,127.985858 105.259914,126.166858 110.487914,126.463858 C112.924914,126.602858 115.334914,127.198858 118.082914,127.638858 C117.664914,126.875858 117.335914,126.191858 116.933914,125.554858 C114.492914,121.689858 113.018914,117.509858 112.571914,112.941858 C112.242914,109.584858 113.225914,106.951858 116.353914,105.413858 C118.815914,104.202858 121.324914,103.082858 123.833914,101.973858 C125.166914,101.383858 126.548914,100.904858 128.039914,100.324858 C127.574914,98.8698582 126.454914,98.0308582 125.627914,97.0058582 C124.871914,96.0668582 123.932914,96.6058582 123.106914,96.9308582 C118.922914,98.5748582 114.577914,99.0568582 110.139914,98.6638582 C105.065914,98.2138582 100.191914,97.0848582 96.0229138,93.9088582 C95.8039138,93.7418582 95.5959138,93.5468582 95.3519138,93.4298582 C90.3859138,91.0648582 87.7829138,86.6758582 85.5339138,81.9858582 C82.4439138,75.5438582 80.4029138,68.7938582 80.3619138,61.6188582 C80.2719138,46.0988582 86.0359138,32.9078582 97.3749138,22.4608582 C108.985914,11.7618582 122.722914,4.76885817 138.149914,1.24185817 C152.476914,-2.03514183 165.310914,1.18285817 176.350914,10.7828582 C190.410914,23.0068582 198.958914,38.2268582 200.680914,57.0368582 C201.296914,63.7768582 202.286914,70.4838582 203.151914,77.5868582 C204.410914,77.2958582 205.446914,77.1068582 206.454914,76.8148582 C212.465914,75.0758582 218.535914,73.7288582 224.850914,73.9468582 C225.583914,73.9718582 226.315914,74.0298582 227.046914,74.0328582 C228.628914,74.0388582 229.708914,74.8478582 230.167914,76.2738582 C232.001914,81.9528582 233.770914,87.6428582 232.997914,93.7598582 C232.589914,96.9858582 231.206914,99.5868582 228.259914,101.032858 C225.060914,102.602858 221.747914,103.945858 218.464914,105.343858 C216.965914,105.983858 215.421914,106.519858 213.427914,107.282858 C214.321914,108.370858 214.889914,109.244858 215.630914,109.934858 C218.778914,112.871858 222.067914,115.660858 225.134914,118.674858 C229.283914,122.753858 231.915914,127.748858 233.386914,133.365858 C233.640914,134.336858 233.939914,135.295858 234.075914,135.763858 C236.769914,137.164858 239.231914,138.164858 241.370914,139.633858 C243.454914,141.066858 245.208914,142.979858 247.352914,144.902858 C252.005914,144.826858 256.472914,140.721858 258.157914,134.238858 C258.860914,135.092858 259.515914,135.682858 259.894914,136.415858 C260.217914,137.041858 260.343914,137.830858 260.353914,138.549858 C260.435914,145.111858 259.090914,151.125858 253.646914,155.508858 C253.228914,155.844858 252.824914,156.199858 252.341914,156.605858 C253.401914,158.410858 254.410914,160.127858 255.416914,161.844858 C256.516914,163.723858 257.797914,165.460858 258.345914,167.682858 C258.649914,168.914858 259.783914,169.993858 260.683914,171.017858 C263.950914,174.733858 267.255914,178.414858 270.593914,182.065858 C271.387914,182.933858 272.275914,183.778858 273.269914,184.390858 C277.935914,187.266858 281.717914,191.153858 285.389914,195.112858 C289.410914,199.446858 290.082914,206.358858 287.407914,211.811858 C287.006914,212.627858 286.753914,213.519858 286.478914,214.390858 C284.978914,219.133858 282.049914,222.529858 277.309914,224.279858 C275.522914,224.938858 275.288914,225.466858 275.639914,227.425858 C275.720914,227.876858 275.841914,228.320858 275.915914,228.771858 C275.988914,229.217858 276.023914,229.671858 276.083914,230.208858 C279.839914,231.158858 282.104914,233.899858 284.202914,236.840858 C287.694914,241.739858 289.910914,247.281858 292.224914,252.771858 C298.478914,267.604858 302.979914,282.981858 306.403914,298.686858 C307.202914,302.349858 307.877914,306.045858 308.440914,309.751858 C309.130914,314.294858 310.967914,318.199858 314.587914,321.065858 C317.007914,322.989858 317.587914,325.326858 316.867914,328.139858 C316.287914,330.448858 315.687914,332.760858 314.947914,335.019858 C314.427914,336.598858 314.567914,338.006858 315.097914,339.553858 C315.837914,341.702858 316.287914,343.947858 316.887914,346.143858 C317.037914,346.664858 317.207914,347.207858 317.497914,347.652858 C318.497914,349.183858 319.777914,350.569858 320.557914,352.201858 C323.927914,359.346858 331.197914,362.338858 336.557914,367.351858 C337.237914,367.988858 338.337914,368.240858 339.287914,368.518858 C341.297914,369.108858 342.747914,370.196858 343.067914,372.388858 C343.307914,374.027858 344.357914,374.849858 345.757914,375.561858 C351.547914,378.511858 357.327914,381.508858 363.057914,384.582858 C364.657914,385.440858 366.247914,386.446858 367.567914,387.681858 C370.807914,390.716858 369.477914,396.471858 365.307914,398.052858 C359.357914,400.300858 353.167914,400.684858 346.907914,400.508858 C345.537914,400.469858 344.167914,400.300858 342.797914,400.118858 C338.897914,399.595858 335.527914,398.111858 332.497914,395.424858 C327.837914,391.295858 322.877914,387.513858 318.027914,383.595858 C317.467914,383.135858 316.847914,382.740858 316.137914,382.235858 C315.757914,382.400858 315.317914,382.519858 314.967914,382.760858 C313.327914,383.870858 311.657914,384.102858 309.758914,383.382858 C307.622914,382.572858 305.402914,381.983858 303.241914,381.233858 C301.316914,380.566858 299.948914,379.261858 299.257914,377.325858 C298.736914,375.862858 298.153914,374.406858 297.810914,372.899858 C296.488914,367.091858 295.266914,361.261858 293.962914,355.450858 C293.808914,354.764858 293.532914,353.975858 293.045914,353.519858 C291.526914,352.096858 291.057914,350.272858 290.736914,348.353858 C290.342914,346.003858 289.925914,343.655858 289.583914,341.297858 C289.400914,340.035858 288.934914,339.128858 287.708914,338.502858 C286.341914,337.803858 285.121914,336.821858 283.500914,335.737858 C283.591914,336.634858 283.584914,337.299858 283.733914,337.926858 C286.783914,350.768858 289.861914,363.603858 292.895914,376.450858 C293.177914,377.643858 293.494914,378.672858 294.555914,379.465858 C296.101914,380.622858 296.597914,382.295858 296.070914,384.130858 C295.222914,387.083858 295.823914,389.867858 296.490914,392.775858 C297.881914,398.845858 298.953914,404.991858 300.131914,411.109858 C300.252914,411.732858 300.279914,412.391858 300.231914,413.025858 C299.950914,416.755858 298.194914,418.047858 294.571914,417.250858 C293.958914,417.115858 293.245914,416.809858 292.722914,416.994858 C290.620914,417.734858 289.034914,416.748858 287.325914,415.776858 C280.372914,411.821858 276.174914,405.580858 272.939914,398.555858 C271.820914,396.127858 271.199914,393.542858 271.367914,390.812858 C271.411914,390.098858 271.272914,389.362858 271.143914,388.649858 C270.719914,386.323858 270.109914,384.020858 269.847914,381.677858 C269.184914,375.756858 268.679914,369.819858 268.091914,363.889858 C268.011914,363.079858 267.819914,362.279858 267.646914,361.293858 C266.756914,361.093858 265.885914,360.893858 265.013914,360.703858 C260.771914,359.776858 258.384914,357.141858 258.405914,352.812858 C258.426914,348.236858 258.904914,343.664858 258.995914,339.087858 C259.069914,335.273858 258.121914,331.854858 254.289914,329.982858 C252.971914,329.338858 251.627914,328.722858 250.400914,327.933858 C248.791914,326.899858 247.040914,325.924858 245.796914,324.527858 C243.944914,322.444858 243.291914,319.794858 244.280914,317.072858 C245.121914,314.756858 246.202914,312.523858 247.261914,310.294858 C248.087914,308.557858 248.996914,306.855858 249.955914,305.188858 C251.141914,303.129858 250.836914,301.115858 249.232914,299.663858 C246.486914,297.179858 245.778914,293.963858 245.187914,290.595858 C244.651914,287.545858 244.025914,284.509858 243.419914,281.368858 C242.709914,281.411858 242.258914,281.367858 241.847914,281.475858 C229.167914,284.795858 216.307914,286.284858 203.190914,285.551858 C200.935914,285.425858 198.636914,285.922858 196.369914,286.211858 C186.035914,287.529858 175.902914,286.193858 165.834914,283.949858 C165.030914,283.769858 164.228914,283.365858 163.434914,283.387858 C160.104914,283.479858 157.632914,281.765858 155.515914,279.549858 C151.846914,275.713858 147.958914,271.995858 144.882914,267.709858 C142.692914,264.658858 141.670914,260.764858 140.161914,257.232858 C139.803914,256.398858 139.583914,255.505858 139.221914,254.403858 C137.367914,255.610858 135.925914,254.611858 134.485914,253.670858 C132.720914,252.516858 131.005914,251.284858 129.209914,250.182858 C121.736914,245.598858 122.093914,237.197858 126.629914,232.841858 C127.585914,231.923858 127.841914,230.948858 127.514914,229.635858 C124.857914,218.964858 125.116914,207.981858 124.129914,197.130858 C124.023914,195.957858 124.115914,194.765858 124.115914,193.280858 C120.546914,192.545858 116.676914,192.311858 114.209914,188.931858 C111.912914,185.783858 110.610914,182.388858 111.102914,178.361858 C107.461914,177.301858 103.873914,176.248858 100.278914,175.215858 C98.8699138,174.810858 97.4559138,174.420858 96.0289138,174.081858 C94.6409138,173.752858 93.6969138,172.992858 93.4809138,171.549858 C93.1059138,169.043858 91.5049138,168.145858 89.1639138,167.782858 C84.0949138,166.997858 79.0509138,166.050858 74.0049138,165.123858 C71.7579138,164.709858 69.4929138,164.329858 67.6249138,162.794858 C66.6179138,161.966858 65.7139138,162.175858 64.7619138,163.162858 C57.6079138,170.568858 48.7649138,175.308858 39.3409138,179.112858 C37.9109138,179.689858 36.4799138,180.265858 35.3139138,180.736858" id="Fill-191" fill="#000000"></path>
            <path d="M139.566914,79.1738582 C140.551914,79.2698582 141.695914,77.9508582 141.882914,76.5378582 C142.016914,75.5248582 141.582914,74.9688582 140.581914,74.8738582 C139.355914,74.7568582 138.060914,75.6558582 137.892914,76.7118582 C137.725914,77.7718582 138.615914,79.0808582 139.566914,79.1738582 M150.808914,88.9988582 C150.303914,88.5298582 150.044914,88.1368582 149.681914,87.9828582 C148.656914,87.5428582 146.920914,88.2388582 146.377914,89.2798582 C145.766914,90.4508582 146.337914,91.4248582 147.116914,92.2108582 C147.390914,92.4878582 148.339914,92.6018582 148.501914,92.4028582 C149.332914,91.3728582 150.007914,90.2178582 150.808914,88.9988582 M98.8309138,35.2118582 C99.6689138,37.4248582 99.8479138,37.6508582 100.798914,37.7928582 C102.537914,38.0538582 104.983914,36.2438582 105.289914,34.4828582 C105.432914,33.6568582 105.214914,33.0268582 104.371914,32.7418582 C103.127914,32.3238582 101.910914,32.0008582 100.856914,33.2218582 C100.270914,33.9008582 99.5769138,34.4858582 98.8309138,35.2118582 M147.349914,76.2548582 C145.483914,76.3078582 144.274914,77.5778582 144.349914,79.4078582 C144.426914,81.2808582 145.760914,82.7678582 147.316914,82.7148582 C148.788914,82.6638582 150.401914,80.5298582 150.335914,78.7228582 C150.275914,77.1258582 149.159914,76.2028582 147.349914,76.2548582 M98.8739138,43.3858582 C98.8539138,41.3548582 97.3239138,40.1008582 94.9329138,40.1578582 C92.7459138,40.2098582 91.6909138,41.3358582 91.6519138,43.6608582 C91.6129138,45.9538582 93.1479138,47.9378582 95.0079138,47.9948582 C96.8969138,48.0548582 98.8949138,45.6718582 98.8739138,43.3858582 M127.903914,77.4388582 C123.534914,77.7828582 123.099914,79.5588582 124.562914,82.7798582 C124.751914,83.1948582 124.958914,83.6138582 125.229914,83.9758582 C126.694914,85.9208582 128.530914,85.8528582 129.866914,83.7798582 C130.309914,83.0908582 130.715914,82.3498582 130.976914,81.5758582 C131.806914,79.1148582 130.521914,77.4208582 127.903914,77.4388582 M124.021914,63.0518582 C126.244914,63.1138582 129.554914,60.0178582 129.734914,57.7078582 C129.838914,56.3648582 128.198914,54.4738582 126.902914,54.6338582 C124.629914,54.9128582 122.689914,55.9508582 121.460914,57.9198582 C120.172914,59.9798582 121.738914,62.9868582 124.021914,63.0518582 M115.375914,22.5318582 C114.217914,22.8368582 113.383914,22.9368582 112.658914,23.2708582 C110.920914,24.0718582 109.197914,24.9228582 107.534914,25.8688582 C105.828914,26.8398582 105.548914,27.5398582 106.015914,28.9178582 C106.551914,30.5018582 108.146914,31.7558582 109.588914,31.1388582 C112.154914,30.0398582 114.635914,28.6488582 116.927914,27.0558582 C117.697914,26.5218582 118.303914,24.8318582 118.025914,23.9858582 C117.780914,23.2428582 116.195914,22.9418582 115.375914,22.5318582 M138.638914,81.3608582 C136.309914,81.3328582 134.675914,82.3688582 133.612914,84.4528582 C132.512914,86.6098582 133.113914,88.5328582 134.302914,90.3578582 C135.354914,91.9718582 136.940914,92.2538582 138.538914,91.1118582 C140.649914,89.6038582 141.792914,87.4378582 142.064914,84.9048582 C142.310914,82.6348582 140.962914,81.3518582 138.638914,81.3608582 M97.4069525,56.3438582 C97.3999138,54.5028582 94.3599138,52.2948582 91.9359138,52.3708582 C89.7639138,52.4388582 87.9319138,54.8718582 87.9019138,57.7328582 C87.8729138,60.5518582 89.6089138,62.6218582 91.9649138,62.5768582 C94.6379138,62.5278582 97.4189138,59.3418582 97.4069525,56.3438582 M135.590914,64.6818582 C130.387914,64.4608582 128.469914,67.1478582 130.238914,71.4338582 C130.378914,71.7708582 130.520914,72.1108582 130.697914,72.4278582 C131.748914,74.3088582 133.200914,74.9668582 135.286914,74.4488582 C138.122914,73.7468582 139.761914,71.7118582 140.801914,69.1688582 C141.652914,67.0918582 140.836914,65.6108582 138.605914,65.0648582 C137.462914,64.7838582 136.254914,64.7598582 135.590914,64.6818582 M116.710914,38.0508582 C113.113914,38.5748582 109.631914,38.8748582 106.266914,39.6658582 C104.777914,40.0158582 103.443914,41.2628582 102.195914,42.2928582 C101.620914,42.7678582 101.168914,43.6728582 101.091914,44.4278582 C100.654914,48.7298582 101.668914,52.5918582 104.915914,55.6648582 C107.336914,57.9558582 110.127914,58.9448582 113.465914,58.2018582 C119.236914,56.9188582 123.385914,53.3298582 126.876914,48.8158582 C127.310914,48.2538582 127.550914,47.5178582 127.783914,46.8288582 C128.294914,45.3088582 128.057914,43.8608582 126.840914,42.7988582 C123.888914,40.2238582 120.531914,38.4608582 116.710914,38.0508582 M106.381914,61.3558582 C99.1009138,61.0318582 95.6289138,65.0368582 94.5309138,69.8778582 C93.7349138,73.3868582 95.0089138,76.8448582 97.3889138,79.5728582 C99.1199138,81.5578582 101.105914,83.4108582 103.265914,84.9058582 C107.100914,87.5618582 112.905914,88.3748582 116.879914,82.9278582 C118.403914,80.8398582 119.442914,78.2888582 120.226914,75.7998582 C121.313914,72.3498582 120.067914,69.3288582 117.569914,66.8028582 C114.203914,63.3988582 110.111914,61.6098582 106.381914,61.3558582 M198.878914,79.1378582 C197.210914,79.7678582 195.954914,80.2978582 194.662914,80.7198582 C189.440914,82.4228582 184.125914,83.8728582 178.997914,85.8208582 C169.029914,89.6098582 158.745914,92.2738582 148.444914,94.9048582 C143.390914,96.1958582 138.305914,97.3698582 132.640914,98.7398582 C132.358914,98.3408582 131.826914,97.7018582 131.419914,96.9908582 C129.258914,93.2248582 125.557914,90.9918582 122.537914,88.0898582 C121.530914,87.1218582 120.299914,86.1338582 118.225914,87.0328582 C119.364914,88.8578582 120.419914,90.5458582 121.618914,92.4658582 C120.696914,92.8248582 120.068914,93.2218582 119.401914,93.3038582 C115.769914,93.7508582 112.135914,94.2858582 108.486914,94.4658582 C105.645914,94.6058582 103.189914,93.1168582 100.837914,91.6818582 C99.1199138,90.6328582 97.4919138,89.4298582 95.8759138,88.2258582 C95.1489138,87.6838582 94.3949138,87.0708582 93.9149138,86.3228582 C89.4669138,79.4048582 85.7369138,72.1678582 84.8879138,63.8198582 C83.4259138,49.4348582 88.1389138,37.1548582 98.4799138,27.2968582 C110.324914,16.0058582 124.580914,9.12085817 140.708914,6.30885817 C151.163914,4.48485817 160.734914,7.03685817 169.453914,12.9098582 C176.480914,17.6428582 181.830914,24.0188582 186.690914,30.8578582 C191.049914,36.9918582 194.089914,43.7128582 195.738914,51.0478582 C196.117914,52.7348582 196.259914,54.4788582 196.457914,56.2028582 C197.040914,61.2988582 197.610914,66.3978582 198.158914,71.4978582 C198.421914,73.9448582 198.622914,76.3998582 198.878914,79.1378582" id="Fill-192" fill="#FFFFFF"></path>
            <path d="M202.729914,132.440858 C203.341914,134.006858 204.537914,134.680858 205.604914,135.529858 C208.178914,137.578858 210.702914,139.696858 213.174914,141.866858 C213.766914,142.384858 214.168914,143.177858 214.510914,143.912858 C216.215914,147.579858 217.523914,151.354858 218.290914,155.362858 C219.576914,162.077858 219.998914,169.032858 223.566914,175.106858 C222.146914,176.586858 221.001914,175.924858 220.202914,174.861858 C218.228914,172.236858 216.038914,169.679858 214.599914,166.766858 C211.640914,160.771858 209.092914,154.572858 206.429914,148.433858 C205.776914,146.924858 205.348914,145.319858 204.786914,143.769858 C204.556914,143.136858 204.243914,142.533858 203.967914,141.917858 C203.761914,141.948858 203.554914,141.980858 203.348914,142.011858 C203.407914,143.018858 203.324914,144.057858 203.548914,145.025858 C204.357914,148.505858 205.221914,151.975858 206.154914,155.425858 C207.183914,159.229858 208.306914,163.008858 209.397914,166.796858 C210.708914,171.347858 213.346914,175.019858 216.903914,178.080858 C219.500914,180.316858 222.481914,180.734858 225.668914,179.795858 C228.425914,178.985858 230.578914,176.017858 230.733914,172.794858 C229.761914,173.493858 228.921914,174.098858 228.081914,174.704858 C230.819914,170.065858 232.705914,165.443858 228.200914,160.630858 C234.721914,160.319858 237.761914,165.214858 236.219914,170.901858 C234.625914,176.779858 231.056914,181.144858 225.096914,183.263858 C222.881914,184.051858 220.659914,184.371858 218.344914,183.993858 C206.167914,182.004858 198.189914,175.010858 193.990914,163.529858 C192.326914,158.981858 191.778914,154.286858 192.164914,149.465858 C192.240914,148.507858 192.174914,147.540858 192.174914,146.194858 C191.254914,146.552858 190.648914,146.670858 190.183914,146.992858 C188.221914,148.347858 186.886914,150.243858 186.300914,152.509858 C185.041914,157.381858 183.678914,162.251858 182.853914,167.204858 C181.530914,175.153858 180.830914,183.225858 178.208914,190.899858 C174.535914,201.645858 168.171914,210.114858 157.583914,215.065858 C151.641914,217.842858 146.325914,216.461858 141.183914,213.271858 C138.962914,211.894858 137.751914,209.741858 137.774914,207.032858 C137.783914,205.915858 137.951914,204.862858 139.080914,204.186858 C139.464914,205.588858 139.699914,206.919858 140.189914,208.148858 C141.704914,211.944858 145.231914,213.012858 148.950914,211.360858 C161.750914,205.674858 167.054914,194.844858 169.194914,181.949858 C170.213914,175.811858 170.564914,169.565858 171.354914,163.386858 C171.771914,160.125858 172.406914,156.884858 173.083914,153.665858 C173.713914,150.664858 175.098914,147.978858 176.957914,145.534858 C177.470914,144.859858 177.877914,144.103858 178.508914,143.111858 C176.875914,142.787858 176.062914,143.504858 175.460914,144.174858 C173.328914,146.551858 171.049914,148.861858 169.306914,151.511858 C164.724914,158.480858 160.417914,165.630858 155.957914,172.680858 C151.986914,178.955858 146.782914,183.841858 139.826914,186.697858 C132.912914,189.535858 125.890914,189.439858 118.822914,187.398858 C117.322914,186.964858 116.161914,186.008858 115.441914,184.584858 C118.030914,184.865858 120.453914,185.278858 122.887914,185.361858 C128.206914,185.542858 132.687914,183.387858 136.671914,180.033858 C143.560914,174.233858 148.563914,167.175858 151.456914,158.577858 C152.913914,154.246858 154.747914,150.031858 156.609914,145.852858 C157.883914,142.991858 159.730914,140.467858 162.234914,138.480858 C162.666914,138.136858 162.905914,137.546858 163.330914,136.930858 C162.005914,136.344858 161.098914,136.876858 160.223914,137.237858 C154.813914,139.472858 149.983914,142.578858 146.125914,147.030858 C143.064914,150.563858 140.073914,154.160858 137.120914,157.784858 C134.746914,160.695858 131.886914,162.925858 128.382914,164.254858 C125.389914,165.389858 122.372914,166.479858 119.307914,167.399858 C117.999914,167.792858 116.508914,168.136858 114.744914,167.042858 C115.247914,166.763858 115.465914,166.612858 115.707914,166.514858 C125.929914,162.338858 132.534914,154.448858 137.718914,145.094858 C138.916914,142.931858 140.078914,140.744858 141.364914,138.633858 C143.348914,135.376858 146.059914,132.807858 149.153914,130.590858 C152.345914,128.303858 155.439914,125.878858 158.614914,123.565858 C160.752914,122.005858 162.848914,120.336858 165.159914,119.073858 C168.919914,117.017858 171.909914,111.244858 170.762914,106.595858 C170.609914,105.972858 170.469914,105.345858 170.328914,104.719858 C169.643914,101.698858 171.189914,99.2928582 174.306914,98.7888582 C175.456914,98.6018582 176.677914,98.7658582 177.855914,98.8798582 C179.162914,99.0078582 179.909914,99.7338582 180.343914,101.057858 C181.026914,103.138858 181.826914,105.208858 182.830914,107.151858 C185.056914,111.462858 188.239914,113.125858 193.030914,112.226858 C197.799914,111.332858 202.504914,110.086858 207.236914,108.987858 C208.125914,108.780858 209.005914,108.533858 210.135914,108.241858 C211.271914,109.579858 212.479914,110.928858 213.606914,112.341858 C217.205914,116.856858 220.874914,121.320858 224.310914,125.957858 C225.822914,127.997858 226.877914,130.383858 228.055914,132.656858 C228.454914,133.423858 228.591914,134.327858 228.859914,135.203858 C225.320914,135.756858 225.404914,135.710858 223.895914,133.020858 C221.475914,128.707858 219.124914,124.336858 216.387914,120.225858 C213.636914,116.093858 209.857914,113.047858 204.917914,111.749858 C203.243914,111.308858 201.565914,111.335858 199.380914,112.030858 C200.248914,112.607858 200.621914,113.050858 201.045914,113.107858 C206.070914,113.779858 209.329914,116.999858 211.729914,121.009858 C214.738914,126.036858 217.435914,131.258858 220.059914,136.501858 C222.304914,140.986858 225.443914,144.516858 229.723914,147.120858 C233.996914,149.719858 238.560914,150.567858 243.450914,149.715858 C248.204914,148.887858 252.699914,147.419858 256.445914,143.753858 C256.083914,147.236858 253.146914,151.319858 249.915914,153.036858 C246.236914,154.990858 242.155914,155.665858 238.175914,155.153858 C235.484914,154.807858 232.819914,153.304858 230.429914,151.847858 C228.435914,150.631858 226.854914,148.735858 225.098914,147.130858 C224.625914,146.698858 224.211914,146.201858 223.727914,145.783858 C219.639914,142.248858 215.594914,138.659858 211.418914,135.230858 C209.882914,133.968858 208.072914,133.016858 206.310914,132.063858 C205.228914,131.478858 204.036914,131.496858 202.729914,132.440858" id="Fill-193" fill="#FFFFFF"></path>
            <path d="M191.005914,217.339858 C194.725914,216.220858 205.025914,207.341858 206.697914,203.594858 C201.251914,208.100858 196.126914,212.337858 191.021914,216.597858 C190.900914,216.698858 191.005914,217.069858 191.005914,217.339858 M136.724914,224.119858 C134.334914,224.562858 134.233914,226.711858 132.658914,227.700858 C132.421914,227.150858 132.079914,226.648858 131.991914,226.105858 C131.378914,222.308858 130.628914,218.520858 130.281914,214.696858 C129.699914,208.299858 129.144914,201.912858 127.432914,195.690858 C127.266914,195.088858 127.257914,194.443858 127.160914,193.703858 C129.341914,193.455858 131.430914,193.301858 133.488914,192.967858 C139.938914,191.921858 145.348914,188.715858 150.228914,184.568858 C154.681914,180.780858 158.056914,176.123858 160.837914,170.992858 C162.933914,167.126858 165.204914,163.354858 167.407914,159.544858 C167.628914,159.162858 167.915914,158.818858 168.458914,158.566858 C167.632914,162.754858 166.835914,166.948858 165.972914,171.129858 C164.860914,176.512858 163.847914,181.922858 162.517914,187.251858 C160.683914,194.599858 156.517914,200.565858 150.867914,205.517858 C149.772914,206.477858 148.545914,207.320858 147.281914,208.048858 C145.817914,208.890858 144.021914,208.568858 142.993914,207.479858 C142.006914,206.434858 142.004914,205.279858 142.989914,203.575858 C143.943914,201.924858 143.087914,200.184858 141.163914,199.982858 C139.346914,199.793858 137.999914,200.669858 136.922914,202.057858 C134.244914,205.506858 134.674914,211.659858 138.210914,214.923858 C143.420914,219.732858 149.536914,221.631858 156.475914,219.220858 C162.211914,217.227858 167.151914,213.892858 171.110914,209.289858 C176.176914,203.400858 180.442914,197.042858 181.903914,189.179858 C183.090914,182.791858 184.309914,176.407858 185.648914,170.049858 C186.439914,166.290858 187.486914,162.585858 188.438914,158.861858 C188.491914,158.650858 188.715914,158.482858 189.090914,157.993858 C189.251914,158.897858 189.400914,159.485858 189.456914,160.082858 C189.963914,165.464858 191.550914,170.561858 194.281914,175.165858 C198.989914,183.105858 206.012914,187.801858 215.222914,189.172858 C218.826914,189.708858 222.341914,189.544858 225.864914,188.337858 C228.413914,191.542858 232.026914,191.201858 235.629914,191.292858 C235.898914,192.114858 236.139914,192.852858 236.396914,193.642858 C235.936914,193.936858 235.650914,194.152858 235.336914,194.317858 C230.799914,196.698858 226.129914,198.864858 221.761914,201.525858 C218.738914,203.364858 216.018914,205.760858 213.370914,208.138858 C210.672914,210.561858 208.826914,213.644858 207.729914,217.126858 C206.518914,220.970858 205.341914,224.824858 204.159914,228.640858 C201.205914,229.509858 198.332914,230.397858 195.430914,231.176858 C194.764914,231.356858 193.982914,231.256858 193.281914,231.128858 C190.940914,230.697858 188.608914,230.209858 186.276914,229.719858 C181.019914,228.612858 175.728914,228.633858 170.412914,229.184858 C169.492914,229.278858 168.550914,229.161858 167.618914,229.143858 C167.540914,228.909858 167.463914,228.677858 167.386914,228.443858 L189.827914,210.224858 C189.699914,210.040858 189.572914,209.857858 189.444914,209.674858 C188.650914,210.190858 187.826914,210.667858 187.065914,211.227858 C179.607914,216.708858 172.178914,222.229858 164.693914,227.669858 C163.229914,228.734858 161.585914,229.570858 159.968914,230.400858 C154.669914,233.114858 149.295914,235.687858 144.046914,238.494858 C140.663914,240.304858 137.413914,242.386858 135.228914,245.943858 C133.605914,244.946858 132.067914,244.132858 130.676914,243.116858 C128.873914,241.800858 128.501914,239.924858 129.696914,238.047858 C131.308914,235.516858 133.026914,233.049858 134.772914,230.607858 C136.105914,228.743858 136.337914,226.622858 136.724914,224.119858" id="Fill-194" fill="#FFFFFF"></path>
            <path d="M29.0159138,161.071858 C28.7159138,160.692858 28.4779138,160.212858 28.3289138,160.237858 C27.9539138,160.303858 27.4269138,160.530858 27.3229138,160.821858 C27.2299138,161.081858 27.6219138,161.514858 27.7999138,161.871858 C28.1479138,161.641858 28.4959138,161.413858 29.0159138,161.071858 M40.9769138,162.694858 C42.2769138,162.084858 43.0109138,161.359858 42.5139138,160.058858 C42.2369138,159.332858 40.8559138,159.079858 40.3869138,159.675858 C39.5629138,160.723858 39.9119138,161.689858 40.9769138,162.694858 M33.1059138,166.300858 C33.8429138,165.020858 34.5479138,164.322858 34.6019138,163.578858 C34.6769138,162.531858 33.6569138,162.422858 32.8209138,162.491858 C31.9679138,162.561858 31.4339138,163.102858 31.6939138,163.947858 C31.8979138,164.609858 32.4119138,165.175858 33.1059138,166.300858 M36.3629138,153.708858 C34.8719138,153.684858 33.4209138,154.996858 33.4639138,156.328858 C33.5099138,157.771858 34.3569138,158.760858 35.5139138,158.724858 C36.7289138,158.686858 38.4049138,156.940858 38.5009138,155.612858 C38.5789138,154.534858 37.6759138,153.729858 36.3629138,153.708858 M78.0229138,158.341858 C78.1099138,158.324858 78.2399138,158.339858 78.2779138,158.287858 C78.8449138,157.520858 79.7899138,156.781858 79.8689138,155.962858 C79.9949138,154.640858 78.7159138,153.942858 77.6179138,153.611858 C76.8679138,153.385858 75.9469138,153.701858 75.1089138,153.818858 C75.0009138,153.834858 74.9019138,154.103858 74.8479138,154.271858 C74.3749138,155.754858 76.4389138,158.392858 78.0229138,158.341858 M65.3629138,152.455858 C63.6769138,152.416858 62.5459138,153.148858 62.4949138,154.314858 C62.4259138,155.928858 63.4059138,157.037858 64.8959138,157.030891 C66.1789138,157.024858 68.0939138,155.289858 68.1129138,154.115858 C68.1279138,153.126858 67.0829138,152.496858 65.3629138,152.455858 M49.2579138,145.494858 C50.1089138,144.091858 51.5829138,142.903858 50.3099138,141.100858 C49.5349138,140.003858 47.9629138,139.757858 46.5939138,140.344858 C45.5419138,140.795858 45.0399138,141.501858 45.2899138,142.701858 C45.6869138,144.597858 46.5059138,145.245858 49.2579138,145.494858 M74.6279138,147.274858 C74.6619138,145.518858 73.5069138,144.513858 71.3889138,144.456858 C69.2599138,144.398858 68.0719138,145.246858 68.0929138,146.807858 C68.1209138,148.917858 70.0489138,151.562858 71.5289138,151.522858 C73.0839138,151.479858 74.5859138,149.421858 74.6279138,147.274858 M72.5689138,135.039858 C72.1699138,135.115858 71.4359138,135.182858 70.7499138,135.401858 C69.1989138,135.896858 68.0659138,137.064858 68.1759138,138.233858 C68.3049138,139.603858 68.6829138,141.004858 70.0529138,141.669858 C71.5359138,142.389858 72.6969138,141.467858 73.7039138,140.536858 C74.2869138,139.997858 74.7609138,139.282858 75.1149138,138.563858 C76.1999138,136.353858 75.3499138,135.047858 72.5689138,135.039858 M49.0859138,148.417858 C47.2349138,148.592858 45.9509138,148.636858 44.6949138,148.848858 C41.7249138,149.347858 40.8549138,151.658858 42.7579138,154.023858 C44.2649138,155.895858 46.2259138,156.493858 48.6239138,156.083858 C51.0519138,155.668858 52.5739138,154.270858 53.4469138,152.109858 C54.0979138,150.498858 53.4539138,149.164858 51.7589138,148.687858 C50.7309138,148.398858 49.6029138,148.462858 49.0859138,148.417858 M59.5419138,140.901858 C60.4519138,140.642858 60.7319138,140.465858 60.9709138,140.509858 C64.2119138,141.106858 65.9119138,139.272858 67.1159138,136.650858 C67.6099138,135.574858 68.0769138,134.485858 68.6539138,133.179858 C71.4119138,133.529858 74.2609138,133.643858 76.9609138,134.338858 C78.3189138,134.686858 79.4059138,136.091858 80.5599138,136.977858 C80.3389138,137.416858 80.2959138,137.661858 80.1869138,137.694858 C76.9889138,138.690858 75.5709138,140.614858 76.3019138,143.805858 C76.8459138,146.182858 77.6789138,148.612858 78.9399138,150.679858 C80.8019138,153.736858 83.6749138,155.481858 87.7769138,155.071858 C88.7629138,158.209858 89.7569138,161.374858 90.9029138,165.017858 C84.6529138,163.194858 78.9669138,161.249858 73.1419138,159.918858 C67.4339138,158.613858 61.6789138,156.950858 55.7099138,157.854858 C55.6439138,158.059858 55.5779138,158.264858 55.5119138,158.469858 C57.4199138,159.346858 59.3289138,160.224858 61.3099138,161.134858 C61.0009138,162.360858 59.9769138,162.711858 59.1599138,163.149858 C54.3129138,165.747858 49.4449138,168.301858 44.5609138,170.829858 C39.6019138,173.395858 34.6219138,175.924858 29.6379138,178.440858 C28.9989138,178.763858 28.2919138,179.022858 27.5879138,179.135858 C24.6049138,179.616858 21.6009138,179.981858 18.6219138,180.487858 C16.4579138,180.853858 14.2799138,181.233858 12.1839138,181.863858 C9.77891375,182.586858 9.32291375,183.371858 9.26991375,185.860858 C9.25191375,186.681858 9.25491375,187.516858 9.38191375,188.325858 C10.1479138,193.216858 11.0609138,198.068858 12.7869138,202.740858 C13.6129138,204.972858 14.2719138,207.268858 14.9529138,209.551858 C15.8609138,212.596858 18.0039138,213.915858 21.0409138,214.223858 C24.0829138,214.533858 26.4699138,213.564858 28.0369138,210.920858 C28.4359138,210.246858 28.6789138,209.360858 28.6589138,208.582858 C28.6119138,206.860858 27.3059138,206.071858 25.7059138,206.884858 C24.6969138,207.398858 24.1139138,206.984858 23.5629138,206.400858 C23.2369138,206.053858 22.8849138,205.243858 23.0519138,205.017858 C23.4369138,204.500858 24.1039138,203.945858 24.7049138,203.884858 C26.6559138,203.683858 28.5729138,203.933858 30.1089138,205.348858 C31.6249138,206.745858 32.2459138,208.327858 31.7619138,210.506858 C30.4189138,216.538858 23.9899138,219.410858 18.8929138,218.869858 C17.0829138,218.677858 15.2269138,218.318858 13.5569138,217.632858 C12.2779138,217.106858 10.9599138,216.155858 10.1759138,215.032858 C7.47491375,211.161858 5.49691375,206.912858 5.01991375,202.146858 C4.81091375,200.067858 4.71891375,197.916858 5.00991375,195.859858 C6.08591375,188.247858 8.48691375,181.045858 12.5979138,174.518858 C14.3399138,171.753858 16.4849138,169.239858 18.4599138,166.622858 C22.2709138,161.573858 26.0899138,156.529858 29.9119138,151.488858 C30.2969138,150.981858 30.7279138,150.508858 30.8989138,150.304858 C32.6599138,150.406858 34.2389138,150.863858 35.5709138,150.473858 C36.9759138,150.063858 38.3369138,149.029858 39.3739138,147.940858 C41.1699138,146.054858 40.9019138,145.036858 38.6619138,143.639858 C38.3569138,143.449858 38.0409138,143.277858 37.3949138,142.902858 C39.3649138,140.991858 41.2199138,139.192858 43.0879138,137.379858 C45.2599138,139.962858 46.5799138,140.050858 48.6629138,137.575858 C49.7619138,136.269858 50.4909138,134.644858 51.3389138,133.137858 C51.8059138,132.309858 51.7619138,132.284858 53.3289138,132.341858 C52.9529138,133.207858 52.5329138,133.992858 52.2639138,134.825858 C51.4859138,137.246858 52.8149138,139.343858 55.3289138,139.778858 C56.0339138,139.900858 56.7279138,140.075858 57.4089138,140.221858 C57.3719138,140.536858 57.4079138,140.809858 57.3279138,140.848858 C55.0019138,141.990858 54.8349138,142.483858 55.4909138,144.814858 C56.2889138,147.654858 58.3589138,149.232858 60.8449138,150.337858 C61.4499138,150.604858 62.7309138,150.492858 63.0549138,150.065858 C65.5669138,146.757858 66.5999138,144.072858 62.0319138,141.941858 C61.3929138,141.642858 60.7309138,141.395858 59.5419138,140.901858" id="Fill-195" fill="#FFFFFF"></path>
            <path d="M254.842914,183.576858 C253.255914,183.702858 252.269914,183.585858 251.469914,183.918858 C250.996914,184.114858 250.530914,185.052858 250.586914,185.601858 C250.647914,186.195858 251.222914,187.013858 251.758914,187.197858 C252.223914,187.358858 253.116914,186.922858 253.510914,186.474858 C254.006914,185.911858 254.187914,185.069858 254.842914,183.576858 M260.355914,200.115858 C258.262914,200.097858 257.189914,200.857858 257.228914,202.332858 C257.275914,204.171858 258.745914,206.114858 260.149914,206.195858 C261.475914,206.271858 263.210914,203.924858 263.139914,202.151858 C263.091914,200.973858 261.937914,200.130858 260.355914,200.115858 M271.380914,194.502858 C270.367914,194.765858 268.913914,194.992858 267.583914,195.527858 C265.453914,196.383858 264.825914,197.953858 265.480914,200.187858 C266.349914,203.150858 268.150914,205.305858 270.949914,206.659858 C275.593914,208.903858 277.457914,208.183858 279.289914,203.359858 C280.986914,198.891858 279.023914,195.580858 274.269914,194.893858 C273.458914,194.776858 272.646914,194.673858 271.380914,194.502858 M251.043914,194.068858 C253.597914,198.494858 254.613914,199.056858 257.853914,198.132858 C260.838914,197.279858 261.920914,195.432858 261.670914,191.162858 C263.032914,191.162858 264.378914,191.151858 265.723914,191.166858 C266.543914,191.175858 267.319914,190.936858 267.270914,190.039858 C267.243914,189.550858 266.677914,188.783858 266.229914,188.678858 C264.730914,188.324858 263.170914,188.016858 261.640914,188.041858 C255.443914,188.139858 249.473914,189.558858 243.589914,191.401858 C242.892914,191.620858 242.189914,191.875858 241.471914,191.943858 C241.169914,191.972858 240.825914,191.560858 240.103914,191.090858 C246.303914,188.868858 250.100914,184.510858 253.201914,179.448858 C253.732914,178.583858 253.834914,177.455858 254.134914,176.448858 C253.946914,176.308858 253.758914,176.169858 253.571914,176.029858 C252.186914,177.085858 250.823914,178.170858 249.411914,179.187858 C247.992914,180.208858 246.384914,180.765858 244.446914,180.706858 C246.896914,178.457858 249.315914,176.173858 251.828914,173.999858 C252.178914,173.696858 252.997914,173.905858 253.598914,173.930858 C255.076914,173.993858 256.554914,174.086858 258.586914,174.196858 C258.666914,174.310858 259.117914,174.953858 259.597914,175.638858 C259.275914,175.913858 259.102914,176.181858 258.877914,176.234858 C256.908914,176.706858 255.890914,178.062858 255.773914,179.952858 C255.636914,182.166858 256.391914,184.134858 258.299914,185.444858 C259.427914,186.219858 261.164914,185.625858 262.338914,184.112858 C262.888914,183.404858 263.319914,182.605858 263.931914,181.647858 C266.190914,183.704858 268.321914,185.645858 269.981914,187.156858 C270.801914,189.013858 271.155914,190.577858 272.059914,191.697858 C273.764914,193.808858 274.605914,193.766858 277.148914,191.998858 C279.116914,194.169858 281.114914,196.371858 282.900914,198.340858 C282.284914,200.121858 281.666914,201.458858 281.374914,202.863858 C280.926914,205.022858 281.801914,206.773858 283.852914,207.727858 C284.988914,208.257858 284.760914,208.872858 284.430914,209.824858 C281.878914,208.204858 279.569914,209.017858 277.638914,210.768858 C275.212914,212.969858 276.999914,215.318858 277.988914,217.756858 C276.593914,218.146858 275.336914,218.499858 273.903914,218.901858 C273.501914,217.965858 273.132914,217.149858 272.800914,216.319858 C271.590914,213.299858 269.577914,211.092858 266.607914,209.644858 C263.060914,207.917858 259.339914,207.221858 255.443914,207.102858 C248.888914,206.902858 242.706914,208.383858 236.801914,211.134858 C231.656914,213.530858 228.163914,217.455858 225.969914,222.675858 C225.205914,224.489858 223.859914,226.052858 223.016914,227.842858 C220.047914,234.141858 217.143914,240.473858 214.291914,246.827858 C212.265914,251.340858 210.385914,255.918858 208.398914,260.448858 C206.716914,264.281858 204.436914,267.692858 201.001914,270.192858 C198.012914,272.368858 194.716914,273.549858 190.947914,273.028858 C189.858914,272.878858 188.754914,272.832858 187.666914,272.670858 C184.285914,272.168858 181.273914,268.941858 180.986914,265.555858 C180.812914,263.503858 182.227914,261.180858 184.236914,260.219858 C185.661914,259.536858 188.121914,260.261858 189.379914,261.906858 C189.857914,262.531858 189.983914,263.426858 190.460914,264.712858 C188.639914,264.435858 187.427914,264.251858 185.994914,264.033858 C185.957914,265.544858 186.937914,266.148858 187.954914,266.679858 C191.357914,268.452858 195.218914,267.863858 198.083914,265.083858 C200.152914,263.076858 201.575914,260.658858 202.658914,257.972858 C205.438914,251.082858 206.503914,243.869858 207.141914,236.529858 C207.725914,229.809858 209.766914,223.415858 212.294914,217.211858 C213.995914,213.036858 217.719914,210.563858 221.242914,208.125858 C227.830914,203.564858 235.050914,200.167858 242.523914,197.305858 C245.329914,196.230858 248.141914,195.170858 251.043914,194.068858" id="Fill-196" fill="#FFFFFF"></path>
            <path d="M113.170914,145.449858 C108.524914,140.597858 102.087914,138.553858 96.4069138,134.659858 C97.2249138,134.222858 97.7109138,133.868858 98.2549138,133.688858 C103.553914,131.938858 108.989914,131.325858 114.530914,131.994858 C117.737914,132.381858 120.895914,132.597858 123.986914,131.391858 C124.322914,131.261858 124.702914,131.170858 125.059914,131.179858 C130.931914,131.335858 136.488914,129.774858 142.029914,128.112858 C142.468914,127.981858 142.917914,127.879858 143.367914,127.802858 C143.528914,127.774858 143.709914,127.861858 144.332914,127.989858 C139.125914,132.916858 136.345914,139.182858 133.153914,145.377858 C126.207914,143.779858 119.415914,142.402858 113.142914,138.470858 C114.407914,141.113858 116.225914,142.757858 121.109914,145.091858 C124.113914,146.525858 127.330914,147.514858 130.801914,148.837858 C124.022914,156.720858 117.383914,164.530858 105.899914,165.388858 C105.954914,167.421858 107.122914,168.584858 108.553914,169.400858 C111.715914,171.205858 115.101914,172.441858 118.792914,171.536858 C126.762914,169.582858 134.107914,166.446858 139.361914,159.741858 C141.281914,157.292858 143.197914,154.831858 144.953914,152.265858 C147.407914,148.682858 150.153914,145.401858 153.659914,142.803858 C154.100914,142.476858 154.547914,142.156858 155.013914,141.869858 C155.143914,141.789858 155.353914,141.840858 155.801914,141.814858 C155.431914,142.437858 155.165914,142.958858 154.833914,143.430858 C152.021914,147.433858 149.855914,151.780858 148.180914,156.355858 C145.392914,163.971858 140.540914,170.070858 134.546914,175.369858 C133.931914,175.913858 133.424914,176.329858 132.397914,176.131858 C124.046914,174.519858 115.664914,173.076858 107.316914,171.454858 C103.825914,170.775858 100.395914,169.785858 96.7389138,168.888858 C97.5509138,166.124858 96.5679138,163.845858 95.8249138,161.514858 C94.5719138,157.589858 93.3939138,153.639858 92.1309138,149.718858 C90.4979138,144.641858 88.6989138,139.641858 85.0079138,135.597858 C84.7869138,135.354858 84.6529138,135.032858 84.2799138,134.419858 C87.2189138,134.208858 89.8019138,134.645858 92.3819138,135.000858 C92.6849138,135.042858 93.0539138,135.350858 93.2029138,135.635858 C94.6179138,138.325858 97.2289138,139.577858 99.6749138,140.985858 C103.833914,143.379858 108.441914,144.511858 113.170914,145.449858" id="Fill-197" fill="#FFFFFF"></path>
            <path d="M286.047914,387.760258 C283.840914,386.693258 281.326914,387.111258 279.595914,388.833258 C281.832914,390.564258 284.655914,390.094258 286.047914,387.760258 M280.241914,333.564858 C282.820914,348.755858 285.407914,363.987858 288.016914,379.349258 C285.015914,379.806258 281.774914,379.307258 278.818914,381.498258 C283.277914,384.556258 288.083914,383.073258 293.068914,383.182258 C291.732914,386.054258 291.353914,388.838258 291.853914,391.675258 C292.473914,395.195258 293.142914,398.707258 293.875914,402.204258 C294.420914,404.805258 295.112914,407.374258 295.713914,409.963258 C295.871914,410.644258 295.939914,411.345258 296.136914,412.596258 C294.761914,412.024258 293.646914,411.815258 292.861914,411.191258 C288.998914,408.123258 284.447914,405.866258 281.389914,401.858258 C279.396914,399.245258 277.482914,396.542258 275.837914,393.703258 C274.308914,391.063258 273.987914,388.140258 274.018914,384.988258 C274.130914,373.312858 273.284914,361.712858 269.422914,350.545858 C269.276914,350.121858 269.068914,349.711858 268.836914,349.327858 C268.764914,349.208858 268.515914,349.196858 268.184914,349.076858 C266.854914,349.942858 267.076914,351.346858 267.090914,352.686858 C267.104914,353.953858 267.093914,355.223858 267.093914,356.511858 C263.832914,356.049858 263.082914,355.212858 263.300914,352.333858 C263.630914,347.956858 263.986914,343.582858 264.340914,339.101858 C269.509914,337.301858 274.823914,335.450858 280.241914,333.564858" id="Fill-198" fill="#FFFFFF"></path>
            <path d="M309.076914,362.926858 C308.743914,362.857858 308.410914,362.786858 308.077914,362.717858 C307.447914,364.655858 307.399914,366.693858 307.724914,368.806858 C308.175914,366.846858 308.626914,364.886858 309.076914,362.926858 M312.457914,365.069858 C310.387914,366.032858 309.185914,369.628858 309.899914,372.349858 C311.187914,370.030858 312.007914,367.727858 312.457914,365.069858 M337.597914,377.700258 C335.477914,377.364258 334.007914,378.107258 332.627914,378.963258 C332.317914,379.156258 332.087914,380.035258 332.267914,380.339258 C332.527914,380.791258 333.367914,381.398258 333.647914,381.266258 C335.157914,380.563258 336.857914,379.971258 337.597914,377.700258 M365.397914,391.919258 C363.897914,393.727258 362.427914,394.818258 360.177914,394.855258 C357.707914,394.894258 355.237914,395.222258 352.787914,395.538258 C348.737914,396.060258 344.737914,395.595258 340.737914,395.110258 C338.957914,394.894258 337.527914,394.083258 336.217914,392.766258 C332.997914,389.523258 329.587914,386.461258 326.277914,383.300258 C322.567914,379.754258 317.827914,377.864258 313.467914,375.359858 C312.947914,375.056858 312.137914,375.246858 311.077914,375.186858 C311.397914,376.576858 311.637914,377.581258 311.977914,379.087258 C309.250914,377.918258 306.811914,376.973858 304.483914,375.808858 C303.867914,375.499858 303.412914,374.566858 303.189914,373.826858 C301.630914,368.657858 300.142914,363.467858 298.661914,358.275858 C298.521914,357.785858 298.579914,357.239858 298.537914,356.604858 C299.031914,356.552858 299.393914,356.435858 299.724914,356.492858 C303.418914,357.139858 306.559914,355.768858 309.551914,353.840858 C311.377914,352.664858 313.197914,351.472858 314.957914,350.324858 C315.287914,350.620858 315.477914,350.714858 315.537914,350.863858 C318.327914,357.698858 324.007914,362.011858 329.317914,366.648858 C330.467914,367.655858 331.617914,368.670858 333.177914,370.052858 C331.227914,370.680858 329.797914,371.132858 328.367914,371.603858 C326.337914,372.275858 325.657914,372.929858 325.867914,373.993858 C326.077914,375.005858 326.837914,375.103858 329.187914,374.531858 C331.677914,373.928858 334.167914,373.275858 336.687914,372.836858 C338.857914,372.458858 339.167914,372.693858 340.007914,374.690858 C340.497914,375.849858 341.177914,376.449858 342.427914,376.988858 C344.317914,377.807258 345.977914,379.214258 347.617914,380.527258 C352.787914,384.667258 358.167914,388.454258 364.277914,391.112258 C364.597914,391.253258 364.857914,391.529258 365.397914,391.919258" id="Fill-199" fill="#FFFFFF"></path>
            <path d="M163.258914,94.8658582 C164.052914,96.8078582 165.042914,98.5118582 165.435914,100.343858 C166.199914,103.916858 166.619914,107.562858 167.203914,111.176858 C167.457914,112.748858 166.778914,113.860858 165.502914,114.630858 C164.486914,115.243858 163.434914,115.827858 162.336914,116.272858 C152.631914,120.214858 142.608914,123.161858 132.414914,125.501858 C130.049914,126.043858 127.526914,125.942858 125.071914,126.031858 C123.700914,126.081858 122.636914,125.333858 121.802914,124.272858 C119.159914,120.911858 117.182914,117.246858 116.385914,112.983858 C116.087914,111.388858 116.491914,110.317858 117.966914,109.630858 C120.123914,108.623858 122.226914,107.485858 124.424914,106.582858 C135.467914,102.043858 146.812914,98.4358582 158.444914,95.7408582 C159.863914,95.4118582 161.315914,95.2158582 163.258914,94.8658582" id="Fill-200" fill="#FFFFFF"></path>
            <path d="M225.635914,77.6418582 C226.251914,78.8068582 226.989914,79.7158582 227.228914,80.7418582 C228.162914,84.7428582 229.034914,88.7628582 229.739914,92.8098582 C230.125914,95.0358582 229.069914,96.7178582 226.973914,97.6678582 C225.889914,98.1608582 224.833914,98.7338582 223.711914,99.1148582 C214.075914,102.380858 204.366914,105.401858 194.410914,107.562858 C193.783914,107.698858 193.160914,107.858858 192.528914,107.960858 C189.198914,108.503858 187.419914,107.715858 186.202914,104.625858 C184.762914,100.969858 183.518914,97.2238582 182.405914,93.4538582 C181.564914,90.6058582 181.619914,90.3718582 184.171914,89.0778582 C188.324914,86.9678582 192.499914,84.7918582 196.880914,83.2598582 C204.056914,80.7508582 211.483914,79.0728582 219.051914,78.1568582 C221.217914,77.8938582 223.406914,77.8108582 225.635914,77.6418582" id="Fill-201" fill="#FFFFFF"></path>
            <path d="M17.6379138,192.329858 C18.5769138,192.286858 19.5609138,190.889858 19.4649138,189.688858 C19.3829138,188.644858 18.8079138,188.034858 17.7489138,187.987858 C16.6149138,187.936858 15.5349138,188.895858 15.5449138,189.890858 C15.5569138,191.075858 16.6699138,192.374858 17.6379138,192.329858 M25.9339138,209.422858 C23.8649138,211.270858 21.5269138,211.433858 19.7909138,209.814858 C19.3869138,209.437858 19.1809138,208.717858 19.1159138,208.129858 C18.4699138,202.332858 16.8989138,196.824858 14.3019138,191.588858 C13.5529138,190.076858 13.1549138,188.389858 12.4609138,186.395858 C19.5189138,185.633858 26.1159138,184.920858 32.8649138,184.191858 C33.1339138,185.058858 33.4179138,185.820858 33.6069138,186.605858 C35.6519138,195.155858 37.7179138,203.700858 39.6949138,212.266858 C40.2899138,214.850858 40.7149138,217.483858 41.0509138,220.115858 C41.3089138,222.142858 41.0649138,222.396858 39.2029138,222.767858 C34.9819138,223.607858 30.7619138,224.460858 26.5209138,225.189858 C23.7629138,225.664858 22.9389138,225.113858 22.2689138,222.674858 C22.8969138,222.387858 23.5299138,222.039858 24.2009138,221.800858 C29.3329138,219.976858 32.1529138,216.070858 33.6129138,211.088858 C34.9709138,206.450858 32.5189138,202.594858 27.7719138,201.705858 C26.6209138,201.489858 25.3949138,201.520858 24.2199138,201.625858 C22.3459138,201.792858 20.7059138,203.285858 20.5399138,204.789858 C20.3629138,206.400858 21.7469138,208.456858 23.4889138,209.011858 C24.2409138,209.250858 25.0579138,209.281858 25.9339138,209.422858" id="Fill-202" fill="#FFFFFF"></path>
            <path d="M249.898914,157.814858 C250.872914,160.661858 251.867914,163.572858 252.884914,166.548858 C248.019914,172.209858 242.135914,176.547858 235.888914,181.065858 C236.205914,180.210858 236.342914,179.553858 236.667914,179.006858 C239.523914,174.182858 239.351914,169.058858 238.179914,163.849858 C237.634914,161.424858 235.816914,159.975858 233.827914,158.794858 C231.449914,157.384858 228.778914,157.232858 226.115914,157.550858 C224.246914,157.774858 223.992914,158.182858 223.279914,160.985858 C221.982914,156.378858 220.822914,152.260858 219.662914,148.142858 C219.765914,148.028858 219.869914,147.913858 219.973914,147.797858 C220.773914,148.437858 221.675914,148.984858 222.358914,149.730858 C225.905914,153.611858 230.309914,156.186858 235.169914,157.938858 C236.919914,158.569858 238.933914,158.715858 240.815914,158.664858 C243.720914,158.583858 246.616914,158.141858 249.898914,157.814858" id="Fill-203" fill="#FFFFFF"></path>
            <path d="M168.354914,98.3448582 C167.580914,97.1928582 167.060914,96.4538582 166.579914,95.6918582 C166.292914,95.2388582 166.067914,94.7458582 165.660914,93.9828582 C169.900914,92.7218582 173.949914,91.5188582 178.295914,90.2268582 C178.487914,91.9208582 178.637914,93.2468582 178.817914,94.8328582 C174.833914,94.5158582 171.056914,94.4058582 168.354914,98.3448582" id="Fill-204" fill="#FFFFFF"></path>
            <path d="M229.283914,186.737858 C230.814914,185.521858 232.274914,184.360858 233.344914,183.510858 C236.793914,184.258858 239.836914,184.917858 242.796914,185.558858 C239.909914,188.198858 233.089914,188.909858 229.283914,186.737858" id="Fill-205" fill="#FFFFFF"></path>
            <path d="M240.927914,145.547858 C236.324914,145.275858 232.724914,143.264858 229.411914,140.279858 C233.183914,139.364858 238.540914,141.810858 240.927914,145.547858" id="Fill-206" fill="#FFFFFF"></path>
            <path d="M226.667914,171.300858 C224.945914,168.783858 224.431914,165.929858 223.879914,163.076858 C226.017914,162.646858 226.926914,162.976858 227.831914,164.467858 C229.050914,166.475858 228.660914,168.917858 226.667914,171.300858" id="Fill-207" fill="#FFFFFF"></path>
            <path d="M123.187914,180.901858 C118.698914,182.291858 115.802914,181.871858 113.935914,178.523858 C116.981914,178.998858 119.734914,179.410858 122.475914,179.887858 C122.702914,179.926858 122.851914,180.405858 123.187914,180.901858" id="Fill-208" fill="#FFFFFF"></path>
            <path d="M106.382914,61.3558582 C110.111914,61.6098582 114.203914,63.3988582 117.570914,66.8028582 C120.068914,69.3298582 121.314914,72.3498582 120.227914,75.7998582 C119.443914,78.2898582 118.403914,80.8398582 116.880914,82.9278582 C112.905914,88.3758582 107.101914,87.5618582 103.266914,84.9068582 C101.106914,83.4118582 99.1199138,81.5578582 97.3899138,79.5738582 C95.0099138,76.8448582 93.7359138,73.3868582 94.5309138,69.8778582 C95.6289138,65.0378582 99.1019138,61.0328582 106.382914,61.3558582" id="Fill-209" fill="#000000"></path>
            <path d="M116.710914,38.0508582 C120.531914,38.4608582 123.889914,40.2238582 126.841914,42.7988582 C128.058914,43.8608582 128.294914,45.3088582 127.783914,46.8288582 C127.551914,47.5178582 127.311914,48.2538582 126.876914,48.8158582 C123.386914,53.3298582 119.236914,56.9188582 113.466914,58.2018582 C110.127914,58.9458582 107.336914,57.9558582 104.915914,55.6648582 C101.668914,52.5918582 100.654914,48.7298582 101.092914,44.4278582 C101.168914,43.6728582 101.620914,42.7678582 102.195914,42.2928582 C103.443914,41.2628582 104.777914,40.0158582 106.267914,39.6658582 C109.632914,38.8748582 113.113914,38.5748582 116.710914,38.0508582" id="Fill-210" fill="#000000"></path>
            <path d="M135.591914,64.6818582 C136.255914,64.7598582 137.462914,64.7848582 138.606914,65.0648582 C140.836914,65.6108582 141.653914,67.0918582 140.802914,69.1688582 C139.762914,71.7118582 138.122914,73.7468582 135.286914,74.4498582 C133.200914,74.9668582 131.748914,74.3088582 130.697914,72.4278582 C130.521914,72.1108582 130.378914,71.7708582 130.238914,71.4338582 C128.470914,67.1478582 130.388914,64.4608582 135.591914,64.6818582" id="Fill-211" fill="#000000"></path>
            <path d="M97.4069525,56.3438582 C97.4189138,59.3418582 94.6379138,62.5278582 91.9659138,62.5768582 C89.6089138,62.6218582 87.8729138,60.5518582 87.9019138,57.7328582 C87.9319138,54.8718582 89.7639138,52.4388582 91.9359138,52.3708582 C94.3599138,52.2948582 97.3999138,54.5028582 97.4069525,56.3438582" id="Fill-212" fill="#000000"></path>
            <path d="M138.638914,81.3608582 C140.962914,81.3518582 142.310914,82.6348582 142.064914,84.9058582 C141.791914,87.4378582 140.649914,89.6038582 138.537914,91.1128582 C136.940914,92.2548582 135.354914,91.9718582 134.302914,90.3578582 C133.113914,88.5338582 132.512914,86.6098582 133.612914,84.4538582 C134.675914,82.3698582 136.309914,81.3338582 138.638914,81.3608582" id="Fill-213" fill="#000000"></path>
            <path d="M115.375914,22.5328582 C116.195914,22.9418582 117.780914,23.2438582 118.025914,23.9868582 C118.304914,24.8328582 117.697914,26.5218582 116.928914,27.0558582 C114.636914,28.6488582 112.154914,30.0408582 109.589914,31.1388582 C108.146914,31.7568582 106.552914,30.5028582 106.016914,28.9188582 C105.549914,27.5408582 105.828914,26.8408582 107.534914,25.8698582 C109.197914,24.9238582 110.920914,24.0728582 112.658914,23.2708582 C113.384914,22.9368582 114.218914,22.8378582 115.375914,22.5328582" id="Fill-214" fill="#000000"></path>
            <path d="M124.021914,63.0518582 C121.738914,62.9878582 120.172914,59.9798582 121.459914,57.9198582 C122.689914,55.9508582 124.629914,54.9128582 126.902914,54.6338582 C128.198914,54.4738582 129.838914,56.3648582 129.734914,57.7078582 C129.554914,60.0178582 126.244914,63.1138582 124.021914,63.0518582" id="Fill-215" fill="#000000"></path>
            <path d="M127.903914,77.4388582 C130.521914,77.4208582 131.806914,79.1158582 130.976914,81.5768582 C130.716914,82.3498582 130.309914,83.0908582 129.866914,83.7808582 C128.530914,85.8528582 126.694914,85.9208582 125.229914,83.9758582 C124.958914,83.6148582 124.751914,83.1958582 124.562914,82.7808582 C123.099914,79.5588582 123.534914,77.7838582 127.903914,77.4388582" id="Fill-216" fill="#000000"></path>
            <path d="M98.8739138,43.3858582 C98.8949138,45.6718582 96.8969138,48.0548582 95.0089138,47.9948582 C93.1479138,47.9378582 91.6129138,45.9538582 91.6519138,43.6608582 C91.6909138,41.3358582 92.7459138,40.2098582 94.9339138,40.1578582 C97.3239138,40.1008582 98.8539138,41.3548582 98.8739138,43.3858582" id="Fill-217" fill="#000000"></path>
            <path d="M147.349914,76.2558582 C149.159914,76.2038582 150.275914,77.1268582 150.334914,78.7238582 C150.401914,80.5308582 148.787914,82.6648582 147.316914,82.7158582 C145.760914,82.7688582 144.426914,81.2818582 144.349914,79.4088582 C144.274914,77.5788582 145.483914,76.3088582 147.349914,76.2558582" id="Fill-218" fill="#000000"></path>
            <path d="M98.8309138,35.2128582 C99.5769138,34.4858582 100.270914,33.9008582 100.856914,33.2228582 C101.910914,32.0018582 103.127914,32.3238582 104.371914,32.7428582 C105.215914,33.0258582 105.433914,33.6578582 105.289914,34.4828582 C104.983914,36.2448582 102.537914,38.0548582 100.799914,37.7928582 C99.8489138,37.6508582 99.6689138,37.4248582 98.8309138,35.2128582" id="Fill-219" fill="#000000"></path>
            <path d="M150.808914,88.9998582 C150.007914,90.2188582 149.331914,91.3738582 148.500914,92.4028582 C148.339914,92.6028582 147.390914,92.4888582 147.116914,92.2118582 C146.337914,91.4258582 145.766914,90.4518582 146.376914,89.2808582 C146.920914,88.2398582 148.656914,87.5438582 149.681914,87.9828582 C150.043914,88.1378582 150.303914,88.5308582 150.808914,88.9998582" id="Fill-220" fill="#000000"></path>
            <path d="M139.566914,79.1738582 C138.615914,79.0808582 137.725914,77.7718582 137.892914,76.7118582 C138.060914,75.6558582 139.355914,74.7568582 140.581914,74.8738582 C141.582914,74.9688582 142.016914,75.5248582 141.882914,76.5378582 C141.695914,77.9508582 140.551914,79.2698582 139.566914,79.1738582" id="Fill-221" fill="#000000"></path>
            <path d="M191.005914,217.338858 C191.005914,217.069858 190.900914,216.697858 191.021914,216.597858 C196.126914,212.336858 201.251914,208.099858 206.697914,203.593858 C205.025914,207.340858 194.725914,216.219858 191.005914,217.338858" id="Fill-222" fill="#000000"></path>
            <path d="M49.0869138,148.417858 C49.6039138,148.462858 50.7319138,148.398858 51.7599138,148.688858 C53.4549138,149.164858 54.0989138,150.498858 53.4469138,152.109858 C52.5739138,154.271858 51.0529138,155.668858 48.6249138,156.083858 C46.2269138,156.493858 44.2659138,155.896858 42.7589138,154.023858 C40.8559138,151.658858 41.7259138,149.348858 44.6949138,148.849858 C45.9509138,148.637858 47.2349138,148.592858 49.0869138,148.417858" id="Fill-223" fill="#000000"></path>
            <path d="M72.5689138,135.039858 C75.3499138,135.047858 76.1999138,136.353858 75.1149138,138.563858 C74.7609138,139.282858 74.2879138,139.997858 73.7049138,140.536858 C72.6969138,141.468858 71.5359138,142.390858 70.0529138,141.669858 C68.6829138,141.004858 68.3049138,139.603858 68.1759138,138.233858 C68.0659138,137.064858 69.1989138,135.896858 70.7509138,135.401858 C71.4359138,135.183858 72.1709138,135.115858 72.5689138,135.039858" id="Fill-224" fill="#000000"></path>
            <path d="M74.6289138,147.274858 C74.5869138,149.420858 73.0849138,151.479858 71.5289138,151.522858 C70.0499138,151.562858 68.1219138,148.917858 68.0939138,146.807858 C68.0719138,145.246858 69.2609138,144.398858 71.3899138,144.456858 C73.5079138,144.513858 74.6629138,145.518858 74.6289138,147.274858" id="Fill-225" fill="#000000"></path>
            <path d="M49.2589138,145.494858 C46.5069138,145.245858 45.6879138,144.598858 45.2909138,142.701858 C45.0409138,141.501858 45.5429138,140.795858 46.5949138,140.345858 C47.9639138,139.757858 49.5349138,140.003858 50.3109138,141.100858 C51.5839138,142.903858 50.1099138,144.091858 49.2589138,145.494858" id="Fill-226" fill="#000000"></path>
            <path d="M65.3629138,152.455858 C67.0839138,152.496858 68.1289138,153.126858 68.1129138,154.115858 C68.0939138,155.289858 66.1789138,157.024858 64.8959138,157.030891 C63.4059138,157.037858 62.4259138,155.929858 62.4959138,154.314858 C62.5469138,153.148858 63.6769138,152.416858 65.3629138,152.455858" id="Fill-227" fill="#000000"></path>
            <path d="M78.0229138,158.340858 C76.4389138,158.392858 74.3759138,155.753858 74.8479138,154.271858 C74.9019138,154.103858 75.0019138,153.833858 75.1089138,153.818858 C75.9469138,153.700858 76.8679138,153.385858 77.6179138,153.611858 C78.7159138,153.942858 79.9959138,154.640858 79.8689138,155.961858 C79.7909138,156.780858 78.8449138,157.520858 78.2779138,158.286858 C78.2399138,158.338858 78.1099138,158.323858 78.0229138,158.340858" id="Fill-228" fill="#000000"></path>
            <path d="M36.3629138,153.708858 C37.6759138,153.729858 38.5799138,154.534858 38.5019138,155.612858 C38.4049138,156.940858 36.7289138,158.687858 35.5139138,158.725858 C34.3569138,158.761858 33.5099138,157.771858 33.4649138,156.328858 C33.4219138,154.996858 34.8729138,153.685858 36.3629138,153.708858" id="Fill-229" fill="#000000"></path>
            <path d="M33.1059138,166.300858 C32.4119138,165.175858 31.8979138,164.609858 31.6939138,163.946858 C31.4339138,163.102858 31.9679138,162.561858 32.8209138,162.490858 C33.6569138,162.421858 34.6769138,162.530858 34.6019138,163.577858 C34.5479138,164.321858 33.8429138,165.020858 33.1059138,166.300858" id="Fill-230" fill="#000000"></path>
            <path d="M40.9769138,162.694858 C39.9129138,161.689858 39.5629138,160.723858 40.3869138,159.674858 C40.8559138,159.079858 42.2369138,159.332858 42.5139138,160.058858 C43.0109138,161.359858 42.2769138,162.084858 40.9769138,162.694858" id="Fill-231" fill="#000000"></path>
            <path d="M29.0159138,161.071858 C28.4959138,161.413858 28.1479138,161.641858 27.7999138,161.871858 C27.6219138,161.514858 27.2299138,161.081858 27.3229138,160.821858 C27.4269138,160.530858 27.9539138,160.303858 28.3289138,160.237858 C28.4779138,160.212858 28.7159138,160.692858 29.0159138,161.071858" id="Fill-232" fill="#000000"></path>
            <path d="M271.380914,194.502858 C272.646914,194.673858 273.458914,194.776858 274.269914,194.894858 C279.023914,195.580858 280.985914,198.892858 279.289914,203.359858 C277.457914,208.184858 275.593914,208.903858 270.949914,206.659858 C268.150914,205.306858 266.349914,203.150858 265.480914,200.188858 C264.825914,197.953858 265.453914,196.383858 267.583914,195.527858 C268.913914,194.992858 270.367914,194.766858 271.380914,194.502858" id="Fill-233" fill="#000000"></path>
            <path d="M260.354914,200.115858 C261.936914,200.130858 263.090914,200.973858 263.138914,202.151858 C263.209914,203.924858 261.474914,206.271858 260.148914,206.195858 C258.745914,206.114858 257.274914,204.171858 257.227914,202.332858 C257.188914,200.857858 258.261914,200.096858 260.354914,200.115858" id="Fill-234" fill="#000000"></path>
            <path d="M254.842914,183.576858 C254.187914,185.069858 254.006914,185.911858 253.510914,186.474858 C253.116914,186.922858 252.223914,187.358858 251.758914,187.197858 C251.222914,187.013858 250.647914,186.195858 250.586914,185.601858 C250.530914,185.052858 250.996914,184.114858 251.469914,183.918858 C252.269914,183.585858 253.255914,183.702858 254.842914,183.576858" id="Fill-235" fill="#000000"></path>
            <path d="M286.047914,387.760258 C284.655914,390.094258 281.832914,390.564258 279.595914,388.833258 C281.326914,387.111258 283.840914,386.693258 286.047914,387.760258" id="Fill-236" fill="#000000"></path>
            <path d="M337.597914,377.700658 C336.857914,379.971658 335.157914,380.562658 333.647914,381.265658 C333.367914,381.397658 332.527914,380.791658 332.267914,380.339658 C332.087914,380.035658 332.317914,379.156658 332.627914,378.963658 C334.007914,378.106658 335.477914,377.363658 337.597914,377.700658" id="Fill-237" fill="#000000"></path>
            <path d="M312.457914,365.069858 C312.007914,367.727858 311.187914,370.031858 309.899914,372.349858 C309.186914,369.629858 310.387914,366.033858 312.457914,365.069858" id="Fill-238" fill="#000000"></path>
            <path d="M309.076914,362.926858 C308.626914,364.886858 308.175914,366.846858 307.724914,368.806858 C307.399914,366.693858 307.447914,364.655858 308.077914,362.717858 C308.410914,362.786858 308.743914,362.857858 309.076914,362.926858" id="Fill-239" fill="#000000"></path>
            <path d="M17.6379138,192.329858 C16.6699138,192.374858 15.5569138,191.075858 15.5449138,189.890858 C15.5349138,188.895858 16.6149138,187.936858 17.7489138,187.987858 C18.8079138,188.034858 19.3829138,188.644858 19.4649138,189.688858 C19.5609138,190.889858 18.5769138,192.286858 17.6379138,192.329858" id="Fill-240" fill="#000000"></path>
        </g>
    </g>
</svg>