<svg width="578" height="894" viewBox="0 0 578 894" xmlns="http://www.w3.org/2000/svg"><g fill="none" fill-rule="evenodd"><path d="M368.463 485.954v-17.765c5.518-1.104 10.8-.845 16.468-.2v17.965h-16.468zm-.139-24.228v-15.813c5.335-.849 10.614-.373 16.259-.278 1.328 5.307.657 10.378.469 15.696-5.683 1.068-11.087 1.945-16.728.395m.325-21.503h16.72v-16.589h-16.72zm16.933-34.738v12.298c-5.53 1.624-10.741.349-16.28-.097v-12.201h16.28zm-.402 86.52v10.207l-16.953 1.884v-11.218c5.306-1.798 8.832-1.99 16.953-.873m-16.864 24.65v-6.865c5.243-2.431 10.842-1.567 16.624-2.32v7.972l-16.624 1.213" fill="#FFF"/><path d="M459.44 758.49c-.872 6.53-.29 11.087 2.085 13.133l-2.085-13.132m-97.899-220.525c1.482-2.138 1.063-3.299-1.589-3.327-2.089-.021-4.187.454-6.272.773-.364.056-.678.434-1.161.764 3.089.613 5.913 1.172 9.022 1.79m16.163-73.004c2.178-.61 4.195-1.283 6.261-1.722 2.164-.459 4.366-.848 6.568-.977 2.017-.118 4.057.153 6.344.264-2.957-2.914-14.909-3.469-19.418-.563 0 .752-.011 1.489.007 2.224.004.174.102.346.238.774m32.159 106.299c-1.551-1.24-2.642-2.188-3.995-1.499-2.222 1.131-4.575 2.208-6.42 3.825-2.285 2.003-4.773 3.04-7.692 3.399-.635.078-1.233.465-2.362.914l5.242 1.941c.526-.457 1.036-.843 1.479-1.296 1.847-1.892 3.994-3.288 6.524-4.097 1.586-.507 3.178-1.009 4.72-1.63.779-.314 1.453-.89 2.504-1.557m49.399 184.238c.067.005.135.01.202.013-.32-3.205-.102-6.588-1.086-9.576-1.457-4.415-3.178-8.674-2.357-13.67l-4.351.336 7.592 22.897M191.356 540.04c.21-.143.63-.334.923-.645.697-.736 1.463-1.453 1.972-2.313 2.681-4.531 6.59-7.642 11.18-10.048.757-.397 1.46-1.157 1.846-1.922.326-.644.49-1.787.133-2.271-.683-.926-1.983-.785-2.734-.084-.973.909-1.753 2.082-2.41 3.256-.543.971-1.003 1.801-2.037 2.464-2.388 1.529-4.717 3.207-6.82 5.101-1.27 1.143-2.144 2.759-3.06 4.246-.59.957-.072 2.156 1.007 2.216m199.206-106.848c-6.769-.518-12.163 2.118-17.466 5.323l.645 2.75c3.01-1.246 5.746-2.65 8.646-3.504 2.893-.853 5.948-1.154 9.132-1.733l-.957-2.836m4.359 16.863c-6.913-1.631-12.954-.169-18.986 2.903a12466 12466 0 00.858 4.487c6.158-2.852 12.211-4.408 18.966-1.908l-.838-5.482m133.608 313.467c.119-.134.238-.267.356-.402-2.363-1.601-4.766-3.147-7.074-4.822-1.409-1.023-2.851-2.095-3.967-3.41-2.572-3.027-4.992-6.188-7.4-9.352-1.392-1.83-2.981-3.23-5.331-3.672-.669-.127-1.356-.594-1.858-1.085-3.377-3.302-6.695-6.663-10.06-9.976-.537-.53-.925-1.473-2.33-.948.243.732.343 1.566.764 2.178.78 1.136 1.663 2.23 2.656 3.183 2.139 2.048 4.369 4.003 6.572 5.982 1.323 1.188 2.48 2.457 2.259 4.282 3.785 1.633 13.22 9.207 15.449 12.326.323.452.547.989.925 1.38.558.579 1.135 1.25 1.843 1.552 2.365 1.008 4.793 1.868 7.196 2.784M384.02 420.02c-4.418 1.227-7.928 3.529-10.818 6.757-3.01 3.361-2.976 3.394-1.275 7.518.056.137.27.21.411.312 2.523-1.325 4.967-2.843 7.591-3.922 2.668-1.096 5.512-1.761 8.421-2.659l-4.33-8.006m-34.143 120.73c-3.138 4.832-4.24 10.134-4.773 15.6-.273 2.791.568 5.297 2.167 7.556.62.876 1.425 1.389 2.615 1.123 1.172-.262 1.269-1.075 1.413-2.051 1.066-7.221 3.481-13.959 7.366-20.158.182-.291.253-.654.405-1.062-2.917-1.944-5.937-1.926-9.193-1.008m44.774-46.579c-4.737-4.711-10.54-6.233-16.839-6.316l-3.773 11.848c5.198.286 9.259 2.825 12.763 6.52 3.515-3.687 6.098-7.574 7.849-12.052m-16.287-10.329c2.547 0 4.765-.163 6.948.045 2.186.209 4.426.541 6.478 1.279 1.975.71 3.738 2.01 5.682 3.099 2.616-6.495 1.22-12.646.196-18.81-6.072-2.228-11.96-1.752-17.812.165-1.792.588-1.948 1.037-1.854 2.867.15 2.95.252 5.902.357 8.855.032.897.005 1.796.005 2.5m-13.406 48.761a407.738 407.738 0 0018.521-22.967c-3.075-2.739-6.127-4.925-10.055-5.574-1.16-.191-2.113-.2-3.043.731-2.29 2.293-4.702 4.463-7.01 6.738-.491.483-.976 1.171-1.074 1.823-.798 5.308-3.17 10.04-5.286 14.869l-1.125 2.574c3.529-.603 6.705-1.237 9.072 1.806m-54.52-31.717c1.197 1.85 1.967 3.31 2.986 4.569 3.877 4.793 8.494 8.8 13.587 12.243 3.017 2.04 6.361 3.349 9.918 4.219 5.284 1.292 10.694.718 16.022 1.288.481.051 1.26-.147 1.466-.489 1.343-2.24 2.76-4.485 2.762-7.455-3.215 1.02-6.288 1.37-9.286.653-7.052-1.687-13.795-4.234-20.164-7.757-2.651-1.467-5.06-3.06-6.375-5.944-.333-.729-1.1-1.248-1.577-1.926-.617-.878-1.399-1.142-2.411-.917-2.066.458-4.134.905-6.928 1.516m70.268 20.464c14.075-1.177 27.459-4.492 40.956-9.416-2.223-1.874-4.153-3.567-6.155-5.171-3.377-2.706-7.341-3.859-11.589-4.128-1.571-.099-3.156.029-4.73-.039-1.56-.067-2.474.596-3.34 1.924-1.358 2.08-2.958 4.031-4.641 5.866-2.193 2.39-4.591 4.591-6.854 6.92-1.265 1.301-2.434 2.694-3.647 4.044m2.221 85.734c-.244 1.01-.277 1.962-.693 2.695-.912 1.607-1.038 3.283-1.119 5.075-.291 6.379-.733 12.751-1.114 19.127-.027.451-.206 1.019-.004 1.333.419.652.961 1.391 1.624 1.645.314.119 1.186-.703 1.514-1.269.457-.786.754-1.71.922-2.611.591-3.184 1.16-6.374 1.624-9.578.823-5.687 1.682-11.247 4.636-16.446 2.639-4.641 4.622-9.752 3.655-15.399-.124-.729-.231-1.462-.365-2.189-.238-1.286-.368-2.539 1.145-3.451-1.109-.716-1.918-1.337-2.811-1.795-1.567-.803-3.145-1.618-4.792-2.23-2.89-1.075-6.225.888-6.986 3.901-.909 3.595-1.834 7.189-2.906 10.736-.364 1.203-.939 2.838-1.876 3.26-1.574.711-2.11 1.966-2.809 3.195-2.538 4.462-4.296 9.248-5.641 14.184-.244.898-.175 1.879-.25 2.823 2.672-5.707 7.696-14.486 9.674-15.902-.215 1.291-.241 2.278-.551 3.165-1.097 3.153-2.144 6.337-3.5 9.38-.908 2.038-1.198 4.016-1.015 6.196.233 2.765.339 5.546.357 8.321.01 1.524-.273 3.051-.425 4.576 1.423-1.294 2.062-2.94 2.244-4.646.294-2.754.232-5.546.474-8.309.126-1.445.192-3.127.958-4.24 2.151-3.13 4.347-6.17 5.314-9.936.24-.933.805-1.94 2.716-1.611m-208.175-2.399c.248-.388.552-.744.724-1.155 1.008-2.414.752-4.887.398-7.394-.61-4.326-1.226-8.76.44-12.911 1.442-3.596 3.515-6.941 5.33-10.386.776-1.476 2.087-2.004 3.695-1.98.626.009 1.267-.009 1.88-.126 1.11-.214 1.95.145 2.771.892 2.848 2.591 4.222 5.636 4.011 9.617-.119 2.23.655 4.537 1.211 6.763.333 1.328 1.297 1.712 2.687.752-1.013-2.645-.106-5.211.532-7.802.045-.18.057-.367.106-.546.558-2.039.46-4.017-.424-5.968-2.044-4.513-3.222-9.261-3.747-14.181-.195-1.836-.064-3.861-.825-5.441-.832-1.726-.165-2.655.722-3.783.4-.507.794-1.021 1.237-1.486.857-.903.791-1.809.097-2.751-1.9-2.58-4.324-4.283-7.603-4.608-1.588-.157-2.732.232-3.764 1.652-3.49 4.799-7.263 9.394-10.71 14.223-2.143 3.002-3.929 6.264-5.785 9.46-.319.55-.493 1.768-.212 1.979 1.111.831.755 1.914.603 2.802-.92 5.36-.447 10.735-.259 16.1.051 1.472.192 3.071 1.438 4.644 0-1.588.207-2.834-.036-3.986-.934-4.415.58-8.568 1.226-12.808.18-1.175.603-2.341 1.094-3.431.51-1.129 1.07-2.32 2.87-2.946-.214 1.603-.277 2.87-.564 4.085-.744 3.145-1.524 6.285-2.42 9.39-.339 1.175-.626 2.246-.289 3.486 1.34 4.933 2.237 9.937 2.017 15.083-.05 1.207.29 2.171 1.55 2.761m278.575.57c0 .84-.056 1.308.008 1.757 1.82 12.55 3.678 25.094 5.469 37.648.706 4.945 1.054 9.95 1.937 14.861 2.261 12.583 3.769 25.26 5.168 37.958.882 8.002 1.93 15.987 2.967 23.97.317 2.444.844 4.86 1.307 7.47 6.539-1.396 12.901-2.392 19.454-3.867-.694-1.645-1.254-2.906-1.761-4.186-1.743-4.397-3.735-8.716-5.145-13.217-3.553-11.341-5.592-23.049-7.764-34.707-1.559-8.372-2.704-16.821-4.093-25.226-1.413-8.549-4.107-16.744-7.233-24.789-1.61-4.145-3.473-8.198-5.373-12.22-1.018-2.156-2.268-4.242-4.941-5.452m-22.837-51.237c-3.762 1.553-7.356 2.733-10.648 4.479-3.417 1.812-6.542 4.173-9.852 6.331 6.833 3.535 8.318 4.877 8.852 10.486.711-.045 1.434-.054 2.149-.141a59.25 59.25 0 0113.561-.09c2.135.233 3.824.97 5.324 2.579 1.489 1.598 3.322 2.873 4.855 4.165 2.827-1.165 5.364-2.071 7.774-3.238 2.827-1.369 4.802-3.445 4.663-6.909-.03-.728.151-1.467.264-2.198.541-3.512.207-6.807-2.071-9.749-1.528-1.975-2.83-4.126-4.358-6.102-5.838-7.551-12.099-14.785-17.149-22.926-.181-.292-.505-.494-.678-.659l-20.391 4.276c2.68 3.482 3.736 7.143 2.96 11.022-.612 3.054-1.844 5.987-2.822 8.967-.237.725-.563 1.42-.926 2.326 6.264-1.189 12.14-2.622 18.493-2.619m-210.198-19.676c5.484-3.369 10.53-6.464 15.571-9.562 1.397-.858 2.691-2.61 4.421-.477.08.099.357.034.542.051 4.053.369 8.101.848 12.162 1.086 5.917.347 11.845.493 17.765.787 2.03.101 4.072.265 6.072.609 6.941 1.193 13.815 2.675 20.499 4.954 1.889.643 3.837 1.117 5.672 1.644 1.297-2.08.003-3.482-.645-4.937-2.94-6.601-6.097-13.108-8.176-20.064-.895-2.996-1.942-5.946-2.982-9.103-4.817 0-9.531-.13-14.234.038-4.271.153-8.374 1.095-12.379 2.798-3.48 1.479-7.192 2.194-11.112 1.231-8.722-2.142-17.643-1.955-26.54-1.895-1.62.01-2.92.505-4.189 1.707-5.108 4.843-10.372 9.522-15.56 14.281-.648.594-1.192 1.3-1.918 2.102 7.531.588 14.845 6.801 15.031 14.75m71.104-87.97c.109 3.447.855 6.114 1.981 8.631 3.038 6.795 6.665 13.267 11.329 19.095 1.147 1.433 2.619 2.614 4 3.845.414.369 1.025.516 1.867.917-.19-2.241-.367-4.076-.495-5.915-.18-2.586-.352-5.174-.446-7.764-.012-.346.393-.922.709-1.007.327-.088.971.184 1.14.488.354.631.551 1.373.699 2.093 1.066 5.159 2.072 10.33 3.175 15.48.225 1.051.669 2.095 1.207 3.03 1.061 1.844 2.359 3.553 3.381 5.415 4.334 7.907 10.614 13.47 19.216 16.371 2.099.707 4.083 1.746 6.166 2.509 1.11.407 2.359.896 3.472.757 9.602-1.204 16.646-6.246 21.385-14.614.136-.241.309-.488.355-.751.579-3.363 1.432-6.713 1.625-10.1.216-3.773-.22-7.581-.287-11.375-.104-5.939-.029-11.883-.24-17.818-.132-3.688-.336-7.426-1.072-11.025-.998-4.881-2.51-9.66-3.868-14.462-.22-.781-.709-1.52-1.201-2.183-2.544-3.421-5.133-6.808-7.698-10.213-.804-1.065-1.585-2.148-2.51-3.405 3.091-.655 4.966.75 6.452 2.562 1.813 2.214 3.351 4.654 5.001 7.001.543.774 1.064 1.563 1.707 2.51 3.383-5.191 7.036-9.434 12.93-11.723-1.239-1.672-2.245-3.341-3.552-4.725-2.036-2.156-4.133-4.305-6.468-6.115-2.692-2.089-5.507-4.157-8.568-5.601-4.181-1.973-8.723-3.005-13.296-3.889-3.17-.613-6.255-.553-9.388-.127-7.688 1.046-14.624 4.088-21.058 8.266-4.492 2.918-8.33 6.623-10.461 11.637-1.335 3.138-2.351 6.458-3.107 9.787-1.394 6.134-.583 12.367-.352 18.563.076 2.034.532 4.098.291 6.085-.2 1.648-.147 2.879.873 4.296 1.029 1.43 1.728 3.179 1.666 5.134-2.664-.616-4.577-1.652-6.8-4.693-2.451-3.352-6.349-4.243-9.76-6.967M464.525 722.75c-.647-4.698-1.367-9.451-1.944-14.223-1-8.268-1.801-16.563-2.889-24.82-1.585-12.018-3.775-23.941-5.069-36.015-1.617-15.089-3.958-30.099-6.04-45.137-.316-2.283-.478-4.751-1.487-6.74a84.31 84.31 0 00-6.925-11.366c-2.3-3.172-5.873-4.705-9.671-5.47-3.769-.758-7.576-.526-11.327.154-5.556 1.005-10.734 2.801-14.763 7.114-3.388 3.627-6.681 7.184-6.569 12.644.032 1.539-.143 3.259-.813 4.601-1.524 3.052-3.429 5.911-5.147 8.868-.64 1.1-1.475 2.194-1.721 3.395-.67 3.253-1.218 6.547-1.543 9.851-.415 4.219-1.592 8.155-3.469 11.938-.866 1.745-2.322 2.371-4.028 2.469-1.784.104-3.045-1.01-3.593-2.581-.472-1.351-.744-2.871-.667-4.294.134-2.482.625-4.943.927-7.418.242-1.986.425-3.979.635-5.968-.717.551-1.063 1.198-1.141 1.876-.212 1.836-.279 3.687-.461 5.527-.406 4.119-1.555 8.006-3.899 11.456-1.08 1.589-2.174 1.668-3.766.667-1.497-.941-2.526-2.244-2.879-3.916-1.052-4.976-2.138-9.955-2.908-14.978-.543-3.544 1.14-6.691 2.615-9.802.396-.834.982-1.652 1.1-2.528.251-1.87.253-3.773.372-5.934-4.264.314-8.783.45-13.246 1.019-9.709 1.238-19.122 3.613-27.858 8.206-6.802 3.575-13.086 7.751-17.361 14.411-.972 1.513-1.628 2.83-.767 4.584 1.794 3.653 3.139 7.598 5.388 10.939 2.907 4.318 6.59 8.031 12.413 8.289.594.027 1.164.538 1.75.813.576.269 1.137.667 1.744.762 5.57.88 11.128 2.156 16.733 2.433 6.931.344 13.905-.148 20.86-.291 1.391-.029 2.791-.023 4.169-.185 7.535-.883 15.077-1.73 22.592-2.767 3.742-.517 7.432-1.414 11.328-2.175-2.713-6.887-4.276-13.754-3.681-20.895.577-6.914 1.291-13.84 3.701-20.426-.263 6.093-.847 12.124-.745 18.233.137 8.163 2.236 15.783 5.488 23.101 2.026 4.559 4.725 8.817 7.066 13.24 3.167 5.981 6.286 11.988 9.414 17.99 2.613 5.013 5.121 10.083 7.841 15.036 2.553 4.652 2.64 9.59 1.833 14.564-.515 3.176-1.656 6.254-2.518 9.375-.189.683-.388 1.364-.637 2.24 6.459 2.819 12.777 5.6 19.777 5.607 4.12.004 8.402-.225 11.786-3.473m-15.529-134.938l3.882 13.881c.754.2 1.645.42 2.527.674 3.18.915 5.682 2.736 7.231 5.691 6.761 12.895 11.968 26.303 13.99 40.848 2.551 18.35 5.206 36.689 9.474 54.742 1.61 6.81 4.097 13.316 7.967 19.176 1.52 2.303 3.505 4.313 5.382 6.36 5.456 5.952 10.979 11.84 16.447 17.78 3.023 3.285 6.193 6.344 9.966 8.827 4.881 3.212 9.567 6.722 14.288 10.172 1.311.958 3.172 1.992 2.589 3.877-.553 1.788-2.668 1.997-4.259 1.97-4.347-.07-8.719-.196-13.025-.741-4.585-.58-9.111-1.644-13.656-2.537-2.837-.557-5.091-2.043-6.983-4.251-3.257-3.802-6.532-7.6-9.998-11.208-2.58-2.687-5.669-4.792-9.121-6.28-.651-.281-1.377-.388-2.316-.643 0 1.8-.066 3.339.023 4.868.061 1.054.811 2.199-.765 2.809-1.65.64-3.668.24-4.425-1.156-1.19-2.2-2.469-4.408-3.235-6.766-1.28-3.94-2.521-7.942-2.137-12.315-1.631-.318-3.018-.276-4.149 1.054-2.416-1.108-2.384-3.56-3.198-5.734a9028.86 9028.86 0 01-3.462 2.192c.824 4.4 1.648 8.756 2.454 13.116 2.158 11.658 4.301 23.319 6.468 34.975.321 1.729.553 3.507 1.15 5.145.876 2.404.176 4.574-.631 6.729-.534 1.428-1.391 1.735-2.923 1.184-1.034-.371-2.067-.875-2.95-1.524-9.607-7.05-16.388-16.286-20.877-27.258-2.048-5.004-2.077-10.314-2.258-15.602-.098-2.871-.323-5.737-.518-8.604-.035-.514-.204-1.02-.445-2.163-1.808 4.776-2.626 9.209-4.503 13.3-2.454-.608-3.083-2.35-3.184-4.043-.179-3.042-.053-6.111.094-9.161.16-3.316.49-6.625.749-9.973-1.28-.883-2.536-1.662-3.691-2.568-2.238-1.757-2.624-3.348-1.843-6.073a631.373 631.373 0 003.667-13.401c.537-2.046.233-4.003-.829-5.891-4.596-8.165-9.212-16.32-13.684-24.554-3.718-6.847-7.246-13.797-10.91-20.802-.32-.018-.706-.144-1.023-.046-7.144 2.225-14.542 2.847-21.936 3.295-8.786.534-17.59.773-26.385 1.157-3.703.162-7.401.473-11.105.529-6.409.098-12.779-.389-19.054-1.798-.45-.101-.936-.36-1.347-.272-4.246.904-7.659-1.235-10.675-3.521-3.072-2.327-5.645-5.357-8.244-8.253-2.555-2.846-3.448-6.52-4.389-10.122-2.015-7.702-2.519-15.55-2.109-23.459.099-1.922.727-3.812 1.07-5.724.334-1.861 1.898-3.418 1.307-5.531-.082-.294.46-.757.703-1.147 2.167-3.488 4.123-7.017 4.183-11.323.028-2.011 1.159-2.682 3.315-2.297-.204-.405-.307-.761-.526-1.02-1.137-1.349-.729-2.595.274-3.744 1.089-1.249 2.253-2.432 3.804-4.091-.561-.342-1.165-.607-1.643-1.019-2.594-2.241-5.391-4.303-7.687-6.821-6.635-7.278-8.785-15.708-5.726-25.248.565-1.764 1.171-3.515 1.748-5.276.022-.068-.058-.169-.241-.652-3.07-.98-6.348-2.249-9.737-3.058a287.645 287.645 0 00-17.408-3.608c-2.625-.457-5.365-.233-8.048-.384-8.98-.504-17.904-1.491-26.676-3.538-1.417-.331-2.39-.142-3.495.828-6.034 5.299-12.892 9.367-19.879 13.266-6.565 3.664-13.004 7.553-19.494 11.352-.23.136-.407.367-.86.786 1.077 4.624 2.15 9.401 3.312 14.156 1.234 5.048 2.653 10.073 2.211 15.342-.176 2.11-.56 4.217-1.034 6.283-.459 2-1.803 3.186-3.918 3.348-1.654.128-3.064-.908-3.876-3.011-1.104-2.857-2.085-5.749-2.123-8.876-.03-2.393-1.25-4.242-2.973-5.768-1.363-1.207-3.084-1.026-3.986.571a98.784 98.784 0 00-4.155 8.176c-.47 1.051-.536 2.343-.55 3.527-.049 3.622.007 7.245.045 10.867.03 2.846-.459 5.553-2.125 7.929-1.439 2.053-2.216 2.068-4.41.73-.683-.417-1.229-1.138-1.697-1.817-3.975-5.766-6.653-11.975-6.536-19.152.024-1.53-.176-3.065-.273-4.597l-.722-.022v5.402c-1.007-10.865.541-20.987 7.946-29.681 3.412-4.007 6.175-8.596 8.993-13.072 4.077-6.472 9.03-12.244 13.96-18.038 2.643-3.108 5.411-6.12 8.242-9.06 1.731-1.798 3.498-3.684 5.584-4.997 4.908-3.088 9.202-6.884 13.365-10.845 1.516-1.443 3.21-2.188 5.187-2.225 8.991-.166 18.005-.441 26.82 1.831 3.23.833 6.407.704 9.624.174.445-.074.912-.206 1.298-.432 5.574-3.257 11.774-3.753 17.998-3.998 8.36-.329 16.668.375 24.939 1.591a6.884 6.884 0 001.944.027c2.467-.347 4.925-.754 7.755-1.195l-5.688-10.537c-4.662.291-7.505-2.58-9.773-5.651-2.681-3.631-4.944-7.643-6.888-11.728-2.668-5.605-5.05-11.376-6.137-17.554a25.788 25.788 0 01-.358-4.981c.054-2.575 1.39-3.838 3.991-4.057 1.797-.15 3.494.141 5.133.94 1.039.507 2.167.83 3.783 1.433-.278-2.394-.433-4.288-.726-6.16-1.054-6.723-.393-13.237 1.628-19.757 3.014-9.723 8.989-16.801 17.623-22.065 5.785-3.527 11.721-6.435 18.421-7.495 3.096-.49 6.258-.652 9.397-.757 8.093-.274 14.701 3.761 21.29 7.667 5.165 3.061 9.215 7.473 13.31 11.779 1.01 1.062 1.777 2.379 2.534 3.652 2.278 3.829 4.667 7.604 6.702 11.561 4.815 9.362 8.526 19.085 9.75 29.68.818 7.075 2.175 14.088 3.25 21.135 1.105 7.239.464 14.237-3.027 20.818-.435.818-.796 1.677-1.175 2.522-.073.162-.069.358-.132.719 2.197-.107 4.359-.21 6.52-.318 4.742-.237 8.95 1.112 12.671 4.092 4.068 3.257 7.88 6.653 10.702 11.189a619.947 619.947 0 0016.168 24.651c3.261 4.727 7.04 9.096 10.586 13.626.915 1.169 1.744 2.421 2.763 3.492 4.679 4.913 5.249 10.796 4.265 17.122-.486 3.119-.861 6.197-2.766 8.915-2.213 3.156-4.89 5.542-8.686 6.536-1.057.276-2.085.663-3.066.98" fill="#000"/><path d="M464.525 722.75c-3.384 3.249-7.666 3.479-11.786 3.475-7-.008-13.318-2.788-19.777-5.608.25-.876.448-1.556.637-2.24.862-3.121 2.003-6.198 2.518-9.375.807-4.973.721-9.912-1.833-14.563-2.72-4.954-5.228-10.024-7.841-15.037-3.128-6.002-6.247-12.008-9.414-17.99-2.341-4.423-5.04-8.681-7.066-13.24-3.252-7.317-5.351-14.938-5.488-23.101-.102-6.109.482-12.139.745-18.233-2.41 6.586-3.124 13.513-3.701 20.427-.595 7.14.968 14.007 3.681 20.894-3.896.761-7.586 1.658-11.328 2.175-7.515 1.037-15.057 1.884-22.592 2.768-1.378.162-2.778.155-4.169.184-6.955.143-13.929.635-20.86.291-5.605-.277-11.163-1.553-16.733-2.432-.607-.096-1.168-.494-1.744-.763-.586-.275-1.156-.786-1.75-.813-5.823-.257-9.506-3.97-12.413-8.289-2.249-3.341-3.594-7.286-5.388-10.939-.861-1.754-.205-3.07.767-4.584 4.275-6.659 10.559-10.836 17.361-14.411 8.737-4.593 18.149-6.968 27.858-8.205 4.463-.57 8.982-.705 13.246-1.02-.119 2.161-.121 4.065-.372 5.935-.118.876-.704 1.693-1.1 2.527-1.475 3.111-3.158 6.258-2.615 9.802.77 5.023 1.856 10.002 2.908 14.978.353 1.672 1.382 2.975 2.879 3.916 1.592 1.001 2.686.922 3.766-.667 2.344-3.45 3.493-7.337 3.899-11.456.182-1.84.249-3.691.461-5.527.078-.678.424-1.324 1.141-1.876-.21 1.989-.393 3.982-.635 5.968-.302 2.475-.793 4.936-.927 7.419-.077 1.423.195 2.942.667 4.294.548 1.57 1.809 2.684 3.593 2.581 1.706-.099 3.162-.725 4.028-2.47 1.877-3.783 3.054-7.719 3.469-11.938.325-3.304.873-6.598 1.543-9.851.246-1.2 1.081-2.295 1.721-3.395 1.718-2.957 3.623-5.816 5.147-8.868.67-1.342.845-3.061.813-4.6-.112-5.46 3.181-9.018 6.569-12.645 4.029-4.312 9.207-6.108 14.763-7.114 3.751-.68 7.558-.911 11.327-.153 3.798.764 7.371 2.297 9.671 5.469a84.31 84.31 0 016.925 11.366c1.009 1.99 1.171 4.457 1.487 6.741 2.082 15.037 4.423 30.048 6.04 45.136 1.294 12.075 3.484 23.997 5.069 36.015 1.088 8.257 1.889 16.552 2.889 24.82.577 4.771 1.298 9.525 1.944 14.222M307.386 470.923c1.893-2.56 1.946-2.774.225-4.884-.634-.776-.651-1.472-.316-2.292.395-.965.278-1.675-.635-2.395-2.092-1.653-4.094-3.421-6.09-5.19-.977-.865-1.899-1.781-3.51-2.718 1.56 4.014 3.765 6.81 6.334 9.186-.654 4.856.588 7.361 3.992 8.293m37.33 4.986l.013.713c1.256.171 2.521.531 3.767.475 3.838-.172 6.093-3.484 4.6-7.028-2.135-5.067-6.187-8.837-9.291-13.262-.199 2.052.719 3.604 1.715 5.176 1.684 2.657 3.322 5.349 4.848 8.099.93 1.676.75 2.423-.757 3.547-.947.706-2.089 1.157-3.168 1.672-.548.261-1.15.409-1.727.608m-10.013 9.04c.225.596.268 1.017.497 1.272 2.167 2.403 4.305 4.841 6.597 7.121.575.571 1.656.735 2.539.878 3.259.527 6.454-.239 9.65-.678 4.666-.64 4.709-.721 3.724-5.345-.386-1.807-.583-3.442.843-4.926.299-.312.221-.986.374-1.793-8.247.481-16.215 1.098-24.224 3.471m30.849-33.645c.037-2.907-.41-3.735-2.352-4.929a28.793 28.793 0 00-1.689-.969c-2.963-1.556-8.172-.749-10.185 1.907-.943 1.244-1.664 3.027-1.643 4.554a12.127 12.127 0 003.074 7.887c2.503 2.817 4.552 3.85 8.352.786 3.141-2.532 3.919-6.134 4.443-9.236m-18.227-13.261c.022-4.063-.949-5.613-3.745-7.085-2.393-1.26-4.778-.65-7.278-.361-4.299.499-7.197 5.311-5.289 9.962.662 1.612 1.427 3.267 2.514 4.604 2.948 3.625 6.745 4.163 10.024.942 2.531-2.488 3.452-5.58 3.774-8.062m-19.472 12.728c-.465 0-.931-.028-1.393.005-5.981.409-10.491 6.364-7.75 12.394.421.927.901 1.834 1.433 2.701 3.188 5.19 10.428 5.301 13.631.123 1.01-1.633 1.81-3.495 2.245-5.36.523-2.239.78-4.683-1.053-6.574-1.924-1.984-4.292-3.17-7.113-3.289m-36.456-4.399c3.411 2.725 7.309 3.615 9.76 6.967 2.224 3.041 4.136 4.077 6.8 4.693.062-1.955-.637-3.704-1.666-5.133-1.02-1.417-1.073-2.649-.873-4.296.241-1.988-.215-4.052-.291-6.085-.231-6.197-1.042-12.43.352-18.564.757-3.329 1.772-6.648 3.107-9.787 2.132-5.014 5.969-8.719 10.461-11.637 6.434-4.177 13.37-7.219 21.058-8.265 3.134-.427 6.218-.487 9.388.127 4.573.884 9.116 1.916 13.296 3.888 3.061 1.445 5.876 3.512 8.569 5.601 2.335 1.811 4.431 3.959 6.467 6.115 1.307 1.384 2.313 3.053 3.553 4.726-5.894 2.288-9.548 6.531-12.93 11.722-.644-.947-1.165-1.736-1.708-2.509-1.649-2.348-3.187-4.787-5.001-7.001-1.485-1.813-3.361-3.218-6.452-2.563.925 1.257 1.706 2.34 2.51 3.406 2.566 3.405 5.154 6.792 7.698 10.212.493.663.981 1.403 1.202 2.183 1.357 4.803 2.869 9.581 3.867 14.462.736 3.6.941 7.338 1.072 11.025.211 5.935.136 11.879.24 17.819.067 3.794.503 7.601.287 11.375-.193 3.386-1.046 6.736-1.625 10.099-.046.263-.218.51-.355.751-4.738 8.368-11.783 13.41-21.385 14.615-1.113.138-2.362-.351-3.472-.757-2.083-.764-4.067-1.803-6.166-2.51-8.602-2.9-14.881-8.464-19.216-16.37-1.021-1.862-2.32-3.571-3.381-5.415-.538-.936-.982-1.98-1.207-3.03-1.103-5.151-2.109-10.322-3.175-15.481-.148-.72-.345-1.462-.699-2.093-.169-.303-.812-.576-1.14-.488-.316.085-.721.661-.708 1.008.093 2.59.266 5.178.445 7.763.128 1.839.306 3.674.495 5.915-.841-.401-1.453-.547-1.867-.916-1.381-1.232-2.853-2.413-4-3.845-4.664-5.828-8.291-12.301-11.329-19.096-1.126-2.517-1.872-5.184-1.981-8.631m-71.104 87.97c-.186-7.948-7.5-14.161-15.03-14.75.725-.802 1.27-1.508 1.916-2.102 5.19-4.758 10.453-9.438 15.561-14.281 1.268-1.202 2.57-1.696 4.19-1.707 8.896-.059 17.817-.247 26.54 1.896 3.92.963 7.63.248 11.111-1.232 4.005-1.703 8.108-2.644 12.379-2.798 4.703-.168 9.417-.038 14.234-.038 1.04 3.158 2.087 6.108 2.982 9.104 2.079 6.956 5.236 13.463 8.176 20.063.648 1.455 1.942 2.858.645 4.938-1.835-.528-3.783-1.001-5.672-1.645-6.684-2.278-13.558-3.76-20.499-4.954-2-.344-4.042-.508-6.072-.608-5.92-.294-11.848-.441-17.765-.787-4.06-.239-8.109-.717-12.162-1.086-.185-.018-.462.048-.542-.051-1.73-2.134-3.024-.382-4.42.476-5.043 3.098-10.088 6.194-15.572 9.562m210.198 19.677c-6.353-.003-12.229 1.43-18.493 2.619.364-.906.689-1.601.927-2.326.978-2.981 2.209-5.913 2.821-8.968.776-3.879-.279-7.539-2.96-11.021l20.391-4.277c.173.165.497.368.678.66 5.05 8.141 11.311 15.375 17.149 22.925 1.528 1.977 2.83 4.127 4.359 6.103 2.277 2.941 2.611 6.237 2.07 9.749-.112.73-.294 1.47-.264 2.198.139 3.464-1.836 5.539-4.663 6.908-2.41 1.167-4.947 2.074-7.773 3.239-1.534-1.292-3.367-2.568-4.856-4.165-1.5-1.61-3.189-2.346-5.324-2.58a59.25 59.25 0 00-13.561.09c-.714.087-1.438.097-2.149.142-.534-5.609-2.019-6.951-8.852-10.486 3.311-2.159 6.436-4.519 9.852-6.331 3.293-1.747 6.886-2.926 10.648-4.479m22.837 51.236c2.672 1.21 3.922 3.296 4.941 5.452 1.9 4.023 3.763 8.075 5.373 12.22 3.125 8.046 5.82 16.24 7.233 24.789 1.389 8.405 2.534 16.854 4.093 25.227 2.172 11.658 4.211 23.366 7.764 34.707 1.41 4.5 3.402 8.82 5.144 13.216.508 1.281 1.068 2.541 1.762 4.187-6.554 1.474-12.915 2.471-19.454 3.866-.463-2.608-.99-5.025-1.308-7.47-1.036-7.983-2.085-15.967-2.966-23.969-1.399-12.699-2.907-25.375-5.168-37.958-.883-4.912-1.231-9.916-1.937-14.862-1.791-12.553-3.649-25.097-5.469-37.647-.065-.449-.008-.917-.008-1.758m-278.576-.569c-1.26-.59-1.6-1.555-1.549-2.762.22-5.145-.677-10.149-2.017-15.083-.337-1.239-.05-2.31.29-3.485.895-3.106 1.675-6.245 2.42-9.391.286-1.215.35-2.481.563-4.085-1.8.626-2.36 1.818-2.87 2.947-.49 1.089-.915 2.255-1.094 3.43-.646 4.241-2.16 8.394-1.226 12.809.243 1.151.036 2.397.036 3.985-1.246-1.572-1.387-3.172-1.438-4.643-.188-5.366-.662-10.741.26-16.1.151-.889.507-1.972-.604-2.803-.28-.211-.107-1.428.212-1.978 1.856-3.196 3.642-6.458 5.785-9.46 3.447-4.829 7.22-9.424 10.71-14.224 1.032-1.42 2.176-1.808 3.764-1.651 3.28.325 5.702 2.027 7.603 4.607.694.943.76 1.849-.097 2.751-.443.466-.838.98-1.237 1.487-.887 1.128-1.554 2.056-.722 3.783.761 1.58.63 3.604.825 5.44.525 4.921 1.703 9.668 3.747 14.182.884 1.951.982 3.929.424 5.968-.049.178-.06.366-.106.546-.638 2.59-1.545 5.157-.532 7.801-1.39.96-2.354.576-2.687-.752-.556-2.225-1.33-4.532-1.21-6.762.21-3.982-1.164-7.027-4.012-9.618-.82-.747-1.662-1.105-2.77-.891-.614.117-1.255.135-1.88.126-1.609-.025-2.92.504-3.696 1.979-1.815 3.446-3.888 6.79-5.33 10.387-1.666 4.15-1.05 8.585-.44 12.91.354 2.508.61 4.981-.398 7.395-.172.411-.476.766-.724 1.155" fill="#FFF"/><path d="M382.928 607.085c-1.912-.329-2.476.679-2.716 1.611-.967 3.766-3.163 6.806-5.315 9.936-.765 1.113-.831 2.795-.957 4.24-.242 2.763-.18 5.555-.474 8.31-.183 1.706-.821 3.351-2.244 4.645.151-1.525.435-3.052.425-4.576a107.445 107.445 0 00-.358-8.32c-.183-2.181.107-4.158 1.015-6.197 1.356-3.043 2.403-6.227 3.501-9.379.31-.888.336-1.874.55-3.166-1.977 1.417-7.002 10.195-9.674 15.902.076-.943.007-1.925.251-2.822 1.345-4.937 3.102-9.723 5.641-14.185.699-1.228 1.235-2.483 2.809-3.194.937-.423 1.512-2.058 1.876-3.261 1.072-3.547 1.997-7.141 2.905-10.735.762-3.014 4.097-4.977 6.987-3.902 1.647.613 3.224 1.427 4.792 2.231.892.458 1.702 1.078 2.811 1.795-1.513.911-1.384 2.165-1.146 3.45.135.727.241 1.46.366 2.189.967 5.647-1.017 10.758-3.655 15.4-2.954 5.198-3.813 10.758-4.636 16.445-.464 3.204-1.033 6.395-1.624 9.578-.168.901-.465 1.825-.922 2.611-.329.566-1.201 1.388-1.514 1.269-.663-.254-1.206-.993-1.624-1.645-.202-.314-.024-.881.004-1.333.381-6.376.823-12.748 1.114-19.126.081-1.792.207-3.469 1.119-5.076.416-.733.448-1.685.693-2.695m-2.222-85.734c1.213-1.351 2.383-2.743 3.647-4.044 2.263-2.329 4.661-4.53 6.854-6.921 1.683-1.835 3.283-3.785 4.641-5.865.867-1.328 1.78-1.991 3.34-1.924 1.575.067 3.159-.06 4.73.038 4.248.27 8.213 1.423 11.59 4.129 2.002 1.604 3.931 3.297 6.154 5.171-13.497 4.924-26.88 8.238-40.956 9.416m-70.268-20.465c2.794-.61 4.863-1.058 6.929-1.516 1.011-.224 1.794.039 2.411.917.477.678 1.243 1.198 1.576 1.926 1.316 2.885 3.725 4.478 6.375 5.944 6.37 3.524 13.112 6.071 20.164 7.757 2.999.717 6.071.368 9.286-.652-.002 2.97-1.419 5.215-2.762 7.454-.206.343-.985.54-1.465.489-5.328-.57-10.739.004-16.022-1.288-3.557-.87-6.901-2.178-9.919-4.219-5.093-3.443-9.71-7.45-13.587-12.243-1.018-1.258-1.789-2.718-2.986-4.569m54.52 31.718c-2.367-3.043-5.542-2.409-9.071-1.807l1.124-2.573c2.116-4.829 4.488-9.561 5.286-14.869.098-.652.584-1.34 1.075-1.823 2.308-2.276 4.72-4.446 7.01-6.739.93-.93 1.882-.921 3.042-.73 3.929.648 6.98 2.835 10.055 5.573a407.398 407.398 0 01-18.521 22.968m13.406-48.762c0-.703.027-1.603-.005-2.5-.105-2.952-.207-5.904-.357-8.854-.094-1.831.062-2.28 1.854-2.868 5.852-1.917 11.74-2.392 17.812-.165 1.024 6.164 2.42 12.316-.196 18.811-1.944-1.09-3.707-2.39-5.682-3.1-2.051-.738-4.292-1.069-6.478-1.278-2.183-.208-4.401-.046-6.948-.046m16.287 10.329c-1.751 4.479-4.334 8.365-7.849 12.053-3.504-3.696-7.565-6.235-12.763-6.521l3.773-11.847c6.299.083 12.102 1.604 16.839 6.315m-44.774 46.58c3.256-.918 6.276-.936 9.193 1.008-.152.408-.222.771-.405 1.062-3.884 6.2-6.299 12.937-7.365 20.159-.144.975-.241 1.789-1.413 2.05-1.19.266-1.996-.247-2.616-1.123-1.599-2.259-2.439-4.764-2.167-7.555.534-5.467 1.636-10.769 4.773-15.601m34.143-120.73l4.331 8.006c-2.909.897-5.754 1.562-8.421 2.659-2.624 1.079-5.069 2.597-7.592 3.923-.141-.104-.354-.176-.411-.314-1.701-4.124-1.734-4.156 1.275-7.517 2.89-3.229 6.4-5.53 10.818-6.757m144.51 343.501c-2.403-.916-4.831-1.776-7.196-2.784-.709-.302-1.285-.973-1.843-1.551-.378-.393-.603-.93-.925-1.381-2.229-3.119-11.664-10.693-15.45-12.326.222-1.825-.936-3.095-2.258-4.282-2.203-1.98-4.433-3.934-6.572-5.983-.993-.951-1.876-2.047-2.656-3.182-.421-.613-.521-1.447-.765-2.178 1.406-.525 1.794.419 2.331.947 3.365 3.314 6.683 6.675 10.06 9.977.502.491 1.189.958 1.857 1.085 2.351.443 3.94 1.842 5.332 3.672 2.408 3.164 4.828 6.325 7.4 9.353 1.116 1.314 2.558 2.386 3.966 3.408 2.309 1.676 4.712 3.222 7.075 4.823l-.356.402M394.921 450.055l.838 5.481c-6.755-2.5-12.808-.944-18.966 1.909l-.858-4.488c6.032-3.072 12.073-4.534 18.986-2.902m-4.359-16.863l.958 2.836c-3.185.579-6.24.88-9.133 1.732-2.899.855-5.636 2.259-8.645 3.505l-.645-2.75c5.303-3.205 10.696-5.842 17.465-5.323M191.356 540.04c-1.079-.06-1.597-1.259-1.007-2.216.916-1.487 1.79-3.103 3.06-4.246 2.103-1.893 4.432-3.572 6.82-5.101 1.034-.663 1.494-1.493 2.037-2.463.657-1.175 1.437-2.348 2.41-3.257.751-.7 2.051-.842 2.734.084.357.484.193 1.627-.133 2.271-.386.765-1.089 1.526-1.846 1.922-4.59 2.406-8.499 5.517-11.18 10.048-.509.86-1.275 1.577-1.972 2.313-.293.311-.713.502-.923.645m267.906 215.459l-7.592-22.896c1.368-.106 2.672-.207 4.351-.335-.821 4.995.901 9.253 2.357 13.668.985 2.988.766 6.372 1.087 9.577a12.942 12.942 0 01-.203-.014M409.864 571.26c-1.052.667-1.725 1.243-2.504 1.558-1.542.621-3.135 1.123-4.721 1.63-2.529.808-4.676 2.205-6.524 4.096-.442.453-.953.839-1.479 1.296l-5.242-1.94c1.13-.45 1.727-.836 2.363-.914 2.919-.36 5.406-1.397 7.692-3.4 1.844-1.617 4.198-2.693 6.419-3.824 1.354-.69 2.445.259 3.996 1.498m-32.16-106.298c-.136-.428-.234-.6-.238-.773-.018-.736-.008-1.473-.008-2.225 4.51-2.905 16.462-2.351 19.418.563-2.286-.111-4.326-.381-6.343-.263-2.202.129-4.404.517-6.568.976-2.066.439-4.083 1.113-6.261 1.722m-16.163 73.003l-9.022-1.79c.482-.329.797-.708 1.161-.764 2.085-.319 4.183-.794 6.272-.772 2.651.027 3.07 1.188 1.589 3.326M459.44 758.49l2.085 13.133c-2.375-2.046-2.957-6.603-2.085-13.132" fill="#FFF"/><path d="M330.532 455.229c-1.813.005-3.02.647-3.104 1.651-.101 1.205 1.662 3.501 2.67 3.48.977-.022 2.498-2.183 2.517-3.615.018-1.462-1.017-1.521-2.083-1.516m-2.679-4.458c2.821.119 5.189 1.306 7.113 3.289 1.833 1.892 1.576 4.335 1.053 6.574-.435 1.866-1.235 3.727-2.245 5.361-3.203 5.177-10.443 5.066-13.631-.123a24.828 24.828 0 01-1.433-2.702c-2.741-6.03 1.769-11.985 7.75-12.394.462-.032.928-.005 1.393-.005m14.256-17.654c-1.703.052-2.743.869-2.723 2.139.026 1.632 1.486 3.27 2.87 3.218 1.091-.041 2.252-1.772 2.275-3.392.018-1.328-.827-2.013-2.422-1.965m5.216 4.927c-.322 2.481-1.243 5.574-3.774 8.061-3.278 3.222-7.076 2.684-10.024-.941-1.086-1.337-1.852-2.992-2.513-4.605-1.908-4.65.989-9.463 5.288-9.962 2.5-.289 4.885-.898 7.279.362 2.796 1.471 3.767 3.021 3.744 7.085m14.044 9.385c-3.12.062-4.091 1.793-2.516 4.505.229.395.478.795.79 1.124 1.418 1.496 2.466 1.354 3.379-.464.33-.656.625-1.344.824-2.048.603-2.134-.234-3.163-2.477-3.117m4.182 3.875c-.524 3.103-1.301 6.704-4.442 9.236-3.8 3.064-5.85 2.032-8.352-.786a12.133 12.133 0 01-3.075-7.887c-.02-1.527.7-3.31 1.644-4.554 2.012-2.655 7.222-3.463 10.185-1.906.574.301 1.136.628 1.689.968 1.942 1.195 2.388 2.022 2.351 4.929m-28.916 33.933c2.485 2.235 4.504 4.084 6.571 5.876.309.269.839.348 1.278.39 3.701.357 7.325-.189 11.067-.881v-6.043l-18.916.658m-1.932-.287c8.009-2.373 15.977-2.99 24.224-3.472-.153.808-.075 1.482-.374 1.793-1.426 1.485-1.229 3.119-.843 4.927.985 4.624.942 4.704-3.724 5.345-3.196.438-6.391 1.205-9.65.677-.883-.142-1.964-.306-2.539-.878-2.292-2.28-4.43-4.717-6.597-7.121-.229-.255-.273-.675-.497-1.271m10.013-9.04c.577-.199 1.179-.348 1.727-.608 1.079-.515 2.221-.966 3.168-1.672 1.507-1.124 1.687-1.871.757-3.547-1.526-2.75-3.164-5.443-4.848-8.1-.996-1.571-1.914-3.124-1.715-5.176 3.104 4.425 7.156 8.196 9.291 13.263 1.493 3.544-.762 6.856-4.6 7.027-1.246.057-2.511-.303-3.767-.474l-.013-.713m-37.33-4.987c-3.404-.932-4.646-3.437-3.992-8.293-2.569-2.376-4.774-5.172-6.334-9.186 1.611.937 2.533 1.853 3.51 2.718 1.996 1.769 3.998 3.537 6.09 5.19.913.72 1.03 1.43.635 2.395-.335.82-.318 1.516.316 2.292 1.721 2.11 1.668 2.324-.225 4.884" fill="#000"/><path d="M330.532 455.228c1.065-.004 2.101.055 2.082 1.517-.018 1.432-1.54 3.593-2.516 3.615-1.009.021-2.771-2.275-2.67-3.48.083-1.004 1.291-1.646 3.104-1.652m11.577-22.111c1.595-.048 2.44.637 2.422 1.965-.023 1.62-1.184 3.351-2.275 3.392-1.384.052-2.844-1.586-2.87-3.218-.02-1.27 1.02-2.087 2.723-2.139m19.26 14.312c2.243-.046 3.08.983 2.477 3.117a11.675 11.675 0 01-.824 2.048c-.913 1.818-1.961 1.96-3.379.464-.312-.329-.561-.729-.79-1.124-1.575-2.712-.604-4.443 2.516-4.505m-24.734 37.808l18.916-.658v6.043c-3.742.692-7.366 1.238-11.067.881-.439-.042-.969-.121-1.278-.39-2.067-1.792-4.086-3.641-6.571-5.876" fill="#FFF"/></g></svg>