<svg width="578" height="894" viewBox="0 0 578 894" xmlns="http://www.w3.org/2000/svg"><g fill="none" fill-rule="evenodd"><path d="M366.848 530.797v-11.334c21.896-.677 43.67-1.35 65.845-2.033v8.195l-65.845 5.172m-62.725-25.862V487.17c5.518-1.105 10.8-.846 16.468-.201v17.965h-16.468zm17.119-80.468v12.299c-5.53 1.623-10.741.348-16.28-.097v-12.202h16.28zm-.402 86.52v10.207l-16.953 1.884V511.86c5.306-1.798 8.832-1.99 16.953-.873m-16.864 24.649v-6.865c5.243-2.431 10.842-1.566 16.624-2.32v7.972l-16.624 1.213" fill="#FFF"/><path d="M155.614 512.432c.265-.174.373-.208.409-.278.035-.072.036-.224-.012-.264a17.47 17.47 0 00-1.29-.998c-.066-.045-.271.11-.682.295l1.575 1.245zm182.703-31.15l-.046.75c.547.15 1.164.857 1.668-.644l-1.622-.105zm184.498 20.427c.973.14 1.901.219 2.183-1.49l-2.183 1.49zm-363.008 8.532c-.592-.98-1.27-1.906-2.796-1.954.285 1.806 1.653 1.708 2.796 1.954zm359.328-10.488c1.239-.122 2.529-.143 3.385-1.641-1.879-.564-2.529.747-3.385 1.64zm-365.702 14.14c1.44 2.504 2.145 2.976 4.193 2.93l-4.193-2.93zm368.392-7.224c1.562-.512 2.987-1.204 3.825-2.686-1.45.655-3.085 1.015-3.825 2.686zM221.389 546.41c2.905-2.564 5.736-4.24 7.625-6.974-1.902.53-6.811 3.908-7.437 4.983-.197.338-.095.85-.188 1.99zm-113.076-41.195c.866-.93 1.732-1.626 1.498-2.873-3.66-1.633-3.985-1.62-5.63.38l4.132 2.493zm346.859 26.046c.169-2.205.169-2.205-.887-3.195-3.975-3.73-4.77-4.255-6.147-4.052l7.034 7.247zm120.318-35.19c-1.678-2.18-3.256-2.198-5.969-.184l1.476 2.436c1.39-.677 2.586-1.256 3.779-1.843.256-.127.499-.284.714-.408zm-123.366 144.73l-1.468.112c.151 2.144.432 4.122.389 6.093-.041 1.878-.42 3.749-.65 5.624 1.691-1.881 2.297-6.89 1.729-11.83zM552.54 494.294h6.553c.292-1.482.033-2.427-1.428-2.391-1.689.042-3.374.226-5.125.353v2.038zm-110.325 149.36l-2.177 11.024c2.787-1.775 3.557-5.898 2.177-11.024zm-315.16-140.956c.282-2.328.282-2.326-1.48-2.517-.953-.103-1.908-.2-2.86-.321-1.916-.244-2.07-.067-1.853 2.376l6.193.462zM422.93 670.416c-1.238-.73-2.511-.95-3.88-.673-1.306.262-2.539.619-3.876-.204-.94-.578-1.914-.136-2.681.946 2.869.6 5.468 1.154 8.071 1.686 1.343.275 2.239-.112 2.366-1.755zm138.868-178.712l.275 3.067c2.979-.61 5.696-1.162 8.412-1.717l-.045-.78c-2.733-.607-5.544-.404-8.642-.57zm-444.295 10.598l.548-2.98c-3.145.166-5.98-.795-8.755.109l-.05.614c2.66.727 5.32 1.453 8.257 2.257zM445.67 653.338c.315.054.465.117.497.08 1.662-1.955 2.356-9.111 1.04-11.298-.185-.307-.818-.585-1.142-.5-.315.084-.674.642-.703 1.015-.043.555.278 1.129.286 1.697.038 2.585.02 5.17.022 7.755v1.25zM144.49 483.676c-.647-1.074-1.071-1.806-1.524-2.52-1.644-2.592-2.32-2.59-4.284.1.306.719.598 1.518.976 2.273 1.089 2.169 1.684 2.314 3.702.967.315-.21.614-.443 1.13-.82zm395.494-7.132c.849-1.358 1.579-2.444 2.223-3.578.707-1.246-.156-1.974-1.038-2.586-.866-.598-1.628-.303-2.219.507-.771 1.06-1.535 2.124-2.471 3.42l3.505 2.237zm-421.55 28.247c-5.764-2.445-5.904-1.77-7.573 2.119l2.812 1.728 4.76-3.847zm450.096-5.004c-1.743-4.38-2.77-4.661-7.374-2.576l4.308 4.21c.809-.43 1.872-.997 3.066-1.634zm-13.504 4.95l6.919-3.58c-1.784-1.75-3.773-1.334-5.578-1.288-2.819.07-3.412 1.158-2.235 3.687.155.333.448.602.894 1.182zm-437.724 4.068l6.856 4.053c.526-1.09 1.083-1.888 1.269-2.765.109-.515-.244-1.547-.61-1.666-1.251-.406-2.594-.613-3.915-.701-1.173-.08-2.496-.387-3.6 1.079zm17.038-2.072c-1.238-1.28-2.59-1.792-4.206-1.78-1.503.013-3.007-.104-4.511-.142-.885-.024-1.772-.005-2.658-.005l-.08.603c1.888.79 3.853 1.44 5.646 2.408 2.203 1.188 3.98.827 5.809-1.084zm422.288-9.273l-.191-.848c-3.694.874-7.646-1.29-11.335 1.113 1.698 2.024 2.501 2.63 3.778 2.267 2.611-.743 5.169-1.676 7.748-2.532zM297.086 599.328l.168-.822-8.037-4.704-.573 5.526h8.442zm-168.781-89.475l-2.083 4.422 5.738 1.508c1.052-1.85 1.532-3.41.99-5.18l-4.645-.75zm424.414-3.9l-2.035-4.483c-1.786.19-3.18.34-4.528.485-.496 2.75-.496 2.75.863 5.219 1.717-.368 3.523-.756 5.7-1.221zm-237.247-20.285l-7.801.89c1.817 3.795 3.954 4.544 8.202 2.906l-.401-3.796zm81.708 303.531c-1.965.186-3.758.462-5.556.496-1.74.034-3.173-1.623-5.52-1.18.602 1.068.852 2.23 1.52 2.57 2.297 1.166 4.644 2.38 7.395 2.016 2.37-.314 2.721-.826 2.161-3.902zM150.994 491.916c-1.608-2.03-3.098-3.91-4.634-5.846-1.454.877-2.574 1.55-3.557 2.144.149 1.213.325 2.155.366 3.1.045 1.039.554 1.677 1.527 1.763 1.976.173 4.02.64 6.298-1.161zm383.531-15.417c-1.653 1.932-3.808 3.333-4.956 6.036 1.29.433 2.236.888 3.232 1.062 3.396.594 3.999.152 4.785-3.23.122-.526.232-1.055.346-1.578l-3.407-2.29zm-250.809 179.38l.885-.37c-.277-4.838 1.254-9.582.613-15.076-1.038.664-2.065.944-2.228 1.485-1.228 4.076-1.974 8.227-.531 12.417.203.59.83 1.034 1.261 1.545zm-5.106-.885l1.638-14.278c-1.248.24-2.846-.727-3.365.903-1.271 3.986-1.964 8.077-.321 12.174.421 1.05 1.264 1.297 2.048 1.2zm-5.418-.081c-1.494-5.13-.044-9.546.949-14.13-.908-.154-1.546-.325-2.191-.36-2.374-.13-2.506.002-3.147 2.354a13.571 13.571 0 00.052 7.414c.561 1.95 1.823 3.453 4.337 4.722zm33.887 133.835c-1.994.681-3.927 1.694-5.952 1.932-2.071.244-4.231-.27-6.513-.469v3.776c3.466 1.521 6.882 1.372 10.299.011 2.373-.944 2.877-2.097 2.166-5.25zm-39.688-148.185c-3.473-.551-3.749-.518-4.474 1.21-1.582 3.77-1.604 7.484.671 11.035 1.115 1.74 1.673 1.895 4.16 1.11-2.136-4.317-1.345-8.766-.357-13.355zm163.121 161.8c-1.693-.339-3.264-.745-4.862-.944-1.304-.162-2.741-.396-3.932-.014-1.327.425-2.402.261-3.615-.132a1768.993 1768.993 0 00-15.417-4.913c-.214-.068-.497.082-.733.128-.174 1.407.867 1.722 1.729 2.043 4.506 1.672 8.971 3.501 13.572 4.858 4.23 1.248 8.537.147 12.782-.504.126-.019.222-.235.476-.523zm89.323-288.07c1.627-1.133 1.811-2.088.959-3.242-3.413-4.622-6.783-9.276-10.255-13.851-1.252-1.65-1.742-1.56-3.697.05 2.314 7.187 8.12 11.639 12.993 17.044zm-347.255-5.732c-2.31-1.616-2.484-1.623-4.112.209a441.709 441.709 0 00-6.006 6.888 285.748 285.748 0 00-4.954 5.976c-1.02 1.26-.665 2.219.928 3.064 5.149-4.958 11.273-8.964 14.144-16.137zm41.862 300.947c.12 1.622 1.041 2.261 2.395 2.445 2.571.35 5.139.882 7.721.972 6.733.233 13.472.327 20.209.356 3.6.015 7.082-.744 10.325-2.382.93-.47 1.875-.993 1.439-2.322-.338-.029-.543-.106-.701-.049-.633.228-1.24.53-1.877.747-4.399 1.511-8.896 2.503-13.577 2.284-2.398-.11-4.784-.476-7.181-.568-5.868-.228-11.749-.229-17.531-1.473-.348-.075-.727-.01-1.222-.01zm220.48-.29l-.491.726c.742.625 1.41 1.383 2.24 1.851 2.994 1.69 6.307 2.408 9.688 2.54 6.725.265 13.457.43 20.187.46 2.579.012 5.16-.456 7.741-.707 1.261-.122 2.134-.669 2.402-2.256-.894 0-1.624-.038-2.35.006-3.544.216-7.084.542-10.63.656-3.366.11-6.738-.026-10.107.003-1.917.017-3.91.525-5.733.15-3.841-.79-7.593-2.02-11.383-3.063-.517-.142-1.043-.246-1.564-.367zM259.986 803.4c2.522.47 4.831.985 7.167 1.304 1.395.19 2.887.332 4.24.045 5.073-1.074 10.116-2.292 15.146-3.55 1.383-.347 2.735-.923 4.008-1.574 1.795-.918 1.758-.99 1.069-3.359-6.023 1.684-12.05 3.348-18.063 5.065-1.325.38-2.441.331-3.848-.08-3.102-.905-6.191.252-9.228 1.017-.11.027-.151.326-.491 1.132zm-3.205-70.993c-.162 2.887.141 3.526 2.487 4.35 2.444.858 4.973 1.487 7.485 2.142 5.607 1.463 11.266 2.366 17.08 1.43 2.463-.395 4.945-.692 7.392-1.166 1.07-.206 2.24-.59 2.078-2.752-12.526 2.442-24.547.418-36.522-4.004zm286.359-225.57c0-2.468.103-4.271-.056-6.05-.055-.614-.637-1.406-1.199-1.71-2.111-1.141-4.32-2.1-6.479-3.157-1.162-.568-2.239-.41-3.271.276-.719.477-1.397 1.017-2.121 1.489-1.259.82-2.476 1.757-2.039 3.445.441 1.705 1.31 3.448 3.156 3.82 3.823.774 7.71 1.233 12.009 1.887zm-407.058 8.442c2.322 0 4.783.06 7.24-.024a24.407 24.407 0 004.275-.528c2.006-.43 3.024-2.021 3.579-3.788.475-1.515-.644-2.476-1.757-3.32-.687-.521-1.327-1.103-1.994-1.65-1.072-.878-2.257-.984-3.52-.49-2.145.84-4.308 1.642-6.42 2.56-.55.239-1.304.818-1.34 1.288-.151 1.96-.063 3.942-.063 5.952zm64.808 11.428l-.76.205c-1.352 3.996-2.682 7.999-4.077 11.979-.303.867-.688 1.804-1.31 2.44-1.405 1.446-2.947 2.766-4.496 4.062-3.154 2.639-6.35 5.228-9.745 8.017l2.373 2.997c1.074-.813 2.109-1.367 2.837-2.191 2.256-2.556 5.11-4.335 7.753-6.408 3.583-2.81 6.842-6.01 6.732-11.173-.014-.685.335-1.548.81-2.045 1.604-1.672 1.14-3.797 1.314-5.73.06-.67-.924-1.432-1.431-2.153zm276.895-13.975c-.983.943-2.044 1.494-2.047 2.05-.011 1.963.281 3.937.579 5.888.151.985.638 1.914.835 2.896.262 1.307.191 2.71.616 3.952 1.055 3.09 3.316 5.35 5.64 7.53 2.234 2.097 4.46 4.2 6.693 6.298.889.835 1.788 1.658 2.914 2.702l2.603-2.884c-1.038-.966-1.822-1.667-2.575-2.4-3.444-3.353-6.879-6.714-10.316-10.073-.915-.894-1.361-1.924-1.646-3.235-.879-4.026-2.044-7.99-3.296-12.724zM302.412 785.49c3.627-.288 3.916-.479 4.142-2.463.7-6.149.572-12.279-.438-18.385-.125-.75-.186-1.578-.549-2.214-2.454-4.297-5.762-7.842-9.843-10.765.549 1.84 1.231 3.602 2.146 5.235 4.381 7.816 6.192 16.07 4.569 24.986-.2 1.1-.027 2.267-.027 3.606zm87.379-1.37c0-1.507.031-3.01-.006-4.512-.131-5.194-.453-10.426 1.683-15.345 1.265-2.91 2.764-5.72 4.17-8.568.79-1.599 1.606-3.186 2.41-4.779-3.466 1.767-5.955 4.394-8.345 7.15-1.828 2.107-2.812 4.487-3.18 7.266-.671 5.065-1.138 10.116-.783 15.233.219 3.15.439 3.445 4.051 3.554zm47.168-47.73c-12.73.796-24.41-1.416-35.658-6.015-.925 3.706-.826 3.992 2.071 5.277 2.64 1.171 5.263 2.412 7.986 3.35 2.436.84 4.99 1.79 7.508 1.84 5.551.111 11.112-.316 16.789-.528.409-1.234.762-2.293 1.304-3.924zM135.636 506.177c2.686-1.23 4.908-2.16 7.047-3.252 2.328-1.188 4.474-1.003 6.454.616 1.48 1.21 2.85 2.557 4.43 3.988 2.556-1.96 4.844-4.3 4.837-7.7-.008-3.5-2.827-4.957-5.653-6.006-1.438.698-2.747 1.614-4.191 1.954-1.408.33-2.955.07-4.5.07.286 1.403 1.475 2.709.098 4.163-.82-.11-1.663-.357-2.49-.312-3.43.188-6.851.506-10.282.687-1.385.073-1.886.614-1.567 2.08 2.422.4 5.664-.586 5.817 3.712zm414.278-12.011c.415-1.98-.535-2.187-1.851-2.323-4.226-.437-8.44-.986-12.979-1.531.293-1.445.548-2.698.865-4.267-3.222.787-5.96-.065-8.002-2.376-4.605 1.682-6.363 3.008-6.45 5.66-.112 3.387 1.805 5.894 4.405 8.12 1.067-.964 1.949-1.832 2.903-2.61 3.358-2.732 5.125-2.895 8.921-.848 1.935 1.043 3.85 2.126 6.013 3.323.475-4.077 3.464-3.188 6.175-3.148zM285.449 605.358c6.03.393 12.065.717 18.087 1.21 3.147.257 6.322.587 9.389 1.299 2.617.607 4.032 2.767 3.806 5.093-.333 3.435-.685 6.874-1.221 10.282-1.642 10.43-3.372 20.848-5.077 31.268-.19 1.16-.448 2.31-.674 3.464l.566.179c.304-.743.668-1.468.902-2.233 1.069-3.5 2.144-6.998 3.14-10.518 2.897-10.228 4.42-20.674 4.761-31.286.052-1.6-.111-3.312-.65-4.8-1.029-2.841-3.792-2.91-6.229-3.197-5.149-.606-10.313-1.091-15.473-1.601-3.817-.377-7.608-.19-11.327.84zm90.774-202.404c-5.355-.771-10.63-.714-15.902-.781-2.684-.034-5.366-.27-8.05-.345-3.558-.1-7.134-.351-10.67-.095-1.535.11-2.748-.066-4.044-.733-4.79-2.463-9.611-4.866-14.398-7.335-1.504-.775-2.975-1.043-4.867-.297.457.419.677.7.963.874 4.677 2.847 9.352 5.699 14.052 8.506 1.149.687 2.378 1.245 3.589 1.82 3.597 1.707 7.509 1.596 11.31 1.613 6.434.028 12.871-.321 19.306-.543 2.399-.083 4.794-.265 7.192-.381 1.319-.064 1.993-.605 1.519-2.303zM338.28 617.189c.26 3.464.699 6.602.674 9.736-.026 3.18-.511 6.356-.811 9.72l9.196-.694c1.814-6.645 2.665-13.124 2.317-20.11l-11.376 1.348zM236.996 783.35c.827 2.751 2.707 3.527 5.126 3.64 2.205.103 4.421.28 6.597.636 4.931.806 9.84 1.742 14.812 2.634 1.234 2.037 2.413 4.137 3.742 6.137 1.397 2.104 2.792 2.396 5.182 1.192-.097-1.173.018-2.482-.351-3.637-.631-1.976-.621-4.314-2.49-5.714-3.037-2.274-6.29-4.11-10.189-4.423-1.056-.085-2.115-.136-3.165-.268-5.149-.643-10.294-1.33-15.446-1.956-1.594-.193-3.141-.103-3.818 1.76zm179.85 13.384c1.033.551 1.686.954 2.382 1.261 2.172.958 4.465.21 5.145-2.073.726-2.438 2.356-4.15 3.809-6.046 1.006-1.312 2.329-1.936 3.986-1.957 6.336-.077 12.654-.94 19.012-.184 2.868.341 3.308-.185 3.989-3.416-.566-.203-1.146-.534-1.759-.61-2.759-.34-5.523-.688-8.295-.888-5.665-.41-11.334-.712-16.975.362-2.688.512-4.877 1.667-6.211 4.194-1.609 3.051-3.29 6.065-5.083 9.357zm-89.186-327.99c-.356 2.01.057 3.62 1.283 4.726 2.058 1.856 4.312 3.499 6.546 5.148.38.28 1.076.2 1.622.177 3.167-.132 6.331-.374 9.499-.424 2.569-.04 5.167.408 7.707.168 5.729-.54 11.43-1.376 17.143-2.078 2.658-.327 3.463-1.463 3-4.254-5.458.21-10.916.355-16.365.653-5.084.277-10.158.732-15.239 1.087-4.741.33-9.25-.153-12.921-3.665-.593-.568-1.375-.94-2.275-1.538zm-1.296-76.113c.198.364.244.6.374.663 3.894 1.89 7.783 3.79 11.708 5.616.754.35 1.649.543 2.483.557 9.433.164 18.866.283 28.299.4.564.007 1.129-.116 1.694-.178-3.293-1.967-6.564-3.582-9.886-5.084-3.593-1.625-7.236-2.588-11.346-2.364-7.395.402-14.822.23-22.236.304-.332.003-.664.05-1.09.086zm84.9 88.539c-3.626-2.047-4.868-1.857-7.211 1.015-2.616 3.209-5.255 6.4-7.836 9.638-2.003 2.51-2.632 3.028.164 5.37 1.196 1.003 2.495 3.007 2.29 4.329-.449 2.89.138 5.123 2.099 7.097 1.933 1.945 1.814 3.97.707 6.31-1.516 3.209-2.777 6.537-4.189 9.795-.405.937-.274 1.699.477 2.329.647.544 1.355 1.015 2.321 1.727 2.597-5.501 5.093-10.794 7.596-16.083.506-1.07-.05-1.76-.69-2.565-2.093-2.637-4.177-5.288-6.114-8.04-2.359-3.35-2.332-3.936.06-7.176 3.363-4.555 6.799-9.057 10.326-13.746zm-142.649 18.518c2.993 3.115 5.735 5.929 8.426 8.79 1.314 1.398 2.617 2.823 3.774 4.35 2.044 2.7 1.93 3.684-.599 5.799-2.581 2.159-5.238 4.228-7.847 6.354-1.026.836-2.013 1.72-3.035 2.599l8.294 19.835 2.457-2.032c-1.388-4.25-2.638-8.146-3.94-12.025-.66-1.966-.678-3.686.982-5.277 2.774-2.658 5.427-5.443 8.124-8.181.654-.663 1.511-1.165 1.262-2.386-.793-3.895-1.902-7.58-4.795-10.57-2.064-2.134-3.8-4.583-5.75-6.834-.532-.616-1.244-1.315-1.979-1.468-1.69-.352-3.405-.19-5.374 1.046zm175.355 66.256c1.393 1.606 2.519 1.598 3.84.667 3.611-2.547 7.267-5.03 10.89-7.558.297-.207.52-.556.706-.88.898-1.567 1.772-3.148 2.658-4.728-.355-.45-.56-.771-.824-1.034-6.606-6.615-13.2-13.242-19.85-19.812-1.052-1.04-1.359-1.988-.674-3.316 1.633-3.166 3.19-6.372 4.836-9.531.691-1.327 1.582-1.563 2.804-.726.948.648 1.756 1.5 2.631 2.255 1.713 1.479 3.43 2.954 5.153 4.437 1.402-1.36 1.015-2.2-.042-3.102-2.343-2.005-4.579-4.136-6.948-6.107-1.061-.883-2.338-1.507-3.85-2.458l-9.843 16.86c1.711 1.74 3.235 3.205 4.66 4.759 3.057 3.336 6.035 6.744 9.1 10.074 2.152 2.339 4.383 4.607 6.599 6.887 1.798 1.85 1.729 2.483-.306 3.962-2.495 1.813-4.974 3.65-7.386 5.57-1.416 1.127-2.687 2.434-4.154 3.78zm-230.742 2.016c1.344 2.799 2.168 5.758 4.788 7.726 2.223 1.669 4.254 3.59 6.421 5.337.818.66 1.756 1.182 2.678 1.696.84.468 1.643.394 2.496-.676-4.563-3.688-8.195-8.191-11.803-12.88.819-.901 1.398-1.672 2.108-2.295a1066.39 1066.39 0 019.597-8.301c3.505-3.005 7.037-5.978 10.533-8.992.959-.828 1.778-1.674 1.156-3.211-1.764-4.365-3.36-8.796-5.133-13.158-.566-1.392-1.476-2.646-2.193-3.9-5.021 1.899-8.644 5.558-12.737 8.524-1.217.882-1.282 1.743-.031 2.89 1.124-.825 2.206-1.602 3.27-2.404 1.536-1.157 3.006-2.412 4.603-3.478 1.645-1.096 2.34-.861 3.093.876 1.377 3.175 2.708 6.37 4.052 9.56.535 1.273.458 2.314-.736 3.32a1775.418 1775.418 0 00-17.539 15c-1.583 1.37-3.049 2.874-4.623 4.366zm269.399-43.994c3.188-1.08 23.962-16.313 25.857-18.99-1.382-2.173-2.437-4.64-4.427-6.825l-23.58 13.189c-.234 4.5 1.179 8.516 2.15 12.626zm-307.69-14.234l-4.982 7.062c8.049 7.253 16.099 14.029 24.722 20.88 1.074-3.715 2.06-6.92 2.916-10.16.484-1.835-.055-3.19-1.853-4.296-4.756-2.928-9.368-6.09-14.045-9.146-2.09-1.365-4.197-2.698-6.758-4.34zm281.401 124.437c.229.459.442.996.745 1.475 1.924 3.029 2.239 6.345 1.507 9.737-.567 2.625-1.452 5.18-2.178 7.773-.611 2.178-1.652 4.257-1.755 6.786 2.055-.416 3.32-1.397 3.707-3.28 1.373-6.681 2.678-13.378 4.073-20.057.562-2.694.262-4.762-2.035-6.857-2.922-2.665-6.163-4.211-9.881-3.81-4.749.515-9.43 1.704-14.115 2.722-1.752.379-2.553 1.52-2.738 3.508-.748 8.022-1.736 16.02-2.631 24.028-.187 1.677-.357 3.356-.558 5.253 1.409-.206 2.515-.37 3.822-.56.213-1.66.318-3.162.615-4.625.379-1.861.899-3.694 1.388-5.532.167-.626.244-1.477.678-1.793 1.059-.774.921-1.804 1.021-2.841.395-4.11.814-8.217 1.228-12.324.126-1.253.749-1.846 2.086-1.836 1.422.01 2.854-.12 4.264-.317 2.859-.401 5.708-.874 8.557-1.343 1.288-.213 2.484-.2 3.54 1.075l-1.34 2.818zM279.35 497.724c.857-.19 1.503-.431 2.158-.457 1.724-.07 3.471-.208 5.17-.002 1.093.133 2.55.736 2.216 2.157-.378 1.603.468 2.78.708 4.16.51 2.927 1.184 5.883 1.174 8.826-.013 3.694-.6 7.39-1.024 11.078-.274 2.382-1.175 4.792-.948 7.106.341 3.494-1.44 5.382-3.939 7.04-.86.572-1.827.986-2.91 1.559 1.002 3.158 1.571 6.212 1.123 9.459-.231 1.67 1.134 3.307 2.608 3.77 1.192.375 1.505.869 1.718 1.82.207.927.388 1.873 1.708 2.186.309-3.172.654-6.221.891-9.278.215-2.772.191-5.566.489-8.326.558-5.16 1.361-10.292 1.899-15.453.727-6.982 1.233-13.987 1.996-20.963.158-1.443.106-2.621-.763-3.77-3.722-4.907-7.422-9.833-11.162-14.728-.299-.392-.844-.595-1.578-1.09-.763 5.13-2.124 9.838-1.534 14.906zm74.862-6.08c1.344.152 2.718-.01 3.75.51 1.122.564 1.899 1.792 2.882 2.669.645.575 1.447.976 2.074 1.567 1.256 1.184 2.495 2.396 3.623 3.699.395.456.632 1.217.617 1.83-.051 2.096-.265 4.187-.382 6.282-.39 7.016-.745 14.035-1.155 21.049a311.561 311.561 0 01-.715 9.507c-.167 1.875-.953 2.714-2.884 3.003-1.325.198-2.685.155-4.028.249-9.691.68-19.38 1.369-29.071 2.05-2.495.176-4.991.34-7.488.493-.781.047-1.417.344-1.222 1.187.096.416.673.938 1.102 1.014 1.035.182 2.116.218 3.169.157 5.949-.344 11.901-.671 17.842-1.124 8.053-.614 16.095-1.357 24.145-1.991 1.397-.11 2.057-.642 2.197-2.081.53-5.457 1.218-10.9 1.706-16.36.582-6.517.877-13.061 1.59-19.561.275-2.513-.949-4.558-1.247-6.862-.075-.575-.7-1.131-1.172-1.593-2.133-2.088-4.338-4.102-6.447-6.214-2.405-2.406-5.039-4.137-8.886-3.424v3.945zm-29.917 156.534c1.068.118 1.695.254 2.32.245a836.3 836.3 0 0011.53-.23c1.729-.047 3.477-.062 5.174-.343 1.092-.182 2.083-.904 3.165-1.233 1.258-.382 2.569-.584 3.851-.89 1.11-.265 2.196-.675 3.318-.827 2.335-.317 2.739-.745 2.518-3.2-.69-7.675-1.17-15.353-.627-23.063.079-1.118.011-2.247.011-3.747l-3.087.633c0 2.529-.118 4.74.023 6.935.349 5.442-.431 10.729-1.768 15.982-.445 1.748-1.496 2.294-3.112 2.37-3.744.177-7.484.416-11.227.606-1.864.096-3.08-1.063-3.056-2.96.009-.66.222-1.323.38-1.976a60.943 60.943 0 001.725-15.75c-.024-1.08-.27-2.153-.423-3.302l-5.367.32c.646 10.622 1.428 21.054-5.348 30.43zm26.647-164.896c-2.626.358-5.391-.435-8.054.818-.684.322-1.476.572-2.222.583-5.609.076-11.196-.001-16.347-2.741-1.955-1.04-1.991-.993-1.339-3.736l7.363 2.74c-.575-1.87-1.53-3.184-2.321-4.59-.625-1.112-1.381-1.641-2.711-1.756-2.917-.251-2.922-.362-2.51-3.437l2.033-.336c-.914-2.23-.104-4.791-2.402-6.394-.337-.235-.222-1.775.195-2.32 1.697-2.22 1.68-2.745.092-5.16-.564-.857-.502-2.126-.735-3.25a479.02 479.02 0 001.89-.43c.575-3.334-.593-4.653-4.372-4.936-.227 1.113-.694 2.293.492 3.143 1.489 1.067 1.266 2.4.853 3.943h-1.68c-.164 2.062-.703 3.952 1.265 5.438.475.358.334 1.53.485 2.379l-2.16.108c.125 2.207-.89 4.452 1.504 6.125.505.353.441 1.557.574 2.379.036.226-.162.492-.248.725l-1.855-.253c-.579 1.487-.093 2.475.87 3.273 1.269 1.053 1.571 2.328 1.013 3.98-.849-.32-1.662-.624-2.489-.933-.839 2.309.213 3.757 1.679 4.997 1.25 1.057 1.407 2.175.549 3.486l-2.37-.194c.479 1.33.586 2.482 1.21 3.162.937 1.023 2.125 1.987 3.398 2.498 4.862 1.95 10.045 2.562 15.181 3.4 4.033.657 7.837.035 11.642-1.201 1.591-.516 2.036-1.517 1.804-3.381-4.793 1.697-9.647 2.182-14.55 1.69-4.975-.498-9.893-1.323-14.29-4.13l.351-3.151c1.514.603 2.816 1.163 4.146 1.647 6.147 2.236 12.464 3.412 19.002 2.534 5.091-.683 5.078-.797 5.326-5.874.009-.174-.105-.353-.262-.845zm8.224 128.347c-1.226 5.259.56 24.87 3.945 42.699l5.757.756c0-1.761.142-3.11-.022-4.422-1.251-10.034-1.637-20.111-1.442-30.208.036-1.878.543-3.792 1.121-5.596.247-.77 1.122-1.614 1.901-1.891 6.066-2.154 12.178-4.174 18.273-6.245.75-.255 1.479-.57 2.414-.934-4.169-2.024-4.184-2.102-7.969-1.394-2.641.493-5.28 1.1-7.842 1.9-5.389 1.688-10.728 3.537-16.136 5.335zM213.572 805.453c1.887 0 3.526-.135 5.136.025 5.349.533 10.731.925 16.019 1.835 6.403 1.102 12.423-.138 18.425-2.045.546-.174 1.054-.469 1.587-.69 1.108-.466 1.689-1.365 1.643-2.493-.161-3.922-.636-6.03-4.657-6.77-.473-.088-.94-.206-1.414-.28-6.346-.986-12.689-1.996-19.042-2.93-2.11-.31-4.167-.425-5.713 1.67-.649.88-1.843 1.357-2.795 2.01-2.698 1.85-5.393 3.704-8.099 5.54-1.499 1.017-1.861 2.313-1.09 4.128zm297.439-297.536l-28.07 17.793c3.308 3.83 12.907 12.33 14.91 13.16 6.712-7.42 13.471-14.894 20.382-22.537l-7.222-8.416zm-316.527 31.04l-26.94-19.862c-2.685 2.722-5.211 5.282-7.8 7.904l19.114 24.356 15.626-12.397zm283.382 268.327c.6-2.248.611-2.477-1.318-3.96-3.284-2.525-6.908-4.669-9.89-7.498-2.204-2.092-4.397-2.337-7.056-2.024-3.245.383-6.512.576-9.753.984-3.618.455-7.241.938-10.818 1.638-2.504.49-3.59 2.243-3.839 5.365-.183 2.301.321 3.021 3.075 4.197.972.414 2.001.693 2.991 1.068 6.508 2.47 13.234 2.04 19.968 1.52l16.64-1.29zm-26.555-148.011c-.947-.065-1.699-.214-2.432-.15-2.972.269-5.935.624-8.906.902-1.427.133-2.581.506-3.107 2.057-.396 1.169-1.271 1.918-2.592 1.969-1.553.06-2.122 1.007-2.344 2.413-.298 1.9-.633 3.8-1.1 5.664-.341 1.363-.92 2.665-1.371 3.937-1.049-.14-2.078-.58-2.425-.267-1.356 1.226-2.454.42-3.701-.056-.973-.373-2.018-.588-3.05-.774-4.072-.731-8.15-1.43-12.23-2.121-.533-.09-1.087-.065-1.722-.1-.422 1.514-1.106 2.833-.252 4.133 6.569 1.645 12.983 3.343 19.446 4.833 3.66.844 7.39 1.319 11.151.318.914-.244 1.926-.092 2.871-.251 3.092-.52 6.335-.1 9.653-1.523 1.027-4.965 2.104-10.04 3.11-15.127.298-1.505.037-2.883-1.74-3.352l.741-2.505zm-198.281 5.774c1.292-.893 1.646-2.064 1.734-3.345.278-4.03.587-8.058.791-12.091.22-4.331.173-8.683.57-12.994.179-1.94 1.083-3.835 1.819-5.687.201-.508.939-1.026 1.503-1.128a56.085 56.085 0 015.947-.738c3.065-.21 6.147-.505 9.206-.38 3.732.154 7.45.678 11.167 1.102.998.113 1.958.564 1.932 1.77-.08 3.694.777 7.298.531 11.06-.396 6.029.046 12.108-.004 18.165-.036 4.534-1.075 4.922 4.726 4.992.249.003.5-.17.698-.242.193-3.348.567-6.606.533-9.86-.095-9.14-.348-18.28-.577-27.421-.016-.63-.343-1.253-.572-2.04-4.654-.55-9.215-1.145-13.789-1.615-5.826-.6-11.657-1.154-17.497-1.598-1.592-.121-3.57-.311-4.758.467-2.578 1.69-5.447 3.466-5.452 7.252-.001.525-.429 1.036-.591 1.574-.377 1.259-.895 2.51-1.028 3.8a132.962 132.962 0 00-.63 9.206c-.203 6.039-.305 12.08-.446 17.99 1.617.68 2.828 1.19 4.187 1.76zm-45.194-131.784c-3.381 1.625-2.991 1.535-2.375 4.187.516 2.22 1.044 4.69-.284 7.045-2.433 4.31-5.95 7.522-9.886 10.378-1.768 1.285-3.491 1.97-5.49.485-.234-.176-.713-.025-1.031-.025-1.157 3.04-1.361 5.746-.565 7.942 2.189-.604 3.899-2.024 5.622-3.372 4.019-3.143 7.973-6.37 11.993-9.51.864-.675 1.901-1.131 2.92-1.724.66 2.04.745 2.142-.76 3.394-5.253 4.372-10.574 8.663-15.854 13-.396.326-.682.783-.991 1.145 1.372 1.19 2.52 2.317 3.799 3.27 5.869 4.378 11.736 8.762 17.682 13.032 3.069 2.204 4.155 2.045 7.68-.59-2.995-2.385-5.496-5.112-7.669-8.238-1.394-2.006-2.81-3.796-3.106-5.86l14.298-13.415c-.928-1.248-1.627-2.3-3.027-2.357-2.537-.104-2.777-.417-2.824-2.932-.048-2.492-.109-5.01-.498-7.461-.623-3.934-3.956-5.713-6.85-8.527 0 2.48.103 4.303-.028 6.11-.133 1.823-.499 3.63-.763 5.444l-.617-.031-1.376-11.39zm246.36 33.74c2.921 2.658 4.08 2.792 7.335.969 7.865-4.402 15.596-9.006 22.572-14.877-.088-.184-.143-.505-.334-.671-2.324-2.016-4.754-3.92-6.986-6.034-3.006-2.847-5.874-5.84-8.775-8.795-.664-.676-1.547-1.486-.627-2.465.985-1.046 1.805.042 2.455.593 1.983 1.678 3.856 3.484 5.788 5.222 3.005 2.702 5.992 5.425 9.058 8.055.802.688 1.868 1.069 3.418 1.924l-.499-8.716c-1.184.346-1.957.66-2.758.779-.708.105-1.643.278-2.144-.065-4.674-3.204-8.498-7.168-11.032-12.341-1.21-2.47.082-4.716.143-7.066.003-.106.273-.29.426-.297 1.719-.09.923-1.317.58-1.774-.651-.868-1.623-1.495-2.763-2.483-1.413 4.05-1.204 8.06-2.592 11.623l-.642-.1v-11.446c-1.419 1.128-2.404 2.004-3.48 2.748-2.181 1.502-3.586 3.537-4.025 6.109-.387 2.265-.498 4.577-.722 6.868-.161 1.64-1.18 2.906-2.444 2.474-2.122-.726-2.615.792-3.701 1.966l13.422 14.488c-.737 1.273-1.343 2.994-2.505 4.163-1.5 1.51-2.743 3.077-3.927 4.856-1.091 1.64-3.271 2.553-4.96 3.802-.139.103-.192.323-.281.49zM302.087 676.2c-2.41-.11-4.694-.177-6.973-.322-2.987-.19-4.048-.844-4.698-3.735-.387-1.724-1.209-2.366-2.748-2.804-.851-.242-1.944-.893-2.225-1.63-.603-1.58-.82-3.324-1.059-5.02-.142-1.006-.026-2.05-.026-3.095-8.089-1.988-16.009-.09-24.162-1.358-.055 4.396-.128 8.51-.148 12.626-.008 1.766.522 3.643-1.267 5.068l-2.094-1.776c-1.126.336-2.221.68-3.327.987-.972.269-1.39.879-1.436 1.884-.102 2.157.463 2.808 2.753 3.052 5.344.567 10.679 1.244 16.033 1.683 4.751.39 9.459 1.789 14.297.654 1.487-.348 3.042-.411 4.563-.622 4.17-.578 8.408-.838 12.517-2.624V676.2zm-5.937-9.52c.7-.154 1.219-.14 1.578-.37 2.757-1.775 5.513-3.556 8.193-5.442.556-.393.898-1.198 1.154-1.881.301-.802.37-1.688.59-2.524 2.553-9.68 4.735-19.435 5.879-29.397.515-4.483 1.006-8.968 1.485-13.455.177-1.656-.728-2.826-2.067-3.51-1.085-.553-2.338-.89-3.553-1.056-2.379-.327-4.78-.57-7.179-.667-6.831-.276-13.666-.483-20.5-.661-.933-.024-2.044-.005-2.783.456-5.886 3.673-11.701 7.457-17.533 11.215-.05.032-.028.176-.05.355.217.086.449.243.694.268 5.257.535 10.522 1.002 15.773 1.593 4.869.548 9.742 1.103 14.576 1.89 2.793.454 3.453 1.495 3.543 4.31.087 2.698.185 5.397.191 8.095.022 10.12.009 20.24.009 30.78zm155.592 114.37l.352-.714c-1.105-1.42-2.213-2.838-3.313-4.26-5.297-6.859-10.716-13.626-15.819-20.624-1.884-2.584-3.412-5.127-7.117-4.72-.18.018-.389-.053-.558-.136-3.615-1.785-7.333-.978-11.045-.465-1.333.185-2.238.78-2.927 2.016-3.092 5.55-6.29 11.04-9.427 16.563-.374.66-.815 1.39-.862 2.112-.28 4.314-.452 8.636-.664 12.955-.075 1.512-.051 3.042-.275 4.532-.217 1.443.053 2.473 1.528 2.958 4.561 1.5 9.124 2.995 13.893 4.56.553-1.069 1.083-2.072 1.596-3.084.956-1.885 1.9-3.778 2.854-5.665 1.84-3.636 4.846-5.517 8.831-6.18 4.399-.732 8.806-.838 13.23-.6 3.245.175 6.483.495 9.723.751zm-211.791-1.586c.633.43.78.611.943.627 6.118.631 12.239 1.246 18.359 1.865 4.089.414 7.877 1.661 11.363 3.883 1.388.885 2.365 2.035 2.769 3.556.682 2.573 1.193 5.192 1.833 8.046 1.278-.52 2.741-1.184 4.25-1.714 3.541-1.244 7.086-2.476 10.664-3.606 1.508-.475 2.163-1.67 1.798-2.83-.595-1.884.028-3.62.003-5.419-.047-3.463-.205-6.926-.181-10.389.01-1.465-.081-2.797-.795-4.139a859.044 859.044 0 01-8.795-16.936c-.597-1.185-1.425-1.81-2.621-1.968-3.527-.466-7.06-.888-10.596-1.28-2.894-.325-4.862 1.072-6.62 3.285-5.394 6.791-10.908 13.487-16.418 20.185-1.882 2.287-3.89 4.47-5.956 6.834zm90.361-172.79l-.085-.58c1.117-.37 2.21-.907 3.356-1.072 2.379-.341 4.808-.345 7.176-.735 10.275-1.69 20.027-4.734 28.741-11.64-2.333-.858-2.835-3.682-5.693-4.1.274 1.949-.935 2.852-2.216 3.779-5.85 4.233-12.474 6.482-19.535 7.432-6.819.917-13.628.419-20.379-.85-2.897-.545-5.785-1.145-8.738-1.732l.267-3.507c1.167.13 2.036.147 2.867.332 6.419 1.434 12.919 2.042 19.49 2.2 6.071.144 11.911-.933 17.554-3.021 2.515-.931 4.87-2.301 7.27-3.523.69-.351 1.355-.845.861-1.826-.45-.893-1.163-.834-1.972-.614-1.861.504-3.782.829-5.587 1.48-9.542 3.449-19.391 4.104-29.373 3.158-3.431-.325-6.805-1.253-10.199-1.934-.235-.047-.422-.332-.755-.608l.834-2.273c15.834 4.306 31.146 2.694 46.324-2.942l-.414-3.231c-14.842 5.34-29.737 6.286-45.21 2.696l.934-3.575c.731.05 1.204.056 1.669.124 2.949.426 5.886.968 8.846 1.286 10.193 1.096 20.192.096 29.958-3.046.908-.292 1.79-.746 2.594-1.264 1.691-1.088 1.864-1.867 1.006-4.388-7.029 1.979-14.204 3.503-21.557 3.52-7.278.018-14.629.686-21.981-1.61l.166-2.521c.908.088 1.566.095 2.2.222 4.831.97 9.703 1.49 14.633 1.438 2.699-.028 5.397-.024 8.095-.08 6.133-.127 11.965-1.937 17.875-3.285.498-.113.854-.846 1.276-1.29-.538-.303-1.076-.864-1.611-.861a44.456 44.456 0 00-5.468.369c-7.954 1.038-15.927 1.176-23.937.86-7.607-.297-15.224-.327-22.837-.457-.568-.01-1.139.126-1.709.194l.032.524 8.288 1.699-.744 2.948-11.169-2.854c-.098.213-.237.38-.246.553-.112 2.392 1.616 3.353 3.401 4.135 2.102.922 4.28 1.67 6.654 2.583l-.898 3.748-9.003-3.714v4.11c2.167.758 4.431 1.529 6.679 2.343 2.085.755 2.106.86.877 3.31-2.738-1.036-5.508-2.086-8.395-3.18l-2.995 2.485 11.638 5.186-.617 2.977c-1.643-.586-3.094-.997-4.455-1.608-4.022-1.81-8-3.712-12.011-5.545-2.172-.992-2.427-.85-3.485 1.745 2.461 1.237 4.952 2.456 7.411 3.735 2.053 1.07 4.025 2.3 6.116 3.285 1.466.69 3.336.743 4.555 1.687 1.961 1.52 4.109 1.958 6.404 2.21 3.388.37 4.945 3.679 7.826 4.875.276.114.425.633.552.992.598 1.695 1.169 3.4 1.806 5.272.063.029.31.219.579.254.667.089 1.343.125 2.016.15 9.964.375 19.794-.691 29.511-2.833.747-.164 1.868-.854 1.95-1.423.323-2.254 2.052-2.606 3.674-3.137a79.46 79.46 0 015.001-1.436c3.216-.822 3.498-1.126 3.647-4.508.045-1.016.007-2.034.007-3.523-.974.639-1.508.987-2.04 1.339-7.56 5.008-15.491 9.068-24.809 9.417-3.653.137-7.313.145-10.97.156-.507.002-1.015-.313-1.523-.481zm-9.991-64.658l40.581-2.512c.373-3.787.975-7.204.994-10.625.043-8.093.871-16.111 1.73-24.137.085-.795-.026-1.861-.497-2.422-2.036-2.428-4.201-4.752-6.4-7.037-1.073-1.117-2.031-.968-3.22.13-.691.638-1.399 1.423-2.244 1.697-2.184.707-4.42 1.372-6.686 1.683-4.42.606-8.843.207-13.203-.672-4.528-.914-9.071-1.795-12.948-4.618-1.002-.73-2.167-.455-3.404.66.857.763 1.607 1.486 2.413 2.14 3.452 2.808 4.5 6.35 4.087 10.774-.436 4.679-.212 9.423-.246 14.139-.018 2.387.166 4.78.019 7.158-.212 3.446-.66 6.875-.964 10.316-.083.934-.012 1.884-.012 3.326zm84.945 137.015l-3.732 48.156c11.368 6.488 23.447 7.873 36.064 6.945 5.02-16.761 7.339-33.707 11.385-50.69-4.619.399-8.715.77-12.814 1.097-1.527.122-3.064.217-4.594.186-4.469-.09-8.705-1.423-12.991-2.507-4.27-1.08-8.567-2.056-13.318-3.187zm38.422-166.901c-10.163-9.622-18.664-21.14-30.884-28.923a150.419 150.419 0 00-12.204 15.879c2.027 2.255 3.902 4.318 5.75 6.405 1.147 1.295 2.343 2.564 3.354 3.962.944 1.308 1.03 2.57.177 4.248-2.785 5.482-5.247 11.127-7.848 16.742l39.294 34.169 12.987-10.157c-2.064-2.164-3.981-4.056-5.765-6.067-4.348-4.896-8.516-9.958-12.997-14.727-2.104-2.24-2.402-3.527-.75-6.362 2.859-4.905 5.739-9.8 8.886-15.17zm-211.843 69.383l43.581-32.72c-.953-2.777-1.895-5.593-2.884-8.394-1.155-3.27-2.245-6.566-3.557-9.771-1.192-2.915-.744-5.19 1.93-6.965.719-.477 1.367-1.066 2.029-1.626 2.555-2.161 5.103-4.331 7.774-6.6-3.854-5.557-9.199-9.355-12.871-14.312-12.591 6.817-21.827 17.19-32.365 26.139.366 1.06.619 1.982.993 2.853 2.014 4.68 4.119 9.323 6.07 14.03 1.557 3.758 1.013 5.605-2.076 8.1-5.469 4.418-10.952 8.819-16.402 13.26-1.385 1.128-2.666 2.382-4.199 3.763l11.977 12.243zm62.045 152.56c2.64-17.11 5.207-33.732 7.753-50.357.053-.342-.131-.72-.228-1.196-1.783.36-3.448.8-5.141 1.022-3.812.5-7.637.904-11.458 1.325-1.43.157-2.891.492-4.295.34-7.354-.787-14.694-1.711-22.04-2.573-1.875-.22-3.756-.39-5.541-.571-.194.379-.35.546-.353.714-.009.669.003 1.34.057 2.007 1.184 14.573 2.396 29.143 3.534 43.72.11 1.406.716 2.107 1.956 2.462 2.499.716 4.988 1.467 7.498 2.143 5.569 1.5 11.1 3.118 17.019 2.171 3.684-.59 7.427-.81 11.239-1.207zm134.773-72.684c.563-5.678 1.073-10.922 1.606-16.163.468-4.588 1.015-9.17 1.421-13.762.236-2.66 1.65-4.245 4.094-4.961 1.936-.566 3.917-.978 5.879-1.457 1.513-.37 3.026-.737 5.202-1.266-1.207-.5-1.719-.74-2.249-.925-5.092-1.79-10.159-3.655-15.288-5.332-9.518-3.113-18.788-6.954-28.51-9.476-2.825-.732-5.391-.82-8.152.154-5.444 1.92-10.928 3.744-16.454 5.413-5.524 1.667-6.38 2.478-6.122 8.313.365 8.252.291 16.547 1.876 24.709.599 3.082 1.211 6.16 1.833 9.316 1.803.2 3.223.38 4.648.51 1.139.103 2.302.036 3.423.229 2.937.506 5.84 1.242 8.788 1.65 7.424 1.03 14.85 2.106 22.308 2.807 3.512.33 7.1-.214 10.654-.244 1.504-.013 3.01.278 5.043.485zM316.818 395.194c-3.921 3.699-6.12 7.693-6.133 12.92-.021 9.047-.352 18.095-.515 27.144-.014.736.014 1.723.454 2.176 2.607 2.685 5.346 5.17 9.254 5.935 1.664.326 3.285 1.035 4.827 1.775 1.399.673 1.928 1.904 1.96 3.552.094 4.8.417 9.597.559 14.398.036 1.209.474 1.93 1.484 2.552 2.458 1.513 4.841 3.147 7.282 4.69.459.29 1.048.55 1.572.54a504.53 504.53 0 0012.397-.4c7.49-.348 14.978-.75 22.466-1.142.826-.044 1.647-.174 2.73-.295 0-1.192.031-2.14-.006-3.084-.101-2.592-.411-5.191-.312-7.775.215-5.648.692-11.286.95-16.934.286-6.244.457-12.493.66-18.741.107-3.271.226-6.543.242-9.815.008-1.611-.202-3.222-.307-4.722-10.179.2-20.075.438-29.972.57-5.319.073-10.234-1.355-14.725-4.29-3.785-2.472-7.653-4.818-11.501-7.192-1.053-.65-2.166-1.202-3.366-1.862zM354.6 483.2l.073.683c.635.115 1.267.309 1.905.33 2.379.08 4.59.65 6.39 2.269 3.071 2.764 6.147 5.529 9.109 8.409 1.477 1.436 2.29 3.343 2.537 5.403.287 2.385.625 4.782.639 7.175.02 3.462-.275 6.925-.349 10.389-.045 2.117.276 4.256.079 6.35-.65 6.9-1.447 13.785-2.223 20.672-.153 1.353-.533 2.65-1.369 3.143-1.607 0-2.694-.062-3.771.012-2.207.153-4.406.425-6.613.565-11.714.74-23.428 1.48-35.145 2.149-1.619.093-3.283-.088-4.886-.37-2.648-.463-4.221-2.283-4.346-4.95-.121-2.594-.236-5.201-.121-7.793.414-9.341.913-18.68 1.417-28.016.085-1.6.349-3.19.531-4.783l-.645.24c-1.14-1.371-2.585-2.59-3.358-4.144-1.724-3.466-4.616-5.857-7.165-8.577-1.448-1.546-2.995-3.014-4.305-4.67-1.687-2.131-1.515-2.857 1.004-3.724 2.806-.968 5.712-1.642 8.578-2.433.733-.203 1.604-.244 1.319-1.523-.438-.033-.901-.122-1.356-.093-5.663.375-11.325.755-16.984 1.172-.653.049-1.292.324-1.932.512-1.173.347-2.341.712-3.514 1.06-.688.203-1.381.387-2.355.66 1.813 2.427 3.192 4.789 5.058 6.665 3.868 3.887 5.45 8.387 5.09 13.829-1.19 17.982-.969 36.04-2.878 53.987-.227 2.14-.026 2.362 2.115 3.154 1.621.6 3.451.769 4.926 1.596 2.004 1.124 4.044 1.092 6.155 1.004 2.498-.103 4.996-.404 7.49-.368 9.06.13 18.12.365 27.179.559.964.02 1.932.084 2.892.024 10.081-.618 20.156-1.39 30.245-1.795 2.343-.094 4.117-2.11 6.545-1.395.21.063.609-.417.883-.682 2.829-2.758 4.64-6.165 5.579-9.917.932-3.726 1.479-7.558 2.03-11.367a1814.777 1814.777 0 003.5-25.433c.509-3.893.827-7.812 1.2-11.421-1.118-.968-2.225-1.56-2.794-2.484-2.079-3.376-5.393-5.36-8.335-7.765-3.88-3.172-7.74-6.37-11.677-9.47-.675-.53-1.721-.947-2.546-.873-4.686.42-9.358.995-14.031 1.548-.601.072-1.18.32-1.77.487zm-214.102 14.11c.074-.617.092-.713.097-.81.228-4.227-.79-8.122-2.976-11.757-.477-.793-.466-1.865-.806-2.76-.84-2.214 1.204-4.778 3.674-5.33 1.53-.342 2.524.527 3.31 1.77 2.112 3.343 4.329 6.62 6.379 9.999 1.25 2.065 2.696 3.667 5.194 4.22 2.132.473 3.526 1.904 4.09 4.067.122.466.396.924.392 1.384-.035 4.219 2.927 5.746 6.229 6.898.637.22 1.597.212 2.142-.123 1.964-1.208 3.62-.71 5.359.465 7.587 5.13 15.19 10.239 22.825 15.296 1.144.757 2.494 1.203 4.165 1.99.245.39.61 1.476 1.363 2.084 1.926 1.557 3.791 3.03 2.926 5.948.543.049.88.19 1.07.08 2.765-1.612 4.746-1.497 7.291.452.992.76 2.066 1.426 2.98 2.268.837.769 1.51 1.717 2.419 2.779.718-.417 1.505-.742 2.135-1.26 4.977-4.09 9.913-8.228 14.884-12.325 3.345-2.756 6.756-5.432 10.085-8.204 6.071-5.057 12.475-9.79 18.013-15.38 3.349-3.38 6.955-3.997 11.288-4.08 2.091-5.116 1.051-11.397 6.123-15.624 7.39-.956 15.188-1.998 22.997-2.96 2.672-.33 5.369-.458 8.055-.681 2.416-.201 2.646-.4 2.78-2.726.366-6.347.686-12.697 1.07-19.043.126-2.105.393-4.202.556-5.898-2.847-2.526-5.487-4.743-7.978-7.116-1.976-1.884-2.81-4.267-2.68-7.062.305-6.552.41-13.114.751-19.665.185-3.551 1.089-7.103.943-10.625-.162-3.926 2.149-6.327 4.064-9.177 2.436-3.625 5.415-5.102 9.907-4.868 6.923.36 13.883-.068 20.828-.056 3.339.006 6.758-.148 9.995.5 4.219.844 8.355 2.24 12.409 3.72 3.612 1.318 7.094 3.01 10.576 4.66 1.726.816 3.324 1.904 4.954 2.853.074.528.177.899.172 1.268-.19 12.909-.309 25.82-.621 38.728-.163 6.74-.679 13.472-1.017 20.207-.154 3.067-.385 6.135-.363 9.2.025 3.397-.781 6.444-3.271 9.216 2.256 1.72 4.345 3.387 6.528 4.919.435.306 1.305.302 1.846.098 4.484-1.686 9.093-2.554 13.882-2.188 1.213.092 2.011-.412 2.79-1.182 1.296-1.283 2.749-2.438 3.878-3.852.863-1.08 1.829-1.328 3.025-1.208 3.388.337 6.398.964 8.702 4.157 2.167 3.002 5.25 5.348 7.95 7.964 4.775 4.628 9.551 9.255 14.352 13.856 3.545 3.397 7.13 6.754 10.698 10.128 2.582 2.44 5.155 4.889 7.757 7.308.618.576 1.337 1.043 1.858 1.444 2.012-1.505 3.803-2.916 5.674-4.211.854-.591 1.836-1.03 2.812-1.4 1.744-.662 3.39-.638 4.685 1 .14.179.504.18.772.267.158-.173.406-.328.39-.443-.413-2.814 1.506-3.971 3.479-5.3 9.692-6.53 19.837-12.273 30.163-17.716 1.557-.821 3.084-1.124 4.579.117.936.779 1.912.756 2.954.21a5.85 5.85 0 011.355-.5c2.625-.623 4.075-2.233 4.572-4.914.636-3.431 2.467-5.8 6.204-6.275 1.767-.225 2.84-1.503 3.836-2.848 2.411-3.254 4.842-6.494 7.266-9.737 1.548-2.07 2.629-2.503 4.326-1.797 1.773.738 3.646 3.256 2.784 5.106-.972 2.087-1.725 4.313-2.959 6.23-.932 1.449-1.539 2.792-1.5 4.519.031 1.33-.217 2.666-.362 4.22 2.499.465 5.074 1.198 7.686 1.372 4.302.287 8.581.72 12.961.178 3.171-.394 6.603.044 9.717.868 2.4.637 4.602 2.294 6.679 3.792 1.54 1.11 1.334 3.084-.312 4.124-3.911 2.47-7.792 5.034-11.907 7.123-2.166 1.1-4.795 1.3-7.224 1.868-1.025.24-2.173.173-3.092.61-5.332 2.53-10.847 2.319-16.413 1.214-2.545-.506-5.083-1.123-7.549-1.92-1.363-.442-2.406-.358-3.463.55-1.005.866-2.054 1.68-3.031 2.473 1.645 3.608 1.731 3.69-.97 6.555-8.595 9.112-17.258 18.159-25.9 27.226-.332.349-.726.635-1.075.968-1.427 1.36-2.965 2.164-5.327.54.218 1.325.259 2.154.497 2.923.921 2.975.542 4.499-1.962 6.207-2.146 1.465-4.454 2.69-6.636 4.106-2.088 1.355-4.202 2.698-6.134 4.257-4.359 3.52-8.777 6.894-13.897 9.302-3.768 1.77-7.124 1.209-10.28-1.201-1.247-.951-2.298-1.481-3.889-.65-2.101 1.102-4.102.522-5.914-.924-5.5-4.39-11.079-8.682-16.514-13.152-9.153-7.526-18.217-15.162-27.326-22.743-.285-.237-.646-.383-1.348-.79-.282 1.234-.631 2.28-.748 3.352-.448 4.109-.787 8.23-1.233 12.339-.514 4.75-2.458 8.878-5.698 12.37-.488.526-1.291.77-1.966 1.11-3.18 1.595-6.355 3.198-9.558 4.744a6.556 6.556 0 01-2.189.6c-3.257.304-6.523.53-9.783.804-.55.046-1.092.186-1.748.3l.934 16.615c4.529.895 6.378 4.614 8.621 7.794 1.178 1.67.689 3.77-.196 5.524-.653 1.297-.777 2.503-.477 4.23 1.55-.35 2.93-.626 4.291-.975 4.47-1.15 8.943-1.183 13.457-.242 9.726 2.027 19.428 4.199 28.772 7.598 10.865 3.953 21.621 8.208 32.406 12.376 2.331.9 4.576 2.024 6.884 2.986 3.103 1.293 5.021 3.85 6.828 6.466.497.72.579 1.825.601 2.76.189 7.803-1.291 15.359-3.788 22.697-.659 1.936-1.827 3.975-3.35 5.277-2.432 2.079-3.203 4.85-3.636 7.555-2.821 17.607-6.62 35.005-10.66 52.36a1828.643 1828.643 0 01-5.245 21.925c-.235.957-.865 1.816-1.437 2.973-.934-.605-1.504-1.168-2.179-1.357-.658-.185-1.675-.267-2.086.103-.713.643-1.04 1.876-.08 2.518 1.287.862 1.132 1.961.86 3.052-.349 1.397.127 2.375 1.003 3.402a3178.73 3178.73 0 0117.366 20.527c1.548 1.845 2.967 3.8 4.423 5.72 2.057 2.711 2.046 6.407.01 9.29-.152.215-.197.507-.447 1.183 1.327.11 2.51.361 3.668.272 3.03-.234 5.647.566 8.09 2.402 2.85 2.143 5.934 3.973 8.792 6.104 4.063 3.03 4.854 6.21 2.955 10.874-.145.357-.325.712-.397 1.085-.805 4.173-3.503 5.843-7.567 6.15-9.55.724-19.075.468-28.563-.644-2.641-.309-5.204-1.373-7.772-2.187-2.534-.8-3.932-2.687-4.522-5.204-.284-1.209-.472-2.44-.746-3.889-1.927.218-3.878.2-5.689.691-4.633 1.262-8.953.156-13.254-1.36-2.814-.993-5.587-2.098-8.404-3.082-2.365-.827-3.969-2.288-4.507-4.808-.138-.644-.41-1.259-.669-2.036-.693.154-1.352.224-1.955.446-3.489 1.283-6.63.09-9.722-1.353-1.498-.699-2.278-1.995-2.683-3.572-1.423-5.549-2.164-11.156-1.399-16.877.46-3.433.965-6.863 1.567-10.274.864-4.896 3.663-8.67 7.373-11.763 2.364-1.97 4.923-3.718 7.482-5.432.932-.625 1.315-1.316 1.305-2.359-.015-1.632-.004-3.262-.004-4.796-3.812-2.588-3.889-2.594-3.468-7.429a3070.24 3070.24 0 012.98-32.483 910.927 910.927 0 012.406-21.8c.326-2.663.999-5.285 1.489-7.797 3.561-1.363 7.579-.933 10.663-3.861-5.67-.684-10.874-1.158-16.025-1.97-9.497-1.493-18.967-3.168-28.441-4.807-2.276-.394-4.517-.998-6.791-1.407-2.673-.482-4.239-2.136-5.099-4.577-.505-1.433-.92-2.9-1.483-4.693-13.139 4.754-26.523 5.558-40.53 3.995-1.118 1.45-1.638 3.638-2.102 5.719-.594 2.664-1.709 4.312-4.409 5.442-4.072 1.705-7.878 4.058-11.741 6.236-.784.442-1.318 1.329-2.415 2.48l9.807 1.497c0 2.978.187 5.85-.043 8.689-.363 4.498-.982 8.976-1.536 13.459a1732.538 1732.538 0 01-2.337 18.3c-1.103 8.197-2.273 16.384-3.393 24.578-.261 1.906-.831 2.623-2.766 3.196-.72.214-1.442.421-2.419.705l.394 3.434c5.661 3.764 10.972 7.424 14.09 13.386.575 1.101 1.106 2.268 1.393 3.468 1.28 5.366 1.757 10.818 1.675 16.338-.041 2.77.194 5.544.237 8.317.013.854-.305 1.713-.282 2.565.126 4.557-2.622 6.428-6.58 7.42-3.023.755-5.87.476-8.557-.823-.246.24-.487.368-.479.477.221 2.805-1.478 4.233-3.773 5.135-1.429.56-2.924.971-4.415 1.35-4.294 1.087-8.582 2.207-12.907 3.157-3.948.867-7.856.023-11.75-.639-.278-.047-.559-.068-1.071-.129-.244.8-.548 1.583-.721 2.394-.668 3.128-2.527 5.01-5.586 6.008-3.9 1.275-7.881 1.878-11.944 1.88-6.262.003-12.528-.055-18.786-.262-2.387-.08-4.758-.64-7.137-.977-2.769-.39-4.108-2.275-4.917-4.706-.394-1.185-.819-2.362-1.128-3.569-.765-2.99-.47-5.87 1.961-7.953 2.184-1.869 4.686-3.368 7.053-5.02.395-.277.841-.48 1.228-.765 3.862-2.828 8.031-4.506 12.936-3.567.45.086.943-.05 1.388-.08.086-.258.25-.528.188-.597-1.731-1.938-2.244-4.159-1.464-6.623.364-1.149.666-2.459 1.422-3.323 5.455-6.236 11.016-12.38 16.551-18.545 2.125-2.367 4.236-4.747 6.423-7.055.875-.923 1.11-1.842 1.021-3.116-.156-2.204.008-4.43.03-6.646.01-.95.002-1.902.002-2.732l-7.279-3.648c-.338-6.419-.611-12.753-1.025-19.079-.295-4.512-.744-9.015-1.186-13.515-.894-9.103-1.701-18.208-1.59-27.368.001-.097.006-.194.003-.29-.102-3.846-.098-3.824 3.866-4.56 1.403-.261 2.779-.661 4.311-1.033v-3.77c-1.811.322-3.438.672-5.081.887-2.998.392-5.614-1.64-5.599-4.645.021-4.236.353-8.47.572-12.704.06-1.154.202-2.302.282-3.455.427-6.147.952-12.291 1.21-18.446.087-2.07.957-3.482 2.382-4.681 3.758-3.166 7.503-6.355 11.376-9.378 3.796-2.964 7.569-6.025 11.674-8.511 4.065-2.462 7.797-5.635 12.91-6.684-.23-.905-.193-1.816-.63-2.264-1.133-1.162-.867-2.48-.775-3.803.08-1.144.189-2.29.367-3.422.102-.65.195-1.427.593-1.886 1.51-1.741 2.933-3.684 4.798-4.95 1.416-.96 3.451-1.014 5.214-1.454.458-.114.931-.165 1.486-.261 1.276-4.578.773-9.205 1.053-14.09-3.075-1.091-5.981-2.575-9.049-3.091-3.488-.587-5.028-2.622-5.729-5.61-.62-2.64-2.107-4.697-3.8-6.94-.71.386-1.405.675-1.999 1.103-7.811 5.648-15.561 11.38-23.422 16.957-6.837 4.849-13.793 9.53-20.704 14.274-.715.49-1.483.902-2.226 1.352-1.514.917-3.178 1.18-4.682.278-1.877-1.126-3.358-.817-4.969.47-.723.579-1.733.824-2.64 1.138-2.001.693-3.931.553-5.882-.362-5.419-2.54-9.803-6.45-14.064-10.513-2.022-1.93-3.99-3.855-6.46-5.275-2.16-1.243-4.158-2.8-6.117-4.356-2.367-1.88-2.66-3.451-1.522-6.335.276-.697.43-1.441.767-2.603-3.213 1.304-4.957-.48-6.563-2.428-7.96-9.664-15.92-19.331-23.822-29.042-2.356-2.896-2.273-2.963-.3-6.46-1.221-1.061-2.438-2.273-3.825-3.241-.516-.361-1.498-.363-2.155-.16-4.388 1.347-8.928 1.387-13.437 1.738-3.5.272-6.615-.991-9.76-2.25-1.413-.564-2.905-.967-4.393-1.301-3.225-.723-6.31-1.704-9.005-3.73-2.775-2.084-5.63-4.062-8.454-6.077-2.6-1.855-2.437-4.092.423-5.486 1.797-.874 3.55-2.23 5.432-2.45 3.602-.423 7.347-.646 10.91-.124 5.304.775 10.52.785 15.798.149 1.306-.157 2.648-.023 4.093-.023z" fill="#000"/><path d="M354.6 483.2c.59-.165 1.169-.414 1.77-.485 4.673-.553 9.345-1.128 14.031-1.548.825-.074 1.871.343 2.546.874 3.937 3.099 7.798 6.297 11.677 9.469 2.942 2.406 6.256 4.388 8.335 7.764.569.924 1.676 1.517 2.794 2.485-.373 3.608-.691 7.527-1.199 11.42a1844.83 1844.83 0 01-3.5 25.433c-.552 3.81-1.099 7.642-2.031 11.367-.939 3.752-2.75 7.16-5.579 9.917-.274.266-.673.745-.883.683-2.428-.716-4.202 1.3-6.544 1.394-10.09.406-20.165 1.177-30.246 1.795-.96.06-1.928-.004-2.892-.024-9.059-.193-18.118-.43-27.178-.56-2.495-.035-4.993.266-7.491.37-2.11.087-4.151.12-6.155-1.004-1.475-.828-3.305-.995-4.926-1.596-2.141-.793-2.342-1.015-2.114-3.154 1.908-17.948 1.688-36.005 2.877-53.988.36-5.441-1.222-9.942-5.089-13.83-1.867-1.875-3.245-4.236-5.058-6.664.973-.272 1.666-.457 2.354-.66 1.173-.348 2.341-.713 3.514-1.06.64-.188 1.279-.462 1.932-.511 5.659-.417 11.322-.797 16.984-1.172.455-.03.918.059 1.356.093.285 1.278-.586 1.319-1.319 1.522-2.865.79-5.772 1.466-8.578 2.434-2.518.867-2.691 1.592-1.004 3.723 1.31 1.657 2.857 3.124 4.305 4.67 2.549 2.72 5.441 5.112 7.165 8.577.773 1.554 2.218 2.774 3.358 4.145l.645-.24c-.182 1.593-.445 3.183-.531 4.783-.504 9.337-1.003 18.675-1.417 28.016-.115 2.59 0 5.199.121 7.793.125 2.666 1.699 4.487 4.346 4.95 1.603.282 3.267.463 4.886.37 11.717-.668 23.431-1.41 35.145-2.15 2.207-.14 4.406-.412 6.613-.564 1.077-.074 2.164-.013 3.771-.013.836-.492 1.216-1.79 1.369-3.142.777-6.887 1.573-13.772 2.223-20.671.198-2.096-.124-4.235-.079-6.352.074-3.464.369-6.927.349-10.388-.014-2.394-.352-4.791-.638-7.175-.248-2.061-1.06-3.967-2.537-5.404-2.962-2.88-6.039-5.644-9.11-8.41-1.8-1.618-4.011-2.187-6.389-2.267-.639-.022-1.271-.215-1.906-.33l-.073-.684m-2.3-51.144c.023-2.727-1.375-4.433-3.746-4.45-2.501-.02-4.614 2.294-4.647 4.842-.031 2.374 2.435 5.195 4.418 5.225 2.447.037 3.944-2.034 3.975-5.617m17.937-.303c.005-3.911-2.79-5.69-5.865-4.134-1.32.667-3.022 3.378-2.74 4.776.405 2.009 1.171 3.926 3.277 4.76.53.21 1.394.146 1.865-.161 2.015-1.314 3.249-3.184 3.463-5.241m-32.883-18.733c-.245 2.085-.588 3.918-.654 5.76-.25 7.016-.414 14.035-.604 21.052-.081 2.983-.118 5.967-.225 8.95-.159 4.417-.395 8.83-.518 13.249-.024.86.321 1.73.606 3.147.667-.905 1.156-1.26 1.166-1.627.447-16.62.854-33.241 1.236-49.863.003-.136-.41-.282-1.007-.668m-20.536-17.827c1.2.66 2.313 1.212 3.366 1.862 3.848 2.374 7.716 4.72 11.501 7.192 4.49 2.935 9.406 4.363 14.725 4.29 9.897-.132 19.793-.37 29.972-.57.105 1.5.315 3.11.307 4.722-.016 3.272-.135 6.544-.242 9.815-.203 6.248-.374 12.497-.66 18.74-.258 5.649-.735 11.287-.95 16.935-.099 2.584.211 5.183.312 7.775.037.945.006 1.892.006 3.084-1.083.12-1.904.25-2.73.295-7.488.393-14.976.794-22.466 1.143-4.13.19-8.264.309-12.397.398-.524.012-1.113-.25-1.572-.54-2.441-1.542-4.824-3.176-7.282-4.69-1.01-.62-1.449-1.342-1.484-2.551-.142-4.801-.466-9.598-.559-14.398-.032-1.648-.561-2.88-1.96-3.552-1.542-.74-3.163-1.45-4.827-1.775-3.908-.765-6.647-3.25-9.254-5.935-.44-.453-.468-1.44-.454-2.176.163-9.05.494-18.097.515-27.144.013-5.227 2.212-9.221 6.133-12.92M428.663 661.39c-2.034-.207-3.54-.498-5.043-.485-3.555.03-7.143.574-10.654.244-7.458-.701-14.884-1.776-22.308-2.806-2.949-.41-5.851-1.145-8.788-1.651-1.122-.193-2.285-.126-3.424-.23-1.425-.128-2.845-.308-4.647-.51-.622-3.155-1.235-6.233-1.833-9.315-1.586-8.162-1.511-16.457-1.876-24.71-.258-5.834.598-6.645 6.121-8.312 5.527-1.67 11.011-3.493 16.455-5.413 2.761-.974 5.327-.886 8.151-.154 9.723 2.522 18.993 6.363 28.511 9.476 5.128 1.677 10.195 3.543 15.288 5.332.53.186 1.042.426 2.249.925-2.176.529-3.689.896-5.202 1.266-1.962.479-3.943.89-5.879 1.457-2.445.716-3.859 2.302-4.094 4.96-.406 4.594-.954 9.175-1.421 13.763-.533 5.24-1.043 10.485-1.606 16.163M293.89 734.074c-3.812.396-7.555.617-11.239 1.207-5.919.947-11.449-.671-17.019-2.171-2.51-.676-4.999-1.427-7.498-2.142-1.24-.356-1.846-1.057-1.956-2.462-1.138-14.578-2.35-29.148-3.534-43.721a21.321 21.321 0 01-.057-2.007c.003-.168.159-.335.353-.714 1.785.183 3.666.352 5.541.572 7.347.862 14.686 1.786 22.04 2.574 1.404.15 2.866-.185 4.295-.342 3.822-.421 7.646-.824 11.458-1.324 1.693-.222 3.358-.661 5.141-1.023.097.477.281.855.228 1.197-2.546 16.625-5.113 33.247-7.753 50.356m-62.045-152.56c-4.068-4.16-7.894-8.07-11.977-12.243 1.533-1.381 2.814-2.635 4.199-3.763 5.449-4.441 10.933-8.842 16.402-13.26 3.089-2.495 3.633-4.342 2.075-8.1-1.95-4.707-4.056-9.35-6.069-14.03-.374-.871-.628-1.792-.993-2.853 10.537-8.95 19.773-19.322 32.364-26.14 3.672 4.958 9.017 8.756 12.872 14.313-2.672 2.269-5.22 4.439-7.774 6.6-.662.56-1.31 1.149-2.03 1.626-2.673 1.776-3.122 4.05-1.929 6.965 1.311 3.205 2.402 6.502 3.556 9.77.989 2.802 1.931 5.618 2.884 8.396l-43.58 32.719m211.843-69.382c-3.147 5.37-6.027 10.264-8.886 15.169-1.652 2.835-1.354 4.123.75 6.362 4.481 4.769 8.649 9.83 12.996 14.727 1.785 2.01 3.702 3.903 5.766 6.067l-12.987 10.156c-13.003-11.306-26.12-22.713-39.294-34.17 2.6-5.613 5.063-11.258 7.848-16.741.852-1.677.767-2.94-.177-4.247-1.011-1.398-2.207-2.667-3.354-3.963-1.849-2.087-3.723-4.15-5.75-6.404a150.419 150.419 0 0112.204-15.88c12.22 7.784 20.721 19.302 30.884 28.924m-38.422 166.9c4.751 1.132 9.048 2.107 13.318 3.188 4.286 1.083 8.522 2.416 12.991 2.506 1.53.032 3.067-.063 4.594-.185 4.099-.326 8.195-.698 12.813-1.097-4.046 16.983-6.364 33.929-11.384 50.69-12.617.927-24.696-.457-36.064-6.946l3.732-48.156" fill="#FFF"/><path d="M320.32 542.017c0-1.442-.07-2.392.013-3.326.304-3.441.752-6.87.964-10.316.146-2.377-.038-4.771-.02-7.158.034-4.716-.19-9.46.247-14.14.413-4.422-.635-7.965-4.088-10.772-.805-.655-1.556-1.378-2.412-2.141 1.236-1.115 2.402-1.39 3.403-.66 3.878 2.823 8.421 3.704 12.949 4.618 4.359.879 8.782 1.278 13.202.672 2.266-.311 4.503-.976 6.687-1.683.845-.274 1.553-1.06 2.243-1.697 1.19-1.098 2.147-1.247 3.221-.13 2.198 2.285 4.363 4.609 6.4 7.037.471.56.582 1.627.496 2.422-.859 8.026-1.686 16.045-1.73 24.137-.018 3.42-.62 6.838-.993 10.625l-40.582 2.512m9.992 64.659c.508.168 1.016.482 1.523.48 3.658-.01 7.317-.018 10.971-.155 9.318-.35 17.248-4.41 24.809-9.417.531-.352 1.066-.7 2.039-1.34 0 1.49.038 2.508-.007 3.524-.149 3.382-.431 3.686-3.647 4.508a79.46 79.46 0 00-5.001 1.436c-1.622.53-3.351.883-3.674 3.137-.081.569-1.202 1.259-1.95 1.423-9.717 2.142-19.547 3.208-29.51 2.834a21.565 21.565 0 01-2.017-.151c-.268-.035-.516-.225-.578-.255-.638-1.871-1.208-3.576-1.807-5.271-.127-.36-.276-.878-.552-.992-2.881-1.197-4.438-4.505-7.826-4.875-2.294-.252-4.443-.69-6.404-2.21-1.219-.945-3.089-.997-4.555-1.687-2.09-.984-4.063-2.216-6.116-3.285-2.459-1.28-4.949-2.498-7.41-3.735 1.057-2.595 1.313-2.738 3.484-1.745 4.011 1.833 7.989 3.736 12.011 5.545 1.361.61 2.812 1.022 4.455 1.608l.617-2.978-11.638-5.185 2.995-2.485c2.888 1.094 5.657 2.144 8.395 3.18 1.229-2.45 1.208-2.555-.877-3.31-2.248-.814-4.512-1.585-6.679-2.343v-4.11l9.003 3.714.899-3.748c-2.374-.912-4.553-1.661-6.655-2.583-1.785-.782-3.513-1.743-3.401-4.135.009-.173.148-.34.247-.553 3.652.933 7.322 1.87 11.168 2.854l.745-2.948c-2.889-.592-5.589-1.145-8.289-1.7l-.032-.524c.57-.067 1.141-.203 1.709-.193 7.613.13 15.23.16 22.837.458 8.01.315 15.983.177 23.938-.861a44.038 44.038 0 015.467-.37c.535-.002 1.074.559 1.611.862-.422.444-.778 1.177-1.276 1.29-5.91 1.348-11.742 3.158-17.875 3.285-2.697.056-5.396.052-8.094.08-4.93.053-9.803-.468-14.634-1.438-.634-.127-1.292-.134-2.2-.222l-.166 2.522c7.352 2.294 14.703 1.627 21.981 1.609 7.353-.017 14.528-1.541 21.557-3.521.859 2.522.685 3.3-1.006 4.389-.804.518-1.686.972-2.593 1.264-9.766 3.142-19.765 4.14-29.959 3.046-2.96-.318-5.897-.86-8.846-1.286-.464-.068-.938-.073-1.669-.124l-.934 3.575c15.473 3.59 30.369 2.645 45.21-2.697l.414 3.232c-15.178 5.636-30.49 7.248-46.324 2.942l-.834 2.273c.333.276.52.56.755.608 3.394.68 6.769 1.608 10.199 1.934 9.982.946 19.831.29 29.373-3.158 1.805-.651 3.727-.976 5.587-1.48.809-.22 1.522-.28 1.972.614.494.98-.171 1.475-.86 1.825-2.401 1.223-4.756 2.593-7.271 3.524-5.643 2.088-11.483 3.165-17.554 3.02-6.57-.157-13.07-.765-19.49-2.2-.831-.184-1.699-.201-2.866-.331l-.268 3.507c2.954.587 5.841 1.186 8.739 1.73 6.75 1.27 13.559 1.769 20.379.852 7.06-.95 13.685-3.2 19.534-7.433 1.281-.926 2.49-1.83 2.216-3.778 2.859.418 3.36 3.242 5.693 4.1-8.714 6.906-18.465 9.95-28.741 11.64-2.368.39-4.797.394-7.176.735-1.146.165-2.239.703-3.356 1.072l.085.58m-90.361 172.79c2.066-2.364 4.074-4.547 5.956-6.834 5.51-6.698 11.024-13.395 16.419-20.186 1.757-2.212 3.725-3.609 6.619-3.286 3.536.394 7.069.816 10.596 1.282 1.196.157 2.024.783 2.621 1.967a856.33 856.33 0 008.795 16.937c.714 1.342.806 2.674.795 4.14-.024 3.461.134 6.924.181 10.388.025 1.798-.598 3.534-.003 5.418.365 1.16-.29 2.356-1.798 2.831-3.577 1.13-7.123 2.362-10.663 3.606-1.51.53-2.973 1.194-4.251 1.714-.64-2.854-1.151-5.473-1.833-8.046-.404-1.52-1.381-2.67-2.768-3.556-3.487-2.223-7.275-3.469-11.364-3.883-6.12-.619-12.24-1.234-18.359-1.865-.163-.017-.31-.197-.943-.627m211.791 1.585c-3.24-.256-6.478-.576-9.723-.75-4.424-.239-8.831-.133-13.23.6-3.984.662-6.991 2.543-8.831 6.18-.954 1.886-1.898 3.78-2.854 5.664-.513 1.012-1.043 2.015-1.596 3.083-4.769-1.564-9.331-3.059-13.893-4.559-1.475-.486-1.745-1.515-1.528-2.958.224-1.49.2-3.02.275-4.532.212-4.319.384-8.64.664-12.956.047-.72.488-1.45.862-2.11 3.137-5.525 6.335-11.016 9.427-16.564.689-1.236 1.594-1.83 2.927-2.016 3.712-.514 7.43-1.32 11.045.465.169.083.378.154.558.135 3.705-.407 5.233 2.137 7.117 4.72 5.103 6.998 10.522 13.766 15.819 20.623 1.1 1.424 2.209 2.841 3.313 4.262l-.352.713M296.15 666.68c0-10.54.013-20.66-.009-30.78-.006-2.698-.104-5.397-.191-8.094-.09-2.816-.75-3.857-3.543-4.312-4.834-.786-9.707-1.341-14.576-1.89-5.251-.59-10.516-1.057-15.773-1.592-.245-.025-.477-.182-.694-.27.022-.177 0-.321.05-.353 5.832-3.758 11.647-7.542 17.533-11.215.739-.461 1.85-.48 2.783-.456 6.834.178 13.669.385 20.5.66 2.399.099 4.8.34 7.179.668 1.215.167 2.468.503 3.553 1.057 1.339.682 2.244 1.853 2.067 3.509-.479 4.487-.97 8.972-1.485 13.455-1.144 9.962-3.326 19.717-5.879 29.397-.221.836-.289 1.722-.59 2.524-.256.683-.598 1.488-1.154 1.88-2.68 1.887-5.437 3.667-8.193 5.443-.359.23-.878.216-1.578.37m5.937 9.519v2.97c-4.109 1.786-8.347 2.046-12.518 2.624-1.521.21-3.075.273-4.563.622-4.837 1.135-9.545-.264-14.296-.654-5.354-.44-10.689-1.117-16.034-1.684-2.289-.243-2.854-.895-2.753-3.052.047-1.005.465-1.614 1.436-1.884 1.106-.306 2.202-.651 3.328-.987l2.094 1.776c1.788-1.424 1.259-3.301 1.267-5.068.019-4.115.093-8.23.148-12.626 8.153 1.269 16.073-.63 24.162 1.359 0 1.045-.116 2.088.026 3.094.239 1.697.455 3.442 1.059 5.022.281.735 1.373 1.386 2.225 1.629 1.539.437 2.361 1.08 2.748 2.803.65 2.89 1.711 3.545 4.697 3.736 2.28.144 4.564.213 6.974.32m152.107-109.197c.091-.167.143-.388.282-.49 1.689-1.25 3.869-2.162 4.96-3.802 1.184-1.78 2.427-3.347 3.927-4.856 1.162-1.17 1.769-2.89 2.505-4.164l-13.422-14.488c1.086-1.174 1.579-2.691 3.702-1.966 1.263.433 2.282-.833 2.443-2.473.225-2.291.336-4.604.722-6.868.439-2.573 1.845-4.607 4.025-6.11 1.077-.743 2.062-1.62 3.48-2.747v11.446l.642.1c1.389-3.562 1.179-7.572 2.592-11.623 1.14.987 2.112 1.614 2.763 2.482.343.457 1.14 1.685-.579 1.775-.153.008-.423.19-.426.297-.062 2.349-1.353 4.596-.143 7.066 2.533 5.173 6.358 9.137 11.032 12.34.501.344 1.435.17 2.143.065.802-.12 1.574-.432 2.759-.778l.498 8.716c-1.55-.856-2.615-1.236-3.417-1.924-3.067-2.631-6.054-5.353-9.059-8.056-1.932-1.737-3.805-3.544-5.787-5.221-.65-.551-1.471-1.64-2.456-.593-.92.978-.037 1.789.627 2.465 2.902 2.956 5.77 5.948 8.776 8.795 2.231 2.114 4.661 4.017 6.985 6.034.191.166.247.486.334.67-6.976 5.872-14.707 10.475-22.572 14.878-3.255 1.823-4.414 1.688-7.336-.97m-246.358-33.74l1.376 11.39.617.03c.264-1.813.63-3.62.762-5.443.132-1.807.029-3.63.029-6.11 2.894 2.814 6.227 4.593 6.85 8.527.389 2.452.45 4.969.497 7.46.048 2.516.288 2.829 2.825 2.933 1.399.058 2.099 1.109 3.026 2.357l-14.297 13.416c.296 2.063 1.712 3.853 3.106 5.859 2.173 3.126 4.674 5.852 7.669 8.239-3.525 2.634-4.611 2.793-7.68.589-5.947-4.27-11.813-8.654-17.682-13.032-1.279-.953-2.427-2.08-3.799-3.27.31-.362.595-.82.991-1.144 5.28-4.338 10.601-8.63 15.854-13.001 1.504-1.252 1.42-1.354.76-3.394-1.019.593-2.056 1.049-2.92 1.725-4.02 3.14-7.974 6.366-11.993 9.509-1.723 1.348-3.433 2.768-5.622 3.372-.796-2.196-.592-4.901.565-7.942.317 0 .797-.151 1.032.025 1.998 1.486 3.721.8 5.49-.485 3.935-2.856 7.452-6.067 9.884-10.38 1.329-2.353.801-4.822.285-7.043-.616-2.652-1.006-2.562 2.375-4.187" fill="#FFF"/><path d="M253.03 665.048l-4.187-1.761c.141-5.91.243-11.951.446-17.99.104-3.073.313-6.148.63-9.206.133-1.29.651-2.541 1.028-3.8.162-.538.59-1.05.591-1.574.005-3.786 2.874-5.563 5.452-7.252 1.188-.778 3.166-.588 4.758-.467 5.84.444 11.671.999 17.497 1.598 4.574.47 9.135 1.065 13.789 1.615.229.787.556 1.41.572 2.04.229 9.14.482 18.28.577 27.422.034 3.253-.34 6.51-.533 9.858-.198.073-.449.246-.698.243-5.801-.07-4.762-.458-4.726-4.993.05-6.056-.392-12.135.004-18.164.246-3.762-.611-7.366-.531-11.06.026-1.206-.934-1.657-1.932-1.771-3.717-.424-7.435-.947-11.167-1.1-3.059-.126-6.141.169-9.206.379a55.57 55.57 0 00-5.947.738c-.564.1-1.302.62-1.503 1.128-.736 1.85-1.64 3.747-1.819 5.686-.397 4.312-.35 8.663-.57 12.994-.204 4.034-.513 8.062-.791 12.09-.088 1.283-.442 2.453-1.734 3.347m198.281-5.775l-.741 2.505c1.777.47 2.038 1.848 1.741 3.352-1.007 5.088-2.084 10.163-3.11 15.127-3.319 1.423-6.561 1.004-9.654 1.523-.945.159-1.957.008-2.871.25-3.761 1.002-7.49.527-11.151-.317-6.463-1.49-12.877-3.188-19.446-4.833-.853-1.3-.17-2.62.253-4.131.634.033 1.188.008 1.722.098 4.079.692 8.157 1.39 12.23 2.12 1.031.187 2.076.402 3.049.775 1.247.476 2.346 1.282 3.701.056.347-.313 1.376.128 2.425.267.452-1.271 1.03-2.574 1.372-3.937.466-1.863.801-3.764 1.1-5.664.221-1.406.79-2.353 2.343-2.413 1.321-.05 2.197-.8 2.593-1.968.525-1.552 1.679-1.925 3.107-2.058 2.97-.277 5.934-.633 8.905-.9.733-.066 1.485.084 2.432.148m26.555 148.011l-16.641 1.289c-6.734.52-13.46.95-19.968-1.518-.989-.375-2.018-.655-2.99-1.07-2.755-1.175-3.259-1.894-3.075-4.195.249-3.122 1.335-4.875 3.839-5.365 3.576-.701 7.199-1.184 10.818-1.638 3.241-.408 6.508-.602 9.752-.984 2.66-.314 4.852-.07 7.057 2.023 2.981 2.829 6.606 4.974 9.889 7.498 1.929 1.483 1.919 1.712 1.319 3.96M194.484 538.959l-15.626 12.396L159.745 527l7.799-7.904 26.94 19.863m316.527-31.041c2.49 2.9 4.786 5.577 7.222 8.416l-20.382 22.538c-2.003-.83-11.602-9.33-14.91-13.161l28.07-17.793m-297.44 297.536c-.771-1.815-.409-3.111 1.09-4.13 2.707-1.835 5.402-3.69 8.099-5.54.952-.651 2.147-1.13 2.796-2.01 1.546-2.093 3.603-1.98 5.712-1.67 6.354.936 12.696 1.946 19.042 2.93.475.075.942.193 1.414.28 4.022.742 4.496 2.85 4.658 6.772.046 1.128-.536 2.026-1.644 2.49-.533.224-1.04.519-1.587.692-6.002 1.908-12.022 3.148-18.424 2.045-5.289-.91-10.67-1.301-16.019-1.835-1.61-.16-3.25-.024-5.137-.024M359.166 611.63c5.408-1.798 10.747-3.647 16.136-5.334 2.563-.802 5.201-1.408 7.842-1.901 3.785-.708 3.8-.63 7.969 1.394-.934.363-1.664.679-2.414.934-6.095 2.07-12.207 4.09-18.272 6.245-.78.276-1.655 1.12-1.902 1.89-.577 1.805-1.085 3.718-1.121 5.597-.195 10.097.191 20.174 1.442 30.208.164 1.312.023 2.66.023 4.422l-5.758-.757c-3.385-17.827-5.171-37.44-3.945-42.698m-8.224-128.348c.157.492.271.672.262.846-.248 5.077-.235 5.19-5.326 5.874-6.538.878-12.855-.3-19.002-2.534-1.33-.485-2.632-1.044-4.146-1.648l-.351 3.152c4.396 2.806 9.315 3.63 14.29 4.13 4.903.492 9.756.006 14.55-1.69.232 1.863-.213 2.864-1.804 3.38-3.806 1.236-7.609 1.858-11.642 1.2-5.136-.837-10.319-1.447-15.181-3.398-1.274-.511-2.462-1.476-3.399-2.5-.623-.678-.73-1.831-1.209-3.161l2.37.195c.858-1.312.701-2.43-.549-3.487-1.466-1.24-2.518-2.687-1.679-4.997l2.489.933c.558-1.651.256-2.927-1.013-3.98-.963-.797-1.45-1.786-.87-3.273l1.855.253c.085-.233.284-.498.248-.725-.133-.822-.069-2.026-.574-2.38-2.394-1.671-1.38-3.917-1.504-6.124l2.16-.108c-.151-.848-.01-2.02-.485-2.38-1.969-1.484-1.429-3.375-1.265-5.436h1.68c.413-1.543.636-2.876-.853-3.944-1.186-.85-.719-2.03-.492-3.142 3.779.283 4.947 1.6 4.372 4.936-.504.115-1.036.237-1.89.43.232 1.123.171 2.392.735 3.25 1.588 2.414 1.605 2.94-.092 5.159-.417.545-.532 2.085-.195 2.32 2.298 1.604 1.488 4.165 2.402 6.394l-2.034.337c-.411 3.074-.406 3.185 2.511 3.436 1.33.116 2.086.645 2.711 1.756.791 1.406 1.746 2.72 2.32 4.59l-7.362-2.74c-.652 2.743-.616 2.696 1.338 3.736 5.152 2.74 10.739 2.818 16.348 2.74.746-.01 1.538-.26 2.222-.582 2.663-1.253 5.428-.46 8.054-.818m-26.647 164.896c6.776-9.376 5.995-19.81 5.349-30.43l5.366-.32c.154 1.148.4 2.223.423 3.303a60.986 60.986 0 01-1.724 15.749c-.159.653-.372 1.316-.38 1.977-.025 1.896 1.191 3.055 3.055 2.959 3.744-.19 7.484-.43 11.227-.606 1.617-.076 2.667-.622 3.112-2.37 1.337-5.253 2.117-10.54 1.768-15.982-.14-2.194-.023-4.406-.023-6.935l3.087-.633c0 1.5.068 2.629-.01 3.747-.544 7.71-.063 15.388.626 23.062.222 2.456-.183 2.884-2.518 3.2-1.122.153-2.208.563-3.317.828-1.282.305-2.594.508-3.852.889-1.082.33-2.072 1.052-3.165 1.234-1.697.28-3.445.296-5.173.344a869.23 869.23 0 01-11.531.229c-.625.009-1.252-.127-2.32-.245" fill="#FFF"/><path d="M354.212 491.645V487.7c3.847-.713 6.481 1.018 8.886 3.424 2.109 2.112 4.314 4.126 6.447 6.214.472.462 1.097 1.018 1.172 1.593.298 2.304 1.522 4.349 1.246 6.862-.712 6.5-1.007 13.044-1.589 19.56-.488 5.46-1.176 10.904-1.706 16.36-.141 1.44-.8 1.972-2.197 2.082-8.051.634-16.092 1.377-24.145 1.99-5.941.454-11.893.78-17.842 1.125-1.053.06-2.134.025-3.169-.157-.429-.076-1.006-.598-1.103-1.014-.194-.843.442-1.14 1.223-1.187 2.497-.152 4.993-.317 7.488-.492 9.69-.682 19.38-1.371 29.071-2.051 1.343-.093 2.702-.051 4.028-.25 1.931-.288 2.717-1.127 2.884-3.002.282-3.165.53-6.335.715-9.507.409-7.014.765-14.033 1.155-21.05.117-2.094.331-4.185.382-6.281.014-.613-.222-1.374-.617-1.83-1.128-1.302-2.368-2.515-3.623-3.7-.627-.59-1.43-.991-2.074-1.566-.983-.877-1.76-2.105-2.882-2.67-1.032-.518-2.406-.357-3.75-.508m-74.862 6.079c-.59-5.068.771-9.776 1.534-14.905.734.494 1.279.697 1.578 1.089 3.741 4.895 7.44 9.82 11.162 14.729.87 1.148.921 2.326.763 3.769-.763 6.976-1.268 13.98-1.996 20.963-.538 5.16-1.341 10.293-1.898 15.453-.299 2.76-.274 5.554-.49 8.326-.237 3.057-.582 6.106-.891 9.278-1.32-.313-1.501-1.26-1.708-2.185-.213-.952-.526-1.446-1.718-1.821-1.474-.463-2.838-2.1-2.608-3.77.448-3.247-.121-6.301-1.123-9.46 1.083-.572 2.05-.986 2.911-1.557 2.498-1.66 4.279-3.547 3.938-7.041-.226-2.314.674-4.724.948-7.106.425-3.687 1.012-7.384 1.024-11.078.011-2.943-.664-5.9-1.174-8.826-.24-1.38-1.086-2.557-.708-4.16.334-1.421-1.123-2.024-2.216-2.157-1.699-.206-3.446-.068-5.17.002-.655.026-1.301.268-2.158.457M456.338 634.17l1.34-2.818c-1.056-1.275-2.252-1.288-3.54-1.076-2.849.47-5.698.943-8.557 1.343-1.41.197-2.843.328-4.264.318-1.337-.01-1.96.583-2.086 1.836-.414 4.107-.833 8.214-1.228 12.324-.1 1.037.038 2.067-1.021 2.84-.434.317-.511 1.168-.678 1.794-.489 1.837-1.009 3.67-1.388 5.532-.297 1.463-.402 2.966-.616 4.625-1.306.19-2.412.353-3.821.559.201-1.896.371-3.575.558-5.253.895-8.006 1.883-16.005 2.631-24.027.185-1.987.985-3.13 2.738-3.51 4.684-1.016 9.366-2.206 14.115-2.72 3.717-.402 6.959 1.145 9.881 3.81 2.297 2.095 2.597 4.162 2.035 6.857-1.395 6.678-2.7 13.376-4.073 20.058-.387 1.882-1.652 2.862-3.707 3.279.103-2.53 1.143-4.608 1.755-6.787.726-2.591 1.611-5.147 2.177-7.772.733-3.393.417-6.708-1.506-9.737-.304-.48-.516-1.016-.745-1.475M174.937 509.732c2.561 1.643 4.67 2.976 6.757 4.34 4.678 3.056 9.29 6.219 14.046 9.146 1.798 1.107 2.337 2.46 1.853 4.296-.856 3.24-1.842 6.446-2.917 10.16-8.622-6.851-16.673-13.627-24.72-20.88l4.981-7.062m307.69 14.235c-.971-4.11-2.383-8.125-2.15-12.626l23.58-13.19c1.99 2.186 3.045 4.653 4.427 6.827-1.895 2.676-22.669 17.91-25.857 18.989M213.228 567.96c1.573-1.491 3.04-2.995 4.623-4.364a1775.418 1775.418 0 0117.539-15.001c1.193-1.006 1.271-2.047.735-3.321-1.343-3.19-2.674-6.384-4.051-9.56-.753-1.736-1.449-1.972-3.093-.875-1.597 1.065-3.067 2.32-4.604 3.477-1.063.802-2.145 1.58-3.27 2.406-1.251-1.15-1.186-2.01.032-2.891 4.092-2.967 7.716-6.625 12.736-8.524.717 1.254 1.627 2.508 2.193 3.9 1.773 4.36 3.369 8.793 5.134 13.157.622 1.537-.198 2.384-1.157 3.21-3.496 3.016-7.027 5.989-10.532 8.993-3.212 2.753-6.419 5.51-9.598 8.3-.709.624-1.288 1.396-2.107 2.297 3.608 4.689 7.239 9.192 11.803 12.88-.854 1.069-1.656 1.144-2.496.676-.923-.514-1.861-1.036-2.679-1.696-2.166-1.748-4.197-3.668-6.42-5.337-2.621-1.968-3.444-4.927-4.788-7.726m230.742-2.017c1.467-1.347 2.738-2.653 4.154-3.78 2.412-1.92 4.891-3.758 7.386-5.571 2.035-1.48 2.104-2.112.306-3.962-2.216-2.28-4.447-4.547-6.599-6.887-3.065-3.33-6.043-6.737-9.1-10.073-1.425-1.555-2.949-3.02-4.66-4.76l9.843-16.86c1.512.952 2.789 1.576 3.85 2.458 2.369 1.97 4.605 4.102 6.948 6.107 1.057.903 1.444 1.742.042 3.102-1.723-1.483-3.44-2.958-5.153-4.437-.875-.755-1.683-1.607-2.631-2.255-1.222-.837-2.113-.601-2.804.727-1.646 3.158-3.203 6.364-4.836 9.53-.684 1.328-.378 2.277.674 3.316 6.65 6.57 13.244 13.198 19.85 19.812.264.263.469.586.824 1.034-.886 1.58-1.76 3.16-2.658 4.728-.186.325-.409.673-.706.88-3.623 2.53-7.279 5.01-10.89 7.558-1.321.932-2.447.939-3.84-.667" fill="#FFF"/><path d="M268.615 499.688c1.968-1.236 3.684-1.397 5.373-1.046.735.153 1.447.853 1.98 1.468 1.949 2.25 3.685 4.7 5.75 6.835 2.892 2.99 4.002 6.674 4.795 10.569.248 1.22-.609 1.723-1.263 2.386-2.697 2.738-5.349 5.523-8.123 8.182-1.66 1.59-1.642 3.31-.983 5.276 1.303 3.879 2.552 7.775 3.941 12.025l-2.457 2.033-8.295-19.835c1.023-.88 2.01-1.764 3.035-2.6 2.609-2.126 5.266-4.194 7.847-6.354 2.53-2.115 2.643-3.098.599-5.798-1.156-1.528-2.459-2.953-3.774-4.35-2.69-2.862-5.433-5.676-8.425-8.791m142.649-18.518c-3.527 4.689-6.963 9.19-10.327 13.747-2.391 3.239-2.419 3.825-.06 7.177 1.937 2.75 4.021 5.402 6.115 8.039.64.806 1.196 1.496.69 2.564-2.503 5.289-4.999 10.582-7.596 16.083-.966-.712-1.675-1.182-2.322-1.726-.75-.63-.881-1.393-.476-2.33 1.412-3.257 2.673-6.585 4.189-9.793 1.107-2.341 1.226-4.366-.708-6.312-1.96-1.973-2.547-4.206-2.099-7.096.206-1.323-1.094-3.327-2.29-4.33-2.795-2.341-2.167-2.858-.164-5.37 2.581-3.237 5.221-6.428 7.837-9.637 2.342-2.872 3.585-3.062 7.211-1.015m-84.9-88.539c.426-.035.758-.083 1.09-.086 7.414-.073 14.841.098 22.236-.305 4.11-.223 7.753.74 11.346 2.365 3.322 1.502 6.593 3.117 9.886 5.084-.565.062-1.13.185-1.694.177a5563.01 5563.01 0 01-28.299-.4 6.316 6.316 0 01-2.483-.557c-3.925-1.824-7.814-3.724-11.708-5.615-.13-.062-.176-.3-.374-.663m1.296 76.113c.9.599 1.682.97 2.275 1.537 3.67 3.513 8.18 3.996 12.921 3.665 5.08-.354 10.155-.81 15.239-1.087 5.449-.298 10.906-.441 16.365-.652.463 2.79-.342 3.927-3 4.254-5.714.702-11.414 1.539-17.143 2.078-2.541.239-5.138-.207-7.708-.168-3.167.05-6.331.292-9.498.424-.546.022-1.243.102-1.623-.178-2.234-1.648-4.488-3.292-6.545-5.147-1.226-1.106-1.639-2.716-1.283-4.726m89.186 327.99c1.793-3.292 3.474-6.306 5.083-9.356 1.334-2.528 3.523-3.683 6.211-4.195 5.641-1.074 11.31-.772 16.975-.362 2.773.2 5.536.547 8.295.888.613.076 1.193.407 1.759.61-.681 3.23-1.121 3.757-3.989 3.416-6.357-.756-12.676.107-19.012.185-1.656.02-2.98.644-3.986 1.957-1.453 1.895-3.083 3.607-3.809 6.045-.68 2.284-2.973 3.032-5.145 2.074-.696-.308-1.349-.711-2.382-1.262m-179.85-13.384c.677-1.862 2.224-1.952 3.818-1.759 5.152.626 10.297 1.313 15.447 1.956 1.049.132 2.109.183 3.164.268 3.9.313 7.153 2.15 10.189 4.423 1.869 1.4 1.86 3.738 2.49 5.714.369 1.155.254 2.464.351 3.637-2.39 1.204-3.785.912-5.182-1.192-1.329-2-2.508-4.1-3.741-6.137-4.973-.892-9.882-1.828-14.812-2.634-2.177-.356-4.392-.533-6.598-.636-2.419-.113-4.299-.889-5.126-3.64M338.28 617.189c3.925-.465 7.501-.89 11.375-1.347.349 6.985-.502 13.464-2.316 20.109-2.935.22-5.855.44-9.196.694.3-3.364.785-6.54.811-9.72.025-3.133-.414-6.272-.674-9.736" fill="#FFF"/><path d="M376.223 402.955c.473 1.697-.2 2.238-1.519 2.303-2.398.116-4.793.298-7.192.38-6.435.222-12.872.572-19.307.544-3.801-.017-7.712.093-11.309-1.614-1.212-.575-2.44-1.133-3.589-1.82-4.701-2.807-9.376-5.658-14.053-8.506-.285-.174-.505-.454-.963-.874 1.893-.745 3.364-.477 4.868.298 4.787 2.469 9.607 4.872 14.397 7.335 1.296.667 2.51.844 4.045.732 3.536-.256 7.112-.005 10.669.096 2.685.075 5.367.31 8.051.345 5.272.066 10.547.01 15.902.78m-90.774 202.404c3.719-1.03 7.51-1.217 11.327-.84 5.16.51 10.324.995 15.473 1.6 2.437.288 5.2.357 6.229 3.198.539 1.488.702 3.2.65 4.8-.341 10.612-1.864 21.058-4.761 31.286-.996 3.52-2.071 7.019-3.14 10.519-.234.764-.598 1.489-.902 2.232l-.566-.18c.226-1.153.484-2.302.674-3.463 1.705-10.42 3.435-20.838 5.077-31.268.536-3.407.888-6.847 1.221-10.281.226-2.327-1.189-4.487-3.806-5.094-3.067-.712-6.242-1.042-9.389-1.3-6.022-.492-12.057-.815-18.087-1.21m264.465-111.19c-2.711-.04-5.7-.93-6.176 3.147-2.162-1.197-4.077-2.28-6.012-3.323-3.796-2.047-5.563-1.884-8.921.85-.954.776-1.836 1.644-2.903 2.608-2.6-2.225-4.517-4.732-4.405-8.12.087-2.651 1.845-3.977 6.45-5.66 2.042 2.31 4.78 3.164 8.002 2.377l-.865 4.267c4.538.544 8.753 1.093 12.979 1.53 1.315.136 2.266.344 1.851 2.324m-414.278 12.01c-.153-4.298-3.395-3.313-5.818-3.712-.318-1.466.182-2.007 1.568-2.08 3.43-.181 6.853-.5 10.282-.687.826-.045 1.67.202 2.49.312 1.376-1.454.187-2.76-.098-4.162 1.545 0 3.091.259 4.5-.071 1.444-.34 2.753-1.256 4.191-1.954 2.826 1.049 5.645 2.507 5.653 6.007.007 3.4-2.282 5.74-4.838 7.699-1.579-1.431-2.949-2.778-4.429-3.988-1.98-1.62-4.126-1.804-6.454-.616-2.139 1.093-4.36 2.022-7.047 3.252M436.959 736.39c-.542 1.631-.895 2.69-1.304 3.924-5.676.212-11.238.638-16.788.528-2.519-.05-5.073-1-7.509-1.84-2.723-.938-5.346-2.179-7.985-3.35-2.898-1.285-2.997-1.57-2.072-5.277 11.248 4.6 22.929 6.811 35.658 6.015m-47.168 47.729c-3.611-.108-3.832-.404-4.05-3.554-.355-5.117.112-10.168.782-15.232.368-2.78 1.352-5.16 3.18-7.268 2.39-2.755 4.88-5.382 8.345-7.148-.804 1.593-1.62 3.18-2.409 4.778-1.407 2.849-2.906 5.658-4.171 8.569-2.136 4.918-1.814 10.15-1.683 15.344.038 1.502.006 3.005.006 4.51m-87.379 1.372c0-1.34-.173-2.507.027-3.605 1.623-8.916-.188-17.17-4.569-24.987-.915-1.633-1.597-3.395-2.145-5.234 4.081 2.923 7.388 6.468 9.842 10.764.364.636.425 1.463.549 2.214 1.01 6.107 1.138 12.237.439 18.385-.226 1.984-.516 2.175-4.143 2.463m175.373-272.758c1.251 4.734 2.417 8.698 3.295 12.725.286 1.31.732 2.34 1.646 3.234 3.438 3.359 6.873 6.72 10.317 10.073.752.734 1.536 1.434 2.575 2.4l-2.603 2.884c-1.126-1.044-2.025-1.867-2.914-2.702-2.233-2.096-4.46-4.201-6.693-6.297-2.325-2.18-4.585-4.441-5.641-7.531-.424-1.241-.353-2.644-.616-3.952-.197-.981-.684-1.911-.834-2.896-.299-1.951-.591-3.924-.58-5.888.004-.556 1.065-1.107 2.048-2.05M200.89 526.708c.507.72 1.491 1.483 1.431 2.153-.174 1.933.29 4.058-1.313 5.73-.476.497-.825 1.359-.81 2.045.109 5.164-3.15 8.363-6.733 11.173-2.643 2.073-5.496 3.85-7.753 6.408-.728.824-1.763 1.378-2.837 2.19l-2.373-2.997c3.395-2.788 6.59-5.378 9.745-8.016 1.549-1.296 3.09-2.617 4.497-4.061.62-.638 1.006-1.574 1.31-2.441 1.395-3.981 2.724-7.984 4.076-11.98.254-.067.507-.136.76-.204" fill="#FFF"/><path d="M136.082 515.279c0-2.01-.087-3.99.063-5.952.037-.47.79-1.05 1.34-1.287 2.113-.918 4.275-1.721 6.42-2.561 1.263-.494 2.448-.388 3.52.49.667.547 1.307 1.129 1.994 1.65 1.114.845 2.232 1.806 1.757 3.32-.554 1.768-1.573 3.359-3.578 3.788-1.4.3-2.845.48-4.276.529-2.456.084-4.918.023-7.24.023m407.058-8.441c-4.299-.654-8.186-1.113-12.009-1.887-1.845-.373-2.715-2.115-3.156-3.82-.437-1.69.78-2.625 2.039-3.445.724-.472 1.402-1.012 2.121-1.49 1.032-.685 2.109-.843 3.271-.275 2.159 1.057 4.368 2.016 6.479 3.157.562.304 1.144 1.096 1.199 1.71.16 1.779.056 3.58.056 6.05M256.78 732.407c11.975 4.423 23.996 6.446 36.522 4.004.163 2.16-1.008 2.547-2.078 2.753-2.447.473-4.928.77-7.392 1.166-5.813.935-11.473.032-17.08-1.431-2.512-.654-5.04-1.284-7.485-2.141-2.346-.825-2.648-1.463-2.487-4.351m3.205 70.993c.341-.806.382-1.104.491-1.132 3.037-.764 6.127-1.922 9.228-1.016 1.407.411 2.523.459 3.848.08 6.013-1.718 12.041-3.382 18.063-5.066.69 2.369.726 2.442-1.068 3.36-1.274.65-2.625 1.226-4.008 1.572-5.031 1.26-10.074 2.477-15.146 3.552-1.353.286-2.845.144-4.241-.045-2.335-.32-4.645-.835-7.167-1.305m174.936 5.817c.521.121 1.048.225 1.564.367 3.79 1.042 7.542 2.272 11.384 3.063 1.823.375 3.816-.133 5.733-.15 3.368-.029 6.741.106 10.106-.003 3.546-.114 7.087-.44 10.63-.656.726-.044 1.457-.006 2.351-.006-.269 1.587-1.142 2.134-2.403 2.256-2.58.251-5.161.72-7.74.707-6.73-.03-13.463-.195-20.188-.46-3.381-.133-6.693-.85-9.687-2.54-.831-.469-1.499-1.226-2.241-1.85l.491-.728zm-220.479.291c.496 0 .875-.065 1.223.01 5.781 1.244 11.663 1.245 17.53 1.472 2.397.093 4.784.457 7.181.57 4.681.218 9.178-.775 13.578-2.285.636-.218 1.243-.519 1.877-.747.157-.057.362.02.701.048.435 1.33-.51 1.853-1.44 2.323-3.242 1.638-6.725 2.397-10.324 2.381-6.738-.028-13.477-.123-20.209-.355-2.582-.09-5.15-.622-7.721-.972-1.355-.184-2.275-.823-2.396-2.445M172.58 508.56c-2.872 7.174-8.996 11.18-14.145 16.138-1.592-.845-1.946-1.803-.928-3.064a291.637 291.637 0 014.955-5.976 441.646 441.646 0 016.005-6.888c1.63-1.832 1.803-1.825 4.113-.21m347.255 5.735c-4.873-5.405-10.679-9.857-12.993-17.043 1.955-1.61 2.446-1.701 3.697-.052 3.473 4.575 6.842 9.23 10.255 13.852.852 1.154.668 2.108-.959 3.243m-89.323 288.067c-.254.288-.35.504-.476.523-4.246.652-8.553 1.752-12.782.504-4.602-1.357-9.066-3.186-13.572-4.858-.862-.32-1.904-.636-1.73-2.043.236-.046.519-.195.734-.128a1779.738 1779.738 0 0115.416 4.913c1.213.394 2.288.558 3.616.132 1.191-.382 2.628-.147 3.932.015 1.597.198 3.169.604 4.862.942M267.391 640.563c-.988 4.589-1.779 9.038.357 13.355-2.486.785-3.045.63-4.16-1.11-2.275-3.551-2.253-7.265-.671-11.034.725-1.73 1.001-1.762 4.474-1.211m39.688 148.186c.71 3.152.207 4.306-2.167 5.25-3.416 1.36-6.833 1.51-10.299-.012v-3.775c2.282.197 4.443.713 6.514.469 2.025-.24 3.958-1.251 5.952-1.932m-33.887-133.835c-2.514-1.27-3.776-2.772-4.337-4.723a13.571 13.571 0 01-.052-7.414c.641-2.351.773-2.482 3.147-2.353.645.035 1.283.206 2.191.36-.993 4.583-2.443 8.999-.949 14.13m5.418.08c-.784.097-1.627-.15-2.048-1.2-1.643-4.098-.95-8.19.32-12.175.52-1.63 2.118-.662 3.366-.902l-1.638 14.277m5.106.886c-.431-.511-1.058-.954-1.261-1.544-1.443-4.19-.697-8.341.531-12.417.163-.541 1.19-.821 2.228-1.485.641 5.494-.89 10.238-.613 15.076l-.885.37M534.525 476.5l3.408 2.29c-.115.523-.225 1.052-.347 1.578-.786 3.382-1.389 3.823-4.784 3.23-.996-.174-1.943-.63-3.233-1.063 1.148-2.702 3.303-4.103 4.956-6.035m-383.531 15.417c-2.278 1.802-4.323 1.334-6.299 1.16-.972-.086-1.48-.723-1.526-1.762-.04-.946-.217-1.887-.366-3.1l3.557-2.145 4.634 5.847M397.18 789.199c.561 3.076.209 3.589-2.161 3.902-2.751.365-5.098-.85-7.395-2.016-.668-.34-.918-1.501-1.52-2.571 2.347-.442 3.78 1.215 5.52 1.18 1.798-.033 3.591-.308 5.556-.495m-81.708-303.53l.4 3.796c-4.248 1.638-6.385.889-8.202-2.906l7.802-.89m237.247 20.284l-5.701 1.222c-1.359-2.47-1.359-2.47-.863-5.22l4.528-.484 2.036 4.482m-424.414 3.9l4.646.75c.54 1.77.062 3.33-.991 5.18l-5.738-1.508 2.083-4.422m168.781 89.475h-8.441l.572-5.525c2.837 1.66 5.437 3.18 8.037 4.704l-.168.82M556.628 497.46c-2.58.856-5.137 1.79-7.749 2.532-1.276.364-2.079-.242-3.777-2.266 3.689-2.404 7.641-.24 11.335-1.114l.191.849m-422.288 9.272c-1.829 1.91-3.606 2.272-5.809 1.084-1.794-.968-3.758-1.617-5.647-2.408l.081-.603c.886 0 1.772-.018 2.658.005 1.504.038 3.008.155 4.511.144 1.616-.014 2.968.499 4.206 1.778m-17.038 2.072c1.104-1.466 2.426-1.158 3.6-1.08 1.32.089 2.663.296 3.915.702.366.119.72 1.15.61 1.666-.187.877-.743 1.675-1.269 2.765l-6.856-4.053m437.724-4.067c-.446-.58-.739-.85-.895-1.182-1.176-2.53-.584-3.616 2.236-3.687 1.805-.046 3.794-.461 5.577 1.288l-6.918 3.58m13.504-4.949l-3.066 1.635-4.308-4.211c4.604-2.085 5.631-1.804 7.374 2.576m-450.096 5.004l-4.761 3.847-2.812-1.73c1.669-3.888 1.809-4.562 7.573-2.117m421.55-28.247l-3.505-2.237c.936-1.296 1.7-2.361 2.471-3.42.591-.811 1.353-1.106 2.219-.507.882.61 1.745 1.34 1.038 2.586-.644 1.134-1.374 2.22-2.223 3.578m-395.493 7.131c-.518.377-.817.61-1.132.82-2.018 1.347-2.612 1.2-3.7-.967-.38-.755-.672-1.554-.978-2.272 1.964-2.691 2.641-2.693 4.284-.102.453.714.877 1.447 1.526 2.52M445.67 653.339v-1.251c-.002-2.585.016-5.17-.022-7.755-.008-.568-.329-1.142-.286-1.697.029-.373.388-.931.703-1.015.324-.086.957.193 1.142.5 1.316 2.187.622 9.343-1.04 11.298-.032.037-.183-.026-.497-.08M117.503 502.302c-2.937-.804-5.597-1.53-8.256-2.257l.048-.614c2.775-.904 5.61.057 8.756-.108l-.548 2.979m444.295-10.597c3.098.165 5.909-.037 8.642.569l.045.78-8.412 1.717-.275-3.066M422.93 670.417c-.127 1.643-1.023 2.029-2.366 1.755-2.603-.532-5.202-1.086-8.071-1.687.767-1.082 1.741-1.523 2.681-.945 1.338.822 2.57.466 3.876.203 1.369-.276 2.642-.056 3.88.674M127.055 502.698l-6.193-.462c-.217-2.442-.063-2.62 1.854-2.376.95.12 1.906.219 2.86.32 1.76.193 1.76.19 1.479 2.518m315.159 140.956c1.38 5.126.61 9.249-2.177 11.024l2.177-11.024M552.54 494.295v-2.038c1.751-.127 3.436-.312 5.125-.354 1.461-.036 1.72.91 1.428 2.392h-6.553zM452.124 640.802c.567 4.938-.039 9.948-1.729 11.829.23-1.875.608-3.746.649-5.624.043-1.972-.237-3.95-.388-6.093l1.468-.112M575.49 496.073c-.216.124-.458.28-.715.408-1.192.587-2.389 1.166-3.778 1.843l-1.477-2.436c2.713-2.013 4.291-1.996 5.97.185m-120.319 35.189l-7.033-7.247c1.377-.203 2.171.322 6.146 4.052 1.056.99 1.056.99.887 3.195m-346.858-26.045l-4.13-2.493c1.643-2 1.969-2.013 5.628-.38.234 1.247-.632 1.942-1.498 2.873m113.076 41.193c.092-1.14-.01-1.651.187-1.99.627-1.074 5.536-4.452 7.438-4.983-1.89 2.735-4.72 4.41-7.625 6.974m300.436-39.741c.74-1.671 2.375-2.031 3.825-2.687-.838 1.483-2.263 2.174-3.825 2.687m-368.392 7.224l4.192 2.929c-2.047.046-2.752-.426-4.192-2.93m365.701-14.139c.856-.895 1.506-2.205 3.386-1.642-.857 1.498-2.146 1.52-3.386 1.642M159.807 510.24c-1.143-.244-2.51-.146-2.796-1.952 1.527.048 2.204.974 2.796 1.953m363.008-8.531l2.183-1.49c-.282 1.709-1.21 1.63-2.183 1.49m-184.498-20.427l1.622.105c-.504 1.5-1.121.795-1.667.645l.045-.75zm-182.703 31.149l-1.575-1.245c.41-.184.616-.34.682-.295.448.307.872.65 1.29.998.048.04.047.192.012.264-.036.07-.144.104-.41.278" fill="#FFF"/><path d="M337.354 413.02c.598.387 1.01.533 1.007.669a12559.32 12559.32 0 01-1.236 49.863c-.01.367-.499.722-1.166 1.627-.285-1.416-.629-2.287-.605-3.147.122-4.418.358-8.832.517-13.25.108-2.982.144-5.966.225-8.95.19-7.016.354-14.035.605-21.05.066-1.843.408-3.676.653-5.761m32.883 18.734c-.215 2.057-1.449 3.927-3.463 5.24-.471.308-1.335.372-1.866.162-2.106-.835-2.872-2.752-3.277-4.76-.282-1.398 1.42-4.11 2.741-4.776 3.075-1.556 5.87.223 5.865 4.134m-17.937.302c-.031 3.583-1.528 5.654-3.975 5.617-1.983-.03-4.449-2.851-4.418-5.225.033-2.548 2.146-4.862 4.647-4.842 2.371.017 3.769 1.723 3.746 4.45" fill="#000"/></g></svg>