<?xml version="1.0" encoding="UTF-8"?>
<svg width="578px" height="894px" viewBox="0 0 578 894" version="1.1" xmlns="http://www.w3.org/2000/svg" xmlns:xlink="http://www.w3.org/1999/xlink">
    <title>guest-2</title>
    <g id="guest-2" stroke="none" stroke-width="1" fill="none" fill-rule="evenodd">
        <path d="M368.463,485.954 L368.463,468.189 C373.981,467.085 379.263,467.344 384.931,467.989 L384.931,485.954 L368.463,485.954 Z" id="Fill-8" fill="#FFFFFF"></path>
        <path d="M368.324,461.726 L368.324,445.913 C373.659,445.064 378.938,445.54 384.583,445.635 C385.911,450.942 385.24,456.013 385.052,461.331 C379.369,462.399 373.965,463.276 368.324,461.726" id="Fill-9" fill="#FFFFFF"></path>
        <polygon id="Fill-10" fill="#FFFFFF" points="368.649 440.223 385.369 440.223 385.369 423.634 368.649 423.634"></polygon>
        <path d="M385.582,405.485 L385.582,417.783 C380.052,419.407 374.841,418.132 369.302,417.686 L369.302,405.485 L385.582,405.485 Z" id="Fill-11" fill="#FFFFFF"></path>
        <path d="M385.18,492.005 L385.18,502.212 C379.63,502.828 374.212,503.431 368.227,504.096 L368.227,492.878 C373.533,491.08 377.059,490.888 385.18,492.005" id="Fill-12" fill="#FFFFFF"></path>
        <path d="M368.316,516.655 L368.316,509.79 C373.559,507.359 379.158,508.223 384.94,507.47 L384.94,515.442 C379.451,515.843 374.197,516.226 368.316,516.655" id="Fill-13" fill="#FFFFFF"></path>
        <path d="M459.44,758.4907 C458.568,765.0197 459.15,769.5767 461.525,771.6227 C460.77,766.8667 460.055,762.3637 459.44,758.4907 M361.541,537.966 C363.023,535.828 362.604,534.667 359.952,534.639 C357.863,534.618 355.765,535.093 353.68,535.412 C353.316,535.468 353.002,535.846 352.519,536.176 C355.608,536.789 358.432,537.348 361.541,537.966 M377.704,464.962 C379.882,464.352 381.899,463.679 383.965,463.24 C386.129,462.781 388.331,462.392 390.533,462.263 C392.55,462.145 394.59,462.416 396.877,462.527 C393.92,459.613 381.968,459.058 377.459,461.964 C377.459,462.716 377.448,463.453 377.466,464.188 C377.47,464.362 377.568,464.534 377.704,464.962 M409.863,571.261 C408.312,570.021 407.221,569.073 405.868,569.762 C403.646,570.893 401.293,571.97 399.448,573.587 C397.163,575.59 394.675,576.627 391.756,576.986 C391.121,577.064 390.523,577.451 389.394,577.9 C391.511,578.683 393.038,579.249 394.636,579.841 C395.162,579.384 395.672,578.998 396.115,578.545 C397.962,576.653 400.109,575.257 402.639,574.448 C404.225,573.941 405.817,573.439 407.359,572.818 C408.138,572.504 408.812,571.928 409.863,571.261 M459.262,755.4987 C459.329,755.5037 459.397,755.5087 459.464,755.5117 C459.144,752.3067 459.362,748.9237 458.378,745.9357 C456.921,741.5207 455.2,737.2617 456.021,732.2667 C454.341,732.3957 453.038,732.4967 451.67,732.6017 C454.272,740.4487 456.767,747.9727 459.262,755.4987 M191.3563,540.04 C191.5663,539.897 191.9863,539.706 192.2793,539.395 C192.9763,538.659 193.7423,537.942 194.2513,537.082 C196.9323,532.551 200.8403,529.44 205.4313,527.034 C206.1883,526.637 206.8913,525.877 207.2773,525.112 C207.6033,524.468 207.7673,523.325 207.4103,522.841 C206.7273,521.915 205.4273,522.056 204.6763,522.757 C203.7033,523.666 202.9233,524.839 202.2663,526.013 C201.7233,526.984 201.2633,527.814 200.2293,528.477 C197.8413,530.006 195.5123,531.684 193.4083,533.578 C192.1393,534.721 191.2653,536.337 190.3493,537.824 C189.7593,538.781 190.2773,539.98 191.3563,540.04 M390.562,433.192 C383.793,432.674 378.399,435.31 373.096,438.515 C373.357,439.629 373.555,440.471 373.741,441.265 C376.751,440.019 379.487,438.615 382.387,437.761 C385.28,436.908 388.335,436.607 391.519,436.028 C391.234,435.184 390.919,434.25 390.562,433.192 M394.921,450.055 C388.008,448.424 381.967,449.886 375.935,452.958 C376.216,454.429 376.486,455.841 376.793,457.445 C382.951,454.593 389.004,453.037 395.759,455.537 C395.456,453.554 395.198,451.866 394.921,450.055 M528.529,763.5217 C528.648,763.3877 528.767,763.2547 528.885,763.1197 C526.522,761.5187 524.119,759.9727 521.811,758.2977 C520.402,757.2747 518.96,756.2027 517.844,754.8887 C515.272,751.8607 512.852,748.6997 510.444,745.5357 C509.052,743.7057 507.463,742.3067 505.113,741.8637 C504.444,741.7367 503.757,741.2697 503.255,740.7787 C499.878,737.4767 496.56,734.1157 493.195,730.8027 C492.658,730.2737 492.27,729.3297 490.865,729.8547 C491.108,730.5867 491.208,731.4207 491.629,732.0327 C492.409,733.1687 493.292,734.2637 494.285,735.2157 C496.424,737.2637 498.654,739.2187 500.857,741.1977 C502.18,742.3857 503.337,743.6547 503.116,745.4797 C506.901,747.1127 516.336,754.6867 518.565,757.8057 C518.888,758.2577 519.112,758.7947 519.49,759.1867 C520.048,759.7647 520.625,760.4357 521.333,760.7377 C523.698,761.7457 526.126,762.6057 528.529,763.5217 M384.02,420.021 C379.602,421.248 376.092,423.55 373.202,426.778 C370.192,430.139 370.226,430.172 371.927,434.296 C371.983,434.433 372.197,434.506 372.338,434.608 C374.861,433.283 377.305,431.765 379.929,430.686 C382.597,429.59 385.441,428.925 388.35,428.027 C386.88,425.31 385.438,422.644 384.02,420.021 M349.877,540.751 C346.739,545.583 345.637,550.885 345.104,556.351 C344.831,559.142 345.672,561.648 347.271,563.907 C347.891,564.783 348.696,565.296 349.886,565.03 C351.058,564.768 351.155,563.955 351.299,562.979 C352.365,555.758 354.78,549.02 358.665,542.821 C358.847,542.53 358.918,542.167 359.07,541.759 C356.153,539.815 353.133,539.833 349.877,540.751 M394.651,494.172 C389.914,489.461 384.111,487.939 377.812,487.856 C376.532,491.875 375.31,495.714 374.039,499.704 C379.237,499.99 383.298,502.529 386.802,506.224 C390.317,502.537 392.9,498.65 394.651,494.172 M378.364,483.843 C380.911,483.843 383.129,483.68 385.312,483.888 C387.498,484.097 389.738,484.429 391.79,485.167 C393.765,485.877 395.528,487.177 397.472,488.266 C400.088,481.771 398.692,475.62 397.668,469.456 C391.596,467.228 385.708,467.704 379.856,469.621 C378.064,470.209 377.908,470.658 378.002,472.488 C378.152,475.438 378.254,478.39 378.359,481.343 C378.391,482.24 378.364,483.139 378.364,483.843 M364.958,532.604 C371.493,525.065 377.619,517.473 383.479,509.637 C380.404,506.898 377.352,504.712 373.424,504.063 C372.264,503.872 371.311,503.863 370.381,504.794 C368.091,507.087 365.679,509.257 363.371,511.532 C362.88,512.015 362.395,512.703 362.297,513.355 C361.499,518.663 359.127,523.395 357.011,528.224 C356.696,528.943 356.382,529.662 355.886,530.798 C359.415,530.195 362.591,529.561 364.958,532.604 M310.438,500.887 C311.635,502.737 312.405,504.197 313.424,505.456 C317.301,510.249 321.918,514.256 327.011,517.699 C330.028,519.739 333.372,521.048 336.929,521.918 C342.213,523.21 347.623,522.636 352.951,523.206 C353.432,523.257 354.211,523.059 354.417,522.717 C355.76,520.477 357.177,518.232 357.179,515.262 C353.964,516.282 350.891,516.632 347.893,515.915 C340.841,514.228 334.098,511.681 327.729,508.158 C325.078,506.691 322.669,505.098 321.354,502.214 C321.021,501.485 320.254,500.966 319.777,500.288 C319.16,499.41 318.378,499.146 317.366,499.371 C315.3,499.829 313.232,500.276 310.438,500.887 M380.706,521.351 C394.781,520.174 408.165,516.859 421.662,511.935 C419.439,510.061 417.509,508.368 415.507,506.764 C412.13,504.058 408.166,502.905 403.918,502.636 C402.347,502.537 400.762,502.665 399.188,502.597 C397.628,502.53 396.714,503.193 395.848,504.521 C394.49,506.601 392.89,508.552 391.207,510.387 C389.014,512.777 386.616,514.978 384.353,517.307 C383.088,518.608 381.919,520.001 380.706,521.351 M382.927,607.085 C382.683,608.095 382.65,609.047 382.234,609.78 C381.322,611.387 381.196,613.063 381.115,614.855 C380.824,621.234 380.382,627.606 380.001,633.982 C379.974,634.433 379.795,635.001 379.997,635.315 C380.416,635.967 380.958,636.706 381.621,636.96 C381.935,637.079 382.807,636.257 383.135,635.691 C383.592,634.905 383.889,633.981 384.057,633.08 C384.648,629.896 385.217,626.706 385.681,623.502 C386.504,617.815 387.363,612.255 390.317,607.056 C392.956,602.415 394.939,597.304 393.972,591.657 C393.848,590.928 393.741,590.195 393.607,589.468 C393.369,588.182 393.239,586.929 394.752,586.017 C393.643,585.301 392.834,584.68 391.941,584.222 C390.374,583.419 388.796,582.604 387.149,581.992 C384.259,580.917 380.924,582.88 380.163,585.893 C379.254,589.488 378.329,593.082 377.257,596.629 C376.893,597.832 376.318,599.467 375.381,599.889 C373.807,600.6 373.271,601.855 372.572,603.084 C370.034,607.546 368.276,612.332 366.931,617.268 C366.687,618.166 366.756,619.147 366.681,620.091 C369.353,614.384 374.377,605.605 376.355,604.189 C376.14,605.48 376.114,606.467 375.804,607.354 C374.707,610.507 373.66,613.691 372.304,616.734 C371.396,618.772 371.106,620.75 371.289,622.93 C371.522,625.695 371.628,628.476 371.646,631.251 C371.656,632.775 371.373,634.302 371.221,635.827 C372.644,634.533 373.283,632.887 373.465,631.181 C373.759,628.427 373.697,625.635 373.939,622.872 C374.065,621.427 374.131,619.745 374.897,618.632 C377.048,615.502 379.244,612.462 380.211,608.696 C380.451,607.763 381.016,606.756 382.927,607.085 M174.7523,604.686 C175.0003,604.298 175.3043,603.942 175.4763,603.531 C176.4843,601.117 176.2283,598.644 175.8743,596.137 C175.2633,591.811 174.6483,587.377 176.3143,583.226 C177.7563,579.63 179.8293,576.285 181.6443,572.84 C182.4203,571.364 183.7313,570.836 185.3393,570.86 C185.9653,570.869 186.6063,570.851 187.2193,570.734 C188.3283,570.52 189.1693,570.879 189.9903,571.626 C192.8383,574.217 194.2123,577.262 194.0013,581.243 C193.8823,583.473 194.6563,585.78 195.2123,588.006 C195.5453,589.334 196.5093,589.718 197.8993,588.758 C196.8863,586.113 197.7933,583.547 198.4313,580.956 C198.4763,580.776 198.4883,580.589 198.5373,580.41 C199.0953,578.371 198.9973,576.393 198.1133,574.442 C196.0693,569.929 194.8913,565.181 194.3663,560.261 C194.1713,558.425 194.3023,556.4 193.5413,554.82 C192.7093,553.094 193.3763,552.165 194.2633,551.037 C194.6623,550.53 195.0573,550.016 195.5003,549.551 C196.3573,548.648 196.2913,547.742 195.5973,546.8 C193.6963,544.22 191.2733,542.517 187.9943,542.192 C186.4063,542.035 185.2623,542.424 184.2303,543.844 C180.7403,548.643 176.9673,553.238 173.5203,558.067 C171.3773,561.069 169.5913,564.331 167.7353,567.527 C167.4163,568.077 167.2423,569.295 167.5233,569.506 C168.6343,570.337 168.2783,571.42 168.1263,572.308 C167.2053,577.668 167.6793,583.043 167.8673,588.408 C167.9183,589.88 168.0593,591.479 169.3053,593.052 C169.3053,591.464 169.5123,590.218 169.2693,589.066 C168.3353,584.651 169.8493,580.498 170.4953,576.258 C170.6743,575.083 171.0983,573.917 171.5893,572.827 C172.0983,571.698 172.6583,570.507 174.4593,569.881 C174.2453,571.484 174.1823,572.751 173.8953,573.966 C173.1513,577.111 172.3713,580.251 171.4753,583.356 C171.1363,584.531 170.8493,585.602 171.1863,586.842 C172.5263,591.775 173.4233,596.779 173.2033,601.925 C173.1523,603.132 173.4923,604.096 174.7523,604.686 M453.328,605.256 C453.328,606.096 453.272,606.564 453.336,607.013 C455.156,619.563 457.014,632.107 458.805,644.661 C459.511,649.606 459.859,654.611 460.742,659.522 C463.003,672.105 464.511,684.782 465.91,697.4797 C466.792,705.4817 467.84,713.4667 468.877,721.4497 C469.194,723.8937 469.721,726.3107 470.184,728.9197 C476.723,727.5237 483.085,726.5277 489.638,725.0527 C488.944,723.4077 488.384,722.1467 487.877,720.8667 C486.134,716.4697 484.142,712.1507 482.732,707.6497 C479.179,696.3087 477.14,684.601 474.968,672.943 C473.409,664.571 472.264,656.122 470.875,647.717 C469.462,639.168 466.768,630.973 463.642,622.928 C462.032,618.783 460.169,614.73 458.269,610.708 C457.251,608.552 456.001,606.466 453.328,605.256 M430.491,554.019 C426.729,555.572 423.135,556.752 419.843,558.498 C416.426,560.31 413.301,562.671 409.991,564.829 C416.824,568.364 418.309,569.706 418.843,575.315 C419.554,575.27 420.277,575.261 420.992,575.174 C425.51,574.631 430.021,574.589 434.553,575.084 C436.688,575.317 438.377,576.054 439.877,577.663 C441.366,579.261 443.199,580.536 444.732,581.828 C447.559,580.663 450.096,579.757 452.506,578.59 C455.333,577.221 457.308,575.145 457.169,571.681 C457.139,570.953 457.32,570.214 457.433,569.483 C457.974,565.971 457.64,562.676 455.362,559.734 C453.834,557.759 452.532,555.608 451.004,553.632 C445.166,546.081 438.905,538.847 433.855,530.706 C433.674,530.414 433.35,530.212 433.177,530.047 C426.391,531.47 419.76,532.86 412.786,534.323 C415.466,537.805 416.522,541.466 415.746,545.345 C415.134,548.399 413.902,551.332 412.924,554.312 C412.687,555.037 412.361,555.732 411.998,556.638 C418.262,555.449 424.138,554.016 430.491,554.019 M220.2933,534.343 C225.7773,530.974 230.8223,527.879 235.8643,524.781 C237.2613,523.923 238.5553,522.171 240.2853,524.304 C240.3653,524.403 240.6423,524.338 240.8273,524.355 C244.8803,524.724 248.9283,525.203 252.9893,525.441 C258.9063,525.788 264.834,525.934 270.754,526.228 C272.784,526.329 274.826,526.493 276.826,526.837 C283.767,528.03 290.641,529.512 297.325,531.791 C299.214,532.434 301.162,532.908 302.997,533.435 C304.294,531.355 303,529.953 302.352,528.498 C299.412,521.897 296.255,515.39 294.176,508.434 C293.281,505.438 292.234,502.488 291.194,499.331 C286.377,499.331 281.663,499.201 276.96,499.369 C272.689,499.522 268.586,500.464 264.581,502.167 C261.1003,503.646 257.3893,504.361 253.4693,503.398 C244.7473,501.256 235.8263,501.443 226.9293,501.503 C225.3093,501.513 224.0083,502.008 222.7403,503.21 C217.6323,508.053 212.3683,512.732 207.1793,517.491 C206.5323,518.085 205.9883,518.791 205.2623,519.593 C212.7933,520.181 220.1073,526.394 220.2933,534.343 M291.397,446.373 C291.506,449.82 292.252,452.487 293.378,455.004 C296.416,461.799 300.043,468.271 304.707,474.099 C305.854,475.532 307.326,476.713 308.707,477.944 C309.121,478.313 309.732,478.46 310.574,478.861 C310.384,476.62 310.207,474.785 310.079,472.946 C309.899,470.36 309.727,467.772 309.633,465.182 C309.621,464.836 310.026,464.26 310.342,464.175 C310.669,464.087 311.313,464.359 311.482,464.663 C311.836,465.294 312.033,466.036 312.181,466.756 C313.247,471.915 314.253,477.086 315.356,482.236 C315.581,483.287 316.025,484.331 316.563,485.266 C317.624,487.11 318.922,488.819 319.944,490.681 C324.278,498.588 330.558,504.151 339.16,507.052 C341.259,507.759 343.243,508.798 345.326,509.561 C346.436,509.968 347.685,510.457 348.798,510.318 C358.4,509.114 365.444,504.072 370.183,495.704 C370.319,495.463 370.492,495.216 370.538,494.953 C371.117,491.59 371.97,488.24 372.163,484.853 C372.379,481.08 371.943,477.272 371.876,473.478 C371.772,467.539 371.847,461.595 371.636,455.66 C371.504,451.972 371.3,448.234 370.564,444.635 C369.566,439.754 368.054,434.975 366.696,430.173 C366.476,429.392 365.987,428.653 365.495,427.99 C362.951,424.569 360.362,421.182 357.797,417.777 C356.993,416.712 356.212,415.629 355.287,414.372 C358.378,413.717 360.253,415.122 361.739,416.934 C363.552,419.148 365.09,421.588 366.74,423.935 C367.283,424.709 367.804,425.498 368.447,426.445 C371.83,421.254 375.483,417.011 381.377,414.722 C380.138,413.05 379.132,411.381 377.825,409.997 C375.789,407.841 373.692,405.692 371.357,403.882 C368.665,401.793 365.85,399.725 362.789,398.281 C358.608,396.308 354.066,395.276 349.493,394.392 C346.323,393.779 343.238,393.839 340.105,394.265 C332.417,395.311 325.481,398.353 319.047,402.531 C314.555,405.449 310.717,409.154 308.586,414.168 C307.251,417.306 306.235,420.626 305.479,423.955 C304.085,430.089 304.896,436.322 305.127,442.518 C305.203,444.552 305.659,446.616 305.418,448.603 C305.218,450.251 305.271,451.482 306.291,452.899 C307.32,454.329 308.019,456.078 307.957,458.033 C305.293,457.417 303.38,456.381 301.157,453.34 C298.706,449.988 294.808,449.097 291.397,446.373 M464.525,722.7507 C463.878,718.0527 463.158,713.2997 462.581,708.5277 C461.581,700.2597 460.78,691.965 459.692,683.708 C458.107,671.69 455.917,659.767 454.623,647.693 C453.006,632.604 450.665,617.594 448.583,602.556 C448.267,600.273 448.105,597.805 447.096,595.816 C445.095,591.867 442.771,588.034 440.171,584.45 C437.871,581.278 434.298,579.745 430.5,578.98 C426.731,578.222 422.924,578.454 419.173,579.134 C413.617,580.139 408.439,581.935 404.41,586.248 C401.022,589.875 397.729,593.432 397.841,598.892 C397.873,600.431 397.698,602.151 397.028,603.493 C395.504,606.545 393.599,609.404 391.881,612.361 C391.241,613.461 390.406,614.555 390.16,615.756 C389.49,619.009 388.942,622.303 388.617,625.607 C388.202,629.826 387.025,633.762 385.148,637.545 C384.282,639.29 382.826,639.916 381.12,640.014 C379.336,640.118 378.075,639.004 377.527,637.433 C377.055,636.082 376.783,634.562 376.86,633.139 C376.994,630.657 377.485,628.196 377.787,625.721 C378.029,623.735 378.212,621.742 378.422,619.753 C377.705,620.304 377.359,620.951 377.281,621.629 C377.069,623.465 377.002,625.316 376.82,627.156 C376.414,631.275 375.265,635.162 372.921,638.612 C371.841,640.201 370.747,640.28 369.155,639.279 C367.658,638.338 366.629,637.035 366.276,635.363 C365.224,630.387 364.138,625.408 363.368,620.385 C362.825,616.841 364.508,613.694 365.983,610.583 C366.379,609.749 366.965,608.931 367.083,608.055 C367.334,606.185 367.336,604.282 367.455,602.121 C363.191,602.435 358.672,602.571 354.209,603.14 C344.5,604.378 335.087,606.753 326.351,611.346 C319.549,614.921 313.265,619.097 308.99,625.757 C308.018,627.27 307.362,628.587 308.223,630.341 C310.017,633.994 311.362,637.939 313.611,641.28 C316.518,645.598 320.201,649.311 326.024,649.569 C326.618,649.596 327.188,650.107 327.774,650.382 C328.35,650.651 328.911,651.049 329.518,651.144 C335.088,652.024 340.646,653.3 346.251,653.577 C353.182,653.921 360.156,653.429 367.111,653.286 C368.502,653.257 369.902,653.263 371.28,653.101 C378.815,652.218 386.357,651.371 393.872,650.334 C397.614,649.817 401.304,648.92 405.2,648.159 C402.487,641.272 400.924,634.405 401.519,627.264 C402.096,620.35 402.81,613.424 405.22,606.838 C404.957,612.931 404.373,618.962 404.475,625.071 C404.612,633.234 406.711,640.854 409.963,648.172 C411.989,652.731 414.688,656.989 417.029,661.412 C420.196,667.393 423.315,673.4 426.443,679.402 C429.056,684.415 431.564,689.485 434.284,694.4377 C436.837,699.0897 436.924,704.0287 436.117,709.0017 C435.602,712.1777 434.461,715.2557 433.599,718.3767 C433.41,719.0597 433.211,719.7407 432.962,720.6177 C439.421,723.4357 445.739,726.2177 452.739,726.22375 C456.859,726.2277 461.141,725.9987 464.525,722.7507 M448.996,587.813 C450.357,592.679 451.601,597.127 452.878,601.694 C453.632,601.894 454.523,602.114 455.405,602.368 C458.585,603.283 461.087,605.104 462.636,608.059 C469.397,620.954 474.604,634.362 476.626,648.907 C479.177,667.257 481.832,685.596 486.1,703.6487 C487.71,710.4587 490.197,716.9647 494.067,722.8247 C495.587,725.1277 497.572,727.1377 499.449,729.1857 C504.905,735.1367 510.428,741.0257 515.896,746.9657 C518.919,750.2497 522.089,753.3087 525.862,755.7917 C530.743,759.0037 535.429,762.5137 540.15,765.9637 C541.461,766.9217 543.322,767.9557 542.739,769.8407 C542.186,771.6287 540.071,771.8377 538.48,771.8117 C534.133,771.7417 529.761,771.6147 525.455,771.0697 C520.87,770.4897 516.344,769.4257 511.799,768.5327 C508.962,767.9757 506.708,766.4897 504.816,764.2817 C501.559,760.4797 498.284,756.6817 494.818,753.0737 C492.238,750.3867 489.149,748.2817 485.697,746.7937 C485.046,746.5127 484.32,746.4057 483.381,746.1507 C483.381,747.9507 483.315,749.4897 483.404,751.0187 C483.465,752.0727 484.215,753.2177 482.639,753.8277 C480.989,754.4677 478.971,754.0687 478.214,752.6717 C477.024,750.4727 475.745,748.2637 474.979,745.9057 C473.699,741.9657 472.458,737.9637 472.842,733.5907 C471.211,733.2727 469.824,733.3147 468.693,734.6447 C466.277,733.5367 466.309,731.0847 465.495,728.9107 C464.292,729.6727 463.234,730.3427 462.033,731.1027 C462.857,735.5027 463.681,739.8587 464.487,744.2187 C466.645,755.8767 468.788,767.5377 470.955,779.1937 C471.276,780.9227 471.508,782.7007 472.105,784.3387 C472.981,786.7427 472.281,788.9127 471.474,791.0677 C470.94,792.4957 470.083,792.8027 468.551,792.2517 C467.517,791.8807 466.484,791.3767 465.601,790.7277 C455.994,783.6777 449.213,774.4417 444.724,763.4697 C442.676,758.4657 442.647,753.1557 442.466,747.8677 C442.368,744.9967 442.143,742.1307 441.948,739.2637 C441.913,738.7497 441.744,738.2447 441.503,737.1007 C439.695,741.8767 438.877,746.3097 437,750.4007 C434.546,749.7927 433.917,748.0517 433.816,746.3577 C433.637,743.3157 433.763,740.2467 433.91,737.1967 C434.07,733.8807 434.4,730.5717 434.659,727.2237 C433.379,726.3407 432.123,725.5617 430.968,724.6557 C428.73,722.8987 428.344,721.3077 429.125,718.5827 C430.399,714.1307 431.616,709.6617 432.792,705.1817 C433.329,703.1357 433.025,701.1787 431.963,699.2907 C427.367,691.126 422.751,682.971 418.279,674.737 C414.561,667.89 411.033,660.94 407.369,653.935 C407.049,653.917 406.663,653.791 406.346,653.889 C399.202,656.114 391.804,656.736 384.41,657.184 C375.624,657.718 366.82,657.957 358.025,658.341 C354.322,658.503 350.624,658.814 346.92,658.87 C340.511,658.968 334.141,658.481 327.866,657.072 C327.416,656.971 326.93,656.712 326.519,656.8 C322.273,657.704 318.86,655.565 315.844,653.279 C312.772,650.952 310.199,647.922 307.6,645.026 C305.045,642.18 304.152,638.506 303.211,634.904 C301.196,627.202 300.692,619.354 301.102,611.445 C301.201,609.523 301.829,607.633 302.172,605.721 C302.506,603.86 304.07,602.303 303.479,600.19 C303.397,599.896 303.939,599.433 304.182,599.043 C306.349,595.555 308.305,592.026 308.365,587.72 C308.393,585.709 309.524,585.038 311.68,585.423 C311.476,585.018 311.373,584.662 311.154,584.403 C310.017,583.054 310.425,581.808 311.428,580.659 C312.517,579.41 313.681,578.227 315.232,576.568 C314.671,576.226 314.067,575.961 313.589,575.549 C310.995,573.308 308.198,571.246 305.902,568.728 C299.267,561.45 297.117,553.02 300.176,543.48 C300.741,541.716 301.347,539.965 301.924,538.204 C301.946,538.136 301.866,538.035 301.683,537.552 C298.613,536.572 295.335,535.303 291.946,534.494 C286.183,533.119 280.374,531.902 274.538,530.886 C271.913,530.429 269.173,530.653 266.49,530.502 C257.5093,529.998 248.5863,529.011 239.8143,526.964 C238.3973,526.633 237.4233,526.822 236.3193,527.792 C230.2853,533.091 223.4273,537.159 216.4403,541.058 C209.8753,544.722 203.4363,548.611 196.9463,552.41 C196.7153,552.546 196.5393,552.777 196.0853,553.196 C197.1633,557.82 198.2353,562.597 199.3983,567.352 C200.6323,572.4 202.0513,577.425 201.6093,582.694 C201.4333,584.804 201.0483,586.911 200.5753,588.977 C200.1163,590.977 198.7723,592.163 196.6573,592.325 C195.0033,592.453 193.5933,591.417 192.7813,589.314 C191.6773,586.457 190.6963,583.565 190.6583,580.438 C190.6283,578.045 189.4083,576.196 187.6853,574.67 C186.3223,573.463 184.6013,573.644 183.6993,575.241 C182.1953,577.901 180.7943,580.63 179.5443,583.417 C179.0743,584.468 179.0083,585.76 178.9933,586.944 C178.9453,590.566 179.0013,594.189 179.0393,597.811 C179.0693,600.657 178.5803,603.364 176.9143,605.74 C175.4753,607.793 174.6983,607.808 172.5043,606.47 C171.8213,606.053 171.2753,605.332 170.8073,604.653 C166.8323,598.887 164.1543,592.678 164.2713,585.501 C164.2953,583.971 164.0953,582.436 163.9983,580.904 C163.7573,580.896 163.5173,580.889 163.2763,580.882 L163.2763,586.284 C162.2693,575.419 163.8173,565.297 171.2223,556.603 C174.6343,552.596 177.3973,548.007 180.2153,543.531 C184.2923,537.059 189.2443,531.287 194.1743,525.493 C196.8183,522.385 199.5863,519.373 202.4173,516.433 C204.1483,514.635 205.9153,512.749 208.0013,511.436 C212.9093,508.348 217.2033,504.552 221.3663,500.591 C222.8823,499.148 224.5753,498.403 226.5533,498.366 C235.5443,498.2 244.5583,497.925 253.3723,500.197 C256.6023,501.03 259.7803,500.901 262.9973,500.371 C263.442,500.297 263.909,500.165 264.295,499.939 C269.869,496.682 276.069,496.186 282.293,495.941 C290.653,495.612 298.961,496.316 307.232,497.532 C307.869,497.626 308.541,497.649 309.176,497.559 C311.643,497.212 314.101,496.805 316.931,496.364 C314.959,492.712 313.087,489.243 311.243,485.827 C306.581,486.118 303.738,483.247 301.47,480.176 C298.789,476.545 296.526,472.533 294.582,468.448 C291.914,462.843 289.532,457.072 288.445,450.894 C288.158,449.262 288.052,447.572 288.087,445.913 C288.141,443.338 289.477,442.075 292.078,441.856 C293.875,441.706 295.572,441.997 297.211,442.796 C298.25,443.303 299.378,443.626 300.994,444.229 C300.716,441.835 300.561,439.941 300.268,438.069 C299.214,431.346 299.875,424.832 301.896,418.312 C304.91,408.589 310.885,401.511 319.519,396.247 C325.304,392.72 331.24,389.812 337.94,388.752 C341.036,388.262 344.198,388.1 347.337,387.995 C355.43,387.721 362.038,391.756 368.627,395.662 C373.792,398.723 377.842,403.135 381.937,407.441 C382.947,408.503 383.714,409.82 384.471,411.093 C386.749,414.922 389.138,418.697 391.173,422.654 C395.988,432.016 399.699,441.739 400.923,452.334 C401.741,459.409 403.098,466.422 404.173,473.469 C405.278,480.708 404.637,487.706 401.146,494.287 C400.711,495.105 400.35,495.964 399.971,496.809 C399.898,496.971 399.902,497.167 399.839,497.528 C402.036,497.421 404.198,497.318 406.359,497.21 C411.101,496.973 415.309,498.322 419.03,501.302 C423.098,504.559 426.91,507.955 429.732,512.491 C434.921,520.834 440.32,529.055 445.9,537.142 C449.161,541.869 452.94,546.238 456.486,550.768 C457.401,551.937 458.23,553.189 459.249,554.26 C463.928,559.173 464.498,565.056 463.514,571.382 C463.028,574.501 462.653,577.579 460.748,580.297 C458.535,583.453 455.858,585.839 452.062,586.833 C451.005,587.109 449.977,587.496 448.996,587.813" id="Fill-19" fill="#000000"></path>
        <path d="M464.525,722.7505 C461.141,725.9985 456.859,726.2285 452.739,726.22455 C445.739,726.2175 439.421,723.4365 432.962,720.6175 C433.212,719.7405 433.41,719.0605 433.599,718.3765 C434.461,715.2555 435.602,712.1785 436.117,709.0015 C436.924,704.0285 436.838,699.0895 434.284,694.4385 C431.564,689.485 429.056,684.415 426.443,679.402 C423.315,673.4 420.196,667.394 417.029,661.412 C414.688,656.989 411.989,652.731 409.963,648.172 C406.711,640.855 404.612,633.234 404.475,625.071 C404.373,618.962 404.957,612.932 405.22,606.838 C402.81,613.424 402.096,620.351 401.519,627.265 C400.924,634.405 402.487,641.272 405.2,648.159 C401.304,648.92 397.614,649.817 393.872,650.334 C386.357,651.371 378.815,652.218 371.28,653.102 C369.902,653.264 368.502,653.257 367.111,653.286 C360.156,653.429 353.182,653.921 346.251,653.577 C340.646,653.3 335.088,652.024 329.518,651.145 C328.911,651.049 328.35,650.651 327.774,650.382 C327.188,650.107 326.618,649.596 326.024,649.569 C320.201,649.312 316.518,645.599 313.611,641.28 C311.362,637.939 310.017,633.994 308.223,630.341 C307.362,628.587 308.018,627.271 308.99,625.757 C313.265,619.098 319.549,614.921 326.351,611.346 C335.088,606.753 344.5,604.378 354.209,603.141 C358.672,602.571 363.191,602.436 367.455,602.121 C367.336,604.282 367.334,606.186 367.083,608.056 C366.965,608.932 366.379,609.749 365.983,610.583 C364.508,613.694 362.825,616.841 363.368,620.385 C364.138,625.408 365.224,630.387 366.276,635.363 C366.629,637.035 367.658,638.338 369.155,639.279 C370.747,640.28 371.841,640.201 372.921,638.612 C375.265,635.162 376.414,631.275 376.82,627.156 C377.002,625.316 377.069,623.465 377.281,621.629 C377.359,620.951 377.705,620.305 378.422,619.753 C378.212,621.742 378.029,623.735 377.787,625.721 C377.485,628.196 376.994,630.657 376.86,633.14 C376.783,634.563 377.055,636.082 377.527,637.434 C378.075,639.004 379.336,640.118 381.12,640.015 C382.826,639.916 384.282,639.29 385.148,637.545 C387.025,633.762 388.202,629.826 388.617,625.607 C388.942,622.303 389.49,619.009 390.16,615.756 C390.406,614.556 391.241,613.461 391.881,612.361 C393.599,609.404 395.504,606.545 397.028,603.493 C397.698,602.151 397.873,600.432 397.841,598.893 C397.729,593.433 401.022,589.875 404.41,586.248 C408.439,581.936 413.617,580.14 419.173,579.134 C422.924,578.454 426.731,578.223 430.5,578.981 C434.298,579.745 437.871,581.278 440.171,584.45 C442.771,588.034 445.095,591.867 447.096,595.816 C448.105,597.806 448.267,600.273 448.583,602.557 C450.665,617.594 453.006,632.605 454.623,647.693 C455.917,659.768 458.107,671.69 459.692,683.708 C460.78,691.965 461.581,700.2595 462.581,708.5275 C463.158,713.2995 463.879,718.0535 464.525,722.7505" id="Fill-20" fill="#FFFFFF"></path>
        <path d="M307.386,470.923 C309.279,468.363 309.332,468.149 307.611,466.039 C306.977,465.263 306.96,464.567 307.295,463.747 C307.69,462.782 307.573,462.072 306.66,461.352 C304.568,459.699 302.566,457.931 300.57,456.162 C299.593,455.297 298.671,454.381 297.06,453.444 C298.62,457.458 300.825,460.254 303.394,462.63 C302.74,467.486 303.982,469.991 307.386,470.923 M344.716,475.909 C344.72,476.147 344.724,476.385 344.729,476.622 C345.985,476.793 347.25,477.153 348.496,477.097 C352.334,476.925 354.589,473.613 353.096,470.069 C350.961,465.002 346.909,461.232 343.805,456.807 C343.606,458.859 344.524,460.411 345.52,461.983 C347.204,464.64 348.842,467.332 350.368,470.082 C351.298,471.758 351.118,472.505 349.611,473.629 C348.664,474.335 347.522,474.786 346.443,475.301 C345.895,475.562 345.293,475.71 344.716,475.909 M334.703,484.949 C334.928,485.545 334.971,485.966 335.2,486.221 C337.367,488.624 339.505,491.062 341.797,493.342 C342.372,493.913 343.453,494.077 344.336,494.22 C347.595,494.747 350.79,493.981 353.986,493.542 C358.652,492.902 358.695,492.821 357.71,488.197 C357.324,486.39 357.127,484.755 358.553,483.271 C358.852,482.959 358.774,482.285 358.927,481.478 C350.68,481.959 342.712,482.576 334.703,484.949 M365.552,451.304 C365.589,448.397 365.142,447.569 363.2,446.375 C362.648,446.035 362.085,445.708 361.511,445.406 C358.548,443.85 353.339,444.657 351.326,447.313 C350.383,448.557 349.662,450.34 349.683,451.867 C349.722,454.771 350.815,457.567 352.757,459.754 C355.26,462.571 357.309,463.604 361.109,460.54 C364.25,458.008 365.028,454.406 365.552,451.304 M347.325,438.043 C347.347,433.98 346.376,432.43 343.58,430.958 C341.187,429.698 338.802,430.308 336.302,430.597 C332.003,431.096 329.105,435.908 331.013,440.559 C331.675,442.171 332.44,443.826 333.527,445.163 C336.475,448.788 340.272,449.326 343.551,446.105 C346.082,443.617 347.003,440.525 347.325,438.043 M327.853,450.771 C327.388,450.771 326.922,450.743 326.46,450.776 C320.479,451.185 315.969,457.14 318.71,463.17 C319.131,464.097 319.611,465.004 320.143,465.871 C323.331,471.061 330.571,471.172 333.774,465.994 C334.784,464.361 335.584,462.499 336.019,460.634 C336.542,458.395 336.799,455.951 334.966,454.06 C333.042,452.076 330.674,450.89 327.853,450.771 M291.397,446.372 C294.808,449.097 298.706,449.987 301.157,453.339 C303.381,456.38 305.293,457.416 307.957,458.032 C308.019,456.077 307.32,454.328 306.291,452.899 C305.271,451.482 305.218,450.25 305.418,448.603 C305.659,446.615 305.203,444.551 305.127,442.518 C304.896,436.321 304.085,430.088 305.479,423.954 C306.236,420.625 307.251,417.306 308.586,414.167 C310.718,409.153 314.555,405.448 319.047,402.53 C325.481,398.353 332.417,395.311 340.105,394.265 C343.239,393.838 346.323,393.778 349.493,394.392 C354.066,395.276 358.609,396.308 362.789,398.28 C365.85,399.725 368.665,401.792 371.358,403.881 C373.693,405.692 375.789,407.84 377.825,409.996 C379.132,411.38 380.138,413.049 381.378,414.722 C375.484,417.01 371.83,421.253 368.448,426.444 C367.804,425.497 367.283,424.708 366.74,423.935 C365.091,421.587 363.553,419.148 361.739,416.934 C360.254,415.121 358.378,413.716 355.287,414.371 C356.212,415.628 356.993,416.711 357.797,417.777 C360.363,421.182 362.951,424.569 365.495,427.989 C365.988,428.652 366.476,429.392 366.697,430.172 C368.054,434.975 369.566,439.753 370.564,444.634 C371.3,448.234 371.505,451.972 371.636,455.659 C371.847,461.594 371.772,467.538 371.876,473.478 C371.943,477.272 372.379,481.079 372.163,484.853 C371.97,488.239 371.117,491.589 370.538,494.952 C370.492,495.215 370.32,495.462 370.183,495.703 C365.445,504.071 358.4,509.113 348.798,510.318 C347.685,510.456 346.436,509.967 345.326,509.561 C343.243,508.797 341.259,507.758 339.16,507.051 C330.558,504.151 324.279,498.587 319.944,490.681 C318.923,488.819 317.624,487.11 316.563,485.266 C316.025,484.33 315.581,483.286 315.356,482.236 C314.253,477.085 313.247,471.914 312.181,466.755 C312.033,466.035 311.836,465.293 311.482,464.662 C311.313,464.359 310.67,464.086 310.342,464.174 C310.026,464.259 309.621,464.835 309.634,465.182 C309.727,467.772 309.9,470.36 310.079,472.945 C310.207,474.784 310.385,476.619 310.574,478.86 C309.733,478.459 309.121,478.313 308.707,477.944 C307.326,476.712 305.854,475.531 304.707,474.099 C300.043,468.271 296.416,461.798 293.378,455.003 C292.252,452.486 291.506,449.819 291.397,446.372" id="Fill-21" fill="#FFFFFF"></path>
        <path d="M220.2933,534.342 C220.1073,526.394 212.7933,520.181 205.2623,519.592 C205.9883,518.79 206.5323,518.084 207.1793,517.49 C212.3683,512.732 217.6323,508.052 222.7403,503.209 C224.0083,502.007 225.3093,501.513 226.9293,501.502 C235.8263,501.443 244.7473,501.255 253.4693,503.398 C257.3893,504.361 261.1003,503.646 264.581,502.166 C268.586,500.463 272.689,499.522 276.96,499.368 C281.663,499.2 286.377,499.33 291.194,499.33 C292.234,502.488 293.281,505.438 294.176,508.434 C296.255,515.39 299.412,521.897 302.352,528.497 C303,529.952 304.294,531.355 302.997,533.435 C301.162,532.907 299.214,532.434 297.325,531.79 C290.641,529.512 283.767,528.03 276.826,526.836 C274.826,526.492 272.784,526.328 270.754,526.228 C264.834,525.934 258.9063,525.787 252.9893,525.441 C248.9283,525.202 244.8803,524.724 240.8273,524.355 C240.6423,524.337 240.3653,524.403 240.2853,524.304 C238.5553,522.17 237.2613,523.922 235.8643,524.78 C230.8223,527.878 225.7773,530.974 220.2933,534.342" id="Fill-22" fill="#FFFFFF"></path>
        <path d="M430.491,554.019 C424.138,554.016 418.262,555.449 411.998,556.638 C412.362,555.732 412.687,555.037 412.925,554.312 C413.903,551.331 415.134,548.399 415.746,545.344 C416.522,541.465 415.467,537.805 412.786,534.323 C419.76,532.86 426.391,531.469 433.177,530.046 C433.35,530.211 433.674,530.414 433.855,530.706 C438.905,538.847 445.166,546.081 451.004,553.631 C452.532,555.608 453.834,557.758 455.363,559.734 C457.64,562.675 457.974,565.971 457.433,569.483 C457.321,570.213 457.139,570.953 457.169,571.681 C457.308,575.145 455.333,577.22 452.506,578.589 C450.096,579.756 447.559,580.663 444.733,581.828 C443.199,580.536 441.366,579.26 439.877,577.663 C438.377,576.053 436.688,575.317 434.553,575.083 C430.021,574.588 425.51,574.63 420.992,575.173 C420.278,575.26 419.554,575.27 418.843,575.315 C418.309,569.706 416.824,568.364 409.991,564.829 C413.302,562.67 416.427,560.31 419.843,558.498 C423.136,556.751 426.729,555.572 430.491,554.019" id="Fill-23" fill="#FFFFFF"></path>
        <path d="M453.328,605.255 C456,606.465 457.25,608.551 458.269,610.707 C460.169,614.73 462.032,618.782 463.642,622.927 C466.767,630.973 469.462,639.167 470.875,647.716 C472.264,656.121 473.409,664.57 474.968,672.943 C477.14,684.601 479.179,696.3094 482.732,707.6504 C484.142,712.1504 486.134,716.4704 487.876,720.8664 C488.384,722.1474 488.944,723.4074 489.638,725.0534 C483.084,726.5274 476.723,727.5244 470.184,728.9194 C469.721,726.3114 469.194,723.8944 468.876,721.4494 C467.84,713.4664 466.791,705.4824 465.91,697.4804 C464.511,684.781 463.003,672.105 460.742,659.522 C459.859,654.61 459.511,649.606 458.805,644.66 C457.014,632.107 455.156,619.563 453.336,607.013 C453.271,606.564 453.328,606.096 453.328,605.255" id="Fill-24" fill="#FFFFFF"></path>
        <path d="M174.7523,604.686 C173.4923,604.096 173.1523,603.131 173.2033,601.924 C173.4233,596.779 172.5263,591.775 171.1863,586.841 C170.8493,585.602 171.1363,584.531 171.4753,583.356 C172.3713,580.25 173.1513,577.111 173.8953,573.965 C174.1823,572.75 174.2453,571.484 174.4593,569.88 C172.6583,570.506 172.0983,571.698 171.5893,572.827 C171.0983,573.916 170.6743,575.082 170.4953,576.257 C169.8493,580.498 168.3353,584.651 169.2693,589.066 C169.5123,590.217 169.3053,591.463 169.3053,593.051 C168.0593,591.479 167.9183,589.879 167.8673,588.408 C167.6793,583.042 167.2053,577.667 168.1263,572.308 C168.2783,571.419 168.6343,570.336 167.5233,569.505 C167.2423,569.294 167.4163,568.077 167.7353,567.527 C169.5913,564.331 171.3773,561.069 173.5203,558.067 C176.9673,553.238 180.7403,548.643 184.2303,543.843 C185.2623,542.423 186.4063,542.035 187.9943,542.192 C191.2733,542.517 193.6963,544.219 195.5973,546.799 C196.2913,547.742 196.3563,548.648 195.5003,549.55 C195.0573,550.016 194.6623,550.53 194.2633,551.037 C193.3763,552.165 192.7093,553.093 193.5413,554.82 C194.3023,556.4 194.1713,558.424 194.3663,560.26 C194.8913,565.181 196.0693,569.928 198.1133,574.442 C198.9973,576.393 199.0953,578.371 198.5373,580.41 C198.4883,580.588 198.4763,580.776 198.4313,580.956 C197.7933,583.546 196.8863,586.113 197.8993,588.757 C196.5093,589.717 195.5453,589.333 195.2123,588.005 C194.6563,585.78 193.8823,583.473 194.0013,581.243 C194.2123,577.261 192.8383,574.216 189.9903,571.625 C189.1693,570.878 188.3283,570.52 187.2193,570.734 C186.6063,570.851 185.9653,570.869 185.3393,570.86 C183.7313,570.835 182.4203,571.364 181.6443,572.839 C179.8293,576.285 177.7563,579.629 176.3143,583.226 C174.6483,587.376 175.2633,591.811 175.8743,596.136 C176.2283,598.644 176.4843,601.117 175.4763,603.531 C175.3043,603.942 175.0003,604.297 174.7523,604.686" id="Fill-25" fill="#FFFFFF"></path>
        <path d="M382.928,607.085 C381.016,606.756 380.452,607.764 380.212,608.696 C379.245,612.462 377.049,615.502 374.897,618.632 C374.132,619.745 374.066,621.427 373.94,622.872 C373.698,625.635 373.76,628.427 373.466,631.182 C373.283,632.888 372.645,634.533 371.222,635.827 C371.373,634.302 371.657,632.775 371.647,631.251 C371.629,628.477 371.522,625.695 371.289,622.931 C371.106,620.75 371.396,618.773 372.304,616.734 C373.66,613.691 374.707,610.507 375.805,607.355 C376.115,606.467 376.141,605.481 376.355,604.189 C374.378,605.606 369.353,614.384 366.681,620.091 C366.757,619.148 366.688,618.166 366.932,617.269 C368.277,612.332 370.034,607.546 372.573,603.084 C373.272,601.856 373.808,600.601 375.382,599.89 C376.319,599.467 376.894,597.832 377.258,596.629 C378.33,593.082 379.255,589.488 380.163,585.894 C380.925,582.88 384.26,580.917 387.15,581.992 C388.797,582.605 390.374,583.419 391.942,584.223 C392.834,584.681 393.644,585.301 394.753,586.018 C393.24,586.929 393.369,588.183 393.607,589.468 C393.742,590.195 393.848,590.928 393.973,591.657 C394.94,597.304 392.956,602.415 390.318,607.057 C387.364,612.255 386.505,617.815 385.682,623.502 C385.218,626.706 384.649,629.897 384.058,633.08 C383.89,633.981 383.593,634.905 383.136,635.691 C382.807,636.257 381.935,637.079 381.622,636.96 C380.959,636.706 380.416,635.967 379.998,635.315 C379.796,635.001 379.974,634.434 380.002,633.982 C380.383,627.606 380.825,621.234 381.116,614.856 C381.197,613.064 381.323,611.387 382.235,609.78 C382.651,609.047 382.683,608.095 382.928,607.085" id="Fill-26" fill="#FFFFFF"></path>
        <path d="M380.706,521.351 C381.919,520 383.089,518.608 384.353,517.307 C386.616,514.978 389.014,512.777 391.207,510.386 C392.89,508.551 394.49,506.601 395.848,504.521 C396.715,503.193 397.628,502.53 399.188,502.597 C400.763,502.664 402.347,502.537 403.918,502.635 C408.166,502.905 412.131,504.058 415.508,506.764 C417.51,508.368 419.439,510.061 421.662,511.935 C408.165,516.859 394.782,520.173 380.706,521.351" id="Fill-27" fill="#FFFFFF"></path>
        <path d="M310.438,500.886 C313.232,500.276 315.301,499.828 317.367,499.37 C318.378,499.146 319.161,499.409 319.778,500.287 C320.255,500.965 321.021,501.485 321.354,502.213 C322.67,505.098 325.079,506.691 327.729,508.157 C334.099,511.681 340.841,514.228 347.893,515.914 C350.892,516.631 353.964,516.282 357.179,515.262 C357.177,518.232 355.76,520.477 354.417,522.716 C354.211,523.059 353.432,523.256 352.952,523.205 C347.624,522.635 342.213,523.209 336.93,521.917 C333.373,521.047 330.029,519.739 327.011,517.698 C321.918,514.255 317.301,510.248 313.424,505.455 C312.406,504.197 311.635,502.737 310.438,500.886" id="Fill-28" fill="#FFFFFF"></path>
        <path d="M364.958,532.604 C362.591,529.561 359.416,530.195 355.887,530.797 C356.383,529.662 356.697,528.943 357.011,528.224 C359.127,523.395 361.499,518.663 362.297,513.355 C362.395,512.703 362.881,512.015 363.372,511.532 C365.68,509.256 368.092,507.086 370.382,504.793 C371.312,503.863 372.264,503.872 373.424,504.063 C377.353,504.711 380.404,506.898 383.479,509.636 C377.619,517.473 371.493,525.065 364.958,532.604" id="Fill-29" fill="#FFFFFF"></path>
        <path d="M378.364,483.842 C378.364,483.139 378.391,482.239 378.359,481.342 C378.254,478.39 378.152,475.438 378.002,472.488 C377.908,470.657 378.064,470.208 379.856,469.62 C385.708,467.703 391.596,467.228 397.668,469.455 C398.692,475.619 400.088,481.771 397.472,488.266 C395.528,487.176 393.765,485.876 391.79,485.166 C389.739,484.428 387.498,484.097 385.312,483.888 C383.129,483.68 380.911,483.842 378.364,483.842" id="Fill-30" fill="#FFFFFF"></path>
        <path d="M394.651,494.171 C392.9,498.65 390.317,502.536 386.802,506.224 C383.298,502.528 379.237,499.989 374.039,499.703 C375.31,495.713 376.532,491.874 377.812,487.856 C384.111,487.939 389.914,489.46 394.651,494.171" id="Fill-31" fill="#FFFFFF"></path>
        <path d="M349.877,540.751 C353.133,539.833 356.153,539.815 359.07,541.759 C358.918,542.167 358.848,542.53 358.665,542.821 C354.781,549.021 352.366,555.758 351.3,562.98 C351.156,563.955 351.059,564.769 349.887,565.03 C348.697,565.296 347.891,564.783 347.271,563.907 C345.672,561.648 344.832,559.143 345.104,556.352 C345.638,550.885 346.74,545.583 349.877,540.751" id="Fill-32" fill="#FFFFFF"></path>
        <path d="M384.02,420.021 C385.438,422.644 386.881,425.31 388.351,428.027 C385.442,428.924 382.597,429.589 379.93,430.686 C377.306,431.765 374.861,433.283 372.338,434.609 C372.197,434.505 371.984,434.433 371.927,434.295 C370.226,430.171 370.193,430.139 373.202,426.778 C376.092,423.549 379.602,421.248 384.02,420.021" id="Fill-33" fill="#FFFFFF"></path>
        <path d="M528.53,763.522 C526.127,762.606 523.699,761.746 521.334,760.738 C520.625,760.436 520.049,759.765 519.491,759.187 C519.113,758.794 518.888,758.257 518.566,757.806 C516.337,754.687 506.902,747.113 503.116,745.48 C503.338,743.655 502.18,742.385 500.858,741.198 C498.655,739.218 496.425,737.264 494.286,735.215 C493.293,734.264 492.41,733.168 491.63,732.033 C491.209,731.42 491.109,730.586 490.865,729.855 C492.271,729.33 492.659,730.274 493.196,730.802 C496.561,734.116 499.879,737.477 503.256,740.779 C503.758,741.27 504.445,741.737 505.113,741.864 C507.464,742.307 509.053,743.706 510.445,745.536 C512.853,748.7 515.273,751.861 517.845,754.889 C518.961,756.203 520.403,757.275 521.811,758.297 C524.12,759.973 526.523,761.519 528.886,763.12 C528.767,763.254 528.649,763.388 528.53,763.522" id="Fill-34" fill="#FFFFFF"></path>
        <path d="M394.921,450.055 C395.198,451.866 395.456,453.553 395.759,455.536 C389.004,453.036 382.951,454.592 376.793,457.445 C376.486,455.84 376.216,454.428 375.935,452.957 C381.967,449.885 388.008,448.423 394.921,450.055" id="Fill-35" fill="#FFFFFF"></path>
        <path d="M390.562,433.192 C390.919,434.25 391.235,435.184 391.52,436.028 C388.335,436.607 385.28,436.908 382.387,437.76 C379.488,438.615 376.751,440.019 373.742,441.265 C373.555,440.471 373.358,439.629 373.097,438.515 C378.4,435.31 383.793,432.673 390.562,433.192" id="Fill-36" fill="#FFFFFF"></path>
        <path d="M191.3563,540.04 C190.2773,539.98 189.7593,538.781 190.3493,537.824 C191.2653,536.337 192.1393,534.721 193.4083,533.578 C195.5123,531.685 197.8413,530.006 200.2293,528.477 C201.2633,527.814 201.7233,526.984 202.2663,526.014 C202.9233,524.839 203.7033,523.666 204.6763,522.757 C205.4273,522.057 206.7273,521.915 207.4103,522.841 C207.7673,523.325 207.6033,524.468 207.2773,525.112 C206.8913,525.877 206.1883,526.638 205.4313,527.034 C200.8403,529.44 196.9323,532.551 194.2513,537.082 C193.7423,537.942 192.9763,538.659 192.2793,539.395 C191.9863,539.706 191.5663,539.897 191.3563,540.04" id="Fill-37" fill="#FFFFFF"></path>
        <path d="M459.262,755.4986 C456.767,747.9736 454.272,740.4486 451.67,732.6026 C453.038,732.4966 454.342,732.3956 456.021,732.2676 C455.2,737.2626 456.922,741.5206 458.378,745.9356 C459.363,748.9236 459.144,752.3076 459.465,755.5126 C459.397,755.5086 459.329,755.5036 459.262,755.4986" id="Fill-38" fill="#FFFFFF"></path>
        <path d="M409.864,571.26 C408.812,571.927 408.139,572.503 407.36,572.818 C405.818,573.439 404.225,573.941 402.639,574.448 C400.11,575.256 397.963,576.653 396.115,578.544 C395.673,578.997 395.162,579.383 394.636,579.84 C393.039,579.248 391.511,578.683 389.394,577.9 C390.524,577.45 391.121,577.064 391.757,576.986 C394.676,576.626 397.163,575.589 399.449,573.586 C401.293,571.969 403.647,570.893 405.868,569.762 C407.222,569.072 408.313,570.021 409.864,571.26" id="Fill-39" fill="#FFFFFF"></path>
        <path d="M377.704,464.962 C377.568,464.534 377.47,464.362 377.466,464.189 C377.448,463.453 377.458,462.716 377.458,461.964 C381.968,459.059 393.92,459.613 396.876,462.527 C394.59,462.416 392.55,462.146 390.533,462.264 C388.331,462.393 386.129,462.781 383.965,463.24 C381.899,463.679 379.882,464.353 377.704,464.962" id="Fill-40" fill="#FFFFFF"></path>
        <path d="M361.541,537.965 C358.432,537.348 355.608,536.788 352.519,536.175 C353.001,535.846 353.316,535.467 353.68,535.411 C355.765,535.092 357.863,534.617 359.952,534.639 C362.603,534.666 363.022,535.827 361.541,537.965" id="Fill-41" fill="#FFFFFF"></path>
        <path d="M459.44,758.4907 C460.055,762.3637 460.77,766.8667 461.525,771.6227 C459.15,769.5767 458.568,765.0197 459.44,758.4907" id="Fill-42" fill="#FFFFFF"></path>
        <path d="M330.532,455.229 C328.719,455.234 327.512,455.876 327.428,456.88 C327.327,458.085 329.09,460.381 330.098,460.36 C331.075,460.338 332.596,458.177 332.615,456.745 C332.633,455.283 331.598,455.224 330.532,455.229 M327.853,450.771 C330.674,450.89 333.042,452.077 334.966,454.06 C336.799,455.952 336.542,458.395 336.019,460.634 C335.584,462.5 334.784,464.361 333.774,465.995 C330.571,471.172 323.331,471.061 320.143,465.872 C319.611,465.004 319.131,464.097 318.71,463.17 C315.969,457.14 320.479,451.185 326.46,450.776 C326.922,450.744 327.388,450.771 327.853,450.771" id="Fill-43" fill="#000000"></path>
        <path d="M342.109,433.117 C340.406,433.169 339.366,433.986 339.386,435.256 C339.412,436.888 340.872,438.526 342.256,438.474 C343.347,438.433 344.508,436.702 344.531,435.082 C344.549,433.754 343.704,433.069 342.109,433.117 M347.325,438.044 C347.003,440.525 346.082,443.618 343.551,446.105 C340.273,449.327 336.475,448.789 333.527,445.164 C332.441,443.827 331.675,442.172 331.014,440.559 C329.106,435.909 332.003,431.096 336.302,430.597 C338.802,430.308 341.187,429.699 343.581,430.959 C346.377,432.43 347.348,433.98 347.325,438.044" id="Fill-44" fill="#000000"></path>
        <path d="M361.369,447.429 C358.249,447.491 357.278,449.222 358.853,451.934 C359.082,452.329 359.331,452.729 359.643,453.058 C361.061,454.554 362.109,454.412 363.022,452.594 C363.352,451.938 363.647,451.25 363.846,450.546 C364.449,448.412 363.612,447.383 361.369,447.429 M365.551,451.304 C365.027,454.407 364.25,458.008 361.109,460.54 C357.309,463.604 355.259,462.572 352.757,459.754 C350.815,457.567 349.722,454.771 349.682,451.867 C349.662,450.34 350.382,448.557 351.326,447.313 C353.338,444.658 358.548,443.85 361.511,445.407 C362.085,445.708 362.647,446.035 363.2,446.375 C365.142,447.57 365.588,448.397 365.551,451.304" id="Fill-45" fill="#000000"></path>
        <path d="M336.635,485.237 C339.12,487.472 341.139,489.321 343.206,491.113 C343.515,491.382 344.045,491.461 344.484,491.503 C348.185,491.86 351.809,491.314 355.551,490.622 L355.551,484.579 C349.308,484.796 343.204,485.008 336.635,485.237 M334.703,484.95 C342.712,482.577 350.68,481.96 358.927,481.478 C358.774,482.286 358.852,482.96 358.553,483.271 C357.127,484.756 357.324,486.39 357.71,488.198 C358.695,492.822 358.652,492.902 353.986,493.543 C350.79,493.981 347.595,494.748 344.336,494.22 C343.453,494.078 342.372,493.914 341.797,493.342 C339.505,491.062 337.367,488.625 335.2,486.221 C334.971,485.966 334.927,485.546 334.703,484.95" id="Fill-46" fill="#000000"></path>
        <path d="M344.716,475.91 C345.293,475.711 345.895,475.562 346.443,475.302 C347.522,474.787 348.664,474.336 349.611,473.63 C351.118,472.506 351.298,471.759 350.368,470.083 C348.842,467.333 347.204,464.64 345.52,461.983 C344.524,460.412 343.606,458.859 343.805,456.807 C346.909,461.232 350.961,465.003 353.096,470.07 C354.589,473.614 352.334,476.926 348.496,477.097 C347.25,477.154 345.985,476.794 344.729,476.623 C344.724,476.386 344.72,476.147 344.716,475.91" id="Fill-47" fill="#000000"></path>
        <path d="M307.386,470.923 C303.982,469.991 302.74,467.486 303.394,462.63 C300.825,460.254 298.62,457.458 297.06,453.444 C298.671,454.381 299.593,455.297 300.57,456.162 C302.566,457.931 304.568,459.699 306.66,461.352 C307.573,462.072 307.69,462.782 307.295,463.747 C306.96,464.567 306.977,465.263 307.611,466.039 C309.332,468.149 309.279,468.363 307.386,470.923" id="Fill-48" fill="#000000"></path>
        <path d="M330.532,455.228 C331.597,455.224 332.633,455.283 332.614,456.745 C332.596,458.177 331.074,460.338 330.098,460.36 C329.089,460.381 327.327,458.085 327.428,456.88 C327.511,455.876 328.719,455.234 330.532,455.228" id="Fill-49" fill="#FFFFFF"></path>
        <path d="M342.109,433.117 C343.704,433.069 344.549,433.754 344.531,435.082 C344.508,436.702 343.347,438.433 342.256,438.474 C340.872,438.526 339.412,436.888 339.386,435.256 C339.366,433.986 340.406,433.169 342.109,433.117" id="Fill-50" fill="#FFFFFF"></path>
        <path d="M361.369,447.429 C363.612,447.383 364.449,448.412 363.846,450.546 C363.647,451.25 363.352,451.938 363.022,452.594 C362.109,454.412 361.061,454.554 359.643,453.058 C359.331,452.729 359.082,452.329 358.853,451.934 C357.278,449.222 358.249,447.491 361.369,447.429" id="Fill-51" fill="#FFFFFF"></path>
        <path d="M336.635,485.237 C343.204,485.008 349.308,484.796 355.551,484.579 L355.551,490.622 C351.809,491.314 348.185,491.86 344.484,491.503 C344.045,491.461 343.515,491.382 343.206,491.113 C341.139,489.321 339.12,487.472 336.635,485.237" id="Fill-52" fill="#FFFFFF"></path>
    </g>
</svg>