<svg width="578" height="894" viewBox="0 0 578 894" xmlns="http://www.w3.org/2000/svg"><g fill="none" fill-rule="evenodd"><path d="M319.188 585.795c-.336-.496-.485-.975-.712-1.014-2.741-.477-5.494-.889-8.54-1.364 1.867 3.348 4.763 3.768 9.252 2.378m103.479-9.601c1.994-2.382 2.383-4.825 1.165-6.833-.906-1.491-1.815-1.821-3.953-1.39.552 2.852 1.067 5.707 2.788 8.223m14.26-25.753c-2.386-3.738-7.744-6.183-11.515-5.268 3.312 2.984 6.913 4.995 11.515 5.268m-11.643 41.19c3.805 2.172 10.626 1.461 13.512-1.179l-9.452-2.048-4.06 3.227m-60.93-88.393c2.703-3.939 6.48-3.829 10.464-3.511l-.522-4.607-12.635 3.756c.407.764.632 1.256.919 1.709.48.763 1 1.501 1.775 2.653m81.544 59.47c-3.282.327-6.178.769-9.083.85-1.882.051-3.897-.095-5.646-.726-4.86-1.752-9.264-4.327-12.811-8.208-.683-.746-1.585-1.293-2.385-1.933l-.311.345 3.617 12.843c.713-2.803.967-3.211 2.836-3.435 2.663-.318 5.334-.166 7.712 1.245 1.989 1.18 3.807 2.629 4.352 5.054 1.172 5.209 1.344 10.333-1.513 15.157-.324.547-.461 1.205-.778 2.059 6.247-4.518 12.13-8.856 16.996-14.517l-2.986-8.734m-223.965 51.608c-.876-.141-1.693-.172-2.445-.412-1.741-.554-3.126-2.61-2.948-4.221.166-1.504 1.805-2.997 3.679-3.164 1.175-.105 2.402-.136 3.552.08 4.747.888 7.199 4.745 5.84 9.383-1.46 4.982-4.278 8.888-9.41 10.711-.672.24-1.305.587-1.933.874.67 2.44 1.494 2.991 4.252 2.516 4.24-.729 8.46-1.582 12.683-2.422 1.86-.371 2.105-.625 1.847-2.652-.336-2.632-.76-5.265-1.356-7.849-1.977-8.566-4.043-17.111-6.088-25.661-.19-.785-.473-1.548-.742-2.414l-20.404 2.204c.694 1.993 1.092 3.681 1.84 5.193 2.598 5.236 4.169 10.744 4.815 16.541.065.587.27 1.308.676 1.685 1.735 1.618 4.073 1.456 6.142-.392m199.7-131.781c-2.228.169-4.417.252-6.583.515-7.568.916-14.995 2.595-22.171 5.103-4.38 1.533-8.555 3.708-12.71 5.818-2.55 1.295-2.606 1.528-1.765 4.376 1.113 3.77 2.357 7.516 3.798 11.173 1.216 3.089 2.996 3.878 6.325 3.335.633-.103 1.256-.263 1.883-.399 9.956-2.161 19.665-5.182 29.3-8.448 1.123-.381 2.178-.954 3.262-1.446 2.096-.951 3.153-2.633 2.766-4.859-.704-4.047-1.576-8.067-2.511-12.068-.24-1.026-.977-1.935-1.593-3.1m-62.377 17.224c-1.943.349-3.394.546-4.814.875a219.897 219.897 0 00-34.02 10.842c-2.198.903-4.3 2.041-6.458 3.048-1.474.687-1.88 1.758-1.581 3.353.797 4.263 2.775 7.928 5.417 11.289.834 1.061 1.899 1.809 3.27 1.759 2.454-.089 4.977.012 7.343-.53 10.193-2.34 20.216-5.288 29.92-9.229 1.099-.445 2.15-1.029 3.167-1.642 1.276-.77 1.956-1.882 1.702-3.455-.584-3.613-1.004-7.259-1.77-10.833-.392-1.832-1.382-3.535-2.176-5.477m202.14 297.054c-.54-.391-.8-.666-1.12-.808-6.11-2.657-11.49-6.444-16.66-10.585-1.64-1.313-3.3-2.72-5.2-3.538-1.24-.538-1.92-1.139-2.41-2.298-.84-1.997-1.15-2.231-3.32-1.853-2.52.438-5.01 1.091-7.5 1.695-2.35.571-3.11.473-3.32-.538-.21-1.065.47-1.719 2.5-2.391 1.43-.471 2.86-.923 4.81-1.551-1.56-1.381-2.71-2.396-3.86-3.404-5.31-4.637-10.99-8.949-13.78-15.784-.06-.15-.25-.243-.58-.539-1.76 1.147-3.58 2.34-5.407 3.515-2.991 1.928-6.132 3.299-9.826 2.653-.331-.058-.693.059-1.187.111.042.636-.016 1.182.124 1.671 1.48 5.192 2.968 10.383 4.528 15.552.223.739.678 1.673 1.294 1.981 2.328 1.165 4.767 2.11 7.494 3.279-.35-1.506-.58-2.51-.9-3.901 1.06.061 1.87-.13 2.39.173 4.36 2.504 9.1 4.395 12.81 7.94 3.31 3.162 6.72 6.223 9.94 9.466 1.31 1.318 2.74 2.128 4.52 2.344 4 .485 8 .95 12.05.429 2.45-.317 4.92-.645 7.39-.684 2.25-.037 3.72-1.128 5.22-2.935m-85.156-58.355l-15.902 5.537c-.353 4.482-.71 8.856-1.04 13.233-.217 2.879.533 3.715 3.793 4.177 0-1.288.01-2.557-.003-3.825-.013-1.34-.236-2.744 1.094-3.609.33.12.58.132.652.251.233.384.44.794.586 1.218 3.863 11.167 4.708 22.766 4.596 34.441-.03 3.152.29 6.075 1.819 8.716 1.645 2.839 3.559 5.542 5.552 8.154 3.059 4.009 7.61 6.266 11.472 9.333.785.624 1.9.833 3.275 1.405-.197-1.251-.264-1.952-.423-2.632-.601-2.589-1.293-5.159-1.837-7.759a329.576 329.576 0 01-2.023-10.53c-.5-2.836-.121-5.621 1.215-8.493-4.984-.108-9.79 1.374-14.25-1.683 2.956-2.192 6.197-1.693 9.198-2.15l-7.774-45.784M309.17 550.343c-4.728-.939-9.336-2.07-13.496-4.464-2.446-1.408-5.056-2.66-6.471-5.351-.15-.284-.52-.592-.822-.634-2.58-.355-5.163-.792-8.101-.581.373.613.507.935.727 1.178 3.692 4.044 5.49 9.044 7.123 14.12 1.263 3.922 2.442 7.872 3.695 11.797.743 2.33 1.725 4.61.914 7.374 3.656.897 7.087 1.887 10.578 2.566 8.348 1.622 16.729 3.065 25.08 4.676 1.027.199 1.534-.217 2.149-.761 5.995-5.299 10.846-11.398 13.634-19.014 1.675-4.575 3.84-8.922 6.654-12.925.332-.472.597-.993.967-1.616-.448.025-.658-.025-.788.055a19.22 19.22 0 00-1.353.933c-3.506 2.599-6.252 5.88-8.706 9.463-1.756 2.566-3.672 5.027-5.592 7.476-5.255 6.705-12.6 9.841-20.57 11.795-3.691.905-7.077-.331-10.24-2.136-1.43-.816-2.597-1.979-2.652-4.012 11.483-.858 18.122-8.668 24.9-16.551-3.47-1.323-6.686-2.312-9.69-3.747-4.885-2.334-6.702-3.977-7.968-6.62 6.274 3.932 13.066 5.309 20.012 6.907 3.19-6.195 5.972-12.461 11.179-17.388-.624-.128-.804-.215-.965-.188-.451.078-.9.18-1.338.311-5.541 1.662-11.1 3.223-16.971 3.067-.356-.009-.736.081-1.072.212-3.092 1.206-6.25.989-9.456.603-5.541-.669-10.978-.056-16.277 1.694-.544.18-1.03.534-1.847.971 5.68 3.894 12.117 5.938 16.763 10.79m137.873 48.619c-2.902 1.102-5.713 2.162-8.52 3.237-7.473 2.862-14.692 6.259-21.28 10.82-3.524 2.438-7.247 4.911-8.95 9.086-2.527 6.204-4.568 12.598-5.152 19.318-.638 7.34-1.703 14.553-4.482 21.443-1.083 2.686-2.507 5.104-4.575 7.111-2.866 2.78-6.727 3.369-10.13 1.595-1.017-.53-1.996-1.134-1.96-2.645l4.466.679c-.477-1.287-.603-2.181-1.081-2.806-1.257-1.646-3.717-2.37-5.143-1.688-2.01.961-3.424 3.285-3.25 5.337.287 3.386 3.3 6.613 6.68 7.115 1.088.162 2.192.208 3.282.358 3.768.52 7.064-.66 10.053-2.836 3.435-2.5 5.715-5.911 7.397-9.744 1.987-4.53 3.867-9.109 5.894-13.621a1121.445 1121.445 0 018.724-18.986c.843-1.79 2.19-3.352 2.953-5.167 2.195-5.219 5.688-9.144 10.832-11.541 5.906-2.751 12.087-4.231 18.642-4.031 3.896.118 7.617.815 11.164 2.542 2.97 1.447 4.983 3.654 6.193 6.675.332.83.7 1.645 1.103 2.582l4.086-1.146c-.99-2.437-2.777-4.787-.351-6.987 1.93-1.751 4.24-2.564 6.792-.944.33-.952.558-1.568-.578-2.097-2.051-.954-2.926-2.705-2.477-4.864.292-1.405.91-2.742 1.525-4.524l-5.752-6.341c-2.543 1.768-3.384 1.81-5.09-.301-.902-1.12-1.257-2.684-2.077-4.541l-6.05-5.509c-.612.958-1.043 1.757-1.593 2.465-1.173 1.513-2.911 2.106-4.04 1.332-1.907-1.311-2.662-3.278-2.525-5.492.117-1.89 1.136-3.246 3.104-3.718.225-.053.398-.321.72-.597l-1.011-1.441c-2.032-.11-3.51-.203-4.988-.266-.6-.025-1.42-.234-1.77.069-2.513 2.173-4.932 4.458-7.381 6.707 1.937.059 3.546-.498 4.965-1.519 1.412-1.017 2.774-2.102 4.159-3.158l.563.419c-.3 1.007-.402 2.135-.932 3-3.102 5.061-6.9 9.42-13.1 11.641.724.471 1.067.883 1.369.854.718-.068 1.42-.323 2.118-.542 5.884-1.843 11.854-3.262 18.05-3.36 1.53-.025 3.09.283 4.59.636.448.106 1.015.872 1.04 1.362.05.897-.726 1.135-1.546 1.127-1.345-.015-2.69-.004-4.053-.004.25 4.27-.832 6.117-3.817 6.969-3.24.925-4.256.363-6.81-4.063m-191.501-53.167c1.189.494 1.85.741 2.49 1.04 4.568 2.131 3.535 4.815 1.023 8.124-.324.427-1.605.539-2.21.272-2.486-1.105-4.555-2.683-5.354-5.523-.656-2.331-.49-2.824 1.838-3.966.079-.039.044-.312.08-.627-.681-.146-1.375-.321-2.08-.443-2.514-.435-3.843-2.532-3.065-4.953.269-.833.69-1.618 1.066-2.485-1.568-.056-1.524-.031-1.991.797-.848 1.507-1.577 3.132-2.675 4.438-2.083 2.475-3.404 2.387-5.576-.196l-5.693 5.523c.647.375.962.547 1.267.737 2.24 1.397 2.508 2.415.713 4.301-1.038 1.089-2.4 2.123-3.804 2.533-1.332.39-2.911-.067-4.672-.169-.171.204-.602.677-.986 1.184a8340.258 8340.258 0 00-11.453 15.134c-1.975 2.617-4.12 5.131-5.862 7.896-4.111 6.527-6.512 13.729-7.588 21.341-.291 2.057-.2 4.208.01 6.287.478 4.766 2.455 9.015 5.156 12.886.784 1.123 2.102 2.074 3.38 2.599 1.67.687 3.528 1.046 5.337 1.238 5.097.541 11.526-2.331 12.869-8.364.485-2.178-.137-3.76-1.653-5.157-1.536-1.415-3.453-1.665-5.403-1.465-.602.062-1.27.617-1.654 1.134-.167.226.185 1.036.51 1.383.552.584 1.135.998 2.145.484 1.599-.813 2.905-.024 2.952 1.698.02.778-.223 1.664-.622 2.338-1.567 2.644-3.953 3.613-6.995 3.303-3.038-.308-5.181-1.627-6.09-4.672-.68-2.283-1.34-4.579-2.164-6.811-1.727-4.672-2.64-9.525-3.406-14.415-.127-.809-.13-1.644-.112-2.465.053-2.489.509-3.274 2.914-3.997 2.096-.63 4.275-1.01 6.439-1.376 2.978-.506 5.982-.871 8.965-1.352.704-.113 1.412-.372 2.05-.695 4.985-2.517 9.964-5.045 14.923-7.611 4.884-2.528 9.752-5.082 14.599-7.68.817-.438 1.84-.789 2.15-2.015l-5.798-2.665.198-.615c5.969-.904 11.724.759 17.432 2.064 5.825 1.331 11.51 3.276 17.76 5.099l-3.125-9.946c-4.102.41-6.975-1.335-8.837-4.392-1.261-2.067-2.094-4.497-2.638-6.874-.731-3.191.687-5.115 3.885-6.111.109-.033.152-.278.373-.717-1.154-.887-2.241-2.291-3.6-2.639-2.7-.695-5.548-.809-8.306-1.159-.577 1.306-1.044 2.395-1.538 3.471-1.204 2.622-2.904 4.456-6.145 3.858-.24-.044-.52.134-1.43.393m77.183 83.218c-.387 2.503-.62 4.624-1.952 6.487-1.746 2.442-3.464 4.909-5.075 7.441-1.196 1.876-.823 3.752.979 5.069 1.39 1.015 2.929 1.83 4.552 2.826 2.186-3.557 5.436-5.639 8.818-7.448 5.249-2.808 10.623-5.38 15.922-8.095 1.617-.829 3.26-1.666 4.725-2.729 7.485-5.442 14.914-10.962 22.372-16.443.762-.56 1.585-1.038 2.38-1.554l.383.55-22.442 18.22.233.699c.93.019 1.874.136 2.794.041 5.315-.551 10.606-.571 15.864.535 2.33.491 4.663.979 7.005 1.41.7.127 1.482.227 2.148.047 2.903-.779 5.776-1.667 8.73-2.536 1.18-3.815 2.358-7.67 3.569-11.513 1.098-3.483 2.943-6.565 5.642-8.988 2.647-2.379 5.368-4.774 8.39-6.614 4.368-2.66 9.038-4.825 13.575-7.208.314-.164.6-.38 1.06-.675l-.767-2.349c-3.602-.091-7.215.25-9.764-2.955-3.524 1.207-7.038 1.371-10.643.835-9.21-1.372-16.232-6.068-20.94-14.007-2.732-4.605-4.32-9.702-4.825-15.083-.057-.598-.206-1.186-.367-2.089-.375.488-.598.656-.652.868-.951 3.725-2 7.429-2.79 11.187-1.34 6.359-2.558 12.743-3.744 19.131-1.462 7.863-5.728 14.221-10.793 20.11-3.96 4.602-8.9 7.937-14.636 9.93-6.938 2.411-13.055.512-18.265-4.297-3.536-3.263-3.965-9.416-1.288-12.866 1.078-1.387 2.424-2.263 4.242-2.074 1.923.201 2.78 1.941 1.826 3.593-.986 1.704-.984 2.858.004 3.903 1.027 1.089 2.823 1.411 4.288.569 1.263-.727 2.49-1.57 3.586-2.531 5.649-4.952 9.815-10.918 11.649-18.265 1.33-5.329 2.344-10.74 3.455-16.122.863-4.181 1.66-8.375 2.487-12.563-.543.252-.831.597-1.051.979-2.203 3.808-4.475 7.581-6.571 11.447-2.781 5.131-6.156 9.789-10.61 13.575-4.88 4.148-10.29 7.354-16.738 8.399-2.06.334-4.148.489-6.328.738.096.739.105 1.384.27 1.985 1.713 6.224 2.269 12.609 2.85 19.007.347 3.823 1.097 7.611 1.71 11.408.089.543.43 1.045.668 1.596 1.574-.989 1.675-3.139 4.065-3.581m66.006-91.679c1.307-.944 2.499-.962 3.58-.377 1.763.953 3.573 1.905 5.109 3.167 4.176 3.429 8.22 7.018 12.309 10.553.484.418.898.915 1.37 1.347 1.757 1.605 3.338 3.501 5.332 4.717 2.39 1.457 5.055 2.96 7.746 3.306 3.98.512 8.06-.163 11.74-2.117 3.23-1.717 6.168-5.8 6.53-9.282-3.746 3.665-8.241 5.133-12.995 5.961-4.89.852-9.454.004-13.727-2.595-4.28-2.604-7.42-6.134-9.664-10.619-2.624-5.243-5.321-10.465-8.33-15.492-2.4-4.01-5.66-7.23-10.684-7.902-.424-.057-.797-.5-1.665-1.077 2.185-.695 3.863-.722 5.536-.281 4.94 1.298 8.72 4.344 11.47 8.476 2.738 4.111 5.089 8.482 7.509 12.795 1.509 2.69 1.425 2.736 4.964 2.183-.268-.876-.405-1.78-.804-2.547-1.178-2.273-2.233-4.659-3.745-6.699-3.436-4.637-7.105-9.101-10.704-13.616-1.127-1.413-2.335-2.762-3.471-4.1-1.13.292-2.01.539-2.9.746-4.731 1.1-9.436 2.345-14.205 3.239-4.791.899-7.974-.763-10.2-5.075-1.004-1.943-1.804-4.013-2.487-6.094-.434-1.324-1.181-2.05-2.488-2.177-1.178-.115-2.4-.279-3.55-.092-3.116.504-4.662 2.91-3.977 5.931.14.626.28 1.253.434 1.876 1.147 4.649-1.843 10.422-5.603 12.478-2.311 1.264-4.407 2.932-6.545 4.492-3.175 2.313-6.27 4.738-9.461 7.025-3.094 2.217-5.805 4.786-7.79 8.043-1.285 2.111-2.447 4.298-3.645 6.461-5.184 9.354-11.79 17.245-22.011 21.42-.242.098-.46.249-.963.528 1.764 1.094 3.255.75 4.563.357 3.065-.92 6.082-2.01 9.075-3.144 3.504-1.33 6.364-3.56 8.738-6.471a464.385 464.385 0 019.005-10.754c3.858-4.452 8.688-7.558 14.098-9.793.875-.361 1.782-.893 3.107-.307-.425.617-.664 1.206-1.096 1.55-2.504 1.987-4.351 4.511-5.625 7.372-1.862 4.179-3.696 8.394-5.153 12.725-2.893 8.598-7.896 15.656-14.785 21.456-3.984 3.354-8.465 5.509-13.784 5.328-2.434-.083-4.857-.496-7.446-.777.72 1.424 1.88 2.38 3.38 2.814 7.069 2.041 14.09 2.137 21.005-.701 6.956-2.856 12.16-7.742 16.13-14.017 4.46-7.05 8.768-14.2 13.35-21.169 1.743-2.65 4.022-4.96 6.154-7.337.602-.669 1.415-1.387 3.048-1.063-.631.992-1.038 1.748-1.551 2.423-1.86 2.444-3.244 5.13-3.874 8.131-.677 3.219-1.312 6.46-1.73 9.721-.79 6.179-1.14 12.425-2.16 18.563-2.14 12.895-7.443 23.725-20.243 29.411-3.72 1.652-7.246.584-8.761-3.212-.49-1.229-.725-2.56-1.11-3.962-1.128.676-1.296 1.729-1.305 2.846-.023 2.709 1.188 4.862 3.409 6.239 5.142 3.19 10.458 4.571 16.4 1.794 10.588-4.951 16.952-13.42 20.625-24.166 2.622-7.674 3.322-15.746 4.645-23.695.825-4.953 2.188-9.823 3.447-14.695.586-2.266 1.92-4.162 3.883-5.517.465-.321 1.07-.44 1.99-.798 0 1.346.067 2.313-.01 3.271-.385 4.821.163 9.516 1.827 14.064 4.199 11.481 12.177 18.476 24.354 20.464 2.315.378 4.537.058 6.752-.73 5.96-2.119 9.529-6.484 11.123-12.362 1.542-5.687-1.498-10.582-8.02-10.271 4.506 4.813 2.62 9.435-.118 14.074l2.652-1.91c-.155 3.223-2.308 6.191-5.065 7.002-3.187.938-6.168.52-8.765-1.716-3.557-3.061-6.195-6.733-7.506-11.283-1.091-3.789-2.214-7.568-3.243-11.372-.933-3.45-1.797-6.92-2.606-10.4-.224-.968-.141-2.007-.2-3.014l.619-.094c.276.616.589 1.219.819 1.852.562 1.55.99 3.155 1.643 4.664 2.663 6.139 5.21 12.338 8.17 18.333 1.439 2.913 3.629 5.47 5.603 8.095.799 1.063 1.944 1.726 3.364.245-3.568-6.074-3.99-13.029-5.276-19.744-.767-4.008-2.075-7.783-3.78-11.45-.342-.735-.744-1.528-1.336-2.046a205.315 205.315 0 00-7.57-6.337c-1.067-.849-2.263-1.523-2.875-3.089m-3.852-53.303c-.255-2.738-.456-5.192-.72-7.639-.547-5.101-1.117-10.2-1.7-15.295-.198-1.725-.34-3.469-.72-5.156-1.648-7.334-4.688-14.055-9.047-20.19-4.86-6.839-10.21-13.215-17.237-17.947-8.72-5.873-18.29-8.426-28.745-6.602-16.128 2.813-30.384 9.697-42.23 20.989-10.34 9.858-15.053 22.137-13.591 36.523.849 8.348 4.579 15.585 9.027 22.503.48.748 1.234 1.36 1.96 1.902 1.617 1.204 3.245 2.407 4.962 3.456 2.353 1.436 4.809 2.924 7.65 2.784 3.649-.179 7.283-.714 10.915-1.162.667-.082 1.295-.478 2.217-.838-1.2-1.919-2.254-3.608-3.393-5.432 2.074-.9 3.305.089 4.312 1.056 3.02 2.903 6.72 5.135 8.88 8.902.409.711.94 1.349 1.223 1.749 5.665-1.37 10.75-2.544 15.804-3.835 10.3-2.632 20.585-5.296 30.553-9.084 5.128-1.948 10.443-3.399 15.665-5.102 1.292-.422 2.547-.952 4.215-1.582M231.314 585.63c1.307 3.794 2.663 7.1 3.577 10.523 1.844 6.903 3.57 13.843 5.097 20.823.756 3.458 1.496 6.973.789 10.61-.626 3.22-1.79 4.451-4.962 4.88-3.993.539-7.974 1.176-11.96 1.767-.814.122-1.63.291-2.45.335-3.445.186-5.221-.761-6.337-4.033-.717-2.104-1.788-3.129-3.986-3.345-3.21-.316-5.764-2.276-8.402-3.885-.942-.575-1.65-1.737-2.164-2.779-5.255-10.68-6.335-21.519-1.04-32.55 1.468-3.056 2.774-6.2 4.418-9.158 1.685-3.034 3.517-6.019 5.592-8.796 4.877-6.529 9.294-13.442 15.06-19.254 4.32-4.352 8.888-8.458 13.354-12.664 1.534-1.444 3.168-2.788 4.628-4.302 1.674-1.735 3.693-2.374 5.98-2.112 5.549.632 11.108 1.225 16.619 2.1 3.154.501 6.224 1.523 9.477 2.348 1.316-1.637 3.209-1.782 5.142-1.504 3.077.443 6.162.895 9.19 1.576 1.295.29 2.21.119 3.3-.573 4.337-2.758 9.024-4.577 14.252-4.28 2.437.139 4.847.735 7.595 1.175-.418-.763-.747-1.447-1.15-2.084-2.44-3.865-3.914-8.045-4.361-12.613-.33-3.357.654-5.99 3.782-7.528 2.462-1.211 4.97-2.331 7.48-3.44 1.333-.59 2.715-1.069 4.206-1.649-.465-1.455-1.585-2.294-2.412-3.319-.756-.939-1.695-.4-2.521-.075-4.184 1.644-8.53 2.126-12.967 1.733-5.074-.45-9.948-1.579-14.117-4.755-.22-.167-.427-.362-.671-.479-4.966-2.365-7.57-6.754-9.818-11.444-3.09-6.442-5.131-13.192-5.172-20.367-.09-15.52 5.674-28.711 17.013-39.158 11.61-10.699 25.348-17.692 40.775-21.219 14.327-3.277 27.16-.059 38.2 9.541 14.06 12.224 22.609 27.444 24.33 46.254.617 6.74 1.607 13.447 2.472 20.55 1.259-.291 2.295-.48 3.303-.772 6.01-1.739 12.08-3.086 18.396-2.868.733.025 1.465.083 2.196.086 1.582.006 2.662.815 3.12 2.241 1.835 5.679 3.604 11.369 2.83 17.486-.407 3.226-1.79 5.827-4.737 7.273-3.2 1.57-6.512 2.913-9.795 4.311-1.5.64-3.043 1.176-5.037 1.939.894 1.088 1.462 1.962 2.203 2.652 3.148 2.937 6.437 5.726 9.504 8.74 4.149 4.079 6.78 9.074 8.252 14.691.254.971.553 1.93.689 2.398 2.694 1.401 5.156 2.401 7.295 3.87 2.084 1.433 3.838 3.346 5.982 5.269 4.653-.076 9.12-4.181 10.805-10.664.703.854 1.358 1.444 1.737 2.177.323.626.449 1.415.459 2.134.082 6.562-1.263 12.576-6.707 16.959-.418.336-.822.691-1.305 1.097 1.06 1.805 2.069 3.522 3.075 5.239 1.1 1.879 2.38 3.616 2.929 5.838.304 1.232 1.438 2.311 2.338 3.335a762.805 762.805 0 009.91 11.048c.794.868 1.682 1.713 2.676 2.325 4.666 2.876 8.448 6.763 12.12 10.722 4.02 4.334 4.693 11.246 2.018 16.699-.401.816-.654 1.708-.93 2.579-1.5 4.743-4.428 8.139-9.168 9.889-1.787.659-2.021 1.187-1.67 3.146.08.451.202.895.276 1.346.073.446.108.9.168 1.437 3.756.95 6.02 3.691 8.119 6.632 3.492 4.899 5.708 10.441 8.022 15.931 6.254 14.833 10.755 30.21 14.179 45.915a175.94 175.94 0 012.037 11.065c.69 4.543 2.527 8.448 6.147 11.314 2.42 1.924 3 4.261 2.28 7.074-.58 2.309-1.18 4.621-1.92 6.88-.52 1.579-.38 2.987.15 4.534.74 2.149 1.19 4.394 1.79 6.59.15.521.32 1.064.61 1.509 1 1.531 2.28 2.917 3.06 4.549 3.37 7.145 10.64 10.137 16 15.15.68.637 1.78.889 2.73 1.167 2.01.59 3.46 1.678 3.78 3.87.24 1.639 1.29 2.461 2.69 3.173 5.79 2.95 11.57 5.947 17.3 9.021 1.6.858 3.19 1.864 4.51 3.099 3.24 3.035 1.91 8.79-2.26 10.371-5.95 2.248-12.14 2.632-18.4 2.456-1.37-.039-2.74-.208-4.11-.39-3.9-.523-7.27-2.007-10.3-4.694-4.66-4.129-9.62-7.911-14.47-11.829-.56-.46-1.18-.855-1.89-1.36-.38.165-.82.284-1.17.525-1.64 1.11-3.31 1.342-5.21.622-2.135-.81-4.355-1.399-6.516-2.149-1.925-.667-3.293-1.972-3.984-3.908-.521-1.463-1.104-2.919-1.447-4.426-1.322-5.808-2.544-11.638-3.848-17.449-.154-.686-.43-1.475-.917-1.931-1.52-1.423-1.988-3.247-2.31-5.166-.393-2.35-.81-4.698-1.152-7.056-.183-1.262-.65-2.169-1.875-2.795-1.367-.699-2.587-1.681-4.208-2.765.09.897.084 1.562.233 2.189 3.05 12.842 6.128 25.677 9.162 38.524.282 1.193.599 2.222 1.66 3.015 1.546 1.157 2.042 2.83 1.515 4.665-.848 2.953-.247 5.737.42 8.645 1.39 6.07 2.463 12.216 3.64 18.334.122.623.149 1.282.1 1.916-.28 3.73-2.036 5.022-5.66 4.225-.612-.135-1.325-.441-1.848-.256-2.102.74-3.688-.246-5.397-1.218-6.953-3.955-11.151-10.196-14.386-17.221-1.12-2.428-1.74-5.013-1.572-7.743.044-.714-.095-1.45-.224-2.163-.424-2.326-1.034-4.629-1.296-6.972-.663-5.921-1.168-11.858-1.756-17.788-.08-.81-.272-1.61-.445-2.596-.89-.2-1.761-.4-2.633-.59-4.242-.927-6.63-3.562-6.608-7.891.02-4.576.499-9.148.59-13.725.074-3.814-.874-7.233-4.706-9.105-1.318-.644-2.662-1.26-3.89-2.049-1.608-1.034-3.36-2.009-4.603-3.406-1.852-2.083-2.505-4.733-1.516-7.455.84-2.316 1.922-4.549 2.98-6.778a73.946 73.946 0 012.695-5.106c1.186-2.059.88-4.073-.723-5.525-2.746-2.484-3.454-5.7-4.045-9.068-.536-3.05-1.162-6.086-1.768-9.227-.71.043-1.161-.001-1.572.107-12.68 3.32-25.54 4.809-38.657 4.076-2.255-.126-4.554.371-6.821.66-10.334 1.318-20.467-.018-30.535-2.262-.804-.18-1.606-.584-2.4-.562-3.33.092-5.802-1.622-7.92-3.838-3.668-3.836-7.556-7.554-10.632-11.84-2.19-3.051-3.212-6.945-4.721-10.477-.358-.834-.578-1.727-.94-2.829-1.854 1.207-3.296.208-4.736-.733-1.765-1.154-3.48-2.386-5.276-3.488-7.473-4.584-7.116-12.985-2.58-17.341.956-.918 1.212-1.893.885-3.206-2.657-10.671-2.398-21.654-3.385-32.505-.106-1.173-.014-2.365-.014-3.85-3.57-.735-7.44-.969-9.906-4.349-2.297-3.148-3.6-6.543-3.107-10.57-3.641-1.06-7.23-2.113-10.824-3.146a94.29 94.29 0 00-4.25-1.134c-1.388-.329-2.332-1.089-2.548-2.532-.375-2.506-1.976-3.404-4.317-3.767-5.07-.785-10.113-1.732-15.16-2.659-2.246-.414-4.511-.794-6.38-2.329-1.006-.828-1.91-.619-2.862.368-7.154 7.406-15.997 12.146-25.421 15.95l-4.027 1.624" fill="#000"/><path d="M335.567 484.067c.985.096 2.129-1.223 2.316-2.636.134-1.013-.3-1.569-1.301-1.664-1.226-.117-2.521.782-2.69 1.838-.166 1.06.724 2.369 1.675 2.462m11.242 9.825c-.505-.469-.764-.862-1.127-1.016-1.025-.44-2.761.256-3.304 1.297-.611 1.171-.04 2.145.739 2.931.274.277 1.223.391 1.385.192.83-1.03 1.506-2.185 2.307-3.404m-51.978-53.787c.838 2.213 1.017 2.439 1.968 2.581 1.739.261 4.185-1.549 4.49-3.31.144-.826-.074-1.456-.917-1.741-1.244-.418-2.461-.741-3.515.48-.586.679-1.28 1.264-2.026 1.99m48.519 41.043c-1.866.053-3.075 1.323-3 3.153.077 1.873 1.41 3.36 2.967 3.307 1.472-.051 3.085-2.185 3.019-3.992-.06-1.597-1.176-2.52-2.986-2.468m-48.476-32.869c-.02-2.031-1.55-3.285-3.941-3.228-2.187.052-3.242 1.178-3.281 3.503-.04 2.293 1.496 4.277 3.356 4.334 1.889.06 3.887-2.323 3.866-4.609m29.03 34.053c-4.37.344-4.804 2.12-3.341 5.341.189.415.396.834.667 1.196 1.465 1.945 3.3 1.877 4.637-.196.443-.689.849-1.43 1.11-2.204.83-2.461-.455-4.155-3.073-4.137m-3.882-14.387c2.223.062 5.533-3.034 5.713-5.344.104-1.343-1.536-3.234-2.832-3.074-2.273.279-4.213 1.317-5.442 3.286-1.288 2.06.278 5.067 2.56 5.132m-8.645-40.52c-1.158.305-1.992.405-2.717.739-1.738.801-3.461 1.652-5.124 2.598-1.706.971-1.986 1.671-1.52 3.049.537 1.584 2.132 2.838 3.574 2.221a41.725 41.725 0 007.339-4.083c.77-.534 1.376-2.224 1.098-3.07-.245-.743-1.83-1.044-2.65-1.454m23.263 58.829c-2.33-.028-3.963 1.008-5.026 3.092-1.1 2.157-.5 4.08.69 5.905 1.052 1.614 2.638 1.896 4.236.754 2.11-1.508 3.254-3.674 3.526-6.207.246-2.27-1.102-3.553-3.426-3.544m-41.232-25.017c-.007-1.841-3.047-4.049-5.471-3.973-2.172.068-4.004 2.501-4.034 5.362-.03 2.819 1.707 4.889 4.063 4.844 2.673-.049 5.454-3.235 5.442-6.233m38.184 8.338c-5.203-.221-7.121 2.466-5.352 6.752.14.337.282.677.459.994 1.05 1.881 2.503 2.539 4.589 2.021 2.836-.702 4.475-2.737 5.515-5.28.85-2.077.035-3.558-2.196-4.104-1.143-.281-2.351-.305-3.015-.383m-18.88-26.631c-3.597.524-7.08.824-10.444 1.615-1.49.35-2.823 1.597-4.071 2.627-.575.475-1.027 1.38-1.104 2.135-.437 4.302.577 8.164 3.824 11.237 2.42 2.291 5.212 3.28 8.55 2.537 5.77-1.283 9.92-4.872 13.41-9.386.435-.562.675-1.298.908-1.987.51-1.52.274-2.968-.943-4.03-2.952-2.575-6.31-4.338-10.13-4.748m-10.33 23.305c-7.28-.324-10.752 3.681-11.85 8.522-.796 3.509.478 6.967 2.858 9.695 1.73 1.985 3.717 3.838 5.877 5.333 3.835 2.656 9.64 3.469 13.614-1.978 1.524-2.088 2.563-4.639 3.347-7.128 1.087-3.45-.16-6.471-2.657-8.997-3.366-3.404-7.458-5.193-11.188-5.447m92.497 17.782c-1.668.63-2.924 1.16-4.216 1.582-5.222 1.703-10.537 3.153-15.665 5.101-9.968 3.789-20.252 6.453-30.553 9.084-5.054 1.291-10.14 2.465-15.804 3.835-.282-.399-.814-1.038-1.221-1.749-2.161-3.766-5.862-5.999-8.882-8.901-1.007-.968-2.238-1.956-4.312-1.057l3.393 5.433c-.922.359-1.55.756-2.217.838-3.632.447-7.266.982-10.915 1.162-2.841.14-5.297-1.349-7.65-2.784-1.717-1.049-3.345-2.252-4.961-3.456-.727-.542-1.481-1.155-1.961-1.903-4.448-6.918-8.178-14.155-9.027-22.503-1.462-14.385 3.25-26.665 13.592-36.523 11.845-11.291 26.1-18.176 42.229-20.988 10.455-1.824 20.026.728 28.745 6.601 7.027 4.733 12.377 11.109 17.237 17.948 4.359 6.134 7.399 12.855 9.048 20.19.379 1.687.52 3.431.719 5.155.583 5.096 1.153 10.195 1.7 15.295.264 2.447.465 4.902.72 7.64m3.852 53.303c.612 1.566 1.808 2.24 2.875 3.089a205.315 205.315 0 017.57 6.337c.592.518.994 1.311 1.336 2.046 1.705 3.667 3.013 7.442 3.78 11.45 1.286 6.715 1.708 13.67 5.276 19.744-1.42 1.48-2.565.818-3.364-.245-1.974-2.625-4.164-5.182-5.603-8.095-2.96-5.995-5.507-12.194-8.17-18.333-.653-1.509-1.081-3.114-1.643-4.664-.23-.633-.543-1.236-.82-1.852l-.618.094c.059 1.007-.024 2.046.2 3.014.809 3.48 1.673 6.95 2.606 10.4 1.029 3.804 2.152 7.583 3.243 11.371 1.31 4.551 3.949 8.223 7.506 11.284 2.597 2.236 5.578 2.654 8.765 1.715 2.757-.81 4.91-3.778 5.065-7.001l-2.652 1.91c2.738-4.639 4.624-9.261.119-14.074 6.52-.311 9.56 4.584 8.019 10.271-1.594 5.878-5.163 10.243-11.123 12.362-2.215.788-4.437 1.108-6.752.73-12.177-1.989-20.155-8.983-24.354-20.464-1.664-4.548-2.212-9.243-1.826-14.064.076-.958.01-1.925.01-3.271-.92.358-1.526.476-1.991.798-1.962 1.355-3.297 3.251-3.883 5.517-1.26 4.872-2.622 9.742-3.447 14.695-1.323 7.949-2.023 16.021-4.645 23.695-3.673 10.746-10.037 19.215-20.625 24.166-5.942 2.777-11.258 1.396-16.4-1.794-2.221-1.377-3.432-3.53-3.41-6.239.01-1.117.178-2.17 1.307-2.846.384 1.402.619 2.733 1.109 3.962 1.515 3.796 5.042 4.864 8.76 3.212 12.8-5.686 18.105-16.516 20.245-29.411 1.019-6.138 1.37-12.384 2.16-18.563.417-3.261 1.052-6.502 1.729-9.721.63-3.001 2.015-5.687 3.874-8.131.513-.675.92-1.431 1.55-2.423-1.632-.324-2.445.393-3.047 1.063-2.132 2.377-4.411 4.687-6.154 7.337-4.582 6.969-8.89 14.119-13.35 21.169-3.97 6.275-9.174 11.161-16.13 14.017-6.914 2.838-13.936 2.742-21.004.701-1.5-.434-2.661-1.39-3.381-2.814 2.589.281 5.012.694 7.446.777 5.319.181 9.8-1.974 13.784-5.328 6.889-5.8 11.892-12.858 14.785-21.456 1.457-4.331 3.29-8.546 5.153-12.725 1.274-2.861 3.12-5.385 5.625-7.372.432-.344.67-.934 1.096-1.55-1.325-.586-2.232-.054-3.107.307-5.41 2.235-10.24 5.341-14.098 9.793a464.385 464.385 0 00-9.005 10.754c-2.374 2.911-5.234 5.141-8.738 6.47-2.993 1.135-6.01 2.225-9.075 3.145-1.308.393-2.8.737-4.563-.357.503-.279.72-.43.963-.528 10.222-4.176 16.827-12.066 22.01-21.42 1.199-2.163 2.36-4.35 3.647-6.461 1.984-3.257 4.695-5.826 7.789-8.043 3.192-2.287 6.286-4.712 9.46-7.025 2.139-1.56 4.235-3.229 6.546-4.492 3.76-2.056 6.75-7.829 5.603-12.478-.153-.623-.293-1.25-.434-1.876-.685-3.021.86-5.427 3.978-5.931 1.15-.187 2.37-.023 3.549.091 1.307.128 2.054.854 2.488 2.178.683 2.081 1.483 4.151 2.487 6.094 2.226 4.311 5.409 5.974 10.2 5.075 4.769-.894 9.474-2.14 14.206-3.239.889-.207 1.769-.454 2.899-.746 1.136 1.338 2.344 2.687 3.47 4.1 3.6 4.515 7.269 8.979 10.705 13.616 1.512 2.04 2.567 4.426 3.745 6.699.399.767.536 1.671.804 2.547-3.54.553-3.455.507-4.964-2.183-2.42-4.313-4.771-8.684-7.508-12.795-2.751-4.132-6.53-7.178-11.47-8.476-1.674-.441-3.352-.414-5.537.281.868.577 1.24 1.02 1.665 1.077 5.025.672 8.284 3.892 10.684 7.902 3.009 5.027 5.706 10.249 8.33 15.492 2.245 4.485 5.384 8.015 9.664 10.619 4.273 2.599 8.837 3.447 13.727 2.595 4.754-.828 9.249-2.296 12.995-5.962-.362 3.483-3.3 7.566-6.53 9.283-3.68 1.954-7.76 2.629-11.74 2.117-2.691-.346-5.356-1.849-7.746-3.306-1.994-1.216-3.575-3.112-5.331-4.717-.473-.432-.887-.929-1.371-1.347-4.088-3.535-8.133-7.124-12.31-10.553-1.535-1.262-3.345-2.214-5.107-3.167-1.082-.585-2.274-.567-3.581.377" fill="#FFF"/><path d="M387.006 622.233c3.72-1.119 14.02-9.998 15.692-13.745-5.446 4.506-10.571 8.743-15.676 13.003-.121.101-.016.472-.016.742m-54.281 6.78c-2.39.443-2.491 2.592-4.066 3.581-.237-.55-.58-1.052-.667-1.595-.613-3.797-1.363-7.585-1.71-11.409-.582-6.397-1.137-12.784-2.85-19.006-.165-.602-.174-1.247-.271-1.987 2.18-.248 4.27-.402 6.328-.736 6.45-1.046 11.86-4.252 16.74-8.399 4.453-3.788 7.828-8.445 10.609-13.576 2.096-3.866 4.367-7.638 6.57-11.448.22-.382.508-.726 1.05-.978-.825 4.188-1.622 8.382-2.485 12.563-1.112 5.383-2.125 10.793-3.455 16.122-1.834 7.348-6 13.314-11.65 18.266-1.095.96-2.322 1.803-3.586 2.531-1.464.842-3.26.52-4.288-.569-.987-1.045-.99-2.2-.004-3.904.954-1.651.098-3.391-1.826-3.593-1.817-.189-3.164.687-4.241 2.075-2.678 3.449-2.248 9.602 1.288 12.866 5.21 4.809 11.326 6.708 18.265 4.297 5.736-1.993 10.676-5.328 14.635-9.931 5.066-5.889 9.332-12.247 10.793-20.11 1.187-6.388 2.406-12.772 3.745-19.13.79-3.759 1.838-7.464 2.79-11.188.053-.211.277-.379.652-.868.16.904.31 1.492.366 2.089.507 5.382 2.094 10.479 4.825 15.083 4.708 7.94 11.73 12.636 20.94 14.007 3.605.536 7.12.372 10.643-.835 2.549 3.205 6.162 2.864 9.765 2.955l.767 2.35c-.46.294-.746.51-1.06.675-4.537 2.381-9.207 4.547-13.575 7.208-3.023 1.839-5.743 4.235-8.391 6.613-2.698 2.423-4.544 5.506-5.641 8.988-1.211 3.844-2.388 7.698-3.57 11.514-2.954.869-5.827 1.757-8.73 2.536-.665.18-1.447.08-2.148-.048-2.341-.431-4.673-.919-7.005-1.409-5.257-1.107-10.548-1.086-15.864-.535-.92.094-1.862-.023-2.794-.041l-.232-.7 22.44-18.219-.382-.55c-.794.516-1.618.993-2.38 1.553-7.457 5.481-14.886 11.002-22.371 16.442-1.464 1.065-3.108 1.901-4.725 2.731-5.3 2.714-10.673 5.287-15.922 8.094-3.383 1.81-6.633 3.892-8.818 7.449-1.623-.997-3.161-1.811-4.552-2.827-1.803-1.316-2.175-3.192-.98-5.069 1.612-2.531 3.33-4.998 5.076-7.44 1.333-1.864 1.565-3.985 1.952-6.488m-107.709-63.048c-.3-.379-.538-.859-.687-.834-.375.066-.902.293-1.006.584-.093.26.299.693.477 1.05l1.216-.8m11.96 1.623c1.3-.61 2.035-1.335 1.538-2.636-.277-.726-1.658-.979-2.127-.383-.824 1.048-.475 2.014.59 3.019m-7.871 3.606c.737-1.28 1.442-1.978 1.496-2.722.075-1.047-.945-1.156-1.781-1.087-.853.07-1.387.611-1.127 1.456.204.662.718 1.228 1.412 2.353m3.257-12.592c-1.491-.024-2.942 1.288-2.9 2.62.047 1.443.894 2.432 2.05 2.396 1.216-.038 2.892-1.784 2.988-3.112.078-1.078-.825-1.883-2.138-1.904m41.66 4.633c.087-.017.217-.002.255-.054.567-.767 1.512-1.506 1.59-2.325.127-1.322-1.152-2.02-2.25-2.351-.75-.226-1.671.09-2.51.207-.107.016-.206.285-.26.453-.473 1.483 1.59 4.121 3.175 4.07m-12.66-5.886c-1.686-.039-2.817.693-2.868 1.859-.07 1.614.91 2.723 2.4 2.716 1.284-.006 3.199-1.741 3.218-2.915.015-.989-1.03-1.619-2.75-1.66m-16.105-6.961c.85-1.403 2.325-2.591 1.052-4.394-.775-1.097-2.347-1.343-3.716-.756-1.052.451-1.554 1.157-1.304 2.357.397 1.896 1.216 2.544 3.968 2.793m25.37 1.78c.034-1.756-1.121-2.761-3.24-2.818-2.128-.058-3.316.79-3.295 2.351.028 2.11 1.956 4.755 3.436 4.715 1.555-.043 3.057-2.101 3.099-4.248m-2.06-12.235c-.398.076-1.132.143-1.818.362-1.551.495-2.684 1.663-2.574 2.832.129 1.37.507 2.771 1.877 3.436 1.483.72 2.644-.202 3.65-1.133.584-.539 1.058-1.254 1.412-1.973 1.085-2.21.235-3.516-2.546-3.524m-23.483 13.378c-1.851.175-3.135.219-4.391.431-2.97.499-3.84 2.81-1.937 5.175 1.507 1.872 3.468 2.47 5.866 2.06 2.428-.415 3.95-1.813 4.823-3.974.65-1.611.007-2.945-1.688-3.422-1.028-.289-2.156-.225-2.673-.27m10.456-7.516c.91-.259 1.19-.436 1.429-.392 3.24.597 4.94-1.237 6.145-3.859.494-1.076.96-2.165 1.538-3.471 2.758.35 5.607.464 8.307 1.159 1.358.348 2.445 1.753 3.599 2.639-.221.439-.264.684-.373.717-3.198.996-4.616 2.92-3.885 6.111.544 2.377 1.377 4.807 2.638 6.874 1.862 3.057 4.735 4.802 8.837 4.392l3.126 9.946c-6.25-1.823-11.936-3.768-17.761-5.099-5.708-1.305-11.463-2.968-17.432-2.064l-.198.615 5.798 2.665c-.31 1.226-1.333 1.577-2.15 2.015a1145.607 1145.607 0 01-14.6 7.68 1673.378 1673.378 0 01-14.922 7.611c-.64.323-1.346.582-2.05.695-2.983.481-5.987.846-8.966 1.352-2.164.366-4.342.746-6.438 1.376-2.405.723-2.861 1.508-2.914 3.997-.018.821-.015 1.656.112 2.465.766 4.891 1.679 9.743 3.405 14.415.826 2.232 1.485 4.528 2.166 6.811.908 3.045 3.05 4.364 6.088 4.672 3.042.31 5.429-.659 6.996-3.303.399-.674.642-1.56.622-2.338-.047-1.722-1.353-2.511-2.953-1.698-1.01.514-1.592.1-2.143-.484-.326-.347-.678-1.157-.511-1.383.385-.517 1.052-1.072 1.653-1.133 1.95-.201 3.868.049 5.404 1.464 1.516 1.397 2.137 2.979 1.653 5.158-1.343 6.032-7.772 8.904-12.87 8.363-1.81-.192-3.665-.551-5.335-1.237-1.28-.526-2.597-1.477-3.381-2.6-2.701-3.871-4.68-8.12-5.156-12.886-.21-2.079-.301-4.23-.01-6.287 1.076-7.612 3.477-14.814 7.588-21.341 1.742-2.765 3.887-5.279 5.862-7.896 3.81-5.049 7.63-10.093 11.452-15.134.385-.507.816-.98.987-1.184 1.76.102 3.34.559 4.672.169 1.405-.41 2.766-1.444 3.803-2.533 1.796-1.886 1.528-2.904-.712-4.301-.305-.19-.621-.362-1.267-.737l5.693-5.523c2.172 2.583 3.492 2.671 5.575.196 1.099-1.306 1.828-2.931 2.676-4.438.467-.828.423-.853 1.99-.796-.376.866-.796 1.651-1.065 2.484-.778 2.421.55 4.518 3.065 4.953.705.122 1.399.297 2.08.443-.037.315-.001.588-.081.627-2.326 1.142-2.493 1.635-1.837 3.966.798 2.84 2.868 4.418 5.354 5.523.605.267 1.886.155 2.21-.272 2.512-3.308 3.545-5.993-1.023-8.124-.64-.299-1.301-.546-2.49-1.04" fill="#FFF"/><path d="M450.843 588.47c-1.587.126-2.573.009-3.373.342-.473.196-.94 1.134-.883 1.683.06.594.636 1.412 1.172 1.596.465.161 1.358-.275 1.752-.723.496-.563.677-1.405 1.332-2.898m5.513 16.539c-2.093-.018-3.166.742-3.127 2.217.047 1.839 1.517 3.782 2.92 3.863 1.327.076 3.062-2.271 2.99-4.044-.047-1.178-1.201-2.021-2.783-2.036m11.025-5.613c-1.013.263-2.467.49-3.797 1.025-2.13.856-2.758 2.426-2.103 4.66.869 2.963 2.67 5.118 5.469 6.472 4.644 2.244 6.508 1.524 8.34-3.3 1.697-4.468-.266-7.779-5.02-8.466-.811-.117-1.623-.22-2.89-.391m-20.336-.434c2.554 4.426 3.57 4.988 6.81 4.064 2.985-.853 4.067-2.7 3.817-6.97 1.362 0 2.708-.011 4.053.004.82.009 1.596-.23 1.547-1.127-.027-.489-.593-1.256-1.041-1.361-1.5-.354-3.06-.662-4.59-.637-6.196.098-12.166 1.517-18.05 3.36-.697.219-1.4.474-2.118.542-.302.029-.646-.383-1.368-.853 6.2-2.222 9.997-6.58 13.098-11.642.53-.865.633-1.993.933-3l-.563-.419c-1.385 1.056-2.748 2.141-4.16 3.158-1.42 1.021-3.027 1.578-4.965 1.519 2.45-2.249 4.869-4.533 7.382-6.707.35-.303 1.169-.094 1.77-.069 1.478.063 2.956.156 4.988.266l1.01 1.442c-.321.275-.494.543-.72.596-1.968.472-2.986 1.828-3.103 3.718-.137 2.214.618 4.182 2.526 5.492 1.128.775 2.865.181 4.039-1.332.55-.708.98-1.507 1.593-2.465l6.05 5.509c.82 1.857 1.174 3.421 2.078 4.541 1.705 2.111 2.546 2.069 5.089.301l5.752 6.342c-.616 1.781-1.234 3.118-1.526 4.523-.448 2.159.427 3.91 2.478 4.864 1.136.53.908 1.145.578 2.097-2.552-1.62-4.861-.807-6.792.944-2.426 2.201-.64 4.55.35 6.988l-4.085 1.145c-.402-.936-.771-1.752-1.103-2.582-1.21-3.02-3.223-5.227-6.193-6.675-3.547-1.727-7.268-2.423-11.164-2.542-6.555-.2-12.737 1.281-18.642 4.032-5.145 2.396-8.638 6.321-10.832 11.541-.764 1.814-2.11 3.377-2.953 5.167a1125.651 1125.651 0 00-8.725 18.985c-2.026 4.513-3.906 9.091-5.893 13.621-1.682 3.833-3.962 7.244-7.397 9.744-2.99 2.176-6.285 3.357-10.054 2.836-1.09-.15-2.193-.196-3.281-.358-3.381-.502-6.393-3.729-6.68-7.115-.174-2.052 1.24-4.375 3.25-5.336 1.425-.683 3.885.042 5.143 1.687.478.625.604 1.52 1.08 2.806l-4.465-.679c-.037 1.511.943 2.115 1.96 2.646 3.403 1.773 7.264 1.184 10.129-1.596 2.069-2.007 3.492-4.425 4.575-7.111 2.78-6.89 3.845-14.103 4.483-21.443.584-6.72 2.625-13.114 5.153-19.318 1.7-4.175 5.425-6.648 8.948-9.086 6.588-4.561 13.808-7.958 21.28-10.82 2.807-1.075 5.619-2.135 8.52-3.237M309.17 550.343c-4.645-4.852-11.082-6.896-16.763-10.79.818-.437 1.304-.791 1.848-.971 5.299-1.75 10.735-2.363 16.276-1.694 3.207.387 6.365.603 9.456-.603.336-.13.716-.221 1.073-.212 5.872.156 11.429-1.405 16.97-3.067.439-.131.888-.233 1.338-.31.16-.028.342.059.965.187-5.207 4.927-7.987 11.193-11.18 17.388-6.945-1.598-13.737-2.975-20.01-6.907 1.265 2.643 3.083 4.287 7.967 6.621 3.004 1.434 6.22 2.423 9.692 3.746-6.78 7.883-13.418 15.693-24.902 16.551.055 2.033 1.223 3.196 2.654 4.012 3.162 1.805 6.548 3.041 10.239 2.136 7.97-1.954 15.315-5.09 20.569-11.795 1.92-2.449 3.836-4.91 5.592-7.476 2.454-3.583 5.2-6.864 8.706-9.462.44-.327.888-.647 1.354-.934.13-.08.34-.029.788-.055-.37.623-.636 1.144-.968 1.616-2.812 4.003-4.978 8.35-6.653 12.925-2.788 7.616-7.64 13.715-13.634 19.014-.615.544-1.122.96-2.15.762-8.35-1.612-16.732-3.055-25.08-4.677-3.491-.679-6.921-1.669-10.578-2.566.812-2.764-.171-5.043-.914-7.374-1.253-3.925-2.431-7.875-3.694-11.796-1.633-5.077-3.432-10.077-7.123-14.121-.221-.243-.355-.565-.728-1.178 2.939-.211 5.522.226 8.102.581.303.042.672.35.82.635 1.416 2.69 4.027 3.942 6.473 5.35 4.159 2.394 8.767 3.526 13.496 4.464m172.877 242.31c-2.207-1.067-4.721-.649-6.452 1.073 2.237 1.731 5.06 1.261 6.452-1.073m-5.806-54.195l7.775 45.784c-3.001.457-6.242-.042-9.198 2.15 4.459 3.057 9.265 1.574 14.25 1.683-1.336 2.872-1.715 5.656-1.215 8.493a332.31 332.31 0 002.022 10.53c.545 2.6 1.237 5.17 1.838 7.758.158.681.226 1.382.423 2.633-1.375-.572-2.49-.78-3.275-1.405-3.863-3.068-8.414-5.325-11.472-9.333-1.993-2.613-3.907-5.316-5.552-8.155-1.53-2.64-1.85-5.563-1.82-8.715.113-11.675-.733-23.275-4.595-34.442a6.439 6.439 0 00-.586-1.218c-.072-.119-.321-.131-.652-.251-1.33.866-1.108 2.27-1.094 3.61.014 1.267.003 2.537.003 3.825-3.261-.462-4.011-1.299-3.793-4.178.33-4.377.686-8.751 1.04-13.232l15.9-5.537m28.836 29.362l-1-.209c-.63 1.938-.677 3.976-.352 6.089l1.352-5.88m3.38 2.143c-2.07.963-3.271 4.559-2.557 7.28a22.148 22.148 0 002.558-7.28m25.14 12.63c-2.12-.336-3.59.407-4.97 1.263-.31.193-.54 1.072-.36 1.376.26.452 1.1 1.06 1.38.927 1.51-.703 3.21-1.295 3.95-3.566m27.8 14.22c-1.5 1.807-2.97 2.898-5.22 2.935-2.47.04-4.94.367-7.39.683-4.05.522-8.05.057-12.05-.428-1.78-.216-3.21-1.027-4.52-2.344-3.22-3.243-6.63-6.305-9.94-9.466-3.71-3.546-8.45-5.436-12.81-7.94-.52-.303-1.33-.113-2.39-.173.32 1.39.56 2.394.9 3.9-2.727-1.169-5.166-2.113-7.494-3.278-.616-.309-1.071-1.242-1.294-1.982-1.56-5.169-3.047-10.359-4.528-15.551-.14-.49-.082-1.036-.124-1.671.494-.052.856-.169 1.187-.112 3.694.647 6.835-.724 9.827-2.652 1.826-1.176 3.646-2.368 5.406-3.516.33.296.52.39.58.539 2.79 6.835 8.47 11.148 13.78 15.785 1.15 1.007 2.3 2.022 3.86 3.404-1.95.628-3.38 1.08-4.81 1.551-2.03.672-2.71 1.326-2.5 2.39.21 1.012.97 1.11 3.32.538 2.49-.603 4.98-1.256 7.5-1.695 2.17-.378 2.48-.143 3.32 1.854.49 1.159 1.17 1.759 2.42 2.298 1.89.818 3.55 2.225 5.19 3.538 5.17 4.14 10.55 7.927 16.66 10.585.32.141.58.417 1.12.807M359.259 499.759c.794 1.942 1.784 3.646 2.177 5.478.764 3.573 1.184 7.219 1.768 10.833.254 1.572-.425 2.684-1.701 3.454-1.016.613-2.068 1.197-3.166 1.642-9.705 3.942-19.728 6.889-29.922 9.229-2.365.542-4.888.441-7.343.53-1.371.05-2.435-.698-3.27-1.759-2.642-3.361-4.62-7.026-5.416-11.289-.298-1.595.106-2.666 1.58-3.353 2.158-1.007 4.26-2.145 6.459-3.048a219.897 219.897 0 0134.02-10.842c1.419-.329 2.87-.525 4.814-.875m62.377-17.224c.616 1.165 1.354 2.074 1.593 3.1.934 4.001 1.806 8.021 2.51 12.068.387 2.226-.67 3.908-2.765 4.858-1.084.493-2.14 1.066-3.262 1.447-9.636 3.266-19.345 6.287-29.301 8.448-.627.136-1.25.296-1.882.398-3.33.543-5.11-.245-6.326-3.335-1.44-3.656-2.684-7.402-3.797-11.172-.841-2.848-.786-3.082 1.766-4.376 4.153-2.11 8.328-4.286 12.709-5.818 7.176-2.509 14.603-4.187 22.17-5.103 2.167-.263 4.356-.346 6.585-.515M213.638 597.223c.939-.043 1.923-1.44 1.827-2.641-.082-1.044-.657-1.654-1.716-1.701-1.134-.051-2.214.908-2.204 1.903.012 1.185 1.125 2.484 2.093 2.439m8.296 17.093c-2.07 1.848-4.407 2.011-6.143.392-.404-.377-.61-1.097-.675-1.685-.646-5.797-2.217-11.305-4.814-16.541-.75-1.512-1.147-3.199-1.841-5.193l20.404-2.204c.269.867.553 1.629.742 2.414 2.045 8.55 4.11 17.095 6.088 25.661.595 2.584 1.02 5.217 1.356 7.849.258 2.027.014 2.281-1.848 2.652-4.221.84-8.441 1.693-12.682 2.422-2.758.475-3.582-.076-4.252-2.515.628-.287 1.26-.635 1.932-.874 5.132-1.824 7.952-5.73 9.412-10.712 1.358-4.638-1.094-8.494-5.841-9.383-1.151-.216-2.377-.185-3.552-.08-1.874.167-3.514 1.66-3.68 3.164-.177 1.611 1.207 3.667 2.949 4.222.752.239 1.569.27 2.445.411m223.965-51.608l2.986 8.734c-4.865 5.661-10.75 9.999-16.996 14.517.317-.855.454-1.512.779-2.059 2.856-4.824 2.684-9.948 1.512-15.157-.545-2.425-2.363-3.874-4.352-5.055-2.378-1.41-5.05-1.562-7.712-1.244-1.87.224-2.123.632-2.836 3.435l-3.617-12.843.31-.345c.8.64 1.703 1.187 2.386 1.933 3.547 3.881 7.95 6.456 12.81 8.208 1.75.631 3.765.777 5.647.726 2.905-.081 5.8-.523 9.083-.85m-81.544-59.47c-.774-1.152-1.294-1.891-1.775-2.653-.287-.453-.512-.946-.92-1.709l12.636-3.756.522 4.606c-3.984-.317-7.761-.427-10.463 3.512" fill="#FFF"/><path d="M425.284 591.631l4.06-3.227 9.453 2.048c-2.887 2.64-9.707 3.351-13.513 1.179m11.644-41.19c-4.603-.272-8.203-2.283-11.516-5.268 3.772-.915 9.129 1.531 11.516 5.268m-14.26 25.753c-1.722-2.517-2.236-5.371-2.788-8.224 2.138-.43 3.047-.1 3.952 1.391 1.219 2.008.829 4.45-1.164 6.833m-103.48 9.601c-4.49 1.39-7.385.97-9.252-2.378 3.046.475 5.799.887 8.54 1.364.227.039.376.518.712 1.014" fill="#FFF"/><path d="M302.383 466.249c3.729.254 7.82 2.043 11.188 5.447 2.498 2.527 3.744 5.547 2.657 8.997-.784 2.49-1.824 5.04-3.347 7.128-3.975 5.448-9.78 4.634-13.614 1.979-2.16-1.495-4.147-3.349-5.877-5.333-2.38-2.729-3.654-6.187-2.86-9.696 1.099-4.84 4.572-8.845 11.853-8.522m10.327-23.305c3.822.41 7.18 2.173 10.132 4.748 1.217 1.062 1.453 2.51.942 4.03-.232.689-.472 1.425-.907 1.987-3.49 4.514-7.64 8.103-13.41 9.386-3.34.744-6.13-.246-8.551-2.537-3.247-3.073-4.261-6.935-3.823-11.237.076-.755.528-1.66 1.103-2.135 1.248-1.03 2.582-2.277 4.072-2.627 3.365-.791 6.846-1.091 10.443-1.615m18.881 26.631c.664.078 1.87.103 3.015.383 2.23.546 3.047 2.027 2.196 4.104-1.04 2.543-2.68 4.578-5.516 5.281-2.086.517-3.538-.141-4.59-2.022a9.737 9.737 0 01-.458-.994c-1.768-4.286.15-6.973 5.353-6.752m-38.185-8.338c.012 2.998-2.77 6.184-5.441 6.233-2.357.045-4.093-2.025-4.064-4.844.03-2.861 1.862-5.294 4.034-5.362 2.424-.076 5.464 2.132 5.471 3.973m41.232 25.017c2.324-.009 3.672 1.274 3.426 3.545-.273 2.532-1.415 4.698-3.527 6.207-1.597 1.142-3.183.859-4.235-.755-1.19-1.824-1.79-3.748-.69-5.904 1.063-2.084 2.697-3.12 5.026-3.093m-23.263-58.828c.82.409 2.405.711 2.65 1.454.279.846-.328 2.535-1.097 3.069a41.697 41.697 0 01-7.34 4.083c-1.442.618-3.036-.636-3.572-2.22-.467-1.378-.188-2.078 1.518-3.049 1.663-.946 3.386-1.797 5.124-2.599.726-.334 1.56-.433 2.717-.738m8.646 40.519c-2.283-.064-3.85-3.072-2.562-5.132 1.23-1.969 3.17-3.007 5.443-3.286 1.296-.16 2.936 1.731 2.832 3.074-.18 2.31-3.49 5.406-5.713 5.344m3.882 14.387c2.618-.018 3.903 1.677 3.073 4.138-.26.773-.667 1.514-1.11 2.204-1.336 2.072-3.172 2.14-4.637.195-.271-.361-.478-.78-.667-1.195-1.463-3.222-1.028-4.997 3.34-5.342m-29.029-34.053c.02 2.286-1.977 4.669-3.865 4.609-1.861-.057-3.396-2.041-3.357-4.334.039-2.325 1.094-3.451 3.282-3.503 2.39-.057 3.92 1.197 3.94 3.228m48.476 32.87c1.81-.052 2.926.871 2.985 2.468.067 1.807-1.547 3.941-3.018 3.992-1.556.053-2.89-1.434-2.967-3.307-.075-1.83 1.134-3.1 3-3.153m-48.52-41.043c.747-.727 1.44-1.312 2.027-1.99 1.054-1.221 2.27-.899 3.515-.48.844.283 1.062.915.918 1.74-.306 1.762-2.752 3.572-4.49 3.31-.951-.142-1.131-.368-1.97-2.58m51.979 53.787c-.801 1.219-1.477 2.374-2.308 3.403-.161.2-1.11.086-1.384-.191-.78-.786-1.35-1.76-.74-2.931.544-1.041 2.28-1.737 3.305-1.298.362.155.622.548 1.127 1.017m-11.242-9.826c-.951-.093-1.841-1.402-1.674-2.462.168-1.056 1.463-1.955 2.689-1.838 1 .095 1.435.651 1.3 1.664-.186 1.413-1.33 2.732-2.315 2.636m51.439 138.165c0-.269-.105-.641.016-.741 5.105-4.261 10.23-8.498 15.676-13.004-1.672 3.747-11.972 12.626-15.692 13.745m-141.919-68.921c.517.045 1.645-.019 2.673.271 1.695.476 2.339 1.81 1.687 3.421-.873 2.162-2.394 3.559-4.822 3.974-2.398.41-4.36-.187-5.866-2.06-1.903-2.365-1.033-4.675 1.936-5.174 1.256-.212 2.54-.257 4.392-.432m23.482-13.378c2.78.008 3.63 1.314 2.546 3.524-.354.719-.827 1.434-1.41 1.973-1.008.932-2.17 1.854-3.652 1.133-1.37-.665-1.748-2.066-1.877-3.436-.11-1.169 1.023-2.337 2.575-2.832.685-.218 1.42-.286 1.818-.362m2.06 12.235c-.042 2.146-1.544 4.205-3.1 4.248-1.48.04-3.407-2.605-3.435-4.715-.022-1.561 1.167-2.409 3.296-2.351 2.118.057 3.273 1.062 3.239 2.818m-25.37-1.78c-2.752-.249-3.571-.896-3.968-2.793-.25-1.2.252-1.906 1.304-2.356 1.369-.588 2.94-.342 3.716.755 1.273 1.803-.201 2.991-1.052 4.394m16.104 6.961c1.72.041 2.766.671 2.75 1.66-.02 1.174-1.934 2.909-3.217 2.915-1.49.007-2.47-1.101-2.4-2.716.05-1.166 1.18-1.898 2.867-1.859m12.66 5.885c-1.584.052-3.647-2.587-3.175-4.069.054-.168.154-.438.26-.453.839-.118 1.76-.433 2.51-.207 1.098.331 2.378 1.029 2.25 2.35-.077.819-1.023 1.559-1.59 2.325-.038.052-.168.037-.255.054m-41.66-4.632c1.313.021 2.217.826 2.139 1.904-.097 1.328-1.773 3.075-2.988 3.113-1.157.036-2.004-.954-2.05-2.397-.042-1.332 1.409-2.643 2.899-2.62m-3.257 12.592c-.694-1.125-1.208-1.691-1.412-2.354-.26-.844.274-1.385 1.127-1.456.836-.069 1.856.04 1.78 1.087-.053.744-.758 1.443-1.495 2.723m7.871-3.606c-1.064-1.005-1.414-1.971-.59-3.02.469-.595 1.85-.342 2.127.384.497 1.301-.237 2.026-1.537 2.636m-11.961-1.623l-1.216.8c-.178-.357-.57-.79-.477-1.05.104-.291.63-.518 1.006-.584.149-.025.387.455.687.834m242.364 33.431c1.267.171 2.079.274 2.89.392 4.754.686 6.716 3.998 5.02 8.465-1.832 4.825-3.696 5.544-8.34 3.3-2.8-1.353-4.6-3.509-5.47-6.471-.654-2.235-.026-3.805 2.104-4.661 1.33-.535 2.784-.761 3.797-1.025m-11.026 5.613c1.582.015 2.736.858 2.784 2.036.07 1.773-1.664 4.12-2.99 4.044-1.403-.081-2.874-2.024-2.921-3.863-.04-1.475 1.034-2.236 3.127-2.217m-5.512-16.539c-.655 1.493-.836 2.335-1.332 2.898-.394.448-1.287.884-1.752.723-.536-.184-1.111-1.002-1.172-1.596-.056-.549.41-1.487.883-1.683.8-.333 1.786-.216 3.373-.342m31.205 204.183c-1.392 2.334-4.215 2.804-6.452 1.073 1.73-1.722 4.245-2.14 6.452-1.073m51.55-10.059c-.74 2.27-2.44 2.862-3.95 3.565-.28.132-1.12-.474-1.38-.926-.18-.304.05-1.183.36-1.376 1.38-.857 2.85-1.6 4.97-1.263m-25.14-12.631a22.14 22.14 0 01-2.558 7.28c-.713-2.72.488-6.316 2.558-7.28m-3.381-2.143l-1.352 5.88c-.325-2.113-.277-4.151.353-6.089l.999.209M213.638 597.223c-.968.045-2.081-1.254-2.093-2.439-.01-.995 1.07-1.954 2.204-1.903 1.059.047 1.634.657 1.716 1.701.096 1.201-.888 2.598-1.827 2.641" fill="#000"/></g></svg>