<svg width="4940" height="2110" viewBox="0 0 4940 2110" xmlns="http://www.w3.org/2000/svg" class="logo"><path d="M4624.06 929.078c-2.178 0-4.33.117-6.495.156v-.156c-104.454.104-112.428 4.15-194.981 19.994 72.557-194.58 277.042-643.108 120.997-821.194C4334.377-110.928 3427 162.574 3427 162.574S3115.584 24.93 2631.218 6.984V5h-333.34l-.09 1.984c-483.77 18.1-794.744 155.538-794.744 155.538S590.842-115.025 386.448 127.878c-158.936 194.579 54.197 589.208 124.758 814.568-80.363-14.989-97.244-13.303-198.69-13.407v.143c-1.996 0-3.98-.143-5.977-.143C137.257 929.04 0 1066.283 0 1235.63c0 169.348 137.257 306.579 306.591 306.579a306.08 306.08 0 0082.23-11.255l-19.397-104.038-25.284-136.336c-2.826-15.831-5.393-28.979-10.282-41.27-4.9-12.292-11.397-23.404-19.915-32.156a71.08 71.08 0 00-31.455-18.126c-12.098-3.423-25.66-3.89-39.287-2.204a55.401 55.401 0 00-31.78 15.442c-17.918 17.335-26.139 46.729-18.23 71.442 3.709 12.447 11.54 23.416 22.004 31.857a83.407 83.407 0 0017.555 10.528 94.812 94.812 0 009.79 3.877c3.397 1.012 9.53 4.98 8.778 10.204l-.947 4.513c-2.658 6.418-9.634 5.692-13.601 4.42a117.185 117.185 0 01-11.942-3.98 105.441 105.441 0 01-22.742-11.941c-14.236-9.958-26.113-24.48-32.259-41.348-12.655-33.75-4.771-73.154 19.812-100.538a87.036 87.036 0 0148.505-27.086c16.791-2.982 34.671-3.695 52.59.22a108.125 108.125 0 0149.257 24.87c13.835 12.524 24.065 28.006 31.3 44.019 7.26 16.012 11.384 33.244 14.781 47.571l10.878 45.005 21.705 90.126 20.655 95.96.285-.168 68.447 313.8c42.567 176.686 124.68 278.468 278.468 278.468h103.157c59.06 0 106.916-47.87 106.916-106.93v-12.525h2936.889v30.34c.013 49.245 39.935 89.154 89.18 89.154h120.906c153.775 0 235.914-101.77 278.455-278.442l68.499-314.047.765.415 20.667-95.96 21.757-90.048 10.892-45.018c3.397-14.327 7.39-31.52 14.768-47.572 7.39-16.052 17.478-31.494 31.312-44.019a108.058 108.058 0 0149.232-24.881c17.919-3.916 35.837-3.242 52.59-.22a87.191 87.191 0 0148.518 27.085c24.583 27.345 32.453 66.748 19.799 100.537-6.16 16.92-18.023 31.365-32.26 41.348a104.48 104.48 0 01-22.729 11.942 117.416 117.416 0 01-11.954 3.98c-3.968 1.271-10.943 1.997-13.614-4.42l-.921-4.513c-.765-5.238 5.368-9.154 8.765-10.191a96.294 96.294 0 009.802-3.89 82.559 82.559 0 0017.543-10.528 64.882 64.882 0 0022.016-31.857c7.91-24.713-.298-54.107-18.243-71.43a55.422 55.422 0 00-31.766-15.455c-13.64-1.685-27.203-1.218-39.3 2.217a71.056 71.056 0 00-31.455 18.114c-8.558 8.752-15.183 19.825-19.903 32.168-4.72 12.33-7.468 25.426-10.282 41.258l-8.428 45.458-16.868 90.878-19.332 104a307.01 307.01 0 0082.216 11.24c169.309 0 306.591-137.243 306.591-306.578 0-169.347-137.334-306.617-306.63-306.617" fill="#A697CE"/><path d="M1520.677 595.259l5.342.726c.22 3.241.514 6.488.832 9.736l.419 4.178.424 4.177.275 2.785c.896 9.28 1.553 18.542.864 27.707-.698 9.358-2.988 18.6-5.469 27.828l-1.704 6.292-.676 2.517a287.803 287.803 0 00-2.226 8.821l5.148 1.258 31.364-93.588c1.88.493 3.773.986 5.653 1.491l-4.115 17.627a5142.763 5142.763 0 01-4.144 17.628 3202.483 3202.483 0 01-6.237 25.723l-2.115 8.568-4.238 17.133c-6.695 27.13-13.25 54.286-18.606 81.67-4.471 22.875-7.637 46-10.593 69.165l-.881 6.95-1.751 13.904-.883 6.95c-.74 5.79-1.495 11.578-2.28 17.36a5394.189 5394.189 0 00-4.242 32.103l-2.768 21.41c-1.848 14.275-3.714 28.547-5.684 42.81-1.232 8.985 2.49 13.368 10.93 14.379 2.108.251 4.238.409 6.372.544l3.657.225c4.567.289 9.103.668 13.426 1.85 2.731.737 5.18 2.488 7.576 4.435l.755.62 1.205 1.006c1.242 1.038 2.487 2.07 3.767 2.976l-9.711 12.875 1.635 2.991 1.943 3.531c-3.178 2.134-6.184 4.542-9.138 7.005l-.932.78-3.245 2.735-1.361 1.14-1.024.848-1.026.84-1.03.827-.69.545-.693.54-.696.531-.699.525-.702.516-.707.507-.711.499a68.76 68.76 0 01-.357.245l-.718.483-.724.472-.729.46c-.244.152-.489.302-.735.45l-.74.435c-7.442 4.293-15.863 6.59-26.762 4.149.44 1.724.895 3.449 1.348 5.173l17.747 1.567c2.958.261 5.916.525 8.872.793l1.136.109.89.099.44.055.434.06.64.099.42.073.413.08.406.086.398.095.389.102.191.055.376.116.366.126.355.135.345.147c2.937 1.317 4.585 3.91 3.33 9.441-.415 1.802.09 4.85 1.348 5.809l.725.566.345.274.656.535c5.8 4.806 5.909 7.07 3.502 8.32l-.273.132a6.79 6.79 0 01-.143.063l-.3.122-.158.058-.327.11-.343.105-.358.1-.373.093-.387.088-.399.084-.41.08-.636.113-.658.107-1.134.167-2.642.357-.522.071c-.347.049-.695.098-1.04.15-9.919 1.478-19.799 3.371-29.536 5.757-2.321.57-5.537 3.656-5.744 5.835-1.291 13.496-2.454 27.002-3.596 40.512l-1.71 20.266c-.86 10.133-1.74 20.267-2.681 30.398-.47 5.046-.927 10.095-1.379 15.144l-1.67 18.774-.652 7.245c-2.191 24.15-4.594 48.27-8.124 72.223-.898 6.053-3.842 11.8-7.295 17.48l-.747 1.216-.76 1.214-1.54 2.426-1.551 2.427-.77 1.214-.762 1.216c-1.387 2.231-2.718 4.473-3.898 6.739-.62 1.185-1.135 2.43-1.626 3.688l-.875 2.268c-.59 1.508-1.218 2.994-2.024 4.378-1.235 2.11-2.6 4.15-3.98 6.181l-1.384 2.03c-1.841 2.706-3.647 5.429-5.151 8.307l-.436.825-.449.835-1.147 2.123-.459.861-.451.867c-1.937 3.766-3.571 7.658-3.372 11.332.186 3.51.459 7.014.798 10.56l.21 2.132.227 2.145.24 2.158.252 2.175.131 1.094.27 2.203.424 3.346.595 4.55 1.425 10.687.653 4.991.491 3.856.326 2.628-.33-.393-.65-.759a78.109 78.109 0 00-.636-.723l-.622-.691-.607-.661-.88-.94-2.144-2.247-.72-.769-.45-.495a38.57 38.57 0 01-.216-.243l-.415-.48-.39-.472c-.94-1.171-1.634-2.29-2.015-3.51a2104.52 2104.52 0 00-3.64-11.525l-1.842-5.759-3.693-11.517-1.841-5.761c-6.425-20.17-12.631-40.4-17.483-60.944-13.75-58.21-21.065-117.43-22.206-177.323l-.043-2.462a28.46 28.46 0 00-.013-.523l-.024-.524c-.13-2.182-.657-4.384-2.803-6.72a54861.93 54861.93 0 00-4.797 45.809c-1.725-6.205-2.055-12.597-2.134-19.026l-.016-1.677-.025-5.188-.02-1.945-.021-1.295-.031-1.294c-.226-7.978-1.11-15.873-4.845-23.397.072-.347.16-.711.261-1.089l.16-.575.176-.594.287-.917.41-1.262.526-1.61.306-.969.194-.642.183-.636.168-.627c.642-2.49.875-4.712-.117-5.95-2.866-3.58-10.917-5.472-15.961-4.409-15.15 3.17-30.24 6.629-45.314 10.15l-22.607 5.303a3336.39 3336.39 0 01-22.62 5.228c-2.977.671-6.019 1.044-9.072 1.372l-2.618.277c-2.618.278-5.233.578-7.81 1.06l-.623.119-.62.123-.615.13-.611.135-.305.07-.605.147-.6.154-.298.08-.592.168-.586.176-.581.186c-6.737 2.23-12.18 6.577-13.945 17.106 8.67-1.407 17.253-3.093 25.787-4.84l5.683-1.17 5.67-1.175 4.17-.858 4.008-.814 2.67-.534 1.336-.263 2.67-.52 2.669-.51c19.13-3.606 38.253-6.241 57.842-5.368-2.975.641-5.952 1.273-8.93 1.902l-13.405 2.821c-8.936 1.888-17.864 3.814-26.754 5.922-4.36 1.032-8.696 2.292-13.024 3.6l-7.456 2.274-2.087.626c-8.002 2.382-16.015 4.489-24.139 5.2l-1.06.086c-19.753 1.439-28.536 11.641-34.342 24.14l-.452.992c-.15.332-.296.666-.441 1l-.43 1.009a38.47 38.47 0 00-.212.507l-.416 1.019-.408 1.026-.4 1.031-.197.517-.39 1.039-.385 1.042-.57 1.57-.562 1.573-1.017 2.88c-1.95 5.517-3.92 10.997-6.481 15.98-5.415 10.534-9.826 21.58-14.101 32.696l-3.55 9.269-1.428 3.703a586.95 586.95 0 01-3.65 9.217l-4.63-1.037v-43.488l-13.315 15.403-.31-.913-.619-1.791-.309-.878-.616-1.722-.611-1.68-2.064-5.607-.558-1.537-.54-1.514c-1.41-4.01-2.592-7.814-3.333-11.703-1.648-8.605-2.792-17.306-3.862-26.02l-.868-7.129c-.29-2.376-.582-4.751-.886-7.124l-.41-3.124-.063-.519c-.103-.955-.124-1.922.242-2.644 11.364-22.603-.516-32.495-17.2-39.668l-1.145-.485-1.158-.477c-.194-.08-.389-.158-.584-.236l-1.176-.467-1.187-.461-1.196-.456-.6-.226 4.42-9.141-21.25-1.777 4.953-12.538-.69-.168-2.594-.6c-1.03-.243-2.006-.496-2.953-.826-4.525-1.582-8.998-3.307-13.497-4.966.698-.977 1.375-1.973 2.048-2.974l1.51-2.253c1.685-2.498 3.417-4.95 5.453-7.117 1.672-1.781 3.536-3.388 5.463-5.011l1.455-1.224c1.706-1.438 3.436-2.926 5.101-4.591a70.443 70.443 0 002.571-2.021l1.016-.84 2.028-1.69 1.018-.835c2.553-2.07 5.173-3.985 8.084-5.207 2.658-1.124 5.469-1.883 8.559-2.543l1.25-.26.638-.126 1.299-.25 2.013-.375 2.815-.518 1.467-.275 1.509-.29c1.276-.25 2.598-.521 3.97-.822l-16.674-7.896 49.545-17.064 13.158-4.537-12.876-3.921-.972-.293c14.51 1.222 21.712-4.762 26.468-12.988l.396-.7a45.9 45.9 0 00.194-.355l.38-.715c.125-.24.248-.481.37-.724l.36-.733.352-.74.344-.747.337-.754.33-.76.323-.763.475-1.155.311-.774.611-1.555 1.624-4.235c1.543-4.013 3.126-7.935 5.154-11.356 22.203-37.452 43.664-75.376 64.486-113.646l3.118-5.743c18.023-33.245 39.183-64.086 64.868-91.794 6.82-7.351 14.211-14.379 22.172-20.447 9.858-7.509 25.359-4.547 33.053 5.238l.23.299c7.145 9.413 16.467 8.687 20.603-2.879 11.523-32.26 27.731-62.002 46.434-90.47l1.542-2.337 1.15-1.733 1.163-1.733c4.67-6.926 9.65-13.753 15.617-19.408 3.96-3.755 8.615-6.766 13.38-9.662l1.685-1.018 2.533-1.523 1.683-1.022a146.603 146.603 0 004.148-2.62c1.206 1.076 2.399 2.166 3.592 3.242l-26.153 81.075 3.93 1.258c15.182-36.175 30.378-72.35 45.574-108.524zm-248.327 93.16c.463.063.927.133 1.391.205l2.093.332c2.329.366 4.662.686 6.979.59 15.534-.623 29.988 2.899 44.103 7.787l1.763.618.88.314 1.758.637 1.755.648.877.328 1.752.662.875.335 1.75.675 2.62 1.023 2.592 1.023 4.297 1.708c1.432.57 2.865 1.14 4.299 1.708 6.51 2.577 13.13 4.894 19.757 7.186l4.97 1.719a858.66 858.66 0 017.441 2.608c-.324 1.297-.648 2.593-.972 3.903-2.271-.205-4.542-.44-6.812-.685l-5.108-.557c-6.809-.742-13.617-1.428-20.43-1.494-6.253-.06-12.51.402-18.767.95l-6.825.61c-2.275.201-4.55.393-6.823.554l-.506 5.355 14.185 6.677.307 2.304c.05.383.1.765.147 1.145l-57.218 7.391-23.215 2.995c6.731 3.042 13.994 3.886 21.426 4.047l1.353.022c.452.005.904.008 1.357.01l1.359-.003 1.361-.011 2.046-.029 5.127-.096 1.848-.028 1.23-.012 1.229-.006h.614l1.225.008c.409.004.817.01 1.224.018l1.22.03c9.145.27 18.029 1.673 25.976 7.032l-.363 5.536c-9.158.69-18.314 1.426-27.47 2.169l-10.985.893c-22.103 1.796-44.206 3.553-66.34 4.76l-5.109.269c-37.173 1.867-73.685 6.898-109.484 17.724 16.58 3.016 32.874 1.74 49.112-.556l2.073-.298 2.072-.308 2.072-.316 3.107-.486 2.071-.33 7.13-1.145 3.454-.548 2.303-.359 2.304-.35 1.152-.171 2.305-.334c13.835-1.965 27.732-3.208 41.83-1.71-20.912 7.221-42.398 11.949-64.08 16.024l-3.718.693-3.722.682-1.862.337-5.591 1.002-5.595.993-9.038 1.597-4.882.87c-.814.145-1.627.291-2.441.438l-4.882.887c-16.269 2.984-32.513 6.26-48.574 10.597l29.368 9.297.261-.203-.317.248c-1.206.926-2.534 1.802-3.891 2.667l-2.895 1.833-.744.48c-.247.162-.491.324-.733.486l-.72.492c-2.723 1.897-5.056 3.956-6.118 6.535-12.681 30.677-24.908 61.613-35.488 93.069-9.44 28.058-17.763 56.635-24.363 85.484-4.112 17.996-7.386 36.188-10.52 54.412l-1.17 6.835-1.75 10.255c-1.363 7.975-2.741 15.946-4.193 23.9l-.822 4.466-.557 2.977c-2.62 13.89-5.615 27.77-10.654 41.698l-4.149-23.455-.777.02-1.544.058c0 1.706-.041 3.418-.094 5.13l-.1 3.084-.06 2.054c-.104 4.107-.096 8.198.449 12.215.137 1.014.314 2.028.508 3.04l.313 1.586.405 2.008.22 1.14.153.85.095.566.088.563.08.56.037.28.067.558.055.555c.009.092.017.184.024.277l.039.55c.01.184.019.367.025.55l.012.545c.04 4.719-1.587 9.108-7.735 12.81-1.051.632-1.568 2.486-1.793 4.593l-.054.58c-.04.488-.066.984-.08 1.477l-.013.59-.002.293.005.861.013.556.03.794.013.252c.263 4.768.588 9.534.932 14.298l.842 11.434c.766 10.48 1.46 20.957 1.624 31.447.057 3.79-1.12 7.6-2.525 11.414l-.45 1.204-1.145 3.012c-.605 1.607-1.184 3.213-1.663 4.818l-4.24-.467-10.541-100.226c-4.444 15.991-4.91 31.919-4.172 47.856h1.518v22.092l.326 4.181.21 2.79.199 2.789c.936 13.487 1.415 27.015-.234 40.628-1.475-4.684-3.101-9.344-4.75-14l-2.145-6.047-.852-2.422-.842-2.424c-3.344-9.698-6.354-19.45-7.877-29.434-1.592-10.436-1.601-21.113-1.298-31.84l.081-2.682.279-8.053c.17-4.92.315-9.839.315-14.734l-6.327.194 5.57 100.693c.929 16.782 1.86 33.564 2.793 50.347-1.828.259-3.656.531-5.485.804l-5.386-22.137-.63-2.602-8.22 11.254-18.866-119.455-4.667.584.165 2.495.338 4.99c3.56 51.553 9.122 102.895 21.28 153.564-23.91-21.134-43.294-155.266-39.158-259.292l5.718 16.96 2.944.116a2103.22 2103.22 0 003.616-23.818l.994-6.813 2.958-20.445c3.96-27.254 8.116-54.464 13.981-81.305 5.233-23.935 11.833-47.569 18.72-71.14l1.803-6.147 5.577-18.89c3.247-11.002 6.474-22.007 9.57-33.041l-2.957-1.375-4.713 6.837-9.42 13.688a14.86 14.86 0 00-.399-.277l-.38-.249-.358-.223-.775-.473c-.496-.31-.817-.56-.863-.852l-.479-3.14-.224-1.417-.219-1.315-.144-.823-.145-.78-.147-.738a41.626 41.626 0 00-.224-1.03l-.155-.637c-1.281-5.032-3.074-6.102-8.001-4.898l-.62.158-.65.181-.339.099-.702.212-.737.233-1.174.386-1.26.428-1.346.467-5.177 1.813c-20.608 7.175-41.497 13.525-62.423 19.762l-15.697 4.668-7.847 2.339c-2.615.781-5.229 1.565-7.842 2.353-2.313.697-5.074-.085-7.976-1.479l-.671-.332a38.707 38.707 0 01-.338-.173c15.27-12.473 32.429-20.076 50.458-25.449l1.806-.53a254.176 254.176 0 017.277-1.983l1.831-.465.918-.228 1.838-.447.92-.22 1.844-.433.924-.212 1.85-.418 1.853-.41.927-.201 1.858-.398.93-.196 1.906-.395a721.93 721.93 0 0110.523-2.076l1.918-.363.545-4.292c-1.178-.214-2.378-.528-3.583-.86l-2.142-.591-.823-.217c-2.464-.63-4.885-1.056-7.105-.575-9.674 2.13-19.279 4.562-28.874 7.039l-7.195 1.862c-5.997 1.552-11.996 3.096-18.012 4.57-2.667.652-5.41 1.016-8.167 1.332l-3.104.348c-1.034.117-2.067.24-3.095.382-.376-1.05-.752-2.1-1.128-3.164l18.411-13.108c-.22-1.206-.427-2.412-.635-3.618-10.038.085-19.936 1.622-29.79 3.608l-2.462.506-2.461.52-2.46.533-3.688.813-4.197.932c-.975.217-1.95.432-2.925.646l-2.926.636c-8.78 1.887-17.58 3.56-26.471 4.305l-.902-2.515c-.151-.42-.304-.839-.46-1.258a417.183 417.183 0 005.096-2.677l6.766-3.625c5.64-3.014 11.306-5.962 17.156-8.479a154.612 154.612 0 017.045-2.813l1.45-.535 1.467-.53c.247-.089.494-.176.742-.264l1.498-.527 1.52-.526 2.328-.793 4.844-1.624 5.138-1.717 2.695-.908 2.786-.951 1.912-.66.973-.34-18.787-4.68-.35-2.646 70.91-26.054c-7.866-3.953-14.881-3.619-21.51-1.965l-.827.213-.412.112-.821.231-.818.243-.814.25-.811.26-.808.266-1.208.409-1.201.416-2.56.899c-3.12 1.09-6.205 2.12-9.312 2.737-6.196 1.23-12.297 2.943-18.635 4.888l-2.248.695-2.27.713-8.175 2.592-2.415.76-2.455.761a265 265 0 01-1.244.382l-2.523.763c-.424.127-.85.254-1.28.38 1.787-7.795 5.792-12.538 10.497-16.199l.632-.481.639-.47c.107-.078.214-.155.322-.231l.648-.455c.11-.075.218-.15.327-.223l.657-.441.66-.434.665-.426.333-.211.716-.449 1.436-.884 1.435-.877c.37-.226.737-.452 1.103-.679l1.094-.684c3.265-2.068 6.358-4.282 8.84-7.215l-4.46-6.262c45.264-33.193 105.309-64.181 121.555-62.029l-23.17 12.862c6.768 4.315 12.745 4.117 18.026 2.302l.595-.212c.395-.146.785-.3 1.172-.462l.577-.248.572-.258.565-.267.56-.275.555-.283.82-.435.54-.297.8-.452.786-.458 1.03-.614 2.238-1.36c13.375-8.106 26.824-12.24 42.445-14.132l.887-.105c12.818-1.47 25.499-4.06 38.168-6.81l9.502-2.08c10.296-2.25 20.605-4.45 30.994-6.085 70.923-11.177 142.132-15.728 213.704-5.977zm591.275-6.6c31.247 3.799 60.123 13.886 88.155 27.604l2.723-3.254-8.572-9.529-2.838-3.152c13.147-3.462 26.1 9.854 25.672 22.198.77.918 1.527 1.793 2.271 2.632l.886.991.87.959 1.277 1.385 2.427 2.61.768.832.746.818c.244.27.485.539.721.806l.697.797c2.051 2.38 3.75 4.674 4.948 7.204l1.394 2.932 3.877 8.084 1.086 2.28 1.079 2.287c5.008 10.678 9.634 21.517 12.272 32.766 7.365 31.42-1.037 60.84-19.086 87.122-25.478 37.07-56.155 69.977-88.894 100.356-13.333 12.37-27.591 23.737-42.102 34.835l-3.791 2.89-3.8 2.88-3.805 2.873-6.138 4.623c-10.231 7.706-20.454 15.423-30.438 23.406-14.898 11.902-29.316 24.453-43.37 37.329l-.505.47a34.82 34.82 0 00-.71.692l-.442.453-.417.447c-4.459 4.882-4.449 8.629-.22 11.989l.396.304c.34.253.704.503 1.091.752l.478.298a28.55 28.55 0 001.569.885l.569.293.592.29c.1.05.202.098.304.146l.627.29a1199.623 1199.623 0 0016.774 7.43l4.812 2.088 12.036 5.206 4.81 2.09c16.826 7.336 33.526 14.897 49.554 23.691l.854.471 1.704.95 1.699.963.846.485 1.689.98.842.496 1.678 1c21.214 12.742 40.681 28.631 55.349 50.616l-27.67-7.987-1.698 3.086a287.75 287.75 0 005.386 6.447l1.1 1.278a728.253 728.253 0 003.331 3.823l3.922 4.466 2.278 2.606 1.155 1.33 1.152 1.337 1.15 1.343 1.144 1.352.57.679 1.137 1.365c.378.457.755.915 1.13 1.376l1.123 1.386c9.138 11.372 17.445 23.95 22.696 39.957l-12.503-6.097-3.471-1.682-3.994 7.235c-6.384-5.117-11.871-11.257-17.167-17.619l-1.44-1.74-1.434-1.747-3.664-4.483-1.282-1.557-1.288-1.55-.863-1.027-.867-1.023-.873-1.018-.878-1.01a72.154 72.154 0 00-.442-.503l-.888-1-.447-.497-.9-.987-.908-.977-.457-.485-.922-.962-.932-.95c-7.656-7.713-16.39-14.21-27.842-17.63 4.636 6.326 10.094 11.95 15.759 17.386l1.705 1.626 1.714 1.618 5.632 5.284 1.757 1.664 1.165 1.113 1.159 1.119 1.151 1.124 1.143 1.131c8.343 8.323 15.889 17.281 20.523 28.641l-2.956 3.034-4.012-3.427-8.014-6.87c-6.679-5.726-13.368-11.44-20.142-17.048l-1.985-1.639-1.333-1.091c-4.013-3.265-8.16-6.42-12.695-8.693-1.556-.775-3.434-.837-5.387-.78l-.784.027-.894.036c-1.791.07-3.586.097-5.2-.359l-2.665-.749-2.666-.758c-7.997-2.293-15.973-4.778-23.558-8.088-3.725-1.62-7.353-3.476-10.953-5.393l-2.696-1.448-2.693-1.454c-5.385-2.904-10.789-5.753-16.448-7.964-2.491-.967-5.365-.95-8.347-.656l-.898.096-.45.053-.905.113-1.929.254c-1.702.225-3.398.435-5.04.503l-.273 4.447 35.333 19.683c-.48 1.089-.96 2.178-1.44 3.28a414.938 414.938 0 01-8.674-3.49l-5.768-2.387-2.886-1.185c-6.74-2.748-13.52-5.35-20.48-7.291l-2.747-.765-5.498-1.52c-22.004-6.05-44.16-11.713-66.542-16.023l-.538-.102-1.05-.19-.514-.089-1-.161c-12.64-1.946-17.336.95-20.778 11.26l-.266.818-.131.42-.26.865a39.52 39.52 0 00-.128.443l-.255.91-.253.941-.125.483-.25.988-.25 1.02-.25 1.052c-6.782 28.966-14.004 57.815-21.55 86.586-.65 2.476-1.986 4.77-3.585 7.173l-.612.908-1.603 2.336-.659.97a70.441 70.441 0 00-1.969 3.083l2.45-34.118.234-3.276-3.76-.583-11.605 25.128-3.682-.493-3.423-42.035c-.557 0-1.115 0-1.66-.013l-8.103 35.976-4.046 17.975-3.098.428-3.916-23.922-2.049-.312-1.415 14.744c-.471 4.916-.938 9.833-1.385 14.754-.162 1.783-.265 3.58-.353 5.38l-.171 3.602c-.223 4.499-.542 8.97-1.655 13.241-.63 2.396-2.144 4.56-3.869 6.668l-.582.701-.591.699-.656.767c-.985 1.15-1.962 2.3-2.82 3.483-.786-.8-1.671-1.573-2.585-2.338l-2.106-1.742-.584-.492a54.041 54.041 0 01-.288-.248l-.566-.498c-1.859-1.667-3.421-3.416-3.985-5.444-2.512-9.04-4.498-18.224-6.398-27.464l-1.889-9.254c-.63-3.09-1.268-6.18-1.93-9.272l-1.136 6.695-1.141 6.755-1.716 10.2-4.5.013a843.89 843.89 0 00-1.194-9.616l-.944-7.209-.633-4.804c-1.576-12.013-3.071-24.029-3.776-36.095-1.037-17.763-.48-35.695.532-53.471.22-3.8 1.351-7.53 2.559-11.266l.778-2.403c.944-2.94 1.825-5.892 2.238-8.892.215-1.615-.393-3.317-1.214-5.06l-.298-.617-.832-1.652c-.607-1.204-1.19-2.418-1.559-3.627l-.437-1.437-1.766-5.75c-1.76-5.755-3.443-11.534-4.578-17.41-.496-2.58-.545-5.25-.465-8.103l.044-1.33.055-1.357.086-2.093.05-1.436c.03-.968.048-1.96.048-2.977 9.787-4.084 15.345-11.09 19.006-19.756l.36-.872c.295-.73.577-1.473.848-2.226l.32-.909c.105-.304.208-.61.31-.918l.3-.928.29-.937.281-.946c.047-.158.092-.317.138-.476l.27-.959.262-.967.255-.975.248-.983.243-.99.354-1.499.344-1.514.336-1.528.22-1.025.108-.516c3.857-18.275 8.469-36.395 13.177-54.497l2.957-11.342c3.02-11.584 6.024-23.173 8.838-34.802 1.772-7.32 3.369-14.688 4.924-22.065l2.317-11.07c2.705-12.911 5.484-25.798 9.044-38.462 2.033-7.233 4.706-14.308 7.5-21.345l1.122-2.813 2.254-5.622 1.116-2.811c3.328-8.44 6.43-16.918 8.409-25.647l.319-1.457c4.166-19.767 15.658-30.295 29.382-38.113l1.181-.664c.99-.548 1.989-1.083 2.997-1.607l1.215-.625.61-.308 1.225-.611 1.233-.604 1.238-.596 1.243-.59 1.248-.586 1.252-.581 1.883-.866 5.424-2.475 1.516-.696a273.7 273.7 0 007.216-3.433l1.778-.896c4.76-2.435 9.685-4.537 14.784-6.658l4.636-1.923a448.67 448.67 0 006.33-2.677c-2.294-10.697-8.324-15.067-18.631-12.175l-1.823.52-1.225.36-1.228.374c-4.5 1.401-8.974 3.146-12.515 5.89-4.76 3.683-10.167 6.163-15.727 8.374l-1.453.571-1.459.563-4.243 1.62-1.698.659-1.13.446-1.124.455-1.12.464-.558.236-1.111.482c-6.461 2.848-12.558 6.408-17.47 12.221-.687.821-2.295.866-4.29.585l-.553-.084a30.63 30.63 0 01-.284-.048l-.577-.105-.891-.178-1.22-.264-2.225-.503c-1.485-.333-2.938-.639-4.209-.79.31-.563.597-1.158.873-1.769l.328-.74.8-1.873c1.021-2.368 2.116-4.633 3.912-5.891l4.708-3.303 8.475-5.956 3.772-2.64c12.586-8.783 25.295-17.38 38.565-24.989 5.622-3.23 11.56-5.912 17.591-8.557l5.586-2.446c6.532-2.875 13.089-5.889 19.39-9.678-8.333-3.332-16.187-2.674-23.896-.898l-1.027.243-.513.126-1.025.26-1.023.27-1.533.42-1.532.431-4.848 1.396-1.33.374-1.33.365c-6.212 1.674-12.462 2.92-18.929 2.2a255.36 255.36 0 00-.207 3.241l12.33 5.187-61.6 31.83-2.918-4.369 15.08-14.366-10.36-7.96 92.784-52.889-15.961-5.018c3.698-2.789 11.337-6.188 20.795-9.583l1.853-.656c2.187-.766 4.46-1.53 6.794-2.284l2.015-.644 1.018-.32 2.054-.636 2.075-.628 1.045-.311 2.1-.617c.704-.203 1.409-.406 2.115-.606l2.124-.596 2.13-.585 1.066-.287 2.132-.566 2.13-.552 2.125-.536 2.115-.521a351.38 351.38 0 012.103-.504l2.086-.486 2.067-.467c9.595-2.134 18.442-3.62 24.977-4.004l.691-.037c5.208-.25 10.411-.574 15.612-.919l13.649-.924 3.09-.203 3.092-.196 3.093-.187c18.04-1.055 36.113-1.506 54.365.705zm897.913-45.873c1.919 4.758 6.353 9.115 10.684 12.149l4.157 2.886 1.27.893.84.597.834.6.826.603.82.609.81.614.402.31.797.624.395.315.782.637c6.472 5.343 11.807 11.664 14.281 21.388l.145.588c1.616 6.756 4.572 13.17 7.749 19.546l.958 1.912 1.93 3.824.958 1.916c1.746 3.517 3.423 7.058 4.846 10.675 1.347 3.411 1.933 7.124 2.396 10.886l.267 2.26.177 1.508.186 1.503c.13 1 .27 1.996.436 2.98l-2.095.312-1.056.156-1.939-3.475-3.895-6.95-4.63.337v67.54l-1.883.072-3.782.16c-1.064-7.558-2.114-15.104-3.164-22.663-2.148 5.436-2.217 11.06-1.922 16.8l.066 1.188.095 1.54.164 2.578.061 1.034.07 1.312.04.877.032.877.023.878.014.88c.076 7.773-1.146 15.664-7.68 23.497l-4.577-27.915c-.7-.078-1.4-.169-2.088-.26l-2.547 19.436c-.423 3.237-.845 6.474-1.265 9.712l-4.706.324-3.384-26.152c-.597-.04-1.193-.078-1.79-.13l-1.333 14.118-1.999 21.253-16.843-2.425-.279-1.87-.29-1.87-.3-1.869c-4.802-29.27-14.067-57.873-45.146-69.061-31.235-11.255-60.655 1.335-86.483 22.547l38.418-9.192c-40.855 58.398-69.64 118.845-87.507 184.09l3.177 2.035c1.601-.967 3.229-1.9 4.865-2.821l3.934-2.204c4.587-2.575 9.124-5.214 13.204-8.434 48.31-38.094 102.677-64.48 161.477-81.166 31.378-8.908 63.688-15.235 95.987-19.916 8.02-1.163 16.26-.83 24.822-.05l2.062.195 1.035.103 2.08.215 3.146.339 5.312.58 2.15.23 1.08.111 2.173.217c2.907.282 5.854.533 8.846.718 1.803-1.74 3.412-4.003 5.045-6.46l.757-1.148 1.4-2.133.736-1.104.754-1.103.58-.825.394-.547.402-.544.408-.54.416-.536.425-.53.433-.525.22-.26.447-.514.457-.506.467-.498.478-.489c4.354-4.354 10.085-7.5 18.764-7.073l.268-.376.557-.8.583-.855.929-1.368.655-.954c1.229-1.771 2.61-3.653 4.165-5.372 1.58-1.758 3.415-3.273 5.287-4.759l1.25-.988a95.275 95.275 0 002.475-2.006c.127.956.33 1.934.554 2.92l.198.846.301 1.27.194.845c.565 2.528.942 4.994.257 7.124-2.282 7.146-4.786 14.22-7.331 21.28l-3.826 10.586c-2.541 7.06-5.033 14.134-7.294 21.28-2.388 7.56-4.267 15.27-6.067 23.005l-1.376 5.954a721.416 721.416 0 01-2.463 10.406l4.11 1.05c8.843-26.01 17.699-52.019 26.554-78.028 1.816.35 3.63.713 5.446 1.076l-8.402 49.27c.986.195 1.984.39 2.97.57l12.693-32.116c8.165.45 10.494 4.474 10.04 10.102l-.045.48-.057.486-.07.494-.083.5-.094.508-.104.513-.057.26a1763.716 1763.716 0 01-5.297 22.96l-1.555 6.553-2.34 9.829-1.555 6.553c-4.645 19.663-9.105 39.357-12.475 59.231-6.6 38.937-9.608 78.418-4.512 118.016 1.595 12.473 2.84 25.011 4.24 37.523l1.137.082 2.26.177c.119-.981.256-1.962.4-2.943l.297-1.961.3-1.961c.493-3.267.927-6.531.935-9.796.013-6.49-.104-12.995-.272-19.505l-.105-3.906-.173-5.861-.236-7.815-.112-3.907c-.523-18.88-.724-37.72 1.352-56.302 2.578-23.08 6.902-45.969 11.566-68.816l1.125-5.483 2.272-10.963 1.706-8.222 1.13-5.481c1.502-7.31 2.974-14.622 4.372-21.941.03-.152.146-.287.354-.438l.174-.117.208-.126.522-.291.857-.47.408-.232.445-.26.484-.293c.084-.051.17-.105.256-.16 0 1.416.032 2.783.073 4.11l.106 3.114.047 1.508c.08 2.986.07 5.8-.33 8.552-1.18 8.099-2.463 16.19-3.79 24.277l-.891 5.391-1.352 8.085-2.265 13.474-.9 5.39c-4.323 26.052-8.304 52.122-10.004 78.345-1.37 21.283-.037 42.81 2.084 64.312l.36 3.584.373 3.583.19 1.79.389 3.582.396 3.58.402 3.578 1.66 14.601c.274 2.43.545 4.857.81 7.283 2.14 19.578 13.537 22.34 31.845 18.243 26.287-5.87 41.397-22.492 53.687-41.595l.99-1.555c.821-1.3 1.63-2.609 2.43-3.926l.954-1.585.948-1.591.94-1.597.934-1.6 1.393-2.409 2.305-4.022 2.38-4.159a794.77 794.77 0 012.006-3.48l1.01-1.732c20.127-34.368 33.498-72.007 42.009-110.91l.9-4.148c.941-4.323 1.906-8.668 2.853-13.026l.565-2.617.537-2.513.53-2.516.52-2.517c3.691-18.05 6.546-36.252 5.713-54.128-1.388-30.055-8.39-60.68-18.075-89.335-9.206-27.228-47.325-38.859-74.476-27.578l-2.813 1.162-1.885.77c-6.923 2.805-13.997 5.408-21.234 6.729-4.645.85-9.447.818-13.955.642l-1.491-.064-3.608-.165-1.386-.052c-.911-.03-1.797-.05-2.652-.05l-11.073 5.446c-.095-1.085-.312-2.284-.56-3.511l-.569-2.766-.12-.621-.112-.613a36.538 36.538 0 01-.051-.302l-.093-.595c-.312-2.156-.304-4.006.624-4.986 10.657-11.275 21.97-21.959 33.421-32.467l4.047-3.702 2.026-1.847c1.724-1.572 3.595-2.983 5.498-4.374l1.636-1.19c2.733-1.986 5.465-4.011 7.867-6.481-10.29-.28-18.556 2.918-25.979 7.625l-.886.572-.88.586a80.69 80.69 0 00-1.737 1.21l-.858.622c-.286.209-.57.42-.853.633l-.848.643-.422.325-.84.656a130 130 0 00-.42.332l-1.249 1.005-1.242 1.02-.825.687-1.234 1.039-2.457 2.099-2.047 1.758-1.845 1.58-1.493 1.262c-4.99 4.193-10.132 8.183-15.875 11.224l8.999-15.365-13.783 2.167-1.141.18c31.74-45.082 74.398-68.265 127.921-65.089 53.835 3.203 88.674 39.287 119.546 79.78l7.624-4.681c.146.128.287.247.425.358l.396.312.534.406c.494.377.861.688 1.043 1.09 27.838 62.365 41.841 127.194 33.543 195.68-6.664 55.014-20.616 107.798-44.486 158.314l-1.95 4.104-1.307 2.73-1.313 2.724-1.32 2.718-1.329 2.713-1.335 2.706-1.345 2.7c-.224.45-.45.899-.675 1.347l-1.358 2.69c-.454.895-.91 1.79-1.367 2.682l-1.377 2.675-1.388 2.668c-16.718 31.96-35.822 62.2-61.096 88.67-15.922 16.7-34.204 29.951-56.505 36.732-4.564 1.4-9.763.726-15.08-1.517 8.7-5.225 17.414-10.463 26.127-15.715 36.641-22.093 62.884-53.95 83.396-90.696 14.393-25.763 27.851-52.097 40.687-78.677 2.14-4.424 3.37-9.273 4.435-14.212l.35-1.649.383-1.836c.763-3.675 1.532-7.356 2.612-10.906.711-2.35 1.693-4.625 2.719-6.882l1.16-2.537c1.28-2.818 2.496-5.646 3.2-8.603l2.396-9.999c5.574-23.336 11.004-46.715 15.77-70.234 1.482-7.321 2.263-14.788 2.937-22.28l.708-8.03c.24-2.677.494-5.351.789-8.017l-4.344-.83a2436.182 2436.182 0 00-5.048 18.893l-1.987 7.567-3.964 15.138c-5.627 21.442-11.366 42.85-18.018 63.97-15.534 49.31-36.214 96.428-64.052 140.33-25.024 39.468-55.74 72.83-96.025 97.101-2.455 1.48-4.43 3.746-6.3 6.183l-.697.92-1.728 2.326c-.809 1.08-1.628 2.143-2.49 3.135-59.086 10.594-111.235-8.959-157.795-45.367-19.296-15.088-30.911-35.773-35.223-60.248l-.135-.783c-1.211-7.123-2.571-14.222-3.95-21.318l-1.381-7.095c-1.836-9.46-3.629-18.925-5.068-28.442l-.223-1.51-.106-.753-.204-1.507c-1.968-15.055-1.86-29.839 4.423-44.943 2.385-5.732 3.237-12.07 3.816-18.541l.146-1.691.412-5.09.146-1.695c.303-3.39.682-6.758 1.314-10.04a2955.37 2955.37 0 001.95-10.184l3.845-20.385 1.29-6.793c4.103-21.508 8.424-42.964 13.868-64.134 3.253-12.65 7.884-24.945 12.763-37.177l1.4-3.493 3.519-8.728c1.873-4.656 3.728-9.317 5.501-13.999l.794-2.112 4.47-12.092-35.24 9.478-.066 2.684 14.133 5.07-56.31 20.019 18.89 6.263c.273 1.089.545 2.19.817 3.293l-42.61 20.235-14.556 6.902c4.358 1.243 8.947.838 13.645.014l1.13-.205 1.133-.217 1.137-.226 3.41-.687 1.354-.261 1.016-.187 1.017-.174.68-.11.678-.102.679-.094.679-.086.679-.077c.226-.024.453-.046.679-.066l.679-.056.678-.044c7.124-.402 14.195 1.242 20.814 8.97-.547.457-1.096.926-1.65 1.404l-2.52 2.191c-1.99 1.724-4.054 3.464-6.255 5.015l-.455.325-.444.325-.433.326-.42.327-.407.329-.2.165-.386.33-.372.334c-.122.111-.241.223-.358.335l-.342.337c-.167.17-.328.34-.483.512l-.301.345c-2.779 3.292-3.2 7.039.906 12.23 1.465 1.828 1.828 6.756.467 8.273-10.226 11.54-15.977 24.945-20.377 38.865l-.511 1.64-.5 1.645-.49 1.648-.481 1.65-.473 1.655-.466 1.656-.46 1.658-.456 1.66-.446 1.636-1.55 5.726-.444 1.633c-1.335 4.9-2.706 9.775-4.244 14.57-12.343 38.51-18.126 78.522-19.876 118.975-.257 5.937-.212 11.89-.118 17.845l.127 7.659c.089 5.957.118 11.912-.165 17.854-.267 5.446-.857 10.874-1.51 16.3l-.853 6.976c-.658 5.427-1.267 10.858-1.566 16.31-.322 5.726-.072 11.48.279 17.238l.167 2.658.184 2.847c.08 1.265.159 2.53.23 3.794l.563 10.75 1.084 19.603 1.189 21.15-21.782-16.213-4.864-3.642-2.394-1.802-2.312-1.746c-1.334-1.007-2.722-1.976-4.12-2.939l-2.397-1.65-.54-.376-1.073-.757c-3.202-2.284-6.23-4.707-8.531-7.684l-2.101-2.721-1.402-1.824-.7-.915-1.394-1.837c-6.489-8.594-12.682-17.516-16.938-27.167-6.183-14.026-11.047-28.677-15.645-43.386l-1.194-3.838-2.96-9.592-.11-.351-.222-.68-.226-.65-.23-.62-.116-.3-.235-.577a23.7 23.7 0 00-.484-1.07l-.247-.492c-2.456-4.706-5.514-5.408-9.445-3.427l-.403.21-.204.113-.412.238-.418.255-.211.135-.428.281-.433.298-.22.156-.443.323-.45.34-.688.539-.466.378-.473.394-.24.202a1687.96 1687.96 0 00-4.178 3.56l-4.173 3.572-6.258 5.364c-11.133 9.529-22.335 18.984-34.051 27.724-.537.4-1.074.797-1.612 1.193l-1.617 1.18a284.798 284.798 0 01-4.889 3.468l-1.642 1.13a253.263 253.263 0 01-4.134 2.763l-1.666 1.08c-20.034 12.868-41.628 22.48-66.177 25.906-37.64 5.238-65.374-10.982-88.402-38.353-4.957-5.886-9.28-12.34-13.479-18.832l-1.57-2.435-1.022-1.592-.472-.75-.459-.75-.444-.748c-.146-.249-.29-.498-.43-.747l-.415-.747-.4-.748c-3.58-6.863-5.038-13.886-1.756-23.115 2.083-5.843 1.735-12.752.833-19.633l-.165-1.214-.173-1.211-.18-1.209-.927-5.946-.088-.582c-7.416-49.296-9.673-98.54.545-147.708 2.304-11.09 4.746-22.152 7.21-33.21l2.962-13.267c2.958-13.267 5.883-26.541 8.576-39.862.476-2.356.659-4.772.783-7.196l.172-3.637c.186-3.63.504-7.222 1.742-10.6 1.235-4.066 2.427-8.14 3.685-12.197l.957-3.038a226.57 226.57 0 002.03-6.77l.644-2.274 1.276-4.555.322-1.138.652-2.271c1.87-6.424 3.946-12.746 6.9-18.622l7.698-15.31 2.207-4.373 2.216-4.37c10.365-20.385 21.107-40.585 33.507-59.668 7.088-10.916 15.234-21.132 23.637-31.188l2.528-3.012 2.538-3.006 6.36-7.508 2.537-3.01c4.221-5.02 8.396-10.075 12.424-15.231l1.204-1.55c17.322-22.43 36.966-42.087 62.171-55.494 8.785-4.676 17.703-9.1 26.647-13.478l10.068-4.915 3.355-1.64 3.353-1.646c1.919-.946 4.11-1.88 6.185-1.906 22.133-.285 44.278-.337 66.411-.604 13.099-.145 20.684 3.996 26.3 14.064l.403.738c.267.499.528 1.012.786 1.539l.384.8.378.823c.188.416.374.84.558 1.273l.365.876.18.446zm1317.398-13.939c32.813 2.981 59.966 20.21 84.108 41.868l1.49 1.345c.247.225.495.45.742.677a129.932 129.932 0 015.328 5.176l1.06 1.094 1.067 1.116 1.075 1.139 1.088 1.164 2.228 2.405 4.754 5.155 1.27 1.367 1.31 1.401 1.352 1.436.693.731-36.836 3.112c12.401 1.258 21.877 7.03 30.839 14.104l1.095.872.546.44 1.089.89.543.449 1.086.903 1.626 1.37 5.445 4.634 1.1.93 1.663 1.39 1.118.923.562.46 1.132.913.57.454 1.146.902c3.265 2.544 6.67 4.977 10.316 7.163l-19.474 5.602 16.531 14.405c-.052.894-.117 1.776-.182 2.67l-48.725-7.669-4.33-.68 14.443-7.715c-36.68-15.092-205.354-.493-241.554 22.444l1.455.096 1.411.105 1.37.112 1.328.118 1.922.181 4.19.414 1.687.157 1.092.093 1.07.081.526.036 1.039.06 1.02.043c2.026.07 3.956.026 5.864-.2 14.418-1.706 28.821-3.539 43.222-5.398l21.6-2.798c14.4-1.862 28.804-3.701 43.222-5.418 18.682-2.23 37.413-3.987 56.154-5.656l14.057-1.242c1.685-.153 3.425.31 5.176.882l2.023.68c.675.224 1.348.435 2.02.604l-.078 4.136c-26.542 2.749-53.109 5.329-79.637 8.285-24.233 2.71-48.44 5.731-72.635 8.778-5.784.728-11.552 1.591-17.318 2.473l-6.918 1.06c-1.153.175-2.306.35-3.46.521l-4.385.647-.897.138-.854.139-1.116.197-.548.104-.54.109-.797.173-.261.061-.516.126-.507.133-.498.14-.245.073-.483.152c-.239.077-.474.159-.704.243l-.456.174-.224.09-.439.19c-4.833 2.167-7.422 6.304-5.252 15.605 1.033 4.417.484 9.25-.43 14.13l-.226 1.172-.356 1.758-.611 2.924a127.973 127.973 0 00-.892 4.618c-1.09 6.39-2.282 12.763-3.491 19.133l-1.816 9.553c-1.204 6.37-2.382 12.743-3.445 19.133-.83 4.972 1.033 7.248 3.876 8.815l.393.209.405.202c.069.033.137.066.207.098l.42.192.428.188.657.274 1.125.449.912.359.456.181c.988.398 1.985.823 2.946 1.324 19.177 9.97 39.372 11.748 59.701 12.281l2.26.055 3.39.067 9.044.145 3.39.061 1.129.024 2.258.053 2.256.063c9.399.286 18.753.885 27.975 2.486 12.851 2.227 25.577 5.163 38.283 8.206l5.081 1.222 5.399 1.3a1358.035 1358.035 0 0016.209 3.82l.467 5.186c-14.804 8.439-30.748 12.267-47.067 14.577l-1.885.26-.943.125-1.89.242-1.891.23c-.315.039-.631.076-.947.113l-1.895.216-1.897.209-2.85.299-3.803.38-3.807.367-7.087.674-3.187.312c-11.15 1.11-22.244 2.444-33.045 4.959l.596 5.251c14.807-1.361 29.601-2.723 44.408-4.11 1.624-.153 3.248-.336 4.872-.524l2.436-.282c4.058-.466 8.115-.881 12.167-.84 1.257.013 2.503.838 3.746 1.84l.497.41 1.242 1.045c.497.412.993.805 1.49 1.138-.528.43-1.043.912-1.554 1.408l-.928.912c-1.456 1.431-2.926 2.804-4.636 3.269-7.707 2.087-15.471 3.972-23.244 5.813l-9.995 2.356c-2.22.524-4.44 1.05-6.657 1.581l.286 3.644 17.192 3.954.493 3.838-34.456 13.644a22042.73 22042.73 0 00-17.226 6.83 3374.033 3374.033 0 00-10.502 4.187l-15.74 6.316c-12.244 4.91-24.5 9.789-36.837 14.455-14.223 5.381-28.68 10.205-43.215 14.678-7.123 2.191-10.026 5.986-11.428 13.365l-.073.392c-2.646 14.697-5.71 29.313-8.838 43.918l-3.76 17.523c-.937 4.382-1.866 8.765-2.78 13.151l-8.905 42.81c-4.94 23.786-9.851 47.577-14.64 71.394a196.428 196.428 0 00-.9 4.826l-.923 5.29-.253 1.394-.246 1.308-.17.87-.175.865-.274 1.293-.193.857-.2.854-.103.425-.214.848-.223.843-.116.42-.24.835c-.04.139-.082.278-.124.416l-.258.828c-2.553 7.98-6.917 15.195-16.134 20.641-2.375 1.406-4.004 4.077-5.423 7.511l-.324.806-.318.831-.158.426-.312.867-.31.89-.308.911-.778 2.36-.805 2.46-.506 1.516-.35 1.024-.36 1.034-.375 1.041-.193.524-.397 1.05a78.306 78.306 0 01-1.297 3.174l-4.888-28.486c-1.076 0-2.152 0-3.228.012-2.243 18.71-4.5 37.42-6.756 56.13-2.217-.13-4.434-.272-6.638-.415-6.212-47.578-7.583-95.519-7.502-143.58l.016-5.655.028-5.655.039-5.657.049-5.658.057-5.658-4.668-.35a43.333 43.333 0 01-.635 2.119l-.343 1.059c-.568 1.766-1.098 3.537-1.187 5.328-.298 6.136-.569 12.274-.83 18.414l-.78 18.422c-.526 12.282-1.093 24.564-1.852 36.836-.131 2.026-1.177 3.997-2.426 5.956l-.476.734-1.22 1.833-.476.734a28.408 28.408 0 00-1.094 1.842 31.41 31.41 0 00-1.214-1.9l-.524-.754-.535-.753-.803-1.13a77.85 77.85 0 01-.264-.377l-.517-.756c-1.267-1.893-2.327-3.815-2.613-5.844-6.589-46.914-5.16-93.643-.538-140.317l.367-3.637c.31-3.03.634-6.061.97-9.092l.407-3.636.419-3.636.213-1.818.433-3.636.22-1.818.448-3.635.456-3.636.464-3.635.472-3.636c1.685-12.83 3.108-25.697 4.504-38.566l1.047-9.652c1.749-16.086 3.55-32.164 5.872-48.17 2.149-14.82 5.567-29.465 9.177-44.044l1.035-4.164 2.598-10.398c.328-1.327 2.072-2.306 3.675-2.991l.528-.218.504-.196 1.245-.466c.215-.084.38-.155.48-.213a1577.7 1577.7 0 001.023-8.567l.989-8.48.663-5.612c1.006-8.394 2.079-16.688 3.431-24.939.376-2.295 1.575-4.437 2.9-6.575l1.149-1.835c.956-1.533 1.874-3.086 2.499-4.711.963-2.517 1.618-5.16 2.237-7.928l.83-3.765c.213-.96.437-1.933.68-2.92l7.105 8.519 9.036-14.397 3.844-6.15 1.896-3.049 1.885-3.043c.921-1.478 1.4-3.228 2.282-4.732l1.01-1.726.943-1.632.59-1.039.56-1 .267-.486.511-.946c5.775-10.818 4.91-14.45-6.247-19.816l-.982-.464-1.032-.474-.536-.241-1.11-.491-1.162-.504-1.215-.518-1.268-.534-2.003-.831-.695-.287 21.472-14.184c-.013-1.115-.04-2.23-.065-3.346-3.032.284-6.09.467-9.156.625l-6.078.304c-.339.017-.677.035-1.015.054l-2.027.116c-6.75.41-13.431 1.072-19.818 2.817l-1.718.465-1.682.446-.829.217-1.633.417c-12.128 3.063-21.623 4.499-31.403 3.839l.948.827c-.052.894-.117 1.776-.182 2.67l-53.043-8.35 14.444-7.714c-36.68-15.092-205.354-.493-241.568 22.444l1.456.096 1.41.105.69.055 1.349.115 1.31.12 2.51.243 2.952.292 1.686.157 1.093.093 1.069.081.527.036 1.038.06c2.402.122 4.658.107 6.884-.156 14.418-1.707 28.824-3.54 43.226-5.4l21.602-2.797c14.402-1.862 28.804-3.701 43.217-5.418 18.681-2.23 37.412-3.987 56.153-5.656l9.371-.83 4.686-.412c1.686-.153 3.43.31 5.182.882l2.023.68c.674.224 1.346.435 2.014.604l-.078 4.136c-26.541 2.749-53.108 5.329-79.636 8.285-24.234 2.71-48.428 5.731-72.635 8.778-5.784.728-11.553 1.591-17.318 2.473l-6.918 1.06c-1.154.175-2.307.35-3.46.521l-4.386.647-1.213.188-.597.099-.59.102-.871.161-.571.114-.563.119-.553.125-.273.065-.54.136-.265.07-.523.148c-.173.051-.344.103-.513.157l-.501.165c-5.698 1.957-9.053 5.855-6.862 15.763l.099.435c.991 4.24.525 8.865-.323 13.545l-.219 1.171-.114.586-.236 1.172-.852 4.092-.236 1.161-.225 1.155-.211 1.149-.1.571c-1.089 6.39-2.281 12.763-3.49 19.133l-1.817 9.553c-1.204 6.37-2.381 12.743-3.444 19.133-.849 5.083 1.117 7.348 4.069 8.918l.4.206.203.1.415.195.424.19.652.276.893.36 1.374.54.456.182c.99.398 1.988.823 2.951 1.324 19.17 9.97 39.362 11.748 59.69 12.281l2.259.055 3.39.067 9.044.145 3.39.061 1.128.024 2.258.053 2.257.063c9.398.286 18.752.885 27.974 2.486 13.655 2.366 27.168 5.533 40.666 8.778l8.097 1.95a1357.99 1357.99 0 0016.21 3.82l.466 5.186c-14.513 8.273-30.122 12.115-46.106 14.44l-1.92.271-1.923.258-1.926.246c-.643.08-1.286.159-1.93.235l-1.93.225-1.934.216-1.936.207-1.937.201-2.909.292-3.272.317-8.02.763c-12.295 1.184-24.55 2.521-36.45 5.292.207 1.75.401 3.5.596 5.251a24475.87 24475.87 0 0044.408-4.11c1.624-.153 3.248-.336 4.872-.524l2.436-.282c4.06-.466 8.12-.881 12.18-.84 1.184.012 2.362.753 3.538 1.684l.47.38.967.814c.662.56 1.324 1.11 1.987 1.555-.472.384-.932.809-1.389 1.249l-.545.533-.818.805c-1.365 1.332-2.756 2.566-4.366 3.002-7.707 2.087-15.467 3.972-23.239 5.813l-9.996 2.356c-2.22.524-4.442 1.05-6.661 1.581.09 1.219.195 2.425.298 3.644l17.193 3.954.16 1.275.333 2.563-34.47 13.644a29930.26 29930.26 0 00-17.225 6.83 3374.033 3374.033 0 00-10.502 4.187l-15.74 6.316c-12.245 4.91-24.501 9.789-36.837 14.455-14.224 5.381-28.68 10.205-43.203 14.678-7.26 2.23-10.139 6.12-11.513 13.757-2.661 14.82-5.756 29.557-8.912 44.283l-2.747 12.777a2830.162 2830.162 0 00-3.719 17.532l-8.905 42.81c-4.94 23.786-9.852 47.577-14.64 71.394a171.931 171.931 0 00-.641 3.378l-.257 1.448-.914 5.252-.319 1.757-.249 1.31-.26 1.305-.182.866-.188.862-.195.86-.204.854c-.07.284-.141.567-.214.85l-.223.846-.116.422-.24.838c-.081.28-.165.557-.25.834l-.265.829c-2.57 7.844-6.943 14.933-16.03 20.302-2.649 1.568-4.369 4.71-5.906 8.73l-.316.843-.156.431-.311.88-.31.9-.463 1.388-1.274 3.89-.506 1.516-.173.511-.355 1.03-.368 1.037-.189.521-.389 1.048-.405 1.053c-.344.88-.707 1.763-1.092 2.647l-4.888-28.486c-1.076 0-2.153 0-3.229.012-2.243 18.71-4.499 37.42-6.755 56.13-2.217-.13-4.421-.272-6.639-.415-6.455-49.444-7.673-99.28-7.482-149.235l.027-5.655.039-5.657.048-5.658.056-5.658-4.668-.35a40.55 40.55 0 01-.63 2.119l-.342 1.059c-.57 1.766-1.104 3.537-1.193 5.328-.299 6.136-.57 12.274-.831 18.414l-.518 12.28c-.604 14.33-1.228 28.66-2.113 42.978-.125 2.026-1.171 3.997-2.42 5.956l-.476.734-1.218 1.833c-.564.856-1.105 1.713-1.565 2.576a31.855 31.855 0 00-1.22-1.9l-.526-.754-1.341-1.883c-1.596-2.261-3.054-4.542-3.396-6.977-7.103-50.57-4.89-100.924.598-151.227l.403-3.637c.136-1.212.273-2.424.413-3.636l.423-3.636.434-3.636.443-3.636.452-3.635.46-3.636.468-3.635.236-1.818c1.475-11.227 2.748-22.481 3.98-33.74l1.571-14.478c1.75-16.086 3.551-32.164 5.872-48.17 2.047-14.114 5.245-28.07 8.663-41.961l1.55-6.247 2.598-10.398c.346-1.401 2.27-2.414 3.94-3.103l.518-.207.488-.186 1.005-.375c.215-.084.38-.155.48-.213.235-1.915.463-3.822.689-5.722l.666-5.681.657-5.644c1.207-10.317 2.442-20.467 4.095-30.55.349-2.132 1.408-4.132 2.618-6.118l.567-.916.863-1.377c.956-1.533 1.874-3.086 2.5-4.711.97-2.517 1.624-5.16 2.241-7.928l.826-3.765c.213-.96.436-1.933.68-2.92l7.105 8.519 10.007-15.943 3.83-6.13 1.893-3.044.944-1.522c.345-.554.627-1.147.89-1.75l.516-1.214c.26-.606.532-1.204.863-1.768l1.01-1.726.636-1.098.606-1.059.574-1.019.544-.981.26-.477.494-.928c.16-.303.314-.6.462-.893l.43-.86c4.6-9.415 2.881-12.83-8.364-18.068l-1.033-.474-1.084-.485-1.136-.498-1.188-.51-1.242-.526-2.644-1.1-.694-.287 21.471-14.184-.052-3.346c-2.913.273-5.85.452-8.794.606l-5.523.275-2.207.116c-7.35.404-14.64 1.022-21.583 2.92l-1.565.423-1.536.409-1.509.393-1.481.377-.731.183-1.444.353-1.42.337-1.396.32-1.375.304-1.355.287c-17.705 3.666-30.39 2.901-49.967-4.217 39.754-20.577 80.078-32.765 122.035-41.348-7.542-4.959-15.358-5.2-23.022-4.082l-.92.14-.917.153-.916.163-.913.171-1.367.273-.908.189-1.316.282-4.34.963c-1.292.284-2.571.557-3.838.802-9.095 1.738-18.013 4.354-26.907 7.116l-3.139.98-3.726 1.17c-7.454 2.339-14.92 4.649-22.487 6.5-2.757.673-5.877-.115-9.058-1.162l-1.304-.44-1.742-.6-.868-.293c-1.156-.385-2.304-.74-3.43-1.006l.273-5.16c6.754-2.671 13.497-5.37 20.238-8.077l15.165-6.096c18.536-7.444 37.093-14.833 55.825-21.743 27.643-10.178 55.675-19.319 83.733-28.265 50.178-16 101.705-24.337 154.268-19.579 31.134 2.827 57.154 18.472 80.351 38.556l1.51 1.316 1.5 1.328.748.668 1.49 1.345.741.677a123.329 123.329 0 014.271 4.104l1.058 1.072 1.06 1.094 1.066 1.116 1.076 1.139 1.088 1.164 1.663 1.794 4.697 5.095 1.891 2.038 1.31 1.401 1.352 1.436.693.731-36.836 3.112c10.798 1.095 19.377 5.612 27.33 11.43l1.013.75c.672.505 1.34 1.018 2.006 1.538l.996.787.993.796.495.402.987.81.986.818 1.477 1.239 1.084.917 4.354 3.71 1.098.93c4.995 4.22 10.166 8.398 15.927 11.98 30.294-12.665 61.061-21.207 92.76-27.692-8.106-5.33-16.528-5.209-24.74-3.81l-.928.164-.464.086-.925.177-.924.185-.92.192-.919.196-1.768.388-2.6.58-.861.189c-.764.166-1.523.329-2.278.482l-1.13.225c-9.53 1.821-18.865 4.606-28.182 7.513l-7.454 2.337c-6.835 2.136-13.686 4.219-20.622 5.916-2.444.595-5.164.049-7.958-.81l-.8-.252-.803-.266-.805-.274-.87-.3c-1.74-.602-3.478-1.2-5.166-1.599l.085-1.72.187-3.44a3622.167 3622.167 0 0015.182-6.049l20.221-8.124c18.537-7.444 37.094-14.833 55.825-21.743 27.644-10.178 55.676-19.319 83.734-28.265 50.178-16 101.704-24.337 154.268-19.579zm-1724.293 42.814c2.998.826 5.96 1.764 8.933 2.722l3.573 1.153c.597.191 1.195.382 1.795.572.705.566 1.448 1.13 2.214 1.702l2.353 1.74c2.79 2.068 5.68 4.302 8.023 7.008 2.515 2.905 4.279 7.378 4.421 11.229.297 7.705.322 15.42.29 23.134l-.067 11.573c-.009 1.929-.015 3.857-.015 5.785l3.915.117 10.049-52.538c2.217.052 4.434.091 6.651.13l10.866 65.426c.843.052 1.698.09 2.541.13v-75.021c2.204.078 4.408.168 6.613.26.684 39.82-2.162 79.455-5.923 119.1l-.531 5.532-.54 5.532-.55 5.533-.838 8.3-.564 5.534-2.15 20.926c-2.349 22.929-4.627 45.889-6.33 68.918l-5.485-13.005a230.919 230.919 0 01-1.024 3.806l-.52 1.847-.26.911-.523 1.798-.78 2.64-1.516 5.103-.483 1.656-.468 1.637-.45 1.62c-1.32 4.838-2.365 9.476-2.832 14.172-1.783 17.88-3.212 35.792-4.601 53.708l-1.039 13.437c-1.041 13.436-2.104 26.87-3.32 40.29-.466 5.161-1.332 10.287-2.254 15.407l-.927 5.12c-1.023 5.687-1.974 11.379-2.38 17.113-.344 4.724-.112 9.487.203 14.258l.294 4.295c.322 4.772.58 9.541.28 14.277-.318 4.987-1.313 9.933-2.41 14.876l-.749 3.33c-.768 3.405-1.523 6.815-2.079 10.24l-.438 2.735c-1.157 7.298-2.194 14.65-2.401 21.992-.167 6.04-.099 12.104 0 18.168l.098 5.685c.187 11.366.263 22.71-1.11 33.884-1.804 14.75-4.734 29.364-7.826 43.961l-1.035 4.865-1.557 7.298-1.03 4.866a956.575 956.575 0 00-2.49 12.176l-1.177-.139-2.363-.276c0-6.013.03-12.028.07-18.043l.098-13.534c.128-18.046.2-36.09-.35-54.114-.525-16.867-1.559-33.722-2.678-50.575l-1.235-18.387c-.41-6.129-.81-12.258-1.182-18.39-1.439 0-2.878-.012-4.317-.025v153.788l-5.135.13-9.958-125.341-3.682.09c0 3.484.009 6.967.021 10.45l.067 15.676c.048 12.19.056 24.38-.179 36.564-.23 12.18-.688 24.361-1.19 36.622l-.576 13.83c-.191 4.625-.38 9.265-.555 13.924-5.76.247-8.858-1.182-10.641-3.483l-.23-.312a8.811 8.811 0 01-.416-.653l-.188-.34a10.863 10.863 0 01-.415-.888l-.147-.368-.136-.376-.126-.383-.118-.389-.11-.395-.102-.4-.095-.405-.133-.617-.081-.416-.078-.42-.146-.847-1.108-6.996c-3.086-19.342-6.474-38.658-11.234-58.15 0 3.092-.008 6.184-.02 9.275l-.034 9.275c-.022 7.73-.018 15.459.12 23.188.056 3.195.215 6.392.4 9.588l.31 5.203c.358 6.024.657 12.04.378 18.038-.078 1.81-1.042 3.58-2.286 5.336l-.425.585-.44.584-.451.584-.975 1.243c-.774.99-1.527 1.98-2.152 2.975-.838-.885-1.819-1.741-2.827-2.592l-1.458-1.222-.56-.476-.55-.478-.269-.24-.526-.483c-1.635-1.535-2.948-3.133-3.3-4.921-9.314-47.09-14.725-94.57-13.431-142.687l.062-2.155c.683-22.056.925-44.128 1.098-66.197l.134-18.055c.024-2.742-.48-5.488-1.042-8.233l-.462-2.246a76.213 76.213 0 01-.557-2.993l-4.603-.726c-1.284 3.94-2.584 7.876-3.886 11.81l-2.607 7.866c-3.472 10.489-6.91 20.985-10.078 31.565-1.505 5.034-2.752 10.178-3.951 15.337l-1.633 7.058-.519 2.207c-2.18 9.185-4.616 18.24-8.522 26.627l-1.71 3.67-1.72 3.672-1.728 3.67-1.739 3.668-1.751 3.665-.881 1.83-1.772 3.658c-10.677 21.923-22.185 43.49-35.778 63.505l-1.032 1.508-1.048 1.51c-.527.754-1.06 1.508-1.6 2.262l-1.085 1.507-.548.752-1.108 1.503c-12.456 16.758-27.706 32.764-45.158 42.056l-3.52 1.871-2.85 1.503-1.435.751-1.444.75-2.179 1.118-1.462.74-1.47.736c-.245.123-.49.245-.737.366l-1.48.727-.744.36-1.491.715-.75.354-1.502.701c-1.004.464-2.014.922-3.028 1.37l-1.525.668-1.532.654c-12.543 5.285-25.82 9.152-39.805 9.241h-.857a386.12 386.12 0 00-9.067.08l-6.265.12-2.832.045-2.109.021-1.398.007h-1.39l-1.383-.008-.688-.008-1.37-.023-1.36-.033c-10.84-.315-20.712-1.773-28.19-6.787l-3.833-5.41-2.142-3.045-1.58-2.265-1.041-1.502-1.54-2.241-1.012-1.488-.999-1.482-.986-1.478-.972-1.474-.959-1.47-.944-1.466a267.57 267.57 0 01-.466-.733l-.922-1.463c-.457-.73-.907-1.46-1.352-2.19l-.881-1.458c-8.726-14.576-14.9-28.993-16.26-45.22-.617-7.407-1.063-14.827-1.47-22.259l-.668-12.395c-.812-14.886-1.766-29.807-3.917-44.736l-3.553 27.656-.986.124-1.983.265c-.227-1.148-.533-2.305-.857-3.464l-.551-1.962-.256-.94c-.666-2.506-1.166-4.991-.865-7.378.35-2.83.686-5.665 1.014-8.502l.488-4.258.966-8.521.488-4.261c1.887-16.332 4.009-32.629 7.715-48.545 10.665-45.806 22.733-91.304 35.026-136.728l3.21-11.848c5.496-20.243 11.56-40.336 17.699-60.407l6.146-20.068a4280.444 4280.444 0 004.577-15.058c.116-.393.359-.747.73-1.153l.238-.251.269-.268 1.183-1.136.407-.399.438-.44.47-.486.246-.262 3.682 17.322 2.615.575c.435.097.868.195 1.3.294 9.66-31.792 19.32-63.585 28.992-95.377l6.976 1.776c-3.252 20.314-8.331 40.28-13.708 60.188l-1.198 4.423-3.682 13.5-1.136 4.185-1.128 4.187c-5.616 20.94-10.815 41.962-13.819 63.403l5.044 1.245 38.785-134.818 6.518-22.64c9.75 12.53 11.89 24.806 7.562 39.356l-.159.527c-2.587 8.426-4.226 17.145-5.67 25.916l-.45 2.77-1.19 7.486a549.59 549.59 0 01-1.26 7.6c-.267 1.512-.322 3.062-.297 4.769l.018.867.044 1.358.087 2.44.03 1.048.02 1.095c.004.372.007.754.007 1.143l37.99-78.106c3.342 11.368 2.537 22.196.748 32.808l-.234 1.353-.243 1.351-.25 1.35-.257 1.347-.478 2.442-.486 2.438c-.972 4.87-1.934 9.716-2.573 14.57-1.42 10.74-2.966 21.464-4.541 32.186l-2.844 19.298c-.315 2.145-.628 4.29-.94 6.435l5.887 1.011 11.501-60.602c.418.527.88 1.046 1.362 1.556l.486.507.493.502.983.99.48.49.463.484c1.435 1.53 2.547 3.004 2.527 4.469l-.013.913-.034 1.831c-.175 7.952-.742 16.088-2.9 23.63l-.255.867c-2.724 8.94-3.587 17.818-4.103 26.808l-.11 2-.15 3.007-.196 4.027-.104 2.022-.113 2.027-.06 1.017c-.82 13.423-4.052 26.696-7.705 39.94l-1.07 3.843-1.807 6.406-.722 2.562-.716 2.562c-1.187 4.27-2.337 8.544-3.384 12.822-.12.493-.417.95-.74 1.4l-.327.448c-.377.522-.72 1.045-.787 1.614-.85 6.93-2.59 13.751-4.489 20.558l-.772 2.744-1.594 5.632-.492 1.772-.483 1.775-.315 1.183-.31 1.185-.301 1.185-.294 1.187-.144.594-.28 1.188c-.093.397-.183.793-.271 1.19l-.26 1.192-.248 1.193c-2.378 11.738-2.928 23.722 1.98 36.41 1.368 3.54 1.446 7.615 1.107 11.829l-.097 1.102a99.874 99.874 0 01-.174 1.661l-.129 1.112-.276 2.223c-.28 2.22-.56 4.428-.716 6.566-1.361 18.528-3.138 37.018-4.499 55.533-.035.452.155.921.529 1.503l.185.277.21.295.36.481 1.203 1.56.532.708.377.515.393.552.41.592.21.31a862.917 862.917 0 013.269-6.688l1.62-3.27 4.774-9.577 1.554-3.132.769-1.557 1.52-3.102c3.014-6.188 5.87-12.295 8.484-18.507 20.849-49.517 41.374-99.164 61.652-148.914 7.028-17.262 13.944-34.568 20.844-51.88l6.898-17.314c11.498-28.855 23.037-57.691 35.052-86.331 7.434-17.703 15.87-34.985 24.403-52.227l2.846-5.746c3.322-6.704 6.644-13.407 9.911-20.134 4.368-8.991 11.02-15.47 18.438-21.106l1.065-.8.536-.395 1.078-.785 1.087-.775 1.093-.768 1.1-.762 1.104-.756 1.109-.751 2.285-1.534 1.761-1.177c5.873-3.923 11.723-7.871 16.903-12.556.593-.533 1.787-.457 3.17-.144l.527.128.269.07.544.153.55.165 2.16.682.505.155.483.14zm-946.108 596.49v-34.632l-2.878.013v34.645c.96 0 1.919-.013 2.878-.026zm350.3-73.404l-27.488 5.342.91.423.888.404.435.194.854.374.832.353.81.333.79.313.769.292.377.139.74.261.72.24c8.18 2.648 12.695 1.155 17.196-5.235l.391-.568c.066-.097.131-.195.196-.294l.393-.605.196-.312.395-.643.396-.668.2-.343zm-32.402-3.527l-20.512 1.478.285 4.5h20.564c-.117-1.997-.234-3.981-.337-5.978zm-629.32-357.435l-.031-.43c.14 2.02.413 4.076.72 6.143l.605 3.99.169 1.165c.684 4.845 1.083 9.613-.12 13.934-7.452 26.84-15.133 53.615-22.855 80.378l-7.728 26.762c-9.016 31.223-18.002 62.455-26.661 93.78-5.214 18.85-9.812 37.874-14.341 57.229l-1.696 7.274-4.255 18.332-1.724 7.397a2950.653 2950.653 0 01-4.421 18.668c-6.546-11.937-6.907-23.069-4.704-34.356l.218-1.076.232-1.076c.08-.36.162-.719.247-1.078l.26-1.08a106 106 0 01.134-.54l.28-1.082.143-.542c5.536-20.603 10.8-41.296 15.87-62.029 1.471-6.029 2.825-12.087 4.162-18.149l1.602-7.275c1.607-7.275 3.245-14.541 5.089-21.758 1.205-4.729 2.607-9.412 4.048-14.085l2.172-7.006c2.162-7.006 4.237-14.027 5.695-21.178 7.287-35.734 17.426-70.34 33.595-103.234 3.435-6.987 5.873-14.463 8.138-22.034l.75-2.526 1.488-5.062.752-2.529a281.292 281.292 0 011.958-6.289l.21-.638zm1995.223 178.332c-11.85 49.997-29.679 97.815-66.748 136.557 22.236-45.523 44.499-91.046 66.748-136.557zm-468.34-211.148c-22.989 20.227-39.092 44.953-51.449 72.039-16.752 36.706-29.16 74.787-37.432 114.488l-.602 2.917a705.907 705.907 0 00-1.166 5.832l-.562 2.915a574.91 574.91 0 00-.55 2.914l-.533 2.913c-7.72 42.725-10.494 85.266.197 128.259.494 2.026 1.683 3.877 2.996 5.696l1.428 1.944c.569.778 1.123 1.56 1.618 2.357l2.398-1.008c.399-.167.796-.332 1.194-.496-.187-7.55-.626-15.123-1.108-22.7l-.656-10.196-.238-3.835-.168-2.876-.107-1.917-.101-1.917-.095-1.915-.088-1.915-.08-1.915-.072-1.913-.063-1.913-.052-1.912c-.016-.637-.03-1.274-.041-1.91l-.03-1.91-.018-1.91c-.006-.953-.007-1.907-.002-2.86l.016-1.905c.255-20.635 3.135-41.025 12.938-60.765 2.542 2.035 3.19 3.98 3.138 5.912a7326.34 7326.34 0 01-.683 23.912l-.481 15.94c-.64 21.253-1.258 42.507-1.585 63.771-.014.908.006 1.76.059 2.555l.046.586c.026.288.057.567.092.84l.077.532c.954 6.005 4.315 7.78 9.402 4.968l.447-.256c.526-.312 1.07-.672 1.63-1.079l.485-.36c.081-.062.163-.125.245-.19l.497-.395.251-.207.254-.212c8.409-7.139 17.126-13.903 25.957-20.53l2.792-2.088 4.2-3.119 5.613-4.142 7.022-5.17 2.807-2.07 4.203-3.114 2.796-2.084 2.79-2.092 2.78-2.102c17.583-13.346 34.593-27.385 49.47-44.004 5.493-6.146 10.724-12.53 15.92-18.942l3.462-4.276c2.307-2.85 4.618-5.698 6.952-8.523a452.884 452.884 0 01-1.543-3.734c-1.174.11-2.385.15-3.607.169l-1.05.011-2.103.017-1.046.018c-3.127.074-6.145.358-8.635 1.652-6.01 3.124-11.823 6.631-17.612 10.185l-4.34 2.668c-5.788 3.556-11.595 7.073-17.594 10.213-2.505 1.313-4.921 2.927-7.329 4.608l-3.894 2.737-1.201.828-.906.61-.91.598a74.04 74.04 0 01-.306.196l-.612.388-.615.38-.62.371-.622.363-.626.352-.315.172-.633.336-.637.324c-6.186 3.072-13.061 4.357-21.72.639l16.363-20.422-1.361-1.711-30.639 11.591c1.741-5.97 5.469-10.32 9.494-14.334l.674-.667 1.184-1.152 2.072-2.002.878-.86.58-.577.572-.58.565-.583.557-.589c.184-.197.366-.395.546-.594l.536-.602c3.974-4.54 6.923-9.729 6.653-17.239l-25.802 5.472.297-.655.267-.608.24-.563.407-.998.476-1.201.199-.48.125-.28c.245-.53.474-.876.79-1.102 14.34-10.399 28.771-20.693 43.19-31.001l-2.4-4.694-83.681 50.087c11.63-76.2 40.933-142.56 77.484-206.404zm-871.064-18.925l-2.486.292c-2.07.244-4.141.492-6.211.74-1.13.137-2.224.576-3.41 1.244l-.48.279-.492.302-.25.16-.775.51-.538.367-2.68 1.87-1.007.692-.709.478-.74.49-.774.501c-.132.084-.265.17-.4.254l-.828.515c-.14.087-.283.173-.428.26l.96.21 1.354.303 1.256.292 2.59.625 2.187.536 1.105.261.52.117.745.158.477.092.463.083.227.037.446.066.439.056.432.043.428.032.213.012.213.008c3.497.117 6.994.238 10.49.362l20.983.752c19.234.684 38.473 1.302 57.711 1.48l5.247.038c17.089.09 28.655 6.794 35.073 25.093-26.97-19.61-56.03-20.507-84.948-19.71l-4.197.125-9.776.32-2.787.083c-12.07.342-24.04.402-35.744-1.075.24 2.212.52 4.38.818 6.51l.3 2.12.916 6.22.291 2.035c.9 6.413 1.56 12.563 1.215 18.659l-.35 6.036-.243 4.028c-1.233 20.148-2.854 40.377-6.733 60.081-3.862 19.68-8.888 39.132-14.134 58.532l-1.503 5.542-3.906 14.309c-1.09 4-2.177 8-3.25 12.002-.125.46-.287.953-.48 1.467l-.204.521-.223.532c-.077.178-.157.359-.24.54l-.255.545-.133.274-.276.549c-.093.182-.19.365-.287.547l-.297.543-.305.536-.312.526a34.3 34.3 0 01-.157.258l-.319.506-.32.49-.161.238-.322.459a23.87 23.87 0 01-.16.22l-.318.423c-1.106 1.432-2.134 2.352-2.765 2.223-5.762-1.198-8.281.422-9.681 2.98l-.166.317-.156.326-.146.334-.138.341-.13.348-.123.353-.117.357-.112.362-.108.365-.356 1.291-.218.808-.16.568-.165.56c-.028.093-.057.185-.087.277l-.182.544c-.6 1.701-1.426 3.18-2.943 4.028.596.933 1.192 1.841 1.776 2.762a105.19 105.19 0 013.733-1.98l3.785-1.91c3.524-1.79 6.978-3.664 9.973-6.107a1332.27 1332.27 0 017.649-6.189l3.84-3.078 3.849-3.072 9.631-7.671 3.85-3.074 1.922-1.539 3.837-3.085c14.692-11.848 29.136-23.958 42.556-37.109 23.658-23.16 45.592-48.184 66.901-73.618l3.754-4.493 1.873-2.248 3.737-4.502c9.739-11.75 16.44-25.387 20.092-41.869l.491-2.266.287-1.297.555-2.449 1.004-4.359.431-1.932.194-.909.091-.44.17-.856.151-.821.133-.789c1.25-7.857-.605-10.87-10.954-15.637l-1.046-.475-.544-.242-1.13-.495-1.187-.509-1.246-.525c-.213-.09-.428-.18-.646-.27-28.262-11.767-57.341-12.827-86.581-10.683l-2.31.176-2.309.188-2.31.2-1.155.104-2.31.216-2.311.225-2.311.234-2.312.243-3.467.376-2.312.259-4.622.532zm911.75 214.308l-2.255-4.279-28.901 16.493 2.178 4.746 28.979-16.96zM1370.96 878.921l-76.732 110.573c9.769 5.528 16.591 3.18 21.401-2.454l.357-.429c.06-.072.118-.145.176-.219l.346-.446a13.5 13.5 0 00.17-.228l.335-.463.328-.473.16-.24c18.775-28.331 37.252-56.882 55.067-85.81 1.583-2.58 2.13-5.799 2.436-9.166l.081-.965.107-1.458.072-1.056c.132-1.936.275-3.866.571-5.7a695.64 695.64 0 00-4.875-1.466zm-6.78 49.076l-2.368 3.491-7.114 10.465c-8.694 12.789-17.351 25.595-25.605 38.66-.216.342-.016 1.15.439 2.144l.195.406c.242.485.536 1.001.863 1.521l.289.447c.098.148.2.296.303.443l.315.438c.054.072.107.144.162.215l.329.421.336.405c1.07 1.252 2.204 2.2 3.07 2.272 24.639 2.1 31.43-3.375 32.903-26.426l.085-1.448.037-.741c.337-6.989 1.011-13.977 1.115-20.966.023-2.108-.299-4.217-.664-6.325l-.246-1.405-.24-1.406a55.107 55.107 0 01-.211-1.405l-2.659-.798c-.445-.134-.89-.27-1.335-.408zm-303.952-108.694c-12.512 3.54-25.024 7.092-37.536 10.645l1.322 5.095 37.653-10.23c-.48-1.841-.96-3.682-1.44-5.51zm1296.528-51.922c-10.1 15.105-10.878 37.445 0 49.296v-49.296zm654.479 4.222l-1.154 1.068 38.794-9.297c-10.773-9.722-17.938-9.062-33.816 4.795l-1.06.933-1.085.971-1.112 1.01-.567.52zm749.372-41.219l-11.16 3.208 1.428 1.242a394.94 394.94 0 019.732-4.45zM3649.74 1745.924c19.09 0 28.393 9.787 28.577 30.365l.003.627v48.553c0 7.576-.688 12.741-2.755 17.562-3.443 8.953-12.052 14.118-24.793 14.118-8.076 0-13.522-1.973-18.908-6.562l-.375-.325v43.388h-21.694v-146.004h20.316v6.887c5.165-6.199 11.02-8.609 19.628-8.609zm-80.234 0c19.09 0 28.394 9.787 28.578 30.365l.003.627v48.553c0 7.576-.69 12.741-2.755 17.562-3.444 8.953-12.052 14.118-24.793 14.118-8.077 0-13.523-1.973-18.908-6.562l-.376-.325v43.388h-21.694v-146.004h20.317v6.887c5.165-6.199 11.019-8.609 19.628-8.609zm-1050.489 10.954c7.578 0 14.258 1.895 20.04 5.684 5.78 3.789 10.292 9.16 13.534 16.113 3.243 6.953 4.864 15.156 4.864 24.61 0 9.53-1.621 17.783-4.864 24.755-3.242 6.973-7.734 12.364-13.476 16.172-5.742 3.809-12.363 5.713-19.863 5.713-5.782 0-10.41-.967-13.887-2.9-3.477-1.934-6.153-4.141-8.028-6.621l-.683-.911-.642-.871-.603-.832a97.4 97.4 0 01-.286-.401l-.542-.773-.501-.733c-.08-.119-.16-.236-.236-.352l-.441-.674c-.07-.11-.14-.217-.206-.323l-.196-.312h-1.171v47.578H2478v-123.75h13.36v14.297h1.64l.196-.298.418-.627.456-.669.493-.71.531-.75.569-.792.923-1.265.663-.895c1.816-2.441 4.433-4.629 7.851-6.562 3.418-1.934 8.057-2.9 13.916-2.9zm783.375 1.172l24.844 71.719h.937l24.844-71.719 15.117.234-38.32 102.891-.248.648c-1.674 4.282-3.72 7.865-6.139 10.748-2.539 3.028-5.478 5.284-8.818 6.768s-7.1 2.227-11.28 2.227c-2.343 0-4.433-.186-6.269-.557l-.338-.07-.635-.138-.298-.068-.555-.137c-.794-.205-1.409-.407-1.844-.605l-.139-.066 3.516-12.188.518.13c4.81 1.156 8.836 1.084 12.08-.217 3.281-1.317 6.134-5.195 8.558-11.636l.172-.464 2.578-7.031-33.28-90.469h15zm455.818-12.126c22.5 0 32.512 9.112 32.71 29.342l.003.617v70.591c0 1.181.05 2.262.15 3.376l.084.844c.031.284.066.573.103.868l.122.907.068.47.15.987.26 1.611.096.58h-21.35l-.344-6.888c-4.132 5.854-10.33 8.609-20.317 8.609-17.727 0-27.017-8.1-27.2-23.966l-.004-.483v-13.085c0-12.493 4.172-19.026 15.287-23.48l.847-.33c.287-.11.578-.217.873-.323l.9-.316 28.236-9.298v-9.986c0-8.609-3.787-12.396-11.363-12.396-7.794 0-11.92 3.668-12.05 11.662l-.002.39v7.576h-20.661v-7.92c0-19.973 11.019-29.959 33.402-29.959zm-241.39-41.666v151.17h-18.94v-.345h-1.721v-51.308l-27.204 8.953-.904.355-1.667.64-.77.305-.491.204-.24.104-.469.214c-2.46 1.159-4.317 2.715-6.292 6.746l-.186.385-10.675 33.746h-23.416l52.342-151.17h40.633zm328.855 41.666c7.231 0 14.462 2.41 18.939 6.543 2.066 1.721 3.788 4.132 4.82 6.887l.239.528.22.51.2.499c.065.164.126.327.185.488l.168.482c.133.399.251.795.356 1.196l.118.485.107.492.096.505.086.519.077.537.068.559.061.583.08.93.046.66.063 1.059.093 1.978.148 3.83v80.233h-22.038v-79.2c0-8.953-4.132-13.085-11.708-13.085-7.457 0-11.578 4.004-11.705 12.669l-.003.416v79.2h-22.038v-107.781h20.66v7.575c6.199-6.542 12.397-9.297 20.662-9.297zm-133.608 1.722v107.781h-22.039v-107.781h22.039zm-1097.987 9.232c8.125 0 15.244 1.934 21.357 5.8 6.113 3.868 10.879 9.298 14.297 16.29 3.418 6.992 5.127 15.176 5.127 24.55 0 9.298-1.71 17.423-5.127 24.376-3.418 6.953-8.184 12.363-14.297 16.23-6.113 3.867-13.232 5.801-21.357 5.801s-15.245-1.934-21.358-5.8c-6.113-3.868-10.879-9.278-14.297-16.231-3.418-6.953-5.127-15.078-5.127-24.375 0-9.375 1.71-17.559 5.127-24.551 3.418-6.992 8.184-12.422 14.297-16.29 6.113-3.866 13.233-5.8 21.358-5.8zm224.109 0c4.688 0 9.316.781 13.887 2.344 4.57 1.562 8.73 4.092 12.48 7.588 3.75 3.496 6.738 8.115 8.965 13.857 2.155 5.557 3.267 12.358 3.336 20.403l.004.808v5.86h-65.36l.005.132c.212 5.93 1.382 11.012 3.51 15.248 2.362 4.707 5.653 8.282 9.872 10.723 4.219 2.441 9.121 3.662 14.707 3.662 3.633 0 6.924-.517 9.873-1.553 2.95-1.035 5.498-2.597 7.647-4.687 2.029-1.974 3.622-4.41 4.78-7.306l.2-.516 13.36 3.75-.181.563c-1.424 4.298-3.727 8.085-6.91 11.36-3.32 3.418-7.421 6.075-12.304 7.97-4.883 1.894-10.371 2.841-16.465 2.841-8.672 0-16.142-1.924-22.412-5.771-6.27-3.848-11.094-9.239-14.473-16.172-3.378-6.934-5.068-15.01-5.068-24.229s1.69-17.353 5.068-24.404c3.38-7.05 8.106-12.559 14.18-16.524 6.074-3.964 13.174-5.947 21.299-5.947zm152.625 0c4.688 0 9.316.781 13.887 2.344 4.57 1.562 8.73 4.092 12.48 7.588 3.75 3.496 6.738 8.115 8.965 13.857 2.155 5.557 3.267 12.358 3.336 20.403l.004.808v5.86h-65.36l.005.132c.212 5.93 1.382 11.012 3.51 15.248 2.362 4.707 5.653 8.282 9.872 10.723 4.219 2.441 9.121 3.662 14.707 3.662 3.633 0 6.924-.517 9.873-1.553 2.95-1.035 5.498-2.597 7.647-4.687 2.029-1.974 3.622-4.41 4.78-7.306l.2-.516 13.36 3.75-.181.563c-1.424 4.298-3.727 8.085-6.91 11.36-3.32 3.418-7.421 6.075-12.304 7.97-4.883 1.894-10.371 2.841-16.465 2.841-8.672 0-16.142-1.924-22.412-5.771-6.27-3.848-11.094-9.239-14.473-16.172-3.378-6.934-5.068-15.01-5.068-24.229s1.69-17.353 5.068-24.404c3.38-7.05 8.106-12.559 14.18-16.524 6.074-3.964 13.174-5.947 21.299-5.947zm133.969-28.828v120h-13.36v-13.828h-1.64l-.196.312-.42.655-.227.342-.481.714-.256.371-.542.773-.582.812-.623.852-.663.89c-.113.152-.229.305-.346.46-1.875 2.481-4.551 4.688-8.028 6.622-3.476 1.933-8.105 2.9-13.886 2.9-7.5 0-14.121-1.904-19.864-5.713-5.742-3.808-10.234-9.2-13.476-16.172-3.242-6.972-4.863-15.224-4.863-24.756 0-9.453 1.62-17.656 4.863-24.609 3.242-6.953 7.754-12.324 13.535-16.113 5.781-3.79 12.461-5.684 20.04-5.684 5.858 0 10.497.967 13.915 2.9 3.418 1.934 6.035 4.122 7.852 6.563l.662.895.923 1.265.839 1.173.512.73.698 1.018.419.627.195.298h1.172v-44.297h13.828zm87.234 0v44.297h1.172l.4-.607.437-.647.474-.69.513-.73.55-.77.587-.813.625-.854.662-.895c1.816-2.441 4.434-4.629 7.852-6.562 3.418-1.934 8.056-2.9 13.916-2.9 7.578 0 14.257 1.894 20.039 5.683 5.78 3.789 10.293 9.16 13.535 16.113 3.242 6.953 4.863 15.156 4.863 24.61 0 9.53-1.621 17.783-4.863 24.755-3.242 6.973-7.735 12.364-13.477 16.172-5.742 3.809-12.363 5.713-19.863 5.713-5.781 0-10.41-.967-13.887-2.9-3.476-1.934-6.152-4.141-8.027-6.621l-.683-.911-.643-.871-.602-.832a97.4 97.4 0 01-.286-.401l-.542-.773-.256-.371-.482-.714-.225-.342-.422-.655-.195-.312h-1.64v13.828h-13.36v-120h13.828zm-532.64 30l19.453 68.906h.937l19.219-68.906h14.765l18.985 68.672h.937l19.454-68.672h14.53l-27.421 90h-13.594l-19.687-69.14h-1.407l-19.687 69.14h-13.594l-27.422-90h14.532zm255.28-1.406l1.341.01.762.01 2.08.049 1.026.035.607.028.545.03.484.035.421.037v14.063l-.203-.048-.26-.053-.687-.126-1.172-.194-.871-.136a34.681 34.681 0 00-5.244-.38c-4.375 0-8.272.907-11.69 2.724-3.418 1.816-6.113 4.316-8.086 7.5-1.89 3.05-2.875 6.505-2.953 10.363l-.006.506v56.953h-13.828v-90h13.36v13.594h.937l.169-.443c1.671-4.25 4.584-7.716 8.737-10.397 4.297-2.774 9.141-4.16 14.532-4.16zm834.572 46.787l-15.84 5.165c-6.088 2.029-8.19 5.055-8.263 12.34l-.002 8.665c0 7.92 3.788 11.708 11.364 11.708 8.482 0 12.618-4.011 12.738-13.352l.003-.422v-24.104zm-125.344-40.29c-8.137 0-12.268 4.007-12.393 12.676l-.003.41v49.93c0 8.61 4.132 13.086 12.396 13.086 8.135 0 12.267-4.338 12.394-12.685l.003-.4v-49.931c0-8.953-4.132-13.085-12.397-13.085zm-80.233 0c-8.138 0-12.269 4.007-12.394 12.676l-.003.41v49.93c0 8.61 4.132 13.086 12.397 13.086 8.135 0 12.266-4.338 12.393-12.685l.003-.4v-49.931c0-8.953-4.132-13.085-12.396-13.085zm-949.572 6.159c-6.172 0-11.25 1.602-15.235 4.805-3.984 3.203-6.933 7.402-8.847 12.597-1.914 5.196-2.872 10.801-2.872 16.817 0 6.015.958 11.601 2.872 16.758 1.914 5.156 4.863 9.316 8.847 12.48 3.985 3.164 9.063 4.746 15.235 4.746 6.171 0 11.25-1.582 15.234-4.746 3.984-3.164 6.934-7.324 8.848-12.48 1.914-5.157 2.87-10.743 2.87-16.758 0-6.016-.956-11.621-2.87-16.817-1.914-5.195-4.864-9.394-8.848-12.597-3.984-3.203-9.063-4.805-15.234-4.805zm623.484 0c-5.625 0-10.352 1.416-14.18 4.248-3.828 2.832-6.718 6.777-8.672 11.836-1.953 5.059-2.93 10.947-2.93 17.666 0 6.797.997 12.783 2.989 17.959s4.902 9.219 8.73 12.129c3.829 2.91 8.516 4.365 14.063 4.365 5.781 0 10.615-1.533 14.502-4.6 3.887-3.066 6.816-7.207 8.789-12.421 1.973-5.215 2.959-11.026 2.959-17.432 0-6.328-.967-12.041-2.9-17.139-1.934-5.097-4.844-9.14-8.73-12.129-3.888-2.988-8.76-4.482-14.62-4.482zm-152.156 0c-5.86 0-10.733 1.494-14.62 4.482-3.886 2.989-6.796 7.032-8.73 12.13-1.933 5.097-2.9 10.81-2.9 17.138 0 6.406.986 12.217 2.959 17.432 1.972 5.214 4.902 9.355 8.789 12.422 3.887 3.066 8.72 4.6 14.502 4.6 5.547 0 10.234-1.456 14.062-4.366 3.828-2.91 6.739-6.953 8.73-12.129 1.993-5.176 2.989-11.162 2.989-17.959 0-6.719-.977-12.607-2.93-17.666-1.953-5.059-4.843-9.004-8.672-11.836-3.828-2.832-8.554-4.248-14.18-4.248zm-568.032 0c-5.625 0-10.351 1.416-14.18 4.248-3.827 2.832-6.718 6.777-8.671 11.836-1.953 5.059-2.93 10.947-2.93 17.666 0 6.797.996 12.783 2.989 17.959 1.992 5.176 4.902 9.219 8.73 12.129 3.828 2.91 8.516 4.365 14.063 4.365 5.78 0 10.615-1.533 14.501-4.6 3.887-3.066 6.817-7.207 8.79-12.421 1.972-5.215 2.958-11.026 2.958-17.432 0-6.328-.966-12.041-2.9-17.139-1.933-5.097-4.844-9.14-8.73-12.129-3.887-2.988-8.76-4.482-14.62-4.482zm473.438 0c-5.508 0-10.264 1.357-14.268 4.072-4.003 2.715-7.08 6.24-9.228 10.576a30.687 30.687 0 00-3.08 10.854l-.053.637-.023.346h51.261l-.004-.607c-.078-4.833-1.082-9.162-3.013-12.987-2.012-3.985-4.863-7.13-8.555-9.434-3.691-2.305-8.037-3.457-13.037-3.457zm-152.625 0c-5.508 0-10.264 1.357-14.268 4.072-4.003 2.715-7.08 6.24-9.228 10.576a30.687 30.687 0 00-3.08 10.854l-.053.637-.023.346h51.261l-.004-.607c-.078-4.833-1.082-9.162-3.013-12.987-2.012-3.985-4.863-7.13-8.555-9.434-3.691-2.305-8.037-3.457-13.037-3.457zm657.626-41.282h-8.61l-21.005 66.46 29.615-9.642v-56.818zm205.577-21.006l15.151 15.152v1.377l-15.151 15.152h-1.033l-14.807-15.152v-1.377l14.807-15.152h1.033z" fill="#FFF"/></svg>