<svg width="4940" height="2390" viewBox="0 0 4940 2390" xmlns="http://www.w3.org/2000/svg" class="logo"><path class="logo-back" d="M2636.21 4v1.95c484.38 17.94 795.82 155.59 795.82 155.59l2.407-.717c51.407-15.232 911.25-265.619 1114.193-33.983 156 178.09-48.44 626.62-121 821.21l7.235-1.395c75.127-14.542 86.224-18.419 184.66-18.6l3.105-.005v.17c2.17-.05 4.33-.17 6.51-.17 169.3 0 306.47 137.23 306.47 306.53 0 169.3-137.24 306.55-306.54 306.55a306.41 306.41 0 01-80.742-10.84l-1.488-.41 19.34-104 16.86-90.87 8.43-45.45.633-3.519c2.597-14.283 5.198-26.356 9.647-37.761 4.81-12.33 11.43-23.4 20-32.16a71.07 71.07 0 0131.42-18.04c12.1-3.44 25.66-3.9 39.29-2.21a55.27 55.27 0 0131.316 14.998l.464.452c17.94 17.32 26.15 46.72 18.23 71.44-3.7 12.44-11.53 23.41-22 31.8a82.8 82.8 0 01-17.55 10.53 94.908 94.908 0 01-9.79 3.88c-3.34 1.022-9.316 4.814-8.813 9.925l.033.275.94 4.51c2.67 6.43 9.61 5.69 13.61 4.43a116.91 116.91 0 0010.688-3.438l1.312-.502a104.38 104.38 0 0022.73-11.91c14.26-9.99 26.11-24.48 32.26-41.35 12.66-33.75 4.78-73.15-19.8-100.5a87.11 87.11 0 00-48.51-27.08c-16.48-2.974-34.018-3.665-51.604.007l-.996.213a108.29 108.29 0 00-49.24 24.87c-13.83 12.51-23.91 27.94-31.3 44-7.226 15.703-11.201 32.487-14.543 46.611l-.227.959-10.89 45-21.77 90.05-20.65 95.95c-.173-.08-.342-.173-.513-.265l-.257-.135-68.5 314c-42.134 174.913-123.032 276.417-273.868 278.43l-4.592.03h-120.91a89.18 89.18 0 01-89.167-88.446l-.003-.724v-30.34h-2936.9v12.58c.005 58.456-46.901 105.971-105.132 106.93H791.6c-152.242 0-234.24-99.745-277.161-273.172l-1.289-5.278-68.45-313.79-.3.15-20.65-95.95-21.87-90.09-10.89-45-.944-3.975c-3.214-13.471-7.19-29.05-13.826-43.595-7.3-16-17.47-31.47-31.3-44a108.24 108.24 0 00-49.24-24.87c-17.92-3.91-35.8-3.22-52.6-.22a87.08 87.08 0 00-48.5 27.08c-24.344 27.077-32.31 65.963-20.184 99.486l.374 1.014c6.16 16.87 18.02 31.35 32.26 41.35a104.45 104.45 0 0022.74 11.91 115.93 115.93 0 0012 3.94l.38.116c3.947 1.164 10.43 1.657 13.102-4.25l.128-.296.94-4.51c.76-5.2-5.38-9.2-8.78-10.2a94.91 94.91 0 01-8.724-3.395l-1.066-.485a83 83 0 01-17.54-10.54c-10.46-8.39-18.29-19.36-22-31.8-7.83-24.473.128-53.532 17.695-70.917l.535-.523a55.3 55.3 0 0131.78-15.45c13.327-1.652 26.597-1.25 38.482 1.985l.808.225a71.16 71.16 0 0131.46 18.11c8.56 8.76 15.04 19.88 19.94 32.16 4.661 11.681 7.214 24.158 9.87 38.98l.41 2.3 8.44 45.45 16.86 90.87 19.33 104a306.41 306.41 0 01-82.23 11.25C142.3 1541.12 5 1403.88 5 1234.59c0-169.29 137.25-306.54 306.54-306.54 1.5 0 3 .084 4.5.127l1.5.023v-.15l8.907.006c93.622.017 111.834-1.146 189.793 13.404-70.49-225.4-283.63-620.03-124.73-814.62 204.43-242.91 1116.6 34.7 1116.6 34.7l.836-.364C1526.74 153.48 1827.32 26.22 2288.399 6.579L2302.86 6l.09-2h333.26zm2107.55 4.12c51.27 0 93.51 40.94 93.51 100s-42.22 99.3-93.52 99.3-93.48-40.3-93.48-99.3 42.22-100 93.49-100zm0 18.39c-41.74 0-73.73 33.8-73.73 81.61s32 81 73.73 81c41.73 0 73.74-33.23 73.74-81 0-47.81-32-81.61-73.74-81.61zm1.83 28.85c20.73 0 38.88 8.58 38.88 32.74 0 12.4-7.48 23.79-18.78 27.95l23 41.9h-22.76l-17.69-35.36h-20.1v35.33h-20.5l.03-102.56h37.92zm-3.45 17.06h-14v33.87h12.75c13.35 0 21.72-5.62 21.72-16.8 0-10.09-5.6-17.07-20.47-17.07z" fill="#FF5E9E"/><path class="logo-front" d="M1113.248 1439.27c20.256 0 38.965 3.235 56.126 9.706 16.753 6.317 31.495 14.108 44.226 23.373l.928.681-21.522 38.824-.318-.345c-2.8-2.995-6.773-6.186-11.92-9.572-5.345-3.517-11.605-6.822-18.78-9.917-7.173-3.095-15.05-5.627-23.631-7.596-8.58-1.97-17.372-2.954-26.375-2.954-19.975 0-34.674 3.657-44.1 10.972-9.424 7.315-14.136 17.443-14.136 30.384 0 7.315 1.477 13.293 4.43 17.935 2.955 4.642 7.527 8.721 13.716 12.238 6.19 3.517 13.926 6.611 23.21 9.284l2.93.836c8.611 2.436 18.466 5.04 29.564 7.815 15.192 3.657 28.907 7.737 41.145 12.238 12.238 4.501 22.577 9.987 31.017 16.458 8.44 6.47 14.98 14.418 19.623 23.843 4.642 9.425 6.963 20.889 6.963 34.393 0 15.192-2.884 28.274-8.651 39.246-5.767 10.972-13.645 19.904-23.632 26.797-9.987 6.893-21.592 11.957-34.815 15.192-13.223 3.235-27.43 4.853-42.622 4.853-22.788 0-44.802-3.446-66.043-10.339-20.84-6.763-39.716-16.572-56.63-29.428l-.973-.745 21.522-40.512.371.367c3.64 3.563 8.791 7.52 15.454 11.871 6.893 4.501 14.91 8.651 24.054 12.449 9.143 3.798 19.06 7.033 29.75 9.706 10.692 2.673 21.804 4.009 33.339 4.009 18.568 0 32.916-3.235 43.044-9.706 10.128-6.47 15.192-16.036 15.192-28.696 0-7.596-1.9-13.926-5.697-18.99-3.798-5.064-9.214-9.495-16.247-13.293-6.799-3.671-15.044-7.014-24.734-10.028l-1.008-.311c-10.128-3.095-21.663-6.33-34.604-9.706-14.91-3.939-27.922-8.088-39.035-12.449-11.113-4.36-20.326-9.636-27.641-15.825-7.315-6.19-12.871-13.434-16.67-21.733-3.797-8.3-5.696-18.357-5.696-30.173 0-14.63 2.813-27.641 8.44-39.035 5.627-11.394 13.293-20.96 22.999-28.696 9.706-7.737 21.17-13.574 34.393-17.513 13.223-3.939 27.57-5.908 43.044-5.908zm2334.285 0c21.381 0 40.864 4.431 58.447 13.293 17.583 8.862 32.635 20.467 45.154 34.815 12.52 14.348 22.225 30.595 29.118 48.741 6.893 18.146 10.34 36.644 10.34 55.493 0 19.975-3.588 39.105-10.762 57.392-7.174 18.287-17.232 34.393-30.173 48.319-12.941 13.926-28.204 25.039-45.787 33.338-17.583 8.3-36.644 12.449-57.18 12.449-21.382 0-40.865-4.29-58.448-12.871-17.583-8.58-32.705-19.975-45.365-34.182-12.66-14.207-22.436-30.454-29.329-48.741-6.893-18.287-10.339-36.995-10.339-56.126 0-19.975 3.657-39.105 10.972-57.392 7.315-18.287 17.372-34.463 30.173-48.53 12.8-14.067 27.993-25.25 45.576-33.549 17.583-8.3 36.784-12.449 57.603-12.449zm-2038.823 0c21.382 0 40.864 4.431 58.447 13.293 17.584 8.862 32.635 20.467 45.154 34.815 12.52 14.348 22.226 30.595 29.118 48.741 6.893 18.146 10.34 36.644 10.34 55.493 0 19.975-3.588 39.105-10.762 57.392-7.174 18.287-17.231 34.393-30.173 48.319-12.94 13.926-28.203 25.039-45.787 33.338-17.583 8.3-36.643 12.449-57.18 12.449-21.382 0-40.864-4.29-58.448-12.871-17.583-8.58-32.705-19.975-45.365-34.182-12.66-14.207-22.436-30.454-29.329-48.741-6.892-18.287-10.339-36.995-10.339-56.126 0-19.975 3.658-39.105 10.972-57.392 7.315-18.287 17.373-34.463 30.173-48.53 12.801-14.067 27.993-25.25 45.576-33.549 17.584-8.3 36.785-12.449 57.603-12.449zm2277.738 2.11l171.332 216.064v-215.642h47.686V1741h-39.246l-169.644-211v211h-47.264v-299.62h37.136zm-441.537 0V1741h-47.264v-299.62h47.264zm-97.123 0v41.778h-99.592V1741h-47.686v-257.842h-100.014v-41.778h247.292zm-297.15 0V1741h-47.264v-299.62h47.264zm-252.841 0l1.187.003c23.701.127 44.475 4.065 62.324 11.813 18.146 7.877 33.338 18.568 45.576 32.072 12.238 13.504 21.452 29.329 27.641 47.475 6.19 18.146 9.284 37.488 9.284 58.025 0 22.788-3.446 43.396-10.339 61.823-6.893 18.427-16.669 34.182-29.329 47.264s-27.993 23.21-45.998 30.384c-17.684 7.046-37.403 10.632-59.157 10.758l-1.189.003h-106.344v-299.62h106.344zm-168.863 0v41.778h-154.452v85.244h133.774v39.246h-133.774v91.574h158.25V1741h-205.514v-299.62h201.716zm-467.7 0l118.16 299.62h-49.797l-31.65-81.446H1882.32L1851.091 1741h-50.218l119.004-299.62h41.356zm-151.14 0v41.778h-152.341v89.464h127.444v39.246h-127.444V1741h-47.264v-299.62h199.606zm1637.017 40.934c-15.192 0-28.696 3.165-40.512 9.495-11.816 6.33-21.803 14.559-29.962 24.687-8.159 10.128-14.418 21.733-18.779 34.815-4.36 13.082-6.54 26.375-6.54 39.879 0 14.067 2.25 27.711 6.751 40.934 4.501 13.223 10.902 24.898 19.201 35.026 8.3 10.128 18.357 18.216 30.173 24.265 11.816 6.049 25.039 9.073 39.668 9.073 15.192 0 28.626-3.165 40.301-9.495 11.675-6.33 21.592-14.7 29.751-25.109 8.159-10.41 14.348-22.085 18.568-35.026 4.22-12.941 6.33-26.164 6.33-39.668 0-14.348-2.25-28.063-6.752-41.145-4.501-13.082-10.902-24.617-19.2-34.604-8.3-9.987-18.288-18.005-29.963-24.054-11.675-6.049-24.687-9.073-39.035-9.073zm-2038.823 0c-15.192 0-28.696 3.165-40.512 9.495-11.816 6.33-21.803 14.559-29.962 24.687-8.158 10.128-14.418 21.733-18.779 34.815-4.36 13.082-6.54 26.375-6.54 39.879 0 14.067 2.25 27.711 6.751 40.934 4.502 13.223 10.902 24.898 19.201 35.026 8.3 10.128 18.357 18.216 30.173 24.265 11.816 6.049 25.04 9.073 39.668 9.073 15.192 0 28.626-3.165 40.301-9.495 11.676-6.33 21.593-14.7 29.751-25.109 8.16-10.41 14.348-22.085 18.568-35.026 4.22-12.941 6.33-26.164 6.33-39.668 0-14.348-2.25-28.063-6.752-41.145-4.5-13.082-10.901-24.617-19.2-34.604-8.3-9.987-18.287-18.005-29.963-24.054-11.675-6.049-24.687-9.073-39.035-9.073zm1189.509.844h-59.08v216.064h59.08c15.755 0 29.751-2.743 41.989-8.229 12.238-5.486 22.507-13.082 30.806-22.788 8.3-9.706 14.559-21.17 18.779-34.393 4.22-13.223 6.33-27.57 6.33-43.044 0-15.755-2.18-30.243-6.541-43.466-4.36-13.223-10.761-24.546-19.201-33.971-8.44-9.425-18.709-16.81-30.806-22.155-11.84-5.232-25.297-7.903-40.37-8.014l-.986-.004zm-657.242 12.66l-49.796 128.71h97.904l-48.108-128.71zm48.108-141.37l-37.98 55.704-30.384-9.284 24.054-46.42h44.31zM1016 1038c7.258 2.39 14.585 4.597 21.993 6.717 7.408 2.12 14.735 4.196 22.133 6.185a1709.115 1709.115 0 0044.586 11.34c29.81 7.24 59.841 13.748 89.972 19.924 30.13 6.176 60.321 11.828 90.632 17.088 27.784 4.822 55.61 9.41 83.495 13.675l7.606 1.155c121.712 18.519 244.284 32.127 367.165 42.647 122.882 10.52 246.133 17.691 369.514 22.375 120.047 4.558 240.245 6.795 360.447 7.09l10.017.02c30.89.096 61.74-.061 92.601-.314 15.435-.105 30.86-.35 46.286-.515l46.285-.802a8112.836 8112.836 0 00185.032-5.775 7534.922 7534.922 0 00369.214-24.765c122.782-11.436 245.254-25.97 367.015-44.654a4838.418 4838.418 0 0082.075-13.268l9.107-1.562c30.34-5.181 60.61-10.747 90.841-16.574 30.23-5.827 60.292-11.802 90.282-18.476a2311.849 2311.849 0 0044.986-10.25 1155.706 1155.706 0 0022.393-5.46c7.478-1.85 14.915-3.786 22.323-5.784-14.236 5.418-28.721 10.337-43.256 15.144-14.536 4.806-29.181 9.342-43.857 13.817a2550.237 2550.237 0 01-88.782 25.027 3362.707 3362.707 0 01-180.303 42.247 4177.973 4177.973 0 01-176.19 32.657l-6.563 1.067a4706.648 4706.648 0 01-177.264 25.54l-7.118.882a5487.365 5487.365 0 01-365.086 33.051l-6.668.376a6090.535 6090.535 0 01-186.681 7.851c-15.565.41-31.13.742-46.706 1.073-15.575.332-31.14.576-46.715.76-31.13.354-62.27.517-93.42.488a7472.26 7472.26 0 01-373.304-9.788c-124.31-6.542-248.442-16.574-371.943-30.967a4783.665 4783.665 0 01-184.662-25.149 3895.96 3895.96 0 01-183.013-33.052c-60.621-12.518-120.812-26.658-180.214-42.962-14.845-4.109-29.65-8.278-44.376-12.692-14.725-4.414-29.39-8.95-43.986-13.687-14.595-4.737-29.07-9.691-43.416-14.934-14.346-5.243-28.611-10.651-42.477-16.766zm1290.53-568.3l.709 1.124 1.138 1.886c1.17 1.968 2.803 4.77 5.733 9.68v-54h138.14c.29 6.24.85 13.31.9 20.38.89 108.67 1.9 217.34 2.37 326 .08 18.53-.73 37.36-3.6 55.57-11.44 72.39-44 128.38-107.87 153.4-66.89 26.19-132.49 23.68-191.17-27.32-24.25-21.08-42-47.92-46.68-83-.87-6.53 2.12-13.7 3.33-20.58 5.73 2.6 13 3.54 17 8.08 27.29 31.1 58.85 50.22 98.9 49.94 47-.33 83.74-33.75 89.75-85.82 2.51-22.24.37-45.25.37-72.42l-11.783 17.225-1.619 2.346-1.598 2.299c-49.32 70.42-133.77 70.77-183.6.76-56.1-78.83-58.09-225.12-4.16-306.55 52-78.54 142.54-78.06 193.74 1zm-552.19-53.51c41.21 13.38 69.21 52.52 70.49 102.31 1.29 50.57.34 101.21.76 151.81.09 10.33.74 21 3.19 30.87 5.93 23.92 23.46 28.78 39.09 10.78 18.196-20.998 22.181-47.935 22.375-75.64l.005-.84c.222-54.249.128-108.521.105-162.755l-.005-20.335v-25h143c0 8.03.16 15.8 0 23.57-1.48 70.65-3.77 141.32-4.1 212-.1 22 3.24 44.59 8.55 65.81 2.914 11.645 11.109 24.172 20.168 30.952l.432.318c15.92 11.54 10.2 20.87 1.85 32.16-45.4 61.31-134 46.67-161.4-26.69l-1.416-3.766-1.719-4.612-3.125-8.432c-13.41 17.27-24.88 35.97-39.74 50.27-30.08 28.96-65.46 41.26-103.78 23.86-38.32-17.4-56.39-53.44-60.39-97.59-2.582-28.642-1.48-57.699-1.76-86.584l-.03-2.626c-.26-20.09.08-40.2-.54-60.27l-.127-3.834-.137-3.713c-1.568-39.964-6.493-78.182-45.926-96.153 14.34-46.16 67.18-71.16 114.18-55.87zm1691.21-3.801c108.81-.579 192.79 90.321 192.92 208.811.13 120-81.5 209.32-191.57 209.552-109.43.228-193.07-89.892-193.332-208.302-.258-118.41 82.842-209.45 191.982-210.061zm-768.57.09c109.08.141 192.19 90.751 192.18 209.591-.01 119.53-82.23 208.69-192.42 208.64-109.43 0-192.32-90.16-192.37-209.15 0-118.5 83.53-209.22 192.61-209.08zM1112 471.64c1 1.66 2.81 2.73 7.19 6.99v-50.41h142.69c0 10.73.12 20.9 0 31.06-1.023 69.75-2.834 139.5-2.937 209.249l-.003 9.511c0 33.77 4 67.11 33.72 88.27 2.62 1.87.35 19.18-4.05 25.47-42.15 60.34-131.64 47.75-159.63-21.89-2.71-6.74-4.59-13.89-7.94-24.17l-1.693 2.81-1.848 3.086c-3.612 6.044-6.762 11.37-10.069 16.574-53.32 84-147.14 82.82-194.16-5.56C865 672 863.81 576.44 909 484c47.48-97.11 157.5-96.29 203-12.36zm2078.99-29.03c34.33 21.96 47 62.34 36.08 99.34-13.97 47.37-68.8 70.04-105.41 42.8-4.129-3.06-5.94-11.709-6.838-18.238l-.052-.382c-1.77-13.13.79-27.92-3.88-39.33-4.67-11.41-15.19-25.92-24.5-27.26-10.7-1.53-26.56 6.55-33.7 16.36-21.28 29.27-23.27 65.62-21 101.83 5.13 81.61 53.7 123.74 125.54 107.23 21.85-5.02 42.5-16.46 63.79-24.66 5.81-2.25 12-3.44 18-5.11 2.16 6.95.95 15.99-1.54 22.59-34.07 90.34-131.29 134.52-218.41 99.77-75.67-30.19-124.64-108.21-124.55-216.72 2.13-63.44 33.13-126.82 98.29-165.33 66.53-39.31 133.85-34.05 198.18 7.11zM707.115 244.981l1.275.069c73.195 3.915 146.355 8.495 219.563 11.988l13.727.642c12.74.58 17.09 5.31 19.18 18.74 12.2 78.42-21.1 123.92-92.25 124.92-17.77.24-35.55.04-53.14.04-.78 1.74-1.78 3.06-1.78 4.35 2.06 94.47 3.55 188.97 6.73 283.4.93 27.849 9.379 53.61 33.359 68.677l.731.453c11.72 7.17 6.61 16.86.8 24.06-30.41 37.71-68.01 53.46-113.09 43.18-38.99-8.9-66.18-40.81-73.34-86.69a298.51 298.51 0 01-3.38-48.84c1-91.56 2.63-183.12 4-274.67l.028-3.005.016-4.461-.042-19.17-.002-3.144c-33.465 2.8-65.895 4.463-98.046 8.39l-3.444.43c-29.5 3.76-29.83 4.65-34.07-27.91-5.88-45.19 12.28-83.48 49.2-105.08 39.56-23.156 81.885-18.664 123.975-16.369zM3976.57 416.54c43.35 19.38 60.52 60.86 62.06 110.38 1.37 43.88-.77 87.88.23 131.79l.093 3.939.066 2.547.07 2.494c1.223 40.721 5.684 80.42 46.031 99.62-9.64 35.69-50.33 63.03-88 60.76-54.22-3.27-93.82-46.65-95.66-107.57-1.423-47.212-.507-94.506-.719-141.769l-.031-5.671c-.06-9.62.77-20.23-2.46-28.62l-.477-1.216-.337-.838-.349-.849c-3.955-9.526-10.007-20.696-16.937-22.707-7.91-2.29-20.74 4.5-27.5 11.84-17.7 19.2-22.13 45.24-22.26 71.88-.27 54.954-.16 109.916-.134 164.879l.004 18.321v25.71h-143.4c0-8.66-.21-17.25 0-25.83 1.57-64 3.38-128 4.74-192 .32-14.86-.49-29.77-1.26-44.63-1.75-33.56-10.71-62.92-40.33-79.84 14.95-38.64 49.86-61.9 88.65-59.77 48.09 2.64 76.18 33.21 89.66 86l.911-1.434.945-1.503.95-1.522c2.943-4.738 5.335-8.712 7.992-12.382l.372-.509c7.6-10.34 14.55-21.57 23.42-30.34 32.85-32.49 70.31-50.54 113.66-31.16zm-2377.13 6.95c29.93 21.74 40.61 70.45 25.06 114.28-13.97 39.38-52.49 63.95-88.18 56.23l-1.332-.295c-21.405-4.87-25.699-12.024-26.228-36.965-.28-13.77 5.39-34.83-12.78-36.83-18.4-2.05-19.61 19.08-21.16 34.08-2.11 20.62-2.82 41.5-2.93 62.28-.338 62.408-.144 124.816-.13 189.383v6.687h-143.45c0-8.44-.18-16.28 0-24.11 1.41-63.97 3.12-127.9 4.41-191.9.31-15.6.13-31.28-.94-46.83-2.23-33.12-9.92-63.33-41-79.6 15.8-38.97 43.92-55.04 77.61-59.5 44.67-5.91 73.51 17.15 100.14 76.15 10.3-15.69 19.38-32.81 31.3-46.91 28.61-33.9 67.61-39.43 99.61-16.15zM4339.03 254.1c15.04 6.52 29.64 17.42 41.23 30 18.83 20.43 22.6 46.95 12.6 74.19-10.42 28.5-31.87 40.44-58.65 41.44a60.94 60.94 0 01-14.3-1.41l-3.054-.62c-31.914-6.433-31.672-5.57-28.326-39.52a127.19 127.19 0 00-.49-31.08c-2.21-14.66-10.8-26.66-24.31-23.44-9.98 2.38-23.78 11.35-26.42 20.72-9.56 33.86 3.02 65.7 14.75 96.49 1.37 3.62 10.22 5.03 15.64 5.13 24.598.492 49.196.286 75.33.254l6.06-.004V498h-92.17v174.6c-.005 75.752-60.799 137.308-136.259 138.531l-2.291.019V499.6l-40.25-2v-70.18l38.34-2.33c1.36-16.88 2.32-33 4-49 6.97-66.44 42.67-112.06 100.83-128.35 39.74-11.14 79.53-10.1 117.74 6.36zM3446 499.38l.02.02c-32.74 0-59.28 54.73-59.28 122.25 0 67.52 26.54 122.25 59.28 122.25s59.28-54.73 59.28-122.25c0-67.52-26.54-122.27-59.3-122.27zm-767.77 0c-32.74 0-59.28 54.73-59.28 122.25 0 67.52 26.54 122.25 59.28 122.25s59.27-54.73 59.27-122.25c0-67.52-26.5-122.25-59.27-122.25zm-1608.67 17.25c-29.33 0-53.11 47-53.11 105s23.78 105 53.11 105 53.11-47 53.11-105-23.78-104.97-53.11-104.97v-.03zm1195.38-.01c-30.62 0-55.44 47-55.44 105s24.82 105 55.44 105c30.62 0 55.43-47 55.43-105s-24.82-104.96-55.43-104.96v-.04z" fill="#08082B"/><path class="logo-powered" d="M2590.357 2103.954c11.448 0 20.544 5.088 25.264 10.728h.736v-7.824h20v86.192c0 35.456-20.904 50-45.64 50-22.341 0-36.137-14.414-41.87-26.828l-.347-.773a41.583 41.583 0 01-.327-.767l18.368-7.632c.118.283.243.567.373.853l.27.573.286.576.302.578c.363.675.76 1.353 1.19 2.026l.377.575c4.175 6.22 11.272 11.907 21.378 11.907 15.824 0 25.64-9.816 25.64-28.184v-6.912h-.736c-4.72 5.824-13.816 10.912-25.264 10.912-24 0-46-20.904-46-47.816 0-27.096 22-48.184 46-48.184zm1014.232 0c11.896 0 21.952 4.664 30.168 13.984 8.472 9.44 12.704 20.784 12.704 34.04 0 13.134-4.09 24.327-12.277 33.564l-.427.476c-8.216 9.32-18.272 13.984-30.168 13.984-6.632 0-12.664-1.416-18.128-4.24-5.464-2.816-9.656-6.56-12.6-11.224h-.736l.736 12.512v39.744h-16.936v-129.896h16.2v12.504h.736c2.944-4.656 7.136-8.392 12.6-11.224 5.464-2.824 11.496-4.224 18.128-4.224zm-2340.32.924c7.578 0 14.258 1.895 20.039 5.684 5.781 3.789 10.293 9.16 13.535 16.113 3.242 6.953 4.863 15.156 4.863 24.61 0 9.53-1.62 17.783-4.863 24.755-3.242 6.973-7.734 12.364-13.476 16.172-5.743 3.809-12.364 5.713-19.864 5.713-5.781 0-10.41-.967-13.886-2.9-3.477-1.934-6.153-4.141-8.028-6.621l-.683-.911c-.11-.148-.22-.295-.326-.44l-.623-.852-.582-.812-.542-.773-.502-.733a75.05 75.05 0 01-.461-.694l-.421-.655-.196-.312h-1.172v47.578h-13.828v-123.75h13.36v14.297h1.64l.4-.607.437-.647.475-.69.512-.73.55-.77.895-1.235.643-.874c.11-.15.223-.3.336-.453 1.817-2.441 4.434-4.629 7.852-6.562 3.418-1.934 8.056-2.9 13.916-2.9zm783.375 1.172l24.844 71.719h.937l24.844-71.719 15.117.234-38.32 102.891-.249.648c-1.674 4.282-3.72 7.865-6.138 10.748-2.539 3.028-5.478 5.284-8.818 6.768s-7.1 2.227-11.28 2.227c-2.343 0-4.433-.186-6.27-.557l-.661-.139-.311-.069-.582-.137c-.927-.228-1.632-.452-2.115-.673l-.139-.066 3.516-12.188.518.13c4.81 1.156 8.836 1.084 12.08-.217 3.28-1.317 6.133-5.195 8.558-11.636l2.75-7.495-33.281-90.469h15zm1430.537.848v55.56c.368 14.72 7.784 22.08 22.264 22.08 6.744 0 12.392-2.728 16.928-8.192 4.544-5.448 6.808-11.976 6.808-19.592v-49.856h16.928v90.152h-16.192v-12.512h-.736c-2.576 4.424-6.536 8.104-11.872 11.048-5.336 2.936-10.88 4.416-16.648 4.416-11.04 0-19.536-3.16-25.48-9.48-5.952-6.32-8.928-15.304-8.928-26.952v-56.672h16.928zm-205.128-2.944c12.52 0 22.392 3.344 29.624 10.024 7.24 6.688 10.864 15.856 10.864 27.504v55.568h-16.2v-12.512h-.736c-6.992 10.304-16.312 15.464-27.968 15.464-9.936 0-18.248-2.952-24.928-8.84-6.688-5.88-10.032-13.24-10.032-22.08 0-9.32 3.528-16.744 10.584-22.264 7.048-5.512 16.464-8.28 28.248-8.28 10.056 0 18.336 1.84 24.832 5.52v-3.864c0-5.88-2.328-10.88-6.992-14.992s-10.112-6.168-16.376-6.168c-9.44 0-16.928 3.992-22.44 11.968l-14.912-9.384c8.224-11.784 20.36-17.664 36.432-17.664zm-152.912-41.592c10.064 0 18.776 2.584 26.128 7.728 7.36 5.032 12.272 11.352 14.72 18.952l-15.824 6.632c-1.472-4.912-4.384-8.984-8.736-12.24-4.36-3.248-9.664-4.872-15.92-4.872-6.616 0-12.208 1.824-16.744 5.488-4.536 3.424-6.808 7.88-6.808 13.376 0 4.52 1.776 8.432 5.336 11.728.2.168.411.337.635.508l.463.343.243.173.51.35.542.354a35.1 35.1 0 001.18.721l.636.367c.218.123.44.246.669.37l.7.376.732.38.764.383.796.387.827.392.859.396c.145.067.293.133.441.2l.907.403.938.406.97.411 1.001.415 1.034.42 1.065.423 1.097.428 1.128.432 1.16.437 1.193.44 1.224.445 1.255.45 1.288.452 1.319.458c13.376 4.552 22.912 10.12 28.616 16.696 5.704 6.576 8.552 14.664 8.552 24.248 0 11.56-4.232 20.848-12.696 27.856-8.584 6.88-19.016 10.328-31.28 10.328-10.92 0-20.544-3.192-28.888-9.576-8.344-6.376-14.104-15.088-17.296-26.12l16.192-6.632c1.104 3.936 2.64 7.488 4.6 10.672 1.96 3.192 4.256 5.928 6.904 8.192a31.192 31.192 0 008.736 5.336c3.192 1.288 6.568 1.928 10.12 1.928 7.728 0 14.048-1.992 18.952-5.976 4.904-3.984 7.36-9.296 7.36-15.912 0-5.528-2.024-10.24-6.072-14.176-2.249-2.244-5.66-4.45-10.232-6.615l-.963-.448a97.786 97.786 0 00-5.884-2.441l-1.177-.44-1.21-.44-1.244-.437-.634-.219-3.77-1.367-1.985-.73-3.181-1.186-2.044-.777-2.2-.855-1.623-.648-1.162-.476-1.04-.439-1.13-.496-.586-.27-.353-.168-.472-.234-.142-.074c-13.984-7.12-20.976-17.608-20.976-31.472 0-9.688 3.864-17.968 11.6-24.832 7.84-6.872 17.472-10.312 28.88-10.312zm-194.488 41.592c13.376 0 24.416 4.536 33.128 13.616 8.832 9.08 13.24 20.544 13.24 34.408 0 13.758-4.267 25.078-12.816 33.965l-.424.435c-8.712 9.08-19.752 13.624-33.128 13.624-13.368 0-24.464-4.544-33.304-13.624-8.712-9.072-13.064-20.544-13.064-34.4 0-13.864 4.352-25.328 13.064-34.408 8.84-9.08 19.936-13.616 33.304-13.616zm767.744 0c7.976 0 15.184 1.896 21.624 5.704 6.44 3.8 10.944 8.888 13.528 15.272l-15.096 6.248c-1.72-3.8-4.512-6.776-8.368-8.92-3.864-2.144-8.184-3.224-12.976-3.224-4.416 0-8.368 1.104-11.864 3.32-3.496 2.208-5.248 4.904-5.248 8.088 0 5.16 4.848 8.84 14.544 11.04l13.616 3.504c17.904 4.408 26.856 13.424 26.856 27.04 0 7.856-3.432 14.48-10.304 19.88-6.864 5.392-15.512 8.096-25.944 8.096-9.08 0-17.048-2.368-23.912-7.088-6.88-4.72-11.784-10.944-14.728-18.672l15.096-6.448c2.2 5.4 5.424 9.6 9.656 12.608 4.232 3 8.856 4.512 13.888 4.512 5.4 0 9.904-1.168 13.52-3.504 3.624-2.328 5.432-5.08 5.432-8.28 0-5.76-4.416-9.992-13.24-12.696l-15.464-3.856a75.967 75.967 0 01-2.616-.709l-1.008-.3a60.191 60.191 0 01-4.264-1.481l-.888-.357c-11.688-4.823-17.536-12.34-17.536-22.553 0-8.208 3.344-14.816 10.032-19.776 6.68-4.968 15.24-7.448 25.664-7.448zm-1313.808 0c26.056 0 47.312 20.184 47.312 48 0 27.64-21.256 48-47.312 48-26.064 0-47.312-20.36-47.312-48 0-27.816 21.248-48 47.312-48zm106.048 0c26.064 0 47.312 20.184 47.312 48 0 27.64-21.248 48-47.312 48-26.056 0-47.304-20.36-47.304-48 0-27.816 21.248-48 47.304-48zm244.6 0c16.691 0 27.665 8.895 34.293 17.993l.582.815a53.06 53.06 0 011.857 2.841l.48.803c.548.933 1.05 1.852 1.509 2.749l.382.762.362.75c.059.123.116.246.173.369l.33.728c.054.12.107.239.158.357l.3.703c.048.116.096.23.142.345l.27.675.25.654 2.184 5.456-64.192 26.552c4.92 9.632 12.552 14.536 23.272 14.536 10.728 0 18.192-5.264 23.648-13.272l16.36 10.912-.325.476-.344.489a46.94 46.94 0 01-.178.248l-.37.506-.389.516-.407.526-.425.534-.443.541-.463.548a50.35 50.35 0 01-.238.276l-.49.557a50.674 50.674 0 01-2.149 2.26l-.585.568-.604.569c-.102.094-.205.19-.309.284l-.633.566c-.321.283-.65.565-.986.845l-.682.559c-6.915 5.563-16.778 10.404-29.988 10.404-27.264 0-46.96-21.096-46.96-48 0-28.544 19.88-48 44.608-48zm-479-53.096c18.775 0 33.085 6.082 44.358 14.755l.884.69a83.116 83.116 0 015.046 4.344l.8.755-14.368 14.368-.744-.687c-8.645-7.85-20.248-13.857-35.976-13.857-30 0-53.464 24.184-53.464 54.176 0 30.008 23.464 54.192 53.464 54.192 13.614 0 23.135-3.834 30.056-8.565l.651-.453c.215-.152.427-.305.636-.459l.621-.462.606-.466.591-.47.578-.471.563-.474.549-.476.27-.238.529-.476.516-.477.504-.476.491-.475.479-.474c5.808-5.824 9.64-14.184 11.08-25.64h-48.72v-20.36h68.544c.736 3.64 1.096 8 1.096 12.728 0 1.065-.02 2.149-.063 3.247l-.05 1.102-.065 1.112a83.49 83.49 0 01-.127 1.683l-.104 1.131c-1.335 13.428-6.127 28.256-17.223 39.365-13.096 13.632-29.824 20.904-52.008 20.904-41.088 0-75.64-33.448-75.64-74.552 0-41.088 34.552-74.544 75.64-74.544zm1174.912 28.44v27.6h22.08v15.456h-22.08v44.896c0 6.008 1.16 10.088 3.488 12.232 2.328 2.152 4.968 3.216 7.92 3.216 1.344 0 2.664-.152 3.952-.456a19.835 19.835 0 003.584-1.2l5.336 15.088c-4.416 1.592-9.56 2.392-15.456 2.392-7.36 0-13.456-2.264-18.304-6.808-4.848-4.536-7.336-10.856-7.448-18.952v-50.408h-15.832v-15.456h15.832v-27.6h16.928zm-223.216 0v27.6h22.08v15.456h-22.08v44.896c0 6.008 1.168 10.088 3.504 12.232 2.328 2.152 4.968 3.216 7.904 3.216a17.18 17.18 0 003.96-.456 19.921 19.921 0 003.592-1.2l5.336 15.088c-4.416 1.592-9.576 2.392-15.456 2.392-7.36 0-13.472-2.264-18.312-6.808-4.848-4.536-7.328-10.856-7.456-18.952v-50.408h-15.816v-15.456h15.816v-27.6h16.928zm-1843.602 25.58c8.125 0 15.245 1.934 21.358 5.8 6.113 3.868 10.879 9.298 14.297 16.29 3.418 6.992 5.127 15.176 5.127 24.55 0 9.298-1.71 17.423-5.127 24.376-3.418 6.953-8.184 12.363-14.297 16.23-6.113 3.867-13.233 5.801-21.358 5.801s-15.244-1.934-21.357-5.8c-6.113-3.868-10.879-9.278-14.297-16.231-3.418-6.953-5.127-15.078-5.127-24.375 0-9.375 1.71-17.559 5.127-24.551 3.418-6.992 8.184-12.422 14.297-16.29 6.113-3.866 13.232-5.8 21.357-5.8zm224.11 0c4.687 0 9.316.781 13.886 2.344 4.57 1.562 8.73 4.092 12.48 7.588 3.75 3.496 6.74 8.115 8.966 13.857 2.155 5.557 3.267 12.358 3.336 20.403l.004.808v5.86h-65.36l.004.132c.213 5.93 1.383 11.012 3.51 15.248 2.363 4.707 5.654 8.282 9.873 10.723 4.219 2.441 9.121 3.662 14.707 3.662 3.633 0 6.924-.517 9.873-1.553 2.95-1.035 5.498-2.597 7.647-4.687 2.029-1.974 3.622-4.41 4.78-7.306l.2-.516 13.36 3.75-.181.563c-1.424 4.298-3.727 8.085-6.91 11.36-3.32 3.418-7.421 6.075-12.304 7.97-4.883 1.894-10.371 2.841-16.465 2.841-8.672 0-16.143-1.924-22.412-5.771-6.27-3.848-11.094-9.239-14.473-16.172-3.379-6.934-5.068-15.01-5.068-24.229s1.69-17.353 5.068-24.404c3.38-7.051 8.106-12.559 14.18-16.524 6.074-3.964 13.174-5.947 21.299-5.947zm152.625 0c4.687 0 9.316.781 13.886 2.344 4.57 1.562 8.73 4.092 12.48 7.588 3.75 3.496 6.74 8.115 8.966 13.857 2.155 5.557 3.267 12.358 3.336 20.403l.004.808v5.86h-65.36l.004.132c.213 5.93 1.383 11.012 3.51 15.248 2.363 4.707 5.654 8.282 9.873 10.723 4.219 2.441 9.121 3.662 14.707 3.662 3.633 0 6.924-.517 9.873-1.553 2.95-1.035 5.498-2.597 7.647-4.687 2.029-1.974 3.622-4.41 4.78-7.306l.2-.516 13.36 3.75-.181.563c-1.424 4.298-3.727 8.085-6.91 11.36-3.32 3.418-7.421 6.075-12.304 7.97-4.883 1.894-10.371 2.841-16.465 2.841-8.672 0-16.143-1.924-22.412-5.771-6.27-3.848-11.094-9.239-14.473-16.172-3.379-6.934-5.068-15.01-5.068-24.229s1.69-17.353 5.068-24.404c3.38-7.051 8.106-12.559 14.18-16.524 6.074-3.964 13.174-5.947 21.299-5.947zm133.968-28.828v120h-13.359v-13.828h-1.64l-.196.312-.421.655-.226.342-.481.714-.256.371-.542.773-.583.812-.622.852-.663.89-.346.46c-1.875 2.481-4.551 4.688-8.028 6.622-3.476 1.933-8.105 2.9-13.887 2.9-7.5 0-14.12-1.904-19.863-5.713-5.742-3.808-10.234-9.2-13.476-16.172-3.243-6.972-4.864-15.224-4.864-24.756 0-9.453 1.621-17.656 4.864-24.609 3.242-6.953 7.754-12.324 13.535-16.113 5.781-3.79 12.46-5.684 20.039-5.684 5.86 0 10.498.967 13.916 2.9 3.418 1.934 6.035 4.122 7.851 6.563l.663.895.923 1.265.839 1.173.512.73.475.689.437.647.204.309.196.298h1.171v-44.297h13.829zm87.235 0v44.297h1.172l.195-.298.418-.627.456-.669.494-.71.53-.75.868-1.203.95-1.296.337-.453c1.816-2.441 4.433-4.629 7.851-6.562 3.418-1.934 8.057-2.9 13.916-2.9 7.579 0 14.258 1.894 20.04 5.683 5.78 3.789 10.292 9.16 13.535 16.113 3.242 6.953 4.863 15.156 4.863 24.61 0 9.53-1.621 17.783-4.863 24.755-3.243 6.973-7.735 12.364-13.477 16.172-5.742 3.809-12.363 5.713-19.863 5.713-5.782 0-10.41-.967-13.887-2.9-3.477-1.934-6.152-4.141-8.027-6.621l-.683-.911-.95-1.292-.582-.812-.542-.773-.501-.733-.462-.694a50.887 50.887 0 01-.215-.332l-.401-.635h-1.64v13.828h-13.36v-120h13.828zm1420.112 28.272l3.504.368v17.664l-7.552-.736c-7.848 0-14.32 2.416-19.408 7.264-5.088 4.84-7.64 11.008-7.64 18.496v49.672h-16.928v-90.152h16.2v14.72h.728c5.032-11.536 15.392-17.296 31.096-17.296zm-349.6 0c4.904 0 9.08.728 12.504 2.2l-5.144 16.384c-1.392-.576-3.328-.956-5.808-1.146l-.847-.056a58.267 58.267 0 00-3.281-.086c-6.376 0-11.936 2.568-16.648 7.728-4.728 5.144-7.088 11.16-7.088 18.032v49.672h-16.928v-90.152h16.192v14.72h.736c1.72-4.792 5.24-8.864 10.576-12.248 5.336-3.36 10.576-5.048 15.736-5.048zm-163.208-40.488c6.128 0 11.16 1.048 15.088 3.136l-4.6 14.896c-2.944-1.472-6.256-2.2-9.936-2.2-4.176 0-7.576 1.44-10.208 4.32-2.64 2.88-3.96 6.712-3.96 11.496v11.416h23.552v15.456h-23.552v74.696h-16.928v-74.696h-16.928v-15.456h16.928v-13.072c0-8.952 2.856-16.184 8.56-21.712 5.696-5.512 13.024-8.28 21.984-8.28zm-191.256-7.88v141.096h-21.088v-141.096h21.088zm-1248.689 50.096l19.453 68.906h.938l19.219-68.906h14.765l18.985 68.672h.937l19.453-68.672h14.532l-27.422 90h-13.594l-19.688-69.14h-1.406l-19.687 69.14h-13.594l-27.422-90h14.531zm255.282-1.406l1.34.01 1.166.018 1.675.04 1.027.036.887.043.749.05.421.037v14.063l-.204-.048-.41-.082-.742-.133-1.243-.202-.594-.092a34.681 34.681 0 00-5.244-.38c-4.375 0-8.272.907-11.69 2.724-3.418 1.816-6.113 4.316-8.086 7.5-1.89 3.05-2.875 6.505-2.954 10.363l-.005.506v56.953h-13.828v-90h13.36v13.594h.937l.168-.443c1.672-4.25 4.585-7.716 8.738-10.397 4.297-2.774 9.14-4.16 14.532-4.16zm302.906 12.656c-5.625 0-10.352 1.416-14.18 4.248-3.828 2.832-6.719 6.777-8.672 11.836-1.953 5.059-2.93 10.947-2.93 17.666 0 6.797.997 12.783 2.989 17.959s4.902 9.219 8.73 12.129c3.828 2.91 8.516 4.365 14.063 4.365 5.781 0 10.615-1.533 14.502-4.6 3.886-3.066 6.816-7.207 8.789-12.421 1.972-5.215 2.959-11.026 2.959-17.432 0-6.328-.967-12.041-2.9-17.139-1.934-5.097-4.844-9.14-8.731-12.129-3.887-2.988-8.76-4.482-14.62-4.482zm-152.157 0c-5.859 0-10.732 1.494-14.619 4.482-3.886 2.989-6.797 7.032-8.73 12.13-1.934 5.097-2.9 10.81-2.9 17.138 0 6.406.986 12.217 2.958 17.432 1.973 5.214 4.903 9.355 8.79 12.422 3.886 3.066 8.72 4.6 14.502 4.6 5.546 0 10.234-1.456 14.062-4.366 3.828-2.91 6.738-6.953 8.73-12.129 1.993-5.176 2.989-11.162 2.989-17.959 0-6.719-.977-12.607-2.93-17.666-1.953-5.059-4.844-9.004-8.672-11.836-3.828-2.832-8.554-4.248-14.18-4.248zm-471.328 0c-6.171 0-11.25 1.602-15.234 4.805-3.984 3.203-6.934 7.402-8.848 12.597-1.914 5.196-2.87 10.801-2.87 16.817 0 6.015.956 11.601 2.87 16.758 1.914 5.156 4.864 9.316 8.848 12.48 3.984 3.164 9.063 4.746 15.234 4.746 6.172 0 11.25-1.582 15.235-4.746 3.984-3.164 6.933-7.324 8.847-12.48 1.914-5.157 2.871-10.743 2.871-16.758 0-6.016-.957-11.621-2.87-16.817-1.915-5.195-4.864-9.394-8.848-12.597-3.985-3.203-9.063-4.805-15.235-4.805zm-96.703 0c-5.625 0-10.351 1.416-14.18 4.248-3.828 2.832-6.718 6.777-8.671 11.836-1.953 5.059-2.93 10.947-2.93 17.666 0 6.797.996 12.783 2.988 17.959s4.903 9.219 8.73 12.129c3.829 2.91 8.516 4.365 14.063 4.365 5.782 0 10.615-1.533 14.502-4.6 3.887-3.066 6.817-7.207 8.79-12.421 1.972-5.215 2.958-11.026 2.958-17.432 0-6.328-.967-12.041-2.9-17.139-1.934-5.097-4.844-9.14-8.73-12.129-3.887-2.988-8.76-4.482-14.62-4.482zm2012.633 34.854c-6.872 0-12.6 1.656-17.2 4.968-4.6 3.312-6.896 7.424-6.896 12.328 0 4.416 1.864 8.096 5.608 11.04 3.744 2.944 8.128 4.424 13.152 4.424 7.112 0 13.464-2.64 19.048-7.912 5.584-5.28 8.368-11.472 8.368-18.592-5.272-4.168-12.632-6.256-22.08-6.256zm-349.608-32.752c-8.216 0-15.208 3.072-20.976 9.208-5.64 6.008-8.456 13.792-8.456 23.368 0 9.688 2.816 17.536 8.456 23.544 5.64 6.016 12.632 9.016 20.976 9.016s15.336-3 20.976-9.016c5.648-6.008 8.472-13.856 8.472-23.544 0-9.576-2.824-17.36-8.472-23.368-5.76-6.136-12.752-9.208-20.976-9.208zm676.176 0c-8.224 0-15.096 3.072-20.608 9.208-5.4 6.128-8.096 13.92-8.096 23.368 0 9.56 2.696 17.408 8.096 23.544 5.512 6.016 12.384 9.016 20.608 9.016 8.096 0 14.896-3.064 20.424-9.2 5.512-6 8.28-13.8 8.28-23.36 0-9.448-2.768-17.24-8.28-23.368-5.528-6.136-12.328-9.208-20.424-9.208zm-1222.24 3.456c-14.288 0-26.608 11.816-26.608 29.096 0 17.088 12.32 29.088 26.608 29.088 14.28 0 26.6-12 26.6-29.088 0-17.28-12.32-29.096-26.6-29.096zm212.592 0c-14.552 0-26.736 12.368-26.736 29.28 0 16.728 12.184 28.904 26.736 28.904 14.36 0 25.632-12.176 25.632-28.904 0-16.912-11.272-29.28-25.632-29.28zm-106.544 0c-14.28 0-26.6 11.816-26.6 29.096 0 17.088 12.32 29.088 26.6 29.088 14.288 0 26.608-12 26.608-29.088 0-17.28-12.32-29.096-26.608-29.096zm245.32-.36c-10.72 0-25.632 9.456-25.088 28l42.912-17.816c-2.368-6-9.456-10.184-17.824-10.184zm-994.891-5.198c-5.508 0-10.264 1.357-14.268 4.072-4.004 2.715-7.08 6.24-9.228 10.576a30.687 30.687 0 00-3.08 10.854l-.053.637-.023.346h51.261l-.005-.607c-.077-4.833-1.081-9.162-3.012-12.987-2.012-3.985-4.864-7.13-8.555-9.434-3.692-2.305-8.037-3.457-13.037-3.457zm-152.625 0c-5.508 0-10.264 1.357-14.268 4.072-4.004 2.715-7.08 6.24-9.228 10.576a30.687 30.687 0 00-3.08 10.854l-.053.637-.023.346h51.261l-.005-.607c-.077-4.833-1.081-9.162-3.012-12.987-2.012-3.985-4.864-7.13-8.555-9.434-3.692-2.305-8.037-3.457-13.037-3.457z" fill="#FFF"/></svg>