<svg xmlns="http://www.w3.org/2000/svg" viewBox="0 0 4940 2110" class="logo"><path class="logo-back" d="M2636.21 4v1.95c484.38 17.94 795.82 155.59 795.82 155.59l2.407-.717c51.407-15.232 911.25-265.619 1114.193-33.983 156 178.09-48.44 626.62-121 821.21l7.235-1.395c75.127-14.542 86.224-18.419 184.66-18.6l3.105-.005v.17c2.17-.05 4.33-.17 6.51-.17 169.3 0 306.47 137.23 306.47 306.53 0 169.3-137.24 306.55-306.54 306.55a306.41 306.41 0 01-80.742-10.84l-1.488-.41 19.34-104 16.86-90.87 8.43-45.45.633-3.519c2.597-14.283 5.198-26.356 9.647-37.761 4.81-12.33 11.43-23.4 20-32.16a71.07 71.07 0 0131.42-18.04c12.1-3.44 25.66-3.9 39.29-2.21a55.27 55.27 0 0131.316 14.998l.464.452c17.94 17.32 26.15 46.72 18.23 71.44-3.7 12.44-11.53 23.41-22 31.8a82.8 82.8 0 01-17.55 10.53 94.908 94.908 0 01-9.79 3.88c-3.34 1.022-9.316 4.814-8.813 9.925l.033.275.94 4.51c2.67 6.43 9.61 5.69 13.61 4.43a116.91 116.91 0 0010.688-3.438l1.312-.502a104.38 104.38 0 0022.73-11.91c14.26-9.99 26.11-24.48 32.26-41.35 12.66-33.75 4.78-73.15-19.8-100.5a87.11 87.11 0 00-48.51-27.08c-16.48-2.974-34.018-3.665-51.604.007l-.996.213a108.29 108.29 0 00-49.24 24.87c-13.83 12.51-23.91 27.94-31.3 44-7.226 15.703-11.201 32.487-14.543 46.611l-.227.959-10.89 45-21.77 90.05-20.65 95.95c-.173-.08-.342-.173-.513-.265l-.257-.135-68.5 314c-42.134 174.913-123.032 276.417-273.868 278.43l-4.592.03h-120.91a89.18 89.18 0 01-89.167-88.446l-.003-.724v-30.34h-2936.9v12.58c.005 58.456-46.901 105.971-105.132 106.93H791.6c-152.242 0-234.24-99.745-277.161-273.172l-1.289-5.278-68.45-313.79-.3.15-20.65-95.95-21.87-90.09-10.89-45-.944-3.975c-3.214-13.471-7.19-29.05-13.826-43.595-7.3-16-17.47-31.47-31.3-44a108.24 108.24 0 00-49.24-24.87c-17.92-3.91-35.8-3.22-52.6-.22a87.08 87.08 0 00-48.5 27.08c-24.344 27.077-32.31 65.963-20.184 99.486l.374 1.014c6.16 16.87 18.02 31.35 32.26 41.35a104.45 104.45 0 0022.74 11.91 115.93 115.93 0 0012 3.94l.38.116c3.947 1.164 10.43 1.657 13.102-4.25l.128-.296.94-4.51c.76-5.2-5.38-9.2-8.78-10.2a94.91 94.91 0 01-8.724-3.395l-1.066-.485a83 83 0 01-17.54-10.54c-10.46-8.39-18.29-19.36-22-31.8-7.83-24.473.128-53.532 17.695-70.917l.535-.523a55.3 55.3 0 0131.78-15.45c13.327-1.652 26.597-1.25 38.482 1.985l.808.225a71.16 71.16 0 0131.46 18.11c8.56 8.76 15.04 19.88 19.94 32.16 4.661 11.681 7.214 24.158 9.87 38.98l.41 2.3 8.44 45.45 16.86 90.87 19.33 104a306.41 306.41 0 01-82.23 11.25C142.3 1541.12 5 1403.88 5 1234.59c0-169.29 137.25-306.54 306.54-306.54 1.5 0 3 .084 4.5.127l1.5.023v-.15l8.907.006c93.622.017 111.834-1.146 189.793 13.404-70.49-225.4-283.63-620.03-124.73-814.62 204.43-242.91 1116.6 34.7 1116.6 34.7l.836-.364C1526.74 153.48 1827.32 26.22 2288.399 6.579L2302.86 6l.09-2h333.26zm2107.55 4.12c51.27 0 93.51 40.94 93.51 100s-42.22 99.3-93.52 99.3-93.48-40.3-93.48-99.3 42.22-100 93.49-100zm0 18.39c-41.74 0-73.73 33.8-73.73 81.61s32 81 73.73 81c41.73 0 73.74-33.23 73.74-81 0-47.81-32-81.61-73.74-81.61zm1.83 28.85c20.73 0 38.88 8.58 38.88 32.74 0 12.4-7.48 23.79-18.78 27.95l23 41.9h-22.76l-17.69-35.36h-20.1v35.33h-20.5l.03-102.56h37.92zm-3.45 17.06h-14v33.87h12.75c13.35 0 21.72-5.62 21.72-16.8 0-10.09-5.6-17.07-20.47-17.07z"/><path class="logo-front" d="M1113.248 1439.27c20.256 0 38.965 3.235 56.126 9.706 16.753 6.317 31.495 14.108 44.226 23.373l.928.681-21.522 38.824-.318-.345c-2.8-2.995-6.773-6.186-11.92-9.572-5.345-3.517-11.605-6.822-18.78-9.917-7.173-3.095-15.05-5.627-23.631-7.596-8.58-1.97-17.372-2.954-26.375-2.954-19.975 0-34.674 3.657-44.1 10.972-9.424 7.315-14.136 17.443-14.136 30.384 0 7.315 1.477 13.293 4.43 17.935 2.955 4.642 7.527 8.721 13.716 12.238 6.19 3.517 13.926 6.611 23.21 9.284l2.93.836c8.611 2.436 18.466 5.04 29.564 7.815 15.192 3.657 28.907 7.737 41.145 12.238 12.238 4.501 22.577 9.987 31.017 16.458 8.44 6.47 14.98 14.418 19.623 23.843 4.642 9.425 6.963 20.889 6.963 34.393 0 15.192-2.884 28.274-8.651 39.246-5.767 10.972-13.645 19.904-23.632 26.797-9.987 6.893-21.592 11.957-34.815 15.192-13.223 3.235-27.43 4.853-42.622 4.853-22.788 0-44.802-3.446-66.043-10.339-20.84-6.763-39.716-16.572-56.63-29.428l-.973-.745 21.522-40.512.371.367c3.64 3.563 8.791 7.52 15.454 11.871 6.893 4.501 14.91 8.651 24.054 12.449 9.143 3.798 19.06 7.033 29.75 9.706 10.692 2.673 21.804 4.009 33.339 4.009 18.568 0 32.916-3.235 43.044-9.706 10.128-6.47 15.192-16.036 15.192-28.696 0-7.596-1.9-13.926-5.697-18.99-3.798-5.064-9.214-9.495-16.247-13.293-6.799-3.671-15.044-7.014-24.734-10.028l-1.008-.311c-10.128-3.095-21.663-6.33-34.604-9.706-14.91-3.939-27.922-8.088-39.035-12.449-11.113-4.36-20.326-9.636-27.641-15.825-7.315-6.19-12.871-13.434-16.67-21.733-3.797-8.3-5.696-18.357-5.696-30.173 0-14.63 2.813-27.641 8.44-39.035 5.627-11.394 13.293-20.96 22.999-28.696 9.706-7.737 21.17-13.574 34.393-17.513 13.223-3.939 27.57-5.908 43.044-5.908zm2334.285 0c21.381 0 40.864 4.431 58.447 13.293 17.583 8.862 32.635 20.467 45.154 34.815 12.52 14.348 22.225 30.595 29.118 48.741 6.893 18.146 10.34 36.644 10.34 55.493 0 19.975-3.588 39.105-10.762 57.392-7.174 18.287-17.232 34.393-30.173 48.319-12.941 13.926-28.204 25.039-45.787 33.338-17.583 8.3-36.644 12.449-57.18 12.449-21.382 0-40.865-4.29-58.448-12.871-17.583-8.58-32.705-19.975-45.365-34.182-12.66-14.207-22.436-30.454-29.329-48.741-6.893-18.287-10.339-36.995-10.339-56.126 0-19.975 3.657-39.105 10.972-57.392 7.315-18.287 17.372-34.463 30.173-48.53 12.8-14.067 27.993-25.25 45.576-33.549 17.583-8.3 36.784-12.449 57.603-12.449zm-2038.823 0c21.382 0 40.864 4.431 58.447 13.293 17.584 8.862 32.635 20.467 45.154 34.815 12.52 14.348 22.226 30.595 29.118 48.741 6.893 18.146 10.34 36.644 10.34 55.493 0 19.975-3.588 39.105-10.762 57.392-7.174 18.287-17.231 34.393-30.173 48.319-12.94 13.926-28.203 25.039-45.787 33.338-17.583 8.3-36.643 12.449-57.18 12.449-21.382 0-40.864-4.29-58.448-12.871-17.583-8.58-32.705-19.975-45.365-34.182-12.66-14.207-22.436-30.454-29.329-48.741-6.892-18.287-10.339-36.995-10.339-56.126 0-19.975 3.658-39.105 10.972-57.392 7.315-18.287 17.373-34.463 30.173-48.53 12.801-14.067 27.993-25.25 45.576-33.549 17.584-8.3 36.785-12.449 57.603-12.449zm2277.738 2.11l171.332 216.064v-215.642h47.686V1741h-39.246l-169.644-211v211h-47.264v-299.62h37.136zm-441.537 0V1741h-47.264v-299.62h47.264zm-97.123 0v41.778h-99.592V1741h-47.686v-257.842h-100.014v-41.778h247.292zm-297.15 0V1741h-47.264v-299.62h47.264zm-252.841 0l1.187.003c23.701.127 44.475 4.065 62.324 11.813 18.146 7.877 33.338 18.568 45.576 32.072 12.238 13.504 21.452 29.329 27.641 47.475 6.19 18.146 9.284 37.488 9.284 58.025 0 22.788-3.446 43.396-10.339 61.823-6.893 18.427-16.669 34.182-29.329 47.264s-27.993 23.21-45.998 30.384c-17.684 7.046-37.403 10.632-59.157 10.758l-1.189.003h-106.344v-299.62h106.344zm-168.863 0v41.778h-154.452v85.244h133.774v39.246h-133.774v91.574h158.25V1741h-205.514v-299.62h201.716zm-467.7 0l118.16 299.62h-49.797l-31.65-81.446H1882.32L1851.091 1741h-50.218l119.004-299.62h41.356zm-151.14 0v41.778h-152.341v89.464h127.444v39.246h-127.444V1741h-47.264v-299.62h199.606zm1637.017 40.934c-15.192 0-28.696 3.165-40.512 9.495-11.816 6.33-21.803 14.559-29.962 24.687-8.159 10.128-14.418 21.733-18.779 34.815-4.36 13.082-6.54 26.375-6.54 39.879 0 14.067 2.25 27.711 6.751 40.934 4.501 13.223 10.902 24.898 19.201 35.026 8.3 10.128 18.357 18.216 30.173 24.265 11.816 6.049 25.039 9.073 39.668 9.073 15.192 0 28.626-3.165 40.301-9.495 11.675-6.33 21.592-14.7 29.751-25.109 8.159-10.41 14.348-22.085 18.568-35.026 4.22-12.941 6.33-26.164 6.33-39.668 0-14.348-2.25-28.063-6.752-41.145-4.501-13.082-10.902-24.617-19.2-34.604-8.3-9.987-18.288-18.005-29.963-24.054-11.675-6.049-24.687-9.073-39.035-9.073zm-2038.823 0c-15.192 0-28.696 3.165-40.512 9.495-11.816 6.33-21.803 14.559-29.962 24.687-8.158 10.128-14.418 21.733-18.779 34.815-4.36 13.082-6.54 26.375-6.54 39.879 0 14.067 2.25 27.711 6.751 40.934 4.502 13.223 10.902 24.898 19.201 35.026 8.3 10.128 18.357 18.216 30.173 24.265 11.816 6.049 25.04 9.073 39.668 9.073 15.192 0 28.626-3.165 40.301-9.495 11.676-6.33 21.593-14.7 29.751-25.109 8.16-10.41 14.348-22.085 18.568-35.026 4.22-12.941 6.33-26.164 6.33-39.668 0-14.348-2.25-28.063-6.752-41.145-4.5-13.082-10.901-24.617-19.2-34.604-8.3-9.987-18.287-18.005-29.963-24.054-11.675-6.049-24.687-9.073-39.035-9.073zm1189.509.844h-59.08v216.064h59.08c15.755 0 29.751-2.743 41.989-8.229 12.238-5.486 22.507-13.082 30.806-22.788 8.3-9.706 14.559-21.17 18.779-34.393 4.22-13.223 6.33-27.57 6.33-43.044 0-15.755-2.18-30.243-6.541-43.466-4.36-13.223-10.761-24.546-19.201-33.971-8.44-9.425-18.709-16.81-30.806-22.155-11.84-5.232-25.297-7.903-40.37-8.014l-.986-.004zm-657.242 12.66l-49.796 128.71h97.904l-48.108-128.71zm48.108-141.37l-37.98 55.704-30.384-9.284 24.054-46.42h44.31zM1016 1038c7.258 2.39 14.585 4.597 21.993 6.717 7.408 2.12 14.735 4.196 22.133 6.185a1709.115 1709.115 0 0044.586 11.34c29.81 7.24 59.841 13.748 89.972 19.924 30.13 6.176 60.321 11.828 90.632 17.088 27.784 4.822 55.61 9.41 83.495 13.675l7.606 1.155c121.712 18.519 244.284 32.127 367.165 42.647 122.882 10.52 246.133 17.691 369.514 22.375 120.047 4.558 240.245 6.795 360.447 7.09l10.017.02c30.89.096 61.74-.061 92.601-.314 15.435-.105 30.86-.35 46.286-.515l46.285-.802a8112.836 8112.836 0 00185.032-5.775 7534.922 7534.922 0 00369.214-24.765c122.782-11.436 245.254-25.97 367.015-44.654a4838.418 4838.418 0 0082.075-13.268l9.107-1.562c30.34-5.181 60.61-10.747 90.841-16.574 30.23-5.827 60.292-11.802 90.282-18.476a2311.849 2311.849 0 0044.986-10.25 1155.706 1155.706 0 0022.393-5.46c7.478-1.85 14.915-3.786 22.323-5.784-14.236 5.418-28.721 10.337-43.256 15.144-14.536 4.806-29.181 9.342-43.857 13.817a2550.237 2550.237 0 01-88.782 25.027 3362.707 3362.707 0 01-180.303 42.247 4177.973 4177.973 0 01-176.19 32.657l-6.563 1.067a4706.648 4706.648 0 01-177.264 25.54l-7.118.882a5487.365 5487.365 0 01-365.086 33.051l-6.668.376a6090.535 6090.535 0 01-186.681 7.851c-15.565.41-31.13.742-46.706 1.073-15.575.332-31.14.576-46.715.76-31.13.354-62.27.517-93.42.488a7472.26 7472.26 0 01-373.304-9.788c-124.31-6.542-248.442-16.574-371.943-30.967a4783.665 4783.665 0 01-184.662-25.149 3895.96 3895.96 0 01-183.013-33.052c-60.621-12.518-120.812-26.658-180.214-42.962-14.845-4.109-29.65-8.278-44.376-12.692-14.725-4.414-29.39-8.95-43.986-13.687-14.595-4.737-29.07-9.691-43.416-14.934-14.346-5.243-28.611-10.651-42.477-16.766zm1290.53-568.3l.709 1.124 1.138 1.886c1.17 1.968 2.803 4.77 5.733 9.68v-54h138.14c.29 6.24.85 13.31.9 20.38.89 108.67 1.9 217.34 2.37 326 .08 18.53-.73 37.36-3.6 55.57-11.44 72.39-44 128.38-107.87 153.4-66.89 26.19-132.49 23.68-191.17-27.32-24.25-21.08-42-47.92-46.68-83-.87-6.53 2.12-13.7 3.33-20.58 5.73 2.6 13 3.54 17 8.08 27.29 31.1 58.85 50.22 98.9 49.94 47-.33 83.74-33.75 89.75-85.82 2.51-22.24.37-45.25.37-72.42l-11.783 17.225-1.619 2.346-1.598 2.299c-49.32 70.42-133.77 70.77-183.6.76-56.1-78.83-58.09-225.12-4.16-306.55 52-78.54 142.54-78.06 193.74 1zm-552.19-53.51c41.21 13.38 69.21 52.52 70.49 102.31 1.29 50.57.34 101.21.76 151.81.09 10.33.74 21 3.19 30.87 5.93 23.92 23.46 28.78 39.09 10.78 18.196-20.998 22.181-47.935 22.375-75.64l.005-.84c.222-54.249.128-108.521.105-162.755l-.005-20.335v-25h143c0 8.03.16 15.8 0 23.57-1.48 70.65-3.77 141.32-4.1 212-.1 22 3.24 44.59 8.55 65.81 2.914 11.645 11.109 24.172 20.168 30.952l.432.318c15.92 11.54 10.2 20.87 1.85 32.16-45.4 61.31-134 46.67-161.4-26.69l-1.416-3.766-1.719-4.612-3.125-8.432c-13.41 17.27-24.88 35.97-39.74 50.27-30.08 28.96-65.46 41.26-103.78 23.86-38.32-17.4-56.39-53.44-60.39-97.59-2.582-28.642-1.48-57.699-1.76-86.584l-.03-2.626c-.26-20.09.08-40.2-.54-60.27l-.127-3.834-.137-3.713c-1.568-39.964-6.493-78.182-45.926-96.153 14.34-46.16 67.18-71.16 114.18-55.87zm1691.21-3.801c108.81-.579 192.79 90.321 192.92 208.811.13 120-81.5 209.32-191.57 209.552-109.43.228-193.07-89.892-193.332-208.302-.258-118.41 82.842-209.45 191.982-210.061zm-768.57.09c109.08.141 192.19 90.751 192.18 209.591-.01 119.53-82.23 208.69-192.42 208.64-109.43 0-192.32-90.16-192.37-209.15 0-118.5 83.53-209.22 192.61-209.08zM1112 471.64c1 1.66 2.81 2.73 7.19 6.99v-50.41h142.69c0 10.73.12 20.9 0 31.06-1.023 69.75-2.834 139.5-2.937 209.249l-.003 9.511c0 33.77 4 67.11 33.72 88.27 2.62 1.87.35 19.18-4.05 25.47-42.15 60.34-131.64 47.75-159.63-21.89-2.71-6.74-4.59-13.89-7.94-24.17l-1.693 2.81-1.848 3.086c-3.612 6.044-6.762 11.37-10.069 16.574-53.32 84-147.14 82.82-194.16-5.56C865 672 863.81 576.44 909 484c47.48-97.11 157.5-96.29 203-12.36zm2078.99-29.03c34.33 21.96 47 62.34 36.08 99.34-13.97 47.37-68.8 70.04-105.41 42.8-4.129-3.06-5.94-11.709-6.838-18.238l-.052-.382c-1.77-13.13.79-27.92-3.88-39.33-4.67-11.41-15.19-25.92-24.5-27.26-10.7-1.53-26.56 6.55-33.7 16.36-21.28 29.27-23.27 65.62-21 101.83 5.13 81.61 53.7 123.74 125.54 107.23 21.85-5.02 42.5-16.46 63.79-24.66 5.81-2.25 12-3.44 18-5.11 2.16 6.95.95 15.99-1.54 22.59-34.07 90.34-131.29 134.52-218.41 99.77-75.67-30.19-124.64-108.21-124.55-216.72 2.13-63.44 33.13-126.82 98.29-165.33 66.53-39.31 133.85-34.05 198.18 7.11zM707.115 244.981l1.275.069c73.195 3.915 146.355 8.495 219.563 11.988l13.727.642c12.74.58 17.09 5.31 19.18 18.74 12.2 78.42-21.1 123.92-92.25 124.92-17.77.24-35.55.04-53.14.04-.78 1.74-1.78 3.06-1.78 4.35 2.06 94.47 3.55 188.97 6.73 283.4.93 27.849 9.379 53.61 33.359 68.677l.731.453c11.72 7.17 6.61 16.86.8 24.06-30.41 37.71-68.01 53.46-113.09 43.18-38.99-8.9-66.18-40.81-73.34-86.69a298.51 298.51 0 01-3.38-48.84c1-91.56 2.63-183.12 4-274.67l.028-3.005.016-4.461-.042-19.17-.002-3.144c-33.465 2.8-65.895 4.463-98.046 8.39l-3.444.43c-29.5 3.76-29.83 4.65-34.07-27.91-5.88-45.19 12.28-83.48 49.2-105.08 39.56-23.156 81.885-18.664 123.975-16.369zM3976.57 416.54c43.35 19.38 60.52 60.86 62.06 110.38 1.37 43.88-.77 87.88.23 131.79l.093 3.939.066 2.547.07 2.494c1.223 40.721 5.684 80.42 46.031 99.62-9.64 35.69-50.33 63.03-88 60.76-54.22-3.27-93.82-46.65-95.66-107.57-1.423-47.212-.507-94.506-.719-141.769l-.031-5.671c-.06-9.62.77-20.23-2.46-28.62l-.477-1.216-.337-.838-.349-.849c-3.955-9.526-10.007-20.696-16.937-22.707-7.91-2.29-20.74 4.5-27.5 11.84-17.7 19.2-22.13 45.24-22.26 71.88-.27 54.954-.16 109.916-.134 164.879l.004 18.321v25.71h-143.4c0-8.66-.21-17.25 0-25.83 1.57-64 3.38-128 4.74-192 .32-14.86-.49-29.77-1.26-44.63-1.75-33.56-10.71-62.92-40.33-79.84 14.95-38.64 49.86-61.9 88.65-59.77 48.09 2.64 76.18 33.21 89.66 86l.911-1.434.945-1.503.95-1.522c2.943-4.738 5.335-8.712 7.992-12.382l.372-.509c7.6-10.34 14.55-21.57 23.42-30.34 32.85-32.49 70.31-50.54 113.66-31.16zm-2377.13 6.95c29.93 21.74 40.61 70.45 25.06 114.28-13.97 39.38-52.49 63.95-88.18 56.23l-1.332-.295c-21.405-4.87-25.699-12.024-26.228-36.965-.28-13.77 5.39-34.83-12.78-36.83-18.4-2.05-19.61 19.08-21.16 34.08-2.11 20.62-2.82 41.5-2.93 62.28-.338 62.408-.144 124.816-.13 189.383v6.687h-143.45c0-8.44-.18-16.28 0-24.11 1.41-63.97 3.12-127.9 4.41-191.9.31-15.6.13-31.28-.94-46.83-2.23-33.12-9.92-63.33-41-79.6 15.8-38.97 43.92-55.04 77.61-59.5 44.67-5.91 73.51 17.15 100.14 76.15 10.3-15.69 19.38-32.81 31.3-46.91 28.61-33.9 67.61-39.43 99.61-16.15zM4339.03 254.1c15.04 6.52 29.64 17.42 41.23 30 18.83 20.43 22.6 46.95 12.6 74.19-10.42 28.5-31.87 40.44-58.65 41.44a60.94 60.94 0 01-14.3-1.41l-3.054-.62c-31.914-6.433-31.672-5.57-28.326-39.52a127.19 127.19 0 00-.49-31.08c-2.21-14.66-10.8-26.66-24.31-23.44-9.98 2.38-23.78 11.35-26.42 20.72-9.56 33.86 3.02 65.7 14.75 96.49 1.37 3.62 10.22 5.03 15.64 5.13 24.598.492 49.196.286 75.33.254l6.06-.004V498h-92.17v174.6c-.005 75.752-60.799 137.308-136.259 138.531l-2.291.019V499.6l-40.25-2v-70.18l38.34-2.33c1.36-16.88 2.32-33 4-49 6.97-66.44 42.67-112.06 100.83-128.35 39.74-11.14 79.53-10.1 117.74 6.36zM3446 499.38l.02.02c-32.74 0-59.28 54.73-59.28 122.25 0 67.52 26.54 122.25 59.28 122.25s59.28-54.73 59.28-122.25c0-67.52-26.54-122.27-59.3-122.27zm-767.77 0c-32.74 0-59.28 54.73-59.28 122.25 0 67.52 26.54 122.25 59.28 122.25s59.27-54.73 59.27-122.25c0-67.52-26.5-122.25-59.27-122.25zm-1608.67 17.25c-29.33 0-53.11 47-53.11 105s23.78 105 53.11 105 53.11-47 53.11-105-23.78-104.97-53.11-104.97v-.03zm1195.38-.01c-30.62 0-55.44 47-55.44 105s24.82 105 55.44 105c30.62 0 55.43-47 55.43-105s-24.82-104.96-55.43-104.96v-.04z" fill="#FFF"/></svg>