<svg width="1920" height="392" viewBox="0 0 1920 392" xmlns="http://www.w3.org/2000/svg"><g fill="none"><path d="M1920 174.26V392H0V262.29c47.252-20.77 95.786-38 145.56-53.38-.54 7-6.617 11-5.325 18.77 14.946-14.76 25.138-31.39 35.74-47.69 11.011-16.93 10.741-37.19 16.017-56.86 11.463 0 22.745.85 33.857-.15 47.112-4.25 92.553-16.67 137.853-29.53 8.068-2.29 15.837-5.56 22.434-11.11 8.56-7.18 17.26-14.2 26.41-21.71l4.104 7c-5.366 4.66-10.011 9.31-15.247 13.13-12.614 9.17-25.518 17.94-38.282 26.88-2.563 1.8-5.086 3.65-7.628 5.48l1.451 2.12c24.978-8.5 48.994-18.75 66.754-39.2 4.435 2.36 3.894 4.59 1.431 7.06-6.807 6.83-13.525 13.75-20.392 20.52-2.743 2.72-5.786 5.14-8.69 7.69 16.018-3.22 27.931-12.73 38.303-23.11 6.116 3.52 12.233 5.73 16.608 9.8 14.226 13.23 31.465 21.12 48.674 29.25 13.865 6.54 28.27 9.57 43.568 7.5 3.484-.48 6.917-1.37 10.371-2.07a95.783 95.783 0 00-24.247-3.88c-6.937-.22-10.17-4.41-13.294-9.56 4.285-5.12 10.211-6.5 15.797-8.07 10.812-3 21.774-5.46 32.666-8.2 14.506-3.65 29.173-6.81 43.458-11.18 14.566-4.45 28.772-10.08 43.048-15.32.93-.34 1.461-1.75 2.222-2.63 2.693.35 5.346.65 8.01 1v-1.66l-7.88.82-27.78 3.4c.94-5.13 1.581-9 2.382-12.85.561-2.71.48-5.18-2.572-6.1-3.054-.92-5.436.29-6.598 3.49-1.371 3.81-2.783 7.6-4.264 11.37-2.874 7.37-3.685 7.75-12.424 6 1.471-8.28 8.269-15.23 6.807-24.28-4.435-1-5.406 2.08-6.707 4.43a451.718 451.718 0 00-8.29 15.72c-3.003 6.06-7.157 10.09-14.665 8.51L599.322 40c48.413 9.38 127.26 4.87 174.813-19.77 10.762 12.14 21.373 24.14 32.195 36.35l-103.424 12.7a5.329 5.329 0 004.645 1.86c15.217-1.3 30.404-3 45.64-3.92a714.204 714.204 0 0142.047-1.4c14.616-.06 29.252 1 43.869.78 13.074-.21 26.279-.57 39.163-2.54 35.169-5.39 70.548-8.56 105.957-11.54 13.875-1.16 27.71-2.77 41.556-4.17v-1.63l-17.42-1.27L1022.36 26c46.381 10.23 92.031 8 138.152 1.36-.65 7-8.239 3.9-10.571 7.78 4.755 4.55 11.132-2.13 16.128 2.81l-6.548 3.72c4.315 1.73 9.39-1.38 11.443 4.56h-63.14c4.325.78 7.208 1.42 10.121 1.8 14.526 1.86 29.032 3.65 43.599 5.48 28.42 3.59 56.382 10.16 85.314 10.58 27.4.39 54.76 3 82.09 4.46 18.681 1 37.412 1.43 56.062 2.94 25.158 2 50.266 4.7 75.353 7.46 9.851 1.08 19.602 3.13 29.393 4.75.24.64.49 1.29.74 1.93l-21.022 16.39c1.922.43 2.632.84 3.083.65 12.634-5.32 25.338-10.48 37.782-16.21 3.564-1.64 6.717-4.63 9.4-7.6 5.646-6.24 10.912-12.83 16.218-19.37 3.474-4.3 6.747-8.76 10.011-13 8.88 4 16.939 8.12 25.328 11.38 35.66 13.87 73.02 21.24 110.382 28.66a74.472 74.472 0 0034.398-1.53c5.596-1.5 11.212-2.9 16.638-4.29 2.002 3.37 1.882 5.73-1.061 6.94a45.958 45.958 0 01-9.81 3c-14.156 2.37-28.362 4.48-42.538 6.73-2.252.36-4.455 1-6.687 1.47 0 .63.07 1.26.11 1.88 6.667.68 13.315 1.71 20.022 2 13.155.52 26.229 0 38.753-4.92 2.232-.87 5.666-3 5.896 3.58l-33.417 11.14c12.424 2.87 24.087.72 36.16-3.81 4.615 8.78 8.6 17.5 13.605 25.59 6.007 9.73 12.925 18.92 19.452 28.34l1.191-.78c-1.531-8-3.003-15.95-4.695-24.51 4.004.7 6.437 1 8.86 1.6 35.499 8.47 71.018 16.87 106.467 25.53 11.733 2.9 23.316 6.51 34.979 9.77zM452.26 284.56c7.758-1.42 23.215-12.2 42.867-31.33 12.874-12.54 24.557-26.29 36.21-38.88 6.897 1.17 13.615 3.32 20.312 3.28 27.1-.16 54.21-.55 81.29-1.68a1107.766 1107.766 0 00124.778-12.66c32.726-5.11 64.921-12.64 94.654-28.45 25.028 21.74 50.676 42.22 88.638 41.83-2.783-2.52-3.864-4-5.306-4.73-5.796-3.05-11.543-6.29-17.6-8.74a179.993 179.993 0 01-61.898-41.2 32.228 32.228 0 00-19.661-10 297.842 297.842 0 00-31.685-2.36c-15.267-.08-30.584.26-45.81 1.41-24.568 1.85-49.205 3.51-73.542 7.1-24.027 3.54-47.733 9.16-71.489 14.26-27.78 6-55.311 12.88-81.51 24.25a34.267 34.267 0 00-16.018 13.69 262.296 262.296 0 01-45.96 55.22c-5.086 4.6-9.901 9.51-14.767 14.36a45.475 45.475 0 00-3.504 4.63zM340.415 160.23c20.843-3.63 40.044-11.38 58.474-21.36a126.257 126.257 0 0032.897-26c1.712-1.87 4.395-3.62 2.132-7.56-28.531 23.24-61.147 38.77-93.503 54.92zm-73.501.58l-.21-1.36a48.103 48.103 0 00-5.907-.87c-17.967-.42-35.94-.79-53.92-1.11a40.148 40.148 0 00-4.655.11 5.508 5.508 0 00-4.049 2.089 5.495 5.495 0 00-1.086 4.421c.21 1.67 3.063 3.29 5.005 4.35 1.221.65 3.003.2 4.595.25 19.382.52 38.262-3.27 57.193-6.64a15.487 15.487 0 003.034-1.24zm581.692 30.65c-9.26-.37-15.757 2.55-22.375 5.26-9.79 4-19.621 8-29.562 11.6-8.35 3-16.879 5.64-25.328 8.43l.45 1.86c17.35-3.22 34.849-5.79 51.988-9.92 9.3-2.24 17.269-8.11 24.827-17.23zm-674.535 16c4.856 6.07 4.856 6.26 10.902 6.14 23.256-.43 45.78-5.23 68.075-11.57.29-.08.36-.95.49-1.34-23.565 1.22-47.171 2.37-70.767 3.76-2.693.15-5.146 1.72-8.7 3.01zm89.99-62.27l-.06-2.18-61.068-2.19c-.7 3.71-1.251 6.64-2.052 10.84 21.954-.14 42.697-1.8 63.14-6.47h.04zm-15.678 45.66c-.13-.68-.26-1.35-.38-2h-6.007l-40.044.48c-4.375.05-8.74.07-13.104 0-3.214-.08-5.947 1.15-6.327 4.26-.461 3.73 2.522 5.39 5.826 6a20.18 20.18 0 005.596.17c12.364-1.28 24.757-2.36 37.041-4.14 5.857-.93 11.563-3.16 17.36-4.77h.04zm9.34-13.05c0-.65-.1-1.29-.14-1.94l-58.805-2.35c-4.004-.16-7.668.66-8.539 5.33-.56 3 3.003 5.41 8.44 5a1649.81 1649.81 0 0044.729-3.53c4.745-.39 9.51-1.64 14.276-2.51h.04zm1474.529-55.27c-28.882 6-58.064 5.11-87.096 5.26 25.628 10.01 73.19 7.28 87.056-5.26h.04zM843.07 243.2c14.105 1 33.036-3.5 42.156-9.57 3.564-2.36 7.459-4.69 7.008-10.36-1.562-.34-3.344-1.38-4.435-.88-14.366 6.51-28.591 13.24-44.73 20.81zm-616.44-22.49c-9.431-3.13-51.347-2.74-57.224-.38 1.472 4.88 5.636 5.45 9.56 5.47 5.912.022 11.82-.312 17.69-1 10.011-1.16 19.982-2.71 29.973-4.09zm633.439-17.19c-8.01.49-32.877 12.13-41.046 19.08 9.751.42 26.66-5.17 36.24-12 2.453-1.76 5.376-3.23 4.806-7.08zM729.105 46.11c23.106 2.59 37.231-1.73 40.775-11.82-4.805-.54-31.615 7-40.775 11.82zM582.944 228.78l-46.051-2.7c-1.071 5.59 2.372 6.3 5.396 6.67 13.655 1.65 27.22 1.25 40.655-3.97zM780.16 47.43c-5.556-4.7-10.561-.77-15.377 1.2-4.815 1.97-10.501 2.27-14.626 7.08 17.7 2.13 24.778.16 29.983-8.28h.02zm23.506 191.77c14.416 0 41.046-8.16 51.257-15.75-14.586 4-29.032 8.37-43.528 12.79-2.203.68-4.315 1.64-7.729 2.96zM398.6 154.88A89.673 89.673 0 00430.926 138c2.232-1.86 5.115-3.88 3.754-7.4l-36.08 24.28zm1286.42-9.42c21.164 2.64 31.756 1.43 38.573-4.29l-38.572 4.29zM532.389 241.67c1.732 1.88 2.423 3.34 3.273 3.45 7.008.85 13.956.11 20.543-3.45h-23.816z" fill="#FFF"/><path d="M1919 174.26c-11.657-3.27-23.233-6.87-35.019-9.75-35.428-8.66-70.927-17.06-106.405-25.53-2.421-.58-4.903-.9-8.855-1.6 1.641 8.56 3.162 16.54 4.693 24.51l-1.191.78c-6.523-9.42-13.417-18.61-19.44-28.34-5.003-8.09-9.005-16.81-13.597-25.59-12.066 4.53-23.723 6.68-36.139 3.81l33.397-11.14c-.23-6.55-3.662-4.45-5.893-3.58-12.516 4.91-25.583 5.44-38.73 4.92-6.673-.26-13.317-1.29-20.01-2 0-.62-.07-1.25-.11-1.88 2.23-.5 4.432-1.11 6.683-1.47 14.168-2.25 28.365-4.36 42.512-6.73a45.85 45.85 0 009.805-3c2.942-1.21 3.052-3.57 1.061-6.94-5.423 1.39-11.006 2.79-16.629 4.29a74.386 74.386 0 01-34.248 1.47c-37.339-7.42-74.678-14.79-110.317-28.66-8.384-3.26-16.439-7.36-25.313-11.38-3.292 4.29-6.564 8.75-10.005 13-5.303 6.54-10.566 13.13-16.209 19.37-2.681 3-5.833 6-9.395 7.6-12.436 5.73-25.133 10.89-37.76 16.21-.45.19-1.16-.22-3.081-.65l21.01-16.39c-.25-.64-.5-1.29-.74-1.93-9.785-1.62-19.53-3.67-29.375-4.75-25.073-2.76-50.166-5.42-75.309-7.46-18.63-1.51-37.35-1.91-56.03-2.94-27.363-1.51-54.708-4.07-82.042-4.46-28.915-.42-56.86-7-85.264-10.58-14.528-1.83-29.015-3.62-43.573-5.48-2.911-.38-5.793-1-10.115-1.8h63.103c-2.001-5.94-7.124-2.83-11.436-4.56l6.543-3.72c-5.003-4.94-11.366 1.74-16.118-2.81 2.33-3.88 9.915-.75 10.565-7.78-46.134 6.62-91.758 8.87-138.072-1.36l-13.927 19.42 17.41 1.27v1.63c-13.838 1.4-27.665 3-41.533 4.17-35.388 3-70.746 6.15-105.895 11.54-12.876 2-26.073 2.33-39.14 2.54-14.608.23-29.235-.84-43.843-.78-14.007.06-28.015.527-42.022 1.4-15.228 1-30.406 2.62-45.614 3.92-1.76.19-3.5-.507-4.642-1.86L806.11 56.49c-10.816-12.21-21.421-24.21-32.177-36.35C726.278 44.85 647.477 49.36 599.092 40l-20.08 43.7c7.503 1.58 11.616-2.45 14.657-8.51a489.676 489.676 0 018.285-15.72c1.3-2.35 2.27-5.41 6.703-4.43 1.46 9.05-5.333 16-6.804 24.28 8.735 1.74 9.545 1.36 12.417-6a419.75 419.75 0 004.262-11.37c1.16-3.2 3.452-4.44 6.594-3.49 3.141.95 3.131 3.39 2.57 6.1-.8 3.84-1.44 7.72-2.38 12.85l27.754-3.4-.14-.14c-.72.91-1.25 2.32-2.181 2.66-14.308 5.24-28.505 10.87-43.022 15.32-14.318 4.36-28.976 7.52-43.433 11.15-10.886 2.74-21.841 5.18-32.647 8.2-5.583 1.57-11.506 2.95-15.788 8.07 3.121 5.15 6.353 9.34 13.287 9.56a95.676 95.676 0 0124.232 3.88c-3.452.7-6.883 1.59-10.365 2.07-15.288 2.07-29.686-1-43.543-7.5-17.199-8.13-34.428-16-48.645-29.25-4.372-4.07-10.486-6.28-16.599-9.8-10.365 10.38-22.281 19.89-38.28 23.11 2.902-2.55 5.943-5 8.685-7.69 6.863-6.77 13.577-13.69 20.38-20.52 2.462-2.47 3.002-4.7-1.43-7.06-17.75 20.45-41.752 30.7-66.715 39.2l-1.45-2.12c2.54-1.83 5.062-3.68 7.623-5.48 12.757-8.94 25.653-17.71 38.26-26.88 5.243-3.82 9.875-8.47 15.238-13.13l-4.102-7c-9.145 7.51-17.84 14.53-26.394 21.71-6.593 5.55-14.357 8.82-22.422 11.11-45.273 12.86-90.687 25.28-137.771 29.53-11.106 1-22.382.15-33.838.15-5.243 19.67-5.003 39.93-16.008 56.86-10.596 16.3-20.781 32.93-35.719 47.69-1.29-7.81 4.783-11.75 5.323-18.77C95.85 224.3 47.345 241.52.12 262.29v-24.35c13.837-5.63 27.514-11.69 41.542-16.8a7210.09 7210.09 0 01108.316-38.48c5.493-1.9 8.334-4.46 9.275-10 3.162-18.39 6.723-36.71 9.655-55.13 1.26-7.86 5.063-12.48 12.296-16 54.349-26.31 111.919-42 171.09-52.76 15.007-2.74 30.085-5.39 44.953-8.8 9.245-2.12 16.689-1.85 20.92 8.1a11.25 11.25 0 002.842 3.66c16.769 15.35 32.207 32.21 51.207 45.06 3.842 2.59 7.324 3.69 12.136 2.85 24.853-4.36 49.786-8.35 74.72-12.28 4.722-.74 7.953-2.59 9.844-7.18 5.693-13.81 12.357-27.27 17.2-41.36 3.22-9.37 8.864-14.42 18.009-16.18 23.242-4.49 46.374-9.8 69.806-12.93 30.836-4.12 61.912-6.47 92.888-9.56 6.554-.66 11.066.64 15.068 7.46 8.285 14.1 21.011 24.51 34.018 34.34 3.002 2.26 6.583 4 9.005 6.73 5.192 6.07 11.816 6.08 18.76 5.69 37.319-2.153 74.638-4.287 111.958-6.4 9.004-.5 18.01-1 27.094-1 5.423 0 9.905-1.44 12.867-6 4.712-7.3 9.755-14.47 13.607-22.21 3.762-7.56 8.794-10.7 17.379-11.45a644.21 644.21 0 0187.855-1.53c14.308.7 28.585 2 42.883 2.91 5.453.36 8.624 2.65 11.196 8 5.002 10.44 12.566 19.25 21.51 26.78a18.425 18.425 0 0011.807 4.67c14.938.57 29.866 1.52 44.793 2.52 24.543 1.64 49.126 2.95 73.619 5.26 42.462 4 84.884 8.62 127.306 13.08 15.488 1.63 30.966 3.4 46.404 5.42 3.872.51 6.564-.24 8.905-3.36 7.494-10 15.128-19.83 22.662-29.76a40.504 40.504 0 002.37-4c5.003-8.55 11.787-11.79 22.292-11.58 48.496 1 95.4 10.59 141.764 23.79 12.897 3.68 25.794 7.37 38.79 10.67 6.484 1.65 9.005 5 11.006 11.77 4.893 16.67 11.546 32.85 18.01 49 .88 2.19 4.592 3.92 7.313 4.62 44.023 11.34 88.196 22.46 132.29 33.7 6.633 1.69 13.186 3.72 19.77 5.59l-.12 9.4zm-1719.396-65.4c10.796 1.27 22.282 2.47 31.857-1.63 15.007-6.4 30.475-10.76 45.953-15.29 34.298-10 68.806-19.22 104.645-22.12a7.725 7.725 0 004.002-2.14c4.382-3.87 8.635-7.89 12.927-11.86C330.772 68 262.687 79 199.604 108.86zM1722.717 72.7v-2c-53.758-15-107.196-31.39-163.865-32.59a50.879 50.879 0 0023.152 10.49c10.095 1.76 20.44 2.15 30.536 3.92 31.606 5.52 63.123 11.49 93.148 23.36a9.59 9.59 0 005.393.17c3.952-.87 7.814-2.19 11.636-3.35zM617.191 31.21l.13 1.79c6.924 0 14.068 1.12 20.731-.19a652.464 652.464 0 01100.713-12.07c5.743-.23 11.126-1.38 15.638-5.34A844.39 844.39 0 00617.19 31.21zm412.085-13c6.794 3 14.007 6.06 21.151 3.77 9.495-3.06 19.15-2.78 28.615-2.67 17.72.21 35.408 2.23 53.138 3 6.003.26 12.006-1 18.01-1.6a592.815 592.815 0 00-120.914-2.5z" fill="#000"/><path d="M452.115 284.56a45.472 45.472 0 013.492-4.58c4.863-4.85 9.675-9.76 14.758-14.36a262.261 262.261 0 0045.904-55.22 34.253 34.253 0 0116.008-13.69c26.184-11.37 53.698-18.28 81.463-24.25 23.742-5.1 47.444-10.72 71.447-14.26 24.323-3.59 48.945-5.25 73.498-7.1 15.218-1.15 30.526-1.49 45.784-1.41 10.59.222 21.16 1.01 31.666 2.36a32.203 32.203 0 0119.65 10 179.88 179.88 0 0061.843 41.2c6.003 2.45 11.796 5.69 17.59 8.74 1.44.76 2.52 2.21 5.302 4.73-37.94.39-63.563-20.09-88.586-41.83-29.716 15.81-61.893 23.34-94.6 28.45A1106.494 1106.494 0 01632.69 216c-27.065 1.13-54.159 1.52-81.243 1.68-6.693 0-13.407-2.11-20.3-3.28-11.646 12.59-23.323 26.34-36.19 38.88-19.64 19.08-35.087 29.86-42.842 31.28zm89.367-79.23c.2.78.39 1.57.59 2.35 15.248.9 30.686.86 45.484-2.54 37.02-8.5 74.039-17.23 111.738-22.68 26.844-3.88 53.558-8.75 80.772-9.35 10.005-.22 20.35-1.83 29.786.4 10.455 2.48 18.33-1.58 27.174-5-9.355-2.61-18.73-5.24-28.015-5.06-24.923.48-49.856 1.72-74.719 3.52-16.788 1.21-33.527 3.47-50.176 6-16.648 2.53-33.207 5.84-49.786 9.03-28.154 5.46-56.349 10.75-83.593 20-3.082 1.07-6.163 2.22-9.255 3.33zm-201.145-45.1c32.337-16.15 64.934-31.68 93.449-54.87 2.261 3.94-.42 5.69-2.131 7.56a126.195 126.195 0 01-32.877 26c-18.38 9.93-37.59 17.68-58.44 21.31zm-73.458.58c-.954.517-1.96.933-3.002 1.24-18.92 3.37-37.79 7.16-57.16 6.64-1.55-.05-3.371.4-4.592-.25-2-1.06-4.822-2.68-5.002-4.35a5.498 5.498 0 015.132-6.51 40.14 40.14 0 014.653-.11c17.97.353 35.932.723 53.888 1.11a47.97 47.97 0 015.903.87l.18 1.36z" fill="#000"/><path d="M848.232 191.46c-7.554 9.12-15.518 15-24.813 17.23-17.13 4.13-34.618 6.7-51.957 9.92l-.45-1.86c8.444-2.79 17.008-5.38 25.313-8.43 9.935-3.64 19.76-7.59 29.545-11.6 6.614-2.72 13.107-5.63 22.362-5.26zm-674.142 16c3.593-1.29 6.084-2.86 8.655-3 23.582-1.39 47.175-2.54 70.727-3.76-.13.39-.2 1.26-.49 1.34-22.242 6.34-44.754 11.14-68.036 11.57-6.043.11-6.043-.08-10.855-6.15zm89.897-62.27c-20.43 4.67-41.16 6.33-63.152 6.47.8-4.2 1.35-7.13 2.05-10.84l61.032 2.19.07 2.18zm-15.667 45.66c-5.794 1.61-11.497 3.84-17.4 4.69-12.286 1.78-24.673 2.86-37.019 4.14a20.15 20.15 0 01-5.593-.17c-3.302-.59-6.283-2.25-5.823-6 .38-3.11 3.112-4.34 6.323-4.26 4.363.11 8.725.09 13.097 0 13.34-.14 26.68-.3 40.021-.48h6.003c.13.73.26 1.4.39 2.08zm9.334-13.05c-4.762.87-9.505 2.12-14.307 2.56a1759.705 1759.705 0 01-44.704 3.53c-5.412.36-9.004-2-8.434-5 .87-4.67 4.482-5.49 8.535-5.33l58.77 2.35c.04.6.09 1.24.14 1.89zm1473.668-55.27c-13.857 12.54-61.392 15.27-87.046 5.26 29.066-.15 58.18.77 87.046-5.26zM842.699 243.2c16.128-7.57 30.346-14.3 44.653-20.81 1.09-.5 2.872.54 4.432.88.5 5.67-3.391 8-7.003 10.36-9.105 6.07-27.985 10.55-42.082 9.57zm-616.081-22.49c-10.005 1.38-19.95 2.93-29.956 4.09a147.222 147.222 0 01-17.679 1c-3.922 0-8.084-.59-9.555-5.47 5.873-2.33 47.765-2.75 57.19.38zm633.07-17.19c.57 3.85-2.351 5.32-4.773 7.05-9.575 6.86-26.474 12.45-36.219 12 8.135-6.92 32.978-18.57 40.992-19.05zM728.8 46.11c9.154-4.82 35.948-12.36 40.75-11.82-3.541 10.09-17.658 14.41-40.75 11.82zM582.724 228.78c-13.437 5.25-27.015 5.62-40.632 4-3.001-.37-6.463-1.08-5.392-6.67l46.024 2.67zM779.806 47.43c-5.203 8.44-12.276 10.41-30.015 8.28 4.122-4.81 9.855-5.12 14.617-7.08 4.763-1.96 9.845-5.9 15.398-1.2zm23.512 191.77c3.412-1.32 5.523-2.28 7.724-3 14.448-4.42 28.925-8.78 43.503-12.79-10.255 7.59-36.82 15.8-51.227 15.79zm-404.83-84.32l36.018-24.26c1.361 3.52-1.52 5.54-3.752 7.4a89.603 89.603 0 01-32.266 16.86zm1285.709-9.42l38.55-4.29c-6.853 5.72-17.399 6.93-38.55 4.29zm-1152 96.21H556c-6.584 3.56-13.477 4.3-20.531 3.45-.85-.12-1.54-1.57-3.272-3.45zM653.07 74l7.874-.82v1.66c-2.661-.3-5.313-.6-8.004-1-.01.02.13.16.13.16z" fill="#000"/><path d="M199.604 108.86c63.083-29.85 131.168-40.83 199.384-53-4.292 4-8.545 8-12.927 11.86a7.725 7.725 0 01-4.002 2.14c-35.839 2.9-70.347 12.09-104.645 22.12-15.478 4.53-30.956 8.89-45.953 15.29-9.575 4.06-21.061 2.86-31.857 1.59zM1722.717 72.7c-3.862 1.16-7.684 2.48-11.606 3.4a9.59 9.59 0 01-5.393-.17c-30.015-11.87-61.542-17.84-93.148-23.36-10.095-1.77-20.44-2.16-30.536-3.92a50.879 50.879 0 01-23.152-10.49c56.67 1.2 110.057 17.64 163.865 32.59l-.03 1.95zM617.191 31.21a844.39 844.39 0 01137.202-15.78c-4.512 4-9.895 5.11-15.638 5.34a652.464 652.464 0 00-100.713 12.07c-6.663 1.31-13.807.19-20.73.19l-.12-1.82zm412.085-13a592.815 592.815 0 01120.933 2.48c-6.003.58-12.006 1.86-18.01 1.6-17.729-.75-35.418-2.77-53.137-3-9.465-.11-19.12-.39-28.615 2.67-7.154 2.31-14.377-.78-21.17-3.75zM541.482 205.33c3.092-1.11 6.173-2.26 9.295-3.31 27.244-9.25 55.439-14.54 83.593-20 16.539-3.21 33.068-6.53 49.706-9.07 16.639-2.54 33.388-4.79 50.176-6 24.863-1.8 49.796-3 74.72-3.52 9.324-.18 18.7 2.45 28.014 5.06-8.845 3.44-16.719 7.5-27.174 5-9.435-2.23-19.82-.62-29.786-.4-27.214.6-53.928 5.47-80.772 9.35-37.69 5.45-74.669 14.18-111.738 22.68-14.798 3.4-30.236 3.44-45.484 2.54-.16-.76-.35-1.55-.55-2.33z" fill="#FFF"/></g></svg>