<?xml version="1.0" encoding="UTF-8"?>
<svg width="1920px" height="519px" viewBox="0 0 1920 519" version="1.1" xmlns="http://www.w3.org/2000/svg" xmlns:xlink="http://www.w3.org/1999/xlink">
    <title>Luna arriba</title>
    <defs>
        <linearGradient x1="50%" y1="15.4881715%" x2="50%" y2="94.0312813%" id="linearGradient-1">
            <stop stop-color="#9FCAED" offset="19%"></stop>
            <stop stop-color="#FFFFFF" offset="100%"></stop>
        </linearGradient>
    </defs>
    <g id="Luna-arriba" stroke="none" stroke-width="1" fill="none" fill-rule="evenodd">
        <g fill-rule="nonzero" id="Path">
            <path d="M0,170.29 C640,22.9566667 1280,22.9566667 1920,170.29 L1920,518.85 L0,518.85 L0,170.29 Z" fill="url(#linearGradient-1)"></path>
            <path d="M1032,76.86 L1079.21,56.14 L1091.97,44.14 L1100.65,30.51 C1100.65,30.51 1107.05,29.95 1109.65,30.78 C1112.25,31.61 1121.94,34.16 1121.94,34.16 L1191.36,36.65 L1209.11,33.48 L1217.65,36.7 L1219.24,46.14 L1235.9,66.56 L1260.6,81.96 C1260.6,81.96 1225.87,87.66 1217.19,88.9 C1208.51,90.14 1161.48,92.84 1148.01,90.9 C1134.54,88.96 1067.01,84.67 1067.01,84.67 L1032,76.86 Z" fill="#9FCAED"></path>
            <path d="M1109.62,30.77 C1109.62,30.77 1120.62,41.25 1128.42,42.61 C1136.22,43.97 1147.84,46.21 1159.42,46.56 L1189.07,47.47 L1170.45,54.41 C1170.45,54.41 1183.52,57.06 1184.24,58.21 C1184.96,59.36 1173.35,70.28 1173.35,70.28 C1173.35,70.28 1148.6,81.17 1150.48,81.28 C1152.36,81.39 1186.78,85.76 1199.64,82.77 C1207.5832,80.9784679 1215.66054,79.8446302 1223.79,79.38 C1226.05,79.07 1260.52,82 1260.52,82 L1240.4,69.45 L1219.16,46.18 L1217.57,36.74 L1206.62,38.66 C1206.62,38.66 1178.36,41.56 1160.03,39.12 C1141.7,36.68 1109.62,30.77 1109.62,30.77 Z" fill="#7AADC1"></path>
            <path d="M1260.57,82 C1260.57,82 1300.46,87 1297.66,89.95 C1294.86,92.9 1262.04,95.53 1239.6,92.24 C1217.16,88.95 1130.79,85.43 1150.53,81.24 C1170.27,77.05 1223.49,74 1260.57,82 Z" fill="#7AADC1"></path>
            <path d="M356,116.84 L433.76,69.72 L453.3,45.79 L465.3,19.95 C465.3,19.95 476.37,17.5 481.11,18.35 C485.85,19.2 503.38,21.42 503.38,21.42 L625.32,9.77 L655.63,0.13 L671.3,3.8 L676.3,19.93 L710.13,51.79 L756.81,73 C756.81,73 697.41,91 682.52,95.15 C667.63,99.3 586,114.9 562,114.66 C538,114.42 419,122.44 419,122.44 L356,116.84 Z" fill="#9FCAED"></path>
            <path d="M481.1,18.35 C481.1,18.35 502.66,34.14 516.7,34.72 C530.74,35.3 551.48,36.53 571.91,34.47 L623.91,29.21 L592.91,45.65 C592.91,45.65 616.37,47.27 617.91,49.11 C619.45,50.95 601.66,72.72 601.66,72.72 C601.66,72.72 561,97.46 564.26,97.13 C567.52,96.8 628.76,96.6 650.56,88.41 C672.36,80.22 688.1,78 692,76.91 C695.9,75.82 756.81,73 756.81,73 L718.74,55.7 L676.25,19.91 L671.25,3.78 L652.55,9.66 C652.55,9.66 603.81,21.24 571.19,21.21 C538.57,21.18 481.1,18.35 481.1,18.35 Z" fill="#7AADC1"></path>
            <path d="M756.81,73 C756.81,73 827.71,72.62 823.48,78.35 C819.25,84.08 762.48,96.35 722.48,95.74 C682.48,95.13 530.68,108.92 564.22,97.11 C597.76,85.3 690.15,67.67 756.81,73 Z" fill="#7AADC1"></path>
            <path d="M17.14,181.48 L60.94,146.91 L71.03,130.91 L76.4,114.27 C76.4,114.27 82.96,111.94 85.91,112.1 C88.86,112.26 99.7,112.29 99.7,112.29 L173.08,95.99 L190.8,87.83 L200.62,88.88 L204.86,98.33 L227.86,115.17 L257.92,124.57 C257.92,124.57 223.1,140.01 214.35,143.67 C205.6,147.33 157.08,162.97 142.46,164.67 C127.84,166.37 56,180.12 56,180.12 L17.14,181.48 Z" fill="#9FCAED"></path>
            <path d="M85.91,112.05 C85.91,112.05 100.23,120.05 108.82,119.33 C117.41,118.61 130.14,117.81 142.42,115.01 L173.71,107.88 L156.11,120.22 C156.11,120.22 170.51,119.44 171.58,120.45 C172.65,121.46 163.47,136.05 163.47,136.05 C163.47,136.05 140.52,154.2 142.47,153.74 C144.42,153.28 181.7,148.55 194.36,141.92 C202.188574,137.881256 210.336033,134.49317 218.72,131.79 C221,130.85 257.9,124.52 257.9,124.52 L233.41,116.86 L204.83,98.28 L200.59,88.83 L189.65,93.83 C189.65,93.83 160.87,104.55 141,107 C121.13,109.45 85.91,112.05 85.91,112.05 Z" fill="#7AADC1"></path>
            <path d="M257.93,124.52 C257.93,124.52 301.07,118.94 298.93,122.75 C296.79,126.56 263.16,138.3 238.76,141 C214.36,143.7 123,163.47 142.5,153.74 C162,144.01 216.93,126.3 257.93,124.52 Z" fill="#7AADC1"></path>
            <path d="M1697.9,140.48 L1739.31,128.27 L1751.18,119.64 L1759.83,109.24 C1759.83,109.24 1765.21,109.45 1767.28,110.42 C1769.35,111.39 1777.13,114.53 1777.13,114.53 L1834.53,123.94 L1849.61,123.18 L1856.36,126.77 L1856.68,134.77 L1868.36,153.49 L1887.24,168.9 C1887.24,168.9 1857.79,169.96 1850.45,170.07 C1843.11,170.18 1803.76,167.45 1792.78,164.43 C1781.8,161.41 1726.2,150.7 1726.2,150.7 L1697.9,140.48 Z" fill="#9FCAED"></path>
            <path d="M1767.28,110.42 C1767.28,110.42 1775.28,120.28 1781.64,122.24 C1788,124.2 1797.39,127.24 1807.02,128.81 L1831.55,132.7 L1815.35,136.5 C1815.35,136.5 1825.92,140.08 1826.35,141.11 C1826.78,142.14 1816.04,149.98 1816.04,149.98 C1816.04,149.98 1794.33,156.41 1795.88,156.66 C1797.43,156.91 1825.56,164.22 1836.56,163.1 C1843.3447,162.453938 1850.17104,162.366978 1856.97,162.84 C1858.88,162.84 1887.2,168.9 1887.2,168.9 L1871.81,156.35 L1856.64,134.77 L1856.32,126.77 L1847.02,127.2 C1847.02,127.2 1823.24,126.62 1808.27,122.65 C1793.3,118.68 1767.28,110.42 1767.28,110.42 Z" fill="#7AADC1"></path>
            <path d="M1887.24,168.9 C1887.24,168.9 1919.83,177.31 1917.24,179.43 C1914.65,181.55 1887.07,180.3 1868.78,175.19 C1850.49,170.08 1779.13,158.01 1795.96,156.66 C1812.79,155.31 1857.28,158.37 1887.24,168.9 Z" fill="#7AADC1"></path>
        </g>
    </g>
</svg>