<?xml version="1.0" encoding="UTF-8"?>
<svg width="1920px" height="392px" viewBox="0 0 1920 392" version="1.1" xmlns="http://www.w3.org/2000/svg" xmlns:xlink="http://www.w3.org/1999/xlink">
    <title>moon</title>
    <g id="moon" stroke="none" stroke-width="1" fill="none" fill-rule="evenodd">
        <g id="LOGOS-Y-GRAFICAMesa-de-trabajo-1" fill-rule="nonzero">
            <path d="M1920,174.26 L1920,392 L2.83939539e-14,392 L2.83939539e-14,262.29 C47.2521743,241.52 95.7857634,224.29 145.560723,208.91 C145.020126,215.91 138.943417,219.91 140.234843,227.68 C155.181346,212.92 165.372599,196.29 175.974305,179.99 C186.986464,163.06 186.716166,142.8 191.991991,123.13 C203.454648,123.13 214.737106,123.98 225.849375,122.98 C272.961395,118.73 318.401568,106.31 363.701587,93.45 C371.770497,91.16 379.539074,87.89 386.136359,82.34 C394.69581,75.16 403.395416,68.14 412.545519,60.63 L416.650051,67.63 C411.284126,72.29 406.638997,76.94 401.403216,80.76 C388.789288,89.93 375.88504,98.7 363.120946,107.64 C360.558116,109.44 358.035331,111.29 355.492523,113.12 L356.944126,115.24 C381.921705,106.74 405.938223,96.49 423.697833,76.04 C428.13273,78.4 427.592133,80.63 425.129414,83.1 C418.321897,89.93 411.60448,96.85 404.736897,103.62 C401.993868,106.34 398.950508,108.76 396.047302,111.31 C412.064988,108.09 423.978143,98.58 434.349594,88.2 C440.466348,91.72 446.583102,93.93 450.957933,98 C465.18364,111.23 482.422675,119.12 499.631677,127.25 C513.496986,133.79 527.902893,136.82 543.199783,134.75 C546.68363,134.27 550.117421,133.38 553.571235,132.68 C545.68935,130.3518 537.540003,129.047731 529.324462,128.8 C522.386802,128.58 519.153232,124.39 516.029783,119.24 C520.314514,114.12 526.241058,112.74 531.827226,111.17 C542.639164,108.17 553.601268,105.71 564.493295,102.97 C578.999312,99.32 593.665506,96.16 607.95128,91.79 C622.517363,87.34 636.723048,81.71 650.998811,76.47 C651.929839,76.13 652.460425,74.72 653.221265,73.84 C655.914239,74.19 658.567168,74.49 661.230108,74.84 L661.230108,73.18 L653.351409,74 L625.570734,77.4 C626.511773,72.27 627.152481,68.4 627.953365,64.55 C628.513984,61.84 628.433896,59.37 625.380524,58.45 C622.327153,57.53 619.944522,58.74 618.78324,61.94 C617.411725,65.75 616.000167,69.54 614.518531,73.31 C611.645358,80.68 610.834463,81.06 602.094813,79.31 C603.566438,71.03 610.363944,64.08 608.90233,55.03 C604.467433,54.03 603.496361,57.11 602.194924,59.46 C599.331762,64.64 596.568711,69.88 593.905771,75.18 C590.902455,81.24 586.747867,85.27 579.239577,83.69 L599.321751,40 C647.735208,49.38 726.582268,44.87 774.134774,20.23 C784.896657,32.37 795.508374,44.37 806.330323,56.58 L702.906126,69.28 C704.048313,70.6333018 705.789524,71.3305166 707.551255,71.14 C722.768056,69.84 737.954825,68.14 753.191649,67.22 C767.207125,66.34 781.2226,65.8733333 795.238075,65.82 C809.854214,65.76 824.490375,66.82 839.106513,66.6 C852.18095,66.39 865.38553,66.03 878.269756,64.06 C913.438588,58.67 948.817653,55.5 984.22675,52.52 C998.102071,51.36 1011.93735,49.75 1025.78263,48.35 L1025.78263,46.72 L1008.3634,45.45 L1022.35885,26 C1068.74007,36.23 1114.39047,34 1160.5114,27.36 C1159.86068,34.36 1152.2723,31.26 1149.93973,35.14 C1154.69498,39.69 1161.07202,33.01 1166.06753,37.95 L1159.5203,41.67 C1163.83507,43.4 1168.91067,40.29 1170.96294,46.23 L1107.82322,46.23 C1112.148,47.01 1115.03118,47.65 1117.9444,48.03 C1132.47044,49.89 1146.97645,51.68 1161.54254,53.51 C1189.96392,57.1 1217.92479,63.67 1246.85674,64.09 C1274.25699,64.48 1301.6172,67.09 1328.94738,68.55 C1347.62801,69.55 1366.35869,69.98 1385.00928,71.49 C1410.16706,73.49 1435.27478,76.19 1460.36248,78.95 C1470.21336,80.03 1479.96413,82.08 1489.75494,83.7 C1489.9952,84.34 1490.24548,84.99 1490.49576,85.63 L1469.47254,102.02 C1471.39466,102.45 1472.10545,102.86 1472.55595,102.67 C1485.1899,97.35 1497.89392,92.19 1510.33766,86.46 C1513.9016,84.82 1517.05508,81.83 1519.73804,78.86 C1525.38428,72.62 1530.65009,66.03 1535.95595,59.49 C1539.42979,55.19 1542.7034,50.73 1545.96701,46.49 C1554.84681,50.49 1562.90571,54.61 1571.29497,57.87 C1606.95435,71.74 1644.3156,79.11 1681.67685,86.53 C1693.10485,88.7140515 1704.88639,88.1900162 1716.07483,85 C1721.67101,83.5 1727.28721,82.1 1732.7132,80.71 C1734.71541,84.08 1734.59528,86.44 1731.65203,87.65 C1728.50421,89.0129477 1725.2134,90.0192273 1721.8412,90.65 C1707.68557,93.02 1693.47988,95.13 1679.30423,97.38 C1677.05174,97.74 1674.84931,98.38 1672.61685,98.85 C1672.61685,99.48 1672.68693,100.11 1672.72697,100.73 C1679.39433,101.41 1686.04167,102.44 1692.74908,102.73 C1705.9036,103.25 1718.97804,102.73 1731.50187,97.81 C1733.73433,96.94 1737.16812,94.81 1737.39838,101.39 L1703.98148,112.53 C1716.4052,115.4 1728.06808,113.25 1740.14141,108.72 C1744.7565,117.5 1748.7409,126.22 1753.74643,134.31 C1759.75306,144.04 1766.6707,153.23 1773.19791,162.65 L1774.38922,161.87 C1772.85753,153.87 1771.38591,145.92 1769.69404,137.36 C1773.69846,138.06 1776.13114,138.36 1778.55382,138.96 C1814.05302,147.43 1849.57224,155.83 1885.02138,164.49 C1896.75433,167.39 1908.33712,171 1920,174.26 Z M452.25937,284.56 C460.017936,283.14 475.475004,272.36 495.126702,253.23 C508.000918,240.69 519.683818,226.94 531.336684,214.35 C538.2343,215.52 544.951718,217.67 551.649113,217.63 C578.749035,217.47 605.858969,217.08 632.93887,215.95 C674.737619,214.089733 716.397105,209.862946 757.716645,203.29 C790.442781,198.18 822.63833,190.65 852.37116,174.84 C877.398795,196.58 903.047115,217.06 941.009031,216.67 C938.225958,214.15 937.144764,212.67 935.703172,211.94 C929.906772,208.89 924.160427,205.65 918.10374,203.2 C894.824064,193.921787 873.74111,179.888816 856.205393,162 C851.034129,156.458867 844.071629,152.917721 836.543684,152 C826.031643,150.650159 815.454903,149.862369 804.858698,149.64 C789.591841,149.56 774.274929,149.9 759.048116,151.05 C734.480989,152.9 709.843786,154.56 685.506914,158.15 C661.480385,161.69 637.774209,167.31 614.017978,172.41 C586.237304,178.41 558.706906,185.29 532.507978,196.66 C525.861664,199.429335 520.257321,204.219257 516.490291,210.35 C503.777603,230.774909 488.312374,249.355762 470.529543,265.57 C465.443928,270.17 460.628611,275.08 455.763239,279.93 C454.497765,281.397223 453.327425,282.943706 452.25937,284.56 L452.25937,284.56 Z M340.415876,160.23 C361.25889,156.6 380.460091,148.85 398.890442,138.87 C411.23034,132.095943 422.349156,123.308055 431.786765,112.87 C433.498655,111 436.181617,109.25 433.919119,105.31 C405.387615,128.55 372.771602,144.08 340.415876,160.23 Z M266.914718,160.81 L266.704486,159.45 C264.755602,159.037987 262.782955,158.747427 260.797964,158.58 C242.83146,158.16 224.858281,157.79 206.878428,157.47 C205.325892,157.416576 203.771559,157.453304 202.223288,157.58 C200.634872,157.659484 199.15845,158.421154 198.174083,159.668942 C197.189717,160.91673 196.793569,162.528738 197.087618,164.09 C197.29785,165.76 200.151,167.38 202.093145,168.44 C203.314493,169.09 205.096461,168.64 206.688218,168.69 C226.069619,169.21 244.950466,165.42 263.881369,162.05 C264.933572,161.745075 265.950389,161.329412 266.914718,160.81 L266.914718,160.81 Z M848.607004,191.46 C839.346779,191.09 832.849605,194.01 826.232298,196.72 C816.441487,200.72 806.610633,204.72 796.669656,208.32 C788.320437,211.32 779.791019,213.96 771.34169,216.75 L771.792187,218.61 C789.141344,215.39 806.640666,212.82 823.77959,208.69 C833.079859,206.45 841.048658,200.58 848.607004,191.46 Z M174.072205,207.46 C178.927566,213.53 178.927566,213.72 184.974242,213.6 C208.229921,213.17 230.754792,208.37 253.049409,202.03 C253.339729,201.95 253.409807,201.08 253.53995,200.69 C229.97393,201.91 206.367865,203.06 182.771811,204.45 C180.078837,204.6 177.626129,206.17 174.072205,207.46 Z M264.061568,145.19 L264.001502,143.01 L202.934073,140.82 C202.233299,144.53 201.682691,147.46 200.881807,151.66 C222.836048,151.52 243.578952,149.86 264.021524,145.19 L264.061568,145.19 Z M248.384258,190.85 C248.254114,190.17 248.12397,189.5 248.003838,188.85 C246.001627,188.85 243.999416,188.85 241.997205,188.85 C228.649133,189.01 215.301062,189.17 201.95299,189.33 C197.578159,189.38 193.21334,189.4 188.84852,189.33 C185.634972,189.25 182.901954,190.48 182.521534,193.59 C182.061026,197.32 185.04432,198.98 188.347968,199.59 C190.196355,199.90649 192.079922,199.963709 193.944147,199.76 C206.307798,198.48 218.701483,197.4 230.985046,195.62 C236.841513,194.69 242.547813,192.46 248.344213,190.85 L248.384258,190.85 Z M257.724571,177.8 C257.724571,177.15 257.62446,176.51 257.584416,175.86 L198.779486,173.51 C194.775064,173.35 191.111018,174.17 190.240057,178.84 C189.679438,181.84 193.243373,184.25 198.679375,183.84 C213.595845,182.866667 228.505642,181.69 243.408764,180.31 C248.154003,179.92 252.919265,178.67 257.684527,177.8 L257.724571,177.8 Z M1732.2527,122.53 C1703.37081,128.53 1674.18858,127.64 1645.15653,127.79 C1670.78482,137.8 1718.34734,135.07 1732.21265,122.53 L1732.2527,122.53 Z M843.070891,243.2 C857.176466,244.2 876.107369,239.7 885.227439,233.63 C888.791374,231.27 892.685674,228.94 892.235176,223.27 C890.673452,222.93 888.891484,221.89 887.800279,222.39 C873.434417,228.9 859.20871,235.63 843.070891,243.2 Z M226.630238,220.71 C217.199825,217.58 175.283542,217.97 169.407054,220.33 C170.878679,225.21 175.043277,225.78 178.96761,225.8 C184.878871,225.821689 190.786075,225.487751 196.657142,224.8 C206.668196,223.64 216.639206,222.09 226.630238,220.71 Z M860.06966,203.52 C852.060817,204.01 827.193359,215.65 819.024339,222.6 C828.775106,223.02 845.683776,217.43 855.264354,210.6 C857.717063,208.84 860.64029,207.37 860.06966,203.52 Z M729.105053,46.11 C752.210566,48.7 766.336163,44.38 769.880076,34.29 C765.07477,33.75 738.265168,41.29 729.105053,46.11 Z M582.943667,228.78 L536.892819,226.08 C535.821636,231.67 539.265439,232.38 542.288777,232.75 C555.943855,234.4 569.508833,234 582.943667,228.78 Z M780.161428,47.43 C774.605293,42.73 769.599766,46.66 764.784449,48.63 C759.969133,50.6 754.282854,50.9 750.1583,55.71 C767.857843,57.84 774.935658,55.87 780.141406,47.43 L780.161428,47.43 Z M803.667383,239.2 C818.0833,239.2 844.712704,231.04 854.923979,223.45 C840.337873,227.45 825.891922,231.82 811.395916,236.24 C809.193484,236.92 807.081152,237.88 803.667383,239.2 Z M398.600121,154.88 C410.419658,151.525876 421.422658,145.780271 430.925814,138 C433.158279,136.14 436.041462,134.12 434.679959,130.6 L398.600121,154.88 Z M1685.02054,145.46 C1706.18391,148.1 1716.77561,146.89 1723.59313,141.17 L1685.02054,145.46 Z M532.387845,241.67 C534.119757,243.55 534.81052,245.01 535.66146,245.12 C542.669197,245.97 549.616869,245.23 556.204142,241.67 L532.387845,241.67 Z" id="Shape" fill="#FFFFFF"></path>
            <path d="M1918.99948,174.26 C1907.34341,170.99 1895.76738,167.39 1883.98124,164.51 C1848.55279,155.85 1813.0543,147.45 1777.57582,138.98 C1775.15456,138.4 1772.67327,138.08 1768.72121,137.38 C1770.36206,145.94 1771.88286,153.92 1773.41365,161.89 L1772.22303,162.67 C1765.69964,153.25 1758.80604,144.06 1752.78291,134.33 C1747.7803,126.24 1743.77822,117.52 1739.18583,108.74 C1727.11954,113.27 1715.46347,115.42 1703.047,112.55 L1736.4444,101.41 C1736.21428,94.86 1732.78249,96.96 1730.55133,97.83 C1718.03481,102.74 1704.968,103.27 1691.82116,102.75 C1685.14768,102.49 1678.50422,101.46 1671.81073,100.75 C1671.81073,100.13 1671.7407,99.5 1671.70068,98.87 C1673.93184,98.37 1676.13299,97.76 1678.38416,97.4 C1692.55154,95.15 1706.74893,93.04 1720.8963,90.67 C1724.26653,90.0392273 1727.55543,89.0329477 1730.70141,87.67 C1733.64294,86.46 1733.753,84.1 1731.76196,80.73 C1726.33913,82.12 1720.75623,83.52 1715.1333,85.02 C1703.98776,88.1695801 1692.26013,88.6729585 1680.88546,86.49 C1643.54601,79.07 1606.20657,71.7 1570.568,57.83 C1562.18364,54.57 1554.12944,50.47 1545.25482,46.45 C1541.96311,50.74 1538.6914,55.2 1535.24961,59.45 C1529.94685,65.99 1524.68411,72.58 1519.04117,78.82 C1516.35977,81.82 1513.20813,84.82 1509.64627,86.42 C1497.2098,92.15 1484.51318,97.31 1471.88661,102.63 C1471.43637,102.82 1470.726,102.41 1468.805,101.98 L1489.81595,85.59 C1489.56582,84.95 1489.31569,84.3 1489.07556,83.66 C1479.29046,82.04 1469.54539,79.99 1459.70026,78.91 C1434.6272,76.15 1409.53413,73.49 1384.39104,71.45 C1365.76133,69.94 1347.04158,69.54 1328.36186,68.51 C1300.9976,67 1273.65336,64.44 1246.31912,64.05 C1217.40406,63.63 1189.45951,57.05 1161.05472,53.47 C1146.52715,51.64 1132.0396,49.85 1117.48202,47.99 C1114.57051,47.61 1111.689,46.99 1107.36675,46.19 L1170.46962,46.19 C1168.46858,40.25 1163.34591,43.36 1159.03366,41.63 L1165.57707,37.91 C1160.57447,32.97 1154.21115,39.65 1149.45868,35.1 C1151.78989,31.22 1159.37384,34.35 1160.02418,27.32 C1113.89015,33.94 1068.26639,36.19 1021.95227,25.96 L1008.02501,45.38 L1025.43408,46.65 L1025.43408,48.28 C1011.59687,49.68 997.769672,51.28 983.902449,52.45 C948.514018,55.45 913.155602,58.6 878.007295,63.99 C865.130589,65.99 851.933715,66.32 838.86691,66.53 C824.259302,66.76 809.631683,65.69 795.024075,65.75 C781.01678,65.81 767.009484,66.2766667 753.002189,67.15 C737.774257,68.15 722.596352,69.77 707.388431,71.07 C705.62773,71.2605166 703.887535,70.5633018 702.746014,69.21 L806.109849,56.49 C795.294216,44.28 784.688692,32.28 773.93309,20.14 C726.27827,44.85 647.477228,49.36 599.092027,40 L579.011569,83.7 C586.515477,85.28 590.627619,81.25 593.669203,75.19 C596.337259,69.8966667 599.098697,64.6566667 601.953517,59.47 C603.254195,57.12 604.2247,54.06 608.657009,55.04 C610.11777,64.09 603.324231,71.04 601.853465,79.32 C610.588015,81.06 611.398437,80.68 614.269932,73.32 C615.750703,69.55 617.161438,65.76 618.532152,61.95 C619.692757,58.75 621.98395,57.51 625.125586,58.46 C628.267223,59.41 628.257217,61.85 627.696925,64.56 C626.896509,68.4 626.256175,72.28 625.315685,77.41 L653.070141,74.01 L652.930068,73.87 C652.209693,74.78 651.679416,76.19 650.748932,76.53 C636.44148,81.77 622.244085,87.4 607.726524,91.85 C593.409067,96.21 578.751433,99.37 564.293903,103 C553.408233,105.74 542.452527,108.18 531.646899,111.2 C526.063992,112.77 520.140907,114.15 515.858676,119.27 C518.980302,124.42 522.211985,128.61 529.145597,128.83 C537.356342,129.077731 545.500933,130.3818 553.378218,132.71 C549.92642,133.41 546.494633,134.3 543.012819,134.78 C527.724857,136.85 513.327358,133.78 499.470141,127.28 C482.271183,119.15 465.042209,111.28 450.824805,98.03 C446.452527,93.96 440.339343,91.75 434.226159,88.23 C423.860761,98.61 411.944554,108.12 395.946222,111.34 C398.847733,108.79 401.889317,106.34 404.630745,103.65 C411.49432,96.88 418.207817,89.96 425.01136,83.13 C427.472642,80.66 428.012923,78.43 423.580615,76.07 C405.831371,96.52 381.828869,106.77 356.865868,115.27 L355.415112,113.15 C357.956436,111.32 360.477749,109.47 363.039083,107.67 C375.795727,98.73 388.692444,89.96 401.29901,80.79 C406.54174,76.97 411.174153,72.32 416.536946,67.66 L412.43481,60.66 C403.290047,68.17 394.595518,75.19 386.041063,82.37 C379.447629,87.92 371.683585,91.19 363.619385,93.48 C318.345805,106.34 272.932152,118.76 225.847629,123.01 C214.741845,124.01 203.465972,123.16 192.010005,123.16 C186.767275,142.83 187.0074,163.09 176.001668,180.02 C165.406149,196.32 155.220844,212.95 140.283064,227.71 C138.992392,219.9 145.065555,215.96 145.605836,208.94 C95.8499218,224.3 47.3446587,241.52 0.120062533,262.29 L0.120062533,237.94 C13.9572694,232.31 27.6343929,226.25 41.6616988,221.14 C77.6804586,208.02 113.78593,195.193333 149.978114,182.66 C155.470974,180.76 158.312454,178.2 159.252944,172.66 C162.414591,154.27 165.976446,135.95 168.907973,117.53 C170.168629,109.67 173.97061,105.05 181.204377,101.53 C235.552684,75.22 293.122668,59.53 352.293486,48.77 C367.301303,46.03 382.379156,43.38 397.246899,39.97 C406.491714,37.85 413.935591,38.12 418.167796,48.07 C418.850655,49.4738128 419.818329,50.7202353 421.009276,51.73 C437.778009,67.08 453.21605,83.94 472.215946,96.79 C476.057947,99.38 479.53976,100.48 484.352267,99.64 C509.205211,95.28 534.138197,91.29 559.071183,87.36 C563.793643,86.62 567.025326,84.77 568.916311,80.18 C574.609276,66.37 581.272746,52.91 586.115268,38.82 C589.336946,29.45 594.979885,24.4 604.124648,22.64 C627.366754,18.15 650.498801,12.84 673.931006,9.71 C704.767066,5.59 735.843252,3.24 766.819385,0.15 C773.372798,-0.51 777.885149,0.79 781.887233,7.61 C790.171548,21.71 802.898176,32.12 815.90495,41.95 C818.906514,44.21 822.488379,45.95 824.90964,48.68 C830.102345,54.75 836.725795,54.76 843.669411,54.37 C880.988848,52.2166667 918.308286,50.0833333 955.627723,47.97 C964.632413,47.47 973.637103,46.97 982.721834,46.97 C988.144659,46.97 992.626993,45.53 995.588536,40.97 C1000.30099,33.67 1005.34362,26.5 1009.19562,18.76 C1012.95758,11.2 1017.9902,8.06 1026.57467,7.31 C1055.7909,4.80103948 1085.14449,4.28984944 1114.43043,5.78 C1128.73788,6.48 1143.01532,7.78 1157.31277,8.69 C1162.76561,9.05 1165.93726,11.34 1168.5086,16.69 C1173.5112,27.13 1181.07514,35.94 1190.0198,43.47 C1193.27704,46.3759902 1197.46117,48.031054 1201.82595,48.14 C1216.76373,48.71 1231.69151,49.66 1246.61928,50.66 C1271.16206,52.3 1295.74487,53.61 1320.23762,55.92 C1362.69974,59.92 1405.12183,64.54 1447.54393,69 C1463.032,70.63 1478.51006,72.4 1493.9481,74.42 C1497.82011,74.93 1500.51152,74.18 1502.85274,71.06 C1510.34664,61.06 1517.98061,51.23 1525.51454,41.3 C1526.38092,40.0131384 1527.17263,38.677606 1527.88577,37.3 C1532.88838,28.75 1539.67191,25.51 1550.17738,25.72 C1598.67264,26.72 1645.57707,36.31 1691.94122,49.51 C1704.83794,53.19 1717.73465,56.88 1730.73142,60.18 C1737.2148,61.83 1739.73611,65.18 1741.73715,71.95 C1746.6297,88.62 1753.28317,104.8 1759.74653,120.95 C1760.62699,123.14 1764.33893,124.87 1767.06034,125.57 C1811.08327,136.91 1855.25628,148.03 1899.34924,159.27 C1905.9827,160.96 1912.53611,162.99 1919.11954,164.86 L1918.99948,174.26 Z M199.60396,108.86 C210.399583,110.13 221.885565,111.33 231.460552,107.23 C246.468369,100.83 261.936425,96.47 277.414487,91.94 C311.71235,81.94 346.220323,72.72 382.058989,69.82 C383.577341,69.5233554 384.971578,68.7778271 386.061073,67.68 C390.443356,63.81 394.695571,59.79 398.987806,55.82 C330.772277,68 262.686816,79 199.60396,108.86 Z M1722.71725,72.7 L1722.71725,70.7 C1668.95925,55.7 1615.52142,39.31 1558.8519,38.11 C1565.55663,43.5086988 1573.52273,47.1180685 1582.00396,48.6 C1592.09922,50.36 1602.44461,50.75 1612.53986,52.52 C1644.14633,58.04 1675.66274,64.01 1705.68838,75.88 C1707.43261,76.4516108 1709.30438,76.5106155 1711.08119,76.05 C1715.03325,75.18 1718.89526,73.86 1722.71725,72.7 Z M617.191454,31.21 L617.321522,33 C624.245128,33 631.388848,34.12 638.052319,32.81 C671.25869,26.1793659 704.931337,22.1438287 738.764773,20.74 C744.507764,20.51 749.890568,19.36 754.402918,15.4 C708.310401,16.9142472 662.419608,22.2019499 617.191454,31.21 Z M1029.27608,18.21 C1036.06962,21.21 1043.28338,24.27 1050.4271,21.98 C1059.92204,18.92 1069.57707,19.2 1079.042,19.31 C1096.76123,19.52 1114.45044,21.54 1132.17968,22.31 C1138.1828,22.57 1144.18593,21.31 1150.18906,20.71 C1110.07554,15.7569061 1069.56022,14.9192102 1029.27608,18.21 Z" id="Shape" fill="#000000"></path>
            <path d="M452.115477,284.56 C453.181434,282.961132 454.347711,281.431399 455.607295,279.98 C460.469828,275.13 465.282335,270.22 470.364982,265.62 C488.126833,249.403773 503.572857,230.823013 516.26889,210.4 C520.033721,204.269257 525.634793,199.479335 532.277228,196.71 C558.460865,185.34 585.975195,178.43 613.739656,172.46 C637.482022,167.36 661.184367,161.74 685.186868,158.2 C709.509536,154.61 734.132361,152.95 758.685149,151.1 C773.903075,149.95 789.211047,149.61 804.468994,149.69 C815.059014,149.912369 825.629581,150.700159 836.135487,152.05 C843.659039,152.967721 850.617476,156.508867 855.785722,162.05 C873.305366,179.936507 894.368994,193.969341 917.627931,203.25 C923.631058,205.7 929.424075,208.94 935.217092,211.99 C936.657843,212.75 937.738405,214.2 940.519854,216.72 C902.580094,217.11 876.956748,196.63 851.933715,174.89 C822.218239,190.7 790.04148,198.23 757.334445,203.34 C716.058868,209.910691 674.443802,214.137471 632.689526,216 C605.62543,217.13 578.531318,217.52 551.447212,217.68 C544.753726,217.68 538.040229,215.57 531.146639,214.4 C519.500573,226.99 507.824492,240.74 494.957791,253.28 C475.317561,272.36 459.869515,283.14 452.115477,284.56 Z M541.482022,205.33 C541.682126,206.11 541.872225,206.9 542.072329,207.68 C557.320271,208.58 572.758312,208.54 587.556019,205.14 C624.5753,196.64 661.594581,187.91 699.294216,182.46 C726.138197,178.58 752.85211,173.71 780.066285,173.11 C790.071496,172.89 800.416884,171.28 809.851798,173.51 C820.307243,175.99 828.181344,171.93 837.025951,168.51 C827.671079,165.9 818.296196,163.27 809.01136,163.45 C784.088379,163.93 759.155393,165.17 734.292444,166.97 C717.5037,168.18 700.764982,170.44 684.116311,172.97 C667.467639,175.5 650.909015,178.81 634.33038,182 C606.175717,187.46 577.981032,192.75 550.736842,202 C547.655237,203.07 544.573632,204.22 541.482022,205.33 L541.482022,205.33 Z" id="Shape" fill="#000000"></path>
            <path d="M340.337259,160.23 C372.674101,144.08 405.271079,128.55 433.78593,105.36 C436.047108,109.3 433.365711,111.05 431.65482,112.92 C422.22272,123.358055 411.110393,132.145943 398.777697,138.92 C380.398124,148.85 361.188119,156.6 340.337259,160.23 Z" id="Path" fill="#000000"></path>
            <path d="M266.878999,160.81 C265.924788,161.327465 264.918722,161.743089 263.877436,162.05 C244.957582,165.42 226.087754,169.21 206.717665,168.69 C205.166858,168.64 203.345909,169.09 202.125274,168.44 C200.124231,167.38 197.302762,165.76 197.122668,164.09 C196.828791,162.528738 197.224707,160.91673 198.2085,159.668942 C199.192292,158.421154 200.667852,157.659484 202.255341,157.58 C203.802709,157.453304 205.356134,157.416576 206.907764,157.47 C224.877124,157.823333 242.839812,158.193333 260.795831,158.58 C262.779663,158.747427 264.751159,159.037987 266.698906,159.45 L266.878999,160.81 Z" id="Path" fill="#000000"></path>
            <path d="M848.231787,191.46 C840.677853,200.58 832.713705,206.46 823.418864,208.69 C806.289943,212.82 788.800834,215.39 771.461803,218.61 L771.011569,216.75 C779.455967,213.96 788.020427,211.37 796.324752,208.32 C806.259927,204.68 816.085044,200.73 825.870141,196.72 C832.483585,194 838.976967,191.09 848.231787,191.46 Z" id="Path" fill="#000000"></path>
            <path d="M174.090672,207.46 C177.682543,206.17 180.173841,204.6 182.74518,204.46 C206.327462,203.07 229.91975,201.92 253.472017,200.7 C253.341949,201.09 253.271912,201.96 252.981761,202.04 C230.740177,208.38 208.228452,213.18 184.946326,213.61 C178.903179,213.72 178.903179,213.53 174.090672,207.46 Z" id="Path" fill="#000000"></path>
            <path d="M263.987493,145.19 C243.556853,149.86 222.826055,151.52 200.834601,151.66 C201.635018,147.46 202.185305,144.53 202.88567,140.82 L263.917457,143.01 L263.987493,145.19 Z" id="Path" fill="#000000"></path>
            <path d="M248.319333,190.85 C242.526316,192.46 236.823345,194.69 230.920271,195.54 C218.633872,197.32 206.247421,198.4 193.90099,199.68 C192.037853,199.883709 190.155386,199.82649 188.308077,199.51 C185.006357,198.92 182.024805,197.26 182.485044,193.51 C182.865242,190.4 185.596665,189.17 188.808338,189.25 C193.17061,189.36 197.532882,189.34 201.905159,189.25 C215.24544,189.11 228.585722,188.95 241.926003,188.77 C243.927045,188.77 245.928088,188.77 247.92913,188.77 C248.059197,189.5 248.189265,190.17 248.319333,190.85 Z" id="Path" fill="#000000"></path>
            <path d="M257.654195,177.8 C252.891714,178.67 248.149244,179.92 243.346743,180.36 C228.458989,181.726667 213.557895,182.903333 198.64346,183.89 C193.230641,184.25 189.63877,181.89 190.209067,178.89 C191.079521,174.22 194.691402,173.4 198.743512,173.56 L257.514122,175.91 C257.554143,176.51 257.604169,177.15 257.654195,177.8 Z" id="Path" fill="#000000"></path>
            <path d="M1731.32173,122.53 C1717.46451,135.07 1669.92976,137.8 1644.27639,127.79 C1673.34153,127.64 1702.4567,128.56 1731.32173,122.53 Z" id="Path" fill="#000000"></path>
            <path d="M842.698906,243.2 C858.827306,235.63 873.044711,228.9 887.352163,222.39 C888.442731,221.89 890.223658,222.93 891.784471,223.27 C892.284732,228.94 888.392705,231.27 884.780823,233.63 C875.676081,239.7 856.796248,244.18 842.698906,243.2 Z" id="Path" fill="#000000"></path>
            <path d="M226.61803,220.71 C216.612819,222.09 206.667639,223.64 196.662428,224.8 C190.794788,225.487751 184.891031,225.821689 178.98322,225.8 C175.061178,225.8 170.89901,225.21 169.428244,220.33 C175.301303,218 217.193121,217.58 226.61803,220.71 Z" id="Path" fill="#000000"></path>
            <path d="M859.687754,203.52 C860.258051,207.37 857.336529,208.84 854.915268,210.57 C845.340281,217.43 828.44148,223.02 818.696404,222.57 C826.830641,215.65 851.67358,204 859.687754,203.52 Z" id="Path" fill="#000000"></path>
            <path d="M728.799583,46.11 C737.954351,41.29 764.748306,33.75 769.550808,34.29 C766.008963,44.38 751.89161,48.7 728.799583,46.11 Z" id="Path" fill="#000000"></path>
            <path d="M582.723502,228.78 C569.286503,234.03 555.709432,234.4 542.09234,232.78 C539.090776,232.41 535.628973,231.7 536.699531,226.11 L582.723502,228.78 Z" id="Path" fill="#000000"></path>
            <path d="M779.806149,47.43 C774.603439,55.87 767.529755,57.84 749.790516,55.71 C753.912663,50.9 759.645649,50.59 764.408129,48.63 C769.17061,46.67 774.253257,42.73 779.806149,47.43 Z" id="Path" fill="#000000"></path>
            <path d="M803.318395,239.200009 C806.730172,237.88 808.841271,236.92 811.042418,236.2 C825.489943,231.78 839.967483,227.42 854.545076,223.41 C844.289734,231 817.725899,239.21 803.318395,239.200009 Z" id="Path" fill="#000000"></path>
            <path d="M398.487546,154.88 L434.506305,130.62 C435.867014,134.14 432.985513,136.16 430.754351,138.02 C421.266836,145.788312 410.284449,151.526811 398.487546,154.88 Z" id="Path" fill="#000000"></path>
            <path d="M1684.19719,145.46 L1722.74726,141.17 C1715.89369,146.89 1705.3482,148.1 1684.19719,145.46 Z" id="Path" fill="#000000"></path>
            <path d="M532.197186,241.67 L555.999583,241.67 C549.416154,245.23 542.522564,245.97 535.46889,245.12 C534.618447,245 533.928088,243.55 532.197186,241.67 Z" id="Path" fill="#000000"></path>
            <path d="M653.070141,74 L660.944242,73.18 L660.944242,74.84 C658.282856,74.54 655.631475,74.24 652.940073,73.84 C652.930068,73.86 653.070141,74 653.070141,74 Z" id="Path" fill="#000000"></path>
            <path d="M199.60396,108.86 C262.686816,79.01 330.772277,68.03 398.987806,55.86 C394.695571,59.86 390.443356,63.86 386.061073,67.72 C384.971578,68.8178271 383.577341,69.5633554 382.058989,69.86 C346.220323,72.76 311.71235,81.95 277.414487,91.98 C261.936425,96.51 246.458364,100.87 231.460552,107.27 C221.885565,111.33 210.399583,110.13 199.60396,108.86 Z" id="Path" fill="#FFFFFF"></path>
            <path d="M1722.71725,72.7 C1718.85524,73.86 1715.03325,75.18 1711.1112,76.1 C1709.3344,76.5606155 1707.46263,76.5016108 1705.71839,75.93 C1675.70276,64.06 1644.17634,58.09 1612.56988,52.57 C1602.47462,50.8 1592.12923,50.41 1582.03398,48.65 C1573.55274,47.1680685 1565.58665,43.5586988 1558.88192,38.16 C1615.55143,39.36 1668.93924,55.8 1722.74726,70.75 L1722.71725,72.7 Z" id="Path" fill="#FFFFFF"></path>
            <path d="M617.191454,31.21 C662.417156,22.2125686 708.304572,16.9349029 754.392913,15.43 C749.880563,19.43 744.497759,20.54 738.754768,20.77 C704.921332,22.1738287 671.248684,26.2093659 638.042314,32.84 C631.378843,34.15 624.235122,33.03 617.311516,33.03 L617.191454,31.21 Z" id="Path" fill="#FFFFFF"></path>
            <path d="M1029.27608,18.21 C1069.56617,14.9112067 1110.08827,15.7422024 1150.20907,20.69 C1144.20594,21.27 1138.20281,22.55 1132.19969,22.29 C1114.47045,21.54 1096.78124,19.52 1079.06201,19.29 C1069.59708,19.18 1059.94205,18.9 1050.44711,21.96 C1043.29338,24.27 1036.06962,21.18 1029.27608,18.21 Z" id="Path" fill="#FFFFFF"></path>
            <path d="M541.482022,205.33 C544.573632,204.22 547.655237,203.07 550.776863,202.02 C578.021053,192.77 606.215737,187.48 634.370401,182.02 C650.909015,178.81 667.437624,175.49 684.07629,172.95 C700.714956,170.41 717.463679,168.16 734.252423,166.95 C759.115373,165.15 784.048359,163.95 808.971339,163.43 C818.296196,163.25 827.671079,165.88 836.98593,168.49 C828.141324,171.93 820.267223,175.99 809.811777,173.49 C800.376863,171.26 789.991454,172.87 780.026264,173.09 C752.81209,173.69 726.098176,178.56 699.254195,182.44 C661.564565,187.89 624.585305,196.62 587.515998,205.12 C572.718291,208.52 557.28025,208.56 542.032308,207.66 C541.872225,206.9 541.682126,206.11 541.482022,205.33 Z" id="Path" fill="#FFFFFF"></path>
        </g>
    </g>
</svg>