<svg width="503" height="409" viewBox="0 0 503 409" xmlns="http://www.w3.org/2000/svg"><g fill="none"><path d="M438.155 365.701c3.06 7.06 1.89 13.77-2.11 20.1a22.75 22.75 0 01-13.16 10c-10.207 2.971-21.042-2.039-25.39-11.74-4.24-9.61-4.18-22.87 10.72-31.74-1.83-.1-3.65-.27-5.47-.27h-133.62c-14.19 0-28.37.08-42.55 0-12.17-.09-24.34-.34-36.51-.63a8.76 8.76 0 00-6.72 2.52c-4.28 3.9-9.06 7.26-13.43 10.68-.23 4.07 0 8.07-.77 11.87-2 10.1-11.76 18-22.21 18.59a25.17 25.17 0 01-24.92-15.8c-7.14-18.58 9.63-33.91 25.72-30.68 4.34.87 8.47-3.17 8-7.6-1.3-12.57-2.5-25.15-4-37.69-.39-3.29.64-5.4 2.84-7.65 11.93-12.22 23.72-24.58 35.6-36.93l-1.66-11.79 7.87-1.17c-.69-2.24-1.32-4.4-2-6.55-1.54-4.84-3-9.69-4.66-14.49-.73-2.16-1.11-4.58-4-5.33-.57-.15-1.28-2.68-.92-3 2.24-2.05.76-4 .12-5.91a88230.46 88230.46 0 00-20.42-62.62c-3.54-10.87-7-21.76-10.58-32.64-.55-1.68-1-3.23-3-4.19-4.23-2-4.22-3-.5-6.6l-8.82-27.94c-3.85-.16-6.48 1.89-8.86 4a389.16 389.16 0 00-32.09 31c-8 8.8-18.57 13-30.92 11.33-14-1.9-27.53-1.19-39.9 6.68-1.84 1.16-3.84 2.06-5.74 3.13-5.86 3.31-9.52 1.09-9.54-5.78a11.7 11.7 0 00-.16-1.36c-5.7-2-4.58-6.34-3.25-10.58-1.8-1.52-4-2.6-4.84-4.34-.73-1.52.07-3.78.19-5.68-1.2-1.5-3.2-3-3.56-4.75-.33-1.65 1.12-3.65 1.96-5.91l-4.56-3c-1.39-6 1.73-10.39 6-13.53 10.36-7.59 21.69-13.66 34.73-14.43a70 70 0 0121.56 2.16c10.79 2.81 19.7.09 27.8-6.72 3.3-2.78 6.22-6 9.27-9.09 3.81-3.85 7.57-7.75 11.74-12-7.31-4.82-13.3-11.94-23-13.05a16.58 16.58 0 01-5.68-1.78c-7.56-4-9-9.16-6.85-17.37 1.13-4.3 4.85-6.4 9.48-5 10.59 3.22 21.37 6.46 30.12 13.5 3.38 2.72 6.46 5.37 10.82 6.6 10.25-9.58 22.78-14.73 36.57-16.17 17.25-1.73 34.66.78 50.72 7.31 2.86 1.13 5.16 3.65 8.43 6.06a66.54 66.54 0 0123.46-3.44c7 .18 13.5.92 17.57 8.12 10.08-9.73 22.37-13.7 35.48-15.16a77.05 77.05 0 0117.29.52c5.61.65 9.25 3.6 10.88 9.71 4 15.06 8.77 29.93 13.16 44.9.76 2.59 1.22 5.27 2 8.59l10.59 1.37c6-13.63 8.15-28.18 14.34-41.85 24.24-3.22 45.11 3.26 64.06 20 10.82-1 22.25 1.55 33.28 6a54 54 0 0119 13.41c2.73 2.89 4.35 6.15 1.84 10.25-1 1.6-1.16 3.7-1.86 6.12 4.5.61 8.59 1.12 12.67 1.73 5.9.9 6.36 1.38 6.322 7.27a40.099 40.099 0 01-.682 7.57c-.63 3.15-2.13 5.82-6.08 6.74-.64 6.51-1.24 13.15-1.95 19.78-2.074 19.6-4.177 39.197-6.31 58.79-.93 8.47-2.19 16.89-3 25.36-.14 1.46 1.06 3.06 1.85 5.14-5.64 5.95-3.51 14.27-5 22 1.18.53 2 .95 2.79 1.24 2.56.89 3.27 2.66 2.54 5.15-.25.87-.51 1.75-.78 2.61-1.64 5.22-1.64 5.21-7.23 5.3-30.527.527-61.057 1.043-91.59 1.55-3.05 0-5.77.3-7.69 3a9.47 9.47 0 01-1.68 1.37c-12.09 10.09-10.31 8.6-24.55 8.72-21.63.2-43.26.37-64.88.63-25.07.31-50.13.75-75.19 1-3.42 0-6.23.73-8.81 3.27-10.22 10.07-20.63 20-30.63 29.57-.1 1-.16 1.33-.17 1.69-.11 6.37 3 9.83 8.88 12.54 8.84 4.1 17.06 9.53 25.63 14.24a9.94 9.94 0 004.62.87c14.36.06 28.72.06 43.08 0 32.906-.173 65.813-.37 98.72-.59 30.353-.167 60.71-.32 91.07-.46a14.4 14.4 0 012.18 0c3.63.59 8.24-1.86 10.26 3.59 2.1 5.63.92 12.38-3.28 16.06-4.5 3.95-9.15 7.72-13.72 11.58-.78.64-1.42 1.26-2.37 2.12zm-419.53-237.68c1.8 2.09 3.07 1.18 4.8.13 7.94-4.83 16.17-9.34 25.63-10 7.58-.57 15.23-.29 22.84-.2 11.08.13 20.89-3.1 28.38-11.43 11.78-13.12 23.9-25.78 39.83-34.86-1.1-3.58-2.25-7.19-3.31-10.81-1-3.25-1.26-6.89-5.71-7.52-.54-.08-.89-1.09-1.44-1.53-4.9-4-9.83-7.89-14.82-11.88-4.89 3.49-7.92 8-11.06 12.4-2.5 3.53-5.05 7.21-8.31 10-7.5 6.37-15.37 12.43-26.23 10.94-2.51-.34-5-.95-7.5-1.33-6.81-1-13.64-2.9-20.44-2.79-11.25.19-21.73 4-31 10.43-3.33 2.28-6.73 4.86-7.88 9.19 8 3.57 8.16 3.92 5.47 11 6.24 1.79 1.02 5.74 1.49 8.74 1.94 1.53 4.61 2.62 5.35 4.49.81 2-.17 4.77-.36 7.08l5.4 2.29-1.13 5.66zm124.85-60.12l331 33.94v-9.65c-111.69-12.43-223.37-22-335.32-36.9 1.74 4.95 3.09 9.01 4.32 12.61zm309.81 270.76l-292.07 1.09v6.65l290.53 1.23c.54-3.13 1.02-5.91 1.54-8.97zm-129.67-316c-16.24 13.81-34.81 16.78-55.1 14.38l6.92 26.93 61.65 6.67c-4.58-16.35-8.97-31.97-13.47-48.01v.03zm-129.92 232.84c5 .18 9.85.48 14.68.48 3.62 0 7.23-.49 10.85-.58 17.253-.4 34.5-.767 51.74-1.1 21.24-.4 42.483-.767 63.73-1.1 21.786-.373 43.576-.733 65.37-1.08 24.873-.387 49.75-.76 74.63-1.12 2.1 0 4.2-.34 6.08-.5 1.31-3.55 0-5.12-2.86-5.59a34.74 34.74 0 00-5.95-.42c-20-.05-39.88.54-59.83 1.47-28.46 1.34-57 1.29-85.49 1.76-9.81.16-19.63-.07-29.44.16-17.77.41-35.55 1.07-53.32 1.54-3.58.09-7.21.5-10.65-1.4-1.12-.62-2.85-.24-4.29-.17-3.07.14-6.15.33-9.21.59-8.49.72-17 1.5-25.45 2.28-.29 0-.57.36-1.12.74l.53 4.04zm178.81 1.73c-4.83 0-8.78-.09-12.73 0-9.26.26-18.51.66-27.77.91-14.88.41-29.77.82-44.65 1.08-24.16.44-48.32.76-72.48 1.11-4.18.06-8.37.11-12.54 0a7.68 7.68 0 00-6.26 2.52 4630.668 4630.668 0 01-36.36 36.91 5 5 0 00-1.68 4.78c.68 4.28 1 8.63 1.56 12.94.73 5.69 1.54 11.37 2.34 17.22l8.14-1.12c-.72-9.11-1.52-17.9-2-26.71a8 8 0 011.55-5.43c9.47-10.28 19.18-20.36 28.8-30.51a7.18 7.18 0 015.09-2.58c7.23-.47 14.42-1.74 21.64-2 18.886-.587 37.776-.963 56.67-1.13 25.09-.18 50.19-.24 75.27.1 6.52.18 11.11-2.05 15.41-8.07v-.02zm-166.79-42.4c-9.42-34.23-18.62-67.69-27.82-101.17-6.12-.5-11.71-1-17.3-1.39-.31 0-.64.28-1.53.71a834210.9 834210.9 0 0033.49 101.85h13.16zm130.61-.06c-2.43-29.81-4.84-59.32-7.29-89.35l-18-1.29c2.45 30.59 4.84 60.59 7.24 90.64h18.05zm-132.43-98.89c7.73 33.25 15.33 66 22.94 98.75h12.77c-5.75-32.53-11.42-64.57-17.18-97.09l-18.53-1.66zm84.77 6.62l10.66 92.18h14.57c-.34-5.71-.56-11.1-1-16.47-1.26-15.86-2.63-31.71-3.87-47.57-.6-7.76-1-15.53-1.47-23.29-.12-2.25-.67-3.88-3.34-4-5-.17-10.02-.5-15.55-.85zm103.06 92.32c.69-13.84 1.34-27.22 2-40.59.666-13.573 1.38-27.143 2.14-40.71.1-1.93-.5-3.31-2.52-3.47-5.52-.43-11.06-.72-16.69-1.08v85.85h15.07zm-125-93.94c4.15 31.67 8.22 62.76 12.28 93.78h15.19c-3.74-31-7.44-61.68-11.18-92.66l-16.29-1.12zm-10.53 93.89c-4.51-32.29-8.93-63.92-13.37-95.68l-16-1.28c5.7 32.78 11.27 64.78 16.87 97l12.5-.04zm114.75 0v-85.95a83.86 83.86 0 00-18.76-1.21c2.1 29.36 4.15 58.14 6.22 87.16h12.54zm46.15-82.66l-16.29-1.22c-1.86 15.43-4.65 80.19-3.6 84.09h14.76c1.71-27.55 3.4-54.9 5.13-82.87zm-234.07-17.9c9.17 34 18.15 67.29 27.13 100.59h10.91c-7.46-33.3-14.85-66.24-22.27-99.3l-15.77-1.29zm233.57-35c2.5-6.107 4.936-12.05 7.31-17.83-20.81-1.66-40.14-6.41-56.95-19.17-2.41 10.5-4.72 20.6-7.06 30.85l56.7 6.15zm-168.63 40.5l14 95h12.25c-3.95-31.53-7.85-62.7-11.82-94.34l-14.43-.66zm182 95.57c2.21-27.48 4.38-54.39 6.58-81.74-2.88-.16-5-.33-7.14-.38-2.29-.06-4.59 0-7.46 0-1.36 27.4-2.7 54.57-4.06 82.13l12.08-.01zm-94.94-89.39c2.86 30 5.66 59.45 8.46 88.75h10.51c-1.78-29.45-3.54-58.47-5.31-87.76l-13.66-.99zm119.52 9.24l-13.51-1c-2.26 27.36-5.22 54.07-7 81.11h12.07c2.79-26.81 5.58-53.2 8.43-80.11h.01zm-296.12-97.11c3.18 1.66 6.4 3.26 9.54 5 6.9 3.82 14.91 5.69 20.58 11.68.27.26.625.417 1 .44 4.43.37 8.87.7 14 1.09-1.32-4.8-3-8.88-3.44-13.09-.44-4.21.47-8.74.81-13.44-13.35-1.14-25.66-6.83-37.34-16l-5.15 24.32zm319.92 178.06c2.92-26.62 5.76-52.53 8.64-78.7l-12.51-.68c-2.92 26.31-5.81 52.37-8.74 78.79l12.61.59zm-210-152.92l-7.2-28c-16.91 11.12-34.75 13.06-54.19 9.46 1.09 4.47 2 8.24 3 12.4l58.39 6.14zm-6.52 24c1.31 8.78 2.62 17.6 4 26.77l16.49 1.14c-1-9.53-2-18.44-2.91-27.59l-37.56-3.76c1.71 10.14 3.29 19.44 4.83 28.58l14.59 1.13a5.73 5.73 0 00.37-1.47c-.89-7-1.87-14-2.68-21-.19-1.58-.77-3.84 2.88-3.8h-.01zm199.73 128.15c3.05-26.49 6-52.47 9.07-78.84l-11.17-1c-2.65 26.73-5.27 53.12-7.92 79.88l10.02-.04zm-238.9-174.3c5.92-.91 12.3-1.38 18.39-3 5-1.32 9.8-3.73 14.42-6.16 4.23-2.22 4.44-6.5-.55-9.86a11 11 0 00-4.08-1.41 57.78 57.78 0 00-24.28.64c-6.78 1.61-12.86 4.9-18.54 8.89-2.16 1.52-3.16 3.91-2.35 6.17.47 1.3 2.6 2.47 4.18 2.82 4.05.88 8.2 1.26 12.81 1.91zm99-24.7c-2.72-2.77-4.82-4-9.07-4.11-14.57-.52-28.51 2.1-41.41 9.15-2.62 1.44-5.92 3-4.92 6.89.92 3.61 4.39 4.18 7.37 4.49a63 63 0 0011.33.08 68 68 0 0029.37-8.95c3.13-1.8 6.26-3.78 7.37-7.55h-.04zm-145.42 90.53c-2.75-10.87-5.31-21-7.9-31.19-7.46-.56-14.59-2.35-21.82-2.18-.16 1.09-.34 1.49-.24 1.79 3.11 9.27 6.27 18.52 9.35 27.8.69 2.08 2.12 2.75 4.1 2.85 5.22.28 10.43.59 16.51.93zm-5-53.52v-.62c-5.49-2.74-11.1-5.24-16.43-8.25a1864.235 1864.235 0 01-37.62-21.79c-2.55-1.52-4.57-1.65-7-.27-2.07 1.18-4.2 2.26-6.74 3.61 1.66 1.08 2.7 1.77 3.76 2.43 5.22 3.28 10.56 6.38 15.63 9.86 5.36 3.68 10.45 7.75 15.71 11.56a6.08 6.08 0 002.92 1c9.93.89 19.84 1.65 29.76 2.47h.01zm49.82 56.9c-1.76-10.09-3.41-19.58-5.1-29.22l-21.66-2.35c2.37 9.57 4.57 18.48 6.78 27.38a3.77 3.77 0 003.82 3.17c5 .3 10 .63 16.15 1.02h.01zm63-22.11c1.29 9.65 2.46 18.38 3.68 27.45 6.31.31 12.25 1.94 18.85.94-.31-5.13-.62-9.95-.89-14.78-.15-2.71-.11-5.44-.42-8.13-.2-1.75-.5-3.74-2.93-4l-18.29-1.48zm-86.63 20.1l-6.07-29.77a171.42 171.42 0 00-19.39-2c3 10.2 5.63 19.58 8.5 28.91a3.8 3.8 0 002.66 2.16c4.59.38 9.26.48 14.26.7h.04zm152.66-13.64c.52 9.12 1 17.66 1.51 26.4l19.87 1.45c-1.31-9 2-17.28-.84-25.9l-20.54-1.95zm26.58 2.56v25.81l19.65 1.56c.47-8.76.9-16.81 1.35-25.29l-21-2.08zm-227 285.68c-2.17 3.18-3.23 3.86-5.18 4-8.44.46-15.93-6.54-16.54-15.47-.57-8.46 5-14.73 13.84-15.58a17.22 17.22 0 003.33-1c-4.57-1.19-8.55-.18-12.3 1.71-5.55 2.79-8.33 7.32-8.15 13.57.23 8 4.31 13.72 11 17.6 11.95 6.92 27.18.13 29.76-13.22.39-2 1.18-4.24-.75-5.82-5.75 3.11-11.49 5.79-16.74 9.22-3.46 2.26-6.15 1.52-8.92-.46-3.17-2.26-4.07-5.19-2.74-9.09 1-3 2.48-5.81 3.81-8.86-6.31 2.19-9.09 6.29-8 12.83a17.64 17.64 0 003.66 7.65c3.33 4.17 8.35 3.49 13.92 2.92zm219.42-348.76c-.85 3.7 1.52 4.71 3.42 6 11.41 7.86 24.53 11.37 37.72 14.53 3.81.91 7.87.93 11.82 1.06 1.21 0 2.46-.89 3.82-1.43-1.46-4.36-4.65-6.19-7.83-7.76a161.53 161.53 0 00-14.87-6.59c-10.91-4.09-22.16-6.44-34.08-5.81zm-61 56.73c.81 9.11 1.57 17.68 2.38 26.7l18.28 1.54c-.6-9.18-1.16-17.61-1.74-26.52-6.34-.87-12.46-1.86-18.92-1.72zm-87.62-9.28c1.87 10.34 3.09 19.88 5.39 29.25l16.2.95c-1.24-9.93-2.39-19.16-3.55-28.43l-18.04-1.77zm194.7 275.57l-.89-.94c-11.7 1.53-16.5 12.25-14.58 20.81 1.84 8.21 9.81 17.08 21.35 14.76a18.44 18.44 0 0013.73-23.53 13.41 13.41 0 00-2.26 1.3c-3.12 2.71-6.27 5.4-9.26 8.27-2.99 2.87-7.76 4.07-11 2.44-3.24-1.63-4.29-5.08-3.26-9.92.39-1.8.79-3.6 1.31-6-4.8 4.27-5.86 7-4.79 11.21 2.45 9.78 12.29 13.26 20.36 7.22 1-.78 1.79-2.57 3.58-1.2a13.91 13.91 0 01-20.44 4.46c-11.05-8.43-6.62-22.69 2.45-25.78 1.43-.44 2.48-2.01 3.7-3.08v-.02zm15.3-302.43c-.56 4.88-.37 5.32 4.27 7.71 6.78 3.47 13.49 7.12 20.45 10.19a101.07 101.07 0 0015.91 5.41 12.51 12.51 0 0010.74-1.83c-6.74-10.86-36.41-23.29-51.37-21.46v-.02zm-30 70.15l17.19 1.33 1.93-24.72-18.07-1.79c-.36 8.46-.7 16.53-1.06 25.2l.01-.02zm-52-4.17c-.64-9.3-1.22-17.85-1.82-26.51l-15.62-1.34c1.11 9.31 2.14 17.83 3.2 26.65l14.24 1.2zm130.68-37.79c-20.12 1.7-35.36-9.38-51.52-19.11-1.71 5.1-3.47 10.32-5.39 16.06 4.23.45 8 .83 11.75 1.25 13.7 1.51 27.39 3 41.08 4.57 2.28.29 4 .12 4.07-2.75l.01-.02zm-42.07 44.9c.82-8.19 1.61-16 2.45-24.33l-16.84-1.72v24.82l14.39 1.23zm-97.72 114.26c-.73-6.93-1.43-13.49-2.13-20h-18.39c.5 6.86 1 13.29 1.46 20h19.06zm-174.46-232.6c4 2.12 7.21 3.4 9.95 5.34 7.77 5.5 16.65 7.78 25.73 9.63a17.53 17.53 0 0015.92-4.25c-8.14-7.38-39.81-14.25-51.6-10.72zm11.8 343.2l-.42-1.66c-2.82 0-5.64-.1-8.46 0-7.62.31-15.14.79-19.75 8.42-1.39 2.29-3.5 4.15-5.21 6.26a7.77 7.77 0 00-1.73 2.75c-.33 1.31-.77 3.34-.11 4a6.5 6.5 0 004.65 1.8 13 13 0 005.95-2.45c8.47-6.21 16.76-12.73 25.11-19.12h-.03zm-24-317.94c2.32-8.58 4.51-16.65 7-25.93-10.61 4.51-21 6.56-29 14.44l22 11.49zm290.67 69.06c-.61 8.32-1.18 16.15-1.79 24.46l13.76.74c1-8.25 1.86-15.85 2.79-23.74l-14.76-1.46zm-145.55 138.85c-.81-6.65-1.49-12.9-2.45-19.11a3.51 3.51 0 00-2.55-2.18c-4.27-.23-8.57-.1-13-.1 1 7.71 1.11 14.74 2.92 21.39h15.08zm180.08-135.59c-2.25 7.67-2 15.61-3 24.25 5-1.08 9.13 1.61 13.44-.23 1-7.33 2-14.45 3-22l-13.44-2.02zm-64 264.76c3 2.85 5.79 2.3 8.44.15 7.29-5.9 14.53-11.87 21.76-17.84.34-.28.43-.85.82-1.68h-22.02l-9 19.37zm-19.15-130.23h16c.3-6.46.59-12.64.89-19h-15.74c-.37 6.35-.74 12.39-1.15 19zm-78.53.77c-.32-4-.54-7.21-.84-10.44-.3-3.23-.68-6.68-1-9.94h-14.4c.79 7.12 1.54 13.87 2.35 21.08l13.89-.7zm74.39-.78c.3-6.52.58-12.7.86-19.09h-15.29v19.1l14.43-.01zm-183.39-20.79h-12.82c2.68 8.07 5.24 15.76 7.94 23.9l11.23-.85c-2.24-8.15-4.29-15.58-6.35-23.05zm20.74 0c1.61 7.62 3.17 14.95 4.75 22.45h12l-4.1-22.45h-12.65zm29.24.44c-4.31.38-8.26-1.17-12.43.13 1.29 7.54 2.52 14.72 3.75 21.85h12.06c-1.13-7.36-2.22-14.42-3.38-21.98zm216.7-114.37l-12-1.16c-.29 8.22-2.09 15.79-1.3 24l10.5.53 2.8-23.37zm-208.29 135.73h12.5c-1-7.41-2-14.26-3-21h-12.28c.95 7.23 1.85 14 2.78 21zm-155.49-225.61c-7-5.45-14.44-8.48-22.35-10.61-2.24-.6-4.76-1.26-5.91.88a11.23 11.23 0 00-.73 6.69c.21 1.32 1.79 2.87 3.14 3.49 4.23 2 8.63 3.64 13 5.24a4.3 4.3 0 003.09-.25c3.19-1.61 6.24-3.45 9.76-5.44zm118 226.86c-1.09-4.48-2-8.14-2.87-11.81-.87-3.67-1.85-7.6-2.71-11.15h-10.71c2.2 8 4.29 15.55 6.33 23l9.96-.04zm247.5-2.83c.72-6.58 1.39-12.71 2.11-19.37l-12.48.56c-.86 6.52-1.65 12.49-2.48 18.81h12.85zm-116.82-18.85c.46 6.87.89 13.28 1.37 20.28l10.73-.55v-19.73h-12.1zm84.87 19c.57-6.52 1.08-12.51 1.6-18.51h-12c-.34 6.41-2 12.37-.93 18.51h11.33zm-99.94-19.23c.54 7 1 13.45 1.54 20.14h10.78c-.54-6.87-1-13.39-1.58-20.14h-10.74zm83.59 19.5c.8-6.54 2.2-12.62 1.4-18.76h-11.48c-.3 6.45-.57 12.51-.88 19.26l10.96-.5zm23.44-19c-.68 6.32-1.33 12.29-2 18.57h10c.37-6.22 2.92-12.14 1.43-18.57h-9.43zm29.47-120.48l15.84 2.21c.47-3.74.83-6.67 1.23-9.86l-16.09-1.38c-.31 3.08-.6 5.54-.98 9.08v-.05zm-284.33 231.58l.1-.91-21.38-11.18c.5 4.78.89 8.55 1.25 12.09h20.03z" fill="#000"/><path d="M18.625 128.021l1.13-5.71-5.4-2.29c.19-2.31 1.17-5.05.36-7.08-.74-1.87-3.41-3-5.35-4.49-.45-2.93 4.75-6.9-1.54-8.74 2.69-7.1 2.51-7.45-5.47-11 1.15-4.33 4.55-6.91 7.88-9.19 9.32-6.39 19.8-10.24 31.05-10.43 6.8-.11 13.63 1.76 20.44 2.79 2.51.38 5 1 7.5 1.33 10.86 1.49 18.73-4.57 26.23-10.94 3.26-2.76 5.81-6.44 8.31-10 3.14-4.44 6.17-8.91 11.06-12.4 5 4 9.92 7.92 14.82 11.88.55.44.9 1.45 1.44 1.53 4.45.63 4.76 4.27 5.71 7.52 1.06 3.62 2.21 7.23 3.31 10.81-15.93 9.08-28.05 21.74-39.83 34.86-7.49 8.33-17.3 11.56-28.38 11.43-7.61-.09-15.26-.37-22.84.2-9.46.7-17.69 5.21-25.63 10-1.73 1.1-3 2.01-4.8-.08zm124.85-60.12c-1.23-3.6-2.6-7.66-4.28-12.61 112 14.88 223.63 24.47 335.32 36.9v9.65l-331.04-33.94zm309.81 270.76c-.52 3.06-1 5.83-1.54 9l-290.53-1.26v-6.65l292.07-1.09zm-9.85 3.57c.47 1.61 1.43 2.61 3.11 1.87a2.38 2.38 0 00.5-2.2c-1.15-1.22-2.52-1.28-3.61.33zm-119.82-319.6c4.5 16 8.89 31.66 13.47 48l-61.65-6.67-6.92-26.93c20.29 2.38 38.86-.59 55.1-14.4zm-129.92 232.87l-.53-4c.55-.38.83-.71 1.12-.74 8.48-.78 17-1.56 25.45-2.28 3.06-.26 6.14-.45 9.21-.59 1.44-.07 3.17-.45 4.29.17 3.44 1.9 7.07 1.49 10.65 1.4 17.77-.47 35.55-1.13 53.32-1.54 9.81-.23 19.63 0 29.44-.16 28.5-.47 57-.42 85.49-1.76 19.95-.93 39.87-1.52 59.83-1.47a34.74 34.74 0 015.95.42c2.81.47 4.17 2 2.86 5.59-1.88.16-4 .46-6.08.5-24.88.393-49.757.767-74.63 1.12-21.787.34-43.577.7-65.37 1.08-21.24.36-42.484.727-63.73 1.1-17.247.327-34.494.693-51.74 1.1-3.62.09-7.23.58-10.85.58-4.83-.02-9.67-.32-14.68-.52zm178.81 1.75c-4.3 6-8.89 8.2-15.42 8.11-25.08-.34-50.18-.28-75.27-.1-18.894.14-37.784.517-56.67 1.13-7.22.23-14.41 1.5-21.64 2a7.18 7.18 0 00-5.09 2.58c-9.62 10.15-19.33 20.23-28.8 30.51a8 8 0 00-1.55 5.43c.49 8.81 1.29 17.6 2 26.71l-8.17 1.09c-.8-5.85-1.61-11.53-2.34-17.22-.56-4.31-.88-8.66-1.56-12.94a5 5 0 011.68-4.78 6540.54 6540.54 0 0036.36-36.91 7.68 7.68 0 016.26-2.52c4.17.14 8.36.09 12.54 0 24.16-.35 48.32-.67 72.48-1.11 14.88-.26 29.77-.67 44.65-1.08 9.26-.25 18.51-.65 27.77-.91 3.99-.08 7.94.01 12.77.01zm-166.79-42.42h-13.16l-33.49-101.85c.89-.43 1.22-.73 1.53-.71 5.59.43 11.18.89 17.3 1.39 9.2 33.48 18.4 66.94 27.82 101.17zm130.61-.06h-18.05c-2.4-30-4.79-60-7.24-90.64l18 1.29c2.45 30.08 4.86 59.54 7.29 89.35zm-132.43-98.89l18.48 1.62c5.76 32.52 11.43 64.56 17.18 97.09h-12.77c-7.61-32.74-15.21-65.46-22.89-98.71zm84.77 6.62c5.53.31 10.55.64 15.57.86 2.67.11 3.22 1.74 3.34 4 .44 7.76.87 15.53 1.47 23.29 1.24 15.86 2.61 31.71 3.87 47.57.42 5.37.64 10.76 1 16.47h-14.59l-10.66-92.19zm103.06 92.36h-15v-85.85c5.63.36 11.17.65 16.69 1.08 2 .16 2.62 1.54 2.52 3.47-.74 13.567-1.454 27.137-2.14 40.71-.73 13.37-1.38 26.75-2.07 40.59zm-125-93.94l16.29 1.12c3.74 31 7.44 61.64 11.18 92.66h-15.19c-4.06-31.02-8.11-62.11-12.28-93.78zm-10.53 93.85h-12.54c-5.6-32.18-11.17-64.18-16.87-97l16 1.28c4.48 31.8 8.9 63.45 13.41 95.72zm114.75 0h-12.54c-2.07-29-4.12-57.8-6.22-87.16a83.86 83.86 0 0118.76 1.21v85.95zm46.15-82.66c-1.73 28-3.42 55.32-5.13 82.87h-14.76c-1.05-3.9 1.74-68.66 3.6-84.09l16.29 1.22zm-234.07-17.9l15.77 1.29c7.42 33.09 14.81 66.07 22.27 99.33h-10.91c-8.98-33.33-17.96-66.61-27.13-100.62zm233.57-34.99l-56.7-6.15c2.34-10.25 4.65-20.35 7.06-30.85 16.81 12.76 36.14 17.51 56.95 19.17-2.38 5.793-4.817 11.737-7.31 17.83zm-168.63 40.49l14.47.69c4 31.64 7.87 62.81 11.82 94.34h-12.25l-14.04-95.03zm181.99 95.57h-12.06c1.36-27.56 2.7-54.73 4.06-82.13 2.87 0 5.17-.05 7.46 0 2.13.05 4.26.22 7.14.38-2.22 27.36-4.39 54.27-6.6 81.75zm-94.94-89.39l13.66 1c1.77 29.29 3.53 58.31 5.31 87.76h-10.51c-2.8-29.31-5.58-58.72-8.46-88.76zm119.52 9.24c-2.85 26.91-5.64 53.3-8.47 80.09h-12.07c1.81-27 4.77-53.75 7-81.11l13.54 1.02zm-296.11-97.11l5.08-24.33c11.68 9.18 24 14.87 37.34 16-.34 4.7-1.22 9.13-.81 13.44.41 4.31 2.12 8.29 3.44 13.09-5.09-.39-9.53-.72-14-1.09a1.58 1.58 0 01-1-.44c-5.67-6-13.68-7.86-20.58-11.68-3.07-1.73-6.29-3.33-9.47-4.99zm319.92 178.06l-12.61-.58c2.93-26.42 5.82-52.48 8.74-78.79l12.51.68c-2.88 26.16-5.72 52.11-8.64 78.69zm-209.99-152.92l-58.37-6.13c-1-4.16-1.93-7.93-3-12.4 19.44 3.6 37.28 1.66 54.19-9.46l7.18 27.99zm-6.52 24c-3.65 0-3.07 2.22-2.89 3.83.81 7 1.79 14 2.68 21a5.73 5.73 0 01-.37 1.47l-14.59-1.13c-1.54-9.14-3.12-18.44-4.83-28.58l37.56 3.75c1 9.15 1.9 18.06 2.91 27.59l-16.49-1.14c-1.36-9.19-2.67-18.01-3.98-26.79zm199.72 128.15h-10c2.65-26.76 5.27-53.15 7.92-79.88l11.17 1c-3.05 26.41-6.04 52.39-9.09 78.88zm-238.9-174.3c-4.61-.65-8.76-1-12.81-1.91-1.58-.35-3.71-1.52-4.18-2.82-.81-2.26.19-4.65 2.35-6.17 5.68-4 11.76-7.28 18.54-8.89a57.78 57.78 0 0124.28-.64 11 11 0 014.08 1.41c5 3.36 4.78 7.64.55 9.86-4.62 2.43-9.41 4.84-14.42 6.16-6.09 1.62-12.47 2.09-18.39 3zm19.07-15c-6-2.59-17.06-.9-21.14 3.07-1.81 1.76-1.65 2.79.88 5 2.34-3.41 6-4.25 9.76-4.73a42.64 42.64 0 017.58-.22c2.16.14 2.89-.82 2.92-3.1v-.02z" fill="#FFF"/><path d="M321.695 16.311c-1.11 3.77-4.24 5.75-7.33 7.55a68 68 0 01-29.37 8.95 63 63 0 01-11.33-.08c-3-.31-6.45-.88-7.37-4.49-1-3.92 2.3-5.45 4.92-6.89 12.9-7 26.84-9.67 41.41-9.15 4.27.16 6.35 1.3 9.07 4.11zm-42 9.95c6.05-3.82 12.73-5 19.61-5.43 1.5-.1 3.64.51 3.75-1.93.12-2.59-2.2-2.43-3.87-2.79a5.45 5.45 0 00-2.69 0c-5.13 1.65-10.26 3.29-15.3 5.18-2.3.86-2.3 2.87-1.52 4.97h.02zm-103.46 80.58c-6.08-.35-11.29-.65-16.51-.93-2-.1-3.41-.77-4.1-2.85-3.08-9.28-6.24-18.53-9.35-27.8-.1-.3.08-.7.24-1.79 7.23-.17 14.36 1.62 21.82 2.18 2.56 10.2 5.15 20.32 7.9 31.19zm-5.01-53.52c-9.92-.8-19.83-1.58-29.75-2.44a6.08 6.08 0 01-2.92-1c-5.26-3.81-10.35-7.88-15.71-11.56-5.07-3.48-10.41-6.58-15.63-9.86-1.06-.66-2.1-1.35-3.76-2.43 2.54-1.35 4.67-2.43 6.74-3.61 2.42-1.38 4.44-1.25 7 .27a1960.211 1960.211 0 0037.62 21.81c5.33 3 10.94 5.51 16.43 8.25l-.02.57zm49.82 56.9c-6.12-.39-11.14-.76-16.16-1a3.77 3.77 0 01-3.82-3.17c-2.21-8.9-4.41-17.81-6.78-27.38l21.66 2.35c1.69 9.62 3.34 19.11 5.1 29.2zm62.97-22.11l18.29 1.53c2.43.21 2.73 2.2 2.93 4 .31 2.69.27 5.42.42 8.13.27 4.83.58 9.65.89 14.78-6.6 1-12.54-.63-18.85-.94-1.22-9.11-2.39-17.85-3.68-27.5zm-86.63 20.1c-5-.22-9.67-.32-14.3-.74a3.8 3.8 0 01-2.66-2.16c-2.87-9.33-5.53-18.71-8.5-28.91 6.496.298 12.97.966 19.39 2l6.07 29.81zm152.66-13.64l20.54 2c2.82 8.62-.47 16.86.84 25.9l-19.87-1.45c-.5-8.79-.99-17.33-1.51-26.45zm26.58 2.56l21 2.11c-.45 8.48-.88 16.53-1.35 25.29l-19.69-1.59.04-25.81zm-226.96 285.68c-5.57.57-10.59 1.25-13.91-3a17.64 17.64 0 01-3.66-7.65c-1.09-6.54 1.69-10.64 8-12.83-1.33 3.05-2.79 5.88-3.81 8.86-1.33 3.9-.43 6.83 2.74 9.09 2.77 2 5.46 2.72 8.92.46 5.25-3.43 11-6.11 16.74-9.22 1.93 1.58 1.14 3.85.75 5.82-2.54 13.38-17.81 20.16-29.76 13.25-6.7-3.88-10.78-9.59-11-17.6-.18-6.25 2.6-10.78 8.15-13.57 3.75-1.89 7.73-2.9 12.3-1.71a17.22 17.22 0 01-3.33 1c-8.8.85-14.41 7.12-13.84 15.58.61 8.93 8.1 15.93 16.54 15.47 1.94-.09 3-.77 5.17-3.95zm219.42-348.76c11.92-.63 23.17 1.72 34.08 5.84a161.53 161.53 0 0114.87 6.61c3.18 1.57 6.37 3.4 7.83 7.76-1.36.54-2.61 1.47-3.82 1.43-3.95-.13-8-.15-11.82-1.06-13.19-3.16-26.31-6.67-37.72-14.53-1.9-1.34-4.27-2.35-3.42-6.05zm16.87 6.62c.22 1.21.16 1.73.36 1.86a3.44 3.44 0 001.82.78c6-.38 11.27 1.73 16.25 4.82a3.4 3.4 0 001.43.72c.63 0 1.72-.15 1.82-.48.22-.7.21-2-.23-2.28a27.7 27.7 0 00-21.45-5.42zm-77.87 50.11c6.46-.14 12.58.85 18.92 1.72.58 8.91 1.14 17.34 1.74 26.52l-18.28-1.52c-.81-9-1.57-17.61-2.38-26.72zm-87.62-9.28l18 1.77c1.16 9.27 2.31 18.5 3.55 28.43l-16.2-.95c-2.26-9.35-3.48-18.89-5.35-29.25zm194.7 275.59c-1.22 1.07-2.27 2.64-3.7 3.12-9.07 3.09-13.5 17.35-2.45 25.78a13.91 13.91 0 0020.44-4.49c-1.79-1.37-2.54.42-3.58 1.2-8.07 6-17.91 2.56-20.36-7.22-1.07-4.25 0-6.94 4.79-11.21-.52 2.38-.92 4.18-1.31 6-1 4.84.13 8.35 3.26 9.92 3.13 1.57 8 .47 11-2.44s6.14-5.56 9.26-8.27a13.41 13.41 0 012.26-1.3 18.44 18.44 0 01-13.73 23.53c-11.54 2.32-19.51-6.55-21.35-14.76-1.92-8.56 2.88-19.28 14.58-20.81l.89.95zm15.3-302.43c15-1.83 44.63 10.6 51.37 21.48a12.51 12.51 0 01-10.74 1.83 101.07 101.07 0 01-15.91-5.41c-7-3.07-13.67-6.72-20.45-10.19-4.64-2.39-4.84-2.87-4.27-7.71zm37.54 18c1.57-.89 1.21-2.38-.55-3.77-5.88-4.64-13-6.15-20.06-7.86-.84-.21-2 .94-3.27 1.58l23.88 10.05zm-67.55 52.15c.36-8.67.7-16.74 1.05-25.18l18.07 1.79-1.93 24.72-17.19-1.33zm-52-4.17l-14.24-1.2c-1.06-8.82-2.09-17.34-3.2-26.65l15.62 1.34c.6 8.66 1.18 17.21 1.82 26.51zm130.68-37.79c-.07 2.87-1.79 3-4.08 2.77-13.69-1.57-27.38-3.06-41.08-4.57-3.76-.42-7.52-.8-11.75-1.25 1.92-5.74 3.68-11 5.39-16.06 16.16 9.76 31.4 20.81 51.52 19.11zm-42.07 44.9l-14.39-1.25v-24.8l16.84 1.72c-.84 8.34-1.62 16.14-2.45 24.33zm-97.71 114.24h-19.06c-.49-6.73-1-13.16-1.46-20h18.39c.67 6.51 1.4 13.07 2.13 20zm-174.46-232.6c11.76-3.53 43.43 3.34 51.6 10.72a17.53 17.53 0 01-15.92 4.25c-9.08-1.85-18-4.13-25.73-9.63-2.71-1.94-5.95-3.23-9.95-5.34zm18.72 4l-.42 1.87c5.43 1.37 10.86 2.75 16.32 4 .33.07.89-.79 1.93-1.77-6.18-2.41-11.55-5.35-17.8-4.08l-.03-.02z" fill="#FFF"/><path d="M176.725 352.591c-8.35 6.39-16.64 12.86-25.08 19.12a13 13 0 01-5.95 2.45 6.5 6.5 0 01-4.65-1.8c-.66-.65-.22-2.68.11-4a7.77 7.77 0 011.73-2.75c1.71-2.11 3.82-4 5.21-6.26 4.61-7.63 12.13-8.11 19.75-8.42 2.82-.11 5.64 0 8.46 0l.42 1.66zm-31.59 20.41c.72-2 1.17-3.29 1.62-4.56-.66-.17-1.49-.69-1.94-.46-1.76.89-2.18 2.23.32 5.02zm7.57-338.35l-22-11.49c8-7.88 18.37-9.93 29-14.44-2.49 9.28-4.68 17.35-7 25.93zm290.67 69.06l14.76 1.46c-.93 7.89-1.82 15.49-2.79 23.74l-13.76-.74c.61-8.31 1.18-16.14 1.79-24.46zm-145.56 138.85h-15c-1.81-6.65-1.95-13.68-2.92-21.39 4.39 0 8.69-.13 13 .1a3.51 3.51 0 012.55 2.18c.88 6.21 1.56 12.46 2.37 19.11zm180.08-135.59l13.46 2c-1 7.59-2 14.71-3 22-4.31 1.84-8.45-.85-13.44.23.98-8.62.76-16.56 2.98-24.23zm-64 264.76l9-19.37h22c-.39.83-.48 1.4-.82 1.68-7.23 6-14.47 11.94-21.76 17.84-2.61 2.15-5.42 2.7-8.42-.15zm-19.15-130.23c.41-6.63.78-12.67 1.17-19h15.68c-.3 6.37-.59 12.55-.89 19h-15.96zm-78.53.79l-13.89.7c-.81-7.21-1.56-14-2.35-21.08h14.39c.33 3.26.7 6.6 1 9.94.3 3.34.53 6.46.85 10.44zm74.39-.79h-14.43v-19.08h15.29c-.28 6.39-.57 12.57-.86 19.08zm-183.39-20.8c2.06 7.47 4.11 14.9 6.35 23.05l-11.23.85c-2.7-8.14-5.26-15.83-7.94-23.9h12.82zm20.74 0h12.65l4.1 22.45h-12c-1.58-7.5-3.14-14.83-4.75-22.45zm29.24.44c1.16 7.56 2.25 14.62 3.38 22h-12.06c-1.23-7.13-2.46-14.31-3.75-21.85 4.13-1.32 8.13.21 12.43-.15zm216.7-114.37l-2.78 23.37-10.5-.53c-.79-8.21 1-15.78 1.3-24l11.98 1.16zm-208.29 135.73c-.93-7-1.83-13.79-2.78-21h12.31c.95 6.75 1.92 13.6 3 21h-12.53zm-155.49-225.61c-3.52 2-6.57 3.83-9.74 5.44a4.3 4.3 0 01-3.09.25c-4.39-1.6-8.79-3.26-13-5.24-1.35-.62-2.93-2.17-3.14-3.49a11.23 11.23 0 01.73-6.69c1.15-2.14 3.67-1.48 5.91-.88 7.89 2.13 15.34 5.16 22.33 10.61zm-16.7-4.57c-2.37-1.21-3.78-2.4-5.26-2.5-.83-.06-2.34 1.58-2.56 2.65-.41 2 1.85 4.43 3.48 3.82 1.39-.52 2.38-2.11 4.34-3.97zm134.72 231.43h-10c-2-7.41-4.13-15-6.33-23h10.73c.86 3.55 1.78 7.36 2.71 11.15.93 3.79 1.8 7.37 2.89 11.85zm247.5-2.83h-12.85c.83-6.32 1.62-12.29 2.48-18.81l12.48-.56c-.72 6.66-1.39 12.79-2.11 19.37zm-116.84-18.85h12.1v19.73l-10.74.55-1.36-20.28zm84.87 19.01h-11.34c-1.07-6.14.59-12.1.93-18.51h12c-.51 6-1.02 11.99-1.59 18.51zm-99.94-19.23h10.74c.53 6.75 1 13.27 1.58 20.14h-10.78c-.51-6.69-1-13.1-1.54-20.14zm83.59 19.5l-11 .5c.31-6.75.58-12.81.88-19.26h11.48c.84 6.14-.56 12.22-1.36 18.76zm23.44-18.96h9.44c1.49 6.43-1.06 12.35-1.43 18.57h-10c.66-6.28 1.31-12.25 1.99-18.57zm29.47-120.48c.38-3.54.65-6 1-9l16.09 1.38c-.4 3.19-.76 6.12-1.23 9.86l-15.86-2.24zm-284.33 231.53h-20c-.36-3.54-.75-7.31-1.25-12.09l21.32 11.15-.07.94z" fill="#FFF"/><path d="M443.435 342.231c1.09-1.61 2.45-1.55 3.61-.33a2.38 2.38 0 01-.5 2.2c-1.65.74-2.65-.26-3.11-1.87zm-201.71-316.2c0 2.28-.76 3.24-2.92 3.13a42.64 42.64 0 00-7.58.22c-3.74.48-7.42 1.32-9.76 4.73-2.53-2.22-2.69-3.25-.88-5 4.08-3.98 15.14-5.67 21.14-3.08zm37.95.23c-.83-2.1-.83-4.11 1.5-5 5-1.89 10.17-3.53 15.3-5.18a5.45 5.45 0 012.69 0c1.67.36 4 .2 3.87 2.79-.11 2.44-2.25 1.83-3.75 1.93-6.88.49-13.56 1.64-19.61 5.46zm106.28 14.41a27.7 27.7 0 0121.45 5.42c.44.33.45 1.58.23 2.28-.1.33-1.19.5-1.82.48a3.4 3.4 0 01-1.43-.72c-5-3.09-10.23-5.2-16.25-4.82a3.44 3.44 0 01-1.82-.78c-.2-.13-.14-.65-.36-1.86zm82.05 31.98l-23.88-10.05c1.27-.64 2.43-1.79 3.27-1.58 7 1.71 14.18 3.22 20.06 7.86 1.76 1.39 2.12 2.88.55 3.77zm-284.36-59.24c6.27-1.27 11.62 1.67 17.83 4.13-1 1-1.6 1.84-1.93 1.77-5.46-1.28-10.89-2.66-16.32-4l.42-1.9zm-38.51 359.59c-2.5-2.79-2.08-4.13-.32-5 .45-.23 1.28.29 1.94.46l-1.62 4.54zm-51.72-360.68c-2 1.86-3 3.45-4.34 4-1.63.61-3.89-1.82-3.48-3.82.22-1.07 1.73-2.71 2.56-2.65 1.48.07 2.89 1.26 5.26 2.47z" fill="#000"/></g></svg>