<?xml version="1.0" encoding="UTF-8"?>
<svg width="503px" height="409px" viewBox="0 0 503 409" version="1.1" xmlns="http://www.w3.org/2000/svg" xmlns:xlink="http://www.w3.org/1999/xlink">
    <title>paper</title>
    <g id="paper" stroke="none" stroke-width="1" fill="none" fill-rule="evenodd">
        <g id="Group" fill-rule="nonzero">
            <path d="M438.154798,365.701027 C441.214798,372.761027 440.044798,379.471027 436.044798,385.801027 C433.066949,390.666333 428.370022,394.235426 422.884798,395.801027 C412.677626,398.772064 401.842565,393.762075 397.494798,384.061027 C393.254798,374.451027 393.314798,361.191027 408.214798,352.321027 C406.384798,352.221027 404.564798,352.051027 402.744798,352.051027 C358.204798,352.051027 313.664798,352.051027 269.124798,352.051027 C254.934798,352.051027 240.754798,352.131027 226.574798,352.051027 C214.404798,351.961027 202.234798,351.711027 190.064798,351.421027 C187.567702,351.262766 185.122111,352.179863 183.344798,353.941027 C179.064798,357.841027 174.284798,361.201027 169.914798,364.621027 C169.684798,368.691027 169.914798,372.691027 169.144798,376.491027 C167.144798,386.591027 157.384798,394.491027 146.934798,395.081027 C136.088349,395.746 126.039806,389.374933 122.014798,379.281027 C114.874798,360.701027 131.644798,345.371027 147.734798,348.601027 C152.074798,349.471027 156.204798,345.431027 155.734798,341.001027 C154.434798,328.431027 153.234798,315.851027 151.734798,303.311027 C151.344798,300.021027 152.374798,297.911027 154.574798,295.661027 C166.504798,283.441027 178.294798,271.081027 190.174798,258.731027 L188.514798,246.941027 L196.384798,245.771027 C195.694798,243.531027 195.064798,241.371027 194.384798,239.221027 C192.844798,234.381027 191.384798,229.531027 189.724798,224.731027 C188.994798,222.571027 188.614798,220.151027 185.724798,219.401027 C185.154798,219.251027 184.444798,216.721027 184.804798,216.401027 C187.044798,214.351027 185.564798,212.401027 184.924798,210.491027 C178.124798,189.611027 171.318131,168.737693 164.504798,147.871027 C160.964798,137.001027 157.504798,126.111027 153.924798,115.231027 C153.374798,113.551027 152.924798,112.001027 150.924798,111.041027 C146.694798,109.041027 146.704798,108.041027 150.424798,104.441027 L141.604798,76.5010266 C137.754798,76.3410266 135.124798,78.3910266 132.744798,80.5010266 C121.464077,90.212154 110.749805,100.562494 100.654798,111.501027 C92.6547981,120.301027 82.0847981,124.501027 69.7347981,122.831027 C55.7347981,120.931027 42.2047981,121.641027 29.8347981,129.511027 C27.9947981,130.671027 25.9947981,131.571027 24.0947981,132.641027 C18.2347981,135.951027 14.5747981,133.731027 14.5547981,126.861027 C14.5280626,126.404958 14.4746378,125.950847 14.3947981,125.501027 C8.69479812,123.501027 9.81479812,119.161027 11.1447981,114.921027 C9.34479812,113.401027 7.14479812,112.321027 6.30479812,110.581027 C5.57479812,109.061027 6.37479812,106.801027 6.49479812,104.901027 C5.29479812,103.401027 3.29479812,101.901027 2.93479812,100.151027 C2.60479812,98.5010266 4.05479812,96.5010266 4.89479812,94.2410266 L0.334798117,91.2410266 C-1.05520188,85.2410266 2.06479812,80.8510266 6.33479812,77.7110266 C16.6947981,70.1210266 28.0247981,64.0510266 41.0647981,63.2810266 C48.3200146,62.8776334 55.5938027,63.6063617 62.6247981,65.4410266 C73.4147981,68.2510266 82.3247981,65.5310266 90.4247981,58.7210266 C93.7247981,55.9410266 96.6447981,52.7210266 99.6947981,49.6310266 C103.504798,45.7810266 107.264798,41.8810266 111.434798,37.6310266 C104.124798,32.8110266 98.1347981,25.6910266 88.4347981,24.5810266 C86.4495891,24.3351966 84.5252507,23.7321469 82.7547981,22.8010266 C75.1947981,18.8010266 73.7547981,13.6410266 75.9047981,5.4310266 C77.0347981,1.1310266 80.7547981,-0.968973401 85.3847981,0.431026599 C95.9747981,3.6510266 106.754798,6.8910266 115.504798,13.9310266 C118.884798,16.6510266 121.964798,19.3010266 126.324798,20.5310266 C136.574798,10.9510266 149.104798,5.8010266 162.894798,4.3610266 C180.144488,2.63086505 197.555712,5.14025086 213.614798,11.6710266 C216.474798,12.8010266 218.774798,15.3210266 222.044798,17.7310266 C229.595783,15.1890814 237.541915,14.0239198 245.504798,14.2910266 C252.504798,14.4710266 259.004798,15.2110266 263.074798,22.4110266 C273.154798,12.6810266 285.444798,8.7110266 298.554798,7.2510266 C304.31938,6.77482199 310.119253,6.94925428 315.844798,7.7710266 C321.454798,8.4210266 325.094798,11.3710266 326.724798,17.4810266 C330.724798,32.5410266 335.494798,47.4110266 339.884798,62.3810266 C340.644798,64.9710266 341.104798,67.6510266 341.884798,70.9710266 L352.474798,72.3410266 C358.474798,58.7110266 360.624798,44.1610266 366.814798,30.4910266 C391.054798,27.2710266 411.924798,33.7510266 430.874798,50.4910266 C441.694798,49.4910266 453.124798,52.0410266 464.154798,56.4910266 C471.386915,59.5280271 477.870585,64.1041325 483.154798,69.9010266 C485.884798,72.7910266 487.504798,76.0510266 484.994798,80.1510266 C483.994798,81.7510266 483.834798,83.8510266 483.134798,86.2710266 C487.634798,86.8810266 491.724798,87.3910266 495.804798,88.0010266 C501.704798,88.9010266 502.164798,89.3810266 502.12695,95.2710266 C502.139406,97.810244 501.911708,100.345063 501.444798,102.841027 C500.814798,105.991027 499.314798,108.661027 495.364798,109.581027 C494.724798,116.091027 494.124798,122.731027 493.414798,129.361027 C491.341465,148.961027 489.238131,168.557693 487.104798,188.151027 C486.174798,196.621027 484.914798,205.041027 484.104798,213.511027 C483.964798,214.971027 485.164798,216.571027 485.954798,218.651027 C480.314798,224.601027 482.444798,232.921027 480.954798,240.651027 C482.134798,241.181027 482.954798,241.601027 483.744798,241.891027 C486.304798,242.781027 487.014798,244.551027 486.284798,247.041027 C486.034798,247.911027 485.774798,248.791027 485.504798,249.651027 C483.864798,254.871027 483.864798,254.861027 478.274798,254.951027 C447.748131,255.477693 417.218131,255.99436 386.684798,256.501027 C383.634798,256.501027 380.914798,256.801027 378.994798,259.501027 C378.489085,260.020494 377.925392,260.480172 377.314798,260.871027 C365.224798,270.961027 367.004798,269.471027 352.764798,269.591027 C331.134798,269.791027 309.504798,269.961027 287.884798,270.221027 C262.814798,270.531027 237.754798,270.971027 212.694798,271.221027 C209.274798,271.221027 206.464798,271.951027 203.884798,274.491027 C193.664798,284.561027 183.254798,294.491027 173.254798,304.061027 C173.154798,305.061027 173.094798,305.391027 173.084798,305.751027 C172.974798,312.121027 176.084798,315.581027 181.964798,318.291027 C190.804798,322.391027 199.024798,327.821027 207.594798,332.531027 C209.043079,333.186271 210.627387,333.484615 212.214798,333.401027 C226.574798,333.461027 240.934798,333.461027 255.294798,333.401027 C288.201465,333.227693 321.108131,333.031027 354.014798,332.811027 C384.368131,332.64436 414.724798,332.491027 445.084798,332.351027 C445.810421,332.295943 446.539175,332.295943 447.264798,332.351027 C450.894798,332.941027 455.504798,330.491027 457.524798,335.941027 C459.624798,341.571027 458.444798,348.321027 454.244798,352.001027 C449.744798,355.951027 445.094798,359.721027 440.524798,363.581027 C439.744798,364.221027 439.104798,364.841027 438.154798,365.701027 Z M18.6247981,128.021027 C20.4247981,130.111027 21.6947981,129.201027 23.4247981,128.151027 C31.3647981,123.321027 39.5947981,118.811027 49.0547981,118.151027 C56.6347981,117.581027 64.2847981,117.861027 71.8947981,117.951027 C82.9747981,118.081027 92.7847981,114.851027 100.274798,106.521027 C112.054798,93.4010266 124.174798,80.7410266 140.104798,71.6610266 C139.004798,68.0810266 137.854798,64.4710266 136.794798,60.8510266 C135.794798,57.6010266 135.534798,53.9610266 131.084798,53.3310266 C130.544798,53.2510266 130.194798,52.2410266 129.644798,51.8010266 C124.744798,47.8010266 119.814798,43.9110266 114.824798,39.9210266 C109.934798,43.4110266 106.904798,47.9210266 103.764798,52.3210266 C101.264798,55.8510266 98.7147981,59.5310266 95.4547981,62.3210266 C87.9547981,68.6910266 80.0847981,74.7510266 69.2247981,73.2610266 C66.7147981,72.9210266 64.2247981,72.3110266 61.7247981,71.9310266 C54.9147981,70.9310266 48.0847981,69.0310266 41.2847981,69.1410266 C30.0347981,69.3310266 19.5547981,73.1410266 10.2847981,79.5710266 C6.95479812,81.8510266 3.55479812,84.4310266 2.40479812,88.7610266 C10.4047981,92.3310266 10.5647981,92.6810266 7.87479812,99.7610266 C14.1147981,101.551027 8.89479812,105.501027 9.36479812,108.501027 C11.3047981,110.031027 13.9747981,111.121027 14.7147981,112.991027 C15.5247981,114.991027 14.5447981,117.761027 14.3547981,120.071027 L19.7547981,122.361027 L18.6247981,128.021027 Z M143.474798,67.9010266 L474.474798,101.841027 L474.474798,92.1910266 C362.784798,79.7610266 251.104798,70.1910266 139.154798,55.2910266 C140.894798,60.2410266 142.244798,64.3010266 143.474798,67.9010266 Z M453.284798,338.661027 L161.214798,339.751027 L161.214798,346.401027 L451.744798,347.631027 C452.284798,344.501027 452.764798,341.721027 453.284798,338.661027 Z M323.614798,22.6610266 C307.374798,36.4710266 288.804798,39.4410266 268.514798,37.0410266 L275.434798,63.9710266 L337.084798,70.6410266 C332.504798,54.2910266 328.114798,38.6710266 323.614798,22.6310266 L323.614798,22.6610266 Z M193.694798,255.501027 C198.694798,255.681027 203.544798,255.981027 208.374798,255.981027 C211.994798,255.981027 215.604798,255.491027 219.224798,255.401027 C236.478131,255.001027 253.724798,254.63436 270.964798,254.301027 C292.204798,253.901027 313.448131,253.53436 334.694798,253.201027 C356.481465,252.827693 378.271465,252.467693 400.064798,252.121027 C424.938131,251.73436 449.814798,251.361027 474.694798,251.001027 C476.794798,251.001027 478.894798,250.661027 480.774798,250.501027 C482.084798,246.951027 480.774798,245.381027 477.914798,244.911027 C475.947174,244.600703 473.956505,244.460185 471.964798,244.491027 C451.964798,244.441027 432.084798,245.031027 412.134798,245.961027 C383.674798,247.301027 355.134798,247.251027 326.644798,247.721027 C316.834798,247.881027 307.014798,247.651027 297.204798,247.881027 C279.434798,248.291027 261.654798,248.951027 243.884798,249.421027 C240.304798,249.511027 236.674798,249.921027 233.234798,248.021027 C232.114798,247.401027 230.384798,247.781027 228.944798,247.851027 C225.874798,247.991027 222.794798,248.181027 219.734798,248.441027 C211.244798,249.161027 202.734798,249.941027 194.284798,250.721027 C193.994798,250.721027 193.714798,251.081027 193.164798,251.461027 L193.694798,255.501027 Z M372.504798,257.231027 C367.674798,257.231027 363.724798,257.141027 359.774798,257.231027 C350.514798,257.491027 341.264798,257.891027 332.004798,258.141027 C317.124798,258.551027 302.234798,258.961027 287.354798,259.221027 C263.194798,259.661027 239.034798,259.981027 214.874798,260.331027 C210.694798,260.391027 206.504798,260.441027 202.334798,260.331027 C199.971088,260.160187 197.660892,261.09017 196.074798,262.851027 C184.021465,275.22436 171.901465,287.527693 159.714798,299.761027 C158.329207,300.931668 157.686293,302.760913 158.034798,304.541027 C158.714798,308.821027 159.034798,313.171027 159.594798,317.481027 C160.324798,323.171027 161.134798,328.851027 161.934798,334.701027 L170.074798,333.581027 C169.354798,324.471027 168.554798,315.681027 168.074798,306.871027 C167.914246,304.93279 168.465266,303.002444 169.624798,301.441027 C179.094798,291.161027 188.804798,281.081027 198.424798,270.931027 C199.692172,269.404764 201.53456,268.470901 203.514798,268.351027 C210.744798,267.881027 217.934798,266.611027 225.154798,266.351027 C244.041465,265.76436 262.931465,265.387693 281.824798,265.221027 C306.914798,265.041027 332.014798,264.981027 357.094798,265.321027 C363.614798,265.501027 368.204798,263.271027 372.504798,257.251027 L372.504798,257.231027 Z M205.714798,214.831027 C196.294798,180.601027 187.094798,147.141027 177.894798,113.661027 C171.774798,113.161027 166.184798,112.661027 160.594798,112.271027 C160.284798,112.271027 159.954798,112.551027 159.064798,112.981027 C170.211465,146.887693 181.374798,180.837693 192.554798,214.831027 L205.714798,214.831027 Z M336.324798,214.771027 C333.894798,184.961027 331.484798,155.451027 329.034798,125.421027 L311.034798,124.131027 C313.484798,154.721027 315.874798,184.721027 318.274798,214.771027 L336.324798,214.771027 Z M203.894798,115.881027 C211.624798,149.131027 219.224798,181.881027 226.834798,214.631027 L239.604798,214.631027 C233.854798,182.101027 228.184798,150.061027 222.424798,117.541027 L203.894798,115.881027 Z M288.664798,122.501027 L299.324798,214.681027 L313.894798,214.681027 C313.554798,208.971027 313.334798,203.581027 312.894798,198.211027 C311.634798,182.351027 310.264798,166.501027 309.024798,150.641027 C308.424798,142.881027 308.024798,135.111027 307.554798,127.351027 C307.434798,125.101027 306.884798,123.471027 304.214798,123.351027 C299.214798,123.181027 294.194798,122.851027 288.664798,122.501027 Z M391.724798,214.821027 C392.414798,200.981027 393.064798,187.601027 393.724798,174.231027 C394.391465,160.657693 395.104798,147.087693 395.864798,133.521027 C395.964798,131.591027 395.364798,130.211027 393.344798,130.051027 C387.824798,129.621027 382.284798,129.331027 376.654798,128.971027 L376.654798,214.821027 L391.724798,214.821027 Z M266.724798,120.881027 C270.874798,152.551027 274.944798,183.641027 279.004798,214.661027 L294.194798,214.661027 C290.454798,183.661027 286.754798,152.981027 283.014798,122.001027 L266.724798,120.881027 Z M256.194798,214.771027 C251.684798,182.481027 247.264798,150.851027 242.824798,119.091027 L226.824798,117.811027 C232.524798,150.591027 238.094798,182.591027 243.694798,214.811027 L256.194798,214.771027 Z M370.944798,214.771027 L370.944798,128.821027 C364.75658,127.715845 358.463717,127.309962 352.184798,127.611027 C354.284798,156.971027 356.334798,185.751027 358.404798,214.771027 L370.944798,214.771027 Z M417.094798,132.111027 L400.804798,130.891027 C398.944798,146.321027 396.154798,211.081027 397.204798,214.981027 L411.964798,214.981027 C413.674798,187.431027 415.364798,160.081027 417.094798,132.111027 Z M183.024798,114.211027 C192.194798,148.211027 201.174798,181.501027 210.154798,214.801027 L221.064798,214.801027 C213.604798,181.501027 206.214798,148.561027 198.794798,115.501027 L183.024798,114.211027 Z M416.594798,79.2110266 C419.094798,73.1043599 421.531465,67.1610266 423.904798,61.3810266 C403.094798,59.7210266 383.764798,54.9710266 366.954798,42.2110266 C364.544798,52.7110266 362.234798,62.8110266 359.894798,73.0610266 L416.594798,79.2110266 Z M247.964798,119.711027 L261.964798,214.711027 L274.214798,214.711027 C270.264798,183.181027 266.364798,152.011027 262.394798,120.371027 L247.964798,119.711027 Z M429.964798,215.281027 C432.174798,187.801027 434.344798,160.891027 436.544798,133.541027 C433.664798,133.381027 431.544798,133.211027 429.404798,133.161027 C427.114798,133.101027 424.814798,133.161027 421.944798,133.161027 C420.584798,160.561027 419.244798,187.731027 417.884798,215.291027 L429.964798,215.281027 Z M335.024798,125.891027 C337.884798,155.891027 340.684798,185.341027 343.484798,214.641027 L353.994798,214.641027 C352.214798,185.191027 350.454798,156.171027 348.684798,126.881027 L335.024798,125.891027 Z M454.544798,135.131027 L441.034798,134.131027 C438.774798,161.491027 435.814798,188.201027 434.034798,215.241027 L446.104798,215.241027 C448.894798,188.431027 451.684798,162.041027 454.534798,135.131027 L454.544798,135.131027 Z M158.424798,38.0210266 C161.604798,39.6810266 164.824798,41.2810266 167.964798,43.0210266 C174.864798,46.8410266 182.874798,48.7110266 188.544798,54.7010266 C188.815206,54.9619383 189.169749,55.1179373 189.544798,55.1410266 C193.974798,55.5110266 198.414798,55.8410266 203.544798,56.2310266 C202.224798,51.4310266 200.544798,47.3510266 200.104798,43.1410266 C199.664798,38.9310266 200.574798,34.4010266 200.914798,29.7010266 C187.564798,28.5610266 175.254798,22.8710266 163.574798,13.7010266 L158.424798,38.0210266 Z M478.344798,216.081027 C481.264798,189.461027 484.104798,163.551027 486.984798,137.381027 L474.474798,136.701027 C471.554798,163.011027 468.664798,189.071027 465.734798,215.491027 L478.344798,216.081027 Z M268.344798,63.1610266 L261.144798,35.1610266 C244.234798,46.2810266 226.394798,48.2210266 206.954798,44.6210266 C208.044798,49.0910266 208.954798,52.8610266 209.954798,57.0210266 L268.344798,63.1610266 Z M261.824798,87.1610266 C263.134798,95.9410266 264.444798,104.761027 265.824798,113.931027 L282.314798,115.071027 C281.314798,105.541027 280.314798,96.6310266 279.404798,87.4810266 L241.844798,83.7210266 C243.554798,93.8610266 245.134798,103.161027 246.674798,112.301027 L261.264798,113.431027 C261.452687,112.959575 261.577109,112.46525 261.634798,111.961027 C260.744798,104.961027 259.764798,97.9610266 258.954798,90.9610266 C258.764798,89.3810266 258.184798,87.1210266 261.834798,87.1610266 L261.824798,87.1610266 Z M461.554798,215.311027 C464.604798,188.821027 467.554798,162.841027 470.624798,136.471027 L459.454798,135.471027 C456.804798,162.201027 454.184798,188.591027 451.534798,215.351027 L461.554798,215.311027 Z M222.654798,41.0110266 C228.574798,40.1010266 234.954798,39.6310266 241.044798,38.0110266 C246.044798,36.6910266 250.844798,34.2810266 255.464798,31.8510266 C259.694798,29.6310266 259.904798,25.3510266 254.914798,21.9910266 C253.661274,21.2561656 252.274577,20.7769394 250.834798,20.5810266 C242.787533,19.0716781 234.511374,19.2898306 226.554798,21.2210266 C219.774798,22.8310266 213.694798,26.1210266 208.014798,30.1110266 C205.854798,31.6310266 204.854798,34.0210266 205.664798,36.2810266 C206.134798,37.5810266 208.264798,38.7510266 209.844798,39.1010266 C213.894798,39.9810266 218.044798,40.3610266 222.654798,41.0110266 Z M321.654798,16.3110266 C318.934798,13.5410266 316.834798,12.3110266 312.584798,12.2010266 C298.014798,11.6810266 284.074798,14.3010266 271.174798,21.3510266 C268.554798,22.7910266 265.254798,24.3510266 266.254798,28.2410266 C267.174798,31.8510266 270.644798,32.4210266 273.624798,32.7310266 C277.391396,33.0979372 281.183394,33.1247121 284.954798,32.8110266 C295.299097,32.105805 305.345152,29.0444433 314.324798,23.8610266 C317.454798,22.0610266 320.584798,20.0810266 321.694798,16.3110266 L321.654798,16.3110266 Z M176.234798,106.841027 C173.484798,95.9710266 170.924798,85.8410266 168.334798,75.6510266 C160.874798,75.0910266 153.744798,73.3010266 146.514798,73.4710266 C146.354798,74.5610266 146.174798,74.9610266 146.274798,75.2610266 C149.384798,84.5310266 152.544798,93.7810266 155.624798,103.061027 C156.314798,105.141027 157.744798,105.811027 159.724798,105.911027 C164.944798,106.191027 170.154798,106.501027 176.234798,106.841027 Z M171.234798,53.3210266 L171.234798,52.7010266 C165.744798,49.9610266 160.134798,47.4610266 154.804798,44.4510266 C142.198131,37.3443599 129.658131,30.0810266 117.184798,22.6610266 C114.634798,21.1410266 112.614798,21.0110266 110.184798,22.3910266 C108.114798,23.5710266 105.984798,24.6510266 103.444798,26.0010266 C105.104798,27.0810266 106.144798,27.7710266 107.204798,28.4310266 C112.424798,31.7110266 117.764798,34.8110266 122.834798,38.2910266 C128.194798,41.9710266 133.284798,46.0410266 138.544798,49.8510266 C139.415912,50.4299779 140.421652,50.7744094 141.464798,50.8510266 C151.394798,51.7410266 161.304798,52.5010266 171.224798,53.3210266 L171.234798,53.3210266 Z M221.054798,110.221027 C219.294798,100.131027 217.644798,90.6410266 215.954798,81.0010266 L194.294798,78.6510266 C196.664798,88.2210266 198.864798,97.1310266 201.074798,106.031027 C201.37466,107.89519 203.007307,109.250031 204.894798,109.201027 C209.894798,109.501027 214.894798,109.831027 221.044798,110.221027 L221.054798,110.221027 Z M284.054798,88.1110266 C285.344798,97.7610266 286.514798,106.491027 287.734798,115.561027 C294.044798,115.871027 299.984798,117.501027 306.584798,116.501027 C306.274798,111.371027 305.964798,106.551027 305.694798,101.721027 C305.544798,99.0110266 305.584798,96.2810266 305.274798,93.5910266 C305.074798,91.8410266 304.774798,89.8510266 302.344798,89.5910266 L284.054798,88.1110266 Z M197.424798,108.211027 L191.354798,78.4410266 C184.934632,77.407116 178.460835,76.73937 171.964798,76.4410266 C174.964798,86.6410266 177.594798,96.0210266 180.464798,105.351027 C180.958104,106.452616 181.945408,107.254337 183.124798,107.511027 C187.714798,107.891027 192.384798,107.991027 197.384798,108.211027 L197.424798,108.211027 Z M350.084798,94.5710266 C350.604798,103.691027 351.084798,112.231027 351.594798,120.971027 L371.464798,122.421027 C370.154798,113.421027 373.464798,105.141027 370.624798,96.5210266 L350.084798,94.5710266 Z M376.664798,97.1310266 L376.664798,122.941027 L396.314798,124.501027 C396.784798,115.741027 397.214798,107.691027 397.664798,99.2110266 L376.664798,97.1310266 Z M149.664798,382.811027 C147.494798,385.991027 146.434798,386.671027 144.484798,386.811027 C136.044798,387.271027 128.554798,380.271027 127.944798,371.341027 C127.374798,362.881027 132.944798,356.611027 141.784798,355.761027 C142.925693,355.540895 144.041379,355.205854 145.114798,354.761027 C140.544798,353.571027 136.564798,354.581027 132.814798,356.471027 C127.264798,359.261027 124.484798,363.791027 124.664798,370.041027 C124.894798,378.041027 128.974798,383.761027 135.664798,387.641027 C147.614798,394.561027 162.844798,387.771027 165.424798,374.421027 C165.814798,372.421027 166.604798,370.181027 164.674798,368.601027 C158.924798,371.711027 153.184798,374.391027 147.934798,377.821027 C144.474798,380.081027 141.784798,379.341027 139.014798,377.361027 C135.844798,375.101027 134.944798,372.171027 136.274798,368.271027 C137.274798,365.271027 138.754798,362.461027 140.084798,359.411027 C133.774798,361.601027 130.994798,365.701027 132.084798,372.241027 C132.664569,375.050709 133.920872,377.676587 135.744798,379.891027 C139.074798,384.061027 144.094798,383.381027 149.664798,382.811027 L149.664798,382.811027 Z M369.084798,34.0510266 C368.234798,37.7510266 370.604798,38.7610266 372.504798,40.0510266 C383.914798,47.9110266 397.034798,51.4210266 410.224798,54.5810266 C414.034798,55.4910266 418.094798,55.5110266 422.044798,55.6410266 C423.254798,55.6410266 424.504798,54.7510266 425.864798,54.2110266 C424.404798,49.8510266 421.214798,48.0210266 418.034798,46.4510266 C413.19194,44.0060461 408.228984,41.8065919 403.164798,39.8610266 C392.254798,35.7710266 381.004798,33.4210266 369.084798,34.0510266 Z M308.084798,90.7810266 C308.894798,99.8910266 309.654798,108.461027 310.464798,117.481027 L328.744798,119.021027 C328.144798,109.841027 327.584798,101.411027 327.004798,92.5010266 C320.664798,91.6310266 314.544798,90.6410266 308.084798,90.7810266 Z M220.464798,81.5010266 C222.334798,91.8410266 223.554798,101.381027 225.854798,110.751027 L242.054798,111.701027 C240.814798,101.771027 239.664798,92.5410266 238.504798,83.2710266 L220.464798,81.5010266 Z M415.164798,357.071027 L414.274798,356.131027 C402.574798,357.661027 397.774798,368.381027 399.694798,376.941027 C401.534798,385.151027 409.504798,394.021027 421.044798,391.701027 C426.112786,390.613055 430.488839,387.442288 433.101222,382.965276 C435.713605,378.488264 436.321053,373.118478 434.774798,368.171027 C433.981028,368.529925 433.224118,368.965315 432.514798,369.471027 C429.394798,372.181027 426.244798,374.871027 423.254798,377.741027 C420.264798,380.611027 415.494798,381.811027 412.254798,380.181027 C409.014798,378.551027 407.964798,375.101027 408.994798,370.261027 C409.384798,368.461027 409.784798,366.661027 410.304798,364.261027 C405.504798,368.531027 404.444798,371.261027 405.514798,375.471027 C407.964798,385.251027 417.804798,388.731027 425.874798,382.691027 C426.874798,381.911027 427.664798,380.121027 429.454798,381.491027 C427.516706,384.998085 424.160386,387.499025 420.245546,388.353242 C416.330705,389.207458 412.23765,388.331969 409.014798,385.951027 C397.964798,377.521027 402.394798,363.261027 411.464798,360.171027 C412.894798,359.731027 413.944798,358.161027 415.164798,357.091027 L415.164798,357.071027 Z M430.464798,54.6410266 C429.904798,59.5210266 430.094798,59.9610266 434.734798,62.3510266 C441.514798,65.8210266 448.224798,69.4710266 455.184798,72.5410266 C460.328759,74.7828835 465.650482,76.5924701 471.094798,77.9510266 C474.766374,79.013806 478.722359,78.3397416 481.834798,76.1210266 C475.094798,65.2610266 445.424798,52.8310266 430.464798,54.6610266 L430.464798,54.6410266 Z M400.464798,124.791027 L417.654798,126.121027 C418.324798,117.551027 418.934798,109.721027 419.584798,101.401027 L401.514798,99.6110266 C401.154798,108.071027 400.814798,116.141027 400.454798,124.811027 L400.464798,124.791027 Z M348.464798,120.621027 C347.824798,111.321027 347.244798,102.771027 346.644798,94.1110266 L331.024798,92.7710266 C332.134798,102.081027 333.164798,110.601027 334.224798,119.421027 L348.464798,120.621027 Z M479.144798,82.8310266 C459.024798,84.5310266 443.784798,73.4510266 427.624798,63.7210266 C425.914798,68.8210266 424.154798,74.0410266 422.234798,79.7810266 C426.464798,80.2310266 430.234798,80.6110266 433.984798,81.0310266 C447.684798,82.5410266 461.374798,84.0310266 475.064798,85.6010266 C477.344798,85.8910266 479.064798,85.7210266 479.134798,82.8510266 L479.144798,82.8310266 Z M437.074798,127.731027 C437.894798,119.541027 438.684798,111.731027 439.524798,103.401027 L422.684798,101.681027 L422.684798,126.501027 L437.074798,127.731027 Z M339.354798,241.991027 C338.624798,235.061027 337.924798,228.501027 337.224798,221.991027 L318.834798,221.991027 C319.334798,228.851027 319.834798,235.281027 320.294798,241.991027 L339.354798,241.991027 Z M164.894798,9.3910266 C168.894798,11.5110266 172.104798,12.7910266 174.844798,14.7310266 C182.614798,20.2310266 191.494798,22.5110266 200.574798,24.3610266 C206.258065,25.6820957 212.226126,24.0888632 216.494798,20.1110266 C208.354798,12.7310266 176.684798,5.8610266 164.894798,9.3910266 Z M176.694798,352.591027 L176.274798,350.931027 C173.454798,350.931027 170.634798,350.831027 167.814798,350.931027 C160.194798,351.241027 152.674798,351.721027 148.064798,359.351027 C146.674798,361.641027 144.564798,363.501027 142.854798,365.611027 C142.090788,366.395542 141.501235,367.332692 141.124798,368.361027 C140.794798,369.671027 140.354798,371.701027 141.014798,372.361027 C142.263883,373.555321 143.937145,374.203035 145.664798,374.161027 C147.822103,373.855869 149.86811,373.013395 151.614798,371.711027 C160.084798,365.501027 168.374798,358.981027 176.724798,352.591027 L176.694798,352.591027 Z M152.694798,34.6510266 C155.014798,26.0710266 157.204798,18.0010266 159.694798,8.7210266 C149.084798,13.2310266 138.694798,15.2810266 130.694798,23.1610266 L152.694798,34.6510266 Z M443.364798,103.711027 C442.754798,112.031027 442.184798,119.861027 441.574798,128.171027 L455.334798,128.911027 C456.334798,120.661027 457.194798,113.061027 458.124798,105.171027 L443.364798,103.711027 Z M297.814798,242.561027 C297.004798,235.911027 296.324798,229.661027 295.364798,223.451027 C294.939565,222.33889 293.979529,221.518154 292.814798,221.271027 C288.544798,221.041027 284.244798,221.171027 279.814798,221.171027 C280.814798,228.881027 280.924798,235.911027 282.734798,242.561027 L297.814798,242.561027 Z M477.894798,106.971027 C475.644798,114.641027 475.894798,122.581027 474.894798,131.221027 C479.894798,130.141027 484.024798,132.831027 488.334798,130.991027 C489.334798,123.661027 490.334798,116.541027 491.334798,108.991027 L477.894798,106.971027 Z M413.894798,371.731027 C416.894798,374.581027 419.684798,374.031027 422.334798,371.881027 C429.624798,365.981027 436.864798,360.011027 444.094798,354.041027 C444.434798,353.761027 444.524798,353.191027 444.914798,352.361027 L422.894798,352.361027 L413.894798,371.731027 Z M394.744798,241.501027 L410.744798,241.501027 C411.044798,235.041027 411.334798,228.861027 411.634798,222.501027 L395.894798,222.501027 C395.524798,228.851027 395.154798,234.891027 394.744798,241.501027 Z M316.214798,242.271027 C315.894798,238.271027 315.674798,235.061027 315.374798,231.831027 C315.074798,228.601027 314.694798,225.151027 314.374798,221.891027 L299.974798,221.891027 C300.764798,229.011027 301.514798,235.761027 302.324798,242.971027 L316.214798,242.271027 Z M390.604798,241.491027 C390.904798,234.971027 391.184798,228.791027 391.464798,222.401027 L376.174798,222.401027 L376.174798,241.501027 L390.604798,241.491027 Z M207.214798,220.701027 L194.394798,220.701027 C197.074798,228.771027 199.634798,236.461027 202.334798,244.601027 L213.564798,243.751027 C211.324798,235.601027 209.274798,228.171027 207.214798,220.701027 Z M227.954798,220.701027 C229.564798,228.321027 231.124798,235.651027 232.704798,243.151027 L244.704798,243.151027 L240.604798,220.701027 L227.954798,220.701027 Z M257.194798,221.141027 C252.884798,221.521027 248.934798,219.971027 244.764798,221.271027 C246.054798,228.811027 247.284798,235.991027 248.514798,243.121027 L260.574798,243.121027 C259.444798,235.761027 258.354798,228.701027 257.194798,221.141027 Z M473.894798,106.771027 L461.894798,105.611027 C461.604798,113.831027 459.804798,121.401027 460.594798,129.611027 L471.094798,130.141027 L473.894798,106.771027 Z M265.604798,242.501027 L278.104798,242.501027 C277.104798,235.091027 276.104798,228.241027 275.104798,221.501027 L262.824798,221.501027 C263.774798,228.731027 264.674798,235.501027 265.604798,242.501027 Z M110.114798,16.8910266 C103.114798,11.4410266 95.6747981,8.4110266 87.7647981,6.2810266 C85.5247981,5.6810266 83.0047981,5.0210266 81.8547981,7.1610266 C80.9332987,9.26396914 80.6785226,11.5988351 81.1247981,13.8510266 C81.3347981,15.1710266 82.9147981,16.7210266 84.2647981,17.3410266 C88.4947981,19.3410266 92.8947981,20.9810266 97.2647981,22.5810266 C98.290054,22.8847981 99.3917115,22.7956672 100.354798,22.3310266 C103.544798,20.7210266 106.594798,18.8810266 110.114798,16.8910266 Z M228.114798,243.751027 C227.024798,239.271027 226.114798,235.611027 225.244798,231.941027 C224.374798,228.271027 223.394798,224.341027 222.534798,220.791027 L211.824798,220.791027 C214.024798,228.791027 216.114798,236.341027 218.154798,243.791027 L228.114798,243.751027 Z M475.614798,240.921027 C476.334798,234.341027 477.004798,228.211027 477.724798,221.551027 L465.244798,222.111027 C464.384798,228.631027 463.594798,234.601027 462.764798,240.921027 L475.614798,240.921027 Z M358.794798,222.071027 C359.254798,228.941027 359.684798,235.351027 360.164798,242.351027 L370.894798,241.801027 L370.894798,222.071027 L358.794798,222.071027 Z M443.664798,241.071027 C444.234798,234.551027 444.744798,228.561027 445.264798,222.561027 L433.264798,222.561027 C432.924798,228.971027 431.264798,234.931027 432.334798,241.071027 L443.664798,241.071027 Z M343.724798,221.841027 C344.264798,228.841027 344.724798,235.291027 345.264798,241.981027 L356.044798,241.981027 C355.504798,235.111027 355.044798,228.591027 354.464798,221.841027 L343.724798,221.841027 Z M427.314798,241.341027 C428.114798,234.801027 429.514798,228.721027 428.714798,222.581027 L417.234798,222.581027 C416.934798,229.031027 416.664798,235.091027 416.354798,241.841027 L427.314798,241.341027 Z M450.754798,222.341027 C450.074798,228.661027 449.424798,234.631027 448.754798,240.911027 L458.754798,240.911027 C459.124798,234.691027 461.674798,228.771027 460.184798,222.341027 L450.754798,222.341027 Z M480.224798,101.861027 L496.064798,104.071027 C496.534798,100.331027 496.894798,97.4010266 497.294798,94.2110266 L481.204798,92.8310266 C480.894798,95.9110266 480.604798,98.3710266 480.224798,101.911027 L480.224798,101.861027 Z M195.894798,333.441027 L195.994798,332.531027 L174.614798,321.351027 C175.114798,326.131027 175.504798,329.901027 175.864798,333.441027 L195.894798,333.441027 Z" id="Shape" fill="#000000"></path>
            <path d="M18.6247981,128.021027 L19.7547981,122.311027 L14.3547981,120.021027 C14.5447981,117.711027 15.5247981,114.971027 14.7147981,112.941027 C13.9747981,111.071027 11.3047981,109.941027 9.36479812,108.451027 C8.91479812,105.521027 14.1147981,101.551027 7.82479812,99.7110266 C10.5147981,92.6110266 10.3347981,92.2610266 2.35479812,88.7110266 C3.50479812,84.3810266 6.90479812,81.8010266 10.2347981,79.5210266 C19.5547981,73.1310266 30.0347981,69.2810266 41.2847981,69.0910266 C48.0847981,68.9810266 54.9147981,70.8510266 61.7247981,71.8810266 C64.2347981,72.2610266 66.7247981,72.8810266 69.2247981,73.2110266 C80.0847981,74.7010266 87.9547981,68.6410266 95.4547981,62.2710266 C98.7147981,59.5110266 101.264798,55.8310266 103.764798,52.2710266 C106.904798,47.8310266 109.934798,43.3610266 114.824798,39.8710266 C119.824798,43.8710266 124.744798,47.7910266 129.644798,51.7510266 C130.194798,52.1910266 130.544798,53.2010266 131.084798,53.2810266 C135.534798,53.9110266 135.844798,57.5510266 136.794798,60.8010266 C137.854798,64.4210266 139.004798,68.0310266 140.104798,71.6110266 C124.174798,80.6910266 112.054798,93.3510266 100.274798,106.471027 C92.7847981,114.801027 82.9747981,118.031027 71.8947981,117.901027 C64.2847981,117.811027 56.6347981,117.531027 49.0547981,118.101027 C39.5947981,118.801027 31.3647981,123.311027 23.4247981,128.101027 C21.6947981,129.201027 20.4247981,130.111027 18.6247981,128.021027 Z" id="Path" fill="#FFFFFF"></path>
            <path d="M143.474798,67.9010266 C142.244798,64.3010266 140.874798,60.2410266 139.194798,55.2910266 C251.194798,70.1710266 362.824798,79.7610266 474.514798,92.1910266 L474.514798,101.841027 L143.474798,67.9010266 Z" id="Path" fill="#FFFFFF"></path>
            <path d="M453.284798,338.661027 C452.764798,341.721027 452.284798,344.491027 451.744798,347.661027 L161.214798,346.401027 L161.214798,339.751027 L453.284798,338.661027 Z M443.434798,342.231027 C443.904798,343.841027 444.864798,344.841027 446.544798,344.101027 C447.070536,343.498291 447.258377,342.671789 447.044798,341.901027 C445.894798,340.681027 444.524798,340.621027 443.434798,342.231027 L443.434798,342.231027 Z" id="Shape" fill="#FFFFFF"></path>
            <path d="M323.614798,22.6310266 C328.114798,38.6310266 332.504798,54.2910266 337.084798,70.6310266 L275.434798,63.9610266 L268.514798,37.0310266 C288.804798,39.4110266 307.374798,36.4410266 323.614798,22.6310266 Z" id="Path" fill="#FFFFFF"></path>
            <path d="M193.694798,255.501027 L193.164798,251.501027 C193.714798,251.121027 193.994798,250.791027 194.284798,250.761027 C202.764798,249.981027 211.284798,249.201027 219.734798,248.481027 C222.794798,248.221027 225.874798,248.031027 228.944798,247.891027 C230.384798,247.821027 232.114798,247.441027 233.234798,248.061027 C236.674798,249.961027 240.304798,249.551027 243.884798,249.461027 C261.654798,248.991027 279.434798,248.331027 297.204798,247.921027 C307.014798,247.691027 316.834798,247.921027 326.644798,247.761027 C355.144798,247.291027 383.644798,247.341027 412.134798,246.001027 C432.084798,245.071027 452.004798,244.481027 471.964798,244.531027 C473.956505,244.500185 475.947174,244.640703 477.914798,244.951027 C480.724798,245.421027 482.084798,246.951027 480.774798,250.541027 C478.894798,250.701027 476.774798,251.001027 474.694798,251.041027 C449.814798,251.43436 424.938131,251.807693 400.064798,252.161027 C378.278131,252.501027 356.488131,252.861027 334.694798,253.241027 C313.454798,253.601027 292.211465,253.967693 270.964798,254.341027 C253.718131,254.667693 236.471465,255.03436 219.224798,255.441027 C215.604798,255.531027 211.994798,256.021027 208.374798,256.021027 C203.544798,256.001027 198.704798,255.701027 193.694798,255.501027 Z" id="Path" fill="#FFFFFF"></path>
            <path d="M372.504798,257.251027 C368.204798,263.251027 363.614798,265.451027 357.084798,265.361027 C332.004798,265.021027 306.904798,265.081027 281.814798,265.261027 C262.921465,265.401027 244.031465,265.777693 225.144798,266.391027 C217.924798,266.621027 210.734798,267.891027 203.504798,268.391027 C201.52456,268.510901 199.682172,269.444764 198.414798,270.971027 C188.794798,281.121027 179.084798,291.201027 169.614798,301.481027 C168.455266,303.042444 167.904246,304.97279 168.064798,306.911027 C168.554798,315.721027 169.354798,324.511027 170.064798,333.621027 L161.894798,334.711027 C161.094798,328.861027 160.284798,323.181027 159.554798,317.491027 C158.994798,313.181027 158.674798,308.831027 157.994798,304.551027 C157.646293,302.770913 158.289207,300.941668 159.674798,299.771027 C171.848131,287.511027 183.968131,275.207693 196.034798,262.861027 C197.620892,261.10017 199.931088,260.170187 202.294798,260.341027 C206.464798,260.481027 210.654798,260.431027 214.834798,260.341027 C238.994798,259.991027 263.154798,259.671027 287.314798,259.231027 C302.194798,258.971027 317.084798,258.561027 331.964798,258.151027 C341.224798,257.901027 350.474798,257.501027 359.734798,257.241027 C363.724798,257.161027 367.674798,257.251027 372.504798,257.251027 Z" id="Path" fill="#FFFFFF"></path>
            <path d="M205.714798,214.831027 L192.554798,214.831027 C181.388131,180.871027 170.224798,146.921027 159.064798,112.981027 C159.954798,112.551027 160.284798,112.251027 160.594798,112.270083 C166.184798,112.701027 171.774798,113.161027 177.894798,113.661027 C187.094798,147.141027 196.294798,180.601027 205.714798,214.831027 Z" id="Path" fill="#FFFFFF"></path>
            <path d="M336.324798,214.771027 L318.274798,214.771027 C315.874798,184.771027 313.484798,154.771027 311.034798,124.131027 L329.034798,125.421027 C331.484798,155.501027 333.894798,184.961027 336.324798,214.771027 Z" id="Path" fill="#FFFFFF"></path>
            <path d="M203.894798,115.881027 L222.374798,117.501027 C228.134798,150.021027 233.804798,182.061027 239.554798,214.591027 L226.784798,214.591027 C219.174798,181.851027 211.574798,149.131027 203.894798,115.881027 Z" id="Path" fill="#FFFFFF"></path>
            <path d="M288.664798,122.501027 C294.194798,122.811027 299.214798,123.141027 304.234798,123.361027 C306.904798,123.471027 307.454798,125.101027 307.574798,127.361027 C308.014798,135.121027 308.444798,142.891027 309.044798,150.651027 C310.284798,166.511027 311.654798,182.361027 312.914798,198.221027 C313.334798,203.591027 313.554798,208.981027 313.914798,214.691027 L299.324798,214.691027 L288.664798,122.501027 Z" id="Path" fill="#FFFFFF"></path>
            <path d="M391.724798,214.861027 L376.724798,214.861027 L376.724798,129.011027 C382.354798,129.371027 387.894798,129.661027 393.414798,130.091027 C395.414798,130.251027 396.034798,131.631027 395.934798,133.561027 C395.194798,147.127693 394.481465,160.697693 393.794798,174.271027 C393.064798,187.641027 392.414798,201.021027 391.724798,214.861027 Z" id="Path" fill="#FFFFFF"></path>
            <path d="M266.724798,120.921027 L283.014798,122.041027 C286.754798,153.041027 290.454798,183.681027 294.194798,214.701027 L279.004798,214.701027 C274.944798,183.681027 270.894798,152.591027 266.724798,120.921027 Z" id="Path" fill="#FFFFFF"></path>
            <path d="M256.194798,214.771027 L243.654798,214.771027 C238.054798,182.591027 232.484798,150.591027 226.784798,117.771027 L242.784798,119.051027 C247.264798,150.851027 251.684798,182.501027 256.194798,214.771027 Z" id="Path" fill="#FFFFFF"></path>
            <path d="M370.944798,214.771027 L358.404798,214.771027 C356.334798,185.771027 354.284798,156.971027 352.184798,127.611027 C358.463717,127.309962 364.75658,127.715845 370.944798,128.821027 L370.944798,214.771027 Z" id="Path" fill="#FFFFFF"></path>
            <path d="M417.094798,132.111027 C415.364798,160.111027 413.674798,187.431027 411.964798,214.981027 L397.204798,214.981027 C396.154798,211.081027 398.944798,146.321027 400.804798,130.891027 L417.094798,132.111027 Z" id="Path" fill="#FFFFFF"></path>
            <path d="M183.024798,114.211027 L198.794798,115.501027 C206.214798,148.591027 213.604798,181.571027 221.064798,214.831027 L210.154798,214.831027 C201.174798,181.501027 192.194798,148.221027 183.024798,114.211027 Z" id="Path" fill="#FFFFFF"></path>
            <path d="M416.594798,79.2210266 L359.894798,73.0710266 C362.234798,62.8210266 364.544798,52.7210266 366.954798,42.2210266 C383.764798,54.9810266 403.094798,59.7310266 423.904798,61.3910266 C421.524798,67.1843599 419.088131,73.1276933 416.594798,79.2210266 Z" id="Path" fill="#FFFFFF"></path>
            <path d="M247.964798,119.711027 L262.434798,120.401027 C266.434798,152.041027 270.304798,183.211027 274.254798,214.741027 L262.004798,214.741027 L247.964798,119.711027 Z" id="Path" fill="#FFFFFF"></path>
            <path d="M429.954798,215.281027 L417.894798,215.281027 C419.254798,187.721027 420.594798,160.551027 421.954798,133.151027 C424.824798,133.151027 427.124798,133.101027 429.414798,133.151027 C431.544798,133.201027 433.674798,133.371027 436.554798,133.531027 C434.334798,160.891027 432.164798,187.801027 429.954798,215.281027 Z" id="Path" fill="#FFFFFF"></path>
            <path d="M335.014798,125.891027 L348.674798,126.891027 C350.444798,156.181027 352.204798,185.201027 353.984798,214.651027 L343.474798,214.651027 C340.674798,185.341027 337.894798,155.931027 335.014798,125.891027 Z" id="Path" fill="#FFFFFF"></path>
            <path d="M454.534798,135.131027 C451.684798,162.041027 448.894798,188.431027 446.064798,215.221027 L433.994798,215.221027 C435.804798,188.221027 438.764798,161.471027 440.994798,134.111027 L454.534798,135.131027 Z" id="Path" fill="#FFFFFF"></path>
            <path d="M158.424798,38.0210266 L163.504798,13.6910266 C175.184798,22.8710266 187.504798,28.5610266 200.844798,29.6910266 C200.504798,34.3910266 199.624798,38.8210266 200.034798,43.1310266 C200.444798,47.4410266 202.154798,51.4210266 203.474798,56.2210266 C198.384798,55.8310266 193.944798,55.5010266 189.474798,55.1310266 C189.099749,55.1079373 188.745206,54.9519383 188.474798,54.6910266 C182.804798,48.6910266 174.794798,46.8310266 167.894798,43.0110266 C164.824798,41.2810266 161.604798,39.6810266 158.424798,38.0210266 Z" id="Path" fill="#FFFFFF"></path>
            <path d="M478.344798,216.081027 L465.734798,215.501027 C468.664798,189.081027 471.554798,163.021027 474.474798,136.711027 L486.984798,137.391027 C484.104798,163.551027 481.264798,189.501027 478.344798,216.081027 Z" id="Path" fill="#FFFFFF"></path>
            <path d="M268.354798,63.1610266 L209.984798,57.0310266 C208.984798,52.8710266 208.054798,49.1010266 206.984798,44.6310266 C226.424798,48.2310266 244.264798,46.2910266 261.174798,35.1710266 L268.354798,63.1610266 Z" id="Path" fill="#FFFFFF"></path>
            <path d="M261.834798,87.1610266 C258.184798,87.1610266 258.764798,89.3810266 258.944798,90.9910266 C259.754798,97.9910266 260.734798,104.991027 261.624798,111.991027 C261.567109,112.49525 261.442687,112.989575 261.254798,113.461027 L246.664798,112.331027 C245.124798,103.191027 243.544798,93.8910266 241.834798,83.7510266 L279.394798,87.5010266 C280.394798,96.6510266 281.294798,105.561027 282.304798,115.091027 L265.814798,113.951027 C264.454798,104.761027 263.144798,95.9410266 261.834798,87.1610266 Z" id="Path" fill="#FFFFFF"></path>
            <path d="M461.554798,215.311027 L451.554798,215.311027 C454.204798,188.551027 456.824798,162.161027 459.474798,135.431027 L470.644798,136.431027 C467.594798,162.841027 464.604798,188.821027 461.554798,215.311027 Z" id="Path" fill="#FFFFFF"></path>
            <path d="M222.654798,41.0110266 C218.044798,40.3610266 213.894798,40.0110266 209.844798,39.1010266 C208.264798,38.7510266 206.134798,37.5810266 205.664798,36.2810266 C204.854798,34.0210266 205.854798,31.6310266 208.014798,30.1110266 C213.694798,26.1110266 219.774798,22.8310266 226.554798,21.2210266 C234.511374,19.2898306 242.787533,19.0716781 250.834798,20.5810266 C252.274577,20.7769394 253.661274,21.2561656 254.914798,21.9910266 C259.914798,25.3510266 259.694798,29.6310266 255.464798,31.8510266 C250.844798,34.2810266 246.054798,36.6910266 241.044798,38.0110266 C234.954798,39.6310266 228.574798,40.1010266 222.654798,41.0110266 Z M241.724798,26.0110266 C235.724798,23.4210266 224.664798,25.1110266 220.584798,29.0810266 C218.774798,30.8410266 218.934798,31.8710266 221.464798,34.0810266 C223.804798,30.6710266 227.464798,29.8310266 231.224798,29.3510266 C233.739917,29.0527189 236.276612,28.9790945 238.804798,29.1310266 C240.964798,29.2710266 241.694798,28.3110266 241.724798,26.0310266 L241.724798,26.0110266 Z" id="Shape" fill="#FFFFFF"></path>
            <path d="M321.694798,16.3110266 C320.584798,20.0810266 317.454798,22.0610266 314.364798,23.8610266 C305.385152,29.0444433 295.339097,32.105805 284.994798,32.8110266 C281.223394,33.1247121 277.431396,33.0979372 273.664798,32.7310266 C270.664798,32.4210266 267.214798,31.8510266 266.294798,28.2410266 C265.294798,24.3210266 268.594798,22.7910266 271.214798,21.3510266 C284.114798,14.3510266 298.054798,11.6810266 312.624798,12.2010266 C316.894798,12.3610266 318.974798,13.5010266 321.694798,16.3110266 Z M279.694798,26.2610266 C285.744798,22.4410266 292.424798,21.2610266 299.304798,20.8310266 C300.804798,20.7310266 302.944798,21.3410266 303.054798,18.9010266 C303.174798,16.3110266 300.854798,16.4710266 299.184798,16.1110266 C298.302217,15.8862631 297.37738,15.8862631 296.494798,16.1110266 C291.364798,17.7610266 286.234798,19.4010266 281.194798,21.2910266 C278.894798,22.1510266 278.894798,24.1610266 279.674798,26.2610266 L279.694798,26.2610266 Z" id="Shape" fill="#FFFFFF"></path>
            <path d="M176.234798,106.841027 C170.154798,106.491027 164.944798,106.191027 159.724798,105.911027 C157.724798,105.811027 156.314798,105.141027 155.624798,103.061027 C152.544798,93.7810266 149.384798,84.5310266 146.274798,75.2610266 C146.174798,74.9610266 146.354798,74.5610266 146.514798,73.4710266 C153.744798,73.3010266 160.874798,75.0910266 168.334798,75.6510266 C170.894798,85.8510266 173.484798,95.9710266 176.234798,106.841027 Z" id="Path" fill="#FFFFFF"></path>
            <path d="M171.224798,53.3210266 C161.304798,52.5210266 151.394798,51.7410266 141.474798,50.8810266 C140.431652,50.8044094 139.425912,50.4599779 138.554798,49.8810266 C133.294798,46.0710266 128.204798,42.0010266 122.844798,38.3210266 C117.774798,34.8410266 112.434798,31.7410266 107.214798,28.4610266 C106.154798,27.8010266 105.114798,27.1110266 103.454798,26.0310266 C105.994798,24.6810266 108.124798,23.6010266 110.194798,22.4210266 C112.614798,21.0410266 114.634798,21.1710266 117.194798,22.6910266 C129.661465,30.1043599 142.201465,37.3743599 154.814798,44.5010266 C160.144798,47.5010266 165.754798,50.0110266 171.244798,52.7510266 L171.224798,53.3210266 Z" id="Path" fill="#FFFFFF"></path>
            <path d="M221.044798,110.221027 C214.924798,109.831027 209.904798,109.461027 204.884798,109.221027 C202.997307,109.270031 201.36466,107.91519 201.064798,106.051027 C198.854798,97.1510266 196.654798,88.2410266 194.284798,78.6710266 L215.944798,81.0210266 C217.634798,90.6410266 219.284798,100.131027 221.044798,110.221027 Z" id="Path" fill="#FFFFFF"></path>
            <path d="M284.014798,88.1110266 L302.304798,89.6410266 C304.734798,89.8510266 305.034798,91.8410266 305.234798,93.6410266 C305.544798,96.3310266 305.504798,99.0610266 305.654798,101.771027 C305.924798,106.601027 306.234798,111.421027 306.544798,116.551027 C299.944798,117.551027 294.004798,115.921027 287.694798,115.611027 C286.474798,106.501027 285.304798,97.7610266 284.014798,88.1110266 Z" id="Path" fill="#FFFFFF"></path>
            <path d="M197.384798,108.211027 C192.384798,107.991027 187.714798,107.891027 183.084798,107.471027 C181.905408,107.214337 180.918104,106.412616 180.424798,105.311027 C177.554798,95.9810266 174.894798,86.6010266 171.924798,76.4010266 C178.420835,76.69937 184.894632,77.367116 191.314798,78.4010266 L197.384798,108.211027 Z" id="Path" fill="#FFFFFF"></path>
            <path d="M350.044798,94.5710266 L370.584798,96.5710266 C373.404798,105.191027 370.114798,113.431027 371.424798,122.471027 L351.554798,121.021027 C351.054798,112.231027 350.564798,103.691027 350.044798,94.5710266 Z" id="Path" fill="#FFFFFF"></path>
            <path d="M376.624798,97.1310266 L397.624798,99.2410266 C397.174798,107.721027 396.744798,115.771027 396.274798,124.531027 L376.584798,122.941027 L376.624798,97.1310266 Z" id="Path" fill="#FFFFFF"></path>
            <path d="M149.664798,382.811027 C144.094798,383.381027 139.074798,384.061027 135.754798,379.811027 C133.930872,377.596587 132.674569,374.970709 132.094798,372.161027 C131.004798,365.621027 133.784798,361.521027 140.094798,359.331027 C138.764798,362.381027 137.304798,365.211027 136.284798,368.191027 C134.954798,372.091027 135.854798,375.021027 139.024798,377.281027 C141.794798,379.281027 144.484798,380.001027 147.944798,377.741027 C153.194798,374.311027 158.944798,371.631027 164.684798,368.521027 C166.614798,370.101027 165.824798,372.371027 165.434798,374.341027 C162.894798,387.721027 147.624798,394.501027 135.674798,387.591027 C128.974798,383.711027 124.894798,378.001027 124.674798,369.991027 C124.494798,363.741027 127.274798,359.211027 132.824798,356.421027 C136.574798,354.531027 140.554798,353.521027 145.124798,354.711027 C144.051379,355.155854 142.935693,355.490895 141.794798,355.711027 C132.994798,356.561027 127.384798,362.831027 127.954798,371.291027 C128.564798,380.221027 136.054798,387.221027 144.494798,386.761027 C146.434798,386.671027 147.494798,385.991027 149.664798,382.811027 Z" id="Path" fill="#FFFFFF"></path>
            <path d="M369.084798,34.0510266 C381.004798,33.4210266 392.254798,35.7710266 403.164798,39.8910266 C408.229372,41.8431282 413.192335,44.0492603 418.034798,46.5010266 C421.214798,48.0710266 424.404798,49.9010266 425.864798,54.2610266 C424.504798,54.8010266 423.254798,55.7310266 422.044798,55.6910266 C418.094798,55.5610266 414.044798,55.5410266 410.224798,54.6310266 C397.034798,51.4710266 383.914798,47.9610266 372.504798,40.1010266 C370.604798,38.7610266 368.234798,37.7510266 369.084798,34.0510266 Z M385.954798,40.6710266 C386.174798,41.8810266 386.114798,42.4010266 386.314798,42.5310266 C386.831906,42.9637828 387.464797,43.2350215 388.134798,43.3110266 C394.134798,42.9310266 399.404798,45.0410266 404.384798,48.1310266 C404.797357,48.4814341 405.287615,48.7282773 405.814798,48.8510266 C406.444798,48.8510266 407.534798,48.7010266 407.634798,48.3710266 C407.854798,47.6710266 407.844798,46.3710266 407.404798,46.0910266 C401.317976,41.3834626 393.547253,39.4199511 385.954798,40.6710266 L385.954798,40.6710266 Z" id="Shape" fill="#FFFFFF"></path>
            <path d="M308.084798,90.7810266 C314.544798,90.6410266 320.664798,91.6310266 327.004798,92.5010266 C327.584798,101.411027 328.144798,109.841027 328.744798,119.021027 L310.464798,117.501027 C309.654798,108.501027 308.894798,99.8910266 308.084798,90.7810266 Z" id="Path" fill="#FFFFFF"></path>
            <path d="M220.464798,81.5010266 L238.464798,83.2710266 C239.624798,92.5410266 240.774798,101.771027 242.014798,111.701027 L225.814798,110.751027 C223.554798,101.401027 222.334798,91.8610266 220.464798,81.5010266 Z" id="Path" fill="#FFFFFF"></path>
            <path d="M415.164798,357.091027 C413.944798,358.161027 412.894798,359.731027 411.464798,360.211027 C402.394798,363.301027 397.964798,377.561027 409.014798,385.991027 C412.241517,388.369589 416.337519,389.240461 420.252818,388.380397 C424.168117,387.520334 427.522029,385.01296 429.454798,381.501027 C427.664798,380.131027 426.914798,381.921027 425.874798,382.701027 C417.804798,388.701027 407.964798,385.261027 405.514798,375.481027 C404.444798,371.231027 405.514798,368.541027 410.304798,364.271027 C409.784798,366.651027 409.384798,368.451027 408.994798,370.271027 C407.994798,375.111027 409.124798,378.621027 412.254798,380.191027 C415.384798,381.761027 420.254798,380.661027 423.254798,377.751027 C426.254798,374.841027 429.394798,372.191027 432.514798,369.481027 C433.224118,368.975315 433.981028,368.539925 434.774798,368.181027 C436.321053,373.128478 435.713605,378.498264 433.101222,382.975276 C430.488839,387.452288 426.112786,390.623055 421.044798,391.711027 C409.504798,394.031027 401.534798,385.161027 399.694798,376.951027 C397.774798,368.391027 402.574798,357.671027 414.274798,356.141027 L415.164798,357.091027 Z" id="Path" fill="#FFFFFF"></path>
            <path d="M430.464798,54.6610266 C445.464798,52.8310266 475.094798,65.2610266 481.834798,76.1410266 C478.722359,78.3597416 474.766374,79.033806 471.094798,77.9710266 C465.650482,76.6124701 460.328759,74.8028835 455.184798,72.5610266 C448.184798,69.4910266 441.514798,65.8410266 434.734798,62.3710266 C430.094798,59.9810266 429.894798,59.5010266 430.464798,54.6610266 Z M468.004798,72.6610266 C469.574798,71.7710266 469.214798,70.2810266 467.454798,68.8910266 C461.574798,64.2510266 454.454798,62.7410266 447.394798,61.0310266 C446.554798,60.8210266 445.394798,61.9710266 444.124798,62.6110266 L468.004798,72.6610266 Z" id="Shape" fill="#FFFFFF"></path>
            <path d="M400.454798,124.811027 C400.814798,116.141027 401.154798,108.071027 401.504798,99.6310266 L419.574798,101.421027 C418.924798,109.741027 418.314798,117.571027 417.644798,126.141027 L400.454798,124.811027 Z" id="Path" fill="#FFFFFF"></path>
            <path d="M348.454798,120.641027 L334.214798,119.441027 C333.154798,110.621027 332.124798,102.101027 331.014798,92.7910266 L346.634798,94.1310266 C347.234798,102.791027 347.814798,111.341027 348.454798,120.641027 Z" id="Path" fill="#FFFFFF"></path>
            <path d="M479.134798,82.8510266 C479.064798,85.7210266 477.344798,85.8510266 475.054798,85.6210266 C461.364798,84.0510266 447.674798,82.5610266 433.974798,81.0510266 C430.214798,80.6310266 426.454798,80.2510266 422.224798,79.8010266 C424.144798,74.0610266 425.904798,68.8010266 427.614798,63.7410266 C443.774798,73.5010266 459.014798,84.5510266 479.134798,82.8510266 Z" id="Path" fill="#FFFFFF"></path>
            <path d="M437.064798,127.751027 L422.674798,126.501027 L422.674798,101.701027 L439.514798,103.421027 C438.674798,111.761027 437.894798,119.561027 437.064798,127.751027 Z" id="Path" fill="#FFFFFF"></path>
            <path d="M339.354798,241.991027 L320.294798,241.991027 C319.804798,235.261027 319.294798,228.831027 318.834798,221.991027 L337.224798,221.991027 C337.894798,228.501027 338.624798,235.061027 339.354798,241.991027 Z" id="Path" fill="#FFFFFF"></path>
            <path d="M164.894798,9.3910266 C176.654798,5.8610266 208.324798,12.7310266 216.494798,20.1110266 C212.226126,24.0888632 206.258065,25.6820957 200.574798,24.3610266 C191.494798,22.5110266 182.574798,20.2310266 174.844798,14.7310266 C172.134798,12.7910266 168.894798,11.5010266 164.894798,9.3910266 Z M183.614798,13.3910266 L183.194798,15.2610266 C188.624798,16.6310266 194.054798,18.0110266 199.514798,19.2610266 C199.844798,19.3310266 200.404798,18.4710266 201.444798,17.4910266 C195.264798,15.0810266 189.894798,12.1410266 183.644798,13.4110266 L183.614798,13.3910266 Z" id="Shape" fill="#FFFFFF"></path>
            <path d="M176.724798,352.591027 C168.374798,358.981027 160.084798,365.451027 151.644798,371.711027 C149.89811,373.013395 147.852103,373.855869 145.694798,374.161027 C143.967145,374.203035 142.293883,373.555321 141.044798,372.361027 C140.384798,371.711027 140.824798,369.681027 141.154798,368.361027 C141.531235,367.332692 142.120788,366.395542 142.884798,365.611027 C144.594798,363.501027 146.704798,361.611027 148.094798,359.351027 C152.704798,351.721027 160.224798,351.241027 167.844798,350.931027 C170.664798,350.821027 173.484798,350.931027 176.304798,350.931027 L176.724798,352.591027 Z M145.134798,373.001027 C145.854798,371.001027 146.304798,369.711027 146.754798,368.441027 C146.094798,368.271027 145.264798,367.751027 144.814798,367.981027 C143.054798,368.871027 142.634798,370.211027 145.134798,373.001027 Z" id="Shape" fill="#FFFFFF"></path>
            <path d="M152.704798,34.6510266 L130.704798,23.1610266 C138.704798,15.2810266 149.074798,13.2310266 159.704798,8.7210266 C157.214798,18.0010266 155.024798,26.0710266 152.704798,34.6510266 Z" id="Path" fill="#FFFFFF"></path>
            <path d="M443.374798,103.711027 L458.134798,105.171027 C457.204798,113.061027 456.314798,120.661027 455.344798,128.911027 L441.584798,128.171027 C442.194798,119.861027 442.764798,112.031027 443.374798,103.711027 Z" id="Path" fill="#FFFFFF"></path>
            <path d="M297.814798,242.561027 L282.814798,242.561027 C281.004798,235.911027 280.864798,228.881027 279.894798,221.171027 C284.284798,221.171027 288.584798,221.041027 292.894798,221.271027 C294.059529,221.518154 295.019565,222.33889 295.444798,223.451027 C296.324798,229.661027 297.004798,235.911027 297.814798,242.561027 Z" id="Path" fill="#FFFFFF"></path>
            <path d="M477.894798,106.971027 L491.354798,108.971027 C490.354798,116.561027 489.354798,123.681027 488.354798,130.971027 C484.044798,132.811027 479.904798,130.121027 474.914798,131.201027 C475.894798,122.581027 475.674798,114.641027 477.894798,106.971027 Z" id="Path" fill="#FFFFFF"></path>
            <path d="M413.894798,371.731027 L422.894798,352.361027 L444.894798,352.361027 C444.504798,353.191027 444.414798,353.761027 444.074798,354.041027 C436.844798,360.041027 429.604798,365.981027 422.314798,371.881027 C419.704798,374.031027 416.894798,374.581027 413.894798,371.731027 Z" id="Path" fill="#FFFFFF"></path>
            <path d="M394.744798,241.501027 C395.154798,234.871027 395.524798,228.831027 395.914798,222.501027 L411.594798,222.501027 C411.294798,228.871027 411.004798,235.051027 410.704798,241.501027 L394.744798,241.501027 Z" id="Path" fill="#FFFFFF"></path>
            <path d="M316.214798,242.291027 L302.324798,242.991027 C301.514798,235.781027 300.764798,228.991027 299.974798,221.911027 L314.364798,221.911027 C314.694798,225.171027 315.064798,228.511027 315.364798,231.851027 C315.664798,235.191027 315.894798,238.311027 316.214798,242.291027 Z" id="Path" fill="#FFFFFF"></path>
            <path d="M390.604798,241.501027 L376.174798,241.501027 L376.174798,222.421027 L391.464798,222.421027 C391.184798,228.811027 390.894798,234.991027 390.604798,241.501027 Z" id="Path" fill="#FFFFFF"></path>
            <path d="M207.214798,220.701027 C209.274798,228.171027 211.324798,235.601027 213.564798,243.751027 L202.334798,244.601027 C199.634798,236.461027 197.074798,228.771027 194.394798,220.701027 L207.214798,220.701027 Z" id="Path" fill="#FFFFFF"></path>
            <path d="M227.954798,220.701027 L240.604798,220.701027 L244.704798,243.151027 L232.704798,243.151027 C231.124798,235.651027 229.564798,228.321027 227.954798,220.701027 Z" id="Path" fill="#FFFFFF"></path>
            <path d="M257.194798,221.141027 C258.354798,228.701027 259.444798,235.761027 260.574798,243.141027 L248.514798,243.141027 C247.284798,236.011027 246.054798,228.831027 244.764798,221.291027 C248.894798,219.971027 252.894798,221.501027 257.194798,221.141027 Z" id="Path" fill="#FFFFFF"></path>
            <path d="M473.894798,106.771027 L471.114798,130.141027 L460.614798,129.611027 C459.824798,121.401027 461.614798,113.831027 461.914798,105.611027 L473.894798,106.771027 Z" id="Path" fill="#FFFFFF"></path>
            <path d="M265.604798,242.501027 C264.674798,235.501027 263.774798,228.711027 262.824798,221.501027 L275.134798,221.501027 C276.084798,228.251027 277.054798,235.101027 278.134798,242.501027 L265.604798,242.501027 Z" id="Path" fill="#FFFFFF"></path>
            <path d="M110.114798,16.8910266 C106.594798,18.8910266 103.544798,20.7210266 100.374798,22.3310266 C99.4117115,22.7956672 98.310054,22.8847981 97.2847981,22.5810266 C92.8947981,20.9810266 88.4947981,19.3210266 84.2847981,17.3410266 C82.9347981,16.7210266 81.3547981,15.1710266 81.1447981,13.8510266 C80.6985226,11.5988351 80.9532987,9.26396914 81.8747981,7.1610266 C83.0247981,5.0210266 85.5447981,5.6810266 87.7847981,6.2810266 C95.6747981,8.4110266 103.124798,11.4410266 110.114798,16.8910266 Z M93.4147981,12.3210266 C91.0447981,11.1110266 89.6347981,9.9210266 88.1547981,9.8210266 C87.3247981,9.7610266 85.8147981,11.4010266 85.5947981,12.4710266 C85.1847981,14.4710266 87.4447981,16.9010266 89.0747981,16.2910266 C90.4647981,15.7710266 91.4547981,14.1810266 93.4147981,12.3210266 Z" id="Shape" fill="#FFFFFF"></path>
            <path d="M228.134798,243.751027 L218.134798,243.751027 C216.134798,236.341027 214.004798,228.751027 211.804798,220.751027 L222.534798,220.751027 C223.394798,224.301027 224.314798,228.111027 225.244798,231.901027 C226.174798,235.691027 227.044798,239.271027 228.134798,243.751027 Z" id="Path" fill="#FFFFFF"></path>
            <path d="M475.634798,240.921027 L462.784798,240.921027 C463.614798,234.601027 464.404798,228.631027 465.264798,222.111027 L477.744798,221.551027 C477.024798,228.211027 476.354798,234.341027 475.634798,240.921027 Z" id="Path" fill="#FFFFFF"></path>
            <path d="M358.794798,222.071027 L370.894798,222.071027 L370.894798,241.801027 L360.154798,242.351027 C359.684798,235.351027 359.254798,228.941027 358.794798,222.071027 Z" id="Path" fill="#FFFFFF"></path>
            <path d="M443.664798,241.081027 L432.324798,241.081027 C431.254798,234.941027 432.914798,228.981027 433.254798,222.571027 L445.254798,222.571027 C444.744798,228.571027 444.234798,234.561027 443.664798,241.081027 Z" id="Path" fill="#FFFFFF"></path>
            <path d="M343.724798,221.851027 L354.464798,221.851027 C354.994798,228.601027 355.464798,235.121027 356.044798,241.991027 L345.264798,241.991027 C344.754798,235.301027 344.264798,228.891027 343.724798,221.851027 Z" id="Path" fill="#FFFFFF"></path>
            <path d="M427.314798,241.351027 L416.314798,241.851027 C416.624798,235.101027 416.894798,229.041027 417.194798,222.591027 L428.674798,222.591027 C429.514798,228.731027 428.114798,234.811027 427.314798,241.351027 Z" id="Path" fill="#FFFFFF"></path>
            <path d="M450.754798,222.391027 L460.194798,222.391027 C461.684798,228.821027 459.134798,234.741027 458.764798,240.961027 L448.764798,240.961027 C449.424798,234.681027 450.074798,228.711027 450.754798,222.391027 Z" id="Path" fill="#FFFFFF"></path>
            <path d="M480.224798,101.911027 C480.604798,98.3710266 480.874798,95.9110266 481.224798,92.9110266 L497.314798,94.2910266 C496.914798,97.4810266 496.554798,100.411027 496.084798,104.151027 L480.224798,101.911027 Z" id="Path" fill="#FFFFFF"></path>
            <path d="M195.894798,333.441027 L175.894798,333.441027 C175.534798,329.901027 175.144798,326.131027 174.644798,321.351027 L195.964798,332.501027 L195.894798,333.441027 Z" id="Path" fill="#FFFFFF"></path>
            <path d="M443.434798,342.231027 C444.524798,340.621027 445.884798,340.681027 447.044798,341.901027 C447.258377,342.671789 447.070536,343.498291 446.544798,344.101027 C444.894798,344.841027 443.894798,343.841027 443.434798,342.231027 Z" id="Path" fill="#000000"></path>
            <path d="M241.724798,26.0310266 C241.724798,28.3110266 240.964798,29.2710266 238.804798,29.1610266 C236.276612,29.0090945 233.739917,29.0827189 231.224798,29.3810266 C227.484798,29.8610266 223.804798,30.7010266 221.464798,34.1110266 C218.934798,31.8910266 218.774798,30.8610266 220.584798,29.1110266 C224.664798,25.1310266 235.724798,23.4410266 241.724798,26.0310266 Z" id="Path" fill="#000000"></path>
            <path d="M279.674798,26.2610266 C278.844798,24.1610266 278.844798,22.1510266 281.174798,21.2610266 C286.174798,19.3710266 291.344798,17.7310266 296.474798,16.0810266 C297.35738,15.8562631 298.282217,15.8562631 299.164798,16.0810266 C300.834798,16.4410266 303.164798,16.2810266 303.034798,18.8710266 C302.924798,21.3110266 300.784798,20.7010266 299.284798,20.8010266 C292.404798,21.2910266 285.724798,22.4410266 279.674798,26.2610266 Z" id="Path" fill="#000000"></path>
            <path d="M385.954798,40.6710266 C393.547253,39.4199511 401.317976,41.3834626 407.404798,46.0910266 C407.844798,46.4210266 407.854798,47.6710266 407.634798,48.3710266 C407.534798,48.7010266 406.444798,48.8710266 405.814798,48.8510266 C405.287615,48.7282773 404.797357,48.4814341 404.384798,48.1310266 C399.384798,45.0410266 394.154798,42.9310266 388.134798,43.3110266 C387.464797,43.2350215 386.831906,42.9637828 386.314798,42.5310266 C386.114798,42.4010266 386.174798,41.8810266 385.954798,40.6710266 Z" id="Path" fill="#000000"></path>
            <path d="M468.004798,72.6510266 L444.124798,62.6010266 C445.394798,61.9610266 446.554798,60.8110266 447.394798,61.0210266 C454.394798,62.7310266 461.574798,64.2410266 467.454798,68.8810266 C469.214798,70.2710266 469.574798,71.7610266 468.004798,72.6510266 Z" id="Path" fill="#000000"></path>
            <path d="M183.644798,13.4110266 C189.914798,12.1410266 195.264798,15.0810266 201.474798,17.5410266 C200.474798,18.5410266 199.874798,19.3810266 199.544798,19.3110266 C194.084798,18.0310266 188.654798,16.6510266 183.224798,15.3110266 L183.644798,13.4110266 Z" id="Path" fill="#000000"></path>
            <path d="M145.134798,373.001027 C142.634798,370.211027 143.054798,368.871027 144.814798,368.001027 C145.264798,367.771027 146.094798,368.291027 146.754798,368.461027 L145.134798,373.001027 Z" id="Path" fill="#000000"></path>
            <path d="M93.4147981,12.3210266 C91.4147981,14.1810266 90.4147981,15.7710266 89.0747981,16.3210266 C87.4447981,16.9310266 85.1847981,14.5010266 85.5947981,12.5010266 C85.8147981,11.4310266 87.3247981,9.7910266 88.1547981,9.8510266 C89.6347981,9.9210266 91.0447981,11.1110266 93.4147981,12.3210266 Z" id="Path" fill="#000000"></path>
        </g>
    </g>
</svg>