<svg width="654" height="894" viewBox="0 0 654 894" xmlns="http://www.w3.org/2000/svg"><g transform="translate(38 446)" fill="none"><path d="M71.89 153.06c-3.77-7-5.56-7.65-12.57-6.74a47.68 47.68 0 01-12-.46c-5.13-.66-10.06-1.41-15.37-.34-7.21 1.44-14.65 1.82-22 2.4a11.61 11.61 0 01-5.84-1.1c-3.15-1.6-3.4-5-.6-7.16 1.92-1.51 4.26-2.47 6.65-3.81-3.57-6.17-4.16-13-4-20.62-2.29-1.92-5.35-4-5.54-8 3.67-2.59 3.67-2.59 9.81-2.67 4-6.93 10.85-7.4 18-6.68 3.35.33 6.64 1.41 10 1.59 4.76.24 8.19 1.18 10.84 6.14 1.78 3.32 6.38 6.31 10.2 7.08 6.09 1.22 10.91 4.16 15.52 7.71a31.73 31.73 0 0012 5.78c10.27 2.52 20.46 5.35 30.65 8.19 3.65 1 6.21.56 8.64-2.89 10.08-14.31 20.48-28.4 30.72-42.59a13.48 13.48 0 002.23-12.62 210.84 210.84 0 01-6.48-28.2c-1.16-8-.79-16.16-.85-24.25a8.19 8.19 0 011.7-5c5-5.79 9.56-12.56 16.88-15.25 12.43-4.57 27.64-4.5 36.66 6.64 1.55 1.91 3 3.89 4.33 5.59 19.6-9.07 39.31-7.35 58.8-7.13 9.9.068 19.79.692 29.62 1.87a186.36 186.36 0 0125 5.25c6.07 1.62 11.73 4.78 17.81 6.27 7.46 1.82 11 7 12.22 13.55a326.63 326.63 0 015 36.65 135.9 135.9 0 01-1.84 33.62c-2.88 15.67-4.1 31.65-6 47.51a12 12 0 00.42 2.54c3.13-.49 6.17-1 9.21-1.42 7.35-1.07 14.68-2.41 22.07-3.08 9.3-.85 12.7 2.88 10.9 12a119.92 119.92 0 01-4.6 15.44c-1.55 4.47-3.53 8.79-5.27 13.19a30.84 30.84 0 00-.85 3.4c3.53.74 6.92 1.5 10.33 2.17 9.28 1.8 18.52 3.84 27.86 5.25 6.29 1 11 4.63 16.24 7.61.84.48 1.23 1.84 1.71 2.84 5.09 10.61 1.55 21.07-9 26.49-3.57 1.82-7.31 3.33-11.12 5.06-.61 17.8-1.07 35.36-1.86 52.9-.49 11-1.45 22-2.27 33-.12 1.56-.76 3.06-1 4.61-1 6-4.6 9.5-9.91 12.61-18.41 10.79-38.61 17.27-58.24 25.09-15.27 6.08-30.83 11.47-46.39 16.8-21.12 7.22-42.52 6.3-64 1.65-33.36-7.2-65.39-18.79-97.8-29.15-23.22-7.43-45.93-16.15-67.53-27.53-6.56-3.47-12.74-7.66-19.14-11.43-6.69-3.94-10.81-10.15-14.51-16.61-1.15-2-1.4-4.72-1.46-7.13-.67-28.84-1.23-57.68-1.83-86.53a16.85 16.85 0 00-.29-1.85c-3.26-1.7-6.85-3.47-10.35-5.41-4.9-2.73-10.14-5-14.51-8.48-11.38-8.94-8.31-22 1.51-27.4 9.06-4.93 19-7.06 28.86-9.23 10.12-2.22 20.24-4.5 30.35-6.77.777-.28 1.538-.6 2.28-.96zM158 43.15v-.19c.48 3.85-1 8.12 2.29 11.43 5-3 5.44-7.87 5.17-13.81 6.61 8.27-2.07 13.2-3.16 20.21H173c-2.08 5.52-6.55 5.36-11.73 5.27 1.55 4.39 2.83 8.13 4.2 11.84a8.11 8.11 0 007.65 5.66c4 .22 8.09.34 12.14.39A17.89 17.89 0 00200 77.06c2-2.49 4.2-4.87 6.3-7.3-1 8-6.76 12.28-12.71 16.45 1 1.87 1.71 3.23 2.47 4.56 2.45 4.29 4.3 5.36 8.64 3.89a39.62 39.62 0 0024-21.73l-11.55-18.67-3.83.2a36.91 36.91 0 01.83-3.63 23.1 23.1 0 00.24-13.28c-.7-2.85-2.35-4.31-5.21-4.27-2.86.04-2.87 2.26-3.08 4.32-.05.52-.51 1-1.15 2.2-1.74-2.51-3.42-5-2.06-7 1.72-2.53 4.7-4.19 7.33-6.39-4.86-19.3-17.6-21.43-30.25-19.89-12.65 1.54-21.89 10-22.27 19.91 3.48-.77 7.43-2.25 9.92 1.13 2 2.69.26 5.47-1.31 7.73l-9.4 1.54c.44 2.5.78 4.41 1.09 6.32zm143.25 140.9c-7.54-1.95-14-3.77-20.6-5.29-15.79-3.67-31.6-7.2-47.41-10.76a6.18 6.18 0 00-2.64-.25c-6.91 1.66-13.45-.28-19.93-2.13-17.31-4.93-34.53-10.16-51.86-15-5.81-1.62-11.81-3.31-17.76-3.31-12.39 0-24.61 2.34-36.71 5-24.88 5.373-49.743 10.84-74.59 16.4a70.12 70.12 0 00-12.18 4 23 23 0 00-7.22 4.84 10.05 10.05 0 001.56 15.73 106.82 106.82 0 0015 7.7c7.43 3.2 15.11 5.82 22.58 9 5.6 2.34 10.89 5.44 16.55 7.61 17 6.55 34 13.33 51.32 19.07 25.65 8.5 51.56 16.23 77.39 24.22 13.55 4.2 26.95 9.21 40.79 12.14 21.45 4.55 43.38 5.13 65.25 3.79 19.23-1.18 38-4.56 55.42-13.43 3.39-1.73 7.23-2.56 10.73-4.12 21-9.33 41.87-18.8 62.86-28.08 4.4-1.95 5.12-5.43 4.77-9.41-.51-5.78-4-9.35-10.47-10.78-12.55-2.74-25.13-5.32-37.71-7.88a41.48 41.48 0 00-5.62-.35c-2.31 5.11-5.48 9.82-6.48 14.95-1.18 6.05-4.62 8.19-9.81 9.48-18.8 4.667-37.58 9.373-56.34 14.12-13.89 3.56-27.57 3.89-41.19-1.31-6.31-2.41-12.72-4.59-19.2-6.48-8.91-2.59-11-8.55-5.62-17.23 1.37-2.21 5.24-3.23 8.17-4.06 13.39-3.79 26.84-7.32 40.27-10.94a6.15 6.15 0 001.91-.64c1.06-.76 2.39-1.5 2.9-2.58 1.97-4.4 3.69-8.78 5.9-14.02h-.03zm-7-44l24.3 4.46c-2.69 3.18-5.39 4-8.84 3.2-5-1.14-10-2-15.41-3-.66 10.17-1.28 19.76-1.94 29.8l11.1 2.72c.73-1.13 1.29-1.64 1.41-2.23 1.78-8.65 8.18-11.91 15.86-13.6 3.72-.81 7.49-1.39 11.25-2.09.49-1.32.92-2.34 1.25-3.4 6.27-19.69 8.61-40 9.28-60.55.22-6.53-.11-13.12.67-19.58 1.42-11.79 0-23.33-1.7-34.93-.48-3.36-2.11-5.25-5.26-6.15-4.33-1.25-8.57-2.85-12.94-3.9-32.5-7.8-65.5-9.13-98.72-7.37-3.05.17-6.09.73-10.06 1.22l7.7 16.15c32.4 3.55 65 7.13 97.7 10.73a3.24 3.24 0 011.22.51 1.1 1.1 0 01.34.55c.126.473.22.954.28 1.44-2.08.36-4.18 1.14-6.22 1-17.74-1.06-35.49-1.94-53.18-3.57-13.61-1.25-27.12-3.51-41.81-5.47.42 2.64.15 5 1.17 6.54 2.87 4.29 6.32 8.2 9.46 12.32 3.48 4.56 8.41 6.62 13.76 7.47 18.67 3 37.37 5.73 56.07 8.52 6.69 1 13.4 1.84 20.63 2.83-2.36 3.64-4.84 3.64-7.7 3.24-8.47-1.17-17-2.14-25.46-3.18-5.92-.72-11.84-1.42-17.9-2.14 2.94 3.67 5.75 6.77 8.06 10.21a55.12 55.12 0 015.08 9.53c1.5 3.58 3.91 4.9 7.71 5.32 10 1.12 19.89 2.7 30.43 4.18-2.44 3.18-4.92 3.64-8.09 3-6-1.15-12-2-18-2.94-2.32-.36-4.67-.51-7.18-.77 1.98 10.38 3.78 19.88 5.69 29.88l-.01.05zM41 263c19 9 37.5 18.2 56.43 26.55 46.74 20.62 94.83 37.07 145.51 45 21.39 3.36 42.66 2.82 63.67-2.68 34.06-8.92 67.07-20.87 99.48-34.56 1.25-.52 2.87-1.84 3-3 .83-5.65 1.8-11.35.84-17.5-2.38.67-4.33 1.13-6.22 1.77-20.5 6.9-40.87 14.2-61.51 20.65-28 8.77-56.37 15.66-86.23 13.38a235.48 235.48 0 01-47.81-8.39 1038.373 1038.373 0 01-98.36-33.87c-19.23-7.69-38-16.65-56.89-25-3.82-1.69-7.62-3.41-11.93-5.34L41 263zm-.92-48.86c0 4.07.28 7.39-.06 10.64-.66 6.18 2.6 9.39 7.72 11.81 11.61 5.49 22.92 11.66 34.7 16.76 33.12 14.33 67.12 26.32 101.55 37.06 17.61 5.49 35 11.77 53.43 14.48 18.43 2.71 36.65 4 55.09.91 32.8-5.57 64.39-15.4 95.53-26.85 7.78-2.86 15.46-6 23.4-9.08v-20.79c-4.66 1.39-9 2.35-13.18 4-7.92 3.14-15.64 6.81-23.55 10-7.52 3-15.17 5.73-22.75 8.61-4.62 1.75-9.11 4-13.84 5.28-29.6 8.2-59.67 8.06-89.87 4.64-6.9-.78-13.93-1.57-20.53-3.57-29.77-9-59.61-17.84-89-27.89-30.69-10.48-60.94-22.29-91.38-33.5-2.07-.76-4.14-1.42-7.25-2.48l-.01-.03zm1.21 54.16c.47 5 .94 8.77 1.14 12.53a12 12 0 006.19 10.36c14.93 9.34 30.08 18.27 46.5 24.74 15.1 5.94 30.24 11.79 45.53 17.2 35.52 12.57 71.46 23.53 109.23 27.13 19.71 1.88 39.1.82 58.25-4.57 27.82-7.83 54.51-18.76 81.39-29.18 6-2.35 11.91-5.19 17.76-7.76.47-5.3.91-10.15 1.38-15.4a28.81 28.81 0 00-3.75.83c-26.47 10.3-53.5 18.91-80.53 27.57-28 9-56.07 12.16-85.25 8-31.88-4.58-62.43-13.8-92.58-24.64-34.63-12.45-67.88-28-100.55-44.89-1.13-.59-2.37-.97-4.7-1.89l-.01-.03zm365.9 56.7c-5.07 2-9.66 3.78-14.19 5.68-27.85 11.69-56 22.44-85.22 30.35-20.5 5.56-41.29 6.12-62.31 4.22-21.68-2-42.66-7.08-63.32-13.5-17.4-5.42-34.58-11.61-51.81-17.59-25.79-8.95-50.93-19.4-74.68-33-3.84-2.19-7.72-4.32-11.72-6.56-2.15 10.93 1.37 14.36 6.77 18.86a62.33 62.33 0 0012.42 8.12c13.58 6.57 27 13.8 41.12 18.85 26.28 9.38 53 17.41 79.62 26 21.65 7 43.31 13.75 66 16.92 19 2.65 37.82 3.19 56.05-3.48 21.14-7.73 42.07-16 63-24.3 9.16-3.62 18.09-7.82 27.21-11.55 9.33-3.82 11.87-7.77 11.06-19.02zm-17.78-168.67c-11.74 1.53-22.91 2.79-34 4.47-11.35 1.71-22.65 3.84-34 5.78-6.29 1.09-10.54 4.14-12.45 10.72-2.7 9.29-5.84 18.48-9.31 27.52a218.74 218.74 0 01-10.64 24c-3.57 6.73-9.15 7-15.53 1.36 2.24-.28 4.3-.22 6.12-.86 1.82-.64 4.27-1.6 4.9-3.08 2.6-6.08 4.61-12.41 7.2-19.66-15.1 4.84-29 9.26-42.84 13.8-1.73.57-3.22 1.86-5.81 3.41a49.58 49.58 0 005.5 3.28c4 1.62 7.94 3.24 12 4.49 8.4 2.57 16.8 5.19 25.33 7.21 6.61 1.56 9 .16 12.56-5.73 1.22-2 2.36-3.66 5.15-3.52 1.49.08 3-.69 4.55-1.05 15.12-3.56 30.23-7.19 45.38-10.61 3.18-.71 6.53-.66 9.76-1l1.4 5.53 1.32.29c2-3.87 4.41-7.59 6-11.62 5.67-14.48 11.09-29 16.54-43.61 1.28-3.26 2.31-6.71.87-11.12zm-340.88-16c4.57.21 8.78.3 13 .63a14 14 0 015.67 1.27 34.79 34.79 0 018.13 6c3.09 3.29 6.39 3.41 10.4 2.59 10.14-2.06 20.29-4.24 30.53-5.67 9.57-1.33 19.32-2.84 28.87-2.25 7.44.46 12.53-2.67 19.08-6.13l-22.25-12.94c-4.3 3.91-8.62 7.49-12.52 11.49a8.53 8.53 0 01-8.4 2.77c-17.92-3.22-36.16-5.59-51.56-16.45-6.64-4.68-13.14-4.7-20.34-2-3.4 1.3-5.71 3.1-6.83 8l10.91-3.1 16 7.68c-3 2.85-6.34 2.21-9.91-.06-7.54-4.78-8.59-4.3-10.24 4.29-.25 1.03-.32 2.1-.54 3.84v.04zM160.08 144c4.33 1.38 7 2.29 9.71 3.08 16 4.62 32 9.2 47.93 13.85 4.32 1.25 7.8.55 10.77-3.18 1.94-2.43 4.63-4.26 6.88-6.46 5.25-5.13 10.43-10.32 16-15.83-7.32-5.29-13.72-10.15-21.79-12.3-4-1.07-6.91-.44-9.36 3-2.59 3.68-5.47 7.16-8.3 10.66-1.48 1.82-3.16 3.49-4.74 5.23l-1.76 1.19c1.3-6.75-2.33-6-5.17-5.7-11.39 1.24-22.77 2.65-34.14 4.12-1.57.26-3.03 1.19-6.03 2.34zm183.72 13.57c1.15-5.21 2.38-9.78 3.13-14.42 4.24-26.28 6.67-52.72 5.83-79.34-.29-9.17-2.13-18.29-3.33-27.42a8.48 8.48 0 00-5.91-7.47c-8.25-3-16.31-6.49-24.68-9.06-13.2-4-26.89-5.29-40.63-6.09-17.35-1-34.65-1.11-51.82 2-4.09.74-8.06 2-11.28 5 4.36.13 8.55-.58 12.75-.69 25.22-.66 50.45-1.67 75.52 2.5 11.33 1.88 22.67 3.63 33.44 8 4.9 2 7.89 5.35 8.34 10.43.9 10.3 1.89 20.64 1.93 31 0 10.78-1.11 21.56-1.58 32.35a212.39 212.39 0 01-7.18 47.29c-.58 2.1-1 4.23-1.71 7l7.18-1.08zM16 107.21c-1.76 4.67-1.74 4.66-.21 7.67.49 1 1.31 2.06 1.21 3-.67 6.16-1.54 12.29-2.43 19.08.113.388.37.717.72.92 9.56 5.08 19 3.82 28.33-.73 1.13-.55 1.52-2.64 2.3-4.09-9.68-3.9-9.9-4.78-4-12.41a13.93 13.93 0 011.24-1.6c2.9-2.89 3.1-6.21 1.66-10.37C35 111.5 25.15 113.9 16 107.21zm-.78 36.94a845.64 845.64 0 01-4-5.66c-3 1.31-6 1.62-7.2 5.66h11.2zm-5-31.43c.31-6-.52-6.48-6.75-3.94 1.33 2.85 3.29 4.49 6.65 3.94h.1zm4.74 6.49c-1.46-1.53-2.68-3.23-3-3.08a6.07 6.07 0 00-2.92 2.8c-.22.52 1.34 2.53 2.07 2.52 1-.02 2.09-1.2 3.75-2.24h.1zm15.06-15.82c-3.48-.23-7.37-1.95-10.92 1.14l10.92-1.14zM8.84 127.15l4.1 4.88c1.15-3.91 1.44-5.82-4.2-4.88h.1z" fill="#000"/><path d="M301.28 184.05c-2.21 5.24-3.93 9.62-5.93 13.87-.51 1.08-1.84 1.82-2.9 2.58a6.15 6.15 0 01-1.91.64c-13.43 3.62-26.88 7.15-40.27 10.94-2.93.83-6.8 1.85-8.17 4.06-5.38 8.68-3.29 14.64 5.62 17.23 6.48 1.89 12.89 4.07 19.2 6.48 13.62 5.2 27.3 4.87 41.19 1.31a5433.418 5433.418 0 0156.34-14.12c5.19-1.29 8.63-3.43 9.81-9.48 1-5.13 4.17-9.84 6.48-14.95a41.48 41.48 0 015.62.35c12.58 2.56 25.16 5.14 37.71 7.88 6.52 1.43 10 5 10.47 10.78.35 4-.37 7.46-4.77 9.41-21 9.28-41.89 18.75-62.86 28.08-3.5 1.56-7.34 2.39-10.73 4.12-17.42 8.87-36.19 12.25-55.42 13.43-21.87 1.34-43.8.76-65.25-3.79-13.84-2.93-27.24-7.94-40.79-12.14-25.83-8-51.74-15.72-77.39-24.22C100 230.77 83 224 66 217.44c-5.66-2.17-11-5.27-16.55-7.61-7.47-3.13-15.15-5.75-22.58-9a106.82 106.82 0 01-15-7.7 10.05 10.05 0 01-1.56-15.73 23 23 0 017.22-4.84 70.12 70.12 0 0112.18-4c24.84-5.56 49.703-11.027 74.59-16.4 12.1-2.61 24.32-5 36.71-5 5.93 0 12 1.7 17.79 3.32 17.33 4.83 34.55 10.06 51.86 15 6.48 1.85 13 3.79 19.93 2.13a6.18 6.18 0 012.64.25c15.81 3.56 31.62 7.09 47.41 10.76 6.6 1.66 13.1 3.48 20.64 5.43zm-91.72-7.2l-.4-2.09c-2-.74-4-1.67-6.09-2.21-16.79-4.32-33.57-8.68-50.43-12.73a22.16 22.16 0 00-9.31.12c-16.1 3.28-32.16 6.81-48.23 10.27-4.4.94-8.84 1.77-13.17 3-1.28.36-2.25 1.86-3.36 2.83 1 1.08 1.72 2.49 2.91 3.17a25.32 25.32 0 005.11 1.69c18.72 5.8 37.43 11.64 56.16 17.37 5.4 1.65 10 3.25 16.26-.49 9-5.32 19.59-7.78 29.49-11.51 5.48-2.06 11-4.15 16.35-6.4a31.5 31.5 0 004.71-3.02zm84.7-36.85c-1.91-10.07-3.71-19.54-5.68-29.9 2.51.26 4.86.41 7.18.77 6 .91 12 1.79 18 2.94 3.17.61 5.65.15 8.09-3-10.54-1.48-20.46-3.06-30.43-4.18-3.8-.42-6.21-1.74-7.71-5.32a55.12 55.12 0 00-5.08-9.53c-2.31-3.44-5.12-6.54-8.06-10.21 6.06.72 12 1.42 17.9 2.14 8.49 1 17 2 25.46 3.18 2.86.4 5.34.4 7.7-3.24-7.23-1-13.94-1.84-20.63-2.83-18.7-2.79-37.4-5.56-56.07-8.52-5.35-.85-10.28-2.91-13.76-7.47-3.14-4.12-6.59-8-9.46-12.32-1-1.52-.75-3.9-1.17-6.54 14.69 2 28.2 4.22 41.81 5.47 17.69 1.63 35.44 2.51 53.18 3.57 2 .12 4.14-.66 6.22-1a10.71 10.71 0 00-.28-1.44 1.1 1.1 0 00-.34-.55 3.24 3.24 0 00-1.22-.51c-32.65-3.6-65.3-7.18-97.7-10.73l-7.7-16.15c4-.49 7-1 10.06-1.22 33.22-1.76 66.22-.43 98.72 7.37 4.37 1.05 8.61 2.65 12.94 3.9 3.15.9 4.78 2.79 5.26 6.15 1.66 11.6 3.12 23.14 1.7 34.93-.78 6.46-.45 13-.67 19.58-.67 20.56-3 40.86-9.28 60.55-.33 1.06-.76 2.08-1.25 3.4-3.76.7-7.53 1.28-11.25 2.09-7.68 1.69-14.08 5-15.86 13.6-.12.59-.68 1.1-1.41 2.23l-11.1-2.72c.66-10 1.28-19.63 1.94-29.8 5.38 1 10.43 1.88 15.41 3 3.45.79 6.15 0 8.84-3.2l-24.3-4.49z" fill="#FFF"/><path d="M41 263v-23c4.31 1.93 8.11 3.65 11.93 5.34 18.94 8.39 37.66 17.35 56.89 25a1065.255 1065.255 0 0098.36 33.87 235.48 235.48 0 0047.82 8.43c29.86 2.28 58.21-4.61 86.23-13.38 20.64-6.45 41-13.75 61.51-20.65 1.89-.64 3.84-1.1 6.22-1.77 1 6.15 0 11.85-.84 17.5-.16 1.14-1.78 2.46-3 3-32.41 13.69-65.42 25.64-99.48 34.56-21 5.5-42.28 6-63.67 2.68-50.68-7.94-98.77-24.39-145.51-45C78.5 281.2 60 272 41 263z" fill="#FFF"/><path d="M40.09 214.17c3.11 1.06 5.18 1.72 7.23 2.47 30.44 11.21 60.69 23 91.38 33.5C168.12 260.19 198 269 227.73 278c6.6 2 13.63 2.79 20.53 3.57 30.2 3.42 60.27 3.56 89.87-4.64 4.73-1.32 9.22-3.53 13.84-5.28 7.58-2.88 15.23-5.57 22.75-8.61 7.91-3.19 15.63-6.86 23.55-10 4.13-1.64 8.52-2.6 13.18-4v20.86c-7.94 3.09-15.62 6.22-23.4 9.08-31.14 11.45-62.73 21.28-95.53 26.85-18.44 3.13-36.75 1.79-55.09-.91-18.34-2.7-35.82-9-53.43-14.48-34.43-10.74-68.43-22.73-101.55-37.06-11.78-5.1-23.09-11.27-34.7-16.76-5.12-2.42-8.38-5.63-7.72-11.81.34-3.25.06-6.57.06-10.64z" fill="#FFF"/><path d="M41.3 268.33c2.33.92 3.57 1.3 4.71 1.89 32.67 16.87 65.92 32.44 100.55 44.89 30.15 10.84 60.7 20.06 92.58 24.64 29.18 4.19 57.3 1 85.25-8 27-8.66 54.06-17.27 80.53-27.57a28.81 28.81 0 013.75-.83c-.47 5.25-.91 10.1-1.38 15.4-5.85 2.57-11.71 5.41-17.76 7.76-26.88 10.42-53.57 21.35-81.39 29.18-19.15 5.39-38.54 6.45-58.25 4.57-37.77-3.6-73.71-14.56-109.23-27.13-15.29-5.41-30.43-11.26-45.53-17.2-16.42-6.47-31.57-15.4-46.5-24.74a12 12 0 01-6.19-10.36c-.2-3.73-.67-7.47-1.14-12.5z" fill="#FFF"/><path d="M407.19 325c.82 11.25-1.73 15.2-11.07 19-9.12 3.73-18 7.93-27.21 11.55-20.94 8.25-41.87 16.57-63 24.3-18.23 6.67-37.05 6.13-56.05 3.48-22.67-3.17-44.33-9.92-66-16.92-26.57-8.59-53.34-16.62-79.62-26-14.15-5.05-27.54-12.28-41.12-18.85a62.33 62.33 0 01-12.42-8.12c-5.4-4.5-8.92-7.93-6.77-18.86 4 2.24 7.88 4.37 11.72 6.56 23.75 13.59 48.89 24 74.68 33 17.23 6 34.41 12.17 51.81 17.59 20.66 6.42 41.64 11.55 63.32 13.5 21 1.9 41.81 1.34 62.31-4.22 29.19-7.91 57.37-18.66 85.22-30.35 4.54-1.88 9.13-3.66 14.2-5.66zm-17.78-168.67c1.44 4.41.41 7.86-.85 11.21-5.45 14.56-10.87 29.13-16.54 43.61-1.58 4-4 7.75-6 11.62l-1.32-.29-1.4-5.53c-3.23.3-6.58.25-9.76 1-15.15 3.42-30.26 7.05-45.38 10.61-1.52.36-3.06 1.13-4.55 1.05-2.79-.14-3.93 1.52-5.15 3.52-3.56 5.89-6 7.29-12.56 5.73-8.53-2-16.93-4.64-25.33-7.21-4.09-1.25-8.07-2.87-12-4.49a49.58 49.58 0 01-5.5-3.28c2.59-1.55 4.08-2.84 5.81-3.41 13.85-4.54 27.74-9 42.84-13.8-2.59 7.25-4.6 13.58-7.2 19.66-.63 1.48-3.09 2.44-4.9 3.08-1.81.64-3.88.58-6.12.86 6.38 5.62 12 5.37 15.53-1.36a218.74 218.74 0 0010.64-24c3.47-9 6.61-18.23 9.31-27.52 1.91-6.58 6.16-9.63 12.45-10.72 11.33-1.94 22.63-4.07 34-5.78 11.07-1.77 22.24-3.03 33.98-4.56zm-47.69 43.52c4-.22 6.63-4.15 6.4-7.62-.17-2.58-1.74-3.41-4-3.3-3 .13-6.6 3.46-5.83 6.07.54 2 2.49 3.6 3.43 4.85zm-81.44 26.39a25 25 0 00-3.71-1.4c-.48-.1-1.08.43-2.28 1 1.84 1.36 2.91 3.04 5.99.4zM158 43.15c-.34-1.91-.68-3.82-1.12-6.31l9.4-1.54c1.57-2.26 3.3-5 1.31-7.73-2.49-3.38-6.44-1.9-9.92-1.13.38-9.87 9.52-18.35 22.27-19.91 12.75-1.56 25.39.59 30.25 19.89-2.63 2.2-5.61 3.86-7.33 6.39-1.36 2 .32 4.48 2.06 7 .64-1.2 1.1-1.68 1.15-2.2.21-2.06.22-4.28 3.08-4.32 2.86-.04 4.51 1.42 5.21 4.27a23.1 23.1 0 01-.24 13.28 36.91 36.91 0 00-.83 3.63l3.83-.2 11.55 18.67a39.62 39.62 0 01-24 21.73c-4.34 1.47-6.19.4-8.64-3.89-.76-1.33-1.46-2.69-2.47-4.56 5.95-4.17 11.68-8.44 12.71-16.45-2.1 2.43-4.26 4.81-6.3 7.3A17.89 17.89 0 01185.25 84c-4-.05-8.1-.17-12.14-.39a8.11 8.11 0 01-7.65-5.66c-1.37-3.71-2.65-7.45-4.2-11.84 5.18.09 9.65.25 11.73-5.27h-10.7c1.09-7 9.77-11.94 3.16-20.21.27 5.94-.13 10.8-5.17 13.81-3.28-3.31-1.81-7.58-2.28-11.39m30-7c1.66-2.75 3-5.37 1.15-7.8-2-2.64-5.19-2-8.07-1.45a2.48 2.48 0 00-1.26.41c-1.29 1.34-3.48 2.7-3.55 4.15a4.31 4.31 0 004.55 4.68c2.47.04 4.9.01 7.18.01zM177.18 72l.49 1.41c6.36.4 8.3-.82 9.26-6.84L177.18 72zM48.53 140.29c.22-1.74.29-2.81.49-3.85 1.65-8.59 2.7-9.07 10.24-4.29 3.57 2.27 6.86 2.91 9.91.06l-16-7.68-10.91 3.1c1.12-4.88 3.43-6.68 6.83-8 7.2-2.75 13.7-2.73 20.34 2 15.4 10.86 33.64 13.23 51.56 16.45a8.53 8.53 0 008.4-2.77c3.9-4 8.22-7.58 12.52-11.49l22.25 12.94c-6.55 3.46-11.64 6.59-19.08 6.13-9.55-.59-19.3.92-28.87 2.25-10.24 1.43-20.39 3.61-30.53 5.67-4 .82-7.31.7-10.4-2.59a34.79 34.79 0 00-8.13-6 14 14 0 00-5.67-1.27c-4.17-.36-8.38-.45-12.95-.66zM160.08 144c3-1.17 4.46-2.1 6-2.3 11.37-1.47 22.75-2.88 34.14-4.12 2.84-.31 6.47-1.05 5.17 5.7l1.76-1.19c1.58-1.74 3.26-3.41 4.74-5.23 2.83-3.5 5.71-7 8.3-10.66 2.45-3.48 5.36-4.11 9.36-3 8.07 2.15 14.47 7 21.79 12.3-5.55 5.51-10.73 10.7-16 15.83-2.25 2.2-4.94 4-6.88 6.46-3 3.73-6.45 4.43-10.77 3.18-16-4.65-32-9.23-47.93-13.85-2.68-.81-5.35-1.72-9.68-3.12zm183.72 13.59l-7.18 1c.68-2.82 1.13-4.95 1.71-7a212.39 212.39 0 007.18-47.29c.47-10.79 1.61-21.57 1.58-32.35 0-10.32-1-20.66-1.93-31-.45-5.08-3.44-8.46-8.34-10.43-10.77-4.34-22.11-6.09-33.44-8-25.07-4.17-50.3-3.16-75.52-2.5-4.2.11-8.39.82-12.75.69 3.22-3 7.19-4.28 11.28-5 17.17-3.08 34.47-3 51.82-2 13.74.8 27.43 2.05 40.63 6.09 8.37 2.57 16.43 6.09 24.68 9.06a8.48 8.48 0 015.91 7.47c1.2 9.13 3 18.25 3.33 27.42.84 26.62-1.59 53.06-5.83 79.34-.75 4.72-1.93 9.29-3.13 14.5z" fill="#FFF"/><path d="M16 107.21c9.2 6.69 19 4.29 28.85 1.48 1.44 4.16 1.24 7.48-1.66 10.37a13.93 13.93 0 00-1.24 1.6c-5.93 7.63-5.71 8.51 4 12.41-.78 1.45-1.17 3.54-2.3 4.09-9.28 4.55-18.77 5.81-28.33.73a1.57 1.57 0 01-.72-.92c.89-6.79 1.76-12.92 2.43-19.08.1-.95-.72-2-1.21-3-1.61-3.02-1.63-3.01.18-7.68zm-.83 36.94H3.94c1.22-4 4.19-4.35 7.2-5.66 1.24 1.73 2.38 3.34 4.03 5.66zm-5.05-31.43c-3.36.55-5.32-1.09-6.75-3.94 6.23-2.54 7.06-2.04 6.75 3.94z" fill="#FFF"/><path d="M14.86 119.21c-1.66 1-2.75 2.22-3.87 2.24-.73 0-2.29-2-2.07-2.52a6.07 6.07 0 012.92-2.8c.34-.13 1.56 1.55 3.02 3.08zm15.06-15.82L19 104.53c3.55-3.09 7.44-1.37 10.92-1.14zM8.74 127.15c5.64-.94 5.35 1 4.1 4.88l-4.1-4.88z" fill="#FFF"/><path d="M209.56 176.85a31.5 31.5 0 01-4.71 3c-5.4 2.25-10.87 4.34-16.35 6.4-9.9 3.75-20.5 6.2-29.5 11.52-6.29 3.74-10.86 2.14-16.26.49-18.73-5.73-37.44-11.57-56.16-17.37a25.32 25.32 0 01-5.11-1.69c-1.19-.68-2-2.09-2.91-3.17 1.11-1 2.08-2.47 3.36-2.83 4.33-1.22 8.77-2.05 13.17-3 16.07-3.46 32.13-7 48.23-10.27a22.16 22.16 0 019.31-.12c16.86 4 33.64 8.41 50.43 12.73 2.08.54 4.06 1.47 6.09 2.21l.41 2.1zm-118.88 0a32.38 32.38 0 003.27 1.54c17.18 5.31 34.38 10.55 51.55 15.92a14.6 14.6 0 009.82-.5c11.39-4.17 22.83-8.21 34.25-12.31 3.27-1.18 6.53-2.41 10.75-4a26.69 26.69 0 00-3.45-1.63c-16.35-4.15-32.68-8.34-49.07-12.29-2-.49-4.42 0-6.54.52-14.22 3.37-28.4 6.85-42.59 10.34-2.31.56-4.56 1.36-7.99 2.39v.02zm251.04 23c-.94-1.25-2.89-2.85-3.47-4.85-.77-2.61 2.78-5.94 5.83-6.07 2.3-.11 3.87.72 4 3.3.27 3.47-2.41 7.4-6.36 7.62zm-81.44 26.39c-3.08 2.64-4.15 1-6-.43 1.2-.54 1.8-1.07 2.28-1a25 25 0 013.72 1.43zM188 36.05h-7.18a4.31 4.31 0 01-4.55-4.68c.07-1.45 2.26-2.81 3.55-4.15a2.48 2.48 0 011.26-.41c2.88-.54 6.06-1.19 8.07 1.45 1.85 2.42.55 5.04-1.15 7.79zM177.18 72l9.75-5.43c-1 6-2.9 7.24-9.26 6.84l-.49-1.41z" fill="#000"/><path d="M90.68 176.83c3.43-1 5.68-1.81 8-2.38 14.19-3.49 28.37-7 42.59-10.34 2.12-.5 4.51-1 6.54-.52 16.39 3.95 32.72 8.14 49.07 12.29a26.69 26.69 0 013.45 1.63c-4.22 1.56-7.48 2.79-10.75 4-11.42 4.1-22.86 8.14-34.25 12.31a14.6 14.6 0 01-9.82.5c-17.17-5.37-34.37-10.61-51.55-15.92a32.38 32.38 0 01-3.28-1.57z" fill="#FFF"/><ellipse fill="#000" cx="161.76" cy="42.92" rx="2.07" ry="3.18"/><ellipse fill="#000" cx="179.86" cy="42.92" rx="2.07" ry="3.18"/></g></svg>