<?xml version="1.0" encoding="UTF-8"?>
<svg width="605px" height="861px" viewBox="0 0 605 861" version="1.1" xmlns="http://www.w3.org/2000/svg" xmlns:xlink="http://www.w3.org/1999/xlink">
    <title>presenter</title>
    <g id="presenter" stroke="none" stroke-width="1" fill="none" fill-rule="evenodd">
        <g id="LOGOS-Y-GRAFICAMesa-de-trabajo-1-copia-10" transform="translate(28.000000, 6.000000)" fill-rule="nonzero">
            <path d="M574.42,206.79 C574.546667,240.85 574.676667,274.916667 574.81,308.99 C574.92,333.8 575.18,358.6 575.23,383.41 C575.23,396.25 574.76,409.09 574.86,421.93 C575.02,441.99 575.39,462.06 575.86,482.12 C576.29,500.41 576.27,518.65 572.45,536.65 C571.686378,540.636974 570.503127,544.531981 568.92,548.27 C563.55,560.27 553.92,566.82 540.99,567.54 C533.67,567.95 526.2,566.91 518.89,565.87 C500.39,563.23 481.89,560.33 463.47,557.33 C448.79,554.95 434.2,552.01 419.47,549.8 C405.68,547.74 391.74,546.63 377.95,544.52 C358.57,541.52 339.27,538.1 319.95,534.81 C286.63,529.13 253.32,523.37 219.95,517.73 C183.08,511.48 146.21,505.19 109.29,499.19 C96.18,497.06 82.99,495.58 70.23,491.53 C65.9637647,490.213015 62.1526525,487.725398 59.23,484.35 C51.95,476.21 50.71,466.14 49.67,456.06 C48.67,445.77 47.94,435.49 49.26,425.06 C50.26,416.82 47.88,177.88 47.54,172.72 C47.06,165.59 48.81,158.87 50.69,152.11 C51.3324503,149.211194 53.2986083,146.782193 56,145.55 C62.75,142.43 69.35,138.95 76.26,136.24 C130.65,114.87 186.09,96.58 242.04,79.76 C321.95,55.76 402.62,34.53 483.53,14.21 C504.93,8.84 526.8,5.34 548.47,1.12 C554.53,-0.06 560.19,-0.04 565.71,4.27 C571.56,8.83 574.82,14.2 574.92,21.41 C575.07,33.12 575.01,44.84 574.92,56.55 C574.71,80 574.25,103.46 574.18,126.91 C574.1,153.53 574.35,180.15 574.45,206.77 L574.42,206.79 Z" id="Path" fill="#000000"></path>
            <path d="M71.89,612.06 C68.12,605.06 66.33,604.41 59.32,605.32 C55.3165991,605.673018 51.2846276,605.518459 47.32,604.86 C42.19,604.2 37.26,603.45 31.95,604.52 C24.74,605.96 17.3,606.34 9.95,606.92 C7.94086872,607.06619 5.92827107,606.687105 4.11,605.82 C0.96,604.22 0.71,600.82 3.51,598.66 C5.43,597.15 7.77,596.19 10.16,594.85 C6.59,588.68 6,581.85 6.16,574.23 C3.87,572.31 0.81,570.23 0.62,566.23 C4.29,563.64 4.29,563.64 10.43,563.56 C14.43,556.63 21.28,556.16 28.43,556.88 C31.78,557.21 35.07,558.29 38.43,558.47 C43.19,558.71 46.62,559.65 49.27,564.61 C51.05,567.93 55.65,570.92 59.47,571.69 C65.56,572.91 70.38,575.85 74.99,579.4 C78.5360111,582.153974 82.6261126,584.124039 86.99,585.18 C97.26,587.7 107.45,590.53 117.64,593.37 C121.29,594.37 123.85,593.93 126.28,590.48 C136.36,576.17 146.76,562.08 157,547.89 C159.82332,544.328272 160.661719,539.583609 159.23,535.27 C156.426776,526.029481 154.261679,516.607299 152.75,507.07 C151.59,499.07 151.96,490.91 151.9,482.82 C151.899028,481.011343 152.496785,479.253234 153.6,477.82 C158.6,472.03 163.16,465.26 170.48,462.57 C182.91,458 198.12,458.07 207.14,469.21 C208.69,471.12 210.14,473.1 211.47,474.8 C231.07,465.73 250.78,467.45 270.27,467.67 C280.170584,467.737525 290.059534,468.361844 299.89,469.54 C308.333606,470.716122 316.686558,472.470242 324.89,474.79 C330.96,476.41 336.62,479.57 342.7,481.06 C350.16,482.88 353.7,488.06 354.92,494.61 C357.277627,506.722411 358.94697,518.958694 359.92,531.26 C360.702676,542.499612 360.0846,553.792934 358.08,564.88 C355.2,580.55 353.98,596.53 352.08,612.39 C352.12851,613.249278 352.26932,614.100844 352.5,614.93 C355.63,614.44 358.67,613.93 361.71,613.51 C369.06,612.44 376.39,611.1 383.78,610.43 C393.08,609.58 396.48,613.31 394.68,622.43 C393.494506,627.673962 391.957705,632.832266 390.08,637.87 C388.53,642.34 386.55,646.66 384.81,651.06 C384.462448,652.176305 384.178657,653.311471 383.96,654.46 C387.49,655.2 390.88,655.96 394.29,656.63 C403.57,658.43 412.81,660.47 422.15,661.88 C428.44,662.88 433.15,666.51 438.39,669.49 C439.23,669.97 439.62,671.33 440.1,672.33 C445.19,682.94 441.65,693.4 431.1,698.82 C427.53,700.64 423.79,702.15 419.98,703.88 C419.37,721.68 418.91,739.24 418.12,756.78 C417.63,767.78 416.67,778.78 415.85,789.78 C415.73,791.34 415.09,792.84 414.85,794.39 C413.85,800.39 410.25,803.89 404.94,807 C386.53,817.79 366.33,824.27 346.7,832.09 C331.43,838.17 315.87,843.56 300.31,848.89 C279.19,856.11 257.79,855.19 236.31,850.54 C202.95,843.34 170.92,831.75 138.51,821.39 C115.29,813.96 92.58,805.24 70.98,793.86 C64.42,790.39 58.24,786.2 51.84,782.43 C45.15,778.49 41.03,772.28 37.33,765.82 C36.18,763.82 35.93,761.1 35.87,758.69 C35.2,729.85 34.64,701.01 34.04,672.16 C33.9777006,671.538434 33.8808844,670.920814 33.75,670.31 C30.49,668.61 26.9,666.84 23.4,664.9 C18.5,662.17 13.26,659.9 8.89,656.42 C-2.49,647.48 0.58,634.42 10.4,629.02 C19.46,624.09 29.4,621.96 39.26,619.79 C49.38,617.57 59.5,615.29 69.61,613.02 C70.3865948,612.740937 71.1476849,612.420478 71.89,612.06 L71.89,612.06 Z M158,502.15 L158,501.96 C158.48,505.81 157,510.08 160.29,513.39 C165.29,510.39 165.73,505.52 165.46,499.58 C172.07,507.85 163.39,512.78 162.3,519.79 L173,519.79 C170.92,525.31 166.45,525.15 161.27,525.06 C162.82,529.45 164.1,533.19 165.47,536.9 C166.528798,540.241693 169.614756,542.524899 173.12,542.56 C177.12,542.78 181.21,542.9 185.26,542.95 C190.993903,543.149787 196.475743,540.58738 200,536.06 C202,533.57 204.2,531.19 206.3,528.76 C205.3,536.76 199.54,541.04 193.59,545.21 C194.59,547.08 195.3,548.44 196.06,549.77 C198.51,554.06 200.36,555.13 204.7,553.66 C215.429477,550.164958 224.159553,542.260601 228.7,531.93 L217.15,513.26 L213.32,513.46 C213.535416,512.236806 213.812435,511.025265 214.15,509.83 C215.528353,505.522284 215.611803,500.904706 214.39,496.55 C213.69,493.7 212.04,492.24 209.18,492.28 C206.32,492.32 206.31,494.54 206.1,496.6 C206.05,497.12 205.59,497.6 204.95,498.8 C203.21,496.29 201.53,493.8 202.89,491.8 C204.61,489.27 207.59,487.61 210.22,485.41 C205.36,466.11 192.62,463.98 179.97,465.52 C167.32,467.06 158.08,475.52 157.7,485.43 C161.18,484.66 165.13,483.18 167.62,486.56 C169.62,489.25 167.88,492.03 166.31,494.29 L156.91,495.83 C157.35,498.33 157.69,500.24 158,502.15 Z M301.25,643.05 C293.71,641.1 287.25,639.28 280.65,637.76 C264.86,634.09 249.05,630.56 233.24,627 C232.388456,626.726622 231.487723,626.641325 230.6,626.75 C223.69,628.41 217.15,626.47 210.67,624.62 C193.36,619.69 176.14,614.46 158.81,609.62 C153,608 147,606.31 141.05,606.31 C128.66,606.31 116.44,608.65 104.34,611.31 C79.46,616.683333 54.5966667,622.15 29.75,627.71 C25.5763756,628.668614 21.4993404,630.007542 17.57,631.71 C14.8775816,632.849771 12.427164,634.492433 10.35,636.55 C8.12408867,638.685388 7.00206968,641.724681 7.30648393,644.794192 C7.61089817,647.863702 9.30802488,650.623411 11.91,652.28 C16.6993069,655.237884 21.7149273,657.812569 26.91,659.98 C34.34,663.18 42.02,665.8 49.49,668.98 C55.09,671.32 60.38,674.42 66.04,676.59 C83.04,683.14 100.04,689.92 117.36,695.66 C143.01,704.16 168.92,711.89 194.75,719.88 C208.3,724.08 221.7,729.09 235.54,732.02 C256.99,736.57 278.92,737.15 300.79,735.81 C320.02,734.63 338.79,731.25 356.21,722.38 C359.6,720.65 363.44,719.82 366.94,718.26 C387.94,708.93 408.81,699.46 429.8,690.18 C434.2,688.23 434.92,684.75 434.57,680.77 C434.06,674.99 430.57,671.42 424.1,669.99 C411.55,667.25 398.97,664.67 386.39,662.11 C384.526757,661.866169 382.649099,661.749233 380.77,661.76 C378.46,666.87 375.29,671.58 374.29,676.71 C373.11,682.76 369.67,684.9 364.48,686.19 C345.68,690.856667 326.9,695.563333 308.14,700.31 C294.25,703.87 280.57,704.2 266.95,699 C260.64,696.59 254.23,694.41 247.75,692.52 C238.84,689.93 236.75,683.97 242.13,675.29 C243.5,673.08 247.37,672.06 250.3,671.23 C263.69,667.44 277.14,663.91 290.57,660.29 C291.237515,660.183092 291.882836,659.966859 292.48,659.65 C293.54,658.89 294.87,658.15 295.38,657.07 C297.35,652.67 299.07,648.29 301.28,643.05 L301.25,643.05 Z M294.25,599.05 L318.55,603.51 C315.86,606.69 313.16,607.51 309.71,606.71 C304.71,605.57 299.71,604.71 294.3,603.71 C293.64,613.88 293.02,623.47 292.36,633.51 L303.46,636.23 C304.19,635.1 304.75,634.59 304.87,634 C306.65,625.35 313.05,622.09 320.73,620.4 C324.45,619.59 328.22,619.01 331.98,618.31 C332.47,616.99 332.9,615.97 333.23,614.91 C339.5,595.22 341.84,574.91 342.51,554.36 C342.73,547.83 342.4,541.24 343.18,534.78 C344.6,522.99 343.18,511.45 341.48,499.85 C341,496.49 339.37,494.6 336.22,493.7 C331.89,492.45 327.65,490.85 323.28,489.8 C290.78,482 257.78,480.67 224.56,482.43 C221.51,482.6 218.47,483.16 214.5,483.65 L222.2,499.8 C254.6,503.35 287.2,506.93 319.9,510.53 C320.337402,510.614326 320.752716,510.787941 321.12,511.04 C321.285875,511.185131 321.404327,511.376745 321.46,511.59 C321.586136,512.063036 321.679688,512.544165 321.74,513.03 C319.66,513.39 317.56,514.17 315.52,514.03 C297.78,512.97 280.03,512.09 262.34,510.46 C248.73,509.21 235.22,506.95 220.53,504.99 C220.95,507.63 220.68,509.99 221.7,511.53 C224.57,515.82 228.02,519.73 231.16,523.85 C234.64,528.41 239.57,530.47 244.92,531.32 C263.59,534.32 282.29,537.05 300.99,539.84 C307.68,540.84 314.39,541.68 321.62,542.67 C319.26,546.31 316.78,546.31 313.92,545.91 C305.45,544.74 296.92,543.77 288.46,542.73 C282.54,542.01 276.62,541.31 270.56,540.59 C273.5,544.26 276.31,547.36 278.62,550.8 C280.621196,553.802725 282.322694,556.994708 283.7,560.33 C285.2,563.91 287.61,565.23 291.41,565.65 C301.41,566.77 311.3,568.35 321.84,569.83 C319.4,573.01 316.92,573.47 313.75,572.83 C307.75,571.68 301.75,570.83 295.75,569.89 C293.43,569.53 291.08,569.38 288.57,569.12 C290.55,579.5 292.35,589 294.26,599 L294.25,599.05 Z M41,722 C60,731 78.5,740.2 97.43,748.55 C144.17,769.17 192.26,785.62 242.94,793.55 C264.33,796.91 285.6,796.37 306.61,790.87 C340.67,781.95 373.68,770 406.09,756.31 C407.34,755.79 408.96,754.47 409.09,753.31 C409.92,747.66 410.89,741.96 409.93,735.81 C407.55,736.48 405.6,736.94 403.71,737.58 C383.21,744.48 362.84,751.78 342.2,758.23 C314.2,767 285.83,773.89 255.97,771.61 C239.786868,770.467735 223.765103,767.656135 208.16,763.22 C174.826667,753.58 142.04,742.29 109.8,729.35 C90.57,721.66 71.8,712.7 52.91,704.35 C49.09,702.66 45.29,700.94 40.98,699.01 L41,722 Z M40.08,673.14 C40.08,677.21 40.36,680.53 40.02,683.78 C39.36,689.96 42.62,693.17 47.74,695.59 C59.35,701.08 70.66,707.25 82.44,712.35 C115.56,726.68 149.56,738.67 183.99,749.41 C201.6,754.9 218.99,761.18 237.42,763.89 C255.85,766.6 274.07,767.89 292.51,764.8 C325.31,759.23 356.9,749.4 388.04,737.95 C395.82,735.09 403.5,731.95 411.44,728.87 L411.44,708.08 C406.78,709.47 402.44,710.43 398.26,712.08 C390.34,715.22 382.62,718.89 374.71,722.08 C367.19,725.08 359.54,727.81 351.96,730.69 C347.34,732.44 342.85,734.69 338.12,735.97 C308.52,744.17 278.45,744.03 248.25,740.61 C241.35,739.83 234.32,739.04 227.72,737.04 C197.95,728.04 168.11,719.2 138.72,709.15 C108.03,698.67 77.78,686.86 47.34,675.65 C45.27,674.89 43.2,674.23 40.09,673.17 L40.08,673.14 Z M41.29,727.3 C41.76,732.3 42.23,736.07 42.43,739.83 C42.4804051,744.14514 44.8439369,748.100905 48.62,750.19 C63.55,759.53 78.7,768.46 95.12,774.93 C110.22,780.87 125.36,786.72 140.65,792.13 C176.17,804.7 212.11,815.66 249.88,819.26 C269.59,821.14 288.98,820.08 308.13,814.69 C335.95,806.86 362.64,795.93 389.52,785.51 C395.52,783.16 401.43,780.32 407.28,777.75 C407.75,772.45 408.19,767.6 408.66,762.35 C407.392929,762.542945 406.140146,762.820228 404.91,763.18 C378.44,773.48 351.41,782.09 324.38,790.75 C296.38,799.75 268.31,802.91 239.13,798.75 C207.25,794.17 176.7,784.95 146.55,774.11 C111.92,761.66 78.67,746.11 46,729.22 C44.87,728.63 43.63,728.25 41.3,727.33 L41.29,727.3 Z M407.19,784 C402.12,786 397.53,787.78 393,789.68 C365.15,801.37 337,812.12 307.78,820.03 C287.28,825.59 266.49,826.15 245.47,824.25 C223.79,822.25 202.81,817.17 182.15,810.75 C164.75,805.33 147.57,799.14 130.34,793.16 C104.55,784.21 79.41,773.76 55.66,760.16 C51.82,757.97 47.94,755.84 43.94,753.6 C41.79,764.53 45.31,767.96 50.71,772.46 C54.5118942,775.651571 58.6814341,778.37755 63.13,780.58 C76.71,787.15 90.13,794.38 104.25,799.43 C130.53,808.81 157.25,816.84 183.87,825.43 C205.52,832.43 227.18,839.18 249.87,842.35 C268.87,845 287.69,845.54 305.92,838.87 C327.06,831.14 347.99,822.87 368.92,814.57 C378.08,810.95 387.01,806.75 396.13,803.02 C405.46,799.2 408,795.25 407.19,784 Z M389.41,615.33 C377.67,616.86 366.5,618.12 355.41,619.8 C344.06,621.51 332.76,623.64 321.41,625.58 C315.12,626.67 310.87,629.72 308.96,636.3 C306.26,645.59 303.12,654.78 299.65,663.82 C296.587038,672.025809 293.033974,680.04024 289.01,687.82 C285.44,694.55 279.86,694.82 273.48,689.18 C275.72,688.9 277.78,688.96 279.6,688.32 C281.42,687.68 283.87,686.72 284.5,685.24 C287.1,679.16 289.11,672.83 291.7,665.58 C276.6,670.42 262.7,674.84 248.86,679.38 C247.13,679.95 245.64,681.24 243.05,682.79 C244.810736,684.000712 246.647901,685.09633 248.55,686.07 C252.55,687.69 256.49,689.31 260.55,690.56 C268.95,693.13 277.35,695.75 285.88,697.77 C292.49,699.33 294.88,697.93 298.44,692.04 C299.66,690.04 300.8,688.38 303.59,688.52 C305.08,688.6 306.59,687.83 308.14,687.47 C323.26,683.91 338.37,680.28 353.52,676.86 C356.7,676.15 360.05,676.2 363.28,675.86 L364.68,681.39 L366,681.68 C368,677.81 370.41,674.09 372,670.06 C377.67,655.58 383.09,641.06 388.54,626.45 C389.82,623.19 390.85,619.74 389.41,615.33 Z M48.53,599.33 C53.1,599.54 57.31,599.63 61.53,599.96 C63.488018,599.982151 65.4196136,600.414801 67.2,601.23 C70.1875445,602.823704 72.9264246,604.845018 75.33,607.23 C78.42,610.52 81.72,610.64 85.73,609.82 C95.87,607.76 106.02,605.58 116.26,604.15 C125.83,602.82 135.58,601.31 145.13,601.9 C152.57,602.36 157.66,599.23 164.21,595.77 L141.96,582.83 C137.66,586.74 133.34,590.32 129.44,594.32 C127.374806,596.736292 124.137401,597.803865 121.04,597.09 C103.12,593.87 84.88,591.5 69.48,580.64 C62.84,575.96 56.34,575.94 49.14,578.64 C45.74,579.94 43.43,581.74 42.31,586.64 L53.22,583.54 L69.22,591.22 C66.22,594.07 62.88,593.43 59.31,591.16 C51.77,586.38 50.72,586.86 49.07,595.45 C48.82,596.48 48.75,597.55 48.53,599.29 L48.53,599.33 Z M160.08,603 C164.41,604.38 167.08,605.29 169.79,606.08 C185.79,610.7 201.79,615.28 217.72,619.93 C222.04,621.18 225.52,620.48 228.49,616.75 C230.43,614.32 233.12,612.49 235.37,610.29 C240.62,605.16 245.8,599.97 251.37,594.46 C244.05,589.17 237.65,584.31 229.58,582.16 C225.58,581.09 222.67,581.72 220.22,585.16 C217.63,588.84 214.75,592.32 211.92,595.82 C210.44,597.64 208.76,599.31 207.18,601.05 L205.42,602.24 C206.72,595.49 203.09,596.24 200.25,596.54 C188.86,597.78 177.48,599.19 166.11,600.66 C164.54,600.92 163.08,601.85 160.08,603 Z M343.8,616.57 C344.95,611.36 346.18,606.79 346.93,602.15 C351.17,575.87 353.6,549.43 352.76,522.81 C352.47,513.64 350.63,504.52 349.43,495.39 C349.17662,491.924286 346.834462,488.963893 343.52,487.92 C335.27,484.92 327.21,481.43 318.84,478.86 C305.64,474.86 291.95,473.57 278.21,472.77 C260.86,471.77 243.56,471.66 226.39,474.77 C222.3,475.51 218.33,476.77 215.11,479.77 C219.47,479.9 223.66,479.19 227.86,479.08 C253.08,478.42 278.31,477.41 303.38,481.58 C314.71,483.46 326.05,485.21 336.82,489.58 C341.72,491.58 344.71,494.93 345.16,500.01 C346.06,510.31 347.05,520.65 347.09,531.01 C347.09,541.79 345.98,552.57 345.51,563.36 C344.90498,579.343404 342.496376,595.207313 338.33,610.65 C337.75,612.75 337.33,614.88 336.62,617.65 L343.8,616.57 Z M16,566.21 C14.24,570.88 14.26,570.87 15.79,573.88 C16.28,574.88 17.1,575.94 17,576.88 C16.33,583.04 15.46,589.17 14.57,595.96 C14.6827205,596.347866 14.9405912,596.677368 15.29,596.88 C24.85,601.96 34.29,600.7 43.62,596.15 C44.75,595.6 45.14,593.51 45.92,592.06 C36.24,588.16 36.02,587.28 41.92,579.65 C42.2939841,579.087301 42.7084114,578.552556 43.16,578.05 C46.06,575.16 46.26,571.84 44.82,567.68 C35,570.5 25.15,572.9 16,566.21 Z M15.22,603.15 C13.57,600.83 12.43,599.22 11.22,597.49 C8.22,598.8 5.22,599.11 4.02,603.15 L15.22,603.15 Z M10.22,571.72 C10.53,565.72 9.7,565.24 3.47,567.78 C4.8,570.63 6.76,572.27 10.12,571.72 L10.22,571.72 Z M14.96,578.21 C13.5,576.68 12.28,574.98 11.96,575.13 C10.6951272,575.701978 9.66452313,576.690229 9.04,577.93 C8.82,578.45 10.38,580.46 11.11,580.450037 C12.11,580.43 13.2,579.25 14.86,578.21 L14.96,578.21 Z M30.02,562.39 C26.54,562.16 22.65,560.44 19.1,563.53 L30.02,562.39 Z M8.84,586.15 L12.94,591.03 C14.09,587.12 14.38,585.21 8.74,586.15 L8.84,586.15 Z" id="Shape" fill="#000000"></path>
            <path d="M301.28,643.05 C299.07,648.29 297.35,652.67 295.35,656.92 C294.84,658 293.51,658.74 292.45,659.5 C291.852836,659.816859 291.207515,660.033092 290.54,660.14 C277.11,663.76 263.66,667.29 250.27,671.08 C247.34,671.91 243.47,672.93 242.1,675.14 C236.72,683.82 238.81,689.78 247.72,692.37 C254.2,694.26 260.61,696.44 266.92,698.85 C280.54,704.05 294.22,703.72 308.11,700.16 C326.863333,695.353333 345.643333,690.646667 364.45,686.04 C369.64,684.75 373.08,682.61 374.26,676.56 C375.26,671.43 378.43,666.72 380.74,661.61 C382.619099,661.599233 384.496757,661.716169 386.36,661.96 C398.94,664.52 411.52,667.1 424.07,669.84 C430.59,671.27 434.07,674.84 434.54,680.62 C434.89,684.62 434.17,688.08 429.77,690.03 C408.77,699.31 387.88,708.78 366.91,718.11 C363.41,719.67 359.57,720.5 356.18,722.23 C338.76,731.1 319.99,734.48 300.76,735.66 C278.89,737 256.96,736.42 235.51,731.87 C221.67,728.94 208.27,723.93 194.72,719.73 C168.89,711.73 142.98,704.01 117.33,695.51 C100,689.77 83,683 66,676.44 C60.34,674.27 55,671.17 49.45,668.83 C41.98,665.7 34.3,663.08 26.87,659.83 C21.6749273,657.662569 16.6593069,655.087884 11.87,652.13 C9.26802488,650.473411 7.57089817,647.713702 7.26648393,644.644192 C6.96206968,641.574681 8.08408867,638.535388 10.31,636.4 C12.387164,634.342433 14.8375816,632.699771 17.53,631.56 C21.4593404,629.857542 25.5363756,628.518614 29.71,627.56 C54.55,622 79.4133333,616.533333 104.3,611.16 C116.4,608.55 128.62,606.16 141.01,606.16 C146.94,606.16 153.01,607.86 158.8,609.48 C176.13,614.31 193.35,619.54 210.66,624.48 C217.14,626.33 223.66,628.27 230.59,626.61 C231.477723,626.501325 232.378456,626.586622 233.23,626.86 C249.04,630.42 264.85,633.95 280.64,637.62 C287.24,639.28 293.74,641.1 301.28,643.05 Z M209.56,635.85 L209.16,633.76 C207.16,633.02 205.16,632.09 203.07,631.55 C186.28,627.23 169.5,622.87 152.64,618.82 C149.563186,618.200242 146.389818,618.241145 143.33,618.94 C127.23,622.22 111.17,625.75 95.1,629.21 C90.7,630.15 86.26,630.98 81.93,632.21 C80.65,632.57 79.68,634.07 78.57,635.04 C79.57,636.12 80.29,637.53 81.48,638.21 C83.1184524,638.953284 84.8314611,639.519818 86.59,639.9 C105.31,645.7 124.02,651.54 142.75,657.27 C148.15,658.92 152.75,660.52 159.01,656.78 C168.01,651.46 178.6,649 188.5,645.27 C193.98,643.21 199.5,641.12 204.85,638.87 C206.506471,638.005034 208.082687,636.994382 209.56,635.85 L209.56,635.85 Z" id="Shape" fill="#FFFFFF"></path>
            <path d="M294.26,599 C292.35,588.93 290.55,579.46 288.58,569.1 C291.09,569.36 293.44,569.51 295.76,569.87 C301.76,570.78 307.76,571.66 313.76,572.81 C316.93,573.42 319.41,572.96 321.85,569.81 C311.31,568.33 301.39,566.75 291.42,565.63 C287.62,565.21 285.21,563.89 283.71,560.31 C282.332694,556.974708 280.631196,553.782725 278.63,550.78 C276.32,547.34 273.51,544.24 270.57,540.57 C276.63,541.29 282.57,541.99 288.47,542.71 C296.96,543.71 305.47,544.71 313.93,545.89 C316.79,546.29 319.27,546.29 321.63,542.65 C314.4,541.65 307.69,540.81 301,539.82 C282.3,537.03 263.6,534.26 244.93,531.3 C239.58,530.45 234.65,528.39 231.17,523.83 C228.03,519.71 224.58,515.83 221.71,511.51 C220.71,509.99 220.96,507.61 220.54,504.97 C235.23,506.97 248.74,509.19 262.35,510.44 C280.04,512.07 297.79,512.95 315.53,514.01 C317.53,514.13 319.67,513.35 321.75,513.01 C321.689688,512.524165 321.596136,512.043036 321.47,511.57 C321.414327,511.356745 321.295875,511.165131 321.13,511.02 C320.762716,510.767941 320.347402,510.594326 319.91,510.51 C287.26,506.91 254.61,503.33 222.21,499.78 L214.51,483.63 C218.51,483.14 221.51,482.63 224.57,482.41 C257.79,480.65 290.79,481.98 323.29,489.78 C327.66,490.83 331.9,492.43 336.23,493.68 C339.38,494.58 341.01,496.47 341.49,499.83 C343.15,511.43 344.61,522.97 343.19,534.76 C342.41,541.22 342.74,547.76 342.52,554.34 C341.85,574.9 339.52,595.2 333.24,614.89 C332.91,615.95 332.48,616.97 331.99,618.29 C328.23,618.99 324.46,619.57 320.74,620.38 C313.06,622.07 306.66,625.38 304.88,633.98 C304.76,634.57 304.2,635.08 303.47,636.21 L292.37,633.49 C293.03,623.49 293.65,613.86 294.31,603.69 C299.69,604.69 304.74,605.57 309.72,606.69 C313.17,607.48 315.87,606.69 318.56,603.49 L294.26,599 Z" id="Path" fill="#FFFFFF"></path>
            <path d="M41,722 L41,699 C45.31,700.93 49.11,702.65 52.93,704.34 C71.87,712.73 90.59,721.69 109.82,729.34 C142.04,742.226667 174.826667,753.516667 208.18,763.21 C223.786919,767.660344 239.812095,770.48536 256,771.64 C285.86,773.92 314.21,767.03 342.23,758.26 C362.87,751.81 383.23,744.51 403.74,737.61 C405.63,736.97 407.58,736.51 409.96,735.84 C410.96,741.99 409.96,747.69 409.12,753.34 C408.96,754.48 407.34,755.8 406.12,756.34 C373.71,770.03 340.7,781.98 306.64,790.9 C285.64,796.4 264.36,796.9 242.97,793.58 C192.29,785.64 144.2,769.19 97.46,748.58 C78.5,740.2 60,731 41,722 Z" id="Path" fill="#FFFFFF"></path>
            <path d="M40.09,673.17 C43.2,674.23 45.27,674.89 47.32,675.64 C77.76,686.85 108.01,698.64 138.7,709.14 C168.12,719.19 198,728 227.73,737 C234.33,739 241.36,739.79 248.26,740.57 C278.46,743.99 308.53,744.13 338.13,735.93 C342.86,734.61 347.35,732.4 351.97,730.65 C359.55,727.77 367.2,725.08 374.72,722.04 C382.63,718.85 390.35,715.18 398.27,712.04 C402.4,710.4 406.79,709.44 411.45,708.04 L411.45,728.9 C403.51,731.99 395.83,735.12 388.05,737.98 C356.91,749.43 325.32,759.26 292.52,764.83 C274.08,767.96 255.77,766.62 237.43,763.92 C219.09,761.22 201.61,754.92 184,749.44 C149.57,738.7 115.57,726.71 82.45,712.38 C70.67,707.28 59.36,701.11 47.75,695.62 C42.63,693.2 39.37,689.99 40.03,683.81 C40.37,680.56 40.09,677.24 40.09,673.17 Z" id="Path" fill="#FFFFFF"></path>
            <path d="M41.3,727.33 C43.63,728.25 44.87,728.63 46.01,729.22 C78.68,746.09 111.93,761.66 146.56,774.11 C176.71,784.95 207.26,794.17 239.14,798.75 C268.32,802.94 296.44,799.75 324.39,790.75 C351.39,782.09 378.45,773.48 404.92,763.18 C406.150146,762.820228 407.402929,762.542945 408.67,762.35 C408.2,767.6 407.76,772.45 407.29,777.75 C401.44,780.32 395.58,783.16 389.53,785.51 C362.65,795.93 335.96,806.86 308.14,814.69 C288.99,820.08 269.6,821.14 249.89,819.26 C212.12,815.66 176.18,804.7 140.66,792.13 C125.37,786.72 110.23,780.87 95.13,774.93 C78.71,768.46 63.56,759.53 48.63,750.19 C44.8539369,748.100905 42.4904051,744.14514 42.44,739.83 C42.24,736.1 41.77,732.36 41.3,727.33 Z" id="Path" fill="#FFFFFF"></path>
            <path d="M407.19,784 C408.01,795.25 405.46,799.2 396.12,803 C387,806.73 378.12,810.93 368.91,814.55 C347.97,822.8 327.04,831.12 305.91,838.85 C287.68,845.52 268.86,844.98 249.86,842.33 C227.19,839.16 205.53,832.41 183.86,825.41 C157.29,816.82 130.52,808.79 104.24,799.41 C90.09,794.36 76.7,787.13 63.12,780.56 C58.6714341,778.35755 54.5018942,775.631571 50.7,772.44 C45.3,767.94 41.78,764.51 43.93,753.58 C47.93,755.82 51.81,757.95 55.65,760.14 C79.4,773.73 104.54,784.14 130.33,793.14 C147.56,799.14 164.74,805.31 182.14,810.73 C202.8,817.15 223.78,822.28 245.46,824.23 C266.46,826.13 287.27,825.57 307.77,820.01 C336.96,812.1 365.14,801.35 392.99,789.66 C397.53,787.78 402.12,786 407.19,784 Z" id="Path" fill="#FFFFFF"></path>
            <path d="M389.41,615.33 C390.85,619.74 389.82,623.19 388.56,626.54 C383.11,641.1 377.69,655.67 372.02,670.15 C370.44,674.15 368.02,677.9 366.02,681.77 L364.7,681.48 L363.3,675.95 C360.07,676.25 356.72,676.2 353.54,676.95 C338.39,680.37 323.28,684 308.16,687.56 C306.64,687.92 305.1,688.69 303.61,688.61 C300.82,688.47 299.68,690.13 298.46,692.13 C294.9,698.02 292.46,699.42 285.9,697.86 C277.37,695.86 268.97,693.22 260.57,690.65 C256.48,689.4 252.5,687.78 248.57,686.16 C246.667901,685.18633 244.830736,684.090712 243.07,682.88 C245.66,681.33 247.15,680.04 248.88,679.47 C262.73,674.93 276.62,670.47 291.72,665.67 C289.13,672.92 287.12,679.25 284.52,685.33 C283.89,686.81 281.43,687.77 279.62,688.41 C277.81,689.05 275.74,688.99 273.5,689.27 C279.88,694.89 285.5,694.64 289.03,687.91 C293.053974,680.13024 296.607038,672.115809 299.67,663.91 C303.14,654.91 306.28,645.68 308.98,636.39 C310.89,629.81 315.14,626.76 321.43,625.67 C332.76,623.73 344.06,621.6 355.43,619.89 C366.5,618.12 377.67,616.86 389.41,615.33 Z M341.72,658.85 C345.72,658.63 348.35,654.7 348.12,651.23 C347.95,648.65 346.38,647.82 344.12,647.93 C341.12,648.06 337.52,651.39 338.29,654 C338.83,656 340.78,657.6 341.72,658.85 Z M260.28,685.24 C259.082352,684.675838 257.841784,684.207699 256.57,683.84 C256.09,683.74 255.49,684.27 254.29,684.84 C256.13,686.2 257.2,687.88 260.28,685.24 Z" id="Shape" fill="#FFFFFF"></path>
            <path d="M158,502.15 C157.66,500.24 157.32,498.33 156.88,495.84 L166.28,494.3 C167.85,492.04 169.58,489.3 167.59,486.57 C165.1,483.19 161.15,484.67 157.67,485.44 C158.05,475.57 167.19,467.09 179.94,465.53 C192.69,463.97 205.33,466.12 210.19,485.42 C207.56,487.62 204.58,489.28 202.86,491.81 C201.5,493.81 203.18,496.29 204.92,498.81 C205.56,497.61 206.02,497.13 206.07,496.61 C206.28,494.55 206.29,492.33 209.15,492.29 C212.01,492.25 213.66,493.71 214.36,496.56 C215.581803,500.914706 215.498353,505.532284 214.12,509.84 C213.782435,511.035265 213.505416,512.246806 213.29,513.47 L217.12,513.27 L228.67,531.94 C224.129553,542.270601 215.399477,550.174958 204.67,553.67 C200.33,555.14 198.48,554.07 196.03,549.78 C195.27,548.45 194.57,547.09 193.56,545.22 C199.51,541.05 205.24,536.78 206.27,528.77 C204.17,531.2 202.01,533.58 199.97,536.07 C196.458308,540.606573 190.983994,543.183815 185.25,543 C181.25,542.95 177.15,542.83 173.11,542.61 C169.604756,542.574899 166.518798,540.291693 165.46,536.95 C164.09,533.24 162.81,529.5 161.26,525.11 C166.44,525.2 170.91,525.36 172.99,519.84 L162.29,519.84 C163.38,512.84 172.06,507.9 165.45,499.63 C165.72,505.57 165.32,510.43 160.28,513.44 C157,510.13 158.47,505.86 158,502.05 M188,495.05 C189.66,492.3 191,489.68 189.15,487.25 C187.15,484.61 183.96,485.25 181.08,485.8 C180.630588,485.819861 180.195041,485.961586 179.82,486.21 C178.53,487.55 176.34,488.91 176.27,490.36 C176.160168,491.608675 176.59939,492.843302 177.473175,493.742052 C178.34696,494.640802 179.568727,495.114621 180.82,495.04 C183.29,495.08 185.72,495.05 188,495.05 L188,495.05 Z M177.18,531 L177.67,532.41 C184.03,532.81 185.97,531.59 186.93,525.57 L177.18,531 Z" id="Shape" fill="#FFFFFF"></path>
            <path d="M48.53,599.29 C48.75,597.55 48.82,596.48 49.02,595.44 C50.67,586.85 51.72,586.37 59.26,591.15 C62.83,593.42 66.12,594.06 69.17,591.21 L53.17,583.53 L42.26,586.63 C43.38,581.75 45.69,579.95 49.09,578.63 C56.29,575.88 62.79,575.9 69.43,580.63 C84.83,591.49 103.07,593.86 120.99,597.08 C124.087401,597.793865 127.324806,596.726292 129.39,594.31 C133.29,590.31 137.61,586.73 141.91,582.82 L164.16,595.76 C157.61,599.22 152.52,602.35 145.08,601.89 C135.53,601.3 125.78,602.81 116.21,604.14 C105.97,605.57 95.82,607.75 85.68,609.81 C81.68,610.63 78.37,610.51 75.28,607.22 C72.8764246,604.835018 70.1375445,602.813704 67.15,601.22 C65.3696136,600.404801 63.438018,599.972151 61.48,599.95 C57.31,599.59 53.1,599.5 48.53,599.29 Z" id="Path" fill="#FFFFFF"></path>
            <path d="M160.08,603 C163.08,601.83 164.54,600.9 166.08,600.7 C177.45,599.23 188.83,597.82 200.22,596.58 C203.06,596.27 206.69,595.53 205.39,602.28 L207.15,601.09 C208.73,599.35 210.41,597.68 211.89,595.86 C214.72,592.36 217.6,588.86 220.19,585.2 C222.64,581.72 225.55,581.09 229.55,582.2 C237.62,584.35 244.02,589.2 251.34,594.5 C245.79,600.01 240.61,605.2 235.34,610.33 C233.09,612.53 230.4,614.33 228.46,616.79 C225.46,620.52 222.01,621.22 217.69,619.97 C201.69,615.32 185.69,610.74 169.76,606.12 C167.08,605.31 164.41,604.4 160.08,603 Z" id="Path" fill="#FFFFFF"></path>
            <path d="M343.8,616.59 L336.62,617.59 C337.3,614.77 337.75,612.64 338.33,610.59 C342.496376,595.147313 344.90498,579.283404 345.51,563.3 C345.98,552.51 347.12,541.73 347.09,530.95 C347.09,520.63 346.09,510.29 345.16,499.95 C344.71,494.87 341.72,491.49 336.82,489.52 C326.05,485.18 314.71,483.43 303.38,481.52 C278.31,477.35 253.08,478.36 227.86,479.02 C223.66,479.13 219.47,479.84 215.11,479.71 C218.33,476.71 222.3,475.43 226.39,474.71 C243.56,471.63 260.86,471.71 278.21,472.71 C291.95,473.51 305.64,474.76 318.84,478.8 C327.21,481.37 335.27,484.89 343.52,487.86 C346.834462,488.903893 349.17662,491.864286 349.43,495.33 C350.63,504.46 352.43,513.58 352.76,522.75 C353.6,549.37 351.17,575.81 346.93,602.09 C346.18,606.81 345,611.38 343.8,616.59 Z" id="Path" fill="#FFFFFF"></path>
            <path d="M16,566.21 C25.2,572.9 35,570.5 44.85,567.69 C46.29,571.85 46.09,575.17 43.19,578.06 C42.7384114,578.562556 42.3239841,579.097301 41.95,579.66 C36.02,587.29 36.24,588.17 45.95,592.07 C45.17,593.52 44.78,595.61 43.65,596.16 C34.37,600.71 24.88,601.97 15.32,596.89 C14.9705912,596.687368 14.7127205,596.357866 14.6,595.97 C15.49,589.18 16.36,583.05 17.03,576.89 C17.13,575.94 16.31,574.89 15.82,573.89 C14.21,570.87 14.19,570.88 16,566.21 Z" id="Path" fill="#FFFFFF"></path>
            <path d="M15.17,603.15 L3.94,603.15 C5.16,599.15 8.13,598.8 11.14,597.49 C12.38,599.22 13.52,600.83 15.17,603.15 Z" id="Path" fill="#FFFFFF"></path>
            <path d="M10.12,571.72 C6.76,572.27 4.8,570.63 3.37,567.78 C9.6,565.24 10.43,565.74 10.12,571.72 Z" id="Path" fill="#FFFFFF"></path>
            <path d="M14.86,578.21 C13.2,579.21 12.11,580.43 10.99,580.45 C10.26,580.45 8.7,578.45 8.92,577.93 C9.54452313,576.690229 10.5751272,575.701978 11.84,575.13 C12.18,575 13.4,576.68 14.86,578.21 Z" id="Path" fill="#FFFFFF"></path>
            <path d="M29.92,562.39 L19,563.53 C22.55,560.44 26.44,562.16 29.92,562.39 Z" id="Path" fill="#FFFFFF"></path>
            <path d="M8.74,586.15 C14.38,585.21 14.09,587.15 12.84,591.03 L8.74,586.15 Z" id="Path" fill="#FFFFFF"></path>
            <path d="M209.56,635.85 C208.08191,636.987466 206.505718,637.99141 204.85,638.85 C199.45,641.1 193.98,643.19 188.5,645.25 C178.6,649 168,651.45 159,656.77 C152.71,660.51 148.14,658.91 142.74,657.26 C124.01,651.53 105.3,645.69 86.58,639.89 C84.8214611,639.509818 83.1084524,638.943284 81.47,638.2 C80.28,637.52 79.47,636.11 78.56,635.03 C79.67,634.03 80.64,632.56 81.92,632.2 C86.25,630.98 90.69,630.15 95.09,629.2 C111.16,625.74 127.22,622.2 143.32,618.93 C146.379818,618.231145 149.553186,618.190242 152.63,618.81 C169.49,622.81 186.27,627.22 203.06,631.54 C205.14,632.08 207.12,633.01 209.15,633.75 L209.56,635.85 Z M90.68,635.85 C91.7404765,636.423817 92.8321769,636.937951 93.95,637.39 C111.13,642.7 128.33,647.94 145.5,653.31 C148.732686,654.283754 152.202936,654.107061 155.32,652.81 C166.71,648.64 178.15,644.6 189.57,640.5 C192.84,639.32 196.1,638.09 200.32,636.5 C199.210361,635.875054 198.057415,635.330329 196.87,634.87 C180.52,630.72 164.19,626.53 147.8,622.58 C145.8,622.09 143.38,622.58 141.26,623.1 C127.04,626.47 112.86,629.95 98.67,633.44 C96.36,634 94.11,634.8 90.68,635.83 L90.68,635.85 Z" id="Shape" fill="#000000"></path>
            <path d="M341.72,658.85 C340.78,657.6 338.83,656 338.25,654 C337.48,651.39 341.03,648.06 344.08,647.93 C346.38,647.82 347.95,648.65 348.08,651.23 C348.35,654.7 345.67,658.63 341.72,658.85 Z" id="Path" fill="#000000"></path>
            <path d="M260.28,685.24 C257.2,687.88 256.13,686.24 254.28,684.81 C255.48,684.27 256.08,683.74 256.56,683.81 C257.836079,684.186912 259.08003,684.665098 260.28,685.24 L260.28,685.24 Z" id="Path" fill="#000000"></path>
            <path d="M188,495.05 C185.68,495.05 183.25,495.05 180.82,495.05 C179.568727,495.124621 178.34696,494.650802 177.473175,493.752052 C176.59939,492.853302 176.160168,491.618675 176.27,490.37 C176.34,488.92 178.53,487.56 179.82,486.22 C180.195041,485.971586 180.630588,485.829861 181.08,485.81 C183.96,485.27 187.14,484.62 189.15,487.26 C191,489.68 189.7,492.3 188,495.05 Z" id="Path" fill="#000000"></path>
            <path d="M177.18,531 L186.93,525.57 C185.93,531.57 184.03,532.81 177.67,532.41 L177.18,531 Z" id="Path" fill="#000000"></path>
            <path d="M90.68,635.83 C94.11,634.83 96.36,634.02 98.68,633.45 C112.87,629.96 127.05,626.45 141.27,623.11 C143.39,622.61 145.78,622.11 147.81,622.59 C164.2,626.54 180.53,630.73 196.88,634.88 C198.067415,635.340329 199.220361,635.885054 200.33,636.51 C196.11,638.07 192.85,639.3 189.58,640.51 C178.16,644.61 166.72,648.65 155.33,652.82 C152.212936,654.117061 148.742686,654.293754 145.51,653.32 C128.34,647.95 111.14,642.71 93.96,637.4 C92.8381206,636.938521 91.7430609,636.414361 90.68,635.83 L90.68,635.83 Z" id="Path" fill="#FFFFFF"></path>
            <ellipse id="Oval" fill="#000000" cx="161.76" cy="501.92" rx="2.07" ry="3.18"></ellipse>
            <ellipse id="Oval" fill="#000000" cx="179.86" cy="501.92" rx="2.07" ry="3.18"></ellipse>
        </g>
    </g>
</svg>