<svg width="654" height="894" viewBox="0 0 654 894" xmlns="http://www.w3.org/2000/svg"><g fill="none" fill-rule="evenodd"><path d="M612.42 233.79c.127 34.06.257 68.127.39 102.2.11 24.81.37 49.61.42 74.42 0 12.84-.47 25.68-.37 38.52.16 20.06.53 40.13 1 60.19.43 18.29.41 36.53-3.41 54.53a57.56 57.56 0 01-3.53 11.62c-5.37 12-15 18.55-27.93 19.27-7.32.41-14.79-.63-22.1-1.67-18.5-2.64-37-5.54-55.42-8.54-14.68-2.38-29.27-5.32-44-7.53-13.79-2.06-27.73-3.17-41.52-5.28-19.38-3-38.68-6.42-58-9.71-33.32-5.68-66.63-11.44-100-17.08-36.87-6.25-73.74-12.54-110.66-18.54-13.11-2.13-26.3-3.61-39.06-7.66a23.86 23.86 0 01-11-7.18c-7.28-8.14-8.52-18.21-9.56-28.29-1-10.29-1.73-20.57-.41-31 1-8.24-1.38-247.18-1.72-252.34-.48-7.13 1.27-13.85 3.15-20.61a9.46 9.46 0 015.31-6.56c6.75-3.12 13.35-6.6 20.26-9.31 54.39-21.37 109.83-39.66 165.78-56.48 79.91-24 160.58-45.23 241.49-65.55 21.4-5.37 43.27-8.87 64.94-13.09 6.06-1.18 11.72-1.16 17.24 3.15 5.85 4.56 9.11 9.93 9.21 17.14.15 11.71.09 23.43 0 35.14-.21 23.45-.67 46.91-.74 70.36-.08 26.62.17 53.24.27 79.86l-.03.02z" fill="#000" fill-rule="nonzero"/><g fill="#FFF"><path d="M326.937 422.295c-13.865 0-26.759-6.502-37.459-17.623l40.847-62.738 2.47.892 2.185.544 1.495-1.019.862-.477.173-.34h.977l.92-.407 2.127-1.835.287-.475.23-.136.23-.613.288-.204.287-.679.345-.408v-.271h.23l.69-1.156.69-.816 1.552-3.058.804-2.718.69-1.699.46-.816.23-.679.517-2.108v-.951l.23-.951-.287-.204-.114-.884.459-6.185-.172-.408.23-.203v-1.049l3.084-4.736-.496 5.988-.288 12.166.23 8.564.23.339v.748l.115.272.23 2.175.402 2.446.288 2.787.977-.952 1.437.544 1.495-.271 1.437-.069.805-.204.345-.476.345-.204.403-.882h.402l.46-1.497h.23l.575-.542v-3.467l-.23-4.077v-9.719l.115-1.495.115-5.913.344.951.46 1.019 4.311 11.486 1.036 1.088 1.437 2.106 1.035-.611h.632l.978-.544 1.091-.476h.748l.23-.204 1.035-.543.747-.952-.288-.543v-.34h.978l.344-.272.518-1.223.69-3.127.23-.544.805-3.33.115-1.087v-.272l.287 1.223.633 20.866-.115.407-.23.135-.23.34v1.564l.689 1.495 2.243.34.747.272 1.38-.204.344-.408h.748l.345-.204.69.068.172.272h.23l.92-1.223.46-1.088h.747l.057-5.98.115-.34-.402-.137.402-.203v-7.34l-.287-1.359v-3.399l-.115-.679.23-.204-.23-1.02v-1.087l-.23-.34.23-.544-.115-.611v-1.699l-.402-.544.287-.204v-1.835l-.114-.68v-.951l-1.208-13.253-.517-2.855-.288-.611v-.272l-1.552-5.505-.862-.204-.173.204h-.23l-.23.272h-.345l-.574.272-1.093-.137-1.15.137-.632-.272h-.345l-.23.203-1.322-.475-.92-.136-.402.408-1.552 4.553-2.587 10.807-1.725 5.844-.747-1.563-.345-1.087-.288-1.224-.345-.883-.402-1.359-.287-.272v-.272l-.115-.544-.345-.407v-.408l-2.587-5.778-1.437-2.446-1.606-1.858 19.831-30.458c7.24 16.434 11.474 36.239 11.474 57.534 0 56.747-30.058 102.913-67.005 102.913zm-28.118-102.44l.173-9.516.804-4.757.402-1.155v-.68l1.151-2.854 1.552-2.923 1.092-1.699h.345l.632.339.747.749.69 1.562 1.035 4.146 1.61 11.486-.748 11.486v8.292l-1.092.272-.977-.069-2.357-1.019-.115-.272-.403-.272-.287-.407-.23-.136-1.207-1.224-.173-.475-.23-.136-.287-.817-.575-.542-.402-1.02-.46-.884-.23-.747-.057-1.972-.116-.679-.114-1.698-.173-.817.173-.475-.173-1.087zm40.76 7.866v6.61l-1.092.272-.977-.069-1.847-.799 3.916-6.014zm-8.645-21.326l.137-.813.402-1.155v-.68l1.151-2.854 1.552-2.923 1.092-1.699h.345l.632.339.641.642-5.952 9.143zm-3.997-89.926c17.341 0 33.165 10.172 45.075 26.833l-30.305 46.547-1.668-.986-2.069-.883-1.553-.409-2.241.204-1.955.749-.863.611-1.724 1.495h-.518l-.689.271-1.15 1.02-1.667 1.699-1.782 3.195v.271l-.863 2.039-1.149 4.146-.978 5.573-.402 4.826v5.437l.272 2.993-5.216 8.011.401-1.353.69-1.699.459-.816.23-.679.518-2.108v-.951l.23-.951-.288-.204-.114-.884.459-6.185-.172-.408.23-.203v-1.972l-.23-1.359-.173-.203.173-.68-.747-4.893-.805-3.535-.288-.475-.115-.68-.459-1.632-.116-.611-.287-.271v-.273l-.287-.611-.633-1.767-1.207-2.379-.287-.204-.231-.475-1.034-1.224-2.644-1.563-2.07-.883-1.552-.409-2.242.204-1.955.749-.862.611-1.725 1.495h-.518l-.689.271-1.15 1.02-1.667 1.699-1.782 3.195v.271l-.863 2.039-1.149 4.146-.978 5.573-.402 4.826v5.437l.575 6.32v.816l.575 4.146.977 3.33.632 1.428.978 1.426.689.68.978 1.699.977 1.224 1.84 1.155 4.138 1.495 2.186.544 1.494-1.019.862-.477.173-.34h.977l.92-.407.429-.37-31.159 47.856c-10.848-18.293-17.47-42.596-17.47-69.231 0-56.747 30.058-102.913 67.005-102.913zm0-24.469C281.206 192 244 249.144 244 319.382s37.206 127.382 82.937 127.382c45.73 0 82.936-57.144 82.936-127.382S372.667 192 326.937 192z"/><path d="M277.72 341.263l1.092-.204 2.874.137.173-.273.92.136 1.61-.407.401-.273 2.53-.543.518-2.923v-.679l.287-1.087.23-1.36v-.339l-.173-.544v-.544l-.575-.203-1.322.271-2.932-.204h-6.266l.403-.815.23-2.651v-.952l.747-1.155.69-1.903.575-.816.172-.815.23-.136.288-.816-.116-.339.518-.749v-.678l2.012-4.691v-1.359l.403-.543.057-.748.517-1.359.403-.476.402-1.563v-.816l.172-.543v-.884l.863-1.088v-.543l.46-1.292-.173-.203v-.544l.461-.679v-.544l.23-.544v-.34l.172-.272.23-1.087.69-.883.632-.204.287-.409-.114-1.495-.116-.611v-.951l-.114-.34.172-.477-.69-1.902v-1.428l-.115-1.766-.345-.273-3.507-.747-4.656.612h-1.437l-.173.271-11.382-.136-2.185.408-.805.272-.172.816.23.408-.23.475v.952l-.116.272v.68l-.287.135.173.408-.345.68v.747l.23.272.172.952.575.68.403-.136 1.61.543h.92l2.701.679h.287l.403.136 1.782.273h1.667l1.208.271h4.426l-.805 3.738-.345 1.224-1.839 4.01-.92 2.719-1.38 3.193-.345.477-5.576 14.204-.403.611-.459 1.563-.288.544-.46 1.767-.805 1.563-.344 1.971v.816l.402.544.172.408-.287.135-.46 1.7v.951l.747 1.155.46-.611h1.322l.575.544 5.461-1.224.576-.136 2.816-.135.633-.137z"/></g></g></svg>