<?xml version="1.0" encoding="UTF-8"?>
<svg width="654px" height="894px" viewBox="0 0 654 894" version="1.1" xmlns="http://www.w3.org/2000/svg" xmlns:xlink="http://www.w3.org/1999/xlink">
    <title>presenter</title>
    <g id="presenter" stroke="none" stroke-width="1" fill="none" fill-rule="evenodd">
        <g transform="translate(38.000000, 446.000000)" fill-rule="nonzero">
            <path d="M71.89,153.06 C68.12,146.06 66.33,145.41 59.32,146.32 C55.3165991,146.673018 51.2846276,146.518459 47.32,145.86 C42.19,145.2 37.26,144.45 31.95,145.52 C24.74,146.96 17.3,147.34 9.95,147.92 C7.94086872,148.06619 5.92827107,147.687105 4.11,146.82 C0.96,145.22 0.71,141.82 3.51,139.66 C5.43,138.15 7.77,137.19 10.16,135.85 C6.59,129.68 6,122.85 6.16,115.23 C3.87,113.31 0.81,111.23 0.62,107.23 C4.29,104.64 4.29,104.64 10.43,104.56 C14.43,97.63 21.28,97.16 28.43,97.88 C31.78,98.21 35.07,99.29 38.43,99.47 C43.19,99.71 46.62,100.65 49.27,105.61 C51.05,108.93 55.65,111.92 59.47,112.69 C65.56,113.91 70.38,116.85 74.99,120.4 C78.5360111,123.153974 82.6261126,125.124039 86.99,126.18 C97.26,128.7 107.45,131.53 117.64,134.37 C121.29,135.37 123.85,134.93 126.28,131.48 C136.36,117.17 146.76,103.08 157,88.89 C159.82332,85.3282718 160.661719,80.5836091 159.23,76.27 C156.426776,67.0294813 154.261679,57.6072992 152.75,48.07 C151.59,40.07 151.96,31.91 151.9,23.82 C151.899028,22.0113427 152.496785,20.2532339 153.6,18.82 C158.6,13.03 163.16,6.26 170.48,3.57 C182.91,-1 198.12,-0.93 207.14,10.21 C208.69,12.12 210.14,14.1 211.47,15.8 C231.07,6.73 250.78,8.45 270.27,8.67 C280.170584,8.73752488 290.059534,9.36184413 299.89,10.54 C308.333606,11.7161218 316.686558,13.4702417 324.89,15.79 C330.96,17.41 336.62,20.57 342.7,22.06 C350.16,23.88 353.7,29.06 354.92,35.61 C357.277627,47.7224115 358.94697,59.9586939 359.92,72.26 C360.702676,83.499612 360.0846,94.7929337 358.08,105.88 C355.2,121.55 353.98,137.53 352.08,153.39 C352.12851,154.249278 352.26932,155.100844 352.5,155.93 C355.63,155.44 358.67,154.93 361.71,154.51 C369.06,153.44 376.39,152.1 383.78,151.43 C393.08,150.58 396.48,154.31 394.68,163.43 C393.494506,168.673962 391.957705,173.832266 390.08,178.87 C388.53,183.34 386.55,187.66 384.81,192.06 C384.462448,193.176305 384.178657,194.311471 383.96,195.46 C387.49,196.2 390.88,196.96 394.29,197.63 C403.57,199.43 412.81,201.47 422.15,202.88 C428.44,203.88 433.15,207.51 438.39,210.49 C439.23,210.97 439.62,212.33 440.1,213.33 C445.19,223.94 441.65,234.4 431.1,239.82 C427.53,241.64 423.79,243.15 419.98,244.88 C419.37,262.68 418.91,280.24 418.12,297.78 C417.63,308.78 416.67,319.78 415.85,330.78 C415.73,332.34 415.09,333.84 414.85,335.39 C413.85,341.39 410.25,344.89 404.94,348 C386.53,358.79 366.33,365.27 346.7,373.09 C331.43,379.17 315.87,384.56 300.31,389.89 C279.19,397.11 257.79,396.19 236.31,391.54 C202.95,384.34 170.92,372.75 138.51,362.39 C115.29,354.96 92.58,346.24 70.98,334.86 C64.42,331.39 58.24,327.2 51.84,323.43 C45.15,319.49 41.03,313.28 37.33,306.82 C36.18,304.82 35.93,302.1 35.87,299.69 C35.2,270.85 34.64,242.01 34.04,213.16 C33.9777006,212.538434 33.8808844,211.920814 33.75,211.31 C30.49,209.61 26.9,207.84 23.4,205.9 C18.5,203.17 13.26,200.9 8.89,197.42 C-2.49,188.48 0.58,175.42 10.4,170.02 C19.46,165.09 29.4,162.96 39.26,160.79 C49.38,158.57 59.5,156.29 69.61,154.02 C70.3865948,153.740937 71.1476849,153.420478 71.89,153.06 L71.89,153.06 Z M158,43.15 L158,42.96 C158.48,46.81 157,51.08 160.29,54.39 C165.29,51.39 165.73,46.52 165.46,40.58 C172.07,48.85 163.39,53.78 162.3,60.79 L173,60.79 C170.92,66.31 166.45,66.15 161.27,66.06 C162.82,70.45 164.1,74.19 165.47,77.9 C166.528798,81.241693 169.614756,83.5248987 173.12,83.56 C177.12,83.78 181.21,83.9 185.26,83.95 C190.993903,84.149787 196.475743,81.58738 200,77.06 C202,74.57 204.2,72.19 206.3,69.76 C205.3,77.76 199.54,82.04 193.59,86.21 C194.59,88.08 195.3,89.44 196.06,90.77 C198.51,95.06 200.36,96.13 204.7,94.66 C215.429477,91.1649579 224.159553,83.2606015 228.7,72.93 L217.15,54.26 L213.32,54.46 C213.535416,53.236806 213.812435,52.0252646 214.15,50.83 C215.528353,46.5222844 215.611803,41.9047064 214.39,37.55 C213.69,34.7 212.04,33.24 209.18,33.28 C206.32,33.32 206.31,35.54 206.1,37.6 C206.05,38.12 205.59,38.6 204.95,39.8 C203.21,37.29 201.53,34.8 202.89,32.8 C204.61,30.27 207.59,28.61 210.22,26.41 C205.36,7.11 192.62,4.98 179.97,6.52 C167.32,8.06 158.08,16.52 157.7,26.43 C161.18,25.66 165.13,24.18 167.62,27.56 C169.62,30.25 167.88,33.03 166.31,35.29 L156.91,36.83 C157.35,39.33 157.69,41.24 158,43.15 Z M301.25,184.05 C293.71,182.1 287.25,180.28 280.65,178.76 C264.86,175.09 249.05,171.56 233.24,168 C232.388456,167.726622 231.487723,167.641325 230.6,167.75 C223.69,169.41 217.15,167.47 210.67,165.62 C193.36,160.69 176.14,155.46 158.81,150.62 C153,149 147,147.31 141.05,147.31 C128.66,147.31 116.44,149.65 104.34,152.31 C79.46,157.683333 54.5966667,163.15 29.75,168.71 C25.5763756,169.668614 21.4993404,171.007542 17.57,172.71 C14.8775816,173.849771 12.427164,175.492433 10.35,177.55 C8.12408867,179.685388 7.00206968,182.724681 7.30648393,185.794192 C7.61089817,188.863702 9.30802488,191.623411 11.91,193.28 C16.6993069,196.237884 21.7149273,198.812569 26.91,200.98 C34.34,204.18 42.02,206.8 49.49,209.98 C55.09,212.32 60.38,215.42 66.04,217.59 C83.04,224.14 100.04,230.92 117.36,236.66 C143.01,245.16 168.92,252.89 194.75,260.88 C208.3,265.08 221.7,270.09 235.54,273.02 C256.99,277.57 278.92,278.15 300.79,276.81 C320.02,275.63 338.79,272.25 356.21,263.38 C359.6,261.65 363.44,260.82 366.94,259.26 C387.94,249.93 408.81,240.46 429.8,231.18 C434.2,229.23 434.92,225.75 434.57,221.77 C434.06,215.99 430.57,212.42 424.1,210.99 C411.55,208.25 398.97,205.67 386.39,203.11 C384.526757,202.866169 382.649099,202.749233 380.77,202.76 C378.46,207.87 375.29,212.58 374.29,217.71 C373.11,223.76 369.67,225.9 364.48,227.19 C345.68,231.856667 326.9,236.563333 308.14,241.31 C294.25,244.87 280.57,245.2 266.95,240 C260.64,237.59 254.23,235.41 247.75,233.52 C238.84,230.93 236.75,224.97 242.13,216.29 C243.5,214.08 247.37,213.06 250.3,212.23 C263.69,208.44 277.14,204.91 290.57,201.29 C291.237515,201.183092 291.882836,200.966859 292.48,200.65 C293.54,199.89 294.87,199.15 295.38,198.07 C297.35,193.67 299.07,189.29 301.28,184.05 L301.25,184.05 Z M294.25,140.05 L318.55,144.51 C315.86,147.69 313.16,148.51 309.71,147.71 C304.71,146.57 299.71,145.71 294.3,144.71 C293.64,154.88 293.02,164.47 292.36,174.51 L303.46,177.23 C304.19,176.1 304.75,175.59 304.87,175 C306.65,166.35 313.05,163.09 320.73,161.4 C324.45,160.59 328.22,160.01 331.98,159.31 C332.47,157.99 332.9,156.97 333.23,155.91 C339.5,136.22 341.84,115.91 342.51,95.36 C342.73,88.83 342.4,82.24 343.18,75.78 C344.6,63.99 343.18,52.45 341.48,40.85 C341,37.49 339.37,35.6 336.22,34.7 C331.89,33.45 327.65,31.85 323.28,30.8 C290.78,23 257.78,21.67 224.56,23.43 C221.51,23.6 218.47,24.16 214.5,24.65 L222.2,40.8 C254.6,44.35 287.2,47.93 319.9,51.53 C320.337402,51.6143257 320.752716,51.7879408 321.12,52.04 C321.285875,52.185131 321.404327,52.3767445 321.46,52.59 C321.586136,53.0630363 321.679688,53.5441646 321.74,54.03 C319.66,54.39 317.56,55.17 315.52,55.03 C297.78,53.97 280.03,53.09 262.34,51.46 C248.73,50.21 235.22,47.95 220.53,45.99 C220.95,48.63 220.68,50.99 221.7,52.53 C224.57,56.82 228.02,60.73 231.16,64.85 C234.64,69.41 239.57,71.47 244.92,72.32 C263.59,75.32 282.29,78.05 300.99,80.84 C307.68,81.84 314.39,82.68 321.62,83.67 C319.26,87.31 316.78,87.31 313.92,86.91 C305.45,85.74 296.92,84.77 288.46,83.73 C282.54,83.01 276.62,82.31 270.56,81.59 C273.5,85.26 276.31,88.36 278.62,91.8 C280.621196,94.802725 282.322694,97.994708 283.7,101.33 C285.2,104.91 287.61,106.23 291.41,106.65 C301.41,107.77 311.3,109.35 321.84,110.83 C319.4,114.01 316.92,114.47 313.75,113.83 C307.75,112.68 301.75,111.83 295.75,110.89 C293.43,110.53 291.08,110.38 288.57,110.12 C290.55,120.5 292.35,130 294.26,140 L294.25,140.05 Z M41,263 C60,272 78.5,281.2 97.43,289.55 C144.17,310.17 192.26,326.62 242.94,334.55 C264.33,337.91 285.6,337.37 306.61,331.87 C340.67,322.95 373.68,311 406.09,297.31 C407.34,296.79 408.96,295.47 409.09,294.31 C409.92,288.66 410.89,282.96 409.93,276.81 C407.55,277.48 405.6,277.94 403.71,278.58 C383.21,285.48 362.84,292.78 342.2,299.23 C314.2,308 285.83,314.89 255.97,312.61 C239.786868,311.467735 223.765103,308.656135 208.16,304.22 C174.826667,294.58 142.04,283.29 109.8,270.35 C90.57,262.66 71.8,253.7 52.91,245.35 C49.09,243.66 45.29,241.94 40.98,240.01 L41,263 Z M40.08,214.14 C40.08,218.21 40.36,221.53 40.02,224.78 C39.36,230.96 42.62,234.17 47.74,236.59 C59.35,242.08 70.66,248.25 82.44,253.35 C115.56,267.68 149.56,279.67 183.99,290.41 C201.6,295.9 218.99,302.18 237.42,304.89 C255.85,307.6 274.07,308.89 292.51,305.8 C325.31,300.23 356.9,290.4 388.04,278.95 C395.82,276.09 403.5,272.95 411.44,269.87 L411.44,249.08 C406.78,250.47 402.44,251.43 398.26,253.08 C390.34,256.22 382.62,259.89 374.71,263.08 C367.19,266.08 359.54,268.81 351.96,271.69 C347.34,273.44 342.85,275.69 338.12,276.97 C308.52,285.17 278.45,285.03 248.25,281.61 C241.35,280.83 234.32,280.04 227.72,278.04 C197.95,269.04 168.11,260.2 138.72,250.15 C108.03,239.67 77.78,227.86 47.34,216.65 C45.27,215.89 43.2,215.23 40.09,214.17 L40.08,214.14 Z M41.29,268.3 C41.76,273.3 42.23,277.07 42.43,280.83 C42.4804051,285.14514 44.8439369,289.100905 48.62,291.19 C63.55,300.53 78.7,309.46 95.12,315.93 C110.22,321.87 125.36,327.72 140.65,333.13 C176.17,345.7 212.11,356.66 249.88,360.26 C269.59,362.14 288.98,361.08 308.13,355.69 C335.95,347.86 362.64,336.93 389.52,326.51 C395.52,324.16 401.43,321.32 407.28,318.75 C407.75,313.45 408.19,308.6 408.66,303.35 C407.392929,303.542945 406.140146,303.820228 404.91,304.18 C378.44,314.48 351.41,323.09 324.38,331.75 C296.38,340.75 268.31,343.91 239.13,339.75 C207.25,335.17 176.7,325.95 146.55,315.11 C111.92,302.66 78.67,287.11 46,270.22 C44.87,269.63 43.63,269.25 41.3,268.33 L41.29,268.3 Z M407.19,325 C402.12,327 397.53,328.78 393,330.68 C365.15,342.37 337,353.12 307.78,361.03 C287.28,366.59 266.49,367.15 245.47,365.25 C223.79,363.25 202.81,358.17 182.15,351.75 C164.75,346.33 147.57,340.14 130.34,334.16 C104.55,325.21 79.41,314.76 55.66,301.16 C51.82,298.97 47.94,296.84 43.94,294.6 C41.79,305.53 45.31,308.96 50.71,313.46 C54.5118942,316.651571 58.6814341,319.37755 63.13,321.58 C76.71,328.15 90.13,335.38 104.25,340.43 C130.53,349.81 157.25,357.84 183.87,366.43 C205.52,373.43 227.18,380.18 249.87,383.35 C268.87,386 287.69,386.54 305.92,379.87 C327.06,372.14 347.99,363.87 368.92,355.57 C378.08,351.95 387.01,347.75 396.13,344.02 C405.46,340.2 408,336.25 407.19,325 Z M389.41,156.33 C377.67,157.86 366.5,159.12 355.41,160.8 C344.06,162.51 332.76,164.64 321.41,166.58 C315.12,167.67 310.87,170.72 308.96,177.3 C306.26,186.59 303.12,195.78 299.65,204.82 C296.587038,213.025809 293.033974,221.04024 289.01,228.82 C285.44,235.55 279.86,235.82 273.48,230.18 C275.72,229.9 277.78,229.96 279.6,229.32 C281.42,228.68 283.87,227.72 284.5,226.24 C287.1,220.16 289.11,213.83 291.7,206.58 C276.6,211.42 262.7,215.84 248.86,220.38 C247.13,220.95 245.64,222.24 243.05,223.79 C244.810736,225.000712 246.647901,226.09633 248.55,227.07 C252.55,228.69 256.49,230.31 260.55,231.56 C268.95,234.13 277.35,236.75 285.88,238.77 C292.49,240.33 294.88,238.93 298.44,233.04 C299.66,231.04 300.8,229.38 303.59,229.52 C305.08,229.6 306.59,228.83 308.14,228.47 C323.26,224.91 338.37,221.28 353.52,217.86 C356.7,217.15 360.05,217.2 363.28,216.86 L364.68,222.39 L366,222.68 C368,218.81 370.41,215.09 372,211.06 C377.67,196.58 383.09,182.06 388.54,167.45 C389.82,164.19 390.85,160.74 389.41,156.33 Z M48.53,140.33 C53.1,140.54 57.31,140.63 61.53,140.96 C63.488018,140.982151 65.4196136,141.414801 67.2,142.23 C70.1875445,143.823704 72.9264246,145.845018 75.33,148.23 C78.42,151.52 81.72,151.64 85.73,150.82 C95.87,148.76 106.02,146.58 116.26,145.15 C125.83,143.82 135.58,142.31 145.13,142.9 C152.57,143.36 157.66,140.23 164.21,136.77 L141.96,123.83 C137.66,127.74 133.34,131.32 129.44,135.32 C127.374806,137.736292 124.137401,138.803865 121.04,138.09 C103.12,134.87 84.88,132.5 69.48,121.64 C62.84,116.96 56.34,116.94 49.14,119.64 C45.74,120.94 43.43,122.74 42.31,127.64 L53.22,124.54 L69.22,132.22 C66.22,135.07 62.88,134.43 59.31,132.16 C51.77,127.38 50.72,127.86 49.07,136.45 C48.82,137.48 48.75,138.55 48.53,140.29 L48.53,140.33 Z M160.08,144 C164.41,145.38 167.08,146.29 169.79,147.08 C185.79,151.7 201.79,156.28 217.72,160.93 C222.04,162.18 225.52,161.48 228.49,157.75 C230.43,155.32 233.12,153.49 235.37,151.29 C240.62,146.16 245.8,140.97 251.37,135.46 C244.05,130.17 237.65,125.31 229.58,123.16 C225.58,122.09 222.67,122.72 220.22,126.16 C217.63,129.84 214.75,133.32 211.92,136.82 C210.44,138.64 208.76,140.31 207.18,142.05 L205.42,143.24 C206.72,136.49 203.09,137.24 200.25,137.54 C188.86,138.78 177.48,140.19 166.11,141.66 C164.54,141.92 163.08,142.85 160.08,144 Z M343.8,157.57 C344.95,152.36 346.18,147.79 346.93,143.15 C351.17,116.87 353.6,90.43 352.76,63.81 C352.47,54.64 350.63,45.52 349.43,36.39 C349.17662,32.9242863 346.834462,29.9638935 343.52,28.92 C335.27,25.92 327.21,22.43 318.84,19.86 C305.64,15.86 291.95,14.57 278.21,13.77 C260.86,12.77 243.56,12.66 226.39,15.77 C222.3,16.51 218.33,17.77 215.11,20.77 C219.47,20.9 223.66,20.19 227.86,20.08 C253.08,19.42 278.31,18.41 303.38,22.58 C314.71,24.46 326.05,26.21 336.82,30.58 C341.72,32.58 344.71,35.93 345.16,41.01 C346.06,51.31 347.05,61.65 347.09,72.01 C347.09,82.79 345.98,93.57 345.51,104.36 C344.90498,120.343404 342.496376,136.207313 338.33,151.65 C337.75,153.75 337.33,155.88 336.62,158.65 L343.8,157.57 Z M16,107.21 C14.24,111.88 14.26,111.87 15.79,114.88 C16.28,115.88 17.1,116.94 17,117.88 C16.33,124.04 15.46,130.17 14.57,136.96 C14.6827205,137.347866 14.9405912,137.677368 15.29,137.88 C24.85,142.96 34.29,141.7 43.62,137.15 C44.75,136.6 45.14,134.51 45.92,133.06 C36.24,129.16 36.02,128.28 41.92,120.65 C42.2939841,120.087301 42.7084114,119.552556 43.16,119.05 C46.06,116.16 46.26,112.84 44.82,108.68 C35,111.5 25.15,113.9 16,107.21 Z M15.22,144.15 C13.57,141.83 12.43,140.22 11.22,138.49 C8.22,139.8 5.22,140.11 4.02,144.15 L15.22,144.15 Z M10.22,112.72 C10.53,106.72 9.7,106.24 3.47,108.78 C4.8,111.63 6.76,113.27 10.12,112.72 L10.22,112.72 Z M14.96,119.21 C13.5,117.68 12.28,115.98 11.96,116.13 C10.6951272,116.701978 9.66452313,117.690229 9.04,118.93 C8.82,119.45 10.38,121.46 11.11,121.450037 C12.11,121.43 13.2,120.25 14.86,119.21 L14.96,119.21 Z M30.02,103.39 C26.54,103.16 22.65,101.44 19.1,104.53 L30.02,103.39 Z M8.84,127.15 L12.94,132.03 C14.09,128.12 14.38,126.21 8.74,127.15 L8.84,127.15 Z" id="Shape" fill="#000000"></path>
            <path d="M301.28,184.05 C299.07,189.29 297.35,193.67 295.35,197.92 C294.84,199 293.51,199.74 292.45,200.5 C291.852836,200.816859 291.207515,201.033092 290.54,201.14 C277.11,204.76 263.66,208.29 250.27,212.08 C247.34,212.91 243.47,213.93 242.1,216.14 C236.72,224.82 238.81,230.78 247.72,233.37 C254.2,235.26 260.61,237.44 266.92,239.85 C280.54,245.05 294.22,244.72 308.11,241.16 C326.863333,236.353333 345.643333,231.646667 364.45,227.04 C369.64,225.75 373.08,223.61 374.26,217.56 C375.26,212.43 378.43,207.72 380.74,202.61 C382.619099,202.599233 384.496757,202.716169 386.36,202.96 C398.94,205.52 411.52,208.1 424.07,210.84 C430.59,212.27 434.07,215.84 434.54,221.62 C434.89,225.62 434.17,229.08 429.77,231.03 C408.77,240.31 387.88,249.78 366.91,259.11 C363.41,260.67 359.57,261.5 356.18,263.23 C338.76,272.1 319.99,275.48 300.76,276.66 C278.89,278 256.96,277.42 235.51,272.87 C221.67,269.94 208.27,264.93 194.72,260.73 C168.89,252.73 142.98,245.01 117.33,236.51 C100,230.77 83,224 66,217.44 C60.34,215.27 55,212.17 49.45,209.83 C41.98,206.7 34.3,204.08 26.87,200.83 C21.6749273,198.662569 16.6593069,196.087884 11.87,193.13 C9.26802488,191.473411 7.57089817,188.713702 7.26648393,185.644192 C6.96206968,182.574681 8.08408867,179.535388 10.31,177.4 C12.387164,175.342433 14.8375816,173.699771 17.53,172.56 C21.4593404,170.857542 25.5363756,169.518614 29.71,168.56 C54.55,163 79.4133333,157.533333 104.3,152.16 C116.4,149.55 128.62,147.16 141.01,147.16 C146.94,147.16 153.01,148.86 158.8,150.48 C176.13,155.31 193.35,160.54 210.66,165.48 C217.14,167.33 223.66,169.27 230.59,167.61 C231.477723,167.501325 232.378456,167.586622 233.23,167.86 C249.04,171.42 264.85,174.95 280.64,178.62 C287.24,180.28 293.74,182.1 301.28,184.05 Z M209.56,176.85 L209.16,174.76 C207.16,174.02 205.16,173.09 203.07,172.55 C186.28,168.23 169.5,163.87 152.64,159.82 C149.563186,159.200242 146.389818,159.241145 143.33,159.94 C127.23,163.22 111.17,166.75 95.1,170.21 C90.7,171.15 86.26,171.98 81.93,173.21 C80.65,173.57 79.68,175.07 78.57,176.04 C79.57,177.12 80.29,178.53 81.48,179.21 C83.1184524,179.953284 84.8314611,180.519818 86.59,180.9 C105.31,186.7 124.02,192.54 142.75,198.27 C148.15,199.92 152.75,201.52 159.01,197.78 C168.01,192.46 178.6,190 188.5,186.27 C193.98,184.21 199.5,182.12 204.85,179.87 C206.506471,179.005034 208.082687,177.994382 209.56,176.85 L209.56,176.85 Z" id="Shape" fill="#FFFFFF"></path>
            <path d="M294.26,140 C292.35,129.93 290.55,120.46 288.58,110.1 C291.09,110.36 293.44,110.51 295.76,110.87 C301.76,111.78 307.76,112.66 313.76,113.81 C316.93,114.42 319.41,113.96 321.85,110.81 C311.31,109.33 301.39,107.75 291.42,106.63 C287.62,106.21 285.21,104.89 283.71,101.31 C282.332694,97.974708 280.631196,94.782725 278.63,91.78 C276.32,88.34 273.51,85.24 270.57,81.57 C276.63,82.29 282.57,82.99 288.47,83.71 C296.96,84.71 305.47,85.71 313.93,86.89 C316.79,87.29 319.27,87.29 321.63,83.65 C314.4,82.65 307.69,81.81 301,80.82 C282.3,78.03 263.6,75.26 244.93,72.3 C239.58,71.45 234.65,69.39 231.17,64.83 C228.03,60.71 224.58,56.83 221.71,52.51 C220.71,50.99 220.96,48.61 220.54,45.97 C235.23,47.97 248.74,50.19 262.35,51.44 C280.04,53.07 297.79,53.95 315.53,55.01 C317.53,55.13 319.67,54.35 321.75,54.01 C321.689688,53.5241646 321.596136,53.0430363 321.47,52.57 C321.414327,52.3567445 321.295875,52.165131 321.13,52.02 C320.762716,51.7679408 320.347402,51.5943257 319.91,51.51 C287.26,47.91 254.61,44.33 222.21,40.78 L214.51,24.63 C218.51,24.14 221.51,23.63 224.57,23.41 C257.79,21.65 290.79,22.98 323.29,30.78 C327.66,31.83 331.9,33.43 336.23,34.68 C339.38,35.58 341.01,37.47 341.49,40.83 C343.15,52.43 344.61,63.97 343.19,75.76 C342.41,82.22 342.74,88.76 342.52,95.34 C341.85,115.9 339.52,136.2 333.24,155.89 C332.91,156.95 332.48,157.97 331.99,159.29 C328.23,159.99 324.46,160.57 320.74,161.38 C313.06,163.07 306.66,166.38 304.88,174.98 C304.76,175.57 304.2,176.08 303.47,177.21 L292.37,174.49 C293.03,164.49 293.65,154.86 294.31,144.69 C299.69,145.69 304.74,146.57 309.72,147.69 C313.17,148.48 315.87,147.69 318.56,144.49 L294.26,140 Z" id="Path" fill="#FFFFFF"></path>
            <path d="M41,263 L41,240 C45.31,241.93 49.11,243.65 52.93,245.34 C71.87,253.73 90.59,262.69 109.82,270.34 C142.04,283.226667 174.826667,294.516667 208.18,304.21 C223.786919,308.660344 239.812095,311.48536 256,312.64 C285.86,314.92 314.21,308.03 342.23,299.26 C362.87,292.81 383.23,285.51 403.74,278.61 C405.63,277.97 407.58,277.51 409.96,276.84 C410.96,282.99 409.96,288.69 409.12,294.34 C408.96,295.48 407.34,296.8 406.12,297.34 C373.71,311.03 340.7,322.98 306.64,331.9 C285.64,337.4 264.36,337.9 242.97,334.58 C192.29,326.64 144.2,310.19 97.46,289.58 C78.5,281.2 60,272 41,263 Z" id="Path" fill="#FFFFFF"></path>
            <path d="M40.09,214.17 C43.2,215.23 45.27,215.89 47.32,216.64 C77.76,227.85 108.01,239.64 138.7,250.14 C168.12,260.19 198,269 227.73,278 C234.33,280 241.36,280.79 248.26,281.57 C278.46,284.99 308.53,285.13 338.13,276.93 C342.86,275.61 347.35,273.4 351.97,271.65 C359.55,268.77 367.2,266.08 374.72,263.04 C382.63,259.85 390.35,256.18 398.27,253.04 C402.4,251.4 406.79,250.44 411.45,249.04 L411.45,269.9 C403.51,272.99 395.83,276.12 388.05,278.98 C356.91,290.43 325.32,300.26 292.52,305.83 C274.08,308.96 255.77,307.62 237.43,304.92 C219.09,302.22 201.61,295.92 184,290.44 C149.57,279.7 115.57,267.71 82.45,253.38 C70.67,248.28 59.36,242.11 47.75,236.62 C42.63,234.2 39.37,230.99 40.03,224.81 C40.37,221.56 40.09,218.24 40.09,214.17 Z" id="Path" fill="#FFFFFF"></path>
            <path d="M41.3,268.33 C43.63,269.25 44.87,269.63 46.01,270.22 C78.68,287.09 111.93,302.66 146.56,315.11 C176.71,325.95 207.26,335.17 239.14,339.75 C268.32,343.94 296.44,340.75 324.39,331.75 C351.39,323.09 378.45,314.48 404.92,304.18 C406.150146,303.820228 407.402929,303.542945 408.67,303.35 C408.2,308.6 407.76,313.45 407.29,318.75 C401.44,321.32 395.58,324.16 389.53,326.51 C362.65,336.93 335.96,347.86 308.14,355.69 C288.99,361.08 269.6,362.14 249.89,360.26 C212.12,356.66 176.18,345.7 140.66,333.13 C125.37,327.72 110.23,321.87 95.13,315.93 C78.71,309.46 63.56,300.53 48.63,291.19 C44.8539369,289.100905 42.4904051,285.14514 42.44,280.83 C42.24,277.1 41.77,273.36 41.3,268.33 Z" id="Path" fill="#FFFFFF"></path>
            <path d="M407.19,325 C408.01,336.25 405.46,340.2 396.12,344 C387,347.73 378.12,351.93 368.91,355.55 C347.97,363.8 327.04,372.12 305.91,379.85 C287.68,386.52 268.86,385.98 249.86,383.33 C227.19,380.16 205.53,373.41 183.86,366.41 C157.29,357.82 130.52,349.79 104.24,340.41 C90.09,335.36 76.7,328.13 63.12,321.56 C58.6714341,319.35755 54.5018942,316.631571 50.7,313.44 C45.3,308.94 41.78,305.51 43.93,294.58 C47.93,296.82 51.81,298.95 55.65,301.14 C79.4,314.73 104.54,325.14 130.33,334.14 C147.56,340.14 164.74,346.31 182.14,351.73 C202.8,358.15 223.78,363.28 245.46,365.23 C266.46,367.13 287.27,366.57 307.77,361.01 C336.96,353.1 365.14,342.35 392.99,330.66 C397.53,328.78 402.12,327 407.19,325 Z" id="Path" fill="#FFFFFF"></path>
            <path d="M389.41,156.33 C390.85,160.74 389.82,164.19 388.56,167.54 C383.11,182.1 377.69,196.67 372.02,211.15 C370.44,215.15 368.02,218.9 366.02,222.77 L364.7,222.48 L363.3,216.95 C360.07,217.25 356.72,217.2 353.54,217.95 C338.39,221.37 323.28,225 308.16,228.56 C306.64,228.92 305.1,229.69 303.61,229.61 C300.82,229.47 299.68,231.13 298.46,233.13 C294.9,239.02 292.46,240.42 285.9,238.86 C277.37,236.86 268.97,234.22 260.57,231.65 C256.48,230.4 252.5,228.78 248.57,227.16 C246.667901,226.18633 244.830736,225.090712 243.07,223.88 C245.66,222.33 247.15,221.04 248.88,220.47 C262.73,215.93 276.62,211.47 291.72,206.67 C289.13,213.92 287.12,220.25 284.52,226.33 C283.89,227.81 281.43,228.77 279.62,229.41 C277.81,230.05 275.74,229.99 273.5,230.27 C279.88,235.89 285.5,235.64 289.03,228.91 C293.053974,221.13024 296.607038,213.115809 299.67,204.91 C303.14,195.91 306.28,186.68 308.98,177.39 C310.89,170.81 315.14,167.76 321.43,166.67 C332.76,164.73 344.06,162.6 355.43,160.89 C366.5,159.12 377.67,157.86 389.41,156.33 Z M341.72,199.85 C345.72,199.63 348.35,195.7 348.12,192.23 C347.95,189.65 346.38,188.82 344.12,188.93 C341.12,189.06 337.52,192.39 338.29,195 C338.83,197 340.78,198.6 341.72,199.85 Z M260.28,226.24 C259.082352,225.675838 257.841784,225.207699 256.57,224.84 C256.09,224.74 255.49,225.27 254.29,225.84 C256.13,227.2 257.2,228.88 260.28,226.24 Z" id="Shape" fill="#FFFFFF"></path>
            <path d="M158,43.15 C157.66,41.24 157.32,39.33 156.88,36.84 L166.28,35.3 C167.85,33.04 169.58,30.3 167.59,27.57 C165.1,24.19 161.15,25.67 157.67,26.44 C158.05,16.57 167.19,8.09 179.94,6.53 C192.69,4.97 205.33,7.12 210.19,26.42 C207.56,28.62 204.58,30.28 202.86,32.81 C201.5,34.81 203.18,37.29 204.92,39.81 C205.56,38.61 206.02,38.13 206.07,37.61 C206.28,35.55 206.29,33.33 209.15,33.29 C212.01,33.25 213.66,34.71 214.36,37.56 C215.581803,41.9147064 215.498353,46.5322844 214.12,50.84 C213.782435,52.0352646 213.505416,53.246806 213.29,54.47 L217.12,54.27 L228.67,72.94 C224.129553,83.2706015 215.399477,91.1749579 204.67,94.67 C200.33,96.14 198.48,95.07 196.03,90.78 C195.27,89.45 194.57,88.09 193.56,86.22 C199.51,82.05 205.24,77.78 206.27,69.77 C204.17,72.2 202.01,74.58 199.97,77.07 C196.458308,81.6065733 190.983994,84.1838151 185.25,84 C181.25,83.95 177.15,83.83 173.11,83.61 C169.604756,83.5748987 166.518798,81.291693 165.46,77.95 C164.09,74.24 162.81,70.5 161.26,66.11 C166.44,66.2 170.91,66.36 172.99,60.84 L162.29,60.84 C163.38,53.84 172.06,48.9 165.45,40.63 C165.72,46.57 165.32,51.43 160.28,54.44 C157,51.13 158.47,46.86 158,43.05 M188,36.05 C189.66,33.3 191,30.68 189.15,28.25 C187.15,25.61 183.96,26.25 181.08,26.8 C180.630588,26.8198607 180.195041,26.9615862 179.82,27.21 C178.53,28.55 176.34,29.91 176.27,31.36 C176.160168,32.6086749 176.59939,33.8433015 177.473175,34.7420517 C178.34696,35.6408019 179.568727,36.1146213 180.82,36.04 C183.29,36.08 185.72,36.05 188,36.05 L188,36.05 Z M177.18,72 L177.67,73.41 C184.03,73.81 185.97,72.59 186.93,66.57 L177.18,72 Z" id="Shape" fill="#FFFFFF"></path>
            <path d="M48.53,140.29 C48.75,138.55 48.82,137.48 49.02,136.44 C50.67,127.85 51.72,127.37 59.26,132.15 C62.83,134.42 66.12,135.06 69.17,132.21 L53.17,124.53 L42.26,127.63 C43.38,122.75 45.69,120.95 49.09,119.63 C56.29,116.88 62.79,116.9 69.43,121.63 C84.83,132.49 103.07,134.86 120.99,138.08 C124.087401,138.793865 127.324806,137.726292 129.39,135.31 C133.29,131.31 137.61,127.73 141.91,123.82 L164.16,136.76 C157.61,140.22 152.52,143.35 145.08,142.89 C135.53,142.3 125.78,143.81 116.21,145.14 C105.97,146.57 95.82,148.75 85.68,150.81 C81.68,151.63 78.37,151.51 75.28,148.22 C72.8764246,145.835018 70.1375445,143.813704 67.15,142.22 C65.3696136,141.404801 63.438018,140.972151 61.48,140.95 C57.31,140.59 53.1,140.5 48.53,140.29 Z" id="Path" fill="#FFFFFF"></path>
            <path d="M160.08,144 C163.08,142.83 164.54,141.9 166.08,141.7 C177.45,140.23 188.83,138.82 200.22,137.58 C203.06,137.27 206.69,136.53 205.39,143.28 L207.15,142.09 C208.73,140.35 210.41,138.68 211.89,136.86 C214.72,133.36 217.6,129.86 220.19,126.2 C222.64,122.72 225.55,122.09 229.55,123.2 C237.62,125.35 244.02,130.2 251.34,135.5 C245.79,141.01 240.61,146.2 235.34,151.33 C233.09,153.53 230.4,155.33 228.46,157.79 C225.46,161.52 222.01,162.22 217.69,160.97 C201.69,156.32 185.69,151.74 169.76,147.12 C167.08,146.31 164.41,145.4 160.08,144 Z" id="Path" fill="#FFFFFF"></path>
            <path d="M343.8,157.59 L336.62,158.59 C337.3,155.77 337.75,153.64 338.33,151.59 C342.496376,136.147313 344.90498,120.283404 345.51,104.3 C345.98,93.51 347.12,82.73 347.09,71.95 C347.09,61.63 346.09,51.29 345.16,40.95 C344.71,35.87 341.72,32.49 336.82,30.52 C326.05,26.18 314.71,24.43 303.38,22.52 C278.31,18.35 253.08,19.36 227.86,20.02 C223.66,20.13 219.47,20.84 215.11,20.71 C218.33,17.71 222.3,16.43 226.39,15.71 C243.56,12.63 260.86,12.71 278.21,13.71 C291.95,14.51 305.64,15.76 318.84,19.8 C327.21,22.37 335.27,25.89 343.52,28.86 C346.834462,29.9038935 349.17662,32.8642863 349.43,36.33 C350.63,45.46 352.43,54.58 352.76,63.75 C353.6,90.37 351.17,116.81 346.93,143.09 C346.18,147.81 345,152.38 343.8,157.59 Z" id="Path" fill="#FFFFFF"></path>
            <path d="M16,107.21 C25.2,113.9 35,111.5 44.85,108.69 C46.29,112.85 46.09,116.17 43.19,119.06 C42.7384114,119.562556 42.3239841,120.097301 41.95,120.66 C36.02,128.29 36.24,129.17 45.95,133.07 C45.17,134.52 44.78,136.61 43.65,137.16 C34.37,141.71 24.88,142.97 15.32,137.89 C14.9705912,137.687368 14.7127205,137.357866 14.6,136.97 C15.49,130.18 16.36,124.05 17.03,117.89 C17.13,116.94 16.31,115.89 15.82,114.89 C14.21,111.87 14.19,111.88 16,107.21 Z" id="Path" fill="#FFFFFF"></path>
            <path d="M15.17,144.15 L3.94,144.15 C5.16,140.15 8.13,139.8 11.14,138.49 C12.38,140.22 13.52,141.83 15.17,144.15 Z" id="Path" fill="#FFFFFF"></path>
            <path d="M10.12,112.72 C6.76,113.27 4.8,111.63 3.37,108.78 C9.6,106.24 10.43,106.74 10.12,112.72 Z" id="Path" fill="#FFFFFF"></path>
            <path d="M14.86,119.21 C13.2,120.21 12.11,121.43 10.99,121.45 C10.26,121.45 8.7,119.45 8.92,118.93 C9.54452313,117.690229 10.5751272,116.701978 11.84,116.13 C12.18,116 13.4,117.68 14.86,119.21 Z" id="Path" fill="#FFFFFF"></path>
            <path d="M29.92,103.39 L19,104.53 C22.55,101.44 26.44,103.16 29.92,103.39 Z" id="Path" fill="#FFFFFF"></path>
            <path d="M8.74,127.15 C14.38,126.21 14.09,128.15 12.84,132.03 L8.74,127.15 Z" id="Path" fill="#FFFFFF"></path>
            <path d="M209.56,176.85 C208.08191,177.987466 206.505718,178.99141 204.85,179.85 C199.45,182.1 193.98,184.19 188.5,186.25 C178.6,190 168,192.45 159,197.77 C152.71,201.51 148.14,199.91 142.74,198.26 C124.01,192.53 105.3,186.69 86.58,180.89 C84.8214611,180.509818 83.1084524,179.943284 81.47,179.2 C80.28,178.52 79.47,177.11 78.56,176.03 C79.67,175.03 80.64,173.56 81.92,173.2 C86.25,171.98 90.69,171.15 95.09,170.2 C111.16,166.74 127.22,163.2 143.32,159.93 C146.379818,159.231145 149.553186,159.190242 152.63,159.81 C169.49,163.81 186.27,168.22 203.06,172.54 C205.14,173.08 207.12,174.01 209.15,174.75 L209.56,176.85 Z M90.68,176.85 C91.7404765,177.423817 92.8321769,177.937951 93.95,178.39 C111.13,183.7 128.33,188.94 145.5,194.31 C148.732686,195.283754 152.202936,195.107061 155.32,193.81 C166.71,189.64 178.15,185.6 189.57,181.5 C192.84,180.32 196.1,179.09 200.32,177.5 C199.210361,176.875054 198.057415,176.330329 196.87,175.87 C180.52,171.72 164.19,167.53 147.8,163.58 C145.8,163.09 143.38,163.58 141.26,164.1 C127.04,167.47 112.86,170.95 98.67,174.44 C96.36,175 94.11,175.8 90.68,176.83 L90.68,176.85 Z" id="Shape" fill="#000000"></path>
            <path d="M341.72,199.85 C340.78,198.6 338.83,197 338.25,195 C337.48,192.39 341.03,189.06 344.08,188.93 C346.38,188.82 347.95,189.65 348.08,192.23 C348.35,195.7 345.67,199.63 341.72,199.85 Z" id="Path" fill="#000000"></path>
            <path d="M260.28,226.24 C257.2,228.88 256.13,227.24 254.28,225.81 C255.48,225.27 256.08,224.74 256.56,224.81 C257.836079,225.186912 259.08003,225.665098 260.28,226.24 L260.28,226.24 Z" id="Path" fill="#000000"></path>
            <path d="M188,36.05 C185.68,36.05 183.25,36.05 180.82,36.05 C179.568727,36.1246213 178.34696,35.6508019 177.473175,34.7520517 C176.59939,33.8533015 176.160168,32.6186749 176.27,31.37 C176.34,29.92 178.53,28.56 179.82,27.22 C180.195041,26.9715862 180.630588,26.8298607 181.08,26.81 C183.96,26.27 187.14,25.62 189.15,28.26 C191,30.68 189.7,33.3 188,36.05 Z" id="Path" fill="#000000"></path>
            <path d="M177.18,72 L186.93,66.57 C185.93,72.57 184.03,73.81 177.67,73.41 L177.18,72 Z" id="Path" fill="#000000"></path>
            <path d="M90.68,176.83 C94.11,175.83 96.36,175.02 98.68,174.45 C112.87,170.96 127.05,167.45 141.27,164.11 C143.39,163.61 145.78,163.11 147.81,163.59 C164.2,167.54 180.53,171.73 196.88,175.88 C198.067415,176.340329 199.220361,176.885054 200.33,177.51 C196.11,179.07 192.85,180.3 189.58,181.51 C178.16,185.61 166.72,189.65 155.33,193.82 C152.212936,195.117061 148.742686,195.293754 145.51,194.32 C128.34,188.95 111.14,183.71 93.96,178.4 C92.8381206,177.938521 91.7430609,177.414361 90.68,176.83 L90.68,176.83 Z" id="Path" fill="#FFFFFF"></path>
            <ellipse id="Oval" fill="#000000" cx="161.76" cy="42.92" rx="2.07" ry="3.18"></ellipse>
            <ellipse id="Oval" fill="#000000" cx="179.86" cy="42.92" rx="2.07" ry="3.18"></ellipse>
        </g>
    </g>
</svg>