<?xml version="1.0" encoding="UTF-8"?>
<svg width="654px" height="894px" viewBox="0 0 654 894" version="1.1" xmlns="http://www.w3.org/2000/svg" xmlns:xlink="http://www.w3.org/1999/xlink">
    <title>presenter-bg</title>
    <g id="presenter-bg" stroke="none" stroke-width="1" fill="none" fill-rule="evenodd">
        <g transform="translate(85.459672, 27.453994)" fill="#000000" fill-rule="nonzero" id="Path">
            <path d="M526.960328,206.336006 C527.086995,240.396006 527.216995,274.462673 527.350328,308.536006 C527.460328,333.346006 527.720328,358.146006 527.770328,382.956006 C527.770328,395.796006 527.300328,408.636006 527.400328,421.476006 C527.560328,441.536006 527.930328,461.606006 528.400328,481.666006 C528.830328,499.956006 528.810328,518.196006 524.990328,536.196006 C524.226707,540.18298 523.043456,544.077987 521.460328,547.816006 C516.090328,559.816006 506.460328,566.366006 493.530328,567.086006 C486.210328,567.496006 478.740328,566.456006 471.430328,565.416006 C452.930328,562.776006 434.430328,559.876006 416.010328,556.876006 C401.330328,554.496006 386.740328,551.556006 372.010328,549.346006 C358.220328,547.286006 344.280328,546.176006 330.490328,544.066006 C311.110328,541.066006 291.810328,537.646006 272.490328,534.356006 C239.170328,528.676006 205.860328,522.916006 172.490328,517.276006 C135.620328,511.026006 98.7503285,504.736006 61.8303285,498.736006 C48.7203285,496.606006 35.5303285,495.126006 22.7703285,491.076006 C18.5040932,489.759021 14.692981,487.271404 11.7703285,483.896006 C4.4903285,475.756006 3.2503285,465.686006 2.2103285,455.606006 C1.2103285,445.316006 0.480328499,435.036006 1.8003285,424.606006 C2.8003285,416.366006 0.420328499,177.426006 0.0803284992,172.266006 C-0.399671501,165.136006 1.3503285,158.416006 3.2303285,151.656006 C3.8727788,148.7572 5.83893682,146.328199 8.5403285,145.096006 C15.2903285,141.976006 21.8903285,138.496006 28.8003285,135.786006 C83.1903285,114.416006 138.630328,96.126006 194.580328,79.306006 C274.490328,55.306006 355.160328,34.076006 436.070328,13.756006 C457.470328,8.38600602 479.340328,4.88600602 501.010328,0.66600602 C507.070328,-0.51399398 512.730328,-0.49399398 518.250328,3.81600602 C524.100328,8.37600602 527.360328,13.746006 527.460328,20.956006 C527.610328,32.666006 527.550328,44.386006 527.460328,56.096006 C527.250328,79.546006 526.790328,103.006006 526.720328,126.456006 C526.640328,153.076006 526.890328,179.696006 526.990328,206.316006 L526.960328,206.336006 Z"></path>
        </g>
        <g id="Group-3" transform="translate(244.000000, 192.000000)" fill="#FFFFFF">
            <path d="M82.937,230.295 C69.072,230.295 56.178,223.793 45.478,212.672 L86.325,149.934 L88.795,150.826 L90.98,151.37 L92.475,150.351 L93.337,149.874 L93.51,149.534 L94.487,149.534 L95.407,149.127 L97.534,147.292 L97.821,146.817 L98.051,146.681 L98.281,146.068 L98.569,145.864 L98.856,145.185 L99.201,144.777 L99.201,144.506 L99.431,144.506 L100.121,143.35 L100.811,142.534 L102.363,139.476 L103.167,136.758 L103.857,135.059 L104.317,134.243 L104.547,133.564 L105.064,131.456 L105.064,130.505 L105.294,129.554 L105.007,129.35 L104.893,128.466 L105.352,122.281 L105.18,121.873 L105.41,121.67 L105.41,120.621 L108.494,115.885 L107.998,121.873 L107.71,134.039 L107.94,142.603 L108.17,142.942 L108.17,143.69 L108.285,143.962 L108.515,146.137 L108.917,148.583 L109.205,151.37 L110.182,150.418 L111.619,150.962 L113.114,150.691 L114.551,150.622 L115.356,150.418 L115.701,149.942 L116.046,149.738 L116.449,148.856 L116.851,148.856 L117.311,147.359 L117.541,147.359 L118.116,146.817 L118.116,143.35 L117.886,139.273 L117.886,129.554 L118.001,128.059 L118.116,122.146 L118.46,123.097 L118.92,124.116 L123.231,135.602 L124.267,136.69 L125.704,138.796 L126.739,138.185 L127.371,138.185 L128.349,137.641 L129.44,137.165 L130.188,137.165 L130.418,136.961 L131.453,136.418 L132.2,135.466 L131.912,134.923 L131.912,134.583 L132.89,134.583 L133.234,134.311 L133.752,133.088 L134.442,129.961 L134.672,129.417 L135.477,126.087 L135.592,125 L135.592,124.728 L135.879,125.951 L136.512,146.817 L136.397,147.224 L136.167,147.359 L135.937,147.699 L135.937,149.263 L136.626,150.758 L138.869,151.098 L139.616,151.37 L140.996,151.166 L141.34,150.758 L142.088,150.758 L142.433,150.554 L143.123,150.622 L143.295,150.894 L143.525,150.894 L144.445,149.671 L144.905,148.583 L145.652,148.583 L145.709,142.603 L145.824,142.263 L145.422,142.126 L145.824,141.923 L145.824,134.583 L145.537,133.224 L145.537,129.825 L145.422,129.146 L145.652,128.942 L145.422,127.922 L145.422,126.835 L145.192,126.495 L145.422,125.951 L145.307,125.34 L145.307,123.641 L144.905,123.097 L145.192,122.893 L145.192,121.058 L145.078,120.378 L145.078,119.427 L143.87,106.174 L143.353,103.319 L143.065,102.708 L143.065,102.436 L141.513,96.931 L140.651,96.727 L140.478,96.931 L140.248,96.931 L140.018,97.203 L139.673,97.203 L139.099,97.475 L138.006,97.338 L136.856,97.475 L136.224,97.203 L135.879,97.203 L135.649,97.406 L134.327,96.931 L133.407,96.795 L133.005,97.203 L131.453,101.756 L128.866,112.563 L127.141,118.407 L126.394,116.844 L126.049,115.757 L125.761,114.533 L125.416,113.65 L125.014,112.291 L124.727,112.019 L124.727,111.747 L124.612,111.203 L124.267,110.796 L124.267,110.388 L121.68,104.61 L120.243,102.164 L118.637,100.306 L138.468,69.848 C145.708,86.282 149.942,106.087 149.942,127.382 C149.942,184.129 119.884,230.295 82.937,230.295 L82.937,230.295 Z M54.819,127.855 L54.992,118.339 L55.796,113.582 L56.198,112.427 L56.198,111.747 L57.349,108.893 L58.901,105.97 L59.993,104.271 L60.338,104.271 L60.97,104.61 L61.717,105.359 L62.407,106.921 L63.442,111.067 L65.052,122.553 L64.304,134.039 L64.304,142.331 L63.212,142.603 L62.235,142.534 L59.878,141.515 L59.763,141.243 L59.36,140.971 L59.073,140.564 L58.843,140.428 L57.636,139.204 L57.463,138.729 L57.233,138.593 L56.946,137.776 L56.371,137.234 L55.969,136.214 L55.509,135.33 L55.279,134.583 L55.222,132.611 L55.106,131.932 L54.992,130.234 L54.819,129.417 L54.992,128.942 L54.819,127.855 Z M95.579,135.721 L95.579,142.331 L94.487,142.603 L93.51,142.534 L91.663,141.735 L95.579,135.721 Z M86.934,114.395 L87.071,113.582 L87.473,112.427 L87.473,111.747 L88.624,108.893 L90.176,105.97 L91.268,104.271 L91.613,104.271 L92.245,104.61 L92.886,105.252 L86.934,114.395 Z M82.937,24.469 C100.278,24.469 116.102,34.641 128.012,51.302 L97.707,97.849 L96.039,96.863 L93.97,95.98 L92.417,95.571 L90.176,95.775 L88.221,96.524 L87.358,97.135 L85.634,98.63 L85.116,98.63 L84.427,98.901 L83.277,99.921 L81.61,101.62 L79.828,104.815 L79.828,105.086 L78.965,107.125 L77.816,111.271 L76.838,116.844 L76.436,121.67 L76.436,127.107 L76.708,130.1 L71.492,138.111 L71.893,136.758 L72.583,135.059 L73.042,134.243 L73.272,133.564 L73.79,131.456 L73.79,130.505 L74.02,129.554 L73.732,129.35 L73.618,128.466 L74.077,122.281 L73.905,121.873 L74.135,121.67 L74.135,119.698 L73.905,118.339 L73.732,118.136 L73.905,117.456 L73.158,112.563 L72.353,109.028 L72.065,108.553 L71.95,107.873 L71.491,106.241 L71.375,105.63 L71.088,105.359 L71.088,105.086 L70.801,104.475 L70.168,102.708 L68.961,100.329 L68.674,100.125 L68.443,99.65 L67.409,98.426 L64.765,96.863 L62.695,95.98 L61.143,95.571 L58.901,95.775 L56.946,96.524 L56.084,97.135 L54.359,98.63 L53.841,98.63 L53.152,98.901 L52.002,99.921 L50.335,101.62 L48.553,104.815 L48.553,105.086 L47.69,107.125 L46.541,111.271 L45.563,116.844 L45.161,121.67 L45.161,127.107 L45.736,133.427 L45.736,134.243 L46.311,138.389 L47.288,141.719 L47.92,143.147 L48.898,144.573 L49.587,145.253 L50.565,146.952 L51.542,148.176 L53.382,149.331 L57.52,150.826 L59.706,151.37 L61.2,150.351 L62.062,149.874 L62.235,149.534 L63.212,149.534 L64.132,149.127 L64.561,148.757 L33.402,196.613 C22.554,178.32 15.932,154.017 15.932,127.382 C15.932,70.635 45.99,24.469 82.937,24.469 L82.937,24.469 Z M82.937,0 C37.206,0 0,57.144 0,127.382 C0,197.62 37.206,254.764 82.937,254.764 C128.667,254.764 165.873,197.62 165.873,127.382 C165.873,57.144 128.667,0 82.937,0 L82.937,0 Z" id="Fill-1"></path>
            <polygon id="Fill-2" points="33.7202 149.263 34.8122 149.059 37.6862 149.196 37.8592 148.923 38.7792 149.059 40.3882 148.652 40.7902 148.379 43.3202 147.836 43.8382 144.913 43.8382 144.234 44.1252 143.147 44.3552 141.787 44.3552 141.448 44.1822 140.904 44.1822 140.36 43.6072 140.157 42.2852 140.428 39.3532 140.224 33.0872 140.224 33.4902 139.409 33.7202 136.758 33.7202 135.806 34.4672 134.651 35.1572 132.748 35.7322 131.932 35.9042 131.117 36.1342 130.981 36.4222 130.165 36.3062 129.826 36.8242 129.077 36.8242 128.399 38.8362 123.708 38.8362 122.349 39.2392 121.806 39.2962 121.058 39.8132 119.699 40.2162 119.223 40.6182 117.66 40.6182 116.844 40.7902 116.301 40.7902 115.417 41.6532 114.329 41.6532 113.786 42.1132 112.494 41.9402 112.291 41.9402 111.747 42.4012 111.068 42.4012 110.524 42.6302 109.98 42.6302 109.64 42.8032 109.368 43.0332 108.281 43.7222 107.398 44.3552 107.194 44.6422 106.785 44.5282 105.29 44.4122 104.679 44.4122 103.728 44.2982 103.388 44.4702 102.911 43.7802 101.009 43.7802 99.581 43.6652 97.815 43.3202 97.542 39.8132 96.795 35.1572 97.407 33.7202 97.407 33.5472 97.678 22.1652 97.542 19.9802 97.95 19.1752 98.222 19.0032 99.038 19.2332 99.446 19.0032 99.921 19.0032 100.873 18.8872 101.145 18.8872 101.825 18.6002 101.96 18.7732 102.368 18.4282 103.048 18.4282 103.795 18.6572 104.067 18.8302 105.019 19.4052 105.699 19.8082 105.563 21.4172 106.106 22.3372 106.106 25.0392 106.785 25.3262 106.785 25.7292 106.921 27.5112 107.194 29.1782 107.194 30.3862 107.465 34.8122 107.465 34.0072 111.203 33.6622 112.427 31.8232 116.437 30.9032 119.156 29.5232 122.349 29.1782 122.826 23.6022 137.03 23.1992 137.641 22.7402 139.204 22.4522 139.748 21.9922 141.515 21.1872 143.078 20.8432 145.049 20.8432 145.865 21.2452 146.409 21.4172 146.817 21.1302 146.952 20.6702 148.652 20.6702 149.603 21.4172 150.758 21.8772 150.147 23.1992 150.147 23.7742 150.691 29.2352 149.467 29.8112 149.331 32.6272 149.196 33.2602 149.059"></polygon>
        </g>
    </g>
</svg>