<?xml version="1.0" encoding="UTF-8"?>
<svg width="810px" height="837px" viewBox="0 0 810 837" version="1.1" xmlns="http://www.w3.org/2000/svg" xmlns:xlink="http://www.w3.org/1999/xlink">
    <title>satellite</title>
    <g id="satellite" stroke="none" stroke-width="1" fill="none" fill-rule="evenodd">
        <g id="Group-139">
            <path d="M587.04,388.219 C587.319,388.12 587.598,388.021 587.877,387.922 C587.542,386.764 587.207,385.607 586.871,384.45 C586.436,384.609 586.001,384.767 585.565,384.926 C586.057,386.024 586.549,387.121 587.04,388.219 L587.04,388.219 Z M704.066,312.369 C704.398,312.517 704.73,312.665 705.062,312.813 C705.731,311.249 706.401,309.685 707.071,308.122 C706.784,307.995 706.497,307.869 706.21,307.743 C705.495,309.285 704.781,310.827 704.066,312.369 L704.066,312.369 Z M641.389,404.054 C639.738,404.967 638.945,405.406 637.826,406.024 C639.105,407.053 640.056,407.818 641.389,408.89 L641.389,404.054 Z M557.339,482.141 C557.686,482.382 558.034,482.623 558.381,482.864 C559.363,481.173 561.219,479.871 560.845,476.252 C559.277,478.886 558.309,480.513 557.339,482.141 L557.339,482.141 Z M699.138,331.67 C698.603,331.693 698.068,331.716 697.534,331.739 C697.668,333.143 697.802,334.548 697.936,335.952 C698.336,335.918 698.736,335.885 699.138,335.85 L699.138,331.67 Z M677.96,306.759 C678.479,307.153 678.999,307.547 679.519,307.94 C680.196,306.72 681.02,305.551 681.465,304.25 C681.6,303.854 680.742,303.044 680.225,302.541 C680.035,302.356 679.516,302.511 678.697,302.511 C678.456,303.9 678.208,305.329 677.96,306.759 L677.96,306.759 Z M701.388,319.403 C699.144,322.787 698.114,325.376 698.267,328.411 C699.573,325.927 702.279,323.97 701.388,319.403 L701.388,319.403 Z M696.145,316.839 C695.713,319.49 695.281,322.142 694.849,324.793 C695.917,322.242 699.229,320.225 696.145,316.839 L696.145,316.839 Z M711.933,22.24 C710.762,25.289 707.433,28.241 709.509,33.407 C710.498,28.851 711.215,25.546 711.933,22.24 L711.933,22.24 Z M677.949,54.152 C683.326,54.039 683.552,53.657 681.755,48.58 C680.551,50.344 679.489,51.898 677.949,54.152 L677.949,54.152 Z M634.353,400.91 C640.182,401.522 640.182,401.522 641.293,398.163 C638.729,399.178 636.541,400.044 634.353,400.91 L634.353,400.91 Z M739.316,36.564 C743.813,39.108 752.534,40.032 757.211,38.417 C751.309,37.212 745.435,35.74 739.316,36.564 L739.316,36.564 Z M686.169,46.57 C686.169,49.402 687.083,52.632 685.914,54.66 C684.728,56.716 681.484,57.583 678.579,59.304 C680.496,59.53 682.213,60.076 683.8,59.819 C685.298,59.577 686.929,58.77 688.024,57.716 C690.217,55.605 689.11,50.123 686.169,46.57 L686.169,46.57 Z M685.04,13.259 C685.676,13.089 686.311,12.919 686.945,12.748 C687.481,11.139 688.334,9.556 688.472,7.913 C688.642,5.879 685.959,3.942 683.825,4.314 C681.466,4.726 680.936,6.765 681.535,8.405 C682.195,10.209 683.83,11.656 685.04,13.259 L685.04,13.259 Z M533.217,523.333 C533.635,523.611 534.054,523.888 534.472,524.166 C536.475,521.269 538.669,518.484 540.425,515.446 C542.19,512.392 545.158,509.81 544.665,505.675 C540.082,511.122 536.663,517.236 533.217,523.333 L533.217,523.333 Z M620.903,393.683 C620.576,394.046 620.249,394.408 619.922,394.771 C623.629,398.279 627.253,401.882 631.068,405.269 C634.808,408.587 637.29,413.284 642.492,416.167 C640.499,411.639 624.878,395.687 620.903,393.683 L620.903,393.683 Z M739.372,43.472 C737.949,41.211 736.091,39.595 736.277,38.267 C736.634,35.737 738.156,33.37 739.186,30.956 C736.209,31.018 734.049,33.722 733.779,38.844 C733.614,41.965 734.249,45.148 734.779,48.26 C734.85,48.672 736.429,48.826 737.606,49.194 C738.311,46.912 738.898,45.009 739.372,43.472 L739.372,43.472 Z M745.729,143.51 C746.142,138.951 746.307,134.352 747.034,129.844 C747.773,125.27 749.069,120.785 750.12,116.261 C743.386,124.536 743.014,133.839 745.729,143.51 L745.729,143.51 Z M594.718,366.707 C598.942,367.71 602.082,368.234 605.067,369.224 C608.191,370.261 610.256,369.235 612.604,366.166 C606.526,365.903 601.332,360.109 594.718,366.707 L594.718,366.707 Z M528.628,497.675 C526.357,501.327 524.328,504.592 522.298,507.856 C522.559,508.145 522.819,508.434 523.08,508.723 C527.872,506.705 532.664,504.688 538.483,502.237 C534.689,500.481 532.005,499.238 528.628,497.675 L528.628,497.675 Z M509.455,516.723 C516.384,522.912 523.89,526.098 532.012,529.206 C532.012,527.876 532.331,526.845 531.958,526.421 C530.045,524.247 513.308,516.83 509.455,516.723 L509.455,516.723 Z M741.434,61.779 C733.485,64.521 729.409,83.472 735.288,91.998 C734.584,80.751 735.324,70.727 741.434,61.779 L741.434,61.779 Z M599.849,412.891 C600.821,413.784 601.562,414.84 601.905,414.723 C610.055,411.961 618.16,409.073 626.94,405.971 C622.935,403.991 617.214,405.579 599.849,412.891 L599.849,412.891 Z M565.881,448.061 C566.16,448.395 566.439,448.728 566.719,449.061 C567.733,448.19 568.881,447.431 569.737,446.425 C571.819,443.977 573.71,441.366 575.779,438.906 C580.186,433.665 584.695,428.51 589.062,423.237 C589.799,422.348 590.035,421.045 590.503,419.933 C590.089,419.681 589.675,419.429 589.261,419.178 C581.468,428.805 573.674,438.433 565.881,448.061 L565.881,448.061 Z M758.467,344.978 C755.449,356.616 753.305,357.031 762.214,361.451 C763.246,348.331 764.079,350.059 758.467,344.978 L758.467,344.978 Z M694.877,304.588 C697.799,306.874 700.179,308.736 702.877,310.846 C705.255,305.568 707.273,301.088 709.292,296.608 C709.027,296.428 708.764,296.248 708.499,296.069 C704.261,298.72 700.021,301.371 694.877,304.588 L694.877,304.588 Z M526.755,488.114 C523.898,491.061 525.928,492.308 527.84,493.403 C533.746,496.783 539.673,500.128 545.664,503.352 C546.448,503.774 547.654,503.41 548.665,503.41 C548.819,502.963 548.975,502.516 549.13,502.07 C542.362,496.422 533.729,493.689 526.755,488.114 L526.755,488.114 Z M520.88,490.452 C520.846,489.932 520.812,489.413 520.778,488.893 C513.316,488.564 505.853,488.235 498.618,487.916 C497.03,492.465 500.08,494.769 501.162,497.674 C502.217,500.507 503.401,503.304 504.715,506.026 C505.986,508.659 506.055,512.114 509.635,513.374 C507.385,505.804 502.345,499.328 500.819,491.001 C507.613,488.29 514.406,491.794 520.88,490.452 L520.88,490.452 Z M714.092,287.33 C713.676,286.912 713.261,286.494 712.845,286.076 C705.063,290.401 697.054,294.342 689.961,299.751 C691.502,302.193 692.807,302.467 694.826,301.149 C700.067,297.726 705.523,294.632 710.757,291.198 C712.125,290.3 712.993,288.64 714.092,287.33 L714.092,287.33 Z M751.033,146.008 C754.247,136.694 754.821,127.198 753.478,117.567 C749.799,126.807 749.025,136.293 751.033,146.008 L751.033,146.008 Z M716.803,30.283 C721.203,35.284 724.655,39.208 728.26,43.304 C729.648,38.384 730.799,34.311 731.936,30.283 L716.803,30.283 Z M578.148,440.953 C578.425,441.334 578.7,441.714 578.976,442.095 C584.913,438.694 590.851,435.292 597.113,431.704 C595.283,428.842 593.827,426.566 592.027,423.751 C587.11,429.844 582.63,435.399 578.148,440.953 L578.148,440.953 Z M694.573,331.61 C688.409,330.984 682.653,330.285 676.878,329.853 C672.816,329.549 672.503,329.996 672.103,334.629 C679.564,334.954 686.961,336.596 694.573,335.827 L694.573,331.61 Z M676.996,35.587 C677.056,42.495 676.028,48.476 670.582,51.384 C665.902,53.884 660.296,54.648 655.22,56.144 C661.786,59.731 669.544,58.245 675.138,52.209 C680.923,45.965 681.515,42.142 676.996,35.587 L676.996,35.587 Z M780.028,351.59 L780.028,357.664 C798.544,359.458 801.425,359.35 806.142,356.255 C797.422,353.48 788.839,353.818 780.028,351.59 L780.028,351.59 Z M766.963,368.877 C770.259,355.616 773.339,343.222 776.517,330.432 C766.154,341.341 765.606,354.357 766.963,368.877 L766.963,368.877 Z M753.726,364.752 C752.14,370.996 750.837,376.127 749.342,382.015 C755.092,380 760.001,378.598 764.532,374.327 C761.016,371.211 757.816,368.376 753.726,364.752 L753.726,364.752 Z M728.738,48.442 C728.897,48.063 729.056,47.685 729.214,47.306 C724.055,42.913 718.895,38.521 714.016,34.365 C713.416,36.864 712.462,40.837 711.406,45.235 C717.574,46.376 723.156,47.409 728.738,48.442 L728.738,48.442 Z M544.967,495.747 C548.479,489.717 552.277,484.722 554.824,477.97 C547.662,481.488 541.408,484.55 535.175,487.655 C534.907,487.788 534.842,488.329 534.395,489.314 C537.663,491.303 541.002,493.334 544.967,495.747 L544.967,495.747 Z M516.482,514.975 C521.567,517.675 525.249,519.63 529.342,521.803 C532.492,516.537 535.52,511.476 538.549,506.414 C538.29,506.136 538.032,505.859 537.773,505.581 C531.151,508.502 524.53,511.424 516.482,514.975 L516.482,514.975 Z M717.289,286.754 C716.971,287.198 716.651,287.642 716.333,288.087 C716.921,288.592 717.435,289.244 718.106,289.582 C737.963,299.572 757.831,309.539 777.712,319.482 C780.111,320.682 780.943,320.767 784.508,320.718 C761.81,309.249 739.549,298.001 717.289,286.754 L717.289,286.754 Z M620.481,386.108 L620.481,369.838 C617.497,371.743 615.064,373.121 612.849,374.787 C611.8,375.576 610.324,377.072 610.49,377.984 C611.243,382.112 610.554,386.612 612.998,390.709 C615.913,388.917 618.444,387.361 620.481,386.108 L620.481,386.108 Z M575.16,284.929 C574.563,280.953 572.667,281.252 570.24,282.134 C560.973,285.501 551.66,288.746 542.38,292.081 C540.767,292.66 539.229,293.449 537.657,294.141 C539.801,295.509 542.106,296.435 543.913,295.842 C554.402,292.399 564.774,288.599 575.16,284.929 L575.16,284.929 Z M569.352,474.4 C568.963,474.12 568.574,473.84 568.186,473.56 C567.067,475.001 565.799,476.35 564.858,477.899 C561.508,483.42 558.383,489.081 554.955,494.554 C551.498,500.073 550.12,506.604 545.66,511.722 C542.536,515.307 540.685,519.995 538.225,524.167 C537.294,525.746 536.362,527.283 537.223,529.366 C549.194,511.713 559.172,492.998 569.352,474.4 L569.352,474.4 Z M737.983,303.227 C737.737,303.541 737.491,303.855 737.245,304.169 C743.52,311.157 748.766,319.055 756.278,326.216 C756.939,321.227 757.454,317.349 757.979,313.383 C751.041,309.859 744.512,306.543 737.983,303.227 L737.983,303.227 Z M678.96,30.336 C678.717,30.555 678.475,30.774 678.232,30.993 C678.748,31.3 679.24,31.659 679.783,31.906 C684.305,33.96 688.925,35.818 693.339,38.08 C698.153,40.548 703.102,40.169 708.629,40.177 C707.305,36.73 706.265,34.023 705.295,31.5 C696.167,31.096 687.563,30.717 678.96,30.336 L678.96,30.336 Z M606.306,390.486 C605.911,385.479 605.557,380.975 605.185,376.247 C600.495,375.196 596.332,374.262 592.008,373.292 C592.102,386.18 593.235,387.564 606.306,390.486 L606.306,390.486 Z M765.999,338.013 C767.705,335.349 769.157,332.944 770.748,330.635 C772.429,328.193 774.243,325.843 776.163,323.23 C771.738,320.957 767.678,318.871 763.255,316.599 C762.631,320.109 762.445,323.162 761.513,325.967 C759.782,331.175 761.615,334.836 765.999,338.013 L765.999,338.013 Z M725.138,118.722 C730.561,126.558 735.431,133.593 740.438,140.829 C741.088,133.755 741.707,127.004 742.371,119.769 C737.031,119.444 731.438,119.105 725.138,118.722 L725.138,118.722 Z M722.488,295.231 C736.109,311.87 749.655,328.416 763.267,345.043 C766.71,341.778 763.875,340.081 762.545,338.469 C752.032,325.727 741.378,313.101 730.822,300.394 C728.56,297.671 725.761,296.084 722.488,295.231 L722.488,295.231 Z M763.213,368.539 C762.041,367.228 761.498,366.477 760.818,365.884 C750.484,356.848 740.168,347.793 729.776,338.823 C714.796,325.893 699.768,313.018 684.728,300.156 C683.551,299.148 682.136,298.419 680.831,297.561 C684.661,303.687 757.908,366.158 763.213,368.539 L763.213,368.539 Z M747.148,61.677 C741.171,68.398 739.288,75.832 738.995,83.652 C738.878,86.755 737.237,90.633 740.771,93.337 C749.289,84.749 752.575,71.933 747.148,61.677 L747.148,61.677 Z M503.393,492.632 C507.485,500.772 510.894,507.551 514.105,513.94 C517.775,507.715 521.3,501.737 525.122,495.255 C518.087,492.492 511.255,493.544 503.393,492.632 L503.393,492.632 Z M499.07,537.053 C493.16,539.352 492.139,541.305 495,545.949 C498.932,552.329 504.581,556.748 511.894,558.778 C513.225,559.147 514.687,559.217 516.077,559.16 C518.711,559.052 520.166,557.581 520.121,554.907 C520.075,552.194 518.624,551.21 515.891,551.032 C513.16,550.854 510.252,550.381 507.825,549.205 C502.883,546.81 499.713,542.743 499.07,537.053 L499.07,537.053 Z M565.089,365.439 C565.412,364.928 565.736,364.416 566.06,363.905 C565.043,363.159 564.13,362.148 562.995,361.708 C552.308,357.559 541.6,353.465 530.864,349.445 C523.76,346.784 516.601,344.27 508.602,341.378 C507.98,343.008 507.15,345.185 506.232,347.592 C508.048,348.105 509.222,348.869 509.917,348.559 C513.451,346.986 516.608,348.334 519.81,349.462 C529.289,352.804 538.751,356.194 548.227,359.545 C553.841,361.529 559.468,363.476 565.089,365.439 L565.089,365.439 Z M645.529,246.999 C649.453,248.459 650.394,244.828 651.787,242.852 C663.528,226.194 675.092,209.411 686.667,192.636 C687.799,190.996 688.835,189.233 689.562,187.388 C690.097,186.032 690.053,184.448 690.267,182.965 L689.133,182.51 C674.617,203.977 660.103,225.445 645.529,246.999 L645.529,246.999 Z M513.158,522.794 C510.459,526.994 508.063,530.725 505.311,535.008 C511.324,534.135 515.43,529.946 522.204,530.765 C516.086,535.888 509.397,537.023 502.797,539.206 C506.075,544.108 509.892,546.789 515.57,546.701 C518.784,540.79 521.909,535.044 525.119,529.14 C520.915,526.909 517.375,525.032 513.158,522.794 L513.158,522.794 Z M611.561,399.628 C604.164,397.35 597.358,395.255 589.285,392.768 C592.846,399.103 595.748,404.267 598.784,409.67 C606.541,407.196 614.276,404.73 623.046,401.933 C620.681,399.45 619.106,397.799 617.408,396.017 C614.994,397.508 612.987,398.748 611.561,399.628 L611.561,399.628 Z M683.204,42.654 C689.587,44.397 690.787,45.668 691.505,51.483 C691.902,54.708 692.409,57.908 688.807,60.005 C683.351,63.181 680.056,62.793 673.429,57.768 C671.07,58.786 668.684,59.815 666.291,60.848 C671.376,67.3 675.017,68.092 681.756,64.571 C683.266,63.782 685.15,63.59 686.892,63.397 C688.64,63.205 690.425,63.355 693.038,63.355 C694.043,56.991 695.11,50.881 695.886,44.734 C696.032,43.573 695.372,41.681 694.47,41.127 C690.77,38.853 686.941,36.688 681.93,35.982 C682.422,38.557 682.822,40.655 683.204,42.654 L683.204,42.654 Z M614.136,437.042 C614.384,436.44 614.632,435.838 614.88,435.236 C613.096,434.059 611.293,432.909 609.532,431.698 C608.214,430.793 606.537,430.075 605.729,428.818 C601.817,422.719 597.894,416.603 594.45,410.236 C590.043,402.09 586.122,393.682 581.906,385.43 C581.341,384.323 580.274,383.473 579.44,382.504 C579.05,382.743 578.659,382.981 578.269,383.22 C584.123,400.249 594.428,415.158 602,432.365 C595.418,436.176 588.264,440.318 581.109,444.461 C581.31,444.828 581.511,445.196 581.712,445.563 C588.203,442.13 594.995,439.145 601.061,435.077 C604.213,432.963 606.197,432.865 609.047,434.796 C610.557,435.819 612.428,436.31 614.136,437.042 L614.136,437.042 Z M534.558,258.162 C543.538,259.63 552.213,259.79 560.884,260.062 C561.022,259.658 561.161,259.254 561.3,258.849 C555.098,252.423 548.895,245.996 542.389,239.255 C539.635,245.904 537.175,251.843 534.558,258.162 L534.558,258.162 Z M565.746,321.496 C567.932,313.403 570.234,304.877 572.821,295.302 C563.893,298.87 556.228,301.933 548.973,304.832 C554.655,310.478 560.059,315.846 565.746,321.496 L565.746,321.496 Z M561.43,466.166 C578.205,457.43 594.545,448.921 611.571,440.054 C608.635,438.811 606.608,437.953 604.797,437.186 C599.045,440.175 593.512,443.043 587.984,445.922 C577.984,451.13 567.982,456.335 558.007,461.59 C557.6,461.804 557.454,462.514 557.173,463.018 C558.576,464.056 559.857,465.004 561.43,466.166 L561.43,466.166 Z M640.3,255.058 C631.613,253.186 623.832,251.488 616.036,249.861 C615.297,249.707 614.295,249.74 613.703,250.127 C608.904,253.261 604.176,256.5 598.753,260.161 C608.035,261.4 616.276,262.501 624.519,263.593 C624.901,263.643 625.363,263.738 625.675,263.583 C630.439,261.219 635.42,259.201 640.3,255.058 L640.3,255.058 Z M534.17,308.231 C540.199,307.499 543.122,310.525 546.092,313.626 C549.862,317.564 553.785,321.358 557.641,325.215 C559.305,326.88 560.965,328.548 562.686,330.273 C564.809,327.666 563.451,326.187 562.002,324.704 C556.776,319.356 551.532,314.025 546.363,308.623 C545.226,307.435 544.367,305.98 543.018,304.158 C545.297,303.138 546.689,302.399 548.158,301.877 C555.772,299.167 563.34,296.293 571.063,293.936 C574.661,292.838 575.634,290.866 575.537,287.694 C566.056,290.95 556.949,294.232 547.732,297.166 C544.074,298.331 540.171,298.724 535.349,299.671 C535.09,301.553 534.699,304.391 534.17,308.231 L534.17,308.231 Z M643.135,293.943 C638.158,286.546 630.936,281.881 625.061,275.571 C618.264,287.68 613.56,300.892 614.286,305.309 C623.735,301.586 633.201,297.857 643.135,293.943 L643.135,293.943 Z M630.428,345.594 C627.394,348.202 624.734,350.569 621.987,352.832 C619.152,355.168 616.234,357.403 612.666,360.225 C614.643,360.754 615.574,361.049 616.526,361.246 C617.512,361.449 618.534,361.483 619.51,361.719 C623.861,362.772 626.053,365.652 626.767,370.051 C627.563,374.964 625.885,380.201 628.784,384.868 C629.148,385.454 628.614,386.778 628.211,387.624 C627.446,389.232 626.475,390.742 625.669,392.153 C627.742,394.424 629.616,396.476 631.581,398.628 C635.098,397.399 638.266,396.292 641.235,395.255 C642.027,391.737 641.487,389.488 638.966,386.882 C634.758,382.533 632.086,377.092 631.889,370.641 C631.643,362.614 630.974,354.599 630.428,345.594 L630.428,345.594 Z M628.433,342.064 C622.29,333.908 616.54,326.273 610.495,318.246 C606.174,333.647 602.48,346.032 607.508,356.481 C614.288,351.81 621.023,347.169 628.433,342.064 L628.433,342.064 Z M641.833,299.393 C631.914,303.678 622.187,307.88 611.987,312.286 C618.033,320.762 624.445,328.464 630.664,335.821 C634.398,323.639 637.989,311.929 641.833,299.393 L641.833,299.393 Z M603.338,417.886 C604.669,426.541 612.245,427.952 617.968,431.918 C624.752,424.837 633.456,423.575 643.18,423.834 C638.554,418.38 633.813,413.389 628.918,408.752 C620.111,411.897 611.784,414.87 603.338,417.886 L603.338,417.886 Z M773.822,383.696 C780.161,377.151 782.077,369.63 784.227,362.115 C776.685,360.662 775.788,359.88 776.109,355.282 C776.451,350.395 779.545,348.417 787.84,348.118 C788.855,339.931 790.912,331.738 788.411,323.4056 C783.846,323.363 782.752,326.797 781.447,329.611 C776.14,341.064 772.83,353.153 771.822,365.703 C771.37,371.343 770.506,377.324 773.822,383.696 L773.822,383.696 Z M705.19,29.171 C708.154,21.685 708.366,14.988 704.733,9.5 C702.031,5.417 697.152,2.657 691.13,3.75 C692.943,7.552 692.391,10.469 689.751,13.428 C686.561,17.004 682.979,15.684 679.276,14.744 C678.865,18.63 678.492,22.154 678.064,26.197 C687.238,27.202 696.108,28.175 705.19,29.171 L705.19,29.171 Z M670.505,427.038 C680.073,424.612 760.7,383.279 764.944,378.204 C733.003,392.344 703.142,407.89 672.745,424.367 C672.978,409.96 677.623,397.582 680.393,384.855 C683.13,372.269 686.182,359.764 690.806,347.656 C688.311,351.168 685.551,354.626 684.412,358.554 C680.989,370.358 678.111,382.324 675.186,394.267 C672.597,404.843 671.039,415.58 670.505,427.038 L670.505,427.038 Z M672.182,37.876 C671.932,29.347 667.125,24.426 659.223,24.609 C651.847,24.779 645.007,32.062 645.322,39.41 C645.647,47.011 651.656,52.067 660.11,51.852 C668.331,51.644 672.445,46.88 672.182,37.876 L672.182,37.876 Z M653.319,245.612 C661.82,244.043 669.329,242.771 676.771,241.182 C678.107,240.896 679.385,239.477 680.307,238.285 C682.783,235.085 682.641,231.128 683.144,227.348 C684.515,217.065 685.989,206.796 687.423,196.522 C687.148,196.381 686.874,196.24 686.601,196.098 C675.756,212.232 664.912,228.365 653.319,245.612 L653.319,245.612 Z M567.83,340.416 C570.794,352.928 573.382,363.849 576.062,375.161 C579.404,375.779 582.642,376.377 586.019,377.001 L586.019,365.337 C591.09,362.62 596.124,359.922 601.317,357.138 C600.872,354.116 600.384,350.802 599.889,347.443 C589.472,345.159 579.37,342.946 567.83,340.416 L567.83,340.416 Z M510.199,303.343 C528.102,319.517 545.108,335.114 563.557,350.122 L563.557,335.478 L562.543,336.21 C560.762,334.017 559.081,331.733 557.178,329.652 C553.502,325.63 549.777,321.646 545.926,317.794 C542.978,314.845 540.066,312.095 535.454,311.322 C530.958,310.568 530.032,308.199 531.308,303.637 C532.046,300.998 533.155,298.462 534.426,294.978 C526.211,297.815 518.716,300.402 510.199,303.343 L510.199,303.343 Z M616.646,438.023 C617.88,440.309 619.411,441.947 619.615,443.736 C620.392,450.564 623.763,456.208 627.213,461.84 C628.003,463.129 629.254,464.136 630.399,465.389 C636.77,462.168 642.828,459.105 649.082,455.944 C647.127,446.675 645.274,437.893 643.406,429.036 C631.715,424.236 624.303,431.237 616.646,438.023 L616.646,438.023 Z M621.098,269.284 C610.788,267.793 601.12,266.395 591.064,264.94 C587.476,274.259 584.038,283.185 580.466,292.46 C590.579,293.353 600.11,294.195 610.046,295.072 C613.592,286.797 617.145,278.506 621.098,269.284 L621.098,269.284 Z M598.345,338.738 C601.693,327.906 604.884,317.749 607.949,307.554 C608.686,305.107 607.233,302.873 604.449,302.24 C596.023,300.325 587.482,299.423 578.406,299.409 C575.99,310.894 573.638,322.077 571.126,334.013 C580.347,335.614 589.014,337.118 598.345,338.738 L598.345,338.738 Z M586.046,263.449 C577.063,254.17 568.927,245.744 560.756,237.351 C559.64,236.205 558.493,234.593 557.117,234.284 C551.297,232.977 545.438,231.555 539.406,231.793 C534.509,242.895 529.817,253.534 524.69,265.156 C539.226,265.885 553.101,266.579 567.35,267.292 C566.353,263.713 564.45,263.448 562.011,263.323 C552.732,262.846 543.465,262.131 534.201,261.418 C533.08,261.332 531.998,260.719 530.23,260.127 C533.987,251.591 537.601,243.378 541.47,234.584 C542.888,235.72 544.167,236.578 545.238,237.645 C546.811,239.212 548.222,240.94 549.723,242.58 C558.727,252.422 567.76,262.237 576.713,272.123 C577.764,273.283 578.39,274.827 579.212,276.193 L578.38,277.229 C574.964,273.487 571.495,274.922 567.853,276.281 C557.444,280.165 546.997,283.945 536.515,287.625 C525.207,291.596 514.328,297.129 501.479,297.362 C500.599,300.921 499.703,304.54 498.967,307.514 C503.761,310.174 508.178,311.85 511.639,314.691 C521.476,322.766 530.795,331.469 540.564,339.631 C548.243,346.047 556.288,352.027 564.314,358.313 C565.685,354.246 563.168,352.712 560.966,350.878 C546.52,338.849 532.106,326.785 517.715,314.694 C514.777,312.225 511.835,309.732 509.158,306.992 C506.887,304.669 507.316,302.803 510.103,301.183 C510.97,300.679 511.939,300.329 512.891,299.995 C530.617,293.771 548.335,287.522 566.088,281.376 C570.363,279.896 574.738,278.22 579.524,281.676 C581.934,274.943 584.096,268.9 586.046,263.449 L586.046,263.449 Z M641.663,382.733 C644.658,336.105 655.018,292.239 674.22,249.81 C669.944,250.57 666.419,251.271 662.869,251.812 C654.651,253.066 646.682,254.684 640.98,261.674 C639.625,263.335 637.43,264.313 635.611,265.594 C633.013,267.424 630.406,269.244 627.467,271.304 C635.061,279.738 644.59,285.47 651.113,294.168 C645.059,303.561 641.918,313.839 639.102,324.124 C634.737,340.06 634.929,356.455 635.647,372.813 C635.814,376.631 638.142,379.379 641.663,382.733 L641.663,382.733 Z M3.2149,762.2928 C3.5219,762.6698 3.8279,763.0468 4.1339,763.4238 C4.7109,763.4238 5.4219,763.6478 5.8449,763.3918 C199.291,646.763 392.718,530.1 586.135,413.422 C586.212,413.375 586.165,413.061 586.118,412.887 C586.067,412.701 585.949,412.533 585.647,411.936 C585.096,412.042 584.32,412.004 583.758,412.33 C580.61,414.159 577.521,416.087 574.4,417.96 C518.738,451.37 463.039,484.719 407.417,518.196 C309.689,577.017 212.012,635.923 114.305,694.78 C78.7929,716.172 43.2529,737.5178 7.7439,758.9158 C6.1389,759.8828 4.7209,761.1598 3.2149,762.2928 L3.2149,762.2928 Z M661.482,469.125 C657.955,452.761 657.857,436.162 657.724,419.723 C657.601,404.451 659.123,389.109 660.783,373.892 C664.537,339.486 671.822,305.747 681.951,272.669 C689.237,248.871 697.964,225.615 710.795,204.117 C711.113,203.583 711.247,202.939 711.468,202.346 C709.198,204.068 707.361,205.956 705.76,208.026 C694.115,223.087 683.752,238.789 676.651,256.712 C667.926,278.738 660.192,300.992 655.364,324.196 C651.207,344.168 648.566,364.326 647.659,384.737 C647.065,398.103 647.979,411.353 648.816,424.666 C649.811,440.512 655.571,454.816 661.482,469.125 L661.482,469.125 Z M686.945,226.024 C687.88,224.771 688.455,223.992 689.038,223.218 C695.473,214.676 701.983,206.19 708.278,197.545 C709.488,195.883 710.245,193.656 710.534,191.595 C711.933,181.614 713.1,171.601 714.35,161.599 C715.625,151.398 716.913,141.199 718.169,130.996 C718.446,128.739 718.233,126.285 721.928,124.313 C721.49,131.568 721.112,137.846 720.71,144.52 C726.38,144.836 731.71,145.134 738.186,145.494 C736.574,142.756 735.59,140.837 734.379,139.073 C730.603,133.574 726.609,128.22 722.988,122.624 C721.75,120.711 720.653,118.224 720.722,116.037 C720.916,109.839 721.752,103.661 722.32,97.473 C722.441,96.156 722.5,94.832 722.582,93.583 C715.635,92.084 715.635,92.084 714.681,88.556 C719.461,89.249 724.143,89.928 729.263,90.671 C728.341,80.635 729.192,71.122 734.164,61.934 C727.267,60.279 733.554,54.725 730.992,51.961 C723.894,50.752 717.084,49.593 709.889,48.368 C707.939,64.802 706.047,80.76 704.157,96.698 C706.479,97.188 709.157,95.607 709.172,99.039 C709.174,99.574 708.82,100.11 708.551,100.872 L704.275,100.872 C698.508,142.52 692.787,183.838 686.945,226.024 L686.945,226.024 Z M674.686,420.363 C677.711,418.873 679.505,418.069 681.224,417.129 C685.831,414.608 690.339,411.899 695.006,409.497 C710.082,401.738 725.195,394.048 740.344,386.431 C742.333,385.431 743.455,384.159 743.97,382.007 C745.331,376.312 746.798,370.64 748.343,364.991 C749.137,362.088 748.318,360.148 745.951,358.207 C737.52,351.298 729.273,344.165 720.972,337.098 C715.47,332.414 709.993,327.699 704.028,322.59 C702.59,326.525 700.762,329.466 701.458,333.446 C701.941,336.208 701.141,338.989 697.523,339.906 C696.489,340.169 695.347,341.648 695.017,342.79 C689.234,362.754 683.464,382.723 677.954,402.764 C676.484,408.112 675.894,413.702 674.686,420.363 L674.686,420.363 Z M668.74,428.888 C666.769,404.797 674.468,382.451 681.309,359.319 C675.985,363.985 671.779,360.807 667.515,357.779 C666.619,364.63 665.693,370.804 665.029,377.007 C663.914,387.425 662.38,397.845 662.103,408.293 C661.805,419.563 662.51,430.881 663.218,442.15 C663.902,453.028 665.446,463.856 669.537,474.04 C671.316,478.469 673.714,482.839 676.686,486.55 C680.443,491.242 684.991,491.567 690.242,488.607 C691.468,487.916 692.607,487.051 693.717,486.177 C700.994,480.45 706.164,472.965 710.844,465.15 C722.854,445.096 731.334,423.497 738.371,401.291 C738.636,400.458 738.484,399.493 738.545,398.191 C737.152,398.807 736.217,399.169 735.329,399.622 C717.523,408.704 699.728,417.805 681.915,426.873 C679.938,427.88 677.805,428.585 675.858,429.642 C673.223,431.074 670.918,430.643 668.74,428.888 L668.74,428.888 Z M681.24,292.798 C687.106,298.666 686.462,299.071 693.774,294.583 C698.767,291.519 703.825,288.563 708.882,285.607 C713.224,283.068 717.563,282.768 722.057,285.439 C725.876,287.709 729.805,289.81 733.771,291.814 C742.004,295.971 750.294,300.015 758.945,304.296 C759.304,302.6 759.55,301.839 759.617,301.061 C760.677,288.821 762.22,276.595 762.61,264.332 C762.996,252.239 762.423,240.098 761.874,227.996 C761.388,217.265 759.379,206.731 755.474,196.691 C754.26,193.569 752.389,190.501 750.137,188.028 C746.254,183.764 742.149,183.365 737.001,185.866 C730.703,188.927 725.499,193.244 721.414,198.973 C713.988,209.385 707.871,220.526 702.56,232.133 C693.632,251.642 686.869,271.904 681.24,292.798 L681.24,292.798 Z M660.642,538.635 L660.469,538.459 C662.055,543.236 663.43,548.094 665.259,552.775 C678.187,585.873 691.299,618.901 704.184,652.016 C725.872,707.757 747.436,763.5458 769.051,819.3158 C770.936,824.1788 772.803,829.0478 774.764,834.1358 C777.093,834.1358 779.113,834.3388 781.082,834.1008 C790.484,832.9638 794.649,826.0548 791.223,817.3398 C782.365,794.8148 773.481,772.2998 764.598,749.7848 C752.962,720.296 741.379,690.785 729.66,661.329 C703.735,596.166 677.743,531.03 651.76,465.89 C651.138,464.33 650.305,462.854 649.575,461.35 C648.906,461.691 648.577,461.825 648.587,461.858 C650.101,466.874 651.639,471.883 653.325,477.379 C646.838,475.225 648.763,467.503 644.056,464.683 C639.728,466 639.728,466 638.057,469.368 C636.436,469.054 634.824,468.742 632.6,468.311 C634.166,472.479 635.35,475.878 636.713,479.203 C640.219,487.758 643.805,496.28 647.358,504.814 L647.163,504.639 C648.931,508.76 650.697,512.88 652.465,517 C653.283,519.041 654.102,521.082 654.921,523.123 C656.827,528.294 658.734,533.464 660.642,538.635 L660.642,538.635 Z M713.372,299.118 C711.436,304.148 709.499,309.178 707.341,314.783 C721.57,327.058 735.944,339.457 751.041,352.479 C751.944,348.256 752.528,345.14 753.295,342.07 C753.894,339.671 753.144,337.833 751.636,335.992 C743.47,326.024 735.457,315.929 727.216,306.023 C723.937,302.082 720.211,298.515 716.344,294.413 C715.116,296.315 714.384,297.451 713.65,298.587 C713.97,297.45 714.339,296.324 714.593,295.174 C714.846,294.02 714.983,292.842 715.172,291.675 C714.811,291.582 714.451,291.49 714.091,291.398 C712.202,295.413 710.314,299.429 708.467,303.36 C710.164,301.892 711.768,300.505 713.372,299.118 L713.372,299.118 Z M560.841,471.771 C557.138,468.947 553.435,466.122 549.892,463.418 C546.352,469.319 542.803,475.238 539.051,481.494 C540.196,481.494 540.824,481.664 541.304,481.469 C547.405,478.983 553.505,476.487 559.543,473.853 C560.135,473.595 560.32,472.406 560.734,471.682 C561.886,471.569 563.201,471.781 564.163,471.294 C580.736,462.919 597.271,454.47 613.786,445.982 C614.696,445.514 615.353,444.554 616.22,443.738 C613.602,441.768 611.966,443.695 610.35,444.522 C595.795,451.965 581.272,459.472 566.819,467.11 C564.619,468.272 562.823,470.199 560.841,471.771 L560.841,471.771 Z M662.01,483.977 C667.086,496.926 672.099,509.899 677.246,522.819 C716.445,621.192 755.67,719.554 794.891,817.9178 C797.24,823.8108 795.516,829.6598 790.2,832.9848 C788.161,834.2598 785.946,835.4098 783.656,836.0958 C776.713,838.1718 772.519,836.1168 769.899,829.4008 C755.287,791.9268 740.725,754.4338 726.142,716.949 C699.027,647.249 671.906,577.552 644.8,507.85 C640.917,497.866 637.137,487.844 633.233,477.869 C631.715,473.989 630.271,470.281 627.005,467.099 C624.116,464.285 622.847,459.814 620.839,456.088 C619.611,453.809 618.34,451.554 617.096,449.301 C603.117,456.283 589.56,463.013 576.061,469.862 C574.754,470.525 573.466,471.727 572.762,473.005 C563.107,490.531 553.655,508.168 543.932,525.655 C540.294,532.196 536.839,533.324 528.439,531.585 C525.769,536.103 523.014,540.765 520.912,544.322 C521.947,548.908 523.255,552.504 523.458,556.16 C523.714,560.775 521.018,563.164 516.399,563.52 C505.916,564.329 491.936,553.517 489.969,543.079 C489.068,538.303 491.588,534.067 496.941,533.646 C501.354,533.299 503.279,530.977 505.153,527.803 C506.485,525.545 507.907,523.34 509.416,520.906 C504.998,512.083 500.57,503.273 496.171,494.449 C492.708,487.502 494.472,484.722 502.361,485.065 C511.639,485.469 520.907,486.112 530.756,486.684 C534.858,480.179 539.29,473.689 543.13,466.867 C545.623,462.438 548.823,459.145 553.34,456.959 C557.191,455.094 559.96,452.341 562.475,448.636 C567.792,440.803 574.08,433.628 579.989,426.198 C582.101,423.543 584.266,420.931 586.011,417.668 C584.494,418.443 582.925,419.13 581.469,420.006 C437.13,506.859 292.802,593.729 148.469,680.593 C102.727,708.121 56.9739,735.633 11.2319,763.1618 C9.6769,764.0978 8.1809,765.1348 6.6689,766.1418 C4.8159,767.3748 3.0209,767.9388 1.3129,765.8918 C-0.3201,763.9358 -0.4981,760.9148 1.1659,759.2198 C1.9899,758.3808 3.1689,757.8858 4.2039,757.2618 C66.9009,719.445 129.571,681.58 192.307,643.825 C311.703,571.97 431.134,500.173 550.558,428.362 C561.636,421.7 572.758,415.11 583.82,408.51 C581.034,401.545 578.512,394.718 575.555,388.083 C574.207,385.058 573.893,381.12 569.295,380.153 C568.081,379.898 567.175,376.921 566.641,375.047 C566.096,373.14 566.183,371.053 565.969,368.782 C564.795,368.18 563.621,367.407 562.336,366.946 C547.503,361.628 532.673,356.302 517.783,351.15 C516.065,350.555 513.966,350.79 512.086,351.008 C509.343,351.324 505.268,350.126 504.641,348.185 C503.794,345.562 504.295,343.051 506.096,340.794 C507.964,338.452 510.015,338.633 512.55,339.599 C526.5,344.914 540.494,350.114 554.482,355.325 C554.804,355.445 555.247,355.234 556.044,355.117 C555.06,354.177 554.297,353.364 553.45,352.651 C539.543,340.932 525.599,329.257 511.739,317.483 C509.712,315.762 508.01,313.878 504.975,314.139 C503.856,314.235 502.648,313.546 501.51,313.133 C494.722,310.668 493.625,308.257 496.342,301.791 C496.734,300.859 497.245,299.977 497.642,299.047 C500.304,292.817 500.283,292.962 506.843,293.69 C508.933,293.923 511.259,293.496 513.264,292.777 C525.056,288.543 536.764,284.074 548.545,279.81 C554.048,277.819 559.648,276.096 565.213,274.278 C567.273,273.605 569.358,273.008 572.126,272.165 C571.01,271.254 570.504,270.475 569.953,270.442 C556.043,269.61 542.124,268.906 528.217,268.038 C525.889,267.892 523.602,267.091 520.742,266.473 C521.462,263.806 521.778,261.631 522.622,259.683 C526.396,250.966 530.234,242.273 534.224,233.653 C536.501,228.734 537.199,228.433 542.663,228.945 C546.478,229.303 550.263,230.143 554.079,230.295 C556.994,230.41 558.938,231.681 560.871,233.635 C567.986,240.832 575.197,247.936 582.408,255.039 C583.984,256.592 585.709,257.995 587.264,259.378 C594.952,255.272 602.541,251.506 609.825,247.221 C614.119,244.696 618.487,244.126 623.211,244.635 C627.826,245.133 632.438,245.67 637.057,246.136 C638.644,246.297 640.249,246.298 641.789,246.369 C654.648,227.164 667.311,208.155 680.098,189.228 C683.145,184.717 686.651,180.516 689.84,176.096 C690.603,175.038 691.269,173.716 691.43,172.445 C693.865,153.24 696.166,134.019 698.584,114.813 C701.23,93.8 703.977,72.8 706.648,51.79 C706.978,49.2 707.114,46.585 707.393,43.393 L699.038,43.393 C698.086,50.567 697.141,57.693 696.261,64.319 C695.391,64.999 695.108,65.395 694.761,65.465 C689.486,66.515 684.235,67.356 679.042,69.112 C674.235,70.738 668.999,69.988 665.685,64.738 C664.294,62.535 662.298,61.034 659.279,60.781 C655.552,60.469 652.426,58.425 650.001,55.521 C647.806,52.892 645.494,50.327 643.591,47.493 C639.201,40.956 640.434,32.748 646.034,27.048 C652.311,20.661 660.906,18.841 669.316,23.183 C670.692,23.893 672.224,24.302 674.353,25.101 C675.24,19.583 676.349,14.469 676.821,9.298 C677.373,3.25 679.349,1.015 685.371,0.839 C686.379,0.809 687.467,1.014 688.382,0.707 C695.318,-1.623 700.192,2.259 705.47,5.797 C712.489,10.503 715.246,17.165 715.662,25.596 C723.041,26.495 730.216,27.436 737.408,28.208 C739.871,28.472 742.09,28.49 743.464,31.247 C744.011,32.344 745.96,33.018 747.394,33.343 C750.921,34.141 754.52,34.625 758.266,35.264 C758.602,36.311 759.102,37.227 759.166,38.173 C759.416,41.897 758.968,42.546 755.356,42.717 C751.345,42.907 747.317,42.761 743.215,42.761 C742.376,45.698 741.462,48.898 740.504,52.25 C738.091,51.543 736.293,51.016 733.682,50.252 C734.196,53.112 734.578,55.232 734.987,57.509 C739.084,57.509 743.029,57.458 746.973,57.526 C749.773,57.575 751.732,59.166 752.102,61.809 C752.768,66.574 753.664,71.466 753.229,76.191 C752.592,83.124 749.546,89.345 745.015,94.761 C742.911,97.276 740.878,98.231 737.766,96.102 C734.232,93.685 730.127,94.303 726.151,94.582 C725.268,100.247 724.572,105.615 723.547,110.919 C722.974,113.886 724.279,115.107 726.846,115.447 C732.049,116.135 737.259,116.825 742.489,117.218 C743.635,117.304 745.074,116.376 746.028,115.524 C748.022,113.743 750.128,113.373 752.735,113.679 C755.398,113.991 756.574,115.152 757.134,117.728 C758.76,125.223 757.688,132.601 756.551,139.995 C756.367,141.189 756.063,142.365 755.804,143.548 C754.489,149.537 751.7,150.998 745.736,149.449 C737.454,147.3 729.001,147.673 719.973,148.038 C717.754,162.548 715.574,176.803 713.186,192.424 C716.072,190.251 717.772,188.945 719.5,187.675 C725.403,183.332 731.602,179.712 738.939,178.164 C746.379,176.595 752.008,179.047 756.479,184.883 C760.238,189.787 762.562,195.373 764.038,201.303 C767.174,213.894 768.397,226.742 768.811,239.674 C769.489,260.928 767.51,282.034 765.116,303.112 C765.005,304.089 764.68,305.043 764.32,306.577 C767.201,308.131 770.151,309.783 773.156,311.328 C777.29,313.456 781.332,315.857 785.66,317.49 C790.462,319.3 792.059,322.897 792.219,327.368 C792.419,332.974 792.208,338.596 792.121,344.211 C792.097,345.781 791.883,347.347 791.724,349.31 C795.241,349.814 798.399,350.29 801.564,350.714 C806.368,351.357 809.302,353.418 809.244844,356.16 C809.187,358.805 805.968,361.601 801.794,362.258 C799.824,362.568 797.767,362.323 795.749,362.325 C793.547,362.327 791.344,362.325 789.135,362.325 C786.832,367.905 784.733,373.117 782.521,378.281 C781.727,380.133 780.774,381.94 779.694,383.64 C776.265,389.037 773.541,389.41 768.401,385.31 C767.784,384.818 767.212,384.27 766.477,383.622 C760.308,386.777 754.268,389.98 748.117,392.953 C745.562,394.188 744.981,396.367 744.234,398.717 C737.992,418.377 731.062,437.781 721.698,456.207 C715.819,467.776 709.255,478.925 699.751,488.009 C698.294,489.402 696.753,490.738 695.108,491.898 C687.035,497.592 678.889,497.402 671.144,491.15 C668.192,488.766 665.604,485.93 662.852,483.3 C662.571,483.526 662.29,483.751 662.01,483.977 L662.01,483.977 Z" id="Fill-1" fill="#000000"></path>
            <path d="M681.24,292.798 C686.869,271.903 693.632,251.642 702.559,232.133 C707.871,220.526 713.988,209.384 721.414,198.973 C725.499,193.244 730.703,188.927 737.001,185.866 C742.149,183.365 746.254,183.764 750.136,188.028 C752.388,190.501 754.26,193.569 755.473,196.691 C759.379,206.731 761.387,217.265 761.874,227.996 C762.423,240.098 762.996,252.238 762.61,264.332 C762.219,276.595 760.677,288.821 759.617,301.061 C759.55,301.839 759.303,302.6 758.945,304.296 C750.294,300.015 742.004,295.971 733.771,291.814 C729.804,289.81 725.876,287.709 722.056,285.439 C717.563,282.768 713.223,283.068 708.882,285.607 C703.825,288.563 698.766,291.519 693.774,294.583 C686.462,299.071 687.106,298.666 681.24,292.798" id="Fill-2" fill="#FFFFFF"></path>
            <path d="M640.531,484.081 C642.698,479.544 641.029,475.526 636.394,473.257 C637.953,477.335 639.242,480.708 640.531,484.081 L640.531,484.081 Z M669.635,517.05 C668.013,513.105 667.442,509.389 664.539,506.094 C663.269,511.222 664.939,514.882 669.635,517.05 L669.635,517.05 Z M679.585,548.826 C680.966,557.941 682.739,560.91 687.219,562.06 C683.167,550.1 683.167,550.1 679.585,548.826 L679.585,548.826 Z M736.147,685.54 C734.183,680.415 732.828,675.513 729.677,670.551 C727.631,676.988 731.303,681.19 733.219,685.786 C733.322,686.03 734.901,685.659 736.147,685.54 L736.147,685.54 Z M705.646,609.517 C702.333,598.572 701.042,596.01 698.3,594.596 C697.689,600.381 700.43,606.299 705.646,609.517 L705.646,609.517 Z M748.948,717.175 C745.752,723.067 749.482,727.295 751.399,731.923 C751.544,732.27 753.258,731.968 754.857,731.968 C752.72,726.618 750.834,721.896 748.948,717.175 L748.948,717.175 Z M743.746,704.235 C741.93,699.651 740.193,695.033 738.205,690.526 C737.951,689.951 736.389,689.953 733.979,689.283 C737.601,695.229 737.129,701.695 743.746,704.235 L743.746,704.235 Z M762.477,751.0376 C760.446,746.0276 758.414,741.0186 755.877,734.763 C754.823,736.9596 753.782,738.1556 754.053,738.7166 C756.206,743.1686 756.05,749.0326 762.477,751.0376 L762.477,751.0376 Z M716.713,672.825 C715.658,677.391 718.916,686.006 722.677,689.761 C722.931,682.855 719.95,677.808 716.713,672.825 L716.713,672.825 Z M657.315,485.719 C656.9,485.869 656.485,486.018 656.07,486.168 C655.205,492.636 659.464,497.661 661.468,503.313 C661.575,503.616 662.788,503.528 664.479,503.756 C661.888,497.234 659.602,491.477 657.315,485.719 L657.315,485.719 Z M674.766,572.045 C675.953,571.443 676.62,571.304 676.918,570.895 C677.204,570.503 677.26,569.8 677.157,569.287 C675.685,562.009 672.699,557.407 668.515,556.226 C670.574,561.435 672.567,566.479 674.766,572.045 L674.766,572.045 Z M687.118,602.634 C689.109,608.685 690.97,614.522 694.635,620.639 C695.754,616.471 695.469,615.318 691.797,606.878 C690.955,604.946 690.54,602.563 687.118,602.634 L687.118,602.634 Z M715.479,638.936 C716.033,638.555 716.587,638.174 717.139,637.793 C714.888,631.926 712.966,625.919 709.339,620.592 C707.99,626.296 711.517,630.679 713.167,635.532 C713.593,636.784 714.69,637.808 715.479,638.936 L715.479,638.936 Z M695.892,623.048 C697.262,629.245 699.421,635.184 702.805,642.076 C703.282,634.882 700.317,626.423 695.892,623.048 L695.892,623.048 Z M679.525,545.375 C679.844,545.053 680.163,544.73 680.482,544.408 C679.327,541.469 678.158,538.536 677.022,535.59 C675.95,532.806 675.046,529.939 673.15,526.706 C672.216,530.921 674.434,539.928 677.214,544.394 C677.575,544.976 678.735,545.06 679.525,545.375 L679.525,545.375 Z M691.253,573.856 C689.92,580.234 693.103,588.053 698.447,591.166 C696.583,584.653 694.254,579.161 691.253,573.856 L691.253,573.856 Z M713.531,670.129 C714.094,669.97 714.657,669.81 715.219,669.651 C716.701,666.083 713.855,663.332 712.847,660.351 C710.633,653.801 710.411,653.875 706.301,652.04 C708.885,658.506 711.208,664.318 713.531,670.129 L713.531,670.129 Z M731.437,716.367 C732.573,714.044 733.666,712.867 733.424,712.127 C732.24,708.508 730.884,704.913 729.19,701.508 C728.553,700.228 726.841,699.484 725.618,698.496 C725.329,698.787 725.041,699.078 724.752,699.368 C726.775,704.515 728.8,709.661 731.437,716.367 L731.437,716.367 Z M738.844,735.426 C739.196,735.392 739.548,735.357 739.899,735.323 C740.002,733.255 740.687,730.996 740.085,729.158 C738.784,725.187 736.856,721.416 735.029,717.639 C734.933,717.441 733.384,717.947 732.056,718.218 C734.436,724.252 736.64,729.839 738.844,735.426 L738.844,735.426 Z M683.374,594.644 C684.004,594.51 684.635,594.377 685.264,594.244 C685.31,586.898 681.278,580.867 678.952,573.902 C677.79,574.744 676.856,575.236 676.911,575.406 C679.009,581.836 681.197,588.238 683.374,594.644 L683.374,594.644 Z M718.778,641.56 C718.248,641.522 717.719,641.483 717.188,641.445 C716.868,642.534 716.004,643.823 716.318,644.679 C717.829,648.786 719.518,652.845 721.45,656.77 C722.144,658.181 723.697,659.169 724.858,660.35 C725.203,660.119 725.548,659.889 725.892,659.659 C723.521,653.626 721.15,647.593 718.778,641.56 L718.778,641.56 Z M758.31,785.1366 C761.2,776.6976 756.236,771.4316 754.472,764.8656 C752.996,765.7256 752.055,766.2726 750.951,766.9156 C753.348,772.8516 755.626,778.4896 758.31,785.1366 L758.31,785.1366 Z M743.939,744.8966 C743.552,745.1726 743.166,745.4486 742.779,745.7256 L749.608,763.0986 C750.154,763.1036 750.7,763.1086 751.245,763.1146 C751.647,762.0796 752.618,760.8606 752.352,760.0416 C751.112,756.2126 749.749,752.3856 747.97,748.7856 C747.192,747.2096 745.316,746.1766 743.939,744.8966 L743.939,744.8966 Z M774.214,826.0686 C776.598,823.4256 776.283,821.0326 775.247,818.4326 C772.871,812.4726 770.536,806.4926 768.377,800.4516 C767.422,797.7806 765.668,796.5076 762.17,795.3916 C766.401,806.1696 770.258,815.9916 774.214,826.0686 L774.214,826.0686 Z M775.886,831.2826 C781.648,832.5656 785.608,830.1516 789.215,827.1936 C790.263,826.3326 791.277,824.1796 790.918,823.0676 C789.353,818.2356 787.276,813.5696 784.899,807.6266 C781.659,814.4756 786.356,818.8006 786.779,824.4796 C783.765,825.5106 780.769,826.5346 777.008,827.8196 C776.919,828.0946 776.501,829.3876 775.886,831.2826 L775.886,831.2826 Z M776.046,783.4296 C775.117,784.7226 774.188,786.0156 773.28,787.2806 C775.867,797.3166 776.605,798.4376 781.276,799.2606 C779.513,793.9396 777.77,788.6816 776.028,783.4226 C774.527,780.1966 772.986,776.9886 771.537,773.7396 C770.146,770.6206 768.852,767.4576 767.515,764.3146 C767.034,764.4316 766.553,764.5486 766.073,764.6656 C766.231,766.7306 766.062,768.8916 766.627,770.8386 C767.466,773.7266 769.202,776.3766 769.865,779.2856 C770.696,782.9266 773.015,783.5196 776.046,783.4296 L776.046,783.4296 Z M652.464,517 C650.697,512.88 648.93,508.76 647.172,504.645 C647.962,505.12 648.745,505.588 649.527,506.056 C650.433,500.599 647.071,490.531 643.085,486.938 C641.382,488.693 642.89,490.227 643.376,491.809 C644.706,496.144 646.031,500.479 647.358,504.814 C643.804,496.28 640.219,487.758 636.713,479.203 C635.349,475.878 634.166,472.479 632.599,468.311 C634.824,468.742 636.435,469.054 638.056,469.368 C639.727,466 639.727,466 644.055,464.684 C648.762,467.503 646.838,475.226 653.325,477.379 C651.638,471.883 650.1,466.874 648.587,461.858 C648.577,461.826 648.906,461.691 649.575,461.35 C650.304,462.854 651.137,464.331 651.76,465.891 C677.743,531.03 703.735,596.166 729.66,661.33 C741.379,690.786 752.962,720.296 764.597,749.7856 C773.481,772.2996 782.365,794.8146 791.222,817.3396 C794.649,826.0556 790.484,832.9636 781.082,834.1006 C779.113,834.3386 777.093,834.1356 774.763,834.1356 C772.802,829.0476 770.935,824.1786 769.051,819.3156 C747.436,763.5456 725.872,707.757 704.183,652.016 C691.299,618.901 678.187,585.873 665.259,552.775 C663.429,548.094 662.054,543.236 660.479,538.47 C662.426,541.937 664.361,545.393 666.651,549.48 C667.327,542.818 665.129,536.041 660.743,530.813 C660.347,532.128 659.773,533.138 659.809,534.126 C659.866,535.638 660.343,537.133 660.641,538.635 C658.734,533.464 656.827,528.294 654.921,523.123 L654.759,523.223 C655.842,525.05 656.925,526.878 658.519,529.568 C659.206,528.06 660.284,526.842 660.029,526.055 C658.917,522.613 657.548,519.234 655.985,515.969 C655.463,514.877 654.086,514.194 652.699,512.971 C652.533,514.805 652.427,515.978 652.32,517.151 L652.464,517 Z" id="Fill-3" fill="#FFFFFF"></path>
            <path d="M668.74,428.888 C670.918,430.643 673.222,431.074 675.858,429.642 C677.804,428.585 679.938,427.88 681.915,426.873 C699.727,417.805 717.523,408.704 735.329,399.622 C736.217,399.169 737.152,398.807 738.545,398.191 C738.484,399.493 738.636,400.458 738.371,401.291 C731.334,423.497 722.854,445.097 710.844,465.15 C706.164,472.965 700.994,480.451 693.717,486.177 C692.607,487.051 691.468,487.916 690.242,488.607 C684.991,491.567 680.443,491.243 676.685,486.55 C673.714,482.839 671.316,478.469 669.537,474.04 C665.446,463.856 663.902,453.028 663.218,442.15 C662.51,430.881 661.804,419.563 662.103,408.293 C662.38,397.845 663.914,387.425 665.029,377.007 C665.693,370.805 666.619,364.63 667.514,357.779 C671.779,360.807 675.985,363.985 681.308,359.319 C674.468,382.451 666.769,404.797 668.74,428.888" id="Fill-4" fill="#FFFFFF"></path>
            <path d="M706.444,339.133 C710.398,336.998 709.95,333.635 709.377,330.538 C709.219,329.689 707.281,328.619 706.195,328.657 C705.205,328.692 703.582,329.978 703.426,330.911 C702.929,333.886 703.025,336.939 706.444,339.133 M674.685,420.362 C675.894,413.702 676.484,408.112 677.954,402.763 C683.464,382.723 689.234,362.754 695.016,342.789 C695.346,341.648 696.489,340.168 697.523,339.906 C701.14,338.988 701.941,336.207 701.458,333.446 C700.761,329.466 702.59,326.525 704.028,322.589 C709.993,327.699 715.469,332.414 720.971,337.098 C729.273,344.164 737.52,351.298 745.951,358.207 C748.318,360.147 749.136,362.088 748.342,364.991 C746.798,370.639 745.331,376.311 743.969,382.006 C743.455,384.158 742.333,385.43 740.343,386.431 C725.195,394.048 710.082,401.737 695.006,409.497 C690.339,411.899 685.831,414.608 681.223,417.128 C679.505,418.069 677.711,418.873 674.685,420.362" id="Fill-5" fill="#FFFFFF"></path>
            <path d="M707.333,89.136 L711.928,89.136 C710.502,86.77 709.05,86.668 707.333,89.136 M703.201,112.313 C705.36,117.733 709.438,115.634 712.302,116.527 C714.371,117.172 716.463,117.091 718.333,113.969 C713.053,113.391 708.525,112.896 703.201,112.313 M696.325,177.667 C700.76,180.667 704.785,181.797 707.616,180.797 C708.444,180.505 708.951,179.303 710.108,177.915 C705.278,176.974 701.349,175.924 696.325,177.667 M713.98,146.64 C710.829,143.636 705.519,142.35 700.849,143.461 C703.732,147.525 708.433,148.663 713.98,146.64 M728.058,59.387 C722.442,59.167 717.496,56.424 711.55,58.469 C714.89,63.463 719.783,60.667 723.442,62.066 C724.9,62.623 727.053,62.666 728.058,59.387 M719.97,95.287 C715.42,96.617 709.119,104.377 707.933,109.423 C713.52,106.215 716.928,101.534 719.97,95.287 M717.041,120.375 C710.001,122.388 702.743,133.586 703.612,140.047 C708.362,133.089 712.701,126.732 717.041,120.375 M728.451,65.755 C722.033,71.479 714.192,75.732 709.953,83.761 C711.599,83.605 713.305,83.308 714.194,82.294 C718.99,76.828 725.794,73.104 728.451,65.755 M691.35,207.791 C698.997,204.762 709.289,188.825 708.045,182.85 C702.305,191.425 696.827,199.608 691.35,207.791 M699.258,174.387 C704.935,167.311 710.648,160.373 715.083,151.324 C709.322,152.232 708.272,156.428 706.161,159.244 C700.298,167.064 698.591,170.934 699.258,174.387 M686.945,226.024 C692.787,183.838 698.508,142.52 704.275,100.872 L708.551,100.872 C708.82,100.11 709.174,99.574 709.172,99.039 C709.157,95.607 706.479,97.188 704.157,96.698 C706.047,80.76 707.939,64.803 709.889,48.368 C717.084,49.593 723.895,50.752 730.992,51.961 C733.554,54.725 727.267,60.279 734.164,61.934 C729.192,71.122 728.341,80.635 729.263,90.671 C724.143,89.928 719.461,89.249 714.681,88.556 C715.635,92.084 715.635,92.084 722.582,93.583 C722.5,94.832 722.441,96.156 722.32,97.473 C721.752,103.661 720.916,109.839 720.722,116.037 C720.653,118.224 721.75,120.711 722.988,122.624 C726.609,128.22 730.604,133.574 734.379,139.073 C735.59,140.837 736.574,142.756 738.186,145.494 C731.71,145.134 726.38,144.836 720.71,144.52 C721.112,137.846 721.49,131.568 721.928,124.313 C718.233,126.285 718.446,128.739 718.169,130.996 C716.913,141.199 715.625,151.398 714.35,161.599 C713.1,171.601 711.933,181.614 710.534,191.595 C710.245,193.656 709.488,195.883 708.278,197.545 C701.983,206.19 695.473,214.676 689.038,223.218 C688.455,223.992 687.88,224.771 686.945,226.024" id="Fill-6" fill="#FFFFFF"></path>
            <path d="M661.482,469.125 C655.571,454.815 649.811,440.512 648.816,424.665 C647.979,411.353 647.065,398.103 647.659,384.737 C648.566,364.326 651.207,344.167 655.364,324.196 C660.192,300.992 667.925,278.737 676.651,256.712 C683.752,238.789 694.115,223.087 705.759,208.026 C707.361,205.956 709.198,204.068 711.467,202.346 C711.247,202.939 711.113,203.583 710.795,204.117 C697.963,225.614 689.237,248.871 681.951,272.668 C671.822,305.747 664.537,339.485 660.783,373.892 C659.123,389.109 657.6,404.451 657.723,419.723 C657.857,436.162 657.955,452.761 661.482,469.125" id="Fill-7" fill="#FFFFFF"></path>
            <path d="M3.2152,762.293 C4.7202,761.16 6.1392,759.883 7.7442,758.916 C43.2532,737.518 78.7932,716.171 114.305,694.779 C212.011,635.923 309.689,577.017 407.417,518.196 C463.038,484.718 518.737,451.37 574.4,417.96 C577.521,416.087 580.61,414.159 583.757,412.33 C584.32,412.003 585.095,412.042 585.647,411.936 C585.949,412.533 586.067,412.701 586.118,412.887 C586.165,413.061 586.212,413.375 586.134,413.421 C392.718,530.1 199.291,646.763 5.8442,763.392 C5.4222,763.647 4.7112,763.424 4.1342,763.424 C3.8282,763.047 3.5222,762.67 3.2152,762.293" id="Fill-8" fill="#FFFFFF"></path>
            <path d="M641.663,382.733 C638.142,379.379 635.814,376.631 635.647,372.813 C634.929,356.455 634.737,340.06 639.101,324.124 C641.918,313.839 645.059,303.561 651.113,294.168 C644.59,285.47 635.06,279.738 627.467,271.304 C630.406,269.244 633.013,267.424 635.611,265.593 C637.43,264.313 639.625,263.335 640.98,261.673 C646.682,254.684 654.651,253.066 662.869,251.812 C666.419,251.271 669.944,250.569 674.22,249.81 C655.017,292.238 644.658,336.105 641.663,382.733" id="Fill-9" fill="#FFFFFF"></path>
            <path d="M586.046,263.449 C584.096,268.9 581.934,274.943 579.525,281.676 C574.738,278.22 570.363,279.896 566.088,281.376 C548.335,287.522 530.617,293.771 512.891,299.995 C511.939,300.329 510.97,300.679 510.103,301.183 C507.317,302.803 506.887,304.669 509.158,306.992 C511.836,309.732 514.777,312.225 517.715,314.694 C532.107,326.785 546.521,338.849 560.966,350.878 C563.168,352.712 565.685,354.246 564.315,358.313 C556.288,352.027 548.243,346.047 540.564,339.631 C530.796,331.469 521.476,322.766 511.639,314.691 C508.178,311.85 503.761,310.174 498.967,307.514 C499.703,304.54 500.599,300.921 501.48,297.362 C514.328,297.129 525.207,291.596 536.515,287.625 C546.997,283.945 557.444,280.165 567.853,276.281 C571.495,274.922 574.964,273.487 578.38,277.229 L579.212,276.193 C578.39,274.827 577.764,273.283 576.713,272.123 C567.76,262.237 558.727,252.422 549.723,242.58 C548.222,240.94 546.811,239.212 545.238,237.645 C544.167,236.578 542.888,235.72 541.47,234.584 C537.601,243.378 533.987,251.591 530.231,260.127 C531.999,260.72 533.08,261.332 534.201,261.418 C543.465,262.131 552.733,262.846 562.011,263.323 C564.45,263.448 566.353,263.713 567.35,267.292 C553.101,266.579 539.226,265.885 524.691,265.157 C529.817,253.534 534.509,242.895 539.406,231.793 C545.439,231.555 551.297,232.977 557.117,234.284 C558.493,234.593 559.64,236.205 560.756,237.351 C568.927,245.744 577.064,254.17 586.046,263.449" id="Fill-10" fill="#FFFFFF"></path>
            <path d="M598.345,338.737 C589.014,337.117 580.347,335.613 571.126,334.013 C573.638,322.076 575.991,310.894 578.407,299.408 C587.483,299.422 596.024,300.325 604.449,302.239 C607.234,302.872 608.686,305.107 607.949,307.553 C604.884,317.748 601.694,327.906 598.345,338.737" id="Fill-11" fill="#FFFFFF"></path>
            <path d="M713.65,298.587 C714.383,297.451 715.116,296.315 716.343,294.413 C720.211,298.515 723.937,302.082 727.215,306.023 C735.457,315.929 743.469,326.024 751.635,335.992 C753.143,337.833 753.894,339.67 753.295,342.069 C752.528,345.14 751.944,348.255 751.041,352.479 C735.944,339.457 721.57,327.058 707.34,314.783 C709.499,309.178 711.435,304.148 713.372,299.118 L713.65,298.587 Z" id="Fill-12" fill="#FFFFFF"></path>
            <path d="M621.097,269.284 C617.145,278.506 613.591,286.797 610.045,295.072 C600.11,294.195 590.578,293.353 580.465,292.46 C584.037,283.185 587.475,274.259 591.064,264.94 C601.119,266.395 610.787,267.793 621.097,269.284" id="Fill-13" fill="#FFFFFF"></path>
            <path d="M616.646,438.022 C624.302,431.236 631.714,424.235 643.406,429.036 C645.274,437.893 647.126,446.674 649.082,455.943 C642.828,459.105 636.77,462.167 630.399,465.388 C629.253,464.135 628.002,463.128 627.212,461.839 C623.762,456.207 620.391,450.563 619.615,443.735 C619.411,441.946 617.879,440.308 616.646,438.022" id="Fill-14" fill="#FFFFFF"></path>
            <path d="M510.199,303.343 C518.716,300.402 526.211,297.815 534.426,294.978 C533.156,298.462 532.047,300.998 531.308,303.637 C530.032,308.199 530.959,310.568 535.454,311.322 C540.067,312.095 542.979,314.845 545.927,317.794 C549.778,321.646 553.502,325.63 557.178,329.652 C559.081,331.733 560.762,334.017 562.543,336.21 L563.557,335.478 L563.557,350.122 C545.108,335.114 528.103,319.517 510.199,303.343" id="Fill-15" fill="#FFFFFF"></path>
            <path d="M567.83,340.415 C579.37,342.945 589.472,345.159 599.889,347.442 C600.384,350.802 600.872,354.115 601.317,357.138 C596.124,359.921 591.09,362.619 586.019,365.336 L586.019,377 C582.642,376.376 579.404,375.778 576.062,375.161 C573.382,363.849 570.794,352.928 567.83,340.415" id="Fill-16" fill="#FFFFFF"></path>
            <path d="M653.319,245.611 C664.912,228.364 675.756,212.231 686.6,196.098 C686.874,196.239 687.148,196.38 687.423,196.521 C685.989,206.796 684.514,217.065 683.144,227.348 C682.64,231.128 682.783,235.084 680.306,238.285 C679.384,239.476 678.107,240.896 676.771,241.181 C669.329,242.77 661.82,244.043 653.319,245.611" id="Fill-17" fill="#FFFFFF"></path>
            <path d="M665.049,36.972 C665.152,34.053 663.688,32.474 660.831,32.425 C657.673,32.37 654.811,34.555 654.816991,37.017 C654.822,39.642 657.523,42.063 660.494,42.107 C663.243,42.147 664.935,40.241 665.049,36.972 M672.182,37.876 C672.445,46.88 668.331,51.644 660.111,51.852 C651.656,52.067 645.648,47.012 645.322,39.41 C645.007,32.062 651.847,24.779 659.223,24.609 C667.125,24.426 671.932,29.347 672.182,37.876" id="Fill-18" fill="#FFFFFF"></path>
            <path d="M670.505,427.038 C671.039,415.58 672.597,404.843 675.187,394.267 C678.111,382.324 680.989,370.358 684.412,358.555 C685.551,354.626 688.311,351.168 690.806,347.656 C686.182,359.764 683.13,372.269 680.393,384.855 C677.623,397.582 672.979,409.96 672.745,424.367 C703.142,407.89 733.003,392.344 764.944,378.205 C760.7,383.279 680.073,424.612 670.505,427.038" id="Fill-19" fill="#FFFFFF"></path>
            <path d="M705.19,29.171 C696.108,28.175 687.238,27.202 678.064,26.196 C678.492,22.154 678.865,18.629 679.276,14.744 C682.979,15.684 686.56,17.004 689.751,13.428 C692.39,10.469 692.943,7.552 691.129,3.75 C697.152,2.657 702.031,5.417 704.733,9.5 C708.366,14.987 708.154,21.685 705.19,29.171" id="Fill-20" fill="#FFFFFF"></path>
            <path d="M773.822,383.696 C770.506,377.324 771.37,371.342 771.822,365.703 C772.83,353.153 776.139,341.064 781.447,329.611 C782.752,326.797 783.845,323.363 788.411,323.4056 C790.912,331.738 788.855,339.931 787.84,348.118 C779.545,348.417 776.451,350.395 776.109,355.282 C775.788,359.88 776.684,360.662 784.227,362.114 C782.077,369.63 780.161,377.151 773.822,383.696" id="Fill-21" fill="#FFFFFF"></path>
            <path d="M603.338,417.886 C611.784,414.87 620.111,411.897 628.918,408.752 C633.814,413.389 638.554,418.38 643.18,423.834 C633.456,423.575 624.752,424.837 617.968,431.918 C612.245,427.952 604.669,426.541 603.338,417.886" id="Fill-22" fill="#FFFFFF"></path>
            <path d="M641.833,299.393 C637.989,311.929 634.398,323.639 630.664,335.82 C624.445,328.464 618.033,320.762 611.987,312.286 C622.187,307.879 631.914,303.678 641.833,299.393" id="Fill-23" fill="#FFFFFF"></path>
            <path d="M628.432,342.064 C621.023,347.169 614.287,351.81 607.507,356.481 C602.48,346.032 606.173,333.647 610.495,318.246 C616.539,326.272 622.289,333.908 628.432,342.064" id="Fill-24" fill="#FFFFFF"></path>
            <path d="M630.428,345.593 C630.974,354.598 631.643,362.613 631.889,370.641 C632.086,377.091 634.758,382.532 638.966,386.882 C641.488,389.487 642.028,391.736 641.236,395.255 C638.266,396.292 635.098,397.399 631.581,398.627 C629.616,396.475 627.742,394.423 625.669,392.153 C626.475,390.742 627.447,389.232 628.211,387.623 C628.615,386.777 629.149,385.454 628.784,384.867 C625.885,380.2 627.564,374.963 626.767,370.051 C626.053,365.652 623.862,362.772 619.51,361.718 C618.534,361.482 617.512,361.448 616.527,361.245 C615.574,361.049 614.643,360.754 612.666,360.225 C616.235,357.402 619.153,355.167 621.988,352.831 C624.735,350.568 627.395,348.202 630.428,345.593" id="Fill-25" fill="#FFFFFF"></path>
            <path d="M643.135,293.943 C633.201,297.857 623.736,301.586 614.286,305.309 C613.56,300.892 618.264,287.68 625.062,275.571 C630.936,281.88 638.158,286.546 643.135,293.943" id="Fill-26" fill="#FFFFFF"></path>
            <path d="M534.17,308.23 C534.699,304.39 535.09,301.553 535.349,299.67 C540.171,298.723 544.074,298.33 547.733,297.166 C556.949,294.231 566.056,290.949 575.537,287.693 C575.634,290.865 574.661,292.837 571.064,293.935 C563.34,296.292 555.773,299.166 548.158,301.876 C546.69,302.398 545.297,303.137 543.018,304.158 C544.367,305.98 545.226,307.434 546.363,308.623 C551.532,314.024 556.776,319.355 562.002,324.703 C563.451,326.186 564.809,327.665 562.686,330.272 C560.965,328.547 559.305,326.879 557.641,325.214 C553.785,321.357 549.862,317.563 546.092,313.625 C543.122,310.524 540.199,307.499 534.17,308.23" id="Fill-27" fill="#FFFFFF"></path>
            <path d="M640.3,255.058 C635.42,259.201 630.44,261.218 625.675,263.582 C625.363,263.737 624.902,263.643 624.52,263.592 C616.277,262.501 608.035,261.399 598.753,260.161 C604.176,256.5 608.904,253.261 613.703,250.127 C614.295,249.74 615.297,249.706 616.036,249.861 C623.832,251.487 631.613,253.185 640.3,255.058" id="Fill-28" fill="#FFFFFF"></path>
            <path d="M561.43,466.166 C559.858,465.003 558.576,464.056 557.173,463.018 C557.454,462.514 557.6,461.804 558.007,461.589 C567.983,456.334 577.985,451.129 587.985,445.921 C593.512,443.042 599.045,440.174 604.797,437.186 C606.609,437.953 608.635,438.811 611.572,440.054 C594.545,448.92 578.205,457.43 561.43,466.166" id="Fill-29" fill="#FFFFFF"></path>
            <path d="M565.746,321.496 C560.059,315.846 554.655,310.478 548.973,304.832 C556.228,301.933 563.892,298.871 572.821,295.302 C570.234,304.877 567.932,313.403 565.746,321.496" id="Fill-30" fill="#FFFFFF"></path>
            <path d="M534.557,258.162 C537.175,251.843 539.634,245.904 542.389,239.255 C548.895,245.996 555.097,252.423 561.299,258.849 C561.161,259.254 561.022,259.658 560.883,260.062 C552.212,259.79 543.537,259.63 534.557,258.162" id="Fill-31" fill="#FFFFFF"></path>
            <path d="M614.136,437.041 C612.428,436.31 610.557,435.818 609.047,434.795 C606.198,432.864 604.213,432.962 601.061,435.076 C594.995,439.144 588.203,442.129 581.712,445.563 C581.511,445.195 581.31,444.828 581.11,444.46 C588.264,440.317 595.418,436.175 602,432.364 C594.428,415.157 584.123,400.248 578.269,383.219 C578.659,382.98 579.05,382.742 579.441,382.503 C580.275,383.473 581.341,384.323 581.907,385.429 C586.122,393.681 590.043,402.089 594.45,410.235 C597.894,416.603 601.818,422.719 605.73,428.817 C606.537,430.074 608.214,430.792 609.532,431.698 C611.293,432.908 613.096,434.059 614.88,435.235 C614.632,435.837 614.384,436.439 614.136,437.041" id="Fill-32" fill="#FFFFFF"></path>
            <path d="M683.204,42.653 C682.822,40.654 682.422,38.557 681.93,35.981 C686.941,36.687 690.77,38.853 694.47,41.126 C695.372,41.681 696.032,43.572 695.886,44.733 C695.11,50.881 694.043,56.99 693.038,63.355 C690.425,63.355 688.64,63.204 686.892,63.397 C685.15,63.589 683.266,63.781 681.756,64.57 C675.016,68.091 671.376,67.299 666.291,60.847 C668.683,59.815 671.07,58.785 673.429,57.768 C680.056,62.793 683.35,63.181 688.807,60.005 C692.409,57.908 691.902,54.707 691.505,51.483 C690.787,45.667 689.587,44.396 683.204,42.653" id="Fill-33" fill="#FFFFFF"></path>
            <path d="M611.561,399.628 C612.987,398.748 614.994,397.508 617.408,396.017 C619.106,397.799 620.68,399.45 623.045,401.933 C614.276,404.73 606.54,407.196 598.784,409.67 C595.748,404.267 592.845,399.103 589.285,392.768 C597.358,395.254 604.164,397.35 611.561,399.628" id="Fill-34" fill="#FFFFFF"></path>
            <path d="M513.158,522.794 C517.375,525.031 520.914,526.909 525.118,529.14 C521.908,535.044 518.784,540.79 515.57,546.701 C509.892,546.789 506.075,544.108 502.797,539.206 C509.397,537.023 516.086,535.888 522.203,530.765 C515.43,529.945 511.324,534.134 505.31,535.008 C508.063,530.725 510.459,526.994 513.158,522.794" id="Fill-35" fill="#FFFFFF"></path>
            <path d="M645.529,246.998 C660.102,225.444 674.617,203.977 689.133,182.509 L690.266,182.964 C690.052,184.447 690.096,186.031 689.562,187.387 C688.835,189.232 687.799,190.995 686.667,192.636 C675.091,209.41 663.528,226.193 651.787,242.852 C650.393,244.828 649.453,248.458 645.529,246.998" id="Fill-36" fill="#FFFFFF"></path>
            <path d="M565.089,365.439 C559.468,363.476 553.841,361.529 548.228,359.544 C538.752,356.194 529.289,352.804 519.81,349.462 C516.608,348.334 513.451,346.985 509.917,348.559 C509.222,348.869 508.048,348.105 506.233,347.592 C507.151,345.185 507.981,343.008 508.602,341.378 C516.601,344.27 523.76,346.784 530.864,349.444 C541.6,353.465 552.308,357.559 562.995,361.708 C564.13,362.148 565.043,363.159 566.06,363.904 C565.736,364.416 565.412,364.928 565.089,365.439" id="Fill-37" fill="#FFFFFF"></path>
            <path d="M499.07,537.053 C499.713,542.743 502.883,546.81 507.824,549.205 C510.252,550.381 513.16,550.854 515.89,551.032 C518.624,551.21 520.074,552.194 520.121,554.907 C520.166,557.581 518.711,559.052 516.077,559.16 C514.687,559.217 513.224,559.147 511.894,558.778 C504.581,556.748 498.932,552.329 495,545.949 C492.138,541.305 493.159,539.352 499.07,537.053" id="Fill-38" fill="#FFFFFF"></path>
            <path d="M503.392,492.631 C511.254,493.543 518.087,492.491 525.121,495.254 C521.299,501.736 517.775,507.714 514.105,513.939 C510.893,507.55 507.485,500.771 503.392,492.631" id="Fill-39" fill="#FFFFFF"></path>
            <path d="M747.148,61.676 C752.575,71.932 749.289,84.749 740.771,93.336 C737.237,90.632 738.877,86.754 738.995,83.651 C739.288,75.832 741.17,68.398 747.148,61.676" id="Fill-40" fill="#FFFFFF"></path>
            <path d="M763.213,368.539 C757.908,366.159 684.661,303.687 680.831,297.561 C682.136,298.419 683.551,299.148 684.729,300.156 C699.768,313.018 714.796,325.893 729.776,338.824 C740.168,347.793 750.484,356.848 760.818,365.884 C761.498,366.477 762.041,367.228 763.213,368.539" id="Fill-41" fill="#FFFFFF"></path>
            <path d="M722.488,295.231 C725.76,296.084 728.559,297.671 730.822,300.394 C741.378,313.101 752.032,325.727 762.545,338.469 C763.875,340.081 766.71,341.778 763.266,345.043 C749.655,328.416 736.109,311.87 722.488,295.231" id="Fill-42" fill="#FFFFFF"></path>
            <path d="M725.138,118.722 C731.439,119.105 737.032,119.444 742.371,119.769 C741.707,127.004 741.088,133.755 740.439,140.829 C735.431,133.593 730.562,126.558 725.138,118.722" id="Fill-43" fill="#FFFFFF"></path>
            <path d="M765.999,338.013 C761.615,334.836 759.782,331.175 761.513,325.967 C762.445,323.161 762.631,320.108 763.255,316.598 C767.678,318.87 771.738,320.956 776.163,323.229 C774.243,325.843 772.429,328.193 770.748,330.634 C769.157,332.944 767.705,335.348 765.999,338.013" id="Fill-44" fill="#FFFFFF"></path>
            <path d="M606.305,390.485 C593.235,387.563 592.102,386.179 592.007,373.292 C596.331,374.262 600.494,375.195 605.184,376.247 C605.556,380.975 605.91,385.479 606.305,390.485" id="Fill-45" fill="#FFFFFF"></path>
            <path d="M560.694,471.648 C560.32,472.405 560.134,473.594 559.543,473.852 C553.505,476.486 547.405,478.982 541.303,481.468 C540.824,481.663 540.195,481.494 539.051,481.494 C542.803,475.237 546.352,469.318 549.891,463.418 C553.434,466.121 557.137,468.946 560.84,471.771 L560.694,471.648 Z" id="Fill-46" fill="#FFFFFF"></path>
            <path d="M678.96,30.336 C687.564,30.716 696.167,31.096 705.295,31.5 C706.265,34.023 707.305,36.73 708.629,40.177 C703.102,40.169 698.153,40.547 693.339,38.08 C688.925,35.817 684.305,33.96 679.783,31.906 C679.24,31.659 678.748,31.3 678.232,30.993 C678.475,30.774 678.717,30.555 678.96,30.336" id="Fill-47" fill="#FFFFFF"></path>
            <path d="M737.983,303.227 C744.511,306.543 751.041,309.859 757.979,313.383 C757.454,317.35 756.939,321.227 756.278,326.216 C748.765,319.056 743.52,311.157 737.245,304.169 C737.491,303.855 737.737,303.541 737.983,303.227" id="Fill-48" fill="#FFFFFF"></path>
            <path d="M569.351,474.4 C559.171,492.998 549.194,511.713 537.223,529.366 C536.361,527.283 537.293,525.746 538.224,524.167 C540.684,519.995 542.536,515.307 545.66,511.722 C550.12,506.604 551.497,500.072 554.955,494.553 C558.382,489.081 561.507,483.42 564.858,477.899 C565.798,476.35 567.067,475.001 568.185,473.56 C568.574,473.84 568.962,474.12 569.351,474.4" id="Fill-49" fill="#FFFFFF"></path>
            <path d="M575.16,284.929 C564.774,288.599 554.402,292.399 543.913,295.841 C542.106,296.434 539.801,295.508 537.657,294.14 C539.229,293.449 540.767,292.66 542.38,292.079993 C551.66,288.746 560.972,285.501 570.24,282.133 C572.667,281.252 574.563,280.953 575.16,284.929" id="Fill-50" fill="#FFFFFF"></path>
            <path d="M620.481,386.107 C618.444,387.36 615.913,388.916 612.998,390.708 C610.553,386.611 611.243,382.111 610.49,377.983 C610.324,377.071 611.799,375.576 612.848,374.787 C615.064,373.12 617.497,371.743 620.481,369.837 L620.481,386.107 Z" id="Fill-51" fill="#FFFFFF"></path>
            <path d="M560.841,471.771 C562.823,470.198 564.619,468.272 566.82,467.11 C581.273,459.472 595.795,451.964 610.35,444.521 C611.966,443.695 613.603,441.768 616.22,443.737 C615.354,444.554 614.696,445.514 613.786,445.981 C597.272,454.47 580.737,462.919 564.163,471.294 C563.201,471.78 561.886,471.569 560.714,471.665 C560.695,471.648 560.841,471.771 560.841,471.771" id="Fill-52" fill="#FFFFFF"></path>
            <path d="M717.289,286.753 C739.549,298.001 761.81,309.248 784.508,320.717 C780.943,320.766 780.111,320.682 777.712,319.481 C757.831,309.538 737.963,299.571 718.106,289.581 C717.435,289.243 716.921,288.591 716.333,288.086 C716.651,287.642 716.971,287.197 717.289,286.753" id="Fill-53" fill="#FFFFFF"></path>
            <path d="M516.482,514.975 C524.529,511.424 531.151,508.502 537.773,505.58 C538.031,505.858 538.29,506.136 538.548,506.413 C535.52,511.475 532.491,516.537 529.341,521.802 C525.249,519.63 521.566,517.674 516.482,514.975" id="Fill-54" fill="#FFFFFF"></path>
            <path d="M544.967,495.747 C541.002,493.334 537.663,491.303 534.395,489.314 C534.842,488.329 534.907,487.789 535.175,487.655 C541.407,484.55 547.662,481.488 554.824,477.971 C552.277,484.722 548.479,489.717 544.967,495.747" id="Fill-55" fill="#FFFFFF"></path>
            <path d="M728.738,48.442 C723.156,47.409 717.574,46.376 711.406,45.234 C712.462,40.837 713.416,36.864 714.015,34.365 C718.895,38.521 724.054,42.913 729.214,47.306 C729.055,47.685 728.897,48.063 728.738,48.442" id="Fill-56" fill="#FFFFFF"></path>
            <path d="M753.725,364.752 C757.816,368.376 761.015,371.211 764.532,374.327 C760,378.598 755.091,380 749.341,382.015 C750.836,376.127 752.139,370.996 753.725,364.752" id="Fill-57" fill="#FFFFFF"></path>
            <path d="M766.963,368.877 C765.607,354.357 766.154,341.34 776.517,330.432 C773.339,343.222 770.259,355.616 766.963,368.877" id="Fill-58" fill="#FFFFFF"></path>
            <path d="M780.028,351.589 C788.839,353.818 797.422,353.479 806.141,356.255 C801.424,359.35 798.544,359.457 780.028,357.663 L780.028,351.589 Z" id="Fill-59" fill="#FFFFFF"></path>
            <path d="M676.996,35.586 C681.515,42.141 680.923,45.964 675.138,52.208 C669.544,58.245 661.786,59.731 655.22,56.143 C660.296,54.647 665.902,53.883 670.582,51.383 C676.028,48.476 677.056,42.494 676.996,35.586" id="Fill-60" fill="#FFFFFF"></path>
            <path d="M694.573,331.609 L694.573,335.826 C686.961,336.596 679.564,334.953 672.102,334.629 C672.503,329.996 672.816,329.548 676.878,329.852 C682.653,330.284 688.409,330.984 694.573,331.609" id="Fill-61" fill="#FFFFFF"></path>
            <path d="M578.148,440.953 C582.629,435.399 587.11,429.845 592.027,423.751 C593.827,426.566 595.283,428.842 597.113,431.704 C590.85,435.292 584.913,438.694 578.975,442.095 C578.7,441.714 578.424,441.334 578.148,440.953" id="Fill-62" fill="#FFFFFF"></path>
            <path d="M716.803,30.283 L731.936,30.283 C730.799,34.311 729.649,38.384 728.26,43.304 C724.656,39.208 721.203,35.284 716.803,30.283" id="Fill-63" fill="#FFFFFF"></path>
            <path d="M751.033,146.008 C749.025,136.293 749.799,126.807 753.478,117.567 C754.821,127.197 754.247,136.694 751.033,146.008" id="Fill-64" fill="#FFFFFF"></path>
            <path d="M714.092,287.33 C712.993,288.64 712.125,290.299 710.757,291.197 C705.524,294.631 700.068,297.726 694.826,301.148 C692.807,302.466 691.502,302.193 689.961,299.751 C697.054,294.342 705.064,290.4 712.845,286.076 C713.261,286.494 713.676,286.912 714.092,287.33" id="Fill-65" fill="#FFFFFF"></path>
            <path d="M520.88,490.452 C514.406,491.794 507.612,488.29 500.819,491.001 C502.345,499.328 507.384,505.804 509.634,513.374 C506.054,512.114 505.986,508.66 504.715,506.026 C503.401,503.304 502.216,500.507 501.161,497.674 C500.079,494.769 497.03,492.465 498.617,487.916 C505.853,488.235 513.316,488.564 520.777,488.893 C520.812,489.413 520.846,489.932 520.88,490.452" id="Fill-66" fill="#FFFFFF"></path>
            <path d="M526.755,488.113 C533.729,493.688 542.362,496.422 549.13,502.069 C548.974,502.516 548.819,502.963 548.665,503.409 C547.654,503.409 546.447,503.773 545.664,503.351 C539.672,500.127 533.745,496.782 527.839,493.402 C525.928,492.308 523.898,491.06 526.755,488.113" id="Fill-67" fill="#FFFFFF"></path>
            <path d="M694.877,304.588 C700.022,301.371 704.261,298.72 708.499,296.068 C708.764,296.248 709.027,296.428 709.292,296.608 C707.273,301.088 705.255,305.567 702.877,310.846 C700.179,308.735 697.799,306.874 694.877,304.588" id="Fill-68" fill="#FFFFFF"></path>
            <path d="M758.467,344.977 C764.079,350.059 763.246,348.331 762.214,361.45 C753.305,357.03 755.449,356.616 758.467,344.977" id="Fill-69" fill="#FFFFFF"></path>
            <path d="M565.881,448.061 C573.674,438.433 581.468,428.805 589.261,419.178 C589.675,419.429 590.089,419.681 590.503,419.933 C590.035,421.044 589.799,422.348 589.063,423.237 C584.695,428.51 580.186,433.664 575.779,438.906 C573.71,441.366 571.819,443.977 569.737,446.425 C568.881,447.431 567.734,448.19 566.719,449.061 C566.44,448.728 566.16,448.394 565.881,448.061" id="Fill-70" fill="#FFFFFF"></path>
            <path d="M599.848,412.891 C617.213,405.579 622.934,403.991 626.94,405.971 C618.16,409.072 610.054,411.961 601.905,414.723 C601.562,414.84 600.821,413.784 599.848,412.891" id="Fill-71" fill="#FFFFFF"></path>
            <path d="M741.433,61.778 C735.324,70.727 734.583,80.751 735.287,91.998 C729.409,83.472 733.485,64.521 741.433,61.778" id="Fill-72" fill="#FFFFFF"></path>
            <path d="M509.454,516.723 C513.308,516.829 530.045,524.246 531.957,526.421 C532.33,526.844 532.011,527.876 532.011,529.205 C523.889,526.098 516.383,522.912 509.454,516.723" id="Fill-73" fill="#FFFFFF"></path>
            <path d="M528.628,497.674 C532.005,499.237 534.69,500.48 538.483,502.236 C532.664,504.687 527.872,506.705 523.08,508.723 C522.819,508.434 522.559,508.145 522.298,507.856 C524.328,504.591 526.357,501.327 528.628,497.674" id="Fill-74" fill="#FFFFFF"></path>
            <path d="M594.718,366.707 C601.332,360.108 606.527,365.902 612.605,366.166 C610.256,369.235 608.192,370.26 605.068,369.224 C602.082,368.233 598.943,367.709 594.718,366.707" id="Fill-75" fill="#FFFFFF"></path>
            <path d="M745.729,143.51 C743.013,133.839 743.385,124.536 750.12,116.261 C749.069,120.785 747.773,125.27 747.034,129.844 C746.306,134.352 746.141,138.951 745.729,143.51" id="Fill-76" fill="#FFFFFF"></path>
            <path d="M739.372,43.472 C738.898,45.008 738.31,46.912 737.606,49.193 C736.429,48.826 734.85,48.671 734.779,48.26 C734.249,45.148 733.614,41.964 733.779,38.844 C734.049,33.722 736.209,31.017 739.185,30.956 C738.156,33.37 736.634,35.737 736.277,38.267 C736.091,39.595 737.949,41.21 739.372,43.472" id="Fill-77" fill="#FFFFFF"></path>
            <path d="M620.903,393.683 C624.878,395.686 640.499,411.639 642.492,416.167 C637.29,413.284 634.807,408.587 631.068,405.268 C627.253,401.881 623.629,398.279 619.922,394.77 C620.249,394.408 620.576,394.045 620.903,393.683" id="Fill-78" fill="#FFFFFF"></path>
            <path d="M533.217,523.333 C536.663,517.236 540.082,511.123 544.665,505.675 C545.158,509.811 542.19,512.392 540.425,515.446 C538.67,518.484 536.475,521.27 534.472,524.166 C534.054,523.888 533.635,523.611 533.217,523.333" id="Fill-79" fill="#FFFFFF"></path>
            <path d="M685.04,13.258 C683.83,11.655 682.195,10.208 681.535,8.404 C680.936,6.765 681.466,4.725 683.825,4.314 C685.959,3.941 688.642,5.879 688.472,7.912 C688.334,9.555 687.481,11.138 686.945,12.748 C686.311,12.918 685.676,13.088 685.04,13.258" id="Fill-80" fill="#FFFFFF"></path>
            <path d="M686.169,46.569 C689.11,50.122 690.217,55.605 688.024,57.715 C686.929,58.769 685.298,59.576 683.8,59.819 C682.213,60.075 680.496,59.529 678.579,59.303 C681.484,57.583 684.729,56.715 685.914,54.66 C687.083,52.631 686.169,49.401 686.169,46.569" id="Fill-81" fill="#FFFFFF"></path>
            <path d="M739.316,36.564 C745.434,35.74 751.308,37.211 757.211,38.417 C752.534,40.032 743.813,39.107 739.316,36.564" id="Fill-82" fill="#FFFFFF"></path>
            <path d="M713.65,298.587 L713.372,299.118 C711.767,300.505 710.164,301.892 708.466,303.359 C710.314,299.429 712.202,295.413 714.09,291.398 C714.451,291.49 714.811,291.582 715.171,291.675 C714.983,292.842 714.845,294.02 714.592,295.173 C714.338,296.324 713.969,297.45 713.65,298.587" id="Fill-83" fill="#FFFFFF"></path>
            <path d="M634.353,400.91 C636.541,400.044 638.729,399.178 641.292,398.163 C640.181,401.522 640.181,401.522 634.353,400.91" id="Fill-84" fill="#FFFFFF"></path>
            <path d="M677.949,54.152 C679.489,51.898 680.551,50.344 681.755,48.58 C683.552,53.657 683.326,54.039 677.949,54.152" id="Fill-85" fill="#FFFFFF"></path>
            <path d="M711.932,22.24 C711.214,25.546 710.497,28.851 709.508,33.407 C707.432,28.241 710.761,25.289 711.932,22.24" id="Fill-86" fill="#FFFFFF"></path>
            <path d="M696.145,316.839 C699.229,320.225 695.916,322.242 694.848,324.793 C695.281,322.142 695.712,319.49 696.145,316.839" id="Fill-87" fill="#FFFFFF"></path>
            <path d="M701.388,319.403 C702.28,323.97 699.574,325.927 698.267,328.411 C698.115,325.376 699.144,322.787 701.388,319.403" id="Fill-88" fill="#FFFFFF"></path>
            <path d="M677.96,306.758 C678.208,305.329 678.456,303.9 678.697,302.51 C679.516,302.51 680.035,302.356 680.225,302.54 C680.742,303.044 681.6,303.854 681.465,304.25 C681.021,305.55 680.196,306.72 679.519,307.94 C678.999,307.546 678.48,307.152 677.96,306.758" id="Fill-89" fill="#FFFFFF"></path>
            <path d="M699.138,331.67 L699.138,335.85 C698.737,335.884 698.336,335.918 697.936,335.952 C697.802,334.548 697.668,333.143 697.534,331.738 C698.069,331.716 698.603,331.693 699.138,331.67" id="Fill-90" fill="#FFFFFF"></path>
            <path d="M557.339,482.141 C558.309,480.514 559.277,478.886 560.845,476.252 C561.219,479.871 559.363,481.173 558.381,482.864 C558.034,482.623 557.687,482.382 557.339,482.141" id="Fill-91" fill="#FFFFFF"></path>
            <path d="M641.389,404.054 L641.389,408.889 C640.056,407.817 639.106,407.053 637.826,406.023 C638.946,405.405 639.739,404.967 641.389,404.054" id="Fill-92" fill="#FFFFFF"></path>
            <path d="M704.066,312.369 C704.781,310.827 705.495,309.285 706.21,307.743 C706.497,307.869 706.784,307.995 707.071,308.121 C706.401,309.685 705.731,311.249 705.062,312.812 C704.73,312.665 704.398,312.517 704.066,312.369" id="Fill-93" fill="#FFFFFF"></path>
            <path d="M587.04,388.219 C586.549,387.121 586.057,386.024 585.565,384.926 C586.001,384.767 586.436,384.609 586.871,384.45 C587.207,385.607 587.542,386.764 587.877,387.922 C587.598,388.021 587.319,388.12 587.04,388.219" id="Fill-94" fill="#FFFFFF"></path>
            <path d="M654.921,523.123 C654.102,521.082 653.283,519.041 652.465,517 C652.464,517 652.32,517.15 652.32,517.15 C653.134,519.174 653.946,521.198 654.759,523.222 L654.921,523.123 Z" id="Fill-95" fill="#FFFFFF"></path>
            <path d="M775.887,831.2828 C776.501,829.3868 776.919,828.0948 777.008,827.8198 C780.77,826.5338 783.766,825.5108 786.78,824.4798 C786.357,818.8008 781.659,814.4758 784.9,807.6268 C787.277,813.5698 789.354,818.2358 790.918,823.0678 C791.278,824.1788 790.264,826.3328 789.215,827.1938 C785.609,830.1518 781.649,832.5658 775.887,831.2828" id="Fill-96" fill="#000000"></path>
            <path d="M774.214,826.0684 C770.258,815.9914 766.402,806.1694 762.17,795.3914 C765.668,796.5074 767.422,797.7804 768.377,800.4514 C770.536,806.4924 772.871,812.4724 775.247,818.4324 C776.283,821.0324 776.599,823.4254 774.214,826.0684" id="Fill-97" fill="#000000"></path>
            <path d="M743.939,744.897 C745.316,746.176 747.192,747.21 747.97,748.785 C749.749,752.386 751.112,756.212 752.352,760.042 C752.618,760.86 751.647,762.08 751.245,763.115 C750.7,763.109 750.154,763.104 749.608,763.098 L742.779,745.725 C743.166,745.449 743.552,745.173 743.939,744.897" id="Fill-98" fill="#000000"></path>
            <path d="M758.31,785.1368 C755.625,778.4898 753.348,772.8518 750.951,766.9158 C752.055,766.2728 752.996,765.7248 754.472,764.8658 C756.236,771.4318 761.2,776.6978 758.31,785.1368" id="Fill-99" fill="#000000"></path>
            <path d="M776.059,783.4263 C773.015,783.5203 770.696,782.9263 769.865,779.2853 C769.202,776.3763 767.465,773.7263 766.626,770.8383 C766.062,768.8913 766.231,766.7313 766.073,764.6663 C766.553,764.5493 767.034,764.4313 767.515,764.3143 C768.852,767.4583 770.146,770.6203 771.537,773.7393 C772.986,776.9893 774.527,780.1973 776.028,783.4223 L776.059,783.4263 Z" id="Fill-100" fill="#000000"></path>
            <path d="M718.778,641.56 C721.15,647.593 723.521,653.625 725.892,659.658 C725.548,659.889 725.203,660.119 724.858,660.349 C723.697,659.168 722.144,658.181 721.45,656.77 C719.518,652.845 717.829,648.785 716.318,644.678 C716.004,643.823 716.868,642.534 717.188,641.444 C717.718,641.483 718.248,641.521 718.778,641.56" id="Fill-101" fill="#000000"></path>
            <path d="M683.374,594.643 C681.197,588.238 679.009,581.836 676.911,575.405 C676.856,575.235 677.79,574.743 678.952,573.902 C681.278,580.866 685.311,586.897 685.265,594.244 C684.635,594.377 684.004,594.51 683.374,594.643" id="Fill-102" fill="#000000"></path>
            <path d="M738.845,735.426 C736.641,729.839 734.437,724.252 732.057,718.218 C733.384,717.947 734.934,717.441 735.03,717.639 C736.857,721.416 738.784,725.187 740.085,729.158 C740.688,730.995 740.002,733.255 739.9,735.323 C739.548,735.357 739.197,735.392 738.845,735.426" id="Fill-103" fill="#000000"></path>
            <path d="M731.437,716.367 C728.799,709.66 726.775,704.514 724.751,699.368 C725.041,699.077 725.329,698.787 725.618,698.496 C726.84,699.484 728.553,700.228 729.19,701.508 C730.883,704.913 732.24,708.508 733.423,712.127 C733.666,712.867 732.573,714.044 731.437,716.367" id="Fill-104" fill="#000000"></path>
            <path d="M713.531,670.129 C711.208,664.317 708.885,658.506 706.301,652.04 C710.411,653.875 710.633,653.8 712.847,660.35 C713.855,663.332 716.701,666.083 715.219,669.651 C714.657,669.81 714.093,669.969 713.531,670.129" id="Fill-105" fill="#000000"></path>
            <path d="M691.253,573.856 C694.254,579.16 696.583,584.653 698.447,591.166 C693.104,588.053 689.92,580.233 691.253,573.856" id="Fill-106" fill="#000000"></path>
            <path d="M679.525,545.374 C678.735,545.059 677.575,544.975 677.213,544.393 C674.434,539.927 672.215,530.92 673.15,526.705 C675.046,529.938 675.95,532.805 677.022,535.589 C678.158,538.535 679.327,541.468 680.482,544.407 C680.163,544.729 679.843,545.052 679.525,545.374" id="Fill-107" fill="#000000"></path>
            <path d="M660.641,538.634 C660.343,537.132 659.866,535.637 659.809,534.126 C659.773,533.137 660.347,532.127 660.743,530.813 C665.128,536.041 667.327,542.818 666.651,549.48 C664.361,545.392 662.425,541.936 660.479,538.469 C660.468,538.459 660.641,538.634 660.641,538.634" id="Fill-108" fill="#000000"></path>
            <path d="M695.892,623.047 C700.317,626.422 703.282,634.881 702.805,642.075 C699.42,635.183 697.262,629.244 695.892,623.047" id="Fill-109" fill="#000000"></path>
            <path d="M715.479,638.936 C714.69,637.807 713.592,636.784 713.166,635.532 C711.517,630.678 707.99,626.296 709.338,620.591 C712.965,625.919 714.888,631.926 717.139,637.793 C716.586,638.174 716.033,638.555 715.479,638.936" id="Fill-110" fill="#000000"></path>
            <path d="M647.358,504.814 C646.031,500.479 644.706,496.143 643.376,491.809 C642.89,490.227 641.381,488.692 643.085,486.938 C647.071,490.531 650.433,500.598 649.527,506.056 C648.745,505.587 647.962,505.119 647.171,504.645 C647.163,504.639 647.358,504.814 647.358,504.814" id="Fill-111" fill="#000000"></path>
            <path d="M687.118,602.633 C690.54,602.563 690.955,604.945 691.797,606.878 C695.47,615.318 695.754,616.47 694.635,620.638 C690.971,614.522 689.109,608.684 687.118,602.633" id="Fill-112" fill="#000000"></path>
            <path d="M674.766,572.044 C672.567,566.479 670.574,561.434 668.515,556.225 C672.699,557.406 675.685,562.008 677.157,569.286 C677.26,569.799 677.204,570.502 676.917,570.895 C676.62,571.303 675.953,571.442 674.766,572.044" id="Fill-113" fill="#000000"></path>
            <path d="M657.315,485.719 C659.602,491.476 661.888,497.234 664.479,503.756 C662.788,503.528 661.575,503.616 661.467,503.313 C659.463,497.661 655.205,492.636 656.07,486.168 C656.485,486.018 656.9,485.868 657.315,485.719" id="Fill-114" fill="#000000"></path>
            <path d="M716.713,672.825 C719.95,677.807 722.932,682.855 722.678,689.761 C718.916,686.006 715.658,677.391 716.713,672.825" id="Fill-115" fill="#000000"></path>
            <path d="M762.477,751.0376 C756.049,749.0326 756.206,743.1686 754.053,738.7166 C753.782,738.1556 754.823,736.9596 755.876,734.763 C758.414,741.0186 760.446,746.0276 762.477,751.0376" id="Fill-116" fill="#000000"></path>
            <path d="M743.746,704.235 C737.129,701.695 737.601,695.229 733.979,689.283 C736.39,689.952 737.951,689.95 738.205,690.526 C740.193,695.033 741.931,699.651 743.746,704.235" id="Fill-117" fill="#000000"></path>
            <path d="M748.948,717.174 C750.834,721.896 752.72,726.617 754.857,731.967 C753.258,731.967 751.544,732.27 751.399,731.922 C749.482,727.295 745.752,723.067 748.948,717.174" id="Fill-118" fill="#000000"></path>
            <path d="M776.028,783.4224 C777.77,788.6814 779.513,793.9404 781.276,799.2604 C776.605,798.4374 775.867,797.3174 773.28,787.2804 C774.188,786.0154 775.117,784.7224 776.052,783.4274 C776.059,783.4264 776.028,783.4224 776.028,783.4224" id="Fill-119" fill="#000000"></path>
            <path d="M705.646,609.516 C700.43,606.298 697.689,600.38 698.299,594.596 C701.042,596.01 702.333,598.571 705.646,609.516" id="Fill-120" fill="#000000"></path>
            <path d="M654.759,523.222 C653.947,521.198 653.134,519.174 652.321,517.15 C652.427,515.977 652.533,514.805 652.699,512.971 C654.086,514.194 655.463,514.877 655.986,515.969 C657.548,519.233 658.917,522.613 660.03,526.055 C660.284,526.842 659.206,528.059 658.52,529.567 C656.925,526.877 655.842,525.05 654.759,523.222" id="Fill-121" fill="#000000"></path>
            <path d="M736.147,685.54 C734.901,685.658 733.322,686.03 733.219,685.785 C731.303,681.19 727.63,676.987 729.677,670.551 C732.828,675.512 734.183,680.415 736.147,685.54" id="Fill-122" fill="#000000"></path>
            <path d="M679.585,548.826 C683.167,550.099 683.167,550.099 687.219,562.06 C682.739,560.91 680.966,557.941 679.585,548.826" id="Fill-123" fill="#000000"></path>
            <path d="M669.636,517.05 C664.94,514.882 663.27,511.221 664.539,506.094 C667.443,509.388 668.014,513.105 669.636,517.05" id="Fill-124" fill="#000000"></path>
            <path d="M640.531,484.081 C639.242,480.708 637.953,477.335 636.394,473.257 C641.029,475.526 642.698,479.544 640.531,484.081" id="Fill-125" fill="#000000"></path>
            <path d="M706.444,339.133 C703.025,336.939 702.929,333.886 703.426,330.911 C703.582,329.978 705.205,328.692 706.195,328.657 C707.281,328.619 709.219,329.689 709.377,330.538 C709.95,333.635 710.398,336.998 706.444,339.133" id="Fill-126" fill="#000000"></path>
            <path d="M699.258,174.387 C698.591,170.934 700.298,167.064 706.161,159.244 C708.273,156.429 709.322,152.232 715.083,151.325 C710.649,160.373 704.935,167.311 699.258,174.387" id="Fill-127" fill="#000000"></path>
            <path d="M691.349,207.79 C696.827,199.607 702.304,191.424 708.044,182.849 C709.288,188.824 698.996,204.761 691.349,207.79" id="Fill-128" fill="#000000"></path>
            <path d="M728.451,65.754 C725.794,73.104 718.99,76.828 714.194,82.294 C713.305,83.307 711.598,83.605 709.953,83.76 C714.192,75.731 722.033,71.479 728.451,65.754" id="Fill-129" fill="#000000"></path>
            <path d="M717.041,120.374 C712.701,126.731 708.362,133.088 703.612,140.046 C702.743,133.585 710.001,122.388 717.041,120.374" id="Fill-130" fill="#000000"></path>
            <path d="M719.97,95.287 C716.928,101.535 713.52,106.215 707.933,109.423 C709.119,104.377 715.42,96.618 719.97,95.287" id="Fill-131" fill="#000000"></path>
            <path d="M728.057,59.387 C727.052,62.666 724.9,62.623 723.442,62.066 C719.783,60.666 714.889,63.462 711.549,58.468 C717.495,56.423 722.442,59.166 728.057,59.387" id="Fill-132" fill="#000000"></path>
            <path d="M713.98,146.64 C708.432,148.663 703.732,147.525 700.848,143.461 C705.518,142.35 710.829,143.636 713.98,146.64" id="Fill-133" fill="#000000"></path>
            <path d="M696.325,177.666 C701.348,175.923 705.278,176.973 710.108,177.914 C708.951,179.302 708.444,180.504 707.616,180.796 C704.785,181.796 700.76,180.666 696.325,177.666" id="Fill-134" fill="#000000"></path>
            <path d="M703.201,112.313 C708.525,112.896 713.053,113.391 718.333,113.968 C716.463,117.091 714.371,117.172 712.302,116.526 C709.438,115.633 705.36,117.732 703.201,112.313" id="Fill-135" fill="#000000"></path>
            <path d="M707.333,89.136 C709.05,86.668 710.502,86.77 711.928,89.136 L707.333,89.136 Z" id="Fill-136" fill="#000000"></path>
            <path d="M661.943,40.247 C662.104,37.901 663.04,36.061 660.536,35.305 C660.038,35.154 658.892,35.802 658.66,36.345 C657.658,38.685 659.25,39.393 661.943,40.247 M665.048,36.972 C664.934,40.241 663.243,42.147 660.494,42.107 C657.522,42.063 654.822,39.643 654.815991,37.017 C654.81,34.555 657.672,32.37 660.831,32.425 C663.687,32.474 665.151,34.053 665.048,36.972" id="Fill-137" fill="#000000"></path>
            <path d="M661.943,40.247 C659.25,39.393 657.658,38.685 658.66,36.345 C658.892,35.802 660.038,35.154 660.536,35.305 C663.04,36.061 662.104,37.901 661.943,40.247" id="Fill-138" fill="#FFFFFF"></path>
        </g>
    </g>
</svg>