<svg width="810" height="837" viewBox="0 0 810 837" xmlns="http://www.w3.org/2000/svg"><g fill="none" fill-rule="evenodd"><path d="M587.04 388.219l.837-.297-1.006-3.472-1.306.476 1.475 3.293zm117.026-75.85l.996.444 2.009-4.691-.861-.379-2.144 4.626zm-62.677 91.685l-3.563 1.97 3.563 2.866v-4.836zm-84.05 78.087l1.042.723c.982-1.691 2.838-2.993 2.464-6.612l-3.506 5.889zM699.138 331.67l-1.604.069.402 4.213 1.202-.102v-4.18zm-21.178-24.911l1.559 1.181c.677-1.22 1.501-2.389 1.946-3.69.135-.396-.723-1.206-1.24-1.709-.19-.185-.709-.03-1.528-.03l-.737 4.248zm23.428 12.644c-2.244 3.384-3.274 5.973-3.121 9.008 1.306-2.484 4.012-4.441 3.121-9.008zm-5.243-2.564l-1.296 7.954c1.068-2.551 4.38-4.568 1.296-7.954zM711.933 22.24c-1.171 3.049-4.5 6.001-2.424 11.167l2.424-11.167zm-33.984 31.912c5.377-.113 5.603-.495 3.806-5.572l-3.806 5.572zM634.353 400.91c5.829.612 5.829.612 6.94-2.747l-6.94 2.747zM739.316 36.564c4.497 2.544 13.218 3.468 17.895 1.853-5.902-1.205-11.776-2.677-17.895-1.853zM686.169 46.57c0 2.832.914 6.062-.255 8.09-1.186 2.056-4.43 2.923-7.335 4.644 1.917.226 3.634.772 5.221.515 1.498-.242 3.129-1.049 4.224-2.103 2.193-2.111 1.086-7.593-1.855-11.146zm-1.129-33.311l1.905-.511c.536-1.609 1.389-3.192 1.527-4.835.17-2.034-2.513-3.971-4.647-3.599-2.359.412-2.889 2.451-2.29 4.091.66 1.804 2.295 3.251 3.505 4.854zM533.217 523.333l1.255.833c2.003-2.897 4.197-5.682 5.953-8.72 1.765-3.054 4.733-5.636 4.24-9.771-4.583 5.447-8.002 11.561-11.448 17.658zm87.686-129.65l-.981 1.088c3.707 3.508 7.331 7.111 11.146 10.498 3.74 3.318 6.222 8.015 11.424 10.898-1.993-4.528-17.614-20.48-21.589-22.484zM739.372 43.472c-1.423-2.261-3.281-3.877-3.095-5.205.357-2.53 1.879-4.897 2.909-7.311-2.977.062-5.137 2.766-5.407 7.888-.165 3.121.47 6.304 1 9.416.071.412 1.65.566 2.827.934l1.766-5.722zm6.357 100.038c.413-4.559.578-9.158 1.305-13.666.739-4.574 2.035-9.059 3.086-13.583-6.734 8.275-7.106 17.578-4.391 27.249zM594.718 366.707c4.224 1.003 7.364 1.527 10.349 2.517 3.124 1.037 5.189.011 7.537-3.058-6.078-.263-11.272-6.057-17.886.541zm-66.09 130.968l-6.33 10.181.782.867 15.403-6.486-9.855-4.562zm-19.173 19.048c6.929 6.189 14.435 9.375 22.557 12.483 0-1.33.319-2.361-.054-2.785-1.913-2.174-18.65-9.591-22.503-9.698zM741.434 61.779c-7.949 2.742-12.025 21.693-6.146 30.219-.704-11.247.036-21.271 6.146-30.219zM599.849 412.891c.972.893 1.713 1.949 2.056 1.832 8.15-2.762 16.255-5.65 25.035-8.752-4.005-1.98-9.726-.392-27.091 6.92zm-33.968 35.17l.838 1c1.014-.871 2.162-1.63 3.018-2.636 2.082-2.448 3.973-5.059 6.042-7.519 4.407-5.241 8.916-10.396 13.283-15.669.737-.889.973-2.192 1.441-3.304a824.1 824.1 0 00-1.242-.755l-23.38 28.883zm192.586-103.083c-3.018 11.638-5.162 12.053 3.747 16.473 1.032-13.12 1.865-11.392-3.747-16.473zm-63.59-40.39l8 6.258 6.415-14.238-.793-.539-13.622 8.519zM526.755 488.114c-2.857 2.947-.827 4.194 1.085 5.289 5.906 3.38 11.833 6.725 17.824 9.949.784.422 1.99.058 3.001.058.154-.447.31-.894.465-1.34-6.768-5.648-15.401-8.381-22.375-13.956zm-5.875 2.338l-.102-1.559-22.16-.977c-1.588 4.549 1.462 6.853 2.544 9.758a97.504 97.504 0 003.553 8.352c1.271 2.633 1.34 6.088 4.92 7.348-2.25-7.57-7.29-14.046-8.816-22.373 6.794-2.711 13.587.793 20.061-.549zM714.092 287.33l-1.247-1.254c-7.782 4.325-15.791 8.266-22.884 13.675 1.541 2.442 2.846 2.716 4.865 1.398 5.241-3.423 10.697-6.517 15.931-9.951 1.368-.898 2.236-2.558 3.335-3.868zm36.941-141.322c3.214-9.314 3.788-18.81 2.445-28.441-3.679 9.24-4.453 18.726-2.445 28.441zm-34.23-115.725l11.457 13.021 3.676-13.021h-15.133zm-138.655 410.67l.828 1.142 18.137-10.391-5.086-7.953-13.879 17.202zM694.573 331.61c-6.164-.626-11.92-1.325-17.695-1.757-4.062-.304-4.375.143-4.775 4.776 7.461.325 14.858 1.967 22.47 1.198v-4.217zM676.996 35.587c.06 6.908-.968 12.889-6.414 15.797-4.68 2.5-10.286 3.264-15.362 4.76 6.566 3.587 14.324 2.101 19.918-3.935 5.785-6.244 6.377-10.067 1.858-16.622zM780.028 351.59v6.074c18.516 1.794 21.397 1.686 26.114-1.409-8.72-2.775-17.303-2.437-26.114-4.665zm-13.065 17.287l9.554-38.445c-10.363 10.909-10.911 23.925-9.554 38.445zm-13.237-4.125l-4.384 17.263c5.75-2.015 10.659-3.417 15.19-7.688l-10.806-9.575zm-24.988-316.31l.476-1.136c-5.159-4.393-10.319-8.785-15.198-12.941l-2.61 10.87 17.332 3.207zM544.967 495.747c3.512-6.03 7.31-11.025 9.857-17.777-7.162 3.518-13.416 6.58-19.649 9.685-.268.133-.333.674-.78 1.659l10.572 6.433zm-28.485 19.228l12.86 6.828 9.207-15.389-.776-.833-21.291 9.394zm200.807-228.221l-.956 1.333c.588.505 1.102 1.157 1.773 1.495 19.857 9.99 39.725 19.957 59.606 29.9 2.399 1.2 3.231 1.285 6.796 1.236l-67.219-33.964zm-96.808 99.354v-16.27c-2.984 1.905-5.417 3.283-7.632 4.949-1.049.789-2.525 2.285-2.359 3.197.753 4.128.064 8.628 2.508 12.725l7.483-4.601zM575.16 284.929c-.597-3.976-2.493-3.677-4.92-2.795-9.267 3.367-18.58 6.612-27.86 9.947-1.613.579-3.151 1.368-4.723 2.06 2.144 1.368 4.449 2.294 6.256 1.701 10.489-3.443 20.861-7.243 31.247-10.913zM569.352 474.4l-1.166-.84c-1.119 1.441-2.387 2.79-3.328 4.339-3.35 5.521-6.475 11.182-9.903 16.655-3.457 5.519-4.835 12.05-9.295 17.168-3.124 3.585-4.975 8.273-7.435 12.445-.931 1.579-1.863 3.116-1.002 5.199 11.971-17.653 21.949-36.368 32.129-54.966zm168.631-171.173l-.738.942c6.275 6.988 11.521 14.886 19.033 22.047l1.701-12.833-19.996-10.156zM678.96 30.336l-.728.657c.516.307 1.008.666 1.551.913 4.522 2.054 9.142 3.912 13.556 6.174 4.814 2.468 9.763 2.089 15.29 2.097l-3.334-8.677-26.335-1.164zm-72.654 360.15l-1.121-14.239-13.177-2.955c.094 12.888 1.227 14.272 14.298 17.194zm159.693-52.473c1.706-2.664 3.158-5.069 4.749-7.378 1.681-2.442 3.495-4.792 5.415-7.405l-12.908-6.631c-.624 3.51-.81 6.563-1.742 9.368-1.731 5.208.102 8.869 4.486 12.046zm-40.861-219.291l15.3 22.107 1.933-21.06-17.233-1.047zm-2.65 176.509l40.779 49.812c3.443-3.265.608-4.962-.722-6.574-10.513-12.742-21.167-25.368-31.723-38.075-2.262-2.723-5.061-4.31-8.334-5.163zm40.725 73.308c-1.172-1.311-1.715-2.062-2.395-2.655-10.334-9.036-20.65-18.091-31.042-27.061-14.98-12.93-30.008-25.805-45.048-38.667-1.177-1.008-2.592-1.737-3.897-2.595 3.83 6.126 77.077 68.597 82.382 70.978zM747.148 61.677c-5.977 6.721-7.86 14.155-8.153 21.975-.117 3.103-1.758 6.981 1.776 9.685 8.518-8.588 11.804-21.404 6.377-31.66zM503.393 492.632l10.712 21.308 11.017-18.685c-7.035-2.763-13.867-1.711-21.729-2.623zm-4.323 44.421c-5.91 2.299-6.931 4.252-4.07 8.896 3.932 6.38 9.581 10.799 16.894 12.829 1.331.369 2.793.439 4.183.382 2.634-.108 4.089-1.579 4.044-4.253-.046-2.713-1.497-3.697-4.23-3.875-2.731-.178-5.639-.651-8.066-1.827-4.942-2.395-8.112-6.462-8.755-12.152zm66.019-171.614l.971-1.534c-1.017-.746-1.93-1.757-3.065-2.197a2857.142 2857.142 0 00-32.131-12.263c-7.104-2.661-14.263-5.175-22.262-8.067l-2.37 6.214c1.816.513 2.99 1.277 3.685.967 3.534-1.573 6.691-.225 9.893.903 9.479 3.342 18.941 6.732 28.417 10.083 5.614 1.984 11.241 3.931 16.862 5.894zm80.44-118.44c3.924 1.46 4.865-2.171 6.258-4.147 11.741-16.658 23.305-33.441 34.88-50.216 1.132-1.64 2.168-3.403 2.895-5.248.535-1.356.491-2.94.705-4.423l-1.134-.455-43.604 64.489zM513.158 522.794l-7.847 12.214c6.013-.873 10.119-5.062 16.893-4.243-6.118 5.123-12.807 6.258-19.407 8.441 3.278 4.902 7.095 7.583 12.773 7.495l9.549-17.561-11.961-6.346zm98.403-123.166l-22.276-6.86 9.499 16.902 24.262-7.737-5.638-5.916-5.847 3.611zm71.643-356.974c6.383 1.743 7.583 3.014 8.301 8.829.397 3.225.904 6.425-2.698 8.522-5.456 3.176-8.751 2.788-15.378-2.237l-7.138 3.08c5.085 6.452 8.726 7.244 15.465 3.723 1.51-.789 3.394-.981 5.136-1.174 1.748-.192 3.533-.042 6.146-.042 1.005-6.364 2.072-12.474 2.848-18.621.146-1.161-.514-3.053-1.416-3.607-3.7-2.274-7.529-4.439-12.54-5.145l1.274 6.672zm-69.068 394.388l.744-1.806c-1.784-1.177-3.587-2.327-5.348-3.538-1.318-.905-2.995-1.623-3.803-2.88-3.912-6.099-7.835-12.215-11.279-18.582-4.407-8.146-8.328-16.554-12.544-24.806-.565-1.107-1.632-1.957-2.466-2.926l-1.171.716c5.854 17.029 16.159 31.938 23.731 49.145l-20.891 12.096.603 1.102c6.491-3.433 13.283-6.418 19.349-10.486 3.152-2.114 5.136-2.212 7.986-.281 1.51 1.023 3.381 1.514 5.089 2.246zm-79.578-178.88c8.98 1.468 17.655 1.628 26.326 1.9l.416-1.213-18.911-19.594-7.831 18.907zm31.188 63.334l7.075-26.194-23.848 9.53 16.773 16.664zm-4.316 144.67l50.141-26.112-6.774-2.868c-5.752 2.989-11.285 5.857-16.813 8.736-10 5.208-20.002 10.413-29.977 15.668-.407.214-.553.924-.834 1.428l4.257 3.148zm78.87-211.108c-8.687-1.872-16.468-3.57-24.264-5.197-.739-.154-1.741-.121-2.333.266-4.799 3.134-9.527 6.373-14.95 10.034 9.282 1.239 17.523 2.34 25.766 3.432.382.05.844.145 1.156-.01 4.764-2.364 9.745-4.382 14.625-8.525zm-106.13 53.173c6.029-.732 8.952 2.294 11.922 5.395 3.77 3.938 7.693 7.732 11.549 11.589 1.664 1.665 3.324 3.333 5.045 5.058 2.123-2.607.765-4.086-.684-5.569-5.226-5.348-10.47-10.679-15.639-16.081-1.137-1.188-1.996-2.643-3.345-4.465 2.279-1.02 3.671-1.759 5.14-2.281 7.614-2.71 15.182-5.584 22.905-7.941 3.598-1.098 4.571-3.07 4.474-6.242-9.481 3.256-18.588 6.538-27.805 9.472-3.658 1.165-7.561 1.558-12.383 2.505l-1.179 8.56zm108.965-14.288c-4.977-7.397-12.199-12.062-18.074-18.372-6.797 12.109-11.501 25.321-10.775 29.738l28.849-11.366zm-12.707 51.651c-3.034 2.608-5.694 4.975-8.441 7.238-2.835 2.336-5.753 4.571-9.321 7.393 1.977.529 2.908.824 3.86 1.021.986.203 2.008.237 2.984.473 4.351 1.053 6.543 3.933 7.257 8.332.796 4.913-.882 10.15 2.017 14.817.364.586-.17 1.91-.573 2.756-.765 1.608-1.736 3.118-2.542 4.529l5.912 6.475 9.654-3.373c.792-3.518.252-5.767-2.269-8.373-4.208-4.349-6.88-9.79-7.077-16.241-.246-8.027-.915-16.042-1.461-25.047zm-1.995-3.53l-17.938-23.818c-4.321 15.401-8.015 27.786-2.987 38.235l20.925-14.417zm13.4-42.671l-29.846 12.893c6.046 8.476 12.458 16.178 18.677 23.535 3.734-12.182 7.325-23.892 11.169-36.428zm-38.495 118.493c1.331 8.655 8.907 10.066 14.63 14.032 6.784-7.081 15.488-8.343 25.212-8.084a189.88 189.88 0 00-14.262-15.082l-25.58 9.134zm170.484-34.19c6.339-6.545 8.255-14.066 10.405-21.581-7.542-1.453-8.439-2.235-8.118-6.833.342-4.887 3.436-6.865 11.731-7.164 1.015-8.187 3.072-16.38.571-24.712-4.565-.043-5.659 3.391-6.964 6.205-5.307 11.453-8.617 23.542-9.625 36.092-.452 5.64-1.316 11.621 2 17.993zM705.19 29.171c2.964-7.486 3.176-14.183-.457-19.671-2.702-4.083-7.581-6.843-13.603-5.75 1.813 3.802 1.261 6.719-1.379 9.678-3.19 3.576-6.772 2.256-10.475 1.316l-1.212 11.453 27.126 2.974zm-34.685 397.867c9.568-2.426 90.195-43.759 94.439-48.834-31.941 14.14-61.802 29.686-92.199 46.163.233-14.407 4.878-26.785 7.648-39.512 2.737-12.586 5.789-25.091 10.413-37.199-2.495 3.512-5.255 6.97-6.394 10.898-3.423 11.804-6.301 23.77-9.226 35.713-2.589 10.576-4.147 21.313-4.681 32.771zm1.677-389.162c-.25-8.529-5.057-13.45-12.959-13.267-7.376.17-14.216 7.453-13.901 14.801.325 7.601 6.334 12.657 14.788 12.442 8.221-.208 12.335-4.972 12.072-13.976zm-18.863 207.736c8.501-1.569 16.01-2.841 23.452-4.43 1.336-.286 2.614-1.705 3.536-2.897 2.476-3.2 2.334-7.157 2.837-10.937 1.371-10.283 2.845-20.552 4.279-30.826a157.93 157.93 0 01-.822-.424l-33.282 49.514zm-85.489 94.804l8.232 34.745 9.957 1.84v-11.664l15.298-8.199-1.428-9.695-32.059-7.027zm-57.631-37.073c17.903 16.174 34.909 31.771 53.358 46.779v-14.644l-1.014.732c-1.781-2.193-3.462-4.477-5.365-6.558-3.676-4.022-7.401-8.006-11.252-11.858-2.948-2.949-5.86-5.699-10.472-6.472-4.496-.754-5.422-3.123-4.146-7.685.738-2.639 1.847-5.175 3.118-8.659l-24.227 8.365zm106.447 134.68c1.234 2.286 2.765 3.924 2.969 5.713.777 6.828 4.148 12.472 7.598 18.104.79 1.289 2.041 2.296 3.186 3.549l18.683-9.445-5.676-26.908c-11.691-4.8-19.103 2.201-26.76 8.987zm4.452-168.739l-30.034-4.344-10.598 27.52 29.58 2.612 11.052-25.788zm-22.753 69.454c3.348-10.832 6.539-20.989 9.604-31.184.737-2.447-.716-4.681-3.5-5.314-8.426-1.915-16.967-2.817-26.043-2.831l-7.28 34.604 27.219 4.725zm-12.299-75.289c-8.983-9.279-17.119-17.705-25.29-26.098-1.116-1.146-2.263-2.758-3.639-3.067-5.82-1.307-11.679-2.729-17.711-2.491l-14.716 33.363c14.536.729 28.411 1.423 42.66 2.136-.997-3.579-2.9-3.844-5.339-3.969-9.279-.477-18.546-1.192-27.81-1.905-1.121-.086-2.203-.699-3.971-1.291l11.24-25.543c1.418 1.136 2.697 1.994 3.768 3.061 1.573 1.567 2.984 3.295 4.485 4.935 9.004 9.842 18.037 19.657 26.99 29.543 1.051 1.16 1.677 2.704 2.499 4.07l-.832 1.036c-3.416-3.742-6.885-2.307-10.527-.948a1708.898 1708.898 0 01-31.338 11.344c-11.308 3.971-22.187 9.504-35.036 9.737l-2.512 10.152c4.794 2.66 9.211 4.336 12.672 7.177 9.837 8.075 19.156 16.778 28.925 24.94 7.679 6.416 15.724 12.396 23.75 18.682 1.371-4.067-1.146-5.601-3.348-7.435a12794.77 12794.77 0 01-43.251-36.184c-2.938-2.469-5.88-4.962-8.557-7.702-2.271-2.323-1.842-4.189.945-5.809.867-.504 1.836-.854 2.788-1.188 17.726-6.224 35.444-12.473 53.197-18.619 4.275-1.48 8.65-3.156 13.436.3l6.522-18.227zm55.617 119.284c2.995-46.628 13.355-90.494 32.557-132.923-4.276.76-7.801 1.461-11.351 2.002-8.218 1.254-16.187 2.872-21.889 9.862-1.355 1.661-3.55 2.639-5.369 3.92-2.598 1.83-5.205 3.65-8.144 5.71 7.594 8.434 17.123 14.166 23.646 22.864-6.054 9.393-9.195 19.671-12.011 29.956-4.365 15.936-4.173 32.331-3.455 48.689.167 3.818 2.495 6.566 6.016 9.92zM3.215 762.293l.919 1.13c.577 0 1.288.225 1.71-.031a2677976.32 2677976.32 0 00580.291-349.97c.077-.047.03-.361-.017-.535-.051-.186-.169-.354-.471-.951-.551.106-1.327.068-1.889.394-3.148 1.829-6.237 3.757-9.358 5.63-55.662 33.41-111.361 66.759-166.983 100.236-97.728 58.821-195.405 117.727-293.112 176.584-35.512 21.392-71.052 42.738-106.561 64.136-1.605.967-3.023 2.244-4.53 3.377zm658.267-293.168c-3.527-16.364-3.625-32.963-3.758-49.402-.123-15.272 1.399-30.614 3.059-45.831 3.754-34.406 11.039-68.145 21.168-101.223 7.286-23.798 16.013-47.054 28.844-68.552.318-.534.452-1.178.673-1.771a30.201 30.201 0 00-5.708 5.68c-11.645 15.061-22.008 30.763-29.109 48.686-8.725 22.026-16.459 44.28-21.287 67.484-4.157 19.972-6.798 40.13-7.705 60.541-.594 13.366.32 26.616 1.157 39.929.995 15.846 6.755 30.15 12.666 44.459zm25.463-243.101c.935-1.253 1.51-2.032 2.093-2.806 6.435-8.542 12.945-17.028 19.24-25.673 1.21-1.662 1.967-3.889 2.256-5.95 1.399-9.981 2.566-19.994 3.816-29.996 1.275-10.201 2.563-20.4 3.819-30.603.277-2.257.064-4.711 3.759-6.683l-1.218 20.207 17.476.974c-1.612-2.738-2.596-4.657-3.807-6.421-3.776-5.499-7.77-10.853-11.391-16.449-1.238-1.913-2.335-4.4-2.266-6.587.194-6.198 1.03-12.376 1.598-18.564.121-1.317.18-2.641.262-3.89-6.947-1.499-6.947-1.499-7.901-5.027l14.582 2.115c-.922-10.036-.071-19.549 4.901-28.737-6.897-1.655-.61-7.209-3.172-9.973l-21.103-3.593-5.732 48.33c2.322.49 5-1.091 5.015 2.341.002.535-.352 1.071-.621 1.833h-4.276l-17.33 125.152zm-12.259 194.339c3.025-1.49 4.819-2.294 6.538-3.234 4.607-2.521 9.115-5.23 13.782-7.632a5402.16 5402.16 0 0145.338-23.066c1.989-1 3.111-2.272 3.626-4.424a542.532 542.532 0 014.373-17.016c.794-2.903-.025-4.843-2.392-6.784-8.431-6.909-16.678-14.042-24.979-21.109-5.502-4.684-10.979-9.399-16.944-14.508-1.438 3.935-3.266 6.876-2.57 10.856.483 2.762-.317 5.543-3.935 6.46-1.034.263-2.176 1.742-2.506 2.884-5.783 19.964-11.553 39.933-17.063 59.974-1.47 5.348-2.06 10.938-3.268 17.599zm-5.946 8.525c-1.971-24.091 5.728-46.437 12.569-69.569-5.324 4.666-9.53 1.488-13.794-1.54-.896 6.851-1.822 13.025-2.486 19.228-1.115 10.418-2.649 20.838-2.926 31.286-.298 11.27.407 22.588 1.115 33.857.684 10.878 2.228 21.706 6.319 31.89 1.779 4.429 4.177 8.799 7.149 12.51 3.757 4.692 8.305 5.017 13.556 2.057 1.226-.691 2.365-1.556 3.475-2.43 7.277-5.727 12.447-13.212 17.127-21.027 12.01-20.054 20.49-41.653 27.527-63.859.265-.833.113-1.798.174-3.1-1.393.616-2.328.978-3.216 1.431-17.806 9.082-35.601 18.183-53.414 27.251-1.977 1.007-4.11 1.712-6.057 2.769-2.635 1.432-4.94 1.001-7.118-.754zm12.5-136.09c5.866 5.868 5.222 6.273 12.534 1.785 4.993-3.064 10.051-6.02 15.108-8.976 4.342-2.539 8.681-2.839 13.175-.168 3.819 2.27 7.748 4.371 11.714 6.375 8.233 4.157 16.523 8.201 25.174 12.482.359-1.696.605-2.457.672-3.235 1.06-12.24 2.603-24.466 2.993-36.729.386-12.093-.187-24.234-.736-36.336-.486-10.731-2.495-21.265-6.4-31.305-1.214-3.122-3.085-6.19-5.337-8.663-3.883-4.264-7.988-4.663-13.136-2.162-6.298 3.061-11.502 7.378-15.587 13.107-7.426 10.412-13.543 21.553-18.854 33.16-8.928 19.509-15.691 39.771-21.32 60.665zm-20.598 245.837l-.173-.176c1.586 4.777 2.961 9.635 4.79 14.316 12.928 33.098 26.04 66.126 38.925 99.241 21.688 55.741 43.252 111.53 64.867 167.3 1.885 4.863 3.752 9.732 5.713 14.82 2.329 0 4.349.203 6.318-.035 9.402-1.137 13.567-8.046 10.141-16.761-8.858-22.525-17.742-45.04-26.625-67.555-11.636-29.489-23.219-59-34.938-88.456-25.925-65.163-51.917-130.299-77.9-195.439-.622-1.56-1.455-3.036-2.185-4.54-.669.341-.998.475-.988.508 1.514 5.016 3.052 10.025 4.738 15.521-6.487-2.154-4.562-9.876-9.269-12.696-4.328 1.317-4.328 1.317-5.999 4.685l-5.457-1.057c1.566 4.168 2.75 7.567 4.113 10.892 3.506 8.555 7.092 17.077 10.645 25.611l-.195-.175L652.465 517l2.456 6.123c1.906 5.171 3.813 10.341 5.721 15.512zm52.73-239.517l-6.031 15.665 43.7 37.696c.903-4.223 1.487-7.339 2.254-10.409.599-2.399-.151-4.237-1.659-6.078-8.166-9.968-16.179-20.063-24.42-29.969-3.279-3.941-7.005-7.508-10.872-11.61l-2.694 4.174c.32-1.137.689-2.263.943-3.413.253-1.154.39-2.332.579-3.499l-1.081-.277c-1.889 4.015-3.777 8.031-5.624 11.962l4.905-4.242zM560.841 471.771l-10.949-8.353-10.841 18.076c1.145 0 1.773.17 2.253-.025 6.101-2.486 12.201-4.982 18.239-7.616.592-.258.777-1.447 1.191-2.171 1.152-.113 2.467.099 3.429-.388a8143.763 8143.763 0 0049.623-25.312c.91-.468 1.567-1.428 2.434-2.244-2.618-1.97-4.254-.043-5.87.784-14.555 7.443-29.078 14.95-43.531 22.588-2.2 1.162-3.996 3.089-5.978 4.661zm101.169 12.206c5.076 12.949 10.089 25.922 15.236 38.842 39.199 98.373 78.424 196.735 117.645 295.099 2.349 5.893.625 11.742-4.691 15.067-2.039 1.275-4.254 2.425-6.544 3.11-6.943 2.077-11.137.022-13.757-6.694-14.612-37.474-29.174-74.967-43.757-112.452-27.115-69.7-54.236-139.397-81.342-209.099-3.883-9.984-7.663-20.006-11.567-29.981-1.518-3.88-2.962-7.588-6.228-10.77-2.889-2.814-4.158-7.285-6.166-11.011-1.228-2.279-2.499-4.534-3.743-6.787-13.979 6.982-27.536 13.712-41.035 20.561-1.307.663-2.595 1.865-3.299 3.143-9.655 17.526-19.107 35.163-28.83 52.65-3.638 6.541-7.093 7.669-15.493 5.93l-7.527 12.737c1.035 4.586 2.343 8.182 2.546 11.838.256 4.615-2.44 7.004-7.059 7.36-10.483.809-24.463-10.003-26.43-20.441-.901-4.776 1.619-9.012 6.972-9.433 4.413-.347 6.338-2.669 8.212-5.843 1.332-2.258 2.754-4.463 4.263-6.897-4.418-8.823-8.846-17.633-13.245-26.457-3.463-6.947-1.699-9.727 6.19-9.384 9.278.404 18.546 1.047 28.395 1.619 4.102-6.505 8.534-12.995 12.374-19.817 2.493-4.429 5.693-7.722 10.21-9.908 3.851-1.865 6.62-4.618 9.135-8.323 5.317-7.833 11.605-15.008 17.514-22.438 2.112-2.655 4.277-5.267 6.022-8.53-1.517.775-3.086 1.462-4.542 2.338-144.339 86.853-288.667 173.723-433 260.587-45.742 27.528-91.495 55.04-137.237 82.569-1.555.936-3.051 1.973-4.563 2.98-1.853 1.233-3.648 1.797-5.356-.25-1.633-1.956-1.811-4.977-.147-6.672.824-.84 2.003-1.334 3.038-1.958C66.9 719.445 129.57 681.58 192.307 643.825c119.396-71.855 238.827-143.652 358.251-215.463 11.078-6.662 22.2-13.252 33.262-19.852-2.786-6.965-5.308-13.792-8.265-20.427-1.348-3.025-1.662-6.963-6.26-7.93-1.214-.255-2.12-3.232-2.654-5.106-.545-1.907-.458-3.994-.672-6.265-1.174-.602-2.348-1.375-3.633-1.836-14.833-5.318-29.663-10.644-44.553-15.796-1.718-.595-3.817-.36-5.697-.142-2.743.316-6.818-.882-7.445-2.823-.847-2.623-.346-5.134 1.455-7.391 1.868-2.342 3.919-2.161 6.454-1.195 13.95 5.315 27.944 10.515 41.932 15.726.322.12.765-.091 1.562-.208-.984-.94-1.747-1.753-2.594-2.466-13.907-11.719-27.851-23.394-41.711-35.168-2.027-1.721-3.729-3.605-6.764-3.344-1.119.096-2.327-.593-3.465-1.006-6.788-2.465-7.885-4.876-5.168-11.342.392-.932.903-1.814 1.3-2.744 2.662-6.23 2.641-6.085 9.201-5.357 2.09.233 4.416-.194 6.421-.913 11.792-4.234 23.5-8.703 35.281-12.967 5.503-1.991 11.103-3.714 16.668-5.532 2.06-.673 4.145-1.27 6.913-2.113-1.116-.911-1.622-1.69-2.173-1.723-13.91-.832-27.829-1.536-41.736-2.404-2.328-.146-4.615-.947-7.475-1.565.72-2.667 1.036-4.842 1.88-6.79 3.774-8.717 7.612-17.41 11.602-26.03 2.277-4.919 2.975-5.22 8.439-4.708 3.815.358 7.6 1.198 11.416 1.35 2.915.115 4.859 1.386 6.792 3.34 7.115 7.197 14.326 14.301 21.537 21.404 1.576 1.553 3.301 2.956 4.856 4.339 7.688-4.106 15.277-7.872 22.561-12.157 4.294-2.525 8.662-3.095 13.386-2.586 4.615.498 9.227 1.035 13.846 1.501 1.587.161 3.192.162 4.732.233 12.859-19.205 25.522-38.214 38.309-57.141 3.047-4.511 6.553-8.712 9.742-13.132.763-1.058 1.429-2.38 1.59-3.651 2.435-19.205 4.736-38.426 7.154-57.632 2.646-21.013 5.393-42.013 8.064-63.023.33-2.59.466-5.205.745-8.397h-8.355l-2.777 20.926c-.87.68-1.153 1.076-1.5 1.146-5.275 1.05-10.526 1.891-15.719 3.647-4.807 1.626-10.043.876-13.357-4.374-1.391-2.203-3.387-3.704-6.406-3.957-3.727-.312-6.853-2.356-9.278-5.26-2.195-2.629-4.507-5.194-6.41-8.028-4.39-6.537-3.157-14.745 2.443-20.445 6.277-6.387 14.872-8.207 23.282-3.865 1.376.71 2.908 1.119 5.037 1.918.887-5.518 1.996-10.632 2.468-15.803.552-6.048 2.528-8.283 8.55-8.459 1.008-.03 2.096.175 3.011-.132 6.936-2.33 11.81 1.552 17.088 5.09 7.019 4.706 9.776 11.368 10.192 19.799 7.379.899 14.554 1.84 21.746 2.612 2.463.264 4.682.282 6.056 3.039.547 1.097 2.496 1.771 3.93 2.096 3.527.798 7.126 1.282 10.872 1.921.336 1.047.836 1.963.9 2.909.25 3.724-.198 4.373-3.81 4.544-4.011.19-8.039.044-12.141.044l-2.711 9.489-6.822-1.998 1.305 7.257c4.097 0 8.042-.051 11.986.017 2.8.049 4.759 1.64 5.129 4.283.666 4.765 1.562 9.657 1.127 14.382-.637 6.933-3.683 13.154-8.214 18.57-2.104 2.515-4.137 3.47-7.249 1.341-3.534-2.417-7.639-1.799-11.615-1.52-.883 5.665-1.579 11.033-2.604 16.337-.573 2.967.732 4.188 3.299 4.528 5.203.688 10.413 1.378 15.643 1.771 1.146.086 2.585-.842 3.539-1.694 1.994-1.781 4.1-2.151 6.707-1.845 2.663.312 3.839 1.473 4.399 4.049 1.626 7.495.554 14.873-.583 22.267-.184 1.194-.488 2.37-.747 3.553-1.315 5.989-4.104 7.45-10.068 5.901-8.282-2.149-16.735-1.776-25.763-1.411l-6.787 44.386c2.886-2.173 4.586-3.479 6.314-4.749 5.903-4.343 12.102-7.963 19.439-9.511 7.44-1.569 13.069.883 17.54 6.719 3.759 4.904 6.083 10.49 7.559 16.42 3.136 12.591 4.359 25.439 4.773 38.371.678 21.254-1.301 42.36-3.695 63.438-.111.977-.436 1.931-.796 3.465 2.881 1.554 5.831 3.206 8.836 4.751 4.134 2.128 8.176 4.529 12.504 6.162 4.802 1.81 6.399 5.407 6.559 9.878.2 5.606-.011 11.228-.098 16.843-.024 1.57-.238 3.136-.397 5.099 3.517.504 6.675.98 9.84 1.404 4.804.643 7.738 2.704 7.68 5.446-.057 2.645-3.276 5.441-7.45 6.098-1.97.31-4.027.065-6.045.067-2.202.002-4.405 0-6.614 0-2.303 5.58-4.402 10.792-6.614 15.956a37.843 37.843 0 01-2.827 5.359c-3.429 5.397-6.153 5.77-11.293 1.67-.617-.492-1.189-1.04-1.924-1.688-6.169 3.155-12.209 6.358-18.36 9.331-2.555 1.235-3.136 3.414-3.883 5.764-6.242 19.66-13.172 39.064-22.536 57.49-5.879 11.569-12.443 22.718-21.947 31.802-1.457 1.393-2.998 2.729-4.643 3.889-8.073 5.694-16.219 5.504-23.964-.748-2.952-2.384-5.54-5.22-8.292-7.85l-.842.677z" fill="#000"/><path d="M681.24 292.798c5.629-20.895 12.392-41.156 21.319-60.665 5.312-11.607 11.429-22.749 18.855-33.16 4.085-5.729 9.289-10.046 15.587-13.107 5.148-2.501 9.253-2.102 13.135 2.162 2.252 2.473 4.124 5.541 5.337 8.663 3.906 10.04 5.914 20.574 6.401 31.305.549 12.102 1.122 24.242.736 36.336-.391 12.263-1.933 24.489-2.993 36.729-.067.778-.314 1.539-.672 3.235-8.651-4.281-16.941-8.325-25.174-12.482-3.967-2.004-7.895-4.105-11.715-6.375-4.493-2.671-8.833-2.371-13.174.168-5.057 2.956-10.116 5.912-15.108 8.976-7.312 4.488-6.668 4.083-12.534-1.785m-40.709 191.283c2.167-4.537.498-8.555-4.137-10.824l4.137 10.824zm29.104 32.969c-1.622-3.945-2.193-7.661-5.096-10.956-1.27 5.128.4 8.788 5.096 10.956zm9.95 31.776c1.381 9.115 3.154 12.084 7.634 13.234-4.052-11.96-4.052-11.96-7.634-13.234zm56.562 136.714c-1.964-5.125-3.319-10.027-6.47-14.989-2.046 6.437 1.626 10.639 3.542 15.235.103.244 1.682-.127 2.928-.246zm-30.501-76.023c-3.313-10.945-4.604-13.507-7.346-14.921-.611 5.785 2.13 11.703 7.346 14.921zm43.302 107.658c-3.196 5.892.534 10.12 2.451 14.748.145.347 1.859.045 3.458.045l-5.909-14.793zm-5.202-12.94c-1.816-4.584-3.553-9.202-5.541-13.709-.254-.575-1.816-.573-4.226-1.243 3.622 5.946 3.15 12.412 9.767 14.952zm18.731 46.803l-6.6-16.275c-1.054 2.197-2.095 3.393-1.824 3.954 2.153 4.452 1.997 10.316 8.424 12.32zm-45.764-78.213c-1.055 4.566 2.203 13.181 5.964 16.936.254-6.906-2.727-11.953-5.964-16.936zm-59.398-187.106l-1.245.449c-.865 6.468 3.394 11.493 5.398 17.145.107.303 1.32.215 3.011.443l-7.164-18.037zm17.451 86.326c1.187-.602 1.854-.741 2.152-1.15.286-.392.342-1.095.239-1.608-1.472-7.278-4.458-11.88-8.642-13.061l6.251 15.819zm12.352 30.589c1.991 6.051 3.852 11.888 7.517 18.005 1.119-4.168.834-5.321-2.838-13.761-.842-1.932-1.257-4.315-4.679-4.244zm28.361 36.302l1.66-1.143c-2.251-5.867-4.173-11.874-7.8-17.201-1.349 5.704 2.178 10.087 3.828 14.94.426 1.252 1.523 2.276 2.312 3.404zm-19.587-15.888c1.37 6.197 3.529 12.136 6.913 19.028.477-7.194-2.488-15.653-6.913-19.028zm-16.367-77.673l.957-.967c-1.155-2.939-2.324-5.872-3.46-8.818-1.072-2.784-1.976-5.651-3.872-8.884-.934 4.215 1.284 13.222 4.064 17.688.361.582 1.521.666 2.311.981zm11.728 28.481c-1.333 6.378 1.85 14.197 7.194 17.31-1.864-6.513-4.193-12.005-7.194-17.31zm22.278 96.273l1.688-.478c1.482-3.568-1.364-6.319-2.372-9.3-2.214-6.55-2.436-6.476-6.546-8.311l7.23 18.089zm17.906 46.238c1.136-2.323 2.229-3.5 1.987-4.24-1.184-3.619-2.54-7.214-4.234-10.619-.637-1.28-2.349-2.024-3.572-3.012l-.866.872c2.023 5.147 4.048 10.293 6.685 16.999zm7.407 19.059l1.055-.103c.103-2.068.788-4.327.186-6.165-1.301-3.971-3.229-7.742-5.056-11.519-.096-.198-1.645.308-2.973.579l6.788 17.208zm-55.47-140.782l1.89-.4c.046-7.346-3.986-13.377-6.312-20.342-1.162.842-2.096 1.334-2.041 1.504 2.098 6.43 4.286 12.832 6.463 19.238zm35.404 46.916l-1.59-.115c-.32 1.089-1.184 2.378-.87 3.234 1.511 4.107 3.2 8.166 5.132 12.091.694 1.411 2.247 2.399 3.408 3.58l1.034-.691-7.114-18.099zm39.532 143.577c2.89-8.44-2.074-13.705-3.838-20.271l-3.521 2.05 7.359 18.22zm-14.371-40.24l-1.16.829 6.829 17.373 1.637.016c.402-1.035 1.373-2.254 1.107-3.073-1.24-3.83-2.603-7.656-4.382-11.256-.778-1.576-2.654-2.61-4.031-3.89zm30.275 81.172c2.384-2.643 2.069-5.036 1.033-7.636-2.376-5.96-4.711-11.94-6.87-17.981-.955-2.671-2.709-3.944-6.207-5.06l12.044 30.677zm1.672 5.214c5.762 1.283 9.722-1.131 13.329-4.09 1.048-.86 2.062-3.013 1.703-4.125-1.565-4.832-3.642-9.498-6.019-15.441-3.24 6.849 1.457 11.174 1.88 16.853l-9.771 3.34-1.122 3.463zm.16-47.853l-2.766 3.85c2.587 10.037 3.325 11.158 7.996 11.98l-5.248-15.837c-1.501-3.226-3.042-6.434-4.491-9.683-1.391-3.12-2.685-6.282-4.022-9.425l-1.442.35c.158 2.066-.011 4.227.554 6.174.839 2.888 2.575 5.538 3.238 8.447.831 3.64 3.15 4.234 6.181 4.144zM652.464 517a9551.63 9551.63 0 01-5.292-12.355c.79.475 1.573.943 2.355 1.411.906-5.457-2.456-15.525-6.442-19.118-1.703 1.755-.195 3.289.291 4.871 1.33 4.335 2.655 8.67 3.982 13.005-3.554-8.534-7.139-17.056-10.645-25.611-1.364-3.325-2.547-6.724-4.114-10.892l5.457 1.057c1.671-3.368 1.671-3.368 5.999-4.684 4.707 2.819 2.783 10.542 9.27 12.695-1.687-5.496-3.225-10.505-4.738-15.521-.01-.032.319-.167.988-.508.729 1.504 1.562 2.981 2.185 4.541 25.983 65.139 51.975 130.275 77.9 195.439 11.719 29.456 23.302 58.966 34.937 88.456a60284.944 60284.944 0 0126.625 67.554c3.427 8.716-.738 15.624-10.14 16.76-1.969.239-3.989.036-6.319.036-1.961-5.088-3.828-9.957-5.712-14.82-21.615-55.77-43.179-111.559-64.868-167.3-12.884-33.115-25.996-66.143-38.924-99.241-1.83-4.681-3.205-9.539-4.78-14.305 1.947 3.467 3.882 6.923 6.172 11.01.676-6.662-1.522-13.439-5.908-18.667-.396 1.315-.97 2.325-.934 3.313.057 1.512.534 3.007.832 4.509l-5.72-15.512-.162.1 3.76 6.345c.687-1.508 1.765-2.726 1.51-3.513a81.334 81.334 0 00-4.044-10.086c-.522-1.092-1.899-1.775-3.286-2.998l-.379 4.18.144-.151zm16.276-88.112c2.178 1.755 4.482 2.186 7.118.754 1.946-1.057 4.08-1.762 6.057-2.769 17.812-9.068 35.608-18.169 53.414-27.251.888-.453 1.823-.815 3.216-1.431-.061 1.302.091 2.267-.174 3.1-7.037 22.206-15.517 43.806-27.527 63.859-4.68 7.815-9.85 15.301-17.127 21.027-1.11.874-2.249 1.739-3.475 2.43-5.251 2.96-9.799 2.636-13.557-2.057-2.971-3.711-5.369-8.081-7.148-12.51-4.091-10.184-5.635-21.012-6.319-31.89-.708-11.269-1.414-22.587-1.115-33.857.277-10.448 1.811-20.868 2.926-31.286.664-6.202 1.59-12.377 2.485-19.228 4.265 3.028 8.471 6.206 13.794 1.54-6.84 23.132-14.539 45.478-12.568 69.569" fill="#FFF"/><path d="M706.444 339.133c3.954-2.135 3.506-5.498 2.933-8.595-.158-.849-2.096-1.919-3.182-1.881-.99.035-2.613 1.321-2.769 2.254-.497 2.975-.401 6.028 3.018 8.222m-31.759 81.229c1.209-6.66 1.799-12.25 3.269-17.599 5.51-20.04 11.28-40.009 17.062-59.974.33-1.141 1.473-2.621 2.507-2.883 3.617-.918 4.418-3.699 3.935-6.46-.697-3.98 1.132-6.921 2.57-10.857 5.965 5.11 11.441 9.825 16.943 14.509 8.302 7.066 16.549 14.2 24.98 21.109 2.367 1.94 3.185 3.881 2.391 6.784a547.343 547.343 0 00-4.373 17.015c-.514 2.152-1.636 3.424-3.626 4.425a5387.198 5387.198 0 00-45.337 23.066c-4.667 2.402-9.175 5.111-13.783 7.631-1.718.941-3.512 1.745-6.538 3.234m32.648-331.226h4.595c-1.426-2.366-2.878-2.468-4.595 0m-4.132 23.177c2.159 5.42 6.237 3.321 9.101 4.214 2.069.645 4.161.564 6.031-2.558l-15.132-1.656m-6.876 65.354c4.435 3 8.46 4.13 11.291 3.13.828-.292 1.335-1.494 2.492-2.882-4.83-.941-8.759-1.991-13.783-.248m17.655-31.027c-3.151-3.004-8.461-4.29-13.131-3.179 2.883 4.064 7.584 5.202 13.131 3.179m14.078-87.253c-5.616-.22-10.562-2.963-16.508-.918 3.34 4.994 8.233 2.198 11.892 3.597 1.458.557 3.611.6 4.616-2.679m-8.088 35.9c-4.55 1.33-10.851 9.09-12.037 14.136 5.587-3.208 8.995-7.889 12.037-14.136m-2.929 25.088c-7.04 2.013-14.298 13.211-13.429 19.672l13.429-19.672m11.41-54.62c-6.418 5.724-14.259 9.977-18.498 18.006 1.646-.156 3.352-.453 4.241-1.467 4.796-5.466 11.6-9.19 14.257-16.539M691.35 207.791c7.647-3.029 17.939-18.966 16.695-24.941l-16.695 24.941m7.908-33.404c5.677-7.076 11.39-14.014 15.825-23.063-5.761.908-6.811 5.104-8.922 7.92-5.863 7.82-7.57 11.69-6.903 15.143m-12.313 51.637l17.33-125.152h4.276c.269-.762.623-1.298.621-1.833-.015-3.432-2.693-1.851-5.015-2.341l5.732-48.33 21.103 3.593c2.562 2.764-3.725 8.318 3.172 9.973-4.972 9.188-5.823 18.701-4.901 28.737l-14.582-2.115c.954 3.528.954 3.528 7.901 5.027-.082 1.249-.141 2.573-.262 3.89-.568 6.188-1.404 12.366-1.598 18.564-.069 2.187 1.028 4.674 2.266 6.587 3.621 5.596 7.616 10.95 11.391 16.449 1.211 1.764 2.195 3.683 3.807 6.421l-17.476-.974 1.218-20.207c-3.695 1.972-3.482 4.426-3.759 6.683-1.256 10.203-2.544 20.402-3.819 30.603-1.25 10.002-2.417 20.015-3.816 29.996-.289 2.061-1.046 4.288-2.256 5.95-6.295 8.645-12.805 17.131-19.24 25.673-.583.774-1.158 1.553-2.093 2.806m-25.463 243.101c-5.911-14.31-11.671-28.613-12.666-44.46-.837-13.312-1.751-26.562-1.157-39.928.907-20.411 3.548-40.57 7.705-60.541 4.828-23.204 12.561-45.459 21.287-67.484 7.101-17.923 17.464-33.625 29.108-48.686a30.26 30.26 0 015.708-5.68c-.22.593-.354 1.237-.672 1.771-12.832 21.497-21.558 44.754-28.844 68.551-10.129 33.079-17.414 66.817-21.168 101.224-1.66 15.217-3.183 30.559-3.06 45.831.134 16.439.232 33.038 3.759 49.402M3.215 762.293c1.505-1.133 2.924-2.41 4.53-3.377 35.508-21.398 71.048-42.745 106.56-64.137 97.706-58.856 195.384-117.762 293.112-176.583 55.621-33.478 111.32-66.826 166.983-100.236 3.121-1.873 6.21-3.801 9.357-5.63.563-.327 1.338-.288 1.89-.394.302.597.42.765.471.951.047.174.094.488.016.534A2606699.7 2606699.7 0 015.844 763.392c-.422.255-1.133.032-1.71.032l-.919-1.131" fill="#FFF"/><path d="M641.663 382.733c-3.521-3.354-5.849-6.102-6.016-9.92-.718-16.358-.91-32.753 3.454-48.689 2.817-10.285 5.958-20.563 12.012-29.956-6.523-8.698-16.053-14.43-23.646-22.864 2.939-2.06 5.546-3.88 8.144-5.711 1.819-1.28 4.014-2.258 5.369-3.92 5.702-6.989 13.671-8.607 21.889-9.861 3.55-.541 7.075-1.243 11.351-2.002-19.203 42.428-29.562 86.295-32.557 132.923m-55.617-119.284l-6.521 18.227c-4.787-3.456-9.162-1.78-13.437-.3-17.753 6.146-35.471 12.395-53.197 18.619-.952.334-1.921.684-2.788 1.188-2.786 1.62-3.216 3.486-.945 5.809 2.678 2.74 5.619 5.233 8.557 7.702a12996.09 12996.09 0 0043.251 36.184c2.202 1.834 4.719 3.368 3.349 7.435-8.027-6.286-16.072-12.266-23.751-18.682-9.768-8.162-19.088-16.865-28.925-24.94-3.461-2.841-7.878-4.517-12.672-7.177l2.513-10.152c12.848-.233 23.727-5.766 35.035-9.737 10.482-3.68 20.929-7.46 31.338-11.344 3.642-1.359 7.111-2.794 10.527.948l.832-1.036c-.822-1.366-1.448-2.91-2.499-4.07-8.953-9.886-17.986-19.701-26.99-29.543-1.501-1.64-2.912-3.368-4.485-4.935-1.071-1.067-2.35-1.925-3.768-3.061l-11.239 25.543c1.768.593 2.849 1.205 3.97 1.291 9.264.713 18.532 1.428 27.81 1.905 2.439.125 4.342.39 5.339 3.969l-42.659-2.135 14.715-33.364c6.033-.238 11.891 1.184 17.711 2.491 1.376.309 2.523 1.921 3.639 3.067 8.171 8.393 16.308 16.819 25.29 26.098m12.299 75.288l-27.219-4.724 7.281-34.605c9.076.014 17.617.917 26.042 2.831 2.785.633 4.237 2.868 3.5 5.314-3.065 10.195-6.255 20.353-9.604 31.184m115.305-40.15l2.693-4.174c3.868 4.102 7.594 7.669 10.872 11.61 8.242 9.906 16.254 20.001 24.42 29.969 1.508 1.841 2.259 3.678 1.66 6.077-.767 3.071-1.351 6.186-2.254 10.41l-43.701-37.696 6.032-15.665.278-.531zm-92.553-29.303l-11.052 25.788-29.58-2.612 10.599-27.52 30.033 4.344m-4.451 168.738c7.656-6.786 15.068-13.787 26.76-8.986l5.676 26.907-18.683 9.445c-1.146-1.253-2.397-2.26-3.187-3.549-3.45-5.632-6.821-11.276-7.597-18.104-.204-1.789-1.736-3.427-2.969-5.713" fill="#FFF"/><path d="M510.199 303.343l24.227-8.365c-1.27 3.484-2.379 6.02-3.118 8.659-1.276 4.562-.349 6.931 4.146 7.685 4.613.773 7.525 3.523 10.473 6.472 3.851 3.852 7.575 7.836 11.251 11.858 1.903 2.081 3.584 4.365 5.365 6.558l1.014-.732v14.644c-18.449-15.008-35.454-30.605-53.358-46.779m57.631 37.072l32.059 7.027 1.428 9.696-15.298 8.198V377l-9.957-1.839-8.232-34.746m85.489-94.804l33.281-49.513.823.423c-1.434 10.275-2.909 20.544-4.279 30.827-.504 3.78-.361 7.736-2.838 10.937-.922 1.191-2.199 2.611-3.535 2.896-7.442 1.589-14.951 2.862-23.452 4.43m11.73-208.639c.103-2.919-1.361-4.498-4.218-4.547-3.158-.055-6.02 2.13-6.014 4.592.005 2.625 2.706 5.046 5.677 5.09 2.749.04 4.441-1.866 4.555-5.135m7.133.904c.263 9.004-3.851 13.768-12.071 13.976-8.455.215-14.463-4.84-14.789-12.442-.315-7.348 6.525-14.631 13.901-14.801 7.902-.183 12.709 4.738 12.959 13.267m-1.677 389.162c.534-11.458 2.092-22.195 4.682-32.771 2.924-11.943 5.802-23.909 9.225-35.712 1.139-3.929 3.899-7.387 6.394-10.899-4.624 12.108-7.676 24.613-10.413 37.199-2.77 12.727-7.414 25.105-7.648 39.512 30.397-16.477 60.258-32.023 92.199-46.162-4.244 5.074-84.871 46.407-94.439 48.833M705.19 29.171l-27.126-2.975 1.212-11.452c3.703.94 7.284 2.26 10.475-1.316 2.639-2.959 3.192-5.876 1.378-9.678 6.023-1.093 10.902 1.667 13.604 5.75 3.633 5.487 3.421 12.185.457 19.671m68.632 354.525c-3.316-6.372-2.452-12.354-2-17.993 1.008-12.55 4.317-24.639 9.625-36.092 1.305-2.814 2.398-6.248 6.964-6.205 2.501 8.332.444 16.525-.571 24.712-8.295.299-11.389 2.277-11.731 7.164-.321 4.598.575 5.38 8.118 6.832-2.15 7.516-4.066 15.037-10.405 21.582m-170.484 34.19l25.58-9.134a189.698 189.698 0 0114.262 15.082c-9.724-.259-18.428 1.003-25.212 8.084-5.723-3.966-13.299-5.377-14.63-14.032m38.495-118.493l-11.169 36.427c-6.219-7.356-12.631-15.058-18.677-23.534l29.846-12.893m-13.401 42.671l-20.925 14.417c-5.027-10.449-1.334-22.834 2.988-38.235l17.937 23.818m1.996 3.529c.546 9.005 1.215 17.02 1.461 25.048.197 6.45 2.869 11.891 7.077 16.241 2.522 2.605 3.062 4.854 2.27 8.373l-9.655 3.372-5.912-6.474c.806-1.411 1.778-2.921 2.542-4.53.404-.846.938-2.169.573-2.756-2.899-4.667-1.22-9.904-2.017-14.816-.714-4.399-2.905-7.279-7.257-8.333-.976-.236-1.998-.27-2.983-.473-.953-.196-1.884-.491-3.861-1.02 3.569-2.823 6.487-5.058 9.322-7.394 2.747-2.263 5.407-4.629 8.44-7.238m12.707-51.65l-28.849 11.366c-.726-4.417 3.978-17.629 10.776-29.738 5.874 6.309 13.096 10.975 18.073 18.372" fill="#FFF"/><path d="M534.17 308.23l1.179-8.56c4.822-.947 8.725-1.34 12.384-2.504 9.216-2.935 18.323-6.217 27.804-9.473.097 3.172-.876 5.144-4.473 6.242-7.724 2.357-15.291 5.231-22.906 7.941-1.468.522-2.861 1.261-5.14 2.282 1.349 1.822 2.208 3.276 3.345 4.465 5.169 5.401 10.413 10.732 15.639 16.08 1.449 1.483 2.807 2.962.684 5.569-1.721-1.725-3.381-3.393-5.045-5.058-3.856-3.857-7.779-7.651-11.549-11.589-2.97-3.101-5.893-6.126-11.922-5.395m106.13-53.172c-4.88 4.143-9.86 6.16-14.625 8.524-.312.155-.773.061-1.155.01-8.243-1.091-16.485-2.193-25.767-3.431 5.423-3.661 10.151-6.9 14.95-10.034.592-.387 1.594-.421 2.333-.266 7.796 1.626 15.577 3.324 24.264 5.197m-78.87 211.108l-4.257-3.148c.281-.504.427-1.214.834-1.429 9.976-5.255 19.978-10.46 29.978-15.668 5.527-2.879 11.06-5.747 16.812-8.735l6.775 2.868-50.142 26.112" fill="#FFF"/><path d="M565.746 321.496l-16.773-16.664 23.848-9.53-7.075 26.194m-31.189-63.334l7.832-18.907 18.91 19.594-.416 1.213c-8.671-.272-17.346-.432-26.326-1.9m79.579 178.879c-1.708-.731-3.579-1.223-5.089-2.246-2.849-1.931-4.834-1.833-7.986.281-6.066 4.068-12.858 7.053-19.349 10.487l-.602-1.103L602 432.364c-7.572-17.207-17.877-32.116-23.731-49.145l1.172-.716c.834.97 1.9 1.82 2.466 2.926 4.215 8.252 8.136 16.66 12.543 24.806 3.444 6.368 7.368 12.484 11.28 18.582.807 1.257 2.484 1.975 3.802 2.881 1.761 1.21 3.564 2.361 5.348 3.537l-.744 1.806m69.068-394.388l-1.274-6.672c5.011.706 8.84 2.872 12.54 5.145.902.555 1.562 2.446 1.416 3.607-.776 6.148-1.843 12.257-2.848 18.622-2.613 0-4.398-.151-6.146.042-1.742.192-3.626.384-5.136 1.173-6.74 3.521-10.38 2.729-15.465-3.723l7.138-3.079c6.627 5.025 9.921 5.413 15.378 2.237 3.602-2.097 3.095-5.298 2.698-8.522-.718-5.816-1.918-7.087-8.301-8.83m-71.643 356.975l5.847-3.611 5.637 5.916-24.261 7.737-9.499-16.902 22.276 6.86m-98.403 123.166l11.96 6.346-9.548 17.561c-5.678.088-9.495-2.593-12.773-7.495 6.6-2.183 13.289-3.318 19.406-8.441-6.773-.82-10.879 3.369-16.893 4.243l7.848-12.214m132.371-275.796l43.604-64.489 1.133.455c-.214 1.483-.17 3.067-.704 4.423-.727 1.845-1.763 3.608-2.895 5.249-11.576 16.774-23.139 33.557-34.88 50.216-1.394 1.976-2.334 5.606-6.258 4.146m-80.44 118.441c-5.621-1.963-11.248-3.91-16.861-5.895-9.476-3.35-18.939-6.74-28.418-10.082-3.202-1.128-6.359-2.477-9.893-.903-.695.31-1.869-.454-3.684-.967l2.369-6.214c7.999 2.892 15.158 5.406 22.262 8.066a2876.677 2876.677 0 0132.131 12.264c1.135.44 2.048 1.451 3.065 2.196l-.971 1.535" fill="#FFF"/><path d="M499.07 537.053c.643 5.69 3.813 9.757 8.754 12.152 2.428 1.176 5.336 1.649 8.066 1.827 2.734.178 4.184 1.162 4.231 3.875.045 2.674-1.41 4.145-4.044 4.253-1.39.057-2.853-.013-4.183-.382-7.313-2.03-12.962-6.449-16.894-12.829-2.862-4.644-1.841-6.597 4.07-8.896m4.322-44.422c7.862.912 14.695-.14 21.729 2.623l-11.016 18.685-10.713-21.308M747.148 61.676c5.427 10.256 2.141 23.073-6.377 31.66-3.534-2.704-1.894-6.582-1.776-9.685.293-7.819 2.175-15.253 8.153-21.975m16.065 306.863c-5.305-2.38-78.552-64.852-82.382-70.978 1.305.858 2.72 1.587 3.898 2.595 15.039 12.862 30.067 25.737 45.047 38.668 10.392 8.969 20.708 18.024 31.042 27.06.68.593 1.223 1.344 2.395 2.655m-40.725-73.308c3.272.853 6.071 2.44 8.334 5.163 10.556 12.707 21.21 25.333 31.723 38.075 1.33 1.612 4.165 3.309.721 6.574l-40.778-49.812m2.65-176.509l17.233 1.047-1.932 21.06-15.301-22.107m40.861 219.291c-4.384-3.177-6.217-6.838-4.486-12.046.932-2.806 1.118-5.859 1.742-9.369l12.908 6.631c-1.92 2.614-3.734 4.964-5.415 7.405-1.591 2.31-3.043 4.714-4.749 7.379m-159.694 52.472c-13.07-2.922-14.203-4.306-14.298-17.193l13.177 2.955 1.121 14.238m-45.611 81.163c-.374.757-.56 1.946-1.151 2.204-6.038 2.634-12.138 5.13-18.24 7.616-.479.195-1.108.026-2.252.026l10.84-18.076 10.949 8.353-.146-.123zM678.96 30.336l26.335 1.164 3.334 8.677c-5.527-.008-10.476.37-15.29-2.097-4.414-2.263-9.034-4.12-13.556-6.174-.543-.247-1.035-.606-1.551-.913l.728-.657m59.023 272.891l19.996 10.156-1.701 12.833c-7.513-7.16-12.758-15.059-19.033-22.047l.738-.942M569.351 474.4c-10.18 18.598-20.157 37.313-32.128 54.966-.862-2.083.07-3.62 1.001-5.199 2.46-4.172 4.312-8.86 7.436-12.445 4.46-5.118 5.837-11.65 9.295-17.169 3.427-5.472 6.552-11.133 9.903-16.654.94-1.549 2.209-2.898 3.327-4.339l1.166.84m5.809-189.471c-10.386 3.67-20.758 7.47-31.247 10.912-1.807.593-4.112-.333-6.256-1.701 1.572-.691 3.11-1.48 4.723-2.06 9.28-3.334 18.592-6.579 27.86-9.947 2.427-.881 4.323-1.18 4.92 2.796m45.321 101.178l-7.483 4.601c-2.445-4.097-1.755-8.597-2.508-12.725-.166-.912 1.309-2.407 2.358-3.196 2.216-1.667 4.649-3.044 7.633-4.95v16.27z" fill="#FFF"/><path d="M560.841 471.771c1.982-1.573 3.778-3.499 5.979-4.661 14.453-7.638 28.975-15.146 43.53-22.589 1.616-.826 3.253-2.753 5.87-.784-.866.817-1.524 1.777-2.434 2.244a8030.123 8030.123 0 01-49.623 25.313c-.962.486-2.277.275-3.449.371l.127.106m156.448-185.018l67.219 33.964c-3.565.049-4.397-.035-6.796-1.236a28088.813 28088.813 0 01-59.606-29.9c-.671-.338-1.185-.99-1.773-1.495l.956-1.333M516.482 514.975l21.291-9.395.775.833-9.207 15.389-12.859-6.827m28.485-19.228l-10.572-6.433c.447-.985.512-1.525.78-1.659 6.232-3.105 12.487-6.167 19.649-9.684-2.547 6.751-6.345 11.746-9.857 17.776M728.738 48.442l-17.332-3.208 2.609-10.869 15.199 12.941-.476 1.136m24.987 316.31l10.807 9.575c-4.532 4.271-9.441 5.673-15.191 7.688l4.384-17.263m13.238 4.125c-1.356-14.52-.809-27.537 9.554-38.445l-9.554 38.445m13.065-17.288c8.811 2.229 17.394 1.89 26.113 4.666-4.717 3.095-7.597 3.202-26.113 1.408v-6.074zM676.996 35.586c4.519 6.555 3.927 10.378-1.858 16.622-5.594 6.037-13.352 7.523-19.918 3.935 5.076-1.496 10.682-2.26 15.362-4.76 5.446-2.907 6.474-8.889 6.414-15.797m17.577 296.023v4.217c-7.612.77-15.009-.873-22.471-1.197.401-4.633.714-5.081 4.776-4.777 5.775.432 11.531 1.132 17.695 1.757M578.148 440.953l13.879-17.202 5.086 7.953-18.138 10.391-.827-1.142m138.655-410.67h15.133l-3.676 13.021-11.457-13.021m34.23 115.725c-2.008-9.715-1.234-19.201 2.445-28.441 1.343 9.63.769 19.127-2.445 28.441M714.092 287.33c-1.099 1.31-1.967 2.969-3.335 3.867-5.233 3.434-10.689 6.529-15.931 9.951-2.019 1.318-3.324 1.045-4.865-1.397 7.093-5.409 15.103-9.351 22.884-13.675l1.247 1.254M520.88 490.452c-6.474 1.342-13.268-2.162-20.061.549 1.526 8.327 6.565 14.803 8.815 22.373-3.58-1.26-3.648-4.714-4.919-7.348a97.512 97.512 0 01-3.554-8.352c-1.082-2.905-4.131-5.209-2.544-9.758l22.16.977.103 1.559m5.875-2.339c6.974 5.575 15.607 8.309 22.375 13.956l-.465 1.34c-1.011 0-2.218.364-3.001-.058-5.992-3.224-11.919-6.569-17.825-9.949-1.911-1.094-3.941-2.342-1.084-5.289m168.122-183.525c5.145-3.217 9.384-5.868 13.622-8.52l.793.54-6.415 14.238-8-6.258m63.59 40.389c5.612 5.082 4.779 3.354 3.747 16.473-8.909-4.42-6.765-4.834-3.747-16.473M565.881 448.061l23.38-28.883 1.242.755c-.468 1.111-.704 2.415-1.44 3.304-4.368 5.273-8.877 10.427-13.284 15.669-2.069 2.46-3.96 5.071-6.042 7.519-.856 1.006-2.003 1.765-3.018 2.636l-.838-1m33.967-35.17c17.365-7.312 23.086-8.9 27.092-6.92-8.78 3.101-16.886 5.99-25.035 8.752-.343.117-1.084-.939-2.057-1.832M741.433 61.778c-6.109 8.949-6.85 18.973-6.146 30.22-5.878-8.526-1.802-27.477 6.146-30.22M509.454 516.723c3.854.106 20.591 7.523 22.503 9.698.373.423.054 1.455.054 2.784-8.122-3.107-15.628-6.293-22.557-12.482m19.174-19.049l9.855 4.562-15.403 6.487-.782-.867 6.33-10.182m66.09-130.967c6.614-6.599 11.809-.805 17.887-.541-2.349 3.069-4.413 4.094-7.537 3.058-2.986-.991-6.125-1.515-10.35-2.517M745.729 143.51c-2.716-9.671-2.344-18.974 4.391-27.249-1.051 4.524-2.347 9.009-3.086 13.583-.728 4.508-.893 9.107-1.305 13.666m-6.357-100.038l-1.766 5.721c-1.177-.367-2.756-.522-2.827-.933-.53-3.112-1.165-6.296-1-9.416.27-5.122 2.43-7.827 5.406-7.888-1.029 2.414-2.551 4.781-2.908 7.311-.186 1.328 1.672 2.943 3.095 5.205M620.903 393.683c3.975 2.003 19.596 17.956 21.589 22.484-5.202-2.883-7.685-7.58-11.424-10.899-3.815-3.387-7.439-6.989-11.146-10.498l.981-1.087m-87.686 129.65c3.446-6.097 6.865-12.21 11.448-17.658.493 4.136-2.475 6.717-4.24 9.771-1.755 3.038-3.95 5.824-5.953 8.72l-1.255-.833M685.04 13.258c-1.21-1.603-2.845-3.05-3.505-4.854-.599-1.639-.069-3.679 2.29-4.09 2.134-.373 4.817 1.565 4.647 3.598-.138 1.643-.991 3.226-1.527 4.836l-1.905.51m1.129 33.311c2.941 3.553 4.048 9.036 1.855 11.146-1.095 1.054-2.726 1.861-4.224 2.104-1.587.256-3.304-.29-5.221-.516 2.905-1.72 6.15-2.588 7.335-4.643 1.169-2.029.255-5.259.255-8.091m53.147-10.005c6.118-.824 11.992.647 17.895 1.853-4.677 1.615-13.398.69-17.895-1.853M713.65 298.587l-.278.531-4.906 4.241 5.624-11.961 1.081.277c-.188 1.167-.326 2.345-.579 3.498-.254 1.151-.623 2.277-.942 3.414M634.353 400.91l6.939-2.747c-1.111 3.359-1.111 3.359-6.939 2.747" fill="#FFF"/><path d="M677.949 54.152l3.806-5.572c1.797 5.077 1.571 5.459-3.806 5.572m33.983-31.912l-2.424 11.167c-2.076-5.166 1.253-8.118 2.424-11.167m-15.787 294.599c3.084 3.386-.229 5.403-1.297 7.954l1.297-7.954m5.243 2.564c.892 4.567-1.814 6.524-3.121 9.008-.152-3.035.877-5.624 3.121-9.008m-23.428-12.645l.737-4.248c.819 0 1.338-.154 1.528.03.517.504 1.375 1.314 1.24 1.71-.444 1.3-1.269 2.47-1.946 3.69l-1.559-1.182m21.178 24.912v4.18l-1.202.102-.402-4.214 1.604-.068M557.339 482.141c.97-1.627 1.938-3.255 3.506-5.889.374 3.619-1.482 4.921-2.464 6.612l-1.042-.723m84.05-78.087v4.835l-3.563-2.866c1.12-.618 1.913-1.056 3.563-1.969m62.677-91.685l2.144-4.626.861.378-2.009 4.691-.996-.443m-117.026 75.85l-1.475-3.293 1.306-.476 1.006 3.472-.837.297m67.881 134.904L652.465 517l-.145.15 2.439 6.072.162-.099z" fill="#FFF"/><path d="M775.887 831.283l1.121-3.463 9.772-3.34c-.423-5.68-5.121-10.004-1.88-16.853 2.377 5.943 4.454 10.609 6.018 15.44.36 1.112-.654 3.266-1.703 4.127-3.606 2.958-7.566 5.372-13.328 4.089m-1.673-5.215l-12.044-30.677c3.498 1.116 5.252 2.39 6.207 5.06 2.159 6.041 4.494 12.021 6.87 17.981 1.036 2.6 1.352 4.993-1.033 7.636m-30.275-81.171c1.377 1.279 3.253 2.313 4.031 3.888 1.779 3.601 3.142 7.427 4.382 11.257.266.818-.705 2.038-1.107 3.073l-1.637-.017-6.829-17.373 1.16-.828m14.371 40.24l-7.359-18.221 3.521-2.05c1.764 6.566 6.728 11.832 3.838 20.27m17.749-1.71c-3.044.094-5.363-.5-6.194-4.14-.663-2.91-2.4-5.56-3.239-8.448-.564-1.947-.395-4.107-.553-6.172l1.442-.352c1.337 3.144 2.631 6.306 4.022 9.425 1.449 3.25 2.99 6.458 4.491 9.683l.031.004zM718.778 641.56l7.114 18.098-1.034.691c-1.161-1.181-2.714-2.168-3.408-3.579-1.932-3.925-3.621-7.985-5.132-12.092-.314-.855.55-2.144.87-3.234l1.59.116m-35.404-46.917c-2.177-6.405-4.365-12.807-6.463-19.238-.055-.17.879-.662 2.041-1.503 2.326 6.964 6.359 12.995 6.313 20.342l-1.891.399m55.471 140.783l-6.788-17.208c1.327-.271 2.877-.777 2.973-.579 1.827 3.777 3.754 7.548 5.055 11.519.603 1.837-.083 4.097-.185 6.165l-1.055.103m-7.408-19.059l-6.686-16.999.867-.872c1.222.988 2.935 1.732 3.572 3.012 1.693 3.405 3.05 7 4.233 10.619.243.74-.85 1.917-1.986 4.24m-17.906-46.238l-7.23-18.089c4.11 1.835 4.332 1.76 6.546 8.31 1.008 2.982 3.854 5.733 2.372 9.301l-1.688.478m-22.278-96.273c3.001 5.304 5.33 10.797 7.194 17.31-5.343-3.113-8.527-10.933-7.194-17.31m-11.728-28.482c-.79-.315-1.95-.399-2.312-.981-2.779-4.466-4.998-13.473-4.063-17.688 1.896 3.233 2.8 6.1 3.872 8.884 1.136 2.946 2.305 5.879 3.46 8.818l-.957.967m-18.884-6.74c-.298-1.502-.775-2.997-.832-4.508-.036-.989.538-1.999.934-3.313 4.385 5.228 6.584 12.005 5.908 18.667-2.29-4.088-4.226-7.544-6.172-11.011l.162.165m35.251 84.413c4.425 3.375 7.39 11.834 6.913 19.028-3.385-6.892-5.543-12.831-6.913-19.028m19.587 15.889c-.789-1.129-1.887-2.152-2.313-3.404-1.649-4.854-5.176-9.236-3.828-14.941 3.627 5.328 5.55 11.335 7.801 17.202l-1.66 1.143m-68.121-134.122c-1.327-4.335-2.652-8.671-3.982-13.005-.486-1.582-1.995-3.117-.291-4.871 3.986 3.593 7.348 13.66 6.442 19.118l-2.356-1.411.187.169m39.76 97.819c3.422-.07 3.837 2.312 4.679 4.245 3.673 8.44 3.957 9.592 2.838 13.76-3.664-6.116-5.526-11.954-7.517-18.005m-12.352-30.589l-6.251-15.819c4.184 1.181 7.17 5.783 8.642 13.061.103.513.047 1.216-.24 1.609-.297.408-.964.547-2.151 1.149m-17.451-86.325l7.164 18.037c-1.691-.228-2.904-.14-3.012-.443-2.004-5.652-6.262-10.677-5.397-17.145l1.245-.449m59.398 187.106c3.237 4.982 6.219 10.03 5.965 16.936-3.762-3.755-7.02-12.37-5.965-16.936m45.764 78.213c-6.428-2.005-6.271-7.87-8.424-12.321-.271-.561.77-1.757 1.823-3.954l6.601 16.275m-18.731-46.803c-6.617-2.54-6.145-9.006-9.767-14.952 2.411.669 3.972.667 4.226 1.243 1.988 4.507 3.726 9.125 5.541 13.709m5.202 12.939l5.909 14.793c-1.599 0-3.313.303-3.458-.045-1.917-4.627-5.647-8.855-2.451-14.748" fill="#000"/><path d="M776.028 783.422l5.248 15.838c-4.671-.823-5.409-1.943-7.996-11.98.908-1.265 1.837-2.558 2.772-3.853.007 0-.024-.005-.024-.005m-70.382-173.906c-5.216-3.218-7.957-9.136-7.347-14.92 2.743 1.414 4.034 3.975 7.347 14.92m-50.887-86.294l-2.438-6.072.378-4.179c1.387 1.223 2.764 1.906 3.287 2.998a81.583 81.583 0 014.044 10.086c.254.787-.824 2.004-1.51 3.512l-3.761-6.345m81.388 162.318c-1.246.118-2.825.49-2.928.245-1.916-4.595-5.589-8.798-3.542-15.234 3.151 4.961 4.506 9.864 6.47 14.989m-56.562-136.714c3.582 1.273 3.582 1.273 7.634 13.234-4.48-1.15-6.253-4.119-7.634-13.234m-9.949-31.776c-4.696-2.168-6.366-5.829-5.097-10.956 2.904 3.294 3.475 7.011 5.097 10.956m-29.105-32.969l-4.137-10.824c4.635 2.269 6.304 6.287 4.137 10.824m65.913-144.948c-3.419-2.194-3.515-5.247-3.018-8.222.156-.933 1.779-2.219 2.769-2.254 1.086-.038 3.024 1.032 3.182 1.881.573 3.097 1.021 6.46-2.933 8.595m-7.186-164.746c-.667-3.453 1.04-7.323 6.903-15.143 2.112-2.815 3.161-7.012 8.922-7.919-4.434 9.048-10.148 15.986-15.825 23.062m-7.909 33.403l16.695-24.941c1.244 5.975-9.048 21.912-16.695 24.941m37.102-142.036c-2.657 7.35-9.461 11.074-14.257 16.54-.889 1.013-2.596 1.311-4.241 1.466 4.239-8.029 12.08-12.281 18.498-18.006m-11.41 54.62l-13.429 19.672c-.869-6.461 6.389-17.658 13.429-19.672m2.929-25.087c-3.042 6.248-6.45 10.928-12.037 14.136 1.186-5.046 7.487-12.805 12.037-14.136m8.087-35.9c-1.005 3.279-3.157 3.236-4.615 2.679-3.659-1.4-8.553 1.396-11.893-3.598 5.946-2.045 10.893.698 16.508.919M713.98 146.64c-5.548 2.023-10.248.885-13.132-3.179 4.67-1.111 9.981.175 13.132 3.179m-17.655 31.026c5.023-1.743 8.953-.693 13.783.248-1.157 1.388-1.664 2.59-2.492 2.882-2.831 1-6.856-.13-11.291-3.13m6.876-65.353l15.132 1.655c-1.87 3.123-3.962 3.204-6.031 2.558-2.864-.893-6.942 1.206-9.101-4.213m4.132-23.177c1.717-2.468 3.169-2.366 4.595 0h-4.595zm-45.39-48.889c.161-2.346 1.097-4.186-1.407-4.942-.498-.151-1.644.497-1.876 1.04-1.002 2.34.59 3.048 3.283 3.902m3.105-3.275c-.114 3.269-1.805 5.175-4.554 5.135-2.972-.044-5.672-2.464-5.678-5.09-.006-2.462 2.856-4.647 6.015-4.592 2.856.049 4.32 1.628 4.217 4.547" fill="#000"/><path d="M661.943 40.247c-2.693-.854-4.285-1.562-3.283-3.902.232-.543 1.378-1.191 1.876-1.04 2.504.756 1.568 2.596 1.407 4.942" fill="#FFF"/></g></svg>