<?xml version="1.0" encoding="UTF-8"?>
<svg width="1234px" height="861px" viewBox="0 0 1234 861" version="1.1" xmlns="http://www.w3.org/2000/svg" xmlns:xlink="http://www.w3.org/1999/xlink">
    <title>stage</title>
    <g id="stage" stroke="none" stroke-width="1" fill="none" fill-rule="evenodd">
        <g id="LOGOS-Y-GRAFICAMesa-de-trabajo-1-copia-10" fill-rule="nonzero">
            <path d="M563.93,567.79 C561.88279,568.806417 559.759741,569.662323 557.58,570.35 C545.01,573.35 532.58,576.73 519.46,577.27 C499.24,578.11 479.05,579.67 458.85,580.81 C441.76,581.81 424.66,582.53 407.58,583.46 C395.7,584.11 383.84,584.92 371.96,585.6 C354.88,586.6 337.8,587.5 320.71,588.47 C308.21,589.17 295.71,589.93 283.22,590.63 C273.22,591.19 263.22,591.69 253.22,592.23 C240.3,592.94 227.38,593.63 214.47,594.37 C206.14,594.85 197.8,595.28 189.47,595.95 C179.28,596.76 169.12,598.08 158.92,598.67 C144.74,599.51 130.54,599.84 116.34,600.45 C104.26,600.97 92.17,601.51 80.09,602.18 C72.39,602.61 67.28,598.4 63.82,592.44 C60.2364432,586.54603 58.3247784,579.787793 58.29,572.89 C58.37,501.776667 58.2633333,430.66 57.97,359.54 C57.71,296.38 57.18,233.22 56.72,170.06 C56.51,140.57 56.14,111.06 55.96,81.6 C55.96,76.6 56.63,71.6 56.67,66.6 C56.67,62.87 56.01,59.14 55.95,55.4 C55.73,41.81 55.56,28.22 55.56,14.63 C55.5796361,11.7117731 55.9899488,8.80931536 56.78,6 C58.06,1.31 60.78,-0.06 65.67,0.79 C97.83,6.33 129.39,14.55 160.81,23.12 C229.96,41.96 298.81,61.82 367.92,80.86 C426.99,97.14 485.25,115.86 542.51,137.64 C547.003333,139.346667 551.463333,141.14 555.89,143.02 C562.46,145.83 565.83,150.46 565.62,158.02 C565.25,171.96 565.4,185.92 565.51,199.87 C565.73,226.43 566.34,252.99 566.301878,279.55 C566.22,329.12 565.8,378.68 565.52,428.25 C565.38,452.93 565.3,477.61 565.08,502.25 C564.89,522.95 564.54,543.64 564.24,564.33 C564.23,565.45 564.06,566.47 563.93,567.79 Z M107.35,102.87 L106.94,102.42 C108.187477,100.782246 109.522767,99.2132803 110.94,97.72 C127.06,82.5333333 143.206667,67.3733333 159.38,52.24 C164.02,47.89 168.68,43.58 174.06,38.58 C137.19,29.05 101.22,20 64.31,12.25 C64.31,24.8 64.16,36.49 64.31,48.17 C64.6,67.38 65.08,86.59 65.52,105.8 C65.52,107.28 65.87,108.8 66.14,110.89 C67.85,109.27 68.9,108.26 69.96,107.28 C87.57,90.92 105.12,74.52 122.81,58.28 C126.73,54.68 130.94,51.28 137.5,49.09 C131.25,57.59 124.5,63.69 117.85,69.89 C102.01,84.74 85.91,99.34 69.85,113.89 C66.8363592,116.469777 65.2013014,120.309574 65.43,124.27 C65.72,162.33 65.8,200.39 65.95,238.45 C65.95,239.6 66.09,240.75 66.21,242.59 C67.1030729,242.058349 67.9614683,241.470498 68.78,240.83 C84.78,225.83 100.78,210.83 116.92,195.95 C123.81,189.62 131.15,183.77 138.28,177.7 L138.77,178.22 C138.600682,178.595 138.385723,178.947666 138.13,179.27 C115.376667,201.756667 92.59,224.23 69.77,246.69 C67.1348407,249.040323 65.698642,252.452672 65.86,255.98 C66.02,285.68 65.95,315.38 65.95,345.09 L65.95,351.09 L109.39,356.92 C109.86,350.71 110.53,344.92 110.68,339.19 C111.21,318.5 111.55,297.81 111.99,277.12 C112.07,273.57 112.31,270.03 112.41,266.48 C112.306743,264.550354 113.506346,262.789844 115.34,262.18 C122.84,259.09 130.25,255.8 137.74,252.7 C152,246.8 166.3,241 180.58,235.13 C182.22,237.5 183.8,238.87 185.58,239.43 C198.15,243.3 210.77,246.99 223.36,250.78 C224.584652,251.220706 225.777477,251.745282 226.93,252.35 L226.93,260.09 L182.88,246.36 C183.14,250.58 183.37,254.24 183.61,258 C185.72,258.63 187.49,259.17 189.27,259.69 C200.71,263 212.16,266.22 223.56,269.64 C227.56,270.85 227.56,271.06 226.43,276.24 L183.7,263.41 L183.7,282 L227.44,292.09 L227.44,297.25 L183.65,286.31 C183.34,292.19 183.07,297.31 182.78,302.74 L227.88,312.12 C227.63,314.35 227.47,315.71 227.32,317.12 L183.04,307.21 L183.04,322.16 L227.88,332.16 C227.64,334.38 227.49,335.74 227.32,337.26 C212.41,334.1 198.2,329.22 183,327 L183,343 C191.14,344.64 199.06,346.33 207,347.73 C208.49,347.99 210.19,347.13 211.78,346.73 C216.93,345.36 222.08,343.96 227.6,342.48 C227.97,357.6 228.6,372.01 228.6,386.41 C228.706667,447.076667 228.706667,507.743333 228.6,568.41 C228.6,570.71 228.6,573.01 228.73,575.31 C228.894453,576.045056 229.156793,576.754721 229.51,577.42 L234.93,576.34 C234.93,568.47 235.02,561.17 234.93,553.87 C234.8,544.87 234.31,535.93 234.31,526.97 C234.31,517.14 234.9,507.31 234.86,497.49 C234.68,462.98 234.15,428.49 234.13,393.96 C234.13,363.43 234.9,332.9 234.86,302.38 C234.74,223.94 234.456667,145.506667 234.01,67.08 C234.01,62.85 233.01,58.63 232.44,54.43 C220.15,51.13 208.59,48.27 197.22,44.82 C193.16,43.6 190.44,44.56 187.77,47.25 C187.18,47.84 186.6,48.45 185.98,49 C181.273333,53.18 176.556667,57.3466667 171.83,61.5 L170.98,60.58 L188.44,42.94 C185.37,41.94 183.22,41.32 181.13,40.54 C179.04,39.76 177.64,40.54 176.13,41.89 C158.863333,57.37 141.563333,72.8066667 124.23,88.2 C118.68,93.09 113,98 107.35,102.87 Z M296.18,123.77 L297.08,124.77 C295.39,126.45 293.8,128.24 291.99,129.77 C276.776667,142.81 261.526667,155.81 246.24,168.77 C243.729844,170.605878 242.300765,173.57281 242.43,176.68 C242.59,201.57 242.51,226.46 242.54,251.35 C242.54,252.96 242.84,254.56 243,256.16 C259.11,261.16 274.85,266.01 290.62,270.81 C303.993333,274.883333 317.39,278.883333 330.81,282.81 C333.95,283.73 335.81,285.01 335.71,288.81 C335.45,306.37 335.47,323.94 335.4,341.5 C335.4,343.37 335.4,345.23 335.4,347.24 C337.11,347.79 338.46,348.32 339.85,348.65 C348.79,350.75 357.75,352.8 366.69,354.89 C368.32,355.27 369.93,355.7 371.52,356.2 C373.97,356.97 374.99,358.71 373.88,361.03 C371.69,365.6 372.35,370.43 372.21,375.2 C371.95,384.09 372.52,392.98 372.28,401.88 C371.94,414.21 371.98,426.55 371.89,438.88 C371.89,442.73 372.67,443.61 376.58,443.99 C378.03,444.13 379.51,443.99 380.97,444.07 C386.97,444.5 393.05,444.86 399.07,445.46 C402.83,445.84 403.07,446.46 402.72,451.24 C377.72,449.85 352.72,447.38 327.43,447.63 C327.68,453.13 327.91,458.06 328.16,463.63 L403.58,465.22 C403.32,467.22 403.17,468.37 402.98,469.82 C377.82,469.9 353.09,467.82 328.51,467.94 L328.51,485.41 L403.41,487.7 C403.31,489.44 403.25,490.61 403.14,492.54 L328.29,489.59 C328.73,496.79 329.15,503.51 329.55,510 L354.55,510 C362.71,510 370.87,510 379.02,510 C387.17,510 395.16,510.1 403.02,510.14 C403.74,513.08 403.65,514.83 400.9,514.95 C399.23,515.03 397.56,515.03 395.9,515.01 L336.31,514.31 C334.08,514.31 331.86,514.31 329.84,514.31 L329.84,537.1 L403.27,534.94 L403.27,539.8 L329.74,541.54 L329.74,557.26 C342.04,556.34 353.81,555.05 365.6,554.69 C377.39,554.33 389.49,552.32 401.43,553.8 C401.95,557.01 400.38,557.88 398.37,558.15 C395.48,558.55 392.57,558.91 389.66,559.02 C373.4,559.68 357.12,560.24 340.86,560.9 C337.19,561.05 333.53,561.46 329.52,561.77 C329.78,563.77 329.87,565 330.09,566.18 C330.31,567.36 330.62,568.43 330.95,569.77 C357.13,568.27 382.95,568.32 409.2,564.77 L409.2,103.88 L241.59,56.88 C241.44,59.31 241.26,60.75 241.29,62.18 C241.68,84.96 242.15,107.73 242.49,130.5 C242.64,140.5 242.49,150.58 242.49,160.62 C242.49,162.18 242.7,163.74 242.85,165.79 L296.18,123.77 Z M460.18,193.87 C481.75,176.1 504.55,159.87 526.86,141.56 C490.47,129.45 455.44,116.66 418.73,106.96 C418.73,110.12 418.64,112.6 418.73,115.06 C418.89,118.6 419.4,122.12 419.42,125.65 C419.6,162.656667 419.753333,199.656667 419.88,236.65 C419.88,238.21 420.1,239.76 420.28,242.27 C456.49,215.45 490.45,187.27 526.71,162.12 C525.436606,163.927571 523.914998,165.546805 522.19,166.93 C497.396667,186.376667 472.556667,205.78 447.67,225.14 C439.92,231.14 431.86,236.77 424.04,242.71 C422.46,243.91 420.42,245.57 420.18,247.25 C419.61,251.25 419.99,255.31 419.99,259.41 C421.13,259.28 421.38,259.32 421.52,259.22 C441.173333,244.34 460.796667,229.45 480.39,214.55 C481.22,213.93 482.04,213.29 482.91,212.71 C483.436627,212.388393 483.992423,212.117191 484.57,211.9 C484.76206,211.857305 484.963179,211.901185 485.12,212.02 C485.23,212.11 485.25,212.32 485.64,213.32 C478.64,218.81 471.49,224.51 464.25,230.1 C450.69,240.55 437.05,250.9 423.54,261.41 C422.02,262.59 420.16,264.54 420.1,266.19 C419.78,275.92 419.95,285.67 419.95,295.99 C422.6,295.19 424.57,294.65 426.51,293.99 C441.176667,289.116667 455.843333,284.226667 470.51,279.32 C474.82539,277.712762 479.521707,277.427293 484,278.5 C503.233333,283.353333 522.473333,288.156667 541.72,292.91 C544.03,293.49 546.37,293.91 549.12,294.56 C549.55,245.81 548.87,197.85 549.49,149.34 L531.25,143 C508.16,161 485.49,179.25 460.21,193.87 L460.18,193.87 Z M130.89,582.48 C131.03,580.74 131.2,579.48 131.21,578.26 C131.51,545.453333 131.793333,512.643333 132.06,479.83 C132.226667,456.21 132.373333,432.59 132.5,408.97 C132.5,407.3 132.77,405.64 132.77,403.97 C132.77,392.73 132.77,381.49 132.77,369.6 L100,365.2 C99.41,438.44 98.94,510.88 100.11,583.2 L112,583.2 C112.15,581.79 112.33,580.78 112.35,579.78 C112.64,559.51 113.07,539.24 113.17,518.96 C113.41,471.96 113.48,424.89 113.64,377.85 C113.590096,375.973074 113.737572,374.0961 114.08,372.25 C114.28,371.32 115.31,370.56 116.94,368.5 C119.3,393.5 117.94,417.04 118.17,440.5 C118.4,463.96 118.35,487.76 118.17,511.38 C117.99,535 117.51,558.49 117.17,582.48 L130.89,582.48 Z M154.5,582.19 C155,572.46 155.89,563.53 155.82,554.6 C155.68,533.92 154.82,513.24 154.72,492.6 C154.6,465.41 154.91,438.22 155.1,411.03 C155.1,406.65 155.64,402.27 155.69,397.89 C155.79,389.57 155.69,381.26 155.69,372.63 L137,370.16 L137,583 L154.5,582.19 Z M94.57,584.51 C94.7717058,583.745248 94.9154467,582.966372 95,582.18 C95,571.33 94.88,560.48 94.84,549.63 C94.69,514.12 94.46,478.63 94.44,443.09 C94.44,419.09 94.69,395 94.81,370.96 C94.81,368.96 94.65,366.9 94.54,364.47 L79.84,362.39 C79.6604832,363.545933 79.546966,364.711154 79.5,365.88 C79.84,377.15 80.37,388.41 80.56,399.68 C80.8333333,416.613333 80.9766667,433.546667 80.99,450.48 C81.0566667,484.78 81.0566667,519.076667 80.99,553.37 C80.99,557.55 80.64,561.72 80.64,565.9 C80.64,572.07 80.28,578.27 80.87,584.51 L94.57,584.51 Z M187.71,580.07 C187.71,577.07 187.61,574.75 187.71,572.48 C188.37,560.21 189.48,547.94 189.71,535.66 C190.34,500.37 190.56,465.07 191.08,429.77 C191.34,412.04 191.91,394.31 192.34,376.57 C192.47,371.57 192.27,366.52 192.82,361.57 C193.28,357.44 192.99,352.57 199.39,350.57 L182.25,346.67 C182.25,350.01 182.3,352.27 182.25,354.53 C181.97,365.58 181.76,376.64 181.35,387.68 C180.6,407.26 179.35,426.83 179,446.41 C178.3,488.81 178.07,531.21 177.66,573.61 C177.66,575.88 177.66,578.15 177.66,580.99 L187.71,580.07 Z M548.55,408.76 L482.48,402.49 C482.05,412.78 481.65,422.49 481.23,432.56 C504.11,434.35 526.11,437.09 548.55,438.26 L548.55,408.76 Z M66.29,360.66 C66.14,363.35 65.91,365.2 65.98,367.03 C66.19,373.29 66.73,379.54 66.75,385.8 C66.95,448.5 67.1033333,511.196667 67.21,573.89 C67.21,574.52 67.21,575.15 67.21,575.77 C67.35,582.65 68.03,583.24 75.49,582.89 L75.49,361.67 L66.29,360.66 Z M548.59,403.08 L548.59,379.91 C526.93,375.99 505.13,373.53 482.74,370.84 L482.74,398.23 L548.59,403.08 Z M483.11,340.4 L483.11,366.11 L548.87,373.36 L548.87,350.36 L483.11,340.4 Z M482,517 L547.58,513.77 C549.42,507.05 548.74,500.72 548.67,494.5 C534.34,492.41 488.67,491.25 482,492.86 L482,517 Z M481.59,436.65 C481.38,445.42 481.44,453.41 481.5,461.89 C504.39,462.6 526.36,463.43 548.42,462.76 L548.42,444 L481.59,436.65 Z M482.97,310.86 L482.97,335.6 L549.26,344.77 C549.05,337.45 549.61,330.67 548.96,324.47 L482.97,310.86 Z M267.83,358 C300.91,361.82 332.46,371.87 365.53,375.52 C366.01,371.87 366.43,368.65 366.93,364.84 L267.83,341.11 L267.83,358 Z M548.59,469 L481.94,466.4 L481.94,486.68 C504.44,486.44 526.4,488.45 548.59,487.86 L548.59,469 Z M481.12,542.27 L547.78,537.43 C548.076958,531.202917 548.053594,524.964684 547.71,518.74 L482.84,521 L481.12,542.27 Z M365.64,380.5 C331.93,378.13 300.85,366.93 268.55,363.16 L268.55,376.78 L364.34,391.78 C364.76,388.17 365.15,384.74 365.64,380.5 Z M363.23,413.9 C332.69,408.84 302.7,403.9 272.71,398.9 C271.573921,398.780376 270.43236,398.720294 269.29,398.72 L269.29,412 C293.66,415.49 317.57,419 341.5,422.3 C348.62,423.3 355.8,423.79 363.23,424.54 L363.23,413.9 Z M268.48,393.9 C300.82,397.9 331.92,404.99 364,407.74 L364,397.5 C332.28,391.18 300.44,386.5 268.48,381.8 L268.48,393.9 Z M482.57,304.61 C484.33,305.05 485.57,305.4 486.75,305.61 C502.75,308.88 518.64,312.17 534.59,315.37 C539.2,316.29 543.87,316.95 548.78,317.78 L548.78,302.87 C537.44,300.13 526.53,297.33 515.54,294.87 C504.55,292.41 493.47,289.31 481.42,287.99 C481.83,294 482.19,299.06 482.57,304.57 L482.57,304.61 Z M326.26,307 L242.82,282.54 L242.82,295.74 L326.26,317.63 L326.26,307 Z M325.62,324.28 L242.87,301.6 L242.87,315.87 L325.62,333.13 L325.62,324.28 Z M268.62,428.05 C299.87,431.94 331.14,436.32 363.09,436.32 L363.09,430.19 L269.29,416.6 C268.83,420.09 268.42,422.95 268.1,425.82 C268.165747,426.590311 268.326983,427.349463 268.58,428.08 L268.62,428.05 Z M242.73,276 L326.82,301.32 L326.82,292.32 C317.82,288.09 248.02,266.72 242.73,266.62 L242.73,276 Z M363,442.25 L363,440.64 C352.66,439.71 342.33,438.57 332,437.92 C326,437.54 320,438.42 314,437.92 C304.65,437.1 295.37,435.52 286.05,434.34 C280.31,433.62 274.56,433.03 268.46,432.34 C267.84,439.92 265.46,446.7 267.46,454.23 C272.71,453.23 277.78,452.1 282.89,451.23 C288,450.36 292.25,447.92 296.89,445.99 C302.41,443.68 308.51,442.69 314.41,441.34 C317.022646,440.67384 319.714647,440.37099 322.41,440.44 C331.58,440.89 340.73,441.81 349.89,442.19 C354.22,442.35 358.7,443.9 363,442.25 Z M481.7,559.42 L547.55,554.24 L547.55,546.05 L481.7,548.05 L481.7,559.42 Z M242.81,334.74 C246.48,336.69 249.81,336.07 253.37,335.16 C257.96,333.98 263,332 267.37,332.87 C279.75,335.37 292.37,337.44 304.08,342.52 C305.94,343.33 308.48,344.32 310.08,343.67 C314.01,342.07 317.39,343.67 320.99,344.31 C322.73,344.6 324.49,344.73 326.13,344.92 C327,341.97 326.78,340.22 324,339.54 C321.38,338.9 318.84,337.88 316.2,337.32 C300.52,333.96 284.82,330.73 269.2,327.37 C260.51,325.5 251.86,323.45 242.91,321.37 L242.81,334.74 Z M419,533.56 L435.47,533.56 L435.47,515.56 C429.8,514.92 424.52,514.66 419,515.76 L419,533.56 Z M418.86,509.33 C424.5,510.88 429.86,510 435.59,508.93 C435.77,503.62 436.45,498.54 435.12,493.24 C429.47,493.14 424.19,492.67 418.86,493.52 L418.86,509.33 Z M435.86,487.83 L435.86,471.24 L419.16,471.24 L419.16,487.83 L435.86,487.83 Z M436.08,453.09 L419.82,453.09 L419.82,465.29 C425.36,465.73 430.57,467.01 436.1,465.39 L436.08,453.09 Z M435.68,539.61 C427.55,538.49 424.03,538.68 418.68,540.48 L418.68,551.7 L435.68,549.81 L435.68,539.61 Z M418.81,564.26 L435.45,563 L435.45,555 C429.67,555.76 424.07,554.89 418.83,557.32 L418.81,564.26 Z" id="Shape" fill="#000000"></path>
            <path d="M296.18,123.77 L242.89,165.77 C242.74,163.72 242.53,162.16 242.53,160.6 C242.53,150.6 242.64,140.52 242.53,130.48 C242.19,107.71 241.72,84.94 241.33,62.16 C241.33,60.73 241.48,59.29 241.63,56.86 L409.24,103.86 L409.24,564.76 C383,568.32 357.17,568.27 330.99,569.76 C330.66,568.42 330.33,567.31 330.13,566.17 C329.93,565.03 329.82,563.8 329.56,561.76 C333.56,561.45 337.23,561.04 340.9,560.89 C357.16,560.23 373.44,559.67 389.7,559.01 C392.61,558.9 395.52,558.54 398.41,558.14 C400.41,557.87 401.99,557 401.47,553.79 C389.53,552.31 377.58,554.32 365.64,554.68 C353.7,555.04 342.08,556.33 329.78,557.25 L329.78,541.54 L403.31,539.8 L403.31,534.94 L329.88,537.1 L329.88,514.41 C331.88,514.41 334.12,514.41 336.35,514.41 L395.94,515.11 C397.62,515.11 399.29,515.11 400.94,515.05 C403.69,514.93 403.78,513.18 403.06,510.24 C395.22,510.24 387.15,510.13 379.06,510.1 C370.97,510.07 362.75,510.1 354.59,510.1 L329.59,510.1 C329.19,503.61 328.77,496.89 328.33,489.69 L403.18,492.64 C403.29,490.71 403.35,489.54 403.45,487.8 L328.55,485.51 L328.55,468 C353.13,467.87 377.86,470 403.02,469.88 C403.21,468.43 403.36,467.3 403.62,465.28 L328.2,463.69 C327.95,458.08 327.72,453.15 327.47,447.69 C352.72,447.44 377.74,449.91 402.76,451.3 C403.14,446.49 402.87,445.9 399.11,445.52 C393.11,444.92 387.05,444.52 381.01,444.13 C379.55,444.03 378.07,444.19 376.62,444.05 C372.71,443.67 371.9,442.79 371.93,438.94 C372.02,426.61 371.98,414.27 372.32,401.94 C372.56,393.04 371.99,384.15 372.25,375.26 C372.39,370.49 371.73,365.66 373.92,361.09 C375.03,358.77 374.01,357.03 371.56,356.26 C369.97,355.76 368.36,355.33 366.73,354.95 C357.79,352.86 348.83,350.81 339.89,348.71 C338.5,348.38 337.15,347.85 335.44,347.3 C335.44,345.3 335.44,343.43 335.44,341.56 C335.51,324 335.49,306.43 335.75,288.87 C335.81,285.06 333.99,283.78 330.85,282.87 C317.43,278.943333 304.033333,274.943333 290.66,270.87 C274.89,266.07 259.15,261.18 243.04,256.22 C242.88,254.62 242.58,253.02 242.58,251.41 C242.58,226.52 242.58,201.63 242.47,176.74 C242.340765,173.63281 243.769844,170.665878 246.28,168.83 C261.613333,155.91 276.863333,142.91 292.03,129.83 C293.84,128.28 295.43,126.49 297.12,124.83 L296.18,123.77 Z M314.79,130.77 C297.38,143.96 281.29,158.7 265.07,173.29 C283.54,161.38 298.93,145.81 314.79,130.81 L314.79,130.77 Z" id="Shape" fill="#FFFFFF"></path>
            <path d="M138.29,177.73 C131.16,183.8 123.82,189.65 116.93,195.98 C100.77,210.82 84.83,225.9 68.79,240.86 C67.9714683,241.500498 67.1130729,242.088349 66.22,242.62 C66.1,240.78 65.96,239.62 65.96,238.48 C65.81,200.42 65.73,162.36 65.44,124.3 C65.2113014,120.339574 66.8463592,116.499777 69.86,113.92 C85.94,99.32 102.04,84.72 117.86,69.92 C124.47,63.72 131.26,57.62 137.51,49.12 C130.95,51.34 126.74,54.71 122.82,58.31 C105.13,74.57 87.58,90.97 69.97,107.31 C68.91,108.31 67.86,109.31 66.15,110.92 C65.88,108.79 65.57,107.31 65.53,105.83 C65.09,86.62 64.61,67.41 64.32,48.2 C64.14,36.52 64.32,24.83 64.32,12.28 C101.23,20.03 137.2,29.08 174.1,38.61 C168.72,43.61 164.1,47.92 159.42,52.27 C143.253333,67.4233333 127.113333,82.5733333 111,97.72 C109.582767,99.2132803 108.247477,100.782246 107,102.42 L88.3,119.21 L89.19,120.21 C92.8,116.95 96.46,113.76 99.99,110.42 C102.54,108.01 104.9,105.42 107.35,102.88 C112.99,97.96 118.68,93.1 124.27,88.13 C141.603333,72.7233333 158.903333,57.2866667 176.17,41.82 C177.72,40.43 179.17,39.7 181.17,40.47 C183.17,41.24 185.41,41.87 188.48,42.87 L171.06,60.5 L171.91,61.42 C176.63,57.26 181.346667,53.0933333 186.06,48.92 C186.68,48.37 187.26,47.76 187.85,47.17 C190.52,44.48 193.24,43.52 197.3,44.74 C208.67,48.19 220.23,51.05 232.52,54.35 C233.06,58.55 234.07,62.77 234.09,67 C234.463333,145.433333 234.746667,223.866667 234.94,302.3 C234.94,332.82 234.2,363.35 234.21,393.88 C234.21,428.39 234.76,462.88 234.94,497.41 C234.94,507.23 234.38,517.06 234.39,526.89 C234.39,535.89 234.88,544.82 235.01,553.79 C235.13,561.09 235.01,568.39 235.01,576.26 L229.59,577.34 C229.236793,576.674721 228.974453,575.965056 228.81,575.23 C228.7,572.93 228.68,570.63 228.68,568.33 C228.68,507.663333 228.68,446.996667 228.68,386.33 C228.68,371.93 228.01,357.52 227.68,342.4 C222.16,343.88 217.01,345.28 211.86,346.65 C210.27,347.07 208.57,347.93 207.08,347.65 C199.08,346.25 191.19,344.56 183.08,342.92 L183.08,327 C198.29,329.22 212.5,334.1 227.45,337.31 C227.62,335.79 227.77,334.43 228.01,332.21 L183.17,322.21 L183.17,307.24 L227.45,317.15 C227.6,315.73 227.76,314.37 228.01,312.15 L182.91,302.77 C183.2,297.33 183.47,292.22 183.78,286.34 L227.57,297.28 L227.57,292.12 L183.74,282 L183.74,263.41 L226.47,276.24 C227.58,271.06 227.64,270.85 223.6,269.64 C212.2,266.22 200.75,263 189.31,259.69 C187.53,259.17 185.76,258.63 183.65,258 C183.41,254.24 183.18,250.58 182.92,246.36 L227,260.09 L227,252.35 C225.847477,251.745282 224.654652,251.220706 223.43,250.78 C210.84,246.99 198.22,243.3 185.65,239.43 C183.83,238.87 182.25,237.5 180.65,235.13 C166.3,241 152,246.8 137.74,252.7 C130.25,255.8 122.84,259.09 115.34,262.18 C113.506346,262.789844 112.306743,264.550354 112.41,266.48 C112.31,270.03 112.07,273.57 111.99,277.12 C111.55,297.81 111.21,318.5 110.68,339.19 C110.53,344.96 109.86,350.71 109.39,356.92 L66,351.09 L66,345.09 C66,315.38 66.07,285.68 65.91,255.98 C65.748642,252.452672 67.1848407,249.040323 69.82,246.69 C92.7,224.316667 115.49,201.853333 138.19,179.3 C138.445723,178.977666 138.660682,178.625 138.83,178.25 L144.61,173.25 L143.78,172.32 L138.29,177.73 Z M193.8,148.18 L192.75,147.31 L122,214.66 L123.2,215.91 C146.69,193.3 173.73,174.4 193.8,148.18 Z M111.54,224.45 L112.39,225.3 L120.56,217.81 L119.68,216.86 L111.54,224.45 Z M160.12,72 L160.32,72 L165.92,64.61 L166.13,64.82 L160.12,72 Z" id="Shape" fill="#FFFFFF"></path>
            <path d="M460.21,193.87 C485.49,179.25 508.16,160.98 531.21,142.95 L549.44,149.36 C548.82,197.87 549.5,245.83 549.07,294.58 C546.32,293.97 543.98,293.51 541.67,292.93 C522.423333,288.15 503.183333,283.346667 483.95,278.52 C479.471707,277.447293 474.77539,277.732762 470.46,279.34 C455.793333,284.28 441.126667,289.17 426.46,294.01 C424.52,294.65 422.55,295.19 419.9,296.01 C419.9,285.69 419.73,275.94 420.05,266.21 C420.11,264.56 421.97,262.61 423.49,261.43 C437,250.92 450.64,240.57 464.2,230.12 C471.44,224.53 478.6,218.83 485.59,213.34 C485.2,212.34 485.18,212.13 485.07,212.04 C484.913179,211.921185 484.71206,211.877305 484.52,211.92 C483.942423,212.137191 483.386627,212.408393 482.86,212.73 C481.99,213.31 481.17,213.95 480.34,214.57 C460.78,229.456667 441.173333,244.34 421.52,259.22 C421.38,259.32 421.13,259.28 419.99,259.41 C419.99,255.31 419.61,251.21 420.18,247.25 C420.42,245.57 422.46,243.91 424.04,242.71 C431.86,236.77 439.92,231.15 447.67,225.14 C472.583333,205.806667 497.44,186.41 522.24,166.95 C523.964998,165.566805 525.486606,163.947571 526.76,162.14 C490.5,187.27 456.54,215.47 420.33,242.29 C420.15,239.78 419.94,238.23 419.93,236.67 C419.77,199.67 419.616667,162.67 419.47,125.67 C419.47,122.14 418.94,118.62 418.78,115.08 C418.67,112.62 418.78,110.14 418.78,106.98 C455.49,116.68 490.52,129.47 526.91,141.58 C504.58,159.91 481.78,176.1 460.21,193.87 Z" id="Path" fill="#FFFFFF"></path>
            <path d="M130.89,582.48 L117.2,582.48 C117.55,558.48 118.04,534.94 118.2,511.38 C118.36,487.82 118.42,464.13 118.2,440.5 C117.98,416.87 119.33,393.5 116.97,368.5 C115.34,370.56 114.31,371.32 114.11,372.25 C113.767572,374.0961 113.620096,375.973074 113.67,377.85 C113.51,424.85 113.44,471.92 113.2,518.96 C113.1,539.24 112.67,559.51 112.38,579.78 C112.38,580.78 112.18,581.78 112.03,583.2 L100.14,583.2 C98.97,510.9 99.44,438.46 100.03,365.2 L132.79,369.6 C132.79,381.49 132.79,392.73 132.79,403.97 C132.79,405.64 132.53,407.3 132.52,408.97 C132.36,432.59 132.213333,456.21 132.08,479.83 C131.833333,512.636667 131.55,545.446667 131.23,578.26 C131.2,579.5 131,580.74 130.89,582.48 Z" id="Path" fill="#FFFFFF"></path>
            <path d="M154.5,582.19 L137,583 L137,370.16 L155.76,372.59 C155.76,381.22 155.83,389.53 155.76,397.85 C155.71,402.23 155.2,406.61 155.17,410.99 C154.98,438.18 154.67,465.37 154.79,492.56 C154.88,513.24 155.79,533.92 155.89,554.56 C155.89,563.53 155,572.46 154.5,582.19 Z" id="Path" fill="#FFFFFF"></path>
            <path d="M94.57,584.51 L80.88,584.51 C80.29,578.27 80.64,572.07 80.65,565.9 C80.65,561.72 80.99,557.55 81,553.37 C81,519.083333 81,484.786667 81,450.48 C81,433.553333 80.8566667,416.62 80.57,399.68 C80.38,388.41 79.85,377.15 79.51,365.88 C79.556966,364.711154 79.6704832,363.545933 79.85,362.39 L94.55,364.47 C94.66,366.9 94.83,368.93 94.82,370.96 C94.7,394.96 94.43,419.04 94.45,443.09 C94.45,478.6 94.7,514.09 94.85,549.63 C94.85,560.48 94.97,571.33 95.01,582.18 C94.922164,582.966631 94.7750795,583.74551 94.57,584.51 L94.57,584.51 Z" id="Path" fill="#FFFFFF"></path>
            <path d="M187.71,580.07 L177.71,580.97 C177.71,578.13 177.71,575.86 177.71,573.59 C178.12,531.19 178.35,488.79 179.05,446.39 C179.37,426.81 180.65,407.24 181.4,387.66 C181.81,376.66 182.02,365.56 182.3,354.51 C182.35,352.25 182.3,349.99 182.3,346.65 L199.44,350.55 C193.04,352.55 193.33,357.43 192.87,361.55 C192.32,366.55 192.52,371.55 192.39,376.55 C191.96,394.29 191.39,412.02 191.13,429.75 C190.61,465.05 190.39,500.35 189.76,535.64 C189.54,547.92 188.43,560.19 187.76,572.46 C187.61,574.75 187.71,577 187.71,580.07 Z" id="Path" fill="#FFFFFF"></path>
            <path d="M548.55,408.76 L548.55,438.26 C526.11,437.09 504.11,434.35 481.23,432.56 C481.65,422.47 482.05,412.78 482.48,402.49 L548.55,408.76 Z" id="Path" fill="#FFFFFF"></path>
            <path d="M66.29,360.66 L75.49,361.66 L75.49,582.89 C68.03,583.24 67.35,582.65 67.21,575.77 C67.21,575.15 67.21,574.52 67.21,573.89 C67.0633333,511.223333 66.91,448.526667 66.75,385.8 C66.75,379.54 66.19,373.29 65.98,367.03 C65.91,365.2 66.14,363.35 66.29,360.66 Z" id="Path" fill="#FFFFFF"></path>
            <path d="M548.59,403.08 L482.74,398.23 L482.74,370.84 C505.13,373.53 526.93,375.99 548.59,379.91 L548.59,403.08 Z" id="Path" fill="#FFFFFF"></path>
            <polygon id="Path" fill="#FFFFFF" points="483.11 340.4 548.87 350.4 548.87 373.4 483.11 366.15"></polygon>
            <path d="M482,517 L482,492.82 C488.62,491.21 534.34,492.37 548.67,494.46 C548.74,500.68 549.42,507.01 547.58,513.73 L482,517 Z" id="Path" fill="#FFFFFF"></path>
            <path d="M481.56,436.61 L548.39,444 L548.39,462.76 C526.33,463.43 504.39,462.6 481.47,461.89 C481.41,453.37 481.35,445.38 481.56,436.61 Z" id="Path" fill="#FFFFFF"></path>
            <path d="M482.94,310.82 L548.94,324.43 C549.59,330.63 549.03,337.43 549.24,344.73 L482.95,335.56 L482.94,310.82 Z" id="Path" fill="#FFFFFF"></path>
            <path d="M267.83,358 L267.83,341.15 L366.93,364.88 C366.43,368.69 366.01,371.88 365.53,375.56 C332.46,371.91 300.91,361.86 267.83,358 Z" id="Path" fill="#FFFFFF"></path>
            <path d="M548.59,469.07 L548.59,487.93 C526.4,488.52 504.44,486.51 481.94,486.75 L481.94,466.47 L548.59,469.07 Z" id="Path" fill="#FFFFFF"></path>
            <path d="M481.12,542.34 L482.84,521 L547.71,518.78 C548.053594,525.004684 548.076958,531.242917 547.78,537.47 L481.12,542.34 Z" id="Path" fill="#FFFFFF"></path>
            <path d="M365.64,380.5 C365.15,384.74 364.76,388.17 364.34,391.75 L268.55,376.75 L268.55,363.16 C300.85,366.93 331.93,378.13 365.64,380.5 Z" id="Path" fill="#FFFFFF"></path>
            <path d="M363.23,413.9 L363.23,424.57 C355.8,423.82 348.62,423.32 341.5,422.33 C317.57,419.01 293.66,415.52 269.29,412.03 L269.29,398.74 C270.43236,398.740294 271.573921,398.800376 272.71,398.92 C302.7,403.87 332.69,408.84 363.23,413.9 Z" id="Path" fill="#FFFFFF"></path>
            <path d="M268.48,393.86 L268.48,381.8 C300.48,386.52 332.28,391.18 364,397.5 L364,407.7 C331.92,405 300.82,397.9 268.48,393.86 Z" id="Path" fill="#FFFFFF"></path>
            <path d="M482.57,304.57 C482.19,299.06 481.83,293.95 481.42,288.02 C493.47,289.34 504.42,292.45 515.54,294.9 C526.66,297.35 537.44,300.13 548.78,302.9 L548.78,317.81 C543.87,316.98 539.2,316.32 534.59,315.4 C518.59,312.2 502.7,308.91 486.75,305.64 C485.53,305.36 484.33,305 482.57,304.57 Z" id="Path" fill="#FFFFFF"></path>
            <polygon id="Path" fill="#FFFFFF" points="326.26 307 326.26 317.63 242.82 295.74 242.82 282.54"></polygon>
            <polygon id="Path" fill="#FFFFFF" points="325.62 324.31 325.62 333.13 242.87 315.87 242.87 301.6"></polygon>
            <path d="M268.58,428.08 C268.326983,427.349463 268.165747,426.590311 268.1,425.82 C268.42,422.95 268.83,420.09 269.29,416.6 L363.05,430.22 L363.05,436.35 C331.1,436.35 299.83,432 268.58,428.08 Z" id="Path" fill="#FFFFFF"></path>
            <path d="M242.73,276 L242.73,266.61 C248.02,266.71 317.79,288.08 326.82,292.31 L326.82,301.31 L242.73,276 Z" id="Path" fill="#FFFFFF"></path>
            <path d="M363,442.25 C358.68,443.9 354.2,442.35 349.84,442.17 C340.68,441.79 331.53,440.87 322.36,440.42 C319.664647,440.35099 316.972646,440.65384 314.36,441.32 C308.46,442.67 302.36,443.66 296.84,445.97 C292.23,447.9 287.9,450.36 282.84,451.21 C277.78,452.06 272.66,453.21 267.41,454.21 C265.41,446.68 267.82,439.9 268.41,432.32 C274.51,433.01 280.26,433.6 286,434.32 C295.32,435.5 304.6,437.08 313.95,437.9 C319.95,438.42 325.95,437.54 331.95,437.9 C342.31,438.55 352.64,439.69 362.95,440.62 L363,442.25 Z" id="Path" fill="#FFFFFF"></path>
            <polygon id="Path" fill="#FFFFFF" points="481.7 559.42 481.7 548.08 547.55 546.08 547.55 554.27"></polygon>
            <path d="M242.81,334.74 L242.81,321.41 C251.76,323.41 260.41,325.5 269.1,327.41 C284.77,330.77 300.47,334 316.1,337.36 C318.74,337.92 321.28,338.94 323.9,339.58 C326.68,340.26 326.9,342.01 326.03,344.96 C324.39,344.77 322.63,344.64 320.89,344.35 C317.29,343.74 313.89,342.11 309.98,343.71 C308.39,344.36 305.85,343.37 303.98,342.56 C292.23,337.48 279.65,335.41 267.27,332.91 C262.94,332.04 257.9,334.02 253.27,335.2 C249.82,336.07 246.48,336.69 242.81,334.74 Z" id="Path" fill="#FFFFFF"></path>
            <path d="M419,533.56 L419,515.79 C424.52,514.69 429.8,514.95 435.47,515.59 L435.47,533.59 L419,533.56 Z" id="Path" fill="#FFFFFF"></path>
            <path d="M418.84,509.33 L418.84,493.52 C424.17,492.67 429.45,493.14 435.1,493.24 C436.43,498.54 435.75,503.62 435.57,508.93 C429.88,510 424.48,510.88 418.84,509.33 Z" id="Path" fill="#FFFFFF"></path>
            <polygon id="Path" fill="#FFFFFF" points="435.88 487.83 419.16 487.83 419.16 471.24 435.88 471.24"></polygon>
            <path d="M436.1,453.09 L436.1,465.39 C430.57,467.01 425.36,465.73 419.82,465.29 L419.82,453.09 L436.1,453.09 Z" id="Path" fill="#FFFFFF"></path>
            <path d="M435.7,539.61 L435.7,549.81 L418.7,551.7 L418.7,540.48 C424.05,538.68 427.57,538.49 435.7,539.61 Z" id="Path" fill="#FFFFFF"></path>
            <path d="M418.83,564.26 L418.83,557.39 C424.07,554.96 429.67,555.83 435.45,555.07 L435.45,563.07 L418.83,564.26 Z" id="Path" fill="#FFFFFF"></path>
            <path d="M314.79,130.81 C298.93,145.81 283.54,161.38 265.07,173.33 C281.29,158.74 297.38,144 314.79,130.81 Z" id="Path" fill="#000000"></path>
            <path d="M193.8,148.18 C173.73,174.4 146.69,193.3 123.2,215.91 L122,214.66 L192.75,147.31 L193.8,148.18 Z" id="Path" fill="#000000"></path>
            <path d="M107.35,102.87 C104.9,105.39 102.54,108 99.99,110.41 C96.46,113.75 92.8,116.94 89.19,120.2 L88.3,119.2 L106.94,102.41 L107.35,102.87 Z" id="Path" fill="#000000"></path>
            <polygon id="Path" fill="#000000" points="111.54 224.45 119.68 216.86 120.56 217.81 112.39 225.3"></polygon>
            <polygon id="Path" fill="#000000" points="160.12 72 166.12 64.86 165.91 64.65 160.31 72.04"></polygon>
            <polygon id="Path" fill="#000000" points="138.29 177.73 143.73 172.32 144.56 173.25 138.78 178.25"></polygon>
            <path d="M1231.42,212.79 C1231.54667,246.85 1231.67667,280.916667 1231.81,314.99 C1231.92,339.8 1232.18,364.6 1232.23,389.41 C1232.23,402.25 1231.76,415.09 1231.86,427.93 C1232.02,447.99 1232.39,468.06 1232.86,488.12 C1233.29,506.41 1233.27,524.65 1229.45,542.65 C1228.68638,546.636974 1227.50313,550.531981 1225.92,554.27 C1220.55,566.27 1210.92,572.82 1197.99,573.54 C1190.67,573.95 1183.2,572.91 1175.89,571.87 C1157.39,569.23 1138.89,566.33 1120.47,563.33 C1105.79,560.95 1091.2,558.01 1076.47,555.8 C1062.68,553.74 1048.74,552.63 1034.95,550.52 C1015.57,547.52 996.27,544.1 976.95,540.81 C943.63,535.13 910.32,529.37 876.95,523.73 C840.08,517.48 803.21,511.19 766.29,505.19 C753.18,503.06 739.99,501.58 727.23,497.53 C722.963765,496.213015 719.152653,493.725398 716.23,490.35 C708.95,482.21 707.71,472.14 706.67,462.06 C705.67,451.77 704.94,441.49 706.26,431.06 C707.26,422.82 704.88,183.88 704.54,178.72 C704.06,171.59 705.81,164.87 707.69,158.11 C708.33245,155.211194 710.298608,152.782193 713,151.55 C719.75,148.43 726.35,144.95 733.26,142.24 C787.65,120.87 843.09,102.58 899.04,85.76 C978.95,61.76 1059.62,40.53 1140.53,20.21 C1161.93,14.84 1183.8,11.34 1205.47,7.12 C1211.53,5.94 1217.19,5.96 1222.71,10.27 C1228.56,14.83 1231.82,20.2 1231.92,27.41 C1232.07,39.12 1232.01,50.84 1231.92,62.55 C1231.71,86 1231.25,109.46 1231.18,132.91 C1231.1,159.53 1231.35,186.15 1231.45,212.77 L1231.42,212.79 Z" id="Path" fill="#000000"></path>
            <path d="M536.84,614.23 C549.71,606.97 562.15,609.45 574.58,612.11 C590.76,615.58 606.12,621.44 621.18,628.18 C631.75,632.92 638.28,641.66 642.88,651.69 C646.73,660.06 645.24,669.26 644.03,678.04 C641.76,694.54 629.15,705.98 612.54,707.41 C610.12,707.61 607.71,708.06 604.7,708.48 C605.02,713.4 605.63,718.21 605.57,723.02 C605.47,732.56 605.02,742.09 604.66,751.63 C604.59,753.63 604.1,755.63 604.19,757.63 C604.48,763.94 601.61,768.5 596.1,770.97 C591.28,773.14 586.74,774.97 583.1,779.37 C580.9,782.04 576.03,783.27 572.21,783.63 C565.7,784.26 558.73,785 554.29,779.24 L360.61,818.54 C360.83,824.18 361.45,829.97 358.85,835.78 C354.58,845.32 342.08,847.84 334.94,845.66 C332.82876,845.004498 331.042957,843.575855 329.94,841.66 C328.41,838.3 325.68,837.66 322.73,836.47 C299.936667,827.583333 277.193333,818.563333 254.5,809.41 C250.79,807.9 247.61,806.89 243.95,809.27 C240.61,811.44 237.17,810.86 233.88,808.82 C231.42,807.3 228.94,805.82 226.42,804.39 C221.36,801.54 217.68,798.03 220.22,791.88 C219.63,791.17 219.42,790.63 219.07,790.52 C211.4,788.05 208.52,781.66 205.87,774.88 C201.67,764.15 199.37,753.15 200.33,741.06 C197.63,739.42 194.9,737.59 192.03,736.06 C182.8,731.06 174.03,725.43 166.45,718.06 C164.273935,716.186361 162.704089,713.708023 161.94,710.94 C157,691 161.37,673.43 174.65,658 C181.88,649.59 190.78,644.13 202.42,642.86 C201.58,640.5 201.01,638.66 200.28,636.86 C193.91,621.39 188.21,605.62 185.4,589.13 C182.87,574.29 180.63,559.3 181.22,544.13 C181.534748,537.427203 183.633722,530.93005 187.3,525.31 C188.817379,523.15917 190.940987,521.509022 193.4,520.57 C200.225142,517.837416 207.572214,516.6556 214.91,517.11 C235.78,518.43 256.42,521.58 276.99,525.04 C289.46,527.14 301.64,530.9 313.99,533.53 C332.51,537.53 351.4,538.41 370.2,540.2 C380.54,541.2 390.14,538.93 399.74,536.48 C416.74,532.15 433.52,526.9 450.48,522.39 C465.48,518.39 480.58,514.56 495.77,511.29 C502.727689,509.828325 509.833231,509.190605 516.94,509.39 C531.94,509.78 542.1,521.78 542.84,537.15 C543.03,541.15 542.58,545.15 542.71,549.15 C543.31,567.46 540.89,585.5 538.15,603.52 C537.7,606.74 537.36,610 536.84,614.23 Z M207.67,642.49 C221.67,643.79 234.19,648.18 246.46,653.62 C257.24,658.41 268.01,663.39 279.2,666.98 C288.2,669.88 296.73,673.1 304.25,678.98 C305.82,680.2 308.88,680.17 311.1,679.8 C332.17,676.27 353.17,672.38 374.26,669.01 C378.504746,668.527547 382.132234,665.73184 383.68,661.75 C384.645359,659.741725 385.264085,657.584636 385.51,655.37 C386.35,645.19 387.4,634.99 387.56,624.78 C387.77,612.1 387.31,599.4 386.89,586.71 C386.59,577.81 385.96,568.9 382.59,560.49 C379.59,552.9 374.77,548.23 365.77,547.7 C354.025613,547.025947 342.335613,545.609787 330.77,543.46 C303.66,538.4 276.77,532.38 249.61,527.46 C236.34,525.03 222.95,522.54 209.27,523.72 C197.91,524.72 191.7,530.2 190.27,541.49 C189.61,546.55 188.92,551.72 189.27,556.77 C190.01,566.49 191.15,576.23 192.78,585.84 C196,604.94 201.72,623.44 207.67,642.49 Z M383.36,549.59 C390.73,560.49 392.45,572.35 393.04,584.38 C393.59,595.48 393.74,606.62 393.52,617.74 C393.28,630.39 392.52,643.04 391.8,655.67 C391.58,659.25 390.47,662.78 389.66,666.94 C396.66,665.75 402.99,664.64 409.32,663.63 C429.32,660.43 449.15,656.54 469.22,654.36 C482.09,652.96 495.22,654.1 508.59,654.1 C509.68,644.61 513.27,635.85 520.51,629.1 C523.69,626.1 524.95,622.73 525.51,618.64 C527.16,605.41 528.96,592.21 530.67,578.99 C532.61,563.99 534.55,548.99 532.67,533.85 C531.67,525.55 526.91,519.62 518.6,518.39 C513.137724,517.504101 507.574834,517.426605 502.09,518.16 C492,519.7 482.01,522.01 472.09,524.34 C452.22,528.98 432.4,533.84 412.57,538.65 C410.69,539.1 408.89,539.83 407.06,540.43 L407.06,541.82 L420.48,542.95 C408.68,548.22 396.63,551 383.36,549.59 Z M288.86,730.59 C295.31,733.42 298.19,732.06 299.53,725.23 C300.035308,722.595295 300.193318,719.905749 300,717.23 C299.74,713.23 297.15,710.95 293.65,709.37 C290.15,707.79 287.58,709.6 285.34,711.82 C278.19,718.92 274.34,727.77 274.85,737.65 C275.76,753.71 288.51,761.14 302.39,756.04 C310.63,753.04 317.72,747.8 319.39,738.67 C322.39,722.43 319,707.27 308.82,694.04 C302.165174,685.294815 293.141756,678.64178 282.82,674.87 C263.18,667.73 243.23,661.48 223.34,655.08 C219.268892,653.932941 215.107014,653.136698 210.9,652.7 C208.482235,652.380072 206.034926,652.349858 203.61,652.61 C189.2,654.1 179.61,662.41 173.24,674.82 C168.42,684.24 167.78,694.2 169.49,704.71 C170.87,713.2 174.27,719.09 182.49,722.41 C190.92,725.84 199.28,729.56 206.05,735.98 C207.091416,736.834527 208.26738,737.510368 209.53,737.98 C224.75,744.78 239.9,751.77 255.26,758.25 C261.79,761 266.42,765.63 270.93,770.75 C247.59,765 226,755.42 204.71,743.3 C204.601064,744.631108 204.601064,745.968892 204.71,747.3 C209.21,768.23 219.38,784.61 239.93,793.62 C267.85,805.87 295.93,817.62 324.83,827.44 C329.99,829.21 335.64,829.76 341.12,830.33 C343.26,830.55 345.55,829.24 347.38,828.74 C346.89,819.93 346.86,811.98 345.89,804.15 C344.89,796.04 342.99,788.05 341.43,779.75 C328.43,779.47 319.95,771.85 311.57,763.86 C308.19,765.53 305.17,766.86 302.27,768.49 C299.53,769.98 296.88,770.37 294.04,768.79 C288.41,765.67 282.7,762.67 277.1,759.49 C275.98405,758.757842 275.019775,757.817334 274.26,756.72 C263.72,743 266.65,717.22 280.07,706.07 C285.26,701.76 290.82,700.28 297.31,703.75 C304.16,707.42 308.51,712.64 308.53,720.51 C308.53,723.99 307.53,727.56 306.46,730.94 C304.74,736.5 300.73,739.12 294.88,739.05 C289.03,738.98 287.65,737.06 288.86,730.55 L288.86,730.59 Z M318.11,759.46 C322.11,761.84 325.66,763.71 328.97,765.9 C336.086707,770.601924 344.53509,772.8719 353.05,772.37 C364.13,771.85 375.36,771.26 386.17,769.03 C409.88,764.13 433.39,758.24 456.95,752.63 C463.69,751.02 467.26,746.15 468.26,739.23 C469.78,728.78 459.98,713.69 451.88,709.83 C441.44,704.83 430.88,699.94 421.03,694 C408.49,686.46 394.7,682.21 381.21,677.1 C379.524583,676.565401 377.74018,676.41841 375.99,676.67 C364.99,677.87 353.91,679.11 342.89,680.51 C332.84,681.78 322.82,683.26 311.27,684.86 C323.61,694.73 329.04,706.86 330.75,721.12 C332.52,735.82 329.49,748.85 318.11,759.42 L318.11,759.46 Z M473.23,747.81 C475.99,747.29 477.53,747.05 479.04,746.71 C499.66,742.096667 520.283333,737.473333 540.91,732.84 C549.8,730.84 558.7,728.84 567.51,726.51 C572.19,725.27 572.51,724.32 571.97,719.87 C571.36,714.58 571.04,709.24 570.13,704 C569.727061,701.423215 568.69683,698.985 567.13,696.9 C559.3,687.29 550,679.3 538.5,674.44 C527.65,669.86 516.62,665.63 505.5,661.88 C500.658575,660.213681 495.544246,659.484032 490.43,659.73 C477.14,660.6 463.8,661.65 450.68,663.81 C433.12,666.69 415.75,670.67 398.31,674.2 C397.606585,674.401351 396.918217,674.65197 396.25,674.95 C403.02,677.95 408.89,680.06 414.33,683.01 C428.03,690.42 441.68,697.95 455.02,706.01 C459.311353,708.764919 463.029586,712.323556 465.97,716.49 C472.47,725.42 476.74,735.33 473.23,747.77 L473.23,747.81 Z M600.78,683.09 C600.78,682.43 600.78,681.76 600.78,681.09 C602.78,680.39 604.87,679.74 606.88,678.99 C608.782031,678.377532 610.628656,677.604759 612.4,676.68 C614.8,675.28 616.4,671.3 615.56,669.2 C614.49,666.51 612.01,667.03 609.84,666.9 C602.51,666.45 597.71,670.46 593.91,676.07 C590.42,681.21 593.18,685.84 595.37,690.47 C595.75,691.27 596.26,692.01 596.7,692.79 C598.85,696.64 602.19,698.01 606.54,698.56 C619.12,700.14 636.54,689.36 635.62,674.05 C635.610335,672.491546 635.710584,670.93435 635.92,669.39 C637.13,655.89 630.52,643.55 618.12,638.06 C600.455858,630.11506 582.107316,623.789131 563.3,619.16 C554.84,617.16 547.04,618.56 540.13,624.32 C531.134181,631.669485 523.911674,640.953123 519,651.48 C518.412103,653.04043 517.950616,654.645602 517.62,656.28 C518.32,656.83 518.62,657.28 519.02,657.35 C521.55,658.18 524.08,659.08 526.67,659.71 C545.51,664.3 560.67,674.62 573.42,689.02 C576.66,692.69 578.96,696.74 578.98,701.53 C578.98,708.62 578.61,715.73 577.98,722.79 C577.61,727.07 575.31,730.07 570.72,731.17 C568.03,731.81 565.53,733.27 563.06,734.31 C564.16,742.99 565.15,750.91 566.21,759.31 C574.95,761.01 583.42,765.85 592.31,759.9 C593.25,742.08 598.31,724.99 597.57,706.74 C590.44,704.24 588.06,697.89 585.49,691.32 C581.58,681.32 584.03,673.02 590.82,665.49 C596.75,658.91 603.82,655.32 612.82,658.17 C617.41,659.62 621.52,661.86 622.3,667.36 C623.14,673.24 621.85,678.51 617.24,682.47 C615.868747,683.59859 614.155703,684.229526 612.38,684.26 C608.54,684.14 604.66,683.48 600.78,683.05 L600.78,683.09 Z M558.33,737.22 C489.33,753.77 421.65,772.38 351.76,780.22 C353.35,790.86 354.84,800.87 356.28,810.53 L555,768.21 C556.11,757.62 557.2,747.56 558.33,737.18 L558.33,737.22 Z" id="Shape" fill="#000000"></path>
            <path d="M207.67,642.49 C201.72,623.49 195.97,604.94 192.73,585.8 C191.1,576.19 189.96,566.45 189.22,556.73 C188.83,551.68 189.52,546.51 190.22,541.45 C191.69,530.16 197.9,524.65 209.22,523.68 C222.9,522.5 236.29,524.99 249.56,527.42 C276.68,532.42 303.61,538.42 330.72,543.42 C342.285613,545.569787 353.975613,546.985947 365.72,547.66 C374.72,548.19 379.49,552.86 382.54,560.45 C385.91,568.86 386.54,577.77 386.84,586.67 C387.26,599.36 387.72,612.06 387.51,624.74 C387.35,634.95 386.3,645.15 385.46,655.33 C385.214085,657.544636 384.595359,659.701725 383.63,661.71 C382.082234,665.69184 378.454746,668.487547 374.21,668.97 C353.12,672.34 332.12,676.23 311.05,679.76 C308.83,680.13 305.77,680.16 304.2,678.94 C296.68,673.06 288.2,669.84 279.15,666.94 C267.96,663.35 257.15,658.37 246.41,653.58 C234.19,648.18 221.67,643.79 207.67,642.49 Z" id="Path" fill="#FFFFFF"></path>
            <path d="M383.36,549.59 C396.63,551.04 408.68,548.22 420.36,542.92 L407,541.79 L407,540.4 C408.83,539.8 410.63,539.07 412.51,538.62 C432.34,533.81 452.16,528.95 472.03,524.31 C482.03,521.98 491.98,519.67 502.03,518.13 C507.514834,517.396605 513.077724,517.474101 518.54,518.36 C526.85,519.59 531.54,525.52 532.61,533.82 C534.52,549 532.61,563.97 530.61,578.96 C528.9,592.18 527.1,605.38 525.45,618.61 C524.94,622.7 523.68,626.09 520.45,629.07 C513.21,635.85 509.62,644.61 508.53,654.07 C495.18,654.07 482.03,652.93 469.16,654.33 C449.09,656.51 429.22,660.4 409.26,663.6 C402.93,664.6 396.62,665.72 389.6,666.91 C390.41,662.75 391.52,659.22 391.74,655.64 C392.5,643.01 393.22,630.36 393.46,617.71 C393.68,606.59 393.53,595.45 392.98,584.35 C392.45,572.35 390.73,560.49 383.36,549.59 Z" id="Path" fill="#FFFFFF"></path>
            <path d="M288.86,730.55 C287.65,737.06 289.02,739 294.86,739.07 C300.7,739.14 304.72,736.52 306.44,730.96 C307.44,727.58 308.52,723.96 308.51,720.53 C308.51,712.66 304.14,707.44 297.29,703.77 C290.8,700.3 285.24,701.77 280.05,706.09 C266.63,717.24 263.7,743.02 274.24,756.74 C274.999775,757.837334 275.96405,758.777842 277.08,759.51 C282.68,762.69 288.39,765.69 294.02,768.81 C296.86,770.39 299.51,770 302.25,768.51 C305.15,766.92 308.17,765.51 311.55,763.88 C319.93,771.88 328.41,779.49 341.41,779.77 C342.97,788.07 344.87,796.06 345.87,804.17 C346.87,812 346.87,819.95 347.36,828.76 C345.53,829.26 343.24,830.57 341.1,830.35 C335.62,829.78 329.97,829.23 324.81,827.46 C295.95,817.61 267.81,805.89 239.91,793.64 C219.36,784.64 209.19,768.25 204.69,747.32 C204.581064,745.988892 204.581064,744.651108 204.69,743.32 C226,755.42 247.59,765 270.86,770.71 C266.35,765.59 261.72,760.96 255.19,758.21 C239.83,751.73 224.68,744.74 209.46,737.94 C208.19738,737.470368 207.021416,736.794527 205.98,735.94 C199.21,729.52 190.85,725.8 182.42,722.37 C174.24,719.05 170.84,713.16 169.42,704.67 C167.71,694.16 168.35,684.2 173.17,674.78 C179.5,662.37 189.17,654.06 203.54,652.57 C205.964926,652.309858 208.412235,652.340072 210.83,652.66 C215.037014,653.096698 219.198892,653.892941 223.27,655.04 C243.16,661.44 263.11,667.69 282.75,674.83 C293.071756,678.60178 302.095174,685.254815 308.75,694 C318.93,707.23 322.3,722.39 319.32,738.63 C317.65,747.76 310.56,752.96 302.32,756 C288.44,761.1 275.69,753.67 274.78,737.61 C274.22,727.73 278.12,718.88 285.27,711.78 C287.51,709.56 290.01,707.72 293.58,709.33 C297.15,710.94 299.67,713.22 299.93,717.19 C300.123318,719.865749 299.965308,722.555295 299.46,725.19 C298.19,732 295.31,733.38 288.86,730.55 Z" id="Path" fill="#FFFFFF"></path>
            <path d="M318.11,759.42 C329.49,748.85 332.52,735.82 330.75,721.08 C329.04,706.86 323.61,694.69 311.27,684.82 C322.82,683.22 332.84,681.74 342.89,680.47 C353.89,679.07 364.95,677.83 375.99,676.63 C377.74018,676.37841 379.524583,676.525401 381.21,677.06 C394.7,682.17 408.49,686.42 421.03,693.96 C430.92,699.9 441.44,704.83 451.88,709.79 C459.98,713.65 469.78,728.79 468.26,739.19 C467.26,746.11 463.69,750.98 456.95,752.59 C433.39,758.2 409.88,764.09 386.17,768.99 C375.36,771.22 364.17,771.81 353.05,772.33 C344.545167,772.825338 336.108341,770.555639 329,765.86 C325.66,763.67 322.14,761.8 318.11,759.42 Z" id="Path" fill="#FFFFFF"></path>
            <path d="M473.23,747.77 C476.74,735.33 472.47,725.42 465.89,716.43 C462.944645,712.281554 459.226728,708.740196 454.94,706 C441.6,698 427.94,690.43 414.25,683 C408.81,680 402.94,677.92 396.17,674.94 C396.838217,674.64197 397.526585,674.391351 398.23,674.19 C415.67,670.66 433.04,666.68 450.6,663.8 C463.72,661.64 477.06,660.59 490.35,659.72 C495.464246,659.474032 500.578575,660.203681 505.42,661.87 C516.58,665.62 527.61,669.87 538.42,674.43 C549.92,679.29 559.22,687.28 567.05,696.89 C568.61683,698.975 569.647061,701.413215 570.05,703.99 C570.96,709.23 571.28,714.57 571.89,719.86 C572.4,724.31 572.11,725.26 567.43,726.5 C558.62,728.84 549.72,730.81 540.83,732.83 C520.21,737.496667 499.586667,742.12 478.96,746.7 C477.53,747 476,747.25 473.23,747.77 Z" id="Path" fill="#FFFFFF"></path>
            <path d="M600.78,683.05 C604.66,683.48 608.54,684.14 612.43,684.24 C614.205703,684.209526 615.918747,683.57859 617.29,682.45 C621.9,678.45 623.19,673.22 622.35,667.34 C621.57,661.84 617.46,659.6 612.87,658.15 C603.87,655.3 596.77,658.89 590.87,665.47 C584.08,673 581.63,681.31 585.54,691.3 C588.11,697.87 590.54,704.22 597.62,706.72 C598.32,724.97 593.3,742.06 592.36,759.88 C583.47,765.88 575,760.99 566.26,759.29 C565.2,750.91 564.21,742.99 563.11,734.29 C565.58,733.29 568.11,731.79 570.77,731.15 C575.36,730.05 577.66,727.05 578.03,722.77 C578.64,715.71 579.03,708.6 579.03,701.51 C579.03,696.72 576.71,692.67 573.47,689 C560.75,674.6 545.56,664.28 526.72,659.69 C524.13,659.06 521.6,658.16 519.07,657.33 C518.68,657.21 518.37,656.81 517.67,656.26 C518.000616,654.625602 518.462103,653.02043 519.05,651.46 C523.95208,640.924292 531.167873,631.630243 540.16,624.27 C547.07,618.51 554.87,617.07 563.33,619.11 C582.119947,623.738788 600.451623,630.061325 618.1,638 C630.5,643.49 637.1,655.83 635.9,669.33 C635.690584,670.87435 635.590335,672.431546 635.6,673.99 C636.48,689.3 619.1,700.08 606.52,698.5 C602.17,697.95 598.83,696.58 596.68,692.73 C596.24,691.95 595.73,691.21 595.35,690.41 C593.16,685.78 590.35,681.15 593.89,676.01 C597.69,670.4 602.49,666.39 609.82,666.84 C611.99,666.97 614.47,666.45 615.54,669.14 C616.38,671.24 614.78,675.22 612.38,676.62 C610.608656,677.544759 608.762031,678.317532 606.86,678.93 C604.86,679.68 602.8,680.33 600.76,681.03 C600.77,681.72 600.77,682.39 600.78,683.05 Z" id="Path" fill="#FFFFFF"></path>
            <path d="M558.33,737.18 C557.2,747.56 556.11,757.62 554.96,768.18 L356.28,810.47 C354.84,800.81 353.35,790.8 351.76,780.16 C421.65,772.34 489.3,753.73 558.33,737.18 Z" id="Path" fill="#FFFFFF"></path>
            <path d="M728.89,618.06 C725.12,611.06 723.33,610.41 716.32,611.32 C712.316599,611.673018 708.284628,611.518459 704.32,610.86 C699.19,610.2 694.26,609.45 688.95,610.52 C681.74,611.96 674.3,612.34 666.95,612.92 C664.940869,613.06619 662.928271,612.687105 661.11,611.82 C657.96,610.22 657.71,606.82 660.51,604.66 C662.43,603.15 664.77,602.19 667.16,600.85 C663.59,594.68 663,587.85 663.16,580.23 C660.87,578.31 657.81,576.23 657.62,572.23 C661.29,569.64 661.29,569.64 667.43,569.56 C671.43,562.63 678.28,562.16 685.43,562.88 C688.78,563.21 692.07,564.29 695.43,564.47 C700.19,564.71 703.62,565.65 706.27,570.61 C708.05,573.93 712.65,576.92 716.47,577.69 C722.56,578.91 727.38,581.85 731.99,585.4 C735.536011,588.153974 739.626113,590.124039 743.99,591.18 C754.26,593.7 764.45,596.53 774.64,599.37 C778.29,600.37 780.85,599.93 783.28,596.48 C793.36,582.17 803.76,568.08 814,553.89 C816.82332,550.328272 817.661719,545.583609 816.23,541.27 C813.426776,532.029481 811.261679,522.607299 809.75,513.07 C808.59,505.07 808.96,496.91 808.9,488.82 C808.899028,487.011343 809.496785,485.253234 810.6,483.82 C815.6,478.03 820.16,471.26 827.48,468.57 C839.91,464 855.12,464.07 864.14,475.21 C865.69,477.12 867.14,479.1 868.47,480.8 C888.07,471.73 907.78,473.45 927.27,473.67 C937.170584,473.737525 947.059534,474.361844 956.89,475.54 C965.333606,476.716122 973.686558,478.470242 981.89,480.79 C987.96,482.41 993.62,485.57 999.7,487.06 C1007.16,488.88 1010.7,494.06 1011.92,500.61 C1014.27763,512.722411 1015.94697,524.958694 1016.92,537.26 C1017.70268,548.499612 1017.0846,559.792934 1015.08,570.88 C1012.2,586.55 1010.98,602.53 1009.08,618.39 C1009.12851,619.249278 1009.26932,620.100844 1009.5,620.93 C1012.63,620.44 1015.67,619.93 1018.71,619.51 C1026.06,618.44 1033.39,617.1 1040.78,616.43 C1050.08,615.58 1053.48,619.31 1051.68,628.43 C1050.49451,633.673962 1048.95771,638.832266 1047.08,643.87 C1045.53,648.34 1043.55,652.66 1041.81,657.06 C1041.46245,658.176305 1041.17866,659.311471 1040.96,660.46 C1044.49,661.2 1047.88,661.96 1051.29,662.63 C1060.57,664.43 1069.81,666.47 1079.15,667.88 C1085.44,668.88 1090.15,672.51 1095.39,675.49 C1096.23,675.97 1096.62,677.33 1097.1,678.33 C1102.19,688.94 1098.65,699.4 1088.1,704.82 C1084.53,706.64 1080.79,708.15 1076.98,709.88 C1076.37,727.68 1075.91,745.24 1075.12,762.78 C1074.63,773.78 1073.67,784.78 1072.85,795.78 C1072.73,797.34 1072.09,798.84 1071.85,800.39 C1070.85,806.39 1067.25,809.89 1061.94,813 C1043.53,823.79 1023.33,830.27 1003.7,838.09 C988.43,844.17 972.87,849.56 957.31,854.89 C936.19,862.11 914.79,861.19 893.31,856.54 C859.95,849.34 827.92,837.75 795.51,827.39 C772.29,819.96 749.58,811.24 727.98,799.86 C721.42,796.39 715.24,792.2 708.84,788.43 C702.15,784.49 698.03,778.28 694.33,771.82 C693.18,769.82 692.93,767.1 692.87,764.69 C692.2,735.85 691.64,707.01 691.04,678.16 C690.977701,677.538434 690.880884,676.920814 690.75,676.31 C687.49,674.61 683.9,672.84 680.4,670.9 C675.5,668.17 670.26,665.9 665.89,662.42 C654.51,653.48 657.58,640.42 667.4,635.02 C676.46,630.09 686.4,627.96 696.26,625.79 C706.38,623.57 716.5,621.29 726.61,619.02 C727.386595,618.740937 728.147685,618.420478 728.89,618.06 L728.89,618.06 Z M815,508.15 L815,507.96 C815.48,511.81 814,516.08 817.29,519.39 C822.29,516.39 822.73,511.52 822.46,505.58 C829.07,513.85 820.39,518.78 819.3,525.79 L830,525.79 C827.92,531.31 823.45,531.15 818.27,531.06 C819.82,535.45 821.1,539.19 822.47,542.9 C823.528798,546.241693 826.614756,548.524899 830.12,548.56 C834.12,548.78 838.21,548.9 842.26,548.95 C847.993903,549.149787 853.475743,546.58738 857,542.06 C859,539.57 861.2,537.19 863.3,534.76 C862.3,542.76 856.54,547.04 850.59,551.21 C851.59,553.08 852.3,554.44 853.06,555.77 C855.51,560.06 857.36,561.13 861.7,559.66 C872.429477,556.164958 881.159553,548.260601 885.7,537.93 L874.15,519.26 L870.32,519.46 C870.535416,518.236806 870.812435,517.025265 871.15,515.83 C872.528353,511.522284 872.611803,506.904706 871.39,502.55 C870.69,499.7 869.04,498.24 866.18,498.28 C863.32,498.32 863.31,500.54 863.1,502.6 C863.05,503.12 862.59,503.6 861.95,504.8 C860.21,502.29 858.53,499.8 859.89,497.8 C861.61,495.27 864.59,493.61 867.22,491.41 C862.36,472.11 849.62,469.98 836.97,471.52 C824.32,473.06 815.08,481.52 814.7,491.43 C818.18,490.66 822.13,489.18 824.62,492.56 C826.62,495.25 824.88,498.03 823.31,500.29 L813.91,501.83 C814.35,504.33 814.69,506.24 815,508.15 Z M958.25,649.05 C950.71,647.1 944.25,645.28 937.65,643.76 C921.86,640.09 906.05,636.56 890.24,633 C889.388456,632.726622 888.487723,632.641325 887.6,632.75 C880.69,634.41 874.15,632.47 867.67,630.62 C850.36,625.69 833.14,620.46 815.81,615.62 C810,614 804,612.31 798.05,612.31 C785.66,612.31 773.44,614.65 761.34,617.31 C736.46,622.683333 711.596667,628.15 686.75,633.71 C682.576376,634.668614 678.49934,636.007542 674.57,637.71 C671.877582,638.849771 669.427164,640.492433 667.35,642.55 C665.124089,644.685388 664.00207,647.724681 664.306484,650.794192 C664.610898,653.863702 666.308025,656.623411 668.91,658.28 C673.699307,661.237884 678.714927,663.812569 683.91,665.98 C691.34,669.18 699.02,671.8 706.49,674.98 C712.09,677.32 717.38,680.42 723.04,682.59 C740.04,689.14 757.04,695.92 774.36,701.66 C800.01,710.16 825.92,717.89 851.75,725.88 C865.3,730.08 878.7,735.09 892.54,738.02 C913.99,742.57 935.92,743.15 957.79,741.81 C977.02,740.63 995.79,737.25 1013.21,728.38 C1016.6,726.65 1020.44,725.82 1023.94,724.26 C1044.94,714.93 1065.81,705.46 1086.8,696.18 C1091.2,694.23 1091.92,690.75 1091.57,686.77 C1091.06,680.99 1087.57,677.42 1081.1,675.99 C1068.55,673.25 1055.97,670.67 1043.39,668.11 C1041.52676,667.866169 1039.6491,667.749233 1037.77,667.76 C1035.46,672.87 1032.29,677.58 1031.29,682.71 C1030.11,688.76 1026.67,690.9 1021.48,692.19 C1002.68,696.856667 983.9,701.563333 965.14,706.31 C951.25,709.87 937.57,710.2 923.95,705 C917.64,702.59 911.23,700.41 904.75,698.52 C895.84,695.93 893.75,689.97 899.13,681.29 C900.5,679.08 904.37,678.06 907.3,677.23 C920.69,673.44 934.14,669.91 947.57,666.29 C948.237515,666.183092 948.882836,665.966859 949.48,665.65 C950.54,664.89 951.87,664.15 952.38,663.07 C954.35,658.67 956.07,654.29 958.28,649.05 L958.25,649.05 Z M951.25,605.05 L975.55,609.51 C972.86,612.69 970.16,613.51 966.71,612.71 C961.71,611.57 956.71,610.71 951.3,609.71 C950.64,619.88 950.02,629.47 949.36,639.51 L960.46,642.23 C961.19,641.1 961.75,640.59 961.87,640 C963.65,631.35 970.05,628.09 977.73,626.4 C981.45,625.59 985.22,625.01 988.98,624.31 C989.47,622.99 989.9,621.97 990.23,620.91 C996.5,601.22 998.84,580.91 999.51,560.36 C999.73,553.83 999.4,547.24 1000.18,540.78 C1001.6,528.99 1000.18,517.45 998.48,505.85 C998,502.49 996.37,500.6 993.22,499.7 C988.89,498.45 984.65,496.85 980.28,495.8 C947.78,488 914.78,486.67 881.56,488.43 C878.51,488.6 875.47,489.16 871.5,489.65 L879.2,505.8 C911.6,509.35 944.2,512.93 976.9,516.53 C977.337402,516.614326 977.752716,516.787941 978.12,517.04 C978.285875,517.185131 978.404327,517.376745 978.46,517.59 C978.586136,518.063036 978.679688,518.544165 978.74,519.03 C976.66,519.39 974.56,520.17 972.52,520.03 C954.78,518.97 937.03,518.09 919.34,516.46 C905.73,515.21 892.22,512.95 877.53,510.99 C877.95,513.63 877.68,515.99 878.7,517.53 C881.57,521.82 885.02,525.73 888.16,529.85 C891.64,534.41 896.57,536.47 901.92,537.32 C920.59,540.32 939.29,543.05 957.99,545.84 C964.68,546.84 971.39,547.68 978.62,548.67 C976.26,552.31 973.78,552.31 970.92,551.91 C962.45,550.74 953.92,549.77 945.46,548.73 C939.54,548.01 933.62,547.31 927.56,546.59 C930.5,550.26 933.31,553.36 935.62,556.8 C937.621196,559.802725 939.322694,562.994708 940.7,566.33 C942.2,569.91 944.61,571.23 948.41,571.65 C958.41,572.77 968.3,574.35 978.84,575.83 C976.4,579.01 973.92,579.47 970.75,578.83 C964.75,577.68 958.75,576.83 952.75,575.89 C950.43,575.53 948.08,575.38 945.57,575.12 C947.55,585.5 949.35,595 951.26,605 L951.25,605.05 Z M698,728 C717,737 735.5,746.2 754.43,754.55 C801.17,775.17 849.26,791.62 899.94,799.55 C921.33,802.91 942.6,802.37 963.61,796.87 C997.67,787.95 1030.68,776 1063.09,762.31 C1064.34,761.79 1065.96,760.47 1066.09,759.31 C1066.92,753.66 1067.89,747.96 1066.93,741.81 C1064.55,742.48 1062.6,742.94 1060.71,743.58 C1040.21,750.48 1019.84,757.78 999.2,764.23 C971.2,773 942.83,779.89 912.97,777.61 C896.786868,776.467735 880.765103,773.656135 865.16,769.22 C831.826667,759.58 799.04,748.29 766.8,735.35 C747.57,727.66 728.8,718.7 709.91,710.35 C706.09,708.66 702.29,706.94 697.98,705.01 L698,728 Z M697.08,679.14 C697.08,683.21 697.36,686.53 697.02,689.78 C696.36,695.96 699.62,699.17 704.74,701.59 C716.35,707.08 727.66,713.25 739.44,718.35 C772.56,732.68 806.56,744.67 840.99,755.41 C858.6,760.9 875.99,767.18 894.42,769.89 C912.85,772.6 931.07,773.89 949.51,770.8 C982.31,765.23 1013.9,755.4 1045.04,743.95 C1052.82,741.09 1060.5,737.95 1068.44,734.87 L1068.44,714.08 C1063.78,715.47 1059.44,716.43 1055.26,718.08 C1047.34,721.22 1039.62,724.89 1031.71,728.08 C1024.19,731.08 1016.54,733.81 1008.96,736.69 C1004.34,738.44 999.85,740.69 995.12,741.97 C965.52,750.17 935.45,750.03 905.25,746.61 C898.35,745.83 891.32,745.04 884.72,743.04 C854.95,734.04 825.11,725.2 795.72,715.15 C765.03,704.67 734.78,692.86 704.34,681.65 C702.27,680.89 700.2,680.23 697.09,679.17 L697.08,679.14 Z M698.29,733.3 C698.76,738.3 699.23,742.07 699.43,745.83 C699.480405,750.14514 701.843937,754.100905 705.62,756.19 C720.55,765.53 735.7,774.46 752.12,780.93 C767.22,786.87 782.36,792.72 797.65,798.13 C833.17,810.7 869.11,821.66 906.88,825.26 C926.59,827.14 945.98,826.08 965.13,820.69 C992.95,812.86 1019.64,801.93 1046.52,791.51 C1052.52,789.16 1058.43,786.32 1064.28,783.75 C1064.75,778.45 1065.19,773.6 1065.66,768.35 C1064.39293,768.542945 1063.14015,768.820228 1061.91,769.18 C1035.44,779.48 1008.41,788.09 981.38,796.75 C953.38,805.75 925.31,808.91 896.13,804.75 C864.25,800.17 833.7,790.95 803.55,780.11 C768.92,767.66 735.67,752.11 703,735.22 C701.87,734.63 700.63,734.25 698.3,733.33 L698.29,733.3 Z M1064.19,790 C1059.12,792 1054.53,793.78 1050,795.68 C1022.15,807.37 994,818.12 964.78,826.03 C944.28,831.59 923.49,832.15 902.47,830.25 C880.79,828.25 859.81,823.17 839.15,816.75 C821.75,811.33 804.57,805.14 787.34,799.16 C761.55,790.21 736.41,779.76 712.66,766.16 C708.82,763.97 704.94,761.84 700.94,759.6 C698.79,770.53 702.31,773.96 707.71,778.46 C711.511894,781.651571 715.681434,784.37755 720.13,786.58 C733.71,793.15 747.13,800.38 761.25,805.43 C787.53,814.81 814.25,822.84 840.87,831.43 C862.52,838.43 884.18,845.18 906.87,848.35 C925.87,851 944.69,851.54 962.92,844.87 C984.06,837.14 1004.99,828.87 1025.92,820.57 C1035.08,816.95 1044.01,812.75 1053.13,809.02 C1062.46,805.2 1065,801.25 1064.19,790 Z M1046.41,621.33 C1034.67,622.86 1023.5,624.12 1012.41,625.8 C1001.06,627.51 989.76,629.64 978.41,631.58 C972.12,632.67 967.87,635.72 965.96,642.3 C963.26,651.59 960.12,660.78 956.65,669.82 C953.587038,678.025809 950.033974,686.04024 946.01,693.82 C942.44,700.55 936.86,700.82 930.48,695.18 C932.72,694.9 934.78,694.96 936.6,694.32 C938.42,693.68 940.87,692.72 941.5,691.24 C944.1,685.16 946.11,678.83 948.7,671.58 C933.6,676.42 919.7,680.84 905.86,685.38 C904.13,685.95 902.64,687.24 900.05,688.79 C901.810736,690.000712 903.647901,691.09633 905.55,692.07 C909.55,693.69 913.49,695.31 917.55,696.56 C925.95,699.13 934.35,701.75 942.88,703.77 C949.49,705.33 951.88,703.93 955.44,698.04 C956.66,696.04 957.8,694.38 960.59,694.52 C962.08,694.6 963.59,693.83 965.14,693.47 C980.26,689.91 995.37,686.28 1010.52,682.86 C1013.7,682.15 1017.05,682.2 1020.28,681.86 L1021.68,687.39 L1023,687.68 C1025,683.81 1027.41,680.09 1029,676.06 C1034.67,661.58 1040.09,647.06 1045.54,632.45 C1046.82,629.19 1047.85,625.74 1046.41,621.33 Z M705.53,605.33 C710.1,605.54 714.31,605.63 718.53,605.96 C720.488018,605.982151 722.419614,606.414801 724.2,607.23 C727.187544,608.823704 729.926425,610.845018 732.33,613.23 C735.42,616.52 738.72,616.64 742.73,615.82 C752.87,613.76 763.02,611.58 773.26,610.15 C782.83,608.82 792.58,607.31 802.13,607.9 C809.57,608.36 814.66,605.23 821.21,601.77 L798.96,588.83 C794.66,592.74 790.34,596.32 786.44,600.32 C784.374806,602.736292 781.137401,603.803865 778.04,603.09 C760.12,599.87 741.88,597.5 726.48,586.64 C719.84,581.96 713.34,581.94 706.14,584.64 C702.74,585.94 700.43,587.74 699.31,592.64 L710.22,589.54 L726.22,597.22 C723.22,600.07 719.88,599.43 716.31,597.16 C708.77,592.38 707.72,592.86 706.07,601.45 C705.82,602.48 705.75,603.55 705.53,605.29 L705.53,605.33 Z M817.08,609 C821.41,610.38 824.08,611.29 826.79,612.08 C842.79,616.7 858.79,621.28 874.72,625.93 C879.04,627.18 882.52,626.48 885.49,622.75 C887.43,620.32 890.12,618.49 892.37,616.29 C897.62,611.16 902.8,605.97 908.37,600.46 C901.05,595.17 894.65,590.31 886.58,588.16 C882.58,587.09 879.67,587.72 877.22,591.16 C874.63,594.84 871.75,598.32 868.92,601.82 C867.44,603.64 865.76,605.31 864.18,607.05 L862.42,608.24 C863.72,601.49 860.09,602.24 857.25,602.54 C845.86,603.78 834.48,605.19 823.11,606.66 C821.54,606.92 820.08,607.85 817.08,609 Z M1000.8,622.57 C1001.95,617.36 1003.18,612.79 1003.93,608.15 C1008.17,581.87 1010.6,555.43 1009.76,528.81 C1009.47,519.64 1007.63,510.52 1006.43,501.39 C1006.17662,497.924286 1003.83446,494.963893 1000.52,493.92 C992.27,490.92 984.21,487.43 975.84,484.86 C962.64,480.86 948.95,479.57 935.21,478.77 C917.86,477.77 900.56,477.66 883.39,480.77 C879.3,481.51 875.33,482.77 872.11,485.77 C876.47,485.9 880.66,485.19 884.86,485.08 C910.08,484.42 935.31,483.41 960.38,487.58 C971.71,489.46 983.05,491.21 993.82,495.58 C998.72,497.58 1001.71,500.93 1002.16,506.01 C1003.06,516.31 1004.05,526.65 1004.09,537.01 C1004.09,547.79 1002.98,558.57 1002.51,569.36 C1001.90498,585.343404 999.496376,601.207313 995.33,616.65 C994.75,618.75 994.33,620.88 993.62,623.65 L1000.8,622.57 Z M673,572.21 C671.24,576.88 671.26,576.87 672.79,579.88 C673.28,580.88 674.1,581.94 674,582.88 C673.33,589.04 672.46,595.17 671.57,601.96 C671.682721,602.347866 671.940591,602.677368 672.29,602.88 C681.85,607.96 691.29,606.7 700.62,602.15 C701.75,601.6 702.14,599.51 702.92,598.06 C693.24,594.16 693.02,593.28 698.92,585.65 C699.293984,585.087301 699.708411,584.552556 700.16,584.05 C703.06,581.16 703.26,577.84 701.82,573.68 C692,576.5 682.15,578.9 673,572.21 Z M672.22,609.15 C670.57,606.83 669.43,605.22 668.22,603.49 C665.22,604.8 662.22,605.11 661.02,609.15 L672.22,609.15 Z M667.22,577.72 C667.53,571.72 666.7,571.24 660.47,573.78 C661.8,576.63 663.76,578.27 667.12,577.72 L667.22,577.72 Z M671.96,584.21 C670.5,582.68 669.28,580.98 668.96,581.13 C667.695127,581.701978 666.664523,582.690229 666.04,583.93 C665.82,584.45 667.38,586.46 668.11,586.450037 C669.11,586.43 670.2,585.25 671.86,584.21 L671.96,584.21 Z M687.02,568.39 C683.54,568.16 679.65,566.44 676.1,569.53 L687.02,568.39 Z M665.84,592.15 L669.94,597.03 C671.09,593.12 671.38,591.21 665.74,592.15 L665.84,592.15 Z" id="Shape" fill="#000000"></path>
            <path d="M958.28,649.05 C956.07,654.29 954.35,658.67 952.35,662.92 C951.84,664 950.51,664.74 949.45,665.5 C948.852836,665.816859 948.207515,666.033092 947.54,666.14 C934.11,669.76 920.66,673.29 907.27,677.08 C904.34,677.91 900.47,678.93 899.1,681.14 C893.72,689.82 895.81,695.78 904.72,698.37 C911.2,700.26 917.61,702.44 923.92,704.85 C937.54,710.05 951.22,709.72 965.11,706.16 C983.863333,701.353333 1002.64333,696.646667 1021.45,692.04 C1026.64,690.75 1030.08,688.61 1031.26,682.56 C1032.26,677.43 1035.43,672.72 1037.74,667.61 C1039.6191,667.599233 1041.49676,667.716169 1043.36,667.96 C1055.94,670.52 1068.52,673.1 1081.07,675.84 C1087.59,677.27 1091.07,680.84 1091.54,686.62 C1091.89,690.62 1091.17,694.08 1086.77,696.03 C1065.77,705.31 1044.88,714.78 1023.91,724.11 C1020.41,725.67 1016.57,726.5 1013.18,728.23 C995.76,737.1 976.99,740.48 957.76,741.66 C935.89,743 913.96,742.42 892.51,737.87 C878.67,734.94 865.27,729.93 851.72,725.73 C825.89,717.73 799.98,710.01 774.33,701.51 C757,695.77 740,689 723,682.44 C717.34,680.27 712,677.17 706.45,674.83 C698.98,671.7 691.3,669.08 683.87,665.83 C678.674927,663.662569 673.659307,661.087884 668.87,658.13 C666.268025,656.473411 664.570898,653.713702 664.266484,650.644192 C663.96207,647.574681 665.084089,644.535388 667.31,642.4 C669.387164,640.342433 671.837582,638.699771 674.53,637.56 C678.45934,635.857542 682.536376,634.518614 686.71,633.56 C711.55,628 736.413333,622.533333 761.3,617.16 C773.4,614.55 785.62,612.16 798.01,612.16 C803.94,612.16 810.01,613.86 815.8,615.48 C833.13,620.31 850.35,625.54 867.66,630.48 C874.14,632.33 880.66,634.27 887.59,632.61 C888.477723,632.501325 889.378456,632.586622 890.23,632.86 C906.04,636.42 921.85,639.95 937.64,643.62 C944.24,645.28 950.74,647.1 958.28,649.05 Z M866.56,641.85 L866.16,639.76 C864.16,639.02 862.16,638.09 860.07,637.55 C843.28,633.23 826.5,628.87 809.64,624.82 C806.563186,624.200242 803.389818,624.241145 800.33,624.94 C784.23,628.22 768.17,631.75 752.1,635.21 C747.7,636.15 743.26,636.98 738.93,638.21 C737.65,638.57 736.68,640.07 735.57,641.04 C736.57,642.12 737.29,643.53 738.48,644.21 C740.118452,644.953284 741.831461,645.519818 743.59,645.9 C762.31,651.7 781.02,657.54 799.75,663.27 C805.15,664.92 809.75,666.52 816.01,662.78 C825.01,657.46 835.6,655 845.5,651.27 C850.98,649.21 856.5,647.12 861.85,644.87 C863.506471,644.005034 865.082687,642.994382 866.56,641.85 L866.56,641.85 Z" id="Shape" fill="#FFFFFF"></path>
            <path d="M951.26,605 C949.35,594.93 947.55,585.46 945.58,575.1 C948.09,575.36 950.44,575.51 952.76,575.87 C958.76,576.78 964.76,577.66 970.76,578.81 C973.93,579.42 976.41,578.96 978.85,575.81 C968.31,574.33 958.39,572.75 948.42,571.63 C944.62,571.21 942.21,569.89 940.71,566.31 C939.332694,562.974708 937.631196,559.782725 935.63,556.78 C933.32,553.34 930.51,550.24 927.57,546.57 C933.63,547.29 939.57,547.99 945.47,548.71 C953.96,549.71 962.47,550.71 970.93,551.89 C973.79,552.29 976.27,552.29 978.63,548.65 C971.4,547.65 964.69,546.81 958,545.82 C939.3,543.03 920.6,540.26 901.93,537.3 C896.58,536.45 891.65,534.39 888.17,529.83 C885.03,525.71 881.58,521.83 878.71,517.51 C877.71,515.99 877.96,513.61 877.54,510.97 C892.23,512.97 905.74,515.19 919.35,516.44 C937.04,518.07 954.79,518.95 972.53,520.01 C974.53,520.13 976.67,519.35 978.75,519.01 C978.689688,518.524165 978.596136,518.043036 978.47,517.57 C978.414327,517.356745 978.295875,517.165131 978.13,517.02 C977.762716,516.767941 977.347402,516.594326 976.91,516.51 C944.26,512.91 911.61,509.33 879.21,505.78 L871.51,489.63 C875.51,489.14 878.51,488.63 881.57,488.41 C914.79,486.65 947.79,487.98 980.29,495.78 C984.66,496.83 988.9,498.43 993.23,499.68 C996.38,500.58 998.01,502.47 998.49,505.83 C1000.15,517.43 1001.61,528.97 1000.19,540.76 C999.41,547.22 999.74,553.76 999.52,560.34 C998.85,580.9 996.52,601.2 990.24,620.89 C989.91,621.95 989.48,622.97 988.99,624.29 C985.23,624.99 981.46,625.57 977.74,626.38 C970.06,628.07 963.66,631.38 961.88,639.98 C961.76,640.57 961.2,641.08 960.47,642.21 L949.37,639.49 C950.03,629.49 950.65,619.86 951.31,609.69 C956.69,610.69 961.74,611.57 966.72,612.69 C970.17,613.48 972.87,612.69 975.56,609.49 L951.26,605 Z" id="Path" fill="#FFFFFF"></path>
            <path d="M698,728 L698,705 C702.31,706.93 706.11,708.65 709.93,710.34 C728.87,718.73 747.59,727.69 766.82,735.34 C799.04,748.226667 831.826667,759.516667 865.18,769.21 C880.786919,773.660344 896.812095,776.48536 913,777.64 C942.86,779.92 971.21,773.03 999.23,764.26 C1019.87,757.81 1040.23,750.51 1060.74,743.61 C1062.63,742.97 1064.58,742.51 1066.96,741.84 C1067.96,747.99 1066.96,753.69 1066.12,759.34 C1065.96,760.48 1064.34,761.8 1063.12,762.34 C1030.71,776.03 997.7,787.98 963.64,796.9 C942.64,802.4 921.36,802.9 899.97,799.58 C849.29,791.64 801.2,775.19 754.46,754.58 C735.5,746.2 717,737 698,728 Z" id="Path" fill="#FFFFFF"></path>
            <path d="M697.09,679.17 C700.2,680.23 702.27,680.89 704.32,681.64 C734.76,692.85 765.01,704.64 795.7,715.14 C825.12,725.19 855,734 884.73,743 C891.33,745 898.36,745.79 905.26,746.57 C935.46,749.99 965.53,750.13 995.13,741.93 C999.86,740.61 1004.35,738.4 1008.97,736.65 C1016.55,733.77 1024.2,731.08 1031.72,728.04 C1039.63,724.85 1047.35,721.18 1055.27,718.04 C1059.4,716.4 1063.79,715.44 1068.45,714.04 L1068.45,734.9 C1060.51,737.99 1052.83,741.12 1045.05,743.98 C1013.91,755.43 982.32,765.26 949.52,770.83 C931.08,773.96 912.77,772.62 894.43,769.92 C876.09,767.22 858.61,760.92 841,755.44 C806.57,744.7 772.57,732.71 739.45,718.38 C727.67,713.28 716.36,707.11 704.75,701.62 C699.63,699.2 696.37,695.99 697.03,689.81 C697.37,686.56 697.09,683.24 697.09,679.17 Z" id="Path" fill="#FFFFFF"></path>
            <path d="M698.3,733.33 C700.63,734.25 701.87,734.63 703.01,735.22 C735.68,752.09 768.93,767.66 803.56,780.11 C833.71,790.95 864.26,800.17 896.14,804.75 C925.32,808.94 953.44,805.75 981.39,796.75 C1008.39,788.09 1035.45,779.48 1061.92,769.18 C1063.15015,768.820228 1064.40293,768.542945 1065.67,768.35 C1065.2,773.6 1064.76,778.45 1064.29,783.75 C1058.44,786.32 1052.58,789.16 1046.53,791.51 C1019.65,801.93 992.96,812.86 965.14,820.69 C945.99,826.08 926.6,827.14 906.89,825.26 C869.12,821.66 833.18,810.7 797.66,798.13 C782.37,792.72 767.23,786.87 752.13,780.93 C735.71,774.46 720.56,765.53 705.63,756.19 C701.853937,754.100905 699.490405,750.14514 699.44,745.83 C699.24,742.1 698.77,738.36 698.3,733.33 Z" id="Path" fill="#FFFFFF"></path>
            <path d="M1064.19,790 C1065.01,801.25 1062.46,805.2 1053.12,809 C1044,812.73 1035.12,816.93 1025.91,820.55 C1004.97,828.8 984.04,837.12 962.91,844.85 C944.68,851.52 925.86,850.98 906.86,848.33 C884.19,845.16 862.53,838.41 840.86,831.41 C814.29,822.82 787.52,814.79 761.24,805.41 C747.09,800.36 733.7,793.13 720.12,786.56 C715.671434,784.35755 711.501894,781.631571 707.7,778.44 C702.3,773.94 698.78,770.51 700.93,759.58 C704.93,761.82 708.81,763.95 712.65,766.14 C736.4,779.73 761.54,790.14 787.33,799.14 C804.56,805.14 821.74,811.31 839.14,816.73 C859.8,823.15 880.78,828.28 902.46,830.23 C923.46,832.13 944.27,831.57 964.77,826.01 C993.96,818.1 1022.14,807.35 1049.99,795.66 C1054.53,793.78 1059.12,792 1064.19,790 Z" id="Path" fill="#FFFFFF"></path>
            <path d="M1046.41,621.33 C1047.85,625.74 1046.82,629.19 1045.56,632.54 C1040.11,647.1 1034.69,661.67 1029.02,676.15 C1027.44,680.15 1025.02,683.9 1023.02,687.77 L1021.7,687.48 L1020.3,681.95 C1017.07,682.25 1013.72,682.2 1010.54,682.95 C995.39,686.37 980.28,690 965.16,693.56 C963.64,693.92 962.1,694.69 960.61,694.61 C957.82,694.47 956.68,696.13 955.46,698.13 C951.9,704.02 949.46,705.42 942.9,703.86 C934.37,701.86 925.97,699.22 917.57,696.65 C913.48,695.4 909.5,693.78 905.57,692.16 C903.667901,691.18633 901.830736,690.090712 900.07,688.88 C902.66,687.33 904.15,686.04 905.88,685.47 C919.73,680.93 933.62,676.47 948.72,671.67 C946.13,678.92 944.12,685.25 941.52,691.33 C940.89,692.81 938.43,693.77 936.62,694.41 C934.81,695.05 932.74,694.99 930.5,695.27 C936.88,700.89 942.5,700.64 946.03,693.91 C950.053974,686.13024 953.607038,678.115809 956.67,669.91 C960.14,660.91 963.28,651.68 965.98,642.39 C967.89,635.81 972.14,632.76 978.43,631.67 C989.76,629.73 1001.06,627.6 1012.43,625.89 C1023.5,624.12 1034.67,622.86 1046.41,621.33 Z M998.72,664.85 C1002.72,664.63 1005.35,660.7 1005.12,657.23 C1004.95,654.65 1003.38,653.82 1001.12,653.93 C998.12,654.06 994.52,657.39 995.29,660 C995.83,662 997.78,663.6 998.72,664.85 Z M917.28,691.24 C916.082352,690.675838 914.841784,690.207699 913.57,689.84 C913.09,689.74 912.49,690.27 911.29,690.84 C913.13,692.2 914.2,693.88 917.28,691.24 Z" id="Shape" fill="#FFFFFF"></path>
            <path d="M815,508.15 C814.66,506.24 814.32,504.33 813.88,501.84 L823.28,500.3 C824.85,498.04 826.58,495.3 824.59,492.57 C822.1,489.19 818.15,490.67 814.67,491.44 C815.05,481.57 824.19,473.09 836.94,471.53 C849.69,469.97 862.33,472.12 867.19,491.42 C864.56,493.62 861.58,495.28 859.86,497.81 C858.5,499.81 860.18,502.29 861.92,504.81 C862.56,503.61 863.02,503.13 863.07,502.61 C863.28,500.55 863.29,498.33 866.15,498.29 C869.01,498.25 870.66,499.71 871.36,502.56 C872.581803,506.914706 872.498353,511.532284 871.12,515.84 C870.782435,517.035265 870.505416,518.246806 870.29,519.47 L874.12,519.27 L885.67,537.94 C881.129553,548.270601 872.399477,556.174958 861.67,559.67 C857.33,561.14 855.48,560.07 853.03,555.78 C852.27,554.45 851.57,553.09 850.56,551.22 C856.51,547.05 862.24,542.78 863.27,534.77 C861.17,537.2 859.01,539.58 856.97,542.07 C853.458308,546.606573 847.983994,549.183815 842.25,549 C838.25,548.95 834.15,548.83 830.11,548.61 C826.604756,548.574899 823.518798,546.291693 822.46,542.95 C821.09,539.24 819.81,535.5 818.26,531.11 C823.44,531.2 827.91,531.36 829.99,525.84 L819.29,525.84 C820.38,518.84 829.06,513.9 822.45,505.63 C822.72,511.57 822.32,516.43 817.28,519.44 C814,516.13 815.47,511.86 815,508.05 M845,501.05 C846.66,498.3 848,495.68 846.15,493.25 C844.15,490.61 840.96,491.25 838.08,491.8 C837.630588,491.819861 837.195041,491.961586 836.82,492.21 C835.53,493.55 833.34,494.91 833.27,496.36 C833.160168,497.608675 833.59939,498.843302 834.473175,499.742052 C835.34696,500.640802 836.568727,501.114621 837.82,501.04 C840.29,501.08 842.72,501.05 845,501.05 L845,501.05 Z M834.18,537 L834.67,538.41 C841.03,538.81 842.97,537.59 843.93,531.57 L834.18,537 Z" id="Shape" fill="#FFFFFF"></path>
            <path d="M705.53,605.29 C705.75,603.55 705.82,602.48 706.02,601.44 C707.67,592.85 708.72,592.37 716.26,597.15 C719.83,599.42 723.12,600.06 726.17,597.21 L710.17,589.53 L699.26,592.63 C700.38,587.75 702.69,585.95 706.09,584.63 C713.29,581.88 719.79,581.9 726.43,586.63 C741.83,597.49 760.07,599.86 777.99,603.08 C781.087401,603.793865 784.324806,602.726292 786.39,600.31 C790.29,596.31 794.61,592.73 798.91,588.82 L821.16,601.76 C814.61,605.22 809.52,608.35 802.08,607.89 C792.53,607.3 782.78,608.81 773.21,610.14 C762.97,611.57 752.82,613.75 742.68,615.81 C738.68,616.63 735.37,616.51 732.28,613.22 C729.876425,610.835018 727.137544,608.813704 724.15,607.22 C722.369614,606.404801 720.438018,605.972151 718.48,605.95 C714.31,605.59 710.1,605.5 705.53,605.29 Z" id="Path" fill="#FFFFFF"></path>
            <path d="M817.08,609 C820.08,607.83 821.54,606.9 823.08,606.7 C834.45,605.23 845.83,603.82 857.22,602.58 C860.06,602.27 863.69,601.53 862.39,608.28 L864.15,607.09 C865.73,605.35 867.41,603.68 868.89,601.86 C871.72,598.36 874.6,594.86 877.19,591.2 C879.64,587.72 882.55,587.09 886.55,588.2 C894.62,590.35 901.02,595.2 908.34,600.5 C902.79,606.01 897.61,611.2 892.34,616.33 C890.09,618.53 887.4,620.33 885.46,622.79 C882.46,626.52 879.01,627.22 874.69,625.97 C858.69,621.32 842.69,616.74 826.76,612.12 C824.08,611.31 821.41,610.4 817.08,609 Z" id="Path" fill="#FFFFFF"></path>
            <path d="M1000.8,622.59 L993.62,623.59 C994.3,620.77 994.75,618.64 995.33,616.59 C999.496376,601.147313 1001.90498,585.283404 1002.51,569.3 C1002.98,558.51 1004.12,547.73 1004.09,536.95 C1004.09,526.63 1003.09,516.29 1002.16,505.95 C1001.71,500.87 998.72,497.49 993.82,495.52 C983.05,491.18 971.71,489.43 960.38,487.52 C935.31,483.35 910.08,484.36 884.86,485.02 C880.66,485.13 876.47,485.84 872.11,485.71 C875.33,482.71 879.3,481.43 883.39,480.71 C900.56,477.63 917.86,477.71 935.21,478.71 C948.95,479.51 962.64,480.76 975.84,484.8 C984.21,487.37 992.27,490.89 1000.52,493.86 C1003.83446,494.903893 1006.17662,497.864286 1006.43,501.33 C1007.63,510.46 1009.43,519.58 1009.76,528.75 C1010.6,555.37 1008.17,581.81 1003.93,608.09 C1003.18,612.81 1002,617.38 1000.8,622.59 Z" id="Path" fill="#FFFFFF"></path>
            <path d="M673,572.21 C682.2,578.9 692,576.5 701.85,573.69 C703.29,577.85 703.09,581.17 700.19,584.06 C699.738411,584.562556 699.323984,585.097301 698.95,585.66 C693.02,593.29 693.24,594.17 702.95,598.07 C702.17,599.52 701.78,601.61 700.65,602.16 C691.37,606.71 681.88,607.97 672.32,602.89 C671.970591,602.687368 671.712721,602.357866 671.6,601.97 C672.49,595.18 673.36,589.05 674.03,582.89 C674.13,581.94 673.31,580.89 672.82,579.89 C671.21,576.87 671.19,576.88 673,572.21 Z" id="Path" fill="#FFFFFF"></path>
            <path d="M672.17,609.15 L660.94,609.15 C662.16,605.15 665.13,604.8 668.14,603.49 C669.38,605.22 670.52,606.83 672.17,609.15 Z" id="Path" fill="#FFFFFF"></path>
            <path d="M667.12,577.72 C663.76,578.27 661.8,576.63 660.37,573.78 C666.6,571.24 667.43,571.74 667.12,577.72 Z" id="Path" fill="#FFFFFF"></path>
            <path d="M671.86,584.21 C670.2,585.21 669.11,586.43 667.99,586.45 C667.26,586.45 665.7,584.45 665.92,583.93 C666.544523,582.690229 667.575127,581.701978 668.84,581.13 C669.18,581 670.4,582.68 671.86,584.21 Z" id="Path" fill="#FFFFFF"></path>
            <path d="M686.92,568.39 L676,569.53 C679.55,566.44 683.44,568.16 686.92,568.39 Z" id="Path" fill="#FFFFFF"></path>
            <path d="M665.74,592.15 C671.38,591.21 671.09,593.15 669.84,597.03 L665.74,592.15 Z" id="Path" fill="#FFFFFF"></path>
            <path d="M866.56,641.85 C865.08191,642.987466 863.505718,643.99141 861.85,644.85 C856.45,647.1 850.98,649.19 845.5,651.25 C835.6,655 825,657.45 816,662.77 C809.71,666.51 805.14,664.91 799.74,663.26 C781.01,657.53 762.3,651.69 743.58,645.89 C741.821461,645.509818 740.108452,644.943284 738.47,644.2 C737.28,643.52 736.47,642.11 735.56,641.03 C736.67,640.03 737.64,638.56 738.92,638.2 C743.25,636.98 747.69,636.15 752.09,635.2 C768.16,631.74 784.22,628.2 800.32,624.93 C803.379818,624.231145 806.553186,624.190242 809.63,624.81 C826.49,628.81 843.27,633.22 860.06,637.54 C862.14,638.08 864.12,639.01 866.15,639.75 L866.56,641.85 Z M747.68,641.85 C748.740476,642.423817 749.832177,642.937951 750.95,643.39 C768.13,648.7 785.33,653.94 802.5,659.31 C805.732686,660.283754 809.202936,660.107061 812.32,658.81 C823.71,654.64 835.15,650.6 846.57,646.5 C849.84,645.32 853.1,644.09 857.32,642.5 C856.210361,641.875054 855.057415,641.330329 853.87,640.87 C837.52,636.72 821.19,632.53 804.8,628.58 C802.8,628.09 800.38,628.58 798.26,629.1 C784.04,632.47 769.86,635.95 755.67,639.44 C753.36,640 751.11,640.8 747.68,641.83 L747.68,641.85 Z" id="Shape" fill="#000000"></path>
            <path d="M998.72,664.85 C997.78,663.6 995.83,662 995.25,660 C994.48,657.39 998.03,654.06 1001.08,653.93 C1003.38,653.82 1004.95,654.65 1005.08,657.23 C1005.35,660.7 1002.67,664.63 998.72,664.85 Z" id="Path" fill="#000000"></path>
            <path d="M917.28,691.24 C914.2,693.88 913.13,692.24 911.28,690.81 C912.48,690.27 913.08,689.74 913.56,689.81 C914.836079,690.186912 916.08003,690.665098 917.28,691.24 L917.28,691.24 Z" id="Path" fill="#000000"></path>
            <path d="M845,501.05 C842.68,501.05 840.25,501.05 837.82,501.05 C836.568727,501.124621 835.34696,500.650802 834.473175,499.752052 C833.59939,498.853302 833.160168,497.618675 833.27,496.37 C833.34,494.92 835.53,493.56 836.82,492.22 C837.195041,491.971586 837.630588,491.829861 838.08,491.81 C840.96,491.27 844.14,490.62 846.15,493.26 C848,495.68 846.7,498.3 845,501.05 Z" id="Path" fill="#000000"></path>
            <path d="M834.18,537 L843.93,531.57 C842.93,537.57 841.03,538.81 834.67,538.41 L834.18,537 Z" id="Path" fill="#000000"></path>
            <path d="M747.68,641.83 C751.11,640.83 753.36,640.02 755.68,639.45 C769.87,635.96 784.05,632.45 798.27,629.11 C800.39,628.61 802.78,628.11 804.81,628.59 C821.2,632.54 837.53,636.73 853.88,640.88 C855.067415,641.340329 856.220361,641.885054 857.33,642.51 C853.11,644.07 849.85,645.3 846.58,646.51 C835.16,650.61 823.72,654.65 812.33,658.82 C809.212936,660.117061 805.742686,660.293754 802.51,659.32 C785.34,653.95 768.14,648.71 750.96,643.4 C749.838121,642.938521 748.743061,642.414361 747.68,641.83 L747.68,641.83 Z" id="Path" fill="#FFFFFF"></path>
            <ellipse id="Oval" fill="#000000" cx="818.76" cy="507.92" rx="2.07" ry="3.18"></ellipse>
            <ellipse id="Oval" fill="#000000" cx="836.86" cy="507.92" rx="2.07" ry="3.18"></ellipse>
            <path d="M76,679.21 L76,663.06 C55.7,660.76 38.77,651.16 24.58,636.94 C10.39,622.72 6.68,603.2 0.28,583.94 C11.33,579.61 22.9,578.88 35.93,582.36 C35.02,579.99 34.6,578.48 33.93,577.11 C27.59,564.66 22.5,551.89 21.12,537.73 C20.12,527.38 19.66,526.6 23.77,516.21 C34.9779358,514.811546 46.1718723,518.907797 53.83,527.21 C61.9,535.67 68.68,545.4 75.63,554.86 C79.17,559.68 81.84,565.15 85.44,571.23 C86.4019148,570.035116 87.2902233,568.782801 88.1,567.48 C96.1,552.02 108.76,541.63 124.39,534.66 C137.7,528.74 151.39,524.17 166.19,523.76 C175.38,523.51 179.88,527.06 181.73,536.1 C184.63,550.17 182.22,563.7 177.73,576.99 C176.419378,581.018982 174.644091,584.881657 172.44,588.5 C163.17,603.12 152.44,616.57 138.62,627.2 C125.97,636.94 111.05,640.51 95.48,641.91 C93.13,642.12 90.77,642.17 87.53,642.34 C88.48,654.47 89.39,666.01 90.29,677.42 C104.49,678.34 117.77,678.71 130.92,680.24 C139.55,681.24 148,683.86 156.49,685.92 C158.520022,686.521423 160.473159,687.357044 162.31,688.41 C173.52,694.26 176.2,699.72 173.75,711.9 C170.29,729.053333 166.783333,746.196667 163.23,763.33 C159.15,782.83 154.46,802.21 151.01,821.81 C149.14,832.44 143.33,838.3 133.87,841.88 C119.75,847.21 105.09,848.88 90.21,848 C82.0549103,847.363526 73.9609662,846.099788 66,844.22 C50.58,840.84 41.28,831.3 38.32,815.58 C35.47,800.45 32.64,785.3 29.15,770.3 C24.51,750.3 19.31,730.45 14.15,710.58 C12.42,703.84 14.15,698.92 20.92,694.58 C30.53,688.51 41.3,685.58 52.37,683.52 C60.09,682.16 67.77,680.73 76,679.21 Z M33.3,748.36 C34.3,751.67 35.1,754.19 35.8,756.75 C41.44,777.45 47.34,798.08 52.46,818.9 C53.57,823.44 55.37,825.9 59.46,827.11 C82.6422599,834.576602 107.561469,834.723247 130.83,827.53 C135.95,825.98 138.71,823.06 140.06,817.66 C145.25,796.87 150.94,776.19 156.4,755.46 C157.29,752.12 157.99,748.73 158.89,744.86 C117,757 76,760.27 33.3,748.36 Z M87.41,628.21 C96.04,628.29 102.22,626.11 108.46,624.21 C125.06,619.16 136.66,607.28 148.33,595.36 C162.05,581.36 171.46,565.36 173.54,545.52 C173.93,541.83 174.77,538.16 173.23,534.71 C165.3,542.1 157.38,548.66 150.42,556.11 C130.87,577.06 111.66,598.34 92.42,619.59 C90.61,621.61 89.61,624.38 87.41,628.21 Z M91.63,610.37 L156,536.37 C154.373811,536.317499 152.746339,536.421309 151.14,536.68 C139.14,539.74 127.46,543.77 116.87,550.43 C105.87,557.33 97.08,566.26 91.54,578.03 C90.0907272,581.281695 89.4065214,584.822459 89.54,588.38 C89.81,595.25 90.81,602.11 91.63,610.37 Z M165.161113,720.94 C119.23,740.26 73.56,743.36 26.67,726.94 C26.67,735.25 30.4,740.48 38.67,742.31 C42.79,743.23 46.83,744.66 50.99,745.31 C71.74,748.48 92.62,748.1 113.42,746.25 C127.55,745 141.56,742.57 154.77,736.74 C162,733.59 165.23,728.45 165.161113,720.94 Z M152.67,714.22 C140.09,708.02 109.93,704.36 93.09,706.1 C91.31,710.84 91.72,716.97 84.34,719.47 L78.62,706.68 C64.17,706.98 49.87,709.06 36.33,715.51 C75.29,726.52 114,726.78 152.67,714.22 Z M29.13,528.75 C32.86,566.93 52.81,595.27 72.81,613.75 C62.89,583 47.38,555.17 29.13,528.75 Z M91.56,697.19 C116.5,697.63 140.93,697.05 165.28,709.38 C164.49,705.71 164.68,703.45 163.65,702.5 C161.626605,700.698717 159.277884,699.300345 156.73,698.38 C135.81,690.58 114.18,688.09 91.56,689.51 L91.56,697.19 Z M77.28,689.73 C57.34,690.22 39.17,694.14 23.51,706.12 C25.2,711.12 27.29,711.4 30.76,709.56 C41.54,703.84 53.38,701.7 65.31,699.98 C69.38,699.39 73.42,698.58 77.74,697.82 C77.56,694.75 77.43,692.45 77.28,689.73 Z M10.28,597.21 C17.82,618.34 31.09,633.59 55.28,640.66 C40.93,623.54 27.53,608.42 10.31,597.21 L10.28,597.21 Z M17.09,589.54 L63,633.61 C56.31,616.89 47.11,602.14 31.09,592.87 C26.76,590.34 22,588.31 17.12,589.54 L17.09,589.54 Z M38,527.61 L74.31,592 C73.08,573.15 51.25,534.74 38,527.61 Z" id="Shape" fill="#000000"></path>
            <path d="M33.3,748.36 C76,760.27 117,757 158.84,744.86 C157.94,748.73 157.24,752.12 156.35,755.46 C150.89,776.19 145.2,796.87 140.01,817.66 C138.66,823.06 135.9,825.98 130.78,827.53 C107.511469,834.723247 82.5922599,834.576602 59.41,827.11 C55.41,825.85 53.57,823.44 52.41,818.9 C47.29,798.08 41.41,777.45 35.75,756.75 C35.1,754.19 34.29,751.67 33.3,748.36 Z" id="Path" fill="#FFFFFF"></path>
            <path d="M87.41,628.21 C89.61,624.38 90.61,621.61 92.41,619.59 C111.63,598.34 130.84,577.06 150.41,556.11 C157.41,548.66 165.29,542.11 173.22,534.71 C174.76,538.16 173.92,541.83 173.53,545.52 C171.45,565.34 162.04,581.37 148.32,595.36 C136.65,607.28 125.05,619.16 108.45,624.21 C102.22,626.11 96,628.29 87.41,628.21 Z" id="Path" fill="#FFFFFF"></path>
            <path d="M91.63,610.37 C90.81,602.11 89.81,595.25 89.63,588.37 C89.4965214,584.812459 90.1807272,581.271695 91.63,578.02 C97.17,566.25 105.99,557.32 116.96,550.42 C127.55,543.76 139.2,539.73 151.23,536.67 C152.836339,536.411309 154.463811,536.307499 156.09,536.36 L91.63,610.37 Z" id="Path" fill="#FFFFFF"></path>
            <path d="M165.161096,720.94 C165.23,728.45 161.95,733.59 154.74,736.76 C141.53,742.59 127.52,745.02 113.39,746.27 C92.59,748.12 71.71,748.5 50.96,745.33 C46.8,744.7 42.76,743.27 38.64,742.33 C30.4,740.5 26.71,735.27 26.64,726.96 C73.56,743.36 119.23,740.26 165.161096,720.94 Z" id="Path" fill="#FFFFFF"></path>
            <path d="M152.67,714.22 C114.02,726.78 75.29,726.52 36.33,715.51 C49.87,709.06 64.17,706.98 78.62,706.68 L84.34,719.47 C91.72,716.97 91.34,710.84 93.09,706.1 C109.93,704.36 140.09,708 152.67,714.22 Z" id="Path" fill="#FFFFFF"></path>
            <path d="M29.13,528.75 C47.38,555.17 62.89,583.04 72.81,613.75 C52.81,595.27 32.86,566.93 29.13,528.75 Z" id="Path" fill="#FFFFFF"></path>
            <path d="M91.56,697.19 L91.56,689.51 C114.18,688.09 135.81,690.58 156.73,698.38 C159.277884,699.300345 161.626605,700.698717 163.65,702.5 C164.65,703.5 164.49,705.71 165.28,709.38 C140.93,697.05 116.5,697.63 91.56,697.19 Z" id="Path" fill="#FFFFFF"></path>
            <path d="M77.28,689.73 C77.43,692.45 77.56,694.73 77.74,697.82 C73.42,698.58 69.38,699.39 65.31,699.98 C53.38,701.7 41.54,703.84 30.76,709.56 C27.29,711.4 25.2,711.14 23.51,706.12 C39.17,694.14 57.34,690.22 77.28,689.73 Z" id="Path" fill="#FFFFFF"></path>
            <path d="M10.31,597.21 C27.53,608.42 40.93,623.54 55.31,640.66 C31.12,633.59 17.85,618.34 10.31,597.21 Z" id="Path" fill="#FFFFFF"></path>
            <path d="M17.12,589.54 C22.04,588.31 26.76,590.34 31.12,592.87 C47.12,602.14 56.34,616.87 63.03,633.61 L17.12,589.54 Z" id="Path" fill="#FFFFFF"></path>
            <path d="M38,527.61 C51.24,534.74 73.07,573.15 74.3,592.03 L38,527.61 Z" id="Path" fill="#FFFFFF"></path>
        </g>
    </g>
</svg>