<svg width="1234" height="861" viewBox="0 0 1234 861" xmlns="http://www.w3.org/2000/svg"><g fill="none"><path d="M563.93 567.79a44.15 44.15 0 01-6.35 2.56c-12.57 3-25 6.38-38.12 6.92-20.22.84-40.41 2.4-60.61 3.54-17.09 1-34.19 1.72-51.27 2.65-11.88.65-23.74 1.46-35.62 2.14-17.08 1-34.16 1.9-51.25 2.87-12.5.7-25 1.46-37.49 2.16-10 .56-20 1.06-30 1.6-12.92.71-25.84 1.4-38.75 2.14-8.33.48-16.67.91-25 1.58-10.19.81-20.35 2.13-30.55 2.72-14.18.84-28.38 1.17-42.58 1.78-12.08.52-24.17 1.06-36.25 1.73-7.7.43-12.81-3.78-16.27-9.74a38 38 0 01-5.53-19.55c.08-71.113-.027-142.23-.32-213.35-.26-63.16-.79-126.32-1.25-189.48-.21-29.49-.58-59-.76-88.46 0-5 .67-10 .71-15 0-3.73-.66-7.46-.72-11.2-.22-13.59-.39-27.18-.39-40.77.02-2.918.43-5.82 1.22-8.63 1.28-4.69 4-6.06 8.89-5.21 32.16 5.54 63.72 13.76 95.14 22.33 69.15 18.84 138 38.7 207.11 57.74 59.07 16.28 117.33 35 174.59 56.78a373.36 373.36 0 0113.38 5.38c6.57 2.81 9.94 7.44 9.73 15-.37 13.94-.22 27.9-.11 41.85.22 26.56.83 53.12.792 79.68-.082 49.57-.502 99.13-.782 148.7-.14 24.68-.22 49.36-.44 74-.19 20.7-.54 41.39-.84 62.08-.01 1.12-.18 2.14-.31 3.46zM107.35 102.87l-.41-.45a57 57 0 014-4.7 19520.875 19520.875 0 0148.44-45.48c4.64-4.35 9.3-8.66 14.68-13.66C137.19 29.05 101.22 20 64.31 12.25c0 12.55-.15 24.24 0 35.92.29 19.21.77 38.42 1.21 57.63 0 1.48.35 3 .62 5.09 1.71-1.62 2.76-2.63 3.82-3.61 17.61-16.36 35.16-32.76 52.85-49 3.92-3.6 8.13-7 14.69-9.19-6.25 8.5-13 14.6-19.65 20.8-15.84 14.85-31.94 29.45-48 44a12.7 12.7 0 00-4.42 10.38c.29 38.06.37 76.12.52 114.18 0 1.15.14 2.3.26 4.14a24.54 24.54 0 002.57-1.76c16-15 32-30 48.14-44.88 6.89-6.33 14.23-12.18 21.36-18.25l.49.52a5 5 0 01-.64 1.05 46700.039 46700.039 0 01-68.36 67.42 11.73 11.73 0 00-3.91 9.29c.16 29.7.09 59.4.09 89.11v6l43.44 5.83c.47-6.21 1.14-12 1.29-17.73.53-20.69.87-41.38 1.31-62.07.08-3.55.32-7.09.42-10.64a4.29 4.29 0 012.93-4.3c7.5-3.09 14.91-6.38 22.4-9.48 14.26-5.9 28.56-11.7 42.84-17.57 1.64 2.37 3.22 3.74 5 4.3 12.57 3.87 25.19 7.56 37.78 11.35a28.33 28.33 0 013.57 1.57v7.74l-44.05-13.73c.26 4.22.49 7.88.73 11.64 2.11.63 3.88 1.17 5.66 1.69 11.44 3.31 22.89 6.53 34.29 9.95 4 1.21 4 1.42 2.87 6.6l-42.73-12.83V282l43.74 10.09v5.16l-43.79-10.94c-.31 5.88-.58 11-.87 16.43l45.1 9.38c-.25 2.23-.41 3.59-.56 5l-44.28-9.91v14.95l44.84 10c-.24 2.22-.39 3.58-.56 5.1-14.91-3.16-29.12-8.04-44.32-10.26v16c8.14 1.64 16.06 3.33 24 4.73 1.49.26 3.19-.6 4.78-1 5.15-1.37 10.3-2.77 15.82-4.25.37 15.12 1 29.53 1 43.93.107 60.667.107 121.333 0 182 0 2.3 0 4.6.13 6.9a8.42 8.42 0 00.78 2.11l5.42-1.08c0-7.87.09-15.17 0-22.47-.13-9-.62-17.94-.62-26.9 0-9.83.59-19.66.55-29.48-.18-34.51-.71-69-.73-103.53 0-30.53.77-61.06.73-91.58-.12-78.44-.403-156.873-.85-235.3 0-4.23-1-8.45-1.57-12.65-12.29-3.3-23.85-6.16-35.22-9.61-4.06-1.22-6.78-.26-9.45 2.43-.59.59-1.17 1.2-1.79 1.75a3549.5 3549.5 0 01-14.15 12.5l-.85-.92 17.46-17.64c-3.07-1-5.22-1.62-7.31-2.4-2.09-.78-3.49 0-5 1.35a14788.89 14788.89 0 01-51.9 46.31c-5.55 4.89-11.23 9.8-16.88 14.67zm188.83 20.9l.9 1c-1.69 1.68-3.28 3.47-5.09 5a11107.689 11107.689 0 01-45.75 39 9.32 9.32 0 00-3.81 7.91c.16 24.89.08 49.78.11 74.67 0 1.61.3 3.21.46 4.81 16.11 5 31.85 9.85 47.62 14.65a3810.701 3810.701 0 0040.19 12c3.14.92 5 2.2 4.9 6-.26 17.56-.24 35.13-.31 52.69v5.74c1.71.55 3.06 1.08 4.45 1.41 8.94 2.1 17.9 4.15 26.84 6.24 1.63.38 3.24.81 4.83 1.31 2.45.77 3.47 2.51 2.36 4.83-2.19 4.57-1.53 9.4-1.67 14.17-.26 8.89.31 17.78.07 26.68-.34 12.33-.3 24.67-.39 37 0 3.85.78 4.73 4.69 5.11 1.45.14 2.93 0 4.39.08 6 .43 12.08.79 18.1 1.39 3.76.38 4 1 3.65 5.78-25-1.39-50-3.86-75.29-3.61.25 5.5.48 10.43.73 16l75.42 1.59-.6 4.6c-25.16.08-49.89-2-74.47-1.88v17.47l74.9 2.29c-.1 1.74-.16 2.91-.27 4.84l-74.85-2.95c.44 7.2.86 13.92 1.26 20.41h49.47c8.15 0 16.14.1 24 .14.72 2.94.63 4.69-2.12 4.81-1.67.08-3.34.08-5 .06l-59.59-.7h-6.47v22.79l73.43-2.16v4.86l-73.53 1.74v15.72c12.3-.92 24.07-2.21 35.86-2.57 11.79-.36 23.89-2.37 35.83-.89.52 3.21-1.05 4.08-3.06 4.35-2.89.4-5.8.76-8.71.87-16.26.66-32.54 1.22-48.8 1.88-3.67.15-7.33.56-11.34.87.26 2 .35 3.23.57 4.41.22 1.18.53 2.25.86 3.59 26.18-1.5 52-1.45 78.25-5V103.88l-167.61-47c-.15 2.43-.33 3.87-.3 5.3.39 22.78.86 45.55 1.2 68.32.15 10 0 20.08 0 30.12 0 1.56.21 3.12.36 5.17l53.33-42.02zm164 70.1c21.57-17.77 44.37-34 66.68-52.31-36.39-12.11-71.42-24.9-108.13-34.6 0 3.16-.09 5.64 0 8.1.16 3.54.67 7.06.69 10.59.18 37.007.333 74.007.46 111 0 1.56.22 3.11.4 5.62 36.21-26.82 70.17-55 106.43-80.15a23.55 23.55 0 01-4.52 4.81 23701.272 23701.272 0 01-74.52 58.21c-7.75 6-15.81 11.63-23.63 17.57-1.58 1.2-3.62 2.86-3.86 4.54-.57 4-.19 8.06-.19 12.16 1.14-.13 1.39-.09 1.53-.19 19.653-14.88 39.277-29.77 58.87-44.67.83-.62 1.65-1.26 2.52-1.84a9.81 9.81 0 011.66-.81.67.67 0 01.55.12c.11.09.13.3.52 1.3-7 5.49-14.15 11.19-21.39 16.78-13.56 10.45-27.2 20.8-40.71 31.31-1.52 1.18-3.38 3.13-3.44 4.78-.32 9.73-.15 19.48-.15 29.8 2.65-.8 4.62-1.34 6.56-2a22675.8 22675.8 0 0044-14.67 23.18 23.18 0 0113.49-.82c19.233 4.853 38.473 9.657 57.72 14.41 2.31.58 4.65 1 7.4 1.65.43-48.75-.25-96.71.37-145.22L531.25 143c-23.09 18-45.76 36.25-71.04 50.87h-.03zM130.89 582.48c.14-1.74.31-3 .32-4.22.3-32.807.583-65.617.85-98.43.167-23.62.313-47.24.44-70.86 0-1.67.27-3.33.27-5V369.6L100 365.2c-.59 73.24-1.06 145.68.11 218H112c.15-1.41.33-2.42.35-3.42.29-20.27.72-40.54.82-60.82.24-47 .31-94.07.47-141.11a26.8 26.8 0 01.44-5.6c.2-.93 1.23-1.69 2.86-3.75 2.36 25 1 48.54 1.23 72 .23 23.46.18 47.26 0 70.88-.18 23.62-.66 47.11-1 71.1h13.72zm23.61-.29c.5-9.73 1.39-18.66 1.32-27.59-.14-20.68-1-41.36-1.1-62-.12-27.19.19-54.38.38-81.57 0-4.38.54-8.76.59-13.14.1-8.32 0-16.63 0-25.26L137 370.16V583l17.5-.81zm-59.93 2.32a15.73 15.73 0 00.43-2.33c0-10.85-.12-21.7-.16-32.55-.15-35.51-.38-71-.4-106.54 0-24 .25-48.09.37-72.13 0-2-.16-4.06-.27-6.49l-14.7-2.08a30.8 30.8 0 00-.34 3.49c.34 11.27.87 22.53 1.06 33.8.273 16.933.417 33.867.43 50.8.067 34.3.067 68.597 0 102.89 0 4.18-.35 8.35-.35 12.53 0 6.17-.36 12.37.23 18.61h13.7zm93.14-4.44c0-3-.1-5.32 0-7.59.66-12.27 1.77-24.54 2-36.82.63-35.29.85-70.59 1.37-105.89.26-17.73.83-35.46 1.26-53.2.13-5-.07-10.05.48-15 .46-4.13.17-9 6.57-11l-17.14-3.9c0 3.34.05 5.6 0 7.86-.28 11.05-.49 22.11-.9 33.15-.75 19.58-2 39.15-2.35 58.73-.7 42.4-.93 84.8-1.34 127.2v7.38l10.05-.92zm360.84-171.31l-66.07-6.27c-.43 10.29-.83 20-1.25 30.07 22.88 1.79 44.88 4.53 67.32 5.7v-29.5zm-482.26-48.1c-.15 2.69-.38 4.54-.31 6.37.21 6.26.75 12.51.77 18.77.2 62.7.353 125.397.46 188.09v1.88c.14 6.88.82 7.47 8.28 7.12V361.67l-9.2-1.01zm482.3 42.42v-23.17c-21.66-3.92-43.46-6.38-65.85-9.07v27.39l65.85 4.85zm-65.48-62.68v25.71l65.76 7.25v-23l-65.76-9.96zM482 517l65.58-3.23c1.84-6.72 1.16-13.05 1.09-19.27-14.33-2.09-60-3.25-66.67-1.64V517zm-.41-80.35c-.21 8.77-.15 16.76-.09 25.24 22.89.71 44.86 1.54 66.92.87V444l-66.83-7.35zm1.38-125.79v24.74l66.29 9.17c-.21-7.32.35-14.1-.3-20.3l-65.99-13.61zM267.83 358c33.08 3.82 64.63 13.87 97.7 17.52.48-3.65.9-6.87 1.4-10.68l-99.1-23.73V358zm280.76 111l-66.65-2.6v20.28c22.5-.24 44.46 1.77 66.65 1.18V469zm-67.47 73.27l66.66-4.84a181.9 181.9 0 00-.07-18.69L482.84 521l-1.72 21.27zM365.64 380.5c-33.71-2.37-64.79-13.57-97.09-17.34v13.62l95.79 15c.42-3.61.81-7.04 1.3-11.28zm-2.41 33.4c-30.54-5.06-60.53-10-90.52-15a32.74 32.74 0 00-3.42-.18V412c24.37 3.49 48.28 7 72.21 10.3 7.12 1 14.3 1.49 21.73 2.24V413.9zm-94.75-20c32.34 4 63.44 11.09 95.52 13.84V397.5c-31.72-6.32-63.56-11-95.52-15.7v12.1zm214.09-89.29c1.76.44 3 .79 4.18 1 16 3.27 31.89 6.56 47.84 9.76 4.61.92 9.28 1.58 14.19 2.41v-14.91c-11.34-2.74-22.25-5.54-33.24-8-10.99-2.46-22.07-5.56-34.12-6.88.41 6.01.77 11.07 1.15 16.58v.04zM326.26 307l-83.44-24.46v13.2l83.44 21.89V307zm-.64 17.28l-82.75-22.68v14.27l82.75 17.26v-8.85zm-57 103.77c31.25 3.89 62.52 8.27 94.47 8.27v-6.13l-93.8-13.59c-.46 3.49-.87 6.35-1.19 9.22.066.77.227 1.53.48 2.26l.04-.03zM242.73 276l84.09 25.32v-9c-9-4.23-78.8-25.6-84.09-25.7V276zM363 442.25v-1.61c-10.34-.93-20.67-2.07-31-2.72-6-.38-12 .5-18 0-9.35-.82-18.63-2.4-27.95-3.58-5.74-.72-11.49-1.31-17.59-2-.62 7.58-3 14.36-1 21.89 5.25-1 10.32-2.13 15.43-3 5.11-.87 9.36-3.31 14-5.24 5.52-2.31 11.62-3.3 17.52-4.65a29.34 29.34 0 018-.9c9.17.45 18.32 1.37 27.48 1.75 4.33.16 8.81 1.71 13.11.06zm118.7 117.17l65.85-5.18v-8.19l-65.85 2v11.37zM242.81 334.74c3.67 1.95 7 1.33 10.56.42 4.59-1.18 9.63-3.16 14-2.29 12.38 2.5 25 4.57 36.71 9.65 1.86.81 4.4 1.8 6 1.15 3.93-1.6 7.31 0 10.91.64 1.74.29 3.5.42 5.14.61.87-2.95.65-4.7-2.13-5.38-2.62-.64-5.16-1.66-7.8-2.22-15.68-3.36-31.38-6.59-47-9.95-8.69-1.87-17.34-3.92-26.29-6l-.1 13.37zM419 533.56h16.47v-18c-5.67-.64-10.95-.9-16.47.2v17.8zm-.14-24.23c5.64 1.55 11 .67 16.73-.4.18-5.31.86-10.39-.47-15.69-5.65-.1-10.93-.57-16.26.28v15.81zm17-21.5v-16.59h-16.7v16.59h16.7zm.22-34.74h-16.26v12.2c5.54.44 10.75 1.72 16.28.1l-.02-12.3zm-.4 86.52c-8.13-1.12-11.65-.93-17 .87v11.22l17-1.89v-10.2zm-16.87 24.65l16.64-1.26v-8c-5.78.76-11.38-.11-16.62 2.32l-.02 6.94z" fill="#000"/><path d="M296.18 123.77l-53.29 42c-.15-2.05-.36-3.61-.36-5.17 0-10 .11-20.08 0-30.12-.34-22.77-.81-45.54-1.2-68.32 0-1.43.15-2.87.3-5.3l167.61 47v460.9c-26.24 3.56-52.07 3.51-78.25 5-.33-1.34-.66-2.45-.86-3.59-.2-1.14-.31-2.37-.57-4.41 4-.31 7.67-.72 11.34-.87 16.26-.66 32.54-1.22 48.8-1.88 2.91-.11 5.82-.47 8.71-.87 2-.27 3.58-1.14 3.06-4.35-11.94-1.48-23.89.53-35.83.89-11.94.36-23.56 1.65-35.86 2.57v-15.71l73.53-1.74v-4.86l-73.43 2.16v-22.69h6.47l59.59.7c1.68 0 3.35 0 5-.06 2.75-.12 2.84-1.87 2.12-4.81-7.84 0-15.91-.11-24-.14-8.09-.03-16.31 0-24.47 0h-25c-.4-6.49-.82-13.21-1.26-20.41l74.85 2.95c.11-1.93.17-3.1.27-4.84l-74.9-2.29V468c24.58-.13 49.31 2 74.47 1.88.19-1.45.34-2.58.6-4.6l-75.42-1.59c-.25-5.61-.48-10.54-.73-16 25.25-.25 50.27 2.22 75.29 3.61.38-4.81.11-5.4-3.65-5.78-6-.6-12.06-1-18.1-1.39-1.46-.1-2.94.06-4.39-.08-3.91-.38-4.72-1.26-4.69-5.11.09-12.33.05-24.67.39-37 .24-8.9-.33-17.79-.07-26.68.14-4.77-.52-9.6 1.67-14.17 1.11-2.32.09-4.06-2.36-4.83-1.59-.5-3.2-.93-4.83-1.31-8.94-2.09-17.9-4.14-26.84-6.24-1.39-.33-2.74-.86-4.45-1.41v-5.74c.07-17.56.05-35.13.31-52.69.06-3.81-1.76-5.09-4.9-6a3810.701 3810.701 0 01-40.19-12c-15.77-4.8-31.51-9.69-47.62-14.65-.16-1.6-.46-3.2-.46-4.81 0-24.89 0-49.78-.11-74.67a9.32 9.32 0 013.81-7.91 5240.45 5240.45 0 0045.75-39c1.81-1.55 3.4-3.34 5.09-5l-.94-1.06zm18.61 7c-17.41 13.19-33.5 27.93-49.72 42.52 18.47-11.91 33.86-27.48 49.72-42.48v-.04zm-176.5 46.96c-7.13 6.07-14.47 11.92-21.36 18.25-16.16 14.84-32.1 29.92-48.14 44.88a24.54 24.54 0 01-2.57 1.76c-.12-1.84-.26-3-.26-4.14-.15-38.06-.23-76.12-.52-114.18a12.7 12.7 0 014.42-10.38c16.08-14.6 32.18-29.2 48-44 6.61-6.2 13.4-12.3 19.65-20.8-6.56 2.22-10.77 5.59-14.69 9.19-17.69 16.26-35.24 32.66-52.85 49-1.06 1-2.11 2-3.82 3.61-.27-2.13-.58-3.61-.62-5.09-.44-19.21-.92-38.42-1.21-57.63-.18-11.68 0-23.37 0-35.92 36.91 7.75 72.88 16.8 109.78 26.33-5.38 5-10 9.31-14.68 13.66A46461.33 46461.33 0 00111 97.72a57 57 0 00-4 4.7l-18.7 16.79.89 1c3.61-3.26 7.27-6.45 10.8-9.79 2.55-2.41 4.91-5 7.36-7.54 5.64-4.92 11.33-9.78 16.92-14.75a18089.454 18089.454 0 0051.9-46.31c1.55-1.39 3-2.12 5-1.35s4.24 1.4 7.31 2.4L171.06 60.5l.85.92c4.72-4.16 9.437-8.327 14.15-12.5.62-.55 1.2-1.16 1.79-1.75 2.67-2.69 5.39-3.65 9.45-2.43 11.37 3.45 22.93 6.31 35.22 9.61.54 4.2 1.55 8.42 1.57 12.65.373 78.433.657 156.867.85 235.3 0 30.52-.74 61.05-.73 91.58 0 34.51.55 69 .73 103.53 0 9.82-.56 19.65-.55 29.48 0 9 .49 17.93.62 26.9.12 7.3 0 14.6 0 22.47l-5.42 1.08a8.42 8.42 0 01-.78-2.11c-.11-2.3-.13-4.6-.13-6.9v-182c0-14.4-.67-28.81-1-43.93-5.52 1.48-10.67 2.88-15.82 4.25-1.59.42-3.29 1.28-4.78 1-8-1.4-15.89-3.09-24-4.73V327c15.21 2.22 29.42 7.1 44.37 10.31.17-1.52.32-2.88.56-5.1l-44.84-10v-14.97l44.28 9.91c.15-1.42.31-2.78.56-5l-45.1-9.38c.29-5.44.56-10.55.87-16.43l43.79 10.94v-5.16L183.74 282v-18.59l42.73 12.83c1.11-5.18 1.17-5.39-2.87-6.6-11.4-3.42-22.85-6.64-34.29-9.95-1.78-.52-3.55-1.06-5.66-1.69-.24-3.76-.47-7.42-.73-11.64L227 260.09v-7.74a28.33 28.33 0 00-3.57-1.57c-12.59-3.79-25.21-7.48-37.78-11.35-1.82-.56-3.4-1.93-5-4.3C166.3 241 152 246.8 137.74 252.7c-7.49 3.1-14.9 6.39-22.4 9.48a4.29 4.29 0 00-2.93 4.3c-.1 3.55-.34 7.09-.42 10.64-.44 20.69-.78 41.38-1.31 62.07-.15 5.77-.82 11.52-1.29 17.73L66 351.09v-6c0-29.71.07-59.41-.09-89.11a11.73 11.73 0 013.91-9.29c22.88-22.373 45.67-44.837 68.37-67.39a5 5 0 00.64-1.05l5.78-5-.83-.93-5.49 5.41zm55.51-29.55l-1.05-.87L122 214.66l1.2 1.25c23.49-22.61 50.53-41.51 70.6-67.73zm-82.26 76.27l.85.85 8.17-7.49-.88-.95-8.14 7.59zM160.12 72h.2l5.6-7.39.21.21-6.01 7.18zm300.09 121.87c25.28-14.62 47.95-32.89 71-50.92l18.23 6.41c-.62 48.51.06 96.47-.37 145.22-2.75-.61-5.09-1.07-7.4-1.65-19.247-4.78-38.487-9.583-57.72-14.41a23.18 23.18 0 00-13.49.82 7558.765 7558.765 0 01-44 14.67c-1.94.64-3.91 1.18-6.56 2 0-10.32-.17-20.07.15-29.8.06-1.65 1.92-3.6 3.44-4.78 13.51-10.51 27.15-20.86 40.71-31.31 7.24-5.59 14.4-11.29 21.39-16.78-.39-1-.41-1.21-.52-1.3a.67.67 0 00-.55-.12 9.81 9.81 0 00-1.66.81c-.87.58-1.69 1.22-2.52 1.84a29441.98 29441.98 0 01-58.82 44.65c-.14.1-.39.06-1.53.19 0-4.1-.38-8.2.19-12.16.24-1.68 2.28-3.34 3.86-4.54 7.82-5.94 15.88-11.56 23.63-17.57 24.913-19.333 49.77-38.73 74.57-58.19a23.55 23.55 0 004.52-4.81c-36.26 25.13-70.22 53.33-106.43 80.15-.18-2.51-.39-4.06-.4-5.62-.16-37-.313-74-.46-111 0-3.53-.53-7.05-.69-10.59-.11-2.46 0-4.94 0-8.1 36.71 9.7 71.74 22.49 108.13 34.6-22.33 18.33-45.13 34.52-66.7 52.29z" fill="#FFF"/><path d="M130.89 582.48H117.2c.35-24 .84-47.54 1-71.1.16-23.56.22-47.25 0-70.88-.22-23.63 1.13-47-1.23-72-1.63 2.06-2.66 2.82-2.86 3.75a26.8 26.8 0 00-.44 5.6c-.16 47-.23 94.07-.47 141.11-.1 20.28-.53 40.55-.82 60.82 0 1-.2 2-.35 3.42h-11.89c-1.17-72.3-.7-144.74-.11-218l32.76 4.4v34.37c0 1.67-.26 3.33-.27 5-.16 23.62-.307 47.24-.44 70.86-.247 32.807-.53 65.617-.85 98.43-.03 1.24-.23 2.48-.34 4.22zm23.61-.29L137 583V370.16l18.76 2.43c0 8.63.07 16.94 0 25.26-.05 4.38-.56 8.76-.59 13.14-.19 27.19-.5 54.38-.38 81.57.09 20.68 1 41.36 1.1 62 0 8.97-.89 17.9-1.39 27.63zm-59.93 2.32H80.88c-.59-6.24-.24-12.44-.23-18.61 0-4.18.34-8.35.35-12.53V450.48c0-16.927-.143-33.86-.43-50.8-.19-11.27-.72-22.53-1.06-33.8a30.8 30.8 0 01.34-3.49l14.7 2.08c.11 2.43.28 4.46.27 6.49-.12 24-.39 48.08-.37 72.13 0 35.51.25 71 .4 106.54 0 10.85.12 21.7.16 32.55a15.73 15.73 0 01-.44 2.33zm93.14-4.44l-10 .9v-7.38c.41-42.4.64-84.8 1.34-127.2.32-19.58 1.6-39.15 2.35-58.73.41-11 .62-22.1.9-33.15.05-2.26 0-4.52 0-7.86l17.14 3.9c-6.4 2-6.11 6.88-6.57 11-.55 5-.35 10-.48 15-.43 17.74-1 35.47-1.26 53.2-.52 35.3-.74 70.6-1.37 105.89-.22 12.28-1.33 24.55-2 36.82-.15 2.29-.05 4.54-.05 7.61zm360.84-171.31v29.5c-22.44-1.17-44.44-3.91-67.32-5.7.42-10.09.82-19.78 1.25-30.07l66.07 6.27zm-482.26-48.1l9.2 1v221.23c-7.46.35-8.14-.24-8.28-7.12v-1.88c-.147-62.667-.3-125.363-.46-188.09 0-6.26-.56-12.51-.77-18.77-.07-1.83.16-3.68.31-6.37zm482.3 42.42l-65.85-4.85v-27.39c22.39 2.69 44.19 5.15 65.85 9.07v23.17zm-65.48-62.68l65.76 10v23l-65.76-7.25zM482 517v-24.18c6.62-1.61 52.34-.45 66.67 1.64.07 6.22.75 12.55-1.09 19.27L482 517zm-.44-80.39l66.83 7.39v18.76c-22.06.67-44-.16-66.92-.87-.06-8.52-.12-16.51.09-25.28zm1.38-125.79l66 13.61c.65 6.2.09 13 .3 20.3l-66.29-9.17-.01-24.74zM267.83 358v-16.85l99.1 23.73c-.5 3.81-.92 7-1.4 10.68-33.07-3.65-64.62-13.7-97.7-17.56zm280.76 111.07v18.86c-22.19.59-44.15-1.42-66.65-1.18v-20.28l66.65 2.6zm-67.47 73.27l1.72-21.34 64.87-2.22a181.9 181.9 0 01.07 18.69l-66.66 4.87zM365.64 380.5c-.49 4.24-.88 7.67-1.3 11.25l-95.79-15v-13.59c32.3 3.77 63.38 14.97 97.09 17.34zm-2.41 33.4v10.67c-7.43-.75-14.61-1.25-21.73-2.24-23.93-3.32-47.84-6.81-72.21-10.3v-13.29c1.142 0 2.284.06 3.42.18 29.99 4.95 59.98 9.92 90.52 14.98zm-94.75-20.04V381.8c32 4.72 63.8 9.38 95.52 15.7v10.2c-32.08-2.7-63.18-9.8-95.52-13.84zm214.09-89.29c-.38-5.51-.74-10.62-1.15-16.55 12.05 1.32 23 4.43 34.12 6.88 11.12 2.45 21.9 5.23 33.24 8v14.91c-4.91-.83-9.58-1.49-14.19-2.41-16-3.2-31.89-6.49-47.84-9.76-1.22-.28-2.42-.64-4.18-1.07zM326.26 307v10.63l-83.44-21.89v-13.2zm-.64 17.31v8.82l-82.75-17.26V301.6zm-57.04 103.77a9.33 9.33 0 01-.48-2.26c.32-2.87.73-5.73 1.19-9.22l93.76 13.62v6.13c-31.95 0-63.22-4.35-94.47-8.27zM242.73 276v-9.39c5.29.1 75.06 21.47 84.09 25.7v9L242.73 276zM363 442.25c-4.32 1.65-8.8.1-13.16-.08-9.16-.38-18.31-1.3-27.48-1.75a29.34 29.34 0 00-8 .9c-5.9 1.35-12 2.34-17.52 4.65-4.61 1.93-8.94 4.39-14 5.24-5.06.85-10.18 2-15.43 3-2-7.53.41-14.31 1-21.89 6.1.69 11.85 1.28 17.59 2 9.32 1.18 18.6 2.76 27.95 3.58 6 .52 12-.36 18 0 10.36.65 20.69 1.79 31 2.72l.05 1.63zm118.7 117.17v-11.34l65.85-2v8.19zM242.81 334.74v-13.33c8.95 2 17.6 4.09 26.29 6 15.67 3.36 31.37 6.59 47 9.95 2.64.56 5.18 1.58 7.8 2.22 2.78.68 3 2.43 2.13 5.38-1.64-.19-3.4-.32-5.14-.61-3.6-.61-7-2.24-10.91-.64-1.59.65-4.13-.34-6-1.15-11.75-5.08-24.33-7.15-36.71-9.65-4.33-.87-9.37 1.11-14 2.29-3.45.87-6.79 1.49-10.46-.46zM419 533.56v-17.77c5.52-1.1 10.8-.84 16.47-.2v18l-16.47-.03zm-.16-24.23v-15.81c5.33-.85 10.61-.38 16.26-.28 1.33 5.3.65 10.38.47 15.69-5.69 1.07-11.09 1.95-16.73.4zm17.04-21.5h-16.72v-16.59h16.72zm.22-34.74v12.3c-5.53 1.62-10.74.34-16.28-.1v-12.2h16.28zm-.4 86.52v10.2l-17 1.89v-11.22c5.35-1.8 8.87-1.99 17-.87zm-16.87 24.65v-6.87c5.24-2.43 10.84-1.56 16.62-2.32v8l-16.62 1.19z" fill="#FFF"/><path d="M314.79 130.81c-15.86 15-31.25 30.57-49.72 42.52 16.22-14.59 32.31-29.33 49.72-42.52zM193.8 148.18c-20.07 26.22-47.11 45.12-70.6 67.73l-1.2-1.25 70.75-67.35 1.05.87zm-86.45-45.31c-2.45 2.52-4.81 5.13-7.36 7.54-3.53 3.34-7.19 6.53-10.8 9.79l-.89-1 18.64-16.79.41.46zm4.19 121.58l8.14-7.59.88.95-8.17 7.49zM160.12 72l6-7.14-.21-.21-5.6 7.39zm-21.83 105.73l5.44-5.41.83.93-5.78 5zm1093.13 35.06c.127 34.06.257 68.127.39 102.2.11 24.81.37 49.61.42 74.42 0 12.84-.47 25.68-.37 38.52.16 20.06.53 40.13 1 60.19.43 18.29.41 36.53-3.41 54.53a57.56 57.56 0 01-3.53 11.62c-5.37 12-15 18.55-27.93 19.27-7.32.41-14.79-.63-22.1-1.67-18.5-2.64-37-5.54-55.42-8.54-14.68-2.38-29.27-5.32-44-7.53-13.79-2.06-27.73-3.17-41.52-5.28-19.38-3-38.68-6.42-58-9.71-33.32-5.68-66.63-11.44-100-17.08-36.87-6.25-73.74-12.54-110.66-18.54-13.11-2.13-26.3-3.61-39.06-7.66a23.86 23.86 0 01-11-7.18c-7.28-8.14-8.52-18.21-9.56-28.29-1-10.29-1.73-20.57-.41-31 1-8.24-1.38-247.18-1.72-252.34-.48-7.13 1.27-13.85 3.15-20.61a9.46 9.46 0 015.31-6.56c6.75-3.12 13.35-6.6 20.26-9.31 54.39-21.37 109.83-39.66 165.78-56.48 79.91-24 160.58-45.23 241.49-65.55 21.4-5.37 43.27-8.87 64.94-13.09 6.06-1.18 11.72-1.16 17.24 3.15 5.85 4.56 9.11 9.93 9.21 17.14.15 11.71.09 23.43 0 35.14-.21 23.45-.67 46.91-.74 70.36-.08 26.62.17 53.24.27 79.86l-.03.02zM536.84 614.23c12.87-7.26 25.31-4.78 37.74-2.12 16.18 3.47 31.54 9.33 46.6 16.07 10.57 4.74 17.1 13.48 21.7 23.51 3.85 8.37 2.36 17.57 1.15 26.35-2.27 16.5-14.88 27.94-31.49 29.37-2.42.2-4.83.65-7.84 1.07.32 4.92.93 9.73.87 14.54-.1 9.54-.55 19.07-.91 28.61-.07 2-.56 4-.47 6 .29 6.31-2.58 10.87-8.09 13.34-4.82 2.17-9.36 4-13 8.4-2.2 2.67-7.07 3.9-10.89 4.26-6.51.63-13.48 1.37-17.92-4.39l-193.68 39.3c.22 5.64.84 11.43-1.76 17.24-4.27 9.54-16.77 12.06-23.91 9.88a8.77 8.77 0 01-5-4c-1.53-3.36-4.26-4-7.21-5.19a6306.863 6306.863 0 01-68.23-27.06c-3.71-1.51-6.89-2.52-10.55-.14-3.34 2.17-6.78 1.59-10.07-.45-2.46-1.52-4.94-3-7.46-4.43-5.06-2.85-8.74-6.36-6.2-12.51-.59-.71-.8-1.25-1.15-1.36-7.67-2.47-10.55-8.86-13.2-15.64-4.2-10.73-6.5-21.73-5.54-33.82-2.7-1.64-5.43-3.47-8.3-5-9.23-5-18-10.63-25.58-18a14.48 14.48 0 01-4.51-7.12C157 691 161.37 673.43 174.65 658c7.23-8.41 16.13-13.87 27.77-15.14-.84-2.36-1.41-4.2-2.14-6-6.37-15.47-12.07-31.24-14.88-47.73-2.53-14.84-4.77-29.83-4.18-45a37.68 37.68 0 016.08-18.82 13.25 13.25 0 016.1-4.74 49.62 49.62 0 0121.51-3.46c20.87 1.32 41.51 4.47 62.08 7.93 12.47 2.1 24.65 5.86 37 8.49 18.52 4 37.41 4.88 56.21 6.67 10.34 1 19.94-1.27 29.54-3.72 17-4.33 33.78-9.58 50.74-14.09 15-4 30.1-7.83 45.29-11.1a90.61 90.61 0 0121.17-1.9c15 .39 25.16 12.39 25.9 27.76.19 4-.26 8-.13 12 .6 18.31-1.82 36.35-4.56 54.37-.45 3.22-.79 6.48-1.31 10.71zm-329.17 28.26c14 1.3 26.52 5.69 38.79 11.13 10.78 4.79 21.55 9.77 32.74 13.36 9 2.9 17.53 6.12 25.05 12 1.57 1.22 4.63 1.19 6.85.82 21.07-3.53 42.07-7.42 63.16-10.79a11.5 11.5 0 009.42-7.26 19.76 19.76 0 001.83-6.38c.84-10.18 1.89-20.38 2.05-30.59.21-12.68-.25-25.38-.67-38.07-.3-8.9-.93-17.81-4.3-26.22-3-7.59-7.82-12.26-16.82-12.79a279 279 0 01-35-4.24c-27.11-5.06-54-11.08-81.16-16-13.27-2.43-26.66-4.92-40.34-3.74-11.36 1-17.57 6.48-19 17.77-.66 5.06-1.35 10.23-1 15.28.74 9.72 1.88 19.46 3.51 29.07 3.22 19.1 8.94 37.6 14.89 56.65zm175.69-92.9c7.37 10.9 9.09 22.76 9.68 34.79.55 11.1.7 22.24.48 33.36-.24 12.65-1 25.3-1.72 37.93-.22 3.58-1.33 7.11-2.14 11.27 7-1.19 13.33-2.3 19.66-3.31 20-3.2 39.83-7.09 59.9-9.27 12.87-1.4 26-.26 39.37-.26 1.09-9.49 4.68-18.25 11.92-25 3.18-3 4.44-6.37 5-10.46 1.65-13.23 3.45-26.43 5.16-39.65 1.94-15 3.88-30 2-45.14-1-8.3-5.76-14.23-14.07-15.46a56.42 56.42 0 00-16.51-.23c-10.09 1.54-20.08 3.85-30 6.18-19.87 4.64-39.69 9.5-59.52 14.31-1.88.45-3.68 1.18-5.51 1.78v1.39l13.42 1.13c-11.8 5.27-23.85 8.05-37.12 6.64zm-94.5 181c6.45 2.83 9.33 1.47 10.67-5.36a30.72 30.72 0 00.47-8c-.26-4-2.85-6.28-6.35-7.86-3.5-1.58-6.07.23-8.31 2.45-7.15 7.1-11 15.95-10.49 25.83.91 16.06 13.66 23.49 27.54 18.39 8.24-3 15.33-8.24 17-17.37 3-16.24-.39-31.4-10.57-44.63a57.45 57.45 0 00-26-19.17c-19.64-7.14-39.59-13.39-59.48-19.79a74.07 74.07 0 00-12.44-2.38 30.65 30.65 0 00-7.29-.09c-14.41 1.49-24 9.8-30.37 22.21-4.82 9.42-5.46 19.38-3.75 29.89 1.38 8.49 4.78 14.38 13 17.7 8.43 3.43 16.79 7.15 23.56 13.57a12.18 12.18 0 003.48 2c15.22 6.8 30.37 13.79 45.73 20.27 6.53 2.75 11.16 7.38 15.67 12.5-23.34-5.75-44.93-15.33-66.22-27.45a24.52 24.52 0 000 4c4.5 20.93 14.67 37.31 35.22 46.32 27.92 12.25 56 24 84.9 33.82 5.16 1.77 10.81 2.32 16.29 2.89 2.14.22 4.43-1.09 6.26-1.59-.49-8.81-.52-16.76-1.49-24.59-1-8.11-2.9-16.1-4.46-24.4-13-.28-21.48-7.9-29.86-15.89-3.38 1.67-6.4 3-9.3 4.63-2.74 1.49-5.39 1.88-8.23.3-5.63-3.12-11.34-6.12-16.94-9.3a10.38 10.38 0 01-2.84-2.77c-10.54-13.72-7.61-39.5 5.81-50.65 5.19-4.31 10.75-5.79 17.24-2.32 6.85 3.67 11.2 8.89 11.22 16.76 0 3.48-1 7.05-2.07 10.43-1.72 5.56-5.73 8.18-11.58 8.11-5.85-.07-7.23-1.99-6.02-8.5v.04zm29.25 28.87c4 2.38 7.55 4.25 10.86 6.44a39.47 39.47 0 0024.08 6.47c11.08-.52 22.31-1.11 33.12-3.34 23.71-4.9 47.22-10.79 70.78-16.4 6.74-1.61 10.31-6.48 11.31-13.4 1.52-10.45-8.28-25.54-16.38-29.4-10.44-5-21-9.89-30.85-15.83-12.54-7.54-26.33-11.79-39.82-16.9a11.74 11.74 0 00-5.22-.43c-11 1.2-22.08 2.44-33.1 3.84-10.05 1.27-20.07 2.75-31.62 4.35 12.34 9.87 17.77 22 19.48 36.26 1.77 14.7-1.26 27.73-12.64 38.3v.04zm155.12-11.65c2.76-.52 4.3-.76 5.81-1.1a74514.24 74514.24 0 0061.87-13.87c8.89-2 17.79-4 26.6-6.33 4.68-1.24 5-2.19 4.46-6.64-.61-5.29-.93-10.63-1.84-15.87a15.91 15.91 0 00-3-7.1c-7.83-9.61-17.13-17.6-28.63-22.46-10.85-4.58-21.88-8.81-33-12.56a40.35 40.35 0 00-15.07-2.15c-13.29.87-26.63 1.92-39.75 4.08-17.56 2.88-34.93 6.86-52.37 10.39a15.59 15.59 0 00-2.06.75c6.77 3 12.64 5.11 18.08 8.06 13.7 7.41 27.35 14.94 40.69 23a39.56 39.56 0 0110.95 10.48c6.5 8.93 10.77 18.84 7.26 31.28v.04zm127.55-64.72v-2c2-.7 4.09-1.35 6.1-2.1a35.32 35.32 0 005.52-2.31c2.4-1.4 4-5.38 3.16-7.48-1.07-2.69-3.55-2.17-5.72-2.3-7.33-.45-12.13 3.56-15.93 9.17-3.49 5.14-.73 9.77 1.46 14.4.38.8.89 1.54 1.33 2.32 2.15 3.85 5.49 5.22 9.84 5.77 12.58 1.58 30-9.2 29.08-24.51a33.15 33.15 0 01.3-4.66c1.21-13.5-5.4-25.84-17.8-31.33a320.22 320.22 0 00-54.82-18.9c-8.46-2-16.26-.6-23.17 5.16A77.25 77.25 0 00519 651.48a31.11 31.11 0 00-1.38 4.8c.7.55 1 1 1.4 1.07 2.53.83 5.06 1.73 7.65 2.36 18.84 4.59 34 14.91 46.75 29.31 3.24 3.67 5.54 7.72 5.56 12.51 0 7.09-.37 14.2-1 21.26-.37 4.28-2.67 7.28-7.26 8.38-2.69.64-5.19 2.1-7.66 3.14 1.1 8.68 2.09 16.6 3.15 25 8.74 1.7 17.21 6.54 26.1.59.94-17.82 6-34.91 5.26-53.16-7.13-2.5-9.51-8.85-12.08-15.42-3.91-10-1.46-18.3 5.33-25.83 5.93-6.58 13-10.17 22-7.32 4.59 1.45 8.7 3.69 9.48 9.19.84 5.88-.45 11.15-5.06 15.11a7.86 7.86 0 01-4.86 1.79c-3.84-.12-7.72-.78-11.6-1.21v.04zm-42.45 54.13c-69 16.55-136.68 35.16-206.57 43 1.59 10.64 3.08 20.65 4.52 30.31L555 768.21c1.11-10.59 2.2-20.65 3.33-31.03v.04z" fill="#000"/><path d="M207.67 642.49c-5.95-19-11.7-37.55-14.94-56.69-1.63-9.61-2.77-19.35-3.51-29.07-.39-5.05.3-10.22 1-15.28 1.47-11.29 7.68-16.8 19-17.77 13.68-1.18 27.07 1.31 40.34 3.74 27.12 5 54.05 11 81.16 16a279 279 0 0035 4.24c9 .53 13.77 5.2 16.82 12.79 3.37 8.41 4 17.32 4.3 26.22.42 12.69.88 25.39.67 38.07-.16 10.21-1.21 20.41-2.05 30.59a19.76 19.76 0 01-1.83 6.38 11.5 11.5 0 01-9.42 7.26c-21.09 3.37-42.09 7.26-63.16 10.79-2.22.37-5.28.4-6.85-.82-7.52-5.88-16-9.1-25.05-12-11.19-3.59-22-8.57-32.74-13.36-12.22-5.4-24.74-9.79-38.74-11.09z" fill="#FFF"/><path d="M383.36 549.59c13.27 1.45 25.32-1.37 37-6.67L407 541.79v-1.39c1.83-.6 3.63-1.33 5.51-1.78 19.83-4.81 39.65-9.67 59.52-14.31 10-2.33 19.95-4.64 30-6.18a56.42 56.42 0 0116.51.23c8.31 1.23 13 7.16 14.07 15.46 1.91 15.18 0 30.15-2 45.14-1.71 13.22-3.51 26.42-5.16 39.65-.51 4.09-1.77 7.48-5 10.46-7.24 6.78-10.83 15.54-11.92 25-13.35 0-26.5-1.14-39.37.26-20.07 2.18-39.94 6.07-59.9 9.27-6.33 1-12.64 2.12-19.66 3.31.81-4.16 1.92-7.69 2.14-11.27.76-12.63 1.48-25.28 1.72-37.93.22-11.12.07-22.26-.48-33.36-.53-12-2.25-23.86-9.62-34.76zm-94.5 180.96c-1.21 6.51.16 8.45 6 8.52 5.84.07 9.86-2.55 11.58-8.11 1-3.38 2.08-7 2.07-10.43 0-7.87-4.37-13.09-11.22-16.76-6.49-3.47-12.05-2-17.24 2.32-13.42 11.15-16.35 36.93-5.81 50.65a10.38 10.38 0 002.84 2.77c5.6 3.18 11.31 6.18 16.94 9.3 2.84 1.58 5.49 1.19 8.23-.3 2.9-1.59 5.92-3 9.3-4.63 8.38 8 16.86 15.61 29.86 15.89 1.56 8.3 3.46 16.29 4.46 24.4 1 7.83 1 15.78 1.49 24.59-1.83.5-4.12 1.81-6.26 1.59-5.48-.57-11.13-1.12-16.29-2.89-28.86-9.85-57-21.57-84.9-33.82-20.55-9-30.72-25.39-35.22-46.32a24.52 24.52 0 010-4c21.31 12.1 42.9 21.68 66.17 27.39-4.51-5.12-9.14-9.75-15.67-12.5-15.36-6.48-30.51-13.47-45.73-20.27a12.18 12.18 0 01-3.48-2c-6.77-6.42-15.13-10.14-23.56-13.57-8.18-3.32-11.58-9.21-13-17.7-1.71-10.51-1.07-20.47 3.75-29.89 6.33-12.41 16-20.72 30.37-22.21a30.65 30.65 0 017.29.09 74.07 74.07 0 0112.44 2.38c19.89 6.4 39.84 12.65 59.48 19.79a57.45 57.45 0 0126 19.17c10.18 13.23 13.55 28.39 10.57 44.63-1.67 9.13-8.76 14.33-17 17.37-13.88 5.1-26.63-2.33-27.54-18.39-.56-9.88 3.34-18.73 10.49-25.83 2.24-2.22 4.74-4.06 8.31-2.45 3.57 1.61 6.09 3.89 6.35 7.86a30.72 30.72 0 01-.47 8c-1.27 6.81-4.15 8.19-10.6 5.36z" fill="#FFF"/><path d="M318.11 759.42c11.38-10.57 14.41-23.6 12.64-38.34-1.71-14.22-7.14-26.39-19.48-36.26 11.55-1.6 21.57-3.08 31.62-4.35 11-1.4 22.06-2.64 33.1-3.84a11.74 11.74 0 015.22.43c13.49 5.11 27.28 9.36 39.82 16.9 9.89 5.94 20.41 10.87 30.85 15.83 8.1 3.86 17.9 19 16.38 29.4-1 6.92-4.57 11.79-11.31 13.4-23.56 5.61-47.07 11.5-70.78 16.4-10.81 2.23-22 2.82-33.12 3.34a39.47 39.47 0 01-24.05-6.47c-3.34-2.19-6.86-4.06-10.89-6.44z" fill="#FFF"/><path d="M473.23 747.77c3.51-12.44-.76-22.35-7.34-31.34A39.56 39.56 0 00454.94 706c-13.34-8-27-15.57-40.69-23-5.44-3-11.31-5.08-18.08-8.06a15.59 15.59 0 012.06-.75c17.44-3.53 34.81-7.51 52.37-10.39 13.12-2.16 26.46-3.21 39.75-4.08a40.35 40.35 0 0115.07 2.15c11.16 3.75 22.19 8 33 12.56 11.5 4.86 20.8 12.85 28.63 22.46a15.91 15.91 0 013 7.1c.91 5.24 1.23 10.58 1.84 15.87.51 4.45.22 5.4-4.46 6.64-8.81 2.34-17.71 4.31-26.6 6.33a15505.99 15505.99 0 01-61.87 13.87c-1.43.3-2.96.55-5.73 1.07z" fill="#FFF"/><path d="M600.78 683.05c3.88.43 7.76 1.09 11.65 1.19a7.86 7.86 0 004.86-1.79c4.61-4 5.9-9.23 5.06-15.11-.78-5.5-4.89-7.74-9.48-9.19-9-2.85-16.1.74-22 7.32-6.79 7.53-9.24 15.84-5.33 25.83 2.57 6.57 5 12.92 12.08 15.42.7 18.25-4.32 35.34-5.26 53.16-8.89 6-17.36 1.11-26.1-.59-1.06-8.38-2.05-16.3-3.15-25 2.47-1 5-2.5 7.66-3.14 4.59-1.1 6.89-4.1 7.26-8.38.61-7.06 1-14.17 1-21.26 0-4.79-2.32-8.84-5.56-12.51-12.72-14.4-27.91-24.72-46.75-29.31-2.59-.63-5.12-1.53-7.65-2.36-.39-.12-.7-.52-1.4-1.07a31.11 31.11 0 011.38-4.8 77.25 77.25 0 0121.11-27.19c6.91-5.76 14.71-7.2 23.17-5.16A320.22 320.22 0 01618.1 638c12.4 5.49 19 17.83 17.8 31.33a33.15 33.15 0 00-.3 4.66c.88 15.31-16.5 26.09-29.08 24.51-4.35-.55-7.69-1.92-9.84-5.77-.44-.78-.95-1.52-1.33-2.32-2.19-4.63-5-9.26-1.46-14.4 3.8-5.61 8.6-9.62 15.93-9.17 2.17.13 4.65-.39 5.72 2.3.84 2.1-.76 6.08-3.16 7.48a35.32 35.32 0 01-5.52 2.31c-2 .75-4.06 1.4-6.1 2.1.01.69.01 1.36.02 2.02z" fill="#FFF"/><path d="M558.33 737.18c-1.13 10.38-2.22 20.44-3.37 31l-198.68 42.29c-1.44-9.66-2.93-19.67-4.52-30.31 69.89-7.82 137.54-26.43 206.57-42.98z" fill="#FFF"/><path d="M728.89 618.06c-3.77-7-5.56-7.65-12.57-6.74a47.68 47.68 0 01-12-.46c-5.13-.66-10.06-1.41-15.37-.34-7.21 1.44-14.65 1.82-22 2.4a11.61 11.61 0 01-5.84-1.1c-3.15-1.6-3.4-5-.6-7.16 1.92-1.51 4.26-2.47 6.65-3.81-3.57-6.17-4.16-13-4-20.62-2.29-1.92-5.35-4-5.54-8 3.67-2.59 3.67-2.59 9.81-2.67 4-6.93 10.85-7.4 18-6.68 3.35.33 6.64 1.41 10 1.59 4.76.24 8.19 1.18 10.84 6.14 1.78 3.32 6.38 6.31 10.2 7.08 6.09 1.22 10.91 4.16 15.52 7.71a31.73 31.73 0 0012 5.78c10.27 2.52 20.46 5.35 30.65 8.19 3.65 1 6.21.56 8.64-2.89 10.08-14.31 20.48-28.4 30.72-42.59a13.48 13.48 0 002.23-12.62 210.84 210.84 0 01-6.48-28.2c-1.16-8-.79-16.16-.85-24.25a8.19 8.19 0 011.7-5c5-5.79 9.56-12.56 16.88-15.25 12.43-4.57 27.64-4.5 36.66 6.64 1.55 1.91 3 3.89 4.33 5.59 19.6-9.07 39.31-7.35 58.8-7.13 9.9.068 19.79.692 29.62 1.87a186.36 186.36 0 0125 5.25c6.07 1.62 11.73 4.78 17.81 6.27 7.46 1.82 11 7 12.22 13.55a326.63 326.63 0 015 36.65 135.9 135.9 0 01-1.84 33.62c-2.88 15.67-4.1 31.65-6 47.51a12 12 0 00.42 2.54c3.13-.49 6.17-1 9.21-1.42 7.35-1.07 14.68-2.41 22.07-3.08 9.3-.85 12.7 2.88 10.9 12a119.919 119.919 0 01-4.6 15.44c-1.55 4.47-3.53 8.79-5.27 13.19a30.841 30.841 0 00-.85 3.4c3.53.74 6.92 1.5 10.33 2.17 9.28 1.8 18.52 3.84 27.86 5.25 6.29 1 11 4.63 16.24 7.61.84.48 1.23 1.84 1.71 2.84 5.09 10.61 1.55 21.07-9 26.49-3.57 1.82-7.31 3.33-11.12 5.06-.61 17.8-1.07 35.36-1.86 52.9-.49 11-1.45 22-2.27 33-.12 1.56-.76 3.06-1 4.61-1 6-4.6 9.5-9.91 12.61-18.41 10.79-38.61 17.27-58.24 25.09-15.27 6.08-30.83 11.47-46.39 16.8-21.12 7.22-42.52 6.3-64 1.65-33.36-7.2-65.39-18.79-97.8-29.15-23.22-7.43-45.93-16.15-67.53-27.53-6.56-3.47-12.74-7.66-19.14-11.43-6.69-3.94-10.81-10.15-14.51-16.61-1.15-2-1.4-4.72-1.46-7.13-.67-28.84-1.23-57.68-1.83-86.53a16.85 16.85 0 00-.29-1.85c-3.26-1.7-6.85-3.47-10.35-5.41-4.9-2.73-10.14-5-14.51-8.48-11.38-8.94-8.31-22 1.51-27.4 9.06-4.93 19-7.06 28.86-9.23 10.12-2.22 20.24-4.5 30.35-6.77.777-.28 1.538-.6 2.28-.96zM815 508.15v-.19c.48 3.85-1 8.12 2.29 11.43 5-3 5.44-7.87 5.17-13.81 6.61 8.27-2.07 13.2-3.16 20.21H830c-2.08 5.52-6.55 5.36-11.73 5.27 1.55 4.39 2.83 8.13 4.2 11.84a8.11 8.11 0 007.65 5.66c4 .22 8.09.34 12.14.39a17.89 17.89 0 0014.74-6.89c2-2.49 4.2-4.87 6.3-7.3-1 8-6.76 12.28-12.71 16.45 1 1.87 1.71 3.23 2.47 4.56 2.45 4.29 4.3 5.36 8.64 3.89a39.62 39.62 0 0024-21.73l-11.55-18.67-3.83.2a36.91 36.91 0 01.83-3.63 23.1 23.1 0 00.24-13.28c-.7-2.85-2.35-4.31-5.21-4.27-2.86.04-2.87 2.26-3.08 4.32-.05.52-.51 1-1.15 2.2-1.74-2.51-3.42-5-2.06-7 1.72-2.53 4.7-4.19 7.33-6.39-4.86-19.3-17.6-21.43-30.25-19.89-12.65 1.54-21.89 10-22.27 19.91 3.48-.77 7.43-2.25 9.92 1.13 2 2.69.26 5.47-1.31 7.73l-9.4 1.54c.44 2.5.78 4.41 1.09 6.32zm143.25 140.9c-7.54-1.95-14-3.77-20.6-5.29-15.79-3.67-31.6-7.2-47.41-10.76a6.18 6.18 0 00-2.64-.25c-6.91 1.66-13.45-.28-19.93-2.13-17.31-4.93-34.53-10.16-51.86-15-5.81-1.62-11.81-3.31-17.76-3.31-12.39 0-24.61 2.34-36.71 5-24.88 5.373-49.743 10.84-74.59 16.4a70.12 70.12 0 00-12.18 4 23 23 0 00-7.22 4.84 10.05 10.05 0 001.56 15.73 106.82 106.82 0 0015 7.7c7.43 3.2 15.11 5.82 22.58 9 5.6 2.34 10.89 5.44 16.55 7.61 17 6.55 34 13.33 51.32 19.07 25.65 8.5 51.56 16.23 77.39 24.22 13.55 4.2 26.95 9.21 40.79 12.14 21.45 4.55 43.38 5.13 65.25 3.79 19.23-1.18 38-4.56 55.42-13.43 3.39-1.73 7.23-2.56 10.73-4.12 21-9.33 41.87-18.8 62.86-28.08 4.4-1.95 5.12-5.43 4.77-9.41-.51-5.78-4-9.35-10.47-10.78-12.55-2.74-25.13-5.32-37.71-7.88a41.48 41.48 0 00-5.62-.35c-2.31 5.11-5.48 9.82-6.48 14.95-1.18 6.05-4.62 8.19-9.81 9.48-18.8 4.667-37.58 9.373-56.34 14.12-13.89 3.56-27.57 3.89-41.19-1.31-6.31-2.41-12.72-4.59-19.2-6.48-8.91-2.59-11-8.55-5.62-17.23 1.37-2.21 5.24-3.23 8.17-4.06 13.39-3.79 26.84-7.32 40.27-10.94a6.15 6.15 0 001.91-.64c1.06-.76 2.39-1.5 2.9-2.58 1.97-4.4 3.69-8.78 5.9-14.02h-.03zm-7-44l24.3 4.46c-2.69 3.18-5.39 4-8.84 3.2-5-1.14-10-2-15.41-3-.66 10.17-1.28 19.76-1.94 29.8l11.1 2.72c.73-1.13 1.29-1.64 1.41-2.23 1.78-8.65 8.18-11.91 15.86-13.6 3.72-.81 7.49-1.39 11.25-2.09.49-1.32.92-2.34 1.25-3.4 6.27-19.69 8.61-40 9.28-60.55.22-6.53-.11-13.12.67-19.58 1.42-11.79 0-23.33-1.7-34.93-.48-3.36-2.11-5.25-5.26-6.15-4.33-1.25-8.57-2.85-12.94-3.9-32.5-7.8-65.5-9.13-98.72-7.37-3.05.17-6.09.73-10.06 1.22l7.7 16.15c32.4 3.55 65 7.13 97.7 10.73a3.24 3.24 0 011.22.51 1.1 1.1 0 01.34.55c.126.473.22.954.28 1.44-2.08.36-4.18 1.14-6.22 1-17.74-1.06-35.49-1.94-53.18-3.57-13.61-1.25-27.12-3.51-41.81-5.47.42 2.64.15 5 1.17 6.54 2.87 4.29 6.32 8.2 9.46 12.32 3.48 4.56 8.41 6.62 13.76 7.47 18.67 3 37.37 5.73 56.07 8.52 6.69 1 13.4 1.84 20.63 2.83-2.36 3.64-4.84 3.64-7.7 3.24-8.47-1.17-17-2.14-25.46-3.18-5.92-.72-11.84-1.42-17.9-2.14 2.94 3.67 5.75 6.77 8.06 10.21a55.12 55.12 0 015.08 9.53c1.5 3.58 3.91 4.9 7.71 5.32 10 1.12 19.89 2.7 30.43 4.18-2.44 3.18-4.92 3.64-8.09 3-6-1.15-12-2-18-2.94-2.32-.36-4.67-.51-7.18-.77 1.98 10.38 3.78 19.88 5.69 29.88l-.01.05zM698 728c19 9 37.5 18.2 56.43 26.55 46.74 20.62 94.83 37.07 145.51 45 21.39 3.36 42.66 2.82 63.67-2.68 34.06-8.92 67.07-20.87 99.48-34.56 1.25-.52 2.87-1.84 3-3 .83-5.65 1.8-11.35.84-17.5-2.38.67-4.33 1.13-6.22 1.77-20.5 6.9-40.87 14.2-61.51 20.65-28 8.77-56.37 15.66-86.23 13.38a235.48 235.48 0 01-47.81-8.39 1038.373 1038.373 0 01-98.36-33.87c-19.23-7.69-38-16.65-56.89-25-3.82-1.69-7.62-3.41-11.93-5.34L698 728zm-.92-48.86c0 4.07.28 7.39-.06 10.64-.66 6.18 2.6 9.39 7.72 11.81 11.61 5.49 22.92 11.66 34.7 16.76 33.12 14.33 67.12 26.32 101.55 37.06 17.61 5.49 35 11.77 53.43 14.48 18.43 2.71 36.65 4 55.09.91 32.8-5.57 64.39-15.4 95.53-26.85 7.78-2.86 15.46-6 23.4-9.08v-20.79c-4.66 1.39-9 2.35-13.18 4-7.92 3.14-15.64 6.81-23.55 10-7.52 3-15.17 5.73-22.75 8.61-4.62 1.75-9.11 4-13.84 5.28-29.6 8.2-59.67 8.06-89.87 4.64-6.9-.78-13.93-1.57-20.53-3.57-29.77-9-59.61-17.84-89-27.89-30.69-10.48-60.94-22.29-91.38-33.5-2.07-.76-4.14-1.42-7.25-2.48l-.01-.03zm1.21 54.16c.47 5 .94 8.77 1.14 12.53a12 12 0 006.19 10.36c14.93 9.34 30.08 18.27 46.5 24.74 15.1 5.94 30.24 11.79 45.53 17.2 35.52 12.57 71.46 23.53 109.23 27.13 19.71 1.88 39.1.82 58.25-4.57 27.82-7.83 54.51-18.76 81.39-29.18 6-2.35 11.91-5.19 17.76-7.76.47-5.3.91-10.15 1.38-15.4a28.81 28.81 0 00-3.75.83c-26.47 10.3-53.5 18.91-80.53 27.57-28 9-56.07 12.16-85.25 8-31.88-4.58-62.43-13.8-92.58-24.64-34.63-12.45-67.88-28-100.55-44.89-1.13-.59-2.37-.97-4.7-1.89l-.01-.03zm365.9 56.7c-5.07 2-9.66 3.78-14.19 5.68-27.85 11.69-56 22.44-85.22 30.35-20.5 5.56-41.29 6.12-62.31 4.22-21.68-2-42.66-7.08-63.32-13.5-17.4-5.42-34.58-11.61-51.81-17.59-25.79-8.95-50.93-19.4-74.68-33-3.84-2.19-7.72-4.32-11.72-6.56-2.15 10.93 1.37 14.36 6.77 18.86a62.33 62.33 0 0012.42 8.12c13.58 6.57 27 13.8 41.12 18.85 26.28 9.38 53 17.41 79.62 26 21.65 7 43.31 13.75 66 16.92 19 2.65 37.82 3.19 56.05-3.48 21.14-7.73 42.07-16 63-24.3 9.16-3.62 18.09-7.82 27.21-11.55 9.33-3.82 11.87-7.77 11.06-19.02zm-17.78-168.67c-11.74 1.53-22.91 2.79-34 4.47-11.35 1.71-22.65 3.84-34 5.78-6.29 1.09-10.54 4.14-12.45 10.72-2.7 9.29-5.84 18.48-9.31 27.52a218.74 218.74 0 01-10.64 24c-3.57 6.73-9.15 7-15.53 1.36 2.24-.28 4.3-.22 6.12-.86 1.82-.64 4.27-1.6 4.9-3.08 2.6-6.08 4.61-12.41 7.2-19.66-15.1 4.84-29 9.26-42.84 13.8-1.73.57-3.22 1.86-5.81 3.41a49.58 49.58 0 005.5 3.28c4 1.62 7.94 3.24 12 4.49 8.4 2.57 16.8 5.19 25.33 7.21 6.61 1.56 9 .16 12.56-5.73 1.22-2 2.36-3.66 5.15-3.52 1.49.08 3-.69 4.55-1.05 15.12-3.56 30.23-7.19 45.38-10.61 3.18-.71 6.53-.66 9.76-1l1.4 5.53 1.32.29c2-3.87 4.41-7.59 6-11.62 5.67-14.48 11.09-29 16.54-43.61 1.28-3.26 2.31-6.71.87-11.12zm-340.88-16c4.57.21 8.78.3 13 .63a14 14 0 015.67 1.27 34.79 34.79 0 018.13 6c3.09 3.29 6.39 3.41 10.4 2.59 10.14-2.06 20.29-4.24 30.53-5.67 9.57-1.33 19.32-2.84 28.87-2.25 7.44.46 12.53-2.67 19.08-6.13l-22.25-12.94c-4.3 3.91-8.62 7.49-12.52 11.49a8.53 8.53 0 01-8.4 2.77c-17.92-3.22-36.16-5.59-51.56-16.45-6.64-4.68-13.14-4.7-20.34-2-3.4 1.3-5.71 3.1-6.83 8l10.91-3.1 16 7.68c-3 2.85-6.34 2.21-9.91-.06-7.54-4.78-8.59-4.3-10.24 4.29-.25 1.03-.32 2.1-.54 3.84v.04zM817.08 609c4.33 1.38 7 2.29 9.71 3.08 16 4.62 32 9.2 47.93 13.85 4.32 1.25 7.8.55 10.77-3.18 1.94-2.43 4.63-4.26 6.88-6.46 5.25-5.13 10.43-10.32 16-15.83-7.32-5.29-13.72-10.15-21.79-12.3-4-1.07-6.91-.44-9.36 3-2.59 3.68-5.47 7.16-8.3 10.66-1.48 1.82-3.16 3.49-4.74 5.23l-1.76 1.19c1.3-6.75-2.33-6-5.17-5.7-11.39 1.24-22.77 2.65-34.14 4.12-1.57.26-3.03 1.19-6.03 2.34zm183.72 13.57c1.15-5.21 2.38-9.78 3.13-14.42 4.24-26.28 6.67-52.72 5.83-79.34-.29-9.17-2.13-18.29-3.33-27.42a8.48 8.48 0 00-5.91-7.47c-8.25-3-16.31-6.49-24.68-9.06-13.2-4-26.89-5.29-40.63-6.09-17.35-1-34.65-1.11-51.82 2-4.09.74-8.06 2-11.28 5 4.36.13 8.55-.58 12.75-.69 25.22-.66 50.45-1.67 75.52 2.5 11.33 1.88 22.67 3.63 33.44 8 4.9 2 7.89 5.35 8.34 10.43.9 10.3 1.89 20.64 1.93 31 0 10.78-1.11 21.56-1.58 32.35a212.39 212.39 0 01-7.18 47.29c-.58 2.1-1 4.23-1.71 7l7.18-1.08zM673 572.21c-1.76 4.67-1.74 4.66-.21 7.67.49 1 1.31 2.06 1.21 3-.67 6.16-1.54 12.29-2.43 19.08.113.388.37.717.72.92 9.56 5.08 19 3.82 28.33-.73 1.13-.55 1.52-2.64 2.3-4.09-9.68-3.9-9.9-4.78-4-12.41a13.93 13.93 0 011.24-1.6c2.9-2.89 3.1-6.21 1.66-10.37-9.82 2.82-19.67 5.22-28.82-1.47zm-.78 36.94a845.64 845.64 0 01-4-5.66c-3 1.31-6 1.62-7.2 5.66h11.2zm-5-31.43c.31-6-.52-6.48-6.75-3.94 1.33 2.85 3.29 4.49 6.65 3.94h.1zm4.74 6.49c-1.46-1.53-2.68-3.23-3-3.08a6.07 6.07 0 00-2.92 2.8c-.22.52 1.34 2.53 2.07 2.52 1-.02 2.09-1.2 3.75-2.24h.1zm15.06-15.82c-3.48-.23-7.37-1.95-10.92 1.14l10.92-1.14zm-21.18 23.76l4.1 4.88c1.15-3.91 1.44-5.82-4.2-4.88h.1z" fill="#000"/><path d="M958.28 649.05c-2.21 5.24-3.93 9.62-5.93 13.87-.51 1.08-1.84 1.82-2.9 2.58a6.15 6.15 0 01-1.91.64c-13.43 3.62-26.88 7.15-40.27 10.94-2.93.83-6.8 1.85-8.17 4.06-5.38 8.68-3.29 14.64 5.62 17.23 6.48 1.89 12.89 4.07 19.2 6.48 13.62 5.2 27.3 4.87 41.19 1.31a5433.399 5433.399 0 0156.34-14.12c5.19-1.29 8.63-3.43 9.81-9.48 1-5.13 4.17-9.84 6.48-14.95a41.48 41.48 0 015.62.35c12.58 2.56 25.16 5.14 37.71 7.88 6.52 1.43 10 5 10.47 10.78.35 4-.37 7.46-4.77 9.41-21 9.28-41.89 18.75-62.86 28.08-3.5 1.56-7.34 2.39-10.73 4.12-17.42 8.87-36.19 12.25-55.42 13.43-21.87 1.34-43.8.76-65.25-3.79-13.84-2.93-27.24-7.94-40.79-12.14-25.83-8-51.74-15.72-77.39-24.22C757 695.77 740 689 723 682.44c-5.66-2.17-11-5.27-16.55-7.61-7.47-3.13-15.15-5.75-22.58-9a106.82 106.82 0 01-15-7.7 10.05 10.05 0 01-1.56-15.73 23 23 0 017.22-4.84 70.12 70.12 0 0112.18-4c24.84-5.56 49.703-11.027 74.59-16.4 12.1-2.61 24.32-5 36.71-5 5.93 0 12 1.7 17.79 3.32 17.33 4.83 34.55 10.06 51.86 15 6.48 1.85 13 3.79 19.93 2.13a6.18 6.18 0 012.64.25c15.81 3.56 31.62 7.09 47.41 10.76 6.6 1.66 13.1 3.48 20.64 5.43zm-91.72-7.2l-.4-2.09c-2-.74-4-1.67-6.09-2.21-16.79-4.32-33.57-8.68-50.43-12.73a22.16 22.16 0 00-9.31.12c-16.1 3.28-32.16 6.81-48.23 10.27-4.4.94-8.84 1.77-13.17 3-1.28.36-2.25 1.86-3.36 2.83 1 1.08 1.72 2.49 2.91 3.17a25.32 25.32 0 005.11 1.69c18.72 5.8 37.43 11.64 56.16 17.37 5.4 1.65 10 3.25 16.26-.49 9-5.32 19.59-7.78 29.49-11.51 5.48-2.06 11-4.15 16.35-6.4a31.5 31.5 0 004.71-3.02zm84.7-36.85c-1.91-10.07-3.71-19.54-5.68-29.9 2.51.26 4.86.41 7.18.77 6 .91 12 1.79 18 2.94 3.17.61 5.65.15 8.09-3-10.54-1.48-20.46-3.06-30.43-4.18-3.8-.42-6.21-1.74-7.71-5.32a55.12 55.12 0 00-5.08-9.53c-2.31-3.44-5.12-6.54-8.06-10.21 6.06.72 12 1.42 17.9 2.14 8.49 1 17 2 25.46 3.18 2.86.4 5.34.4 7.7-3.24-7.23-1-13.94-1.84-20.63-2.83-18.7-2.79-37.4-5.56-56.07-8.52-5.35-.85-10.28-2.91-13.76-7.47-3.14-4.12-6.59-8-9.46-12.32-1-1.52-.75-3.9-1.17-6.54 14.69 2 28.2 4.22 41.81 5.47 17.69 1.63 35.44 2.51 53.18 3.57 2 .12 4.14-.66 6.22-1a10.71 10.71 0 00-.28-1.44 1.1 1.1 0 00-.34-.55 3.24 3.24 0 00-1.22-.51c-32.65-3.6-65.3-7.18-97.7-10.73l-7.7-16.15c4-.49 7-1 10.06-1.22 33.22-1.76 66.22-.43 98.72 7.37 4.37 1.05 8.61 2.65 12.94 3.9 3.15.9 4.78 2.79 5.26 6.15 1.66 11.6 3.12 23.14 1.7 34.93-.78 6.46-.45 13-.67 19.58-.67 20.56-3 40.86-9.28 60.55-.33 1.06-.76 2.08-1.25 3.4-3.76.7-7.53 1.28-11.25 2.09-7.68 1.69-14.08 5-15.86 13.6-.12.59-.68 1.1-1.41 2.23l-11.1-2.72c.66-10 1.28-19.63 1.94-29.8 5.38 1 10.43 1.88 15.41 3 3.45.79 6.15 0 8.84-3.2l-24.3-4.49z" fill="#FFF"/><path d="M698 728v-23c4.31 1.93 8.11 3.65 11.93 5.34 18.94 8.39 37.66 17.35 56.89 25a1065.255 1065.255 0 0098.36 33.87 235.48 235.48 0 0047.82 8.43c29.86 2.28 58.21-4.61 86.23-13.38 20.64-6.45 41-13.75 61.51-20.65 1.89-.64 3.84-1.1 6.22-1.77 1 6.15 0 11.85-.84 17.5-.16 1.14-1.78 2.46-3 3-32.41 13.69-65.42 25.64-99.48 34.56-21 5.5-42.28 6-63.67 2.68-50.68-7.94-98.77-24.39-145.51-45C735.5 746.2 717 737 698 728z" fill="#FFF"/><path d="M697.09 679.17c3.11 1.06 5.18 1.72 7.23 2.47 30.44 11.21 60.69 23 91.38 33.5C825.12 725.19 855 734 884.73 743c6.6 2 13.63 2.79 20.53 3.57 30.2 3.42 60.27 3.56 89.87-4.64 4.73-1.32 9.22-3.53 13.84-5.28 7.58-2.88 15.23-5.57 22.75-8.61 7.91-3.19 15.63-6.86 23.55-10 4.13-1.64 8.52-2.6 13.18-4v20.86c-7.94 3.09-15.62 6.22-23.4 9.08-31.14 11.45-62.73 21.28-95.53 26.85-18.44 3.13-36.75 1.79-55.09-.91-18.34-2.7-35.82-9-53.43-14.48-34.43-10.74-68.43-22.73-101.55-37.06-11.78-5.1-23.09-11.27-34.7-16.76-5.12-2.42-8.38-5.63-7.72-11.81.34-3.25.06-6.57.06-10.64z" fill="#FFF"/><path d="M698.3 733.33c2.33.92 3.57 1.3 4.71 1.89 32.67 16.87 65.92 32.44 100.55 44.89 30.15 10.84 60.7 20.06 92.58 24.64 29.18 4.19 57.3 1 85.25-8 27-8.66 54.06-17.27 80.53-27.57a28.81 28.81 0 013.75-.83c-.47 5.25-.91 10.1-1.38 15.4-5.85 2.57-11.71 5.41-17.76 7.76-26.88 10.42-53.57 21.35-81.39 29.18-19.15 5.39-38.54 6.45-58.25 4.57-37.77-3.6-73.71-14.56-109.23-27.13-15.29-5.41-30.43-11.26-45.53-17.2-16.42-6.47-31.57-15.4-46.5-24.74a12 12 0 01-6.19-10.36c-.2-3.73-.67-7.47-1.14-12.5z" fill="#FFF"/><path d="M1064.19 790c.82 11.25-1.73 15.2-11.07 19-9.12 3.73-18 7.93-27.21 11.55-20.94 8.25-41.87 16.57-63 24.3-18.23 6.67-37.05 6.13-56.05 3.48-22.67-3.17-44.33-9.92-66-16.92-26.57-8.59-53.34-16.62-79.62-26-14.15-5.05-27.54-12.28-41.12-18.85a62.33 62.33 0 01-12.42-8.12c-5.4-4.5-8.92-7.93-6.77-18.86 4 2.24 7.88 4.37 11.72 6.56 23.75 13.59 48.89 24 74.68 33 17.23 6 34.41 12.17 51.81 17.59 20.66 6.42 41.64 11.55 63.32 13.5 21 1.9 41.81 1.34 62.31-4.22 29.19-7.91 57.37-18.66 85.22-30.35 4.54-1.88 9.13-3.66 14.2-5.66zm-17.78-168.67c1.44 4.41.41 7.86-.85 11.21-5.45 14.56-10.87 29.13-16.54 43.61-1.58 4-4 7.75-6 11.62l-1.32-.29-1.4-5.53c-3.23.3-6.58.25-9.76 1-15.15 3.42-30.26 7.05-45.38 10.61-1.52.36-3.06 1.13-4.55 1.05-2.79-.14-3.93 1.52-5.15 3.52-3.56 5.89-6 7.29-12.56 5.73-8.53-2-16.93-4.64-25.33-7.21-4.09-1.25-8.07-2.87-12-4.49a49.58 49.58 0 01-5.5-3.28c2.59-1.55 4.08-2.84 5.81-3.41 13.85-4.54 27.74-9 42.84-13.8-2.59 7.25-4.6 13.58-7.2 19.66-.63 1.48-3.09 2.44-4.9 3.08-1.81.64-3.88.58-6.12.86 6.38 5.62 12 5.37 15.53-1.36a218.74 218.74 0 0010.64-24c3.47-9 6.61-18.23 9.31-27.52 1.91-6.58 6.16-9.63 12.45-10.72 11.33-1.94 22.63-4.07 34-5.78 11.07-1.77 22.24-3.03 33.98-4.56zm-47.69 43.52c4-.22 6.63-4.15 6.4-7.62-.17-2.58-1.74-3.41-4-3.3-3 .13-6.6 3.46-5.83 6.07.54 2 2.49 3.6 3.43 4.85zm-81.44 26.39a25 25 0 00-3.71-1.4c-.48-.1-1.08.43-2.28 1 1.84 1.36 2.91 3.04 5.99.4zM815 508.15c-.34-1.91-.68-3.82-1.12-6.31l9.4-1.54c1.57-2.26 3.3-5 1.31-7.73-2.49-3.38-6.44-1.9-9.92-1.13.38-9.87 9.52-18.35 22.27-19.91 12.75-1.56 25.39.59 30.25 19.89-2.63 2.2-5.61 3.86-7.33 6.39-1.36 2 .32 4.48 2.06 7 .64-1.2 1.1-1.68 1.15-2.2.21-2.06.22-4.28 3.08-4.32 2.86-.04 4.51 1.42 5.21 4.27a23.1 23.1 0 01-.24 13.28 36.91 36.91 0 00-.83 3.63l3.83-.2 11.55 18.67a39.62 39.62 0 01-24 21.73c-4.34 1.47-6.19.4-8.64-3.89-.76-1.33-1.46-2.69-2.47-4.56 5.95-4.17 11.68-8.44 12.71-16.45-2.1 2.43-4.26 4.81-6.3 7.3a17.89 17.89 0 01-14.72 6.93c-4-.05-8.1-.17-12.14-.39a8.11 8.11 0 01-7.65-5.66c-1.37-3.71-2.65-7.45-4.2-11.84 5.18.09 9.65.25 11.73-5.27h-10.7c1.09-7 9.77-11.94 3.16-20.21.27 5.94-.13 10.8-5.17 13.81-3.28-3.31-1.81-7.58-2.28-11.39m30-7c1.66-2.75 3-5.37 1.15-7.8-2-2.64-5.19-2-8.07-1.45a2.48 2.48 0 00-1.26.41c-1.29 1.34-3.48 2.7-3.55 4.15a4.31 4.31 0 004.55 4.68c2.47.04 4.9.01 7.18.01zM834.18 537l.49 1.41c6.36.4 8.3-.82 9.26-6.84l-9.75 5.43zm-128.65 68.29c.22-1.74.29-2.81.49-3.85 1.65-8.59 2.7-9.07 10.24-4.29 3.57 2.27 6.86 2.91 9.91.06l-16-7.68-10.91 3.1c1.12-4.88 3.43-6.68 6.83-8 7.2-2.75 13.7-2.73 20.34 2 15.4 10.86 33.64 13.23 51.56 16.45a8.53 8.53 0 008.4-2.77c3.9-4 8.22-7.58 12.52-11.49l22.25 12.94c-6.55 3.46-11.64 6.59-19.08 6.13-9.55-.59-19.3.92-28.87 2.25-10.24 1.43-20.39 3.61-30.53 5.67-4 .82-7.31.7-10.4-2.59a34.79 34.79 0 00-8.13-6 14 14 0 00-5.67-1.27c-4.17-.36-8.38-.45-12.95-.66zM817.08 609c3-1.17 4.46-2.1 6-2.3 11.37-1.47 22.75-2.88 34.14-4.12 2.84-.31 6.47-1.05 5.17 5.7l1.76-1.19c1.58-1.74 3.26-3.41 4.74-5.23 2.83-3.5 5.71-7 8.3-10.66 2.45-3.48 5.36-4.11 9.36-3 8.07 2.15 14.47 7 21.79 12.3-5.55 5.51-10.73 10.7-16 15.83-2.25 2.2-4.94 4-6.88 6.46-3 3.73-6.45 4.43-10.77 3.18-16-4.65-32-9.23-47.93-13.85-2.68-.81-5.35-1.72-9.68-3.12zm183.72 13.59l-7.18 1c.68-2.82 1.13-4.95 1.71-7a212.39 212.39 0 007.18-47.29c.47-10.79 1.61-21.57 1.58-32.35 0-10.32-1-20.66-1.93-31-.45-5.08-3.44-8.46-8.34-10.43-10.77-4.34-22.11-6.09-33.44-8-25.07-4.17-50.3-3.16-75.52-2.5-4.2.11-8.39.82-12.75.69 3.22-3 7.19-4.28 11.28-5 17.17-3.08 34.47-3 51.82-2 13.74.8 27.43 2.05 40.63 6.09 8.37 2.57 16.43 6.09 24.68 9.06a8.48 8.48 0 015.91 7.47c1.2 9.13 3 18.25 3.33 27.42.84 26.62-1.59 53.06-5.83 79.34-.75 4.72-1.93 9.29-3.13 14.5z" fill="#FFF"/><path d="M673 572.21c9.2 6.69 19 4.29 28.85 1.48 1.44 4.16 1.24 7.48-1.66 10.37a13.93 13.93 0 00-1.24 1.6c-5.93 7.63-5.71 8.51 4 12.41-.78 1.45-1.17 3.54-2.3 4.09-9.28 4.55-18.77 5.81-28.33.73a1.57 1.57 0 01-.72-.92c.89-6.79 1.76-12.92 2.43-19.08.1-.95-.72-2-1.21-3-1.61-3.02-1.63-3.01.18-7.68zm-.83 36.94h-11.23c1.22-4 4.19-4.35 7.2-5.66 1.24 1.73 2.38 3.34 4.03 5.66zm-5.05-31.43c-3.36.55-5.32-1.09-6.75-3.94 6.23-2.54 7.06-2.04 6.75 3.94z" fill="#FFF"/><path d="M671.86 584.21c-1.66 1-2.75 2.22-3.87 2.24-.73 0-2.29-2-2.07-2.52a6.07 6.07 0 012.92-2.8c.34-.13 1.56 1.55 3.02 3.08zm15.06-15.82L676 569.53c3.55-3.09 7.44-1.37 10.92-1.14zm-21.18 23.76c5.64-.94 5.35 1 4.1 4.88l-4.1-4.88z" fill="#FFF"/><path d="M866.56 641.85a31.5 31.5 0 01-4.71 3c-5.4 2.25-10.87 4.34-16.35 6.4-9.9 3.75-20.5 6.2-29.5 11.52-6.29 3.74-10.86 2.14-16.26.49-18.73-5.73-37.44-11.57-56.16-17.37a25.32 25.32 0 01-5.11-1.69c-1.19-.68-2-2.09-2.91-3.17 1.11-1 2.08-2.47 3.36-2.83 4.33-1.22 8.77-2.05 13.17-3 16.07-3.46 32.13-7 48.23-10.27a22.16 22.16 0 019.31-.12c16.86 4 33.64 8.41 50.43 12.73 2.08.54 4.06 1.47 6.09 2.21l.41 2.1zm-118.88 0a32.38 32.38 0 003.27 1.54c17.18 5.31 34.38 10.55 51.55 15.92a14.6 14.6 0 009.82-.5c11.39-4.17 22.83-8.21 34.25-12.31 3.27-1.18 6.53-2.41 10.75-4a26.69 26.69 0 00-3.45-1.63c-16.35-4.15-32.68-8.34-49.07-12.29-2-.49-4.42 0-6.54.52-14.22 3.37-28.4 6.85-42.59 10.34-2.31.56-4.56 1.36-7.99 2.39v.02zm251.04 23c-.94-1.25-2.89-2.85-3.47-4.85-.77-2.61 2.78-5.94 5.83-6.07 2.3-.11 3.87.72 4 3.3.27 3.47-2.41 7.4-6.36 7.62zm-81.44 26.39c-3.08 2.64-4.15 1-6-.43 1.2-.54 1.8-1.07 2.28-1a25 25 0 013.72 1.43zM845 501.05h-7.18a4.31 4.31 0 01-4.55-4.68c.07-1.45 2.26-2.81 3.55-4.15a2.48 2.48 0 011.26-.41c2.88-.54 6.06-1.19 8.07 1.45 1.85 2.42.55 5.04-1.15 7.79zM834.18 537l9.75-5.43c-1 6-2.9 7.24-9.26 6.84l-.49-1.41z" fill="#000"/><path d="M747.68 641.83c3.43-1 5.68-1.81 8-2.38 14.19-3.49 28.37-7 42.59-10.34 2.12-.5 4.51-1 6.54-.52 16.39 3.95 32.72 8.14 49.07 12.29a26.69 26.69 0 013.45 1.63c-4.22 1.56-7.48 2.79-10.75 4-11.42 4.1-22.86 8.14-34.25 12.31a14.6 14.6 0 01-9.82.5c-17.17-5.37-34.37-10.61-51.55-15.92a32.38 32.38 0 01-3.28-1.57z" fill="#FFF"/><ellipse fill="#000" cx="818.76" cy="507.92" rx="2.07" ry="3.18"/><ellipse fill="#000" cx="836.86" cy="507.92" rx="2.07" ry="3.18"/><path d="M76 679.21v-16.15c-20.3-2.3-37.23-11.9-51.42-26.12-14.19-14.22-17.9-33.74-24.3-53 11.05-4.33 22.62-5.06 35.65-1.58-.91-2.37-1.33-3.88-2-5.25-6.34-12.45-11.43-25.22-12.81-39.38-1-10.35-1.46-11.13 2.65-21.52a35 35 0 0130.06 11c8.07 8.46 14.85 18.19 21.8 27.65 3.54 4.82 6.21 10.29 9.81 16.37a37.81 37.81 0 002.66-3.75c8-15.46 20.66-25.85 36.29-32.82 13.31-5.92 27-10.49 41.8-10.9 9.19-.25 13.69 3.3 15.54 12.34 2.9 14.07.49 27.6-4 40.89a54.58 54.58 0 01-5.29 11.51c-9.27 14.62-20 28.07-33.82 38.7-12.65 9.74-27.57 13.31-43.14 14.71-2.35.21-4.71.26-7.95.43.95 12.13 1.86 23.67 2.76 35.08 14.2.92 27.48 1.29 40.63 2.82 8.63 1 17.08 3.62 25.57 5.68a27.29 27.29 0 015.82 2.49c11.21 5.85 13.89 11.31 11.44 23.49a9623.845 9623.845 0 01-10.52 51.43c-4.08 19.5-8.77 38.88-12.22 58.48-1.87 10.63-7.68 16.49-17.14 20.07-14.12 5.33-28.78 7-43.66 6.12A159.28 159.28 0 0166 844.22c-15.42-3.38-24.72-12.92-27.68-28.64-2.85-15.13-5.68-30.28-9.17-45.28-4.64-20-9.84-39.85-15-59.72-1.73-6.74 0-11.66 6.77-16 9.61-6.07 20.38-9 31.45-11.06 7.72-1.36 15.4-2.79 23.63-4.31zm-42.7 69.15c1 3.31 1.8 5.83 2.5 8.39 5.64 20.7 11.54 41.33 16.66 62.15 1.11 4.54 2.91 7 7 8.21a118.57 118.57 0 0071.37.42c5.12-1.55 7.88-4.47 9.23-9.87 5.19-20.79 10.88-41.47 16.34-62.2.89-3.34 1.59-6.73 2.49-10.6C117 757 76 760.27 33.3 748.36zm54.11-120.15c8.63.08 14.81-2.1 21.05-4 16.6-5.05 28.2-16.93 39.87-28.85 13.72-14 23.13-30 25.21-49.84.39-3.69 1.23-7.36-.31-10.81-7.93 7.39-15.85 13.95-22.81 21.4-19.55 20.95-38.76 42.23-58 63.48-1.81 2.02-2.81 4.79-5.01 8.62zm4.22-17.84l64.37-74a25.41 25.41 0 00-4.86.31c-12 3.06-23.68 7.09-34.27 13.75-11 6.9-19.79 15.83-25.33 27.6a23.28 23.28 0 00-2 10.35c.27 6.87 1.27 13.73 2.09 21.99zm73.531 110.57c-45.931 19.32-91.601 22.42-138.491 6 0 8.31 3.73 13.54 12 15.37 4.12.92 8.16 2.35 12.32 3 20.75 3.17 41.63 2.79 62.43.94 14.13-1.25 28.14-3.68 41.35-9.51 7.23-3.15 10.46-8.29 10.391-15.8zm-12.491-6.72c-12.58-6.2-42.74-9.86-59.58-8.12-1.78 4.74-1.37 10.87-8.75 13.37l-5.72-12.79c-14.45.3-28.75 2.38-42.29 8.83 38.96 11.01 77.67 11.27 116.34-1.29zM29.13 528.75c3.73 38.18 23.68 66.52 43.68 85-9.92-30.75-25.43-58.58-43.68-85zm62.43 168.44c24.94.44 49.37-.14 73.72 12.19-.79-3.67-.6-5.93-1.63-6.88a21.28 21.28 0 00-6.92-4.12c-20.92-7.8-42.55-10.29-65.17-8.87v7.68zm-14.28-7.46c-19.94.49-38.11 4.41-53.77 16.39 1.69 5 3.78 5.28 7.25 3.44 10.78-5.72 22.62-7.86 34.55-9.58 4.07-.59 8.11-1.4 12.43-2.16-.18-3.07-.31-5.37-.46-8.09zm-67-92.52c7.54 21.13 20.81 36.38 45 43.45-14.35-17.12-27.75-32.24-44.97-43.45h-.03zm6.81-7.67L63 633.61c-6.69-16.72-15.89-31.47-31.91-40.74-4.33-2.53-9.09-4.56-13.97-3.33h-.03zM38 527.61L74.31 592c-1.23-18.85-23.06-57.26-36.31-64.39z" fill="#000"/><path d="M33.3 748.36c42.7 11.91 83.7 8.64 125.54-3.5-.9 3.87-1.6 7.26-2.49 10.6-5.46 20.73-11.15 41.41-16.34 62.2-1.35 5.4-4.11 8.32-9.23 9.87a118.57 118.57 0 01-71.37-.42c-4-1.26-5.84-3.67-7-8.21-5.12-20.82-11-41.45-16.66-62.15-.65-2.56-1.46-5.08-2.45-8.39zm54.11-120.15c2.2-3.83 3.2-6.6 5-8.62 19.22-21.25 38.43-42.53 58-63.48 7-7.45 14.88-14 22.81-21.4 1.54 3.45.7 7.12.31 10.81-2.08 19.82-11.49 35.85-25.21 49.84-11.67 11.92-23.27 23.8-39.87 28.85-6.23 1.9-12.45 4.08-21.04 4zm4.22-17.84c-.82-8.26-1.82-15.12-2-22a23.28 23.28 0 012-10.35c5.54-11.77 14.36-20.7 25.33-27.6 10.59-6.66 22.24-10.69 34.27-13.75a25.41 25.41 0 014.86-.31l-64.46 74.01z" fill="#FFF"/><path d="M165.161 720.94c.069 7.51-3.211 12.65-10.421 15.82-13.21 5.83-27.22 8.26-41.35 9.51-20.8 1.85-41.68 2.23-62.43-.94-4.16-.63-8.2-2.06-12.32-3-8.24-1.83-11.93-7.06-12-15.37 46.92 16.4 92.59 13.3 138.521-6.02z" fill="#FFF"/><path d="M152.67 714.22c-38.65 12.56-77.38 12.3-116.34 1.29 13.54-6.45 27.84-8.53 42.29-8.83l5.72 12.79c7.38-2.5 7-8.63 8.75-13.37 16.84-1.74 47 1.9 59.58 8.12zM29.13 528.75c18.25 26.42 33.76 54.29 43.68 85-20-18.48-39.95-46.82-43.68-85zm62.43 168.44v-7.68c22.62-1.42 44.25 1.07 65.17 8.87a21.28 21.28 0 016.92 4.12c1 1 .84 3.21 1.63 6.88-24.35-12.33-48.78-11.75-73.72-12.19zm-14.28-7.46c.15 2.72.28 5 .46 8.09-4.32.76-8.36 1.57-12.43 2.16-11.93 1.72-23.77 3.86-34.55 9.58-3.47 1.84-5.56 1.58-7.25-3.44 15.66-11.98 33.83-15.9 53.77-16.39zm-66.97-92.52c17.22 11.21 30.62 26.33 45 43.45-24.19-7.07-37.46-22.32-45-43.45zm6.81-7.67c4.92-1.23 9.64.8 14 3.33 16 9.27 25.22 24 31.91 40.74l-45.91-44.07zM38 527.61c13.24 7.13 35.07 45.54 36.3 64.42L38 527.61z" fill="#FFF"/></g></svg>