<?xml version="1.0" encoding="UTF-8"?>
<svg width="578px" height="894px" viewBox="0 0 578 894" version="1.1" xmlns="http://www.w3.org/2000/svg" xmlns:xlink="http://www.w3.org/1999/xlink">
    <title>sofa</title>
    <g id="sofa" stroke="none" stroke-width="1" fill="none" fill-rule="evenodd">
        <g transform="translate(66.842914, 475.287083)">
            <path d="M417.699,209.262917 C354.303,224.469917 292.17,241.557917 227.983,248.739917 C229.439,258.513917 230.807,267.700917 232.13,276.575917 C292.83,263.663917 353.508,250.757917 414.603,237.762917 C415.659,228.039917 416.663,218.796917 417.699,209.262917 M456.685,159.551917 C456.675,158.942917 456.675,158.332917 456.665,157.722917 C458.535,157.083917 460.425,156.485917 462.275,155.793917 C463.985,155.153917 465.775,154.589917 467.335,153.673917 C469.545,152.385917 471.015,148.729917 470.245,146.799917 C469.255,144.335917 466.975,144.814917 464.985,144.691917 C458.255,144.276917 453.845,147.960917 450.355,153.111917 C447.155,157.836917 449.695,162.088917 451.695,166.337917 C452.045,167.074917 452.515,167.751917 452.915,168.465917 C454.895,172.008917 457.965,173.265917 461.955,173.767917 C473.515,175.222917 489.475,165.322917 488.665,151.254917 C488.585,149.838917 488.805,148.400917 488.935,146.976917 C490.055,134.575917 483.985,123.248917 472.595,118.202917 C456.325,110.994917 439.575,105.012917 422.247,100.841917 C414.475,98.9719167 407.315,100.293917 400.962,105.579917 C392.644,112.500917 386.121,120.750917 381.58,130.552917 C380.924,131.970917 380.693,133.586917 380.307,134.959917 C380.955,135.470917 381.234,135.833917 381.594,135.950917 C383.924,136.708917 386.241,137.536917 388.617,138.116917 C405.923,142.331917 419.877,151.811917 431.559,165.033917 C434.537,168.403917 436.643,172.119917 436.66,176.524917 C436.684,183.033917 436.323,189.560917 435.762,196.048917 C435.421,199.977917 433.316,202.738917 429.097,203.745917 C426.624,204.335917 424.33,205.672917 422.062,206.628917 C423.068,214.606917 423.984,221.876917 424.954,229.568917 C432.981,231.136917 440.765,235.582917 448.925,230.116917 C449.795,213.749917 454.405,198.055917 453.755,181.286917 C447.205,178.993917 445.025,173.158917 442.665,167.123917 C439.071,157.949917 441.325,150.322917 447.555,143.401917 C453.005,137.360917 459.505,134.066917 467.795,136.685917 C472.005,138.016917 475.775,140.072917 476.495,145.121917 C477.275,150.525917 476.085,155.361917 471.845,159.002917 C470.705,159.985917 468.875,160.684917 467.385,160.646917 C463.805,160.555917 460.245,159.949917 456.685,159.551917 M339.54,218.991917 C342.078,218.513917 343.486,218.291917 344.875,217.981917 C363.818,213.744917 382.764,209.521917 401.698,205.239917 C409.863,203.391917 418.042,201.577917 426.13,199.431917 C430.427,198.289917 430.698,197.413917 430.229,193.333917 C429.671,188.470917 429.373,183.564917 428.536,178.751917 C428.139,176.470917 427.187,174.007917 425.742,172.234917 C418.549,163.408917 410.011,156.068917 399.454,151.610917 C389.486,147.401917 379.356,143.517917 369.103,140.068917 C364.742,138.600917 359.833,137.798917 355.264,138.096917 C343.06,138.891917 330.81,139.861917 318.755,141.840917 C302.634,144.487917 286.678,148.147917 270.655,151.387917 C270.101,151.498917 269.581,151.774917 268.769,152.075917 C274.984,154.814917 280.379,156.771917 285.37,159.473917 C297.952,166.283917 310.495,173.196917 322.743,180.581917 C326.636,182.929917 330.09,186.504917 332.8,190.208917 C338.844,198.468917 342.761,207.562917 339.54,218.991917 M197.071,229.695917 C200.779,231.878917 204.009,233.596917 207.045,235.606917 C213.779,240.062917 221.341,241.920917 229.165,241.550917 C239.341,241.069917 249.651,240.533917 259.586,238.481917 C281.362,233.984917 302.95,228.568917 324.589,223.415917 C330.776,221.942917 334.053,217.462917 334.978,211.110917 C336.376,201.510917 327.374,187.657917 319.928,184.113917 C310.345,179.550917 300.682,175.022917 291.601,169.567917 C280.081,162.647917 267.414,158.744917 255.028,154.048917 C253.581,153.499917 251.806,153.486917 250.23,153.657917 C240.089,154.755917 229.952,155.897917 219.832,157.177917 C210.602,158.345917 201.396,159.706917 190.788,161.175917 C202.124,170.244917 207.115,181.414917 208.684,194.476917 C210.31,208.019917 207.527,219.988917 197.071,229.695917 M170.211,203.176917 C176.137,205.773917 178.782,204.525917 180.013,198.252917 C180.48,195.877917 180.604,193.369917 180.443,190.951917 C180.202,187.307917 177.825,185.187917 174.612,183.734917 C171.335,182.252917 169.035,183.945917 166.979,185.984917 C160.411,192.500917 156.832,200.630917 157.346,209.709917 C158.181,224.455917 169.889,231.283917 182.633,226.592917 C190.207,223.803917 196.713,219.026917 198.251,210.642917 C200.986,195.726917 197.89,181.806917 188.539,169.651917 C182.295,161.534917 174.104,155.484917 164.633,152.042917 C146.601,145.492917 128.271,139.753917 110.004,133.868917 C106.339,132.688917 102.418,132.226917 98.579,131.688917 C96.386,131.381917 94.097,131.375917 91.89,131.603917 C78.647,132.967917 69.812,140.608917 63.99,152.002917 C59.571,160.652917 58.981,169.801917 60.553,179.457917 C61.82,187.247917 64.943,192.663917 72.452,195.712917 C80.191,198.856917 87.869,202.277917 94.087,208.175917 C94.946,208.990917 96.171,209.462917 97.286,209.960917 C111.267,216.212917 125.179,222.632917 139.29,228.580917 C145.285,231.108917 149.539,235.357917 153.681,240.064917 C132.304,234.831917 112.461,226.014917 92.922,214.883917 C92.922,216.625917 92.746,217.644917 92.947,218.580917 C97.076,237.804917 106.412,252.847917 125.285,261.122917 C150.933,272.367917 176.76,283.130917 203.262,292.184917 C208.008,293.806917 213.193,294.315917 218.228,294.831917 C220.189,295.033917 222.295,293.837917 223.975,293.376917 C223.523,285.287917 223.495,277.986917 222.608,270.789917 C221.69,263.344917 219.939,256.001917 218.51,248.381917 C206.573,248.125917 198.779,241.125917 191.083,233.783917 C187.983,235.317917 185.213,236.583917 182.545,238.037917 C180.025,239.411917 177.595,239.761917 174.987,238.318917 C169.811,235.451917 164.575,232.692917 159.428,229.774917 C158.406,229.194917 157.559,228.190917 156.824,227.233917 C147.14,214.630917 149.828,190.953917 162.16,180.707917 C166.924,176.750917 172.026,175.390917 177.985,178.580917 C184.278,181.950917 188.271,186.745917 188.292,193.977917 C188.301,197.172917 187.349,200.449917 186.392,203.551917 C184.815,208.660917 181.134,211.067917 175.754,211.000917 C170.355,210.934917 169.095,209.156917 170.211,203.176917 M257.005,36.9759167 C263.773,46.9869167 265.352,57.8829167 265.893,68.9339167 C266.392,79.1279167 266.531,89.3599167 266.336,99.5659167 C266.114,111.185917 265.453,122.802917 264.749,134.407917 C264.55,137.697917 263.534,140.936917 262.784,144.752917 C269.232,143.663917 275.032,142.642917 280.846,141.711917 C299.172,138.775917 317.428,135.203917 335.855,133.199917 C347.677,131.913917 359.752,132.958917 372.012,132.958917 C373.017,124.242917 376.312,116.199917 382.96,109.975917 C385.886,107.236917 387.046,104.121917 387.514,100.367917 C389.029,88.2199167 390.678,76.0899167 392.249,63.9489167 C394.029,50.1839167 395.813,36.4319167 394.058,22.4919167 C393.1,14.8739167 388.768,9.42791675 381.136,8.29691675 C376.166,7.56191675 370.915,7.32991675 365.974,8.08391675 C356.706,9.49991675 347.53,11.6229167 338.387,13.7589167 C320.136,18.0229167 301.93,22.4829167 283.715,26.8979167 C281.996,27.3149167 280.34,27.9879167 278.655,28.5409167 C278.663,28.9639167 278.672,29.3879167 278.679,29.8109167 C282.787,30.1579167 286.894,30.5049167 291.002,30.8519167 C280.257,35.7199167 269.185,38.3059167 257.005,36.9759167 M95.638,122.296917 C108.499,123.489917 120.002,127.522917 131.272,132.524917 C141.168,136.916917 151.06,141.491917 161.337,144.794917 C169.617,147.456917 177.434,150.409917 184.345,155.809917 C185.784,156.935917 188.599,156.908917 190.638,156.566917 C209.984,153.327917 229.273,149.749917 248.64,146.654917 C253.107,145.940917 255.621,143.671917 257.298,139.991917 C258.134,138.156917 258.813,136.122917 258.978,134.130917 C259.751,124.776917 260.713,115.410917 260.863,106.037917 C261.052,94.3869167 260.629,82.7199167 260.243,71.0679167 C259.971,62.8929167 259.388,54.7109167 256.292,46.9849167 C253.498,40.0159167 249.109,35.7279167 240.849,35.2439167 C230.074,34.6139167 219.266,33.3309167 208.655,31.3509167 C183.759,26.7039167 159.026,21.1699167 134.114,16.6129167 C121.928,14.3839167 109.634,12.0999167 97.063,13.1769167 C86.633,14.0709167 80.932,19.1309167 79.579,29.4999167 C78.972,34.1459167 78.343,38.9019167 78.698,43.5339167 C79.382,52.4669167 80.422,61.4049167 81.918,70.2389167 C84.893,87.8119167 90.176,104.802917 95.638,122.296917 M397.96,96.3419167 C409.78,89.6739167 421.208,91.9559167 432.624,94.4019167 C447.485,97.5839167 461.595,102.968917 475.415,109.158917 C485.125,113.506917 491.125,121.540917 495.355,130.747917 C498.885,138.440917 497.525,146.887917 496.405,154.951917 C494.325,170.099917 482.735,180.612917 467.485,181.919917 C465.265,182.111917 463.055,182.524917 460.285,182.910917 C460.575,187.429917 461.135,191.846917 461.085,196.257917 C460.995,205.018917 460.575,213.776917 460.255,222.534917 C460.185,224.364917 459.735,226.197917 459.815,228.011917 C460.085,233.807917 457.445,237.991917 452.385,240.264917 C447.965,242.251917 443.795,243.909917 440.435,247.981917 C438.413,250.425917 433.933,251.557917 430.427,251.892917 C424.446,252.464917 418.047,253.147917 413.971,247.854917 C354.484,259.939917 295.463,271.930917 236.112,283.988917 C236.307,289.169917 236.876,294.489917 234.491,299.818917 C230.567,308.585817 219.091,310.901817 212.533,308.898817 C210.745,308.351817 208.675,306.806817 207.93,305.174917 C206.525,302.089917 204.017,301.469917 201.31,300.412917 C180.377,292.242917 159.472,283.996917 138.646,275.556917 C135.235,274.173917 132.319,273.242917 128.953,275.430917 C125.888,277.421917 122.729,276.888917 119.708,275.017917 C117.449,273.618917 115.168,272.251917 112.853,270.947917 C108.209,268.326917 104.827,265.105917 107.159,259.458917 C106.622,258.802917 106.425,258.309917 106.102,258.204917 C99.06,255.935917 96.41,250.067917 93.976,243.846917 C90.122,233.992917 88.013,223.889917 88.89,212.781917 C86.417,211.273917 83.909,209.595917 81.266,208.163917 C72.789,203.570917 64.767,198.402917 57.775,191.644917 C55.755,189.692917 54.29,187.754917 53.636,185.103917 C49.139,166.890917 53.119,150.718917 65.32,136.522917 C71.953,128.803917 80.132,123.787917 90.824,122.621917 C90.051,120.456917 89.525,118.766917 88.853,117.135917 C83.002,102.926917 77.769,88.4469167 75.192,73.3059167 C72.87,59.6679167 70.808,45.9079167 71.35,31.9399167 C71.597,25.5999167 73.646,19.8749167 76.937,14.6559167 C78.135,12.7559167 80.399,11.1319167 82.535,10.2969167 C88.842,7.82991675 95.369,6.68591675 102.288,7.12191675 C121.461,8.32991675 140.418,11.2249167 159.311,14.4029167 C170.762,16.3279167 181.948,19.7819167 193.327,22.2029167 C210.339,25.8259167 227.686,26.6869167 244.954,28.3259167 C254.452,29.2279167 263.262,27.1579167 272.085,24.9109167 C287.703,20.9339167 303.103,16.1109167 318.681,11.9659167 C332.476,8.29591675 346.325,4.77391675 360.277,1.77491675 C366.602,0.414916748 373.251,-0.138083252 379.724,0.0289167478 C393.534,0.385916748 402.828,11.4089167 403.508,25.5279167 C403.684,29.1969167 403.27,32.8909167 403.391,36.5659167 C403.942,53.3769167 401.718,69.9459167 399.2,86.4949167 C398.748,89.4669167 398.444,92.4619167 397.96,96.3419167" id="Fill-84" fill="#000000"></path>
            <path d="M95.638,122.296917 C90.175,104.802917 84.893,87.8119167 81.917,70.2379167 C80.421,61.4039167 79.381,52.4669167 78.698,43.5329167 C78.342,38.9009167 78.972,34.1459167 79.578,29.4999167 C80.932,19.1309167 86.632,14.0699167 97.063,13.1769167 C109.633,12.0999167 121.928,14.3839167 134.114,16.6119167 C159.026,21.1699167 183.758,26.7039167 208.655,31.3509167 C219.266,33.3309167 230.074,34.6129167 240.849,35.2439167 C249.109,35.7279167 253.497,40.0159167 256.291,46.9839167 C259.388,54.7109167 259.971,62.8929167 260.242,71.0679167 C260.628,82.7199167 261.051,94.3869167 260.863,106.037917 C260.712,115.410917 259.75,124.775917 258.978,134.130917 C258.813,136.122917 258.133,138.155917 257.297,139.990917 C255.62,143.671917 253.107,145.940917 248.64,146.653917 C229.273,149.749917 209.984,153.327917 190.638,156.566917 C188.599,156.907917 185.784,156.935917 184.344,155.809917 C177.434,150.409917 169.617,147.456917 161.336,144.794917 C151.06,141.491917 141.167,136.916917 131.272,132.524917 C120.001,127.522917 108.498,123.488917 95.638,122.296917" id="Fill-85" fill="#FF499E"></path>
            <path d="M257.004,36.9759167 C269.185,38.3059167 280.256,35.7199167 291.001,30.8519167 C286.894,30.5049167 282.786,30.1579167 278.679,29.8109167 C278.671,29.3879167 278.662,28.9639167 278.654,28.5409167 C280.339,27.9879167 281.995,27.3149167 283.714,26.8979167 C301.93,22.4829167 320.136,18.0229167 338.387,13.7589167 C347.529,11.6229167 356.705,9.49991675 365.974,8.08391675 C370.914,7.32991675 376.165,7.56191675 381.135,8.29691675 C388.768,9.42791675 393.1,14.8739167 394.058,22.4919167 C395.813,36.4319167 394.028,50.1839167 392.248,63.9489167 C390.678,76.0899167 389.028,88.2199167 387.514,100.368917 C387.045,104.121917 385.885,107.236917 382.959,109.975917 C376.312,116.200917 373.017,124.243917 372.012,132.958917 C359.751,132.958917 347.676,131.913917 335.855,133.200917 C317.428,135.204917 299.171,138.775917 280.846,141.711917 C275.031,142.642917 269.232,143.663917 262.783,144.752917 C263.533,140.936917 264.549,137.697917 264.748,134.407917 C265.452,122.802917 266.113,111.185917 266.335,99.5659167 C266.53,89.3599167 266.392,79.1279167 265.893,68.9339167 C265.352,57.8829167 263.773,46.9869167 257.004,36.9759167" id="Fill-86" fill="#FF499E"></path>
            <path d="M170.211,203.176917 C169.095,209.155917 170.356,210.934917 175.754,211.000917 C181.134,211.067917 184.815,208.660917 186.393,203.551917 C187.35,200.448917 188.301,197.172917 188.292,193.977917 C188.272,186.745917 184.278,181.949917 177.985,178.580917 C172.026,175.390917 166.924,176.750917 162.16,180.707917 C149.828,190.953917 147.141,214.630917 156.824,227.233917 C157.56,228.190917 158.406,229.194917 159.429,229.774917 C164.575,232.692917 169.812,235.451917 174.987,238.318917 C177.595,239.761917 180.025,239.411917 182.545,238.037917 C185.213,236.583917 187.983,235.317917 191.083,233.782917 C198.779,241.125917 206.573,248.125917 218.51,248.381917 C219.94,256.001917 221.69,263.344917 222.608,270.789917 C223.495,277.986917 223.524,285.287917 223.976,293.376917 C222.295,293.837917 220.19,295.032917 218.229,294.831917 C213.193,294.315917 208.008,293.806917 203.262,292.184917 C176.76,283.130917 150.934,272.367917 125.285,261.122917 C106.412,252.847917 97.076,237.804917 92.947,218.580917 C92.746,217.644917 92.922,216.625917 92.922,214.883917 C112.461,226.014917 132.305,234.831917 153.682,240.064917 C149.539,235.357917 145.285,231.108917 139.29,228.580917 C125.18,222.632917 111.268,216.212917 97.286,209.960917 C96.171,209.462917 94.946,208.989917 94.087,208.175917 C87.869,202.277917 80.191,198.856917 72.452,195.712917 C64.943,192.663917 61.82,187.247917 60.553,179.457917 C58.982,169.801917 59.571,160.652917 63.99,152.002917 C69.813,140.608917 78.648,132.967917 91.891,131.603917 C94.098,131.375917 96.386,131.381917 98.579,131.688917 C102.418,132.226917 106.339,132.688917 110.004,133.868917 C128.272,139.753917 146.602,145.492917 164.633,152.042917 C174.105,155.484917 182.295,161.534917 188.539,169.651917 C197.891,181.806917 200.986,195.726917 198.251,210.642917 C196.713,219.026917 190.207,223.803917 182.633,226.592917 C169.89,231.283917 158.182,224.455917 157.347,209.709917 C156.832,200.630917 160.411,192.500917 166.98,185.984917 C169.035,183.945917 171.335,182.252917 174.612,183.734917 C177.825,185.187917 180.202,187.307917 180.443,190.951917 C180.605,193.369917 180.481,195.877917 180.014,198.252917 C178.782,204.525917 176.137,205.773917 170.211,203.176917" id="Fill-87" fill="#FF499E"></path>
            <path d="M197.071,229.695917 C207.527,219.988917 210.31,208.019917 208.684,194.476917 C207.115,181.415917 202.124,170.245917 190.788,161.175917 C201.396,159.707917 210.602,158.345917 219.832,157.177917 C229.952,155.897917 240.089,154.756917 250.23,153.657917 C251.806,153.486917 253.581,153.500917 255.028,154.049917 C267.414,158.745917 280.081,162.647917 291.601,169.567917 C300.682,175.022917 310.344,179.550917 319.928,184.113917 C327.374,187.657917 336.376,201.510917 334.978,211.110917 C334.053,217.463917 330.776,221.942917 324.589,223.416917 C302.95,228.568917 281.362,233.984917 259.586,238.481917 C249.651,240.533917 239.341,241.069917 229.165,241.550917 C221.341,241.921917 213.779,240.062917 207.045,235.606917 C204.008,233.596917 200.779,231.879917 197.071,229.695917" id="Fill-88" fill="#FF499E"></path>
            <path d="M339.54,218.990917 C342.762,207.561917 338.844,198.468917 332.8,190.208917 C330.09,186.504917 326.636,182.928917 322.743,180.581917 C310.495,173.195917 297.952,166.283917 285.37,159.472917 C280.379,156.770917 274.984,154.813917 268.769,152.075917 C269.581,151.773917 270.102,151.498917 270.655,151.386917 C286.679,148.146917 302.634,144.486917 318.755,141.840917 C330.811,139.860917 343.061,138.890917 355.265,138.095917 C359.833,137.798917 364.742,138.599917 369.103,140.067917 C379.356,143.516917 389.486,147.400917 399.454,151.609917 C410.011,156.067917 418.549,163.408917 425.742,172.233917 C427.188,174.007917 428.14,176.469917 428.536,178.751917 C429.373,183.563917 429.671,188.469917 430.23,193.333917 C430.698,197.413917 430.427,198.289917 426.13,199.430917 C418.042,201.577917 409.863,203.390917 401.698,205.238917 C382.765,209.520917 363.818,213.744917 344.875,217.980917 C343.486,218.291917 342.078,218.512917 339.54,218.990917" id="Fill-89" fill="#FF499E"></path>
            <path d="M456.685,159.551917 C460.245,159.949917 463.815,160.555917 467.385,160.646917 C468.875,160.684917 470.705,159.985917 471.845,159.002917 C476.085,155.361917 477.275,150.525917 476.495,145.121917 C475.775,140.072917 472.005,138.016917 467.795,136.685917 C459.505,134.066917 453.005,137.360917 447.555,143.401917 C441.325,150.322917 439.071,157.949917 442.665,167.123917 C445.025,173.158917 447.205,178.993917 453.755,181.286917 C454.405,198.055917 449.795,213.749917 448.925,230.115917 C440.765,235.582917 432.981,231.136917 424.953,229.568917 C423.984,221.876917 423.068,214.606917 422.062,206.628917 C424.329,205.672917 426.623,204.335917 429.096,203.745917 C433.316,202.738917 435.42,199.977917 435.761,196.048917 C436.323,189.560917 436.684,183.032917 436.66,176.524917 C436.643,172.119917 434.536,168.403917 431.559,165.032917 C419.876,151.811917 405.922,142.331917 388.617,138.115917 C386.241,137.536917 383.923,136.708917 381.593,135.950917 C381.234,135.833917 380.954,135.470917 380.307,134.959917 C380.693,133.586917 380.923,131.970917 381.579,130.552917 C386.12,120.750917 392.644,112.500917 400.961,105.579917 C407.315,100.293917 414.475,98.9719167 422.246,100.841917 C439.575,105.012917 456.325,110.994917 472.595,118.202917 C483.985,123.248917 490.055,134.575917 488.935,146.976917 C488.805,148.400917 488.585,149.838917 488.665,151.254917 C489.475,165.322917 473.515,175.222917 461.955,173.767917 C457.965,173.265917 454.895,172.008917 452.915,168.465917 C452.515,167.751917 452.045,167.074917 451.695,166.337917 C449.695,162.088917 447.155,157.836917 450.355,153.111917 C453.845,147.960917 458.255,144.276917 464.985,144.691917 C466.985,144.814917 469.255,144.335917 470.245,146.799917 C471.015,148.729917 469.545,152.385917 467.335,153.673917 C465.775,154.589917 463.985,155.153917 462.275,155.793917 C460.425,156.485917 458.535,157.083917 456.665,157.722917 C456.675,158.332917 456.675,158.942917 456.685,159.551917" id="Fill-90" fill="#FF499E"></path>
            <path d="M417.699,209.262917 C416.663,218.796917 415.659,228.039917 414.603,237.762917 C353.508,250.757917 292.83,263.663917 232.13,276.575917 C230.807,267.700917 229.439,258.513917 227.983,248.739917 C292.17,241.557917 354.303,224.469917 417.699,209.262917" id="Fill-91" fill="#FF499E"></path>
            <path d="M24.461,90.6449167 C32.219,104.411917 40.081,118.360917 47.978,132.373917 C47.178,120.148917 33.039,95.2659167 24.461,90.6449167 L24.461,90.6449167 Z M10.932,130.764917 C20.823,140.259917 30.748,149.786917 40.673,159.312917 C36.339,148.479917 30.375,138.926917 20.001,132.918917 C17.174,131.281917 14.12,129.963917 10.932,130.764917 L10.932,130.764917 Z M6.522,135.730917 C11.403,149.416917 20.002,159.294917 35.648,163.876917 C26.357,152.786917 17.677,142.991917 6.522,135.730917 L6.522,135.730917 Z M49.898,195.662917 C36.983,195.976917 25.216,198.519917 15.074,206.275917 C16.167,209.531917 17.521,209.696917 19.767,208.504917 C26.751,204.798917 34.42,203.417917 42.15,202.301917 C44.786,201.921917 47.4,201.392917 50.196,200.901917 C50.083,198.911917 49.999,197.424917 49.898,195.662917 L49.898,195.662917 Z M59.15,200.491917 C75.309,200.775917 91.132,200.403917 106.904,208.387917 C106.393,206.014917 106.515,204.549917 105.85,203.933917 C104.598,202.773917 102.98,201.868917 101.362,201.264917 C87.814,196.214917 73.8,194.598917 59.15,195.516917 L59.15,200.491917 Z M18.714,91.3889167 C21.131,116.118917 34.053,134.472917 47.006,146.451917 C40.578,126.551917 30.53,108.500917 18.714,91.3889167 L18.714,91.3889167 Z M98.732,211.527917 C90.588,207.508917 71.047,205.135917 60.139,206.268917 C58.989,209.333917 59.253,213.302917 54.473,214.926917 C53.235,212.157917 52.091,209.594917 50.772,206.639917 C41.409,206.834917 32.147,208.179917 23.375,212.361917 C48.614,219.492917 73.7,219.662917 98.732,211.527917 L98.732,211.527917 Z M106.824826,215.880917 C77.076,228.395917 47.488,230.399917 17.121,219.790917 C17.141,225.171917 19.531,228.558917 24.87,229.748917 C27.541,230.342917 30.154,231.266917 32.849,231.677917 C46.294,233.728917 59.819,233.481917 73.292,232.288917 C82.446,231.476917 91.519,229.899917 100.076,226.127917 C104.744,224.070917 106.873,220.741917 106.824826,215.880917 L106.824826,215.880917 Z M59.194,144.256917 C73.276,128.069917 87.017,112.275917 100.893,96.3249167 C99.927,96.3769167 98.786,96.2609167 97.742,96.5269167 C89.951,98.5059167 82.408,101.114917 75.543,105.429917 C68.437,109.898917 62.725,115.685917 59.137,123.306917 C58.194,125.310917 57.796,127.778917 57.87,130.008917 C58.018,134.464917 58.664,138.903917 59.194,144.256917 L59.194,144.256917 Z M56.463,155.813917 C62.05,155.865917 66.055,154.454917 70.095,153.223917 C80.848,149.946917 88.361,142.252917 95.927,134.534917 C104.813,125.467917 110.903,115.090917 112.252,102.248917 C112.503,99.8569167 113.049,97.4809167 112.053,95.2489167 C106.916,100.033917 101.788,104.284917 97.279,109.112917 C84.61,122.679917 72.174,136.462917 59.721,150.230917 C58.537,151.539917 57.887,153.329917 56.463,155.813917 L56.463,155.813917 Z M21.411,233.636917 C22.052,235.782917 22.577,237.418917 23.029,239.076917 C26.684,252.481917 30.508,265.844917 33.822,279.332917 C34.545,282.272917 35.71,283.831917 38.323,284.650917 C53.704,289.464917 69.104,289.605917 84.554,284.922917 C87.872,283.916917 89.661,282.025917 90.534,278.529917 C93.899,265.058917 97.58,251.666917 101.121,238.240917 C101.692,236.075917 102.149,233.879917 102.734,231.369917 C75.648,239.217917 49.084,241.356917 21.411,233.636917 L21.411,233.636917 Z M49.044,188.845917 L49.044,178.383917 C35.896,176.893917 24.931,170.677917 15.737,161.463917 C6.535,152.240917 4.142,139.612917 -2.27373675e-13,127.140917 C7.157,124.336917 14.647,123.865917 23.088,126.122917 C22.502,124.585917 22.228,123.606917 21.775,122.718917 C17.668,114.650917 14.372,106.384917 13.48,97.2079167 C12.828,90.5049167 12.534,90.0029167 15.197,83.2719167 C22.775,82.4229167 29.523,85.0029167 34.664,90.3899167 C39.893,95.8679167 44.287,102.168917 48.788,108.298917 C51.081,111.421917 52.807,114.961917 55.138,118.905917 C55.9,117.843917 56.482,117.209917 56.864,116.473917 C62.058,106.459917 70.245,99.7269167 80.372,95.2179167 C88.992,91.3799167 97.863,88.4199167 107.449,88.1569167 C113.399,87.9939167 116.313,90.2949167 117.516,96.1489167 C119.389,105.264917 117.832,114.027917 114.907,122.632917 C114.029,125.212917 112.933,127.796917 111.48,130.089917 C105.476,139.562917 98.514,148.273917 89.573,155.159917 C81.381,161.469917 71.717,163.782917 61.629,164.683917 C60.107,164.819917 58.577,164.854917 56.48,164.966917 C57.099,172.819917 57.689,180.298917 58.272,187.689917 C67.467,188.286917 76.069,188.521917 84.585,189.512917 C90.175,190.164917 95.649,191.862917 101.15,193.196917 C102.462,193.514917 103.712,194.177917 104.923,194.808917 C112.184,198.593917 113.92,202.134917 112.329,210.021917 C110.088,221.132917 107.835,232.241917 105.516,243.336917 C102.876,255.964917 99.837,268.519917 97.603,281.217917 C96.391,288.103917 92.627,291.900917 86.496,294.216917 C77.356,297.669917 67.858,298.769917 58.218,298.179917 C52.98,297.859917 47.744,296.858917 42.603,295.731917 C32.61,293.540917 26.588,287.365917 24.67,277.178917 C22.824,267.377917 20.989,257.564917 18.732,247.853917 C15.723,234.906917 12.359,222.039917 9.043,209.164917 C7.92,204.800917 9.023,201.613917 13.423,198.836917 C19.65,194.907917 26.629,192.994917 33.797,191.672917 C38.769,190.755917 43.738,189.830917 49.044,188.845917 L49.044,188.845917 Z" id="Fill-92" fill="#000000"></path>
            <path d="M21.411,233.636917 C49.084,241.356917 75.647,239.217917 102.734,231.368917 C102.148,233.879917 101.692,236.074917 101.121,238.240917 C97.58,251.666917 93.899,265.058917 90.534,278.529917 C89.661,282.025917 87.872,283.916917 84.554,284.922917 C69.103,289.605917 53.704,289.464917 38.323,284.650917 C35.71,283.831917 34.545,282.272917 33.822,279.332917 C30.508,265.844917 26.683,252.481917 23.029,239.075917 C22.577,237.418917 22.052,235.782917 21.411,233.636917" id="Fill-93" fill="#FFFFFF"></path>
            <path d="M56.462,155.813917 C57.886,153.329917 58.536,151.539917 59.72,150.230917 C72.173,136.462917 84.609,122.679917 97.278,109.112917 C101.787,104.284917 106.915,100.033917 112.052,95.2489167 C113.048,97.4809167 112.502,99.8569167 112.251,102.248917 C110.902,115.090917 104.812,125.467917 95.926,134.534917 C88.36,142.252917 80.847,149.946917 70.094,153.223917 C66.054,154.454917 62.049,155.865917 56.462,155.813917" id="Fill-94" fill="#FFFFFF"></path>
            <path d="M59.194,144.256917 C58.664,138.902917 58.017,134.464917 57.87,130.008917 C57.796,127.777917 58.194,125.310917 59.136,123.306917 C62.724,115.685917 68.436,109.898917 75.543,105.429917 C82.408,101.113917 89.951,98.5059167 97.742,96.5269167 C98.786,96.2609167 99.926,96.3769167 100.892,96.3239167 C87.016,112.275917 73.276,128.069917 59.194,144.256917" id="Fill-95" fill="#FFFFFF"></path>
            <path d="M106.824826,215.880917 C106.873,220.740917 104.744,224.069917 100.076,226.127917 C91.518,229.899917 82.446,231.476917 73.292,232.287917 C59.819,233.481917 46.294,233.728917 32.848,231.677917 C30.154,231.266917 27.541,230.342917 24.87,229.747917 C19.531,228.558917 17.14,225.171917 17.121,219.790917 C47.488,230.399917 77.076,228.395917 106.824826,215.880917" id="Fill-96" fill="#FFFFFF"></path>
            <path d="M98.732,211.527917 C73.7,219.662917 48.614,219.492917 23.375,212.361917 C32.146,208.179917 41.409,206.835917 50.771,206.639917 C52.09,209.594917 53.235,212.157917 54.472,214.926917 C59.253,213.302917 58.989,209.334917 60.138,206.268917 C71.046,205.135917 90.587,207.508917 98.732,211.527917" id="Fill-97" fill="#FFFFFF"></path>
            <path d="M18.713,91.3889167 C30.529,108.500917 40.577,126.551917 47.005,146.451917 C34.052,134.472917 21.13,116.117917 18.713,91.3889167" id="Fill-98" fill="#FFFFFF"></path>
            <path d="M59.15,200.490917 L59.15,195.515917 C73.799,194.597917 87.813,196.214917 101.362,201.263917 C102.979,201.867917 104.597,202.772917 105.849,203.932917 C106.514,204.549917 106.392,206.013917 106.904,208.386917 C91.131,200.402917 75.308,200.774917 59.15,200.490917" id="Fill-99" fill="#FFFFFF"></path>
            <path d="M49.898,195.661917 C49.999,197.424917 50.083,198.910917 50.196,200.900917 C47.4,201.391917 44.786,201.921917 42.15,202.301917 C34.419,203.417917 26.751,204.798917 19.766,208.504917 C17.52,209.695917 16.167,209.530917 15.074,206.274917 C25.215,198.518917 36.983,195.975917 49.898,195.661917" id="Fill-100" fill="#FFFFFF"></path>
            <path d="M6.521,135.730917 C17.676,142.991917 26.357,152.786917 35.647,163.876917 C20.001,159.294917 11.403,149.417917 6.521,135.730917" id="Fill-101" fill="#FFFFFF"></path>
            <path d="M10.931,130.764917 C14.119,129.963917 17.173,131.281917 20,132.918917 C30.374,138.926917 36.338,148.479917 40.672,159.312917 C30.747,149.785917 20.823,140.259917 10.931,130.764917" id="Fill-102" fill="#FFFFFF"></path>
            <path d="M24.461,90.6449167 C33.039,95.2659167 47.178,120.148917 47.978,132.373917 C40.081,118.360917 32.219,104.411917 24.461,90.6449167" id="Fill-103" fill="#FFFFFF"></path>
        </g>
    </g>
</svg>