<svg width="578" height="894" viewBox="0 0 578 894" xmlns="http://www.w3.org/2000/svg"><g fill="none" fill-rule="evenodd"><path d="M484.542 684.55c-63.396 15.207-125.53 32.295-189.716 39.477l4.147 27.836 182.473-38.813 3.096-28.5m38.986-49.711c-.01-.609-.01-1.219-.02-1.829 1.87-.639 3.76-1.237 5.61-1.929 1.71-.64 3.5-1.204 5.06-2.12 2.21-1.288 3.68-4.944 2.91-6.874-.99-2.464-3.27-1.985-5.26-2.108-6.73-.415-11.14 3.269-14.63 8.42-3.2 4.725-.66 8.977 1.34 13.226.35.737.82 1.414 1.22 2.128 1.98 3.543 5.05 4.8 9.04 5.302 11.56 1.455 27.52-8.445 26.71-22.513-.08-1.416.14-2.854.27-4.278 1.12-12.401-4.95-23.728-16.34-28.774-16.27-7.208-33.02-13.19-50.348-17.361-7.772-1.87-14.932-.548-21.285 4.738-8.318 6.921-14.841 15.171-19.382 24.973-.656 1.418-.887 3.034-1.273 4.407.648.511.927.874 1.287.991 2.33.758 4.647 1.586 7.023 2.166 17.306 4.215 31.26 13.695 42.942 26.917 2.978 3.37 5.084 7.086 5.1 11.491.025 6.509-.336 13.036-.897 19.524-.341 3.929-2.446 6.69-6.665 7.697-2.473.59-4.767 1.927-7.035 2.883l2.892 22.94c8.027 1.568 15.81 6.014 23.97.548.87-16.367 5.48-32.061 4.83-48.83-6.55-2.293-8.73-8.128-11.09-14.163-3.593-9.174-1.34-16.801 4.89-23.722 5.45-6.041 11.95-9.335 20.24-6.716 4.21 1.331 7.98 3.387 8.7 8.436.78 5.404-.41 10.24-4.65 13.881-1.14.983-2.97 1.682-4.46 1.644-3.58-.091-7.14-.697-10.7-1.095m-117.144 59.44c2.538-.478 3.946-.7 5.335-1.01 18.943-4.237 37.889-8.46 56.823-12.742 8.165-1.848 16.344-3.662 24.432-5.808 4.297-1.142 4.568-2.018 4.099-6.098-.558-4.863-.856-9.769-1.693-14.582-.397-2.281-1.35-4.744-2.794-6.517-7.193-8.826-15.731-16.166-26.288-20.624-9.968-4.209-20.098-8.093-30.351-11.542-4.361-1.468-9.27-2.27-13.84-1.972-12.203.795-24.453 1.765-36.508 3.744-16.121 2.647-32.077 6.307-48.1 9.547-.554.111-1.074.387-1.886.688 6.215 2.739 11.61 4.696 16.6 7.398 12.583 6.81 25.126 13.723 37.374 21.108 3.893 2.348 7.347 5.923 10.057 9.627 6.044 8.26 9.96 17.354 6.74 28.783m-142.47 10.704c3.709 2.183 6.939 3.901 9.975 5.911 6.734 4.456 14.296 6.314 22.12 5.944 10.176-.481 20.486-1.017 30.42-3.069 21.777-4.497 43.365-9.913 65.004-15.066 6.187-1.473 9.464-5.953 10.389-12.305 1.398-9.6-7.604-23.453-15.05-26.997-9.583-4.563-19.246-9.091-28.327-14.546-11.52-6.92-24.187-10.823-36.573-15.519-1.447-.549-3.222-.562-4.798-.391-10.141 1.098-20.278 2.24-30.398 3.52-9.23 1.168-18.436 2.529-29.044 3.998 11.336 9.069 16.327 20.239 17.896 33.301 1.626 13.543-1.157 25.512-11.613 35.219m-26.86-26.519c5.926 2.597 8.57 1.349 9.802-4.924.467-2.375.59-4.883.43-7.301-.241-3.644-2.618-5.764-5.831-7.217-3.277-1.482-5.577.211-7.633 2.25-6.568 6.516-10.147 14.646-9.633 23.725.835 14.746 12.543 21.574 25.287 16.883 7.574-2.789 14.08-7.566 15.618-15.95 2.735-14.916-.361-28.836-9.712-40.991-6.244-8.117-14.435-14.167-23.906-17.609-18.032-6.55-36.362-12.289-54.63-18.174-3.664-1.18-7.585-1.642-11.424-2.18-2.193-.307-4.482-.313-6.69-.085-13.242 1.364-22.077 9.005-27.9 20.399-4.418 8.65-5.008 17.799-3.436 27.455 1.267 7.79 4.39 13.206 11.899 16.255 7.739 3.144 15.417 6.565 21.635 12.463.859.815 2.084 1.287 3.199 1.785 13.98 6.252 27.893 12.672 42.004 18.62 5.995 2.528 10.249 6.777 14.39 11.484-21.376-5.233-41.22-14.05-60.758-25.181 0 1.742-.176 2.761.025 3.697 4.129 19.224 13.465 34.267 32.338 42.542 25.648 11.245 51.475 22.008 77.977 31.062 4.746 1.622 9.93 2.131 14.966 2.647 1.96.202 4.067-.994 5.747-1.455-.452-8.089-.48-15.39-1.367-22.587-.918-7.445-2.67-14.788-4.098-22.408-11.937-.256-19.731-7.256-27.427-14.598-3.1 1.534-5.87 2.8-8.538 4.254-2.52 1.374-4.95 1.724-7.558.281-5.176-2.867-10.412-5.626-15.56-8.544-1.021-.58-1.868-1.584-2.603-2.541-9.684-12.603-6.996-36.28 5.336-46.526 4.764-3.957 9.866-5.317 15.825-2.127 6.293 3.37 10.286 8.165 10.307 15.397.009 3.195-.943 6.472-1.9 9.574-1.577 5.109-5.258 7.516-10.638 7.449-5.4-.066-6.66-1.844-5.543-7.824m86.794-166.201c6.768 10.011 8.347 20.907 8.888 31.958a450.84 450.84 0 01.443 30.632c-.222 11.62-.883 23.237-1.587 34.842-.2 3.29-1.215 6.529-1.965 10.345 6.448-1.089 12.248-2.11 18.062-3.041 18.326-2.936 36.582-6.508 55.009-8.512 11.822-1.286 23.897-.241 36.157-.241 1.005-8.716 4.3-16.759 10.948-22.983 2.926-2.739 4.086-5.854 4.554-9.608 1.515-12.148 3.164-24.278 4.735-36.419 1.78-13.765 3.564-27.517 1.809-41.457-.958-7.618-5.29-13.064-12.922-14.195-4.97-.735-10.221-.967-15.162-.213-9.268 1.416-18.444 3.539-27.587 5.675-18.251 4.264-36.457 8.724-54.672 13.139-1.72.417-3.375 1.09-5.06 1.643l.024 1.27 12.323 1.041c-10.745 4.868-21.817 7.454-33.997 6.124M162.48 597.584c12.86 1.193 24.364 5.226 35.634 10.228 9.896 4.392 19.788 8.967 30.065 12.27 8.28 2.662 16.097 5.615 23.008 11.015 1.439 1.126 4.254 1.099 6.293.757 19.346-3.239 38.635-6.817 58.002-9.912 4.467-.714 6.98-2.983 8.658-6.663.836-1.835 1.515-3.869 1.68-5.861.773-9.354 1.735-18.72 1.885-28.093.189-11.651-.234-23.318-.62-34.97-.272-8.175-.855-16.357-3.951-24.083-2.794-6.969-7.183-11.257-15.443-11.741-10.775-.63-21.583-1.913-32.194-3.893-24.896-4.647-49.63-10.181-74.541-14.738-12.186-2.229-24.48-4.513-37.051-3.436-10.43.894-16.131 5.954-17.484 16.323-.607 4.646-1.236 9.402-.881 14.034.684 8.933 1.724 17.871 3.22 26.705 2.975 17.573 8.258 34.564 13.72 52.058m302.322-25.955c11.82-6.668 23.248-4.386 34.664-1.94 14.86 3.182 28.97 8.567 42.79 14.757 9.71 4.348 15.71 12.382 19.94 21.589 3.53 7.693 2.17 16.14 1.05 24.204-2.08 15.148-13.67 25.661-28.92 26.968-2.22.192-4.43.605-7.2.991.29 4.519.85 8.936.8 13.347-.09 8.761-.51 17.519-.83 26.277-.07 1.83-.52 3.663-.44 5.477.27 5.796-2.37 9.98-7.43 12.253-4.42 1.987-8.59 3.645-11.95 7.717-2.021 2.444-6.501 3.576-10.007 3.911-5.981.572-12.38 1.255-16.456-4.038l-177.86 36.134c.196 5.181.765 10.501-1.62 15.83-3.924 8.767-15.4 11.083-21.958 9.08-1.788-.547-3.858-2.092-4.603-3.724-1.405-3.085-3.913-3.705-6.62-4.762-20.933-8.17-41.838-16.416-62.664-24.856-3.411-1.383-6.327-2.314-9.693-.126-3.065 1.991-6.224 1.458-9.245-.413a192.132 192.132 0 00-6.855-4.07c-4.644-2.621-8.026-5.842-5.694-11.489-.537-.656-.734-1.149-1.057-1.254-7.042-2.269-9.692-8.137-12.126-14.358-3.854-9.854-5.963-19.957-5.086-31.065-2.473-1.508-4.981-3.186-7.624-4.618-8.477-4.593-16.5-9.761-23.491-16.519-2.02-1.952-3.485-3.89-4.14-6.541-4.496-18.213-.516-34.385 11.685-48.581 6.633-7.719 14.812-12.735 25.504-13.901-.773-2.165-1.3-3.855-1.971-5.486-5.851-14.209-11.084-28.689-13.661-43.83-2.322-13.638-4.384-27.398-3.842-41.366.247-6.34 2.296-12.065 5.587-17.284 1.198-1.9 3.462-3.524 5.598-4.359 6.307-2.467 12.834-3.611 19.753-3.175 19.173 1.208 38.13 4.103 57.023 7.281 11.45 1.925 22.637 5.379 34.016 7.8 17.012 3.623 34.359 4.484 51.627 6.123 9.498.902 18.308-1.168 27.13-3.415 15.619-3.977 31.019-8.8 46.597-12.945 13.795-3.67 27.644-7.192 41.596-10.191 6.325-1.36 12.974-1.913 19.447-1.746 13.81.357 23.104 11.38 23.784 25.499.176 3.669-.238 7.363-.117 11.038.55 16.811-1.673 33.38-4.191 49.929-.452 2.972-.756 5.967-1.24 9.847" fill="#000"/><path d="M162.48 597.584c-5.462-17.494-10.744-34.485-13.72-52.059-1.496-8.834-2.536-17.771-3.22-26.705-.355-4.632.275-9.387.88-14.033 1.355-10.369 7.055-15.43 17.486-16.323 12.57-1.077 24.865 1.207 37.05 3.435 24.913 4.558 49.645 10.092 74.542 14.739 10.61 1.98 21.419 3.262 32.194 3.893 8.26.484 12.648 4.772 15.442 11.74 3.097 7.727 3.68 15.909 3.95 24.084.387 11.652.81 23.319.622 34.97-.151 9.373-1.113 18.738-1.885 28.093-.165 1.992-.845 4.025-1.681 5.86-1.677 3.681-4.19 5.95-8.657 6.663-19.367 3.096-38.656 6.674-58.002 9.913-2.04.341-4.854.369-6.294-.757-6.91-5.4-14.727-8.353-23.008-11.015-10.276-3.303-20.17-7.878-30.064-12.27-11.271-5.002-22.774-9.036-35.634-10.228" fill="#FF499E"/><path d="M323.847 512.263c12.18 1.33 23.252-1.256 33.997-6.124l-12.322-1.041-.025-1.27c1.685-.553 3.34-1.226 5.06-1.643 18.216-4.415 36.422-8.875 54.673-13.139 9.142-2.136 18.318-4.259 27.587-5.675 4.94-.754 10.19-.522 15.16.213 7.634 1.131 11.966 6.577 12.924 14.195 1.755 13.94-.03 27.692-1.81 41.457-1.57 12.141-3.22 24.271-4.734 36.42-.47 3.753-1.63 6.868-4.555 9.607-6.647 6.225-9.942 14.268-10.947 22.983-12.261 0-24.336-1.045-36.157.242-18.427 2.004-36.684 5.575-55.01 8.511-5.814.931-11.613 1.952-18.062 3.041.75-3.816 1.766-7.055 1.965-10.345.704-11.605 1.365-23.222 1.587-34.842a450.84 450.84 0 00-.442-30.632c-.541-11.051-2.12-21.947-8.89-31.958m-86.792 166.201c-1.116 5.979.145 7.758 5.543 7.824 5.38.067 9.06-2.34 10.639-7.449.957-3.103 1.908-6.379 1.899-9.574-.02-7.232-4.014-12.028-10.307-15.397-5.96-3.19-11.061-1.83-15.825 2.127-12.332 10.246-15.02 33.923-5.336 46.526.736.957 1.582 1.961 2.605 2.541 5.146 2.918 10.383 5.677 15.558 8.544 2.608 1.443 5.038 1.093 7.558-.281 2.668-1.454 5.438-2.72 8.538-4.255 7.696 7.343 15.49 14.343 27.427 14.599 1.43 7.62 3.18 14.963 4.098 22.408.887 7.197.916 14.498 1.368 22.587-1.681.461-3.786 1.656-5.747 1.455-5.036-.516-10.221-1.025-14.967-2.647-26.502-9.054-52.328-19.817-77.977-31.062-18.873-8.275-28.21-23.318-32.338-42.542-.201-.936-.025-1.955-.025-3.697 19.539 11.131 39.383 19.948 60.76 25.181-4.143-4.707-8.397-8.956-14.392-11.484-14.11-5.948-28.022-12.368-42.004-18.62-1.115-.498-2.34-.971-3.2-1.785-6.217-5.898-13.895-9.319-21.634-12.463-7.51-3.049-10.632-8.465-11.9-16.255-1.57-9.656-.981-18.805 3.438-27.455 5.823-11.394 14.658-19.035 27.9-20.399 2.208-.228 4.496-.222 6.689.085 3.839.538 7.76 1 11.425 2.18 18.268 5.885 36.598 11.624 54.629 18.174 9.472 3.442 17.662 9.492 23.906 17.609 9.352 12.155 12.447 26.075 9.712 40.991-1.538 8.384-8.044 13.161-15.618 15.95-12.743 4.691-24.451-2.137-25.286-16.883-.515-9.079 3.064-17.209 9.633-23.725 2.055-2.039 4.355-3.732 7.632-2.25 3.213 1.453 5.59 3.573 5.83 7.217.163 2.418.039 4.926-.428 7.301-1.232 6.273-3.877 7.521-9.803 4.924" fill="#FF499E"/><path d="M263.914 704.983c10.456-9.707 13.239-21.676 11.613-35.219-1.57-13.061-6.56-24.231-17.896-33.301 10.608-1.468 19.814-2.83 29.044-3.998 10.12-1.28 20.257-2.421 30.398-3.52 1.576-.171 3.35-.157 4.798.392 12.386 4.696 25.053 8.598 36.573 15.518 9.08 5.455 18.743 9.983 28.327 14.546 7.446 3.544 16.448 17.397 15.05 26.997-.925 6.353-4.202 10.832-10.39 12.306-21.638 5.152-43.226 10.568-65.002 15.065-9.935 2.052-20.245 2.588-30.421 3.069-7.824.371-15.386-1.488-22.12-5.944-3.037-2.01-6.266-3.727-9.974-5.911" fill="#FF499E"/><path d="M406.383 694.278c3.222-11.429-.696-20.522-6.74-28.782-2.71-3.704-6.164-7.28-10.057-9.627-12.248-7.386-24.791-14.298-37.373-21.109-4.991-2.702-10.386-4.659-16.601-7.397.812-.302 1.333-.577 1.886-.689 16.024-3.24 31.979-6.9 48.1-9.546 12.056-1.98 24.306-2.95 36.51-3.745 4.568-.297 9.477.504 13.838 1.972 10.253 3.449 20.383 7.333 30.35 11.542 10.558 4.458 19.096 11.799 26.289 20.624 1.446 1.774 2.398 4.236 2.794 6.518.837 4.812 1.135 9.718 1.694 14.582.468 4.08.197 4.956-4.1 6.097-8.088 2.147-16.267 3.96-24.432 5.808-18.933 4.282-37.88 8.506-56.823 12.742-1.39.311-2.797.532-5.335 1.01" fill="#FF499E"/><path d="M523.528 634.839c3.56.398 7.13 1.004 10.7 1.095 1.49.038 3.32-.661 4.46-1.644 4.24-3.641 5.43-8.477 4.65-13.881-.72-5.049-4.49-7.105-8.7-8.436-8.29-2.619-14.79.675-20.24 6.716-6.23 6.921-8.484 14.548-4.89 23.722 2.36 6.035 4.54 11.87 11.09 14.163.65 16.769-3.96 32.463-4.83 48.829-8.16 5.467-15.944 1.021-23.972-.547l-2.891-22.94c2.267-.956 4.56-2.293 7.034-2.883 4.22-1.007 6.324-3.768 6.665-7.697.562-6.488.923-13.016.899-19.524-.017-4.405-2.124-8.121-5.101-11.492-11.683-13.221-25.637-22.701-42.942-26.917-2.376-.579-4.694-1.407-7.024-2.165-.36-.117-.64-.48-1.286-.991.386-1.373.616-2.989 1.272-4.407 4.54-9.802 11.065-18.052 19.382-24.973 6.354-5.286 13.514-6.608 21.285-4.738 17.329 4.171 34.079 10.153 50.349 17.361 11.39 5.046 17.46 16.373 16.34 28.774-.13 1.424-.35 2.862-.27 4.278.81 14.068-15.15 23.968-26.71 22.513-3.99-.502-7.06-1.759-9.04-5.302-.4-.714-.87-1.391-1.22-2.128-2-4.249-4.54-8.501-1.34-13.226 3.49-5.151 7.9-8.835 14.63-8.42 2 .123 4.27-.356 5.26 2.108.77 1.93-.7 5.586-2.91 6.874-1.56.916-3.35 1.48-5.06 2.12-1.85.692-3.74 1.29-5.61 1.929.01.61.01 1.22.02 1.829" fill="#FF499E"/><path d="M484.542 684.55l-3.096 28.5-182.473 38.813-4.147-27.836c64.187-7.182 126.32-24.27 189.716-39.477" fill="#FF499E"/><path d="M91.304 565.932l23.517 41.729c-.8-12.225-14.94-37.108-23.517-41.729zm-13.53 40.12l29.742 28.548c-4.334-10.833-10.298-20.386-20.672-26.394-2.827-1.637-5.881-2.955-9.07-2.154zm-4.41 4.966c4.882 13.686 13.48 23.564 29.127 28.146-9.291-11.09-17.971-20.885-29.126-28.146zm43.377 59.932c-12.915.314-24.682 2.857-34.824 10.613 1.093 3.256 2.447 3.421 4.693 2.229 6.984-3.706 14.653-5.087 22.383-6.203 2.636-.38 5.25-.909 8.046-1.4l-.298-5.239zm9.252 4.829c16.159.284 31.982-.088 47.754 7.896-.511-2.373-.39-3.838-1.054-4.454-1.252-1.16-2.87-2.065-4.488-2.669-13.548-5.05-27.562-6.666-42.212-5.748v4.975zM85.557 566.676c2.417 24.73 15.339 43.084 28.292 55.063-6.428-19.9-16.476-37.951-28.292-55.063zm80.018 120.139c-8.144-4.019-27.685-6.392-38.593-5.259-1.15 3.065-.886 7.034-5.666 8.658-1.238-2.769-2.382-5.332-3.701-8.287-9.363.195-18.625 1.54-27.397 5.722 25.239 7.131 50.325 7.301 75.357-.834zm8.093 4.353c-29.75 12.515-59.337 14.519-89.704 3.91.02 5.381 2.41 8.768 7.749 9.958 2.67.594 5.284 1.518 7.979 1.929 13.445 2.051 26.97 1.804 40.443.611 9.154-.812 18.227-2.389 26.784-6.161 4.668-2.057 6.797-5.386 6.749-10.247zm-47.631-71.624l41.699-47.932c-.966.052-2.107-.064-3.151.202-7.791 1.979-15.334 4.588-22.2 8.903-7.105 4.469-12.817 10.256-16.405 17.877-.943 2.004-1.341 4.472-1.267 6.702.148 4.456.794 8.895 1.324 14.248zm-2.731 11.557c5.587.052 9.592-1.359 13.632-2.59 10.753-3.277 18.266-10.971 25.832-18.689 8.886-9.067 14.976-19.444 16.325-32.286.25-2.392.797-4.768-.2-7-5.136 4.785-10.264 9.036-14.773 13.864-12.67 13.567-25.105 27.35-37.558 41.118-1.184 1.309-1.834 3.099-3.258 5.583zm-35.052 77.823c.64 2.146 1.166 3.782 1.618 5.44 3.655 13.405 7.479 26.768 10.793 40.256.723 2.94 1.888 4.499 4.5 5.318 15.382 4.814 30.782 4.955 46.232.272 3.318-1.006 5.107-2.897 5.98-6.393 3.365-13.471 7.046-26.863 10.587-40.289.57-2.165 1.028-4.361 1.613-6.871-27.086 7.848-53.65 9.987-81.323 2.267zm27.633-44.791v-10.462c-13.148-1.49-24.113-7.706-33.307-16.92-9.202-9.223-11.595-21.851-15.737-34.323 7.157-2.804 14.647-3.275 23.088-1.018-.586-1.537-.86-2.516-1.313-3.404-4.107-8.068-7.403-16.334-8.295-25.511-.652-6.703-.946-7.205 1.717-13.936 7.578-.849 14.326 1.731 19.467 7.118 5.229 5.478 9.623 11.779 14.124 17.909 2.293 3.123 4.019 6.663 6.35 10.607.762-1.062 1.344-1.696 1.726-2.432 5.194-10.014 13.38-16.747 23.508-21.256 8.62-3.838 17.49-6.798 27.077-7.061 5.95-.163 8.864 2.138 10.067 7.992 1.873 9.116.316 17.879-2.61 26.484-.877 2.58-1.973 5.164-3.426 7.457-6.004 9.473-12.966 18.184-21.907 25.07-8.192 6.31-17.856 8.623-27.944 9.524-1.522.136-3.052.171-5.15.283l1.793 22.723c9.195.597 17.797.832 26.313 1.823 5.59.652 11.064 2.35 16.565 3.684 1.312.318 2.562.981 3.773 1.612 7.26 3.785 8.997 7.326 7.406 15.213-2.241 11.111-4.494 22.22-6.813 33.315-2.64 12.628-5.68 25.183-7.913 37.881-1.212 6.886-4.976 10.683-11.107 12.999-9.14 3.453-18.638 4.553-28.278 3.963-5.238-.32-10.474-1.321-15.615-2.448-9.993-2.191-16.015-8.366-17.933-18.553-1.846-9.801-3.681-19.614-5.938-29.325-3.01-12.947-6.373-25.814-9.69-38.689-1.122-4.364-.02-7.551 4.38-10.328 6.228-3.929 13.207-5.842 20.375-7.164 4.972-.917 9.94-1.842 15.247-2.827z" fill="#000"/><path d="M88.254 708.924c27.673 7.72 54.236 5.581 81.323-2.268-.586 2.511-1.042 4.706-1.613 6.872-3.541 13.426-7.222 26.818-10.587 40.289-.873 3.496-2.662 5.387-5.98 6.393-15.451 4.683-30.85 4.542-46.231-.272-2.613-.819-3.778-2.378-4.501-5.318-3.314-13.488-7.14-26.851-10.793-40.257-.452-1.657-.977-3.293-1.618-5.439m35.051-77.823c1.424-2.484 2.074-4.274 3.258-5.583 12.453-13.768 24.889-27.551 37.558-41.118 4.509-4.828 9.637-9.079 14.774-13.864.996 2.232.45 4.608.199 7-1.35 12.842-7.44 23.219-16.325 32.286-7.566 7.718-15.08 15.412-25.832 18.689-4.04 1.231-8.045 2.642-13.632 2.59m2.732-11.557c-.53-5.354-1.177-9.792-1.324-14.248-.074-2.231.324-4.698 1.266-6.702 3.588-7.621 9.3-13.408 16.407-17.877 6.865-4.316 14.408-6.924 22.199-8.903 1.044-.266 2.184-.15 3.15-.203l-41.698 47.933" fill="#FFF"/><path d="M173.668 691.168c.048 4.86-2.081 8.189-6.75 10.247-8.557 3.772-17.63 5.349-26.783 6.16-13.473 1.194-26.998 1.441-40.444-.61-2.694-.411-5.307-1.335-7.978-1.93-5.34-1.189-7.73-4.576-7.75-9.957 30.368 10.609 59.956 8.605 89.705-3.91" fill="#FFF"/><path d="M165.575 686.815c-25.032 8.135-50.118 7.965-75.357.834 8.77-4.182 18.034-5.526 27.396-5.722l3.7 8.287c4.782-1.624 4.518-5.592 5.667-8.658 10.908-1.133 30.449 1.24 38.594 5.259M85.556 566.676c11.816 17.112 21.864 35.163 28.292 55.063-12.953-11.979-25.875-30.334-28.292-55.063m40.437 109.102v-4.975c14.649-.918 28.663.699 42.212 5.748 1.617.604 3.235 1.509 4.487 2.669.665.617.543 2.081 1.055 4.454-15.773-7.984-31.596-7.612-47.754-7.896m-9.253-4.829c.102 1.763.186 3.249.299 5.239-2.796.491-5.41 1.021-8.046 1.401-7.731 1.116-15.4 2.497-22.384 6.203-2.246 1.191-3.6 1.026-4.692-2.23 10.14-7.756 21.909-10.299 34.824-10.613m-43.377-59.931c11.155 7.261 19.836 17.056 29.126 28.146-15.646-4.582-24.244-14.459-29.126-28.146m4.41-4.966c3.188-.801 6.242.517 9.069 2.154 10.374 6.008 16.338 15.561 20.672 26.394l-29.741-28.548m13.53-40.12c8.578 4.621 22.717 29.504 23.517 41.729-7.897-14.013-15.76-27.962-23.517-41.729" fill="#FFF"/></g></svg>