<?xml version="1.0" encoding="UTF-8"?>
<svg width="1107px" height="550px" viewBox="0 0 1107 550" version="1.1" xmlns="http://www.w3.org/2000/svg" xmlns:xlink="http://www.w3.org/1999/xlink">
    <title>spaceship</title>
    <g id="spaceship" stroke="none" stroke-width="1" fill="none" fill-rule="evenodd">
        <g id="Group-68">
            <path d="M417.457,157.643 C421.113,158.091 422.948,155.531 424.679,152.824 L417.457,157.643 Z M1020.5,116.952 C1021.88,114.754 1023,112.962 1024.29,110.91 C1018.77,108.399 1016.19,111.036 1013.24,114.648 C1015.82,115.467 1017.76,116.083 1020.5,116.952 L1020.5,116.952 Z M1047.13,137.357 C1049.81,133.997 1052.15,131.452 1050.23,126.544 C1047.48,128.031 1045.06,129.334 1042.39,130.779 C1044.15,133.231 1045.38,134.935 1047.13,137.357 L1047.13,137.357 Z M1034.9,124.875 C1036.92,122.383 1040.04,120.323 1037.29,117.453 C1035.01,115.073 1032.55,117.643 1030.39,118.877 C1029.64,119.305 1029.06,120.022 1027.87,121.074 C1030.48,122.488 1032.67,123.67 1034.9,124.875 L1034.9,124.875 Z M1059.52,143.086 C1057.14,144.098 1054.8,145.095 1052.02,146.279 C1052.88,148.964 1053.6,151.241 1054.54,154.169 C1058.46,150.843 1062.02,148.582 1059.52,143.086 L1059.52,143.086 Z M596.802,467.609 C596.885,467.079 596.967,466.549 597.049,466.019 C592.321,465.124 590.944,458.306 583.691,459.746 C586.489,463.85 588.824,467.275 591.23,470.803 C593.54,469.479 595.171,468.544 596.802,467.609 L596.802,467.609 Z M966.695,105.677 C957.556,100.892 953.083,106.167 947.461,110.762 C955.507,113.492 959.75,107.524 966.695,105.677 L966.695,105.677 Z M582.392,454.002 C588.843,448.946 588.918,442.492 583.2,435.978 C580.98,441.721 580.432,447.354 582.392,454.002 L582.392,454.002 Z M813.189,97.668 C820.738,96.219 829.533,100.592 836.646,92.266 C827.854,93.556 819.798,92.411 813.189,97.668 L813.189,97.668 Z M605.331,453.711 C594.738,449.905 594.348,449.919 591.441,454.221 C594.681,456.7 597.934,459.189 601.744,462.105 C603.152,458.811 604.143,456.492 605.331,453.711 L605.331,453.711 Z M834.968,206.26 C838.849,200.388 838.054,197.679 832.121,196.421 C830.075,195.986 827.848,196.071 825.756,196.335 C824.774,196.459 823.175,197.568 823.170962,198.238 C823.165,199.415 823.863,201.156 824.808,201.675 C827.889,203.367 831.213,204.613 834.968,206.26 L834.968,206.26 Z M478.193,224.953 C470.754,223.898 468.561,229.352 465.53,233.188 C463.93,235.212 462.078,237.921 465.989,241.222 C468.819,234.888 477.173,233.588 478.193,224.953 L478.193,224.953 Z M944.98,100.292 C934.019,95.936 930.075,96.941 924.393,105.235 C933.64,107.991 934.088,107.889 944.98,100.292 L944.98,100.292 Z M584.708,428.783 C590.632,432.979 593.385,432.16 601.184,424.236 C594.945,414.886 588.581,416.981 584.708,428.783 L584.708,428.783 Z M875.475,91.131 C869.552,91.131 864.572,91.364 859.626,91.065 C854.863,90.777 851.902,93.006 848.776,97.268 C852.877,97.62 856.14,97.686 859.325,98.218 C865.741,99.289 870.836,97.354 875.475,91.131 L875.475,91.131 Z M592.453,438.034 C592.899,440.568 593.281,442.739 593.611,444.618 C598.39,445.158 602.339,445.604 606.574,446.082 C607.105,441.084 608.07,436.285 604.659,431.345 C600.556,433.594 596.673,435.722 592.453,438.034 L592.453,438.034 Z M544.648,183.884 C543.525,183.651 542.188,182.902 541.343,183.273 C535.289,185.93 529.298,188.741 523.398,191.726 C522.713,192.073 522.128,194.254 522.529,194.752 C523.228,195.619 524.904,196.477 525.869,196.218 C531.146,194.803 536.425,193.286 541.514,191.315 C544.466,190.173 545.439,187.431 544.648,183.884 L544.648,183.884 Z M509.081,202.006 C507.828,201.836 506.362,201.228 505.127,201.538 C498.11,203.299 493.016,208.021 488.472,213.271 C486.847,215.147 487.583,217.338 490.915,218.829 C495.969,215.821 501.536,212.656 506.937,209.227 C509.355,207.691 510.119,205.213 509.081,202.006 L509.081,202.006 Z M914.948,95.726 C914.779,95.267 914.61,94.806 914.441,94.346 C909.567,93.756 904.666,93.327 899.824,92.536 C893.358,91.479 889.397,94.716 885.518,100.086 C891.859,100.955 897.419,101.81 903.006,102.412 C904.278,102.548 905.83,102.102 906.931,101.411 C909.701,99.672 912.288,97.641 914.948,95.726 L914.948,95.726 Z M809.033,199.338 C810.782,196.179 813.139,193.186 808.871,191.744 C801.189,189.146 793.268,186.967 785.033,189.156 C783.666,189.519 782.547,190.813 779.907,192.662 C789.939,197.381 799.425,197.538 809.033,199.338 L809.033,199.338 Z M688.26,294.252 L687.545,292.432 C661.782,294.974 636.018,297.515 610.256,300.057 C611.312,300.881 612.379,301.099 613.451,301.135 C633.989,301.82 654.466,300.97 674.81,298.069 C679.382,297.417 683.781,295.557 688.26,294.252 L688.26,294.252 Z M585.831,409.971 C577.941,412.769 571.933,417.763 569.87,425.936 C567.956,433.522 566.139,441.354 565.982,449.112 C565.733,461.441 572.197,470.853 581.943,478.056 C582.6,478.542 583.557,478.624 586.164,479.485 C576.834,468.333 571.232,457.656 572.446,444.33 C573.61,431.552 577.747,420.129 585.831,409.971 L585.831,409.971 Z M603.139,490.022 C600.211,489.802 598.869,489.609 597.529,489.614 C574.208,489.708 560.402,467.377 560.107,451.547 C559.919,441.442 561.978,431.659 565.307,422.1 C568.306,413.487 573.899,407.322 581.925,403.223 C584.23,402.046 586.562,400.922 588.924,399.753 C585.975,395.458 585.937,395.339 582.924,396.288 C577.29,398.061 572.66,401.464 568.929,405.941 C556.051,421.392 555.554,439.658 557.86,458.244 C559.173,468.821 565.883,476.939 572.243,485.104 C575.95,489.864 580.699,492.592 586.189,494.655 C592.303,496.953 597.287,495.575 603.139,490.022 L603.139,490.022 Z M432.311,266.933 C430.05,265.628 427.905,264.034 425.507,263.067 C410.772,257.13 399,247.152 387.781,236.238 C377.63,226.362 374.579,216.182 380.003,205.036 C384.072,196.673 388.488,188.445 395.14,181.639 C401.904,174.717 408.355,167.487 415.486,159.808 C413.853,160.74 412.681,161.275 411.655,162.014 C400.497,170.055 391.132,179.972 382.646,190.672 C379.109,195.132 376.215,200.229 373.751,205.382 C369.815,213.616 369.694,221.646 375.202,229.772 C380.127,237.037 386.367,242.804 392.762,248.564 C404.063,258.746 417.843,263.773 432.311,266.933 L432.311,266.933 Z M614.503,436.903 C615.956,453.194 610.934,466.756 596.655,476.375 C599.598,478.696 602.538,479.492 605.661,478.675 C612.549,476.873 618.842,473.671 622.325,467.251 C628.502,455.869 630.351,443.584 628.486,429.939 C623.574,432.386 619.165,434.581 614.503,436.903 L614.503,436.903 Z M338.746,384.1 C332.065,370.17 335.207,355.418 331.942,341.234 C328.859,342.273 326.123,343.067 323.484,344.108 C316.725,346.775 315.053,349.205 315.008,356.514 C314.986,359.858 314.844,363.278 315.443,366.537 C318.575,383.557 316.853,385.852 338.746,384.1 L338.746,384.1 Z M38.0546,373.966 C36.4486,369.537 34.4356,365.685 33.7196,361.604 C32.6886,355.749 32.3146,349.735 32.1796,343.777 C31.9466,333.557 32.1156,323.327 32.1156,312.511 C24.8856,314.204 20.6696,318.718 16.3226,323.072 C11.8536,327.548 9.3566,332.744 10.0096,339.212 C10.6566,345.624 11.2686,352.04 11.8846,358.457 C13.1326,371.447 25.9346,379.087 38.0546,373.966 L38.0546,373.966 Z M765.079,187.202 C762.636,186.621 760.199,185.559 757.754,185.538 C739.83,185.385 721.882,184.862 703.986,185.582 C683.217,186.418 662.544,188.886 642.2,193.373 C625.602,197.034 609.042,201.022 594.383,210.147 C590.806,212.374 587.334,215.224 584.781,218.533 C581.229,223.137 582.623,227.252 588.741,231.216 C585.783,223.963 590.432,220.914 595.047,218.465 C602.201,214.667 609.38,210.398 617.085,208.263 C632.488,203.995 648.141,200.338 663.907,197.752 C677.293,195.557 690.964,194.686 704.544,194.195 C722.692,193.539 740.874,193.748 759.041,193.739 C763.434,193.736 763.434,194.011 765.079,187.202 L765.079,187.202 Z M594.459,502.865 C593.031,502.756 591.655,502.545 590.282,502.563 C580.284,502.691 572.175,498.712 565.767,491.196 C546.261,468.32 543.292,442.976 554.729,415.591 C558.491,406.582 564.611,399.381 573.859,393.219 C569.525,391.873 566.328,391.068 563.275,389.889 C558.152,387.909 553.671,388.904 548.991,391.577 C541.164,396.047 535.89,402.785 532.02,410.506 C530.173,414.195 529.975,418.781 529.434,423.013 C529.254,424.413 529.894,426.624 530.932,427.336 C533.609,429.173 533.544,431.669 533.63,434.292 C533.786,439.071 533.65,443.884 534.196,448.617 C534.818,454.017 534.649,460.206 537.304,464.53 C543.369,474.41 545.662,485.509 549.589,496.061 C550.126,497.505 549.212,499.847 548.31,501.386 C546.941,503.72 544.993,505.714 543.275,507.873 C547.666,511.576 552.573,514.278 558.194,514.469 C566.025,514.735 573.883,514.262 581.728,514.088 C590.861,513.886 592.069,512.837 594.459,502.865 L594.459,502.865 Z M271.463,180.244 C259.55,180.337 249.267,184.69 239.332,190.166 C237.923,190.943 236.466,192.088 235.661,193.439 C229.326,204.074 225.054,221.65 235.015,235.376 C238.614,240.336 243.305,244.561 247.802,248.799 C253.96,254.601 261.811,256.92 269.941,257.871 C272.786,258.204 276.014,257.154 278.77,256.017 C286.662,252.76 292.612,246.959 298.435,240.825 C309.98,228.66 310.564,214.851 304.905,200.267 C301.892,192.5 296.439,186.335 288.066,183.879 C282.644,182.287 277.005,181.43 271.463,180.244 L271.463,180.244 Z M349.391,334.803 C339.757,336.763 338.228,338.832 339.501,348.143 C339.663,349.328 339.741,350.525 339.901,351.711 C340.953,359.51 341.622,367.388 343.198,375.079 C344.526,381.561 346.545,382.432 352.829,380.274 C385.4,369.096 417.924,357.781 450.507,346.637 C454.176,345.382 456.574,343.178 458.457,339.925 C465.409,327.906 472.524,315.98 479.471,303.958 C480.736,301.767 481.498,299.285 482.817,296.17 C475.851,294.431 469.695,292.701 463.444,291.45 C461.508,291.062 459.183,291.633 457.253,292.351 C435.277,300.515 413.326,308.746 391.406,317.059 C379.358,321.628 367.383,326.386 355.263,331.103 C355.263,335.375 355.388,338.963 355.227,342.538 C355.071,345.987 357.373,350.036 353.001,353.057 C346.869,347.667 350.922,340.664 349.391,334.803 L349.391,334.803 Z M360.982,209.204 C363.775,203.115 365.475,197.59 368.564,193.002 C378.915,177.634 390.596,163.3 406.451,153.228 C415.727,147.336 425.226,141.539 435.258,137.143 C460.791,125.952 485.622,113.102 513.228,106.866 C532.539,102.504 551.199,95.334 570.394,90.364 C588.216,85.75 606.387,82.498 624.359,78.452 C654.526,71.661 685.059,67.469 715.883,65.329 C732.339,64.186 748.85,63.68 765.265,62.128 C795.078,59.308 824.988,59.042 854.869,58.184 C885.038,57.317 915.145,59.217 945.133,62.49 C967.261,64.905 989.267,68.365 1010.43,75.539 C1022.21,79.529 1033.56,84.778 1045.37,88.64 C1053.3,91.233 1059.83,95.904 1066.62,100.276 C1072.43,104.017 1076.15,109.1 1077.36,116.301 C1078.84,125.153 1080.42,134.053 1076.23,142.312 C1071.49,151.672 1065.81,160.558 1060.38,169.56 C1059.3,171.363 1057.69,172.942 1056.06,174.315 C1039.19,188.562 1021.77,201.869 1000.74,209.78 C984.857,215.758 969.47,223.089 953.505,228.828 C933.491,236.023 913.15,242.319 892.883,248.789 C878.76,253.297 864.584,257.666 850.316,261.689 C836.737,265.519 822.97,268.678 809.362,272.415 C802.931,274.182 796.68,276.611 790.347,278.741 C793.066,279.735 795.455,279.724 797.737,279.225 C822.737,273.758 847.934,269.028 872.657,262.501 C909.031,252.899 943.835,238.662 978.678,224.552 C997.85,216.789 1015.99,207.671 1033.27,196.206 C1055.77,181.28 1073.94,162.997 1085.73,138.565 C1094.1,121.223 1098.56,103.766 1091.07,84.673 C1085.7,70.98 1077.87,59.795 1064.68,52.866 C1060.24,50.533 1055.72,48.313 1051.09,46.375 C1027.86,36.648 1003.82,29.419 979.355,23.572 C962.104,19.449 944.519,17.596 926.853,16.291 C918.276,15.658 909.762,13.915 901.184,13.588 C880.169,12.786 859.136,12.228 838.107,12.113 C818,12.002 797.872,12.164 777.783,12.962 C757.721,13.759 737.635,14.903 717.667,16.95 C684.1,20.393 650.778,25.655 617.966,33.707 C588.237,41.002 558.057,46.934 528.975,56.267 C484.042,70.687 440.608,88.987 400.557,114.619 C390.047,121.345 381.501,129.752 373.209,138.708 C366.914,145.507 363.126,153.829 359.534,162.174 C357.582,166.711 355.749,171.564 355.264,176.415 C354.157,187.464 357.719,197.857 360.982,209.204 L360.982,209.204 Z M523.945,501.379 C520.517,494.244 517.379,487.716 514.219,481.14 C510.779,482.124 507.613,483.03 504.215,484.002 C505.608,488.658 504.336,492.232 501.186,495.559 C495.964,494.19 495.886,489.219 493.936,485.434 C491.995,485.864 490.22,486.259 488.201,486.707 C489.711,491.42 488.776,495.056 485.296,498.331 C480.663,496.229 480.503,491.399 478.345,487.529 C476.527,487.807 474.701,488.084 472.887,488.361 C473.349,492.783 473.668,496.809 469.119,500.199 C467.721,498.429 466.163,496.986 465.29,495.207 C464.408,493.408 464.204,491.276 463.618,488.951 C461.849,489.291 460.549,489.54 459.111,489.816 C459.929,494.805 461.708,499.652 456.651,503.489 C450.43,500.764 451.972,494.938 451.638,489.445 C445.955,489.781 440.747,490.098 435.539,490.394 C430.284,490.691 425.009,490.771 419.779,491.307 C414.551,491.843 409.383,492.96 404.159,493.571 C399.228,494.148 394.257,494.397 389.303,494.791 C389.191,494.105 389.08,493.42 388.968,492.735 C398.373,490.247 407.722,487.51 417.198,485.332 C429.31,482.549 441.699,480.848 453.656,477.545 C472.564,472.322 491.413,467.056 510.93,464.577 C515.577,463.986 520.171,462.98 525.452,462.048 C523.757,451.783 524.982,442.043 522.742,432.108 C495.635,439.035 469.025,443.681 441.941,445.076 C441.837,444.546 441.732,444.017 441.629,443.487 C467.398,437.674 493.167,431.861 519.115,426.008 C518.384,405.085 527.859,391.117 547.099,383.9 C540.61,372.569 540.809,369.782 548.561,359.638 C549.143,358.876 549.78,358.158 550.361,357.397 C556.896,348.836 563.368,340.226 569.984,331.729 C572.748,328.18 573.3,324.548 571.754,320.61 C563.192,318.311 551.595,321.23 540.97,326.252 C531.667,330.648 522.523,335.383 513.341,340.03 C506.986,343.245 500.118,345.799 497.174,351.81 C493.619,352.38 490.654,352.153 488.444,353.336 C480.224,357.742 472.472,363.054 464.134,367.199 C452.64,372.912 444.302,381.598 436.736,391.748 C426.306,405.743 414.733,418.883 404.107,432.74 C401.605,436.003 399.05,438.148 395.296,439.404 C382.803,443.582 370.35,447.88 357.895,452.173 C355.479,453.006 353.128,454.024 350.701,454.976 C350.815,456.822 350.955,457.998 350.94,459.171 C350.926,460.32 350.754,461.468 350.666,462.444 C347.281,464.779 344.328,463.261 341.501,462.182 C335.072,459.726 329.911,455.417 325.646,450.145 C315.862,438.051 306.343,425.742 296.539,413.664 C282.059,395.824 267.77,377.811 252.756,360.43 C239.276,344.826 225.794,329.312 215.169,311.539 C213.473,308.701 211.321,306.122 209.258,303.52 C206.52,300.068 205.686,296.441 207.235,292.165 C208.752,287.977 211.896,285.426 215.625,283.764 C227.196,278.606 238.896,273.741 250.537,268.738 C252.106,268.063 253.618,267.251 255.975,266.106 C246.409,262.351 240.426,255.788 233.895,249.814 C227.054,243.557 226.659,234.498 223.157,226.844 C219.445,218.73 221.88,209.733 223.347,200.252 C221.118,201.46 219.859,202.087 218.654,202.805 C195.401,216.641 172.202,230.57 148.895,244.314 C118.367,262.314 87.7976,280.244 57.1236,297.991 C53.5606,300.053 51.8756,302.394 51.7516,306.371 C51.5516,312.815 51.1346,319.253 50.7466,325.69 C50.6236,327.717 51.1966,330.134 47.9246,331.204 C41.7756,322.81 48.1186,313.407 46.2326,304.79 C39.2126,306.079 37.2366,310.662 37.3306,316.874 C37.4396,324.064 37.1026,331.269 37.4316,338.446 C37.7356,345.121 38.3736,351.811 39.3846,358.415 C40.7046,367.036 45.9296,370.177 54.2796,367.769 C57.0226,366.978 59.7366,366.002 62.3436,364.839 C92.2726,351.476 122.184,338.068 152.089,324.648 C156.826,322.522 161.51,320.273 165.794,318.279 C165.143,316.233 164.686,314.795 164.225,313.346 C170.013,311.588 174.747,313.163 178.92,316.154 C183.961,319.766 189.156,323.365 193.44,327.788 C203.258,337.923 212.995,348.198 221.99,359.056 C245.032,386.87 267.682,415.009 290.422,443.072 C296.591,450.685 302.614,458.418 308.521,466.235 C311.277,469.881 312.936,474.018 311.97,479.876 C308.32,478.79 305.305,477.893 301.43,476.74 C293.311,482.55 284.88,488.847 276.165,494.722 C271.036,498.178 269.859,502.758 270.552,508.402 C271.305,514.544 276.573,514.415 280.701,515.775 C292.28,519.589 303.916,523.23 315.487,527.065 C326.822,530.821 338.074,534.826 349.437,538.492 C351.611,539.193 354.138,538.996 356.491,538.914 C361.985,538.721 367.483,537.978 372.963,538.119 C386.603,538.47 400.195,539.066 413.835,537.356 C423.062,536.199 432.435,536.181 441.743,535.673 C452.733,535.073 463.74,534.704 474.711,533.857 C489.721,532.699 504.708,531.226 519.696,529.801 C524.843,529.312 529.965,528.567 535.098,527.938 C524.529,527.318 514.02,527.465 503.57,528.343 C481.649,530.186 459.825,533.328 437.742,532.778 C433.455,532.672 429.162,532.583 424.876,532.678 C413.203,532.935 401.696,535.839 389.878,534.284 C376.111,532.473 362.288,530.996 349.062,526.544 C337.05,522.501 325.16,518.089 313.248,513.751 C310.242,512.657 307.357,511.227 304.418,509.951 C304.538,509.412 304.658,508.872 304.778,508.333 C319.205,507.397 333.62,506.086 348.062,505.628 C362.867,505.159 377.698,505.524 392.519,505.524 C393.488,502.81 395.447,499.85 396.567,500.139 C398.578,500.658 400.085,503.129 402.655,505.607 C404.901,505.753 408.367,505.979 412.073,506.222 C412.347,502.554 407.952,499.776 411.362,497.061 C412.512,496.147 415.192,496.078 416.605,496.774 C421.011,498.943 416.179,502.766 417.817,506.401 C453.014,505.629 488.29,506.303 523.945,501.379 L523.945,501.379 Z M705.422,264.84 C702.754,262.003 702.903,258.966 705.85,256.794 C708.459,254.872 711.577,253.404 714.69,252.472 C717.852,251.526 721.272,251.299 724.6,251.073 C735.921,250.304 747.132,250.723 757.338,256.44 C760.541,258.234 763.249,260.91 766.143,263.151 C771.236,257.91 771.454,256.571 767.027,252.497 C764.993,250.626 762.454,248.836 759.845,248.155 C753.866,246.593 747.748,245.226 741.607,244.694 C727.578,243.477 713.962,245.489 701.12,251.6 C697.434,253.354 694.875,255.751 695.166,260.4 C695.429,264.585 697.377,266.997 700.932,267.974 C702.688,266.721 704.165,265.666 705.642,264.613 C705.974,265.405 706.117,266.37 706.664,266.964 C712.704,273.524 720.598,277.041 728.837,279.64 C739.431,282.981 753.884,277.939 758.279,261.477 C743.386,255.042 728.061,255.613 712.558,258.545 C708.893,259.239 707.064,261.854 705.422,264.84 L705.422,264.84 Z M441.473,286.408 C428.298,279.811 415.182,273.447 402.251,266.725 C380.054,255.185 364.056,237.309 351.931,215.85 C349.309,211.21 348.176,205.617 346.975,200.322 C345.924,195.687 346.175,190.753 345.084,186.131 C343.016,177.372 345.965,169.596 349.042,161.802 C350.443,158.252 352.36,154.911 353.879,151.403 C359.677,138.016 369.081,127.576 380.94,119.471 C402.889,104.47 425.566,90.676 449.124,78.264 C469.312,67.626 490.554,59.615 511.602,51.029 C551.019,34.95 592.043,24.495 633.677,16.529 C661.141,11.273 688.922,7.613 716.631,3.732 C727.267,2.242 738.083,1.795 748.836,1.444 C770.853,0.726 792.89,-0.181 814.908,0.031 C853.186,0.399 891.391,1.923 929.496,6.573 C947.112,8.723 964.577,11.595 981.831,15.2 C1002.39,19.496 1022.65,25.483 1041.8,34.555 C1051.73,39.261 1062.04,43.221 1071.76,48.315 C1098.39,62.265 1109.77,89.638 1106.03,117.559 C1105.53,121.293 1104.32,125.066 1102.74,128.497 C1097.94,138.887 1093.09,149.068 1085.98,158.421 C1079.77,166.592 1073.96,175.068 1066.82,182.455 C1053.51,196.217 1037.54,206.381 1020.64,215.023 C987.339,232.058 952.669,245.859 917.095,257.352 C883.625,268.164 850.254,279.522 815.544,285.744 C781.41,291.862 747.119,297.106 712.871,302.573 C698.229,304.911 683.581,307.543 668.829,308.767 C652.395,310.13 635.838,310.515 619.341,310.399 C610.279,310.336 602.753,314.661 594.457,316.684 C593.478,316.922 592.642,318.154 591.945,319.081 C581.165,333.413 570.961,348.226 559.46,361.953 C552.558,370.19 556.123,377.553 564.613,380.03 C570.568,381.767 576.553,383.598 582.654,384.581 C589.149,385.627 594.518,388.168 598.624,393.254 C601.472,396.781 605.12,398.663 609.516,399.633 C630.337,404.228 640.254,420.288 641.748,439.244 C643.258,458.387 636.603,473.837 623.592,487.17 C622.758,488.025 621.939,489.062 620.896,489.52 C610.885,493.924 606.266,503.137 601.669,511.959 C596.73,521.438 589.758,527.347 579.163,528.759 C563.288,530.874 547.438,533.293 531.505,534.832 C519.615,535.979 507.706,536.502 495.828,538.276 C480.717,540.533 465.337,540.934 450.164,542.86 C430.672,545.334 411.183,547.076 391.512,547.272 C378.376,547.404 365.253,548.652 352.122,549.375 C338.248,550.14 325.787,545.594 313.704,539.351 C302.394,533.507 290.63,528.508 277.897,527.14 C262.625,525.499 257.172,517.509 257.267,503.218 C257.317,495.598 259.957,489.529 265.956,485.252 C273.726,479.712 281.865,474.69 289.86,469.468 C291.438,468.438 293.087,467.514 295.48,466.073 C291.371,460.973 287.546,456.215 283.711,451.467 C273.486,438.81 263.399,426.038 252.988,413.537 C244.262,403.059 235.033,392.999 226.267,382.554 C221.656,377.06 217.399,371.248 213.267,365.379 C205.645,354.555 196.862,344.76 187.169,335.81 C183.516,332.436 179.151,329.831 174.957,326.762 C159.19,333.999 143.459,340.478 128.424,348.296 C105.24,360.352 81.1806,370.389 57.1566,380.499 C50.2216,383.418 42.4496,384.764 34.9196,385.75 C25.7766,386.948 17.4556,383.604 10.0316,378.368 C5.7256,375.332 3.3446,370.611 2.4436,365.682 C0.3406,354.156 -1.0644,342.576 1.0416,330.764 C2.5676,322.208 6.6926,315.867 13.5796,310.678 C27.3916,300.269 42.1916,291.505 57.1096,282.83 C80.5006,269.226 103.478,254.911 126.877,241.324 C147.99,229.064 169.405,217.322 190.746,205.459 C205.808,197.087 221.024,188.997 236.066,180.591 C249.742,172.95 264.855,169.998 279.992,168.059 C285.342,167.373 291.297,171.02 296.898,172.916 C298.668,173.516 300.166,174.893 301.828,175.842 C310.977,181.068 316.333,188.886 317.618,199.334 C318.636,207.604 319.769,215.765 318.356,224.266 C316.013,238.372 308.786,248.937 297.752,257.529 C284.157,268.115 268.431,274.512 252.802,281.166 C245.099,284.446 237.337,287.619 229.818,291.284 C225.359,293.457 220.976,296.128 218.714,301.633 C222.54,306.157 226.312,310.75 230.228,315.218 C240.945,327.443 251.875,339.486 262.441,351.84 C277.686,369.665 292.476,387.883 307.858,405.588 C319.465,418.948 331.696,431.766 343.846,445.04 C353.983,441.552 363.884,438.11 373.811,434.747 C378.34,433.211 382.846,431.476 387.5,430.468 C393.764,429.111 398.192,425.596 401.732,420.494 C413.88,402.992 426.089,385.533 438.258,368.045 C438.516,367.673 438.565,367.157 438.972,365.916 C435.912,366.56 433.246,367.142 430.572,367.681 C406.558,372.523 383.58,380.751 360.554,388.878 C350.625,392.383 340.519,395.449 329.705,394.678 C313.505,393.524 305.561,385.827 305.019,370.675 C304.773,363.805 304.799,356.906 305.131,350.041 C305.45,343.456 309.147,338.988 315.122,336.313 C320.359,333.969 325.456,331.272 330.798,329.208 C366.28,315.496 401.813,301.915 437.323,288.275 C438.807,287.705 440.227,286.972 441.473,286.408 L441.473,286.408 Z" id="Fill-1" fill="#000000"></path>
            <path d="M117.155,285.466 C124.313,283.146 124.339,283.1 122.705,275.66 C116.255,278.354 116.255,278.354 117.155,285.466 L117.155,285.466 Z M111.306,282.358 C107.522,284.872 102.713,285.996 102.643,291.989 C111.412,290.743 112.374,289.685 111.306,282.358 L111.306,282.358 Z M440.839,504.5042 C441.55,504.4162 442.259,504.3292 442.969,504.2412 C443.876,502.1152 445.327,500.0322 445.5,497.8492 C445.62,496.3232 444.362,493.9602 443.037,493.2542 C441.724,492.5552 439.017,492.8682 437.923,493.8512 C436.949,494.7252 436.78,497.3142 437.276,498.8062 C437.963,500.8722 439.605,502.6202 440.839,504.5042 L440.839,504.5042 Z M426.872,506.4812 C431.663,499.6912 432.577,496.0992 429.954,494.4112 C427.181,492.6262 424.207,492.7552 421.067,496.1682 C422.924,499.4662 424.774,502.7542 426.872,506.4812 L426.872,506.4812 Z M181.496,250.584 C190.696,247.654 191.309,246.532 189.469,236.38 C186.669,237.782 184.011,239.112 181.496,240.371 L181.496,250.584 Z M131.551,278.071 C142.8,273.356 143.314,272.596 141.279,264.22 C131.493,268.447 129.714,269.746 131.551,278.071 L131.551,278.071 Z M197.918,232.235 L197.918,242.032 C204.148,238.271 209.733,234.9 215.284,231.549 L215.284,222.457 C209.069,225.956 203.567,229.053 197.918,232.235 L197.918,232.235 Z M172.06,245.717 C165.396,249.629 159.513,253.072 153.64,256.532 C147.33,260.251 147.334,260.258 149.231,269.281 C155.038,266.231 160.514,262.946 166.323,260.425 C171.541,258.16 173.517,254.693 172.549,249.27 C172.424,248.572 172.352,247.864 172.06,245.717 L172.06,245.717 Z M523.945,501.3792 C488.29,506.3022 453.013,505.6292 417.817,506.4012 C416.178,502.7652 421.01,498.9432 416.605,496.7742 C415.192,496.0782 412.511,496.1472 411.362,497.0612 C407.952,499.7762 412.346,502.5542 412.073,506.2212 C408.367,505.9792 404.901,505.7532 402.655,505.6072 C400.085,503.1292 398.578,500.6582 396.567,500.1382 C395.447,499.8492 393.488,502.8092 392.518,505.5242 C377.698,505.5242 362.867,505.1582 348.062,505.6282 C333.62,506.0862 319.205,507.3972 304.778,508.3332 C304.658,508.8722 304.538,509.4112 304.418,509.9502 C307.357,511.2262 310.242,512.6572 313.248,513.7512 C325.16,518.0892 337.05,522.5012 349.062,526.5442 C362.288,530.9962 376.111,532.4732 389.878,534.2842 C401.696,535.8392 413.203,532.9352 424.876,532.6772 C429.162,532.5832 433.455,532.6722 437.742,532.7782 C459.825,533.3282 481.649,530.1862 503.57,528.3432 C514.019,527.4652 524.529,527.3182 535.097,527.9382 C529.965,528.5672 524.842,529.3122 519.696,529.8012 C504.708,531.2252 489.72,532.6992 474.711,533.8572 C463.74,534.7042 452.733,535.0732 441.743,535.6732 C432.434,536.1802 423.062,536.1992 413.835,537.3562 C400.195,539.0662 386.603,538.4702 372.963,538.1192 C367.483,537.9782 361.985,538.7212 356.491,538.9132 C354.137,538.9962 351.611,539.1932 349.437,538.4912 C338.074,534.8262 326.822,530.8212 315.487,527.0652 C303.916,523.2302 292.28,519.5892 280.701,515.7752 C276.573,514.4152 271.304,514.5442 270.551,508.4022 C269.859,502.7582 271.036,498.1782 276.165,494.7212 C284.88,488.8472 293.311,482.5502 301.429,476.7402 C305.304,477.8932 308.32,478.7902 311.969,479.8762 C312.935,474.0172 311.277,469.8812 308.521,466.2352 C302.614,458.4182 296.591,450.6842 290.422,443.071 C267.681,415.009 245.032,386.869 221.99,359.056 C212.995,348.197 203.258,337.923 193.44,327.788 C189.156,323.365 183.961,319.765 178.92,316.154 C174.747,313.163 170.012,311.588 164.224,313.346 C164.685,314.795 165.142,316.233 165.794,318.279 C161.509,320.273 156.826,322.522 152.089,324.648 C122.183,338.068 92.2728,351.475 62.3428,364.839 C59.7368,366.002 57.0228,366.978 54.2798,367.768 C45.9288,370.176 40.7048,367.036 39.3838,358.415 C38.3738,351.811 37.7358,345.121 37.4308,338.446 C37.1028,331.269 37.4398,324.064 37.3308,316.874 C37.2368,310.661 39.2128,306.078 46.2328,304.789 C48.1188,313.406 41.7758,322.81 47.9248,331.203 C51.1968,330.134 50.6238,327.717 50.7468,325.69 C51.1338,319.253 51.5508,312.815 51.7518,306.371 C51.8758,302.394 53.5598,300.053 57.1238,297.991 C87.7978,280.243 118.367,262.314 148.894,244.314 C172.202,230.57 195.401,216.641 218.654,202.804 C219.859,202.087 221.118,201.46 223.346,200.252 C221.88,209.733 219.445,218.73 223.157,226.843 C226.659,234.498 227.053,243.557 233.895,249.814 C240.426,255.787 246.409,262.351 255.974,266.106 C253.618,267.251 252.106,268.063 250.537,268.737 C238.896,273.74 227.196,278.606 215.625,283.763 C211.896,285.425 208.752,287.977 207.235,292.165 C205.686,296.441 206.519,300.068 209.258,303.52 C211.321,306.121 213.472,308.7 215.169,311.538 C225.794,329.312 239.276,344.826 252.756,360.429 C267.77,377.811 282.058,395.824 296.539,413.663 C306.342,425.742 315.862,438.051 325.646,450.1452 C329.911,455.4172 335.072,459.7262 341.501,462.1812 C344.328,463.2612 347.281,464.7792 350.666,462.4442 C350.754,461.4672 350.926,460.3202 350.94,459.1712 C350.955,457.9972 350.815,456.8212 350.701,454.9752 C353.128,454.0242 355.479,453.0062 357.895,452.1732 C370.349,447.88 382.802,443.582 395.296,439.404 C399.05,438.148 401.605,436.003 404.107,432.739 C414.733,418.883 426.305,405.742 436.736,391.747 C444.301,381.598 452.639,372.912 464.134,367.198 C472.471,363.053 480.223,357.742 488.444,353.336 C490.654,352.153 493.619,352.38 497.174,351.809 C500.118,345.799 506.986,343.245 513.341,340.03 C522.523,335.383 531.667,330.648 540.969,326.252 C551.594,321.23 563.192,318.311 571.754,320.61 C573.299,324.548 572.748,328.18 569.984,331.729 C563.368,340.226 556.896,348.836 550.361,357.397 C549.78,358.158 549.142,358.876 548.56,359.637 C540.808,369.782 540.61,372.569 547.098,383.9 C527.859,391.117 518.384,405.085 519.115,426.008 C493.167,431.861 467.398,437.674 441.629,443.487 C441.732,444.016 441.837,444.546 441.941,445.076 C469.025,443.681 495.634,439.035 522.742,432.108 C524.982,442.043 523.757,451.7822 525.452,462.0482 C520.171,462.9802 515.577,463.9862 510.929,464.5762 C491.413,467.0562 472.564,472.3222 453.656,477.5452 C441.699,480.8472 429.309,482.5492 417.198,485.3322 C407.721,487.5102 398.373,490.2462 388.967,492.7352 C389.08,493.4202 389.191,494.1052 389.302,494.7912 C394.257,494.3972 399.227,494.1482 404.159,493.5712 C409.383,492.9602 414.551,491.8422 419.779,491.3062 C425.009,490.7712 430.284,490.6912 435.539,490.3932 C440.747,490.0982 445.955,489.7802 451.637,489.4452 C451.971,494.9382 450.429,500.7632 456.651,503.4882 C461.708,499.6522 459.928,494.8052 459.111,489.8162 C460.549,489.5402 461.848,489.2912 463.618,488.9512 C464.204,491.2762 464.408,493.4082 465.29,495.2072 C466.163,496.9862 467.72,498.4292 469.119,500.1982 C473.668,496.8092 473.348,492.7832 472.886,488.3612 C474.701,488.0842 476.527,487.8062 478.344,487.5292 C480.503,491.3992 480.663,496.2292 485.296,498.3302 C488.776,495.0562 489.711,491.4202 488.201,486.7062 C490.219,486.2592 491.995,485.8642 493.936,485.4332 C495.885,489.2182 495.964,494.1902 501.185,495.5592 C504.336,492.2322 505.608,488.6572 504.215,484.0022 C507.613,483.0302 510.779,482.1242 514.218,481.1402 C517.379,487.7162 520.516,494.2432 523.945,501.3792 L523.945,501.3792 Z" id="Fill-2" fill="#FFFFFF"></path>
            <path d="M890.037,33.316 C886.472,33.723 883.657,33.951 880.877,34.393 C878.914,34.705 877.078,35.396 877.296,37.984 C877.51,40.534 879.018,41.931 881.459,42.093 C884.002,42.262 886.564,42.131 889.085,42.131 C889.415,39.081 889.668,36.731 890.037,33.316 L890.037,33.316 Z M732.526,46.732 C735.522,46.49 737.817,46.306 740.227,46.112 L740.227,33.769 C737.347,34.3 735.07,34.719 732.526,35.188 L732.526,46.732 Z M726.809,46.469 C726.608,43.149 726.402,39.755 726.182,36.11 C722.058,36.33 717.909,35.703 716.404,39.679 C715.643,41.691 716.298,45.337 717.758,46.835 C720.009,49.144 723.4,48.238 726.809,46.469 L726.809,46.469 Z M608.439,57.426 C602.893,52.772 598.327,56.246 593.869,58.698 C592.746,59.316 591.507,61.635 591.866,62.59 C592.415,64.046 594.161,65.727 595.66,66.034 C602.754,67.485 605.486,65.584 608.439,57.426 L608.439,57.426 Z M896.269,33.645 C896.548,37.355 896.773,40.359 896.991,43.264 C902.634,43.935 907.56,44.521 913.155,45.186 C913.386,41.183 913.584,37.747 913.82,33.645 L896.269,33.645 Z M771.182,44.259 C776.632,43.843 780.824,43.524 785.288,43.183 C785.727,39.298 786.114,35.886 786.531,32.194 L769.216,32.194 C769.928,36.56 770.522,40.211 771.182,44.259 L771.182,44.259 Z M920.244,34.339 L920.244,46.308 C925.401,46.564 929.979,46.792 934.888,47.036 L934.888,35.294 C929.787,34.961 925.118,34.657 920.244,34.339 L920.244,34.339 Z M573.201,72.44 C578.122,71.758 583.037,71.172 585.671,65.906 C587.779,61.692 586.282,58.612 581.507,59.143 C577.653,59.572 573.904,61.371 570.237,62.874 C568.184,63.715 566.814,65.278 567.741,67.956 C568.67,70.642 569.885,72.714 573.201,72.44 L573.201,72.44 Z M763.307,44.394 L763.307,31.892 C757.189,32.358 751.658,32.778 745.746,33.228 L745.746,45.605 C751.864,45.183 757.637,44.785 763.307,44.394 L763.307,44.394 Z M969.656,51.738 C974.43,52.721 978.563,53.736 982.755,54.358 C984.539,54.624 986.828,54.648 988.2,53.741 C989.979,52.566 992.185,50.319 992.137,48.592 C992.09,46.963 989.598,44.465 987.764,44.001 C982.153,42.578 976.341,41.95 970.28,40.96 C970.054,44.872 969.877,47.926 969.656,51.738 L969.656,51.738 Z M963.741,50.932 C964.306,48.194 965.19,46.083 965.01,44.067 C964.871,42.53 963.601,40.056 962.458,39.819 C955.603,38.403 948.639,37.514 941.198,36.369 L941.198,48.112 C948.628,49.042 955.843,49.944 963.741,50.932 L963.741,50.932 Z M403.069,141.524 C400.062,137.932 396.916,137.896 394.094,139.505 C386.646,143.753 379.47,148.461 374.627,155.828 C373.07,158.196 371.57,160.755 374.076,164.545 C384.455,157.911 396.644,153.855 403.069,141.524 L403.069,141.524 Z M411.704,136.059 C421.997,131.287 432.103,126.051 441.705,119.838 C442.102,119.582 442.505,119.273 442.775,118.896 C444.366,116.673 447.386,114.56 445.291,111.524 C443.349,108.712 440.192,109.76 437.418,110.65 C437.191,110.723 436.967,110.816 436.758,110.928 C430.877,114.078 424.815,116.942 419.191,120.499 C416.034,122.496 413.369,125.441 410.922,128.332 C409.283,130.268 407.855,132.847 411.704,136.059 L411.704,136.059 Z M793.074,43.207 C805.375,42.832 817.244,42.474 829.114,42.099 C829.58,42.084 830.1,42.009 830.496,41.786 C833.244,40.231 836.166,38.431 835.977,34.93 C835.765,30.953 831.878,31.731 829.335,30.948 C828.468,30.681 827.444,30.931 826.492,30.927 C816.74,30.892 806.988,30.824 797.236,30.84 C795.474,30.843 793.712,31.183 791.951,31.368 C792.324,35.293 792.636,38.577 793.074,43.207 L793.074,43.207 Z M555.408,70.748 C553.952,70.019 552.409,68.628 550.855,68.6146627 C548.537,68.596 546.157,69.383 543.895,70.114 C525.26,76.133 506.479,81.763 488.092,88.468 C478.291,92.043 469.103,97.364 459.815,102.233 C457.566,103.412 454.219,105.088 455.948,108.805 C457.769,112.718 460.789,110.469 463.407,109.779 C464.325,109.537 465.186,109.087 466.087,108.767 C486.363,101.567 506.654,94.405 526.915,87.16 C534.335,84.506 541.688,81.663 549.067,78.894 C552.471,77.617 554.468,75.161 555.408,70.748 L555.408,70.748 Z M360.982,209.204 C357.719,197.857 354.157,187.464 355.264,176.415 C355.749,171.564 357.582,166.711 359.534,162.174 C363.126,153.829 366.914,145.507 373.209,138.709 C381.501,129.752 390.047,121.345 400.557,114.619 C440.608,88.987 484.042,70.687 528.975,56.267 C558.057,46.934 588.237,41.003 617.966,33.708 C650.778,25.655 684.1,20.393 717.667,16.95 C737.635,14.903 757.721,13.759 777.783,12.962 C797.872,12.164 818,12.002 838.107,12.113 C859.136,12.228 880.169,12.786 901.183,13.588 C909.762,13.916 918.276,15.658 926.853,16.292 C944.519,17.596 962.104,19.449 979.355,23.572 C1003.82,29.419 1027.86,36.648 1051.09,46.376 C1055.72,48.313 1060.24,50.533 1064.68,52.866 C1077.87,59.795 1085.7,70.98 1091.07,84.673 C1098.56,103.766 1094.1,121.223 1085.73,138.565 C1073.94,162.997 1055.77,181.28 1033.27,196.207 C1015.99,207.671 997.85,216.789 978.678,224.552 C943.835,238.662 909.031,252.899 872.657,262.502 C847.934,269.028 822.737,273.758 797.737,279.225 C795.455,279.724 793.066,279.735 790.347,278.741 C796.68,276.611 802.931,274.182 809.362,272.416 C822.97,268.678 836.737,265.519 850.316,261.69 C864.584,257.666 878.76,253.297 892.883,248.789 C913.15,242.319 933.491,236.023 953.505,228.828 C969.47,223.089 984.857,215.758 1000.74,209.78 C1021.77,201.869 1039.19,188.563 1056.06,174.316 C1057.69,172.942 1059.3,171.363 1060.38,169.56 C1065.81,160.558 1071.49,151.672 1076.23,142.313 C1080.42,134.053 1078.84,125.153 1077.36,116.301 C1076.15,109.1 1072.43,104.017 1066.62,100.276 C1059.83,95.904 1053.3,91.233 1045.37,88.64 C1033.56,84.778 1022.21,79.529 1010.43,75.539 C989.266,68.365 967.261,64.905 945.133,62.49 C915.145,59.217 885.038,57.317 854.869,58.184 C824.988,59.042 795.078,59.308 765.265,62.128 C748.85,63.68 732.339,64.187 715.883,65.329 C685.058,67.469 654.526,71.661 624.359,78.452 C606.387,82.499 588.216,85.75 570.394,90.364 C551.199,95.335 532.539,102.504 513.228,106.866 C485.622,113.102 460.791,125.952 435.258,137.143 C425.226,141.54 415.727,147.336 406.451,153.229 C390.596,163.3 378.915,177.634 368.564,193.002 C365.475,197.59 363.775,203.115 360.982,209.204 L360.982,209.204 Z" id="Fill-3" fill="#FFFFFF"></path>
            <path d="M397.378,327.878 C390.302,325.949 389.909,326.099 385.783,331.795 C386.511,335.247 388.677,336.185 392.027,335.706 C396.61,335.051 396.241,331.397 397.378,327.878 M404.429,324.561 C406.958,329.474 407.599,329.754 412.603,328.281 C416.798,327.046 417.284,326.135 416.838,319.982 C411.641,318.713 407.889,321.191 404.429,324.561 M379.6,336.305 C379.645,334.186 378.181,332.845 375.913,332.928 C372.195,333.063 366.882,336.799 367.319,339.187 C367.778,341.689 369.136,343.631 372.098,343.648092 C375.855,343.669 379.521,340.08 379.6,336.305 M349.391,334.803 C350.921,340.664 346.868,347.667 353,353.057 C357.372,350.036 355.07,345.987 355.226,342.538 C355.387,338.963 355.262,335.376 355.262,331.103 C367.382,326.386 379.357,321.628 391.405,317.059 C413.325,308.746 435.276,300.515 457.252,292.351 C459.182,291.633 461.507,291.063 463.443,291.45 C469.694,292.701 475.85,294.431 482.816,296.17 C481.497,299.285 480.735,301.767 479.47,303.958 C472.524,315.981 465.408,327.906 458.456,339.925 C456.573,343.178 454.175,345.382 450.506,346.637 C417.923,357.781 385.399,369.096 352.828,380.274 C346.544,382.432 344.525,381.561 343.197,375.079 C341.621,367.388 340.952,359.51 339.9,351.711 C339.74,350.525 339.662,349.328 339.5,348.143 C338.227,338.832 339.756,336.763 349.391,334.803" id="Fill-4" fill="#FFFFFF"></path>
            <path d="M297.019,234.976 C298.78,231.808 300.069,230.295 300.454,228.579 C300.877,226.686 300.161,224.63 297.695,224.588 C295.3,224.547 293.389,225.951 293.66,228.416 C293.847,230.129 295.275,231.706 297.019,234.976 M273.972,205.968 C275.753,201.151 275.527,199.134 273.115,198.218 C270.532,197.238 267.117,199.037 264.83,202.624 C266.977,206.194 270.3,206.552 273.972,205.968 M267.413,187.702 C268.643,191.924 272.053,191.94 274.925,192.427 C276.001,192.61 277.917,191.747 278.336,190.843 C278.797,189.851 278.351,187.995 277.636,186.986 C275.656,184.192 272.713,184.432 267.413,187.702 M278.455,210.954 C277.72,210.707 276.985,210.461 276.249,210.215 C274.179,212.019 271.866,213.617 270.102,215.684 C268.134,217.989 269.332,220.566 272.386,220.4 C274.538,220.284 277.59,219.478 278.479,217.953 C279.492,216.215 278.548,213.336 278.455,210.954 M287.163,220.75 C281.941,221.968 280.897,222.556 280.135,225.825 C279.809,227.222 279.985,229.756 280.773,230.168 C282.145,230.886 284.427,230.915 285.866,230.243 C289.049,228.754 289.222,226.624 287.163,220.75 M271.462,180.244 C277.004,181.43 282.643,182.287 288.066,183.878 C296.439,186.335 301.891,192.499 304.905,200.267 C310.564,214.851 309.98,228.66 298.434,240.825 C292.612,246.958 286.662,252.76 278.769,256.016 C276.013,257.153 272.786,258.204 269.941,257.871 C261.81,256.919 253.959,254.601 247.801,248.798 C243.304,244.561 238.614,240.336 235.014,235.376 C225.053,221.65 229.326,204.074 235.661,193.438 C236.465,192.088 237.922,190.942 239.331,190.165 C249.266,184.69 259.549,180.336 271.462,180.244" id="Fill-5" fill="#FFFFFF"></path>
            <path d="M594.458,502.8652 C592.068,512.8372 590.86,513.8862 581.728,514.0882 C573.882,514.2622 566.024,514.7352 558.193,514.4692 C552.572,514.2782 547.665,511.5762 543.274,507.8732 C544.992,505.7142 546.94,503.7192 548.309,501.3862 C549.211,499.8462 550.125,497.5052 549.588,496.0602 C545.661,485.5092 543.368,474.4092 537.303,464.5302 C534.648,460.2062 534.817,454.0162 534.195,448.617 C533.649,443.884 533.785,439.071 533.629,434.292 C533.543,431.669 533.608,429.173 530.931,427.336 C529.893,426.624 529.253,424.413 529.433,423.012 C529.974,418.781 530.172,414.195 532.02,410.506 C535.889,402.784 541.163,396.047 548.99,391.576 C553.67,388.904 558.151,387.908 563.274,389.888 C566.327,391.068 569.524,391.873 573.858,393.219 C564.61,399.381 558.49,406.582 554.729,415.591 C543.291,442.976 546.26,468.3202 565.766,491.1962 C572.174,498.7122 580.283,502.6912 590.281,502.5632 C591.654,502.5452 593.03,502.7562 594.458,502.8652" id="Fill-6" fill="#FFFFFF"></path>
            <path d="M765.079,187.202 C763.433,194.011 763.433,193.737 759.041,193.739 C740.874,193.749 722.692,193.539 704.544,194.195 C690.964,194.686 677.293,195.557 663.907,197.753 C648.141,200.339 632.488,203.995 617.085,208.264 C609.38,210.399 602.201,214.668 595.047,218.465 C590.432,220.915 585.783,223.964 588.741,231.216 C582.623,227.253 581.229,223.137 584.781,218.534 C587.334,215.224 590.806,212.374 594.383,210.147 C609.042,201.023 625.602,197.035 642.2,193.373 C662.544,188.886 683.217,186.419 703.986,185.583 C721.882,184.863 739.83,185.385 757.754,185.538 C760.199,185.559 762.636,186.621 765.079,187.202" id="Fill-7" fill="#FF499E"></path>
            <path d="M38.0542,373.966 C25.9342,379.087 13.1322,371.446 11.8842,358.456 C11.2682,352.04 10.6572,345.624 10.0092,339.212 C9.3572,332.743 11.8542,327.548 16.3232,323.072 C20.6692,318.717 24.8852,314.203 32.1162,312.51 C32.1162,323.327 31.9472,333.557 32.1792,343.777 C32.3152,349.735 32.6892,355.749 33.7192,361.604 C34.4362,365.684 36.4492,369.537 38.0542,373.966" id="Fill-8" fill="#FFFFFF"></path>
            <path d="M705.458,264.801 C707.064,261.854 708.894,259.239 712.558,258.545 C728.062,255.613 743.386,255.042 758.279,261.477 C753.884,277.939 739.431,282.981 728.837,279.639 C720.598,277.041 712.704,273.524 706.664,266.964 C706.117,266.37 705.974,265.405 705.643,264.613 L705.458,264.801 Z" id="Fill-9" fill="#FF499E"></path>
            <path d="M338.746,384.1 C316.852,385.852 318.575,383.557 315.443,366.537 C314.844,363.278 314.986,359.858 315.008,356.514 C315.053,349.205 316.725,346.775 323.484,344.108 C326.123,343.067 328.859,342.273 331.942,341.234 C335.207,355.418 332.065,370.17 338.746,384.1" id="Fill-10" fill="#FFFFFF"></path>
            <path d="M614.502,436.903 C619.164,434.581 623.573,432.386 628.485,429.939 C630.351,443.584 628.501,455.8688 622.324,467.2518 C618.841,473.6708 612.548,476.8728 605.66,478.6748 C602.537,479.4918 599.597,478.6958 596.654,476.3748 C610.933,466.7558 615.955,453.1938 614.502,436.903" id="Fill-11" fill="#FFFFFF"></path>
            <path d="M432.31,266.932 C417.842,263.773 404.063,258.745 392.761,248.564 C386.367,242.803 380.126,237.036 375.202,229.771 C369.694,221.646 369.815,213.616 373.75,205.382 C376.214,200.228 379.109,195.131 382.646,190.672 C391.131,179.972 400.497,170.054 411.655,162.013 C412.68,161.274 413.852,160.739 415.486,159.807 C408.355,167.487 401.904,174.716 395.139,181.639 C388.488,188.444 384.072,196.673 380.002,205.035 C374.579,216.182 377.629,226.362 387.781,236.237 C398.999,247.152 410.772,257.129 425.506,263.067 C427.905,264.033 430.049,265.628 432.31,266.932" id="Fill-12" fill="#FFFFFF"></path>
            <path d="M603.138,490.0224 C597.286,495.5744 592.302,496.9524 586.189,494.6554 C580.699,492.5924 575.95,489.8634 572.242,485.1044 C565.882,476.9394 559.172,468.8214 557.86,458.2444 C555.553,439.658 556.05,421.392 568.928,405.94 C572.659,401.463 577.289,398.061 582.923,396.287 C585.937,395.339 585.975,395.458 588.923,399.752 C586.562,400.921 584.23,402.045 581.924,403.223 C573.899,407.322 568.305,413.486 565.306,422.1 C561.978,431.659 559.918,441.441 560.107,451.5474 C560.402,467.3764 574.207,489.7084 597.529,489.6144 C598.868,489.6084 600.21,489.8024 603.138,490.0224" id="Fill-13" fill="#FFFFFF"></path>
            <path d="M705.642,264.613 C704.164,265.667 702.688,266.721 700.931,267.974 C697.376,266.997 695.428,264.585 695.165,260.401 C694.874,255.752 697.434,253.354 701.12,251.6 C713.961,245.489 727.578,243.478 741.607,244.694 C747.747,245.227 753.866,246.593 759.844,248.155 C762.454,248.837 764.993,250.627 767.027,252.498 C771.454,256.571 771.236,257.91 766.143,263.152 C763.248,260.91 760.54,258.234 757.337,256.441 C747.131,250.723 735.92,250.304 724.6,251.073 C721.272,251.3 717.852,251.526 714.69,252.472 C711.577,253.405 708.458,254.872 705.85,256.794 C702.903,258.966 702.753,262.003 705.439,264.821 C705.457,264.801 705.642,264.613 705.642,264.613" id="Fill-14" fill="#FFFFFF"></path>
            <path d="M585.831,409.971 C577.747,420.13 573.61,431.553 572.446,444.33 C571.232,457.6567 576.834,468.3327 586.164,479.4857 C583.557,478.6237 582.601,478.5417 581.943,478.0557 C572.197,470.8527 565.733,461.4417 565.982,449.113 C566.139,441.354 567.956,433.523 569.87,425.936 C571.933,417.763 577.941,412.769 585.831,409.971" id="Fill-15" fill="#FFFFFF"></path>
            <path d="M688.259,294.252 C683.78,295.556 679.381,297.417 674.81,298.069 C654.465,300.97 633.988,301.819 613.45,301.135 C612.378,301.099 611.312,300.88 610.255,300.057 C636.018,297.515 661.781,294.973 687.544,292.431 L688.259,294.252 Z" id="Fill-16" fill="#FFFFFF"></path>
            <path d="M809.033,199.338 C799.425,197.538 789.939,197.381 779.907,192.662 C782.547,190.813 783.666,189.519 785.033,189.156 C793.268,186.967 801.189,189.146 808.871,191.744 C813.138,193.187 810.782,196.179 809.033,199.338" id="Fill-17" fill="#FF499E"></path>
            <path d="M914.948,95.726 C912.288,97.64 909.701,99.672 906.93,101.411 C905.83,102.101 904.278,102.548 903.006,102.411 C897.419,101.809 891.859,100.955 885.518,100.085 C889.397,94.716 893.358,91.478 899.824,92.535 C904.666,93.326 909.567,93.755 914.441,94.346 C914.61,94.806 914.779,95.266 914.948,95.726" id="Fill-18" fill="#FFFFFF"></path>
            <path d="M509.081,202.006 C510.119,205.213 509.355,207.691 506.937,209.227 C501.536,212.655 495.969,215.821 490.915,218.829 C487.583,217.338 486.847,215.147 488.472,213.271 C493.016,208.021 498.11,203.298 505.127,201.538 C506.362,201.228 507.828,201.836 509.081,202.006" id="Fill-19" fill="#FF499E"></path>
            <path d="M544.648,183.884 C545.439,187.43 544.465,190.173 541.513,191.315 C536.424,193.285 531.146,194.803 525.869,196.218 C524.904,196.477 523.227,195.618 522.529,194.752 C522.127,194.254 522.712,192.073 523.398,191.726 C529.297,188.741 535.289,185.93 541.342,183.273 C542.188,182.902 543.525,183.651 544.648,183.884" id="Fill-20" fill="#FFFFFF"></path>
            <path d="M592.453,438.034 C596.673,435.721 600.556,433.594 604.659,431.345 C608.07,436.285 607.105,441.084 606.574,446.082 C602.339,445.604 598.39,445.158 593.611,444.617 C593.281,442.739 592.899,440.568 592.453,438.034" id="Fill-21" fill="#FF499E"></path>
            <path d="M875.475,91.131 C870.835,97.354 865.741,99.288 859.325,98.217 C856.139,97.686 852.876,97.619 848.776,97.267 C851.902,93.006 854.863,90.777 859.625,91.065 C864.572,91.363 869.551,91.131 875.475,91.131" id="Fill-22" fill="#FFFFFF"></path>
            <path d="M584.708,428.783 C588.581,416.981 594.945,414.887 601.184,424.236 C593.385,432.16 590.632,432.979 584.708,428.783" id="Fill-23" fill="#FF499E"></path>
            <path d="M944.98,100.292 C934.087,107.889 933.639,107.991 924.393,105.235 C930.075,96.94 934.019,95.936 944.98,100.292" id="Fill-24" fill="#FFFFFF"></path>
            <path d="M478.193,224.953 C477.172,233.588 468.819,234.888 465.989,241.223 C462.078,237.921 463.929,235.213 465.53,233.188 C468.561,229.352 470.754,223.898 478.193,224.953" id="Fill-25" fill="#FFFFFF"></path>
            <path d="M834.967,206.26 C831.212,204.613 827.888,203.366 824.807,201.675 C823.863,201.156 823.164,199.415 823.169962,198.238 C823.174,197.568 824.774,196.459 825.755,196.335 C827.847,196.071 830.074,195.986 832.12,196.421 C838.053,197.679 838.848,200.388 834.967,206.26" id="Fill-26" fill="#FFFFFF"></path>
            <path d="M605.331,453.7114 C604.144,456.4914 603.152,458.8114 601.744,462.1054 C597.934,459.1894 594.681,456.7004 591.441,454.2214 C594.348,449.9194 594.738,449.9044 605.331,453.7114" id="Fill-27" fill="#FF499E"></path>
            <path d="M813.189,97.668 C819.797,92.411 827.854,93.556 836.646,92.266 C829.533,100.592 820.738,96.219 813.189,97.668" id="Fill-28" fill="#FFFFFF"></path>
            <path d="M582.392,454.0024 C580.431,447.354 580.98,441.721 583.2,435.978 C588.917,442.492 588.842,448.945 582.392,454.0024" id="Fill-29" fill="#FF499E"></path>
            <path d="M966.695,105.677 C959.75,107.524 955.507,113.491 947.461,110.761 C953.083,106.167 957.555,100.892 966.695,105.677" id="Fill-30" fill="#FFFFFF"></path>
            <path d="M596.801,467.6088 C595.17,468.5438 593.539,469.4788 591.23,470.8028 C588.823,467.2748 586.488,463.8498 583.691,459.7458 C590.944,458.3058 592.321,465.1248 597.048,466.0198 C596.966,466.5488 596.884,467.0788 596.801,467.6088" id="Fill-31" fill="#FF499E"></path>
            <path d="M1059.52,143.086 C1062.02,148.583 1058.46,150.843 1054.54,154.169 C1053.61,151.241 1052.88,148.964 1052.02,146.279 C1054.8,145.095 1057.14,144.098 1059.52,143.086" id="Fill-32" fill="#FFFFFF"></path>
            <path d="M1034.9,124.875 C1032.67,123.67 1030.48,122.488 1027.87,121.074 C1029.05,120.022 1029.64,119.305 1030.39,118.877 C1032.55,117.644 1035,115.073 1037.29,117.453 C1040.04,120.323 1036.92,122.383 1034.9,124.875" id="Fill-33" fill="#FFFFFF"></path>
            <path d="M1047.13,137.357 C1045.38,134.935 1044.15,133.231 1042.39,130.779 C1045.06,129.334 1047.48,128.031 1050.23,126.544 C1052.15,131.451 1049.81,133.996 1047.13,137.357" id="Fill-34" fill="#FFFFFF"></path>
            <path d="M1020.5,116.952 C1017.76,116.083 1015.82,115.467 1013.24,114.648 C1016.19,111.035 1018.77,108.399 1024.29,110.91 C1023,112.962 1021.88,114.754 1020.5,116.952" id="Fill-35" fill="#FFFFFF"></path>
            <path d="M417.457,157.643 L424.679,152.824 C422.948,155.531 421.113,158.091 417.457,157.643" id="Fill-36" fill="#FFFFFF"></path>
            <path d="M172.06,245.717 C172.352,247.864 172.423,248.572 172.548,249.27 C173.517,254.693 171.54,258.16 166.323,260.425 C160.514,262.946 155.038,266.231 149.231,269.281 C147.333,260.258 147.33,260.251 153.64,256.532 C159.513,253.072 165.396,249.629 172.06,245.717" id="Fill-37" fill="#000000"></path>
            <path d="M197.918,232.235 C203.567,229.053 209.069,225.956 215.284,222.457 L215.284,231.549 C209.733,234.9 204.148,238.271 197.918,242.032 L197.918,232.235 Z" id="Fill-38" fill="#000000"></path>
            <path d="M131.551,278.071 C129.713,269.746 131.492,268.447 141.279,264.22 C143.314,272.596 142.799,273.356 131.551,278.071" id="Fill-39" fill="#000000"></path>
            <path d="M181.496,250.584 L181.496,240.371 C184.012,239.112 186.669,237.782 189.47,236.379 C191.309,246.532 190.696,247.654 181.496,250.584" id="Fill-40" fill="#000000"></path>
            <path d="M426.872,506.4814 C424.774,502.7544 422.924,499.4664 421.067,496.1684 C424.207,492.7554 427.182,492.6264 429.954,494.4114 C432.577,496.0994 431.663,499.6904 426.872,506.4814" id="Fill-41" fill="#000000"></path>
            <path d="M440.838,504.5044 C439.605,502.6204 437.962,500.8724 437.275,498.8064 C436.779,497.3144 436.948,494.7254 437.922,493.8514 C439.017,492.8684 441.724,492.5554 443.036,493.2544 C444.361,493.9604 445.619,496.3234 445.499,497.8494 C445.326,500.0324 443.875,502.1154 442.969,504.2414 C442.259,504.3294 441.549,504.4164 440.838,504.5044" id="Fill-42" fill="#000000"></path>
            <path d="M111.306,282.358 C112.373,289.685 111.411,290.743 102.643,291.989 C102.712,285.996 107.522,284.872 111.306,282.358" id="Fill-43" fill="#000000"></path>
            <path d="M117.155,285.466 C116.255,278.354 116.255,278.354 122.705,275.66 C124.339,283.1 124.313,283.146 117.155,285.466" id="Fill-44" fill="#000000"></path>
            <path d="M555.408,70.747 C554.468,75.16 552.47,77.617 549.067,78.893 C541.688,81.662 534.335,84.505 526.915,87.159 C506.654,94.405 486.363,101.567 466.087,108.767 C465.186,109.086 464.325,109.536 463.407,109.778 C460.789,110.469 457.769,112.717 455.948,108.804 C454.219,105.087 457.566,103.412 459.815,102.232 C469.103,97.364 478.291,92.042 488.092,88.468 C506.479,81.762 525.26,76.132 543.895,70.113 C546.157,69.383 548.537,68.595 550.855,68.6136631 C552.409,68.627 553.952,70.018 555.408,70.747" id="Fill-45" fill="#000000"></path>
            <path d="M793.074,43.206 C792.636,38.576 792.324,35.292 791.951,31.367 C793.712,31.183 795.473,30.842 797.236,30.839 C806.988,30.824 816.74,30.891 826.492,30.927 C827.444,30.931 828.468,30.68 829.335,30.947 C831.878,31.73 835.764,30.952 835.977,34.93 C836.166,38.431 833.244,40.23 830.496,41.785 C830.1,42.009 829.58,42.083 829.114,42.098 C817.244,42.473 805.375,42.831 793.074,43.206" id="Fill-46" fill="#000000"></path>
            <path d="M411.704,136.058 C407.855,132.846 409.283,130.267 410.922,128.331 C413.369,125.441 416.034,122.495 419.191,120.498 C424.815,116.942 430.877,114.078 436.758,110.927 C436.967,110.815 437.191,110.723 437.418,110.65 C440.192,109.76 443.349,108.712 445.291,111.524 C447.386,114.559 444.366,116.672 442.775,118.895 C442.505,119.272 442.101,119.581 441.705,119.838 C432.103,126.05 421.997,131.286 411.704,136.058" id="Fill-47" fill="#000000"></path>
            <path d="M403.069,141.523 C396.644,153.855 384.455,157.91 374.076,164.544 C371.57,160.754 373.07,158.196 374.627,155.828 C379.469,148.46 386.646,143.752 394.093,139.505 C396.916,137.895 400.062,137.932 403.069,141.523" id="Fill-48" fill="#000000"></path>
            <path d="M963.741,50.932 C955.843,49.944 948.628,49.042 941.198,48.112 L941.198,36.369 C948.638,37.514 955.603,38.403 962.458,39.82 C963.601,40.056 964.871,42.531 965.01,44.067 C965.19,46.083 964.305,48.194 963.741,50.932" id="Fill-49" fill="#000000"></path>
            <path d="M969.656,51.738 C969.877,47.926 970.053,44.872 970.28,40.96 C976.341,41.95 982.153,42.578 987.763,44.001 C989.597,44.466 992.09,46.963 992.136,48.592 C992.185,50.319 989.979,52.566 988.2,53.741 C986.828,54.648 984.539,54.624 982.755,54.359 C978.563,53.736 974.429,52.721 969.656,51.738" id="Fill-50" fill="#000000"></path>
            <path d="M763.306,44.393 C757.636,44.784 751.864,45.183 745.745,45.604 L745.745,33.227 C751.658,32.778 757.189,32.357 763.306,31.892 L763.306,44.393 Z" id="Fill-51" fill="#000000"></path>
            <path d="M573.201,72.439 C569.885,72.713 568.67,70.641 567.741,67.955 C566.814,65.277 568.184,63.714 570.237,62.874 C573.904,61.371 577.653,59.571 581.507,59.143 C586.282,58.611 587.779,61.691 585.671,65.906 C583.037,71.171 578.122,71.757 573.201,72.439" id="Fill-52" fill="#000000"></path>
            <path d="M920.244,34.339 C925.118,34.657 929.787,34.961 934.888,35.294 L934.888,47.036 C929.979,46.792 925.401,46.564 920.244,46.308 L920.244,34.339 Z" id="Fill-53" fill="#000000"></path>
            <path d="M771.181,44.259 C770.522,40.21 769.927,36.56 769.215,32.194 L786.531,32.194 C786.114,35.885 785.727,39.298 785.287,43.183 C780.824,43.524 776.631,43.843 771.181,44.259" id="Fill-54" fill="#000000"></path>
            <path d="M896.269,33.645 L913.82,33.645 C913.583,37.747 913.385,41.183 913.155,45.186 C907.56,44.52 902.633,43.935 896.991,43.264 C896.773,40.359 896.547,37.354 896.269,33.645" id="Fill-55" fill="#000000"></path>
            <path d="M608.439,57.426 C605.486,65.584 602.753,67.485 595.66,66.034 C594.161,65.727 592.415,64.046 591.866,62.59 C591.506,61.635 592.746,59.316 593.869,58.698 C598.327,56.246 602.893,52.772 608.439,57.426" id="Fill-56" fill="#000000"></path>
            <path d="M726.809,46.469 C723.4,48.239 720.008,49.144 717.757,46.835 C716.297,45.337 715.643,41.691 716.404,39.679 C717.909,35.703 722.057,36.33 726.181,36.11 C726.402,39.756 726.608,43.15 726.809,46.469" id="Fill-57" fill="#000000"></path>
            <path d="M732.526,46.731 L732.526,35.187 C735.07,34.719 737.346,34.299 740.227,33.768 L740.227,46.112 C737.817,46.306 735.522,46.49 732.526,46.731" id="Fill-58" fill="#000000"></path>
            <path d="M890.037,33.316 C889.668,36.731 889.415,39.081 889.085,42.131 C886.564,42.131 884.002,42.262 881.459,42.093 C879.018,41.931 877.51,40.534 877.296,37.984 C877.078,35.396 878.914,34.705 880.877,34.393 C883.657,33.951 886.472,33.723 890.037,33.316" id="Fill-59" fill="#000000"></path>
            <path d="M379.6,336.305 C379.521,340.08 375.855,343.669 372.098,343.648092 C369.136,343.632 367.779,341.689 367.32,339.187 C366.882,336.799 372.196,333.063 375.913,332.928 C378.181,332.846 379.645,334.186 379.6,336.305" id="Fill-60" fill="#000000"></path>
            <path d="M404.429,324.561 C407.889,321.191 411.641,318.713 416.838,319.982 C417.284,326.135 416.798,327.046 412.603,328.281 C407.599,329.754 406.958,329.474 404.429,324.561" id="Fill-61" fill="#000000"></path>
            <path d="M397.378,327.878 C396.241,331.397 396.61,335.051 392.027,335.706 C388.677,336.185 386.511,335.247 385.783,331.795 C389.909,326.099 390.302,325.949 397.378,327.878" id="Fill-62" fill="#000000"></path>
            <path d="M287.163,220.751 C289.223,226.625 289.05,228.755 285.866,230.243 C284.428,230.916 282.145,230.887 280.773,230.168 C279.985,229.756 279.809,227.223 280.136,225.826 C280.897,222.557 281.941,221.968 287.163,220.751" id="Fill-63" fill="#000000"></path>
            <path d="M278.455,210.954 C278.549,213.337 279.492,216.215 278.479,217.954 C277.591,219.478 274.538,220.284 272.387,220.401 C269.333,220.566 268.135,217.99 270.102,215.684 C271.866,213.617 274.18,212.02 276.25,210.215 C276.985,210.461 277.721,210.708 278.455,210.954" id="Fill-64" fill="#000000"></path>
            <path d="M267.413,187.702 C272.714,184.432 275.656,184.193 277.637,186.987 C278.351,187.995 278.798,189.852 278.337,190.844 C277.918,191.747 276.002,192.61 274.926,192.428 C272.054,191.94 268.643,191.924 267.413,187.702" id="Fill-65" fill="#000000"></path>
            <path d="M273.972,205.968 C270.3,206.552 266.977,206.194 264.829,202.624 C267.117,199.037 270.532,197.238 273.115,198.218 C275.527,199.134 275.753,201.152 273.972,205.968" id="Fill-66" fill="#000000"></path>
            <path d="M297.019,234.976 C295.275,231.706 293.847,230.129 293.66,228.416 C293.389,225.951 295.3,224.547 297.695,224.588 C300.161,224.63 300.877,226.686 300.454,228.579 C300.069,230.295 298.78,231.808 297.019,234.976" id="Fill-67" fill="#000000"></path>
        </g>
    </g>
</svg>