<svg width="1107" height="550" viewBox="0 0 1107 550" xmlns="http://www.w3.org/2000/svg"><g fill="none" fill-rule="evenodd"><path d="M417.457 157.643c3.656.448 5.491-2.112 7.222-4.819l-7.222 4.819zm603.043-40.691c1.38-2.198 2.5-3.99 3.79-6.042-5.52-2.511-8.1.126-11.05 3.738l7.26 2.304zm26.63 20.405c2.68-3.36 5.02-5.905 3.1-10.813-2.75 1.487-5.17 2.79-7.84 4.235 1.76 2.452 2.99 4.156 4.74 6.578zm-12.23-12.482c2.02-2.492 5.14-4.552 2.39-7.422-2.28-2.38-4.74.19-6.9 1.424-.75.428-1.33 1.145-2.52 2.197 2.61 1.414 4.8 2.596 7.03 3.801zm24.62 18.211c-2.38 1.012-4.72 2.009-7.5 3.193.86 2.685 1.58 4.962 2.52 7.89 3.92-3.326 7.48-5.587 4.98-11.083zM596.802 467.609l.247-1.59c-4.728-.895-6.105-7.713-13.358-6.273l7.539 11.057 5.572-3.194zm369.893-361.932c-9.139-4.785-13.612.49-19.234 5.085 8.046 2.73 12.289-3.238 19.234-5.085zM582.392 454.002c6.451-5.056 6.526-11.51.808-18.024-2.22 5.743-2.768 11.376-.808 18.024zM813.189 97.668c7.549-1.449 16.344 2.924 23.457-5.402-8.792 1.29-16.848.145-23.457 5.402zM605.331 453.711c-10.593-3.806-10.983-3.792-13.89.51l10.303 7.884 3.587-8.394zM834.968 206.26c3.881-5.872 3.086-8.581-2.847-9.839-2.046-.435-4.273-.35-6.365-.086-.982.124-2.581 1.233-2.585 1.903-.006 1.177.692 2.918 1.637 3.437 3.081 1.692 6.405 2.938 10.16 4.585zm-356.775 18.693c-7.439-1.055-9.632 4.399-12.663 8.235-1.6 2.024-3.452 4.733.459 8.034 2.83-6.334 11.184-7.634 12.204-16.269zM944.98 100.292c-10.961-4.356-14.905-3.351-20.587 4.943 9.247 2.756 9.695 2.654 20.587-4.943zM584.708 428.783c5.924 4.196 8.677 3.377 16.476-4.547-6.239-9.35-12.603-7.255-16.476 4.547zM875.475 91.131c-5.923 0-10.903.233-15.849-.066-4.763-.288-7.724 1.941-10.85 6.203 4.101.352 7.364.418 10.549.95 6.416 1.071 11.511-.864 16.15-7.087zM592.453 438.034l1.158 6.584 12.963 1.464c.531-4.998 1.496-9.797-1.915-14.737l-12.206 6.689zm-47.805-254.15c-1.123-.233-2.46-.982-3.305-.611a362.032 362.032 0 00-17.945 8.453c-.685.347-1.27 2.528-.869 3.026.699.867 2.375 1.725 3.34 1.466 5.277-1.415 10.556-2.932 15.645-4.903 2.952-1.142 3.925-3.884 3.134-7.431zm-35.567 18.122c-1.253-.17-2.719-.778-3.954-.468-7.017 1.761-12.111 6.483-16.655 11.733-1.625 1.876-.889 4.067 2.443 5.558 5.054-3.008 10.621-6.173 16.022-9.602 2.418-1.536 3.182-4.014 2.144-7.221zm405.867-106.28l-.507-1.38c-4.874-.59-9.775-1.019-14.617-1.81-6.466-1.057-10.427 2.18-14.306 7.55 6.341.869 11.901 1.724 17.488 2.326 1.272.136 2.824-.31 3.925-1.001 2.77-1.739 5.357-3.77 8.017-5.685zM809.033 199.338c1.749-3.159 4.106-6.152-.162-7.594-7.682-2.598-15.603-4.777-23.838-2.588-1.367.363-2.486 1.657-5.126 3.506 10.032 4.719 19.518 4.876 29.126 6.676zM688.26 294.252l-.715-1.82-77.289 7.625c1.056.824 2.123 1.042 3.195 1.078 20.538.685 41.015-.165 61.359-3.066 4.572-.652 8.971-2.512 13.45-3.817zM585.831 409.971c-7.89 2.798-13.898 7.792-15.961 15.965-1.914 7.586-3.731 15.418-3.888 23.176-.249 12.329 6.215 21.741 15.961 28.944.657.486 1.614.568 4.221 1.429-9.33-11.152-14.932-21.829-13.718-35.155 1.164-12.778 5.301-24.201 13.385-34.359zm17.308 80.051c-2.928-.22-4.27-.413-5.61-.408-23.321.094-37.127-22.237-37.422-38.067-.188-10.105 1.871-19.888 5.2-29.447 2.999-8.613 8.592-14.778 16.618-18.877 2.305-1.177 4.637-2.301 6.999-3.47-2.949-4.295-2.987-4.414-6-3.465-5.634 1.773-10.264 5.176-13.995 9.653-12.878 15.451-13.375 33.717-11.069 52.303 1.313 10.577 8.023 18.695 14.383 26.86 3.707 4.76 8.456 7.488 13.946 9.551 6.114 2.298 11.098.92 16.95-4.633zM432.311 266.933c-2.261-1.305-4.406-2.899-6.804-3.866-14.735-5.937-26.507-15.915-37.726-26.829-10.151-9.876-13.202-20.056-7.778-31.202 4.069-8.363 8.485-16.591 15.137-23.397 6.764-6.922 13.215-14.152 20.346-21.831-1.633.932-2.805 1.467-3.831 2.206-11.158 8.041-20.523 17.958-29.009 28.658-3.537 4.46-6.431 9.557-8.895 14.71-3.936 8.234-4.057 16.264 1.451 24.39 4.925 7.265 11.165 13.032 17.56 18.792 11.301 10.182 25.081 15.209 39.549 18.369zm182.192 169.97c1.453 16.291-3.569 29.853-17.848 39.472 2.943 2.321 5.883 3.117 9.006 2.3 6.888-1.802 13.181-5.004 16.664-11.424 6.177-11.382 8.026-23.667 6.161-37.312l-13.983 6.964zM338.746 384.1c-6.681-13.93-3.539-28.682-6.804-42.866-3.083 1.039-5.819 1.833-8.458 2.874-6.759 2.667-8.431 5.097-8.476 12.406-.022 3.344-.164 6.764.435 10.023 3.132 17.02 1.41 19.315 23.303 17.563zM38.055 373.966c-1.606-4.429-3.62-8.281-4.335-12.362-1.031-5.855-1.405-11.869-1.54-17.827-.233-10.22-.064-20.45-.064-31.266-7.23 1.693-11.446 6.207-15.793 10.561-4.47 4.476-6.966 9.672-6.313 16.14.647 6.412 1.259 12.828 1.875 19.245 1.248 12.99 14.05 20.63 26.17 15.509zm727.024-186.764c-2.443-.581-4.88-1.643-7.325-1.664-17.924-.153-35.872-.676-53.768.044-20.769.836-41.442 3.304-61.786 7.791-16.598 3.661-33.158 7.649-47.817 16.774-3.577 2.227-7.049 5.077-9.602 8.386-3.552 4.604-2.158 8.719 3.96 12.683-2.958-7.253 1.691-10.302 6.306-12.751 7.154-3.798 14.333-8.067 22.038-10.202 15.403-4.268 31.056-7.925 46.822-10.511 13.386-2.195 27.057-3.066 40.637-3.557 18.148-.656 36.33-.447 54.497-.456 4.393-.003 4.393.272 6.038-6.537zm-170.62 315.663c-1.428-.109-2.804-.32-4.177-.302-9.998.128-18.107-3.851-24.515-11.367-19.506-22.876-22.475-48.22-11.038-75.605 3.762-9.009 9.882-16.21 19.13-22.372-4.334-1.346-7.531-2.151-10.584-3.33-5.123-1.98-9.604-.985-14.284 1.688-7.827 4.47-13.101 11.208-16.971 18.929-1.847 3.689-2.045 8.275-2.586 12.507-.18 1.4.46 3.611 1.498 4.323 2.677 1.837 2.612 4.333 2.698 6.956.156 4.779.02 9.592.566 14.325.622 5.4.453 11.589 3.108 15.913 6.065 9.88 8.358 20.979 12.285 31.531.537 1.444-.377 3.786-1.279 5.325-1.369 2.334-3.317 4.328-5.035 6.487 4.391 3.703 9.298 6.405 14.919 6.596 7.831.266 15.689-.207 23.534-.381 9.133-.202 10.341-1.251 12.731-11.223zM271.463 180.244c-11.913.093-22.196 4.446-32.131 9.922-1.409.777-2.866 1.922-3.671 3.273-6.335 10.635-10.607 28.211-.646 41.937 3.599 4.96 8.29 9.185 12.787 13.423 6.158 5.802 14.009 8.121 22.139 9.072 2.845.333 6.073-.717 8.829-1.854 7.892-3.257 13.842-9.058 19.665-15.192 11.545-12.165 12.129-25.974 6.47-40.558-3.013-7.767-8.466-13.932-16.839-16.388-5.422-1.592-11.061-2.449-16.603-3.635zm77.928 154.559c-9.634 1.96-11.163 4.029-9.89 13.34.162 1.185.24 2.382.4 3.568 1.052 7.799 1.721 15.677 3.297 23.368 1.328 6.482 3.347 7.353 9.631 5.195 32.571-11.178 65.095-22.493 97.678-33.637 3.669-1.255 6.067-3.459 7.95-6.712 6.952-12.019 14.067-23.945 21.014-35.967 1.265-2.191 2.027-4.673 3.346-7.788-6.966-1.739-13.122-3.469-19.373-4.72-1.936-.388-4.261.183-6.191.901a10358.194 10358.194 0 00-65.847 24.708c-12.048 4.569-24.023 9.327-36.143 14.044 0 4.272.125 7.86-.036 11.435-.156 3.449 2.146 7.498-2.226 10.519-6.132-5.39-2.079-12.393-3.61-18.254zm11.591-125.599c2.793-6.089 4.493-11.614 7.582-16.202 10.351-15.368 22.032-29.702 37.887-39.774 9.276-5.892 18.775-11.689 28.807-16.085 25.533-11.191 50.364-24.041 77.97-30.277 19.311-4.362 37.971-11.532 57.166-16.502 17.822-4.614 35.993-7.866 53.965-11.912 30.167-6.791 60.7-10.983 91.524-13.123 16.456-1.143 32.967-1.649 49.382-3.201 29.813-2.82 59.723-3.086 89.604-3.944 30.169-.867 60.276 1.033 90.264 4.306 22.128 2.415 44.134 5.875 65.297 13.049 11.78 3.99 23.13 9.239 34.94 13.101 7.93 2.593 14.46 7.264 21.25 11.636 5.81 3.741 9.53 8.824 10.74 16.025 1.48 8.852 3.06 17.752-1.13 26.011-4.74 9.36-10.42 18.246-15.85 27.248-1.08 1.803-2.69 3.382-4.32 4.755-16.87 14.247-34.29 27.554-55.32 35.465-15.883 5.978-31.27 13.309-47.235 19.048-20.014 7.195-40.355 13.491-60.622 19.961-14.123 4.508-28.299 8.877-42.567 12.9-13.579 3.83-27.346 6.989-40.954 10.726-6.431 1.767-12.682 4.196-19.015 6.326 2.719.994 5.108.983 7.39.484 25-5.467 50.197-10.197 74.92-16.724 36.374-9.602 71.178-23.839 106.021-37.949 19.172-7.763 37.312-16.881 54.592-28.346 22.5-14.926 40.67-33.209 52.46-57.641 8.37-17.342 12.83-34.799 5.34-53.892-5.37-13.693-13.2-24.878-26.39-31.807-4.44-2.333-8.96-4.553-13.59-6.491-23.23-9.727-47.27-16.956-71.735-22.803-17.251-4.123-34.836-5.976-52.502-7.281-8.577-.633-17.091-2.376-25.669-2.703-21.015-.802-42.048-1.36-63.077-1.475-20.107-.111-40.235.051-60.324.849-20.062.797-40.148 1.941-60.116 3.988-33.567 3.443-66.889 8.705-99.701 16.757-29.729 7.295-59.909 13.227-88.991 22.56-44.933 14.42-88.367 32.72-128.418 58.352-10.51 6.726-19.056 15.133-27.348 24.089-6.295 6.799-10.083 15.121-13.675 23.466-1.952 4.537-3.785 9.39-4.27 14.241-1.107 11.049 2.455 21.442 5.718 32.789zm162.963 292.175l-9.726-20.239-10.004 2.862c1.393 4.656.121 8.23-3.029 11.557-5.222-1.369-5.3-6.34-7.25-10.125l-5.735 1.273c1.51 4.713.575 8.349-2.905 11.624-4.633-2.102-4.793-6.932-6.951-10.802l-5.458.832c.462 4.422.781 8.448-3.768 11.838-1.398-1.77-2.956-3.213-3.829-4.992-.882-1.799-1.086-3.931-1.672-6.256l-4.507.865c.818 4.989 2.597 9.836-2.46 13.673-6.221-2.725-4.679-8.551-5.013-14.044-5.683.336-10.891.653-16.099.949-5.255.297-10.53.377-15.76.913-5.228.536-10.396 1.653-15.62 2.264-4.931.577-9.902.826-14.856 1.22l-.335-2.056c9.405-2.488 18.754-5.225 28.23-7.403 12.112-2.783 24.501-4.484 36.458-7.787 18.908-5.223 37.757-10.489 57.274-12.968 4.647-.591 9.241-1.597 14.522-2.529-1.695-10.265-.47-20.005-2.71-29.94-27.107 6.927-53.717 11.573-80.801 12.968-.104-.53-.209-1.059-.312-1.589l77.486-17.479c-.731-20.923 8.744-34.891 27.984-42.108-6.489-11.331-6.29-14.118 1.462-24.262.582-.762 1.219-1.48 1.8-2.241 6.535-8.561 13.007-17.171 19.623-25.668 2.764-3.549 3.316-7.181 1.77-11.119-8.562-2.299-20.159.62-30.784 5.642-9.303 4.396-18.447 9.131-27.629 13.778-6.355 3.215-13.223 5.769-16.167 11.78-3.555.57-6.52.343-8.73 1.526-8.22 4.406-15.972 9.718-24.31 13.863-11.494 5.713-19.832 14.399-27.398 24.549-10.43 13.995-22.003 27.135-32.629 40.992-2.502 3.263-5.057 5.408-8.811 6.664-12.493 4.178-24.946 8.476-37.401 12.769-2.416.833-4.767 1.851-7.194 2.803.114 1.846.254 3.022.239 4.195-.014 1.149-.186 2.297-.274 3.273-3.385 2.335-6.338.817-9.165-.262-6.429-2.456-11.59-6.765-15.855-12.037-9.784-12.094-19.303-24.403-29.107-36.481-14.48-17.84-28.769-35.853-43.783-53.234-13.48-15.604-26.962-31.118-37.587-48.891-1.696-2.838-3.848-5.417-5.911-8.019-2.738-3.452-3.572-7.079-2.023-11.355 1.517-4.188 4.661-6.739 8.39-8.401 11.571-5.158 23.271-10.023 34.912-15.026 1.569-.675 3.081-1.487 5.438-2.632-9.566-3.755-15.549-10.318-22.08-16.292-6.841-6.257-7.236-15.316-10.738-22.97-3.712-8.114-1.277-17.111.19-26.592-2.229 1.208-3.488 1.835-4.693 2.553-23.253 13.836-46.452 27.765-69.759 41.509-30.528 18-61.097 35.93-91.771 53.677-3.563 2.062-5.248 4.403-5.372 8.38-.2 6.444-.617 12.882-1.005 19.319-.123 2.027.45 4.444-2.822 5.514-6.15-8.394.194-17.797-1.692-26.414-7.02 1.289-8.996 5.872-8.902 12.084.109 7.19-.228 14.395.1 21.572.305 6.675.943 13.365 1.954 19.969 1.32 8.621 6.545 11.762 14.895 9.354a62.026 62.026 0 008.064-2.93 52129.043 52129.043 0 0089.745-40.191c4.737-2.126 9.421-4.375 13.705-6.369l-1.569-4.933c5.788-1.758 10.522-.183 14.695 2.808 5.041 3.612 10.236 7.211 14.52 11.634 9.818 10.135 19.555 20.41 28.55 31.268 23.042 27.814 45.692 55.953 68.432 84.016a867.49 867.49 0 0118.099 23.163c2.756 3.646 4.415 7.783 3.449 13.641l-10.54-3.136c-8.119 5.81-16.55 12.107-25.265 17.982-5.129 3.456-6.306 8.036-5.613 13.68.753 6.142 6.021 6.013 10.149 7.373 11.579 3.814 23.215 7.455 34.786 11.29 11.335 3.756 22.587 7.761 33.95 11.427 2.174.701 4.701.504 7.054.422 5.494-.193 10.992-.936 16.472-.795 13.64.351 27.232.947 40.872-.763 9.227-1.157 18.6-1.175 27.908-1.683 10.99-.6 21.997-.969 32.968-1.816 15.01-1.158 29.997-2.631 44.985-4.056 5.147-.489 10.269-1.234 15.402-1.863a221.296 221.296 0 00-31.528.405c-21.921 1.843-43.745 4.985-65.828 4.435-4.287-.106-8.58-.195-12.866-.1-11.673.257-23.18 3.161-34.998 1.606-13.767-1.811-27.59-3.288-40.816-7.74-12.012-4.043-23.902-8.455-35.814-12.793-3.006-1.094-5.891-2.524-8.83-3.8l.36-1.618c14.427-.936 28.842-2.247 43.284-2.705 14.805-.469 29.636-.104 44.457-.104.969-2.714 2.928-5.674 4.048-5.385 2.011.519 3.518 2.99 6.088 5.468l9.418.615c.274-3.668-4.121-6.446-.711-9.161 1.15-.914 3.83-.983 5.243-.287 4.406 2.169-.426 5.992 1.212 9.627 35.197-.772 70.473-.098 106.128-5.022zM705.422 264.84c-2.668-2.837-2.519-5.874.428-8.046 2.609-1.922 5.727-3.39 8.84-4.322 3.162-.946 6.582-1.173 9.91-1.399 11.321-.769 22.532-.35 32.738 5.367 3.203 1.794 5.911 4.47 8.805 6.711 5.093-5.241 5.311-6.58.884-10.654-2.034-1.871-4.573-3.661-7.182-4.342-5.979-1.562-12.097-2.929-18.238-3.461-14.029-1.217-27.645.795-40.487 6.906-3.686 1.754-6.245 4.151-5.954 8.8.263 4.185 2.211 6.597 5.766 7.574l4.71-3.361c.332.792.475 1.757 1.022 2.351 6.04 6.56 13.934 10.077 22.173 12.676 10.594 3.341 25.047-1.701 29.442-18.163-14.893-6.435-30.218-5.864-45.721-2.932-3.665.694-5.494 3.309-7.136 6.295zm-263.949 21.568c-13.175-6.597-26.291-12.961-39.222-19.683-22.197-11.54-38.195-29.416-50.32-50.875-2.622-4.64-3.755-10.233-4.956-15.528-1.051-4.635-.8-9.569-1.891-14.191-2.068-8.759.881-16.535 3.958-24.329 1.401-3.55 3.318-6.891 4.837-10.399 5.798-13.387 15.202-23.827 27.061-31.932 21.949-15.001 44.626-28.795 68.184-41.207 20.188-10.638 41.43-18.649 62.478-27.235 39.417-16.079 80.441-26.534 122.075-34.5 27.464-5.256 55.245-8.916 82.954-12.797 10.636-1.49 21.452-1.937 32.205-2.288C770.853.726 792.89-.181 814.908.031c38.278.368 76.483 1.892 114.588 6.542a627.773 627.773 0 0152.335 8.627c20.559 4.296 40.819 10.283 59.969 19.355 9.93 4.706 20.24 8.666 29.96 13.76 26.63 13.95 38.01 41.323 34.27 69.244-.5 3.734-1.71 7.507-3.29 10.938-4.8 10.39-9.65 20.571-16.76 29.924-6.21 8.171-12.02 16.647-19.16 24.034-13.31 13.762-29.28 23.926-46.18 32.568-33.301 17.035-67.971 30.836-103.545 42.329-33.47 10.812-66.841 22.17-101.551 28.392-34.134 6.118-68.425 11.362-102.673 16.829-14.642 2.338-29.29 4.97-44.042 6.194-16.434 1.363-32.991 1.748-49.488 1.632-9.062-.063-16.588 4.262-24.884 6.285-.979.238-1.815 1.47-2.512 2.397-10.78 14.332-20.984 29.145-32.485 42.872-6.902 8.237-3.337 15.6 5.153 18.077 5.955 1.737 11.94 3.568 18.041 4.551 6.495 1.046 11.864 3.587 15.97 8.673 2.848 3.527 6.496 5.409 10.892 6.379 20.821 4.595 30.738 20.655 32.232 39.611 1.51 19.143-5.145 34.593-18.156 47.926-.834.855-1.653 1.892-2.696 2.35-10.011 4.404-14.63 13.617-19.227 22.439-4.939 9.479-11.911 15.388-22.506 16.8-15.875 2.115-31.725 4.534-47.658 6.073-11.89 1.147-23.799 1.67-35.677 3.444-15.111 2.257-30.491 2.658-45.664 4.584-19.492 2.474-38.981 4.216-58.652 4.412-13.136.132-26.259 1.38-39.39 2.103-13.874.765-26.335-3.781-38.418-10.024-11.31-5.844-23.074-10.843-35.807-12.211-15.272-1.641-20.725-9.631-20.63-23.922.05-7.62 2.69-13.689 8.689-17.966 7.77-5.54 15.909-10.562 23.904-15.784 1.578-1.03 3.227-1.954 5.62-3.395-4.109-5.1-7.934-9.858-11.769-14.606-10.225-12.657-20.312-25.429-30.723-37.93-8.726-10.478-17.955-20.538-26.721-30.983-4.611-5.494-8.868-11.306-13-17.175-7.622-10.824-16.405-20.619-26.098-29.569-3.653-3.374-8.018-5.979-12.212-9.048-15.767 7.237-31.498 13.716-46.533 21.534-23.184 12.056-47.243 22.093-71.267 32.203-6.935 2.919-14.707 4.265-22.237 5.251-9.143 1.198-17.464-2.146-24.888-7.382-4.306-3.036-6.687-7.757-7.588-12.686-2.103-11.526-3.508-23.106-1.402-34.918 1.526-8.556 5.65-14.897 12.538-20.086 13.812-10.409 28.612-19.173 43.53-27.848 23.39-13.604 46.368-27.919 69.767-41.506 21.113-12.26 42.528-24.002 63.869-35.865 15.062-8.372 30.278-16.462 45.32-24.868 13.676-7.641 28.789-10.593 43.926-12.532 5.35-.686 11.305 2.961 16.906 4.857 1.77.6 3.268 1.977 4.93 2.926 9.149 5.226 14.505 13.044 15.79 23.492 1.018 8.27 2.151 16.431.738 24.932-2.343 14.106-9.57 24.671-20.604 33.263-13.595 10.586-29.321 16.983-44.95 23.637-7.703 3.28-15.465 6.453-22.984 10.118-4.459 2.173-8.842 4.844-11.104 10.349 3.826 4.524 7.598 9.117 11.514 13.585 10.717 12.225 21.647 24.268 32.213 36.622 15.245 17.825 30.035 36.043 45.417 53.748 11.607 13.36 23.838 26.178 35.988 39.452 10.137-3.488 20.038-6.93 29.965-10.293 4.529-1.536 9.035-3.271 13.689-4.279 6.264-1.357 10.692-4.872 14.232-9.974 12.148-17.502 24.357-34.961 36.526-52.449.258-.372.307-.888.714-2.129-3.06.644-5.726 1.226-8.4 1.765-24.014 4.842-46.992 13.07-70.018 21.197-9.929 3.505-20.035 6.571-30.849 5.8-16.2-1.154-24.144-8.851-24.686-24.003-.246-6.87-.22-13.769.112-20.634.319-6.585 4.016-11.053 9.991-13.728 5.237-2.344 10.334-5.041 15.676-7.105 35.482-13.712 71.015-27.293 106.525-40.933 1.484-.57 2.904-1.303 4.15-1.867z" fill="#000"/><path d="M117.155 285.466c7.158-2.32 7.184-2.366 5.55-9.806-6.45 2.694-6.45 2.694-5.55 9.806zm-5.849-3.108c-3.784 2.514-8.593 3.638-8.663 9.631 8.769-1.246 9.731-2.304 8.663-9.631zm329.533 222.146l2.13-.263c.907-2.126 2.358-4.209 2.531-6.392.12-1.526-1.138-3.889-2.463-4.595-1.313-.699-4.02-.386-5.114.597-.974.874-1.143 3.463-.647 4.955.687 2.066 2.329 3.814 3.563 5.698zm-13.967 1.977c4.791-6.79 5.705-10.382 3.082-12.07-2.773-1.785-5.747-1.656-8.887 1.757l5.805 10.313zM181.496 250.584c9.2-2.93 9.813-4.052 7.973-14.204l-7.973 3.991v10.213zm-49.945 27.487c11.249-4.715 11.763-5.475 9.728-13.851-9.786 4.227-11.565 5.526-9.728 13.851zm66.367-45.836v9.797l17.366-10.483v-9.092c-6.215 3.499-11.717 6.596-17.366 9.778zm-25.858 13.482c-6.664 3.912-12.547 7.355-18.42 10.815-6.31 3.719-6.306 3.726-4.409 12.749 5.807-3.05 11.283-6.335 17.092-8.856 5.218-2.265 7.194-5.732 6.226-11.155-.125-.698-.197-1.406-.489-3.553zm351.885 255.662c-35.655 4.923-70.932 4.25-106.128 5.022-1.639-3.636 3.193-7.458-1.212-9.627-1.413-.696-4.094-.627-5.243.287-3.41 2.715.984 5.493.711 9.16l-9.418-.614c-2.57-2.478-4.077-4.949-6.088-5.469-1.12-.289-3.079 2.671-4.049 5.386-14.82 0-29.651-.366-44.456.104-14.442.458-28.857 1.77-43.284 2.705l-.36 1.617c2.939 1.276 5.824 2.707 8.83 3.801 11.912 4.338 23.802 8.75 35.814 12.793 13.226 4.452 27.049 5.93 40.816 7.74 11.818 1.555 23.325-1.349 34.998-1.607 4.286-.094 8.579-.005 12.866.101 22.083.55 43.907-2.592 65.828-4.435a221.282 221.282 0 0131.527-.405c-5.132.63-10.255 1.374-15.401 1.863-14.988 1.424-29.976 2.898-44.985 4.056-10.971.847-21.978 1.216-32.968 1.816-9.309.507-18.681.526-27.908 1.683-13.64 1.71-27.232 1.114-40.872.763-5.48-.14-10.978.602-16.472.794-2.354.083-4.88.28-7.054-.422-11.363-3.665-22.615-7.67-33.95-11.426-11.571-3.835-23.207-7.476-34.786-11.29-4.128-1.36-9.397-1.23-10.15-7.373-.692-5.644.485-10.224 5.614-13.68 8.715-5.875 17.146-12.172 25.264-17.982l10.54 3.136c.966-5.859-.692-9.995-3.448-13.64a867.868 867.868 0 00-18.099-23.165c-22.741-28.062-45.39-56.202-68.432-84.015-8.995-10.859-18.732-21.133-28.55-31.268-4.284-4.423-9.479-8.023-14.52-11.634-4.173-2.991-8.908-4.566-14.696-2.808l1.57 4.933c-4.285 1.994-8.968 4.243-13.705 6.369a52910.808 52910.808 0 01-89.746 40.191 61.808 61.808 0 01-8.063 2.929c-8.351 2.408-13.575-.732-14.896-9.353a189.519 189.519 0 01-1.953-19.969c-.328-7.177.009-14.382-.1-21.572-.094-6.213 1.882-10.796 8.902-12.085 1.886 8.617-4.457 18.021 1.692 26.414 3.272-1.069 2.699-3.486 2.822-5.513.387-6.437.804-12.875 1.005-19.319.124-3.977 1.808-6.318 5.372-8.38 30.674-17.748 61.243-35.677 91.77-53.677 23.308-13.744 46.507-27.673 69.76-41.51 1.205-.717 2.464-1.344 4.692-2.552-1.466 9.481-3.901 18.478-.189 26.591 3.502 7.655 3.896 16.714 10.738 22.971 6.531 5.973 12.514 12.537 22.079 16.292-2.356 1.145-3.868 1.957-5.437 2.631-11.641 5.003-23.341 9.869-34.912 15.026-3.729 1.662-6.873 4.214-8.39 8.402-1.549 4.276-.716 7.903 2.023 11.355 2.063 2.601 4.214 5.18 5.911 8.018 10.625 17.774 24.107 33.288 37.587 48.891 15.014 17.382 29.302 35.395 43.783 53.234 9.803 12.079 19.323 24.388 29.107 36.482 4.265 5.272 9.426 9.581 15.855 12.036 2.827 1.08 5.78 2.598 9.165.263.088-.977.26-2.124.274-3.273.015-1.174-.125-2.35-.239-4.196 2.427-.95 4.778-1.969 7.194-2.802 12.454-4.293 24.907-8.591 37.401-12.769 3.754-1.256 6.309-3.401 8.811-6.665 10.626-13.856 22.198-26.997 32.629-40.992 7.565-10.149 15.903-18.835 27.398-24.549 8.337-4.145 16.089-9.456 24.31-13.862 2.21-1.183 5.175-.956 8.73-1.527 2.944-6.01 9.812-8.564 16.167-11.779 9.182-4.647 18.326-9.382 27.628-13.778 10.625-5.022 22.223-7.941 30.785-5.642 1.545 3.938.994 7.57-1.77 11.119-6.616 8.497-13.088 17.107-19.623 25.668-.581.761-1.219 1.479-1.801 2.24-7.752 10.145-7.95 12.932-1.462 24.263-19.239 7.217-28.714 21.185-27.983 42.108l-77.486 17.479.312 1.589c27.084-1.395 53.693-6.041 80.801-12.968 2.24 9.935 1.015 19.674 2.71 29.94-5.281.932-9.875 1.938-14.523 2.528-19.516 2.48-38.365 7.746-57.273 12.97-11.957 3.301-24.347 5.003-36.458 7.786-9.477 2.178-18.825 4.914-28.231 7.403.113.685.224 1.37.335 2.056 4.955-.394 9.925-.643 14.857-1.22 5.224-.61 10.392-1.729 15.62-2.265 5.23-.535 10.505-.615 15.76-.913 5.208-.295 10.416-.613 16.098-.948.334 5.493-1.208 11.318 5.014 14.043 5.057-3.836 3.277-8.683 2.46-13.672l4.507-.865c.586 2.325.79 4.457 1.672 6.256.873 1.78 2.43 3.222 3.829 4.991 4.549-3.389 4.229-7.415 3.767-11.837l5.458-.832c2.159 3.87 2.319 8.7 6.952 10.801 3.48-3.274 4.415-6.91 2.905-11.624l5.735-1.273c1.949 3.785 2.028 8.757 7.249 10.126 3.151-3.327 4.423-6.902 3.03-11.557l10.003-2.862 9.727 20.24zM890.037 33.316c-3.565.407-6.38.635-9.16 1.077-1.963.312-3.799 1.003-3.581 3.591.214 2.55 1.722 3.947 4.163 4.109 2.543.169 5.105.038 7.626.038l.952-8.815zM732.526 46.732l7.701-.62V33.769l-7.701 1.419v11.544zm-5.717-.263l-.627-10.359c-4.124.22-8.273-.407-9.778 3.569-.761 2.012-.106 5.658 1.354 7.156 2.251 2.309 5.642 1.403 9.051-.366zm-118.37 10.957c-5.546-4.654-10.112-1.18-14.57 1.272-1.123.618-2.362 2.937-2.003 3.892.549 1.456 2.295 3.137 3.794 3.444 7.094 1.451 9.826-.45 12.779-8.608zm287.83-23.781l.722 9.619 16.164 1.922.665-11.541h-17.551zM771.182 44.259l14.106-1.076 1.243-10.989h-17.315l1.966 12.065zm149.062-9.92v11.969l14.644.728V35.294l-14.644-.955zM573.201 72.44c4.921-.682 9.836-1.268 12.47-6.534 2.108-4.214.611-7.294-4.164-6.763-3.854.429-7.603 2.228-11.27 3.731-2.053.841-3.423 2.404-2.496 5.082.929 2.686 2.144 4.758 5.46 4.484zm190.106-28.046V31.892l-17.561 1.336v12.377l17.561-1.211zm206.349 7.344c4.774.983 8.907 1.998 13.099 2.62 1.784.266 4.073.29 5.445-.617 1.779-1.175 3.985-3.422 3.937-5.149-.047-1.629-2.539-4.127-4.373-4.591-5.611-1.423-11.423-2.051-17.484-3.041l-.624 10.778zm-5.915-.806c.565-2.738 1.449-4.849 1.269-6.865-.139-1.537-1.409-4.011-2.552-4.248-6.855-1.416-13.819-2.305-21.26-3.45v11.743l22.543 2.82zm-560.672 90.592c-3.007-3.592-6.153-3.628-8.975-2.019-7.448 4.248-14.624 8.956-19.467 16.323-1.557 2.368-3.057 4.927-.551 8.717 10.379-6.634 22.568-10.69 28.993-23.021zm8.635-5.465c10.293-4.772 20.399-10.008 30.001-16.221.397-.256.8-.565 1.07-.942 1.591-2.223 4.611-4.336 2.516-7.372-1.942-2.812-5.099-1.764-7.873-.874a3.99 3.99 0 00-.66.278c-5.881 3.15-11.943 6.014-17.567 9.571-3.157 1.997-5.822 4.942-8.269 7.833-1.639 1.936-3.067 4.515.782 7.727zm381.37-92.852c12.301-.375 24.17-.733 36.04-1.108.466-.015.986-.09 1.382-.313 2.748-1.555 5.67-3.355 5.481-6.856-.212-3.977-4.099-3.199-6.642-3.982-.867-.267-1.891-.017-2.843-.021-9.752-.035-19.504-.103-29.256-.087-1.762.003-3.524.343-5.285.528.373 3.925.685 7.209 1.123 11.839zM555.408 70.748c-1.456-.729-2.999-2.12-4.553-2.133-2.318-.019-4.698.768-6.96 1.499-18.635 6.019-37.416 11.649-55.803 18.354-9.801 3.575-18.989 8.896-28.277 13.765-2.249 1.179-5.596 2.855-3.867 6.572 1.821 3.913 4.841 1.664 7.459.974.918-.242 1.779-.692 2.68-1.012 20.276-7.2 40.567-14.362 60.828-21.607 7.42-2.654 14.773-5.497 22.152-8.266 3.404-1.277 5.401-3.733 6.341-8.146zM360.982 209.204c-3.263-11.347-6.825-21.74-5.718-32.789.485-4.851 2.318-9.704 4.27-14.241 3.592-8.345 7.38-16.667 13.675-23.465 8.292-8.957 16.838-17.364 27.348-24.09 40.051-25.632 83.485-43.932 128.418-58.352 29.082-9.333 59.262-15.264 88.991-22.559 32.812-8.053 66.134-13.315 99.701-16.758 19.968-2.047 40.054-3.191 60.116-3.988 20.089-.798 40.217-.96 60.324-.849 21.029.115 42.062.673 63.076 1.475 8.579.328 17.093 2.07 25.67 2.704 17.666 1.304 35.251 3.157 52.502 7.28 24.465 5.847 48.505 13.076 71.735 22.804 4.63 1.937 9.15 4.157 13.59 6.49 13.19 6.929 21.02 18.114 26.39 31.807 7.49 19.093 3.03 36.55-5.34 53.892-11.79 24.432-29.96 42.715-52.46 57.642-17.28 11.464-35.42 20.582-54.592 28.345-34.843 14.11-69.647 28.347-106.021 37.95-24.723 6.526-49.92 11.256-74.92 16.723-2.282.499-4.671.51-7.39-.484 6.333-2.13 12.584-4.559 19.015-6.325 13.608-3.738 27.375-6.897 40.954-10.726 14.268-4.024 28.444-8.393 42.567-12.901 20.267-6.47 40.608-12.766 60.622-19.961 15.965-5.739 31.352-13.07 47.235-19.048 21.03-7.911 38.45-21.217 55.32-35.464 1.63-1.374 3.24-2.953 4.32-4.756 5.43-9.002 11.11-17.888 15.85-27.247 4.19-8.26 2.61-17.16 1.13-26.012-1.21-7.201-4.93-12.284-10.74-16.025-6.79-4.372-13.32-9.043-21.25-11.636-11.81-3.862-23.16-9.111-34.94-13.101-21.164-7.174-43.169-10.634-65.297-13.049-29.988-3.273-60.095-5.173-90.264-4.306-29.881.858-59.791 1.124-89.604 3.944-16.415 1.552-32.926 2.059-49.382 3.201-30.825 2.14-61.357 6.332-91.524 13.123-17.972 4.047-36.143 7.298-53.965 11.912-19.195 4.971-37.855 12.14-57.166 16.502-27.606 6.236-52.437 19.086-77.97 30.277-10.032 4.397-19.531 10.193-28.807 16.086-15.855 10.071-27.536 24.405-37.887 39.773-3.089 4.588-4.789 10.113-7.582 16.202z" fill="#FFF"/><path d="M397.378 327.878c-7.076-1.929-7.469-1.779-11.595 3.917.728 3.452 2.894 4.39 6.244 3.911 4.583-.655 4.214-4.309 5.351-7.828m7.051-3.317c2.529 4.913 3.17 5.193 8.174 3.72 4.195-1.235 4.681-2.146 4.235-8.299-5.197-1.269-8.949 1.209-12.409 4.579M379.6 336.305c.045-2.119-1.419-3.46-3.687-3.377-3.718.135-9.031 3.871-8.594 6.259.459 2.502 1.817 4.444 4.779 4.461 3.757.021 7.423-3.568 7.502-7.343m-30.209-1.502c1.53 5.861-2.523 12.864 3.609 18.254 4.372-3.021 2.07-7.07 2.226-10.519.161-3.575.036-7.162.036-11.435 12.12-4.717 24.095-9.475 36.143-14.044 21.92-8.313 43.871-16.544 65.847-24.708 1.93-.718 4.255-1.288 6.191-.901 6.251 1.251 12.407 2.981 19.373 4.72-1.319 3.115-2.081 5.597-3.346 7.788-6.946 12.023-14.062 23.948-21.014 35.967-1.883 3.253-4.281 5.457-7.95 6.712-32.583 11.144-65.107 22.459-97.678 33.637-6.284 2.158-8.303 1.287-9.631-5.195-1.576-7.691-2.245-15.569-3.297-23.368-.16-1.186-.238-2.383-.4-3.568-1.273-9.311.256-11.38 9.891-13.34m-52.372-99.827c1.761-3.168 3.05-4.681 3.435-6.397.423-1.893-.293-3.949-2.759-3.991-2.395-.041-4.306 1.363-4.035 3.828.187 1.713 1.615 3.29 3.359 6.56m-23.047-29.008c1.781-4.817 1.555-6.834-.857-7.75-2.583-.98-5.998.819-8.285 4.406 2.147 3.57 5.47 3.928 9.142 3.344m-6.559-18.266c1.23 4.222 4.64 4.238 7.512 4.725 1.076.183 2.992-.68 3.411-1.584.461-.992.015-2.848-.7-3.857-1.98-2.794-4.923-2.554-10.223.716m11.042 23.252l-2.206-.739c-2.07 1.804-4.383 3.402-6.147 5.469-1.968 2.305-.77 4.882 2.284 4.716 2.152-.116 5.204-.922 6.093-2.447 1.013-1.738.069-4.617-.024-6.999m8.708 9.796c-5.222 1.218-6.266 1.806-7.028 5.075-.326 1.397-.15 3.931.638 4.343 1.372.718 3.654.747 5.093.075 3.183-1.489 3.356-3.619 1.297-9.493m-15.701-40.506c5.542 1.186 11.181 2.043 16.604 3.634 8.373 2.457 13.825 8.621 16.839 16.389 5.659 14.584 5.075 28.393-6.471 40.558-5.822 6.133-11.772 11.935-19.665 15.191-2.756 1.137-5.983 2.188-8.828 1.855-8.131-.952-15.982-3.27-22.14-9.073-4.497-4.237-9.187-8.462-12.787-13.422-9.961-13.726-5.688-31.302.647-41.938.804-1.35 2.261-2.496 3.67-3.273 9.935-5.475 20.218-9.829 32.131-9.921m322.996 322.621c-2.39 9.972-3.598 11.021-12.73 11.223-7.846.174-15.704.647-23.535.381-5.621-.19-10.528-2.893-14.919-6.596 1.718-2.159 3.666-4.154 5.035-6.487.902-1.54 1.816-3.88 1.279-5.326-3.927-10.55-6.22-21.65-12.285-31.53-2.655-4.324-2.486-10.514-3.108-15.913-.546-4.733-.41-9.546-.566-14.325-.086-2.623-.021-5.119-2.698-6.956-1.038-.712-1.678-2.923-1.498-4.324.541-4.231.739-8.817 2.587-12.506 3.869-7.722 9.143-14.459 16.97-18.93 4.68-2.672 9.161-3.668 14.284-1.688 3.053 1.18 6.25 1.985 10.584 3.331-9.248 6.162-15.368 13.363-19.129 22.372-11.438 27.385-8.469 52.73 11.037 75.605 6.408 7.516 14.517 11.495 24.515 11.367 1.373-.018 2.749.193 4.177.302" fill="#FFF"/><path d="M765.079 187.202c-1.646 6.809-1.646 6.535-6.038 6.537-18.167.01-36.349-.2-54.497.456-13.58.491-27.251 1.362-40.637 3.558-15.766 2.586-31.419 6.242-46.822 10.511-7.705 2.135-14.884 6.404-22.038 10.201-4.615 2.45-9.264 5.499-6.306 12.751-6.118-3.963-7.512-8.079-3.96-12.682 2.553-3.31 6.025-6.16 9.602-8.387 14.659-9.124 31.219-13.112 47.817-16.774 20.344-4.487 41.017-6.954 61.786-7.79 17.896-.72 35.844-.198 53.768-.045 2.445.021 4.882 1.083 7.325 1.664" fill="#FF499E"/><path d="M38.054 373.966c-12.12 5.121-24.922-2.52-26.17-15.51-.616-6.416-1.227-12.832-1.875-19.244-.652-6.469 1.845-11.664 6.314-16.14 4.346-4.355 8.562-8.869 15.793-10.562 0 10.817-.169 21.047.063 31.267.136 5.958.51 11.972 1.54 17.827.717 4.08 2.73 7.933 4.335 12.362" fill="#FFF"/><path d="M705.458 264.801c1.606-2.947 3.436-5.562 7.1-6.256 15.504-2.932 30.828-3.503 45.721 2.932-4.395 16.462-18.848 21.504-29.442 18.162-8.239-2.598-16.133-6.115-22.173-12.675-.547-.594-.69-1.559-1.021-2.351l-.185.188z" fill="#FF499E"/><path d="M338.746 384.1c-21.894 1.752-20.171-.543-23.303-17.563-.599-3.259-.457-6.679-.435-10.023.045-7.309 1.717-9.739 8.476-12.406 2.639-1.041 5.375-1.835 8.458-2.874 3.265 14.184.123 28.936 6.804 42.866m275.756 52.803l13.983-6.964c1.866 13.645.016 25.93-6.161 37.313-3.483 6.419-9.776 9.62-16.664 11.423-3.123.817-6.063.02-9.006-2.3 14.279-9.62 19.301-23.181 17.848-39.472M432.31 266.932c-14.468-3.159-28.247-8.187-39.549-18.368-6.394-5.761-12.635-11.528-17.559-18.793-5.508-8.125-5.387-16.155-1.452-24.389 2.464-5.154 5.359-10.251 8.896-14.71 8.485-10.7 17.851-20.618 29.009-28.659 1.025-.739 2.197-1.274 3.831-2.206-7.131 7.68-13.582 14.909-20.347 21.832-6.651 6.805-11.067 15.034-15.137 23.396-5.423 11.147-2.373 21.327 7.779 31.202 11.218 10.915 22.991 20.892 37.725 26.83 2.399.966 4.543 2.561 6.804 3.865" fill="#FFF"/><path d="M603.138 490.022c-5.852 5.552-10.836 6.93-16.949 4.633-5.49-2.063-10.239-4.792-13.947-9.55-6.36-8.166-13.07-16.284-14.382-26.86-2.307-18.587-1.81-36.853 11.068-52.305 3.731-4.477 8.361-7.879 13.995-9.653 3.014-.948 3.052-.829 6 3.465-2.361 1.169-4.693 2.293-6.999 3.471-8.025 4.099-13.619 10.263-16.618 18.877-3.328 9.559-5.388 19.341-5.199 29.447.295 15.83 14.1 38.161 37.422 38.067 1.339-.006 2.681.188 5.609.408m102.504-225.409l-4.711 3.361c-3.555-.977-5.503-3.389-5.766-7.573-.291-4.649 2.269-7.047 5.955-8.801 12.841-6.111 26.458-8.122 40.487-6.906 6.14.533 12.259 1.899 18.237 3.461 2.61.682 5.149 2.472 7.183 4.343 4.427 4.073 4.209 5.412-.884 10.654-2.895-2.242-5.603-4.918-8.806-6.711-10.206-5.718-21.417-6.137-32.737-5.368-3.328.227-6.748.453-9.91 1.399-3.113.933-6.232 2.4-8.84 4.322-2.947 2.172-3.097 5.209-.411 8.027.018-.02.203-.208.203-.208" fill="#FFF"/><path d="M585.831 409.971c-8.084 10.159-12.221 21.582-13.385 34.359-1.214 13.327 4.388 24.003 13.718 35.156-2.607-.862-3.563-.944-4.221-1.43-9.746-7.203-16.21-16.614-15.961-28.943.157-7.759 1.974-15.59 3.888-23.177 2.063-8.173 8.071-13.167 15.961-15.965m102.428-115.719c-4.479 1.304-8.878 3.165-13.449 3.817-20.345 2.901-40.822 3.75-61.36 3.066-1.072-.036-2.138-.255-3.195-1.078l77.289-7.626.715 1.821z" fill="#FFF"/><path d="M809.033 199.338c-9.608-1.8-19.094-1.957-29.126-6.676 2.64-1.849 3.759-3.143 5.126-3.506 8.235-2.189 16.156-.01 23.838 2.588 4.267 1.443 1.911 4.435.162 7.594" fill="#FF499E"/><path d="M914.948 95.726c-2.66 1.914-5.247 3.946-8.018 5.685-1.1.69-2.652 1.137-3.924 1-5.587-.602-11.147-1.456-17.488-2.326 3.879-5.369 7.84-8.607 14.306-7.55 4.842.791 9.743 1.22 14.617 1.811l.507 1.38" fill="#FFF"/><path d="M509.081 202.006c1.038 3.207.274 5.685-2.144 7.221-5.401 3.428-10.968 6.594-16.022 9.602-3.332-1.491-4.068-3.682-2.443-5.558 4.544-5.25 9.638-9.973 16.655-11.733 1.235-.31 2.701.298 3.954.468" fill="#FF499E"/><path d="M544.648 183.884c.791 3.546-.183 6.289-3.135 7.431-5.089 1.97-10.367 3.488-15.644 4.903-.965.259-2.642-.6-3.34-1.466-.402-.498.183-2.679.869-3.026a361.999 361.999 0 0117.944-8.453c.846-.371 2.183.378 3.306.611" fill="#FFF"/><path d="M592.453 438.034l12.206-6.689c3.411 4.94 2.446 9.739 1.915 14.737l-12.963-1.465-1.158-6.583" fill="#FF499E"/><path d="M875.475 91.131c-4.64 6.223-9.734 8.157-16.15 7.086-3.186-.531-6.449-.598-10.549-.95 3.126-4.261 6.087-6.49 10.849-6.202 4.947.298 9.926.066 15.85.066" fill="#FFF"/><path d="M584.708 428.783c3.873-11.802 10.237-13.896 16.476-4.547-7.799 7.924-10.552 8.743-16.476 4.547" fill="#FF499E"/><path d="M944.98 100.292c-10.893 7.597-11.341 7.699-20.587 4.943 5.682-8.295 9.626-9.299 20.587-4.943M478.193 224.953c-1.021 8.635-9.374 9.935-12.204 16.27-3.911-3.302-2.06-6.01-.459-8.035 3.031-3.836 5.224-9.29 12.663-8.235m356.774-18.693c-3.755-1.647-7.079-2.894-10.16-4.585-.944-.519-1.643-2.26-1.637-3.437.004-.67 1.604-1.779 2.585-1.903 2.092-.264 4.319-.349 6.365.086 5.933 1.258 6.728 3.967 2.847 9.839" fill="#FFF"/><path d="M605.331 453.711l-3.587 8.394-10.303-7.884c2.907-4.302 3.297-4.317 13.89-.51" fill="#FF499E"/><path d="M813.189 97.668c6.608-5.257 14.665-4.112 23.457-5.402-7.113 8.326-15.908 3.953-23.457 5.402" fill="#FFF"/><path d="M582.392 454.002c-1.961-6.648-1.412-12.281.808-18.024 5.717 6.514 5.642 12.967-.808 18.024" fill="#FF499E"/><path d="M966.695 105.677c-6.945 1.847-11.188 7.814-19.234 5.084 5.622-4.594 10.094-9.869 19.234-5.084" fill="#FFF"/><path d="M596.801 467.609l-5.571 3.194c-2.407-3.528-4.742-6.953-7.539-11.057 7.253-1.44 8.63 5.379 13.357 6.274l-.247 1.589" fill="#FF499E"/><path d="M1059.52 143.086c2.5 5.497-1.06 7.757-4.98 11.083-.93-2.928-1.66-5.205-2.52-7.89 2.78-1.184 5.12-2.181 7.5-3.193m-24.62-18.211c-2.23-1.205-4.42-2.387-7.03-3.801 1.18-1.052 1.77-1.769 2.52-2.197 2.16-1.233 4.61-3.804 6.9-1.424 2.75 2.87-.37 4.93-2.39 7.422m12.23 12.482c-1.75-2.422-2.98-4.126-4.74-6.578 2.67-1.445 5.09-2.748 7.84-4.235 1.92 4.907-.42 7.452-3.1 10.813m-26.63-20.405l-7.26-2.304c2.95-3.613 5.53-6.249 11.05-3.738-1.29 2.052-2.41 3.844-3.79 6.042m-603.043 40.691l7.222-4.819c-1.731 2.707-3.566 5.267-7.222 4.819" fill="#FFF"/><path d="M172.06 245.717c.292 2.147.363 2.855.488 3.553.969 5.423-1.008 8.89-6.225 11.155-5.809 2.521-11.285 5.806-17.092 8.856-1.898-9.023-1.901-9.03 4.409-12.749 5.873-3.46 11.756-6.903 18.42-10.815m25.858-13.482c5.649-3.182 11.151-6.279 17.366-9.778v9.092l-17.366 10.483v-9.797zm-66.367 45.836c-1.838-8.325-.059-9.624 9.728-13.851 2.035 8.376 1.52 9.136-9.728 13.851m49.945-27.487v-10.213l7.974-3.992c1.839 10.153 1.226 11.275-7.974 14.205m245.376 255.897l-5.805-10.313c3.14-3.413 6.115-3.542 8.887-1.757 2.623 1.688 1.709 5.28-3.082 12.07m13.966-1.977c-1.233-1.884-2.876-3.632-3.563-5.698-.496-1.492-.327-4.08.647-4.955 1.095-.983 3.802-1.296 5.114-.597 1.325.706 2.583 3.07 2.463 4.595-.173 2.183-1.624 4.266-2.53 6.392l-2.131.263M111.306 282.358c1.067 7.327.105 8.385-8.663 9.631.069-5.993 4.879-7.117 8.663-9.631m5.849 3.108c-.9-7.112-.9-7.112 5.55-9.806 1.634 7.44 1.608 7.486-5.55 9.806M555.408 70.747c-.94 4.413-2.938 6.87-6.341 8.146-7.379 2.769-14.732 5.612-22.152 8.266-20.261 7.246-40.552 14.408-60.828 21.608-.901.319-1.762.769-2.68 1.011-2.618.691-5.638 2.939-7.459-.974-1.729-3.717 1.618-5.392 3.867-6.572 9.288-4.868 18.476-10.19 28.277-13.764 18.387-6.706 37.168-12.336 55.803-18.355 2.262-.73 4.642-1.518 6.96-1.5 1.554.014 3.097 1.405 4.553 2.134m237.666-27.541c-.438-4.63-.75-7.914-1.123-11.839 1.761-.184 3.522-.525 5.285-.528 9.752-.015 19.504.052 29.256.088.952.004 1.976-.247 2.843.02 2.543.783 6.429.005 6.642 3.983.189 3.501-2.733 5.3-5.481 6.855-.396.224-.916.298-1.382.313-11.87.375-23.739.733-36.04 1.108m-381.37 92.852c-3.849-3.212-2.421-5.791-.782-7.727 2.447-2.89 5.112-5.836 8.269-7.833 5.624-3.556 11.686-6.42 17.567-9.571.209-.112.433-.204.66-.277 2.774-.89 5.931-1.938 7.873.874 2.095 3.035-.925 5.148-2.516 7.371-.27.377-.674.686-1.07.943-9.602 6.212-19.708 11.448-30.001 16.22m-8.635 5.465c-6.425 12.332-18.614 16.387-28.993 23.021-2.506-3.79-1.006-6.348.551-8.716 4.842-7.368 12.019-12.076 19.466-16.323 2.823-1.61 5.969-1.573 8.976 2.018m560.672-90.591l-22.543-2.82V36.369c7.44 1.145 14.405 2.034 21.26 3.451 1.143.236 2.413 2.711 2.552 4.247.18 2.016-.705 4.127-1.269 6.865m5.915.806l.624-10.778c6.061.99 11.873 1.618 17.483 3.041 1.834.465 4.327 2.962 4.373 4.591.049 1.727-2.157 3.974-3.936 5.149-1.372.907-3.661.883-5.445.618-4.192-.623-8.326-1.638-13.099-2.621m-206.35-7.345l-17.561 1.211V33.227l17.561-1.335v12.501zM573.201 72.439c-3.316.274-4.531-1.798-5.46-4.484-.927-2.678.443-4.241 2.496-5.081 3.667-1.503 7.416-3.303 11.27-3.731 4.775-.532 6.272 2.548 4.164 6.763-2.634 5.265-7.549 5.851-12.47 6.533m347.043-38.1l14.644.955v11.742l-14.644-.728V34.339zm-149.063 9.92l-1.966-12.065h17.316l-1.244 10.989-14.106 1.076m125.088-10.614h17.551l-.665 11.541-16.164-1.922-.722-9.619m-287.83 23.781c-2.953 8.158-5.686 10.059-12.779 8.608-1.499-.307-3.245-1.988-3.794-3.444-.36-.955.88-3.274 2.003-3.892 4.458-2.452 9.024-5.926 14.57-1.272m118.37-10.957c-3.409 1.77-6.801 2.675-9.052.366-1.46-1.498-2.114-5.144-1.353-7.156 1.505-3.976 5.653-3.349 9.777-3.569l.628 10.359m5.717.262V35.187l7.701-1.419v12.344l-7.701.619m157.511-13.415l-.952 8.815c-2.521 0-5.083.131-7.626-.038-2.441-.162-3.949-1.559-4.163-4.109-.218-2.588 1.618-3.279 3.581-3.591 2.78-.442 5.595-.67 9.16-1.077M379.6 336.305c-.079 3.775-3.745 7.364-7.502 7.343-2.962-.016-4.319-1.959-4.778-4.461-.438-2.388 4.876-6.124 8.593-6.259 2.268-.082 3.732 1.258 3.687 3.377m24.829-11.744c3.46-3.37 7.212-5.848 12.409-4.579.446 6.153-.04 7.064-4.235 8.299-5.004 1.473-5.645 1.193-8.174-3.72m-7.051 3.317c-1.137 3.519-.768 7.173-5.351 7.828-3.35.479-5.516-.459-6.244-3.911 4.126-5.696 4.519-5.846 11.595-3.917M287.163 220.751c2.06 5.874 1.887 8.004-1.297 9.492-1.438.673-3.721.644-5.093-.075-.788-.412-.964-2.945-.637-4.342.761-3.269 1.805-3.858 7.027-5.075m-8.708-9.797c.094 2.383 1.037 5.261.024 7-.888 1.524-3.941 2.33-6.092 2.447-3.054.165-4.252-2.411-2.285-4.717 1.764-2.067 4.078-3.664 6.148-5.469l2.205.739m-11.042-23.252c5.301-3.27 8.243-3.509 10.224-.715.714 1.008 1.161 2.865.7 3.857-.419.903-2.335 1.766-3.411 1.584-2.872-.488-6.283-.504-7.513-4.726m6.559 18.266c-3.672.584-6.995.226-9.143-3.344 2.288-3.587 5.703-5.386 8.286-4.406 2.412.916 2.638 2.934.857 7.75m23.047 29.008c-1.744-3.27-3.172-4.847-3.359-6.56-.271-2.465 1.64-3.869 4.035-3.828 2.466.042 3.182 2.098 2.759 3.991-.385 1.716-1.674 3.229-3.435 6.397" fill="#000"/></g></svg>