<?xml version="1.0" encoding="UTF-8"?>
<svg width="578px" height="894px" viewBox="0 0 578 894" version="1.1" xmlns="http://www.w3.org/2000/svg" xmlns:xlink="http://www.w3.org/1999/xlink">
    <title>window-small</title>
    <g id="window-small" stroke="none" stroke-width="1" fill="none" fill-rule="evenodd">
        <g id="small-window" transform="translate(40.927914, 0.000000)">
            <path d="M342.758751,531.830005 C348.306658,531.424291 353.264864,531.063866 358.443854,530.685514 L358.443854,523.162816 C352.987468,523.874231 347.705635,523.058085 342.758751,525.351786 L342.758751,531.830005 Z M358.670299,508.573142 C351.00796,507.518284 347.680159,507.700384 342.674777,509.396836 L342.674777,519.980318 C348.321754,519.352876 353.433754,518.784876 358.670299,518.202723 L358.670299,508.573142 Z M359.049595,426.938804 L343.689063,426.938804 L343.689063,438.450711 C348.915229,438.872465 353.830977,440.073568 359.049595,438.542233 L359.049595,426.938804 Z M343.072944,459.715801 L358.847681,459.715801 L358.847681,444.062777 L343.072944,444.062777 L343.072944,459.715801 Z M342.766299,480.002364 C348.088704,481.465766 353.187495,480.638298 358.549528,479.63156 C358.72691,474.612969 359.360013,469.828465 358.107017,464.821196 C352.780837,464.732505 347.799987,464.282445 342.766299,465.084439 L342.766299,480.002364 Z M342.896505,502.862949 L358.434419,502.862949 L358.434419,485.912583 C353.086538,485.303068 348.102857,485.05964 342.896505,486.101288 L342.896505,502.862949 Z M176.681023,315.27491 C180.145635,317.113834 183.291336,316.526963 186.644611,315.668359 C190.974432,314.561608 195.725063,312.686831 199.817116,313.512412 C211.498857,315.868385 223.367415,317.822419 234.45285,322.618339 C236.208744,323.377874 238.597741,324.313847 240.099827,323.703389 C243.809754,322.194698 246.999801,323.734525 250.395535,324.305355 C252.033488,324.581807 253.69786,324.702578 255.249953,324.881847 C256.071761,322.097515 255.855694,320.443522 253.239309,319.805701 C250.761621,319.201847 248.366963,318.240399 245.87701,317.707309 C231.086365,314.539907 216.269302,311.496106 201.481488,308.319269 C193.282286,306.557714 185.120824,304.619721 176.681023,302.702485 L176.681023,315.27491 Z M402.079841,527.262417 C423.016585,525.617859 443.641967,523.997833 464.20602,522.382524 L464.20602,514.650364 C443.283429,515.296676 422.739189,515.930723 402.079841,516.568544 L402.079841,527.262417 Z M290.103641,416.712917 C290.111189,416.206246 290.117794,415.700518 290.126286,415.194791 C280.368385,414.314485 270.623694,413.241701 260.849754,412.627468 C255.212213,412.273648 249.488811,413.103947 243.873914,412.609542 C235.05293,411.831136 226.296106,410.346977 217.503429,409.233621 C212.092332,408.548625 206.664252,407.996664 200.909714,407.345635 C200.326618,414.497528 198.085754,420.894605 199.933169,427.998379 C204.889488,427.026551 209.67503,425.986791 214.498312,425.170645 C219.242339,424.367708 223.326844,422.048532 227.673648,420.226591 C232.885661,418.039508 238.642086,417.105422 244.209807,415.832611 C246.667681,415.270272 249.257648,414.85701 251.757037,414.982498 C260.407243,415.412744 269.036691,416.275123 277.687841,416.633661 C281.800651,416.803495 286.023854,418.268784 290.103641,416.712917 L290.103641,416.712917 Z M176.600824,259.860944 C202.856199,267.768598 229.122897,275.680027 255.940611,283.755628 L255.940611,275.254498 C247.425329,271.264346 181.59394,251.096571 176.600824,250.999389 L176.600824,259.860944 Z M200.995575,403.345103 C230.477794,407.013515 259.985488,411.149914 290.126286,411.146142 L290.126286,405.358578 C260.46008,401.051402 231.161847,396.797063 201.663588,392.514419 C201.229568,395.808252 200.840837,398.506724 200.544571,401.215575 C200.48513,401.762817 200.77196,402.349688 200.995575,403.345103 L200.995575,403.345103 Z M254.809329,305.437754 C228.597355,298.241515 202.873183,291.179256 176.739522,284.005661 L176.739522,297.466884 C202.836385,302.91289 228.690764,308.30889 254.809329,313.758671 L254.809329,305.437754 Z M255.412239,289.132757 C228.864372,281.347761 202.885449,273.729767 176.686684,266.048558 L176.686684,278.511535 C202.929794,285.395468 228.926645,292.216186 255.412239,299.165223 L255.412239,289.132757 Z M402.897874,286.809807 C404.554698,287.224013 405.689754,287.552359 406.843681,287.789183 C421.887189,290.872611 436.926924,293.976797 451.982698,296.99701 C456.334219,297.869767 460.734804,298.490605 465.371269,299.270897 L465.371269,285.202047 C454.667017,282.620571 444.377914,279.973993 434.010498,277.684066 C423.548731,275.371495 413.186033,272.436199 401.81188,271.199243 C402.200611,276.78489 402.535561,281.606286 402.897874,286.809807 L402.897874,286.809807 Z M200.902166,371.058738 C231.415654,374.868678 260.753515,381.519561 291.021688,384.111415 L291.021688,374.493156 C261.099787,368.525382 231.056173,364.133289 200.902166,359.67798 L200.902166,371.058738 Z M290.302724,389.962193 C261.480027,385.18703 233.186645,380.496784 204.889488,375.827296 C203.939362,375.669728 202.954326,375.723508 201.664532,375.663123 L201.664532,388.196864 C224.658153,391.491641 247.215867,394.787362 269.796226,397.91891 C276.512213,398.85111 283.291415,399.323814 290.302724,400.032399 L290.302724,389.962193 Z M292.570007,358.45612 C260.769555,356.211482 231.44113,345.64404 200.967269,342.089794 L200.967269,354.945276 C231.34489,359.693076 261.214897,364.360678 291.348146,369.069794 C291.737821,365.685382 292.110512,362.449103 292.570007,358.45612 L292.570007,358.45612 Z M401.532598,511.148012 C422.930724,509.594032 443.479681,508.101381 464.42303,506.57948 C464.639096,500.492823 464.747601,494.911892 464.357927,488.946005 C443.404199,489.664025 423.206233,490.355627 403.147907,491.04251 C402.59406,497.937766 402.085502,504.260304 401.532598,511.148012 L401.532598,511.148012 Z M465.192944,442.02194 C443.925967,441.192585 423.188306,440.383987 402.300625,439.569728 L402.300625,458.702458 C423.527973,458.476013 444.249595,460.366831 465.192944,459.813927 L465.192944,442.02194 Z M200.28699,337.259907 C231.500571,340.863216 261.268678,350.349382 292.467163,353.790405 C292.917223,350.345608 293.314445,347.311243 293.785262,343.708877 C262.410339,336.197502 231.398671,328.77293 200.28699,321.324771 L200.28699,337.259907 Z M403.246977,292.703987 L403.246977,316.047654 C424.284678,318.958419 444.77608,321.794645 465.789249,324.702578 C465.592997,317.792226 466.127973,311.396093 465.505249,305.552864 C444.311867,301.178698 423.923309,296.970591 403.246977,292.703987 L403.246977,292.703987 Z M401.942086,411.388625 C401.743947,419.664252 401.799615,427.209595 401.86,435.206884 C423.455322,435.875841 444.188266,436.662738 465.002352,436.032465 L465.002352,418.325395 C444.008053,416.015654 423.357196,413.744598 401.942086,411.388625 L401.942086,411.388625 Z M402.327987,487.202377 C422.940159,486.187148 443.477794,485.176637 464.206963,484.15669 C465.9421,477.811507 465.303336,471.84194 465.239176,465.974179 C451.71285,464.006937 408.573156,462.912452 402.327987,464.426804 L402.327987,487.202377 Z M403.410206,320.614299 L403.410206,344.871296 C424.237502,347.168771 444.674179,349.424731 465.449581,351.716545 L465.449581,330.050458 C445.015734,326.942498 424.672465,323.846804 403.410206,320.614299 L403.410206,320.614299 Z M465.186339,379.75612 L465.186339,357.893781 C444.755322,354.197063 424.179947,351.871282 403.060159,349.33604 L403.060159,375.180983 C423.786498,376.707601 444.26186,378.214405 465.186339,379.75612 L465.186339,379.75612 Z M10.1249302,339.730047 C9.99189369,342.26812 9.77299668,344.011748 9.83243854,345.74594 C10.0334086,351.649555 10.5438538,357.548452 10.5617807,363.450179 C10.748598,422.606153 10.8599336,481.763919 10.9929701,540.919892 C10.9939136,541.51148 10.9825914,542.103068 10.9948571,542.694656 C11.1269502,549.182311 11.7751495,549.743706 18.8053289,549.405926 L18.8053289,340.687721 C15.880412,340.365037 13.4008372,340.091415 10.1249302,339.730047 L10.1249302,339.730047 Z M465.146711,385.116266 C444.335455,383.140532 423.852545,381.196877 402.815787,379.199442 C402.411017,388.907336 402.029834,398.05289 401.632611,407.567362 C423.217555,409.26287 443.980691,411.846233 465.146711,412.946379 L465.146711,385.116266 Z M124.69204,546.748025 C124.69204,543.883494 124.593914,541.730377 124.709023,539.588583 C125.32986,528.006856 126.378113,516.43645 126.586631,504.848118 C127.185767,471.549449 127.38485,438.24408 127.876425,404.942485 C128.123628,388.207243 128.663322,371.477661 129.072811,354.745249 C129.18792,350.02198 129.006764,345.264744 129.52287,340.584877 C129.952173,336.682472 129.680439,332.089409 135.718977,330.1901 C129.925754,328.871056 125.092093,327.77091 119.552678,326.509422 C119.552678,329.661728 119.597967,331.798804 119.54513,333.933993 C119.282831,344.358963 119.089409,354.786764 118.695017,365.207017 C117.996811,383.680226 116.781555,402.143056 116.478684,420.621927 C115.822937,460.622525 115.605927,500.63152 115.213422,540.636836 C115.193608,542.77863 115.211535,544.920424 115.211535,547.602856 C118.555375,547.299985 121.42085,547.042404 124.69204,546.748025 L124.69204,546.748025 Z M36.8067774,550.942922 C37.008691,549.891839 37.2181528,549.31346 37.2162784,548.736969 C37.180412,538.501647 37.1077608,528.267268 37.0643588,518.031946 C36.9237741,484.521833 36.7095947,451.011814 36.6841196,417.501701 C36.6671362,394.817555 36.9284917,372.132465 37.0407708,349.448319 C37.0511495,347.533914 36.8850897,345.618565 36.7841329,343.327694 C32.0080266,342.650246 27.6083854,342.026578 22.917196,341.361395 C22.7728372,342.77196 22.568093,343.717369 22.5963987,344.655229 C22.917196,355.286831 23.4153754,365.912771 23.5880399,376.546259 C23.8484518,392.52291 23.9729967,408.503336 24.0022458,424.482817 C24.0626312,456.84089 24.0324385,489.199813 24.0041329,521.557886 C24.0003588,525.498032 23.6814485,529.437235 23.6748439,533.376437 C23.6663522,539.198909 23.3351761,545.049686 23.8984585,550.942922 L36.8067774,550.942922 Z M93.3567442,548.748291 C93.8266179,539.570656 94.6654086,531.140291 94.6059668,522.715587 C94.4700997,503.201673 93.65301,483.691534 93.5652625,464.179601 C93.4501528,438.527136 93.7445316,412.873728 93.9247442,387.220319 C93.9539934,383.085807 94.4304718,378.953183 94.4795349,374.816784 C94.5729435,366.975176 94.5059535,359.131681 94.5059535,350.983429 C88.7136744,350.233329 83.1176478,349.510591 76.8054884,348.692558 L76.8054884,549.491786 C82.1967708,549.249301 87.4436944,549.014364 93.3567442,548.748291 L93.3567442,548.748291 Z M71.0839734,549.022856 C71.2132359,547.380185 71.3755216,546.213992 71.3859003,545.045912 C71.6623522,514.088025 71.9444651,483.130138 72.179402,452.171402 C72.3482924,429.885422 72.4464186,407.598498 72.595495,385.311575 C72.6058738,383.738724 72.8530764,382.166817 72.8568505,380.593967 C72.8813821,369.987841 72.8700598,359.381714 72.8700598,348.16513 C62.9574219,346.834764 52.5881196,345.442126 41.9659535,344.016465 C41.4036146,413.119043 40.9667641,481.463879 42.0706844,549.686151 L53.281608,549.686151 C53.4231362,548.350125 53.5986312,547.40566 53.6127841,546.458364 C53.8939535,527.330351 54.2968372,508.203281 54.3930764,489.074324 C54.6157475,444.69305 54.6836811,400.311681 54.833701,355.930312 C54.8403056,354.164983 54.8695548,352.360027 55.2431894,350.651309 C55.4366113,349.767229 56.4131561,349.055814 57.9492093,347.107442 C60.1730897,370.698312 58.8927309,392.905037 59.1059668,415.066472 C59.3201462,437.355282 59.2805183,459.648811 59.1163455,481.93847 C58.9531163,504.165952 58.4973953,526.390603 58.1633887,549.022856 L71.0839734,549.022856 Z M381.796957,182.361967 C402.153435,165.596532 423.663841,150.316199 444.712864,133.005409 C410.382831,121.580306 377.324664,109.510777 342.693648,100.359561 C342.693648,103.340146 342.607787,105.678193 342.713462,108.006804 C342.864425,111.341209 343.340904,114.667123 343.357887,117.998698 C343.536213,152.914658 343.646605,187.831561 343.796625,222.747522 C343.802286,224.212811 343.998538,225.677156 344.174033,228.047282 C378.337063,202.740146 410.376226,176.138498 444.587375,152.420252 C443.343814,154.150671 441.941741,155.694272 440.322658,156.959535 C416.89596,175.291216 393.47398,193.631389 369.96897,211.863056 C362.653847,217.537395 355.051894,222.842817 347.675442,228.440731 C346.183734,229.572013 344.255176,231.14109 344.027787,232.722432 C343.48998,236.459721 343.855123,240.327216 343.855123,244.197542 C344.926963,244.074884 345.165674,244.119229 345.294937,244.021103 C363.814379,229.979615 382.326272,215.928691 400.840053,201.878711 C401.621289,201.285236 402.400638,200.684213 403.217728,200.142631 C403.699867,199.822777 404.245223,199.591615 404.782086,199.369887 C404.920784,199.311389 405.167043,199.388757 405.30291,199.488771 C405.412359,199.568027 405.429342,199.773714 405.793542,200.715349 C399.201156,205.892452 392.448372,211.276186 385.609728,216.548585 C372.817462,226.409329 359.94594,236.167229 347.198963,246.084585 C345.767641,247.19794 344.011748,249.037807 343.959854,250.592731 C343.65604,259.779801 343.809834,268.981967 343.809834,278.710618 C346.31394,277.959575 348.173621,277.45196 350.000279,276.845276 C363.842684,272.247495 377.688864,267.662924 391.508625,263.00004 C395.7139,261.581927 399.873887,261.125262 404.241449,262.228239 C422.379708,266.80715 440.537781,271.314352 458.693023,275.83099 C460.875389,276.373515 463.084173,276.810365 465.676027,277.383083 C466.086458,231.387349 465.442033,186.133223 466.033621,140.36299 C460.648,138.471229 454.740611,136.395482 448.830392,134.317847 C427.040704,151.333316 405.654844,168.566738 381.796957,182.361967 L381.796957,182.361967 Z M227.032053,116.221103 L227.88594,117.172173 C226.290445,118.755402 224.786472,120.44808 223.083415,121.907708 C208.726791,134.217834 194.370166,146.528904 179.914472,158.72109 C177.477355,160.77608 176.298897,162.854658 176.320598,166.185289 C176.471561,189.667654 176.392306,213.151907 176.419668,236.636159 C176.421555,238.149568 176.703668,239.66392 176.854631,241.169781 C192.059482,245.851535 206.909568,250.466299 221.786073,254.992372 C234.406618,258.833449 247.046977,262.616027 259.706206,266.326897 C262.673581,267.19588 264.389847,268.400757 264.336066,271.994631 C264.08509,288.565701 264.110565,305.140545 264.038857,321.714445 C264.031309,323.472226 264.037914,325.23095 264.037914,327.130259 C265.656997,327.646365 266.924146,328.145488 268.237528,328.45402 C276.674498,330.439189 285.124678,332.374352 293.564478,334.345369 C295.097701,334.703907 296.624319,335.108678 298.124518,335.582326 C300.428598,336.308837 301.396651,337.949621 300.347455,340.138591 C298.281143,344.453316 298.904811,349.00392 298.770831,353.506405 C298.520797,361.89903 299.066153,370.282219 298.834047,378.681449 C298.512306,390.312239 298.552877,401.953409 298.466073,413.590804 C298.438711,417.223362 299.200133,418.052718 302.89402,418.411256 C304.26307,418.544292 305.658538,418.393329 307.034193,418.490512 C312.730233,418.890565 318.434764,419.230233 324.114764,419.803894 C327.657688,420.160545 327.916213,420.710618 327.554844,425.248013 C303.950764,423.941236 280.346684,421.611681 256.524651,421.843787 C256.759588,427.035987 256.969993,431.682831 257.210591,436.983535 C280.976013,437.482658 304.521595,437.977063 328.371934,438.479017 C328.123787,440.387761 327.984146,441.456771 327.806764,442.822047 C304.06493,442.899415 280.729754,440.925568 257.53988,441.049169 L257.53988,457.529661 C281.285488,458.255229 304.631987,458.966645 328.209648,459.686551 C328.115296,461.335827 328.053023,462.43786 327.949236,464.256027 C304.377236,463.326658 281.083575,462.407668 257.329475,461.469807 C257.748399,468.269767 258.139017,474.607308 258.516425,480.730763 L282.148811,480.730763 C289.845116,480.730763 297.541422,480.712836 305.237728,480.73548 C312.851947,480.758125 320.465223,480.821341 327.858658,480.864743 C328.541767,483.634922 328.45685,485.284198 325.862166,485.403082 C324.286485,485.475733 322.705143,485.479507 321.127575,485.460637 C302.384518,485.245514 283.642405,485.017181 264.900292,484.799228 C262.798126,484.774696 260.696904,484.795454 258.792877,484.795454 L258.792877,506.20962 C282.262977,505.518019 305.049967,504.847175 328.080385,504.17067 L328.080385,508.74958 C304.989581,509.297766 282.034645,509.843122 258.702299,510.397912 L258.702299,525.223467 C270.307615,524.358258 281.410033,523.145833 292.537927,522.807108 C303.79697,522.46461 315.077714,520.566245 326.342419,521.967374 C326.834937,524.996078 325.353608,525.811281 323.456186,526.069806 C320.729409,526.441553 317.985648,526.780278 315.239056,526.892557 C299.889847,527.515281 284.536864,528.038936 269.188598,528.659773 C265.727761,528.799414 262.277302,529.186258 258.495668,529.486298 C258.734379,531.404477 258.824957,532.532929 259.025927,533.641567 C259.222179,534.717181 259.531654,535.772039 259.840186,537.035414 C284.541581,535.615414 308.913688,535.664477 333.672638,532.307427 L333.672638,97.4525714 C281.218498,82.7496744 228.577542,67.9939402 175.526153,53.1230963 C175.391229,55.4177409 175.221395,56.7773555 175.24404,58.131309 C175.614844,79.6181262 176.060186,101.102113 176.375322,122.58893 C176.514963,132.059056 176.385701,141.5339 176.414007,151.005914 C176.418724,152.477807 176.612146,153.950645 176.751787,155.884864 C193.843681,142.400997 210.437395,129.311522 227.032053,116.221103 L227.032053,116.221103 Z M48.8706445,96.4986711 L48.4828571,96.0731429 C49.745289,94.5899269 50.879402,92.9708439 52.2890233,91.643309 C67.4957608,77.3112159 82.7430698,63.0206379 97.9884917,48.7291163 C102.362658,44.6276279 106.76796,40.5572757 111.841276,35.8396678 C77.0253289,26.8460199 43.0887442,18.3071495 8.25581395,10.9995748 C8.25581395,22.8436013 8.12089037,33.8667641 8.28695017,44.8861528 C8.55962791,63.0140332 9.0181794,81.1390831 9.43238538,99.2641329 C9.46446512,100.666206 9.76261794,102.063561 10.0126512,104.071375 C11.6336213,102.539096 12.6205449,101.590857 13.6225648,100.659601 C30.2313754,85.2283056 46.7986711,69.7526645 63.4867375,54.4091163 C67.1834551,51.009608 71.1585116,47.8308837 77.3451827,45.7400399 C71.4510033,53.7609169 65.0369435,59.5192292 58.8068704,65.361515 C43.8577143,79.3803588 28.6726777,93.150113 13.4961329,106.923641 C10.5032824,109.639096 9.29840532,112.61685 9.32954153,116.724944 C9.60410631,152.632545 9.67581395,188.540146 9.81734219,224.448691 C9.8220598,225.535628 9.94754817,226.621621 10.0588837,228.362419 C11.2967841,227.524571 11.9629103,227.188678 12.4856213,226.700877 C27.6234817,212.58202 42.6660465,198.358432 57.9105249,184.355628 C64.4132757,178.382193 71.3321196,172.860704 78.0622591,167.134472 C78.2169967,167.297701 78.3717342,167.46093 78.5264718,167.625103 C78.3264452,167.95911 78.186804,168.353502 77.9188439,168.617688 C56.4414618,189.837488 34.9961595,211.091256 13.4121595,232.202551 C10.7967176,234.759495 9.70789369,237.287189 9.72770764,240.962206 C9.87584053,268.987628 9.8088505,297.013993 9.8088505,325.039415 L9.8088505,330.706206 C23.6380465,332.560226 37.0313355,334.355748 50.7963721,336.200332 C51.2341661,330.343894 51.8682126,324.913927 52.0078538,319.472638 C52.5079203,299.954007 52.8315482,280.432545 53.2476412,260.91297 C53.3193488,257.562525 53.5467375,254.216797 53.6420332,250.867296 C53.6986445,248.886844 54.4836545,247.612146 56.4112691,246.816757 C63.4820199,243.899389 70.475402,240.795203 77.5442658,237.871229 C90.9998272,232.305395 104.487468,226.815043 117.9619,221.292611 C119.509276,223.524983 120.997209,224.821382 122.721023,225.352585 C134.575429,229.002126 146.484558,232.47806 158.361608,236.055894 C159.623096,236.436133 160.79495,237.115468 161.735641,237.534392 L161.735641,244.838193 C147.66113,240.454591 134.20085,236.260638 120.171628,231.890246 C120.419774,235.868133 120.634897,239.319535 120.856625,242.87095 C122.848399,243.465369 124.52315,243.977701 126.205449,244.464558 C136.991787,247.584784 147.801714,250.629528 158.556917,253.853542 C162.369688,254.996146 162.311189,255.193342 161.260106,260.083615 C147.94513,256.084027 134.64808,252.089156 120.950033,247.973515 L120.950033,265.531508 C134.807535,268.727216 148.547096,271.897449 162.215894,275.050698 L162.215894,279.920213 C148.361223,276.460319 134.9,273.098551 120.90097,269.602804 C120.606591,275.148824 120.349953,279.970219 120.077276,285.098259 C134.521648,288.103375 148.496146,291.011309 162.626326,293.950379 C162.391389,296.057262 162.247973,297.344226 162.098897,298.679309 C148.011176,295.527003 134.264066,292.451123 120.319761,289.330897 L120.319761,303.439375 C134.598073,306.625648 148.546153,309.739269 162.631043,312.884027 C162.400824,314.978645 162.259296,316.270326 162.101728,317.702591 C147.995136,314.668226 134.585807,310.070445 120.237674,307.974884 L120.237674,323.024997 C127.914166,324.565767 135.389688,326.16315 142.913329,327.48691 C144.316346,327.733169 145.923163,326.91608 147.417701,326.520744 C152.284385,325.232837 157.141635,323.91285 162.34893,322.511721 C162.700864,336.780598 163.299056,350.372027 163.325475,363.964399 C163.43398,421.199362 163.370764,478.435175 163.375482,535.671082 C163.375482,537.841181 163.398126,540.012225 163.496252,542.179494 C163.520784,542.721075 163.879322,543.248504 164.234086,544.173155 C165.87204,543.845753 167.488292,543.524012 169.346086,543.152264 C169.346086,535.725806 169.43006,528.838098 169.324385,521.954165 C169.194179,513.490776 168.732797,505.031161 168.73091,496.56966 C168.729023,487.297673 169.295136,478.024743 169.248904,468.753794 C169.088505,436.193807 168.579947,403.633821 168.568625,371.07289 C168.559189,342.270007 169.294193,313.466179 169.249847,284.664239 C169.136625,210.66101 168.7979,136.659668 168.447854,62.6573821 C168.428983,58.6681728 167.482631,54.681794 166.971243,50.7218339 C155.373475,47.603495 144.47014,44.9125714 133.737581,41.6583654 C129.913488,40.4987774 127.342392,41.4139934 124.823189,43.9435748 C124.266512,44.5030831 123.7221,45.0776877 123.132399,45.6013422 C118.688412,49.5396013 114.234047,53.4665382 109.783455,57.3963056 C109.516439,57.105701 109.249422,56.8160399 108.982405,56.5263787 C114.287827,51.1662326 119.592306,45.8070299 125.454405,39.8836013 C122.55402,38.9381927 120.528279,38.3494352 118.557262,37.6144319 C116.614551,36.8898073 115.263429,37.5814086 113.80097,38.8929037 C97.5120133,53.4910698 81.182485,68.0467774 64.8331429,82.5807841 C59.5579136,87.2710299 54.1939934,91.862206 48.8706445,96.4986711 L48.8706445,96.4986711 Z M479.665621,535.163467 C477.635163,535.999427 475.724532,537.086364 473.672372,537.581713 C461.812306,540.443414 450.050365,543.593833 437.700611,544.108995 C418.625435,544.904384 399.579508,546.373447 380.514711,547.449062 C364.394645,548.357673 348.262312,549.072862 332.140359,549.950338 C320.936983,550.559852 309.741156,551.326936 298.538724,551.970417 C282.422432,552.896012 266.301422,553.763108 250.184186,554.673607 C238.390166,555.338789 226.598033,556.049261 214.804013,556.709726 C205.368797,557.238098 195.930751,557.711746 186.494591,558.225022 C174.305236,558.888318 162.11588,559.547839 149.928412,560.246045 C142.06699,560.697049 134.199907,561.101819 126.351694,561.729261 C116.737209,562.498231 107.15386,563.738019 97.5299402,564.303188 C84.152691,565.088198 70.7471362,565.402391 57.3557342,565.977939 C45.9504452,566.469514 34.5451561,566.974298 23.1474153,567.608344 C15.882299,568.013115 11.0609037,564.047494 7.79443189,558.4175 C4.56192691,552.844118 2.57298339,546.848982 2.58147508,539.977314 C2.6607309,472.877927 2.55316944,405.777502 2.27766113,338.67802 C2.03328904,279.085196 1.53039203,219.493316 1.09920266,159.901435 C0.897289037,132.07604 0.555734219,104.253475 0.380239203,76.4299668 C0.350990033,71.7255681 1.01711628,67.0173953 1.05013953,62.3101661 C1.0746711,58.7889435 0.43213289,55.2658339 0.374578073,51.7398937 C0.166059801,38.9174352 0.00849169435,26.0930897 9.25148494e-05,13.2696877 C9.25148494e-05,10.5551761 0.43779402,7.76518272 1.15392691,5.14124917 C2.36352159,0.713302326 4.91952159,-0.575548173 9.54466445,0.221727575 C39.8854884,5.45638538 69.6649169,13.2093023 99.3103654,21.2896213 C164.550166,39.0731163 229.532385,57.803907 294.723123,75.7695017 C350.457887,91.1290897 405.424625,108.771056 459.451615,129.340771 C463.689914,130.954193 467.903681,132.643096 472.074047,134.425409 C478.273927,137.07293 481.453595,141.436718 481.261116,148.593329 C480.907296,161.747907 481.048824,174.919468 481.155442,188.082538 C481.357355,213.139641 481.932904,238.197688 481.896079,263.254791 C481.823455,310.025156 481.423402,356.794578 481.160159,403.564944 C481.02901,426.847282 480.956359,450.131508 480.746897,473.413753 C480.571402,492.938989 480.238339,512.464225 479.96,531.988517 C479.945847,532.954683 479.784505,533.919906 479.665621,535.163467 L479.665621,535.163467 Z" id="Fill-1" fill="#000000"></path>
            <path d="M244.597595,122.859721 C228.168053,135.305714 212.98396,149.213223 197.68004,162.980146 C215.112545,151.707894 229.627681,137.017262 244.597595,122.859721 L244.597595,122.859721 Z M227.032053,116.221103 C210.437395,129.311522 193.843681,142.400997 176.751787,155.884864 C176.612146,153.950645 176.418724,152.478751 176.414007,151.005914 C176.385701,141.5339 176.514963,132.059056 176.375322,122.58893 C176.060186,101.102113 175.614844,79.6181262 175.244983,58.131309 C175.221395,56.7773555 175.391229,55.4177409 175.526153,53.1230963 C228.577542,67.9948837 281.218498,82.7496744 333.672638,97.4525714 L333.672638,532.307333 C308.914631,535.665326 284.541581,535.61532 259.840186,537.03532 C259.531654,535.771944 259.222179,534.717087 259.025927,533.641472 C258.824957,532.532835 258.734379,531.404383 258.495668,529.486203 C262.277302,529.186163 265.728704,528.79932 269.188598,528.659678 C284.537807,528.039785 299.890791,527.515187 315.239056,526.892462 C317.985648,526.781127 320.729409,526.441459 323.45713,526.069712 C325.353608,525.811187 326.834937,524.995984 326.342419,521.96728 C315.077714,520.56615 303.79697,522.464516 292.53887,522.807957 C281.410033,523.145738 270.307615,524.358163 258.702299,525.223373 L258.702299,510.397818 C282.034645,509.843027 304.989581,509.297672 328.080385,508.749486 L328.080385,504.170575 C305.049967,504.84708 282.262977,505.517924 258.792877,506.209526 L258.792877,484.796303 C260.696904,484.796303 262.79907,484.774602 264.900292,484.799134 C283.642405,485.017087 302.385462,485.245419 321.127575,485.461486 C322.705143,485.479413 324.286485,485.475639 325.862166,485.402987 C328.45685,485.284104 328.541767,483.634828 327.858658,480.865592 C320.465223,480.82219 312.851947,480.758031 305.237728,480.735386 C297.541422,480.712742 289.845116,480.730668 282.148811,480.730668 L258.516425,480.730668 C258.139017,474.607213 257.748399,468.269767 257.329475,461.469807 C281.083575,462.407668 304.377236,463.326658 327.949236,464.256027 C328.053023,462.43786 328.116239,461.335827 328.209648,459.686551 C304.631987,458.967588 281.285488,458.255229 257.53988,457.529661 L257.53988,441.049169 C280.729754,440.925568 304.06493,442.899415 327.806764,442.822047 C327.984146,441.456771 328.123787,440.387761 328.371934,438.479017 C304.521595,437.977063 280.976013,437.482658 257.210591,436.983535 C256.969993,431.683774 256.759588,427.035987 256.524651,421.843787 C280.346684,421.611681 303.950764,423.941236 327.554844,425.248013 C327.916213,420.710618 327.657688,420.161488 324.114764,419.803894 C318.434764,419.230233 312.730233,418.890565 307.034193,418.490512 C305.658538,418.394272 304.26307,418.544292 302.89402,418.411256 C299.201076,418.052718 298.438711,417.223362 298.466073,413.590804 C298.553821,401.953409 298.513249,390.312239 298.834047,378.681449 C299.066153,370.282219 298.520797,361.89903 298.771774,353.506405 C298.905754,349.004864 298.281143,344.453316 300.347455,340.138591 C301.396651,337.949621 300.428598,336.309781 298.124518,335.582326 C296.624319,335.108678 295.097701,334.703907 293.564478,334.346312 C285.124678,332.374352 276.675442,330.439189 268.237528,328.45402 C266.92509,328.145488 265.656997,327.646365 264.037914,327.130259 C264.037914,325.23095 264.031309,323.472226 264.038857,321.714445 C264.110565,305.140545 264.08509,288.565701 264.336066,271.994631 C264.390791,268.400757 262.673581,267.196824 259.706206,266.326897 C247.046977,262.616027 234.406618,258.833449 221.786073,254.992372 C206.909568,250.466299 192.059482,245.851535 176.854631,241.170724 C176.703668,239.66392 176.421555,238.149568 176.419668,236.636159 C176.392306,213.151907 176.471561,189.668598 176.320598,166.185289 C176.298897,162.854658 177.477355,160.777023 179.914472,158.72109 C194.37111,146.528904 208.726791,134.217834 223.083415,121.907708 C224.786472,120.44808 226.290445,118.755402 227.88594,117.172173 L227.032053,116.221103 Z" id="Fill-2" fill="#FFFFFF"></path>
            <path d="M98.658392,67.3372492 C98.7225515,67.3485714 98.786711,67.3598937 98.8508704,67.3721595 C100.611482,65.0501528 102.37398,62.7281462 104.135535,60.4061395 C104.199694,60.4712425 104.263854,60.535402 104.328013,60.5995615 C102.43814,62.8451429 100.548266,65.0916678 98.658392,67.3372492 M52.8240944,211.213914 C53.0901674,211.479987 53.3562405,211.747003 53.6223136,212.013076 C56.1943535,209.658047 58.7654498,207.302073 61.3374897,204.947043 C61.0600944,204.647947 60.7836425,204.34885 60.5062472,204.049754 C57.9464731,206.438751 55.384812,208.826804 52.8240944,211.213914 M130.432425,139.251522 C130.102193,138.976957 129.772904,138.702392 129.441728,138.428771 C107.192545,159.611774 84.942513,180.795721 62.6933302,201.978724 C63.0697953,202.373116 63.4462605,202.766565 63.8227256,203.160957 C85.991709,181.821329 111.499721,163.994432 130.432425,139.251522 M78.0623535,167.134472 C71.332214,172.860704 64.4133701,178.381249 57.9096757,184.354684 C42.6661409,198.358432 27.6235761,212.581076 12.4857156,226.700877 C11.9630047,227.188678 11.2968784,227.523628 10.0589781,228.362419 C9.94764252,226.620678 9.82215415,225.535628 9.81743654,224.448691 C9.67496478,188.540146 9.60420066,152.631601 9.32963588,116.724944 C9.29849967,112.61685 10.5033767,109.639096 13.4962272,106.923641 C28.6727721,93.1491694 43.8568651,79.3803588 58.8069648,65.361515 C65.0370379,59.5192292 71.4510977,53.7609169 77.3452771,45.7390963 C71.158606,47.8308837 67.1835495,51.009608 63.4868319,54.4091163 C46.7987654,69.7526645 30.2314698,85.2283056 13.6226591,100.658658 C12.6206392,101.590857 11.6337156,102.539096 10.0127455,104.071375 C9.76271229,102.063561 9.46455947,100.666206 9.43247973,99.2641329 C9.01827375,81.1390831 8.55972226,63.0140332 8.28704452,44.8861528 C8.1200412,33.8667641 8.25590831,22.8436013 8.25590831,10.9995748 C43.0888385,18.3071495 77.0254233,26.8460199 111.841276,35.8396678 C106.76796,40.5572757 102.362658,44.6276279 97.9884917,48.7291163 C82.7431641,63.0206379 67.4958551,77.3112159 52.2881741,91.643309 C50.8794963,92.9708439 49.7453834,94.5899269 48.4829515,96.0731429 C42.6199083,101.354977 36.7578086,106.634924 30.8947654,111.915814 C31.1759349,112.22812 31.4580478,112.540425 31.7401608,112.851787 C35.1415561,109.780625 38.5986193,106.768904 41.9254764,103.618485 C44.330513,101.340824 46.5619415,98.8791761 48.8697953,96.4986711 C54.1940877,91.862206 59.558008,87.2710299 64.8332372,82.5807841 C81.1825794,68.0467774 97.5120133,53.4910698 113.80097,38.8929037 C115.263429,37.5814086 116.614551,36.8888638 118.557262,37.6144319 C120.528279,38.3494352 122.55402,38.9381927 125.454405,39.8836013 C119.592306,45.8070299 114.286884,51.1662326 108.982405,56.5263787 C109.249422,56.8160399 109.516439,57.105701 109.783455,57.3963056 C114.234047,53.4665382 118.688412,49.5396013 123.131455,45.6013422 C123.7221,45.0776877 124.266512,44.5030831 124.823189,43.9435748 C127.342392,41.4130498 129.912545,40.4987774 133.737581,41.6583654 C144.47014,44.9116279 155.373475,47.603495 166.971243,50.7218339 C167.482631,54.681794 168.428983,58.6681728 168.447854,62.6573821 C168.7979,136.659668 169.136625,210.66101 169.249847,284.664239 C169.294193,313.466179 168.559189,342.270007 168.568625,371.07289 C168.579947,403.633821 169.088505,436.193807 169.248904,468.753794 C169.295136,478.023988 168.729023,487.297862 168.73091,496.569849 C168.732797,505.03135 169.194179,513.490965 169.324385,521.954353 C169.43006,528.838287 169.345143,535.725995 169.345143,543.152453 C167.488292,543.523257 165.87204,543.845942 164.234086,544.173344 C163.879322,543.247749 163.520784,542.721264 163.496252,542.179682 C163.398126,540.012413 163.375482,537.84137 163.375482,535.67127 C163.369821,478.435363 163.43398,421.199362 163.325475,363.964399 C163.299056,350.372027 162.700864,336.780598 162.34893,322.511721 C157.141635,323.91285 152.284385,325.232837 147.417701,326.520744 C145.923163,326.91608 144.316346,327.732226 142.913329,327.48691 C135.389688,326.16315 127.914166,324.565767 120.237674,323.024997 L120.237674,307.974884 C134.585807,310.070445 147.995136,314.668226 162.101728,317.702591 C162.259296,316.270326 162.400824,314.978645 162.631043,312.884027 C148.546153,309.739269 134.598073,306.625648 120.319761,303.438432 L120.319761,289.330897 C134.264066,292.451123 148.011176,295.527003 162.098897,298.678365 C162.247973,297.343282 162.391389,296.057262 162.626326,293.950379 C148.496146,291.010365 134.521648,288.102432 120.077276,285.098259 C120.349953,279.970219 120.606591,275.148824 120.90097,269.602804 C134.9,273.098551 148.361223,276.460319 162.215894,279.920213 L162.215894,275.049754 C148.547096,271.897449 134.807535,268.727216 120.94909,265.531508 L120.94909,247.973515 C134.64808,252.089156 147.94513,256.084027 161.260106,260.083615 C162.311189,255.193342 162.369688,254.996146 158.556917,253.853542 C147.800771,250.629528 136.991787,247.584784 126.205449,244.463615 C124.52315,243.977701 122.848399,243.465369 120.856625,242.87095 C120.634897,239.318591 120.419774,235.868133 120.171628,231.890246 C134.20085,236.260638 147.66113,240.453648 161.735641,244.838193 L161.735641,237.534392 C160.794007,237.114525 159.623096,236.436133 158.361608,236.05495 C146.484558,232.477116 134.575429,229.002126 122.721023,225.352585 C120.997209,224.821382 119.509276,223.524983 117.9619,221.292611 C104.487468,226.8141 90.9999216,232.305395 77.5443601,237.871229 C70.4754963,240.795203 63.4821143,243.899389 56.4113635,246.816757 C54.4837488,247.611203 53.6987389,248.886844 53.6421276,250.867296 C53.5458884,254.215854 53.3194432,257.562525 53.2477355,260.91297 C52.8316425,280.432545 52.5080146,299.954007 52.0079482,319.472638 C51.868307,324.913927 51.2342605,330.343894 50.7955229,336.200332 C37.0314299,334.355748 23.6381409,332.560226 9.80894485,330.706206 L9.80894485,325.039415 C9.80894485,297.013993 9.87593488,268.987628 9.72780199,240.962206 C9.70798804,237.287189 10.796812,234.759495 13.4122538,232.201608 C34.9962538,211.090312 56.4415561,189.837488 77.9189382,168.617688 C78.1868983,168.353502 78.3265395,167.95911 78.5265661,167.625103 C80.3437887,166.051309 82.1628983,164.476571 83.9801209,162.901834 C83.7178219,162.611229 83.4555229,162.318738 83.1922804,162.027189 C81.4826193,163.729302 79.7720146,165.432359 78.0623535,167.134472" id="Fill-3" fill="#FFFFFF"></path>
            <path d="M381.796957,182.361967 C405.655787,168.566738 427.041648,151.332372 448.830392,134.317847 C454.740611,136.394538 460.648944,138.470286 466.033621,140.362047 C465.442977,186.133223 466.087402,231.387349 465.67697,277.383083 C463.085116,276.810365 460.876332,276.373515 458.693967,275.830047 C440.537781,271.313409 422.380651,266.80715 404.241449,262.227296 C399.874831,261.125262 395.7139,261.581927 391.509568,263.00004 C377.688864,267.66198 363.842684,272.247495 350.001223,276.845276 C348.173621,277.451017 346.31394,277.958631 343.810777,278.709674 C343.810777,268.981967 343.65604,259.779801 343.960797,250.591787 C344.012691,249.037807 345.767641,247.19794 347.199907,246.084585 C359.946884,236.166286 372.818405,226.409329 385.610671,216.547641 C392.449316,211.276186 399.201156,205.891508 405.793542,200.715349 C405.429342,199.773714 405.412359,199.567083 405.303854,199.487827 C405.167987,199.388757 404.920784,199.311389 404.782086,199.368944 C404.245223,199.591615 403.699867,199.822777 403.218671,200.142631 C402.400638,200.684213 401.622233,201.285236 400.840053,201.878711 C382.327216,215.927748 363.815322,229.979615 345.29588,244.021103 C345.166618,244.119229 344.927907,244.07394 343.855123,244.197542 C343.855123,240.327216 343.48998,236.459721 344.027787,232.722432 C344.255176,231.140146 346.184678,229.572013 347.676385,228.440731 C355.052837,222.841874 362.653847,217.536452 369.969914,211.863056 C393.474924,193.630445 416.89596,175.291216 440.323601,156.959535 C441.942684,155.693329 443.344757,154.150671 444.588319,152.420252 C410.377169,176.137555 378.337063,202.740146 344.174033,228.047282 C343.999482,225.676213 343.802286,224.211867 343.796625,222.747522 C343.647548,187.831561 343.536213,152.914658 343.357887,117.998698 C343.340904,114.667123 342.865369,111.341209 342.714405,108.00586 C342.608731,105.678193 342.693648,103.340146 342.693648,100.359561 C377.324664,109.510777 410.383774,121.580306 444.713807,133.004465 C423.664784,150.316199 402.154379,165.595588 381.796957,182.361967" id="Fill-4" fill="#FFFFFF"></path>
            <path d="M71.0839734,549.022573 L58.1633887,549.022573 C58.4973953,526.391264 58.9531163,504.165669 59.1163455,481.938187 C59.2805183,459.648811 59.3201462,437.355282 59.1059668,415.066472 C58.8927309,392.905037 60.1730897,370.698312 57.9492093,347.107442 C56.4131561,349.056757 55.4375548,349.767229 55.2431894,350.651309 C54.8695548,352.360027 54.8403056,354.165927 54.833701,355.931256 C54.6836811,400.312625 54.6157475,444.693993 54.3930764,489.074041 C54.2968372,508.202998 53.8939535,527.331011 53.6127841,546.458081 C53.5986312,547.405377 53.4231362,548.349842 53.281608,549.685868 L42.0706844,549.685868 C40.9667641,481.463596 41.4036146,413.119043 41.9659535,344.017409 C52.5881196,345.442126 62.9574219,346.834764 72.8700598,348.16513 C72.8700598,359.381714 72.8813821,369.987841 72.8568505,380.593967 C72.8530764,382.166817 72.6058738,383.738724 72.595495,385.311575 C72.4464186,407.598498 72.3482924,429.885422 72.179402,452.172346 C71.9444651,483.129855 71.6623522,514.088686 71.3859003,545.045629 C71.3755216,546.213709 71.2132359,547.380845 71.0839734,549.022573" id="Fill-5" fill="#FFFFFF"></path>
            <path d="M93.3572159,548.748008 C87.4432226,549.014081 82.1972425,549.249018 76.8059601,549.491503 L76.8059601,348.693502 C83.1181196,349.510591 88.7132027,350.234272 94.506897,350.983429 C94.506897,359.131681 94.5729435,366.97612 94.4795349,374.816784 C94.4304718,378.953183 93.9544651,383.085807 93.9252159,387.221262 C93.7450033,412.873728 93.4496811,438.52808 93.5657342,464.179601 C93.6534817,483.692194 94.4700997,503.202334 94.6069103,522.715304 C94.6654086,531.140008 93.8270897,539.570373 93.3572159,548.748008" id="Fill-6" fill="#FFFFFF"></path>
            <path d="M36.8071548,550.942828 L23.8988359,550.942828 C23.33461,545.049592 23.665786,539.198815 23.6752213,533.376343 C23.6808824,529.43714 24.0007362,525.497938 24.0045103,521.557791 C24.0328159,489.200662 24.0630086,456.841834 24.0026233,424.482817 C23.9724306,408.503336 23.8478857,392.52291 23.5884173,376.546259 C23.4148093,365.913714 22.9166299,355.286831 22.5958326,344.655229 C22.5675269,343.717369 22.7722711,342.77196 22.9166299,341.361395 C27.6078193,342.026578 32.008404,342.650246 36.7845103,343.327694 C36.8854671,345.618565 37.0505834,347.533914 37.0411482,349.448319 C36.9279256,372.132465 36.6675136,394.817555 36.684497,417.501701 C36.7090286,451.011814 36.9241515,484.522682 37.0647362,518.031851 C37.1071947,528.267173 37.1807894,538.501552 37.2166558,548.736874 C37.2185302,549.313366 37.0090684,549.891745 36.8071548,550.942828" id="Fill-7" fill="#FFFFFF"></path>
            <path d="M124.69204,546.747648 C121.42085,547.042027 118.555375,547.300551 115.210591,547.602478 C115.210591,544.920047 115.192664,542.778252 115.213422,540.636458 C115.605927,500.631143 115.822937,460.623468 116.477741,420.621927 C116.781555,402.143056 117.995867,383.681169 118.695017,365.20796 C119.089409,354.787708 119.282831,344.358963 119.544186,333.933993 C119.597967,331.799748 119.552678,329.662671 119.552678,326.509422 C125.092093,327.77091 129.924811,328.871056 135.718977,330.191043 C129.679495,332.089409 129.951229,336.682472 129.521927,340.584877 C129.006764,345.264744 129.18792,350.02198 129.072811,354.746193 C128.663322,371.477661 128.123628,388.208186 127.876425,404.942485 C127.38485,438.24408 127.185767,471.550392 126.586631,504.848684 C126.378113,516.436073 125.328917,528.007422 124.709023,539.588206 C124.593914,541.730944 124.69204,543.88406 124.69204,546.747648" id="Fill-8" fill="#FFFFFF"></path>
            <path d="M465.146711,385.116266 L465.146711,412.946379 C443.979748,411.846233 423.217555,409.26287 401.632611,407.567362 C402.02889,398.05289 402.411017,388.908279 402.814844,379.199442 C423.852545,381.196877 444.335455,383.140532 465.146711,385.116266" id="Fill-9" fill="#FFFFFF"></path>
            <path d="M10.1250246,339.730047 C13.4009316,340.091415 15.8805063,340.365037 18.8054233,340.687721 L18.8054233,549.406303 C11.7752439,549.744084 11.1270445,549.181745 10.9949515,542.69409 C10.9826857,542.102502 10.994008,541.510914 10.9921209,540.919326 C10.8600279,481.763353 10.7486924,422.606153 10.5618751,363.450179 C10.5439482,357.548452 10.033503,351.649555 9.83253289,345.74594 C9.77309103,344.010804 9.99198804,342.267176 10.1250246,339.730047" id="Fill-10" fill="#FFFFFF"></path>
            <path d="M465.186339,379.75612 C444.26186,378.214405 423.786498,376.707601 403.060159,375.18004 L403.060159,349.33604 C424.179947,351.870339 444.755322,354.197063 465.186339,357.893781 L465.186339,379.75612 Z" id="Fill-11" fill="#FFFFFF"></path>
            <path d="M403.410206,320.614299 C424.672465,323.847748 445.015734,326.942498 465.449581,330.050458 L465.449581,351.717488 C444.674179,349.424731 424.237502,347.169714 403.410206,344.871296 L403.410206,320.614299 Z" id="Fill-12" fill="#FFFFFF"></path>
            <path d="M402.327987,487.202566 L402.327987,464.42586 C408.5741,462.912452 451.71285,464.006937 465.24012,465.974179 C465.303336,471.84194 465.9421,477.811696 464.206963,484.155935 C443.477794,485.176825 422.940159,486.187337 402.327987,487.202566" id="Fill-13" fill="#FFFFFF"></path>
            <path d="M401.942086,411.388625 C423.35814,413.744598 444.008053,416.015654 465.002352,418.326339 L465.002352,436.032465 C444.188266,436.662738 423.455322,435.875841 401.86,435.206884 C401.800558,427.210538 401.743947,419.664252 401.942086,411.388625" id="Fill-14" fill="#FFFFFF"></path>
            <path d="M403.246977,292.703987 C423.923309,296.970591 444.311867,301.178698 465.505249,305.552864 C466.127973,311.397037 465.592997,317.793169 465.788306,324.702578 C444.77608,321.794645 424.283734,318.958419 403.246977,316.047654 L403.246977,292.703987 Z" id="Fill-15" fill="#FFFFFF"></path>
            <path d="M200.287934,337.259907 L200.287934,321.323827 C231.399615,328.77293 262.410339,336.197502 293.786206,343.708877 C293.315389,347.310299 292.918166,350.345608 292.468106,353.790405 C261.268678,350.349382 231.501515,340.862272 200.287934,337.259907" id="Fill-16" fill="#FFFFFF"></path>
            <path d="M465.192944,442.02194 L465.192944,459.812983 C444.249595,460.365887 423.527973,458.47507 402.300625,458.702458 L402.300625,439.568784 C423.188306,440.383987 443.925967,441.192585 465.192944,442.02194" id="Fill-17" fill="#FFFFFF"></path>
            <path d="M401.532598,511.148106 C402.085502,504.260399 402.59406,497.93786 403.147907,491.042605 C423.206233,490.355721 443.404199,489.663176 464.357927,488.9461 C464.747601,494.911987 464.639096,500.492917 464.42303,506.579575 C443.479681,508.101475 422.930724,509.594126 401.532598,511.148106" id="Fill-18" fill="#FFFFFF"></path>
            <path d="M292.570007,358.45612 C292.110512,362.448159 291.737821,365.685382 291.348146,369.069794 C261.214897,364.360678 231.345834,359.693076 200.967269,354.945276 L200.967269,342.089794 C231.44113,345.64404 260.769555,356.211482 292.570007,358.45612" id="Fill-19" fill="#FFFFFF"></path>
            <path d="M290.302724,389.962193 L290.302724,400.032399 C283.291415,399.323814 276.512213,398.85111 269.797169,397.919854 C247.215867,394.787362 224.658153,391.491641 201.665475,388.196864 L201.665475,375.664066 C202.954326,375.723508 203.939362,375.670671 204.890432,375.828239 C233.186645,380.497728 261.48097,385.18703 290.302724,389.962193" id="Fill-20" fill="#FFFFFF"></path>
            <path d="M200.902166,371.058738 L200.902166,359.677037 C231.056173,364.132346 261.099787,368.524439 291.021688,374.493156 L291.021688,384.110472 C260.754458,381.519561 231.415654,374.867734 200.902166,371.058738" id="Fill-21" fill="#FFFFFF"></path>
            <path d="M402.897874,286.809807 C402.536505,281.606286 402.200611,276.78489 401.812824,271.199243 C413.186033,272.437143 423.548731,275.372439 434.010498,277.684066 C444.377914,279.974937 454.66796,282.621515 465.371269,285.20299 L465.371269,299.270897 C460.734804,298.491548 456.334219,297.870711 451.982698,296.997953 C436.926924,293.977741 421.887189,290.873555 406.843681,287.789183 C405.689754,287.552359 404.554698,287.224013 402.897874,286.809807" id="Fill-22" fill="#FFFFFF"></path>
            <path d="M255.412239,289.132757 L255.412239,299.165223 C228.926645,292.216186 202.929794,285.395468 176.686684,278.510591 L176.686684,266.047615 C202.886392,273.729767 228.864372,281.347761 255.412239,289.132757" id="Fill-23" fill="#FFFFFF"></path>
            <path d="M254.809329,305.437754 L254.809329,313.758671 C228.690764,308.30889 202.836385,302.91289 176.739522,297.467827 L176.739522,284.005661 C202.873183,291.180199 228.597355,298.241515 254.809329,305.437754" id="Fill-24" fill="#FFFFFF"></path>
            <path d="M200.995575,403.345103 C200.77196,402.348744 200.48513,401.762817 200.544571,401.215575 C200.840837,398.506724 201.229568,395.808252 201.663588,392.514419 C231.161847,396.797063 260.46008,401.050458 290.126286,405.358578 L290.126286,411.146141 C259.985488,411.14897 230.477794,407.013515 200.995575,403.345103" id="Fill-25" fill="#FFFFFF"></path>
            <path d="M176.600824,259.860944 L176.600824,250.999389 C181.594884,251.096571 247.426272,271.264346 255.940611,275.254498 L255.940611,283.755628 C229.123841,275.680027 202.856199,267.768598 176.600824,259.860944" id="Fill-26" fill="#FFFFFF"></path>
            <path d="M290.103641,416.712917 C286.023854,418.267841 281.800651,416.803495 277.687841,416.633661 C269.036691,416.275123 260.407243,415.412744 251.757037,414.982498 C249.257648,414.85701 246.667681,415.270272 244.209807,415.831668 C238.642086,417.105422 232.885661,418.039508 227.673648,420.226591 C223.326844,422.048532 219.242339,424.367708 214.498312,425.170645 C209.67503,425.986791 204.890432,427.026551 199.933169,427.998379 C198.086698,420.894605 200.327561,414.496585 200.909714,407.345635 C206.664252,407.996664 212.092332,408.548625 217.503429,409.233621 C226.296106,410.346977 235.05293,411.831136 243.873914,412.608598 C249.488811,413.103947 255.212213,412.273648 260.850698,412.627468 C270.623694,413.241701 280.369329,414.314485 290.126286,415.194791 C290.118738,415.700518 290.111189,416.206246 290.103641,416.712917" id="Fill-27" fill="#FFFFFF"></path>
            <path d="M402.079841,527.262606 L402.079841,516.568732 C422.739189,515.930912 443.283429,515.295922 464.20602,514.650553 L464.20602,522.382712 C443.641967,523.998021 423.016585,525.618048 402.079841,527.262606" id="Fill-28" fill="#FFFFFF"></path>
            <path d="M176.681967,315.27491 L176.681967,302.702485 C185.120824,304.619721 193.282286,306.557714 201.482432,308.319269 C216.270246,311.495163 231.087309,314.539907 245.87701,317.706365 C248.366963,318.240399 250.762565,319.200904 253.240252,319.805701 C255.855694,320.443522 256.072704,322.096571 255.249953,324.881847 C253.698804,324.701635 252.034432,324.580864 250.396478,324.304412 C246.999801,323.734525 243.810698,322.194698 240.099827,323.703389 C238.598684,324.312904 236.209688,323.377874 234.45285,322.617395 C223.368359,317.821475 211.499801,315.868385 199.81806,313.512412 C195.726007,312.686831 190.975375,314.560664 186.645555,315.668359 C183.291336,316.52602 180.146578,317.11289 176.681967,315.27491" id="Fill-29" fill="#FFFFFF"></path>
            <path d="M342.896505,502.862854 L342.896505,486.101193 C348.102857,485.059546 353.086538,485.303918 358.434419,485.912489 L358.434419,502.862854 L342.896505,502.862854 Z" id="Fill-30" fill="#FFFFFF"></path>
            <path d="M342.766299,480.002647 L342.766299,465.083495 C347.799987,464.282445 352.780837,464.731561 358.107017,464.821196 C359.360013,469.828465 358.72691,474.613252 358.549528,479.6309 C353.187495,480.638581 348.088704,481.466049 342.766299,480.002647" id="Fill-31" fill="#FFFFFF"></path>
            <polygon id="Fill-32" fill="#FFFFFF" points="343.072944 459.714857 358.847681 459.714857 358.847681 444.061834 343.072944 444.061834"></polygon>
            <path d="M359.049595,426.938804 L359.049595,438.542233 C353.830977,440.073568 348.915229,438.871522 343.689063,438.450711 L343.689063,426.938804 L359.049595,426.938804 Z" id="Fill-33" fill="#FFFFFF"></path>
            <path d="M358.670299,508.572764 L358.670299,518.202346 C353.433754,518.784498 348.321754,519.353442 342.674777,519.980884 L342.674777,509.396458 C347.680159,507.700007 351.00796,507.51885 358.670299,508.572764" id="Fill-34" fill="#FFFFFF"></path>
            <path d="M342.758751,531.830005 L342.758751,525.351786 C347.705635,523.058085 352.987468,523.874231 358.443854,523.162816 L358.443854,530.685514 C353.264864,531.063866 348.306658,531.424291 342.758751,531.830005" id="Fill-35" fill="#FFFFFF"></path>
            <path d="M244.597595,122.859721 C229.627681,137.017262 215.112545,151.707894 197.68004,162.980146 C212.98396,149.213223 228.168053,135.305714 244.597595,122.859721" id="Fill-36" fill="#000000"></path>
            <path d="M130.432425,139.251522 C111.499721,163.995375 85.9910485,181.821329 63.8220651,203.160957 C63.4456,202.766565 63.0691349,202.373116 62.6936133,201.978724 C84.942796,180.795721 107.192545,159.611774 129.441728,138.428771 C129.77196,138.702392 130.102193,138.976957 130.432425,139.251522" id="Fill-37" fill="#000000"></path>
            <path d="M48.8702671,96.4986711 C46.5614698,98.8782326 44.3300412,101.340824 41.9250047,103.618485 C38.599091,106.768904 35.1410844,109.780625 31.739689,112.851787 C31.4575761,112.540425 31.1764066,112.22812 30.8942937,111.915814 C36.7573369,106.634924 42.6203801,101.354033 48.4834233,96.0731429 L48.8702671,96.4986711 Z" id="Fill-38" fill="#000000"></path>
            <path d="M52.8244718,211.213914 C55.3851894,208.826804 57.945907,206.437807 60.5066246,204.049754 C60.7840199,204.34885 61.0604718,204.647947 61.3378671,204.9461 C58.7658272,207.302073 56.1937874,209.658047 53.622691,212.013076 C53.3556744,211.74606 53.0905449,211.479987 52.8244718,211.213914" id="Fill-39" fill="#000000"></path>
            <path d="M98.658392,67.3372492 C100.548266,65.0916678 102.43814,62.8451429 104.328013,60.5995615 C104.263854,60.535402 104.199694,60.4712425 104.135535,60.4061395 C102.37398,62.7281462 100.611482,65.0501528 98.8508704,67.3721595 C98.786711,67.3598937 98.7225515,67.3485714 98.658392,67.3372492" id="Fill-40" fill="#000000"></path>
            <path d="M78.0622591,167.134472 C79.7719203,165.432359 81.4825249,163.730246 83.192186,162.028133 C83.4554286,162.318738 83.7177276,162.611229 83.9800266,162.902777 C82.162804,164.477515 80.3436944,166.052252 78.5264718,167.626047 C78.3717342,167.461874 78.2169967,167.298645 78.0622591,167.134472" id="Fill-41" fill="#000000"></path>
        </g>
    </g>
</svg>