<svg width="1074" height="894" viewBox="0 0 1074 894" xmlns="http://www.w3.org/2000/svg"><g fill="none" fill-rule="evenodd"><path d="M482.827 567.829c5.88-.563 11.135-1.067 16.623-1.596v-9.034c-5.782.948-11.381.063-16.623 2.89v7.74zm16.864-28.16c-8.121-1.084-11.648-.788-16.954 1.356v12.647c5.986-.858 11.404-1.636 16.954-2.436v-11.567zm.402-98.075l-16.28.851v13.761c5.538.237 10.749 1.43 16.28-.673v-13.939zm-.214 39.382v-18.801l-16.72.767v18.705l16.72-.671zm-17.044 24.926c5.64 1.568 11.045.402 16.727-.991.189-6.034.86-11.807-.468-17.77-5.646.109-10.925-.228-16.26.935v17.826zm.138 27.311l16.468-.397v-20.357c-5.668-.559-10.95-.69-16.468.725v20.029zM306.808 325.582c3.672 1.734 7.005.761 10.56-.544 4.589-1.687 9.624-4.291 13.96-3.762 12.382 1.524 24.96 2.588 36.709 7.025 1.862.707 4.394 1.555 5.985.707 3.933-2.101 7.314-.627 10.912-.292 1.737.163 3.5.143 5.146.204.87-3.311.642-5.209-2.131-5.695-2.626-.458-5.165-1.335-7.804-1.708-15.675-2.189-31.38-4.198-47.052-6.325-8.691-1.163-17.34-2.518-26.285-3.81v14.2zm238.89 235.847c22.19-2.35 44.05-4.692 65.846-7.052v-9.61a67194.053 67194.053 0 01-65.846 3.633v13.029zm-118.68-128.021l.025-1.783c-10.341-.444-20.67-1.107-31.028-1.227-5.975-.066-12.042 1.245-17.993 1.015-9.348-.357-18.63-1.524-27.95-2.255-5.733-.446-11.486-.737-17.586-1.115-.617 8.18-2.992 15.595-1.034 23.576 5.253-1.381 10.325-2.833 15.437-4.036 5.028-1.187 9.357-4.079 13.963-6.424 5.525-2.82 11.626-4.237 17.527-6.04 2.604-.797 5.349-1.431 7.999-1.436 9.168-.019 18.313.468 27.482.372 4.36-.046 8.835 1.42 13.159-.647zM306.724 263.005a7580.165 7580.165 0 0184.088 18.115v-9.867c-9.024-3.638-78.796-18.77-84.088-18.256v10.008zm25.855 160.475c31.246 2.313 62.52 5.253 94.466 3.391v-6.795a14856.423 14856.423 0 00-93.758-8.979c-.46 3.782-.872 6.882-1.186 9.987-.064.628.24 1.276.478 2.396zm57.034-117.079a8214.917 8214.917 0 00-82.742-16.142v15.204c27.658 3.429 55.06 6.937 82.742 10.593v-9.655zm.639-18.982a7783.583 7783.583 0 00-83.437-17.438v14.077a8541.248 8541.248 0 0183.437 15.002v-11.641zm156.314-19.012c1.757.322 2.959.598 4.183.759 15.943 2.123 31.884 4.308 47.84 6.423 4.612.618 9.277.921 14.19 1.398v-17.489c-11.344-2.008-22.25-4.12-33.237-5.765-11.088-1.64-22.071-4.037-34.126-4.222l1.15 18.896zM332.478 386.713c32.34 2.021 63.435 7.526 95.514 8.35v-11.296c-31.712-4.663-63.555-7.361-95.514-10.018v12.964zm94.752 15.272a12011.705 12011.705 0 00-90.525-10.143c-1.008-.107-2.052.027-3.418.056v14.28c24.37 2.158 48.278 4.407 72.21 6.522 7.117.64 14.303.742 21.733 1.11v-11.825zm2.404-37.181c-33.704.011-64.788-9.709-97.086-11.092v14.641c32.196 2.919 63.853 5.901 95.79 9.019l1.296-12.568zm115.485 177.005c22.679-2.382 44.457-4.696 66.654-7.078.23-7.57.344-14.509-.068-21.912a61755.51 61755.51 0 01-64.874 4.452l-1.712 24.538zm67.47-87.347c-22.54.028-44.518.069-66.657.124v23.31c22.499-1.189 44.46.255 66.658-1.318v-22.116zM331.828 348.27c33.082 1.316 64.632 9.687 97.698 11.06l1.397-11.962a9341.057 9341.057 0 00-99.095-17.243v18.145zm215.109-72.718v28.449a15583.77 15583.77 0 0166.286 4.562c-.208-8.571.359-16.578-.301-23.78a10646.457 10646.457 0 00-65.985-9.231zm-1.383 144.721c-.21 10.093-.151 19.283-.087 29.02 22.887-.307 44.862-.411 66.922-2.268v-22.009a19319.826 19319.826 0 00-66.835-4.743zm.409 92.344c21.845-1.897 43.613-3.805 65.582-5.746 1.84-7.946 1.163-15.345 1.095-22.636-14.336-1.894-60.058-1.469-66.677.634v27.748zm1.147-203.067v29.564c22.073.992 43.734 2.003 65.753 3.068v-26.938a14155.587 14155.587 0 00-65.753-5.694zm65.474 67.509v-27.177c-21.654-2.878-43.461-4.002-65.846-5.295v31.494c21.968.302 43.669.624 65.846.978zm-482.301-8.903c-.142 2.711-.373 4.586-.31 6.426.212 6.262.753 12.495.773 18.773.197 62.933.315 125.877.456 188.827 0 .629-.01 1.259.003 1.888.14 6.904.826 7.497 8.278 7.086V368.398l-9.2-.242zm482.259 15.569a22835.5 22835.5 0 00-66.063-2.728c-.428 11.857-.833 23.025-1.254 34.641 22.878.718 44.883 2.613 67.317 2.682v-34.595zM251.707 587.448c0-3.176-.104-5.563.017-7.939.659-12.853 1.77-25.71 1.99-38.573.635-36.975.847-73.954 1.368-110.952.262-18.595.834-37.214 1.267-55.829.123-5.257-.07-10.525.477-15.769.455-4.373.167-9.453 6.568-12.126a9398.96 9398.96 0 00-17.134-2.563c0 3.489.048 5.851-.008 8.219-.28 11.563-.484 23.122-.902 34.686-.74 20.494-2.027 40.998-2.348 61.451-.696 44.258-.925 88.493-1.341 132.719-.021 2.368-.003 4.735-.003 7.7l10.049-1.024zm-93.146 5.231c.214-1.131.436-1.753.434-2.373-.038-10.998-.115-21.995-.161-32.991-.15-36.001-.376-71.994-.403-107.993-.018-24.369.258-48.759.378-73.14.01-2.059-.166-4.102-.272-6.555-5.063-.304-9.726-.582-14.697-.876-.154 1.52-.37 2.549-.341 3.55.34 11.334.868 22.654 1.052 34.007.275 17.065.408 34.144.439 51.229.064 34.599.032 69.202.002 103.805-.004 4.212-.343 8.428-.35 12.64-.01 6.227-.36 12.485.238 18.782l13.68-.085zm59.935-2.779c.497-10.069 1.387-19.329 1.324-28.571-.144-21.405-1.01-42.781-1.103-64.179-.122-28.127.19-56.278.38-84.426.032-4.539.537-9.107.588-13.648.099-8.61.029-17.211.029-26.149-6.14-.327-12.07-.639-18.76-.987v218.894l17.542-.934zm-23.606.464c.136-1.787.308-3.057.32-4.329.293-33.687.592-67.382.84-101.081.18-24.263.284-48.525.442-72.793.01-1.713.273-3.442.277-5.154.026-11.548.013-23.093.013-35.303-10.505-.586-21.495-1.187-32.754-1.793-.595 74.415-1.058 147.981.112 221.38l11.882-.079c.15-1.446.336-2.468.35-3.491.299-20.682.726-41.37.828-62.056.235-47.999.308-95.996.467-144.002.006-1.91.038-3.865.434-5.745.205-.973 1.24-1.827 2.868-4.068 2.356 25.369 1 49.518 1.225 73.508.228 24.131.186 48.282.012 72.432-.173 24.08-.656 48.159-1.01 72.669l13.694-.095zm329.31-446.03c21.577-23.516 38.205-41.537 60.514-66.378-36.385-8.078-65.231-11.85-101.935-16.535 0 3.562-.112-2.763 0 0 .16 3.957.664 7.847.683 11.826.188 41.699.306 83.414.465 125.126.005 1.75.214 3.475.399 6.284 36.209-35.164 70.166-72.264 106.425-106.831-1.318 2.341-2.805 4.473-4.52 6.297-24.83 26.229-49.653 52.129-74.565 77.571-7.753 7.85-15.81 15.263-23.628 22.965-1.581 1.554-3.625 3.685-3.866 5.607-.571 4.538-.184 9.112-.184 13.739 1.137-.285 1.39-.261 1.527-.395a7597.509 7597.509 0 0058.87-58.4c.828-.836 1.654-1.68 2.52-2.458.51-.459 1.089-.82 1.657-1.17.148-.09.409-.031.553.069.115.082.134.331.52 1.427-6.988 7.253-14.144 14.754-21.392 22.102-13.558 13.67-27.2 27.125-40.711 40.657-1.517 1.513-3.377 3.933-3.432 5.799-.323 11.018-.16 21.999-.16 33.627 2.655-1.183 4.625-2.003 6.562-2.939 14.67-7.117 29.346-14.269 43.993-21.563 4.456-2.229 8.866-3.286 13.494-2.47 19.225 3.434 38.47 6.841 57.712 10.324 2.313.423 4.654.712 7.4 1.128.436-57.24-2.184-111.78-1.557-168.782-5.708-1.439-13.042-1.441-19.306-3.005-23.094 24.615-42.75 45.931-68.037 66.378zM360.174 91.807l.905.94c-1.691 2.103-3.285 4.312-5.09 6.288-15.217 16.579-30.432 33.022-45.753 49.205-2.584 2.715-3.832 5.25-3.81 9.008.16 26.498.076 53.031.106 79.549.002 1.71.3 3.383.46 5.065 16.115 3.361 31.855 6.744 47.62 10.079a6650.16 6650.16 0 0040.192 8.502c3.145.659 4.964 1.859 4.907 6.049-.267 19.316-.24 38.604-.316 57.9-.007 2.047-.001 4.093-.001 6.304 1.716.447 3.06.909 4.452 1.146 8.942 1.524 17.897 3.003 26.843 4.539a56.47 56.47 0 014.832 1.036c2.443.646 3.468 2.491 2.357 5.165-2.191 5.266-1.53 10.57-1.671 15.883-.265 9.902.312 19.732.066 29.64-.34 13.718-.297 27.422-.39 41.13-.03 4.28.779 5.21 4.693 5.416 1.452.076 2.93-.183 4.389-.15 6.037.139 12.083.208 18.102.556 3.756.218 4.03.857 3.647 6.273-25.018-.218-50.034-1.608-75.282.031.249 6.014.47 11.399.726 17.54 25.189-.638 50.144-1.261 75.422-1.884l-.6 5.194c-25.162 1.259-49.894.095-74.472 1.396v19.138c25.166-.181 49.91-.346 74.9-.5l-.276 5.444c-24.983-.136-49.671-.256-74.847-.359l1.257 22.326 25.048-.809c8.156-.264 16.313-.548 24.47-.785 8.07-.234 16.14-.42 23.975-.62.725 3.27.635 5.235-2.115 5.46-1.671.138-3.346.193-5.02.222-19.863.352-39.727.693-59.592 1.05-2.227.041-4.455.134-6.472.195v24.879c24.875-1.377 49.026-2.727 73.434-4.103v5.447a98475.088 98475.088 0 01-73.531 3.524v17.224c12.3-1.203 24.068-2.813 35.862-3.405 11.933-.602 23.888-3.051 35.828-1.595.52 3.591-1.048 4.585-3.06 4.923-2.89.485-5.798.931-8.71 1.107-16.267.98-32.538 1.838-48.806 2.801-3.668.216-7.325.719-11.333 1.123.253 2.225.349 3.536.563 4.821.208 1.247.536 2.469.863 3.933 26.18-1.962 52.01-2.21 78.25-6.522V60.924c-55.593-7.497-111.708-20.662-167.934-27.01-.144 2.618 0 0 .024 1.524.393 24.185.865 48.36 1.199 72.567.148 10.672.01 21.393.04 32.086.005 1.663.21 3.294.359 5.455a7781.573 7781.573 0 0053.29-53.739zm-188.826 10.398l-.411-.388c1.337-1.836 2.54-3.796 4.034-5.494 16.117-18.422 32.276-36.978 48.434-55.707 4.637-5.407 9.306-10.799 14.683-17.061-36.9-2.511-72.868-4.477-109.786-4.708 0 12.591-.144 24.339.032 36.019.29 19.218.775 38.401 1.215 57.599.034 1.486.349 2.916.615 5.007 1.718-1.928 2.764-3.119 3.825-4.294 17.604-19.593 35.162-39.43 52.85-59.348 3.918-4.439 8.13-8.708 14.687-12.255-6.246 9.94-13.044 17.488-19.647 25.063-15.845 18.057-31.94 35.727-48.024 53.236-3.171 3.433-4.448 6.816-4.415 11.179.29 38.144.367 76.327.517 114.503.005 1.155.138 2.294.256 4.13 1.31-1.057 2.017-1.503 2.572-2.093 16.044-17.152 31.986-34.569 48.144-51.947 6.89-7.464 14.225-14.532 21.358-21.824l.49.463c-.21.395-.358.847-.642 1.177-22.763 26.338-45.492 52.347-68.368 77.866-2.772 3.067-3.926 5.898-3.906 9.805.158 29.793.087 59.613.087 89.425v6.028c14.657.691 28.852 1.38 43.44 2.107.465-6.365 1.136-12.29 1.285-18.183.53-21.138.873-42.269 1.314-63.413.075-3.63.317-7.275.417-10.908.06-2.147.893-3.625 2.936-4.728 7.494-4.059 14.906-8.326 22.398-12.425 14.26-7.847 28.556-15.674 42.837-23.592 1.64 2.26 3.217 3.494 5.044 3.85 12.564 2.464 25.186 4.759 37.774 7.207 1.337.262 2.579.872 3.576 1.221v8.206a7234.24 7234.24 0 00-44.052-9.051l.725 12.07c2.112.403 3.886.758 5.669 1.083 11.433 2.103 22.889 4.144 34.288 6.419 4.042.813 3.98 1.042 2.866 6.665a7498.85 7498.85 0 00-42.724-8.527v19.444a9404.273 9404.273 0 0143.737 5.786v5.472a8779.3 8779.3 0 00-43.788-6.742l-.873 17.252a10261.83 10261.83 0 0145.096 5.214l-.56 5.37a9497.938 9497.938 0 00-44.28-5.924v15.62a9796.787 9796.787 0 0144.845 6.213l-.562 5.468c-14.951-2.004-29.163-5.785-44.37-6.65v16.664c8.137.971 16.06 2.034 24.034 2.795 1.487.143 3.19-.922 4.774-1.506 5.157-1.904 10.306-3.849 15.825-5.923.372 16.003 1.007 31.228 1.034 46.506.115 64.337.048 128.687.054 193.032 0 2.439.024 4.88.128 7.314.025.609.405 1.199.782 2.236l5.417-1.198c0-8.366.09-16.127-.022-23.881-.138-9.53-.627-19.049-.63-28.58-.001-10.443.599-20.907.55-31.349-.17-36.672-.71-73.318-.721-109.989-.01-32.438.768-64.952.72-97.394-.118-83.35-.477-166.654-.848-249.937-.021-4.49-1.168-6.656-1.71-11.01-12.292-1.134-23.703-4.039-35.078-5.449-4.054-.495-6.78 1.054-9.448 4.382-.59.735-1.167 1.485-1.792 2.186a5353.254 5353.254 0 01-14.148 15.757l-.85-.799a8460.087 8460.087 0 0017.459-21.777c-3.074-.445-5.221-.675-7.31-1.078-2.06-.396-3.491.652-5.041 2.405a5955.087 5955.087 0 01-51.9 57.619c-5.59 6.089-11.276 12.068-16.917 18.069zM627.93 570.061c-2.153 1.07-4.177 2.449-6.353 3.091-12.57 3.694-25.035 7.717-38.124 8.469-20.217 1.151-40.403 3.109-60.61 4.57-17.084 1.222-34.182 2.201-51.27 3.364-11.874.8-23.74 1.783-35.612 2.613-17.081 1.182-34.167 2.287-51.25 3.429-12.5.828-24.997 1.702-37.497 2.511-10 .643-20.003 1.22-30.004 1.839-12.92.794-25.838 1.577-38.755 2.398-8.332.525-16.67.998-24.988 1.713-10.191.874-20.347 2.259-30.547 2.895-14.18.875-28.387 1.23-42.58 1.866-12.087.536-24.175 1.084-36.255 1.765-7.7.431-12.811-3.79-16.273-9.771-3.425-5.904-5.533-12.252-5.524-19.543.084-71.187-.03-142.367-.322-213.526-.26-63.186-.792-126.323-1.25-189.449-.213-29.468-.575-58.903-.761-88.365-.031-4.982.675-10.102.71-15.101.026-3.738-.655-7.343-.716-11.069-.222-13.548-.39-27.108-.397-40.697 0-2.877.464-5.93 1.223-8.871 1.282-4.966 3.99-6.905 8.893-7.092 11.16-.399 82.723 7.534 170.059 22.654 160.762 27.83 389.637 64.561 392.523 65.594 6.57 2.361-62.426-17.275-62.63-8.301-.374 16.492-.224 32.925-.111 49.354.213 31.28.824 62.513.783 93.831-.075 58.456-.5 116.935-.778 175.391-.14 29.097-.216 58.189-.438 87.284-.186 24.398-.54 48.794-.835 73.185-.015 1.208-.185 2.415-.311 3.969z" fill="#000"/><path d="M378.79 96.359c-17.413 17.188-33.507 35.681-49.726 53.866 18.475-15.681 33.86-34.958 49.726-53.866zm-18.617-4.552a7781.571 7781.571 0 01-53.29 53.74c-.15-2.162-.354-3.792-.36-5.456-.028-10.692.109-21.414-.04-32.086-.333-24.207-.805-48.381-1.198-72.567-.024-1.523.012-.473.155-3.092 56.228 6.348 112.163 21.081 167.756 28.578v507.603c-26.24 4.311-52.071 4.56-78.251 6.521-.327-1.463-.655-2.685-.863-3.932-.214-1.285-.31-2.596-.563-4.822 4.008-.404 7.666-.907 11.333-1.123 16.268-.962 32.54-1.82 48.807-2.8 2.91-.176 5.82-.622 8.71-1.108 2.01-.338 3.58-1.332 3.059-4.923-11.94-1.456-23.895.994-35.827 1.596-11.795.592-23.562 2.201-35.863 3.404v-17.223c24.73-1.176 49.059-2.342 73.53-3.525v-5.446a71968.785 71968.785 0 01-73.433 4.103V514.37c2.017-.062 4.245-.155 6.473-.196 19.864-.356 39.728-.697 59.592-1.049 1.673-.03 3.348-.084 5.019-.222 2.75-.226 2.84-2.19 2.115-5.46-7.835.2-15.904.386-23.974.62-8.158.236-16.315.521-24.471.784l-25.048.81-1.257-22.326c25.176.103 49.864.222 74.847.359l.276-5.444c-24.99.154-49.734.319-74.9.5v-19.138c24.578-1.302 49.31-.138 74.472-1.396l.6-5.194c-25.278.622-50.233 1.245-75.422 1.884l-.726-17.54c25.248-1.64 50.264-.249 75.282-.031.383-5.416.109-6.055-3.647-6.274-6.02-.347-12.065-.417-18.102-.555-1.458-.034-2.937.226-4.39.15-3.913-.206-4.721-1.137-4.691-5.416.093-13.708.05-27.412.389-41.13.247-9.908-.331-19.738-.066-29.641.143-5.312-.52-10.617 1.67-15.882 1.112-2.674.087-4.52-2.356-5.165a56.86 56.86 0 00-4.832-1.037c-8.946-1.536-17.901-3.014-26.843-4.539-1.392-.236-2.736-.698-4.451-1.145 0-2.211-.007-4.257 0-6.304.077-19.297.049-38.585.316-57.9.058-4.191-1.762-5.391-4.907-6.049a6650.16 6650.16 0 01-40.191-8.502c-15.766-3.335-31.506-6.719-47.62-10.079-.16-1.683-.46-3.356-.461-5.066-.03-26.517.055-53.051-.105-79.548-.023-3.758 1.225-6.293 3.809-9.008 15.322-16.184 30.536-32.626 45.753-49.205 1.805-1.976 3.399-4.185 5.09-6.288l-.905-.941zM224.115 60.924h.203c1.867-2.899 3.735-5.803 5.602-8.709l.204.174a8502.194 8502.194 0 01-6.01 8.535m-48.577 164.517l.846.751a8815.91 8815.91 0 008.177-8.742l-.881-.852a8888.286 8888.286 0 01-8.142 8.843m82.254-90.866l-1.05-.747a7747.476 7747.476 0 01-70.744 80.21l1.196 1.12c23.496-26.522 50.532-50.076 70.598-80.583m-55.505 39.247c-7.133 7.292-14.467 14.36-21.36 21.825-16.156 17.378-32.098 34.795-48.142 51.946-.555.59-1.261 1.036-2.572 2.094-.118-1.837-.251-2.976-.256-4.131-.151-38.176-.226-76.359-.517-114.503-.033-4.362 1.244-7.746 4.415-11.179 16.085-17.509 32.179-35.179 48.024-53.236 6.603-7.574 13.4-15.123 19.647-25.063-6.556 3.547-10.77 7.816-14.687 12.255-17.688 19.918-35.246 39.755-52.85 59.348-1.061 1.176-2.107 2.366-3.825 4.294-.266-2.091-.581-3.521-.615-5.007-.44-19.198-.925-38.381-1.215-57.599-.176-11.679-.032-26.78-.032-39.372 36.918.233 72.886 5.55 109.786 8.061-5.377 6.263-10.046 11.654-14.683 17.061a10566.402 10566.402 0 01-48.435 55.707c-1.493 1.699-2.696 3.659-4.033 5.495a7933.464 7933.464 0 01-18.641 20.251l.895.852c3.606-3.907 7.27-7.769 10.795-11.764 2.55-2.894 4.914-5.958 7.36-8.952 5.643-6.001 11.329-11.98 16.92-18.069a5931.5 5931.5 0 0051.899-57.619c1.55-1.753 2.98-2.801 5.04-2.405 2.09.403 4.237.633 7.31 1.079a8460.735 8460.735 0 01-17.457 21.776l.849.799a5214.109 5214.109 0 0014.147-15.757c.625-.7 1.203-1.45 1.792-2.186 2.67-3.328 5.395-4.877 9.449-4.381 11.375 1.41 22.333 6.077 34.625 7.211.542 4.354 2.142 4.757 2.163 9.248.37 83.282.73 166.586.849 249.936.047 32.442-.731 64.956-.721 97.395.01 36.671.55 73.316.72 109.988.05 10.442-.55 20.906-.548 31.35.002 9.53.49 19.049.629 28.58.112 7.753.022 15.514.022 23.88l-5.417 1.199c-.377-1.037-.757-1.627-.782-2.237-.104-2.434-.128-4.875-.128-7.314-.006-64.345.06-128.694-.054-193.031-.027-15.279-.662-30.503-1.034-46.507-5.52 2.074-10.668 4.019-15.825 5.924-1.584.584-3.287 1.648-4.774 1.506-7.974-.762-15.897-1.825-24.033-2.795v-16.664c15.206.864 29.418 4.645 44.369 6.649l.562-5.468a9937.947 9937.947 0 00-44.844-6.213v-15.62a9774.586 9774.586 0 0144.279 5.924l.56-5.37a10261.83 10261.83 0 00-45.096-5.214l.873-17.252a8779.3 8779.3 0 0143.788 6.742v-5.471a9403.736 9403.736 0 00-43.737-5.787v-19.444a7587.04 7587.04 0 0142.724 8.527c1.114-5.623 1.176-5.852-2.866-6.665-11.4-2.275-22.855-4.316-34.288-6.419-1.783-.325-3.557-.679-5.67-1.083-.233-3.905-.462-7.698-.724-12.07a7311.087 7311.087 0 0144.052 9.051v-8.206c-.998-.349-2.24-.959-3.576-1.221-12.59-2.448-25.21-4.743-37.774-7.207-1.827-.355-3.404-1.59-5.044-3.849-14.281 7.917-28.576 15.745-42.837 23.591-7.492 4.099-14.904 8.367-22.398 12.425-2.043 1.104-2.875 2.581-2.936 4.729-.101 3.632-.342 7.277-.417 10.907-.441 21.144-.784 42.275-1.314 63.413-.15 5.893-.82 11.818-1.285 18.184-14.588-.728-28.783-1.416-43.44-2.108v-6.028c0-29.812.07-59.632-.087-89.425-.02-3.906 1.134-6.737 3.906-9.805 22.876-25.518 45.605-51.528 68.368-77.866.284-.33.432-.782.643-1.177a6651.29 6651.29 0 005.78-6.021c-.277-.277-.555-.554-.834-.83a7237.819 7237.819 0 01-5.437 6.388M524.2 144.334c25.288-20.447 45.594-39.258 68.688-63.872 6.263 1.563 14.82 1.495 20.528 2.934-.627 57.001.12 109.107-.314 166.347-2.747-.416-5.088-.705-7.401-1.128-19.242-3.483-38.487-6.889-57.712-10.324-4.628-.816-9.038.241-13.494 2.47-14.648 7.294-29.322 14.446-43.993 21.563-1.937.936-3.907 1.756-6.561 2.939 0-11.628-.164-22.609.159-33.627.055-1.865 1.915-4.286 3.432-5.799 13.51-13.532 27.153-26.987 40.71-40.657 7.249-7.348 14.405-14.849 21.393-22.102-.386-1.096-.405-1.345-.52-1.427-.144-.1-.405-.159-.553-.069-.568.35-1.146.711-1.657 1.17-.866.778-1.692 1.622-2.52 2.458a7597.509 7597.509 0 01-58.87 58.4c-.137.134-.39.11-1.527.395 0-4.627-.387-9.201.184-13.739.24-1.922 2.285-4.053 3.866-5.607 7.818-7.702 15.875-15.115 23.628-22.965 24.912-25.442 49.735-51.341 74.565-77.571 1.715-1.824 3.202-3.956 4.52-6.297-36.26 34.568-70.216 71.667-106.425 106.831-.185-2.809-.394-4.534-.4-6.284-.158-41.712-.276-83.427-.464-125.126-.02-3.978-.523-7.869-.684-11.826-.111-2.763 20.442 11.111 20.442 7.55 36.704 4.684 41.744 3.413 78.128 11.491-22.308 24.841-35.571 40.356-57.147 63.872" fill="#FFF"/><path d="M194.889 590.364l-13.693.095c.353-24.51.837-48.589 1.009-72.669.174-24.151.216-48.301-.011-72.432-.226-23.99 1.13-48.14-1.226-73.509-1.628 2.242-2.662 3.096-2.867 4.069-.397 1.88-.43 3.835-.435 5.745-.16 48.006-.231 96.003-.466 144.002-.102 20.686-.53 41.374-.828 62.055-.014 1.024-.201 2.046-.35 3.492l-11.883.079c-1.17-73.399-.706-146.965-.111-221.38 11.258.605 22.249 1.207 32.754 1.793 0 12.21.012 23.755-.013 35.303-.004 1.711-.267 3.441-.277 5.154-.16 24.267-.262 48.53-.442 72.793-.25 33.699-.548 67.393-.841 101.081-.011 1.271-.183 2.542-.32 4.329m23.607-.464l-17.542.934V371.94c6.69.349 12.62.66 18.76.986 0 8.94.07 17.539-.03 26.15-.05 4.541-.555 9.11-.585 13.647-.192 28.149-.504 56.3-.382 84.427.093 21.397.959 42.774 1.103 64.179.063 9.242-.827 18.503-1.324 28.571m-59.936 2.779l-13.681.085c-.597-6.297-.247-12.555-.237-18.781.007-4.212.346-8.429.35-12.641.03-34.602.06-69.206-.002-103.805a3582.914 3582.914 0 00-.44-51.228c-.183-11.354-.711-22.674-1.052-34.008-.03-1.001.188-2.029.34-3.55 4.973.294 9.636.573 14.699.876.106 2.453.282 4.496.272 6.555-.12 24.382-.396 48.771-.378 73.141.026 35.999.253 71.992.402 107.993.046 10.996.124 21.993.162 32.99.002.62-.22 1.242-.434 2.373m93.146-5.231l-10.05 1.023c0-2.964-.017-5.332.004-7.699.416-44.226.646-88.461 1.34-132.72.322-20.452 1.609-40.957 2.35-61.45.418-11.564.623-23.123.9-34.686.058-2.368.009-4.73.009-8.219 5.87.873 10.994 1.639 17.135 2.563-6.402 2.673-6.114 7.752-6.57 12.126-.545 5.244-.353 10.512-.475 15.769-.434 18.615-1.006 37.233-1.268 55.829-.521 36.998-.732 73.977-1.367 110.952-.221 12.863-1.332 25.72-1.99 38.573-.122 2.376-.018 4.763-.018 7.939M612.54 383.726v34.595c-22.433-.07-44.437-1.964-67.315-2.683l1.253-34.641c22.297.889 44.005 1.786 66.063 2.729m-482.259-15.57l9.2.242v222.758c-7.452.411-8.138-.183-8.278-7.086-.013-.629-.002-1.259-.003-1.889-.141-62.949-.26-125.893-.456-188.826-.02-6.278-.561-12.511-.774-18.773-.062-1.84.169-3.715.31-6.426m482.302 8.904a29568.97 29568.97 0 00-65.846-.979v-31.494c22.385 1.293 44.192 2.417 65.846 5.295v27.178zm-65.474-67.51a14294.44 14294.44 0 0165.753 5.694v26.938a19414.59 19414.59 0 00-65.753-3.068V309.55zm-1.147 203.067v-27.748c6.619-2.104 52.34-2.528 66.678-.634.067 7.291.744 14.69-1.096 22.636a43650.199 43650.199 0 01-65.582 5.746m-.409-92.343c22.697 1.571 44.584 3.125 66.835 4.742v22.01c-22.06 1.856-44.034 1.961-66.922 2.268-.063-9.738-.123-18.927.087-29.02m1.383-144.722c21.914 2.996 43.522 6.019 65.984 9.231.66 7.203.093 15.209.3 23.781-22.27-1.58-43.988-3.075-66.284-4.563v-28.449zm-215.109 72.719v-18.146a9341.176 9341.176 0 0199.095 17.244l-1.397 11.962c-33.066-1.373-64.616-9.745-97.698-11.06M612.59 454.462v22.116c-22.197 1.573-44.158.129-66.657 1.319v-23.311c22.138-.055 44.117-.096 66.657-.124m-67.471 87.348l1.712-24.538a61755.51 61755.51 0 0064.874-4.452c.412 7.402.298 14.342.068 21.912a30009.67 30009.67 0 01-66.654 7.078M429.634 364.804l-1.295 12.568a13874.783 13874.783 0 00-95.791-9.018v-14.642c32.298 1.383 63.382 11.104 97.086 11.092m-2.404 37.181v11.825c-7.431-.368-14.616-.471-21.733-1.11-23.932-2.115-47.84-4.364-72.21-6.523v-14.279c1.366-.029 2.41-.163 3.418-.057 29.99 3.241 59.978 6.61 90.525 10.144m-94.752-15.272v-12.964c31.959 2.657 63.802 5.356 95.514 10.019v11.296c-32.08-.825-63.174-6.33-95.514-8.351m214.087-118.306l-1.15-18.896c12.054.185 23.038 2.582 34.126 4.222 10.988 1.645 21.893 3.757 33.237 5.765v17.489c-4.913-.477-9.578-.78-14.19-1.398-15.957-2.116-31.897-4.3-47.84-6.423-1.224-.161-2.426-.437-4.183-.759M390.25 287.419v11.642a8481.721 8481.721 0 00-83.436-15.002v-14.077a7759.01 7759.01 0 0183.437 17.437m-.639 18.982v9.654a10489.556 10489.556 0 00-82.742-10.592v-15.205a8215 8215 0 0182.742 16.143m-57.034 117.08c-.237-1.12-.542-1.769-.478-2.396.314-3.105.726-6.206 1.186-9.988 31.264 2.895 62.316 5.868 93.758 8.98v6.795c-31.945 1.862-63.22-1.078-94.466-3.391m-25.856-160.476v-10.008c5.293-.513 75.064 14.618 84.089 18.256v9.867a7585.208 7585.208 0 00-84.09-18.115m120.298 170.403c-4.324 2.066-8.8.601-13.16.646-9.168.097-18.314-.39-27.482-.372-2.65.006-5.394.64-8 1.437-5.9 1.803-12.001 3.22-17.525 6.04-4.606 2.345-8.936 5.237-13.964 6.424-5.111 1.203-10.183 2.655-15.436 4.036-1.958-7.982.417-15.397 1.034-23.576 6.099.378 11.852.669 17.587 1.115 9.319.73 18.6 1.897 27.949 2.255 5.95.23 12.018-1.081 17.993-1.015 10.358.12 20.687.782 31.027 1.227l-.023 1.783m118.679 128.021v-13.028c21.896-1.198 43.67-2.4 65.846-3.634v9.61a27580.367 27580.367 0 01-65.846 7.052m-238.89-235.847v-14.2c8.944 1.292 17.594 2.647 26.284 3.81 15.674 2.127 31.377 4.136 47.053 6.326 2.639.372 5.178 1.25 7.804 1.708 2.772.485 3 2.383 2.13 5.694-1.645-.061-3.41-.041-5.145-.204-3.6-.335-6.98-1.809-10.912.292-1.591.848-4.123 0-5.985-.707-11.75-4.437-24.328-5.501-36.708-7.025-4.337-.529-9.373 2.076-13.961 3.762-3.555 1.305-6.888 2.278-10.56.544m176.164 207.631v-20.028c5.519-1.415 10.8-1.284 16.469-.726v20.358l-16.47.396m-.136-27.311v-17.826c5.334-1.163 10.613-.826 16.259-.936 1.328 5.964.657 11.737.469 17.771-5.683 1.392-11.087 2.558-16.728.991m17.044-24.925l-16.72.671v-18.705l16.72-.768v18.802zm.214-39.383v13.939c-5.53 2.103-10.741.911-16.28.673v-13.76l16.28-.852m-.403 98.075v11.567c-5.55.8-10.968 1.579-16.953 2.436v-12.647c5.306-2.144 8.833-2.44 16.954-1.356m-16.864 28.16v-7.74c5.242-2.827 10.84-1.942 16.623-2.89v9.034c-5.488.529-10.743 1.033-16.623 1.596" fill="#FFF"/><path d="M378.79 96.359c-15.866 18.908-31.251 38.186-49.726 53.866 16.219-18.185 32.313-36.678 49.726-53.866m-121 38.216c-20.064 30.507-47.101 54.061-70.597 80.583l-1.196-1.12a7757.903 7757.903 0 0070.744-80.21l1.05.747m-86.445-32.37c-2.447 2.994-4.812 6.058-7.361 8.952-3.526 3.994-7.19 7.857-10.795 11.764-.3-.284-.598-.569-.896-.853a7609.803 7609.803 0 0018.642-20.251l.41.388zm4.191 123.236c2.714-2.943 5.428-5.892 8.143-8.844l.88.854a7827.246 7827.246 0 01-8.177 8.741l-.846-.751m48.578-164.517c2.003-2.842 4.006-5.687 6.009-8.535a18.464 18.464 0 01-.204-.174c-1.867 2.906-3.735 5.81-5.602 8.709h-.203zm-21.829 112.898a7239.79 7239.79 0 005.437-6.389l.835.83a6652.786 6652.786 0 01-5.781 6.022l-.491-.463m668.347 363.841l11.855-1.337v-7.207c-4.124.773-8.117.083-11.855 2.357v6.187zm12.027-22.528c-5.792-.856-8.307-.616-12.09 1.106v10.108c4.268-.701 8.132-1.335 12.09-1.987v-9.227zm.286-78.234l-11.61.559v10.996c3.95.225 7.666 1.208 11.61-.436v-11.119zm-.152 31.414v-14.998l-11.924.519v14.949l11.924-.47zm-12.156 19.854c4.023 1.262 7.878.34 11.93-.762.134-4.812.614-9.416-.333-14.177-4.027.068-7.791-.219-11.597.692v14.247zm.099 21.828c4.236-.119 7.91-.222 11.746-.328v-16.24c-4.043-.453-7.81-.564-11.746.56v16.008zM745.096 340.604c2.619 1.493 4.996.768 7.53-.22 3.275-1.279 6.865-3.292 9.958-2.77 8.83 1.498 17.802 2.621 26.18 6.453 1.329.609 3.135 1.346 4.269.691 2.805-1.622 5.216-.365 7.784-.024 1.238.165 2.496.185 3.669.264.62-2.656.457-4.194-1.52-4.642-1.873-.422-3.684-1.183-5.565-1.538-11.18-2.092-22.38-4.051-33.56-6.115-6.196-1.137-12.366-2.433-18.745-3.687v11.588zm170.377 191.735c15.826-1.937 31.417-3.858 46.96-5.786v-7.574a60936.984 60936.984 0 01-46.96 3.02v10.34zM830.83 429.748c.006-.479.01-.956.017-1.435-7.375-.452-14.741-1.082-22.13-1.277-4.261-.11-8.587.892-12.832.648-6.667-.38-13.286-1.417-19.933-2.104-4.091-.421-8.193-.717-12.544-1.088-.44 6.649-2.133 12.659-.737 19.171 3.747-1.081 7.363-2.219 11.01-3.153 3.586-.921 6.673-3.231 9.959-5.092 3.94-2.235 8.29-3.328 12.499-4.733 1.858-.62 3.816-1.106 5.706-1.086 6.538.069 13.06.546 19.599.551 3.11.002 6.302 1.222 9.386-.402zm-85.797-140.213a7949.62 7949.62 0 0159.973 16.865v-7.97c-6.436-3.166-56.197-17.33-59.973-17.062v8.167zm18.44 131.247c22.286 2.209 44.592 4.902 67.375 3.707v-5.465a14919.55 14919.55 0 00-66.87-8.307c-.327 3.07-.62 5.588-.845 8.11-.045.51.172 1.04.34 1.955zm40.679-93.985a8503.658 8503.658 0 00-59.013-15.018v12.408c19.726 3.423 39.269 6.871 59.013 10.41v-7.8zm.455-15.321a8119.104 8119.104 0 00-59.507-16.245v11.488a8754.254 8754.254 0 0159.507 14.162v-9.405zM916.09 299.8c1.253.294 2.11.538 2.983.693 11.372 2.028 22.74 4.095 34.12 6.098 3.29.581 6.616.915 10.12 1.391v-13.78c-8.09-1.831-15.868-3.74-23.704-5.288-7.91-1.553-15.743-3.706-24.34-4.138.295 5.375.548 10.015.82 15.024zm-152.687 91.07c23.065 2.104 45.242 6.974 68.12 8.047v-9.086c-22.617-4.2-45.327-6.854-68.12-9.506v10.545zm67.578 13.606a11528.154 11528.154 0 00-64.564-9.374c-.718-.101-1.463-.006-2.437-.001v11.614c17.38 2.054 34.43 4.16 51.5 6.139 5.076.595 10.2.756 15.5 1.132v-9.51zm1.713-29.871c-24.038-.514-46.207-8.89-69.242-10.58v11.911a14020.61 14020.61 0 0168.319 8.757l.923-10.088zm82.365 142.163c16.174-1.924 31.707-3.787 47.538-5.697.163-5.966.245-11.434-.05-17.267-15.838 1.2-31.105 2.352-46.268 3.49l-1.22 19.474zm48.12-68.948c-16.075-.1-31.751-.191-47.54-.276v18.5c16.046-.857 31.709.366 47.54-.796V447.82zm-200.24-88.234c23.593 1.667 46.095 8.976 69.678 10.615l.996-9.595a9663.675 9663.675 0 00-70.674-15.783v14.763zm153.416-54.109v22.576c15.9 1.596 31.39 3.174 47.274 4.817-.147-6.758.257-13.055-.214-18.742-16.02-2.981-31.431-5.814-47.06-8.651zm-.987 114.832c-.15 8.008-.107 15.302-.062 23.031 16.324-.099 31.996-.048 47.729-1.38v-17.343c-15.87-1.454-31.48-2.865-47.667-4.308zm.29 73.291c15.582-1.486 31.107-2.973 46.776-4.484 1.31-6.259.828-12.09.78-17.835-10.225-1.537-42.833-1.349-47.555.296V493.6zm.82-161.14v23.46a19558.61 19558.61 0 0146.895 3.432v-21.224a14224.602 14224.602 0 00-46.895-5.668zm46.696 54.371v-21.415c-15.443-2.581-30.996-3.794-46.961-5.159v24.993c15.667.515 31.145 1.035 46.96 1.581zm-343.978-14.726c-.1 2.261-.266 3.822-.221 5.36.152 5.233.538 10.448.552 15.69.14 52.549.225 105.105.325 157.662 0 .526-.007 1.052.002 1.577.099 5.763.59 6.254 5.904 5.872V372.49l-6.562-.385zm343.949 19.978c-15.732-.997-31.215-1.961-47.117-2.936-.305 9.406-.594 18.265-.894 27.48 16.316.778 32.01 2.471 48.01 2.715v-27.259zM705.798 554.595c0-2.611-.074-4.572.013-6.525.468-10.563 1.26-21.129 1.419-31.696.453-30.375.603-60.75.975-91.136.187-15.27.595-30.554.904-45.836.087-4.314-.05-8.644.339-12.941.326-3.583.12-7.759 4.685-9.827-4.38-.881-8.033-1.614-12.22-2.45 0 2.87.034 4.812-.006 6.758-.198 9.503-.344 19.005-.642 28.509-.528 16.844-1.446 33.693-1.676 50.515-.495 36.406-.66 72.8-.956 109.188-.016 1.948-.002 3.896-.002 6.335l7.167-.894zm-66.432 4.832c.153-.942.31-1.461.309-1.977-.027-9.147-.082-18.294-.114-27.44-.107-29.946-.27-59.887-.287-89.832-.013-20.272.183-40.556.269-60.835.007-1.712-.118-3.415-.194-5.457-3.611-.352-6.937-.674-10.483-1.016-.11 1.265-.263 2.117-.242 2.952.242 9.453.619 18.897.75 28.362.197 14.225.29 28.46.313 42.699.046 28.833.023 57.67.002 86.506-.003 3.51-.244 7.025-.25 10.536-.006 5.188-.256 10.405.17 15.65l9.757-.148zm42.746-2.636c.355-8.312.989-15.955.944-23.581-.104-17.662-.72-35.303-.786-52.961-.088-23.212.134-46.441.27-69.667.023-3.744.383-7.507.42-11.253.07-7.103.02-14.201.02-21.576-4.378-.379-8.608-.744-13.38-1.153v181.059l12.512-.868zm-16.836.513c.097-1.48.22-2.533.228-3.585.209-27.886.422-55.777.6-83.668.128-20.081.202-40.161.314-60.244.008-1.418.195-2.845.198-4.262.019-9.557.01-19.111.01-29.217-7.493-.679-15.331-1.385-23.36-2.101-.425 61.849-.755 123.001.079 184.015l8.475-.132c.106-1.2.239-2.05.25-2.899.21-17.163.517-34.33.589-51.495.168-39.826.219-79.65.333-119.479.005-1.585.028-3.206.31-4.759.146-.802.884-1.493 2.045-3.322 1.682 21.077.714 41.081.875 60.977.16 20.011.132 40.037.008 60.061-.123 19.967-.468 39.936-.721 60.263l9.767-.153zM900.14 200.596c15.388-17.949 31.647-34.695 47.558-53.512-25.95-7.797-50.938-16.183-77.116-21.461 0 2.847-.064 5.087.016 7.3.114 3.169.473 6.299.486 9.479.135 33.332.219 66.673.332 100.012.005 1.399.153 2.782.285 5.034 25.824-26.952 50.042-55.319 75.903-81.415-.94 1.801-2 3.433-3.224 4.814-17.71 19.897-35.412 39.629-53.18 59.091-5.53 6.023-11.276 11.698-16.851 17.619-1.128 1.195-2.586 2.839-2.758 4.368-.406 3.61-.131 7.277-.131 10.974.81-.197.99-.171 1.089-.274a8299.277 8299.277 0 0041.985-44.789c.592-.638 1.18-1.282 1.798-1.873.364-.348.777-.616 1.183-.876.104-.067.29-.012.393.073.083.068.096.267.37 1.148-4.982 5.54-10.086 11.279-15.255 16.903-9.67 10.48-19.4 20.817-29.035 31.248-1.082 1.168-2.41 3.053-2.448 4.541-.23 8.797-.113 17.575-.113 26.868 1.892-.883 3.298-1.491 4.679-2.192 10.463-5.329 20.929-10.672 31.376-16.114 3.178-1.66 6.323-2.39 9.624-1.628 13.71 3.19 27.436 6.34 41.16 9.532 1.649.386 3.319.667 5.278 1.056.31-45.088-.177-89.369.27-134.259a6398.925 6398.925 0 00-13.003-4.289c-16.471 18.605-32.636 37.238-50.671 52.622zm-116.986-48.425l.646.802c-1.206 1.633-2.343 3.357-3.63 4.882-10.852 12.824-21.704 25.579-32.631 38.162-1.843 2.114-2.733 4.134-2.717 7.202.115 21.63.054 43.281.076 64.923 0 1.395.213 2.769.328 4.147 11.493 3.211 22.718 6.414 33.963 9.561a3289.686 3289.686 0 0028.664 7.951c2.243.613 3.54 1.628 3.5 5.008-.19 15.58-.171 31.145-.225 46.715-.006 1.653-.001 3.304-.001 5.087 1.224.394 2.183.792 3.175 1.009 6.378 1.396 12.765 2.751 19.144 4.148 1.159.254 2.313.554 3.447.919 1.742.563 2.473 2.063 1.68 4.192-1.561 4.193-1.09 8.467-1.191 12.733-.19 7.952.223 15.859.048 23.817-.243 11.018-.213 22.031-.278 33.044-.022 3.439.554 4.194 3.346 4.393 1.035.074 2.09-.122 3.13-.083 4.306.163 8.617.27 12.91.6 2.679.207 2.874.719 2.6 5.053-17.841-.373-35.683-1.697-53.691-.587l.519 14.171c17.964-.344 35.763-.681 53.79-1.017l-.426 4.154c-17.946.86-35.586-.227-53.115.666v15.457c17.949-.034 35.597-.06 53.419-.08l-.196 4.359c-17.82-.202-35.426-.392-53.381-.577.316 6.366.61 12.299.896 18.034l17.864-.604c5.818-.196 11.635-.41 17.453-.585 5.756-.173 11.51-.308 17.098-.454.517 2.619.452 4.191-1.508 4.369-1.192.108-2.386.15-3.58.171-14.167.257-28.334.504-42.501.762-1.588.029-3.177.1-4.616.148v20.089c17.74-1.131 34.965-2.235 52.373-3.358v4.36a99882.1 99882.1 0 01-52.442 2.929v13.909c8.772-1.007 17.164-2.337 25.576-2.846 8.51-.517 17.038-2.514 25.553-1.378.372 2.874-.747 3.674-2.182 3.951-2.06.399-4.136.766-6.212.916-11.601.84-23.207 1.583-34.808 2.414-2.617.186-5.225.604-8.083.944.18 1.797.249 2.854.4 3.89.148 1.007.383 1.993.616 3.173 18.672-1.692 37.095-1.999 55.809-5.559V123.769c-39.65-8.491-79.67-13.302-119.772-21.263-.102 2.13 0 0 .018 1.246.28 19.759.617 39.511.855 59.282.105 8.715.007 17.459.029 26.187.004 1.357.15 2.696.255 4.465a8692.62 8692.62 0 0038.006-41.515zm-134.67-.11l-.293-.34c.954-1.46 1.812-3.029 2.877-4.365a15470.294 15470.294 0 0034.543-43.607c3.307-4.21 2.802-3.536 6.637-8.401-26.317-4.117-48.14-10.072-74.47-12.426 0 10.517-.097 17.705.029 27.47.206 16.068.553 32.115.866 48.169.023 1.243.249 2.453.438 4.211 1.225-1.525 1.97-2.468 2.729-3.398 12.555-15.458 25.077-31.057 37.692-46.651 2.794-3.468 5.799-6.776 10.475-9.356-4.455 7.889-9.303 13.78-14.013 19.712-11.3 14.174-22.778 28.065-34.25 41.877-2.261 2.714-3.173 5.478-3.15 9.124.209 31.866.263 63.756.37 95.641.003.964.099 1.92.182 3.458.936-.84 1.439-1.189 1.835-1.662 11.442-13.75 22.813-27.669 34.336-41.496 4.916-5.923 10.145-11.491 15.233-17.243l.35.402c-.151.318-.256.686-.458.948-16.236 20.939-32.446 41.723-48.761 62.208-1.977 2.47-2.8 4.797-2.785 8.059.112 24.883.06 49.783.06 74.678v5.033c10.455.883 20.578 1.748 30.984 2.647.33-5.275.81-10.179.916-15.068.378-17.532.622-35.061.936-52.597.054-3.01.226-6.028.298-9.039.043-1.781.637-2.981 2.094-3.834 5.344-3.135 10.632-6.441 15.974-9.598 10.17-6.033 20.367-12.03 30.55-18.085 1.17 1.912 2.296 2.979 3.599 3.329 8.96 2.425 17.963 4.702 26.94 7.093.954.255 1.839.791 2.55 1.106v6.71a7587.277 7587.277 0 00-31.417-8.76l.518 9.946c1.505.395 2.77.74 4.043 1.061 8.153 2.065 16.324 4.072 24.454 6.261 2.883.78 2.838.965 2.044 5.531a8065.728 8065.728 0 00-30.471-8.213v15.986a9520.884 9520.884 0 0131.193 5.913v4.474a9126.785 9126.785 0 00-31.23-6.676l-.622 14.162c10.918 1.81 21.48 3.576 32.162 5.38l-.4 4.378a9792.418 9792.418 0 00-31.58-5.92v12.844a9988.933 9988.933 0 0131.984 6.095l-.401 4.458c-10.663-1.958-20.798-5.368-31.644-6.419v13.703c5.803.965 11.453 2 17.14 2.786 1.06.146 2.275-.692 3.405-1.139 3.678-1.455 7.35-2.942 11.286-4.525.267 13.09.719 25.548.738 38.039.082 52.597.034 105.202.038 157.804 0 1.994.018 3.989.09 5.979.02.498.29.977.56 1.823 1.238-.321 2.46-.64 3.863-1.005 0-6.834.063-13.174-.017-19.507-.097-7.785-.446-15.56-.448-23.346-.001-8.532.427-17.078.393-25.608-.122-29.958-.507-59.898-.515-89.855-.008-26.501.548-53.046.515-79.548-.085-68.089-.342-136.153-.607-204.207-.013-3.669-.343-3.645-.73-7.231-8.766-1.565-17.862-2.377-25.975-4.137-2.89-.624-6.27-.917-6.27-.917-.421.572-.832 1.158-1.28 1.701-3.358 4.085-6.724 8.153-10.088 12.219l-.606-.702c4.01-5.46 6.265-5.458 10.695-11.517-2.192-.531-4.068-2.082-5.558-2.526-1.47-.438-2.388-1.434-3.492-.076-12.314 15.084-22.66 27.59-35.017 42.429-3.988 4.769-8.042 9.448-12.066 14.153zm325.634 386.782c-1.534.85-2.978 1.944-4.53 2.46-8.965 2.968-17.855 6.205-27.19 6.867-14.42 1.016-28.816 2.678-43.227 3.948-12.185 1.068-24.38 1.946-36.565 2.974-8.47.71-16.932 1.567-25.4 2.303-12.182 1.054-24.368 2.048-36.551 3.076-8.915.749-17.828 1.536-26.743 2.272-7.133.587-14.266 1.122-21.4 1.692-9.213.733-18.427 1.459-27.64 2.218-5.942.489-11.888.933-17.821 1.579-7.268.788-14.511 2.003-21.785 2.6-10.113.827-20.246 1.226-30.368 1.858-8.621.536-17.243 1.082-25.858 1.742-5.492.419-9.137-3.067-11.605-8.037-2.445-4.912-3.947-10.206-3.941-16.3.06-59.508-.021-119.011-.23-178.5-.184-52.829-.565-105.631-.891-158.428-.151-24.648-.411-49.277-.543-73.923-.021-4.167.482-8.411.507-12.589.019-3.124-.468-6.176-.511-9.295-.158-11.342-.713-17.245-.72-28.609 0-2.406-.542.007 0-2.406.915-4.075 3.175-3.568 6.672-3.423 22.934.985 52.062 8.637 74.47 12.426 49.315 8.675 91.717 13.33 140.994 23.124 42.13 8.746 84.758 8.906 125.597 23.624a189.141 189.141 0 019.54 3.775c4.688 2.013 7.09 6.001 6.945 13.052-.266 12.959-.16 25.889-.08 38.815.153 24.61.588 49.193.561 73.823-.056 45.973-.358 91.96-.557 137.935-.098 22.886-.153 45.769-.312 68.653-.133 19.191-.384 38.381-.595 57.57-.011.95-.133 1.9-.223 3.124z" fill="#000"/><path d="M796.433 156.649c-12.42 13.199-23.897 27.557-35.465 41.711 13.177-12.031 24.149-27.056 35.465-41.711m-13.278-4.479a8597.38 8597.38 0 01-38.007 41.517c-.105-1.769-.251-3.108-.255-4.466-.022-8.727.076-17.471-.028-26.186-.24-19.772-.576-39.524-.856-59.282-.017-1.247-.12.883-.017-1.247 40.1 7.961 80.122 12.773 119.77 21.264v414.487c-18.713 3.561-37.136 3.867-55.808 5.56-.233-1.181-.467-2.166-.615-3.174-.152-1.035-.22-2.094-.401-3.89 2.858-.339 5.467-.757 8.083-.944 11.6-.83 23.207-1.573 34.808-2.413 2.077-.15 4.152-.518 6.212-.917 1.435-.276 2.554-1.076 2.182-3.95-8.515-1.136-17.042.86-25.553 1.378-8.412.509-16.803 1.839-25.576 2.846v-13.91c17.637-.979 34.988-1.949 52.443-2.929v-4.36a74838.397 74838.397 0 01-52.374 3.359v-20.089c1.439-.048 3.028-.119 4.617-.15 14.167-.256 28.334-.505 42.5-.76a50.392 50.392 0 003.58-.171c1.96-.179 2.025-1.75 1.509-4.369-5.588.146-11.343.281-17.1.454-5.816.175-11.634.388-17.452.585l-17.863.603-.897-18.033c17.955.185 35.563.375 53.38.576.079-1.734.127-2.785.197-4.358-17.822.019-35.47.045-53.42.08v-15.457c17.53-.895 35.17.194 53.116-.666l.427-4.155c-18.028.336-35.827.673-53.791 1.018l-.518-14.172c18.007-1.11 35.849.214 53.69.587.274-4.333.079-4.846-2.6-5.053-4.292-.33-8.604-.437-12.91-.599-1.04-.04-2.094.157-3.13.082-2.792-.198-3.368-.953-3.346-4.393.065-11.012.035-22.025.278-33.044.175-7.958-.237-15.864-.048-23.817.102-4.266-.37-8.539 1.192-12.733.793-2.128.06-3.628-1.681-4.191a37.398 37.398 0 00-3.446-.919c-6.38-1.398-12.767-2.754-19.145-4.148-.992-.217-1.951-.616-3.175-1.009 0-1.783-.005-3.435 0-5.087.055-15.57.036-31.136.226-46.716.04-3.38-1.257-4.395-3.5-5.008a3229.888 3229.888 0 01-28.664-7.951c-11.244-3.146-22.47-6.349-33.963-9.56-.114-1.378-.327-2.752-.328-4.149-.022-21.64.039-43.292-.075-64.923-.017-3.067.874-5.087 2.716-7.202 10.927-12.582 21.779-25.337 32.63-38.16 1.288-1.525 2.425-3.249 3.63-4.883l-.644-.803m-97.036-31.636l.145.011c1.332-2.296 2.664-4.593 3.995-6.892l.145.154-4.285 6.727m-34.646 134.01l.603.653c1.944-2.319 3.889-4.64 5.832-6.963-.21-.246-.42-.492-.628-.738a8384.837 8384.837 0 01-5.807 7.048m58.664-71.836l-.748-.657a9268.236 9268.236 0 01-50.457 63.406c.286.323.57.647.854.971 16.758-21.081 36.04-39.458 50.35-63.72m-39.585 30.07c-5.088 5.752-10.318 11.319-15.234 17.243-11.522 13.826-22.893 27.746-34.336 41.495-.395.474-.898.823-1.835 1.663-.083-1.539-.178-2.494-.181-3.458-.108-31.885-.161-63.775-.37-95.641-.023-3.646.888-6.41 3.15-9.124 11.472-13.812 22.95-27.703 34.25-41.877 4.71-5.932 9.558-11.823 14.013-19.712-4.676 2.58-7.681 5.888-10.475 9.355-12.615 15.595-25.138 31.194-37.692 46.652-.758.93-1.504 1.873-2.73 3.398-.188-1.759-.414-2.968-.437-4.211-.314-16.054-.66-32.101-.867-48.169-.126-9.765-.03-16.953-.03-27.47 26.33 2.354 46.31 7.414 72.627 11.531-3.835 4.864-1.485 5.086-4.792 9.296a15470.212 15470.212 0 01-34.544 43.607c-1.064 1.336-1.923 2.905-2.877 4.365a8560.958 8560.958 0 01-13.295 15.943l.639.752c2.57-3.081 5.186-6.119 7.699-9.273 1.819-2.282 3.505-4.713 5.25-7.082 4.025-4.705 8.078-9.384 12.067-14.153 12.358-14.839 22.703-27.345 35.016-42.429 1.105-1.358 2.854-.776 4.323-.34 1.49.445 1.828.305 4.02.836-4.432 6.06-5.978 8.163-9.987 13.622l.605.703c3.364-4.066 6.73-8.134 10.09-12.219.446-.543.857-1.129 1.278-1.701 0 0 3.38.293 6.27.917 8.114 1.759 17.387 3.348 26.154 4.914.386 3.586.538 2.785.552 6.454.265 68.054.52 136.118.606 204.207.034 26.502-.522 53.047-.514 79.548.008 29.957.392 59.897.514 89.855.035 8.53-.393 17.076-.392 25.608.002 7.786.35 15.561.448 23.346.08 6.333.017 12.673.017 19.507-1.404.365-2.625.684-3.864 1.005-.268-.846-.54-1.325-.558-1.823-.073-1.99-.091-3.986-.091-5.979-.004-52.602.044-105.207-.038-157.804-.02-12.491-.472-24.949-.738-38.039-3.936 1.583-7.608 3.07-11.287 4.525-1.13.447-2.344 1.285-3.404 1.139-5.687-.787-11.338-1.821-17.14-2.787v-13.702c10.845 1.051 20.98 4.461 31.644 6.419l.4-4.458a9935.522 9935.522 0 00-31.983-6.095v-12.844a9792.418 9792.418 0 0131.58 5.92l.4-4.378a10373.671 10373.671 0 00-32.163-5.38l.623-14.162a9127.509 9127.509 0 0131.23 6.676v-4.474a9571.4 9571.4 0 00-31.193-5.913v-15.986a8014.094 8014.094 0 0130.47 8.213c.794-4.566.839-4.752-2.044-5.531-8.13-2.189-16.3-4.196-24.454-6.262-1.271-.32-2.537-.665-4.043-1.06l-.517-9.946a7631.13 7631.13 0 0131.418 8.76v-6.71c-.712-.315-1.597-.851-2.551-1.106-8.978-2.391-17.98-4.668-26.941-7.093-1.302-.35-2.427-1.417-3.597-3.329-10.185 6.055-20.38 12.052-30.551 18.085-5.343 3.157-10.63 6.463-15.975 9.598-1.457.853-2.05 2.053-2.093 3.834-.073 3.011-.244 6.029-.298 9.039-.315 17.536-.56 35.065-.937 52.597-.105 4.889-.585 9.793-.916 15.068-10.405-.899-20.528-1.764-30.982-2.647v-5.033c0-24.895.05-49.795-.062-74.678-.014-3.262.809-5.59 2.785-8.059 16.316-20.485 32.526-41.269 48.76-62.208.203-.262.309-.63.46-.948l4.123-4.748c-.2-.239-.397-.479-.595-.719l-3.878 5.065m229.589-12.182c18.035-15.384 34.2-34.017 50.67-52.622 4.813-2.103 8.934-.898 13.005.449-.447 44.892.04 93.011-.271 138.1-1.96-.39-3.63-.67-5.278-1.057-13.724-3.191-27.45-6.342-41.16-9.531-3.301-.763-6.445-.032-9.624 1.628-10.446 5.441-20.913 10.784-31.376 16.113-1.381.701-2.787 1.31-4.68 2.192 0-9.293-.116-18.071.114-26.868.039-1.488 1.367-3.373 2.449-4.541 9.634-10.43 19.365-20.767 29.034-31.248 5.169-5.624 10.273-11.363 15.257-16.903-.276-.881-.288-1.079-.371-1.148-.103-.085-.29-.139-.394-.073-.406.26-.818.529-1.183.876-.617.591-1.206 1.236-1.797 1.873a8339.555 8339.555 0 01-41.986 44.789c-.097.104-.278.077-1.09.275 0-3.698-.274-7.365.132-10.975.172-1.528 1.63-3.173 2.758-4.368 5.575-5.921 11.32-11.596 16.852-17.618 17.767-19.463 35.47-39.195 53.179-59.092 1.224-1.381 2.284-3.013 3.224-4.814-25.86 26.096-50.08 54.463-75.902 81.416-.132-2.252-.281-3.635-.286-5.035-.113-33.339-.197-66.679-.332-100.011-.012-3.181-.372-6.311-.486-9.48-.08-2.213-.016-4.453-.016-7.3 26.178 5.279 51.166 13.664 77.117 21.461-15.912 18.818-32.17 35.564-47.56 53.512" fill="#FFF"/><path d="M665.275 557.304c-3.344.053-6.253.099-9.767.153.253-20.327.598-40.296.72-60.262.125-20.025.154-40.05-.007-60.062-.161-19.895.807-39.899-.875-60.976-1.161 1.829-1.898 2.519-2.045 3.322-.282 1.553-.304 3.174-.31 4.759-.113 39.829-.164 79.652-.332 119.478-.072 17.165-.378 34.332-.59 51.495-.011.85-.144 1.699-.25 2.9l-8.475.131c-.834-61.013-.504-122.166-.08-184.014 8.03.716 15.868 1.422 23.362 2.1 0 10.106.008 19.661-.01 29.217-.003 1.417-.191 2.844-.198 4.262-.113 20.083-.187 40.163-.315 60.244-.178 27.892-.391 55.782-.6 83.668-.007 1.053-.13 2.106-.228 3.585m16.835-.513l-12.51.868V376.6c4.772.409 9 .774 13.38 1.153 0 7.375.05 14.473-.02 21.576-.037 3.746-.398 7.509-.42 11.253-.136 23.226-.36 46.455-.271 69.667.067 17.658.683 35.299.786 52.961.045 7.626-.59 15.269-.944 23.581m-42.745 2.636l-9.758.148c-.426-5.245-.176-10.461-.17-15.65.006-3.511.247-7.025.25-10.536.022-28.836.044-57.673-.002-86.506a3490.825 3490.825 0 00-.312-42.698c-.131-9.466-.508-18.909-.75-28.362-.022-.835.133-1.688.242-2.953 3.546.342 6.872.664 10.482 1.016.077 2.042.202 3.745.195 5.457-.086 20.279-.282 40.563-.27 60.835.019 29.945.18 59.887.287 89.832.033 9.146.087 18.293.115 27.44.002.516-.157 1.036-.31 1.977m66.433-4.832l-7.167.895c0-2.44-.014-4.387.002-6.335.297-36.389.46-72.783.956-109.189.23-16.821 1.147-33.671 1.676-50.515.298-9.503.444-19.005.642-28.508.04-1.947.006-3.889.006-6.758 4.187.836 7.84 1.568 12.22 2.449-4.565 2.068-4.36 6.244-4.685 9.827-.388 4.297-.252 8.627-.34 12.942-.308 15.282-.716 30.565-.903 45.836-.372 30.385-.522 60.76-.975 91.135-.158 10.568-.951 21.133-1.42 31.697-.086 1.953-.012 3.914-.012 6.524m257.347-162.512v27.259c-16-.244-31.694-1.937-48.011-2.715l.895-27.48c15.9.975 31.385 1.939 47.116 2.936m-343.948-19.977l6.562.385v185.775c-5.315.383-5.805-.108-5.905-5.871-.01-.525-.001-1.052-.002-1.577-.1-52.558-.184-105.113-.325-157.662-.014-5.242-.4-10.457-.552-15.691-.045-1.538.12-3.098.222-5.359m343.978 14.725a28339.19 28339.19 0 00-46.961-1.581v-24.993c15.965 1.365 31.518 2.578 46.96 5.159v21.415zm-46.697-54.371c16.072 1.916 31.449 3.775 46.896 5.668v21.225a19054.8 19054.8 0 00-46.896-3.433v-23.46zm-.818 161.14v-22.022c4.722-1.646 37.33-1.833 47.555-.296.048 5.745.53 11.576-.781 17.835-15.67 1.51-31.193 2.998-46.774 4.483m-.291-73.291a18857.3 18857.3 0 0147.667 4.309v17.342c-15.733 1.332-31.405 1.282-47.73 1.38-.044-7.728-.087-15.022.063-23.031m.986-114.831c15.629 2.837 31.04 5.67 47.06 8.65.47 5.688.067 11.985.214 18.743a15783.007 15783.007 0 00-47.274-4.818v-22.575zm-153.416 54.108v-14.763a9612.266 9612.266 0 0170.675 15.784c-.357 3.428-.656 6.317-.996 9.594-23.583-1.638-46.085-8.948-69.68-10.615m200.241 88.234v17.428c-15.831 1.162-31.494-.061-47.54.796v-18.5c15.789.085 31.465.175 47.54.276m-48.12 68.949l1.22-19.475a60298.19 60298.19 0 0046.269-3.49c.294 5.833.212 11.302.049 17.268-15.831 1.91-31.364 3.772-47.538 5.697m-82.364-142.163l-.924 10.088a13882.436 13882.436 0 00-68.318-8.757v-11.912c23.035 1.69 45.204 10.066 69.242 10.581m-1.715 29.87v9.511c-5.3-.376-10.424-.537-15.5-1.132-17.068-1.98-34.12-4.085-51.5-6.14v-11.614c.975-.005 1.72-.1 2.438.002 21.389 3.039 42.777 6.151 64.563 9.373m-67.577-13.606v-10.545c22.793 2.652 45.503 5.306 68.12 9.506v9.086c-22.88-1.073-45.056-5.943-68.12-8.047M916.09 299.8c-.272-5.009-.525-9.648-.82-15.023 8.597.431 16.43 2.585 24.34 4.137 7.836 1.548 15.614 3.457 23.705 5.288v13.781c-3.505-.477-6.831-.811-10.12-1.392-11.381-2.003-22.75-4.069-34.121-6.098-.873-.155-1.73-.399-2.983-.693m-111.484 11.676v9.405a8814.442 8814.442 0 00-59.507-14.162v-11.487a8055.454 8055.454 0 0159.507 16.244m-.455 15.321v7.8a10645.145 10645.145 0 00-59.013-10.409v-12.409c19.755 4.953 39.2 9.901 59.013 15.018m-40.678 93.985c-.17-.915-.386-1.445-.341-1.955.225-2.523.518-5.04.846-8.11a14919.55 14919.55 0 0166.869 8.307v5.465c-22.783 1.194-45.09-1.498-67.374-3.707m-18.44-131.247v-8.167c3.775-.269 53.537 13.896 59.973 17.062v7.97a7962.865 7962.865 0 00-59.973-16.865m85.796 140.213c-3.083 1.624-6.275.404-9.385.402-6.54-.005-13.061-.482-19.6-.551-1.89-.02-3.847.466-5.705 1.086-4.208 1.405-8.56 2.498-12.5 4.733-3.286 1.861-6.372 4.171-9.958 5.092-3.647.934-7.263 2.072-11.01 3.153-1.397-6.512.298-12.522.737-19.171 4.35.371 8.453.667 12.544 1.088 6.647.687 13.266 1.724 19.933 2.105 4.245.243 8.57-.759 12.833-.649 7.387.195 14.754.825 22.129 1.277l-.017 1.435m84.641 102.591v-10.34c15.616-.998 31.146-1.997 46.96-3.019v7.573a28113.82 28113.82 0 01-46.96 5.786M745.095 340.605v-11.589c6.379 1.255 12.549 2.551 18.746 3.688 11.179 2.064 22.379 4.022 33.559 6.115 1.882.354 3.692 1.115 5.565 1.538 1.977.447 2.14 1.985 1.52 4.642-1.173-.08-2.431-.099-3.67-.264-2.567-.341-4.978-1.599-7.782.023-1.135.656-2.941-.082-4.27-.69-8.378-3.832-17.35-4.955-26.18-6.453-3.092-.523-6.683 1.491-9.957 2.769-2.535.989-4.912 1.713-7.531.221m125.641 169.392v-16.008c3.937-1.124 7.703-1.013 11.746-.56v16.24c-3.835.106-7.51.209-11.746.328m-.099-21.828v-14.247c3.806-.911 7.57-.624 11.597-.691.947 4.76.467 9.364.334 14.176-4.053 1.102-7.908 2.024-11.931.762m12.157-19.853l-11.924.47v-14.949l11.924-.519v14.998zm.152-31.415v11.119c-3.944 1.644-7.66.66-11.61.436V437.46l11.61-.559m-.286 78.234v9.228c-3.958.651-7.822 1.286-12.091 1.986v-10.108c3.783-1.721 6.299-1.961 12.09-1.106m-12.026 22.528v-6.187c3.738-2.274 7.73-1.584 11.855-2.357v7.207l-11.855 1.337" fill="#FFF"/><path d="M796.433 156.649c-11.316 14.656-22.288 29.68-35.465 41.711 11.568-14.154 23.046-28.512 35.465-41.711m-86.296 26.059c-14.311 24.262-33.593 42.64-50.351 63.72l-.853-.971a9268.205 9268.205 0 0050.456-63.406l.748.657m-61.653-30.646c-1.745 2.368-3.432 4.8-5.25 7.082-2.514 3.153-5.128 6.191-7.7 9.272l-.638-.751a8972.596 8972.596 0 0013.295-15.944l.293.341zm2.989 102.482c1.936-2.347 3.87-4.696 5.807-7.048l.628.738a8565.197 8565.197 0 01-5.832 6.963c-.202-.217-.403-.435-.603-.653m34.646-134.01l4.285-6.727a10.55 10.55 0 01-.145-.154 8926.736 8926.736 0 01-3.995 6.892l-.145-.011m-15.569 92.244l3.879-5.065c.198.24.396.48.596.719l-4.123 4.747a43.756 43.756 0 01-.351-.401M127.81 600.814l16.273 9.771 827.919-59.488 2.117-12.254 1.206-379.92-6.945-13.051-5.947 397.807z" fill="#000"/><path d="M119.874 14.04l.407-5.925a6.564 6.564 0 017.592-6.03L969.42 137.576a7.021 7.021 0 015.904 6.931v13.984l-5.986-7.734-840.29-135.263-9.497 5.012.323-6.466z" fill="#000"/></g></svg>