<svg width="578" height="894" viewBox="0 0 578 894" xmlns="http://www.w3.org/2000/svg"><g fill="none" fill-rule="evenodd"><path d="M383.687 531.83c5.548-.406 10.506-.766 15.685-1.144v-7.523c-5.457.711-10.738-.105-15.685 2.189v6.478zm15.911-23.257c-7.662-1.055-10.99-.873-15.995.824v10.583l15.995-1.777v-9.63zm.38-81.634h-15.361v11.512c5.226.421 10.142 1.623 15.36.091V426.94zM384 459.716h15.775v-15.653H384v15.653zm-.307 20.286c5.323 1.464 10.421.636 15.783-.37.178-5.019.81-9.804-.442-14.81-5.326-.09-10.307-.54-15.34.262v14.918zm.13 22.86h15.538v-16.95c-5.348-.609-10.331-.852-15.538.19v16.76zM217.61 315.276c3.465 1.839 6.61 1.252 9.964.393 4.33-1.106 9.08-2.981 13.172-2.156 11.682 2.356 23.55 4.31 34.636 9.106 1.756.76 4.145 1.696 5.647 1.085 3.71-1.508 6.9.032 10.295.602 1.638.277 3.303.398 4.855.577.822-2.784.606-4.438-2.01-5.076-2.478-.604-4.873-1.566-7.363-2.099-14.79-3.167-29.608-6.21-44.396-9.388-8.199-1.761-16.36-3.7-24.8-5.617v12.573zm225.399 211.987l62.126-4.88v-7.732l-62.126 1.919v10.693zm-111.976-110.55l.022-1.517c-9.758-.88-19.502-1.953-29.276-2.568-5.638-.353-11.361.477-16.976-.017-8.821-.779-17.578-2.263-26.37-3.376-5.412-.685-10.84-1.237-16.594-1.888-.583 7.152-2.824 13.549-.977 20.652 4.956-.971 9.742-2.011 14.565-2.827 4.744-.803 8.829-3.122 13.176-4.944 5.212-2.187 10.968-3.122 16.536-4.394 2.458-.563 5.048-.976 7.547-.85 8.65.43 17.28 1.292 25.93 1.65 4.114.17 8.337 1.636 12.417.08zM217.529 259.862l79.34 23.895v-8.502c-8.516-3.99-74.347-24.157-79.34-24.255v8.862zm24.394 143.484c29.483 3.669 58.99 7.805 89.131 7.801v-5.787l-88.462-12.845c-.435 3.294-.823 5.993-1.12 8.702-.059.547.228 1.134.451 2.13zm53.814-97.907c-26.212-7.196-51.936-14.259-78.07-21.432v13.46l78.07 16.293v-8.321zm.603-16.305l-78.725-23.084v12.463c26.243 6.883 52.24 13.704 78.725 20.653v-10.032zm147.486-2.323c1.657.414 2.792.742 3.946.98 15.043 3.083 30.083 6.187 45.139 9.207 4.351.873 8.752 1.494 13.388 2.274v-14.069c-10.704-2.581-20.993-5.228-31.36-7.518-10.462-2.313-20.825-5.248-32.2-6.485.39 5.586.724 10.407 1.087 15.61zM241.83 371.059c30.514 3.81 59.851 10.46 90.12 13.052v-9.618c-29.922-5.968-59.966-10.36-90.12-14.815v11.38zm89.4 18.903c-28.822-4.775-57.115-9.465-85.413-14.135-.95-.157-1.935-.103-3.225-.164v12.534c22.994 3.295 45.552 6.59 68.132 9.722 6.716.932 13.495 1.405 20.507 2.113v-10.07zm2.268-31.506c-31.8-2.245-61.129-12.812-91.603-16.366v12.855l90.381 14.125 1.222-10.614zM442.46 511.148l62.89-4.569c.216-6.086.325-11.667-.065-17.633l-61.21 2.097c-.554 6.895-1.063 13.217-1.615 20.105zm63.66-69.126l-62.892-2.452v19.132c21.227-.226 41.949 1.665 62.892 1.112v-17.792zM241.215 337.26c31.213 3.603 60.982 13.09 92.18 16.53l1.318-10.081-93.498-22.384v15.935zm202.96-44.556v23.344c21.038 2.91 41.529 5.747 62.542 8.655-.196-6.91.339-13.307-.284-19.15l-62.258-12.849zm-1.305 118.685c-.198 8.275-.142 15.82-.082 23.818 21.595.669 42.328 1.456 63.142.825v-17.707l-63.06-6.936zm.386 75.813l61.879-3.045c1.735-6.345 1.096-12.315 1.032-18.183-13.526-1.967-56.666-3.062-62.911-1.547v22.775zm1.082-166.588v24.257l62.04 6.846V330.05l-62.04-9.436zm61.776 59.142v-21.862c-20.43-3.697-41.006-6.023-62.126-8.558v25.845c20.726 1.527 41.202 3.033 62.126 4.575zM51.053 339.73c-.133 2.538-.352 4.282-.293 6.016.201 5.904.712 11.802.73 17.704.187 59.156.298 118.314.43 177.47.002.591-.01 1.183.003 1.775.132 6.487.78 7.049 7.81 6.71V340.689l-8.68-.958zm455.022 45.386l-62.331-5.917-1.183 28.368c21.584 1.696 42.348 4.28 63.514 5.38v-27.83zM165.62 546.748c0-2.865-.098-5.018.017-7.16.62-11.581 1.669-23.152 1.878-34.74.599-33.299.798-66.604 1.29-99.906.247-16.735.786-33.464 1.196-50.197.115-4.723-.066-9.48.45-14.16.43-3.903.157-8.496 6.196-10.395l-16.166-3.68c0 3.152.045 5.289-.008 7.424-.262 10.425-.456 20.853-.85 31.273-.698 18.473-1.914 36.936-2.216 55.415-.656 40-.873 80.01-1.266 120.015-.02 2.142-.002 4.283-.002 6.966 3.344-.303 6.21-.56 9.481-.855zm-87.885 4.195c.202-1.051.411-1.63.41-2.206-.037-10.235-.11-20.47-.153-30.705-.14-33.51-.354-67.02-.38-100.53-.017-22.684.244-45.37.357-68.054.01-1.914-.156-3.83-.257-6.12l-13.867-1.967c-.144 1.411-.349 2.356-.32 3.294.32 10.632.818 21.258.991 31.891.26 15.977.385 31.957.414 47.937.06 32.358.03 64.717.002 97.075-.004 3.94-.323 7.88-.33 11.818-.008 5.823-.339 11.674.224 17.567h12.909zm56.55-2.195c.47-9.177 1.308-17.608 1.249-26.032-.136-19.514-.953-39.024-1.04-58.536-.116-25.653.178-51.306.359-76.96.029-4.134.505-8.267.554-12.403.094-7.842.027-15.685.027-23.834-5.792-.75-11.388-1.472-17.7-2.29v200.799l16.55-.744zm-22.273.275c.13-1.643.291-2.809.302-3.977.276-30.958.558-61.916.793-92.875.17-22.286.267-44.573.416-66.86.01-1.572.258-3.144.262-4.717.024-10.606.013-21.212.013-32.429l-30.904-4.149c-.562 69.103-1 137.448.105 205.67h11.21c.142-1.336.318-2.28.332-3.228.28-19.128.684-38.255.78-57.384.223-44.38.29-88.762.44-133.144.007-1.765.036-3.57.41-5.279.194-.884 1.17-1.595 2.706-3.544 2.224 23.591.944 45.798 1.157 67.96.214 22.288.174 44.582.01 66.871-.163 22.228-.619 44.453-.953 67.085h12.92zm310.713-366.661c20.356-16.765 41.867-32.046 62.916-49.357-34.33-11.425-67.388-23.494-102.02-32.645 0 2.98-.085 5.318.02 7.647.151 3.334.628 6.66.645 9.992.178 34.916.289 69.833.439 104.749.005 1.465.201 2.93.377 5.3 34.163-25.308 66.202-51.91 100.413-75.628-1.243 1.73-2.645 3.274-4.264 4.54-23.427 18.331-46.85 36.671-70.354 54.903-7.315 5.674-14.917 10.98-22.294 16.578-1.491 1.131-3.42 2.7-3.647 4.281-.538 3.738-.173 7.605-.173 11.476 1.072-.123 1.31-.079 1.44-.177 18.52-14.041 37.031-28.092 55.545-42.142.781-.594 1.56-1.195 2.378-1.736.482-.32 1.027-.551 1.564-.773.139-.059.385.019.52.119.11.079.127.285.491 1.226-6.592 5.177-13.345 10.561-20.183 15.834-12.793 9.86-25.664 19.618-38.411 29.536-1.431 1.113-3.187 2.953-3.24 4.508-.303 9.187-.15 18.389-.15 28.118 2.505-.751 4.365-1.259 6.191-1.866 13.843-4.598 27.689-9.182 41.509-13.845 4.205-1.418 8.365-1.875 12.732-.772 18.139 4.58 36.297 9.086 54.452 13.603 2.182.543 4.391.98 6.983 1.552.41-45.996-.234-91.25.358-137.02l-17.204-6.045c-21.79 17.015-43.175 34.249-67.033 48.044zm-154.765-66.14l.854.95c-1.596 1.583-3.1 3.276-4.803 4.736-14.356 12.31-28.713 24.62-43.169 36.813-2.437 2.055-3.615 4.134-3.593 7.464.15 23.483.071 46.967.099 70.451.001 1.514.284 3.028.435 4.534 15.204 4.682 30.054 9.296 44.931 13.822 12.62 3.841 25.26 7.624 37.92 11.335 2.967.869 4.684 2.074 4.63 5.668-.251 16.57-.226 33.146-.297 49.72-.008 1.757-.001 3.516-.001 5.415 1.619.516 2.886 1.015 4.2 1.324 8.436 1.985 16.887 3.92 25.326 5.891 1.534.359 3.06.764 4.56 1.237 2.305.727 3.273 2.368 2.223 4.557-2.066 4.314-1.442 8.865-1.576 13.367-.25 8.393.295 16.776.063 25.175-.322 11.631-.281 23.272-.368 34.91-.027 3.632.734 4.462 4.428 4.82 1.369.133 2.764-.018 4.14.08 5.696.4 11.4.74 17.08 1.313 3.544.357 3.802.907 3.44 5.444-23.603-1.307-47.207-3.636-71.03-3.404l.687 15.14 71.16 1.495-.564 4.343c-23.742.077-47.077-1.896-70.267-1.773v16.48l70.67 2.158c-.095 1.649-.157 2.75-.26 4.569l-70.62-2.786 1.186 19.26h23.633c7.696 0 15.392-.017 23.089.005 7.614.023 15.227.086 22.62.13.684 2.77.599 4.42-1.996 4.538a81.659 81.659 0 01-4.735.058c-18.743-.215-37.485-.444-56.227-.662-2.102-.024-4.203-.004-6.107-.004v21.415c23.47-.692 46.257-1.363 69.287-2.04v4.58l-69.378 1.648v14.825c11.606-.865 22.708-2.077 33.836-2.416 11.259-.342 22.54-2.24 33.804-.84.493 3.03-.988 3.844-2.886 4.103-2.727.372-5.47.71-8.217.823-15.35.622-30.702 1.146-46.05 1.767-3.461.14-6.912.526-10.693.826.238 1.918.329 3.047.53 4.156.196 1.075.506 2.13.814 3.393 24.701-1.42 49.074-1.37 73.833-4.728V97.453l-158.147-44.33c-.135 2.295-.305 3.654-.282 5.008.37 21.487.816 42.971 1.131 64.458.14 9.47.01 18.945.039 28.417.005 1.472.198 2.945.338 4.879l50.28-39.664zM89.799 96.498l-.388-.426c1.262-1.483 2.396-3.102 3.806-4.43 15.207-14.332 30.454-28.622 45.7-42.914 4.374-4.101 8.779-8.172 13.852-12.89C117.953 26.847 84.017 18.308 49.184 11c0 11.845-.135 22.868.03 33.887.274 18.128.732 36.253 1.146 54.378.032 1.402.33 2.8.58 4.807 1.622-1.532 2.608-2.48 3.61-3.411 16.61-15.432 33.177-30.907 49.865-46.25 3.696-3.4 7.671-6.58 13.858-8.67-5.894 8.02-12.308 13.78-18.538 19.622C84.785 79.38 69.6 93.15 54.424 106.924c-2.993 2.715-4.198 5.693-4.167 9.8.275 35.909.347 71.816.488 107.725.005 1.087.13 2.173.242 3.913 1.238-.837 1.904-1.173 2.427-1.661 15.137-14.119 30.18-28.343 45.424-42.345 6.503-5.974 13.422-11.495 20.152-17.222l.464.491c-.2.334-.34.729-.607.993-21.478 21.22-42.923 42.473-64.507 63.585-2.615 2.556-3.704 5.084-3.684 8.76.148 28.025.08 56.051.08 84.076v5.667c13.83 1.854 27.223 3.65 40.988 5.494.438-5.856 1.072-11.286 1.212-16.727.5-19.519.823-39.04 1.24-58.56.071-3.35.299-6.696.394-10.046.057-1.98.842-3.255 2.77-4.05 7.07-2.918 14.063-6.022 21.132-8.946 13.456-5.566 26.943-11.056 40.418-16.578 1.547 2.232 3.035 3.528 4.759 4.06 11.854 3.65 23.763 7.125 35.64 10.703 1.262.38 2.434 1.06 3.375 1.478v7.304c-14.075-4.383-27.535-8.577-41.564-12.948l.685 10.981c1.991.594 3.666 1.107 5.348 1.594 10.787 3.12 21.597 6.165 32.352 9.389 3.813 1.142 3.754 1.34 2.703 6.23l-40.31-12.11v17.558c13.857 3.195 27.597 6.365 41.266 9.519v4.87l-41.315-10.318-.824 15.495 42.55 8.852c-.236 2.107-.38 3.394-.528 4.73l-41.78-9.35v14.11c14.279 3.186 28.227 6.3 42.312 9.444l-.53 4.819c-14.106-3.035-27.515-7.633-41.863-9.728v15.05c7.676 1.54 15.152 3.138 22.675 4.462 1.403.246 3.01-.57 4.505-.966 4.866-1.288 9.724-2.608 14.93-4.01.353 14.27.951 27.861.977 41.453.109 57.235.046 114.471.05 171.707 0 2.17.023 4.341.121 6.508.025.542.383 1.07.738 1.994l5.112-1.02c0-7.427.084-14.315-.022-21.199-.13-8.463-.591-16.923-.593-25.384-.002-9.272.564-18.545.518-27.816-.16-32.56-.67-65.12-.68-97.681-.01-28.803.725-57.607.68-86.409-.112-74.003-.451-148.004-.801-222.007-.02-3.989-.965-7.975-1.477-11.935-11.598-3.119-22.5-5.81-33.234-9.064-3.824-1.16-6.395-.244-8.914 2.286-.557.56-1.101 1.134-1.69 1.657-4.445 3.939-8.899 7.866-13.35 11.795l-.8-.87 16.471-16.642c-2.9-.946-4.926-1.535-6.897-2.27-1.943-.724-3.294-.033-4.756 1.279A16298.424 16298.424 0 01105.76 82.58c-5.275 4.69-10.64 9.281-15.962 13.918zm430.795 438.664c-2.03.836-3.942 1.923-5.994 2.419-11.86 2.861-23.622 6.012-35.971 6.527-19.076.795-38.122 2.264-57.186 3.34-16.12.909-32.253 1.624-48.375 2.501-11.203.61-22.399 1.377-33.601 2.02-16.117.926-32.238 1.793-48.355 2.704-11.794.665-23.586 1.375-35.38 2.036-9.435.528-18.873 1.002-28.31 1.515-12.189.663-24.378 1.323-36.566 2.021-7.861.451-15.728.856-23.576 1.483-9.615.77-19.198 2.009-28.822 2.574-13.377.785-26.783 1.1-40.174 1.675-11.406.492-22.81.996-34.209 1.63-7.265.405-12.086-3.56-15.353-9.19-3.232-5.574-5.221-11.569-5.213-18.44.08-67.1-.028-134.2-.303-201.3-.245-59.593-.748-119.185-1.179-178.777-.202-27.825-.543-55.648-.719-83.471-.03-4.704.637-9.413.67-14.12.025-3.521-.618-7.044-.676-10.57-.208-12.823-.366-25.647-.374-38.47 0-2.715.438-5.505 1.154-8.129 1.21-4.428 3.765-5.717 8.39-4.92 30.341 5.235 60.12 12.988 89.766 21.069 65.24 17.783 130.222 36.514 195.413 54.48 55.735 15.36 110.702 33.001 164.729 53.57a339.113 339.113 0 0112.622 5.085c6.2 2.648 9.38 7.012 9.187 14.168-.354 13.155-.212 26.326-.106 39.49.202 25.057.778 50.115.741 75.172-.073 46.77-.473 93.54-.736 140.31-.131 23.282-.204 46.567-.413 69.849-.176 19.525-.509 39.05-.787 58.575-.014.966-.176 1.93-.294 3.174z" fill="#000"/><path d="M285.526 122.86c-16.43 12.446-31.614 26.353-46.918 40.12 17.432-11.272 31.948-25.963 46.918-40.12zm-17.566-6.639l-50.28 39.664c-.14-1.934-.333-3.406-.338-4.88-.028-9.471.1-18.946-.039-28.416-.315-21.487-.76-42.97-1.13-64.458-.024-1.354.146-2.713.281-5.008 53.051 14.872 105.692 29.627 158.147 44.33v434.854c-24.758 3.358-49.132 3.308-73.833 4.728-.308-1.263-.618-2.318-.814-3.394-.201-1.108-.292-2.237-.53-4.155 3.781-.3 7.233-.687 10.693-.826 15.349-.62 30.702-1.145 46.05-1.768 2.747-.11 5.49-.45 8.218-.822 1.897-.259 3.378-1.074 2.885-4.103-11.264-1.4-22.545.498-33.803.841-11.13.338-22.231 1.55-33.837 2.415v-14.825l69.378-1.649v-4.578c-23.03.676-45.817 1.347-69.287 2.039v-21.414c1.904 0 4.006-.021 6.107.003 18.742.218 37.485.446 56.227.662 1.578.018 3.16.015 4.735-.058 2.595-.119 2.68-1.768 1.997-4.537-7.394-.044-15.007-.108-22.621-.13-7.697-.023-15.393-.005-23.09-.005h-23.632l-1.187-19.261 70.62 2.786.26-4.57c-23.577-.718-46.924-1.43-70.67-2.156v-16.48c23.19-.124 46.526 1.85 70.268 1.772l.565-4.343-71.161-1.495-.686-15.14c23.822-.232 47.426 2.097 71.03 3.404.361-4.537.103-5.087-3.44-5.444-5.68-.574-11.385-.913-17.08-1.313-1.377-.097-2.772.053-4.141-.08-3.693-.358-4.455-1.188-4.428-4.82.088-11.638.047-23.279.368-34.91.232-8.399-.313-16.782-.062-25.175.134-4.501-.49-9.053 1.575-13.367 1.05-2.19.082-3.83-2.223-4.557a61.693 61.693 0 00-4.56-1.236c-8.44-1.972-16.889-3.907-25.327-5.892-1.312-.309-2.58-.808-4.2-1.324 0-1.899-.006-3.658.002-5.416.071-16.573.046-33.148.297-49.72.055-3.593-1.663-4.797-4.63-5.667-12.66-3.711-25.3-7.494-37.92-11.335-14.877-4.526-29.727-9.14-44.931-13.821-.151-1.507-.434-3.021-.435-4.535-.028-23.484.051-46.967-.1-70.45-.021-3.331 1.157-5.409 3.594-7.465 14.457-12.192 28.813-24.503 43.17-36.813 1.702-1.46 3.206-3.153 4.802-4.736l-.854-.95zM139.586 67.337l.193.035c1.76-2.322 3.523-4.644 5.284-6.966l.193.194-5.67 6.737M93.752 211.214l.798.8 7.715-7.067-.83-.897c-2.56 2.389-5.122 4.777-7.683 7.164m77.608-71.962c-.33-.275-.66-.55-.99-.823l-66.749 63.55 1.13 1.182c22.169-21.34 47.677-39.167 66.61-63.91m-52.37 27.883c-6.73 5.727-13.65 11.247-20.153 17.22-15.244 14.004-30.287 28.227-45.424 42.347-.523.488-1.19.823-2.427 1.661-.111-1.741-.237-2.826-.242-3.913-.142-35.909-.213-71.817-.487-107.724-.032-4.108 1.173-7.086 4.166-9.801 15.177-13.775 30.36-27.544 45.31-41.562 6.231-5.843 12.645-11.601 18.54-19.623-6.187 2.092-10.163 5.27-13.86 8.67-16.687 15.344-33.255 30.82-49.863 46.25-1.002.932-1.99 1.88-3.61 3.412-.25-2.007-.549-3.405-.58-4.807-.415-18.125-.873-36.25-1.146-54.378-.167-11.02-.031-22.042-.031-33.886 34.833 7.307 68.77 15.846 103.585 24.84-5.073 4.717-9.478 8.788-13.853 12.89-15.245 14.29-30.492 28.581-45.7 42.913-1.409 1.328-2.543 2.947-3.805 4.43l-17.588 15.843c.28.312.563.624.845.936 3.401-3.071 6.859-6.083 10.185-9.234 2.405-2.277 4.637-4.739 6.945-7.12 5.324-4.636 10.688-9.227 15.963-13.917a16245 16245 0 0048.968-43.688c1.462-1.312 2.813-2.004 4.756-1.279 1.971.735 3.997 1.324 6.897 2.27L149.91 56.526l.801.87c4.451-3.93 8.905-7.856 13.348-11.795.591-.523 1.135-1.098 1.692-1.657 2.52-2.531 5.09-3.445 8.914-2.286 10.733 3.254 21.636 5.945 33.234 9.064.512 3.96 1.458 7.946 1.477 11.935.35 74.003.689 148.004.802 222.007.044 28.802-.69 57.606-.681 86.409.01 32.56.52 65.12.68 97.68.046 9.271-.52 18.545-.518 27.817.002 8.461.463 16.921.593 25.384.106 6.884.021 13.772.021 21.198l-5.111 1.021c-.355-.925-.713-1.452-.738-1.993a143.91 143.91 0 01-.12-6.509c-.006-57.236.058-114.472-.05-171.707-.027-13.592-.625-27.183-.977-41.452-5.207 1.4-10.065 2.72-14.931 4.009-1.495.395-3.102 1.211-4.505.966-7.523-1.324-14.999-2.921-22.675-4.462v-15.05c14.348 2.095 27.757 6.693 41.864 9.728l.529-4.819-42.311-9.446v-14.107l41.779 9.347.527-4.728c-14.13-2.94-28.104-5.848-42.549-8.852l.824-15.495 41.315 10.317v-4.87c-13.669-3.153-27.409-6.323-41.267-9.518v-17.558l40.311 12.11c1.051-4.89 1.11-5.088-2.703-6.23-10.756-3.224-21.565-6.27-32.352-9.39-1.682-.486-3.357-.999-5.348-1.593l-.685-10.98 41.564 12.947v-7.304c-.942-.42-2.113-1.098-3.374-1.48-11.878-3.577-23.787-7.052-35.641-10.701-1.724-.532-3.212-1.828-4.76-4.06-13.474 5.521-26.961 11.012-40.417 16.578-7.069 2.924-14.062 6.028-21.133 8.946-1.927.794-2.712 2.07-2.769 4.05-.096 3.349-.323 6.696-.394 10.046-.416 19.52-.74 39.041-1.24 58.56-.14 5.44-.774 10.87-1.213 16.727l-40.986-5.494v-5.667c0-28.025.067-56.051-.081-84.077-.02-3.675 1.069-6.203 3.684-8.76 21.584-21.112 43.03-42.365 64.507-63.584.268-.264.407-.659.607-.993 1.818-1.574 3.637-3.148 5.454-4.723l-.788-.875-5.13 5.107m303.735 15.228c23.859-13.795 45.245-31.03 67.033-48.044l17.204 6.044c-.591 45.771.053 91.025-.357 137.021-2.592-.573-4.8-1.01-6.983-1.553-18.156-4.517-36.313-9.023-54.453-13.603-4.366-1.102-8.527-.645-12.732.773-13.82 4.662-27.666 9.247-41.508 13.845-1.827.606-3.687 1.114-6.19 1.865 0-9.728-.155-18.93.15-28.118.052-1.554 1.807-3.394 3.239-4.507 12.747-9.919 25.618-19.676 38.41-29.537 6.84-5.272 13.591-10.656 20.183-15.833-.364-.941-.38-1.148-.49-1.227-.135-.1-.382-.177-.521-.12-.537.224-1.082.455-1.563.775-.818.541-1.597 1.142-2.379 1.736-18.513 14.049-37.025 28.1-55.544 42.142-.13.098-.368.053-1.441.177 0-3.87-.365-7.738.173-11.476.227-1.582 2.157-3.15 3.648-4.281 7.377-5.6 14.978-10.905 22.294-16.578 23.505-18.233 46.926-36.572 70.354-54.903 1.619-1.267 3.02-2.81 4.264-4.54-34.21 23.718-66.251 50.32-100.414 75.627-.175-2.37-.372-3.835-.377-5.3-.15-34.915-.26-69.832-.44-104.748-.016-3.332-.492-6.658-.643-9.993-.105-2.328-.02-4.666-.02-7.646 34.63 9.15 67.69 21.22 102.02 32.644-21.05 17.312-42.56 32.592-62.917 49.358" fill="#FFF"/><path d="M112.012 549.023h-12.92c.333-22.632.789-44.857.952-67.085.164-22.29.204-44.583-.01-66.872-.213-22.161 1.067-44.368-1.157-67.959-1.536 1.95-2.512 2.66-2.706 3.544-.374 1.709-.403 3.515-.41 5.28-.15 44.382-.217 88.763-.44 133.143-.096 19.129-.5 38.257-.78 57.384-.014.947-.19 1.892-.331 3.228H82.999c-1.104-68.222-.667-136.567-.105-205.669l30.904 4.148c0 11.217.011 21.823-.013 32.429-.004 1.573-.251 3.145-.262 4.718-.149 22.286-.247 44.573-.416 66.86-.235 30.958-.517 61.917-.793 92.874-.01 1.168-.173 2.335-.302 3.977m22.273-.275l-16.551.744V348.694l17.7 2.29c0 8.148.067 15.992-.027 23.833-.049 4.136-.525 8.269-.554 12.404-.18 25.653-.475 51.307-.36 76.959.088 19.512.905 39.022 1.042 58.535.058 8.425-.78 16.855-1.25 26.033m-56.55 2.195H64.827c-.564-5.893-.233-11.744-.224-17.567.006-3.939.326-7.878.33-11.818.028-32.357.058-64.716-.002-97.075-.03-15.98-.155-31.96-.415-47.937-.173-10.632-.671-21.26-.992-31.89-.029-.939.176-1.884.32-3.295l13.868 1.967c.101 2.29.266 4.206.257 6.12-.113 22.684-.374 45.37-.357 68.054.025 33.51.24 67.02.38 100.53.043 10.235.117 20.47.153 30.705.001.576-.208 1.155-.41 2.206m87.885-4.195l-9.481.854c0-2.682-.018-4.824.002-6.966.393-40.005.61-80.013 1.265-120.014.303-18.479 1.518-36.94 2.217-55.414.394-10.42.588-20.849.85-31.274.053-2.134.008-4.271.008-7.425l16.166 3.682c-6.04 1.898-5.768 6.491-6.197 10.394-.515 4.68-.334 9.437-.45 14.161-.409 16.732-.948 33.462-1.196 50.196-.491 33.302-.69 66.608-1.29 99.907-.208 11.587-1.257 23.158-1.877 34.74-.115 2.142-.017 4.295-.017 7.159m340.455-161.632v27.83c-21.167-1.1-41.93-3.683-63.514-5.379l1.182-28.368c21.037 1.998 41.52 3.942 62.332 5.917M51.053 339.73l8.68.958v208.718c-7.03.338-7.678-.224-7.81-6.712-.012-.591-.001-1.183-.003-1.775-.132-59.156-.243-118.313-.43-177.469-.018-5.902-.529-11.8-.73-17.704-.059-1.735.16-3.479.293-6.016m455.061 40.026c-20.924-1.542-41.4-3.048-62.126-4.576v-25.844c21.12 2.534 41.695 4.861 62.126 8.558v21.862zm-61.776-59.142l62.04 9.436v21.667l-62.04-6.846v-24.257zm-1.082 166.589v-22.777c6.246-1.514 49.385-.42 62.912 1.548.063 5.868.702 11.838-1.033 18.182-20.73 1.02-41.267 2.031-61.88 3.047m-.385-75.814l63.06 6.937v17.706c-20.814.63-41.547-.156-63.142-.825-.06-7.996-.116-15.543.082-23.818m1.305-118.685l62.258 12.849c.623 5.844.088 12.24.283 19.15-21.012-2.908-41.504-5.745-62.541-8.655v-23.344zM241.216 337.26v-15.936l93.498 22.385-1.318 10.081c-31.2-3.44-60.967-12.928-92.18-16.53M506.12 442.022v17.791c-20.942.553-41.664-1.338-62.891-1.11v-19.134l62.892 2.453m-63.661 69.126l1.616-20.105 61.21-2.097c.39 5.966.281 11.547.065 17.634l-62.89 4.568M333.498 358.456l-1.222 10.614-90.38-14.125V342.09c30.473 3.554 59.801 14.121 91.602 16.366m-2.268 31.506v10.07c-7.01-.708-13.79-1.18-20.505-2.112-22.581-3.133-45.139-6.428-68.132-9.723v-12.533c1.29.06 2.274.007 3.225.164 28.297 4.67 56.59 9.359 85.413 14.134m-89.401-18.903v-11.382c30.154 4.455 60.198 8.847 90.12 14.816v9.617c-30.268-2.59-59.606-9.242-90.12-13.051m201.996-84.249l-1.085-15.61c11.373 1.237 21.736 4.172 32.197 6.484 10.368 2.29 20.658 4.938 31.361 7.519v14.068c-4.636-.78-9.037-1.4-13.388-2.273-15.056-3.02-30.096-6.124-45.14-9.209-1.153-.237-2.288-.565-3.945-.98m-147.486 2.324v10.032l-78.725-20.654v-12.463l78.725 23.085m-.603 16.305v8.32l-78.07-16.29v-13.462l78.07 21.432m-53.814 97.907c-.223-.996-.51-1.582-.45-2.13.296-2.708.684-5.407 1.119-8.7 29.498 4.282 58.796 8.535 88.462 12.844v5.787c-30.14.003-59.648-4.132-89.13-7.8M217.529 259.86V251c4.994.097 70.825 20.264 79.34 24.254v8.502l-79.34-23.895m113.503 156.852c-4.08 1.555-8.303.09-12.416-.08-8.651-.358-17.28-1.22-25.931-1.65-2.5-.126-5.09.287-7.547.849-5.568 1.273-11.324 2.208-16.536 4.395-4.347 1.822-8.432 4.14-13.176 4.944-4.823.816-9.608 1.856-14.565 2.827-1.846-7.103.394-13.501.977-20.652 5.754.65 11.182 1.203 16.593 1.888 8.793 1.113 17.55 2.597 26.37 3.375 5.616.495 11.34-.335 16.978.018 9.773.615 19.518 1.687 29.275 2.568l-.022 1.518m111.976 110.55v-10.694l62.126-1.918v7.732l-62.126 4.88M217.61 315.275v-12.573c8.439 1.918 16.6 3.856 24.8 5.617 14.788 3.176 29.605 6.22 44.395 9.387 2.49.534 4.885 1.495 7.363 2.1 2.616.638 2.833 2.29 2.01 5.076-1.551-.18-3.216-.301-4.854-.578-3.396-.57-6.585-2.11-10.296-.6-1.501.609-3.89-.326-5.647-1.087-11.085-4.796-22.953-6.749-34.635-9.105-4.092-.825-8.843 1.049-13.173 2.156-3.354.858-6.499 1.445-9.963-.393m166.214 187.588V486.1c5.207-1.041 10.19-.797 15.538-.189v16.95h-15.538zm-.13-22.86v-14.92c5.034-.8 10.015-.351 15.34-.262 1.254 5.007.62 9.792.443 14.81-5.362 1.008-10.46 1.835-15.783.372m.306-20.288h15.776v-15.653H384zm15.978-32.776v11.603c-5.22 1.532-10.135.33-15.361-.091v-11.512h15.36zm-.38 81.634v9.63c-5.236.581-10.348 1.15-15.995 1.778v-10.585c5.005-1.696 8.333-1.877 15.995-.823m-15.911 23.257v-6.478c4.947-2.294 10.228-1.478 15.685-2.19v7.524c-5.18.378-10.137.738-15.685 1.144" fill="#FFF"/><path d="M285.526 122.86c-14.97 14.157-29.486 28.848-46.918 40.12 15.304-13.767 30.488-27.674 46.918-40.12M171.36 139.252c-18.932 24.743-44.441 42.57-66.61 63.909l-1.128-1.182 66.748-63.55c.33.273.66.548.99.823M89.798 96.499c-2.309 2.38-4.54 4.842-6.945 7.12-3.326 3.15-6.784 6.162-10.185 9.233l-.846-.936 17.59-15.843.386.426zm3.954 114.715l7.683-7.164.83.896-7.714 7.067-.799-.8m45.834-143.876l5.67-6.737-.193-.194c-1.761 2.322-3.524 4.644-5.284 6.966a13.738 13.738 0 00-.193-.035m-20.596 99.797l5.13-5.106c.263.29.526.583.788.875-1.817 1.575-3.636 3.15-5.454 4.723-.154-.164-.31-.327-.464-.492" fill="#000"/></g></svg>