<?xml version="1.0" encoding="UTF-8"?>
<svg width="1074px" height="894px" viewBox="0 0 1074 894" version="1.1" xmlns="http://www.w3.org/2000/svg" xmlns:xlink="http://www.w3.org/1999/xlink">
    <title>window-big</title>
    <g id="window-big" stroke="none" stroke-width="1" fill="none" fill-rule="evenodd">
        <g id="big-window" transform="translate(118.927914, 2.000000)">
            <path d="M363.899,565.829 C369.779,565.266 375.034,564.762 380.522,564.233 L380.522,555.199 C374.74,556.147 369.141,555.262 363.899,558.089 L363.899,565.829 Z M380.763,537.669 C372.642,536.585 369.115,536.881 363.809,539.025 L363.809,551.672 C369.795,550.814 375.213,550.036 380.763,549.236 L380.763,537.669 Z M381.165,439.594 C375.596,439.886 370.341,440.16 364.885,440.445 L364.885,454.206 C370.423,454.443 375.634,455.636 381.165,453.533 L381.165,439.594 Z M380.951,478.976 L380.951,460.175 C375.153,460.441 369.693,460.692 364.232,460.942 L364.232,479.647 C369.897,479.42 375.057,479.213 380.951,478.976 L380.951,478.976 Z M363.907,503.902 C369.547,505.47 374.952,504.304 380.634,502.911 C380.823,496.877 381.494,491.104 380.166,485.141 C374.52,485.25 369.241,484.913 363.907,486.076 L363.907,503.902 Z M364.045,531.213 C369.984,531.07 375.136,530.946 380.513,530.816 L380.513,510.459 C374.845,509.9 369.563,509.769 364.045,511.184 L364.045,531.213 Z M187.88,323.582 C191.552,325.316 194.885,324.343 198.44,323.038 C203.029,321.351 208.064,318.747 212.401,319.276 C224.782,320.8 237.361,321.864 249.109,326.301 C250.971,327.008 253.503,327.856 255.094,327.008 C259.027,324.907 262.408,326.381 266.006,326.716 C267.743,326.879 269.506,326.859 271.152,326.92 C272.022,323.609 271.794,321.711 269.021,321.225 C266.395,320.767 263.856,319.89 261.217,319.517 C245.542,317.328 229.838,315.319 214.165,313.192 C205.474,312.029 196.825,310.674 187.88,309.382 L187.88,323.582 Z M426.77,559.429 C448.961,557.079 470.821,554.737 492.616,552.377 L492.616,542.767 C470.44,544.001 448.667,545.203 426.77,546.4 L426.77,559.429 Z M308.091,431.408 C308.099,430.814 308.107,430.22 308.115,429.625 C297.774,429.181 287.446,428.518 277.087,428.398 C271.112,428.332 265.045,429.643 259.094,429.413 C249.746,429.056 240.464,427.889 231.145,427.158 C225.411,426.712 219.658,426.421 213.558,426.043 C212.941,434.223 210.566,441.638 212.524,449.619 C217.777,448.238 222.849,446.786 227.961,445.583 C232.989,444.396 237.318,441.504 241.924,439.159 C247.449,436.339 253.55,434.922 259.451,433.119 C262.055,432.322 264.8,431.688 267.45,431.683 C276.618,431.664 285.763,432.151 294.932,432.055 C299.292,432.009 303.767,433.475 308.091,431.408 L308.091,431.408 Z M187.795,261.005 C215.622,266.834 243.461,272.83 271.883,279.12 L271.883,269.253 C262.859,265.615 193.087,250.483 187.795,250.997 L187.795,261.005 Z M213.65,421.48 C244.896,423.793 276.171,426.733 308.116,424.871 L308.116,418.076 C276.674,414.965 245.622,411.991 214.358,409.097 C213.898,412.879 213.486,415.979 213.172,419.084 C213.108,419.712 213.413,420.36 213.65,421.48 L213.65,421.48 Z M270.684,304.401 C242.904,298.834 215.639,293.516 187.942,288.259 L187.942,303.463 C215.6,306.892 243.003,310.4 270.684,314.056 L270.684,304.401 Z M271.323,285.419 C243.187,279.379 215.653,273.626 187.886,267.981 L187.886,282.058 C215.7,286.917 243.253,291.87 271.323,297.06 L271.323,285.419 Z M427.637,266.407 C429.394,266.729 430.596,267.005 431.82,267.166 C447.763,269.289 463.704,271.474 479.661,273.589 C484.272,274.207 488.937,274.51 493.85,274.987 L493.85,257.498 C482.506,255.49 471.601,253.378 460.613,251.733 C449.525,250.093 438.542,247.696 426.487,247.511 C426.899,254.271 427.254,260.107 427.637,266.407 L427.637,266.407 Z M213.55,384.713 C245.89,386.734 276.985,392.239 309.064,393.063 L309.064,381.767 C277.352,377.104 245.509,374.406 213.55,371.749 L213.55,384.713 Z M308.302,399.985 C277.755,396.451 247.768,393.082 217.777,389.842 C216.769,389.735 215.725,389.869 214.359,389.898 L214.359,404.178 C238.729,406.336 262.637,408.585 286.569,410.7 C293.686,411.34 300.872,411.442 308.302,411.81 L308.302,399.985 Z M310.706,362.804 C277.002,362.815 245.918,353.095 213.62,351.712 L213.62,366.353 C245.816,369.272 277.473,372.254 309.411,375.372 C309.824,371.366 310.218,367.533 310.706,362.804 L310.706,362.804 Z M426.191,539.809 C448.87,537.427 470.648,535.113 492.845,532.731 C493.075,525.161 493.189,518.222 492.777,510.819 C470.569,512.354 449.162,513.824 427.903,515.271 C427.316,523.689 426.777,531.406 426.191,539.809 L426.191,539.809 Z M493.662,452.462 C471.122,452.49 449.143,452.531 427.004,452.586 L427.004,475.896 C449.503,474.707 471.464,476.151 493.662,474.578 L493.662,452.462 Z M212.899,346.27 C245.981,347.586 277.531,355.957 310.597,357.33 C311.074,353.245 311.495,349.642 311.994,345.368 C278.741,339.398 245.873,333.68 212.899,328.125 L212.899,346.27 Z M428.008,273.552 L428.008,302.001 C450.304,303.488 472.022,304.983 494.294,306.563 C494.086,297.992 494.653,289.985 493.993,282.783 C471.531,279.57 449.922,276.548 428.008,273.552 L428.008,273.552 Z M426.625,418.273 C426.415,428.366 426.474,437.556 426.538,447.293 C449.425,446.986 471.4,446.882 493.46,445.025 L493.46,423.016 C471.209,421.398 449.322,419.845 426.625,418.273 L426.625,418.273 Z M427.034,510.617 C448.879,508.72 470.647,506.812 492.616,504.871 C494.456,496.925 493.779,489.526 493.711,482.235 C479.375,480.341 433.653,480.766 427.034,482.869 L427.034,510.617 Z M428.181,307.55 L428.181,337.114 C450.254,338.106 471.915,339.117 493.934,340.182 L493.934,313.244 C472.277,311.318 450.715,309.449 428.181,307.55 L428.181,307.55 Z M493.655,375.059 L493.655,347.882 C472.001,345.004 450.194,343.88 427.809,342.587 L427.809,374.081 C449.777,374.383 471.478,374.705 493.655,375.059 L493.655,375.059 Z M11.354,366.156 C11.212,368.867 10.981,370.742 11.044,372.582 C11.256,378.844 11.797,385.077 11.817,391.355 C12.014,454.288 12.132,517.232 12.273,580.182 C12.274,580.811 12.263,581.441 12.276,582.07 C12.416,588.974 13.102,589.567 20.554,589.156 L20.554,366.398 C17.454,366.316 14.826,366.247 11.354,366.156 L11.354,366.156 Z M493.613,381.725 C471.555,380.782 449.847,379.886 427.55,378.997 C427.122,390.854 426.717,402.022 426.296,413.638 C449.174,414.356 471.179,416.251 493.613,416.32 L493.613,381.725 Z M132.779,585.448 C132.779,582.272 132.675,579.885 132.796,577.509 C133.455,564.656 134.566,551.799 134.787,538.936 C135.421,501.961 135.633,464.982 136.154,427.984 C136.416,409.389 136.988,390.77 137.421,372.155 C137.544,366.898 137.352,361.63 137.898,356.386 C138.353,352.013 138.065,346.933 144.466,344.26 C138.326,343.336 133.203,342.57 127.332,341.697 C127.332,345.186 127.38,347.548 127.324,349.916 C127.045,361.479 126.84,373.038 126.422,384.602 C125.682,405.096 124.395,425.6 124.074,446.053 C123.378,490.311 123.149,534.546 122.733,578.772 C122.712,581.14 122.73,583.507 122.73,586.472 C126.274,586.111 129.311,585.802 132.779,585.448 L132.779,585.448 Z M39.633,590.679 C39.847,589.548 40.069,588.926 40.0670134,588.306 C40.029,577.308 39.952,566.311 39.906,555.315 C39.756,519.314 39.53,483.321 39.503,447.322 C39.485,422.953 39.761,398.563 39.881,374.182 C39.891,372.123 39.715,370.08 39.609,367.627 C34.546,367.323 29.883,367.045 24.912,366.751 C24.758,368.271 24.542,369.3 24.571,370.301 C24.912,381.635 25.439,392.955 25.623,404.308 C25.898,421.373 26.031,438.452 26.062,455.537 C26.126,490.136 26.094,524.739 26.064,559.342 C26.06,563.554 25.721,567.77 25.714,571.982 C25.705,578.209 25.354,584.467 25.952,590.764 C30.895,590.733 35.039,590.707 39.633,590.679 L39.633,590.679 Z M99.568,587.9 C100.065,577.831 100.955,568.571 100.892,559.329 C100.748,537.924 99.882,516.548 99.789,495.15 C99.667,467.023 99.979,438.872 100.17,410.724 C100.201,406.185 100.706,401.617 100.757,397.076 C100.856,388.466 100.786,379.865 100.786,370.927 C94.646,370.6 88.716,370.288 82.026,369.94 L82.026,588.834 C87.74,588.53 93.3,588.234 99.568,587.9 L99.568,587.9 Z M75.962,588.364 C76.098,586.577 76.27,585.307 76.282,584.035 C76.575,550.348 76.874,516.653 77.123,482.954 C77.302,458.691 77.406,434.429 77.564,410.161 C77.575,408.448 77.837,406.719 77.841,405.007 C77.867,393.459 77.854,381.914 77.854,369.704 C67.349,369.118 56.359,368.517 45.1,367.911 C44.505,442.326 44.042,515.892 45.212,589.291 C49.494,589.263 53.17,589.238 57.094,589.212 C57.244,587.766 57.43,586.744 57.445,585.721 C57.743,565.039 58.17,544.351 58.272,523.665 C58.507,475.666 58.58,427.669 58.739,379.663 C58.745,377.753 58.777,375.798 59.173,373.918 C59.378,372.945 60.413,372.091 62.041,369.85 C64.397,395.219 63.041,419.368 63.266,443.358 C63.494,467.489 63.452,491.64 63.278,515.79 C63.105,539.87 62.622,563.949 62.268,588.459 C67.195,588.425 71.274,588.397 75.962,588.364 L75.962,588.364 Z M405.273,142.334 C426.849,118.818 443.477,100.797 465.786,75.956 C429.401,67.878 400.555,64.106 363.851,59.421 C363.851,62.983 363.739,56.658 363.851,59.421 C364.011,63.378 364.515,67.268 364.534,71.247 C364.722,112.946 364.84,154.661 364.999,196.373 C365.004,198.123 365.213,199.848 365.398,202.657 C401.607,167.493 435.564,130.393 471.823,95.826 C470.505,98.167 469.018,100.299 467.303,102.123 C442.473,128.352 417.65,154.252 392.738,179.694 C384.985,187.544 376.928,194.957 369.11,202.659 C367.529,204.213 365.485,206.344 365.244,208.266 C364.673,212.804 365.06,217.378 365.06,222.005 C366.197,221.72 366.45,221.744 366.587,221.61 C386.215,202.355 405.835,182.884 425.457,163.21 C426.285,162.374 427.111,161.53 427.977,160.752 C428.488,160.293 429.066,159.932 429.634,159.582 C429.782,159.492 430.043,159.551 430.187,159.651 C430.302,159.733 430.321,159.982 430.707,161.078 C423.719,168.331 416.563,175.832 409.315,183.18 C395.757,196.85 382.115,210.305 368.604,223.837 C367.087,225.35 365.227,227.77 365.172,229.636 C364.849,240.654 365.013,251.635 365.013,263.263 C367.667,262.08 369.637,261.26 371.574,260.324 C386.245,253.207 400.92,246.055 415.567,238.761 C420.023,236.532 424.433,235.475 429.061,236.291 C448.286,239.725 467.531,243.132 486.773,246.615 C489.086,247.038 491.427,247.327 494.174,247.743 C494.609,190.503 491.989,135.963 492.616,78.961 C486.908,77.522 479.574,77.52 473.31,75.956 C450.216,100.571 430.56,121.887 405.273,142.334 L405.273,142.334 Z M241.245,89.807 L242.15,90.747 C240.459,92.85 238.865,95.059 237.06,97.035 C221.843,113.614 206.628,130.057 191.307,146.24 C188.723,148.955 187.475,151.49 187.498,155.248 C187.658,181.746 187.573,208.279 187.603,234.797 C187.605,236.507 187.904,238.18 188.064,239.862 C204.178,243.223 219.918,246.606 235.684,249.941 C249.061,252.811 262.458,255.651 275.875,258.443 C279.02,259.102 280.839,260.302 280.782,264.492 C280.515,283.808 280.543,303.096 280.466,322.392 C280.459,324.439 280.465,326.485 280.465,328.696 C282.181,329.143 283.525,329.605 284.917,329.842 C293.859,331.366 302.814,332.845 311.76,334.381 C313.384,334.661 315.003,334.997 316.592,335.417 C319.035,336.063 320.06,337.908 318.949,340.582 C316.758,345.848 317.42,351.152 317.278,356.465 C317.013,366.367 317.59,376.197 317.344,386.105 C317.004,399.823 317.047,413.527 316.955,427.235 C316.925,431.515 317.733,432.445 321.647,432.651 C323.099,432.727 324.578,432.468 326.036,432.501 C332.073,432.64 338.119,432.709 344.138,433.057 C347.894,433.275 348.168,433.914 347.785,439.33 C322.767,439.112 297.751,437.722 272.503,439.361 C272.752,445.375 272.974,450.76 273.229,456.901 C298.418,456.263 323.373,455.64 348.651,455.017 C348.387,457.301 348.24,458.578 348.051,460.211 C322.889,461.47 298.157,460.306 273.579,461.607 L273.579,480.745 C298.745,480.564 323.49,480.399 348.479,480.245 C348.379,482.211 348.313,483.524 348.203,485.689 C323.22,485.553 298.532,485.433 273.356,485.33 C273.799,493.21 274.213,500.556 274.613,507.656 C283.388,507.372 291.524,507.109 299.661,506.847 C307.817,506.583 315.974,506.299 324.131,506.062 C332.202,505.828 340.271,505.642 348.106,505.442 C348.831,508.712 348.741,510.677 345.991,510.902 C344.32,511.04 342.645,511.095 340.972,511.124 C321.108,511.476 301.244,511.817 281.379,512.174 C279.152,512.215 276.924,512.308 274.907,512.369 L274.907,537.248 C299.782,535.871 323.933,534.521 348.341,533.145 L348.341,538.592 C323.869,539.774 299.54,540.94 274.81,542.116 L274.81,559.34 C287.111,558.137 298.878,556.527 310.672,555.935 C322.605,555.333 334.56,552.884 346.5,554.34 C347.021,557.931 345.452,558.925 343.441,559.263 C340.551,559.748 337.642,560.194 334.731,560.37 C318.463,561.35 302.192,562.208 285.924,563.171 C282.256,563.387 278.599,563.89 274.591,564.294 C274.844,566.519 274.94,567.83 275.154,569.115 C275.362,570.362 275.69,571.584 276.017,573.048 C302.197,571.086 328.028,570.838 354.268,566.526 L354.268,58.924 C298.674,51.427 242.559,38.262 186.333,31.914 C186.189,34.532 186.333,31.914 186.357,33.438 C186.75,57.623 187.222,81.798 187.556,106.005 C187.704,116.677 187.567,127.398 187.596,138.091 C187.601,139.754 187.806,141.385 187.955,143.546 C206.07,125.454 223.657,107.716 241.245,89.807 L241.245,89.807 Z M52.419,100.205 L52.008,99.817 C53.345,97.981 54.548,96.021 56.042,94.323 C72.159,75.901 88.318,57.345 104.476,38.616 C109.113,33.209 113.782,27.817 119.159,21.555 C82.259,19.044 46.291,17.078 9.373,16.847 C9.373,29.438 9.229,41.186 9.405,52.866 C9.695,72.084 10.18,91.267 10.62,110.465 C10.654,111.951 10.969,113.381 11.235,115.472 C12.953,113.544 13.999,112.353 15.06,111.178 C32.664,91.585 50.222,71.748 67.91,51.83 C71.828,47.391 76.041,43.122 82.597,39.575 C76.351,49.515 69.553,57.063 62.95,64.638 C47.105,82.695 31.011,100.365 14.926,117.874 C11.755,121.307 10.478,124.69 10.511,129.053 C10.802,167.197 10.878,205.38 11.028,243.556 C11.033,244.711 11.166,245.85 11.284,247.686 C12.595,246.629 13.301,246.183 13.856,245.593 C29.9,228.441 45.842,211.024 62,193.646 C68.891,186.182 76.225,179.114 83.358,171.822 C83.522,171.976 83.686,172.131 83.849,172.285 C83.638,172.68 83.49,173.132 83.206,173.462 C60.443,199.8 37.714,225.809 14.838,251.328 C12.066,254.395 10.912,257.226 10.932,261.133 C11.09,290.926 11.019,320.746 11.019,350.558 L11.019,356.586 C25.676,357.277 39.871,357.966 54.46,358.693 C54.924,352.328 55.595,346.403 55.744,340.51 C56.274,319.372 56.617,298.241 57.058,277.097 C57.133,273.467 57.375,269.822 57.475,266.189 C57.536,264.042 58.368,262.564 60.411,261.461 C67.905,257.402 75.317,253.135 82.809,249.036 C97.07,241.189 111.365,233.362 125.646,225.444 C127.286,227.704 128.863,228.938 130.69,229.294 C143.254,231.758 155.876,234.053 168.464,236.501 C169.801,236.763 171.043,237.373 172.04,237.722 L172.04,245.928 C157.123,242.815 142.857,239.885 127.988,236.877 C128.251,241.249 128.479,245.042 128.713,248.947 C130.825,249.35 132.599,249.705 134.382,250.03 C145.815,252.133 157.271,254.174 168.67,256.449 C172.712,257.262 172.65,257.491 171.536,263.114 C157.423,260.255 143.331,257.441 128.812,254.587 L128.812,274.031 C143.5,275.939 158.062,277.866 172.549,279.817 L172.549,285.289 C157.865,282.99 143.597,280.794 128.761,278.547 C128.449,284.722 128.177,290.091 127.888,295.799 C143.197,297.535 158.007,299.248 172.984,301.013 C172.734,303.406 172.583,304.866 172.424,306.383 C157.494,304.35 142.923,302.401 128.145,300.459 L128.145,316.079 C143.278,318.141 158.061,320.188 172.989,322.292 C172.745,324.669 172.594,326.135 172.427,327.76 C157.476,325.756 143.264,321.975 128.058,321.11 L128.058,337.774 C136.194,338.745 144.117,339.808 152.091,340.569 C153.578,340.712 155.281,339.647 156.865,339.063 C162.022,337.159 167.171,335.214 172.69,333.14 C173.062,349.143 173.697,364.368 173.724,379.646 C173.839,443.983 173.772,508.333 173.778,572.678 C173.778,575.117 173.802,577.558 173.906,579.992 C173.931,580.601 174.311,581.191 174.688,582.228 C176.424,581.845 178.137,581.466 180.105,581.03 C180.105,572.664 180.195,564.903 180.083,557.149 C179.945,547.619 179.456,538.1 179.454,528.569 C179.452,518.126 180.052,507.662 180.003,497.22 C179.833,460.548 179.294,423.902 179.282,387.231 C179.272,354.793 180.05,322.279 180.003,289.837 C179.884,206.487 179.525,123.183 179.154,39.9 C179.133,35.41 177.986,33.244 177.445,28.89 C165.152,27.756 153.741,24.851 142.366,23.441 C138.312,22.946 135.587,24.495 132.918,27.823 C132.328,28.558 131.751,29.308 131.126,30.009 C126.416,35.281 121.695,40.528 116.978,45.766 C116.695,45.499 116.412,45.233 116.129,44.967 C121.752,37.977 127.374,30.965 133.587,23.19 C130.513,22.745 128.366,22.515 126.277,22.112 C124.217,21.716 122.786,22.764 121.236,24.517 C103.971,43.943 86.665,63.143 69.337,82.136 C63.746,88.225 58.06,94.204 52.419,100.205 L52.419,100.205 Z M509.001,568.061 C506.848,569.131 504.824,570.51 502.648,571.152 C490.079,574.846 477.613,578.869 464.524,579.621 C444.307,580.772 424.121,582.73 403.915,584.191 C386.83,585.413 369.732,586.392 352.645,587.555 C340.77,588.355 328.905,589.338 317.032,590.168 C299.951,591.35 282.865,592.455 265.782,593.597 C253.283,594.425 240.785,595.299 228.285,596.108 C218.285,596.751 208.282,597.328 198.281,597.947 C185.362,598.741 172.443,599.524 159.526,600.345 C151.194,600.87 142.856,601.343 134.538,602.058 C124.347,602.932 114.191,604.317 103.991,604.953 C89.812,605.828 75.604,606.183 61.412,606.819 C49.324,607.355 37.236,607.903 25.156,608.584 C17.456,609.015 12.345,604.794 8.883,598.813 C5.458,592.909 3.35,586.561 3.359,579.27 C3.443,508.083 3.329,436.903 3.037,365.744 C2.778,302.558 2.245,239.421 1.788,176.295 C1.574,146.827 1.212,117.392 1.026,87.93 C0.995,82.948 1.701,77.828 1.736,72.829 C1.762,69.091 1.081,65.486 1.02,61.76 C0.798,48.212 0.631,34.652 0.62299839,21.063 C0.62299839,18.186 1.087,15.133 1.846,12.192 C3.128,7.226 5.837,5.287 10.739,5.1 C21.9,4.701 93.462,12.634 180.798,27.754 C341.56,55.584 570.435,92.315 573.321,93.348 C579.892,95.709 510.895,76.073 510.692,85.047 C510.317,101.539 510.467,117.972 510.58,134.401 C510.793,165.681 511.404,196.914 511.363,228.232 C511.288,286.688 510.864,345.167 510.585,403.623 C510.446,432.72 510.369,461.812 510.147,490.907 C509.961,515.305 509.608,539.701 509.312,564.092 C509.297,565.3 509.127,566.507 509.001,568.061 L509.001,568.061 Z" id="Fill-1" fill="#000000"></path>
            <path d="M259.862,94.359 C242.449,111.547 226.355,130.04 210.136,148.225 C228.611,132.544 243.996,113.267 259.862,94.359 L259.862,94.359 Z M241.245,89.807 C223.657,107.716 206.07,125.455 187.955,143.547 C187.806,141.385 187.601,139.755 187.596,138.091 C187.567,127.399 187.704,116.677 187.556,106.005 C187.222,81.798 186.75,57.624 186.357,33.438 C186.333,31.915 186.369,32.965 186.512,30.346 C242.74,36.694 298.675,51.427 354.268,58.924 L354.268,566.527 C328.028,570.838 302.197,571.087 276.017,573.048 C275.69,571.585 275.362,570.363 275.154,569.116 C274.94,567.831 274.844,566.52 274.591,564.294 C278.599,563.89 282.257,563.387 285.924,563.171 C302.192,562.209 318.464,561.351 334.731,560.371 C337.642,560.195 340.551,559.749 343.441,559.263 C345.452,558.925 347.021,557.931 346.5,554.34 C334.56,552.884 322.605,555.334 310.673,555.936 C298.878,556.528 287.111,558.137 274.81,559.34 L274.81,542.117 C299.54,540.941 323.869,539.775 348.341,538.592 L348.341,533.146 C323.933,534.522 299.782,535.872 274.907,537.249 L274.907,512.37 C276.924,512.308 279.152,512.215 281.38,512.174 C301.244,511.818 321.108,511.477 340.972,511.125 C342.645,511.095 344.32,511.041 345.991,510.903 C348.741,510.677 348.831,508.713 348.106,505.443 C340.271,505.643 332.202,505.829 324.132,506.063 C315.974,506.299 307.817,506.584 299.661,506.847 C291.524,507.11 283.388,507.373 274.613,507.657 C274.214,500.556 273.8,493.211 273.356,485.331 C298.532,485.434 323.22,485.553 348.203,485.69 C348.313,483.525 348.38,482.212 348.479,480.246 C323.49,480.4 298.745,480.565 273.579,480.746 L273.579,461.608 C298.157,460.306 322.889,461.47 348.051,460.212 C348.24,458.579 348.387,457.301 348.651,455.018 C323.373,455.64 298.418,456.263 273.229,456.902 C272.974,450.76 272.752,445.376 272.503,439.362 C297.751,437.722 322.767,439.113 347.785,439.331 C348.168,433.915 347.894,433.276 344.138,433.057 C338.119,432.71 332.073,432.64 326.036,432.502 C324.578,432.468 323.099,432.728 321.647,432.652 C317.733,432.446 316.925,431.515 316.955,427.236 C317.048,413.528 317.005,399.824 317.344,386.106 C317.591,376.198 317.013,366.368 317.278,356.465 C317.421,351.153 316.758,345.848 318.949,340.583 C320.06,337.909 319.035,336.063 316.592,335.418 C315.003,334.998 313.384,334.662 311.76,334.381 C302.814,332.845 293.859,331.367 284.917,329.842 C283.525,329.606 282.181,329.144 280.466,328.697 C280.466,326.486 280.459,324.44 280.466,322.393 C280.543,303.096 280.515,283.808 280.782,264.493 C280.84,260.302 279.02,259.102 275.875,258.444 C262.458,255.652 249.061,252.812 235.684,249.942 C219.918,246.607 204.178,243.223 188.064,239.863 C187.904,238.18 187.605,236.507 187.603,234.797 C187.573,208.28 187.658,181.746 187.498,155.249 C187.475,151.491 188.723,148.956 191.307,146.241 C206.629,130.057 221.843,113.615 237.06,97.036 C238.865,95.06 240.459,92.851 242.15,90.748 L241.245,89.807 Z" id="Fill-2" fill="#FFFFFF"></path>
            <path d="M105.187,58.924 L105.39,58.924 C107.257,56.025 109.125,53.121 110.992,50.215 C111.059,50.273 111.127,50.331 111.196,50.389 C109.193,53.237 107.19,56.082 105.187,58.924 M56.609,223.441 C56.891,223.691 57.172,223.942 57.455,224.192 C60.18,221.282 62.906,218.369 65.632,215.45 C65.338,215.166 65.044,214.882 64.751,214.598 C62.037,217.55 59.323,220.497 56.609,223.441 M138.863,132.575 C138.513,132.326 138.164,132.077 137.813,131.828 C114.232,158.937 90.65,185.673 67.069,212.038 C67.467,212.411 67.867,212.784 68.265,213.158 C91.761,186.636 118.797,163.082 138.863,132.575 M83.358,171.822 C76.225,179.114 68.891,186.182 61.999,193.647 C45.842,211.025 29.9,228.442 13.856,245.593 C13.301,246.183 12.595,246.629 11.284,247.687 C11.166,245.85 11.033,244.711 11.028,243.556 C10.877,205.38 10.802,167.197 10.511,129.053 C10.478,124.691 11.755,121.307 14.926,117.874 C31.011,100.365 47.105,82.695 62.95,64.638 C69.553,57.064 76.351,49.515 82.597,39.575 C76.041,43.122 71.828,47.391 67.91,51.83 C50.222,71.748 32.664,91.585 15.06,111.178 C13.999,112.354 12.953,113.544 11.235,115.472 C10.969,113.381 10.654,111.951 10.62,110.465 C10.18,91.267 9.695,72.084 9.405,52.866 C9.229,41.187 9.373,26.086 9.373,13.494 C46.291,13.727 82.259,19.044 119.159,21.555 C113.782,27.818 109.113,33.209 104.476,38.616 C88.318,57.345 72.159,75.902 56.041,94.323 C54.548,96.022 53.345,97.982 52.008,99.818 C45.794,106.592 39.581,113.342 33.367,120.069 C33.665,120.353 33.963,120.637 34.262,120.921 C37.868,117.014 41.532,113.152 45.057,109.157 C47.607,106.263 49.971,103.199 52.418,100.205 C58.06,94.204 63.746,88.225 69.337,82.136 C86.665,63.144 103.971,43.944 121.236,24.517 C122.786,22.764 124.217,21.716 126.277,22.112 C128.366,22.515 130.513,22.745 133.586,23.191 C127.374,30.965 121.751,37.978 116.129,44.967 C116.412,45.234 116.695,45.499 116.978,45.766 C121.695,40.528 126.416,35.281 131.125,30.009 C131.75,29.309 132.328,28.559 132.917,27.823 C135.587,24.495 138.312,22.946 142.366,23.442 C153.741,24.852 164.699,29.519 176.991,30.653 C177.533,35.007 179.133,35.41 179.154,39.901 C179.525,123.183 179.884,206.487 180.003,289.837 C180.05,322.279 179.272,354.793 179.282,387.232 C179.293,423.903 179.833,460.548 180.003,497.22 C180.052,507.662 179.452,518.126 179.454,528.57 C179.456,538.1 179.945,547.619 180.083,557.15 C180.195,564.903 180.105,572.664 180.105,581.03 C178.137,581.466 176.424,581.845 174.688,582.229 C174.311,581.192 173.931,580.602 173.906,579.992 C173.802,577.558 173.778,575.117 173.778,572.678 C173.772,508.333 173.839,443.984 173.724,379.647 C173.697,364.368 173.062,349.144 172.69,333.14 C167.171,335.214 162.022,337.159 156.865,339.064 C155.281,339.648 153.578,340.712 152.091,340.57 C144.117,339.808 136.194,338.745 128.058,337.775 L128.058,321.111 C143.264,321.975 157.476,325.756 172.427,327.76 C172.594,326.135 172.745,324.669 172.989,322.292 C158.061,320.189 143.278,318.141 128.145,316.079 L128.145,300.459 C142.923,302.402 157.494,304.351 172.424,306.383 C172.583,304.866 172.734,303.406 172.984,301.013 C158.007,299.248 143.197,297.535 127.888,295.799 C128.177,290.091 128.449,284.722 128.761,278.547 C143.597,280.794 157.865,282.99 172.549,285.289 L172.549,279.818 C158.062,277.866 143.5,275.94 128.812,274.031 L128.812,254.587 C143.331,257.442 157.423,260.255 171.536,263.114 C172.65,257.491 172.712,257.262 168.67,256.449 C157.271,254.174 145.815,252.133 134.382,250.03 C132.599,249.705 130.825,249.351 128.713,248.947 C128.479,245.042 128.25,241.249 127.988,236.877 C142.857,239.885 157.123,242.816 172.04,245.928 L172.04,237.722 C171.042,237.373 169.801,236.763 168.464,236.501 C155.875,234.053 143.254,231.758 130.69,229.294 C128.863,228.939 127.286,227.704 125.646,225.445 C111.365,233.362 97.07,241.19 82.809,249.036 C75.317,253.135 67.905,257.403 60.411,261.461 C58.368,262.565 57.536,264.042 57.475,266.19 C57.374,269.822 57.133,273.467 57.058,277.097 C56.617,298.241 56.274,319.372 55.744,340.51 C55.595,346.403 54.924,352.328 54.459,358.694 C39.871,357.966 25.676,357.278 11.019,356.586 L11.019,350.558 C11.019,320.746 11.09,290.926 10.932,261.133 C10.912,257.227 12.066,254.396 14.838,251.328 C37.714,225.81 60.443,199.8 83.206,173.462 C83.49,173.132 83.638,172.68 83.849,172.285 C85.776,170.28 87.704,168.273 89.63,166.264 C89.352,165.987 89.074,165.71 88.795,165.434 C86.983,167.566 85.17,169.695 83.358,171.822" id="Fill-3" fill="#FFFFFF"></path>
            <path d="M405.273,142.334 C430.56,121.887 450.866,103.076 473.96,78.462 C480.223,80.025 488.78,79.957 494.488,81.396 C493.861,138.397 494.609,190.503 494.174,247.743 C491.427,247.327 489.086,247.038 486.773,246.615 C467.531,243.132 448.286,239.726 429.061,236.291 C424.433,235.475 420.023,236.532 415.567,238.761 C400.919,246.055 386.245,253.207 371.574,260.324 C369.637,261.26 367.667,262.08 365.013,263.263 C365.013,251.635 364.849,240.654 365.172,229.636 C365.227,227.771 367.087,225.35 368.604,223.837 C382.115,210.305 395.757,196.85 409.315,183.18 C416.563,175.832 423.719,168.331 430.707,161.078 C430.321,159.982 430.302,159.733 430.187,159.651 C430.043,159.551 429.782,159.492 429.634,159.582 C429.066,159.932 428.488,160.293 427.977,160.752 C427.111,161.53 426.285,162.374 425.457,163.21 C405.835,182.884 386.215,202.355 366.587,221.61 C366.45,221.744 366.197,221.72 365.06,222.005 C365.06,217.378 364.673,212.804 365.244,208.266 C365.485,206.344 367.529,204.213 369.11,202.659 C376.928,194.957 384.985,187.544 392.738,179.694 C417.65,154.252 442.473,128.353 467.303,102.123 C469.018,100.299 470.505,98.167 471.823,95.826 C435.564,130.394 401.607,167.493 365.398,202.657 C365.213,199.848 365.004,198.123 364.999,196.373 C364.84,154.661 364.722,112.946 364.534,71.247 C364.515,67.269 364.011,63.378 363.850544,59.421 C363.739,56.658 384.292,70.532 384.292,66.971 C420.996,71.655 426.036,70.384 462.42,78.462 C440.112,103.303 426.849,118.818 405.273,142.334" id="Fill-4" fill="#FFFFFF"></path>
            <path d="M75.961,588.364 C71.274,588.397 67.194,588.425 62.268,588.459 C62.621,563.949 63.105,539.87 63.277,515.79 C63.451,491.639 63.493,467.489 63.266,443.358 C63.04,419.368 64.397,395.218 62.04,369.849 C60.412,372.091 59.378,372.945 59.173,373.918 C58.776,375.798 58.744,377.753 58.738,379.663 C58.579,427.669 58.507,475.666 58.272,523.665 C58.17,544.351 57.742,565.039 57.444,585.72 C57.43,586.744 57.243,587.766 57.094,589.212 C53.17,589.238 49.493,589.262 45.211,589.291 C44.041,515.892 44.505,442.326 45.1,367.911 C56.358,368.516 67.349,369.118 77.854,369.704 C77.854,381.914 77.866,393.459 77.841,405.007 C77.837,406.718 77.574,408.448 77.564,410.161 C77.405,434.428 77.302,458.691 77.122,482.954 C76.873,516.653 76.574,550.347 76.281,584.035 C76.27,585.306 76.098,586.577 75.961,588.364" id="Fill-5" fill="#FFFFFF"></path>
            <path d="M99.568,587.9 C93.3,588.234 87.74,588.53 82.026,588.834 L82.026,369.94 C88.716,370.289 94.646,370.6 100.786,370.926 C100.786,379.866 100.856,388.465 100.757,397.076 C100.706,401.617 100.201,406.186 100.171,410.723 C99.979,438.872 99.667,467.023 99.789,495.15 C99.882,516.547 100.748,537.924 100.892,559.329 C100.955,568.571 100.065,577.832 99.568,587.9" id="Fill-6" fill="#FFFFFF"></path>
            <path d="M39.633,590.679 C35.038,590.707 30.895,590.734 25.951,590.764 C25.354,584.467 25.704,578.209 25.714,571.983 C25.721,567.771 26.06,563.554 26.064,559.342 C26.094,524.74 26.125,490.136 26.062,455.537 C26.03,438.452 25.898,421.373 25.622,404.309 C25.439,392.955 24.911,381.635 24.57,370.301 C24.541,369.3 24.758,368.272 24.911,366.751 C29.883,367.045 34.546,367.324 39.609,367.627 C39.715,370.08 39.891,372.123 39.881,374.182 C39.761,398.564 39.485,422.953 39.503,447.323 C39.529,483.322 39.756,519.315 39.905,555.316 C39.951,566.312 40.029,577.309 40.0670134,588.306 C40.069,588.926 39.847,589.548 39.633,590.679" id="Fill-7" fill="#FFFFFF"></path>
            <path d="M132.779,585.448 C129.311,585.802 126.274,586.111 122.73,586.471 C122.73,583.507 122.712,581.139 122.733,578.772 C123.149,534.546 123.379,490.311 124.074,446.052 C124.395,425.6 125.682,405.095 126.423,384.602 C126.841,373.038 127.046,361.479 127.324,349.916 C127.381,347.548 127.332,345.186 127.332,341.697 C133.203,342.57 138.326,343.336 144.467,344.26 C138.065,346.933 138.353,352.012 137.898,356.386 C137.352,361.63 137.544,366.898 137.422,372.155 C136.988,390.77 136.416,409.388 136.154,427.984 C135.633,464.982 135.422,501.961 134.787,538.936 C134.566,551.799 133.455,564.656 132.797,577.509 C132.675,579.885 132.779,582.272 132.779,585.448" id="Fill-8" fill="#FFFFFF"></path>
            <path d="M493.613,381.726 L493.613,416.321 C471.179,416.251 449.175,414.357 426.297,413.638 C426.717,402.023 427.122,390.855 427.55,378.997 C449.847,379.886 471.555,380.783 493.613,381.726" id="Fill-9" fill="#FFFFFF"></path>
            <path d="M11.354,366.156 C14.826,366.247 17.454,366.316 20.554,366.398 L20.554,589.156 C13.102,589.567 12.416,588.973 12.276,582.07 C12.263,581.441 12.274,580.811 12.273,580.181 C12.132,517.232 12.014,454.288 11.817,391.355 C11.797,385.077 11.256,378.844 11.043,372.582 C10.981,370.742 11.212,368.867 11.354,366.156" id="Fill-10" fill="#FFFFFF"></path>
            <path d="M493.655,375.06 C471.478,374.706 449.777,374.383 427.809,374.081 L427.809,342.587 C450.194,343.88 472.001,345.004 493.655,347.882 L493.655,375.06 Z" id="Fill-11" fill="#FFFFFF"></path>
            <path d="M428.181,307.55 C450.715,309.449 472.277,311.319 493.934,313.244 L493.934,340.182 C471.914,339.117 450.254,338.107 428.181,337.114 L428.181,307.55 Z" id="Fill-12" fill="#FFFFFF"></path>
            <path d="M427.034,510.617 L427.034,482.869 C433.653,480.765 479.375,480.341 493.712,482.235 C493.779,489.526 494.456,496.925 492.616,504.871 C470.647,506.812 448.88,508.72 427.034,510.617" id="Fill-13" fill="#FFFFFF"></path>
            <path d="M426.625,418.274 C449.322,419.845 471.209,421.399 493.46,423.016 L493.46,445.026 C471.4,446.882 449.426,446.987 426.538,447.294 C426.475,437.556 426.415,428.367 426.625,418.274" id="Fill-14" fill="#FFFFFF"></path>
            <path d="M428.008,273.552 C449.922,276.548 471.53,279.571 493.992,282.783 C494.653,289.986 494.085,297.992 494.293,306.564 C472.022,304.984 450.304,303.489 428.008,302.001 L428.008,273.552 Z" id="Fill-15" fill="#FFFFFF"></path>
            <path d="M212.899,346.271 L212.899,328.125 C245.873,333.68 278.741,339.399 311.994,345.369 C311.495,349.643 311.074,353.246 310.597,357.331 C277.531,355.958 245.981,347.586 212.899,346.271" id="Fill-16" fill="#FFFFFF"></path>
            <path d="M493.662,452.462 L493.662,474.578 C471.465,476.151 449.504,474.707 427.005,475.897 L427.005,452.586 C449.143,452.531 471.122,452.49 493.662,452.462" id="Fill-17" fill="#FFFFFF"></path>
            <path d="M426.191,539.81 C426.777,531.407 427.316,523.69 427.903,515.272 C449.162,513.825 470.569,512.355 492.777,510.82 C493.189,518.222 493.075,525.162 492.845,532.732 C470.648,535.114 448.87,537.427 426.191,539.81" id="Fill-18" fill="#FFFFFF"></path>
            <path d="M310.706,362.804 C310.219,367.533 309.824,371.367 309.411,375.372 C277.474,372.254 245.816,369.273 213.62,366.354 L213.62,351.712 C245.918,353.095 277.002,362.816 310.706,362.804" id="Fill-19" fill="#FFFFFF"></path>
            <path d="M308.302,399.985 L308.302,411.81 C300.871,411.442 293.686,411.339 286.569,410.7 C262.637,408.585 238.729,406.336 214.359,404.177 L214.359,389.898 C215.725,389.869 216.769,389.735 217.777,389.841 C247.768,393.082 277.755,396.451 308.302,399.985" id="Fill-20" fill="#FFFFFF"></path>
            <path d="M213.55,384.713 L213.55,371.749 C245.509,374.406 277.352,377.105 309.064,381.768 L309.064,393.064 C276.985,392.239 245.89,386.734 213.55,384.713" id="Fill-21" fill="#FFFFFF"></path>
            <path d="M427.637,266.407 C427.254,260.107 426.899,254.271 426.487,247.511 C438.541,247.696 449.525,250.093 460.613,251.733 C471.601,253.378 482.506,255.49 493.85,257.498 L493.85,274.987 C488.937,274.51 484.272,274.207 479.66,273.589 C463.703,271.473 447.763,269.289 431.82,267.166 C430.596,267.005 429.394,266.729 427.637,266.407" id="Fill-22" fill="#FFFFFF"></path>
            <path d="M271.323,285.419 L271.323,297.061 C243.253,291.87 215.7,286.917 187.886,282.059 L187.886,267.982 C215.653,273.626 243.187,279.379 271.323,285.419" id="Fill-23" fill="#FFFFFF"></path>
            <path d="M270.684,304.401 L270.684,314.055 C243.002,310.4 215.6,306.892 187.942,303.463 L187.942,288.258 C215.639,293.515 242.904,298.834 270.684,304.401" id="Fill-24" fill="#FFFFFF"></path>
            <path d="M213.65,421.481 C213.413,420.361 213.108,419.712 213.172,419.085 C213.486,415.98 213.898,412.879 214.358,409.097 C245.622,411.992 276.674,414.965 308.116,418.077 L308.116,424.872 C276.171,426.734 244.896,423.794 213.65,421.481" id="Fill-25" fill="#FFFFFF"></path>
            <path d="M187.794,261.005 L187.794,250.997 C193.087,250.484 262.858,265.615 271.883,269.253 L271.883,279.12 C243.46,272.83 215.621,266.834 187.794,261.005" id="Fill-26" fill="#FFFFFF"></path>
            <path d="M308.091,431.408 C303.767,433.474 299.291,432.009 294.932,432.054 C285.763,432.151 276.617,431.664 267.449,431.682 C264.8,431.688 262.055,432.322 259.45,433.119 C253.55,434.922 247.448,436.339 241.924,439.159 C237.318,441.504 232.988,444.396 227.96,445.583 C222.849,446.786 217.777,448.238 212.524,449.619 C210.566,441.637 212.941,434.222 213.558,426.043 C219.657,426.421 225.41,426.712 231.145,427.158 C240.464,427.888 249.745,429.055 259.094,429.413 C265.045,429.643 271.112,428.332 277.087,428.398 C287.445,428.518 297.774,429.18 308.114,429.625 C308.107,430.22 308.099,430.814 308.091,431.408" id="Fill-27" fill="#FFFFFF"></path>
            <path d="M426.77,559.429 L426.77,546.401 C448.666,545.203 470.44,544.001 492.616,542.767 L492.616,552.377 C470.821,554.738 448.96,557.079 426.77,559.429" id="Fill-28" fill="#FFFFFF"></path>
            <path d="M187.88,323.582 L187.88,309.382 C196.824,310.674 205.474,312.029 214.164,313.192 C229.838,315.319 245.541,317.328 261.217,319.518 C263.856,319.89 266.395,320.768 269.021,321.226 C271.793,321.711 272.022,323.609 271.151,326.92 C269.506,326.859 267.742,326.879 266.006,326.716 C262.407,326.381 259.026,324.907 255.094,327.008 C253.503,327.856 250.971,327.008 249.109,326.301 C237.36,321.864 224.781,320.8 212.401,319.276 C208.064,318.747 203.028,321.352 198.44,323.038 C194.885,324.343 191.552,325.316 187.88,323.582" id="Fill-29" fill="#FFFFFF"></path>
            <path d="M364.044,531.213 L364.044,511.185 C369.563,509.77 374.845,509.901 380.513,510.459 L380.513,530.817 C375.136,530.946 369.983,531.07 364.044,531.213" id="Fill-30" fill="#FFFFFF"></path>
            <path d="M363.907,503.902 L363.907,486.076 C369.241,484.913 374.52,485.25 380.166,485.14 C381.494,491.104 380.823,496.877 380.635,502.911 C374.952,504.303 369.548,505.469 363.907,503.902" id="Fill-31" fill="#FFFFFF"></path>
            <path d="M380.951,478.977 C375.057,479.213 369.897,479.42 364.232,479.648 L364.232,460.943 C369.693,460.693 375.153,460.442 380.951,460.175 L380.951,478.977 Z" id="Fill-32" fill="#FFFFFF"></path>
            <path d="M381.165,439.594 L381.165,453.533 C375.635,455.636 370.424,454.444 364.886,454.206 L364.886,440.446 C370.342,440.16 375.597,439.886 381.165,439.594" id="Fill-33" fill="#FFFFFF"></path>
            <path d="M380.763,537.669 L380.763,549.236 C375.213,550.036 369.794,550.815 363.809,551.672 L363.809,539.025 C369.115,536.881 372.642,536.585 380.763,537.669" id="Fill-34" fill="#FFFFFF"></path>
            <path d="M363.899,565.829 L363.899,558.089 C369.141,555.262 374.74,556.147 380.522,555.199 L380.522,564.233 C375.034,564.762 369.779,565.266 363.899,565.829" id="Fill-35" fill="#FFFFFF"></path>
            <path d="M259.862,94.359 C243.996,113.267 228.611,132.545 210.136,148.225 C226.355,130.04 242.449,111.547 259.862,94.359" id="Fill-36" fill="#000000"></path>
            <path d="M138.863,132.575 C118.798,163.082 91.761,186.636 68.265,213.158 C67.867,212.784 67.467,212.411 67.069,212.038 C90.65,185.673 114.232,158.936 137.813,131.828 C138.164,132.077 138.513,132.326 138.863,132.575" id="Fill-37" fill="#000000"></path>
            <path d="M52.418,100.205 C49.971,103.199 47.606,106.263 45.057,109.157 C41.531,113.151 37.867,117.014 34.262,120.921 C33.963,120.637 33.664,120.352 33.366,120.068 C39.58,113.342 45.794,106.592 52.008,99.817 L52.418,100.205 Z" id="Fill-38" fill="#000000"></path>
            <path d="M56.609,223.441 C59.323,220.498 62.037,217.549 64.752,214.597 C65.045,214.882 65.338,215.167 65.632,215.451 C62.906,218.37 60.18,221.283 57.455,224.192 C57.172,223.942 56.891,223.691 56.609,223.441" id="Fill-39" fill="#000000"></path>
            <path d="M105.187,58.924 C107.19,56.082 109.193,53.237 111.196,50.389 C111.127,50.331 111.059,50.273 110.992,50.215 C109.125,53.121 107.257,56.025 105.39,58.924 L105.187,58.924 Z" id="Fill-40" fill="#000000"></path>
            <path d="M83.358,171.822 C85.17,169.695 86.983,167.565 88.795,165.433 C89.074,165.71 89.352,165.986 89.63,166.263 C87.704,168.272 85.776,170.28 83.849,172.285 C83.686,172.131 83.522,171.976 83.358,171.822" id="Fill-41" fill="#000000"></path>
            <path d="M751.705,535.663 C755.898,535.19 759.646,534.768 763.56,534.326 L763.56,527.119 C759.436,527.892 755.443,527.202 751.705,529.476 L751.705,535.663 Z M763.732,513.135 C757.94,512.279 755.425,512.519 751.642,514.241 L751.642,524.349 C755.91,523.648 759.774,523.014 763.732,522.362 L763.732,513.135 Z M764.018,434.901 C760.048,435.093 756.3,435.272 752.408,435.46 L752.408,446.456 C756.358,446.681 760.074,447.664 764.018,446.02 L764.018,434.901 Z M763.866,466.315 L763.866,451.317 C759.731,451.497 755.838,451.667 751.942,451.836 L751.942,466.785 C755.983,466.626 759.663,466.481 763.866,466.315 L763.866,466.315 Z M751.71,486.169 C755.733,487.431 759.588,486.509 763.641,485.407 C763.774,480.595 764.254,475.991 763.307,471.23 C759.28,471.298 755.516,471.011 751.71,471.922 L751.71,486.169 Z M751.809,507.997 C756.045,507.878 759.72,507.775 763.555,507.669 L763.555,491.429 C759.512,490.976 755.745,490.865 751.809,491.989 L751.809,507.997 Z M626.168,338.604 C628.787,340.097 631.164,339.372 633.699,338.384 C636.973,337.105 640.563,335.092 643.656,335.614 C652.486,337.112 661.458,338.235 669.837,342.067 C671.165,342.676 672.971,343.413 674.105,342.758 C676.91,341.136 679.321,342.393 681.889,342.734 C683.127,342.899 684.385,342.919 685.558,342.998 C686.179,340.342 686.015,338.804 684.038,338.356 C682.165,337.934 680.354,337.173 678.473,336.818 C667.293,334.726 656.093,332.767 644.914,330.703 C638.717,329.566 632.547,328.27 626.168,327.016 L626.168,338.604 Z M796.545,530.339 C812.371,528.402 827.962,526.481 843.506,524.553 L843.506,516.979 C827.69,518.002 812.161,519.001 796.545,519.999 L796.545,530.339 Z M711.903,427.748 C711.909,427.269 711.914,426.792 711.92,426.313 C704.545,425.861 697.179,425.231 689.791,425.036 C685.529,424.926 681.203,425.928 676.958,425.684 C670.291,425.304 663.672,424.267 657.025,423.58 C652.934,423.159 648.832,422.863 644.481,422.492 C644.042,429.141 642.348,435.151 643.744,441.663 C647.491,440.582 651.107,439.444 654.754,438.51 C658.34,437.589 661.427,435.279 664.713,433.418 C668.653,431.183 673.004,430.09 677.212,428.685 C679.07,428.065 681.028,427.579 682.918,427.599 C689.456,427.668 695.978,428.145 702.517,428.15 C705.627,428.152 708.819,429.372 711.903,427.748 L711.903,427.748 Z M626.106,287.535 C645.953,293.032 665.809,298.615 686.079,304.4 L686.079,296.43 C679.643,293.264 629.882,279.1 626.106,279.368 L626.106,287.535 Z M644.547,418.782 C666.832,420.991 689.138,423.684 711.921,422.489 L711.921,417.024 C689.496,414.187 667.35,411.436 645.052,408.717 C644.724,411.787 644.431,414.305 644.206,416.827 C644.161,417.337 644.378,417.867 644.547,418.782 L644.547,418.782 Z M685.225,324.797 C665.411,319.68 645.967,314.731 626.212,309.779 L626.212,322.187 C645.938,325.61 665.481,329.058 685.225,332.597 L685.225,324.797 Z M685.68,309.476 C665.613,303.916 645.976,298.557 626.173,293.231 L626.173,304.719 C646.01,309.367 665.66,314.043 685.68,318.881 L685.68,309.476 Z M797.163,297.8 C798.416,298.094 799.273,298.338 800.146,298.493 C811.518,300.521 822.886,302.588 834.267,304.591 C837.556,305.172 840.882,305.506 844.387,305.982 L844.387,292.202 C836.296,290.371 828.518,288.462 820.682,286.914 C812.773,285.361 804.939,283.208 796.343,282.776 C796.637,288.151 796.89,292.791 797.163,297.8 L797.163,297.8 Z M644.476,388.87 C667.541,390.974 689.718,395.844 712.597,396.917 L712.597,387.831 C689.979,383.631 667.269,380.977 644.476,378.325 L644.476,388.87 Z M712.054,402.476 C690.267,399.254 668.88,396.142 647.49,393.102 C646.772,393.001 646.027,393.096 645.053,393.101 L645.053,404.715 C662.434,406.769 679.484,408.875 696.554,410.854 C701.629,411.449 706.754,411.61 712.054,411.986 L712.054,402.476 Z M713.767,372.605 C689.729,372.091 667.56,363.715 644.525,362.025 L644.525,373.936 C667.488,376.822 690.066,379.717 712.844,382.693 C713.139,379.476 713.42,376.4 713.767,372.605 L713.767,372.605 Z M796.132,514.768 C812.306,512.844 827.839,510.981 843.67,509.071 C843.833,503.105 843.915,497.637 843.621,491.804 C827.782,493.004 812.515,494.156 797.352,495.294 C796.934,501.975 796.55,508.099 796.132,514.768 L796.132,514.768 Z M844.252,445.82 C828.177,445.72 812.501,445.629 796.712,445.544 L796.712,464.044 C812.758,463.187 828.421,464.41 844.252,463.248 L844.252,445.82 Z M644.012,357.586 C667.605,359.253 690.107,366.562 713.69,368.201 C714.03,364.924 714.33,362.035 714.686,358.606 C690.97,353.217 667.528,347.982 644.012,342.823 L644.012,357.586 Z M797.428,303.477 L797.428,326.053 C813.329,327.649 828.819,329.227 844.702,330.87 C844.555,324.112 844.959,317.815 844.488,312.128 C828.468,309.147 813.057,306.314 797.428,303.477 L797.428,303.477 Z M796.441,418.309 C796.291,426.317 796.334,433.611 796.379,441.34 C812.703,441.241 828.375,441.292 844.108,439.96 L844.108,422.617 C828.238,421.163 812.629,419.752 796.441,418.309 L796.441,418.309 Z M796.732,491.6 C812.313,490.114 827.838,488.627 843.507,487.116 C844.818,480.857 844.335,475.026 844.287,469.281 C834.062,467.744 801.454,467.932 796.732,469.577 L796.732,491.6 Z M797.551,330.46 L797.551,353.92 C813.294,355.053 828.742,356.184 844.446,357.352 L844.446,336.128 C829,334.235 813.623,332.376 797.551,330.46 L797.551,330.46 Z M844.247,384.831 L844.247,363.416 C828.804,360.835 813.251,359.622 797.286,358.257 L797.286,383.25 C812.953,383.765 828.431,384.285 844.247,384.831 L844.247,384.831 Z M500.269,370.105 C500.169,372.366 500.003,373.927 500.048,375.465 C500.2,380.698 500.586,385.913 500.6,391.155 C500.74,443.704 500.825,496.26 500.925,548.817 C500.926,549.343 500.918,549.869 500.927,550.394 C501.026,556.157 501.517,556.648 506.831,556.266 L506.831,370.49 C504.62,370.36 502.745,370.25 500.269,370.105 L500.269,370.105 Z M844.218,390.083 C828.486,389.086 813.003,388.122 797.101,387.147 C796.796,396.553 796.507,405.412 796.207,414.627 C812.523,415.405 828.218,417.098 844.218,417.342 L844.218,390.083 Z M586.87,552.595 C586.87,549.984 586.796,548.023 586.883,546.07 C587.351,535.507 588.144,524.941 588.302,514.374 C588.755,483.999 588.905,453.624 589.277,423.238 C589.464,407.968 589.872,392.684 590.181,377.402 C590.268,373.088 590.132,368.758 590.52,364.461 C590.846,360.878 590.64,356.702 595.205,354.634 C590.826,353.753 587.172,353.02 582.985,352.184 C582.985,355.054 583.019,356.996 582.979,358.942 C582.781,368.445 582.635,377.947 582.337,387.451 C581.809,404.295 580.891,421.144 580.661,437.966 C580.166,474.372 580.002,510.766 579.705,547.154 C579.689,549.102 579.703,551.05 579.703,553.489 C582.23,553.174 584.397,552.903 586.87,552.595 L586.87,552.595 Z M520.438,557.427 C520.591,556.485 520.749,555.966 520.747019,555.45 C520.72,546.303 520.665,537.156 520.633,528.01 C520.526,498.064 520.364,468.123 520.346,438.178 C520.333,417.906 520.529,397.622 520.615,377.343 C520.622,375.631 520.497,373.928 520.421,371.886 C516.81,371.534 513.484,371.212 509.938,370.87 C509.829,372.135 509.675,372.987 509.696,373.822 C509.938,383.275 510.315,392.719 510.446,402.184 C510.643,416.409 510.736,430.644 510.759,444.883 C510.805,473.716 510.782,502.553 510.761,531.389 C510.758,534.899 510.517,538.414 510.512,541.925 C510.505,547.113 510.255,552.33 510.681,557.575 C514.206,557.521 517.161,557.476 520.438,557.427 L520.438,557.427 Z M563.184,554.791 C563.539,546.479 564.173,538.836 564.128,531.21 C564.024,513.548 563.408,495.907 563.342,478.249 C563.254,455.037 563.476,431.808 563.613,408.582 C563.635,404.838 563.995,401.075 564.032,397.329 C564.102,390.226 564.053,383.128 564.053,375.753 C559.674,375.374 555.444,375.009 550.673,374.6 L550.673,555.659 C554.748,555.377 558.714,555.101 563.184,554.791 L563.184,554.791 Z M546.348,555.304 C546.445,553.824 546.568,552.771 546.576,551.719 C546.785,523.833 546.998,495.942 547.176,468.051 C547.304,447.97 547.378,427.89 547.49,407.807 C547.498,406.389 547.685,404.962 547.688,403.545 C547.707,393.988 547.698,384.434 547.698,374.328 C540.205,373.649 532.367,372.943 524.338,372.227 C523.913,434.076 523.583,495.228 524.417,556.242 C527.471,556.194 530.093,556.153 532.892,556.11 C532.998,554.91 533.131,554.06 533.142,553.211 C533.353,536.048 533.659,518.881 533.731,501.716 C533.899,461.89 533.95,422.066 534.064,382.237 C534.069,380.652 534.092,379.031 534.374,377.478 C534.52,376.676 535.258,375.985 536.419,374.156 C538.101,395.233 537.133,415.237 537.294,435.133 C537.455,455.144 537.426,475.17 537.302,495.194 C537.179,515.161 536.834,535.13 536.581,555.457 C540.095,555.402 543.004,555.356 546.348,555.304 L546.348,555.304 Z M781.213,198.596 C796.601,180.647 812.86,163.901 828.771,145.084 C802.821,137.287 777.833,128.901 751.655,123.623 C751.655,126.47 751.591,128.71 751.671,130.923 C751.785,134.092 752.144,137.222 752.157,140.402 C752.292,173.734 752.376,207.075 752.489,240.414 C752.494,241.813 752.642,243.196 752.774,245.448 C778.598,218.496 802.816,190.129 828.677,164.033 C827.737,165.834 826.677,167.466 825.453,168.847 C807.744,188.744 790.041,208.476 772.273,227.938 C766.743,233.961 760.997,239.636 755.422,245.557 C754.294,246.752 752.836,248.396 752.664,249.925 C752.258,253.535 752.533,257.202 752.533,260.899 C753.344,260.702 753.524,260.728 753.622,260.625 C767.621,245.806 781.613,230.871 795.607,215.836 C796.199,215.198 796.788,214.554 797.405,213.963 C797.769,213.615 798.182,213.347 798.588,213.087 C798.692,213.02 798.879,213.075 798.981,213.16 C799.064,213.228 799.077,213.427 799.352,214.308 C794.369,219.848 789.265,225.587 784.096,231.211 C774.427,241.691 764.696,252.028 755.061,262.459 C753.979,263.627 752.652,265.512 752.613,267 C752.383,275.797 752.5,284.575 752.5,293.868 C754.392,292.985 755.798,292.377 757.179,291.676 C767.642,286.347 778.108,281.004 788.555,275.562 C791.733,273.902 794.878,273.172 798.179,273.934 C811.89,277.124 825.615,280.274 839.339,283.466 C840.988,283.852 842.658,284.133 844.617,284.522 C844.928,239.434 844.44,195.153 844.888,150.263 C840.816,148.915 836.351,147.442 831.884,145.974 C815.413,164.579 799.248,183.212 781.213,198.596 L781.213,198.596 Z M664.227,150.171 C664.442,150.438 664.658,150.706 664.873,150.973 C663.667,152.606 662.53,154.33 661.243,155.855 C650.391,168.679 639.539,181.434 628.612,194.017 C626.769,196.131 625.879,198.151 625.895,201.219 C626.01,222.849 625.949,244.5 625.971,266.142 C625.972,267.537 626.184,268.911 626.299,270.289 C637.792,273.5 649.017,276.703 660.262,279.85 C669.803,282.541 679.356,285.195 688.926,287.801 C691.169,288.414 692.467,289.429 692.426,292.809 C692.236,308.389 692.255,323.954 692.201,339.524 C692.195,341.177 692.2,342.828 692.2,344.611 C693.424,345.005 694.383,345.403 695.375,345.62 C701.753,347.016 708.14,348.371 714.519,349.768 C715.678,350.022 716.832,350.322 717.966,350.687 C719.708,351.25 720.439,352.75 719.646,354.879 C718.085,359.072 718.557,363.346 718.455,367.612 C718.266,375.564 718.678,383.471 718.503,391.429 C718.26,402.447 718.29,413.46 718.225,424.473 C718.203,427.912 718.779,428.667 721.571,428.866 C722.606,428.94 723.661,428.744 724.701,428.783 C729.007,428.946 733.318,429.053 737.612,429.383 C740.29,429.59 740.485,430.102 740.212,434.436 C722.37,434.063 704.528,432.739 686.52,433.849 C686.698,438.708 686.857,443.059 687.039,448.02 C705.003,447.676 722.802,447.339 740.83,447.003 C740.642,448.829 740.537,449.85 740.403,451.157 C722.457,452.017 704.817,450.93 687.288,451.823 L687.288,467.28 C705.237,467.246 722.885,467.22 740.707,467.2 C740.637,468.773 740.589,469.824 740.511,471.559 C722.692,471.357 705.085,471.167 687.13,470.982 C687.446,477.348 687.741,483.281 688.026,489.016 C694.284,488.805 700.087,488.608 705.89,488.412 C711.708,488.216 717.525,488.002 723.343,487.827 C729.099,487.654 734.853,487.519 740.441,487.373 C740.958,489.992 740.893,491.564 738.933,491.742 C737.741,491.85 736.547,491.892 735.353,491.913 C721.186,492.17 707.019,492.417 692.852,492.675 C691.264,492.704 689.675,492.775 688.236,492.823 L688.236,512.912 C705.976,511.781 723.201,510.677 740.609,509.554 L740.609,513.914 C723.155,514.893 705.804,515.863 688.167,516.843 L688.167,530.752 C696.939,529.745 705.331,528.415 713.743,527.906 C722.254,527.389 730.781,525.392 739.296,526.528 C739.668,529.402 738.549,530.202 737.114,530.479 C735.054,530.878 732.978,531.245 730.902,531.395 C719.301,532.235 707.695,532.978 696.094,533.809 C693.477,533.995 690.869,534.413 688.011,534.753 C688.191,536.55 688.26,537.607 688.412,538.643 C688.559,539.65 688.794,540.636 689.027,541.816 C707.699,540.124 726.122,539.817 744.836,536.257 L744.836,121.769 C705.186,113.278 665.166,108.467 625.064,100.506 C624.962,102.636 625.064,100.506 625.082,101.752 C625.362,121.511 625.699,141.263 625.937,161.034 C626.042,169.749 625.944,178.493 625.966,187.221 C625.97,188.578 626.116,189.917 626.221,191.686 C639.142,177.663 651.684,163.961 664.227,150.171 L664.227,150.171 Z M529.557,150.061 L529.264,149.721 C530.218,148.261 531.076,146.692 532.141,145.356 C543.636,130.887 555.16,116.362 566.684,101.749 C569.991,97.539 569.486,98.213 573.321,93.348 C547.004,89.231 525.181,83.276 498.851,80.922 C498.851,91.439 498.754,98.627 498.88,108.392 C499.086,124.46 499.433,140.507 499.746,156.561 C499.769,157.804 499.995,159.014 500.184,160.772 C501.409,159.247 502.155,158.304 502.913,157.374 C515.468,141.916 527.99,126.317 540.605,110.723 C543.399,107.255 546.404,103.947 551.08,101.367 C546.625,109.256 541.777,115.147 537.067,121.079 C525.768,135.253 514.289,149.144 502.817,162.956 C500.556,165.67 499.644,168.434 499.668,172.08 C499.876,203.946 499.93,235.836 500.037,267.721 C500.04,268.685 500.136,269.641 500.219,271.179 C501.155,270.339 501.658,269.99 502.054,269.517 C513.496,255.767 524.867,241.848 536.39,228.021 C541.306,222.098 546.535,216.53 551.623,210.778 C551.739,210.912 551.856,211.046 551.974,211.18 C551.822,211.498 551.717,211.866 551.515,212.128 C535.279,233.067 519.069,253.851 502.754,274.336 C500.777,276.806 499.954,279.133 499.969,282.395 C500.081,307.278 500.03,332.178 500.03,357.073 L500.03,362.106 C510.484,362.989 520.607,363.854 531.013,364.753 C531.344,359.478 531.823,354.574 531.929,349.685 C532.307,332.153 532.551,314.624 532.865,297.088 C532.919,294.078 533.091,291.06 533.163,288.049 C533.206,286.268 533.8,285.068 535.257,284.215 C540.601,281.08 545.889,277.774 551.231,274.617 C561.402,268.584 571.598,262.587 581.782,256.532 C582.952,258.444 584.077,259.511 585.38,259.861 C594.341,262.286 603.343,264.563 612.32,266.954 C613.274,267.209 614.159,267.745 614.871,268.06 L614.871,274.77 C604.232,271.78 594.058,268.942 583.453,266.01 C583.641,269.612 583.803,272.738 583.971,275.956 C585.476,276.351 586.742,276.696 588.014,277.017 C596.167,279.082 604.338,281.089 612.468,283.278 C615.351,284.058 615.306,284.243 614.512,288.809 C604.446,286.075 594.395,283.365 584.041,280.596 L584.041,296.582 C594.516,298.55 604.901,300.518 615.234,302.495 L615.234,306.969 C604.761,304.711 594.586,302.536 584.005,300.293 C583.781,305.362 583.588,309.769 583.382,314.455 C594.3,316.265 604.863,318.031 615.544,319.835 C615.366,321.786 615.258,322.976 615.145,324.213 C604.496,322.199 594.105,320.251 583.564,318.293 L583.564,331.137 C594.358,333.176 604.901,335.185 615.548,337.232 C615.374,339.17 615.267,340.366 615.147,341.69 C604.484,339.732 594.349,336.322 583.503,335.271 L583.503,348.974 C589.306,349.939 594.956,350.974 600.643,351.76 C601.703,351.906 602.918,351.068 604.048,350.621 C607.726,349.166 611.398,347.679 615.334,346.096 C615.601,359.186 616.053,371.644 616.072,384.135 C616.154,436.732 616.106,489.337 616.11,541.939 C616.11,543.933 616.128,545.928 616.201,547.918 C616.22,548.416 616.491,548.895 616.76,549.741 C617.998,549.42 619.22,549.101 620.623,548.736 C620.623,541.902 620.686,535.562 620.606,529.229 C620.509,521.444 620.16,513.669 620.158,505.883 C620.157,497.351 620.585,488.805 620.551,480.275 C620.429,450.317 620.044,420.377 620.036,390.42 C620.028,363.919 620.584,337.374 620.551,310.872 C620.466,242.783 620.209,174.719 619.944,106.665 C619.931,102.996 619.601,103.02 619.215,99.434 C610.448,97.869 601.352,97.057 593.239,95.297 C590.349,94.673 586.969,94.38 586.969,94.38 C586.548,94.952 586.137,95.538 585.69,96.081 C582.331,100.166 578.965,104.234 575.601,108.3 C575.398,108.065 575.197,107.831 574.995,107.598 C579.005,102.138 581.26,102.14 585.69,96.081 C583.498,95.55 581.622,93.999 580.132,93.555 C578.663,93.117 577.744,92.121 576.64,93.479 C564.326,108.563 553.981,121.069 541.623,135.908 C537.635,140.677 533.581,145.356 529.557,150.061 L529.557,150.061 Z M855.191,536.843 C853.657,537.693 852.213,538.787 850.661,539.303 C841.696,542.271 832.806,545.508 823.471,546.17 C809.052,547.186 794.655,548.848 780.244,550.118 C768.059,551.186 755.865,552.064 743.679,553.092 C735.21,553.802 726.747,554.659 718.279,555.395 C706.097,556.449 693.911,557.443 681.728,558.471 C672.813,559.22 663.9,560.007 654.985,560.743 C647.852,561.33 640.719,561.865 633.586,562.435 C624.372,563.168 615.158,563.894 605.946,564.653 C600.003,565.142 594.057,565.586 588.124,566.232 C580.856,567.02 573.613,568.235 566.339,568.832 C556.226,569.659 546.093,570.058 535.971,570.69 C527.35,571.226 518.728,571.772 510.113,572.432 C504.621,572.851 500.976,569.365 498.508,564.395 C496.063,559.483 494.561,554.189 494.567,548.095 C494.627,488.587 494.546,429.084 494.338,369.595 C494.153,316.766 493.772,263.964 493.446,211.167 C493.295,186.519 493.035,161.89 492.903,137.244 C492.882,133.077 493.385,128.833 493.41,124.655 C493.429,121.531 492.942,118.479 492.899,115.36 C492.741,104.018 492.186,98.115 492.18,86.751 C492.179,84.345 491.637,86.758 492.179,84.345 C493.094,80.27 495.354,80.777 498.851,80.922 C521.785,81.907 550.913,89.559 573.321,93.348 C622.636,102.023 665.038,106.678 714.315,116.472 C756.445,125.218 799.073,125.378 839.912,140.096 C843.116,141.268 846.301,142.52 849.453,143.871 C854.14,145.884 856.543,149.872 856.397,156.923 C856.131,169.882 856.237,182.812 856.317,195.738 C856.47,220.348 856.905,244.931 856.878291,269.561 C856.822,315.534 856.52,361.521 856.321,407.496 C856.223,430.382 856.168,453.265 856.009,476.149 C855.876,495.34 855.625,514.53 855.414,533.719 C855.403,534.669 855.281,535.619 855.191,536.843 L855.191,536.843 Z" id="Fill-42" fill="#000000"></path>
            <path d="M677.505,154.649 C665.086,167.848 653.608,182.206 642.04,196.36 C655.217,184.329 666.189,169.304 677.505,154.649 M664.227,150.17 C651.684,163.962 639.141,177.664 626.22,191.687 C626.115,189.918 625.969,188.579 625.965,187.221 C625.943,178.494 626.041,169.75 625.937,161.035 C625.698,141.263 625.361,121.511 625.081,101.753 C625.064,100.506 624.961,102.636 625.064,100.506 C665.165,108.467 705.186,113.279 744.835,121.77 L744.835,536.257 C726.121,539.818 707.698,540.124 689.026,541.817 C688.793,540.636 688.559,539.651 688.411,538.643 C688.259,537.608 688.191,536.549 688.01,534.753 C690.868,534.414 693.477,533.996 696.093,533.809 C707.694,532.979 719.3,532.236 730.901,531.396 C732.978,531.246 735.053,530.878 737.113,530.479 C738.548,530.203 739.667,529.403 739.295,526.529 C730.78,525.393 722.253,527.389 713.742,527.907 C705.33,528.416 696.939,529.746 688.166,530.753 L688.166,516.843 C705.803,515.864 723.154,514.894 740.609,513.914 L740.609,509.554 C723.2,510.676 705.976,511.782 688.235,512.913 L688.235,492.824 C689.674,492.776 691.263,492.705 692.852,492.674 C707.019,492.418 721.186,492.169 735.353,491.914 C736.546,491.892 737.74,491.85 738.932,491.743 C740.893,491.564 740.957,489.993 740.441,487.374 C734.853,487.52 729.098,487.655 723.342,487.828 C717.525,488.003 711.707,488.216 705.889,488.413 C700.086,488.609 694.283,488.805 688.026,489.016 C687.74,483.282 687.445,477.348 687.129,470.983 C705.084,471.168 722.692,471.358 740.51,471.559 C740.588,469.825 740.636,468.774 740.706,467.201 C722.884,467.22 705.236,467.246 687.287,467.281 L687.287,451.824 C704.817,450.929 722.456,452.018 740.402,451.158 C740.536,449.851 740.642,448.83 740.829,447.003 C722.801,447.339 705.002,447.676 687.038,448.021 C686.857,443.059 686.697,438.709 686.52,433.849 C704.527,432.739 722.369,434.063 740.211,434.436 C740.484,430.103 740.289,429.59 737.611,429.383 C733.318,429.053 729.006,428.946 724.7,428.784 C723.66,428.744 722.606,428.941 721.57,428.866 C718.778,428.668 718.202,427.913 718.224,424.473 C718.289,413.461 718.259,402.448 718.502,391.429 C718.677,383.471 718.265,375.565 718.454,367.612 C718.556,363.346 718.084,359.073 719.646,354.879 C720.439,352.751 719.707,351.251 717.965,350.688 C716.831,350.323 715.677,350.023 714.519,349.769 C708.139,348.371 701.752,347.015 695.374,345.621 C694.382,345.404 693.423,345.005 692.199,344.612 C692.199,342.829 692.194,341.177 692.2,339.525 C692.254,323.955 692.235,308.389 692.425,292.809 C692.466,289.429 691.168,288.414 688.925,287.801 C679.356,285.196 669.802,282.542 660.261,279.85 C649.017,276.704 637.791,273.501 626.298,270.29 C626.184,268.912 625.971,267.538 625.97,266.141 C625.948,244.501 626.009,222.849 625.895,201.218 C625.878,198.151 626.769,196.131 628.611,194.016 C639.538,181.434 650.39,168.679 661.242,155.856 C662.529,154.331 663.666,152.607 664.872,150.973 C664.657,150.707 664.442,150.438 664.227,150.17" id="Fill-43" fill="#FFFFFF"></path>
            <path d="M567.191,118.534 C567.239,118.538 567.288,118.541 567.336,118.545 C568.668,116.249 570,113.952 571.331,111.653 C571.379,111.705 571.427,111.756 571.476,111.807 C570.047,114.052 568.619,116.294 567.191,118.534 M532.545,252.544 C532.746,252.762 532.947,252.979 533.148,253.197 C535.092,250.878 537.037,248.557 538.98,246.234 C538.771,245.988 538.561,245.742 538.352,245.496 C536.417,247.847 534.481,250.197 532.545,252.544 M591.209,180.708 C590.96,180.488 590.71,180.269 590.461,180.051 C573.642,201.375 556.824,222.511 540.004,243.457 C540.29,243.78 540.574,244.104 540.858,244.428 C557.616,223.347 576.898,204.97 591.209,180.708 M551.623,210.778 C546.535,216.53 541.305,222.097 536.389,228.021 C524.867,241.847 513.496,255.767 502.053,269.516 C501.658,269.99 501.155,270.339 500.218,271.179 C500.135,269.64 500.04,268.685 500.037,267.721 C499.929,235.836 499.876,203.946 499.668,172.08 C499.644,168.434 500.555,165.67 502.817,162.956 C514.289,149.144 525.767,135.253 537.067,121.079 C541.777,115.147 546.625,109.256 551.08,101.367 C546.404,103.947 543.399,107.255 540.605,110.722 C527.99,126.317 515.467,141.916 502.913,157.374 C502.155,158.304 501.409,159.247 500.184,160.772 C499.995,159.013 499.769,157.804 499.746,156.561 C499.432,140.507 499.086,124.46 498.879,108.392 C498.753,98.627 498.85,91.439 498.85,80.922 C525.18,83.276 545.159,88.336 571.476,92.453 C567.641,97.317 569.991,97.539 566.684,101.749 C555.16,116.362 543.635,130.887 532.14,145.356 C531.076,146.692 530.217,148.261 529.263,149.721 C524.832,155.048 520.4,160.362 515.968,165.664 C516.181,165.915 516.394,166.166 516.607,166.416 C519.178,163.335 521.793,160.297 524.306,157.143 C526.125,154.861 527.811,152.43 529.556,150.061 C533.581,145.356 537.634,140.677 541.623,135.908 C553.981,121.069 564.326,108.563 576.639,93.479 C577.744,92.121 579.493,92.703 580.962,93.139 C582.452,93.584 582.79,93.444 584.982,93.975 C580.55,100.035 579.004,102.138 574.995,107.597 C575.197,107.831 575.398,108.065 575.6,108.3 C578.964,104.234 582.331,100.166 585.69,96.081 C586.136,95.538 586.547,94.952 586.968,94.38 C586.968,94.38 590.348,94.673 593.239,95.297 C601.352,97.056 610.625,98.645 619.392,100.211 C619.778,103.797 619.93,102.996 619.944,106.665 C620.209,174.719 620.465,242.783 620.55,310.872 C620.584,337.374 620.028,363.919 620.036,390.42 C620.044,420.377 620.428,450.317 620.55,480.275 C620.585,488.805 620.157,497.351 620.158,505.883 C620.16,513.669 620.508,521.444 620.606,529.229 C620.686,535.562 620.623,541.902 620.623,548.736 C619.219,549.101 617.998,549.42 616.759,549.741 C616.491,548.895 616.219,548.416 616.201,547.918 C616.128,545.928 616.11,543.932 616.11,541.939 C616.106,489.337 616.154,436.732 616.072,384.135 C616.052,371.644 615.6,359.186 615.334,346.096 C611.398,347.679 607.726,349.166 604.047,350.621 C602.918,351.068 601.703,351.906 600.643,351.76 C594.956,350.973 589.305,349.939 583.503,348.973 L583.503,335.271 C594.348,336.322 604.484,339.732 615.147,341.69 C615.266,340.366 615.374,339.17 615.547,337.232 C604.901,335.185 594.358,333.176 583.564,331.137 L583.564,318.293 C594.105,320.251 604.496,322.199 615.145,324.213 C615.257,322.976 615.366,321.786 615.544,319.835 C604.863,318.031 594.299,316.264 583.381,314.455 C583.587,309.769 583.781,305.362 584.004,300.293 C594.586,302.536 604.76,304.711 615.234,306.969 L615.234,302.495 C604.901,300.518 594.515,298.55 584.041,296.582 L584.041,280.596 C594.395,283.365 604.446,286.075 614.511,288.809 C615.305,284.243 615.35,284.057 612.467,283.278 C604.337,281.089 596.167,279.082 588.013,277.016 C586.742,276.696 585.476,276.351 583.97,275.956 C583.802,272.738 583.64,269.612 583.453,266.01 C594.057,268.942 604.232,271.78 614.871,274.77 L614.871,268.06 C614.159,267.745 613.274,267.209 612.32,266.954 C603.342,264.563 594.34,262.286 585.379,259.861 C584.077,259.511 582.952,258.444 581.782,256.532 C571.597,262.587 561.402,268.584 551.231,274.617 C545.888,277.774 540.601,281.08 535.256,284.215 C533.799,285.068 533.206,286.268 533.163,288.049 C533.09,291.06 532.919,294.078 532.865,297.088 C532.55,314.624 532.306,332.153 531.928,349.685 C531.823,354.574 531.343,359.478 531.012,364.753 C520.607,363.854 510.484,362.989 500.03,362.106 L500.03,357.073 C500.03,332.178 500.081,307.278 499.968,282.395 C499.954,279.133 500.777,276.805 502.753,274.336 C519.069,253.851 535.279,233.067 551.514,212.128 C551.716,211.866 551.822,211.498 551.973,211.18 C553.347,209.598 554.721,208.016 556.096,206.432 C555.897,206.193 555.699,205.953 555.501,205.713 C554.208,207.402 552.915,209.091 551.623,210.778" id="Fill-44" fill="#FFFFFF"></path>
            <path d="M781.212,198.596 C799.247,183.212 815.412,164.579 831.883,145.974 C836.695,143.871 840.816,145.076 844.887,146.423 C844.44,191.315 844.927,239.434 844.616,284.523 C842.657,284.133 840.987,283.853 839.338,283.466 C825.614,280.275 811.889,277.124 798.178,273.935 C794.877,273.172 791.733,273.903 788.554,275.563 C778.108,281.004 767.641,286.347 757.178,291.676 C755.797,292.377 754.391,292.986 752.499,293.868 C752.499,284.575 752.382,275.797 752.612,267 C752.651,265.512 753.979,263.627 755.061,262.459 C764.695,252.029 774.426,241.692 784.095,231.211 C789.264,225.587 794.368,219.848 799.352,214.308 C799.076,213.427 799.064,213.229 798.981,213.16 C798.878,213.075 798.691,213.021 798.587,213.087 C798.181,213.347 797.769,213.616 797.404,213.963 C796.787,214.554 796.198,215.199 795.607,215.836 C781.612,230.871 767.62,245.806 753.621,260.625 C753.524,260.729 753.343,260.702 752.532,260.9 C752.532,257.202 752.257,253.535 752.663,249.925 C752.835,248.397 754.293,246.752 755.421,245.557 C760.996,239.636 766.742,233.961 772.273,227.939 C790.04,208.476 807.743,188.744 825.452,168.847 C826.676,167.466 827.736,165.834 828.676,164.033 C802.816,190.129 778.597,218.496 752.774,245.449 C752.642,243.197 752.493,241.814 752.488,240.414 C752.375,207.075 752.291,173.735 752.156,140.403 C752.144,137.222 751.784,134.092 751.67,130.923 C751.59,128.71 751.654,126.47 751.654,123.623 C777.832,128.902 802.82,137.287 828.771,145.084 C812.859,163.902 796.601,180.648 781.212,198.596" id="Fill-45" fill="#FFFFFF"></path>
            <path d="M546.347,555.304 C543.003,555.357 540.094,555.403 536.58,555.457 C536.833,535.13 537.178,515.161 537.301,495.195 C537.425,475.17 537.454,455.145 537.293,435.133 C537.132,415.238 538.1,395.234 536.418,374.157 C535.257,375.986 534.52,376.676 534.373,377.479 C534.091,379.032 534.069,380.653 534.064,382.238 C533.95,422.067 533.899,461.89 533.731,501.716 C533.659,518.881 533.353,536.048 533.141,553.211 C533.13,554.061 532.997,554.91 532.891,556.111 C530.092,556.154 527.47,556.195 524.416,556.242 C523.582,495.229 523.912,434.076 524.337,372.228 C532.367,372.944 540.204,373.65 547.698,374.328 C547.698,384.434 547.706,393.989 547.688,403.545 C547.685,404.962 547.497,406.389 547.49,407.807 C547.377,427.89 547.303,447.97 547.175,468.051 C546.997,495.943 546.784,523.833 546.576,551.719 C546.568,552.772 546.445,553.825 546.347,555.304" id="Fill-46" fill="#FFFFFF"></path>
            <path d="M563.183,554.791 C558.713,555.102 554.747,555.377 550.672,555.659 L550.672,374.6 C555.444,375.009 559.673,375.374 564.052,375.753 C564.052,383.128 564.102,390.226 564.032,397.329 C563.995,401.075 563.634,404.838 563.613,408.582 C563.476,431.808 563.253,455.037 563.341,478.249 C563.408,495.907 564.024,513.548 564.127,531.21 C564.172,538.836 563.538,546.479 563.183,554.791" id="Fill-47" fill="#FFFFFF"></path>
            <path d="M520.438,557.427 C517.161,557.477 514.206,557.522 510.68,557.575 C510.254,552.33 510.504,547.114 510.511,541.925 C510.516,538.414 510.757,534.9 510.76,531.389 C510.782,502.553 510.804,473.716 510.758,444.883 C510.736,430.645 510.642,416.409 510.446,402.185 C510.315,392.719 509.938,383.276 509.696,373.823 C509.674,372.988 509.829,372.135 509.938,370.87 C513.484,371.212 516.81,371.534 520.42,371.886 C520.497,373.928 520.622,375.631 520.615,377.343 C520.529,397.622 520.333,417.906 520.345,438.178 C520.364,468.123 520.526,498.065 520.632,528.01 C520.665,537.156 520.719,546.303 520.747019,555.45 C520.749,555.966 520.59,556.486 520.438,557.427" id="Fill-48" fill="#FFFFFF"></path>
            <path d="M586.87,552.595 C584.397,552.904 582.23,553.174 579.703,553.49 C579.703,551.05 579.689,549.103 579.705,547.155 C580.002,510.766 580.166,474.372 580.661,437.966 C580.891,421.145 581.808,404.295 582.337,387.451 C582.635,377.948 582.781,368.446 582.979,358.943 C583.019,356.996 582.985,355.054 582.985,352.185 C587.172,353.021 590.826,353.753 595.205,354.634 C590.64,356.702 590.846,360.878 590.52,364.461 C590.132,368.758 590.268,373.088 590.181,377.403 C589.872,392.685 589.464,407.968 589.277,423.239 C588.905,453.624 588.755,483.999 588.302,514.374 C588.144,524.942 587.351,535.507 586.883,546.071 C586.796,548.024 586.87,549.985 586.87,552.595" id="Fill-49" fill="#FFFFFF"></path>
            <path d="M844.217,390.083 L844.217,417.342 C828.217,417.098 812.523,415.405 796.206,414.627 C796.506,405.412 796.795,396.553 797.101,387.147 C813.002,388.122 828.486,389.086 844.217,390.083" id="Fill-50" fill="#FFFFFF"></path>
            <path d="M500.269,370.106 C502.745,370.251 504.62,370.361 506.831,370.491 L506.831,556.266 C501.516,556.649 501.026,556.158 500.926,550.395 C500.917,549.87 500.925,549.343 500.924,548.818 C500.825,496.26 500.74,443.705 500.599,391.156 C500.585,385.914 500.2,380.699 500.047,375.465 C500.002,373.927 500.168,372.367 500.269,370.106" id="Fill-51" fill="#FFFFFF"></path>
            <path d="M844.247,384.831 C828.431,384.285 812.953,383.765 797.286,383.25 L797.286,358.257 C813.251,359.622 828.804,360.835 844.247,363.416 L844.247,384.831 Z" id="Fill-52" fill="#FFFFFF"></path>
            <path d="M797.55,330.46 C813.622,332.376 828.999,334.235 844.446,336.128 L844.446,357.353 C828.741,356.184 813.293,355.053 797.55,353.92 L797.55,330.46 Z" id="Fill-53" fill="#FFFFFF"></path>
            <path d="M796.732,491.6 L796.732,469.578 C801.454,467.932 834.062,467.745 844.287,469.282 C844.335,475.027 844.818,480.858 843.506,487.117 C827.837,488.627 812.313,490.115 796.732,491.6" id="Fill-54" fill="#FFFFFF"></path>
            <path d="M796.441,418.309 C812.628,419.752 828.238,421.163 844.108,422.618 L844.108,439.96 C828.375,441.292 812.703,441.242 796.379,441.34 C796.334,433.612 796.291,426.318 796.441,418.309" id="Fill-55" fill="#FFFFFF"></path>
            <path d="M797.427,303.478 C813.056,306.315 828.467,309.148 844.488,312.128 C844.958,317.816 844.554,324.113 844.701,330.871 C828.819,329.228 813.328,327.65 797.427,326.053 L797.427,303.478 Z" id="Fill-56" fill="#FFFFFF"></path>
            <path d="M644.011,357.586 L644.011,342.823 C667.528,347.982 690.969,353.217 714.686,358.607 C714.329,362.035 714.03,364.924 713.69,368.201 C690.107,366.563 667.605,359.253 644.011,357.586" id="Fill-57" fill="#FFFFFF"></path>
            <path d="M844.251,445.82 L844.251,463.248 C828.42,464.41 812.757,463.187 796.711,464.044 L796.711,445.544 C812.5,445.629 828.176,445.719 844.251,445.82" id="Fill-58" fill="#FFFFFF"></path>
            <path d="M796.131,514.769 C796.549,508.099 796.933,501.975 797.352,495.294 C812.514,494.157 827.781,493.004 843.62,491.804 C843.914,497.637 843.832,503.106 843.669,509.072 C827.838,510.982 812.305,512.844 796.131,514.769" id="Fill-59" fill="#FFFFFF"></path>
            <path d="M713.767,372.606 C713.419,376.401 713.138,379.477 712.843,382.694 C690.066,379.717 667.488,376.823 644.525,373.937 L644.525,362.025 C667.56,363.715 689.729,372.091 713.767,372.606" id="Fill-60" fill="#FFFFFF"></path>
            <path d="M712.053,402.476 L712.053,411.987 C706.753,411.611 701.628,411.45 696.553,410.855 C679.484,408.875 662.433,406.77 645.052,404.715 L645.052,393.101 C646.027,393.096 646.772,393.001 647.49,393.103 C668.879,396.142 690.267,399.254 712.053,402.476" id="Fill-61" fill="#FFFFFF"></path>
            <path d="M644.476,388.87 L644.476,378.325 C667.269,380.977 689.979,383.631 712.596,387.831 L712.596,396.917 C689.717,395.844 667.54,390.974 644.476,388.87" id="Fill-62" fill="#FFFFFF"></path>
            <path d="M797.163,297.8 C796.89,292.791 796.637,288.152 796.343,282.777 C804.939,283.208 812.773,285.362 820.682,286.914 C828.518,288.462 836.296,290.371 844.387,292.202 L844.387,305.983 C840.882,305.506 837.556,305.172 834.267,304.591 C822.886,302.588 811.517,300.522 800.146,298.493 C799.273,298.338 798.416,298.094 797.163,297.8" id="Fill-63" fill="#FFFFFF"></path>
            <path d="M685.679,309.476 L685.679,318.881 C665.659,314.043 646.009,309.368 626.172,304.719 L626.172,293.232 C645.975,298.557 665.613,303.916 685.679,309.476" id="Fill-64" fill="#FFFFFF"></path>
            <path d="M685.224,324.797 L685.224,332.597 C665.481,329.058 645.938,325.61 626.211,322.188 L626.211,309.779 C645.966,314.732 665.411,319.68 685.224,324.797" id="Fill-65" fill="#FFFFFF"></path>
            <path d="M644.546,418.782 C644.377,417.867 644.16,417.337 644.205,416.827 C644.43,414.304 644.723,411.787 645.051,408.717 C667.349,411.436 689.495,414.187 711.92,417.024 L711.92,422.489 C689.137,423.683 666.831,420.991 644.546,418.782" id="Fill-66" fill="#FFFFFF"></path>
            <path d="M626.106,287.535 L626.106,279.368 C629.881,279.099 679.643,293.264 686.079,296.43 L686.079,304.4 C665.808,298.615 645.953,293.032 626.106,287.535" id="Fill-67" fill="#FFFFFF"></path>
            <path d="M711.903,427.748 C708.819,429.372 705.627,428.152 702.517,428.15 C695.978,428.145 689.456,427.668 682.918,427.599 C681.028,427.579 679.07,428.065 677.212,428.685 C673.004,430.09 668.653,431.183 664.713,433.418 C661.426,435.279 658.34,437.589 654.754,438.51 C651.107,439.444 647.491,440.582 643.744,441.663 C642.347,435.151 644.042,429.141 644.481,422.492 C648.832,422.863 652.934,423.159 657.025,423.58 C663.672,424.267 670.291,425.304 676.958,425.685 C681.203,425.928 685.529,424.926 689.791,425.036 C697.178,425.231 704.545,425.861 711.92,426.313 C711.914,426.792 711.909,427.269 711.903,427.748" id="Fill-68" fill="#FFFFFF"></path>
            <path d="M796.544,530.339 L796.544,519.999 C812.16,519.001 827.69,518.002 843.505,516.98 L843.505,524.553 C827.961,526.482 812.37,528.402 796.544,530.339" id="Fill-69" fill="#FFFFFF"></path>
            <path d="M626.167,338.605 L626.167,327.016 C632.546,328.271 638.716,329.567 644.913,330.704 C656.092,332.768 667.292,334.726 678.472,336.819 C680.354,337.173 682.164,337.934 684.037,338.357 C686.014,338.804 686.178,340.342 685.557,342.999 C684.384,342.919 683.126,342.9 681.888,342.735 C679.32,342.394 676.909,341.136 674.105,342.758 C672.97,343.414 671.164,342.676 669.836,342.068 C661.457,338.236 652.485,337.113 643.655,335.615 C640.563,335.092 636.972,337.106 633.698,338.384 C631.163,339.373 628.786,340.097 626.167,338.605" id="Fill-70" fill="#FFFFFF"></path>
            <path d="M751.808,507.997 L751.808,491.989 C755.745,490.865 759.511,490.976 763.554,491.429 L763.554,507.669 C759.719,507.775 756.044,507.878 751.808,507.997" id="Fill-71" fill="#FFFFFF"></path>
            <path d="M751.709,486.169 L751.709,471.922 C755.515,471.011 759.279,471.298 763.306,471.231 C764.253,475.991 763.773,480.595 763.64,485.407 C759.587,486.509 755.732,487.431 751.709,486.169" id="Fill-72" fill="#FFFFFF"></path>
            <path d="M763.866,466.316 C759.663,466.482 755.983,466.627 751.942,466.786 L751.942,451.837 C755.838,451.668 759.731,451.498 763.866,451.318 L763.866,466.316 Z" id="Fill-73" fill="#FFFFFF"></path>
            <path d="M764.018,434.901 L764.018,446.02 C760.074,447.664 756.358,446.68 752.408,446.456 L752.408,435.46 C756.299,435.272 760.047,435.092 764.018,434.901" id="Fill-74" fill="#FFFFFF"></path>
            <path d="M763.732,513.135 L763.732,522.363 C759.774,523.014 755.91,523.649 751.641,524.349 L751.641,514.241 C755.424,512.52 757.94,512.28 763.732,513.135" id="Fill-75" fill="#FFFFFF"></path>
            <path d="M751.705,535.663 L751.705,529.476 C755.443,527.202 759.436,527.892 763.56,527.119 L763.56,534.326 C759.646,534.768 755.898,535.19 751.705,535.663" id="Fill-76" fill="#FFFFFF"></path>
            <path d="M677.505,154.649 C666.189,169.305 655.217,184.329 642.04,196.36 C653.608,182.206 665.086,167.848 677.505,154.649" id="Fill-77" fill="#000000"></path>
            <path d="M591.209,180.708 C576.898,204.97 557.616,223.348 540.858,244.428 C540.574,244.104 540.29,243.78 540.005,243.457 C556.824,222.511 573.643,201.375 590.461,180.051 C590.71,180.27 590.96,180.488 591.209,180.708" id="Fill-78" fill="#000000"></path>
            <path d="M529.556,150.062 C527.811,152.43 526.124,154.862 524.306,157.144 C521.792,160.297 519.178,163.335 516.607,166.416 C516.394,166.166 516.181,165.916 515.968,165.665 C520.4,160.363 524.831,155.048 529.263,149.721 L529.556,150.062 Z" id="Fill-79" fill="#000000"></path>
            <path d="M532.545,252.544 C534.481,250.197 536.416,247.848 538.352,245.496 C538.561,245.742 538.771,245.988 538.98,246.234 C537.036,248.558 535.092,250.878 533.148,253.197 C532.946,252.98 532.745,252.762 532.545,252.544" id="Fill-80" fill="#000000"></path>
            <path d="M567.191,118.534 C568.619,116.294 570.047,114.052 571.476,111.807 C571.427,111.756 571.379,111.705 571.331,111.653 C570,113.952 568.668,116.249 567.336,118.545 C567.288,118.541 567.239,118.538 567.191,118.534" id="Fill-81" fill="#000000"></path>
            <path d="M551.623,210.778 C552.915,209.091 554.208,207.402 555.501,205.713 C555.699,205.953 555.897,206.193 556.097,206.432 C554.722,208.016 553.348,209.598 551.974,211.179 C551.856,211.046 551.739,210.912 551.623,210.778" id="Fill-82" fill="#000000"></path>
            <polygon id="Fill-83" fill="#000000" points="8.883 598.814 25.155 608.585 853.074 549.097 855.191 536.843 856.397 156.923 849.452 143.872 843.505 541.679"></polygon>
            <path d="M0.946,12.04 L1.353,6.115 C1.618,2.264 5.133,-0.529 8.945,0.085 L850.493,135.576 C853.895,136.124 856.397,139.061 856.397,142.507 L856.397,156.491 L850.411,148.757 L10.12,13.494 L0.623,18.506 L0.946,12.04 Z" id="Fill-105" fill="#000000"></path>
        </g>
    </g>
</svg>