<svg width="400" height="450" viewBox="0 0 400 450" xmlns="http://www.w3.org/2000/svg"><g fill="none" fill-rule="evenodd"><path d="M225.504 294.86l1.073 1.957c2.743-.78 5.538-1.412 8.218-2.368 7.197-2.569 7.449-3.173 5.714-12.393l-15.005 12.804m-53.121-1.625l-22.961-6.521c-.258 2.8-2.023 5.625 1.544 7.117 7.481 3.127 14.879 6.744 23.962 6.553l-2.545-7.149m-58.817-130.761l-1.88-.976c-1.603 2.513-4.539 5.013-4.564 7.542-.081 8.246.727 16.52 1.58 24.744.258 2.487 1.188 5.511 5.862 4.416l-.998-35.726m157.336 37.382l1.643 1.248c.826-1.609 2.231-3.168 2.382-4.839.865-9.567.854-19.251 2.319-28.713.857-5.539-1.802-7.511-5.741-10.262-3.793 14.612.951 28.632-.603 42.566m-88.14 99.343l33.263-1.555 1.671-11.583c-16.471-1.844-40.634-1.426-46.434 1.751 9.528-1.627 7.712 6.233 11.5 11.387m-33.928-1.144c2.146 6.732 7.099 8.212 11.367 9.592 16.249 5.252 32.986 7.726 50.045 5.827 9.957-1.108 19.436-4.23 27.927-9.863 2.275-1.509 3.796-3.055 1.799-5.696-11.631 2.295-23.092 5.061-34.711 6.714-12.732 1.809-25.648 3.799-38.394-.053-5.602-1.694-11.03-3.965-18.033-6.521M66.59 319.877c-.139 12.108-1.306 23.712-.134 35.076 1.402 13.598.911 27.09.77 40.64-.01 1.072.111 2.244-.266 3.195-2.81 7.082-1.199 14.079-.02 21.586 1.55.017 2.868.136 4.163.017 1.235-.114 2.447-.477 3.151-.623L75.4 319.464l-8.81.413m258.024 99.752c-.221-2.748-.427-5.065-.589-7.384-.873-12.42 3.799-24.954-.851-37.337-.616-1.641-.156-3.74.008-5.61.471-5.331 1.358-10.642 1.516-15.98.341-11.487.327-22.987.467-35.19l-7.536 1.324c-2.136 25.862-1.989 94.317.208 100.098 2.255.027 4.548.052 6.777.079M138.485 312.797c3.025.668 4.369.811 5.59 1.275 1.47.559 2.88 1.313 4.238 2.116 14.025 8.293 28.647 14.873 45.339 14.925 15.935.049 31.045-2.495 43.122-14.369 1.752-1.723 4.515-2.546 6.943-3.414 2.212-.79 4.604-1.076 7.319-1.673l-.777-7.433c-3.949 1.428-7.419 2.1-10.253 3.821-7.703 4.678-15.912 8.096-24.777 9.078-22.71 2.514-45.162 2.477-65.254-10.852-2.992-1.985-5.886-1.652-8.263-.053-1.516 1.02-1.906 3.712-3.227 6.579M57.26 420.617c.055-4.792-.236-8.55.215-12.216.737-5.978-1.295-9.783-6.405-13.356-6.306-4.411-11.698-10.174-17.253-15.59-2.06-2.01-3.464-4.695-6.136-8.423-6.655 17.536-15.482 31.652-14.498 49.08l44.077.505M16.15 354.43c14.865 12.033 26.435 26.322 42.926 37.283l2.55-71.431c-18.455 8.157-34.713 16.385-45.477 34.148m354.97 9.724c-6.492 5.982-12.221 11.223-17.906 16.51-4.862 4.522-9.726 9.046-14.488 13.672-2.506 2.434-4.489 4.994-4.182 9.047.398 5.255-.009 10.572-.069 15.847 10.662 3.425 44.569 4.083 54.655.81-2.938-19.523-6.731-38.783-18.01-55.886m-40.903 27.073l2.156.822c13.069-21.057 34.749-32.936 53.052-49.53-16.53-13.62-33.388-23.587-54.37-24.622l-.838 73.33M232.292 258.76c3.742-.495 7.472-1.199 11.231-1.433 4.829-.301 9.267-1.864 11.759-5.86 3.096-4.962 6.129-10.309 7.543-15.907 4.246-16.813 4.11-34.158 3.776-51.317-.203-10.39.033-20.762.489-31.079.728-16.493-.131-32.48-6.97-47.827-5.99-13.443-13.227-25.374-26.395-33.496-14.352-8.851-29.824-10.667-45.765-9.606-21.636 1.441-39.363 11.949-54.776 26.599-8.35 7.935-14.566 17.261-15.968 29.02-.858 7.186-1.446 14.426-1.691 21.657-.334 9.875.499 19.611 1.921 29.494 2.327 16.166 2.095 32.679 3.677 48.974 2.733 28.163 16.856 49.245 41.207 63.518.818.48 1.996.49 3.005.478 17.486-.194 34.974-.337 52.457-.716 4.253-.091 9.27.278 12.57-1.768 7.118-4.411 13.266-10.326 17.441-18.679-5.632-.147-10.692 1.934-15.511-2.052M83.545 320.793c-.404 1.056-.743 1.54-.753 2.029-.558 28.283-1.153 56.565-1.549 84.85-.058 4.15.846 8.315 1.35 12.869 3.537.04 6.207.122 8.876.092 23.697-.253 47.392-.621 71.089-.767 21.012-.13 42.026-.02 63.039-.026 1.346 0 2.692-.142 4.036-.128 21.526.225 43.052.47 64.577.7 5.797.063 11.683 1.38 17.223-.753 2.212-12.655 1.66-94.683-.796-102.171-3.288.627-6.631 1.538-10.03 1.865-16.412 1.579-32.769.457-49.111-1.221-5.443-.558-10.478-.292-14.681 4.345-4.999 5.515-11.727 8.589-18.833 10.468-20.814 5.502-41.03 4.353-60.267-6.075-3.544-1.921-6.846-4.987-10.601-5.681-8.378-1.551-16.977-2.692-25.474-2.621-12.596.107-25.182 1.41-38.095 2.225m26.316-162.403c.128-11.122.392-21.893.342-32.664-.081-17.887 7.226-33.26 20.069-44.331 17.609-15.181 37.708-26.964 62.248-27.378 19.397-.327 37.538 4.113 52.793 16.489 5.286 4.291 9.5 10.261 13.168 16.114 7.879 12.574 15.037 25.628 15.714 40.986.257 5.829-.077 11.692-.302 17.532-.161 4.178-.089 7.896 4.442 10.264 1.478.771 2.602 3.469 2.732 5.365.832 12.045 1.423 24.109 1.914 36.174.205 5.048-2.226 8.815-6.797 10.984-3.238 1.536-5.048 3.609-4.721 7.491 1.745 20.715-6.762 37.849-19.626 53.048-4.419 5.223-5.743 10.569-5.444 16.953.198 4.232-.05 8.486-.098 12.673 10.313 1.544 10.313 1.544 11.024 13.952 8.981-.371 17.993-1.047 27.004-1.053 18.516-.012 37.101-3.008 55.54.821 16.799 3.489 32.493 9.478 45.289 21.433 2.138 1.996 4.178 4.263 5.657 6.762 2.589 4.375 1.67 4.923-2.997 8.1-4.598 3.13-8.39 7.443-12.726 11.413 14.7 17.768 21.26 38.395 23.119 60.748.72 8.67-1.083 11.058-9.516 10.996-18.017-.132-36.028-.884-54.045-1.125-11.298-.15-22.605.41-33.902.235-51.445-.797-102.886-1.891-154.333-2.574-26.107-.345-52.225.13-78.335-.106-16.695-.151-33.384-.97-50.079-1.372-2.625-.064-5.324.234-7.885.82-4.588 1.052-9.218-2.102-7.874-6.55 2.782-9.201 2.34-19.222 7.783-27.784 4.748-7.466 8.665-15.46 13.046-23.394-4.624-5.118-9.24-10.23-13.738-15.206 4.387-15.084 15.62-23.544 27.156-31.439 5.265-3.603 11.394-6.082 17.37-8.475 7.803-3.125 15.8-4.036 24.453-3.218 12.264 1.159 24.702.481 37.065.598 5.549.051 11.097.125 17.203.194l.866-9.823 10.753-3.033c.053-4.605.344-9.697.047-14.755-.108-1.852-1.178-4.08-2.539-5.361-14.043-13.21-21.205-30.29-26.785-48.103-1.469-4.689-1.158-10.096-.865-15.126.266-4.573-.485-8.094-5.167-9.582-6.318-2.01-7.79-6.621-7.557-12.588.274-6.998.56-14.03.183-21.011-.367-6.799.638-12.324 8.351-14.094" fill="#000"/><path d="M179.522 376.729l-84.665-45.422-.895 1.379c3.997 2.82 7.842 5.891 12.018 8.417 19.747 11.947 39.334 24.206 60.647 33.304 5.589 2.385 10.408 5.419 11.553 12.056.047.273.874.411 1.463.666 4.824-4.046-.495-7.725-.121-10.4m115.25-43.938l-.853-1.428c-1.893.713-3.857 1.277-5.664 2.165-5.546 2.724-10.961 5.723-16.553 8.347a17261.538 17261.538 0 01-69.399 32.349c-6.56 3.042-7.628 6.536-3.745 13.097.478-.232 1.293-.372 1.383-.708 1.935-7.173 8.144-9.035 13.919-11.83 24.177-11.702 48.248-23.623 72.267-35.646 3.151-1.577 5.776-4.205 8.645-6.346M83.545 320.792c12.914-.814 25.499-2.117 38.095-2.224 8.498-.071 17.097 1.07 25.475 2.621 3.754.694 7.056 3.76 10.6 5.681 19.237 10.427 39.453 11.577 60.267 6.075 7.106-1.879 13.834-4.953 18.833-10.468 4.203-4.637 9.239-4.903 14.681-4.345 16.342 1.678 32.7 2.8 49.111 1.221 3.399-.327 6.742-1.238 10.03-1.865 2.456 7.488 3.009 89.515.796 102.171-5.539 2.133-11.426.816-17.223.754-21.525-.23-43.05-.476-64.576-.702-1.345-.013-2.691.129-4.036.129-21.014.006-42.027-.104-63.04.026-23.697.146-47.392.513-71.088.767-2.67.03-5.34-.052-8.877-.092-.503-4.554-1.407-8.718-1.35-12.869.396-28.285.992-56.567 1.55-84.85.009-.489.349-.973.752-2.03m78.527-60.974c-9.043-2.777-14.663-2.455-19.369 1.074 7.142.01 13.276 1.114 19.369-1.074m88.083-166.531l13.009 46.683c-.053-16.73-3.31-32.588-13.009-46.683m-130.089 57.344l1.72.27c.378-1.379 1.033-2.748 1.083-4.139.186-5.091.101-10.192.243-15.286.431-15.494 4.06-29.798 17.081-42.108-6.602 2.677-9.601 6.485-12.194 10.944-9.2 15.822-9.221 32.96-7.933 50.319m98.731 99.31c-10.092-1.69-34.816-1.639-40.936.058-.186 1.652-.519 3.461-.564 5.276-.07 2.86 1.321 4.555 4.318 4.592 11.77.146 23.54.274 36.038.417l1.144-10.343m-63.633-139.18c2.167-2.846 5.235-5.07 5.431-7.525.37-4.602 3.315-6.418 6.275-8.605 3.464-2.56 7.02-4.994 10.466-7.577 3.949-2.96 5.984-6.677 4.5-11.767-6.415.884-25.758 10.741-29.178 14.903-2.149 2.615-3.41 5.428-1.298 8.818 1.044 1.675 1.687 3.6 2.565 5.531-15.823 3.465-16.023 3.747-11.837 16.382-.919.756-1.911 1.622-2.953 2.42-1.261.967-2.565 1.876-3.768 2.752 2.5 7.669 3.237 8.147 10.059 6.621 2.354-.527 4.725-1.018 7.03-1.717 3.769-1.144 6.199-4.209 6.003-7.694-.233-4.177-2.095-8.264-3.295-12.542m94.952 19.529l3.549-9.207-8.122-5.344c-.343-6.562-3.721-11.63-9.785-14.739 2.609-9.494 2.309-10.26-6.266-13.296-2.531-.897-4.405-1.997-6.426-4.072-4.215-4.324-9.893-5.785-17.243-3.752 4.523 1.409 9.074-.502 10.833 4.215-3.279 6.358-3.279 6.358 3.05 12.712-2.383 6.697-.774 9.25 6.057 9.963 2.562.268 5.082.941 7.622 1.429-5.186 1.515-10.646.595-14.45 6.601 1.632 3.155 3.064 6.949 5.419 10.04 1.163 1.527 4.354 2.874 6.068 2.375 6.676-1.937 12.693-.39 19.694 3.075m-50.544 103.972c4.606-2.936 8.989-5.547 13.174-8.444 5.713-3.953 6.094-5.571 3.633-12.149-3.854-10.302-7.623-20.636-11.576-30.9-2.284-5.932-4.856-11.755-7.875-19.014-1.756 4.114-3.059 6.66-3.948 9.342-3.291 9.93-6.48 19.893-9.634 29.867a354.404 354.404 0 00-4.075 13.88c-.955 3.513-.077 6.007 3.578 7.819 5.512 2.731 10.708 6.101 16.723 9.599m-63.891-55.321c3.33 3.625 5.208 5.897 7.317 7.928 10.991 10.582 26.958 10.25 37.473-.713 10.59-11.041 12.001-27.167 3.504-40.043-6.679-10.119-19.183-14.813-30.248-11.353-14.069 4.4-22.817 15.366-22.125 28.268.617 11.512 1.424 23.022 2.547 34.494.626 6.392 1.438 12.895 3.288 19.008 3.054 10.094 8.002 19.43 15.085 27.337 3.378 3.77 7.39 7.192 13.864 6.433-12.21-7.07-18.425-18.515-23.78-30.472-5.597-12.499-5.673-26.012-6.925-40.887m89.224 74.321c2.757.032 3.805.298 4.671.012 5.172-1.711 8.419-5.601 11.029-10.129 10.384-18.015 16.37-37.252 16.618-58.205.05-4.188 1.333-8.366 2.076-12.544.836-4.706 2.685-9.472 2.377-14.097-1.054-15.866-13.733-26.839-28.297-25.815-23.94 1.684-30.589 17.909-29.066 31.224 1.312 11.468 7.597 20.006 18.288 24.732 10.074 4.453 19.435 2.516 28.002-4.099 1.403-1.083 2.81-2.161 5.971-4.59-1.779 9.973-2.329 18.33-4.839 26.048-5.506 16.937-10.33 34.474-26.83 47.463m7.387 5.499c4.819 3.986 9.879 1.905 15.511 2.052-4.175 8.353-10.323 14.268-17.44 18.679-3.301 2.046-8.318 1.677-12.571 1.768-17.483.379-34.971.522-52.457.716-1.009.012-2.187.003-3.005-.478-24.351-14.273-38.474-35.355-41.207-63.518-1.582-16.295-1.35-32.808-3.676-48.974-1.423-9.883-2.255-19.619-1.921-29.494.244-7.231.833-14.471 1.69-21.657 1.402-11.759 7.618-21.085 15.968-29.02 15.413-14.65 33.14-25.158 54.776-26.599 15.941-1.061 31.413.755 45.765 9.606 13.168 8.122 20.405 20.053 26.395 33.496 6.839 15.347 7.699 31.334 6.97 47.827-.456 10.317-.692 20.689-.489 31.079.334 17.159.471 34.504-3.776 51.317-1.414 5.598-4.447 10.945-7.543 15.907-2.492 3.996-6.93 5.559-11.759 5.86-3.759.234-7.489.938-11.231 1.433m97.924 132.467l.838-73.33c20.982 1.035 37.84 11.002 54.37 24.623-18.303 16.593-39.983 28.472-53.052 49.529l-2.156-.822m40.903-27.073c11.278 17.104 15.072 36.363 18.01 55.886-10.086 3.273-43.993 2.615-54.656-.81.061-5.275.467-10.592.07-15.847-.307-4.053 1.676-6.613 4.182-9.047 4.762-4.626 9.625-9.15 14.488-13.672 5.685-5.287 11.413-10.528 17.906-16.51M16.15 354.431c10.763-17.764 27.02-25.991 45.476-34.148l-2.55 71.43c-16.49-10.96-28.06-25.249-42.927-37.282m41.111 66.186l-44.077-.504c-.984-17.43 7.843-31.545 14.498-49.081 2.672 3.729 4.075 6.413 6.136 8.423 5.555 5.416 10.947 11.18 17.254 15.59 5.109 3.573 7.142 7.378 6.404 13.356-.451 3.666-.16 7.424-.215 12.216" fill="#FFF"/><path d="M138.485 312.797c1.321-2.867 1.711-5.56 3.227-6.579 2.377-1.6 5.271-1.933 8.263.053 20.093 13.329 42.544 13.366 65.254 10.851 8.865-.981 17.074-4.399 24.777-9.078 2.834-1.721 6.304-2.393 10.253-3.82l.777 7.432c-2.715.597-5.107.883-7.319 1.673-2.428.868-5.19 1.692-6.943 3.414-12.077 11.874-27.186 14.418-43.122 14.369-16.692-.051-31.314-6.631-45.339-14.924-1.358-.803-2.768-1.558-4.238-2.117-1.221-.463-2.565-.606-5.59-1.274m186.129 106.831l-6.777-.078c-2.197-5.78-2.344-74.236-.207-100.099l7.535-1.324c-.139 12.203-.126 23.703-.467 35.191-.158 5.337-1.045 10.65-1.516 15.98-.164 1.87-.624 3.97-.007 5.61 4.649 12.382-.022 24.916.85 37.336.162 2.32.368 4.636.589 7.384M66.59 319.876l8.811-.412-1.147 100.304c-.704.145-1.916.508-3.15.623-1.296.12-2.614 0-4.164-.018-1.179-7.507-2.79-14.504.02-21.586.377-.95.255-2.123.266-3.193.141-13.55.632-27.043-.77-40.642-1.172-11.363-.005-22.968.134-35.076" fill="#FFF"/><path d="M148.834 298.055c7.003 2.556 12.431 4.827 18.033 6.521 12.746 3.852 25.662 1.862 38.394.052 11.619-1.652 23.08-4.419 34.711-6.714 1.997 2.642.476 4.188-1.799 5.697-8.491 5.632-17.97 8.755-27.927 9.863-17.059 1.898-33.796-.575-50.045-5.827-4.268-1.38-9.221-2.861-11.367-9.592" fill="#FFF"/><path d="M182.762 299.199c-3.789-5.154-1.973-13.014-11.5-11.387 5.799-3.176 29.962-3.594 46.434-1.751l-1.671 11.583-33.263 1.555m88.141-99.343c1.553-13.935-3.191-27.954.603-42.566 3.939 2.751 6.598 4.723 5.74 10.262-1.465 9.462-1.453 19.146-2.318 28.713-.151 1.671-1.557 3.23-2.383 4.839l-1.642-1.248zm-157.337-37.382l.998 35.726c-4.674 1.094-5.604-1.929-5.862-4.416-.853-8.224-1.661-16.498-1.58-24.745.025-2.528 2.961-5.028 4.564-7.542l1.88.977m58.817 130.761l2.545 7.149c-9.083.191-16.481-3.426-23.962-6.553-3.567-1.492-1.802-4.317-1.544-7.117l22.961 6.521m53.121 1.625l15.005-12.804c1.735 9.22 1.483 9.824-5.714 12.393-2.68.956-5.475 1.588-8.218 2.368l-1.073-1.957" fill="#FFF"/><path d="M294.771 332.79c-2.869 2.142-5.494 4.77-8.645 6.347-24.019 12.022-48.09 23.943-72.267 35.646-5.774 2.794-11.984 4.656-13.919 11.83-.09.336-.905.476-1.384.704-3.881-6.557-2.813-10.05 3.746-13.093 23.153-10.74 46.294-21.507 69.399-32.349 5.592-2.623 11.007-5.623 16.554-8.348 1.806-.887 3.771-1.452 5.663-2.164l.853 1.428m-115.249 43.938c-.374 2.675 4.945 6.354.121 10.4-.589-.255-1.416-.393-1.463-.666-1.145-6.637-5.964-9.671-11.553-12.056-21.313-9.098-40.9-21.357-60.647-33.304-4.176-2.526-8.021-5.597-12.018-8.417l.895-1.379 84.665 45.422m52.952-206.187c5.171.045 9.845-3.922 9.96-8.455.125-4.919-4.111-8.829-9.481-8.752-5.079.072-10.249 4.847-10.25 9.467-.001 3.812 4.904 7.698 9.771 7.74m-22.623-5.545c3.267 13.664 15.242 21.712 27.943 19.401 10.872-1.977 19.37-12.209 18.043-21.885l-9.677-.111c-1.808 6.92-5.731 11.724-13.171 12.284-7.478.563-11.676-4.335-14.828-9.998l-8.31.309m15.053 88.265c16.501-12.99 21.324-30.527 26.831-47.463 2.51-7.719 3.059-16.075 4.839-26.049-3.161 2.43-4.568 3.508-5.972 4.591-8.566 6.614-17.928 8.552-28.001 4.098-10.691-4.725-16.976-13.263-18.288-24.732-1.523-13.314 5.125-29.54 29.066-31.224 14.563-1.024 27.243 9.95 28.297 25.816.308 4.625-1.542 9.39-2.378 14.097-.742 4.177-2.026 8.355-2.075 12.543-.249 20.954-6.234 40.19-16.619 58.206-2.609 4.528-5.857 8.418-11.028 10.128-.866.287-1.914.02-4.672-.011m-63.745-99.403c-7.164-.347-12.431 4.128-12.521 10.636-.071 5.082 5.595 10.175 11.473 10.312 6.568.155 12.965-4.854 13.287-10.402.38-6.571-3.756-10.135-12.239-10.546m-23.722 14.865c4.729 12.883 16.462 21.069 27.165 19.66 11.275-1.483 18.689-9.552 20.313-22.395l-7.716-.089c-8.806 16.361-21.239 17.119-32.464 1.685l-7.298 1.139m-1.756 10.217c1.251 14.875 1.328 28.388 6.925 40.887 5.355 11.957 11.569 23.402 23.78 30.472-6.474.759-10.486-2.663-13.864-6.433-7.083-7.907-12.031-17.243-15.086-27.337-1.849-6.113-2.661-12.616-3.287-19.008-1.124-11.472-1.93-22.982-2.547-34.494-.693-12.902 8.056-23.868 22.124-28.268 11.066-3.46 23.57 1.234 30.248 11.353 8.497 12.876 7.086 29.002-3.503 40.043-10.516 10.963-26.483 11.295-37.474.713-2.109-2.031-3.986-4.303-7.316-7.928" fill="#000"/><path d="M193.294 223.224l.402-35.167-1.361-.202-6.961 30.884 7.92 4.485m17.978-3.493l-12.296-38.719c.638 15.109-1.514 30.078.987 45.936l11.309-7.217m-11.699 14.531c-6.016-3.498-11.212-6.868-16.724-9.6-3.655-1.811-4.533-4.305-3.577-7.818a356.685 356.685 0 014.074-13.881c3.155-9.973 6.344-19.936 9.634-29.866.889-2.683 2.192-5.228 3.948-9.343 3.02 7.26 5.592 13.082 7.876 19.015 3.952 10.264 7.721 20.598 11.575 30.899 2.461 6.578 2.08 8.197-3.632 12.15-4.185 2.897-8.569 5.508-13.174 8.444m50.543-103.973c-7.001-3.465-13.019-5.012-19.695-3.074-1.714.498-4.904-.849-6.067-2.375-2.356-3.092-3.788-6.886-5.42-10.04 3.805-6.007 9.265-5.087 14.45-6.602-2.539-.488-5.059-1.161-7.621-1.429-6.832-.712-8.44-3.266-6.057-9.962-6.33-6.355-6.33-6.355-3.05-12.712-1.759-4.718-6.311-2.807-10.833-4.216 7.35-2.032 13.028-.571 17.242 3.753 2.021 2.074 3.896 3.175 6.426 4.071 8.576 3.036 8.876 3.802 6.266 13.296 6.065 3.109 9.443 8.178 9.785 14.739l8.122 5.344-3.548 9.207m-94.952-19.528c1.199 4.277 3.062 8.364 3.295 12.542.195 3.484-2.234 6.55-6.003 7.693-2.306.7-4.676 1.191-7.031 1.717-6.821 1.527-7.558 1.049-10.058-6.62 1.203-.876 2.507-1.785 3.768-2.752 1.042-.799 2.034-1.664 2.952-2.421-4.186-12.635-3.985-12.917 11.838-16.382-.879-1.93-1.522-3.855-2.565-5.53-2.113-3.391-.851-6.203 1.298-8.818 3.42-4.162 22.762-14.02 29.177-14.904 1.484 5.09-.55 8.808-4.499 11.768-3.446 2.583-7.003 5.017-10.466 7.576-2.96 2.188-5.906 4.004-6.275 8.606-.197 2.455-3.264 4.678-5.431 7.525m63.633 139.18l-1.144 10.343c-12.498-.143-24.268-.271-36.038-.417-2.996-.037-4.387-1.732-4.318-4.592.045-1.815.378-3.624.564-5.276 6.12-1.697 30.845-1.748 40.936-.058m-98.731-99.31c-1.288-17.359-1.267-34.497 7.933-50.319 2.593-4.459 5.592-8.268 12.194-10.945-13.021 12.311-16.649 26.615-17.081 42.109-.141 5.093-.057 10.194-.242 15.286-.051 1.39-.706 2.76-1.083 4.139l-1.721-.27m130.089-57.344c9.7 14.096 12.956 29.953 13.01 46.684l-13.01-46.684m-88.083 166.531c-6.093 2.188-12.227 1.084-19.369 1.074 4.706-3.529 10.326-3.851 19.369-1.074" fill="#000"/><path d="M209.851 164.997l8.311-.309c3.151 5.663 7.349 10.561 14.827 9.997 7.44-.559 11.363-5.363 13.171-12.283l9.677.111c1.327 9.676-7.171 19.908-18.043 21.885-12.701 2.311-24.676-5.737-27.943-19.401" fill="#FFF"/><path d="M231.029 166.3c2.182-1.521 3.817-3.066 1.604-5.565-.461-.522-2.322-.609-2.847-.133-2.501 2.266-.863 3.927 1.243 5.698m1.446 4.242c-4.867-.042-9.773-3.928-9.772-7.74.002-4.62 5.172-9.395 10.25-9.467 5.37-.077 9.607 3.833 9.482 8.752-.115 4.533-4.789 8.5-9.96 8.455" fill="#FF499E"/><path d="M137.438 168.724l7.298-1.14c11.225 15.435 23.658 14.677 32.464-1.684l7.716.089c-1.624 12.842-9.038 20.912-20.313 22.395-10.704 1.408-22.436-6.777-27.165-19.66" fill="#FFF"/><path d="M163.362 165.173c-3.036-2.86-5.086-3.043-6.115-.393-.237.609 1.027 2.498 1.174 2.452 1.695-.537 3.307-1.332 4.941-2.059m-2.203-11.314c8.483.411 12.619 3.974 12.239 10.545-.321 5.548-6.719 10.557-13.286 10.403-5.879-.138-11.544-5.231-11.474-10.313.09-6.508 5.358-10.982 12.521-10.635" fill="#FF499E"/><path d="M211.271 219.731l-11.308 7.217c-2.502-15.858-.35-30.826-.988-45.936l12.296 38.719m-17.977 3.493l-7.92-4.485 6.961-30.884 1.361.202-.402 35.167" fill="#FFF"/><path d="M231.029 166.3c-2.106-1.771-3.744-3.432-1.243-5.698.525-.476 2.386-.389 2.847.133 2.213 2.499.578 4.044-1.604 5.565m-67.667-1.127c-1.634.727-3.246 1.522-4.941 2.059-.147.046-1.411-1.843-1.174-2.452 1.029-2.65 3.079-2.467 6.115.393" fill="#000"/></g></svg>