<svg id="Capa_1" data-name="Capa 1" xmlns="http://www.w3.org/2000/svg" viewBox="0 0 595.28 643.31"><defs><style>.cls-1{fill:#fff}</style></defs><path d="M108.62 337.39c.76-24.22 1.44-48.48 2.3-72.73.66-18.49 1.24-37 2.52-55.43.33-4.89-.69-8.75-2.41-13.14-8-20.59-9.12-41.4.93-61.66 7.7-15.55 20.72-23.86 38.14-23.48 12.22.26 24.41 2 37.68 3.25 10.73-9.87 14.87-8.16 26.47 6 30.77-7.26 62.14-9.89 93.84-9.44 23 .33 45.2 4.31 66.14 14.27 2.72 1.29 5.81 2.67 8.7 2.59a49.06 49.06 0 0129.2 8.82c3.48-3.29 6.31-6.83 9.95-9 1.34-.78 4.61 1.73 8.2 3.24 2.23-2 5.28-4.79 8.46-7.46 8.63-7.24 11.22-6.26 14 6.12 6.27 0 12.79-.34 19.27.06 23.8 1.47 48.58 20.5 48.54 50.69 0 15-2.75 29.09-10.75 42-1.19 1.91-2.07 4-3.22 6.25 1.45 1.25 2.62 2.19 3.73 3.22 6.25 5.79 7 8 3.35 14.93-4 7.71-8 15.57-13.22 22.5a15.18 15.18 0 00-3.11 10.55q1.49 41.6 3.05 83.21c.42 10.77 1.16 21.53 1.48 32.3.15 5 1.7 8.52 6.1 11.52 9.77 6.66 12.43 16.44 9.41 27.53-2.39 8.77-1.15 15.27 5.58 22.54 19.84 21.48 30.52 48 37 76.15 1.7 7.46 2.28 15.22 2.86 22.89.71 9.56-2.9 15-12.35 16.52a379.58 379.58 0 01-38.93 4.49c-31.52 2-63.07 3.45-94.61 5-18.09.87-36.2 1.71-54.3 2-38.6.75-77.2 1.65-115.8 1.59q-80.51-.12-161-1.81c-11.76-.26-23.63-3.22-35.12-6.22-12.49-3.25-13.7-7.68-15.26-20.6-1.33-11 1.9-21.53 1.34-32-1.27-23.77 11.34-42.54 20-62.67 11-25.5 23.11-50.5 34.75-75.72 2.15-4.66 2.72-9 .81-14.31-6.26-17.35-4-22.63 12.12-32 1.33-.74 2.61-1.59 4.16-2.56zm393.64 77.85c-34.32 43.27-91.41 83.77-119.82 84.25C401 484.7 421 476.21 438.19 463.54c17.36-12.78 35.17-25 49.37-42-5.32-12.4-4.23-25.17-4-37.87.72-38.19 1.32-76.38 2.21-114.57.13-5.88-1.5-10-6.07-14-10.19-8.83-20.23-17.93-29.58-27.63C434 210.66 419 193 416.56 168.25c-.23-2.35-3.11-5.12-5.46-6.47-9.66-5.57-20-10.1-29.35-16.05-23.54-14.91-49.8-21.08-76.9-22.25-26.13-1.12-52.39.82-78.6 1.1-4.73.06-6.58 3.17-9.26 5.82-10.41 10.29-20.34 21.17-31.53 30.56-21.5 18-43.73 35.21-66.38 53.32.87 18.22 1.66 37.07 2.69 55.9.89 16.15 2.34 32.28 3 48.43.43 11-.07 22.05-.33 33.06a7.24 7.24 0 01-1.74 4.21c-4.2 4.8-2 9.26.35 13.82q11.13 21.62 22.21 43.24c4.22 8.2 3.78 9.91-4 15.66-8.18-9.07-17-32.44-31.4-82.9-10.56 5.3-12.86 7.47-9.71 12.41 6.66 10.46 6.56 19.93-.8 29.66-.64.85-.49 2.25-.87 3.34-3.58 10.19-6.89 20.48-10.87 30.51-8 20.07-16.45 39.94-24.46 60-9.76 24.47-16.63 49.54-14.76 76.61 2.59.78 5.09 1.95 7.69 2.25 17.2 1.93 34.4 4.84 51.65 5.25 48.23 1.16 96.48 1.5 144.73 1.67 23.12.09 46.24-1.08 69.37-1.4 30.11-.42 60.26.21 90.33-1 28.81-1.2 57.55-4.31 86.33-6.43 14.49-1.06 29-1.69 42.68-5 3.81-11.44-.4-21.76-2.5-31.58-5-23.53-15.44-45.31-29.15-65.08-4.16-6-5.69-11.46-5.14-18.12.32-3.84 1.34-7.7 1.1-11.49-.22-3.48-1.74-6.81-3.22-12.06zm-74.57-242.66c3.79-1.25 5.88-2.22 8.08-2.63 11.69-2.14 23.38-4.45 35.15-6 3.19-.42 6.7 1.53 11.07 2.65l-6.71 11.52c-14.62-1.75-28.46-1.49-42.18 4.78 2.11 3 3.4 5.44 5.21 7.38 12.85 13.85 25.84 27.56 38.69 41.41 2.55 2.75 6.08 5.65 6.67 8.93 1 5.72 5.32 7.07 9 7.24 2.82.13 5.8-3.25 9.11-5.31-13.09-9.83-12.85-11-5.33-24.33 4.3-7.62 8.1-16 9.71-24.53 2.61-13.79 2.49-27.61-8.87-38.78-9.29-9.14-20.77-11-32.91-11.74-6.76-.44-12.71.38-16.05 6.63-7.71-3.21-7.49-9.47-7.2-18.25l-13.57 15.9-7.61-1.93zm-249.88-19.93c-12.73-10.18-27-6.89-39.51-10.09 1.07-5.77 4.81-5.62 8.14-6.35 15.17-3.35 29.62-.82 44.41 5.56l15.33-13.42-6.79-8.68c-1.58 2.74-2.53 4.77-3.83 6.54a75.66 75.66 0 01-5.16 5.65c-3.1-7.67-8.92-9.94-15.64-10.32-9.59-.56-19.31-2-28.76-1-14.7 1.51-24.81 9.92-28.71 24.62-4.33 16.27.81 30.67 8.8 46.07z"/><path class="cls-1" d="M502.26 415.24c1.48 5.25 3 8.58 3.22 12 .24 3.79-.78 7.65-1.1 11.49-.55 6.66 1 12.13 5.14 18.12 13.71 19.77 24.1 41.55 29.15 65.08 2.1 9.82 6.31 20.14 2.5 31.58-13.66 3.34-28.19 4-42.68 5-28.78 2.12-57.52 5.23-86.33 6.43-30.07 1.25-60.22.62-90.33 1-23.13.32-46.25 1.49-69.37 1.4-48.25-.17-96.5-.51-144.73-1.67-17.25-.41-34.45-3.32-51.65-5.25-2.6-.3-5.1-1.47-7.69-2.25-1.87-27.07 5-52.14 14.76-76.61 8-20.06 16.5-39.93 24.46-60 4-10 7.29-20.32 10.87-30.51.38-1.09.23-2.49.87-3.34 7.36-9.73 7.46-19.2.8-29.66-3.15-4.94-.85-7.16 9.64-12.41 14.37 50.46 23.22 73.83 31.4 82.9 7.82-5.75 8.26-7.46 4-15.66Q134.13 391.32 123 369.7c-2.36-4.56-4.55-9-.35-13.82a7.24 7.24 0 001.74-4.21c.26-11 .76-22.05.33-33.06-.63-16.15-2.08-32.28-3-48.43-1-18.83-1.82-37.68-2.69-55.9C141.73 196.17 164 179 185.46 161c11.19-9.39 21.12-20.27 31.53-30.56 2.68-2.65 4.53-5.76 9.26-5.82 26.21-.28 52.47-2.22 78.6-1.1 27.1 1.17 53.36 7.34 76.9 22.25 9.4 6 19.69 10.48 29.35 16.05 2.35 1.35 5.23 4.12 5.46 6.47C419 193 434 210.66 450.13 227.44c9.35 9.7 19.39 18.8 29.58 27.63 4.57 4 6.2 8.12 6.07 14-.89 38.19-1.49 76.38-2.21 114.57-.24 12.7-1.33 25.47 4 37.87-14.2 17-32 29.25-49.37 42-17.2 12.7-37.2 21.19-55.76 35.98 28.41-.49 85.5-40.98 119.82-84.25zm-335.18.27c2.28-1.45 3.44-1.83 4-2.62 3.63-4.85 6.54-4.8 12.3-1.61 10.68 5.92 22.2 11.57 34 13.89 24.42 4.79 49 9.8 74.35 6.44 19.83-2.62 40-3.08 59.08-9.81 34.46-12.15 62.44-31.71 75.78-67.48l10.61-.71c-.26-5.27-.49-9.73-.7-14.19 9.06-5.9 10.85-9.72 5.09-17.34-3.92-5.19-2.18-9.85-1.84-15.13l-7.38-2.62c.27-23.63-.75-45.66-13.22-67.16-18.41-31.73-44.89-49.12-80-54.36-17.31-2.59-34.94-3-53.26-4.46-.48 1.36-1.33 3.76-2.25 6.39-25.2.77-47.78 11.45-71.07 19.31-7.79 2.63-14.56 5.45-23.17 2.46-7.86-2.73-10.73.59-10.75 9.44a16.53 16.53 0 01-.68 3.26l-14.73 1.32c-1.36 6.82-2.57 12.92-3.82 19.2l3.71 4.17c-9.06 13.63-17 26.79-20.23 42.26-6.53 31.67-.82 62 9.93 91.79 2.08 5.74 5 10.47 2.09 17.41-3 7.17.75 10 9.17 9.28zm16.53 82.26c6.85 8 12.94 5.44 18.2 4.39q24.93-5 49.61-11.11c50.23-12.41 99.43-28 147.15-48.13 7.18-3 14.15-6.55 21.22-9.85-19.92 4.92-39.15 11.37-58.52 17.38-19.15 5.93-38.36 11.66-57.68 17-19.69 5.45-39.51 10.43-59.32 15.43-19.53 4.93-39.12 9.61-60.66 14.89zM469.48 483l-1.48-1.59c-1.73 1.19-3.46 2.39-5.21 3.57-14 9.47-27.55 19.72-42.12 28.23-20.6 12-42 22.75-63 34-.68.36-1.6.65-1.91 1.24-1.16 2.18-3.4 4.85-2.88 6.65 1.07 3.69 4.53 3.45 7.68 2.05 1.41-.63 2.82-1.26 4.17-2a622.31 622.31 0 0093.61-61.43c4.06-3.12 7.46-7.09 11.14-10.72zm-41.79-310.42l-7.75-27.07 7.61 1.93 13.57-15.9c-.29 8.78-.51 15 7.2 18.25 3.34-6.25 9.29-7.07 16.05-6.63 12.14.79 23.62 2.6 32.91 11.74 11.36 11.17 11.48 25 8.87 38.78-1.61 8.51-5.41 16.91-9.71 24.53-7.52 13.31-7.76 14.5 5.33 24.33-3.31 2.06-6.29 5.44-9.11 5.31-3.67-.17-8-1.52-9-7.24-.59-3.28-4.12-6.18-6.67-8.93-12.85-13.85-25.84-27.56-38.69-41.41-1.81-1.94-3.1-4.35-5.21-7.38 13.72-6.27 27.56-6.53 42.18-4.78l6.73-11.52c-4.37-1.12-7.88-3.07-11.07-2.65-11.77 1.56-23.46 3.87-35.15 6-2.21.42-4.3 1.39-8.09 2.64zm-249.88-19.93l-51.72 38.6c-8-15.4-13.13-29.8-8.8-46.07 3.9-14.7 14-23.11 28.71-24.62 9.45-1 19.17.42 28.76 1 6.72.38 12.54 2.65 15.64 10.32a75.66 75.66 0 005.16-5.65c1.3-1.77 2.25-3.8 3.83-6.54l6.79 8.68-15.33 13.42c-14.79-6.38-29.24-8.91-44.41-5.56-3.33.73-7.07.58-8.14 6.35 12.5 3.18 26.78-.11 39.51 10.07z"/><path d="M167.08 415.51l-2.92-10.87c-8.42.74-12.16-2.11-9.17-9.28 2.89-6.94 0-11.67-2.09-17.41-10.75-29.76-16.46-60.12-9.93-91.79 3.18-15.47 11.17-28.63 20.23-42.26l-3.71-4.17c1.25-6.28 2.46-12.38 3.82-19.2l14.69-1.32a16.53 16.53 0 00.68-3.26c0-8.85 2.89-12.17 10.75-9.44 8.61 3 15.38.17 23.17-2.46 23.29-7.86 45.87-18.54 71.07-19.31.92-2.63 1.77-5 2.25-6.39 18.32 1.46 36 1.87 53.26 4.46 35.12 5.24 61.6 22.63 80 54.36 12.47 21.5 13.49 43.53 13.22 67.16l7.38 2.62c-.34 5.28-2.08 9.94 1.84 15.13 5.76 7.62 4 11.44-5.1 17.34.22 4.46.45 8.92.71 14.19l-10.61.71c-13.34 35.77-41.32 55.33-75.78 67.48-19.1 6.73-39.25 7.19-59.08 9.81-25.37 3.36-49.93-1.65-74.35-6.44-11.84-2.32-23.36-8-34-13.89-5.76-3.19-8.67-3.24-12.3 1.61-.59.79-1.75 1.17-4.03 2.62zm-3.27-41.59l7.82-6.21c-3.14 10.06-5.53 17.7-7.91 25.34l2 1 12.59-7.42c7.33 5.63-2.77 8.12-1.73 13.93 3.92 1.94 8.38 5.12 13.34 6.43 16.34 4.32 32.79 8.28 49.33 11.77 15.53 3.27 31.28 4.58 47.16 2.71 6.88-.81 13.76-1.83 20.67-2.15a149.79 149.79 0 0051.53-12.08c23.11-9.75 43.67-23.1 56.92-45.39 3.66-6.16 7.83-12.26.63-20.66h13l-12.33-17.34h17.06l-14.67-16.57c7.9-1.37 9.72-5.59 8.52-11.07-3.36-15.41-5-31.56-10.82-46-15.2-37.43-63.83-65.08-104.69-60.11-6.59.8-11.25-.77-15.86-2.92-2.17 1.77-4.69 4.55-5.25 4.19-4.81-3-9.05-.31-13.3.91q-24.47 7-48.79 14.52c-9.41 2.88-19.64 4.65-23.26 16.18l-21-11c.9 4 .72 6.35 1.77 7.26 2.39 2.07 5.2 3.38 3 7.35-2.33 4.24-5.84 2.89-9.15 2.22-3.85-.79-7.64-1.88-13.77-3.42l5.59 13.61c-28.89 37.45-26.28 102.64-8.4 134.92zm19.8 123.85c21.54-5.28 41.13-10 60.66-14.89 19.81-5 39.63-10 59.32-15.43 19.32-5.34 38.53-11.07 57.68-17 19.37-6 38.6-12.46 58.52-17.38-7.07 3.3-14 6.82-21.22 9.85-47.72 20.1-96.92 35.72-147.15 48.13q-24.67 6.1-49.61 11.11c-5.26 1.05-11.35 3.58-18.2-4.39zM469.48 483c-3.68 3.6-7.08 7.57-11.1 10.75a622.31 622.31 0 01-93.61 61.43c-1.35.73-2.76 1.36-4.17 2-3.15 1.4-6.61 1.64-7.68-2.05-.52-1.8 1.72-4.47 2.88-6.65.31-.59 1.23-.88 1.91-1.24 21-11.3 42.39-22 63-34 14.57-8.51 28.12-18.76 42.12-28.23 1.75-1.18 3.48-2.38 5.21-3.57z"/><path class="cls-1" d="M163.81 373.92c-17.88-32.28-20.49-97.47 8.4-134.93l-5.66-13.54c6.13 1.54 9.92 2.63 13.77 3.42 3.31.67 6.82 2 9.15-2.22 2.19-4-.62-5.28-3-7.35-1.05-.91-.87-3.23-1.77-7.26l21 11c3.62-11.53 13.85-13.3 23.26-16.18q24.33-7.47 48.79-14.52c4.25-1.22 8.49-3.92 13.3-.91.56.36 3.08-2.42 5.25-4.19 4.61 2.15 9.27 3.72 15.86 2.92 40.86-5 89.49 22.68 104.69 60.11 5.86 14.41 7.46 30.56 10.82 46 1.2 5.48-.62 9.7-8.52 11.07l14.67 16.57h-17.06l12.33 17.34h-13c7.2 8.4 3 14.5-.63 20.66-13.25 22.29-33.81 35.64-56.92 45.39a149.79 149.79 0 01-51.53 12.08c-6.91.32-13.79 1.34-20.67 2.15-15.88 1.87-31.63.56-47.16-2.71-16.54-3.49-33-7.45-49.33-11.77-5-1.31-9.42-4.49-13.34-6.43-1-5.81 9.06-8.3 1.73-13.93L165.69 394l-2-1c2.38-7.64 4.77-15.28 7.91-25.34zm244.93-86.37c-18.85 11.14-20.92 11.53-34.68 6.89.16-.3.26-.82.49-.87 1.82-.47 3.67-.89 5.52-1.25 14.48-2.81 21.28-9.85 24.16-24.27 2.48-12.43.18-23.47-7.11-34-4.46-6.45-9.56-10.55-17.39-12a89.67 89.67 0 00-48.93 3.88c-17 6.4-33.55 5.94-51 2.1a221.25 221.25 0 00-45.72-5.6c-22.24-.15-38.82 11-49.13 30.9-6.79 13.13-5.26 22.73 5.24 33.34l8.56 8.59-20.51-2c2.57 3.53 5.71 6.54 9.37 7.44 14.44 3.53 29.19 5 43-2.11 12.64-6.48 25.31-13.23 36.86-21.42 10.49-7.44 20.37-10.08 32.19-4.31 15.25 7.44 30.83 14.22 45.91 22a73 73 0 0039.05 8.36c10.59-.77 18.9-5.22 24.12-15.67zm-123 127.71c9.18-.9 18.46-1.24 27.5-2.87s17.94-4.38 26.79-7c15.1-4.46 26-14.78 35.19-26.89 6-7.86 8.24-17.44 8.33-27.19.17-19-16.48-31.23-34.6-25.69-4 1.23-8.34 2.41-11.71 4.77-15.27 10.76-32.05 13.45-50.43 12.5-14-.72-26.42-3.56-37.52-12.32a23.73 23.73 0 00-22.74-4.18c-21.48 6.69-26.26 22.3-24.61 43.8 1.34 17.51 12.29 28.73 28.34 34.65a170.61 170.61 0 0055.48 10.42zm-9-95.2c5.33 1.7 10.59 5 12.45 3.67 6.64-4.83 12.69-2.9 19.49-1.5 8.62 1.78 11.84-.85 14-9.4 2.77-11.12-5.34-23.79-18.13-26.49-15.23-3.22-29.08.74-40.36 11.57-8.25 7.91-7.42 17.28 1.32 25.6a7.55 7.55 0 002.34 0c3.22-1.21 6.43-2.51 8.89-3.45z"/><path d="M408.74 287.55c-5.22 10.44-13.53 14.9-24.17 15.62a73 73 0 01-39.05-8.36c-15.08-7.76-30.66-14.54-45.91-22-11.82-5.77-21.7-3.13-32.19 4.31-11.55 8.19-24.22 14.94-36.86 21.42-13.77 7.08-28.52 5.64-43 2.11-3.66-.9-6.8-3.91-9.37-7.44l20.51 2-8.56-8.59c-10.5-10.61-12-20.21-5.24-33.34 10.31-19.93 26.89-31.05 49.13-30.9a221.25 221.25 0 0145.72 5.6c17.46 3.84 34 4.3 51-2.1a89.67 89.67 0 0148.93-3.88c7.83 1.48 12.93 5.58 17.39 12 7.29 10.5 9.59 21.54 7.11 34-2.88 14.42-9.68 21.46-24.16 24.27-1.85.36-3.7.78-5.52 1.25-.23.05-.33.57-.49.87 13.81 4.69 15.88 4.3 34.73-6.84zm-25.45-12.39c5.81-10.49 4.36-18.6-2.62-26.53-8.29-9.41-25.19-12.52-38.56-7.08-8.51 3.46-10.87 6.81-10.39 15.26 9.19-6.77 19.13-10.45 30.39-7.77 12.27 2.9 16.52 13.55 21.18 26.12zm-177.16-6.74c16-25.26 34.57-23.16 49.05-10.43 6.1-7.27 5.19-13.54-3.17-16.43-9.54-3.29-19.51-4.13-29.25-.4-11.06 4.23-17.31 14.05-16.63 27.26zm79.63 146.84a170.61 170.61 0 01-55.46-10.42c-16.05-5.92-27-17.14-28.34-34.65-1.65-21.5 3.13-37.11 24.61-43.8a23.73 23.73 0 0122.74 4.18c11.1 8.76 23.55 11.6 37.52 12.32 18.38.95 35.16-1.74 50.43-12.5 3.37-2.36 7.68-3.54 11.71-4.77 18.12-5.54 34.77 6.69 34.6 25.69-.09 9.75-2.36 19.33-8.33 27.19-9.2 12.11-20.09 22.43-35.19 26.89-8.85 2.62-17.73 5.36-26.79 7s-18.32 1.97-27.5 2.87zm-55.66-47c-7.78 2.88-12.21 7.51-12.17 14.13 0 6.89 5.61 10.52 11.56 13.07 1.77.76 3.48 1.68 5.28 2.35 36.73 13.66 73.44 12.33 109.47-1.87 13.68-5.38 24.33-15.47 30.72-30.2l-14.81-8.05c-5.16 9.18-11.69 14.36-21.76 7.68-5.16 6.23-9.16 14-17.82 9.77 4-3.86 8.3-7.78 12.31-12 3-3.16 6.18-4.4 10.32-2.45 1.95.92 4 1.63 5.69 2.3 12.25-12.83 9.78-21.9-7.16-28.65-1.55.92-3.21 1.88-4.87 2.87-17.86 10.63-36.32 16.79-57.06 8.92a11.3 11.3 0 00-4.58-.38 45.82 45.82 0 01-29-8.28c-14.3 6.48-15.56 8.87-12.53 22.91 1.93 8.95 5 10.65 14.65 8.77 3.33-.65 8-1.83 10.08-.23 8.25 6.28 17 9 27.43 6.4-13.62 9-13.48 8.84-25 .84-2.4-1.67-7.11-2.88-9.22-1.65-9.52 5.57-16.09 2.31-21.53-6.29z"/><path d="M276.74 320.06c-2.46.95-5.67 2.24-8.92 3.42a7.55 7.55 0 01-2.34 0c-8.74-8.32-9.57-17.69-1.32-25.6 11.28-10.83 25.13-14.79 40.36-11.57 12.79 2.7 20.9 15.37 18.13 26.49-2.13 8.55-5.35 11.18-14 9.4-6.8-1.4-12.85-3.33-19.49 1.5-1.83 1.38-7.09-1.94-12.42-3.64zm28.71-24.6c-10.68-2.13-21-1.57-27.64 1.89-1.38.72-1.81 3.25-2.86 5.3 20.37 1.84 26.79.43 30.5-7.19z"/><path class="cls-1" d="M383.29 275.16c-4.66-12.57-8.91-23.22-21.18-26.12-11.26-2.68-21.2 1-30.39 7.77-.48-8.45 1.88-11.8 10.39-15.26 13.37-5.44 30.27-2.33 38.56 7.08 6.98 7.93 8.43 16.04 2.62 26.53zm-177.16-6.74c-.68-13.21 5.57-23 16.63-27.26 9.74-3.73 19.71-2.89 29.25.4 8.36 2.89 9.27 9.16 3.17 16.43-14.48-12.73-33.1-14.83-49.05 10.43zm23.97 99.8c5.44 8.6 12 11.86 21.56 6.29 2.11-1.23 6.82 0 9.22 1.65 11.5 8 11.36 8.2 25-.84-10.44 2.62-19.18-.12-27.43-6.4-2.11-1.6-6.75-.42-10.08.23-9.62 1.88-12.72.18-14.65-8.77-3-14-1.77-16.43 12.53-22.91a45.82 45.82 0 0029 8.28 11.3 11.3 0 014.58.38c20.74 7.85 39.24 1.71 57.06-8.92 1.66-1 3.32-1.95 4.87-2.87 16.94 6.75 19.41 15.82 7.16 28.65-1.69-.67-3.74-1.38-5.69-2.3-4.14-1.95-7.3-.71-10.32 2.45-4 4.18-8.3 8.1-12.31 12 8.66 4.22 12.66-3.54 17.82-9.77 10.07 6.68 16.6 1.5 21.76-7.68L375 365.7c-6.39 14.73-17 24.82-30.72 30.2-36 14.2-72.74 15.53-109.47 1.87-1.8-.67-3.51-1.59-5.28-2.35-6-2.55-11.53-6.18-11.56-13.07-.08-6.62 4.35-11.25 12.13-14.13zm72 10.82l2.77-4.38a32.51 32.51 0 00-4.58-2.67c-.28-.11-2 1.83-1.8 2.23.68 1.46 1.9 2.67 3.59 4.78zm3.35-83.58c-3.71 7.62-10.13 9-30.5 7.19 1.05-2 1.48-4.58 2.86-5.3 6.64-3.46 16.96-4.02 27.64-1.89z"/><path d="M302.08 379c-1.69-2.15-2.91-3.36-3.61-4.82-.19-.4 1.52-2.34 1.8-2.23a32.51 32.51 0 014.58 2.67z"/></svg>