<svg width="300" height="300" viewBox="0 0 300 300" xmlns="http://www.w3.org/2000/svg"><g fill="none" fill-rule="evenodd"><path d="M88.871 164.391l-10.349-14.02-.76.397 6.068 16.425 4.817-2.572c.767 3.177-.394 5.497-3.282 6.693 4.157 13.751 16.465 38.115 21.12 41.112l-10.359-34.45c-1.58 3.276-3.724 2.992-5.663 1.978-1.95-1.02-2.244-3.519-.99-6.3.304-.677 1.086-1.139 2.102-2.15l.564 3.194c2.618-1.64 5.748-1.314 6.963.93a36.376 36.376 0 012.56 5.96c3.153 9.602 6.181 19.246 9.324 28.851 1.904 5.817 1.97 5.99 7.956 5.783 14.612-.504 29.218-1.177 43.823-1.843 4.683-.213 9.363-.557 14.035-.946 5.589-.464 10.344-2.27 14.002-7.042 4.273-5.576 9.205-10.645 13.802-15.975 3.005-3.483 5.924-7.039 8.881-10.563l-.827-.87c-10.43 9.465-21.262 18.381-33.539 25.387 6.89-7.028 14.159-13.587 21.592-19.954 7.613-6.52 15.385-12.856 23.68-19.765-3.204-2.524-5.748-4.754-8.511-6.665-8.621-5.96-17.345-11.772-25.977-17.717-1.587-1.093-3.825-1.912-3.555-5.536 6.338 3.192 12.179 5.937 17.826 9.034 5.558 3.048 10.92 6.455 16.801 9.962-1.911-10.73-19.842-57.802-23.256-61.476-.76 2.535-1.39 5.117-2.304 7.596-2.748 7.453-5.581 14.876-8.435 22.29-.971 2.524-2.002 5.037-3.207 7.456-.668 1.342-1.795 2.34-4.006.827.55-1.857 1.042-3.895 1.753-5.853 3.144-8.659 6.376-17.286 9.527-25.943 1.568-4.311 2.186-8.697.396-13.813-1.77 0-3.72-.073-5.665.011-20.74.894-41.478 1.82-62.218 2.721-5.504.239-10.108 2.197-13.759 6.484-6.553 7.693-13.335 15.19-19.847 22.917-4.528 5.373-8.772 10.987-13.129 16.505-2.17 2.75-2.204 5.171.088 8.208 4.455 5.903 8.35 12.227 12.57 18.311 1.096 1.582 2.54 2.923 4.385 5.007 4.142-22.972 9.701-44.658 16.84-66.715.471 1.163.727 1.472.68 1.725-1.984 10.804-4.019 21.599-5.996 32.404-2.04 11.16-4.146 22.31-5.952 33.506-.466 2.892-2.082 3.823-4.845 4.841-1.907-2.115-3.815-4.232-5.724-6.347zm38.675 58.824c-4.339 0-8.69-.202-13.015.048-6.527.376-11.522-2.41-15.689-7.04-5.283-5.87-8.759-12.836-11.297-20.204-5.466-15.867-10.674-31.823-15.978-47.746-.628-1.884-.786-4.069-1.862-5.63-2.709-3.93-1.889-7.673.361-11.129 3.834-5.886 7.756-11.758 12.154-17.223 5.88-7.307 12.151-14.309 18.436-21.279 8.108-8.991 18.265-13.743 30.431-14.232 4.498-.181 9.003-.583 13.467-1.169 12.423-1.627 24.851-1.195 37.294-.423 3.963.246 7.943.247 11.9.561 4.027.319 6.886 2.352 9.197 5.822 5.383 8.085 8.411 17.185 11.624 26.161 4.618 12.9 8.662 26.006 12.963 39.021.567 1.713 1.133 3.431 1.819 5.1 3.281 7.981 2.404 15.71-2.192 22.757-3.833 5.878-8.223 11.423-12.679 16.857-4.69 5.72-9.984 10.947-14.588 16.73-5.045 6.336-11.625 9.65-19.346 10.751-6.419.917-12.919 1.552-19.398 1.71-11.195.27-22.402.074-33.603.074l.001.483z" fill="#000"/><path d="M87.584 128.608l7.32 3.363c-2.001-4.392-4.821-6.324-7.97-7.881-3.922 3.917-4.305 5.99-1.693 9.872l2.343-5.354zm5.055 14.287c-3.745-4.222-8.444-4.515-12.356-1.833 1.251 3.419 3.492 5.765 7.65 7.224l-1.232-5.05 5.939-.341zm43.528 58.11c-4.628 2.12-8.108 5.003-10.777 9.77 3.885 2.1 7.357 2.532 12.224 1.158l-4.704-3.374c1.572-2.346 4.773-3.526 3.256-7.553zm57.726-87.292c6.129 8 10.556 11.79 14.118 12.275.207-4.701-.658-8.045-2.604-9.057-.589.346-1.335.785-2.082 1.228-2.946-1.467-4.333-6.06-9.432-4.446zm3.759 16.72c-2.59-2.198-2.59-2.198-2.545-6.88-3.021.807-3.898 1.968-3.38 4.476.705 3.419 3.969 5.12 8.873 4.627 3.172 3.804 5.124 4.66 6.921 3.04 1.66-1.496 1.427-3.446-.656-5.48l-2.085 3.447-3.475-6.385-3.653 3.155zm-76.303 64.379c-2.137.095-3.189.14-4.24.19-1.075.052-2.193-.063-3.214.2-2.406.622-3.313 2.6-1.833 4.467 2.196 2.77 4.53 5.574 8.68 5.814 2.265-4.207-4.259-3.776-3.52-7.148 3.247.162 6.46.429 9.671.416.916-.004 2.566-.782 2.592-1.273.055-1.053-.42-2.581-1.223-3.153-3.21-2.29-6.6-4.335-9.982-6.373-1.426-.86-2.729-.726-3.418 1.444l6.487 5.416zm39.413-10.461c.561-3.57-1.344-3.952-2.79-4.24-6.715-1.333-13.467-2.474-20.2-3.708-2.142-.392-3.96-.217-4.892 2.776 3.544 3.8 7.69 7.018 12.71 9.118 2.525-3.513-2.199-3.901-2.478-6.567 2.958.467 5.761.93 8.571 1.348 2.953.438 5.913.83 9.08 1.273zm-42.31-49.198c1.57-.803 2.816-1.428 4.05-2.074 3.2-1.674 6.395-3.352 9.587-5.04 2.161-1.142 2.623-2.658.85-5.263-7.263 4.778-15.905 6.557-22.667 12.128 4.73 5.649 11.574 9.069 16.082 8.093-.658-4.332-5.292-4.556-7.902-7.844zm34.25-37.855c2.991 1.431 5.688 2.843 8.482 4.024 3.137 1.325 6.342 2.502 9.558 3.626 1.939.678 3.872.887 5.26-2.214-5.067-1.949-10.015-3.737-14.868-5.751-5.023-2.085-9.826-4.798-16.056-5.551.278 6.185 3.855 10.141 5.545 15.027 5.485-2.309.875-5.81 2.078-9.161zm7.737 75.994c1.51-.413 2.114-.41 2.473-.703 3.708-3.046 3.761-8.116.168-11.814-3.746-3.854-9.66-3.947-12.848.15-1.59 2.047-2.412 4.692-3.736 7.38l-4.102-1.282-.754-7.387-1.179-.184c-.614 1.166-1.503 2.27-1.78 3.513-.423 1.893-.53 3.88-.533 5.828 0 .55.732 1.438 1.293 1.599 3.71 1.066 7.25 3.027 11.96 2.54-.166-1.931-.379-3.632-.445-5.338-.125-3.202 2.646-6.211 5.573-6.142 2.952.069 5.42 3.2 5.005 6.49-.192 1.532-.61 3.033-1.095 5.35zm-41.597-79.776l-1.06 1.043c.456.69.804 1.492 1.384 2.055 13.434 13.048 30.425 21.2 45.032 32.642 1.218.954 2.78 1.854 5.19-.52-15.986-13.232-33.443-23.977-50.546-35.22zm84.131 68.738l.99-1.145c-1.201-1.346-2.167-3.172-3.667-3.908-1.622-.795-3.88-1.121-5.622-.69-5.105 1.26-7.8 6.16-6.532 10.668 1.274 4.528 4.916 6.248 9.244 7.666l-3.48 4.637c-4.041-.475-6.591-4.221-11.176-2.53 1.014 1.189 1.609 2.29 2.53 2.888 2.258 1.467 4.676 2.686 7.011 4.036 2.141 1.238 3.654.649 4.987-1.36 1.49-2.242 3.365-4.24 4.759-6.535.931-1.534 1.317-3.401 2.049-5.396-5.162-1.44-10.944-.756-11.913-7.322 3.025-5.552 7.091-1.827 10.82-1.01zm-97.41 8.954l-.969 1.014c.989.722 1.972 1.45 2.965 2.166 3.519 2.534 6.945 5.21 10.579 7.569 13.789 8.944 27.646 17.786 41.479 26.664 1.789 1.148 3.563 2.582 5.723.595-3.72-5.232-53.757-36.98-59.777-38.008zm.041-7.23l.389 1.699c1.484-.226 3.036-.251 4.438-.721a95.809 95.809 0 008.56-3.31c10.362-4.617 20.69-9.315 31.03-13.985 5.578-2.52 11.206-4.936 16.712-7.605 3.787-1.836 4.389-3.4 3.642-7.948l-64.77 31.87zm72.437-26.285c-.779 2.019-1.368 2.944-1.479 3.923a15391.748 15391.748 0 00-7.252 65.005c-.307 2.81.731 4.923 4.211 5.406.357-.806.953-1.57 1.014-2.373 1.729-23.008 3.413-46.02 5.043-69.036.041-.583-.612-1.215-1.537-2.925zM88.873 164.39l5.721 6.349c2.764-1.02 4.38-1.95 4.847-4.841 1.804-11.198 3.911-22.347 5.951-33.507 1.977-10.805 4.013-21.599 5.997-32.403.046-.254-.21-.563-.681-1.726-7.14 22.058-12.699 43.744-16.84 66.716-1.845-2.084-3.289-3.426-4.387-5.008-4.22-6.084-8.113-12.408-12.567-18.31-2.293-3.037-2.26-5.458-.09-8.208 4.359-5.518 8.602-11.132 13.13-16.506 6.512-7.726 13.295-15.224 19.847-22.917 3.651-4.287 8.255-6.245 13.76-6.484 20.738-.9 41.477-1.826 62.217-2.721 1.944-.083 3.895-.011 5.665-.011 1.79 5.117 1.172 9.503-.397 13.813-3.15 8.657-6.382 17.284-9.526 25.944-.711 1.958-1.203 3.996-1.753 5.853 2.211 1.513 3.337.514 4.006-.828 1.205-2.418 2.235-4.932 3.207-7.456 2.854-7.414 5.687-14.836 8.435-22.29.913-2.478 1.544-5.061 2.3-7.597 3.417 3.676 21.349 50.746 23.26 61.478-5.882-3.508-11.244-6.914-16.802-9.963-5.647-3.097-11.487-5.841-17.825-9.033-.27 3.623 1.967 4.442 3.555 5.536 8.632 5.945 17.356 11.755 25.976 17.717 2.764 1.91 5.308 4.14 8.511 6.664-8.295 6.91-16.067 13.244-23.679 19.765-7.433 6.368-14.703 12.926-21.593 19.954 12.278-7.006 23.11-15.921 33.54-25.386l.826.87c-2.957 3.523-5.876 7.08-8.88 10.562-4.598 5.33-9.529 10.4-13.802 15.975-3.658 4.773-8.413 6.578-14.002 7.043-4.673.388-9.352.732-14.034.946-14.606.665-29.212 1.338-43.823 1.843-5.987.206-6.052.033-7.956-5.783-3.144-9.606-6.171-19.25-9.324-28.852a36.413 36.413 0 00-2.56-5.961c-1.216-2.242-4.346-2.57-6.964-.93l-.563-3.194c-1.016 1.013-1.8 1.475-2.104 2.15-1.253 2.783-.96 5.282.992 6.302 1.939 1.014 4.082 1.297 5.663-1.98l10.357 34.45c-4.653-2.995-16.961-27.36-21.12-41.11 2.889-1.197 4.05-3.517 3.283-6.694l.226-.231z" fill="#FF499E"/><path d="M88.647 164.62l-4.816 2.574-6.069-16.426.76-.397c3.45 4.673 6.899 9.347 10.35 14.02l-.225.23" fill="#FF499E"/><path d="M178.042 137.693c.924 1.71 1.578 2.342 1.537 2.925-1.63 23.016-3.314 46.028-5.044 69.036-.06.803-.656 1.566-1.014 2.373-3.48-.483-4.518-2.596-4.211-5.406a15410.71 15410.71 0 017.253-65.006c.11-.98.7-1.903 1.479-3.922m-72.437 26.284l64.771-31.87c.747 4.55.145 6.112-3.644 7.948-5.505 2.67-11.134 5.086-16.712 7.605-10.339 4.671-20.666 9.368-31.03 13.986a95.9 95.9 0 01-8.559 3.31c-1.403.47-2.954.494-4.438.72l-.388-1.699m-.042 7.231c6.02 1.03 56.056 32.777 59.776 38.009-2.16 1.986-3.933.553-5.723-.596-13.832-8.878-27.689-17.72-41.478-26.664-3.635-2.357-7.061-5.035-10.579-7.57-.994-.714-1.976-1.442-2.964-2.165l.968-1.014m97.41-8.954c-3.729-.818-7.794-4.544-10.819 1.009.968 6.566 6.751 5.883 11.913 7.32-.733 1.997-1.118 3.863-2.05 5.398-1.394 2.295-3.269 4.292-4.759 6.536-1.333 2.008-2.846 2.597-4.987 1.359-2.335-1.35-4.753-2.57-7.01-4.036-.922-.6-1.517-1.7-2.531-2.888 4.586-1.691 7.135 2.055 11.176 2.529l3.481-4.636c-4.329-1.418-7.971-3.138-9.245-7.666-1.268-4.507 1.428-9.407 6.533-10.67 1.742-.43 3.999-.103 5.621.692 1.501.736 2.466 2.562 3.667 3.908-.33.38-.66.763-.99 1.145m-84.131-68.738c17.104 11.243 34.561 21.987 50.546 35.22-2.41 2.374-3.972 1.473-5.19.52-14.607-11.442-31.598-19.594-45.032-32.642-.58-.564-.928-1.365-1.385-2.055l1.061-1.043zm41.598 79.775c.483-2.316.902-3.818 1.095-5.348.413-3.29-2.053-6.422-5.005-6.492-2.927-.069-5.7 2.94-5.574 6.142.067 1.706.279 3.407.446 5.34-4.712.486-8.252-1.475-11.96-2.542-.561-.16-1.294-1.048-1.293-1.599.003-1.948.11-3.935.532-5.827.278-1.242 1.166-2.347 1.78-3.513l1.179.183.754 7.387 4.103 1.283c1.324-2.689 2.145-5.334 3.736-7.38 3.186-4.098 9.102-4.004 12.847-.15 3.594 3.698 3.54 8.767-.167 11.813-.36.295-.964.29-2.473.703m-7.738-75.993c-1.204 3.351 3.407 6.852-2.08 9.16-1.688-4.885-5.265-8.842-5.544-15.026 6.23.753 11.033 3.466 16.057 5.551 4.853 2.014 9.8 3.802 14.868 5.751-1.388 3.101-3.322 2.892-5.26 2.214-3.216-1.125-6.421-2.301-9.558-3.626-2.795-1.181-5.491-2.593-8.483-4.024m-34.249 37.855c2.61 3.287 7.244 3.512 7.902 7.844-4.508.976-11.353-2.444-16.082-8.093 6.762-5.571 15.404-7.35 22.666-12.128 1.774 2.605 1.312 4.12-.85 5.263a2427.032 2427.032 0 01-9.587 5.04c-1.234.646-2.48 1.27-4.05 2.074m42.31 49.197c-3.166-.441-6.125-.834-9.079-1.272-2.81-.417-5.613-.881-8.57-1.35.278 2.667 5.002 3.056 2.478 6.569-5.02-2.1-9.166-5.318-12.71-9.118.932-2.993 2.75-3.168 4.891-2.776 6.734 1.234 13.485 2.375 20.2 3.708 1.446.288 3.351.67 2.79 4.24m-39.412 10.46c-2.788-2.327-4.67-3.897-6.487-5.416.689-2.169 1.99-2.303 3.418-1.444 3.382 2.038 6.772 4.084 9.982 6.374.802.572 1.277 2.1 1.223 3.153-.026.49-1.676 1.268-2.592 1.272-3.211.014-6.424-.253-9.671-.415-.74 3.371 5.785 2.941 3.519 7.147-4.15-.24-6.483-3.044-8.68-5.813-1.48-1.867-.572-3.846 1.834-4.467 1.02-.264 2.139-.149 3.213-.2 1.052-.05 2.104-.095 4.24-.19m76.303-64.379l3.653-3.156 3.475 6.386 2.086-3.447c2.082 2.034 2.315 3.983.655 5.48-1.797 1.62-3.749.763-6.921-3.04-4.904.494-8.168-1.208-8.873-4.628-.518-2.507.359-3.668 3.381-4.475-.045 4.682-.045 4.682 2.544 6.88m-3.759-16.72c5.099-1.614 6.486 2.979 9.433 4.444.746-.441 1.492-.88 2.081-1.226 1.946 1.012 2.811 4.356 2.604 9.057-3.562-.485-7.989-4.275-14.118-12.275m-57.726 87.292c1.517 4.028-1.684 5.207-3.257 7.553l4.705 3.374c-4.867 1.374-8.339.943-12.225-1.158 2.669-4.766 6.15-7.649 10.777-9.769m-43.527-58.11l-5.938.341 1.23 5.05c-4.156-1.46-6.397-3.806-7.65-7.225 3.913-2.68 8.612-2.388 12.358 1.834m-5.056-14.287l-2.344 5.354c-2.611-3.881-2.228-5.955 1.694-9.872 3.148 1.557 5.968 3.489 7.97 7.88l-7.32-3.362" fill="#000"/></g></svg>