<svg width="300" height="300" viewBox="0 0 300 300" xmlns="http://www.w3.org/2000/svg"><g fill="none" fill-rule="evenodd"><path d="M150.647 222.552c45.87 1.137 72.842-37.382 72.798-75.157-.053-46.135-41.475-74.479-73.63-73.521-39.567 1.178-73.85 33.832-73.522 74.646.339 42.28 34.686 74.416 74.354 74.032m83.483-76.72c-2.113 32.388-14.332 59.561-42.915 77.493-30.66 19.235-71.631 14.382-97.614-10.889-13.891-13.51-23.204-29.558-26.642-48.633-4.875-27.045 2.562-50.685 20.917-70.989 1.333-1.475 2.86-2.772 4.204-4.239 13.39-14.63 30.569-21.322 49.786-23.46 25.007-2.783 47.235 3.838 66.239 20.512 13.109 11.502 21.113 25.998 24.204 43.111.99 5.479 1.206 11.098 1.821 17.094" fill="#000"/><path d="M220.315 147.144c-.184-1.84-.397-5.261-.886-8.641-2.338-16.146-9.149-30.192-21.563-40.774-20.02-17.065-43.192-21.71-68.423-14.62-40.481 11.373-56.025 50.719-46.826 83.616 3.964 14.177 11.739 25.9 22.959 35.385 14.197 12 30.678 17.709 49.106 16.154 18.131-1.53 33.418-9.551 46.115-22.742 12.64-13.132 19.116-28.64 19.518-48.378m-69.668 75.409c-39.668.384-74.015-31.753-74.354-74.033-.328-40.813 33.955-73.467 73.523-74.646 32.154-.957 73.576 27.387 73.63 73.52.043 37.776-26.929 76.295-72.8 75.159" fill="#FFF"/><path d="M205.469 138.815l-7.987 6.316 1.887 7.382c7.082-1.895 8.486-3.644 6.1-13.698m-57.605 4.498c-4.413.124-7.95 3.038-7.914 6.52.042 4.026 4.493 8.14 8.666 8.008 3.174-.1 6.445-4.544 6.44-8.748-.005-3.13-3.435-5.885-7.193-5.78m34.327-31.747l12.258 23.495 8.513-6.269c-3.202-8.698-6.672-16.6-13.916-22.3l-6.855 5.074m38.125 35.578c-.401 19.739-6.878 35.246-19.518 48.379-12.696 13.19-27.984 21.21-46.115 22.74-18.428 1.556-34.91-4.152-49.107-16.153-11.22-9.484-18.994-21.208-22.959-35.385-9.199-32.898 6.345-72.244 46.826-83.617 25.232-7.09 48.404-2.445 68.424 14.62 12.414 10.582 19.225 24.629 21.563 40.775.489 3.38.702 6.8.886 8.64" fill="#FF499E"/><path d="M182.189 111.567l6.855-5.075c7.244 5.7 10.714 13.603 13.916 22.3l-8.512 6.27-12.259-23.495m-34.326 31.747c3.758-.106 7.188 2.65 7.192 5.78.006 4.204-3.264 8.647-6.439 8.748-4.172.131-8.624-3.983-8.666-8.01-.035-3.48 3.502-6.395 7.913-6.519m57.606-4.498c2.386 10.054.982 11.803-6.1 13.698l-1.887-7.382 7.987-6.316" fill="#FFF"/></g></svg>