<svg width="300" height="300" viewBox="0 0 300 300" xmlns="http://www.w3.org/2000/svg"><g fill="none" fill-rule="evenodd"><path d="M225.132 70.55c-2.144-2.813-2.144-2.813-3.869-.371l3.869.371zm1.131 18.217v-6.463l-6.232-1.221v6.26l6.232 1.424zm-28.539-34.88c-.376-3.018-.499-5.335-.989-7.57-.507-2.309-1.372-4.539-2.174-7.107-4.302 4.288-4.704 5.97-3.446 13.152l6.609 1.525zm-56.36-15.104c.468-1.484.895-2.66 1.206-3.865.362-1.396.861-2.82.85-4.229-.01-1.111-.369-2.691-1.15-3.237-2.336-1.634-7.742-.003-9.047 2.656-1.155 2.353-1.973 4.872-2.979 7.419l11.12 1.256zm57.821 31.9l-9.461-3.863-1.169 14.452 11.76 1.005-1.13-11.594zm.142 29.463c-2.603-.617-4.675-1.167-6.773-1.596-8.461-1.731-9.09-1.291-10.579 7.228-.025.14.154.317.383.751l16.403 2.818c.185-3.026.36-5.857.566-9.201zM95.187 119.33c-2.634-5.447-6.223-8.725-10.778-11.124-2.802-1.476-5.164-.661-7.522.95-1.37.937-1.914 2.074-1.229 3.669 1.26 2.931 2.511 5.865 3.84 8.968l15.688-2.463zm75.284-23.781c-5.873-1.297-11.317-3.324-17.559-1.752-.177 3.108-.347 6.083-.564 9.858l18.123 1.472v-9.578zm5.915-47.735c-1.146-7.006 2.941-13.348-.47-19.636-4.059-.409-7.268.765-8.81 4.273-1.649 3.746-2.665 7.769-4.073 12.017l13.353 3.346zm-19.484 29.885l14.93 1.317c.503-4.787 1.09-9.382 1.393-13.996.069-1.052-.546-2.735-1.355-3.158-3.573-1.874-7.182-4.059-11.669-2.932l-3.299 18.769zm-31.3-23.491l-2.154 20.608 12.766 2.127 2.527-21.035-13.14-1.7zm2.012 154.6c-.466 3.538-1.017 6.902-1.31 10.289-.138 1.595.104 3.252.378 4.845.625 3.639 1.431 4.529 5.158 5.08 3.555.528 7.15.919 10.738 1.044 5.052.177 10.114.066 15.17.056 11.885-.025 23.771.06 35.652-.152 5.081-.09 7.939-3.334 8.149-8.28.113-2.682.321-5.362.488-8.043.162-2.618-1.755-5.376-4.451-5.787-2.094-.32-4.335-.41-6.404-.027-11.647 2.157-23.294 1.86-35.038.893-9.267-.765-18.6-2.751-28.53.082zM85.307 141.03c2.634 8.474 5.117 16.527 7.671 24.558.194.61.842 1.117 1.362 1.577 4.592 4.052 9.541 7.765 13.705 12.215 3.634 3.883 7.536 6.31 12.848 6.758 5.347.45 10.666 1.246 16.677 1.973v-17.47c-2.984-.442-6.182-.885-9.37-1.395-3.836-.614-7.47-1.953-11.5.24-2.318 1.262-4.864-.534-6.313-2.92-1.179-1.938-1.847-4.043-.379-6.091 1.995-2.784 8.98-2.96 10.532.139 1.35 2.69 3.212 2.969 5.534 3.268 2.506.323 5 .744 7.501 1.102 9.307 1.332 9.308 1.329 9.308 10.632v12.468l6.185.568c.991-3.93 2.163-7.412-.087-11.171-1.314-2.194-.065-5.05 1.921-6.004 2.321-1.116 5.787-.257 6.496 2.062.471 1.542.452 3.88-.426 5.065-2.377 3.209-2.292 6.638-2.14 10.6 6.895 1.968 13.809 1.449 20.883 1.04.215-1.346.442-2.207.476-3.075.398-10.317 2.025-20.434 4.488-30.461.994-4.046 3.001-6.892 6.782-8.49 3.154-1.332 6.347-2.573 9.508-3.89 4.429-1.844 5.726-5.001 3.867-9.254-.359-.823-.749-1.671-.89-2.545-.493-3.079 1.889-6.205 4.948-6.614 2.842-.381 5.856 1.561 5.72 4.388-.102 2.137-1.424 4.27-2.443 6.284-.448.886-2.017 1.37-2.18 2.211-1.448 7.44-6.504 11.325-13.096 13.842-.83.317-1.691.789-2.295 1.42-1.838 1.92-4.317 3.669-5.189 5.993-3.601 9.599-3.752 19.698-3.692 30.345 6.836.53 13.211-.23 19.574-1.202 2.523-.386 3.523-2.177 4.071-4.448 1.824-7.536 3.76-15.044 5.527-22.593.748-3.193-.184-7.078 4.19-8.566.532-.181.677-1.571.957-2.415 4.45-13.43 6.468-27.344 8.16-41.316.25-2.066.036-4.189.036-6.304l-6.135-1.719-6.53 13.822.965 4.281c-2.654-.39-4.719-.511-6.689-1.013-11.362-2.893-22.661-6.053-34.073-8.732-3.988-.935-8.247-1.132-12.364-1.007-7.39.225-14.773.883-22.148 1.491-3.539.293-7.053.885-10.92 1.386.4-6.781 6.821-4.426 9.69-7.233l-1.146-11.711c-4.265.315-8.363.449-12.399 1.024-1.144.162-2.557 1.401-3.07 2.506-2.228 4.793-2.787 9.991-.349 14.687 2.488 4.795 2.907 9.962 4.13 14.99.883 3.638 1.553 7.328 2.345 11.127 8.903-1.182 17.474-2.515 25.754 1.185-7.93 2.18-16.39.083-24.738 3.426 6.045 2.132 11.45 3.973 16.806 5.946 6.795 2.503 12.371 6.862 16.812 12.423 2.322 2.908 5.386 6.003 3.882 11.025-1.07-.825-2.082-1.294-2.64-2.084-7.035-9.958-17.21-14.503-28.712-16.754-5.667-1.11-11.326-2.39-17.052-3.007-3.588-.386-5.549-2.1-6.832-5.107-.822-1.93-1.558-3.897-2.284-5.725l-21.23 2.249zm54.66-95.38c-.272 1.085-.48 1.928-.648 2.591.315.526.431 1.01.681 1.094 4.915 1.66 6.586 5.106 5.794 10.079-1.187 7.453-2.279 14.92-3.396 22.279l-5.963 2.057-1.38 5.142c5.208.546 5.802 4.11 5.713 8.238-.033 1.521.46 3.054.758 4.866l6.533-.763c.357-1.935.811-3.671.98-5.435.584-6.083.546-6.087 6.242-7.323v-5.676l-4.922-.82c1.26-6.315 2.481-12.44 3.706-18.565.176-.885.375-1.765.55-2.649.965-4.897.963-4.897 5.452-7.148-.02-1.808.794-3.664-1.284-5.32-.767-.612-.849-2.686-.55-3.928a290.558 290.558 0 014.36-16.204c1.2-3.984 4.882-6.207 9.638-6.586 4.203-.335 6.194 2.261 7.911 5.41 2.407 4.417 1.471 9.216 1.373 13.851-.083 3.931-.881 7.846-1.382 11.935l-4.647 1.767c-.063.652-.256 1.214-.108 1.326 3.809 2.886 3.779 6.638 3.091 10.942-.853 5.327-1.015 10.764-1.503 16.476l-4.423 1.636c-.227 1.512-.466 3.087-.703 4.661 1.47 2.247 4.89 2.868 4.731 6.239a38.278 38.278 0 00.385 7.695c.298-1.329.575-2.662.9-3.984.38-1.558.802-3.106 1.188-4.589l7.072-1.88v-6.969l-3.797-1.886c.492-7.279.974-14.445 1.474-21.853l4.549-1.129c.535-2.437.058-4.407-2.16-5.667-1.845-1.048-2.21-2.726-2.006-4.64.326-3.05.337-6.189 1.131-9.114.585-2.158 1.865-4.367 3.431-5.973 4.111-4.216 7.976-3.526 10.812 1.69 3.81 7.005 4.319 14.744 5.16 22.421-2.121 1.201-5.266.968-4.751 4.426 1.854 1.636 4.543 2.949 5.335 4.996.81 2.095-.35 4.904-.447 7.409-.118 3.06-.028 6.128-.028 9.369l-4.343 2.122c-.152 2.117-.29 4.072-.446 6.239 9.401 2.785 4.345 10.198 4.983 16.052 2.627 1.148 4.536.353 5.625-2.17.709-1.643 1.292-3.421 1.481-5.188.353-3.286 1.898-5.354 5.062-5.891l-.483-6.071c-5.455-2.851-3.072-8.693-4.328-13.665l5.36-2.314-3.844-4.902c.504-2.833 2.04-5.903 5.434-7.806 2.481-1.389 4.841-1.215 6.945.815 3.156 3.045 4.618 6.82 4.774 11.151-.894.626-1.899 1.155-2.599 1.951-.161.183.56 1.559 1.157 1.915 2.048 1.223 2.343 2.899 2.053 5.09-.259 1.957-.004 3.977-.113 5.962-.044.807-.277 2.16-.718 2.294-2.094.635-1.397 2.03-1.344 3.428.204 5.488 2.021 10.822 1.263 16.417-1.838 13.594-3.65 27.153-8.664 40.089-4.422 11.413-8.659 22.912-12.486 34.534-1.787 5.428-4.756 8.227-10.46 8.05-.52-.015-1.047.189-1.933.36.171 2.756.342 5.494.533 8.538.78.145 1.627.323 2.481.458 6.114.96 6.291.93 7.259 7.157a152.182 152.182 0 011.606 15.598c.291 5.7-2.364 8.707-7.857 9.632-.178.03-.357.07-.536.075-22.335.55-44.567 4.8-67.015 1.594-8.652-1.235-14.158-6.395-14.994-15.052-.382-3.95-.79-7.9-.978-11.86-.299-6.297 1.316-8.762 7.54-11.348l-1.084-5.99c-8.73-1.193-16.133-4.554-22.299-10.546-1.937-1.883-4.073-3.588-6.257-5.183-4.307-3.142-6.556-7.213-7.713-12.516-1.49-6.836-4.09-13.432-6.244-20.121-.387-1.2-.982-2.331-1.387-3.525-1.159-3.411-.756-4.624 2.432-7.395-.784-2.081-1.022-4.559-4.276-4.581-.628-.004-1.482-.953-1.835-1.664-2.886-5.811-5.78-11.623-8.399-17.556-.445-1.011.033-2.875.745-3.876 3.575-5.028 10.03-7.01 15.9-4.968 6.172 2.146 11.065 6.03 14.637 11.5 1.281 1.96 2.337 4.066 3.5 6.104 3.091 5.42 2.927 5.92-2.94 8.11l1.834 4.533c7.29-.556 9.23 5.679 12.488 10.208h6.565c-2.195-8.091-4.368-15.833-6.353-23.622-.46-1.81-.354-3.781-.382-5.679-.033-2.348.214-4.706.076-7.044-.24-4.102-.683-8.193-1.078-12.706 5.305-.729 6.1-4.1 5.606-8.199-.082-.677-.119-1.817-.46-1.936-3.393-1.191-2.395-4.028-2.55-6.422-.654-9.995 3.3-19.033 5.56-28.498l5.056-1.098.416-2.984-4.464-.935c1.888-5.154 3.491-10.118 5.517-14.902 2.25-5.314 8.79-8.37 14.436-7.132 4.48.981 7 3.504 6.93 8.366-.072 4.986-.848 9.996-1.78 14.907-.195 1.026-2.335 1.992-3.745 2.374-1.029.279-2.329-.445-3.72-.772z" fill="#000"/><path d="M193.946 125.897c-4.352-3.126-8.448-4.085-12.644-4.967-8.808-1.852-17.492-2.496-25.914 1.59-1.852.899-4.132 1.332-4.492 4.158 7.154-.652 14.084-1.673 21.031-1.809 6.959-.137 13.934.611 22.019 1.028m-108.64 15.132l21.232-2.249c.725 1.828 1.462 3.795 2.284 5.725 1.282 3.007 3.243 4.722 6.83 5.108 5.728.616 11.387 1.897 17.054 3.006 11.5 2.252 21.677 6.797 28.71 16.754.559.79 1.57 1.26 2.64 2.085 1.505-5.023-1.558-8.117-3.881-11.026-4.441-5.561-10.016-9.919-16.811-12.422-5.356-1.973-10.762-3.814-16.807-5.946 8.348-3.343 16.809-1.247 24.739-3.427-8.281-3.699-16.852-2.366-25.754-1.185-.792-3.798-1.462-7.489-2.346-11.127-1.223-5.028-1.642-10.194-4.13-14.99-2.437-4.696-1.88-9.893.349-14.686.513-1.106 1.927-2.344 3.07-2.507 4.036-.574 8.135-.708 12.399-1.023l1.146 11.71c-2.868 2.808-9.29.453-9.69 7.233 3.868-.5 7.38-1.093 10.92-1.385 7.375-.608 14.757-1.266 22.149-1.491 4.116-.125 8.376.071 12.363 1.007 11.412 2.678 22.711 5.839 34.073 8.732 1.97.501 4.036.623 6.69 1.013l-.965-4.281 6.529-13.822 6.135 1.719c0 2.114.215 4.238-.035 6.304-1.692 13.971-3.71 27.886-8.16 41.315-.281.845-.425 2.235-.957 2.416-4.374 1.487-3.443 5.372-4.191 8.566-1.766 7.548-3.703 15.057-5.526 22.593-.549 2.27-1.549 4.062-4.071 4.448-6.364.972-12.739 1.732-19.575 1.201-.059-10.646.091-20.745 3.693-30.344.872-2.324 3.35-4.073 5.188-5.993.605-.631 1.465-1.103 2.295-1.42 6.593-2.517 11.649-6.402 13.097-13.843.163-.84 1.731-1.324 2.18-2.211 1.018-2.013 2.34-4.146 2.443-6.283.136-2.827-2.879-4.769-5.721-4.389-3.058.41-5.44 3.535-4.947 6.614.141.874.53 1.722.89 2.546 1.858 4.252.561 7.409-3.868 9.254-3.161 1.317-6.353 2.558-9.507 3.891-3.782 1.597-5.788 4.443-6.783 8.489-2.462 10.027-4.089 20.143-4.488 30.46-.033.869-.261 1.729-.475 3.076-7.075.408-13.99.927-20.883-1.04-.153-3.963-.238-7.391 2.139-10.6.878-1.184.898-3.523.426-5.066-.71-2.318-4.175-3.178-6.496-2.062-1.985.956-3.234 3.81-1.921 6.005 2.25 3.759 1.078 7.242.087 11.171l-6.185-.569v-12.467c0-9.304 0-9.301-9.307-10.633-2.502-.357-4.995-.779-7.501-1.102-2.322-.299-4.186-.576-5.534-3.267-1.553-3.098-8.537-2.923-10.533-.139-1.467 2.048-.8 4.152.379 6.091 1.45 2.385 3.996 4.181 6.313 2.92 4.03-2.193 7.665-.855 11.5-.241 3.188.51 6.387.954 9.37 1.396v17.47c-6.011-.727-11.33-1.523-16.677-1.973-5.311-.447-9.214-2.875-12.847-6.759-4.164-4.45-9.114-8.163-13.705-12.215-.521-.459-1.168-.966-1.363-1.577-2.553-8.03-5.037-16.084-7.671-24.558m42.308 67.779c9.929-2.833 19.263-.847 28.529-.083 11.744.969 23.392 1.264 35.038-.892 2.07-.383 4.311-.293 6.405.026 2.696.41 4.613 3.169 4.451 5.787-.167 2.682-.375 5.36-.488 8.045-.21 4.945-3.069 8.188-8.15 8.279-11.881.21-23.766.127-35.651.15-5.057.012-10.118.123-15.17-.054-3.588-.125-7.184-.516-10.738-1.043-3.727-.552-4.534-1.442-5.16-5.081-.272-1.594-.514-3.251-.377-4.845.293-3.387.844-6.752 1.31-10.29m-2.013-154.6l13.141 1.7-2.528 21.035-12.765-2.127 2.152-20.608m31.301 23.492l3.3-18.769c4.486-1.127 8.096 1.058 11.669 2.932.808.423 1.424 2.106 1.354 3.158-.302 4.614-.889 9.209-1.392 13.995l-14.931-1.316m19.484-29.885l-13.353-3.346c1.408-4.248 2.424-8.271 4.072-12.018 1.543-3.508 4.752-4.681 8.811-4.272 3.411 6.288-.676 12.63.47 19.636" fill="#FFF"/><path d="M170.471 95.549v9.578l-18.123-1.472c.217-3.775.387-6.75.564-9.858 6.243-1.572 11.686.455 17.559 1.752m-75.285 23.78l-15.688 2.464c-1.33-3.104-2.58-6.038-3.84-8.968-.685-1.596-.142-2.733 1.229-3.67 2.359-1.61 4.72-2.425 7.523-.95 4.554 2.399 8.143 5.677 10.776 11.124m104.141-19.184c-.206 3.344-.381 6.175-.566 9.201l-16.404-2.818c-.228-.434-.407-.611-.383-.751 1.49-8.519 2.119-8.959 10.58-7.228 2.097.429 4.169.979 6.773 1.596m-.142-29.462l1.13 11.594-11.76-1.006 1.169-14.451 9.461 3.863m-57.821-31.9l-11.12-1.256c1.007-2.547 1.824-5.066 2.979-7.419 1.306-2.659 6.71-4.29 9.047-2.656.78.546 1.14 2.125 1.15 3.237.01 1.408-.488 2.833-.85 4.229-.31 1.205-.737 2.381-1.206 3.865m56.36 15.103l-6.608-1.525c-1.259-7.182-.857-8.863 3.445-13.152.803 2.569 1.667 4.798 2.174 7.107.49 2.236.613 4.553.989 7.57m28.539 34.88l-6.231-1.423v-6.26l6.231 1.22v6.463zm-1.131-18.216l-3.869-.371c1.725-2.442 1.725-2.442 3.869.371" fill="#FFF"/><path d="M193.946 125.897c-8.085-.417-15.06-1.165-22.019-1.028-6.947.136-13.877 1.157-21.031 1.809.36-2.826 2.64-3.259 4.492-4.158 8.422-4.086 17.106-3.442 25.914-1.59 4.196.882 8.292 1.841 12.644 4.967" fill="#000"/><path d="M204.911 125.918c-3.059.409-5.441 3.535-4.947 6.614.139.874.529 1.722.889 2.545 1.858 4.253.562 7.41-3.868 9.255-3.16 1.316-6.352 2.558-9.507 3.89-3.781 1.598-5.788 4.444-6.782 8.49-2.463 10.026-4.09 20.143-4.488 30.46-.027.72-.191 1.453-.367 2.445l5.892.15c-.049-10.412.165-20.302 3.696-29.71.872-2.325 3.35-4.073 5.187-5.993.605-.631 1.465-1.104 2.295-1.42 6.594-2.518 11.649-6.402 13.097-13.843.164-.841 1.731-1.324 2.179-2.211 1.019-2.014 2.342-4.147 2.445-6.283.134-2.827-2.879-4.769-5.721-4.389m-50.085 62.654c-.13-3.696-.085-6.929 2.164-9.964.878-1.184.897-3.524.425-5.066-.71-2.319-4.174-3.178-6.495-2.062-1.987.955-3.236 3.81-1.921 6.005 2.13 3.56 1.192 6.873.245 10.552l5.582.535zm-38.109-19.082c4.03-2.195 7.664-.856 11.5-.242 3.188.51 6.387.954 9.371 1.397v16.835l5.312-.026v-11.835c.001-9.304 0-9.3-9.307-10.631-2.502-.36-4.995-.78-7.502-1.103-2.32-.3-4.185-.576-5.533-3.267-1.553-3.099-8.538-2.923-10.533-.14-1.468 2.048-.8 4.153.38 6.093 1.45 2.383 3.995 4.18 6.312 2.918" fill="#FF499E"/></g></svg>