<svg width="300" height="300" viewBox="0 0 300 300" xmlns="http://www.w3.org/2000/svg"><g fill="none" fill-rule="evenodd"><path d="M203.541 204.193l.061-1.372c-1.789-.478-3.556-1.07-5.371-1.403-1.947-.357-3.282-.902-3.284-3.326-.003-3.226-.367-6.454-.617-9.678-.821-10.605-1.627-21.211-2.523-31.81-.175-2.062-1.079-4.098-1.045-6.136.109-6.584 1.716-12.825 4.753-18.722 2.065-4.011 3.65-8.272 5.784-12.242 4.24-7.89 5.564-16.202 5.128-25.107-.419-8.559-1.457-16.819-4.894-24.785-2.718-6.296-5.048-12.791-7.076-19.345-1.755-5.667-4.965-9.956-9.863-13.127-2.279-1.474-4.446-3.136-6.799-4.473-10.225-5.809-21.124-7.967-32.864-6.397-10.786 1.443-20.83 5.184-29.927 10.725-18.139 11.049-31.902 25.512-32.949 48.396-.106 2.304.167 4.659-.213 6.91-1.226 7.267.138 14.411.986 21.538.465 3.906.518 7.577-1.224 11.071-2.33 4.674-3.417 9.596-2.666 14.705.916 6.227 1.945 12.48 3.57 18.549 2.183 8.157 5.017 16.138 7.506 24.216 1.334 4.333 7.218 9.16 11.732 8.888 4.27-.256 8.498-1.161 12.625-1.763.781-2.97-.41-4.29-2.55-5.032-2.216-.77-4.449-1.488-6.663-2.261-2.495-.873-3.94-2.6-4.638-4.993l19.751 6.445c.687 5.667 1.567 11.162 1.911 16.69.126 2.02-.865 4.18-1.643 6.16-.5 1.274-1.544 2.335-2.88 4.267 6.7.66 12.75 1.413 18.823 1.823 10.263.692 20.54 1.214 30.814 1.722 11.655.576 22.526-2.35 32.812-7.657 1.241-.64 2.293-1.642 3.433-2.476m-88.704-8.263c-3.846.674-7.207 1.2-10.542 1.863-4.566.906-8.54-.321-12.238-2.986-6.314-4.552-10.06-10.704-11.74-18.236-.864-3.868-1.7-7.753-2.832-11.545-2.388-8.007-3.65-16.171-3.884-24.503-.165-5.873.618-11.585 4.004-16.559 2.357-3.462 2.45-7.007 1.114-10.739-5.883-16.438-2.863-32.794.661-49.063 1.79-8.271 7.261-14.354 13.354-19.96 13.467-12.39 28.828-21.256 47.001-24.192 7.41-1.197 15.14-1.201 22.649-.678 4.511.314 9.231 2.063 13.226 4.295 5.64 3.152 10.749 7.275 15.991 11.113 8.001 5.859 11.557 14.639 14.878 23.456 5.041 13.386 8.488 27.102 8.185 41.585-.157 7.56-1.894 14.599-5.446 21.257-2.635 4.939-5.189 9.927-7.603 14.976-.834 1.743-1.209 3.721-1.678 5.62-2.721 11.027-2.471 22.15-1.036 33.31.666 5.178 1.035 10.417 2.109 15.508.477 2.262 1.912 4.838 3.72 6.186 2.978 2.22 6.525 3.776 9.998 5.209 3.325 1.37 6.879 2.18 10.302 3.327 4.197 1.405 7.581 3.807 10.409 7.366 5.181 6.523 5.634 10.83 1.245 17.89-13.557 1.799-26.939 3.628-40.335 5.343-25.471 3.26-51.012 5.546-76.729 5.056-3.423-.064-6.835-.55-10.257-.764-2.522-.158-5.066-.414-7.575-.243-11.789.805-23.366-.438-34.77-3.394-4.579-1.186-7.695-6.734-6.892-11.225.38-2.115 1.495-3.196 3.161-4 4.55-2.194 9.053-4.507 13.711-6.443 6.146-2.555 12.29-4.892 19.085-5.741 5.076-.633 9.978-3.038 14.827-4.976 3.108-1.241 3.541-2.556 3.927-8.113" fill="#000"/><path d="M128.414 128.803c2.511 5.612 6.287 7.421 10.616 8.477 11.225 2.738 22.567 2.18 33.901 1.053 3.574-.355 7.189-.936 10.608-1.99 2.059-.635 5.205-1.019 4.708-4.858-9.989.631-19.827 1.421-29.68 1.829-9.915.411-19.72-.501-30.153-4.511m-29.887-27.3c-.299-1.492-.624-2.716-.777-3.96-.579-4.697-3.705-7.598-7.05-10.453-1.88-1.606-3.64-1.027-4.665.443-1.378 1.978-2.736 4.042-2.252 6.946 1.36 8.143 2.431 16.337 3.432 24.534.18 1.486-.333 3.141-.84 4.609-1.18 3.408-2.743 6.691-3.792 10.133-1.04 3.412 1.164 7.399 4.497 8.869 2.931 1.292 5.66.5 7.946-2.681 1.244-1.732 2.242-3.704 3.016-5.698 2.084-5.367 1.74-10.963 1.365-16.575-.218-3.258-.039-6.542-.039-10.843 4.72 6.856 3.463 14.2 5.417 21.758 2.984-3.234 3.718-6.311 3.236-9.445-.542-3.526-1.849-6.927-2.67-10.419-.895-3.803-2.659-6.7-6.824-7.218M166 201.787c11.94-.004 20.709-7.086 23.235-18.76 1.885-8.705-.334-16.31-5.54-23.465-4.444-6.108-10.164-7.83-17.113-6.306-10.704 2.347-17.625 8.628-21.607 19.133-4.885 12.886 5.777 30.226 21.025 29.398m37.541 2.406c-1.14.834-2.192 1.836-3.433 2.476-10.286 5.307-21.157 8.233-32.812 7.657-10.275-.508-20.55-1.03-30.814-1.722-6.073-.41-12.124-1.162-18.824-1.823 1.337-1.932 2.38-2.993 2.881-4.267.778-1.98 1.77-4.14 1.643-6.16-.344-5.528-1.224-11.023-1.91-16.69-6.504-2.121-12.954-4.226-19.752-6.445.697 2.393 2.143 4.12 4.638 4.993 2.214.774 4.447 1.49 6.663 2.26 2.14.745 3.331 2.063 2.55 5.033-4.127.602-8.356 1.507-12.625 1.764-4.514.27-10.398-4.556-11.732-8.89-2.489-8.076-5.323-16.058-7.506-24.215-1.625-6.07-2.654-12.322-3.57-18.548-.75-5.11.336-10.032 2.666-14.706 1.742-3.493 1.69-7.164 1.224-11.071-.848-7.127-2.212-14.271-.986-21.538.38-2.251.107-4.606.213-6.91 1.046-22.883 14.81-37.347 32.95-48.396 9.096-5.54 19.14-9.282 29.926-10.724 11.74-1.571 22.639.587 32.864 6.396 2.353 1.337 4.52 2.999 6.799 4.473 4.898 3.172 8.108 7.46 9.863 13.127 2.028 6.554 4.358 13.049 7.076 19.345 3.437 7.966 4.475 16.226 4.894 24.785.436 8.906-.888 17.217-5.128 25.107-2.134 3.97-3.719 8.232-5.784 12.242-3.038 5.897-4.644 12.139-4.753 18.723-.034 2.038.87 4.074 1.045 6.136.896 10.598 1.702 21.204 2.523 31.809.25 3.224.614 6.452.617 9.678.002 2.424 1.337 2.969 3.284 3.326 1.815.334 3.582.925 5.371 1.403-.021.457-.042.915-.061 1.372" fill="#FFF"/><path d="M176.696 173.867l-.894 11.442c5.75-3.346 6.821-7.042 3.672-12.304l-2.778.862m5.014-6.133c-6.075-7.272-12.203-8.89-19.474-5.897-7.96 3.278-10.356 7.3-9.543 16.014.64 6.85 3.997 10.75 10.908 12.32-3.318-6.871-7.093-13.938-1.087-20.664 5.027-5.627 11.712-4.361 19.196-1.773M166 201.786c-15.247.829-25.91-16.511-21.025-29.397 3.983-10.505 10.904-16.786 21.607-19.134 6.949-1.523 12.669.199 17.113 6.307 5.206 7.155 7.425 14.759 5.54 23.466-2.526 11.673-11.295 18.755-23.235 18.758m-78.307-71.715l-.972-.292-1.467 4.453 1.146.351 1.293-4.512m.222-37.693c0 4.019-.407 7.424.09 10.691.84 5.518 2.177 10.968 3.447 16.413 1.264 5.422 1.6 10.684-1.478 15.691-.503.818-.65 1.855-1.14 3.333 4.366-.459 5.708-3.295 6.387-6.147.656-2.751.858-5.757.535-8.567-.987-8.588-2.32-17.137-3.525-25.699-.31-2.208-.922-4.244-4.316-5.715m10.613 9.125c4.165.518 5.929 3.416 6.823 7.218.82 3.492 2.129 6.893 2.67 10.419.483 3.134-.251 6.211-3.235 9.445-1.954-7.557-.697-14.901-5.417-21.757 0 4.3-.18 7.584.039 10.842.375 5.612.719 11.208-1.365 16.575-.775 1.994-1.772 3.967-3.016 5.698-2.287 3.18-5.016 3.972-7.946 2.68-3.333-1.47-5.537-5.456-4.497-8.868 1.048-3.442 2.61-6.725 3.79-10.133.508-1.468 1.022-3.123.84-4.609-1-8.197-2.071-16.391-3.43-24.534-.485-2.903.874-4.968 2.252-6.946 1.025-1.47 2.785-2.049 4.665-.443 3.345 2.855 6.47 5.756 7.05 10.453.153 1.245.478 2.468.777 3.96m29.886 27.3c10.433 4.01 20.238 4.922 30.152 4.511 9.854-.408 19.692-1.198 29.681-1.829.497 3.839-2.649 4.223-4.708 4.858-3.419 1.054-7.034 1.635-10.608 1.99-11.334 1.127-22.676 1.685-33.9-1.053-4.33-1.056-8.106-2.865-10.617-8.477" fill="#000"/><path d="M181.71 167.734c-7.483-2.589-14.169-3.854-19.195 1.772-6.008 6.727-2.232 13.793 1.087 20.665-6.913-1.57-10.27-5.47-10.91-12.32-.813-8.713 1.584-12.736 9.544-16.014 7.271-2.993 13.4-1.375 19.474 5.897" fill="#FF499E"/><path d="M176.696 173.867l2.778-.862c3.149 5.262 2.078 8.958-3.672 12.304l.894-11.442" fill="#FF499E"/><path d="M87.914 92.377c3.395 1.471 4.006 3.507 4.316 5.715 1.206 8.562 2.538 17.111 3.526 25.699.322 2.81.12 5.816-.535 8.567-.68 2.852-2.022 5.688-6.388 6.147.491-1.478.638-2.515 1.141-3.333 3.078-5.006 2.742-10.269 1.477-15.691-1.269-5.445-2.605-10.895-3.445-16.413-.498-3.267-.092-6.672-.092-10.691m-.221 37.694l-1.293 4.512-1.146-.351 1.467-4.453.972.292" fill="#FFF"/></g></svg>