<svg id="Capa_1" data-name="Capa 1" xmlns="http://www.w3.org/2000/svg" viewBox="0 0 595.28 643.31"><defs><style>.cls-1{fill:#fff}</style></defs><path d="M418.48 193.72c30.11 39.06 4.82 114.93-35.34 124.22-1.41 7-2.9 14.21-4.34 21.47a139.29 139.29 0 01-28.59 61.37 12 12 0 00-2.48 8c.82 7.29-2.22 15.31 5.51 21.53 2.57 2.07 1.77 8.45 2.33 12.88.42 3.29.54 6.61.78 9.71l118.22 20.85c7 17.65 3.65 34.74 5.41 51.34 1.72 16.31 2.12 32.75 3.66 49.08 1.17 12.37-4.45 18.88-17.05 18.77q-30.81-.25-61.61-.29c-43 0-86-.16-129 .15-17.89.13-35.77 1.75-53.66 1.84-17.15.09-34.3-1.12-51.46-1.38-10.08-.15-20.19.9-30.26.62-20.5-.57-41-1.67-60.69-2.52-8.7-8.24-10.1-18-9.48-28.31.78-13 2-26.07 2.63-39.13.35-7.44-.18-14.93-.24-22.4 0-3.71-.67-7.64.33-11.08 2.45-8.39 6.57-14.1 16.61-16.85C123 464.45 157 459.47 190.86 454c2.9-.46 5.79-1 10.27-1.74.12-7.5.61-14.86.27-22.18-.34-7.58 1.17-13.94 8.06-17.31.2-1.45.37-2.18.4-2.91.37-12.5-5-22.65-12.21-32.48-9.56-13-12.8-28.46-14.78-44.17-.47-3.66-.89-7.32-1.45-11.93-18.36 5.38-27.36-5.65-34.93-18.92A89.63 89.63 0 01134.41 262c-1-21.06.29-41.84 5.66-62.26 1.48-5.64 2.47-12 10.61-14.19l12.74 19.86c.69-3.63 1.38-5.84 1.49-8.07.85-17.15.12-34.54 2.69-51.42 4.79-31.58 22.22-53.93 53.26-64.35a213.4 213.4 0 0172.8-10.78c15.32.31 30.72 1.64 45.94.54 23-1.67 46.35-1 68.53-9.06 3.05-1.11 6.52-1.09 10.45-1.7 4.61 11.94 4.15 24 2.95 36.22-3.88 39.75-16.41 77.32-28.51 115a10.79 10.79 0 00.09 2.75c9.64-5.86 14.8-17 25.37-20.82zm-270.16.77c-6.23 18.61-5.17 36.24-5 53.66a83.29 83.29 0 0014.39 46.49c4.59 6.78 10.16 11.81 18.5 13.46 3.53.71 6.88 2.31 9.52 3.23 3.73 22.27 6.3 43.7 18.76 61.82 10.82 15.75 23.53 30 38.81 41.71 14.27 10.95 30.7 14.23 47.81 10.67a99.12 99.12 0 0045.61-23c18.75-16.51 28.32-38.3 33.93-61.95 2.46-10.39 3.18-21.19 4.42-30 8.5-5.16 17.56-8.29 23.19-14.51 24.25-26.76 27.59-58.78 21.33-94.68l-41.48 36.66c-1-4.21-2.26-7.16-2.44-10.18-.27-4.84.18-9.72.25-14.59.25-15.64-4-30.34-10.17-44.45-3.62-8.24-9.63-14.57-19.15-15.49-19.79-1.9-37.24 2.49-49.17 20.07-1.58 2.33-3 4.81-5.24 8.57-2.46-4.34-4.23-7.49-6-10.62-6.91-12.05-16.19-20.57-31.1-20.36-7.81.11-15.72-.48-23.4.55-15.39 2.06-27.62 9.23-33.42 24.56-3.31 8.72-7.69 17.38-9 26.44-2.1 14.7-2.08 29.71-2.94 44.6-.29 4.91 1.38 10.11-2.58 16.77-13.9-22.77-20.55-47.35-35.43-69.43zM229.44 580l171.82-1.46c8.54-10.78 16.91-20.82 24.69-31.3s14-22.26 24.17-31.25c-1.74 11.58-8.28 21-13.19 31-5 10.28-10.57 20.33-16.88 32.37l46.46-2.19c.15-32.35 2.93-63.15-2.48-94.85-6.58-1-13.92-1.92-21.19-3.21-25.71-4.57-51.45-9-77-14.1-5.46-1.1-9.11.1-13.33 3a97.31 97.31 0 01-41.52 15.92c-5 .72-7.53-.48-9-6.2 15.64-5.17 31.8-7.63 44.42-17.41l.4-23.49-60.23 16.38c-.06 3.7-.73 8.62-.11 13.36 2 14.89-5 24.65-16.53 33-13.62 9.84-26.37 20.87-39.69 31.14-3.35 2.59-4.76 5.34-4.36 9.49 1.2 12.86 2.29 25.8 3.55 39.8zm-12.44-.24c.13-7.76.27-14 .33-20.29.08-7.46.17-14.93.09-22.39-.06-5.71 2.35-9.9 6.82-13.36 9.46-7.32 18.73-14.87 28.09-22.31L270.5 487c-14.61-9.36-7.49-24-10.23-36.17-18.28-6.92-37.16-12.07-52.77-28.4 1.05 10.63 1.51 18.73 2.83 26.69.43 2.54 2.68 5.39 4.9 6.91 9.22 6.3 18.78 12.1 28.14 18.2 1.62 1.05 2.88 2.64 5 4.62-7.93 2.18-13.65 0-19.06-3.54-6.26-4.1-12.66-8-18.67-12.44a12.38 12.38 0 00-10.39-2.36c-24.61 4.42-49.34 8.24-73.85 13.16-13.76 2.76-27.8 5.21-39.46 11-1.37 9.23-3.33 17.24-3.56 25.29-.3 10.41 1.51 20.88 1.09 31.28-.55 13.51 4.13 27.11-1.2 40.52l54-2.06c.28-7.76-4.66-11.55-8.81-15.49-6.76-6.43-14.06-12.29-20.84-18.7-3-2.84-7.31-5.59-4.45-12.68 10.31 6.23 20.07 12.17 29.88 18 10.75 6.42 21.49 12.82 20.44 27.83zm-.65-159.13c4.1 2.09 8 4.25 12 6.1 9.83 4.51 19.65 9 29.61 13.26 7 3 10.17 7.66 10 15.57-.19 7.26 1.21 14.56 1.95 22.24l8.07-.44c.83-10.91 1.64-21.51 2.4-31.3 21.5-3.72 41.06-9 59.32-17.56-.17-5.69-.31-10.66-.48-16.6-19.54 12.54-38 26.3-62.57 24.63-24.35-1.65-42-15.31-58.8-32.58-.54 5.79-.95 10.45-1.5 16.68z"/><path class="cls-1" d="M148.32 194.49c14.88 22.08 21.53 46.66 35.44 69.42 4-6.66 2.29-11.86 2.58-16.77.86-14.89.84-29.9 2.94-44.6 1.3-9.06 5.68-17.72 9-26.44 5.8-15.33 18-22.5 33.42-24.56 7.68-1 15.59-.44 23.4-.55 15-.2 24.19 8.32 31.11 20.38 1.8 3.13 3.57 6.28 6 10.62 2.29-3.76 3.66-6.24 5.24-8.57 11.93-17.58 29.38-22 49.17-20.07 9.52.92 15.53 7.25 19.15 15.49C372 183 376.21 197.65 376 213.29c-.07 4.87-.52 9.75-.25 14.59.18 3 1.39 6 2.44 10.18l41.48-36.66c6.26 35.9 2.92 67.92-21.33 94.68-5.63 6.22-14.69 9.35-23.19 14.51-1.24 8.77-2 19.57-4.42 30-5.61 23.65-15.18 45.44-33.93 61.95a99.12 99.12 0 01-45.61 23c-17.11 3.56-33.54.28-47.81-10.67-15.28-11.71-28-26-38.81-41.71-12.46-18.12-15-39.55-18.76-61.82-2.64-.92-6-2.52-9.52-3.23-8.34-1.65-13.91-6.68-18.5-13.46a83.29 83.29 0 01-14.39-46.49c-.25-17.43-1.31-35.06 4.92-53.67zm145.81 142.8a12 12 0 00-2.83-1.06c-17.7-.51-19.32-2-18.94-19.33s1.3-34.36 1.49-51.55c.18-15.93-7.71-28.08-19.88-37.46-5.29-4.07-11.57-6.83-17.34-10.27-3.53-2.1-6.87-2.44-10.45 0-9 6-18.05 11.84-26.92 18-1.08.75-1.17 2.92-2.34 6.15 3.65-1.48 5.65-2.11 7.49-3.06 5.32-2.72 10.59-5.55 15.86-8.36 5.43-2.89 10.49-2.79 15.63 1 6.9 5.12 14.1 9.84 21.15 14.75 5.63 3.91 8.56 9.1 8 16.16-.75 8.92-1.67 17.85-1.82 26.79-.24 14.14-.61 28.34.42 42.41.74 10.05 11.16 16.88 21.18 15.52 5.17-.75 9.24-2.89 9.3-9.69zM307 247.54l31.68-25.78 25.65 12.08c4.81-7.91 5-8.39-.87-11.71s-12.22-5.55-18-8.84c-6.55-3.71-12.36-2.29-17.64 1.88-7.88 6.23-15.4 12.91-23.07 19.42-4.94 4.17-4.44 8.06 2.25 12.95zm76.86 27.4l2 .14c-.94 6.28-1.89 12.57-3 19.88 9.26-5 13.35-10.29 10.69-17.18-3.9-10.11.54-16.88 5.73-24.32a191.71 191.71 0 0010.22-17.28c1-1.77 1.15-4 1.69-6a12 12 0 00-7.31 4.62q-13.56 17.73-26.9 35.64a87.81 87.81 0 00-5.57 8.35c-1.78 3.07-1 5.63 2.89 7.69zm-83-15.94c6.63 4.49 12 8.68 17.91 11.82 2.13 1.13 6.9.82 8.24-.75 5.92-6.89 13.82-6.07 21.4-6.84 3.31-.34 7.54 0 7.49-4.66-.06-5-4.58-4.09-7.69-4-13.4.37-26.81.89-40.19 1.64-2.23.12-4.35 1.65-7.18 2.79zM244.6 369.34c4.12.93 6.1 1.78 8.06 1.76 10.79-.16 21.57-.68 32.36-.78 9-.09 17.93.29 26.9.37 3.72 0 6.52-1.05 5.81-5.65-21.73-4.17-63.11-2.44-73.13 4.3zm-90.26-128.25c2.56 5.61 4.74 11.45 7.79 16.78 4 7 6.57 13.52 3.7 21.92-1.23 3.61.71 8.59 2.07 12.65.53 1.6 3.41 2.41 5.69 3.88-1.32-6.65-2.37-11.93-3.71-18.71 7.72 4.65 6.43 13.77 14.68 16.93.33-3.15 1.15-5.6.69-7.79-1.14-5.51-24.79-41.75-30.91-45.66zm55.59 16.14c3.5 6.35 8.16 5.42 12.28 5.61 4.77.21 9 .2 12.92 4.56 4.62 5.1 8.86 4.28 14.75 0 2-1.45 4.52-2.23 6.35-3.83 1.65-1.44 2.68-3.59 4-5.43-1.77-.88-3.54-2.51-5.32-2.52-10.35 0-20.71.24-31 .56-4.3.13-8.52.62-13.98 1.05zM229.44 580c-1.26-14.06-2.35-27-3.62-39.85-.4-4.15 1-6.9 4.36-9.49 13.32-10.27 26.07-21.3 39.69-31.14 11.55-8.36 18.48-18.12 16.53-33-.62-4.74.05-9.66.11-13.36l60.23-16.38-.4 23.49c-12.62 9.78-28.78 12.24-44.42 17.41 1.49 5.72 4 6.92 9 6.2A97.31 97.31 0 00352.46 468c4.22-2.87 7.87-4.07 13.33-3 25.6 5.12 51.34 9.53 77 14.1 7.27 1.29 14.61 2.22 21.19 3.21 5.41 31.7 2.63 62.5 2.48 94.85L420 579.35c6.31-12 11.84-22.09 16.88-32.37 4.91-10 11.45-19.39 13.19-31-10.21 9-16.37 20.74-24.17 31.25s-16.15 20.52-24.69 31.3zm154-30.68c7.64-12.06 1-32.06-11.8-35.48-15.31-4.09-34.3 10.92-32.9 26.7.54 6-1.17 9.79-5.35 13.57-3.1 2.82-6.83 5.79-5.92 12.53l15.32-9.24 24.51 4.2 5.14 7.63c4.11-7.31 7.76-13.81 11.42-20.3z"/><path class="cls-1" d="M217 579.76l-63.56-1.07c1.05-15-9.69-21.41-20.44-27.83-9.81-5.86-19.57-11.8-29.88-18-2.86 7.09 1.44 9.84 4.45 12.68 6.78 6.41 14.08 12.27 20.84 18.7 4.15 3.94 9.09 7.73 8.81 15.49l-54 2.06c5.33-13.41.65-27 1.2-40.52.42-10.4-1.39-20.87-1.09-31.28.23-8 2.19-16.06 3.56-25.29 11.66-5.82 25.7-8.27 39.46-11 24.51-4.92 49.24-8.74 73.85-13.16a12.38 12.38 0 0110.39 2.36c6 4.44 12.41 8.34 18.67 12.44 5.41 3.54 11.13 5.72 19.06 3.54-2.1-2-3.36-3.57-5-4.62-9.36-6.1-18.92-11.9-28.14-18.2-2.22-1.52-4.47-4.37-4.9-6.91-1.32-8-1.78-16.06-2.83-26.69 15.61 16.33 34.49 21.48 52.77 28.4C263 463 255.89 477.61 270.5 487l-18.17 14.44c-9.36 7.44-18.63 15-28.09 22.31-4.47 3.46-6.88 7.65-6.82 13.36.08 7.46 0 14.93-.09 22.39-.06 6.23-.2 12.5-.33 20.26z"/><path class="cls-1" d="M216.35 420.63c.55-6.23 1-10.89 1.47-16.68 16.77 17.27 34.45 30.93 58.8 32.58 24.55 1.67 43-12.09 62.57-24.63.17 5.94.31 10.91.48 16.6-18.26 8.55-37.82 13.84-59.32 17.56-.76 9.79-1.57 20.39-2.4 31.3l-8.07.44c-.74-7.68-2.14-15-1.95-22.24.21-7.91-2.91-12.58-10-15.57-10-4.22-19.78-8.75-29.61-13.26-3.99-1.85-7.87-4.01-11.97-6.1z"/><path d="M294.13 337.29c-.06 6.8-4.09 8.94-9.32 9.65-10 1.36-20.44-5.47-21.18-15.52-1-14.07-.66-28.27-.42-42.41.15-8.94 1.07-17.87 1.82-26.79.58-7.06-2.35-12.25-8-16.16-7.05-4.91-14.25-9.63-21.15-14.75-5.14-3.81-10.2-3.91-15.63-1-5.27 2.81-10.54 5.64-15.86 8.36-1.84.95-3.84 1.58-7.49 3.06 1.17-3.23 1.26-5.4 2.34-6.15 8.87-6.13 18-11.94 26.92-18 3.58-2.41 6.92-2.07 10.45 0 5.77 3.44 12.05 6.2 17.34 10.27 12.17 9.38 20.06 21.53 19.88 37.46-.19 17.19-1.12 34.36-1.49 51.55s1.24 18.82 18.94 19.33a12 12 0 012.85 1.1zM307 247.54c-6.7-4.89-7.2-8.78-2.28-12.95 7.67-6.51 15.19-13.19 23.07-19.42 5.28-4.17 11.09-5.59 17.64-1.88 5.81 3.29 12.22 5.54 18 8.84s5.68 3.8.87 11.71l-25.65-12.08zm76.87 27.4l-9.55 11.58c-3.93-2.06-4.67-4.62-2.89-7.69a87.81 87.81 0 015.57-8.35q13.38-17.88 26.9-35.64a12 12 0 017.31-4.62c-.54 2-.72 4.19-1.69 6a191.71 191.71 0 01-10.22 17.28c-5.19 7.44-9.63 14.21-5.73 24.32 2.66 6.89-1.43 12.19-10.69 17.18 1.1-7.31 2.05-13.6 3-19.88zM300.84 259c2.83-1.14 5-2.67 7.16-2.79 13.38-.75 26.79-1.27 40.19-1.64 3.11-.09 7.63-1 7.69 4 .05 4.67-4.18 4.32-7.49 4.66-7.58.77-15.48-.05-21.4 6.84-1.34 1.57-6.11 1.88-8.24.75-5.92-3.14-11.28-7.33-17.91-11.82zM244.6 369.34c10-6.74 51.39-8.47 73.13-4.3.71 4.6-2.09 5.69-5.81 5.65-9-.08-17.93-.46-26.9-.37-10.79.1-21.57.62-32.36.78-1.96.02-3.94-.83-8.06-1.76zm-90.26-128.25c6.12 3.92 29.77 40.15 30.91 45.66.46 2.19-.36 4.64-.69 7.79-8.25-3.16-7-12.28-14.68-16.93 1.34 6.78 2.39 12.06 3.71 18.71-2.28-1.47-5.16-2.28-5.69-3.88-1.36-4.06-3.3-9-2.07-12.65 2.87-8.4.29-15-3.7-21.92-3.05-5.33-5.23-11.17-7.79-16.78z"/><path d="M209.93 257.23c5.46-.43 9.68-.92 13.91-1.05 10.34-.32 20.7-.6 31-.56 1.78 0 3.55 1.64 5.32 2.52-1.3 1.84-2.33 4-4 5.43-1.83 1.6-4.36 2.38-6.35 3.83-5.89 4.28-10.13 5.1-14.75 0-3.94-4.36-8.15-4.35-12.92-4.56-4.05-.19-8.71.74-12.21-5.61zM383.84 549c-3.66 6.49-7.31 13-11.42 20.3l-5.14-7.63-24.51-4.2-15.32 9.24c-.91-6.74 2.82-9.71 5.92-12.53 4.18-3.78 5.89-7.56 5.35-13.57-1.4-15.78 17.59-30.79 32.9-26.7 12.79 3.42 19.44 23.42 11.79 35.48a22.49 22.49 0 01.25-3.3c2.35-10.49-.81-18.44-9.44-23.67-6.21-3.76-18.91-1.76-24.86 4.16-3.76 3.74-5.82 8.06-3.13 13.58 6.56-3.83 12.49-7.59 18.7-10.83 8.86-4.62 11.89-2.7 12.26 7.55.17 4.66-.11 9.34-.2 14.72 2-.8 2.91-1.2 3.86-1.56s1.99-.74 2.99-1.04zm-18.7-6.21c-5.87 3.32-10.48 5.94-15.77 9 8.49 4.81 8.49 4.81 18.27 2.34-.74-3.46-1.49-6.84-2.5-11.39z"/><path class="cls-1" d="M383.84 549c-1 .35-2 .67-3 1s-1.89.76-3.86 1.56c.09-5.38.37-10.06.2-14.72-.37-10.25-3.4-12.17-12.26-7.55-6.21 3.24-12.14 7-18.7 10.83-2.69-5.52-.63-9.84 3.13-13.58 5.95-5.92 18.65-7.92 24.86-4.16 8.63 5.23 11.79 13.18 9.44 23.67a22.49 22.49 0 00-.25 3.3z"/><path class="cls-1" d="M365.14 542.74c1 4.55 1.76 7.93 2.5 11.29-9.78 2.47-9.78 2.47-18.27-2.34 5.29-3.01 9.9-5.63 15.77-8.95z"/></svg>