<svg id="Capa_1" data-name="Capa 1" xmlns="http://www.w3.org/2000/svg" viewBox="0 0 595.28 643.31"><defs><style>.cls-1{fill:#fff;}</style></defs><title>iconosMesa de trabajo 1 copia 3</title><path d="M538.78,570c-19.3-2.89-38.47,2.47-57.95,4.81-12.48,1.5-25,3-37.59,3.38-41.56,1.3-83.15,1.67-124.7,3.3-18.84.74-37.55,4.26-56.39,5.28-20,1.07-40.18,1.88-60.15.64-34-2.13-67.93-5.67-101.82-9.21-10.26-1.07-20.43-3.65-30.41-6.36C61.53,569.61,55,564.67,54,555.3c-1.9-18.43-5.21-36.93-4.75-55.32A289.69,289.69,0,0,1,61.68,423.3c5.84-19.32,16.94-34.64,32-47.3,8.2-6.91,17.27-12.85,26.29-18.68a13.63,13.63,0,0,0,6.4-8.4c3.41-12.05,8.64-17,21.16-17.18,8.44-.15,14.37-1.36,16.31-10.75.93-4.51,5.12-6.25,9.39-6.66,3.66-.36,7.39-.08,11.88-.08-.41-16.56-6-32.3-8.81-48.68-23.44,10.86-46.27,11-69.34-.36-18.58-9.14-33.53-22-43.82-39.9Q51.47,205,40.8,184.21c-2.3-4.48-3.21-9.67-5.26-16.11,16.76-2.44,31.95.19,47.09,1.81s30.37,2.93,45.27,5.83c15.25,3,30.16,7.73,45.85,11.88a61.5,61.5,0,0,0,1.94-7.08c4.54-28.67,22.67-46.75,46.88-60,4.53-2.48,8.46-4.61,11.6-9.43,3.26-5,9-9,14.43-11.83,30-15.82,60.78-18.78,91.84-3,6.13,3.1,10.95,8.87,17.14,11.74,5.91,2.75,13.38,2.17,19.21,5,29.55,14.48,47.73,38.15,54.7,70.37.29,1.33.53,2.68.9,4.62,16.67-5.77,32.6-11.83,48.87-16.75,16.69-5,33.62-9.41,50.63-13.2,9-2,18.37-2.29,27.85,1.82-1.72,4-2.84,8-5,11.43-13.42,21.4-26.45,43.11-44.18,61.42s-39.06,29.35-65.23,29c-4,0-8-.82-13.21-1.38-.67,3.7-2.29,7.65-1.89,11.38,1.57,14.45-1.32,28.08-6.24,41.49a15,15,0,0,0-.48,3.22c6.14,1.06,13,.68,17.92,3.53s8.29,9,13.45,15c1,.15,3.87.81,6.77,1,6.91.51,12.1,3.41,14.67,10.09,1.46,3.81,4,6.16,8.1,6.71,28,3.81,40.52,24.1,48.89,47.62,4.33,12.16,6,25.26,8.7,38,1.2,5.7.83,11.54,5.59,16.45,2,2,1.23,7.08,1.11,10.73-.4,11.84-1.29,23.67-1.6,35.51-.45,17.09-.6,34.18-.78,51.28C546.29,559,544.38,564.8,538.78,570ZM76,190.26a43.58,43.58,0,0,1,23.72,3.38c16.46,6.84,32.9,13.77,49,21.35,8,3.77,15.37,9,22.95,13.68,6.88,4.26,9.73,10.89,10.72,18.62.65,5.11,1.59,10.19,2.35,15.29.83,5.49,3.18,11.35,2.05,16.42-1.95,8.74,1.18,16.06,3.53,23.73,2,6.39,4.56,12.57,6.59,18.94,8.18,25.59,27.13,39,51.84,45.75,2.57.71,5.5.1,8.33.1V349.76c2,5.48,2.61,8.9,4.35,11.57,4.18,6.4,7.67,14.24,13.61,18.32,20.58,14.1,51.77,9.56,69.46-8.33,6.64-6.72,10.19-14.31,10.66-23.68.2-4.07,1.33-8.1,2.05-12.14l2.56.48c2.07,9.49-3.87,18.4-3.72,29.77,11.38-6.24,21.86-11.07,31.32-17.41A67.37,67.37,0,0,0,411.81,320c5.88-13,9.75-26.45,10.14-40.81.25-8.9,1.15-17.8,1-26.68-.39-23.81,10.43-40.59,31.65-50.49,13.45-6.27,27.29-11.71,41.12-17.11a131.5,131.5,0,0,1,18.22-5.12c2.75-.63,6.09-1.08,7.25,4.41-2.32,1-4.75,2.47-7.37,3.13-7.93,2-16.27,2.77-23.82,5.66-13.8,5.29-27.73,10.75-40.54,18-13.55,7.69-18.53,20.46-15,36a38,38,0,0,0,23.14,3.36c19.48-2.81,36.69-10.59,48.94-26.13,14.23-18,27.16-37.1,40.6-55.76.2-.28-.31-1.09-.91-2.95L427.3,195.91c-4-10.06-7.55-21-12.56-31.23-12-24.43-31-41.26-56.85-50.22a57,57,0,0,1-9.09-3.89c-4.78-2.64-9-6.52-14.07-8.33-31.38-11.29-61.4-5.77-90.54,8.3a20.33,20.33,0,0,0-4.59,3.12c-7.76,6.82-15,14.24-23.24,20.49-16.55,12.67-27.7,28.71-33.21,48.79-1.22,4.45-2.41,8.55,1.58,12.34.7.67.23,2.58.39,5.42A664.49,664.49,0,0,0,47.55,176.37c3.16,5.58,4.92,9.19,7.13,12.48,6.63,9.88,13.59,19.53,20.13,29.46,8.93,13.54,20.58,24,33.59,33.66,21.2,15.78,43.39,14.2,66.55,7.66,1.27-16-1-21.31-12.86-29.65C136.56,212,107.08,202.73,76,190.26ZM426.76,563.34c-6.56-10.84-14.87-16.9-23.22-22.92Q367,514,330.36,487.67c-35.87-25.79-67.31-56.08-93.33-91.87-8.94-12.3-17.18-25.19-27-36.79-8.45-10-16.77-19.71-20.73-32.53-.57-1.87-3.55-3.72-5.73-4.23-7.65-1.8-11.28.13-14.43,7.93-2.83,7-6.93,11.27-15.07,10.05a22.51,22.51,0,0,0-5.56.08c-8.41.9-15.22,3.8-16.38,13.53-.63,5.25-3.86,8.42-8.15,11.26-7.73,5.13-15.14,10.75-22.63,16.25-25,18.37-36.1,44.25-36.63,74.17C64.2,487,66,518.58,66.86,550.11c.09,3.25.92,6.47,1.49,10.2,9.56,1.07,18.7,2.42,27.89,3.06q33.26,2.32,66.54,4.1c31.46,1.73,62.91,4.12,94.39,4.59,18.44.27,36.9-2.92,55.39-4.07,28.48-1.77,57-3.23,85.5-4.59C406.93,563,415.83,563.34,426.76,563.34ZM335,474.85c9.85,6.62,18.82,12.49,27.63,18.61,19.21,13.35,38.63,26.43,57.38,40.4,10,7.45,18.6,16.67,23.79,29.95l88.73-11.24c.37-3.86,1-7.83,1.07-11.8.15-11.88-.23-23.77.14-35.64.4-12.59,2.87-25.28,1.88-37.72-1.9-23.68-5-47.52-13.58-69.77-7-18.11-18.39-33.27-40.13-36-5-.64-9.53-3.17-11.3-8.05-3.4-9.34-10.12-9.53-18.37-7.8-12,29-29.16,54.78-49.62,78.54a26.18,26.18,0,0,1,3.43-10.06c8.84-15.49,17.89-30.86,26.68-46.38,4-7.11,8-14.3,11.31-21.74,3.63-8.13-4.34-21.49-13-21.66-7-.13-13.8.79-18.34,7.91-2.93,4.61-7.62,8.08-11.22,12.31-2.32,2.74-5,5.67-6,9C382.38,397,364.47,438,335,474.85Zm27.84-64.05c-2.72-.74-3.46-1.19-4.13-1.09-20.95,2.91-41.31-.55-61.31-6.23-17.61-5-33.65-13.48-48.88-23.64-9.73-6.49-9.92-6.2-17.73-6.69,29.22,32.88,56,67.64,93.43,93l17.22-23c-21.37-6.56-40-16.38-57.79-27.91,6.87,1.66,13.36,4.33,20.09,6q20.36,5.16,41,9.32a8.06,8.06,0,0,0,6.64-2.43C355.39,423,358.7,417.24,362.88,410.8Zm-47.62-14.07c8.68,1,17.33,2.64,26,2.95,9.17.33,18.39-.58,27.6-.95,4.29-8.19,8.71-16.31,12.82-24.58,2.71-5.47,4.95-11.17,7.77-17.59-13.19,5.5-24.75,10.3-36.28,15.15a7.4,7.4,0,0,0-2.69,1.88C341.24,384.46,328.22,389,315.26,396.73Z"/><path class="cls-1" d="M76,190.26C107.08,202.73,136.56,212,162.09,230c11.86,8.34,14.13,13.69,12.86,29.65-23.16,6.54-45.35,8.12-66.55-7.66-13-9.68-24.66-20.12-33.59-33.66-6.54-9.93-13.5-19.58-20.13-29.46-2.21-3.29-4-6.9-7.13-12.48A664.49,664.49,0,0,1,185.12,200.7c-.16-2.84.31-4.75-.39-5.42-4-3.79-2.8-7.89-1.58-12.34,5.51-20.08,16.66-36.12,33.21-48.79,8.19-6.25,15.48-13.67,23.24-20.49a20.33,20.33,0,0,1,4.59-3.12c29.14-14.07,59.16-19.59,90.54-8.3,5,1.81,9.29,5.69,14.07,8.33a57,57,0,0,0,9.09,3.89c25.84,9,44.87,25.79,56.85,50.22,5,10.22,8.56,21.17,12.56,31.23l118.89-30.42c.6,1.86,1.11,2.67.91,2.95-13.44,18.66-26.37,37.72-40.6,55.76-12.25,15.54-29.46,23.32-48.94,26.13A38,38,0,0,1,434.42,247c-3.49-15.52,1.49-28.29,15-36,12.81-7.26,26.74-12.72,40.54-18,7.55-2.89,15.89-3.67,23.82-5.66,2.62-.66,5-2.12,7.37-3.13-1.16-5.49-4.5-5-7.25-4.41a131.5,131.5,0,0,0-18.22,5.12c-13.83,5.4-27.67,10.84-41.12,17.11-21.22,9.9-32,26.68-31.65,50.49.15,8.88-.75,17.78-1,26.68-.39,14.36-4.26,27.82-10.14,40.81a67.37,67.37,0,0,1-24.45,28.35c-9.46,6.34-19.94,11.17-31.32,17.41-.15-11.37,5.79-20.28,3.72-29.77l-2.56-.48c-.72,4-1.85,8.07-2.05,12.14-.47,9.37-4,17-10.66,23.68-17.69,17.89-48.88,22.43-69.46,8.33-5.94-4.08-9.43-11.92-13.61-18.32-1.74-2.67-2.35-6.09-4.35-11.57v17.76c-2.83,0-5.76.61-8.33-.1-24.71-6.76-43.66-20.16-51.84-45.75-2-6.37-4.63-12.55-6.59-18.94-2.35-7.67-5.48-15-3.53-23.73,1.13-5.07-1.22-10.93-2.05-16.42-.76-5.1-1.7-10.18-2.35-15.29-1-7.73-3.84-14.36-10.72-18.62-7.58-4.68-14.93-9.91-22.95-13.68-16.12-7.58-32.56-14.51-49-21.35A43.58,43.58,0,0,0,76,190.26ZM338.86,233.6c1.2-3,2.31-6.14,3.64-9.13,4.07-9.16,8.29-18.25,12.29-27.44.69-1.58.55-3.52.8-5.29-7.88,10.84-14.22,22.08-20.33,33.45-2.2,4.1-1,7.14,3.89,8.09-3,11.37.51,21.94,4.05,32.46,2.05,6.1,5.26,11.37,11.15,14.73A37.58,37.58,0,0,0,402.47,271,18,18,0,0,0,406,255c-7.7,22.57-32.59,30.83-51.65,16.26,5,0,8.52.25,12,0,11.35-.94,20.67-5.8,27.13-15.31,8.32-12.26,5.11-26-7.53-33.44a33.12,33.12,0,0,0-41.29,6.16A60.86,60.86,0,0,1,338.86,233.6Zm-61.92,9.64c1.82,12.63-5.56,20.09-14,23.79-14.94,6.53-26.87-1.57-37-13.34-2.46,5.67-.18,9.49,2.36,13.08,7.62,10.75,19.68,10.71,32.95,11.69-10.83,8.22-21.12,7.38-31.23,5.23-11.12-2.36-15.81-12.71-23-21.83,1.95,18,12.18,28.48,28.56,30.74S267.32,286,273,271c1.7-4.49,2.89-9.25,5.11-13.46,5.53-10.45,1.5-19-5.6-26.16-8.36-8.45-19.13-11.3-30.78-8.84-12.07,2.56-21,15.16-19.59,26C239.31,239,257.29,237.12,276.94,243.24ZM399.6,195.57c-1.09-12.56-6.24-19.49-17.45-22.16a71,71,0,0,0-23-1.88c-9.89,1-19.66,3.61-29.33,6.1-41.27,10.61-28.14,12-65.73-2.25a48.92,48.92,0,0,0-55.4,14.71c-1.38,1.67-2,4-3.67,7.3,6.21-5.19,10.66-9.81,15.93-13.11,11.53-7.23,24.4-8.29,37.57-6.13a56.54,56.54,0,0,1,11.79,3.22c17.59,7,35.27,6.84,53.38,2,15.4-4.13,31-7.3,47.17-6.8,11.44.35,20,4.63,25.79,14.44C397.56,192.55,398.61,194,399.6,195.57ZM331,280.2c-5.57,2.9-9.66,4.63-13.13,7.2-.57.42,1.59,4.51,2.67,7.39,4.45-2.2,7.66-3.33,10.34-5.2,9.22-6.42,9.17-23.75.08-28.8-10.17-5.64-31.59-3.47-40.19,4.08-6.63,5.82-8.43,17.81-3,24.19,1.85,2.15,5.55,3.43,8.52,3.69,4.05.35,5.52-2.69,5.51-7.21l-11.22-3.09c-1-11,.61-14.61,9.94-16.87,6-1.45,12.5-1.43,18.68-.94C331.29,265.6,333.05,268.57,331,280.2Zm-68.55,48.6c19.11,9.66,78.81,5,92.66-7.29C323.7,328.73,293.26,330,262.47,328.8Zm45.8-152.14c7.43-11.16,3.78-44.21-7.12-68.16,1.63,13.21,2.33,24.29,4.49,35.07C307.75,154.06,303.4,165.2,308.27,176.66Zm-61.68-50.81c-2.6,6.49-1,14.54,5.71,32.22.75,2,2.7,3.5,4.09,5.23C257.08,149.36,253.18,137.23,246.59,125.85Zm65.86,106.84c4.09-13.34,3.12-26.54-1.28-39.6C310.1,206.31,309,219.52,312.45,232.69Zm48.17,83.81,3.24-1.79c-2.21-11.74-10.34-19.73-19.37-27.2,3.52,8.37,8.08,16.14,12.69,23.87C358.23,313.14,359.47,314.8,360.62,316.5Zm-73.81-81c1-6.53-.68-9.84-17.95-35.79C270.69,211.61,280.35,230.86,286.81,235.54Zm5.37,110.18c7.64,3.69,20.8,4.52,25,1.68,1-.7,1-2.95,1.67-5.09C309.31,341,301.06,341.61,292.18,345.72Zm64.24-217.47c-.67,11.34-5.78,22.61-2,34.21C357.76,151.22,358.78,139.86,356.42,128.25ZM274.54,286.57c-10.28,7.71-15.65,19.66-13.68,31.05C265.54,307,269.87,297.17,274.54,286.57ZM258.9,251.68c.28-5.43-1.06-8.3-4.71-7.6a9.4,9.4,0,0,0-6.1,4.7c-1.3,3.16,2.93,8.86,5.5,7.88S257.86,252.72,258.9,251.68Zm-65.66-.83c8.14,2.55,13.95,2.7,21.19-1.58C206.86,245.37,201.06,245.59,193.24,250.85ZM402.93,232.9c7.55,0,13.25.47,18-4.33C414,224,411.11,224.53,402.93,232.9Zm-208.88,5.88c5,.82,9.45,5.29,15.74,2.38C203.94,235.06,201.8,234.69,194.05,238.78Zm210.76,3.73c4,.83,8.43,3.92,12.63-1.32C412.44,237.48,408.6,239,404.81,242.51Zm-207-78c3.2,9.8,3.2,9.8,10.35,12.36ZM393.7,167c4.89-4.77,4.89-4.77,3.66-10.73C394.59,159.69,391.45,162.13,393.7,167Z"/><path class="cls-1" d="M426.76,563.34c-10.93,0-19.83-.36-28.7.06-28.51,1.36-57,2.82-85.5,4.59-18.49,1.15-36.95,4.34-55.39,4.07-31.48-.47-62.93-2.86-94.39-4.59q-33.28-1.83-66.54-4.1c-9.19-.64-18.33-2-27.89-3.06-.57-3.73-1.4-6.95-1.49-10.2C66,518.58,64.2,487,64.75,455.52c.53-29.92,11.59-55.8,36.63-74.17,7.49-5.5,14.9-11.12,22.63-16.25,4.29-2.84,7.52-6,8.15-11.26,1.16-9.73,8-12.63,16.38-13.53a22.51,22.51,0,0,1,5.56-.08c8.14,1.22,12.24-3.06,15.07-10.05,3.15-7.8,6.78-9.73,14.43-7.93,2.18.51,5.16,2.36,5.73,4.23,4,12.82,12.28,22.51,20.73,32.53,9.79,11.6,18,24.49,27,36.79,26,35.79,57.46,66.08,93.33,91.87Q367,514,403.54,540.42C411.89,546.44,420.2,552.5,426.76,563.34Zm-77.19-26.78c.18-1.12.37-2.25.55-3.37-9.34-3.43-18.67-6.91-28-10.28-12.55-4.51-25.18-8.81-37.69-13.45-13.19-4.9-26.29-10.07-39.4-15.19-5.17-2-10.4-4-15.37-6.43-18.95-9.36-37.8-18.95-56.73-28.37-2.8-1.4-5.8-2.4-8.71-3.58,2.16,3.61,5.12,5.6,8.12,7.54q23.33,15.1,46.66,30.18c9.36,6.06,18.9,11.62,29.82,14.65a134.37,134.37,0,0,1,20.87,7.65c17.95,8.41,37,13.21,56.17,17.43C333.6,535.06,341.65,535.52,349.57,536.56Zm-93-64c.35-8.77-3.41-11.9-7.06-14.94-6-5-11.93-10-18.16-14.63-18.27-13.6-34.18-29.44-47-48.3a52.87,52.87,0,0,0-4-4.7C196,425.67,223.25,450.4,256.55,472.54Z"/><path class="cls-1" d="M335,474.85C364.47,438,382.38,397,395.52,353.66c1-3.3,3.68-6.23,6-9,3.6-4.23,8.29-7.7,11.22-12.31,4.54-7.12,11.33-8,18.34-7.91,8.66.17,16.63,13.53,13,21.66-3.32,7.44-7.29,14.63-11.31,21.74-8.79,15.52-17.84,30.89-26.68,46.38a26.18,26.18,0,0,0-3.43,10.06c20.46-23.76,37.61-49.52,49.62-78.54,8.25-1.73,15-1.54,18.37,7.8,1.77,4.88,6.27,7.41,11.3,8.05,21.74,2.75,33.16,17.91,40.13,36,8.56,22.25,11.68,46.09,13.58,69.77,1,12.44-1.48,25.13-1.88,37.72-.37,11.87,0,23.76-.14,35.64,0,4-.7,7.94-1.07,11.8l-88.73,11.24c-5.19-13.28-13.79-22.5-23.79-29.95-18.75-14-38.17-27.05-57.38-40.4C353.86,487.34,344.89,481.47,335,474.85ZM471.2,401.73l-1.54-1.41a20.83,20.83,0,0,0-2.54,2.12q-30.39,34.72-60.7,69.53c-1.94,2.24-3.3,5-5.74,8.74,13.35-.16,20.66-7,26.66-15.06,12.62-16.94,24.76-34.25,36.92-51.54C467,410.26,468.91,405.87,471.2,401.73Z"/><path class="cls-1" d="M362.88,410.8c-4.18,6.44-7.49,12.15-11.5,17.32a8.06,8.06,0,0,1-6.64,2.43q-20.58-4.2-41-9.32c-6.73-1.71-13.22-4.38-20.09-6,17.79,11.53,36.42,21.35,57.79,27.91l-17.22,23c-37.47-25.35-64.21-60.11-93.43-93,7.81.49,8,.2,17.73,6.69,15.23,10.16,31.27,18.64,48.88,23.64,20,5.68,40.36,9.14,61.31,6.23C359.42,409.61,360.16,410.06,362.88,410.8Z"/><path class="cls-1" d="M315.26,396.73c13-7.69,26-12.27,35.26-23.14a7.4,7.4,0,0,1,2.69-1.88c11.53-4.85,23.09-9.65,36.28-15.15-2.82,6.42-5.06,12.12-7.77,17.59-4.11,8.27-8.53,16.39-12.82,24.58-9.21.37-18.43,1.28-27.6.95C332.59,399.37,323.94,397.76,315.26,396.73Z"/><path d="M276.94,243.24c-19.65-6.12-37.63-4.26-54.8,5.3-1.41-10.8,7.52-23.4,19.59-26,11.65-2.46,22.42.39,30.78,8.84,7.1,7.19,11.13,15.71,5.6,26.16-2.22,4.21-3.41,9-5.11,13.46-5.68,15-21.06,23.83-37.48,21.56S208.91,279.87,207,261.86c7.2,9.12,11.89,19.47,23,21.83,10.11,2.15,20.4,3,31.23-5.23-13.27-1-25.33-.94-32.95-11.69-2.54-3.59-4.82-7.41-2.36-13.08C236,265.46,248,273.56,262.91,267,271.38,263.33,278.76,255.87,276.94,243.24Zm-16.59-8.34c-8.82-3.42-17.6-4.94-28.13,2Z"/><path d="M338.84,233.63a63.36,63.36,0,0,0,5.83-5A33.12,33.12,0,0,1,386,222.5c12.64,7.4,15.85,21.18,7.53,33.44-6.46,9.51-15.78,14.37-27.13,15.31-3.51.29-7.06,0-12,0C373.39,285.86,398.28,277.6,406,255A18,18,0,0,1,402.47,271a37.58,37.58,0,0,1-48.12,9.51c-5.89-3.36-9.1-8.63-11.15-14.73-3.54-10.52-7.1-21.09-4.05-32.46ZM390,238.68c-14.63-5.7-29.24-3.64-43.69,1.66-1.58.58-3.12,3.27-3.35,5.15-.65,5.36,7.74,17.89,12.71,19.74C370.4,270.74,390.55,255.78,390,238.68Zm-38.79-6.52,27.42-2.9C368,222.73,358.55,223.76,351.16,232.16Z"/><path d="M399.6,195.57c-1-1.53-2-3-3-4.58-5.81-9.81-14.35-14.09-25.79-14.44-16.2-.5-31.77,2.67-47.17,6.8-18.11,4.86-35.79,5.05-53.38-2a56.54,56.54,0,0,0-11.79-3.22c-13.17-2.16-26-1.1-37.57,6.13-5.27,3.3-9.72,7.92-15.93,13.11,1.65-3.34,2.29-5.63,3.67-7.3a48.92,48.92,0,0,1,55.4-14.71c37.59,14.21,24.46,12.86,65.73,2.25,9.67-2.49,19.44-5.13,29.33-6.1a71,71,0,0,1,23,1.88C393.36,176.08,398.51,183,399.6,195.57Z"/><path d="M331,280.2c2-11.63.27-14.6-11.75-15.56-6.18-.49-12.71-.51-18.68.94-9.33,2.26-11,5.87-9.94,16.87l11.22,3.09c0,4.52-1.46,7.56-5.51,7.21-3-.26-6.67-1.54-8.52-3.69-5.48-6.38-3.68-18.37,3-24.19,8.6-7.55,30-9.72,40.19-4.08,9.09,5,9.14,22.38-.08,28.8-2.68,1.87-5.89,3-10.34,5.2-1.08-2.88-3.24-7-2.67-7.39C321.36,284.83,325.45,283.1,331,280.2Z"/><path d="M262.47,328.8c30.79,1.21,61.23-.07,92.66-7.29C341.28,333.78,281.58,338.46,262.47,328.8Z"/><path d="M308.27,176.66c-4.87-11.46-.52-22.6-2.63-33.09-2.16-10.78-2.86-21.86-4.49-35.07C312.05,132.45,315.7,165.5,308.27,176.66Z"/><path d="M246.59,125.85c6.59,11.38,10.49,23.51,9.8,37.45-1.39-1.73-3.34-3.25-4.09-5.23C245.61,140.39,244,132.34,246.59,125.85Z"/><path d="M339.15,233.28c-4.92-.95-6.09-4-3.89-8.09,6.11-11.37,12.45-22.61,20.33-33.45-.25,1.77-.11,3.71-.8,5.29-4,9.19-8.22,18.28-12.29,27.44-1.33,3-2.44,6.08-3.65,9.15Z"/><path d="M312.45,232.69c-3.49-13.17-2.35-26.38-1.28-39.6C315.57,206.15,316.54,219.35,312.45,232.69Z"/><path d="M360.62,316.5c-1.15-1.7-2.39-3.36-3.44-5.12-4.61-7.73-9.17-15.5-12.69-23.87,9,7.47,17.16,15.46,19.37,27.2Z"/><path d="M286.81,235.54c-6.46-4.68-16.12-23.93-17.95-35.79C286.13,225.7,287.79,229,286.81,235.54Z"/><path d="M292.18,345.72c8.88-4.11,17.13-4.75,26.66-3.41-.65,2.14-.64,4.39-1.67,5.09C313,350.24,299.82,349.41,292.18,345.72Z"/><path d="M356.42,128.25c2.36,11.61,1.34,23-2,34.21C350.64,150.86,355.75,139.59,356.42,128.25Z"/><path d="M274.54,286.57c-4.67,10.6-9,20.44-13.68,31.05C258.89,306.23,264.26,294.28,274.54,286.57Z"/><path d="M258.9,251.68c-1,1-2.79,4-5.31,5s-6.8-4.72-5.5-7.88a9.4,9.4,0,0,1,6.1-4.7C257.84,243.38,259.18,246.25,258.9,251.68Z"/><path d="M193.24,250.85c7.82-5.26,13.62-5.48,21.19-1.58C207.19,253.55,201.38,253.4,193.24,250.85Z"/><path d="M402.93,232.9c8.18-8.37,11-8.91,18-4.33C416.18,233.37,410.48,232.86,402.93,232.9Z"/><path d="M194.05,238.78c7.75-4.09,9.89-3.72,15.74,2.38C203.5,244.07,199.09,239.6,194.05,238.78Z"/><path d="M404.81,242.51c3.79-3.55,7.63-5,12.63-1.32C413.24,246.43,408.79,243.34,404.81,242.51Z"/><path d="M197.83,164.54l10.35,12.36C201,174.34,201,174.34,197.83,164.54Z"/><path d="M393.7,167c-2.25-4.82.89-7.26,3.66-10.73C398.59,162.18,398.59,162.18,393.7,167Z"/><path d="M349.57,536.56c-7.92-1-16-1.5-23.74-3.22-19.19-4.22-38.22-9-56.17-17.43a134.37,134.37,0,0,0-20.87-7.65c-10.92-3-20.46-8.59-29.82-14.65q-23.33-15.11-46.66-30.18c-3-1.94-6-3.93-8.12-7.54,2.91,1.18,5.91,2.18,8.71,3.58,18.93,9.42,37.78,19,56.73,28.37,5,2.45,10.2,4.4,15.37,6.43,13.11,5.12,26.21,10.29,39.4,15.19,12.51,4.64,25.14,8.94,37.69,13.45,9.36,3.37,18.69,6.85,28,10.28C349.94,534.31,349.75,535.44,349.57,536.56Z"/><path d="M256.55,472.54C223.25,450.4,196,425.67,180.24,390a52.87,52.87,0,0,1,4,4.7c12.86,18.86,28.77,34.7,47,48.3,6.23,4.64,12.2,9.64,18.16,14.63C253.14,460.64,256.9,463.77,256.55,472.54Z"/><path d="M471.2,401.73c-2.29,4.14-4.24,8.53-6.94,12.38-12.16,17.29-24.3,34.6-36.92,51.54-6,8.06-13.31,14.9-26.66,15.06,2.44-3.75,3.8-6.5,5.74-8.74q30.25-34.85,60.7-69.53a20.83,20.83,0,0,1,2.54-2.12Z"/><path class="cls-1" d="M260.35,234.9l-28.13,2C242.75,230,251.53,231.48,260.35,234.9Z"/><path class="cls-1" d="M390,238.68c.6,17.1-19.55,32.06-34.33,26.55-5-1.85-13.36-14.38-12.71-19.74.23-1.88,1.77-4.57,3.35-5.15C360.71,235,375.32,233,390,238.68Zm-20.66,9.66c.6-5.08-1.57-8.12-4.77-7.5-2.52.5-5.57,2.22-6.8,4.33-1.47,2.5,3.33,8.09,6.38,7.31C366.43,251.87,368.23,249.24,369.29,248.34Z"/><path class="cls-1" d="M351.16,232.16c7.39-8.4,16.82-9.43,27.42-2.9Z"/><path d="M369.29,248.34c-1.06.9-2.86,3.53-5.19,4.14-3.05.78-7.85-4.81-6.38-7.31,1.23-2.11,4.28-3.83,6.8-4.33C367.72,240.22,369.89,243.26,369.29,248.34Z"/></svg>