<?xml version="1.0" encoding="UTF-8"?>
<svg width="300px" height="300px" viewBox="0 0 300 300" version="1.1" xmlns="http://www.w3.org/2000/svg" xmlns:xlink="http://www.w3.org/1999/xlink">
    <title>box</title>
    <g id="box" stroke="none" stroke-width="1" fill="none" fill-rule="evenodd">
        <g id="Group-9" transform="translate(45.000000, 64.000000)">
            <path d="M114.152,62.866 C114.455,62.789 114.757,62.711 115.06,62.634 C114.84,61.449 114.62,60.265 114.399,59.081 C113.959,59.196 113.519,59.311 113.078,59.426 C113.436,60.573 113.794,61.72 114.152,62.866 M102.107,44.008 C102.422,39.125 102.005,38.316 98.4464,36.258 C99.8084,39.14 100.957,41.574 102.107,44.008 M109.466,47.329 C109.048,47.366 108.629,47.403 108.21,47.44 C108.05,48.966 107.641,50.528 107.853,52 C107.94,52.606 109.365,53.018 110.181,53.519 C110.641,52.673 111.614,51.703 111.448,51.006 C111.135,49.698 110.164,48.546 109.466,47.329 M149.093,56.954 C159.126,58.93 168.958,60.867 178.947,62.834 C186.769,52.194 194.324,41.916 201.86,31.664 C179.211,23.765 157.134,16.066 134.833,8.289 C132.527,11.992 130.278,15.604 127.798,19.588 C141.274,28.496 146.303,42.01 149.093,56.954 M160.437,105.909 C159.29,106.046 158.163,106.496 157.227,106.241 C151.557,104.702 146.19,102.296 145.429,93.964 C144.413,82.839 143.903,71.67 142.989,60.535 C142.564,55.356 142.418,50.044 139.678,45.356 C137.858,42.241 136.12,39.054 134.024,36.13 C129.711,30.115 125.528,23.778 117.348,22.518 C111.291,21.584 105.217,20.694 99.1214,20.099 C96.7624,19.869 94.1244,19.577 91.6974,21.516 C93.3604,25.042 94.9634,28.44 96.4124,31.514 C98.6874,32.154 100.735,32.367 102.412,33.269 C107.684,36.103 111.23,40.582 113.769,45.95 C119.564,58.203 121.209,71.488 123.509,84.616 C124.345,89.39 124.497,94.479 126.353,98.83 C128.51,103.885 131.77,108.654 135.37,112.843 C137.719,115.577 141.339,117.468 144.719,119.013 C151.496,122.11 161.789,116.799 165.921,111.53 C168.284,108.516 168.309,104.194 166.456,101.262 C165.038,99.02 161.415,98.13 158.713,96.756 C156.939,95.854 155.085,95.623 152.981,96.787 C154.203,99.129 155.41,100.761 157.896,100.996 C161.087,101.298 160.942,103.368 160.437,105.909 M7.1564,32.131 C14.2254,42.145 20.9594,51.683 27.6094,61.104 C50.7874,57.611 74.0034,54.112 97.7234,50.537 C91.1404,35.746 84.6734,21.215 78.2954,6.883 C54.3134,15.395 30.9144,23.699 7.1564,32.131 M99.0144,160.081 C99.0144,156.802 99.1744,153.991 98.9674,151.208 C98.7824,148.717 97.8634,146.259 97.8354,143.78 C97.6174,124.983 97.6044,106.185 97.3864,87.388 C97.2894,78.904 96.8804,70.422 96.5764,61.941 C96.5604,61.494 96.2004,61.06 95.9464,60.502 C73.7594,63.814 51.6804,67.108 29.1224,70.475 C29.1224,79.2 28.6664,87.856 29.2204,96.446 C30.2664,112.643 31.6494,128.812 31.1864,145.068 C31.1414,146.635 31.4024,148.211 31.5314,149.932 C44.1704,151.927 56.0994,155.408 68.6654,155.996 C78.5064,156.456 88.2704,158.569 99.0144,160.081 M105.37,171.962 C102.152,171.61 99.1794,171.146 96.1904,170.986 C87.7164,170.531 79.2844,170.071 71.0764,167.483 C67.3224,166.299 63.2584,166.14 59.4164,165.188 C49.7894,162.803 40.1794,160.339 30.6234,157.689 C25.8174,156.356 23.0004,152.335 22.8684,147.176 C22.6744,139.588 22.7744,131.989 22.4364,124.409 C22.0924,116.673 21.0774,108.961 20.8874,101.225 C20.6254,90.568 20.6824,79.893 21.0164,69.238 C21.0954,66.717 20.7924,64.86 19.4414,62.745 C13.4144,53.317 7.5184,43.801 1.7424,34.216 C-1.0526,29.576 -0.6646,28.412 4.2194,26.581 C27.2044,17.966 50.2244,9.448 73.2484,0.937 C74.5814,0.444 76.0484,0.126 77.4634,0.082 C79.9224,0.005 81.9664,0.671 83.0664,3.341 C84.2964,6.332 85.9224,9.16 87.4484,12.205 C93.4164,11.947 99.3934,10.928 105.152,11.651 C110.92,12.376 116.47,14.84 122.607,16.69 C124.435,13.223 126.307,9.571 128.283,5.976 C129.057,4.568 129.889,3.112 131.01,1.996 C132.158,0.854 133.517,0.513 135.403,1.21 C157.753,9.46 180.154,17.567 202.549,25.689 C203.891,26.176 205.342,26.368 206.674,26.874 C209.316,27.878 209.939,29.555 208.413,31.863 C205.325,36.533 202.228,41.203 198.939,45.731 C194.061,52.445 189.037,59.053 184.024,65.668 C182.671,67.454 181.953,69.225 182.042,71.605 C182.639,87.479 183.276,103.358 183.445,119.241 C183.541,128.246 183.121,137.294 182.25,146.257 C181.818,150.7 179.85,154.848 174.373,155.874 C169.954,156.702 165.659,158.167 161.259,159.116 C144.499,162.734 127.711,166.223 110.954,169.858 C108.912,170.302 106.998,171.335 105.37,171.962" id="Fill-1" fill="#000000"></path>
            <path d="M99.0147,160.0811 C88.2707,158.5691 78.5067,156.4561 68.6647,155.9961 C56.0997,155.4081 44.1697,151.9271 31.5317,149.9321 C31.4017,148.2111 31.1417,146.6351 31.1867,145.0681 C31.6497,128.8121 30.2657,112.6431 29.2207,96.4461 C28.6657,87.8551 29.1217,79.2001 29.1217,70.475 C51.6807,67.108 73.7597,63.813 95.9467,60.502 C96.2007,61.06 96.5597,61.494 96.5767,61.941 C96.8807,70.422 97.2887,78.9041 97.3867,87.3881 C97.6037,106.1851 97.6177,124.9831 97.8347,143.7791 C97.8637,146.2591 98.7827,148.7161 98.9677,151.2081 C99.1747,153.9911 99.0147,156.8021 99.0147,160.0811" id="Fill-2" fill="#FFFFFF"></path>
            <path d="M7.1568,32.131 C30.9138,23.699 54.3128,15.395 78.2958,6.883 C84.6738,21.215 91.1408,35.746 97.7228,50.537 C74.0038,54.112 50.7878,57.611 27.6088,61.104 C20.9588,51.683 14.2258,42.145 7.1568,32.131" id="Fill-3" fill="#FFFFFF"></path>
            <path d="M160.438,105.909 C160.943,103.368 161.088,101.298 157.897,100.996 C155.411,100.761 154.204,99.129 152.982,96.787 C155.085,95.623 156.94,95.854 158.713,96.756 C161.416,98.13 165.039,99.02 166.457,101.263 C168.31,104.194 168.285,108.516 165.921,111.53 C161.79,116.799 151.497,122.11 144.72,119.013 C141.339,117.468 137.72,115.577 135.371,112.843 C131.771,108.654 128.511,103.885 126.354,98.83 C124.498,94.479 124.346,89.39 123.51,84.616 C121.21,71.488 119.565,58.203 113.77,45.951 C111.231,40.582 107.685,36.103 102.413,33.269 C100.735,32.367 98.6876,32.154 96.4126,31.514 C94.9626,28.44 93.3606,25.042 91.6976,21.516 C94.1246,19.577 96.7626,19.869 99.1216,20.099 C105.218,20.694 111.292,21.584 117.349,22.518 C125.529,23.778 129.712,30.115 134.024,36.13 C136.121,39.054 137.859,42.241 139.679,45.357 C142.418,50.044 142.564,55.356 142.99,60.535 C143.904,71.67 144.414,82.839 145.43,93.964 C146.191,102.296 151.558,104.702 157.228,106.242 C158.164,106.496 159.291,106.046 160.438,105.909" id="Fill-4" fill="#FF499E"></path>
            <path d="M149.094,56.954 C146.304,42.01 141.274,28.496 127.798,19.588 C130.279,15.604 132.528,11.992 134.834,8.289 C157.135,16.067 179.212,23.766 201.861,31.664 C194.325,41.916 186.769,52.194 178.948,62.834 C168.959,60.867 159.126,58.93 149.094,56.954" id="Fill-5" fill="#FFFFFF"></path>
            <path d="M109.467,47.329 C110.164,48.546 111.136,49.697 111.448,51.006 C111.615,51.703 110.641,52.672 110.182,53.518 C109.365,53.018 107.94,52.605 107.853,52 C107.642,50.527 108.051,48.965 108.21,47.439 C108.629,47.403 109.048,47.366 109.467,47.329" id="Fill-6" fill="#FF499E"></path>
            <path d="M102.107,44.008 C100.958,41.574 99.808,39.14 98.447,36.258 C102.005,38.316 102.422,39.125 102.107,44.008" id="Fill-7" fill="#FF499E"></path>
            <path d="M114.152,62.866 C113.794,61.72 113.436,60.573 113.078,59.426 C113.519,59.311 113.959,59.196 114.399,59.081 C114.62,60.265 114.84,61.449 115.06,62.634 C114.757,62.711 114.455,62.789 114.152,62.866" id="Fill-8" fill="#FF499E"></path>
        </g>
    </g>
</svg>