<svg width="300" height="300" viewBox="0 0 300 300" xmlns="http://www.w3.org/2000/svg"><g fill="none" fill-rule="evenodd"><path d="M159.152 126.866l.908-.232-.661-3.553-1.321.345 1.074 3.44m-12.045-18.858c.315-4.883-.102-5.692-3.66-7.75l3.66 7.75m7.359 3.321l-1.256.111c-.16 1.526-.569 3.088-.357 4.56.087.606 1.512 1.018 2.328 1.519.46-.846 1.433-1.816 1.267-2.513-.313-1.308-1.284-2.46-1.982-3.677m39.627 9.625l29.854 5.88 22.913-31.17-67.027-23.375-7.035 11.299c13.476 8.908 18.505 22.422 21.295 37.366m11.344 48.955c-1.147.137-2.274.587-3.21.332-5.67-1.539-11.037-3.945-11.798-12.277-1.016-11.125-1.526-22.294-2.44-33.429-.425-5.179-.571-10.491-3.311-15.179-1.82-3.115-3.558-6.302-5.654-9.226-4.313-6.015-8.496-12.352-16.676-13.612-6.057-.934-12.131-1.824-18.227-2.419-2.359-.23-4.997-.522-7.424 1.417l4.715 9.998c2.275.64 4.323.853 6 1.755 5.272 2.834 8.818 7.313 11.357 12.681 5.795 12.253 7.44 25.538 9.74 38.666.836 4.774.988 9.863 2.844 14.214 2.157 5.055 5.417 9.824 9.017 14.013 2.349 2.734 5.969 4.625 9.349 6.17 6.777 3.097 17.07-2.214 21.202-7.483 2.363-3.014 2.388-7.336.535-10.268-1.418-2.242-5.041-3.132-7.743-4.506-1.774-.902-3.628-1.133-5.732.031 1.222 2.342 2.429 3.974 4.915 4.209 3.191.302 3.046 2.372 2.541 4.913M52.157 96.131l20.452 28.973 70.114-10.567-19.428-43.654-71.139 25.248m91.858 127.95c0-3.279.16-6.09-.047-8.873-.185-2.491-1.104-4.949-1.132-7.428-.218-18.797-.23-37.595-.449-56.392-.097-8.484-.506-16.966-.81-25.447-.016-.447-.376-.881-.63-1.439l-66.824 9.973c0 8.725-.456 17.381.098 25.971 1.046 16.197 2.43 32.366 1.966 48.622-.045 1.567.216 3.143.345 4.864 12.64 1.995 24.568 5.476 37.134 6.064 9.841.46 19.605 2.573 30.35 4.085m6.355 11.881c-3.218-.352-6.19-.816-9.18-.976-8.474-.455-16.906-.915-25.114-3.503-3.754-1.184-7.818-1.343-11.66-2.295-9.627-2.385-19.237-4.849-28.793-7.499-4.806-1.333-7.623-5.354-7.755-10.513-.194-7.588-.094-15.187-.432-22.767-.344-7.736-1.359-15.448-1.549-23.184a572.36 572.36 0 01.13-31.987c.078-2.521-.225-4.378-1.576-6.493a1269.14 1269.14 0 01-17.699-28.529c-2.795-4.64-2.407-5.804 2.477-7.635 22.985-8.615 46.005-17.133 69.03-25.644 1.332-.493 2.8-.811 4.214-.855 2.46-.077 4.503.589 5.603 3.259 1.23 2.991 2.856 5.819 4.382 8.864 5.968-.258 11.945-1.277 17.704-.554 5.768.725 11.318 3.189 17.455 5.039 1.828-3.467 3.7-7.119 5.676-10.714.774-1.408 1.606-2.864 2.727-3.98 1.148-1.142 2.507-1.483 4.393-.786 22.35 8.25 44.751 16.357 67.146 24.479 1.342.487 2.793.679 4.125 1.185 2.642 1.004 3.265 2.681 1.739 4.989-3.088 4.67-6.185 9.34-9.474 13.868-4.878 6.714-9.902 13.322-14.915 19.937-1.353 1.786-2.071 3.557-1.982 5.937.597 15.874 1.234 31.753 1.403 47.636.096 9.005-.324 18.053-1.195 27.016-.432 4.443-2.4 8.591-7.877 9.617-4.419.828-8.714 2.293-13.114 3.242-16.76 3.618-33.548 7.107-50.305 10.742-2.042.444-3.956 1.477-5.584 2.104" fill="#000"/><path d="M144.015 224.081c-10.744-1.512-20.508-3.625-30.35-4.085-12.565-.588-24.495-4.069-37.133-6.064-.13-1.72-.39-3.297-.345-4.864.463-16.256-.921-32.425-1.966-48.622-.555-8.59-.1-17.246-.1-25.971l66.826-9.973c.254.558.613.992.63 1.439.304 8.481.712 16.963.81 25.447.217 18.797.23 37.595.448 56.391.029 2.48.948 4.937 1.133 7.43.207 2.782.047 5.593.047 8.872M52.157 96.131l71.139-25.248 19.427 43.654-70.114 10.567-20.452-28.973" fill="#FFF"/><path d="M205.438 169.909c.505-2.541.65-4.611-2.541-4.913-2.486-.235-3.693-1.867-4.915-4.209 2.103-1.164 3.958-.933 5.731-.031 2.703 1.374 6.326 2.264 7.744 4.507 1.853 2.931 1.828 7.253-.536 10.267-4.131 5.269-14.424 10.58-21.201 7.483-3.381-1.545-7-3.436-9.349-6.17-3.6-4.189-6.86-8.958-9.017-14.013-1.856-4.351-2.008-9.44-2.844-14.214-2.3-13.128-3.945-26.413-9.74-38.665-2.539-5.369-6.085-9.848-11.357-12.682-1.678-.902-3.725-1.115-6-1.755l-4.715-9.998c2.427-1.939 5.065-1.647 7.424-1.417 6.096.595 12.17 1.485 18.227 2.419 8.18 1.26 12.363 7.597 16.675 13.612 2.097 2.924 3.835 6.111 5.655 9.227 2.739 4.687 2.885 9.999 3.311 15.178.914 11.135 1.424 22.304 2.44 33.429.761 8.332 6.128 10.738 11.798 12.278.936.254 2.063-.196 3.21-.333" fill="#FF499E"/><path d="M194.094 120.954c-2.79-14.944-7.82-28.458-21.296-37.366l7.036-11.299 67.027 23.375-22.913 31.17-29.854-5.88" fill="#FFF"/><path d="M154.467 111.329c.697 1.217 1.669 2.368 1.981 3.677.167.697-.807 1.666-1.266 2.512-.817-.5-2.242-.913-2.329-1.518-.211-1.473.198-3.035.357-4.561l1.257-.11m-7.36-3.321l-3.66-7.75c3.558 2.058 3.975 2.867 3.66 7.75m12.045 18.858l-1.074-3.44 1.321-.345.661 3.553-.908.232" fill="#FF499E"/></g></svg>