<?xml version="1.0" encoding="UTF-8"?>
<svg width="400px" height="450px" viewBox="0 0 400 450" version="1.1" xmlns="http://www.w3.org/2000/svg" xmlns:xlink="http://www.w3.org/1999/xlink">
    <title>c3po</title>
    <g id="c3po" stroke="none" stroke-width="1" fill="none" fill-rule="evenodd">
        <g id="Group-36" transform="translate(2.000000, 54.000000)">
            <path d="M223.504,240.86 C223.862,241.512 224.22,242.165 224.577,242.817 C227.32,242.037 230.115,241.405 232.795,240.449 C239.992,237.88 240.244,237.276 238.509,228.056 C233.331,232.475 228.418,236.668 223.504,240.86 M170.383,239.235 C162.21,236.914 155.053,234.881 147.422,232.714 C147.164,235.514 145.399,238.339 148.966,239.831 C156.447,242.958 163.845,246.575 172.928,246.384 C171.905,243.511 171.116,241.294 170.383,239.235 M111.566,108.474 C110.94,108.148 110.313,107.823 109.686,107.498 C108.083,110.011 105.147,112.511 105.122,115.04 C105.041,123.286 105.849,131.56 106.702,139.784 C106.96,142.271 107.89,145.295 112.564,144.2 C112.234,132.38 111.9,120.426 111.566,108.474 M268.902,145.856 L270.545,147.104 C271.371,145.495 272.776,143.936 272.927,142.265 C273.792,132.698 273.781,123.014 275.246,113.552 C276.103,108.013 273.444,106.041 269.505,103.29 C265.712,117.902 270.456,131.922 268.902,145.856 M180.762,245.199 C191.726,244.686 202.89,244.165 214.025,243.644 C214.688,239.048 215.192,235.553 215.696,232.061 C199.225,230.217 175.062,230.635 169.262,233.812 C178.79,232.185 176.974,240.045 180.762,245.199 M146.834,244.055 C148.98,250.787 153.933,252.267 158.201,253.647 C174.45,258.899 191.187,261.373 208.246,259.474 C218.203,258.366 227.682,255.244 236.173,249.611 C238.448,248.102 239.969,246.556 237.972,243.915 C226.341,246.21 214.88,248.976 203.261,250.629 C190.529,252.438 177.613,254.428 164.867,250.576 C159.265,248.882 153.837,246.611 146.834,244.055 M64.5902,265.877 C64.4512,277.9848 63.2842,289.5888 64.4562,300.9528 C65.8582,314.5508 65.3672,328.0438 65.2262,341.5938 C65.2152,342.6648 65.3372,343.8368 64.9602,344.7878 C62.1502,351.8698 63.7612,358.8668 64.9402,366.3738 C66.4902,366.3908 67.8082,366.5098 69.1032,366.3908 C70.3382,366.2768 71.5502,365.9138 72.2542,365.7678 C72.6392,332.1088 73.0172,299.0398 73.4002,265.464 C70.4062,265.605 67.8382,265.724 64.5902,265.877 M322.614,365.6288 C322.393,362.8808 322.187,360.5638 322.025,358.2448 C321.152,345.8248 325.824,333.2908 321.174,320.9078 C320.558,319.2668 321.018,317.1678 321.182,315.2978 C321.653,309.9668 322.54,304.6558 322.698,299.3188 C323.039,287.8308 323.025,276.331 323.165,264.128 C320.015,264.681 317.748,265.08 315.629,265.452 C313.493,291.3138 313.64,359.7688 315.837,365.5498 C318.092,365.5768 320.385,365.6018 322.614,365.6288 M136.485,258.797 C139.51,259.465 140.854,259.608 142.075,260.072 C143.545,260.631 144.955,261.385 146.313,262.188 C160.338,270.481 174.96,277.061 191.652,277.113 C207.587,277.162 222.697,274.618 234.774,262.744 C236.526,261.021 239.289,260.198 241.717,259.33 C243.929,258.54 246.321,258.254 249.036,257.657 C248.792,255.316 248.583,253.319 248.259,250.224 C244.31,251.652 240.84,252.324 238.006,254.045 C230.303,258.723 222.094,262.141 213.229,263.123 C190.519,265.637 168.067,265.6 147.975,252.271 C144.983,250.286 142.089,250.619 139.712,252.218 C138.196,253.238 137.806,255.93 136.485,258.797 M55.2602,366.6168 C55.3152,361.8248 55.0242,358.0668 55.4752,354.4008 C56.2122,348.4228 54.1802,344.6178 49.0702,341.0448 C42.7642,336.6338 37.3722,330.8708 31.8172,325.4548 C29.7562,323.4448 28.3532,320.7598 25.6812,317.0318 C19.0262,334.5678 10.1992,348.6838 11.1832,366.1128 C26.0232,366.2828 40.7042,366.4508 55.2602,366.6168 M14.1492,300.4308 C29.0152,312.4638 40.5852,326.7528 57.0762,337.7138 C57.9392,313.5298 58.7532,290.7248 59.6262,266.283 C41.1712,274.44 24.9132,282.6678 14.1492,300.4308 M369.119,310.1548 C362.627,316.1368 356.898,321.3778 351.213,326.6648 C346.351,331.1868 341.487,335.7108 336.725,340.3368 C334.219,342.7708 332.236,345.3308 332.543,349.3838 C332.941,354.6388 332.534,359.9558 332.474,365.2308 C343.136,368.6558 377.043,369.3138 387.129,366.0408 C384.191,346.5178 380.398,327.2578 369.119,310.1548 M328.216,337.2278 C328.935,337.5028 329.653,337.7758 330.372,338.0498 C343.441,316.9928 365.121,305.1138 383.424,288.5208 C366.894,274.9 350.036,264.933 329.054,263.898 C328.766,289.0768 328.491,313.1528 328.216,337.2278 M230.292,204.761 C234.034,204.266 237.764,203.562 241.523,203.328 C246.352,203.027 250.79,201.464 253.282,197.468 C256.378,192.506 259.411,187.159 260.825,181.561 C265.071,164.748 264.935,147.403 264.601,130.244 C264.398,119.854 264.634,109.482 265.09,99.165 C265.818,82.672 264.959,66.685 258.12,51.338 C252.13,37.895 244.893,25.964 231.725,17.842 C217.373,8.991 201.901,7.175 185.96,8.236 C164.324,9.677 146.597,20.185 131.184,34.835 C122.834,42.77 116.618,52.096 115.216,63.855 C114.358,71.041 113.77,78.281 113.525,85.512 C113.191,95.387 114.024,105.123 115.446,115.006 C117.773,131.172 117.541,147.685 119.123,163.98 C121.856,192.143 135.979,213.225 160.33,227.498 C161.148,227.978557 162.326,227.988 163.335,227.976 C180.821,227.782 198.309,227.639 215.792,227.26 C220.045,227.169 225.062,227.538 228.362,225.492 C235.48,221.081 241.628,215.166 245.803,206.813 C240.171,206.666 235.111,208.747 230.292,204.761 M81.5452,266.793 C81.1412,267.849 80.8022,268.333 80.7922,268.822 C80.2342,297.1048 79.6392,325.3868 79.2432,353.6728 C79.1852,357.8228 80.0892,361.9868 80.5922,366.5408 C84.1302,366.5808 86.8002,366.6628 89.4692,366.6328 C113.166,366.3798 136.861,366.0118 160.558,365.8658 C181.57,365.7358 202.584,365.8458 223.597,365.8398 C224.943,365.8398 226.289,365.6978 227.633,365.7118 C249.159,365.9368 270.685,366.1828 292.21,366.4128 C298.007,366.4748 303.893,367.7918 309.433,365.6588 C311.645,353.0038 311.093,270.976 308.637,263.488 C305.349,264.115 302.006,265.026 298.607,265.353 C282.195,266.932 265.838,265.81 249.496,264.132 C244.053,263.574 239.018,263.84 234.815,268.477 C229.816,273.992 223.088,277.066 215.982,278.9448 C195.168,284.4468 174.952,283.2978 155.715,272.87 C152.171,270.949 148.869,267.883 145.114,267.189 C136.736,265.638 128.137,264.497 119.64,264.568 C107.044,264.675 94.4582,265.978 81.5452,266.793 M107.861,104.39 C107.989,93.268 108.253,82.497 108.203,71.726 C108.122,53.839 115.429,38.466 128.272,27.395 C145.881,12.214 165.98,0.431 190.52,0.017 C209.917,-0.31 228.058,4.13 243.313,16.506 C248.599,20.797 252.813,26.767 256.481,32.62 C264.36,45.194 271.518,58.248 272.195,73.606 C272.452,79.435 272.118,85.298 271.893,91.138 C271.732,95.316 271.804,99.034 276.335,101.402 C277.813,102.173 278.937,104.871 279.067,106.767 C279.899,118.812 280.49,130.876 280.981,142.941 C281.186,147.989 278.755,151.756 274.184,153.925 C270.946,155.461 269.136,157.534 269.463,161.416 C271.208,182.131 262.701,199.265 249.837,214.464 C245.418,219.687 244.094,225.033 244.393,231.417 C244.591,235.649 244.343,239.903 244.295,244.09 C254.608,245.634 254.608,245.634 255.319,258.042 C264.3,257.671 273.312,256.995 282.323,256.989 C300.839,256.977 319.424,253.981 337.863,257.81 C354.662,261.299 370.356,267.288 383.152,279.2428 C385.29,281.2388 387.33,283.5058 388.809,286.0048 C391.398,290.3798 390.479,290.9278 385.812,294.1058 C381.214,297.2358 377.422,301.5478 373.086,305.5178 C387.786,323.2858 394.346,343.9128 396.205,366.2658 C396.925,374.9368 395.122,377.3238 386.689,377.262007 C368.672,377.1298 350.661,376.3778 332.644,376.1368 C321.346,375.9868 310.039,376.5468 298.742,376.3718 C247.297,375.5748 195.856,374.4808 144.409,373.7978 C118.302,373.4528 92.1842,373.9278 66.0742,373.6918 C49.3792,373.5408 32.6902,372.7218 15.9952,372.3198 C13.3702,372.2558 10.6712,372.5538 8.1102,373.1408 C3.5222,374.1918 -1.1078,371.0378 0.2362,366.5908 C3.0182,357.3888 2.5752,347.3678 8.0192,338.8058 C12.7672,331.3398 16.6842,323.3458 21.0652,315.4118 C16.4412,310.2938 11.8242,305.1828 7.3272,300.2058 C11.7142,285.1218 22.9472,276.662 34.4832,268.767 C39.7482,265.164 45.8772,262.685 51.8522,260.292 C59.6562,257.167 67.6532,256.256 76.3062,257.074 C88.5702,258.233 101.008,257.555 113.371,257.672 C118.92,257.723 124.468,257.797 130.574,257.866 C130.828,254.985 131.104,251.863 131.44,248.043 C134.767,247.104 138.041,246.181 142.193,245.01 C142.246,240.405 142.537,235.313 142.24,230.255 C142.132,228.403 141.062,226.175 139.701,224.894 C125.658,211.684 118.496,194.604 112.916,176.791 C111.447,172.102 111.758,166.695 112.051,161.665 C112.317,157.092 111.566,153.571 106.884,152.083 C100.566,150.073 99.0942,145.462 99.3272,139.495 C99.6012,132.497 99.8872,125.465 99.5102,118.484 C99.1432,111.685 100.148,106.16 107.861,104.39" id="Fill-1" fill="#000000"></path>
            <path d="M177.522,322.729 C148.792,307.316 120.825,292.311 92.8568,277.307 C92.5588,277.767 92.2608,278.227 91.9618,278.686 C95.9588,281.506 99.8038,284.577 103.98,287.103 C123.727,299.05 143.314,311.309 164.627,320.407 C170.216,322.792 175.035,325.826 176.18,332.463 C176.227,332.736 177.054,332.874 177.643,333.129 C182.467,329.083 177.148,325.404 177.522,322.729 M292.772,278.791 C292.487,278.315 292.203,277.839 291.919,277.363 C290.026,278.076 288.062,278.64 286.255,279.528 C280.709,282.252 275.294,285.251 269.702,287.875 C246.596,298.717 223.456,309.485 200.303,320.224 C193.743,323.266 192.675,326.76 196.558,333.321 C197.036,333.089 197.851,332.949 197.941,332.613 C199.876,325.44 206.085,323.578 211.86,320.783 C236.037,309.081 260.108,297.16 284.127,285.137 C287.278,283.56 289.903,280.932 292.772,278.791 M81.5448,266.792 C94.4588,265.978 107.044,264.675 119.64,264.568 C128.138,264.497 136.737,265.638 145.115,267.189 C148.869,267.883 152.171,270.949 155.715,272.87 C174.952,283.297 195.168,284.447 215.982,278.945 C223.088,277.066 229.816,273.992 234.815,268.477 C239.018,263.84 244.054,263.574 249.496,264.132 C265.838,265.81 282.196,266.932 298.607,265.353 C302.006,265.026 305.349,264.115 308.637,263.488 C311.093,270.976 311.646,353.003 309.433,365.659 C303.894,367.792 298.007,366.475 292.21,366.413 C270.685,366.183 249.16,365.937 227.634,365.711 C226.289,365.698 224.943,365.84 223.598,365.84 C202.584,365.846 181.571,365.736 160.558,365.866 C136.861,366.012 113.166,366.379 89.4698,366.633 C86.8008,366.663 84.1298,366.581 80.5928,366.541 C80.0898,361.987 79.1858,357.823 79.2428,353.672 C79.6388,325.387 80.2348,297.105 80.7928,268.822 C80.8018,268.333 81.1418,267.849 81.5448,266.792" id="Fill-2" fill="#FFFFFF"></path>
            <path d="M160.072,205.818 C151.029,203.041 145.409,203.363 140.703,206.892 C147.845,206.902 153.979,208.006 160.072,205.818 M248.155,39.287 C252.491,54.848 256.827,70.41 261.164,85.97 C261.111,69.24 257.854,53.382 248.155,39.287 M118.066,96.631 C118.639,96.721 119.213,96.811 119.786,96.901 C120.164,95.522 120.819,94.153 120.869,92.762 C121.055,87.671 120.97,82.57 121.112,77.476 C121.543,61.982 125.172,47.678 138.193,35.368 C131.591,38.045 128.592,41.853 125.999,46.312 C116.799,62.134 116.778,79.272 118.066,96.631 M216.797,195.941 C206.705,194.251 181.981,194.302 175.861,195.999 C175.675,197.651 175.342,199.46 175.297,201.275 C175.227,204.135 176.618,205.83 179.615,205.867 C191.385,206.013 203.155,206.141 215.653,206.284 C216.078,202.433 216.44,199.164 216.797,195.941 M153.164,56.761 C155.331,53.915 158.399,51.691 158.595,49.236 C158.965,44.634 161.91,42.818 164.87,40.631 C168.334,38.071 171.89,35.637 175.336,33.054 C179.285,30.094 181.32,26.377 179.836,21.287 C173.421,22.171 154.078,32.028 150.658,36.19 C148.509,38.805 147.248,41.618 149.36,45.008 C150.404,46.683 151.047,48.608 151.925,50.539 C136.102,54.004 135.902,54.286 140.088,66.921 C139.169,67.677 138.177,68.543 137.135,69.341 C135.874,70.308 134.57,71.217 133.367,72.093 C135.867,79.762 136.604,80.24 143.426,78.714 C145.78,78.187 148.151,77.696 150.456,76.997 C154.225,75.853 156.655,72.788 156.459,69.303 C156.226,65.126 154.364,61.039 153.164,56.761 M248.116,76.29 C249.507,72.682 250.525,70.04 251.665,67.083 C248.708,65.137 246.283,63.542 243.543,61.739 C243.2,55.177 239.822,50.109 233.758,47 C236.367,37.506 236.067,36.74 227.492,33.704 C224.961,32.807 223.087,31.707 221.066,29.632 C216.851,25.308 211.173,23.847 203.823,25.88 C208.346,27.289 212.897,25.378 214.656,30.095 C211.377,36.453 211.377,36.453 217.706,42.807 C215.323,49.504 216.932,52.057 223.763,52.77 C226.325,53.038 228.845,53.711 231.385,54.199 C226.199,55.714 220.739,54.794 216.935,60.8 C218.567,63.955 219.999,67.749 222.354,70.84 C223.517,72.367 226.708,73.714 228.422,73.215 C235.098,71.278 241.115,72.825 248.116,76.29 M197.572,180.262 C202.178,177.326 206.561,174.715 210.746,171.818 C216.459,167.865 216.84,166.247 214.379,159.669 C210.525,149.367 206.756,139.033 202.803,128.769 C200.519,122.837 197.947,117.014 194.928,109.755 C193.172,113.869 191.869,116.415 190.98,119.097 C187.689,129.027 184.5,138.99 181.346,148.964 C179.892,153.561 178.536,158.192 177.271,162.844 C176.316,166.357 177.194,168.851 180.849,170.663 C186.361,173.394 191.557,176.764 197.572,180.262 M133.681,124.941 C137.011,128.566 138.889,130.838 140.998,132.869 C151.989,143.451 167.956,143.119 178.471,132.156 C189.061,121.115 190.472,104.989 181.975,92.113 C175.296,81.994 162.792,77.3 151.727,80.76 C137.658,85.16 128.91,96.126 129.602,109.028 C130.219,120.54 131.026,132.05 132.149,143.522 C132.775,149.914 133.587,156.417 135.437,162.53 C138.491,172.624 143.439,181.96 150.522,189.867 C153.9,193.637 157.912,197.059 164.386,196.3 C152.176,189.23 145.961,177.785 140.606,165.828 C135.009,153.329 134.933,139.816 133.681,124.941 M222.905,199.262 C225.662,199.294 226.71,199.56 227.576,199.274 C232.748,197.563 235.995,193.673 238.605,189.145 C248.989,171.13 254.975,151.893 255.223,130.94 C255.273,126.752 256.556,122.574 257.299,118.396 C258.135,113.69 259.984,108.924 259.676,104.299 C258.622,88.433 245.943,77.46 231.379,78.484 C207.439,80.168 200.79,96.393 202.313,109.708 C203.625,121.176 209.91,129.714 220.601,134.44 C230.675,138.893 240.036,136.956 248.603,130.341 C250.006,129.258 251.413,128.18 254.574,125.751 C252.795,135.724 252.245,144.081 249.735,151.799 C244.229,168.736 239.405,186.273 222.905,199.262 M230.292,204.761 C235.111,208.747 240.171,206.666 245.803,206.813 C241.628,215.166 235.48,221.081 228.363,225.492 C225.062,227.538 220.045,227.169 215.792,227.26 C198.309,227.639 180.821,227.782 163.335,227.976 C162.326,227.988 161.148,227.978557 160.33,227.498 C135.979,213.225 121.856,192.143 119.123,163.98 C117.541,147.685 117.773,131.172 115.447,115.006 C114.024,105.123 113.192,95.387 113.526,85.512 C113.77,78.281 114.359,71.041 115.216,63.855 C116.618,52.096 122.834,42.77 131.184,34.835 C146.597,20.185 164.324,9.677 185.96,8.236 C201.901,7.175 217.373,8.991 231.725,17.842 C244.893,25.964 252.13,37.895 258.12,51.338 C264.959,66.685 265.819,82.672 265.09,99.165 C264.634,109.482 264.398,119.854 264.601,130.244 C264.935,147.403 265.072,164.748 260.825,181.561 C259.411,187.159 256.378,192.506 253.282,197.468 C250.79,201.464 246.352,203.027 241.523,203.328 C237.764,203.562 234.034,204.266 230.292,204.761" id="Fill-3" fill="#FFFFFF"></path>
            <path d="M328.216,337.228 C328.491,313.153 328.766,289.077 329.054,263.898 C350.036,264.933 366.894,274.9 383.424,288.521 C365.121,305.114 343.441,316.993 330.372,338.05 C329.653,337.776 328.935,337.502 328.216,337.228" id="Fill-4" fill="#FFFFFF"></path>
            <path d="M369.119,310.1548 C380.397,327.2588 384.191,346.5178 387.129,366.0408 C377.043,369.3138 343.136,368.6558 332.473,365.2308 C332.534,359.9558 332.94,354.6388 332.543,349.3838 C332.236,345.3308 334.219,342.7708 336.725,340.3368 C341.487,335.7108 346.35,331.1868 351.213,326.6648 C356.898,321.3778 362.626,316.1368 369.119,310.1548" id="Fill-5" fill="#FFFFFF"></path>
            <path d="M14.1492,300.4311 C24.9132,282.6671 41.1702,274.44 59.6262,266.283 C58.7532,290.7251 57.9392,313.5301 57.0762,337.7131 C40.5852,326.7521 29.0152,312.4641 14.1492,300.4311" id="Fill-6" fill="#FFFFFF"></path>
            <path d="M55.26,366.6167 C40.704,366.4507 26.023,366.2827 11.183,366.1127 C10.199,348.6837 19.026,334.5677 25.681,317.0317 C28.353,320.7607 29.756,323.4447 31.817,325.4547 C37.372,330.8707 42.764,336.6347 49.071,341.0447 C54.18,344.6177 56.213,348.4227 55.475,354.4007 C55.024,358.0667 55.315,361.8247 55.26,366.6167" id="Fill-7" fill="#FFFFFF"></path>
            <path d="M136.485,258.797 C137.806,255.93 138.196,253.237 139.712,252.218 C142.089,250.618 144.983,250.285 147.975,252.271 C168.068,265.6 190.519,265.637 213.229,263.122 C222.094,262.141 230.303,258.723 238.006,254.044 C240.84,252.323 244.31,251.651 248.259,250.224 C248.583,253.318 248.792,255.316 249.036,257.656 C246.321,258.253 243.929,258.539 241.717,259.329 C239.289,260.197 236.527,261.021 234.774,262.743 C222.697,274.617 207.588,277.161 191.652,277.112 C174.96,277.061 160.338,270.481 146.313,262.188 C144.955,261.385 143.545,260.63 142.075,260.071 C140.854,259.608 139.51,259.465 136.485,258.797" id="Fill-8" fill="#FFFFFF"></path>
            <path d="M322.614,365.6284 C320.385,365.6024 318.093,365.5764 315.837,365.5504 C313.64,359.7694 313.493,291.3144 315.63,265.451 C317.748,265.079 320.015,264.681 323.165,264.127 C323.026,276.33 323.039,287.8304 322.698,299.3184 C322.54,304.6554 321.653,309.9674 321.182,315.2984 C321.018,317.1674 320.558,319.2674 321.175,320.9074 C325.824,333.2904 321.153,345.8244 322.025,358.2444 C322.187,360.5644 322.393,362.8804 322.614,365.6284" id="Fill-9" fill="#FFFFFF"></path>
            <path d="M64.5901,265.876 C67.8391,265.724 70.4061,265.605 73.4011,265.464 C73.0171,299.0394 72.6391,332.1084 72.2541,365.7684 C71.5501,365.9134 70.3381,366.2764 69.1031,366.3914 C67.8081,366.5104 66.4901,366.3914 64.9401,366.3734 C63.7611,358.8664 62.1501,351.8694 64.9601,344.7874 C65.3371,343.8364 65.2151,342.6644 65.2261,341.5944 C65.3671,328.0434 65.8581,314.5514 64.4561,300.9524 C63.2841,289.5894 64.4511,277.9844 64.5901,265.876" id="Fill-10" fill="#FFFFFF"></path>
            <path d="M146.834,244.055 C153.837,246.611 159.265,248.882 164.867,250.576 C177.613,254.428 190.529,252.438 203.261,250.628 C214.88,248.976 226.341,246.209 237.972,243.914 C239.969,246.556 238.448,248.102 236.173,249.611 C227.682,255.243 218.203,258.366 208.246,259.474 C191.187,261.372 174.45,258.899 158.201,253.647 C153.933,252.267 148.98,250.786 146.834,244.055" id="Fill-11" fill="#FFFFFF"></path>
            <path d="M180.762,245.199 C176.973,240.045 178.789,232.185 169.262,233.812 C175.061,230.636 199.224,230.218 215.696,232.061 C215.192,235.553 214.688,239.048 214.025,243.644 C202.89,244.165 191.726,244.686 180.762,245.199" id="Fill-12" fill="#FFFFFF"></path>
            <path d="M268.903,145.856 C270.456,131.921 265.712,117.902 269.506,103.29 C273.445,106.041 276.104,108.013 275.246,113.552 C273.781,123.014 273.793,132.698 272.928,142.265 C272.777,143.936 271.371,145.495 270.545,147.104 L268.903,145.856 Z" id="Fill-13" fill="#FFFFFF"></path>
            <path d="M111.566,108.474 C111.9,120.426 112.234,132.379 112.564,144.2 C107.89,145.294 106.96,142.271 106.702,139.784 C105.849,131.56 105.041,123.286 105.122,115.039 C105.147,112.511 108.083,110.011 109.686,107.497 C110.313,107.823 110.94,108.148 111.566,108.474" id="Fill-14" fill="#FFFFFF"></path>
            <path d="M170.383,239.235 C171.116,241.294 171.905,243.511 172.928,246.384 C163.845,246.575 156.447,242.958 148.966,239.831 C145.399,238.339 147.164,235.514 147.422,232.714 C155.053,234.881 162.21,236.914 170.383,239.235" id="Fill-15" fill="#FFFFFF"></path>
            <path d="M223.504,240.86 C228.418,236.668 233.331,232.475 238.509,228.056 C240.244,237.276 239.992,237.88 232.795,240.449 C230.115,241.405 227.32,242.037 224.577,242.817 C224.22,242.165 223.862,241.512 223.504,240.86" id="Fill-16" fill="#FFFFFF"></path>
            <path d="M292.771,278.7905 C289.902,280.9325 287.277,283.5605 284.126,285.1375 C260.107,297.1595 236.036,309.0805 211.859,320.7825 C206.085,323.5775 199.875,325.4395 197.94,332.6125 C197.85,332.9485 197.035,333.0895 196.556,333.3165 C192.675,326.7605 193.743,323.2665 200.302,320.2245 C223.455,309.4845 246.596,298.7175 269.701,287.8755 C275.293,285.2515 280.708,282.2525 286.255,279.5275 C288.061,278.6405 290.026,278.0755 291.918,277.3625 C292.203,277.8395 292.487,278.3145 292.771,278.7905" id="Fill-17" fill="#000000"></path>
            <path d="M177.522,322.729 C177.148,325.404 182.467,329.083 177.643,333.129 C177.054,332.874 176.227,332.736 176.18,332.463 C175.035,325.826 170.216,322.792 164.627,320.407 C143.314,311.309 123.727,299.05 103.98,287.103 C99.8038,284.577 95.9588,281.506 91.9618,278.686 C92.2608,278.227 92.5588,277.767 92.8568,277.307 C120.825,292.311 148.792,307.316 177.522,322.729" id="Fill-18" fill="#000000"></path>
            <path d="M230.474,116.542 C235.645,116.587 240.319,112.62 240.434,108.087 C240.559,103.168 236.323,99.258 230.953,99.335 C225.874,99.407 220.704,104.182 220.703,108.802 C220.702,112.614 225.607,116.5 230.474,116.542 M207.851,110.997 C211.118,124.661 223.093,132.709 235.794,130.398 C246.666,128.421 255.164,118.189 253.837,108.513 C250.717,108.478 247.577,108.441 244.16,108.402 C242.352,115.322 238.429,120.126 230.989,120.686 C223.511,121.249 219.313,116.351 216.161,110.688 C213.274,110.796 210.881,110.885 207.851,110.997 M222.904,199.262 C239.405,186.272 244.228,168.735 249.735,151.799 C252.245,144.08 252.794,135.724 254.574,125.75 C251.413,128.18 250.006,129.258 248.602,130.341 C240.036,136.955 230.674,138.893 220.601,134.439 C209.91,129.714 203.625,121.176 202.313,109.707 C200.79,96.393 207.438,80.167 231.379,78.483 C245.942,77.459 258.622,88.433 259.676,104.299 C259.984,108.924 258.134,113.689 257.298,118.396 C256.556,122.573 255.272,126.751 255.223,130.939 C254.974,151.893 248.989,171.129 238.604,189.145 C235.995,193.673 232.747,197.563 227.576,199.273 C226.71,199.56 225.662,199.293 222.904,199.262" id="Fill-19" fill="#000000"></path>
            <path d="M159.159,99.859 C151.995,99.512 146.728,103.987 146.638,110.495 C146.567,115.577 152.233,120.67 158.111,120.807 C164.679,120.962 171.076,115.953 171.398,110.405 C171.778,103.834 167.642,100.27 159.159,99.859 M135.437,114.724 C140.166,127.607 151.899,135.793 162.602,134.384 C173.877,132.901 181.291,124.832 182.915,111.989 C180.304,111.959 177.721,111.929 175.199,111.9 C166.393,128.261 153.96,129.019 142.735,113.585 C140.678,113.906 138.395,114.262 135.437,114.724 M133.681,124.941 C134.932,139.816 135.009,153.329 140.606,165.828 C145.961,177.785 152.175,189.23 164.386,196.3 C157.912,197.059 153.9,193.637 150.522,189.867 C143.439,181.96 138.491,172.624 135.436,162.53 C133.587,156.417 132.775,149.914 132.149,143.522 C131.025,132.05 130.219,120.54 129.602,109.028 C128.909,96.126 137.658,85.16 151.726,80.76 C162.792,77.3 175.296,81.994 181.974,92.113 C190.471,104.989 189.06,121.115 178.471,132.156 C167.955,143.119 151.988,143.451 140.997,132.869 C138.888,130.838 137.011,128.566 133.681,124.941" id="Fill-20" fill="#000000"></path>
            <path d="M191.294,169.224 C191.439,156.513 191.567,145.285 191.696,134.057 L190.335,133.855 C188.033,144.069 185.731,154.283 183.374,164.739 C185.939,166.192 187.932,167.321 191.294,169.224 M209.272,165.731 C205.009,152.308 200.992,139.66 196.976,127.012 C197.614,142.121 195.462,157.09 197.963,172.948 C202.192,170.249 205.509,168.132 209.272,165.731 M197.573,180.262 C191.557,176.764 186.361,173.394 180.849,170.662 C177.194,168.851 176.316,166.357 177.272,162.844 C178.537,158.192 179.893,153.561 181.346,148.963 C184.501,138.99 187.69,129.027 190.98,119.097 C191.869,116.414 193.172,113.869 194.928,109.754 C197.948,117.014 200.52,122.836 202.804,128.769 C206.756,139.033 210.525,149.367 214.379,159.668 C216.84,166.246 216.459,167.865 210.747,171.818 C206.562,174.715 202.178,177.326 197.573,180.262" id="Fill-21" fill="#000000"></path>
            <path d="M248.116,76.289 C241.115,72.824 235.097,71.277 228.421,73.215 C226.707,73.713 223.517,72.366 222.354,70.84 C219.998,67.748 218.566,63.954 216.934,60.8 C220.739,54.793 226.199,55.713 231.384,54.198 C228.845,53.71 226.325,53.037 223.763,52.769 C216.931,52.057 215.323,49.503 217.706,42.807 C211.376,36.452 211.376,36.452 214.656,30.095 C212.897,25.377 208.345,27.288 203.823,25.879 C211.173,23.847 216.851,25.308 221.065,29.632 C223.086,31.706 224.961,32.807 227.491,33.703 C236.067,36.739 236.367,37.505 233.757,46.999 C239.822,50.108 243.2,55.177 243.542,61.738 C246.283,63.541 248.707,65.137 251.664,67.082 C250.525,70.039 249.506,72.682 248.116,76.289" id="Fill-22" fill="#000000"></path>
            <path d="M153.164,56.761 C154.363,61.038 156.226,65.125 156.459,69.303 C156.654,72.787 154.225,75.853 150.456,76.996 C148.15,77.696 145.78,78.187 143.425,78.713 C136.604,80.24 135.867,79.762 133.367,72.093 C134.57,71.217 135.874,70.308 137.135,69.341 C138.177,68.542 139.169,67.677 140.087,66.92 C135.901,54.285 136.102,54.003 151.925,50.538 C151.046,48.608 150.403,46.683 149.36,45.008 C147.247,41.617 148.509,38.805 150.658,36.19 C154.078,32.028 173.42,22.17 179.835,21.286 C181.319,26.376 179.285,30.094 175.336,33.054 C171.89,35.637 168.333,38.071 164.87,40.63 C161.91,42.818 158.964,44.634 158.595,49.236 C158.398,51.691 155.331,53.914 153.164,56.761" id="Fill-23" fill="#000000"></path>
            <path d="M216.797,195.941 C216.441,199.164 216.079,202.433 215.653,206.284 C203.155,206.141 191.385,206.013 179.615,205.867 C176.619,205.83 175.228,204.135 175.297,201.275 C175.342,199.46 175.675,197.651 175.861,195.999 C181.981,194.302 206.706,194.251 216.797,195.941" id="Fill-24" fill="#000000"></path>
            <path d="M118.066,96.631 C116.778,79.272 116.799,62.134 125.999,46.312 C128.592,41.853 131.591,38.044 138.193,35.367 C125.172,47.678 121.544,61.982 121.112,77.476 C120.971,82.569 121.055,87.67 120.87,92.762 C120.819,94.152 120.164,95.522 119.787,96.901 C119.213,96.811 118.64,96.721 118.066,96.631" id="Fill-25" fill="#000000"></path>
            <path d="M248.155,39.287 C257.855,53.383 261.111,69.24 261.165,85.971 C256.828,70.41 252.491,54.849 248.155,39.287" id="Fill-26" fill="#000000"></path>
            <path d="M160.072,205.818 C153.979,208.006 147.845,206.902 140.703,206.892 C145.409,203.363 151.029,203.041 160.072,205.818" id="Fill-27" fill="#000000"></path>
            <path d="M207.851,110.997 C210.881,110.885 213.274,110.796 216.162,110.688 C219.313,116.351 223.511,121.249 230.989,120.685 C238.429,120.126 242.352,115.322 244.16,108.402 C247.577,108.441 250.717,108.477 253.837,108.513 C255.164,118.189 246.666,128.421 235.794,130.398 C223.093,132.709 211.118,124.661 207.851,110.997" id="Fill-28" fill="#FFFFFF"></path>
            <path d="M229.029,112.3 C231.211,110.779 232.846,109.234 230.633,106.735 C230.172,106.213 228.311,106.126 227.786,106.602 C225.285,108.868 226.923,110.529 229.029,112.3 M230.475,116.542 C225.608,116.5 220.702,112.614 220.703,108.802 C220.705,104.182 225.875,99.407 230.953,99.335 C236.323,99.258 240.56,103.168 240.435,108.087 C240.32,112.62 235.646,116.587 230.475,116.542" id="Fill-29" fill="#FF499E"></path>
            <path d="M135.438,114.724 C138.396,114.262 140.679,113.906 142.736,113.584 C153.961,129.019 166.394,128.261 175.2,111.9 C177.722,111.929 180.305,111.958 182.916,111.989 C181.292,124.831 173.878,132.901 162.603,134.384 C151.899,135.792 140.167,127.607 135.438,114.724" id="Fill-30" fill="#FFFFFF"></path>
            <path d="M161.362,111.173 C158.326,108.313 156.276,108.13 155.247,110.78 C155.01,111.389 156.274,113.278 156.421,113.232 C158.116,112.695 159.728,111.9 161.362,111.173 M159.159,99.859 C167.642,100.27 171.778,103.833 171.398,110.404 C171.077,115.952 164.679,120.961 158.112,120.807 C152.233,120.669 146.568,115.576 146.638,110.494 C146.728,103.986 151.996,99.512 159.159,99.859" id="Fill-31" fill="#FF499E"></path>
            <path d="M209.271,165.731 C205.509,168.132 202.192,170.25 197.963,172.948 C195.461,157.09 197.613,142.122 196.975,127.012 C200.992,139.66 205.008,152.308 209.271,165.731" id="Fill-32" fill="#FFFFFF"></path>
            <path d="M191.294,169.224 C187.932,167.321 185.939,166.192 183.374,164.739 C185.731,154.283 188.033,144.069 190.335,133.855 L191.696,134.057 C191.567,145.285 191.439,156.513 191.294,169.224" id="Fill-33" fill="#FFFFFF"></path>
            <path d="M229.029,112.3 C226.923,110.529 225.285,108.868 227.786,106.602 C228.311,106.126 230.172,106.213 230.633,106.735 C232.846,109.234 231.211,110.779 229.029,112.3" id="Fill-34" fill="#000000"></path>
            <path d="M161.362,111.173 C159.728,111.9 158.116,112.695 156.421,113.232 C156.274,113.278 155.01,111.389 155.247,110.78 C156.276,108.13 158.326,108.313 161.362,111.173" id="Fill-35" fill="#000000"></path>
        </g>
    </g>
</svg>