<?xml version="1.0" encoding="UTF-8"?>
<svg width="400px" height="450px" viewBox="0 0 400 450" version="1.1" xmlns="http://www.w3.org/2000/svg" xmlns:xlink="http://www.w3.org/1999/xlink">
    <title>c3po</title>
    <g id="c3po" stroke="none" stroke-width="1" fill="none" fill-rule="evenodd">
        <g id="LOGOS-Y-GRAFICAMesa-de-trabajo-1-copia-6" transform="translate(1.500000, 56.000000)" fill-rule="nonzero">
            <path d="M108,104.76 C108.13,93.64 108.39,82.86 108.34,72.09 C108.050986,55.052798 115.416654,38.7837355 128.41,27.76 C146.02,12.58 166.12,0.76 190.66,0.39 C210.06,0.06 228.2,4.5 243.45,16.87 C248.74,21.16 252.95,27.14 256.62,32.99 C264.5,45.56 271.62,58.62 272.34,73.99 C272.59,79.82 272.26,85.69 272.03,91.53 C271.87,95.7 271.95,99.42 276.48,101.79 C277.95,102.56 279.08,105.26 279.21,107.16 C280.04,119.16 280.63,131.26 281.12,143.33 C281.33,148.38 278.9,152.14 274.33,154.33 C271.09,155.87 269.28,157.94 269.6,161.82 C271.35,182.54 262.84,199.67 249.98,214.87 C245.56,220.1 244.24,225.44 244.53,231.82 C244.73,236.06 244.53,240.31 244.44,244.5 C254.75,246.04 254.75,246.04 255.44,258.45 C264.44,258.08 273.44,257.45 282.44,257.45 C300.95,257.45 319.54,254.45 337.97,258.27 C354.77,261.76 370.47,267.75 383.26,279.7 C385.454339,281.67676 387.359676,283.952393 388.92,286.46 C391.51,290.84 390.59,291.39 385.92,294.56 C381.25,297.73 377.53,302.01 373.2,305.98 C387.9,323.74 394.46,344.37 396.32,366.72 C397.04,375.4 395.23,377.78 386.8,377.721099 C368.8,377.59 350.8,376.84 332.8,376.6 C321.5,376.45 310.19,377.01 298.89,376.83 C247.45,376.03 196.01,374.94 144.56,374.26 C118.45,373.91 92.34,374.39 66.23,374.15 C49.53,374 32.84,373.15 16.15,372.78 C13.4962598,372.727202 10.8461681,373.002623 8.26,373.6 C3.67,374.6 -0.96,371.5 0.39,367.05 C3.17,357.85 2.73,347.83 8.17,339.27 C12.92,331.8 16.84,323.8 21.22,315.87 L7.48,300.66 C11.87,285.58 23.1,277.12 34.63,269.23 C39.9,265.62 46.03,263.14 52,260.75 C59.7682755,257.696213 68.1660603,256.590699 76.46,257.53 C88.72,258.69 101.16,258.01 113.52,258.13 C119.07,258.18 124.62,258.25 130.73,258.32 C130.98,255.44 131.26,252.32 131.59,248.5 L142.35,245.5 C142.35,240.89 142.69,235.8 142.35,230.74 C142.149922,228.71301 141.252111,226.818415 139.81,225.38 C125.81,212.17 118.61,195.09 113.03,177.28 C111.56,172.59 111.87,167.18 112.16,162.15 C112.43,157.58 111.68,154.06 107,152.57 C100.68,150.57 99.21,145.95 99.44,139.98 C99.71,132.98 100,125.98 99.62,118.98 C99.27,112.05 100.28,106.53 108,104.76 Z M81.69,267.16 C81.3535371,267.792039 81.0981862,268.464015 80.93,269.16 C80.38,297.44 79.78,325.73 79.38,354.01 C79.38,358.16 80.23,362.33 80.73,366.88 C84.27,366.88 86.94,367 89.61,366.97 C113.31,366.72 137,366.35 160.7,366.2 C181.7,366.07 202.7,366.2 223.7,366.2 C225.04,366.2 226.39,366.06 227.7,366.07 L292.27,366.77 C298.07,366.83 303.95,368.15 309.49,366.02 C311.71,353.36 311.15,271.33 308.7,263.85 C305.41,264.47 302.07,265.38 298.7,265.71 C282.29,267.29 265.93,266.17 249.59,264.49 C244.15,263.93 239.11,264.2 234.91,268.84 C229.91,274.35 223.18,277.42 216.07,279.3 C195.26,284.81 175.07,283.66 155.81,273.23 C152.26,271.31 148.96,268.23 145.21,267.55 C136.819657,265.86608 128.287452,264.98875 119.73,264.93 C107.18,265 94.59,266.35 81.68,267.16 L81.69,267.16 Z M230.43,205.16 C234.18,204.66 237.91,203.96 241.66,203.73 C246.49,203.43 250.93,201.86 253.42,197.87 C256.52,192.87 259.55,187.56 260.97,181.96 C265.21,165.15 265.08,147.8 264.74,130.64 C264.54,120.25 264.74,109.88 265.23,99.56 C265.96,83.07 265.1,67.08 258.23,51.74 C252.23,38.29 245,26.36 231.84,18.24 C217.48,9.39 202.01,7.57 186.07,8.63 C164.44,10.08 146.71,20.58 131.3,35.23 C122.95,43.17 116.73,52.49 115.3,64.23 C114.44,71.42 113.85,78.66 113.61,85.89 C113.372411,95.7575239 114.014954,105.626585 115.53,115.38 C117.85,131.55 117.62,148.06 119.2,164.38 C121.94,192.54 136.06,213.62 160.41,227.9 C161.353157,228.311311 162.386242,228.473161 163.41,228.37 C180.89,228.18 198.41,228.04 215.86,227.66 C220.12,227.57 225.13,227.94 228.43,225.89 C235.897615,221.443755 241.946346,214.964954 245.87,207.21 C240.3,207 235.24,209.12 230.42,205.13 L230.43,205.16 Z M328.35,337.6 L330.5,338.42 C343.57,317.36 365.25,305.48 383.56,288.89 C367.03,275.27 350.17,265.3 329.19,264.27 L328.35,337.6 Z M369.25,310.52 C362.76,316.52 357.03,321.75 351.34,327.03 C346.48,331.56 341.62,336.08 336.86,340.71 C334.35,343.14 332.37,345.71 332.67,349.71 C333.07,354.97 332.67,360.28 332.61,365.56 C343.27,368.98 377.17,369.64 387.26,366.37 C384.32,346.89 380.53,327.63 369.25,310.52 Z M14.25,300.8 C29.12,312.8 40.69,327.12 57.18,338.08 C58.04,313.9 58.85,291.08 59.73,266.65 C41.3,274.81 25,283 14.28,300.8 L14.25,300.8 Z M55.39,367 C55.45,362.2 55.16,358.45 55.61,354.78 C56.34,348.78 54.31,345 49.2,341.42 C42.9,337.01 37.5,331.25 31.95,325.83 C29.89,323.83 28.48,321.14 25.81,317.41 C19.16,334.95 10.33,349.06 11.31,366.49 L55.39,367 Z M136.62,259.18 C138.505744,259.497821 140.372046,259.921829 142.21,260.45 C143.679321,261.031522 145.094755,261.740912 146.44,262.57 C160.44,270.86 175.09,277.44 191.78,277.49 C207.72,277.49 222.83,275 234.91,263.12 C236.66,261.4 239.42,260.58 241.85,259.71 C244.253305,259.003213 246.697956,258.445486 249.17,258.04 C248.92,255.69 248.71,253.7 248.39,250.6 C244.44,252.03 240.97,252.7 238.14,254.42 C230.43,259.1 222.23,262.52 213.36,263.5 C190.65,266 168.2,266 148.11,252.64 C145.647966,250.837554 142.302034,250.837554 139.84,252.64 C138.33,253.61 137.94,256.3 136.62,259.17 L136.62,259.18 Z M322.75,366 C322.52,363.25 322.32,360.93 322.16,358.61 C321.28,346.19 325.96,333.61 321.31,321.28 C320.69,319.64 321.15,317.54 321.31,315.67 C321.78,310.34 322.67,305.02 322.83,299.67 C323.17,288.18 323.16,276.67 323.3,264.48 L315.76,265.8 C313.62,291.66 313.76,360.12 315.97,365.9 L322.75,366 Z M64.75,266.24 C64.61,278.35 63.45,289.96 64.62,301.32 C66.02,314.92 65.53,328.41 65.39,341.96 C65.4891404,343.034244 65.397736,344.117555 65.12,345.16 C62.31,352.24 63.92,359.24 65.12,366.74 C66.5057951,366.809527 67.8942049,366.809527 69.28,366.74 C70.3451572,366.598977 71.4005236,366.391912 72.44,366.12 L73.58,265.81 L64.75,266.24 Z M147,244.42 C149.14,251.16 154.1,252.64 158.36,254.02 C174.61,259.27 191.36,261.74 208.36,259.84 C218.330572,258.847119 227.916454,255.47234 236.31,250 C238.58,248.49 240.1,246.94 238.1,244.3 C226.47,246.6 215.01,249.36 203.39,251.02 C190.66,252.83 177.74,254.82 165,250.96 C159.4,249.25 154,247 147,244.42 Z M180.92,245.57 L214.16,244 C214.82,239.41 215.32,235.91 215.83,232.42 C199.36,230.58 175.19,230.99 169.39,234.17 C178.92,232.55 177.11,240.41 180.89,245.57 L180.92,245.57 Z M269,146.22 L270.65,147.47 C271.47,145.86 272.88,144.3 273.03,142.63 C273.89,133.07 273.88,123.38 275.35,113.92 C276.2,108.38 273.55,106.41 269.61,103.66 C265.84,118.27 270.59,132.29 269,146.22 Z M111.7,108.84 L109.82,107.84 C108.21,110.35 105.28,112.84 105.25,115.38 C105.312494,123.649764 105.839994,131.909471 106.83,140.12 C107.09,142.61 108.02,145.63 112.7,144.54 C112.37,132.75 112,120.8 111.7,108.84 Z M170.51,239.6 L147.51,233.08 C147.26,235.88 145.51,238.71 149.06,240.2 C156.54,243.33 163.94,246.94 173.06,246.75 C172,243.88 171.25,241.66 170.51,239.6 Z M223.64,241.23 L224.71,243.23 C227.45,242.45 230.25,241.81 232.93,240.86 C240.12,238.29 240.38,237.68 238.64,228.46 L223.64,241.23 Z" id="Shape" fill="#000000"></path>
            <path d="M81.68,267.16 C94.59,266.35 107.18,265.04 119.77,264.94 C128.327452,264.99875 136.859657,265.87608 145.25,267.56 C149,268.25 152.25,271.32 155.85,273.24 C175.08,283.67 195.3,284.82 216.11,279.31 C223.22,277.43 229.95,274.36 234.95,268.85 C239.15,264.21 244.19,263.94 249.63,264.5 C265.97,266.18 282.33,267.3 298.74,265.72 C302.14,265.39 305.48,264.48 308.74,263.86 C311.19,271.34 311.74,353.37 309.53,366.03 C303.99,368.16 298.11,366.84 292.31,366.78 L227.74,366.08 C226.39,366.08 225.04,366.21 223.74,366.21 C202.74,366.21 181.74,366.1 160.74,366.21 C137.04,366.36 113.35,366.73 89.65,366.98 C86.98,366.98 84.31,366.98 80.77,366.89 C80.27,362.34 79.37,358.17 79.418001,354.02 C79.82,325.74 80.42,297.45 80.97,269.17 C81.1214836,268.472889 81.3600213,267.797593 81.68,267.16 L81.68,267.16 Z M292.9,279.16 L292.05,277.73 C290.16,278.44 288.19,279.01 286.39,279.9 C280.84,282.62 275.39,285.62 269.83,288.24 C246.73,299.093333 223.596667,309.876667 200.43,320.59 C193.87,323.59 192.81,327.13 196.69,333.69 C197.17,333.46 197.98,333.32 198.07,332.98 C200.01,325.81 206.22,323.98 211.99,321.15 C236.17,309.45 260.26,297.57 284.26,285.51 C287.41,283.93 290,281.3 292.9,279.16 Z M177.65,323.1 L93,277.68 L92.1,279.05 C96.1,281.87 99.95,284.95 104.1,287.47 C123.85,299.42 143.44,311.68 164.75,320.78 C170.34,323.16 175.16,326.19 176.3,332.83 C176.35,333.1 177.17,333.24 177.76,333.5 C182.6,329.45 177.28,325.77 177.65,323.1 Z" id="Shape" fill="#FFFFFF"></path>
            <path d="M230.42,205.13 C235.24,209.13 240.3,207.03 245.93,207.13 C242.006346,214.884954 235.957615,221.363755 228.49,225.81 C225.19,227.81 220.18,227.49 215.92,227.58 C198.44,227.96 180.92,228.1 163.47,228.29 C162.446242,228.393161 161.413157,228.231311 160.47,227.82 C136.12,213.54 122,192.46 119.26,164.3 C117.68,148 117.91,131.49 115.59,115.3 C114.074954,105.546585 113.432411,95.6775239 113.67,85.81 C113.91,78.58 114.5,71.34 115.36,64.15 C116.76,52.39 122.98,43.07 131.36,35.15 C146.77,20.5 164.5,10 186.13,8.55 C202.07,7.49 217.54,9.31 231.9,18.16 C245.06,26.28 252.3,38.21 258.29,51.66 C265.13,67 265.99,82.99 265.29,99.48 C264.84,109.8 264.6,120.17 264.8,130.56 C265.14,147.72 265.27,165.07 261.03,181.88 C259.61,187.48 256.58,192.88 253.48,197.79 C250.99,201.79 246.55,203.35 241.72,203.65 C237.9,203.93 234.17,204.63 230.42,205.13 Z M223.04,199.63 C225.79,199.63 226.84,199.93 227.71,199.63 C232.88,197.92 236.13,194.03 238.71,189.5 C249.09,171.5 255.08,152.25 255.32,131.3 C255.32,127.11 256.66,122.93 257.4,118.75 C258.24,114.05 260.09,109.28 259.78,104.66 C258.72,88.79 246.04,77.82 231.48,78.84 C207.54,80.53 200.89,96.75 202.41,110.07 C203.73,121.53 210.01,130.07 220.7,134.8 C230.78,139.25 240.14,137.31 248.7,130.7 L254.7,126.11 C252.92,136.11 252.37,144.44 249.86,152.16 C244.36,169.1 239.54,186.64 223,199.63 L223.04,199.63 Z M133.81,125.31 C137.14,128.93 139.02,131.21 141.13,133.24 C152.13,143.82 168.13,143.49 178.6,132.52 C189.145608,121.723536 190.614144,104.98808 182.11,92.52 C175.43,82.4 162.92,77.71 151.86,81.17 C137.79,85.57 129.04,96.53 129.73,109.44 C130.35,120.95 131.16,132.44 132.28,143.93 C132.759758,150.354812 133.861583,156.71794 135.57,162.93 C138.52769,173.037282 143.676455,182.368565 150.65,190.26 C154.03,194.04 158.04,197.46 164.52,196.7 C152.31,189.63 146.09,178.18 140.74,166.23 C135.14,153.7 135.06,140.18 133.81,125.31 Z M197.7,180.63 C202.31,177.69 206.7,175.08 210.88,172.19 C216.59,168.19 216.97,166.62 214.51,160.04 C210.66,149.74 206.89,139.4 202.94,129.14 C200.65,123.21 198.08,117.38 195.06,110.14 C193.3,114.26 192,116.8 191.11,119.49 C187.823333,129.416667 184.613333,139.37 181.48,149.35 C180.02,153.95 178.67,158.58 177.4,163.23 C176.45,166.75 177.33,169.23 180.98,171.05 C186.49,173.76 191.69,177.13 197.7,180.63 L197.7,180.63 Z M248.25,76.63 L251.8,67.42 L243.67,62.08 C243.33,55.52 239.95,50.45 233.89,47.34 C236.5,37.84 236.2,37.08 227.62,34.04 C225.174811,33.2535728 222.966959,31.8642085 221.2,30 C216.98,25.68 211.3,24.22 203.95,26.25 C208.48,27.66 213.03,25.75 214.79,30.46 C211.51,36.82 211.51,36.82 217.84,43.18 C215.46,49.87 217.06,52.43 223.84,53.18 C226.41,53.45 228.93,54.12 231.47,54.61 C226.28,56.12 220.82,55.2 217.02,61.21 C218.65,64.36 220.08,68.16 222.44,71.21 C223.6,72.74 226.79,74.08 228.5,73.58 C235.23,71.65 241.25,73.19 248.25,76.66 L248.25,76.63 Z M153.25,57.1 C155.41,54.25 158.48,52.03 158.68,49.57 C159.05,44.97 161.99,43.16 164.95,40.97 C168.42,38.41 171.95,35.97 175.42,33.39 C179.37,30.39 181.42,26.71 179.92,21.62 C173.5,22.51 154.16,32.37 150.74,36.53 C148.59,39.14 147.33,41.96 149.44,45.35 C150.415471,47.1357571 151.273944,48.9829774 152.01,50.88 C136.18,54.34 136.01,54.62 140.17,67.26 C139.25,68.02 138.26,68.88 137.17,69.68 C135.91,70.68 134.6,71.56 133.4,72.43 C135.9,80.1 136.64,80.58 143.46,79.05 C145.81,78.53 148.18,78.05 150.46,77.34 C154.23,76.19 156.66,73.13 156.46,69.64 C156.36,65.49 154.5,61.41 153.3,57.13 L153.25,57.1 Z M216.88,196.28 C206.79,194.59 182.06,194.64 175.94,196.34 C175.76,197.99 175.42,199.8 175.38,201.61 C175.31,204.47 176.7,206.17 179.7,206.21 L215.7,206.62 C216.21,202.8 216.57,199.53 216.93,196.31 L216.88,196.28 Z M118.2,97 L119.92,97.27 C120.434726,95.9350645 120.797023,94.5462613 121,93.13 C121.19,88.04 121.1,82.94 121.24,77.85 C121.67,62.35 125.3,48.05 138.32,35.74 C131.72,38.41 128.72,42.22 126.13,46.68 C116.93,62.5 116.91,79.64 118.2,97 Z M248.29,39.66 C252.623333,55.22 256.956667,70.78 261.29,86.34 C261.24,69.61 258,53.75 248.29,39.66 L248.29,39.66 Z M160.2,206.19 C151.2,203.41 145.54,203.73 140.83,207.26 C148,207.27 154.11,208.38 160.2,206.19 Z" id="Shape" fill="#FFFFFF"></path>
            <path d="M328.35,337.6 L329.19,264.27 C350.19,265.27 367.03,275.27 383.56,288.89 C365.25,305.48 343.56,317.36 330.5,338.42 L328.35,337.6 Z" id="Path" fill="#FFFFFF"></path>
            <path d="M369.25,310.52 C380.53,327.63 384.32,346.89 387.25,366.41 C377.16,369.68 343.25,369.02 332.6,365.6 C332.66,360.32 333.06,355.01 332.66,349.75 C332.36,345.75 334.34,343.14 336.85,340.75 C341.61,336.12 346.47,331.6 351.33,327.07 C357,321.75 362.76,316.51 369.25,310.52 Z" id="Path" fill="#FFFFFF"></path>
            <path d="M14.28,300.8 C25.04,283.04 41.28,274.8 59.76,266.65 C58.88,291.09 58.07,313.9 57.21,338.08 C40.72,327.12 29.15,312.83 14.28,300.8 Z" id="Path" fill="#FFFFFF"></path>
            <path d="M55.39,367 L11.31,366.49 C10.31,349.06 19.16,334.95 25.81,317.41 C28.48,321.14 29.89,323.82 31.95,325.83 C37.5,331.25 42.9,337.01 49.2,341.42 C54.31,345 56.34,348.8 55.61,354.78 C55.16,358.44 55.45,362.19 55.39,367 Z" id="Path" fill="#FFFFFF"></path>
            <path d="M136.62,259.17 C137.94,256.3 138.33,253.61 139.84,252.59 C142.302034,250.787554 145.647966,250.787554 148.11,252.59 C168.2,266 190.65,266 213.36,263.49 C222.23,262.49 230.43,259.09 238.14,254.41 C240.97,252.69 244.44,252.02 248.39,250.59 C248.71,253.69 248.92,255.68 249.17,258.03 C246.697956,258.435486 244.253305,258.993213 241.85,259.7 C239.42,260.57 236.66,261.39 234.91,263.11 C222.83,274.99 207.72,277.53 191.78,277.48 C175.09,277.43 160.47,270.85 146.44,262.56 C145.094755,261.730912 143.679321,261.021522 142.21,260.44 C140.372046,259.911829 138.505744,259.487821 136.62,259.17 Z" id="Path" fill="#FFFFFF"></path>
            <path d="M322.75,366 L315.97,365.92 C313.77,360.14 313.62,291.68 315.76,265.82 L323.3,264.5 C323.16,276.7 323.17,288.2 322.83,299.69 C322.67,305.02 321.78,310.34 321.31,315.69 C321.15,317.56 320.69,319.69 321.31,321.3 C325.96,333.68 321.31,346.21 322.16,358.63 C322.32,360.93 322.52,363.25 322.75,366 Z" id="Path" fill="#FFFFFF"></path>
            <path d="M64.72,266.24 L73.53,265.83 L72.39,366.14 C71.3505236,366.411912 70.2951572,366.618977 69.23,366.76 C67.8442049,366.829527 66.4557951,366.829527 65.07,366.76 C63.89,359.26 62.28,352.26 65.07,345.18 C65.347736,344.137555 65.4391404,343.054244 65.34,341.98 C65.48,328.43 65.97,314.98 64.57,301.34 C63.42,290 64.58,278.35 64.72,266.24 Z" id="Path" fill="#FFFFFF"></path>
            <path d="M147,244.42 C154,246.98 159.43,249.25 165,250.94 C177.74,254.8 190.66,252.81 203.39,251 C215.01,249.34 226.47,246.58 238.1,244.28 C240.1,246.92 238.58,248.47 236.31,249.98 C227.924178,255.456399 218.345383,258.837957 208.38,259.84 C191.32,261.74 174.58,259.27 158.38,254.02 C154.07,252.64 149.11,251.16 147,244.42 Z" id="Path" fill="#FFFFFF"></path>
            <path d="M180.89,245.57 C177.11,240.41 178.89,232.57 169.39,234.18 C175.19,231 199.39,230.59 215.83,232.43 C215.32,235.92 214.83,239.43 214.16,244.01 L180.89,245.57 Z" id="Path" fill="#FFFFFF"></path>
            <path d="M269,146.22 C270.56,132.29 265.81,118.22 269.61,103.66 C273.55,106.41 276.2,108.38 275.35,113.92 C273.88,123.38 273.89,133.07 273.03,142.63 C272.88,144.3 271.47,145.86 270.65,147.47 L269,146.22 Z" id="Path" fill="#FFFFFF"></path>
            <path d="M111.7,108.84 C112.03,120.84 112.37,132.75 112.7,144.57 C108.02,145.66 107.09,142.64 106.83,140.15 C105.839994,131.939471 105.312494,123.679764 105.25,115.41 C105.25,112.88 108.25,110.41 109.82,107.87 L111.7,108.84 Z" id="Path" fill="#FFFFFF"></path>
            <path d="M170.51,239.6 C171.25,241.66 172.04,243.88 173.06,246.75 C163.98,246.94 156.58,243.33 149.06,240.2 C145.49,238.71 147.26,235.88 147.51,233.08 L170.51,239.6 Z" id="Path" fill="#FFFFFF"></path>
            <path d="M223.64,241.23 L238.64,228.42 C240.38,237.64 240.12,238.25 232.93,240.82 C230.25,241.77 227.45,242.41 224.71,243.19 L223.64,241.23 Z" id="Path" fill="#FFFFFF"></path>
            <path d="M292.9,279.16 C290.03,281.3 287.41,283.93 284.26,285.51 C260.26,297.51 236.17,309.39 211.99,321.15 C206.22,323.95 199.99,325.81 198.07,332.98 C197.98,333.32 197.17,333.46 196.69,333.69 C192.81,327.13 193.87,323.63 200.43,320.59 C223.59,309.85 246.723333,299.066667 269.83,288.24 C275.43,285.62 280.83,282.62 286.39,279.9 C288.19,279.01 290.16,278.44 292.05,277.73 L292.9,279.16 Z" id="Path" fill="#000000"></path>
            <path d="M177.65,323.1 C177.28,325.77 182.65,329.45 177.77,333.5 C177.18,333.24 176.36,333.1 176.31,332.83 C175.17,326.19 170.31,323.16 164.76,320.78 C143.45,311.68 123.86,299.42 104.11,287.47 C99.94,284.95 96.11,281.87 92.11,279.05 L93.01,277.68 L177.65,323.1 Z" id="Path" fill="#000000"></path>
            <path d="M223,199.63 C239.5,186.63 244.32,169.1 249.83,152.17 C252.34,144.45 252.89,136.09 254.67,126.12 L248.67,130.71 C240.11,137.32 230.75,139.26 220.67,134.81 C209.98,130.08 203.67,121.54 202.38,110.08 C200.86,96.76 207.51,80.54 231.45,78.85 C246.01,77.85 258.69,88.8 259.75,104.67 C260.06,109.29 258.21,114.06 257.37,118.76 C256.63,122.94 255.37,127.12 255.29,131.31 C255.05,152.26 249.06,171.5 238.68,189.51 C236.07,194.04 232.82,197.93 227.68,199.64 C226.84,199.93 225.79,199.66 223,199.63 Z M208,111.37 C211.27,125.03 223.24,133.08 235.95,130.77 C246.82,128.77 255.32,118.56 253.95,108.88 L244.27,108.77 C242.46,115.69 238.54,120.5 231.1,121.06 C223.66,121.62 219.42,116.72 216.27,111.06 L208,111.37 Z M230.63,116.91 C235.8,116.91 240.47,112.99 240.63,108.46 C240.75,103.54 236.51,99.63 231.14,99.7 C226.07,99.78 220.9,104.55 220.89,109.17 C220.83,113 225.74,116.87 230.61,116.91 L230.63,116.91 Z" id="Shape" fill="#000000"></path>
            <path d="M133.81,125.31 C135.06,140.18 135.14,153.7 140.74,166.2 C146.09,178.15 152.31,189.6 164.52,196.67 C158.04,197.43 154.03,194.01 150.65,190.23 C143.676455,182.338565 138.52769,173.007282 135.57,162.9 C133.861583,156.68794 132.759758,150.324812 132.28,143.9 C131.16,132.43 130.35,120.9 129.73,109.41 C129.04,96.5 137.79,85.54 151.86,81.14 C162.92,77.68 175.43,82.37 182.11,92.49 C190.614144,104.95808 189.145608,121.693536 178.6,132.49 C168.09,143.49 152.12,143.79 141.13,133.21 C139,131.21 137.14,128.93 133.81,125.31 Z M135.57,115.09 C140.3,128 152,136.16 162.73,134.75 C174.01,133.27 181.42,125.2 183.05,112.36 L175.33,112.27 C166.52,128.63 154.09,129.39 142.87,113.95 L135.57,115.09 Z M159.29,100.23 C152.13,99.88 146.86,104.36 146.77,110.86 C146.7,115.95 152.36,121.04 158.24,121.18 C164.81,121.33 171.24,116.32 171.53,110.77 C171.91,104.2 167.77,100.64 159.29,100.23 L159.29,100.23 Z" id="Shape" fill="#000000"></path>
            <path d="M197.7,180.63 C191.7,177.13 186.49,173.76 180.98,171.03 C177.33,169.22 176.45,166.73 177.4,163.21 C178.67,158.56 180.02,153.93 181.48,149.33 C184.626667,139.33 187.836667,129.376667 191.11,119.47 C192,116.78 193.3,114.24 195.06,110.12 C198.06,117.38 200.65,123.21 202.94,129.12 C206.89,139.38 210.66,149.72 214.51,160.02 C216.97,166.6 216.59,168.21 210.88,172.17 C206.69,175.08 202.31,177.69 197.7,180.63 Z M209.4,166.1 C205.14,152.68 201.12,140.03 197.11,127.38 C197.75,142.49 195.59,157.46 198.11,173.32 L209.4,166.1 Z M191.4,169.59 L191.8,134.43 L190.44,134.22 C188.13,144.44 185.83,154.65 183.44,165.11 L191.4,169.59 Z" id="Shape" fill="#000000"></path>
            <path d="M248.25,76.66 C241.25,73.19 235.25,71.66 228.55,73.58 C226.84,74.08 223.65,72.74 222.49,71.21 C220.13,68.12 218.7,64.32 217.07,61.21 C220.87,55.21 226.33,56.12 231.52,54.61 C228.98,54.12 226.46,53.45 223.89,53.18 C217.06,52.47 215.46,49.91 217.89,43.18 C211.56,36.82 211.56,36.82 214.84,30.46 C213.08,25.75 208.53,27.66 204,26.25 C211.35,24.25 217,25.68 221.25,30 C223.013548,31.875131 225.221696,33.2750001 227.67,34.07 C236.25,37.07 236.55,37.87 233.94,47.37 C240,50.48 243.38,55.55 243.72,62.11 L251.85,67.45 L248.25,76.66 Z" id="Path" fill="#000000"></path>
            <path d="M153.3,57.13 C154.5,61.41 156.36,65.49 156.59,69.67 C156.79,73.16 154.36,76.22 150.59,77.37 C148.28,78.06 145.91,78.56 143.59,79.08 C136.77,80.61 136.03,80.13 133.53,72.46 C134.73,71.59 136.04,70.68 137.3,69.71 C138.3,68.91 139.3,68.05 140.3,67.29 C136.11,54.65 136.3,54.37 152.14,50.91 C151.403944,49.0129774 150.545471,47.1657571 149.57,45.38 C147.46,41.99 148.72,39.17 150.87,36.56 C154.29,32.4 173.63,22.56 180.05,21.65 C181.53,26.74 179.5,30.46 175.55,33.42 C172.1,36.01 168.55,38.42 165.08,41 C162.08,43.19 159.18,45 158.81,49.6 C158.53,52.06 155.46,54.28 153.3,57.13 Z" id="Path" fill="#000000"></path>
            <path d="M216.93,196.31 C216.57,199.53 216.21,202.8 215.78,206.65 L179.78,206.24 C176.78,206.24 175.39,204.5 175.46,201.64 C175.46,199.83 175.84,198.02 176.02,196.37 C182.11,194.67 206.84,194.62 216.93,196.31 Z" id="Path" fill="#000000"></path>
            <path d="M118.2,97 C116.91,79.64 116.93,62.5 126.13,46.68 C128.72,42.22 131.72,38.41 138.32,35.74 C125.32,48.05 121.67,62.35 121.24,77.85 C121.1,82.94 121.24,88.04 121,93.13 C120.797023,94.5462613 120.434726,95.9350645 119.92,97.27 L118.2,97 Z" id="Path" fill="#000000"></path>
            <path d="M248.29,39.66 C257.99,53.75 261.29,69.61 261.29,86.34 C256.956667,70.78 252.623333,55.22 248.29,39.66 Z" id="Path" fill="#000000"></path>
            <path d="M160.2,206.19 C154.11,208.38 147.98,207.27 140.83,207.26 C145.54,203.73 151.16,203.41 160.2,206.19 Z" id="Path" fill="#000000"></path>
            <path d="M208,111.37 L216.31,111.06 C219.46,116.72 223.66,121.62 231.14,121.06 C238.62,120.5 242.5,115.69 244.31,108.77 L253.99,108.88 C255.32,118.56 246.82,128.79 235.99,130.77 C223.22,133.08 211.25,125 208,111.37 Z" id="Path" fill="#FFFFFF"></path>
            <path d="M230.61,116.91 C225.74,116.91 220.83,112.98 220.83,109.17 C220.83,104.55 226.01,99.78 231.08,99.7 C236.45,99.63 240.69,103.54 240.57,108.46 C240.45,113 235.78,117 230.61,116.91 Z M229.16,112.67 C231.34,111.15 232.98,109.6 230.76,107.1 C229.902183,106.559877 228.823574,106.510504 227.92,106.97 C225.42,109.24 227.05,110.9 229.16,112.67 Z" id="Shape" fill="#FFFFFF"></path>
            <path d="M135.57,115.09 L142.87,113.95 C154.09,129.39 166.52,128.63 175.33,112.27 L183.05,112.36 C181.42,125.2 174.05,133.27 162.73,134.75 C152,136.16 140.3,128 135.57,115.09 Z" id="Path" fill="#FFFFFF"></path>
            <path d="M159.29,100.23 C167.77,100.64 171.91,104.23 171.53,110.77 C171.21,116.32 164.81,121.33 158.24,121.18 C152.36,121.04 146.7,115.95 146.77,110.86 C146.86,104.36 152.13,99.88 159.29,100.23 Z M161.49,111.54 C158.49,108.68 156.41,108.54 155.38,111.15 C155.14,111.76 156.38,113.65 156.55,113.6 C158.234274,113.007244 159.883588,112.319474 161.49,111.54 L161.49,111.54 Z" id="Shape" fill="#FFFFFF"></path>
            <path d="M209.4,166.1 L198.09,173.32 C195.59,157.46 197.75,142.49 197.09,127.38 C201.12,140 205.14,152.68 209.4,166.1 Z" id="Path" fill="#FFFFFF"></path>
            <path d="M191.43,169.59 L183.5,165.11 C185.86,154.65 188.16,144.44 190.5,134.22 L191.86,134.43 L191.43,169.59 Z" id="Path" fill="#FFFFFF"></path>
            <path d="M229.16,112.67 C227.05,110.9 225.42,109.24 227.92,106.97 C228.823574,106.510504 229.902183,106.559877 230.76,107.1 C233,109.6 231.34,111.15 229.16,112.67 Z" id="Path" fill="#000000"></path>
            <path d="M161.49,111.54 C159.883588,112.319474 158.234274,113.007244 156.55,113.6 C156.41,113.6 155.14,111.76 155.38,111.15 C156.41,108.5 158.46,108.68 161.49,111.54 Z" id="Path" fill="#000000"></path>
        </g>
    </g>
</svg>