<?xml version="1.0" encoding="UTF-8"?>
<svg width="400px" height="450px" viewBox="0 0 400 450" version="1.1" xmlns="http://www.w3.org/2000/svg" xmlns:xlink="http://www.w3.org/1999/xlink">
    <title>et</title>
    <g id="et" stroke="none" stroke-width="1" fill="none" fill-rule="evenodd">
        <g id="Group-31" transform="translate(22.000000, 57.000000)">
            <path d="M168.598,237.873 C162.981,241.999 157.435,245.99 150.604,246.384 C138.858,247.061 127.452,245.238 116.572,240.253 C115.536,239.778 114.432,239.479 112.63,238.84 C113.628,242.738 113.998,245.836 115.203,248.499 C116.919,252.293 118.193,256.641 123.241,257.386 C131.983,258.676 140.697,259.174 149.367,257.161 C156.159,255.584 161.885,251.647 167.161,246.933 C169.73,244.637 171.346,242.049 168.598,237.873 M106.035,206.147 C105.685,206.506 105.334,206.864 104.985,207.223 C106.323,212.387 107.869,217.502 108.947,222.728 C110.29,229.238 113.567,233.749 119.769,234.857 C128.395,236.399 137.073,237.983 145.785,238.49 C151.599,238.828 157.277,236.722 162.723,230.923 C139.467,232.216 122.009,221.088 106.035,206.147 M280.172,233.62 C282.325,230.397 284.112,227.563 286.047,224.852 C290.861,218.107 295.625,210.717 303.995,209.346 C310.404,208.296 314.822,204.001 320.487,201.466 C319.407,197.465 318.461,193.962 317.707,191.168 C312.362,188.242 308.219,191.042 303.81,191.91 C297.71,193.11 293.029,196.224 288.705,200.874 C282.369,207.691 279.887,216.436 277.036,225.044 C276.099,227.875 276.656,230.56 280.172,233.62 M119.65,262.262 C122.51,267.727 124.942,272.138 127.143,276.6763 C128.411,279.2893 130.083,280.4763 132.889,280.2603 C140.539,279.6723 148.326,280.0083 155.827,278.5773 C164.449,276.9333 172.869,273.877 178.682,265.644 C176.757,261.197 174.867,256.827 172.757,251.952 C157.323,268.769 139.208,267.182 119.65,262.262 M311.485,181.981 C313.694,182.391 315.201,182.629 316.691,182.953 C322.474,184.215 323.186,185.143 323.301,191.316 C323.34,193.429 323.283,195.563 323.547,197.646 C323.976,201.014 325.591,202.957 328.859,202.413 C330.29,182.6 331.701,163.171 333.096,143.74 C333.431,139.07 334.151,134.372 333.93,129.729 C333.505,120.84 332.565,111.977 331.778,103.109 C331.199,96.578 331.181,89.884 329.747,83.568 C326.957,71.272 323.46,59.154 320.016,47.041 C318.873,43.021 314.578,41.488 309.465,42.617 C304.952,43.613 303.315,45.444 303.368,50.153 C303.491,61.044 305.244,71.577 309.11,81.74 C311.518,88.074 313.621,94.416 320.452,96.702 C320.08,97.923 320.052,98.757 319.65,99.19 C318.628,100.29 317.439,101.211 316.202,102.306 C316.48,103.15 316.688,104.07 317.07,104.899 C324.257,120.517 324.118,136.631 319.719,152.971 C317.175,162.422 314.384,171.799 311.485,181.981 M112.755,304.8153 C102.172,306.3063 91.3914,304.0203 80.6804,301.4463 C66.4114,298.0163 52.3884,298.5373 38.4524,303.3963 C35.1384,304.5533 31.6344,305.7153 28.2134,305.7363 C23.0354,305.7693 20.5114,308.2823 19.0994,313.9583 C18.6304,315.8443 17.6004,317.5803 16.7504,319.3433 C16.1654,320.5573 15.1124,321.6173 14.8454,322.8853 C12.8074,332.5913 8.1714,341.7093 9.0574,352.8633 C12.1834,353.6053 15.5194,354.6673 18.9284,355.1583 C30.8814,356.8833 42.8474,358.5363 54.8334,359.9763 C65.5114,361.2593 76.3624,361.4343 86.8804,363.5473 C97.4164,365.6643 107.907,365.6343 118.299,364.5563 C148.869,361.3843 179.355,357.2773 209.909,353.8963 C222.993,352.4483 236.161,351.8953 249.291,350.9223 C256.679,350.3743 264.065,349.7993 271.392,349.2413 C275.488,339.5443 277.157,329.6043 277.662,319.4903 C277.816,316.4363 276.978,312.8573 275.462,310.2853 C273.155,306.3673 270.23,302.6263 266.874,299.7303 C263.949,297.2043 259.976,294.2833 256.625,294.4973 C250.423,294.8923 244.39,297.7303 238.193,299.0393 C229.587,300.8553 220.905,302.2543 212.24,303.7273 C207.303,304.5653 203.231,302.7133 199.778,298.8923 C197.513,296.3863 195.022,294.1153 192.417,291.5263 C179.803,300.5643 166.287,304.0243 151.38,299.7763 C157.443,296.3423 164.601,297.0803 170.744,294.1423 C177.192,291.0593 182.302,286.0053 187.771,280.9863 C185.833,277.9883 184.165,275.405 182.202,272.364 C167.178,288.3963 149.023,285.6453 131.664,284.9143 C128.524,290.8443 125.55,296.4583 121.906,303.3413 C126.086,309.5623 132.322,314.2273 140.633,314.9853 C148.286,315.6843 155.997,315.9023 163.683,315.9003 C170.735,315.8993 177.733,315.1143 184.072,311.1863 C184.859,310.6983 185.966,310.8053 187.209,310.5863 C186.796,314.8623 184.605,317.3073 181.931,318.8483 C178.093,321.0593 174.077,323.5783 169.891,324.2853 C161.911,325.6343 153.76,326.2683 145.676,326.3163 C137.393,326.3663 129.486,323.8983 123.252,317.7123 C119.609,314.0963 116.66,309.6753 112.755,304.8153 M91.4914,49.626 C76.1634,48.825 61.9624,53.148 48.1254,59.832 C39.7774,63.865 33.1834,69.691 28.7314,78.215 C21.3944,92.262 16.3594,107.362 11.8054,122.602 C8.0074,135.311 11.3254,147.023 18.9564,156.948 C32.4134,174.448 49.3744,185.496 70.7354,189.129 C86.3874,191.791 101.411,197.511 115.075,206.319 C127.149,214.103 140.097,218.781 153.91,221.002 C157.781,221.624 161.76,222.251 165.633,221.966 C189.069,220.241 206.602,207.495 219.777,187.37 C226.82,176.612 234.892,167.278 245.564,160.568 C252.579,156.157 259.559,151.587 266.094,146.418 C271.538,142.112 276.581,137.11 281.299,131.894 C285.133,127.656 286.591,122.199 285.091,116.217 C282.528,105.989 279.56,95.938 275.338,86.306 C270.55,75.382 265.313,64.795 257.484,56.001 C252.552,50.461 246.862,46.019 239.284,45.935 C232.47,45.858 225.6,46.721 218.85,46.063 C205.143,44.727 191.681,46.461 178.18,48.415 C161.19,50.874 144.206,53.5 126.976,52.225 C115.148,51.35 103.319,50.491 91.4914,49.626 M253.981,267.829 C251.808,268.937 250.126,269.085 248.431,266.504 C242.809,257.946 238.358,248.795 235.969,238.652 C235.182,235.306 235.091,231.59 235.462,228.137 C236.912,214.662 240.96,201.984 246.668,189.918 C249.249,184.461 257.214,180.342 262.879,181.231 C267.592,181.971 271.334,187.979 270.176,193.581 C269.617,196.287 268.126,198.76 267.198,201.394 C264.799,208.194 262.336,214.975 260.222,221.877 C259.665,223.693 259.593,226.402 260.486,227.874 C263.579,232.979 267.115,237.791 270.682,242.542 C271.399,243.497 272.959,243.833 274.195,244.213 C279.864,245.953 285.555,247.607 291.986,249.516 C292.663,244.573 293.132,239.285 294.169,234.127 C295.169,229.151 296.757,224.31 297.462,218.833 C294.769,222.4 292.051,225.947 289.393,229.545 C287.624,231.939 286.178,234.662 284.169,236.784 C280.651,240.502 277.159,240.049 274.216,235.693 C271.681,231.942 270.301,227.759 271.458,223.06 C275.293,207.502 281.43,193.743 296.51,187.216 C300.289,185.58 302.402,182.366 303.835,178.605 C307.326,169.444 310.698,160.231 314.038,151.007 C318.594,138.429 317.807,125.594 315.104,112.842 C313.616,105.825 311.39,99.16 308.044,92.633 C301.323,79.519 298.028,65.178 298.362,49.915 C298.494,43.811 300.846,40.345 305.638,37.821 C315.636,32.558 324.622,36.959 327.327,48.542 C328.337,52.873 329.166,57.322 330.749,61.419 C337.006,77.613 337.702,94.704 338.877,111.872 C340.25,131.919 339.125,151.901 338.767,171.894 C338.596,181.474 336.418,190.996 335.686,200.59 C335.024,209.261 334.288,218.086 335.121,226.67 C335.664,232.276 338.371,237.949 341.178,242.896 C343.699,247.341 344.435,251.658 343.277,256.29 C340.207,268.56 337.25,280.9003 333.355,292.8803 C331.688,298.0083 327.798,302.3083 324.924,306.9893 C324.442,307.7763 324.104,308.7023 323.511,309.3713 C315.095,318.8673 315.241,330.0023 318.012,341.6563 C319.239,346.8103 319.294,351.8383 317.131,356.8263 C315.598,360.3613 313.275,362.5593 309.654,362.8733 C301.344,363.5963 293.024,364.1783 284.713,364.8853 C281.843,365.1283 278.988,365.5733 274.978,366.0683 C273.943,364.6703 272.217,362.3413 270.262,359.7003 C269.202,359.6873 267.888,359.5843 266.583,359.6713 C242.921,361.2603 219.238,362.5653 195.607,364.5913 C180.516,365.8843 165.515,368.3553 150.454,370.1053 C133.65,372.0593 116.837,373.9823 99.9954,375.5023 C95.2434,375.9323 90.3804,374.8503 85.5634,374.5533 C75.0374,373.9063 64.4584,373.8133 53.9964,372.5793 C41.3544,371.0883 28.7974,368.7323 16.2334,366.5603 C13.2294,366.0413 10.1934,365.1093 7.4274,363.7653 C1.1224,360.6983 -1.3366,354.4483 0.6994,347.3793 C1.3454,345.1353 2.2864,342.9883 3.0484,340.7803 C3.8884,338.3453 5.2834,335.9123 5.3654,333.4393 C5.5674,327.3943 6.6374,321.9353 10.6524,317.3383 C11.3484,316.5403 10.9994,314.6883 11.1224,313.3223 C12.1254,302.1713 17.1904,296.9003 27.3284,295.5203 C35.1344,294.4573 42.8624,292.7203 50.6194,291.2513 C62.3004,289.0403 73.7834,290.2713 85.2834,292.9523 C94.2604,295.0453 103.312,297.3293 112.633,295.5353 C114.547,295.1673 116.576,294.6573 118.214,293.6073 C125.254,289.0963 125.633,287.7413 120.631,280.6683 C109.462,264.875 105.029,246.732 103.509,227.378 C103.033,221.312 101.759,215.314 100.737,209.309 C99.8854,204.312 97.0724,201.097 92.6984,199.128 C84.5474,195.458 76.1474,192.706 67.3584,191.786 C45.1274,189.458 27.2024,178.027 12.7224,160.75 C2.1544,148.14 -1.8876,133.016 4.4944,116.215 C8.1434,106.609 11.6334,96.934 15.4184,87.391 C16.9594,83.504 19.0104,79.836 20.9714,76.156 C26.5804,65.633 34.6114,58.44 45.7864,55.571 C52.8084,53.769 59.6004,51.264 66.3904,48.557 C78.2024,43.846 90.6714,42.029 103.241,41.512 C112.682,41.123 122.142,40.878 131.585,41.042 C138.369,41.16 145.161,42.729 151.912,42.48 C169.457,41.832 187.025,41.226 204.439,38.347 C209.195,37.561 214.047,37.369 218.866,37.119 C225.007,36.801 231.159,36.593 237.306,36.561 C239.458,36.55 241.906,36.618 243.715,37.655 C251.462,42.096 258.995,46.823 264.87,54.193 C276.194,68.396 283.228,85.094 289.634,102.149 C291.395,106.838 292.578,111.896 293.261,116.906 C294.535,126.247 290.831,133.819 284.889,140.411 C277.003,149.158 267.452,155.52 258.113,162.19 C252.8,165.985 247.328,169.531 242.093,173.443 C235.588,178.306 229.65,183.809 224.469,190.382 C219.088,197.21 213.117,203.523 207.178,209.819 C199.336,218.134 189.617,223.075 179.305,226.813 C177.063,227.627 174.802,228.381 172.511,229.176 C172.202,236.783 176.004,242.556 178.718,248.425 C183.193,258.101 188.773,267.185 193.818,276.5623 C195.13,279.0013 197.987,280.7423 196.975,284.3443 C196.846,284.8043 197.34,285.7843 197.792,286.0613 C201.924,288.5943 205.502,292.8133 210.722,292.3613 C218.358,291.7003 225.98,290.7083 233.564,289.5343 C239.417,288.6283 245.167,286.8173 251.035,286.1943 C254.598,285.8163 258.298,286.9323 261.762,287.3543 C264.341,284.4823 263.986,282.0983 261.568,279.8493 C260.076,278.4613 258.519,277.1433 257.112,275.6613 C255.036,273.478 253.276,271.08 253.776,267.623 C254.959,267.776 256.344,267.59 257.315,268.181 C259.376,269.436 261.105,271.325 263.177,272.552 C271.11,277.2463 272.04,279.0343 271.054,288.7653 C276.009,293.1263 277.541,300.5303 283.147,304.2943 C283.416,304.4753 283.41,305.1663 283.488,305.6273 C285.203,315.7463 288.315,325.6913 286.053,336.2493 C284.933,341.4783 284.334,346.8353 283.506,352.0953 C287.372,352.1393 291.299,352.3453 295.213,352.1853 C299.33,352.0173 303.436,351.5003 307.687,351.1233 C308.382,345.2493 309.165,339.7123 309.612,334.1443 C309.729,332.6813 309.177,330.7893 308.295,329.6713 C304.99,325.4773 305.513,321.2513 308.333,317.4283 C312.408,311.9043 316.759,306.5883 321.3,301.4983 C324.076,298.3873 326.869,295.8213 325.869,290.7363 C325.461,288.6723 326.563,286.1393 327.322,283.9543 C331.003,273.36 334.702,262.77 338.61,252.269 C339.974,248.604 339.755,245.753 337.432,242.52 C332.005,234.972 328.473,226.386 326.409,217.079 C325.775,214.222 324.595,211.503 323.705,208.84 C309.562,211.698 299.432,223.839 298.495,237.976 C298.187,242.637 297.192,247.244 296.543,251.882 C296.293,253.677 296.135,255.486 295.974,256.935 C298.958,259.454 301.296,258.872 303.576,256.8 C308.096,252.689 311.056,247.654 312.096,241.311 C312.586,238.324 313.236,235.296 314.346,232.53 C314.796,231.407 316.664,230.935 317.887,230.166 C318.492,231.3 319.256,232.375 319.645,233.589 C319.913,234.426 319.807,235.489 319.617,236.391 C318.22,243.01 316.765,249.614 315.317,256.221 C314.468,260.096 313.075,263.939 312.898,267.847 C312.744,271.231 314.135,274.664 314.493,278.1183 C314.661,279.7433 314.542,282.2763 313.616,282.9853 C311.411,284.6693 310.077,282.3443 309.086,280.5543 C307.048,276.8753 305.474,273.049 306.038,268.532 C306.311,266.357 306.131,264.118 306.164,261.256 C299.518,266.135 294.053,263.233 289.645,258.8 C284.645,253.771 279.066,250.116 272.56,248.76 C266.056,247.403 262.617,242.492 258.84,237.738 C253.845,231.448 252.819,224.27 255.447,216.596 C257.64,210.191 260.107,203.894 262.518,197.577 C263.181,195.839 264.339,194.282 264.813,192.504 C265.755,188.965 263.459,186.131 260.18,187.065 C255.487,188.402 250.887,190.19 248.826,195.723 C247.848,198.345 246.436,200.794 245.577,203.454 C240.626,218.776 238.681,234.019 246.156,249.235 C249.105,255.24 251.392,261.62 253.981,267.829" id="Fill-1" fill="#000000"></path>
            <path d="M300.616,20.071 C295.472,16.488 293.017,7.678 295.632,2.271 C296.448,0.582 298.299,-0.491 299.253,1.217 C301.123,4.565 302.64,8.274 303.581,12.043 C304.345,15.104 302.929,17.954 300.616,20.071" id="Fill-2" fill="#000000"></path>
            <path d="M342.406,71.284 C345.362,67.867 348.382,67.788 351.296,68.932 C352.969,69.591 355.144,71.059 355.508,72.596 C355.849,74.046 354.489,77.022 353.203,77.603 C351.298,78.463 348.322,78.636 346.672,77.564 C344.749,76.314 343.761,73.411 342.406,71.284" id="Fill-3" fill="#000000"></path>
            <path d="M341.648,33.474 C345.044,32.457 347.709,31.359 350.459,30.981 C351.6,30.824 353.519,31.878 354.04,32.96 C355.131,35.235 351.859,39.621 348.283,41.361 C345.207,42.858 343.786,40.82 342.71,38.35 C342.184,37.145 342.113,35.71 341.648,33.474" id="Fill-4" fill="#000000"></path>
            <path d="M328.96,19.383 C325.524,17.445 324.083,14.821 325.365,11.652 C326.347,9.227 326.916,5.439 331.304,6.281 C332.493,10.871 332.537,15.144 328.96,19.383" id="Fill-5" fill="#000000"></path>
            <path d="M280.373,32.78 C273.938,29.968 271.77,24.875 268.06,20.47 C273.77,19.369 276.037,23.69 278.861,26.47 C279.884,27.477 279.732,29.854 280.373,32.78" id="Fill-6" fill="#000000"></path>
            <path d="M129.353,122.282 C129.633,122.703 129.913,123.124 130.193,123.545 C138.932,120.486 147.59,116.992 157.045,118.582 C157.798,118.709 159.101,117.234 159.567,116.202 C159.764,115.764 158.564,114.417 157.8,113.74 C157.373,113.361 156.54,113.478 155.886,113.424 C147.309,112.712 139.362,114.915 131.992,119.569 C130.969,120.214 130.225,121.365 129.353,122.282 M126.032,137.666 C128.413,137.273 129.498,137.326 130.393,136.91 C138.712,133.046 147.245,130.25 156.431,130.376 C157.263,130.386 158.262,130.22 158.901,129.721 C160.42,128.534 160.644,126.978 158.917,125.803 C158.04,125.205 156.851,124.802 155.822,124.846 C146.261,125.261 137.177,127.654 128.942,133.035 C127.925,133.699 127.457,135.33 126.032,137.666 M127.177,205.109 C129.426,208.229 132.988,208.406 136.246,209.223 C143.491,211.043 150.595,208.68 157.763,208.442 C171.585,207.982 184.371,202.45 197.745,199.892 C198.993,199.654 200.164,198.779 201.301,198.073 C203.899,196.463 204.858,194.125 203.807,190.386 C202.137,190.613 200.361,190.499 198.851,191.124 C193.751,193.236 188.766,195.663 183.701,197.873 C176.915,200.833 169.907,202.096 162.516,202.212 C150.921,202.392 139.336,203.4 127.749,204.082 C127.641,204.089 127.55,204.424 127.177,205.109 M267.984,115.626 C269.719,113.198 270.884,112.212 271.246,110.959 C273.483,103.206 272.692,95.373 269.731,88.243 C266.543,80.566 262.207,73.431 258.239,66.144 C257.499,64.786 256.295,63.508 255.019,62.731 C245.494,56.933 235.35,55.743 225.338,60.466 C211.664,66.917 198.368,74.29 184.823,81.071 C181.264,82.853 177.469,84.319 173.637,85.19 C168.928,86.261 164.067,86.556 159.272,87.186 C161.185,89.097 163.266,90.349 165.499,90.912 C173.12,92.834 180.197,91.018 187.111,87.261 C200.252,80.117 213.483,73.151 226.77,66.322 C235.726,61.719 251.249,64.668 257.161,72.82 C261.55,78.875 265.265,85.734 268.073,92.789 C270.365,98.55 271.017,105.117 268.075,111.316 C267.756,111.987 268.014,112.971 267.984,115.626 M28.3313,127.205 C31.2313,118.698 34.1173,110.185 37.0353,101.685 C39.0863,95.709 42.5693,91.261 48.0303,88.275 C56.7243,83.521 65.0193,83.556 73.8323,88.082 C78.8903,90.678 84.5603,93.231 90.0133,93.374 C106.028,93.795 122.09,93.395 138.099,92.547 C149.536,91.94 155.75,91.046 155.573,71.503 C155.566,70.797 155.618,70.087 155.58,69.383 C155.307,64.372 154.174,63.897 149.624,66.756 C149.824,70.313 150.252,73.816 150.166,77.305 C149.999,84.099 147.887,86.662 141.693,87.689 C133.026,89.127 124.343,89.385 115.537,89.079 C102.905,88.64 90.6293,86.658 78.6983,82.406 C72.0973,80.054 65.3643,79.401 58.5643,79.895 C51.4203,80.414 43.9733,82.019 39.9113,88.803 C32.9843,100.371 30.8053,113.91 28.3313,127.205 M175.751,155.805 C181.742,162.595 188.908,168.482 192.368,177.861 C193.226,180.187 193.57,183.537 197.52,183.795 C197.541,181.99 197.928,180.299 197.513,178.877 C195.588,172.28 192.617,166.301 187.662,161.675 C184.684,158.895 181.574,156.267 178.732,153.34 C177.427,151.996 176.299,150.226 175.657,148.418 C173.913,143.512 170.974,139.426 166.438,138.065 C157.437,135.367 148.245,135.262 139.263,138.804 C134.041,140.864 129.909,143.817 129.401,150.596 C129.233,152.841 127.912,154.99 127.102,157.177 C123.376,167.235 119.559,177.279 118.76,188.218 C118.45,192.479 118.18,196.9 123.711,200.647 C122.304,184.559 126.032,170.826 131.553,156.997 C135.393,159.764 140.381,159.166 143.439,162.782 C147.858,161.351 149.013,157.656 149.967,154.064 C150.939,150.404 149.11,148.073 145.43,148.487 C141.96,148.878 138.564,150.033 134.181,151.08 C140.291,142.713 148.552,143.247 156.139,142.774 C160.857,142.48 166.479,141.642 169.376,147.937 C166.922,149.231 162.88,147.79 162.484,151.823 C162.113,155.612 164.419,158.334 167.873,160.238 C170.275,158.886 172.725,157.509 175.751,155.805 M52.2033,167.863 C58.2413,175.113 65.5093,180.134 74.7483,180.361 C85.8793,180.634 96.5453,177.615 106.784,173.112 C112.006,170.815 115.758,166.678 118.453,161.164 C122.821,152.228 122.9,142.916 120.491,133.734 C118.729,127.019 115.366,120.8 112.879,114.288 C111.498,110.669 108.962,108.951 105.666,107.696 C99.6823,105.42 93.8553,102.678 87.9123,100.275 C78.5233,96.479 68.8673,96.283 59.5103,99.79 C48.6353,103.866 44.0273,113.781 41.2913,124.945 C40.7343,127.219 40.8753,130.025 39.6503,131.719 C35.0863,138.026 37.5503,143.328 41.4823,148.087 C45.5353,152.993 50.4533,157.074 54.5433,161.949 C60.6933,169.277 67.9673,171.777 77.0333,170.306 C83.1283,169.317 89.3933,169.529 95.5823,169.205 C89.5403,174.091 82.8053,176.149 75.8743,176.758 C66.9223,177.543 59.9513,171.367 52.2033,167.863 M195.018,153.743 C199.065,154.309 201.653,154.981 204.242,154.982 C216.71,154.987 228.613,151.992 239.976,146.555 C244.361,144.458 247.45,140.758 249.543,136.212 C253.899,126.754 256.198,116.781 255.134,106.193 C254.109,95.989 251.326,86.971 235.841,86.011 C234.749,85.942 233.666,85.7 232.574,85.614 C217.241,84.415 202.408,86.696 188.083,92.831 C182.739,95.12 178.67,99.497 178.043,104.999 C177.4,110.648 175.146,115.543 174.101,120.905 C173.133,125.869 172.887,130.62 175.242,135.282 C176.165,137.107 176.595,139.22 177.225,141.212 C181.141,153.589 188.426,162.671 200.444,165.958 C209.713,168.494 219.202,167.888 228.327,164.356 C231.535,163.115 235.006,162.138 237.835,157.77 C223.027,161.517 209.01,164.952 195.018,153.743 M91.4913,49.626 C103.319,50.491 115.148,51.349 126.976,52.224 C144.207,53.5 161.19,50.874 178.18,48.415 C191.681,46.461 205.143,44.727 218.85,46.063 C225.6,46.72 232.47,45.858 239.284,45.934 C246.862,46.019 252.552,50.461 257.484,56.001 C265.313,64.795 270.55,75.382 275.338,86.305 C279.56,95.938 282.528,105.989 285.091,116.217 C286.591,122.199 285.133,127.656 281.299,131.894 C276.582,137.11 271.539,142.112 266.094,146.418 C259.559,151.587 252.58,156.157 245.564,160.568 C234.892,167.278 226.82,176.612 219.777,187.37 C206.602,207.495 189.069,220.241 165.633,221.966 C161.76,222.251 157.781,221.624 153.91,221.002 C140.097,218.781 127.149,214.103 115.075,206.319 C101.412,197.511 86.3873,191.791 70.7353,189.129 C49.3743,185.496 32.4143,174.448 18.9573,156.948 C11.3253,147.023 8.0073,135.311 11.8053,122.601 C16.3593,107.362 21.3943,92.261 28.7313,78.215 C33.1833,69.691 39.7773,63.865 48.1253,59.832 C61.9623,53.148 76.1643,48.825 91.4913,49.626" id="Fill-7" fill="#FFFFFF"></path>
            <path d="M227.358,309.4699 C216.76,317.2049 207.274,324.3829 197.523,331.1209 C193.705,333.7599 189.466,336.0569 185.122,337.4029 C163.752,344.0229 142.197,343.1859 120.597,338.6479 C113.209,337.0959 107.095,333.2949 101.858,327.6539 C100.117,325.7789 98.3332,323.9499 96.5692,322.0999 C101.177,332.4799 107.448,341.3039 118.103,343.9969 C128.517,346.6299 139.178,348.9749 149.824,349.5499 C168.759,350.5719 186.791,345.2229 204.025,337.0149 C209.607,334.3569 215.211,331.3979 220.125,327.5739 C225.436,323.4409 227.684,317.2019 227.358,309.4699 M112.755,304.8159 C116.66,309.6749 119.609,314.0959 123.253,317.7119 C129.486,323.8989 137.393,326.3659 145.676,326.3169 C153.76,326.2679 161.912,325.6339 169.891,324.2849 C174.077,323.5779 178.093,321.0589 181.931,318.8479 C184.605,317.3069 186.796,314.8629 187.21,310.5859 C185.966,310.8049 184.859,310.6989 184.072,311.1869 C177.733,315.1149 170.735,315.8999 163.683,315.9009 C155.998,315.9029 148.287,315.6839 140.633,314.9859 C132.322,314.2269 126.087,309.5629 121.906,303.3409 C125.55,296.4579 128.524,290.8439 131.665,284.9139 C149.023,285.6459 167.178,288.3969 182.202,272.365 C184.166,275.406 185.834,277.9889 187.771,280.9869 C182.302,286.0049 177.192,291.0589 170.745,294.1419 C164.601,297.0799 157.443,296.3419 151.38,299.7769 C166.288,304.0249 179.803,300.5649 192.418,291.5269 C195.022,294.1159 197.513,296.3859 199.778,298.8919 C203.231,302.7129 207.303,304.5659 212.24,303.7269 C220.905,302.2539 229.587,300.8559 238.193,299.0389 C244.39,297.7309 250.423,294.8919 256.626,294.4969 C259.976,294.2829 263.949,297.2039 266.875,299.7309 C270.23,302.6259 273.155,306.3669 275.462,310.2849 C276.978,312.8579 277.816,316.4359 277.663,319.4909 C277.157,329.6049 275.488,339.5439 271.392,349.2409 C264.065,349.7989 256.679,350.3739 249.292,350.9219 C236.162,351.8959 222.993,352.4489 209.909,353.8969 C179.355,357.2779 148.869,361.3839 118.299,364.5559 C107.907,365.6339 97.4172,365.6639 86.8802,363.5469 C76.3622,361.4339 65.5112,361.2589 54.8342,359.9759 C42.8472,358.5359 30.8812,356.8829 18.9282,355.1579 C15.5192,354.6669 12.1832,353.6059 9.0572,352.8639 C8.1712,341.7089 12.8072,332.5909 14.8452,322.8849 C15.1122,321.6169 16.1662,320.5569 16.7512,319.3429 C17.6002,317.5799 18.6302,315.8439 19.0992,313.9579 C20.5112,308.2829 23.0352,305.7699 28.2132,305.7369 C31.6342,305.7149 35.1382,304.5529 38.4532,303.3969 C52.3882,298.5369 66.4122,298.0159 80.6802,301.4469 C91.3912,304.0209 102.172,306.3059 112.755,304.8159" id="Fill-8" fill="#FFFFFF"></path>
            <path d="M253.981,267.829 C251.392,261.62 249.105,255.24 246.156,249.235 C238.681,234.019 240.627,218.776 245.577,203.454 C246.436,200.794 247.848,198.345 248.826,195.723 C250.887,190.19 255.487,188.402 260.18,187.065 C263.46,186.131 265.755,188.965 264.813,192.504 C264.339,194.282 263.181,195.839 262.518,197.577 C260.107,203.893 257.64,210.191 255.447,216.596 C252.819,224.27 253.845,231.448 258.84,237.738 C262.617,242.492 266.056,247.403 272.56,248.76 C279.066,250.116 284.645,253.771 289.645,258.8 C294.053,263.233 299.518,266.135 306.165,261.256 C306.131,264.118 306.311,266.357 306.039,268.532 C305.474,273.049 307.048,276.8753 309.086,280.5543 C310.078,282.3443 311.412,284.6693 313.616,282.9853 C314.543,282.2763 314.662,279.7433 314.493,278.1183 C314.135,274.664 312.745,271.231 312.898,267.847 C313.075,263.939 314.468,260.096 315.317,256.221 C316.765,249.614 318.22,243.01 319.617,236.391 C319.807,235.489 319.914,234.426 319.645,233.589 C319.256,232.375 318.492,231.3 317.887,230.166 C316.665,230.934 314.796,231.407 314.346,232.53 C313.236,235.296 312.586,238.324 312.096,241.31 C311.056,247.654 308.096,252.689 303.576,256.8 C301.296,258.872 298.959,259.454 295.974,256.934 C296.135,255.486 296.294,253.677 296.544,251.882 C297.192,247.244 298.187,242.637 298.496,237.975 C299.432,223.839 309.562,211.698 323.706,208.84 C324.595,211.503 325.775,214.222 326.409,217.079 C328.473,226.386 332.005,234.972 337.432,242.52 C339.755,245.753 339.974,248.604 338.61,252.269 C334.703,262.77 331.003,273.36 327.322,283.9543 C326.563,286.1393 325.461,288.6723 325.869,290.7363 C326.87,295.8213 324.076,298.3873 321.3,301.4983 C316.759,306.5883 312.408,311.9043 308.334,317.4283 C305.513,321.2513 304.99,325.4773 308.295,329.6713 C309.177,330.7893 309.729,332.6813 309.612,334.1433 C309.166,339.7123 308.382,345.2493 307.687,351.1233 C303.436,351.5003 299.331,352.0173 295.213,352.1843 C291.299,352.3453 287.373,352.1393 283.506,352.0953 C284.335,346.8353 284.933,341.4783 286.053,336.2493 C288.315,325.6913 285.204,315.7463 283.488,305.6273 C283.41,305.1663 283.417,304.4753 283.147,304.2943 C277.542,300.5303 276.009,293.1263 271.054,288.7653 C272.041,279.0343 271.11,277.2463 263.177,272.552 C261.105,271.325 259.377,269.436 257.315,268.181 C256.344,267.59 254.96,267.776 253.776,267.623 C253.788,267.634 253.981,267.829 253.981,267.829" id="Fill-9" fill="#FFFFFF"></path>
            <path d="M311.485,181.982 C314.384,171.799 317.175,162.422 319.719,152.971 C324.118,136.631 324.257,120.517 317.07,104.9 C316.688,104.071 316.48,103.151 316.202,102.306 C317.439,101.211 318.629,100.291 319.65,99.191 C320.052,98.757 320.081,97.923 320.452,96.703 C313.622,94.417 311.518,88.075 309.11,81.741 C305.245,71.578 303.491,61.044 303.368,50.154 C303.315,45.445 304.953,43.614 309.465,42.618 C314.579,41.489 318.874,43.022 320.016,47.042 C323.461,59.155 326.958,71.273 329.748,83.569 C331.181,89.884 331.199,96.579 331.778,103.11 C332.565,111.977 333.506,120.84 333.93,129.73 C334.151,134.373 333.431,139.071 333.096,143.741 C331.701,163.171 330.291,182.6 328.859,202.414 C325.591,202.958 323.976,201.014 323.548,197.647 C323.283,195.564 323.34,193.429 323.301,191.317 C323.186,185.143 322.474,184.215 316.691,182.954 C315.201,182.629 313.694,182.391 311.485,181.982" id="Fill-10" fill="#FFFFFF"></path>
            <path d="M119.65,262.262 C139.209,267.182 157.323,268.769 172.757,251.952 C174.867,256.827 176.757,261.198 178.682,265.645 C172.87,273.877 164.449,276.9329 155.827,278.5769 C148.326,280.0079 140.54,279.6719 132.889,280.2599 C130.084,280.4759 128.412,279.2889 127.143,276.6759 C124.942,272.138 122.51,267.728 119.65,262.262" id="Fill-11" fill="#FFFFFF"></path>
            <path d="M280.173,233.62 C276.656,230.559 276.1,227.875 277.037,225.044 C279.888,216.435 282.37,207.691 288.706,200.874 C293.029,196.224 297.711,193.11 303.811,191.91 C308.22,191.042 312.362,188.242 317.708,191.168 C318.462,193.962 319.407,197.465 320.487,201.466 C314.822,204.001 310.404,208.296 303.996,209.346 C295.626,210.717 290.861,218.107 286.048,224.851 C284.112,227.563 282.325,230.397 280.173,233.62" id="Fill-12" fill="#FFFFFF"></path>
            <path d="M106.035,206.148 C122.01,221.088 139.468,232.216 162.723,230.923 C157.277,236.722 151.599,238.829 145.785,238.491 C137.073,237.984 128.395,236.4 119.769,234.858 C113.567,233.75 110.291,229.239 108.947,222.729 C107.869,217.502 106.323,212.387 104.985,207.223 C105.335,206.865 105.685,206.506 106.035,206.148" id="Fill-13" fill="#FFFFFF"></path>
            <path d="M168.598,237.873 C171.346,242.049 169.73,244.637 167.161,246.933 C161.885,251.647 156.159,255.584 149.367,257.161 C140.697,259.174 131.983,258.676 123.241,257.386 C118.193,256.641 116.919,252.293 115.203,248.499 C113.998,245.836 113.628,242.738 112.63,238.84 C114.432,239.479 115.536,239.778 116.572,240.253 C127.452,245.238 138.858,247.061 150.604,246.384 C157.435,245.99 162.981,241.999 168.598,237.873" id="Fill-14" fill="#FFFFFF"></path>
            <path d="M219.499,93.412 C210.661,93.294 201.924,93.716 193.447,96.699 C191.995,97.21 189.853,97.455 189.288,98.559 C185.353,106.264 179.518,113.176 178.984,122.397 C178.811,125.41 179.782,129.143 181.485,131.507 C185.94,137.689 191.447,142.794 198.753,144.946 C212.367,148.956 225.705,147.464 238.558,141.672 C241.337,140.419 243.945,137.464 245.503,134.592 C249.837,126.595 250.809,117.681 249.42,108.661 C248.082,99.971 244.175,96.03 235.886,94.785 C230.471,93.971 224.964,93.846 219.499,93.412 M195.019,153.743 C209.011,164.952 223.027,161.517 237.836,157.77 C235.007,162.139 231.535,163.115 228.327,164.356 C219.202,167.889 209.714,168.494 200.444,165.958 C188.427,162.671 181.142,153.589 177.226,141.212 C176.596,139.221 176.165,137.107 175.242,135.282 C172.888,130.62 173.134,125.869 174.102,120.905 C175.146,115.543 177.4,110.648 178.044,104.999 C178.671,99.497 182.739,95.12 188.084,92.831 C202.408,86.696 217.241,84.415 232.574,85.614 C233.667,85.7 234.749,85.942 235.842,86.011 C251.326,86.972 254.109,95.989 255.135,106.193 C256.198,116.781 253.899,126.754 249.544,136.212 C247.45,140.758 244.361,144.458 239.977,146.556 C228.613,151.992 216.711,154.987 204.242,154.982 C201.653,154.981 199.065,154.309 195.019,153.743" id="Fill-15" fill="#000000"></path>
            <path d="M88.8064,168.02 C91.3124,167.82 94.8074,167.507 98.3064,167.265 C107.264,166.647 113.586,157.832 114.393,151.037 C115.852,138.751 115.16,126.63 109.285,115.523 C108.491,114.021 107.067,112.305 105.628,111.887 C93.8614,108.459 82.4794,103.267 69.6654,105.202 C60.9164,106.522 54.1354,110.511 49.7764,118.42 C47.1404,123.201 45.6744,128.742 43.8514,134.007 C42.4194,138.14 43.2804,141.751 46.2844,144.917 C51.4384,150.349 56.3714,156.022 61.5384,161.44 C64.7734,164.832 68.8224,166.629 73.3484,166.995 C78.1584,167.381 82.9784,167.64 88.8064,168.02 M52.2024,167.864 C59.9514,171.368 66.9224,177.543 75.8744,176.758 C82.8054,176.15 89.5404,174.091 95.5824,169.206 C89.3934,169.53 83.1284,169.318 77.0334,170.307 C67.9674,171.778 60.6934,169.278 54.5434,161.95 C50.4524,157.075 45.5354,152.994 41.4824,148.087 C37.5504,143.329 35.0864,138.027 39.6504,131.719 C40.8754,130.026 40.7344,127.22 41.2914,124.946 C44.0274,113.782 48.6354,103.867 59.5104,99.791 C68.8674,96.284 78.5234,96.48 87.9114,100.276 C93.8554,102.678 99.6824,105.42 105.665,107.697 C108.962,108.952 111.497,110.669 112.879,114.289 C115.366,120.8 118.729,127.02 120.491,133.735 C122.9,142.916 122.821,152.229 118.452,161.165 C115.758,166.678 112.006,170.816 106.784,173.113 C96.5454,177.616 85.8794,180.634 74.7474,180.362 C65.5094,180.134 58.2414,175.114 52.2024,167.864" id="Fill-16" fill="#000000"></path>
            <path d="M175.752,155.806 C172.726,157.509 170.275,158.887 167.873,160.239 C164.42,158.334 162.113,155.613 162.484,151.824 C162.881,147.79 166.923,149.232 169.377,147.938 C166.48,141.643 160.857,142.481 156.14,142.775 C148.553,143.247 140.292,142.713 134.182,151.08 C138.564,150.034 141.961,148.878 145.431,148.488 C149.11,148.074 150.94,150.405 149.968,154.065 C149.014,157.657 147.858,161.352 143.439,162.783 C140.382,159.166 135.394,159.765 131.554,156.997 C126.032,170.827 122.305,184.56 123.712,200.648 C118.181,196.901 118.45,192.48 118.761,188.218 C119.56,177.28 123.377,167.236 127.103,157.177 C127.912,154.991 129.233,152.841 129.401,150.597 C129.909,143.818 134.042,140.865 139.264,138.805 C148.245,135.263 157.438,135.368 166.439,138.066 C170.975,139.426 173.913,143.513 175.657,148.418 C176.3,150.227 177.428,151.996 178.732,153.34 C181.574,156.268 184.685,158.896 187.662,161.675 C192.617,166.301 195.589,172.281 197.514,178.877 C197.929,180.299 197.541,181.991 197.521,183.795 C193.57,183.537 193.227,180.188 192.368,177.862 C188.908,168.483 181.742,162.596 175.752,155.806" id="Fill-17" fill="#000000"></path>
            <path d="M28.3309,127.205 C30.8059,113.91 32.9839,100.371 39.9109,88.804 C43.9739,82.019 51.4209,80.414 58.5639,79.895 C65.3639,79.401 72.0979,80.055 78.6979,82.406 C90.6299,86.658 102.905,88.641 115.537,89.079 C124.344,89.385 133.026,89.127 141.693,87.689 C147.888,86.662 150,84.1 150.167,77.306 C150.253,73.816 149.824,70.313 149.625,66.756 C154.175,63.897 155.308,64.372 155.58,69.383 C155.618,70.087 155.566,70.797 155.573,71.503 C155.751,91.046 149.536,91.94 138.1,92.547 C122.091,93.395 106.028,93.795 90.0139,93.374 C84.5599,93.231 78.8909,90.679 73.8329,88.082 C65.0189,83.557 56.7249,83.521 48.0299,88.275 C42.5689,91.261 39.0869,95.709 37.0349,101.685 C34.1169,110.185 31.2309,118.698 28.3309,127.205" id="Fill-18" fill="#000000"></path>
            <path d="M267.984,115.626 C268.014,112.972 267.756,111.987 268.075,111.316 C271.017,105.117 270.365,98.55 268.073,92.789 C265.265,85.734 261.55,78.875 257.161,72.82 C251.25,64.668 235.726,61.719 226.77,66.322 C213.483,73.151 200.253,80.117 187.111,87.261 C180.197,91.019 173.12,92.834 165.499,90.912 C163.266,90.35 161.185,89.098 159.272,87.187 C164.067,86.557 168.928,86.262 173.637,85.19 C177.469,84.319 181.264,82.854 184.823,81.071 C198.368,74.29 211.664,66.917 225.338,60.466 C235.35,55.743 245.494,56.934 255.019,62.731 C256.296,63.508 257.5,64.786 258.239,66.145 C262.208,73.432 266.544,80.566 269.731,88.243 C272.692,95.373 273.483,103.206 271.246,110.959 C270.884,112.212 269.719,113.198 267.984,115.626" id="Fill-19" fill="#000000"></path>
            <path d="M127.177,205.11 C127.55,204.424 127.641,204.089 127.748,204.083 C139.336,203.401 150.921,202.393 162.516,202.213 C169.906,202.097 176.914,200.834 183.7,197.874 C188.766,195.664 193.751,193.237 198.851,191.125 C200.361,190.5 202.137,190.614 203.807,190.387 C204.858,194.126 203.899,196.464 201.301,198.074 C200.163,198.78 198.992,199.655 197.744,199.893 C184.37,202.451 171.585,207.983 157.763,208.443 C150.595,208.681 143.49,211.044 136.245,209.224 C132.988,208.407 129.426,208.23 127.177,205.11" id="Fill-20" fill="#000000"></path>
            <path d="M126.032,137.666 C127.458,135.33 127.926,133.699 128.942,133.035 C137.178,127.654 146.261,125.262 155.822,124.847 C156.851,124.802 158.041,125.205 158.918,125.803 C160.644,126.978 160.421,128.534 158.901,129.722 C158.262,130.221 157.263,130.387 156.431,130.376 C147.245,130.25 138.713,133.046 130.393,136.91 C129.498,137.326 128.413,137.273 126.032,137.666" id="Fill-21" fill="#000000"></path>
            <path d="M129.353,122.282 C130.225,121.365 130.969,120.214 131.992,119.569 C139.362,114.915 147.309,112.712 155.886,113.424 C156.54,113.478 157.373,113.361 157.8,113.74 C158.564,114.417 159.764,115.764 159.567,116.202 C159.101,117.234 157.798,118.709 157.045,118.582 C147.59,116.992 138.932,120.486 130.193,123.545 C129.913,123.124 129.633,122.703 129.353,122.282" id="Fill-22" fill="#000000"></path>
            <path d="M227.358,309.4699 C227.684,317.2019 225.436,323.4409 220.125,327.5739 C215.211,331.3979 209.607,334.3569 204.025,337.0149 C186.791,345.2229 168.759,350.5719 149.824,349.5499 C139.178,348.9749 128.517,346.6299 118.103,343.9969 C107.448,341.3039 101.177,332.4799 96.5692,322.0999 C98.3332,323.9499 100.117,325.7789 101.858,327.6539 C107.095,333.2949 113.209,337.0959 120.597,338.6479 C142.197,343.1859 163.752,344.0229 185.122,337.4029 C189.466,336.0569 193.705,333.7599 197.523,331.1209 C207.274,324.3829 216.76,317.2049 227.358,309.4699" id="Fill-23" fill="#000000"></path>
            <path d="M194.221,115.151 C195.474,129.031 199.575,134.765 209.2,136.5 C213.921,137.351 218.364,136.278 222.554,133.875 C228.362,130.543 230.485,124.429 232.505,117.751 C235.513,120.441 238.099,122.754 241.841,126.1 C242.122,122.984 242.818,121.104 242.296,119.773 C241.386,117.448 240.04,115.093 238.319,113.405 C234.296,109.464 230.092,105.684 225.651,102.306 C223.825,100.919 221.078,99.821 218.964,100.157 C209.454,101.667 200.085,103.919 193.12,111.958 C192.235,112.979 191.567,114.232 190.894,115.439 C190.737,115.722 190.969,116.255 191.048,116.871 C191.972,116.37 192.842,115.898 194.221,115.151 M219.498,93.413 C224.963,93.846 230.47,93.971 235.885,94.786 C244.174,96.031 248.081,99.971 249.419,108.662 C250.808,117.681 249.836,126.595 245.502,134.592 C243.945,137.464 241.336,140.42 238.557,141.672 C225.704,147.464 212.367,148.957 198.752,144.947 C191.447,142.795 185.94,137.69 181.485,131.507 C179.782,129.144 178.81,125.411 178.984,122.398 C179.517,113.176 185.352,106.264 189.287,98.56 C189.852,97.456 191.994,97.211 193.447,96.7 C201.923,93.716 210.66,93.295 219.498,93.413" id="Fill-24" fill="#FFFFFF"></path>
            <path d="M68.4158,126.502 C68.7788,126.793 69.1438,127.084 69.5068,127.375 C69.3338,130.137 68.9128,132.911 69.0368,135.657 C69.3948,143.616 75.4958,150.81 82.8598,152.26 C91.1248,153.888 97.4518,150.367 100.614,141.707 C101.938,138.082 102.721,134.024 102.823,130.137 C103.034,122.055 98.0408,116.471 90.4928,115.537 C89.1878,115.376 87.8738,115.279 86.5608,115.229 C72.9038,114.699 62.5088,121.054 54.7658,132.788 C53.4718,134.748 51.8718,137.103 54.4478,139.323 C59.2228,134.94 63.8188,130.721 68.4158,126.502 M88.8068,168.02 C82.9788,167.64 78.1578,167.381 73.3488,166.994 C68.8218,166.629 64.7728,164.832 61.5388,161.44 C56.3718,156.022 51.4378,150.349 46.2838,144.917 C43.2798,141.751 42.4198,138.14 43.8518,134.007 C45.6748,128.741 47.1408,123.2 49.7758,118.42 C54.1358,110.511 60.9168,106.522 69.6658,105.201 C82.4788,103.267 93.8608,108.459 105.629,111.887 C107.067,112.305 108.491,114.021 109.285,115.523 C115.16,126.63 115.853,138.751 114.394,151.036 C113.587,157.831 107.265,166.647 98.3068,167.265 C94.8078,167.507 91.3118,167.819 88.8068,168.02" id="Fill-25" fill="#FFFFFF"></path>
            <path d="M213.69,108.786 C207.055,107.08 202.509,108.271 200.374,112.278 C198.674,115.465 199.342,121.4 202.526,124.653 C204.824,127.001 207.837,128.67 210.757,130.121 C211.764,130.621 213.454,129.545 215.029,129.139 C207.728,119.093 207.654,117.663 213.69,108.786 M194.221,115.15 C192.842,115.897 191.972,116.369 191.048,116.87 C190.969,116.255 190.737,115.722 190.894,115.438 C191.567,114.231 192.235,112.978 193.121,111.957 C200.086,103.918 209.455,101.666 218.964,100.156 C221.079,99.82 223.826,100.918 225.651,102.306 C230.092,105.683 234.296,109.463 238.319,113.404 C240.041,115.093 241.386,117.447 242.296,119.772 C242.818,121.103 242.123,122.983 241.841,126.099 C238.099,122.753 235.513,120.44 232.505,117.75 C230.485,124.429 228.362,130.542 222.554,133.874 C218.364,136.277 213.921,137.35 209.2,136.499 C199.576,134.765 195.474,129.03 194.221,115.15" id="Fill-26" fill="#000000"></path>
            <path d="M88.8172,145.136 C86.9292,141.243 84.7632,137.731 83.4792,133.879 C81.9942,129.427 85.1772,126.24 87.7712,122.913 C79.1842,122.25 76.2692,124.554 75.6652,132.029 C75.1292,138.671 80.9752,144.43 88.8172,145.136 M68.4162,126.502 C63.8192,130.721 59.2222,134.941 54.4482,139.324 C51.8722,137.103 53.4712,134.748 54.7652,132.788 C62.5082,121.054 72.9042,114.699 86.5602,115.229 C87.8742,115.28 89.1882,115.376 90.4932,115.537 C98.0412,116.471 103.034,122.055 102.823,130.137 C102.72,134.025 101.938,138.082 100.614,141.707 C97.4522,150.367 91.1252,153.888 82.8602,152.26 C75.4962,150.81 69.3952,143.616 69.0372,135.657 C68.9132,132.911 69.3342,130.137 69.5062,127.375 C69.1432,127.084 68.7792,126.793 68.4162,126.502" id="Fill-27" fill="#000000"></path>
            <path d="M213.69,108.786 C207.654,117.663 207.728,119.093 215.029,129.139 C213.454,129.545 211.764,130.621 210.757,130.121 C207.837,128.67 204.824,127.001 202.526,124.653 C199.342,121.4 198.674,115.465 200.374,112.278 C202.509,108.271 207.055,107.08 213.69,108.786" id="Fill-28" fill="#FFFFFF"></path>
            <path d="M88.8172,145.136 C80.9752,144.43 75.1292,138.671 75.6652,132.029 C76.2692,124.554 79.1842,122.25 87.7712,122.913 C85.1772,126.24 81.9942,129.427 83.4792,133.879 C84.7632,137.731 86.9292,141.243 88.8172,145.136" id="Fill-29" fill="#FFFFFF"></path>
            <path d="M317.326,41.871 C317.326,41.871 311.116,39.197 305.513,44.22 C299.909,49.243 302.537,56.647 303.367,65.003 C304.196,73.358 307.078,79.271 309.149,87.35 C310.887,94.125 316.5,103.279 316.5,103.279 C316.5,103.279 329.383,99.217 330.321,86.556 C331.259,73.893 325.513,59.9 324.902,55.777 C324.293,51.654 323.489,46.019 317.326,41.871" id="Fill-30" fill="#FF499E"></path>
        </g>
    </g>
</svg>