<?xml version="1.0" encoding="UTF-8"?>
<svg width="400px" height="450px" viewBox="0 0 400 450" version="1.1" xmlns="http://www.w3.org/2000/svg" xmlns:xlink="http://www.w3.org/1999/xlink">
    <title>et</title>
    <g id="et" stroke="none" stroke-width="1" fill="none" fill-rule="evenodd">
        <g id="LOGOS-Y-GRAFICAMesa-de-trabajo-1-copia-5" transform="translate(22.000000, 57.000000)" fill-rule="nonzero">
            <path d="M254.24,268 C252.07,269.11 250.39,269.26 248.69,266.68 C242.927519,258.200059 238.709296,248.768301 236.23,238.82 C235.479945,235.368978 235.307605,231.81743 235.72,228.31 C237.2784,215.029771 241.068357,202.10808 246.93,190.09 C249.51,184.63 257.48,180.51 263.14,181.4 C267.85,182.14 271.6,188.15 270.44,193.75 C269.88,196.46 268.39,198.93 267.44,201.57 C265.04,208.37 262.58,215.15 260.44,222.05 C259.89,223.87 259.82,226.57 260.71,228.05 C263.8,233.15 267.34,237.96 270.9,242.71 C271.62,243.71 273.18,244.01 274.42,244.38 C280.09,246.13 285.78,247.78 292.21,249.69 C292.89,244.75 293.35,239.46 294.39,234.3 C295.39,229.3 296.98,224.48 297.68,219 C294.99,222.57 292.27,226.12 289.62,229.72 C287.85,232.11 286.4,234.83 284.39,236.96 C280.87,240.67 277.39,240.22 274.44,235.87 C271.9,232.11 270.52,227.93 271.68,223.23 C275.52,207.67 281.68,193.92 296.68,187.39 C300.46,185.75 302.57,182.54 304.01,178.78 C307.5,169.62 310.87,160.4 314.21,151.18 C318.77,138.6 317.98,125.77 315.28,113.01 C313.837787,105.992018 311.463404,99.1984567 308.22,92.81 C301.453007,79.609959 298.12046,64.9178643 298.53,50.09 C298.67,43.98 301.02,40.52 305.81,37.99 C315.81,32.73 324.81,37.13 327.5,48.71 C328.367917,53.085537 329.537373,57.3958184 331,61.61 C337.26,77.81 337.95,94.9 339.13,112.06 C340.5,132.11 339.38,152.06 339.02,172.06 C338.85,181.64 336.67,191.16 335.94,200.75 C335.28,209.42 334.54,218.25 335.37,226.83 C335.92,232.44 338.62,238.11 341.43,243.06 C343.912124,247.055629 344.669742,251.886342 343.53,256.45 C340.46,268.72 337.53,281.06 333.61,293.04 C331.94,298.17 328.05,302.47 325.18,307.15 C324.774499,307.981887 324.299478,308.778049 323.76,309.53 C315.35,319.03 315.49,330.16 318.26,341.82 C319.49,346.97 319.55,352 317.38,356.99 C315.85,360.52 313.53,362.72 309.91,363.04 C301.6,363.76 293.28,364.34 284.97,365.04 C282.1,365.28 279.24,365.73 275.23,366.22 L270.51,359.85 C269.45,359.85 268.14,359.74 266.84,359.85 C243.17,361.44 219.49,362.75 195.84,364.77 C180.75,366.07 165.75,368.54 150.69,370.29 C133.88,372.29 117.07,374.16 100.23,375.68 C95.47,376.11 90.61,375.03 85.79,374.74 C75.27,374.09 64.69,374 54.23,372.74 C41.59,371.25 29.03,368.89 16.46,366.74 C13.4117243,366.22157 10.4501426,365.282614 7.66,363.95 C1.35,360.88 -1.1,354.63 0.93,347.56 C1.58,345.32 2.52,343.17 3.28,340.96 C4.12,338.53 5.51,336.09 5.6,333.62 C5.8,327.62 6.87,322.12 10.88,317.52 C11.58,316.72 11.23,314.87 11.35,313.52 C12.35,302.37 17.42,297.1 27.56,295.72 C35.37,294.66 43.09,292.92 50.85,291.45 C62.53,289.24 74.01,290.45 85.51,293.15 C94.51,295.25 103.51,297.53 112.87,295.74 C114.833624,295.448399 116.725836,294.793924 118.45,293.81 C125.45,289.3 125.87,287.94 120.86,280.87 C109.69,265.08 105.26,246.93 103.74,227.58 C103.26,221.52 101.99,215.52 100.97,209.51 C100.302982,204.935645 97.2569722,201.059598 92.97,199.33 C84.9661231,195.547368 76.4074817,193.072621 67.62,192 C45.39,189.67 27.46,178.24 12.98,161 C2.42,148.39 -1.63,133.27 4.76,116.47 C8.4,106.86 11.9,97.19 15.68,87.64 C17.3200724,83.7965301 19.172942,80.0473906 21.23,76.41 C26.84,65.89 34.87,58.69 46.05,55.82 C53.059987,53.9318688 59.9409292,51.5936845 66.65,48.82 C78.46,44.11 90.93,42.29 103.5,41.77 C112.94,41.39 122.4,41.14 131.85,41.3 C138.63,41.42 145.42,42.99 152.17,42.74 C169.72,42.09 187.29,41.49 204.7,38.61 C209.483129,37.9297332 214.300741,37.5190845 219.13,37.38 C225.27,37.06 231.42,36.85 237.57,36.82 C239.72,36.82 242.17,36.88 243.98,37.92 C251.72,42.36 259.26,47.09 265.13,54.46 C276.46,68.66 283.49,85.36 289.9,102.41 C291.649289,107.180838 292.863396,112.131173 293.52,117.17 C294.8,126.51 291.09,134.08 285.15,140.67 C277.27,149.42 267.71,155.78 258.38,162.45 C253.06,166.25 247.59,169.79 242.38,173.71 C235.782814,178.551606 229.854772,184.244274 224.75,190.64 C219.37,197.47 213.4,203.79 207.46,210.08 C199.62,218.4 189.9,223.34 179.59,227.08 C177.34,227.89 175.08,228.64 172.79,229.44 C172.48,237.05 176.29,242.82 179,248.69 C183.48,258.36 189.06,267.45 194.1,276.82 C195.41,279.26 198.27,281 197.26,284.61 C197.240106,285.276923 197.541362,285.912907 198.07,286.32 C202.21,288.86 205.78,293.08 211,292.62 C218.64,291.96 226.26,290.97 233.85,289.8 C239.7,288.89 245.45,287.08 251.32,286.46 C254.88,286.08 258.58,287.19 262.04,287.62 C264.62,284.74 264.27,282.36 261.85,280.11 C260.36,278.72 258.8,277.4 257.39,275.92 C255.32,273.74 253.56,271.34 254.06,267.92 C255.24,268.08 256.63,267.92 257.6,268.48 C259.66,269.74 261.39,271.63 263.46,272.85 C271.39,277.55 272.32,279.34 271.34,289.07 C276.29,293.43 277.82,300.83 283.43,304.6 C283.7,304.78 283.69,305.47 283.77,305.93 C285.49,316.05 288.6,325.99 286.34,336.55 C285.22,341.78 284.62,347.14 283.79,352.4 C287.65,352.4 291.58,352.65 295.5,352.49 C299.61,352.32 303.72,351.8 307.97,351.43 C308.66,345.55 309.45,340.01 309.89,334.43 C309.973886,332.831334 309.511961,331.251622 308.58,329.95 C305.27,325.76 305.8,321.53 308.58,317.71 C312.65,312.19 317,306.87 321.58,301.78 C324.36,298.67 327.15,296.1 326.15,291.02 C325.74,288.95 326.85,286.42 327.6,284.24 C331.29,273.64 334.98,263.05 338.89,252.55 C340.26,248.89 340.04,246.04 337.71,242.8 C332.350604,235.156761 328.607553,226.500105 326.71,217.36 C325.956955,214.526835 325.05232,211.736151 324,209 C309.987607,211.918098 299.661835,223.853561 298.79,238.14 C298.48,242.8 297.48,247.41 296.84,252.04 C296.58,253.84 296.43,255.65 296.27,257.1 C299.27,259.62 301.59,259.03 303.87,256.96 C308.432094,252.95032 311.446449,247.469995 312.39,241.47 C312.821626,238.470846 313.576003,235.5271 314.64,232.69 C315.09,231.57 316.96,231.1 318.18,230.33 C318.864855,231.416735 319.453748,232.56106 319.94,233.75 C320.169894,234.669177 320.169894,235.630823 319.94,236.55 C318.54,243.17 317.09,249.78 315.64,256.38 C314.79,260.26 313.4,264.1 313.22,268.01 C313.07,271.39 314.46,274.83 314.81,278.28 C314.98,279.91 314.86,282.44 313.94,283.15 C311.73,284.83 310.4,282.51 309.41,280.72 C307.41,277.04 305.8,273.21 306.36,268.72 C306.525037,266.300372 306.568425,263.873981 306.49,261.45 C299.84,266.33 294.38,263.45 289.97,258.99 C284.97,253.99 279.39,250.31 272.88,248.99 C266.37,247.67 262.94,242.72 259.16,237.99 C254.16,231.7 253.16,224.52 255.77,216.85 C257.96,210.44 260.43,204.15 262.84,197.85 C263.5,196.11 264.66,194.55 265.14,192.78 C266.08,189.24 263.78,186.4 260.5,187.34 C255.81,188.67 251.21,190.46 249.15,195.99 C248.15,198.62 246.76,201.07 245.9,203.73 C240.95,219.05 239,234.29 246.48,249.51 C249.37,255.43 251.65,261.81 254.24,268 Z M91.75,49.82 C76.43,49.02 62.22,53.34 48.39,60.02 C40.0629019,63.8253245 33.240508,70.2958673 29,78.41 C21.67,92.41 16.63,107.55 12.08,122.79 C8.28,135.5 11.6,147.22 19.23,157.14 C32.69,174.64 49.65,185.69 71.01,189.32 C86.8028422,191.983654 101.88874,197.832247 115.35,206.51 C127.119956,214.073601 140.350028,219.075338 154.18,221.19 C158.035023,221.97424 161.96784,222.309805 165.9,222.19 C189.34,220.46 206.9,207.72 220.05,187.59 C227.05,176.83 235.16,167.5 245.84,160.79 C252.93164,156.444152 259.784837,151.720687 266.37,146.64 C271.824705,142.223234 276.908377,137.366989 281.57,132.12 C285.465736,127.903556 286.899863,121.970279 285.36,116.44 C282.954425,106.214248 279.692926,96.208973 275.61,86.53 C270.82,75.6 265.61,65.02 257.76,56.22 C252.82,50.68 247.13,46.22 239.56,46.16 C232.74,46.08 225.87,46.94 219.12,46.29 C205.42,44.95 191.95,46.68 178.45,48.64 C161.45,51.1 144.45,53.72 127.25,52.45 C115.416667,51.55 103.583333,50.6733333 91.75,49.82 Z M113,305 C102.41,306.49 91.63,304.2 80.92,301.63 C66.9520679,298.138149 52.2654081,298.833705 38.69,303.63 C35.38,304.78 31.88,305.95 28.46,305.97 C23.28,305.97 20.75,308.51 19.34,314.19 C18.7421044,316.05875 17.9546752,317.86146 16.99,319.57 C16.41,320.79 15.35,321.85 15.09,323.12 C13.09,332.82 8.41,341.94 9.3,353.12 C12.43,353.86 15.76,354.92 19.17,355.41 C31.12,357.14 43.09,358.79 55.08,360.23 C65.75,361.51 76.6,361.69 87.08,363.8 C97.4417289,365.727457 108.036676,366.064661 118.5,364.8 C149.07,361.63 179.56,357.52 210.11,354.14 C223.19,352.69 236.36,352.14 249.49,351.14 C256.88,350.6 264.27,350.02 271.59,349.46 C275.69,339.77 277.36,329.83 277.86,319.71 C277.989794,316.499065 277.228352,313.314856 275.66,310.51 C273.384381,306.55295 270.487421,302.987461 267.08,299.95 C264.15,297.43 260.18,294.51 256.83,294.72 C250.63,295.11 244.59,297.95 238.39,299.26 C229.79,301.08 221.11,302.48 212.44,303.95 C207.51,304.79 203.44,302.95 199.98,299.11 C197.72,296.61 195.22,294.34 192.62,291.75 C180.01,300.75 166.49,304.25 151.62,300 C157.68,296.56 164.84,297.3 170.99,294.36 C177.43,291.28 182.54,286.23 187.99,281.21 C186.06,278.21 184.39,275.63 182.42,272.59 C167.42,288.59 149.25,285.87 131.89,285.14 C128.75,291.07 125.77,296.68 122.13,303.56 C126.31,309.78 132.54,314.45 140.86,315.21 C148.51,315.91 156.22,316.12 163.91,316.12 C170.96,316.12 177.91,315.34 184.29,311.41 C185.08,310.92 186.19,311.03 187.43,310.81 C187.23288,314.296354 185.231448,317.427381 182.15,319.07 C178.32,321.28 174.3,323.8 170.15,324.51 C162.14673,325.825133 154.050589,326.493959 145.94,326.51 C137.65,326.51 129.75,324.09 123.51,317.9 C119.87,314.29 116.92,309.87 113,305 Z M311.75,182.17 C313.96,182.58 315.46,182.82 316.95,183.17 C322.74,184.43 323.45,185.35 323.56,191.53 C323.527955,193.642979 323.611413,195.75613 323.81,197.86 C324.24,201.23 325.81,203.17 329.12,202.63 C330.55,182.81 331.96,163.38 333.36,143.95 C333.69,139.28 334.41,134.58 334.19,129.95 C333.77,121.06 332.83,112.2 332.04,103.33 C331.46,96.8 331.44,90.11 330.04,83.79 C327.25,71.49 323.75,59.38 320.31,47.26 C319.17,43.26 314.87,41.71 309.76,42.84 C305.24,43.84 303.61,45.67 303.66,50.38 C303.683676,61.1639272 305.627345,71.8574895 309.4,81.96 C311.81,88.3 313.91,94.64 320.74,96.96 C320.37,98.19 320.34,99.02 319.94,99.45 C318.94,100.55 317.73,101.45 316.49,102.57 C316.733342,103.448311 317.023761,104.312894 317.36,105.16 C324.55,120.78 324.41,136.89 320.01,153.23 C317.44,162.61 314.65,172 311.75,182.17 Z M119.91,262.45 C122.77,267.92 125.2,272.33 127.41,276.87 C128.67,279.48 130.35,280.67 133.15,280.45 C140.8,279.86 148.59,280.2 156.09,278.77 C164.71,277.12 173.09,274.07 178.94,265.84 L173,252.14 C157.58,269 139.47,267.37 119.91,262.45 Z M280.43,233.81 C282.59,230.59 284.37,227.81 286.31,225.04 C291.12,218.3 295.89,210.91 304.26,209.54 C310.67,208.54 315.08,204.19 320.75,201.66 C319.67,197.66 318.75,194.15 317.97,191.36 C312.62,188.43 308.48,191.23 304.07,192.1 C297.97,193.3 293.29,196.42 288.97,201.1 C282.63,207.91 280.15,216.66 277.3,225.27 C276.36,228.07 276.92,230.75 280.43,233.81 L280.43,233.81 Z M106.3,206.34 L105.25,207.42 C106.59,212.58 108.13,217.69 109.25,222.92 C110.59,229.43 113.87,233.92 120.07,235.05 C128.7,236.59 137.38,238.18 146.07,238.68 C151.88,239.02 157.56,236.91 163.01,231.11 C139.73,232.41 122.27,221.28 106.3,206.34 Z M168.86,238.06 C163.24,242.19 157.7,246.18 150.86,246.58 C139.193382,247.374976 127.511646,245.265392 116.86,240.44 C115.86,239.97 114.72,239.67 112.92,239.03 C113.92,242.93 114.29,246.03 115.5,248.69 C117.21,252.48 118.5,256.83 123.5,257.58 C132.25,258.87 140.96,259.37 149.63,257.35 C156.42,255.78 162.15,251.84 167.42,247.13 C170,244.83 171.61,242.24 168.86,238.06 L168.86,238.06 Z" id="Shape" fill="#000000"></path>
            <path d="M300.88,20.26 C295.73,16.68 293.28,7.87 295.88,2.46 C296.7,0.77 298.55,-0.3 299.5,1.46 C301.408709,4.86254942 302.864378,8.50004141 303.83,12.28 C304.61,15.3 303.19,18.15 300.88,20.26 Z" id="Path" fill="#000000"></path>
            <path d="M342.67,71.48 C345.62,68.06 348.67,67.98 351.56,69.13 C353.23,69.78 355.41,71.25 355.77,72.79 C356.13,74.33 354.77,77.21 353.46,77.79 C351.56,78.64 348.58,78.79 346.93,77.79 C345,76.51 344,73.6 342.67,71.48 Z" id="Path" fill="#000000"></path>
            <path d="M341.91,33.67 C345.31,32.67 347.97,31.55 350.72,31.17 C352.174357,31.1898894 353.520582,31.9419702 354.3,33.17 C355.39,35.45 352.12,39.83 348.54,41.57 C345.47,43.07 344.05,41.03 342.97,38.57 C342.476895,36.9700624 342.122256,35.3306926 341.91,33.67 L341.91,33.67 Z" id="Path" fill="#000000"></path>
            <path d="M329.22,19.58 C325.79,17.64 324.34,15.01 325.63,11.84 C326.63,9.42 327.18,5.63 331.57,6.47 C332.75,11.06 332.8,15.34 329.22,19.58 Z" id="Path" fill="#000000"></path>
            <path d="M280.63,33 C274.2,30.19 272.03,25.1 268.32,20.69 C274.03,19.59 276.32,23.91 279.12,26.69 C280.15,27.67 280,30.05 280.63,33 Z" id="Path" fill="#000000"></path>
            <path d="M91.75,49.82 C103.583333,50.68 115.413333,51.5466667 127.24,52.42 C144.47,53.69 161.45,51.07 178.44,48.61 C191.94,46.61 205.44,44.92 219.11,46.26 C225.86,46.91 232.73,46.05 239.55,46.13 C247.12,46.21 252.81,50.65 257.75,56.19 C265.58,64.99 270.81,75.57 275.6,86.5 C279.682926,96.178973 282.944425,106.184248 285.35,116.41 C286.889863,121.940279 285.455736,127.873556 281.56,132.09 C276.898377,137.336989 271.814705,142.193234 266.36,146.61 C259.774837,151.690687 252.92164,156.414152 245.83,160.76 C235.15,167.47 227.08,176.76 220.04,187.56 C206.86,207.69 189.33,220.43 165.89,222.16 C161.95784,222.279805 158.025023,221.94424 154.17,221.16 C140.340028,219.045338 127.109956,214.043601 115.34,206.48 C101.876364,197.812815 86.7906081,191.974485 71,189.32 C49.64,185.69 32.68,174.64 19.22,157.14 C11.59,147.22 8.27,135.5 12.07,122.79 C16.62,107.55 21.66,92.45 28.99,78.41 C33.2295267,70.2867659 40.0560369,63.8086189 48.39,60 C62.22,53.34 76.43,49 91.75,49.82 Z M195.28,153.94 C199.33,154.5 201.91,155.17 204.5,155.17 C216.896437,155.099285 229.11571,152.220542 240.24,146.75 C244.62,144.65 247.71,140.95 249.81,136.4 C254.16,126.95 256.46,116.97 255.4,106.4 C254.4,96.19 251.59,87.17 236.1,86.21 C235.01,86.14 233.93,85.9 232.84,85.82 C217.645475,84.5255342 202.365926,86.9914179 188.35,93 C183,95.29 178.93,99.67 178.35,105.17 C177.77,110.67 175.45,115.72 174.4,121.08 C173.4,126.08 173.19,130.79 175.54,135.45 C176.364441,137.3699 177.03326,139.35295 177.54,141.38 C181.45,153.76 188.74,162.84 200.76,166.13 C209.980522,168.638197 219.766953,168.076565 228.64,164.53 C231.85,163.29 235.32,162.31 238.15,157.94 C223.29,161.71 209.27,165.14 195.28,153.94 Z M52.46,168.06 C58.46,175.31 65.77,180.33 75.01,180.55 C86.14,180.83 96.81,177.81 107.01,173.3 C112.23,171.01 116.01,166.87 118.68,161.36 C123.04,152.42 123.12,143.11 120.68,133.93 C118.92,127.21 115.56,120.99 113.07,114.48 C111.69,110.86 109.15,109.14 105.86,107.89 C99.86,105.61 94.05,102.89 88.1,100.47 C79.0488639,96.659281 68.8772065,96.4837841 59.7,99.98 C48.83,104.06 44.22,113.98 41.48,125.14 C40.93,127.41 41.07,130.22 39.84,131.91 C35.28,138.22 37.74,143.52 41.67,148.28 C45.73,153.19 50.67,157.28 54.74,162.14 C60.89,169.47 68.16,171.97 77.22,170.5 C83.32,169.5 89.59,169.72 95.77,169.4 C90.1284198,173.869378 83.2535914,176.504148 76.07,176.95 C67.18,177.74 60.21,171.56 52.46,168.06 Z M176,156 C182,162.79 189.16,168.67 192.62,178 C193.48,180.33 193.82,183.68 197.77,183.94 C197.77,182.13 198.18,180.44 197.77,179.02 C195.85,172.42 192.88,166.44 187.92,161.82 C184.92,159.04 181.84,156.41 178.99,153.48 C177.63449,152.072247 176.588724,150.396296 175.92,148.56 C174.18,143.65 171.24,139.56 166.7,138.21 C157.7,135.51 148.51,135.4 139.52,138.95 C134.3,141.01 130.17,143.95 129.66,150.74 C129.5,152.98 128.17,155.13 127.36,157.32 C123.64,167.38 119.82,177.42 119.02,188.32 C118.71,192.58 118.44,197 123.97,200.75 C122.57,184.66 126.29,170.93 131.82,157.1 C135.66,159.87 140.64,159.27 143.7,162.88 C148.12,161.45 149.27,157.76 150.23,154.17 C151.19,150.58 149.37,148.17 145.69,148.59 C142.22,148.98 138.83,150.14 134.44,151.18 C140.55,142.82 148.81,143.35 156.44,142.88 C161.16,142.58 166.78,141.74 169.68,148.04 C167.22,149.33 163.18,147.89 162.79,151.93 C162.41,155.71 164.72,158.44 168.17,160.34 L176,156 Z M28.59,127.4 C31.49,118.893333 34.3933333,110.386667 37.3,101.88 C39.0694637,96.1421799 43.0189857,91.3273536 48.3,88.47 C57,83.71 65.3,83.75 74.1,88.27 C79.16,90.87 84.83,93.42 90.29,93.57 C106.29,93.99 122.36,93.57 138.37,92.74 C149.81,92.13 156.02,91.24 155.84,71.74 C155.84,71.03 155.89,70.32 155.84,69.62 C155.57,64.62 154.44,64.13 149.89,66.99 C150.09,70.55 150.51,74.05 150.43,77.54 C150.26,84.33 148.15,86.89 141.95,87.92 C133.301959,89.2586737 124.541223,89.7243495 115.8,89.31 C103.260241,88.9889314 90.8460938,86.7253736 79,82.6 C72.5411237,80.3572514 65.6818446,79.5019712 58.87,80.09 C51.72,80.61 44.27,82.21 40.21,89 C33.25,100.56 31.07,114.1 28.59,127.4 Z M268.25,115.82 C269.98,113.39 271.15,112.4 271.51,111.15 C273.625572,103.627443 273.092485,95.6064228 270,88.43 C266.82,80.76 262.48,73.62 258.51,66.34 C257.74162,64.9471569 256.634072,63.7708168 255.29,62.92 C245.77,57.13 235.62,55.92 225.61,60.66 C211.94,67.11 198.61,74.48 185.1,81.26 C181.548786,83.0772637 177.791774,84.4605427 173.91,85.38 C169.2,86.45 164.34,86.75 159.54,87.38 C161.239542,89.1637148 163.393562,90.4499031 165.77,91.1 C173.39,93.03 180.47,91.21 187.38,87.45 C200.52,80.31 213.74,73.33 227.04,66.51 C236.04,61.91 251.52,64.86 257.43,73.01 C261.87559,79.202459 265.539953,85.9198971 268.34,93.01 C270.64,98.77 271.29,105.34 268.34,111.54 C268,112.18 268.28,113.16 268.25,115.82 Z M127.44,205.3 C129.69,208.42 133.25,208.6 136.51,209.42 C143.75,211.24 150.86,208.87 158.03,208.63 C171.85,208.17 184.63,202.63 198.03,200.08 C199.310577,199.690152 200.512329,199.077427 201.58,198.27 C204.18,196.65 205.14,194.32 204.09,190.58 C202.42,190.81 200.64,190.69 199.09,191.32 C193.99,193.43 189.01,195.86 183.94,198.07 C177.242555,200.921466 170.039189,202.394109 162.76,202.4 C151.16,202.59 139.58,203.59 127.99,204.27 C127.9,204.28 127.81,204.62 127.44,205.3 Z M126.29,137.86 C128.67,137.47 129.76,137.52 130.65,137.1 C138.97,133.24 147.51,130.44 156.65,130.57 C157.52249,130.617488 158.387485,130.386356 159.12,129.91 C160.64,128.73 160.87,127.17 159.12,125.99 C158.20642,125.367323 157.125595,125.036102 156.02,125.039966 C146.46,125.45 137.38,127.85 129.14,133.23 C128.19,133.89 127.72,135.52 126.29,137.86 L126.29,137.86 Z M129.61,122.47 L130.45,123.74 C139.19,120.68 147.85,117.18 157.31,118.74 C158.06,118.87 159.36,117.4 159.83,116.36 C160.03,115.93 158.83,114.58 158.06,113.9 C157.63,113.52 156.8,113.64 156.15,113.59 C147.721593,112.914813 139.309309,115.075961 132.25,119.73 C131.270241,120.541666 130.384696,121.460754 129.61,122.47 L129.61,122.47 Z" id="Shape" fill="#FFFFFF"></path>
            <path d="M113,305 C116.9,309.86 119.85,314.28 123.49,317.89 C129.73,324.08 137.63,326.55 145.92,326.5 C154.030589,326.483959 162.12673,325.815133 170.13,324.5 C174.32,323.79 178.34,321.27 182.13,319.06 C185.211448,317.417381 187.21288,314.286354 187.41,310.8 C186.17,311.02 185.06,310.91 184.27,311.4 C178,315.31 171,316.09 164,316.09 C156.31,316.09 148.6,315.88 140.95,315.18 C132.63,314.42 126.4,309.75 122.22,303.53 C125.86,296.65 128.84,291.04 131.98,285.11 C149.34,285.84 167.49,288.59 182.51,272.56 C184.51,275.56 186.15,278.18 188.08,281.18 C182.61,286.18 177.5,291.25 171.08,294.33 C164.93,297.27 157.77,296.53 151.71,299.97 C166.62,304.22 180.14,300.76 192.71,291.72 C195.31,294.31 197.81,296.58 200.07,299.08 C203.52,302.91 207.6,304.76 212.53,303.92 C221.2,302.45 229.88,301.05 238.48,299.23 C244.68,297.92 250.72,295.08 256.92,294.69 C260.27,294.48 264.24,297.4 267.17,299.92 C270.577421,302.957461 273.474381,306.52295 275.75,310.48 C277.318352,313.284856 278.079794,316.469065 277.95,319.68 C277.45,329.8 275.78,339.74 271.68,349.43 C264.36,349.99 256.97,350.57 249.58,351.11 C236.45,352.11 223.28,352.64 210.2,354.11 C179.65,357.49 149.2,361.6 118.59,364.77 C108.126676,366.034661 97.5317289,365.697457 87.17,363.77 C76.65,361.66 65.8,361.48 55.17,360.2 C43.17,358.76 31.17,357.11 19.26,355.38 C15.85,354.89 12.52,353.83 9.39,353.09 C8.5,341.93 13.14,332.81 15.18,323.09 C15.44,321.82 16.5,320.76 17.08,319.54 C18.0446752,317.83146 18.8321044,316.02875 19.43,314.16 C20.84,308.48 23.37,305.97 28.55,305.94 C31.97,305.94 35.47,304.75 38.78,303.6 C52.3554081,298.803705 67.0420679,298.108149 81.01,301.6 C91.65,304.21 102.43,306.5 113,305 Z M227.6,309.65 C217,317.39 207.52,324.57 197.76,331.3 C193.967495,334.007475 189.786735,336.124828 185.36,337.58 C163.99,344.2 142.44,343.37 120.84,338.83 C113.584483,337.244444 107.021398,333.392046 102.1,327.83 C100.36,325.95 98.57,324.12 96.81,322.27 C101.42,332.65 107.69,341.48 118.35,344.17 C128.76,346.8 139.42,349.17 150.07,349.72 C169,350.72 187.07,345.39 204.27,337.19 C209.958747,334.62802 215.356285,331.463252 220.37,327.75 C225.7,323.63 228,317.39 227.62,309.66 L227.6,309.65 Z" id="Shape" fill="#FFFFFF"></path>
            <path d="M254.24,268 C251.65,261.79 249.37,255.41 246.42,249.41 C238.94,234.19 240.89,218.95 245.84,203.63 C246.7,200.97 248.11,198.52 249.09,195.89 C251.15,190.36 255.75,188.57 260.44,187.24 C263.72,186.3 266.02,189.14 265.08,192.68 C264.6,194.45 263.44,196.01 262.78,197.75 C260.37,204.07 257.9,210.36 255.71,216.75 C253.08,224.42 254.11,231.6 259.1,237.89 C262.88,242.64 266.32,247.56 272.82,248.89 C279.32,250.22 284.91,253.89 289.91,258.89 C294.32,263.33 299.78,266.23 306.43,261.35 C306.508425,263.773981 306.465037,266.200372 306.3,268.62 C305.74,273.14 307.3,276.97 309.35,280.62 C310.35,282.41 311.67,284.73 313.88,283.05 C314.8,282.34 314.88,279.81 314.75,278.18 C314.4,274.73 313.01,271.29 313.16,267.91 C313.34,264 314.73,260.16 315.58,256.28 C317.03,249.68 318.48,243.07 319.88,236.45 C320.109894,235.530823 320.109894,234.569177 319.88,233.65 C319.393748,232.46106 318.804855,231.316735 318.12,230.23 C316.9,231 315.03,231.47 314.58,232.59 C313.516003,235.4271 312.761626,238.370846 312.33,241.37 C311.425549,247.416104 308.419532,252.95015 303.84,257 C301.56,259.07 299.22,259.66 296.24,257.14 C296.4,255.69 296.55,253.88 296.81,252.08 C297.45,247.45 298.45,242.84 298.76,238.18 C299.61781,223.869343 309.962149,211.910238 324,209 C325.044888,211.697057 325.946152,214.447578 326.7,217.24 C328.597553,226.380105 332.340604,235.036761 337.7,242.68 C340.03,245.92 340.25,248.77 338.88,252.43 C334.97,262.93 331.28,273.52 327.59,284.12 C326.84,286.3 325.73,288.83 326.14,290.9 C327.14,295.98 324.35,298.55 321.57,301.66 C317.03,306.75 312.68,312.07 308.57,317.59 C305.75,321.41 305.22,325.59 308.57,329.83 C309.501961,331.131622 309.963886,332.711334 309.88,334.31 C309.44,339.87 308.65,345.41 307.96,351.31 C303.71,351.68 299.6,352.2 295.49,352.37 C291.57,352.53 287.64,352.37 283.78,352.28 C284.61,347.02 285.21,341.66 286.33,336.43 C288.59,325.87 285.48,315.93 283.76,305.81 C283.68,305.35 283.69,304.66 283.42,304.48 C277.81,300.71 276.28,293.31 271.33,288.95 C272.33,279.22 271.38,277.43 263.45,272.73 C261.38,271.51 259.65,269.62 257.59,268.36 C256.59,267.77 255.23,267.96 254.05,267.8 L254.24,268 Z" id="Path" fill="#FFFFFF"></path>
            <path d="M311.75,182.17 C314.65,171.99 317.44,162.61 319.98,153.17 C324.38,136.83 324.52,120.72 317.33,105.1 C316.993761,104.252894 316.703342,103.388311 316.46,102.51 C317.7,101.41 318.89,100.51 319.91,99.39 C320.31,98.96 320.34,98.13 320.71,96.9 C313.88,94.62 311.78,88.28 309.37,81.9 C305.597345,71.7974895 303.653676,61.1039272 303.63,50.32 C303.58,45.61 305.21,43.78 309.73,42.78 C314.84,41.65 319.14,43.18 320.28,47.2 C323.72,59.32 327.22,71.43 330.01,83.73 C331.44,90.05 331.46,96.73 332.01,103.27 C332.8,112.14 333.74,121 334.16,129.89 C334.38,134.53 333.66,139.23 333.33,143.89 C331.93,163.32 330.52,182.75 329.09,202.57 C325.82,203.11 324.21,201.17 323.78,197.8 C323.581413,195.69613 323.497955,193.582979 323.53,191.47 C323.42,185.29 322.71,184.37 316.92,183.11 C315.46,182.82 314,182.58 311.75,182.17 Z" id="Path" fill="#FFFFFF"></path>
            <path d="M119.91,262.45 C139.47,267.37 157.58,268.96 173.02,252.14 L178.94,265.84 C173.13,274.07 164.71,277.12 156.09,278.77 C148.59,280.2 140.8,279.86 133.15,280.45 C130.35,280.67 128.67,279.45 127.41,276.87 C125.2,272.33 122.77,267.92 119.91,262.45 Z" id="Path" fill="#FFFFFF"></path>
            <path d="M280.43,233.81 C276.92,230.75 276.36,228.07 277.3,225.24 C280.15,216.63 282.63,207.88 288.97,201.07 C293.29,196.42 297.97,193.3 304.07,192.07 C308.48,191.2 312.62,188.4 317.97,191.33 C318.72,194.12 319.67,197.63 320.75,201.63 C315.08,204.16 310.67,208.46 304.26,209.51 C295.89,210.88 291.12,218.27 286.31,225.01 C284.37,227.76 282.59,230.59 280.43,233.81 Z" id="Path" fill="#FFFFFF"></path>
            <path d="M106.3,206.34 C122.3,221.28 139.73,232.41 162.99,231.11 C157.54,236.91 151.86,239.02 146.05,238.68 C137.34,238.18 128.66,236.59 120.05,235.05 C113.85,233.94 110.57,229.43 109.23,222.92 C108.15,217.69 106.61,212.58 105.23,207.42 L106.3,206.34 Z" id="Path" fill="#FFFFFF"></path>
            <path d="M168.86,238.06 C171.61,242.24 169.99,244.83 167.42,247.13 C162.15,251.84 156.42,255.78 149.63,257.35 C140.96,259.35 132.25,258.87 123.5,257.58 C118.45,256.83 117.18,252.48 115.5,248.69 C114.29,246.03 113.92,242.93 112.92,239.03 C114.72,239.67 115.83,239.97 116.86,240.44 C127.511646,245.265392 139.193382,247.374976 150.86,246.58 C157.7,246.18 163.24,242.19 168.86,238.06 Z" id="Path" fill="#FFFFFF"></path>
            <path d="M195.28,153.94 C209.28,165.14 223.28,161.71 238.1,157.94 C235.27,162.31 231.8,163.29 228.59,164.53 C219.716953,168.076565 209.930522,168.638197 200.71,166.13 C188.71,162.84 181.4,153.76 177.49,141.38 C176.98326,139.35295 176.314441,137.3699 175.49,135.45 C173.14,130.79 173.39,126.04 174.35,121.08 C175.4,115.72 177.65,110.82 178.3,105.17 C178.95,99.52 182.99,95.29 188.3,93 C202.313349,86.9811774 217.592997,84.5049747 232.79,85.79 C233.88,85.87 234.96,86.11 236.05,86.18 C251.54,87.18 254.32,96.18 255.35,106.37 C256.41,116.95 254.11,126.93 249.76,136.37 C247.66,140.92 244.57,144.62 240.19,146.72 C229.06571,152.190542 216.846437,155.069285 204.45,155.14 C201.91,155.17 199.33,154.5 195.28,153.94 Z M219.76,93.6 C210.92,93.49 202.19,93.91 193.71,96.89 C192.26,97.4 190.11,97.65 189.55,98.75 C185.61,106.46 179.78,113.37 179.25,122.59 C179.100835,125.814428 179.97595,129.003348 181.75,131.7 C186.2,137.88 191.75,142.99 199.01,145.14 C212.63,149.14 226.01,147.66 238.82,141.86 C241.6,140.61 244.21,137.66 245.76,134.78 C250.1,126.78 251.07,117.87 249.68,108.85 C248.34,100.16 244.44,96.22 236.15,94.98 C230.73,94.16 225.23,94 219.76,93.6 Z" id="Shape" fill="#000000"></path>
            <path d="M52.46,168.06 C60.21,171.56 67.18,177.74 76.14,176.95 C83.3235914,176.504148 90.1984198,173.869378 95.84,169.4 C89.66,169.72 83.39,169.51 77.29,170.5 C68.23,171.97 60.96,169.5 54.81,162.14 C50.71,157.27 45.81,153.19 41.74,148.28 C37.81,143.52 35.35,138.22 39.91,131.91 C41.14,130.22 41,127.41 41.55,125.14 C44.29,113.97 48.9,104.06 59.77,99.98 C68.9472065,96.4837841 79.1188639,96.659281 88.17,100.47 C94.17,102.87 99.94,105.61 105.93,107.89 C109.22,109.14 111.76,110.89 113.14,114.48 C115.63,120.99 118.99,127.21 120.75,133.93 C123.16,143.11 123.08,152.42 118.75,161.36 C116.05,166.87 112.3,171.01 107.08,173.3 C96.84,177.81 86.17,180.83 75.08,180.55 C65.77,180.33 58.5,175.31 52.46,168.06 Z M89.07,168.21 C91.57,168.01 95.07,167.7 98.57,167.46 C107.57,166.84 113.85,158.02 114.66,151.23 C116.11,138.94 115.42,126.82 109.55,115.71 C108.75,114.21 107.33,112.5 105.89,112.08 C94.12,108.65 82.74,103.46 69.89,105.39 C61.14,106.71 54.36,110.7 50,118.61 C47.36,123.39 45.9,128.93 44.07,134.2 C42.5847399,137.99415 43.5499776,142.310029 46.51,145.11 C51.66,150.54 56.59,156.21 61.76,161.63 C64.8576556,164.902192 69.074323,166.887346 73.57,167.19 C78.42,167.57 83.24,167.83 89.07,168.21 L89.07,168.21 Z" id="Shape" fill="#000000"></path>
            <path d="M176,156 L168.12,160.43 C164.67,158.53 162.36,155.8 162.74,152.02 C163.13,148.02 167.17,149.42 169.63,148.13 C166.73,141.83 161.11,142.67 156.39,142.97 C148.8,143.44 140.54,142.91 134.39,151.27 C138.78,150.27 142.17,149.07 145.64,148.68 C149.32,148.27 151.15,150.6 150.18,154.26 C149.21,157.92 148.07,161.54 143.65,162.97 C140.59,159.36 135.65,159.97 131.77,157.19 C126.24,171.02 122.52,184.75 123.92,200.84 C118.39,197.09 118.66,192.67 118.97,188.41 C119.77,177.47 123.59,167.41 127.31,157.41 C128.12,155.22 129.45,153.07 129.61,150.83 C130.12,144.05 134.25,141.1 139.47,139.04 C148.47,135.49 157.65,135.6 166.65,138.3 C171.19,139.66 174.13,143.74 175.87,148.65 C176.538724,150.486296 177.58449,152.162247 178.94,153.57 C181.79,156.5 184.94,159.13 187.87,161.91 C192.87,166.53 195.8,172.51 197.72,179.11 C198.14,180.53 197.72,182.22 197.72,184.03 C193.77,183.77 193.43,180.42 192.57,178.09 C189.17,168.67 182,162.79 176,156 Z" id="Path" fill="#000000"></path>
            <path d="M28.59,127.4 C31.07,114.1 33.25,100.56 40.17,89 C44.23,82.21 51.68,80.61 58.83,80.09 C65.6550832,79.4962838 72.5285913,80.3516386 79,82.6 C90.8609854,86.715824 103.288883,88.9659347 115.84,89.27 C124.584549,89.6850216 133.348669,89.219344 142,87.88 C148.2,86.88 150.31,84.29 150.48,77.5 C150.56,74.01 150.14,70.5 149.94,66.95 C154.49,64.09 155.62,64.56 155.89,69.58 C155.89,70.28 155.89,70.99 155.89,71.7 C156.07,91.24 149.89,92.13 138.42,92.7 C122.42,93.55 106.35,93.95 90.34,93.53 C84.88,93.38 79.21,90.83 74.15,88.23 C65.34,83.71 57.05,83.67 48.35,88.43 C43.0689857,91.2873536 39.1194637,96.1021799 37.35,101.84 C34.3966667,110.366667 31.4766667,118.886667 28.59,127.4 Z" id="Path" fill="#000000"></path>
            <path d="M268.25,115.82 C268.25,113.16 268.02,112.18 268.34,111.51 C271.28,105.31 270.63,98.74 268.34,92.98 C265.539953,85.8898971 261.87559,79.172459 257.43,72.98 C251.52,64.83 236,61.88 227.04,66.48 C213.753333,73.3133333 200.533333,80.2933333 187.38,87.42 C180.47,91.18 173.38,93 165.77,91.07 C163.393562,90.4199031 161.239542,89.1337148 159.54,87.35 C164.34,86.72 169.2,86.42 173.91,85.35 C177.791774,84.4305427 181.548786,83.0472637 185.1,81.23 C198.64,74.45 211.94,67.08 225.61,60.63 C235.61,55.91 245.77,57.1 255.29,62.89 C256.634072,63.7408168 257.74162,64.9171569 258.51,66.31 C262.51,73.59 266.82,80.73 270,88.4 C273.0958,95.5752574 273.632419,103.596305 271.52,111.12 C271.15,112.4 270,113.39 268.25,115.82 Z" id="Path" fill="#000000"></path>
            <path d="M127.44,205.3 C127.81,204.62 127.9,204.3 128.01,204.3 C139.6,203.62 151.18,202.62 162.78,202.43 C170.074721,202.420003 177.292304,200.937031 184,198.07 C189.07,195.86 194.05,193.43 199.15,191.32 C200.66,190.69 202.44,190.81 204.15,190.58 C205.2,194.32 204.24,196.65 201.64,198.27 C200.572329,199.077427 199.370577,199.690152 198.09,200.08 C184.71,202.64 171.93,208.17 158.09,208.63 C150.92,208.87 143.81,211.24 136.57,209.42 C133.25,208.6 129.69,208.42 127.44,205.3 Z" id="Path" fill="#000000"></path>
            <path d="M126.29,137.86 C127.72,135.52 128.19,133.86 129.2,133.23 C137.44,127.85 146.52,125.45 156.08,125.039966 C157.185595,125.036102 158.26642,125.367323 159.18,125.99 C160.91,127.17 160.68,128.73 159.18,129.91 C158.447485,130.386356 157.58249,130.617488 156.71,130.57 C147.53,130.44 138.99,133.24 130.71,137.1 C129.76,137.52 128.67,137.47 126.29,137.86 Z" id="Path" fill="#000000"></path>
            <path d="M129.61,122.47 C130.386428,121.471254 131.27191,120.562293 132.25,119.76 C139.309309,115.105961 147.721593,112.944813 156.15,113.62 C156.8,113.67 157.63,113.55 158.06,113.93 C158.83,114.61 160.06,115.93 159.83,116.39 C159.36,117.39 158.06,118.9 157.31,118.77 C147.85,117.18 139.19,120.68 130.45,123.77 L129.61,122.47 Z" id="Path" fill="#000000"></path>
            <path d="M227.62,309.66 C227.95,317.39 225.7,323.66 220.39,327.77 C215.376285,331.483252 209.978747,334.64802 204.29,337.21 C187.05,345.41 169.02,350.76 150.09,349.74 C139.44,349.17 128.78,346.82 118.37,344.19 C107.71,341.5 101.44,332.67 96.83,322.29 C98.59,324.14 100.38,325.97 102.12,327.85 C107.041398,333.412046 113.604483,337.264444 120.86,338.85 C142.46,343.39 164.01,344.22 185.38,337.6 C189.806735,336.144828 193.987495,334.027475 197.78,331.32 C207.54,324.58 217,317.4 227.62,309.66 Z" id="Path" fill="#000000"></path>
            <path d="M219.76,93.6 C225.23,94.04 230.76,94.16 236.15,94.98 C244.44,96.22 248.34,100.16 249.68,108.85 C251.07,117.85 250.1,126.79 245.76,134.78 C244.21,137.66 241.6,140.61 238.82,141.86 C225.97,147.66 212.63,149.15 199.01,145.14 C191.71,142.99 186.2,137.88 181.75,131.7 C179.97595,129.003348 179.100835,125.814428 179.25,122.59 C179.78,113.37 185.61,106.46 189.55,98.75 C190.11,97.65 192.26,97.4 193.71,96.89 C202.19,93.91 210.92,93.49 219.76,93.6 Z M194.48,115.34 C195.74,129.22 199.84,134.96 209.48,136.69 C214.103625,137.460196 218.849733,136.529448 222.84,134.07 C228.64,130.73 230.77,124.62 232.79,117.94 L242.12,126.29 C242.4,123.18 243.12,121.29 242.58,119.96 C241.696237,117.588464 240.334771,115.423732 238.58,113.6 C234.593289,109.638317 230.361621,105.931015 225.91,102.5 C224.09,101.11 221.34,100.01 219.23,100.35 C209.72,101.86 200.35,104.11 193.38,112.15 C192.524186,113.231917 191.780376,114.39789 191.16,115.63 C191,115.91 191.23,116.45 191.31,117.06 L194.48,115.34 Z" id="Shape" fill="#FFFFFF"></path>
            <path d="M89.07,168.21 C83.24,167.83 78.42,167.57 73.61,167.21 C69.114323,166.907346 64.8976556,164.922192 61.8,161.65 C56.63,156.23 51.7,150.56 46.55,145.13 C43.5899776,142.330029 42.6247399,138.01415 44.11,134.22 C45.94,128.95 47.4,123.41 50.04,118.63 C54.4,110.72 61.18,106.73 69.93,105.41 C82.74,103.48 94.12,108.67 105.93,112.1 C107.37,112.52 108.79,114.23 109.59,115.73 C115.46,126.84 116.15,138.96 114.7,151.25 C113.89,158.04 107.57,166.86 98.61,167.48 C95.07,167.7 91.57,168 89.07,168.21 Z M68.68,126.69 L69.77,127.57 C69.464221,130.319512 69.3073254,133.083546 69.3,135.85 C69.66,143.85 75.76,151 83.12,152.45 C91.39,154.08 97.71,150.56 100.88,141.9 C102.221247,138.184127 102.963829,134.278817 103.08,130.33 C103.3,122.25 98.3,116.66 90.75,115.73 C89.45,115.57 88.14,115.47 86.82,115.42 C73.17,114.89 62.82,121.25 55.03,132.98 C53.73,134.98 52.13,137.29 54.71,139.52 L68.68,126.69 Z" id="Shape" fill="#FFFFFF"></path>
            <path d="M194.48,115.34 L191.31,117.06 C191.23,116.45 191,115.91 191.16,115.63 C191.780376,114.39789 192.524186,113.231917 193.38,112.15 C200.38,104.15 209.72,101.86 219.23,100.35 C221.34,100.01 224.09,101.11 225.91,102.5 C230.361621,105.931015 234.593289,109.638317 238.58,113.6 C240.334771,115.423732 241.696237,117.588464 242.58,119.96 C243.1,121.3 242.4,123.18 242.12,126.29 L232.79,117.94 C230.79,124.62 228.64,130.73 222.84,134.07 C218.849733,136.529448 214.103625,137.460196 209.48,136.69 C199.84,135 195.74,129.22 194.48,115.34 Z M214,109 C207.37,107.29 202.82,108.48 200.69,112.49 C198.99,115.68 199.69,121.61 202.84,124.87 C205.265015,127.129435 208.045547,128.974114 211.07,130.33 C212.07,130.83 213.77,129.76 215.34,129.33 C208,119.29 207.92,117.86 214,109 Z" id="Shape" fill="#000000"></path>
            <path d="M68.68,126.69 L54.68,139.52 C52.1,137.29 53.68,134.94 55,132.98 C62.74,121.25 73.14,114.89 86.79,115.42 C88.11,115.47 89.42,115.57 90.72,115.73 C98.27,116.66 103.27,122.25 103.05,130.33 C102.933829,134.278817 102.191247,138.184127 100.85,141.9 C97.68,150.56 91.36,154.08 83.09,152.45 C75.73,151 69.63,143.81 69.27,135.85 C69.2773254,133.083546 69.434221,130.319512 69.74,127.57 L68.68,126.69 Z M89.08,145.33 C87.19,141.44 85.03,137.92 83.74,134.07 C82.26,129.62 85.44,126.43 88.03,123.07 C79.45,122.4 76.53,124.71 75.93,132.18 C75.39,138.86 81.24,144.62 89.08,145.33 Z" id="Shape" fill="#000000"></path>
            <path d="M214,109 C208,117.88 208,119.31 215.34,129.35 C213.77,129.76 212.08,130.83 211.07,130.35 C208.045547,128.994114 205.265015,127.149435 202.84,124.89 C199.65,121.63 198.99,115.7 200.69,112.51 C202.77,108.46 207.32,107.27 214,109 Z" id="Path" fill="#FFFFFF"></path>
            <path d="M89.08,145.33 C81.24,144.62 75.39,138.86 75.93,132.22 C76.53,124.75 79.45,122.44 88.03,123.11 C85.44,126.43 82.26,129.62 83.74,134.11 C85,137.92 87.19,141.44 89.08,145.33 Z" id="Path" fill="#FFFFFF"></path>
        </g>
    </g>
</svg>