<svg width="400" height="450" viewBox="0 0 400 450" xmlns="http://www.w3.org/2000/svg"><g fill="none" fill-rule="evenodd"><path d="M190.598 294.873c-5.617 4.126-11.163 8.117-17.994 8.511-11.746.677-23.152-1.146-34.032-6.131-1.036-.475-2.14-.774-3.942-1.413.998 3.898 1.368 6.996 2.573 9.659 1.716 3.794 2.99 8.142 8.038 8.887 8.742 1.29 17.456 1.788 26.126-.225 6.792-1.577 12.518-5.514 17.794-10.228 2.569-2.296 4.185-4.884 1.437-9.06m-62.563-31.726l-1.05 1.076c1.338 5.164 2.884 10.279 3.962 15.505 1.343 6.51 4.62 11.021 10.822 12.129 8.626 1.542 17.304 3.126 26.016 3.633 5.814.338 11.492-1.768 16.938-7.567-23.256 1.293-40.714-9.835-56.688-24.776m174.137 27.473c2.153-3.223 3.94-6.057 5.875-8.768 4.814-6.745 9.578-14.135 17.948-15.506 6.409-1.05 10.827-5.345 16.492-7.88l-2.78-10.298c-5.345-2.926-9.488-.126-13.897.742-6.1 1.2-10.781 4.314-15.105 8.964-6.336 6.817-8.818 15.562-11.669 24.17-.937 2.831-.38 5.516 3.136 8.576M141.65 319.262c2.86 5.465 5.292 9.876 7.493 14.414 1.268 2.613 2.94 3.8 5.746 3.584 7.65-.588 15.437-.252 22.938-1.683 8.622-1.644 17.042-4.7 22.855-12.933l-5.925-13.692c-15.434 16.817-33.549 15.23-53.107 10.31m191.835-80.281c2.209.41 3.716.648 5.206.972 5.783 1.262 6.495 2.19 6.61 8.363.039 2.113-.018 4.247.246 6.33.429 3.368 2.044 5.311 5.312 4.767 1.431-19.813 2.842-39.242 4.237-58.673.335-4.67 1.055-9.368.834-14.011-.425-8.889-1.365-17.752-2.152-26.62-.579-6.531-.597-13.225-2.031-19.541-2.79-12.296-6.287-24.414-9.731-36.527-1.143-4.02-5.438-5.553-10.551-4.424-4.513.996-6.15 2.827-6.097 7.536.123 10.891 1.876 21.424 5.742 31.587 2.408 6.334 4.511 12.676 11.342 14.962-.372 1.221-.4 2.055-.802 2.488-1.022 1.1-2.211 2.021-3.448 3.116.278.844.486 1.764.868 2.593 7.187 15.618 7.048 31.732 2.649 48.072-2.544 9.451-5.335 18.828-8.234 29.01m-198.73 122.834c-10.583 1.491-21.364-.795-32.075-3.369-14.269-3.43-28.292-2.909-42.228 1.95-3.314 1.157-6.818 2.32-10.239 2.34-5.178.033-7.702 2.546-9.114 8.222-.469 1.886-1.499 3.622-2.349 5.385-.585 1.214-1.638 2.274-1.905 3.542-2.038 9.706-6.674 18.824-5.788 29.978 3.126.742 6.462 1.804 9.871 2.295 11.953 1.725 23.92 3.378 35.905 4.818 10.678 1.283 21.53 1.458 32.047 3.571 10.536 2.117 21.027 2.087 31.419 1.01 30.57-3.173 61.056-7.28 91.61-10.66 13.084-1.449 26.252-2.002 39.382-2.975 7.388-.548 14.774-1.123 22.101-1.68 4.096-9.698 5.765-19.638 6.27-29.752.154-3.054-.684-6.633-2.2-9.205-2.307-3.918-5.232-7.659-8.588-10.555-2.925-2.526-6.898-5.447-10.249-5.233-6.202.395-12.235 3.233-18.432 4.542-8.606 1.816-17.288 3.215-25.953 4.688-4.937.838-9.009-1.014-12.462-4.835-2.265-2.506-4.756-4.777-7.361-7.366-12.614 9.038-26.13 12.498-41.037 8.25 6.063-3.434 13.221-2.696 19.364-5.634 6.448-3.083 11.558-8.137 17.027-13.156-1.938-2.998-3.606-5.581-5.569-8.622-15.024 16.032-33.179 13.281-50.538 12.55l-9.758 18.427c4.18 6.221 10.416 10.886 18.727 11.644 7.653.7 15.364.917 23.05.915 7.052 0 14.05-.786 20.389-4.714.787-.488 1.894-.38 3.137-.6-.413 4.276-2.604 6.721-5.278 8.262-3.838 2.211-7.854 4.73-12.04 5.437-7.98 1.35-16.131 1.983-24.215 2.031-8.283.05-16.19-2.418-22.424-8.604-3.643-3.616-6.592-8.037-10.497-12.897m-21.264-255.189c-15.328-.801-29.529 3.522-43.366 10.206-8.348 4.033-14.942 9.859-19.394 18.383-7.337 14.047-12.372 29.147-16.926 44.387-3.798 12.709-.48 24.421 7.151 34.346 13.457 17.5 30.418 28.548 51.78 32.181 15.651 2.662 30.675 8.382 44.339 17.19 12.074 7.784 25.022 12.462 38.835 14.683 3.871.622 7.85 1.249 11.723.964 23.436-1.725 40.969-14.471 54.144-34.596 7.043-10.758 15.115-20.092 25.787-26.802 7.015-4.411 13.995-8.981 20.53-14.15 5.444-4.306 10.487-9.308 15.205-14.524 3.834-4.238 5.292-9.695 3.792-15.677-2.563-10.228-5.531-20.279-9.753-29.911-4.788-10.924-10.025-21.511-17.854-30.305-4.932-5.54-10.622-9.982-18.2-10.066-6.814-.077-13.684.786-20.434.128-13.707-1.336-27.169.398-40.67 2.352-16.99 2.459-33.974 5.085-51.204 3.81-11.828-.875-23.657-1.734-35.485-2.599m162.49 218.203c-2.173 1.108-3.855 1.256-5.55-1.325-5.622-8.558-10.073-17.709-12.462-27.852-.787-3.346-.878-7.062-.507-10.515 1.45-13.475 5.498-26.153 11.206-38.219 2.581-5.457 10.546-9.576 16.211-8.687 4.713.74 8.455 6.748 7.297 12.35-.559 2.706-2.05 5.179-2.978 7.813-2.399 6.8-4.862 13.581-6.976 20.483-.557 1.816-.629 4.525.264 5.997 3.093 5.105 6.629 9.917 10.196 14.668.717.955 2.277 1.291 3.513 1.671 5.669 1.74 11.36 3.394 17.791 5.303.677-4.943 1.146-10.231 2.183-15.389 1-4.976 2.588-9.817 3.293-15.294-2.693 3.567-5.411 7.114-8.069 10.712-1.769 2.394-3.215 5.117-5.224 7.239-3.518 3.718-7.01 3.265-9.953-1.091-2.535-3.751-3.915-7.934-2.758-12.633 3.835-15.558 9.972-29.317 25.052-35.844 3.779-1.636 5.892-4.85 7.325-8.611 3.491-9.161 6.863-18.374 10.203-27.598 4.556-12.578 3.769-25.413 1.066-38.165-1.488-7.017-3.714-13.682-7.06-20.209-6.721-13.114-10.016-27.455-9.682-42.718.132-6.104 2.484-9.57 7.276-12.094 9.998-5.263 18.984-.862 21.689 10.721 1.01 4.331 1.839 8.78 3.422 12.877 6.257 16.194 6.953 33.285 8.128 50.453 1.373 20.047.248 40.029-.11 60.022-.171 9.58-2.349 19.102-3.081 28.696-.662 8.671-1.398 17.496-.565 26.08.543 5.606 3.25 11.279 6.057 16.226 2.521 4.445 3.257 8.762 2.099 13.394-3.07 12.27-6.027 24.61-9.922 36.59-1.667 5.128-5.557 9.428-8.431 14.11-.482.786-.82 1.712-1.413 2.381-8.416 9.496-8.27 20.631-5.499 32.285 1.227 5.154 1.282 10.182-.881 15.17-1.533 3.535-3.856 5.733-7.477 6.047-8.31.723-16.63 1.305-24.941 2.012-2.87.243-5.725.688-9.735 1.183l-4.716-6.368c-1.06-.013-2.374-.116-3.679-.029-23.662 1.59-47.345 2.894-70.976 4.92-15.091 1.293-30.092 3.764-45.153 5.514-16.804 1.954-33.617 3.877-50.459 5.397-4.752.43-9.615-.652-14.432-.949-10.526-.647-21.105-.74-31.567-1.974-12.642-1.49-25.199-3.847-37.763-6.019-3.004-.519-6.04-1.45-8.806-2.795-6.305-3.067-8.764-9.317-6.728-16.386.646-2.244 1.587-4.39 2.35-6.599.84-2.435 2.234-4.868 2.316-7.34.202-6.046 1.272-11.505 5.287-16.102.696-.798.347-2.65.47-4.016 1.003-11.15 6.068-16.422 16.206-17.802 7.806-1.063 15.534-2.8 23.291-4.269 11.681-2.21 23.164-.98 34.664 1.701 8.977 2.093 18.029 4.377 27.35 2.583 1.914-.368 3.943-.878 5.581-1.928 7.04-4.51 7.419-5.866 2.417-12.939-11.169-15.793-15.602-33.936-17.122-53.29-.476-6.066-1.75-12.064-2.772-18.069-.852-4.997-3.665-8.212-8.039-10.181-8.15-3.67-16.55-6.422-25.34-7.342-22.23-2.328-40.156-13.759-54.636-31.036-10.568-12.61-14.61-27.734-8.228-44.535 3.65-9.606 7.14-19.281 10.924-28.824 1.541-3.887 3.592-7.555 5.553-11.235 5.61-10.523 13.64-17.716 24.815-20.585 7.022-1.802 13.814-4.307 20.604-7.014 11.812-4.711 24.281-6.528 36.851-7.045 9.441-.389 18.901-.634 28.344-.47 6.784.118 13.576 1.687 20.327 1.438 17.545-.648 35.113-1.254 52.527-4.133 4.756-.786 9.608-.978 14.427-1.228 6.141-.318 12.293-.526 18.44-.558 2.152-.011 4.6.057 6.409 1.094 7.747 4.441 15.28 9.168 21.155 16.538 11.324 14.203 18.358 30.901 24.764 47.956 1.761 4.689 2.944 9.747 3.627 14.757 1.274 9.341-2.43 16.913-8.372 23.505-7.886 8.747-17.437 15.109-26.776 21.779-5.313 3.795-10.785 7.341-16.02 11.253-6.505 4.863-12.443 10.366-17.624 16.939-5.381 6.828-11.352 13.141-17.291 19.437-7.842 8.315-17.561 13.256-27.873 16.994-2.242.814-4.503 1.568-6.794 2.363-.309 7.607 3.493 13.38 6.207 19.249 4.475 9.676 10.055 18.76 15.1 28.137 1.312 2.44 4.169 4.18 3.157 7.782-.129.46.365 1.44.817 1.717 4.132 2.533 7.71 6.752 12.93 6.3 7.636-.66 15.258-1.653 22.842-2.827 5.853-.906 11.603-2.717 17.471-3.34 3.563-.378 7.263.738 10.727 1.16 2.579-2.872 2.224-5.256-.194-7.505-1.492-1.388-3.049-2.706-4.456-4.188-2.076-2.183-3.836-4.581-3.336-8.038 1.183.153 2.568-.033 3.539.558 2.061 1.255 3.79 3.144 5.862 4.371 7.933 4.694 8.863 6.482 7.877 16.213 4.955 4.361 6.487 11.765 12.093 15.53.269.18.263.871.341 1.332 1.715 10.12 4.827 20.064 2.565 30.622-1.12 5.23-1.719 10.586-2.547 15.846 3.866.044 7.793.25 11.707.09 4.117-.168 8.223-.685 12.474-1.062.695-5.874 1.478-11.41 1.925-16.979.117-1.463-.435-3.355-1.317-4.473-3.305-4.194-2.782-8.42.038-12.243a221.458 221.458 0 0112.967-15.93c2.776-3.11 5.569-5.677 4.569-10.762-.408-2.064.694-4.597 1.453-6.782 3.681-10.594 7.38-21.184 11.288-31.685 1.364-3.665 1.145-6.516-1.178-9.749-5.427-7.548-8.959-16.134-11.023-25.441-.634-2.857-1.814-5.576-2.704-8.239-14.143 2.858-24.273 14.999-25.21 29.136-.308 4.661-1.303 9.268-1.952 13.906-.25 1.795-.408 3.604-.569 5.053 2.984 2.519 5.322 1.937 7.602-.135 4.52-4.111 7.48-9.146 8.52-15.489.49-2.987 1.14-6.015 2.25-8.781.45-1.123 2.318-1.595 3.541-2.364.605 1.134 1.369 2.209 1.758 3.423.268.837.162 1.9-.028 2.802-1.397 6.619-2.852 13.223-4.3 19.83-.849 3.875-2.242 7.718-2.419 11.626-.154 3.384 1.237 6.817 1.595 10.271.168 1.625.049 4.158-.877 4.867-2.205 1.684-3.539-.64-4.53-2.43-2.038-3.68-3.612-7.506-3.048-12.023.273-2.175.093-4.414.126-7.276-6.646 4.879-12.111 1.977-16.519-2.456-5-5.029-10.579-8.684-17.085-10.04-6.504-1.357-9.943-6.268-13.72-11.022-4.995-6.29-6.021-13.468-3.393-21.142 2.193-6.405 4.66-12.702 7.071-19.019.663-1.738 1.821-3.295 2.295-5.073.942-3.539-1.354-6.373-4.633-5.439-4.693 1.337-9.293 3.125-11.354 8.658-.978 2.622-2.39 5.071-3.249 7.731-4.951 15.322-6.896 30.565.579 45.781 2.949 6.005 5.236 12.385 7.825 18.594m46.635-247.758c-5.144-3.583-7.599-12.393-4.984-17.8.816-1.689 2.667-2.762 3.621-1.054 1.87 3.348 3.387 7.057 4.328 10.826.764 3.061-.652 5.911-2.965 8.028m41.79 51.213c2.956-3.417 5.976-3.496 8.89-2.352 1.673.659 3.848 2.127 4.212 3.664.341 1.45-1.019 4.426-2.305 5.007-1.905.86-4.881 1.033-6.531-.039-1.923-1.25-2.911-4.153-4.266-6.28m-.758-37.81c3.396-1.017 6.061-2.115 8.811-2.493 1.141-.157 3.06.897 3.581 1.979 1.091 2.275-2.181 6.661-5.757 8.401-3.076 1.497-4.497-.541-5.573-3.011-.526-1.205-.597-2.64-1.062-4.876M350.96 76.383c-3.436-1.938-4.877-4.562-3.595-7.731.982-2.425 1.551-6.213 5.939-5.371 1.189 4.59 1.233 8.863-2.344 13.102M302.373 89.78c-6.435-2.812-8.603-7.905-12.313-12.31 5.71-1.101 7.977 3.22 10.801 6 1.023 1.007.871 3.384 1.512 6.31" fill="#000"/><path d="M151.353 179.282l.84 1.263c8.739-3.059 17.397-6.553 26.852-4.963.753.127 2.056-1.348 2.522-2.38.197-.438-1.003-1.785-1.767-2.462-.427-.379-1.26-.262-1.914-.316-8.577-.712-16.524 1.491-23.894 6.145-1.023.645-1.767 1.796-2.639 2.713m-3.321 15.384c2.381-.393 3.466-.34 4.361-.756 8.319-3.864 16.852-6.66 26.038-6.534.832.01 1.831-.156 2.47-.655 1.519-1.187 1.743-2.743.016-3.918-.877-.598-2.066-1.001-3.095-.957-9.561.415-18.645 2.808-26.88 8.189-1.017.664-1.485 2.295-2.91 4.631m1.145 67.443c2.249 3.12 5.811 3.297 9.069 4.114 7.245 1.82 14.349-.543 21.517-.781 13.822-.46 26.608-5.992 39.982-8.55 1.248-.238 2.419-1.113 3.556-1.819 2.598-1.61 3.557-3.948 2.506-7.687-1.67.227-3.446.113-4.956.738-5.1 2.112-10.085 4.539-15.15 6.749-6.786 2.96-13.794 4.223-21.185 4.339-11.595.18-23.18 1.188-34.767 1.87-.108.007-.199.342-.572 1.027m140.807-89.483c1.735-2.428 2.9-3.414 3.262-4.667 2.237-7.753 1.446-15.586-1.515-22.716-3.188-7.677-7.524-14.812-11.492-22.099-.74-1.358-1.944-2.636-3.22-3.413-9.525-5.798-19.669-6.988-29.681-2.265-13.674 6.451-26.97 13.824-40.515 20.605-3.559 1.782-7.354 3.248-11.186 4.119-4.709 1.071-9.57 1.366-14.365 1.996 1.913 1.911 3.994 3.163 6.227 3.726 7.621 1.922 14.698.106 21.612-3.651a1933.66 1933.66 0 0139.659-20.939c8.956-4.603 24.479-1.654 30.391 6.498 4.389 6.055 8.104 12.914 10.912 19.969 2.292 5.761 2.944 12.328.002 18.527-.319.671-.061 1.655-.091 4.31M50.331 184.205c2.9-8.507 5.786-17.02 8.704-25.52 2.051-5.976 5.534-10.424 10.995-13.41 8.694-4.754 16.99-4.719 25.802-.193 5.058 2.596 10.728 5.149 16.181 5.292 16.015.421 32.077.021 48.086-.827 11.437-.607 17.651-1.501 17.474-21.044-.007-.706.045-1.416.007-2.12-.273-5.011-1.406-5.486-5.956-2.627.2 3.557.628 7.06.542 10.549-.167 6.794-2.279 9.357-8.473 10.384-8.667 1.438-17.35 1.696-26.156 1.39-12.632-.439-24.908-2.421-36.839-6.673-6.6-2.352-13.334-3.005-20.134-2.511-7.144.519-14.59 2.124-18.653 8.908-6.927 11.568-9.106 25.107-11.58 38.402m147.42 28.6c5.991 6.79 13.157 12.677 16.617 22.056.858 2.326 1.202 5.676 5.152 5.934.021-1.805.408-3.496-.007-4.918-1.925-6.597-4.896-12.576-9.851-17.202-2.978-2.78-6.088-5.408-8.93-8.335-1.305-1.344-2.433-3.114-3.075-4.922-1.744-4.906-4.683-8.992-9.219-10.353-9.001-2.698-18.193-2.803-27.175.739-5.222 2.06-9.354 5.013-9.862 11.792-.168 2.245-1.489 4.394-2.299 6.581-3.726 10.058-7.543 20.102-8.342 31.041-.31 4.261-.58 8.682 4.951 12.429-1.407-16.088 2.321-29.821 7.842-43.65 3.84 2.767 8.828 2.169 11.886 5.785 4.419-1.431 5.574-5.126 6.528-8.718.972-3.66-.857-5.991-4.537-5.577-3.47.391-6.866 1.546-11.249 2.593 6.11-8.367 14.371-7.833 21.958-8.306 4.718-.294 10.34-1.132 13.237 5.163-2.454 1.294-6.496-.147-6.892 3.886-.371 3.789 1.935 6.511 5.389 8.415 2.402-1.352 4.852-2.729 7.878-4.433M74.203 224.863c6.038 7.25 13.306 12.271 22.545 12.498 11.131.273 21.797-2.746 32.036-7.249 5.222-2.297 8.974-6.434 11.669-11.948 4.368-8.936 4.447-18.248 2.038-27.43-1.762-6.715-5.125-12.934-7.612-19.446-1.381-3.619-3.917-5.337-7.213-6.592-5.984-2.276-11.81-5.018-17.754-7.421-9.389-3.796-19.045-3.992-28.402-.485-10.875 4.076-15.483 13.991-18.219 25.155-.557 2.274-.416 5.08-1.64 6.774-4.565 6.307-2.1 11.609 1.831 16.368 4.053 4.906 8.971 8.987 13.061 13.862 6.15 7.328 13.424 9.828 22.49 8.357 6.095-.989 12.36-.777 18.55-1.101-6.043 4.886-12.778 6.944-19.709 7.553-8.952.785-15.923-5.391-23.67-8.895m142.814-14.12c4.047.566 6.635 1.238 9.224 1.239 12.468.005 24.371-2.99 35.734-8.427 4.385-2.097 7.474-5.797 9.567-10.343 4.356-9.458 6.655-19.431 5.591-30.019-1.025-10.204-3.808-19.222-19.293-20.182-1.092-.069-2.175-.311-3.267-.397-15.333-1.199-30.166 1.082-44.491 7.217-5.344 2.289-9.413 6.666-10.04 12.168-.643 5.649-2.897 10.544-3.942 15.906-.968 4.964-1.214 9.715 1.141 14.377.923 1.825 1.353 3.938 1.983 5.93 3.916 12.377 11.201 21.459 23.219 24.746 9.269 2.536 18.758 1.93 27.883-1.602 3.208-1.241 6.679-2.218 9.508-6.586-14.808 3.747-28.825 7.182-42.817-4.027M113.491 106.626c11.828.865 23.657 1.723 35.485 2.598 17.231 1.276 34.214-1.35 51.204-3.809 13.501-1.954 26.963-3.688 40.67-2.352 6.75.657 13.62-.205 20.434-.129 7.578.085 13.268 4.527 18.2 10.067 7.829 8.794 13.066 19.381 17.854 30.304 4.222 9.633 7.19 19.684 9.753 29.912 1.5 5.982.042 11.439-3.792 15.677-4.717 5.216-9.76 10.218-15.205 14.524-6.535 5.169-13.514 9.739-20.53 14.15-10.672 6.71-18.744 16.044-25.787 26.802-13.175 20.125-30.708 32.871-54.144 34.596-3.873.285-7.852-.342-11.723-.964-13.813-2.221-26.761-6.899-38.835-14.683-13.663-8.808-28.688-14.528-44.34-17.19-21.36-3.633-38.32-14.681-51.778-32.181-7.632-9.925-10.95-21.637-7.152-34.347 4.554-15.239 9.59-30.34 16.926-44.386 4.452-8.524 11.046-14.35 19.394-18.383 13.837-6.684 28.04-11.007 43.366-10.206M249.358 366.47c-10.598 7.735-20.084 14.913-29.835 21.65-3.818 2.64-8.057 4.937-12.401 6.283-21.37 6.62-42.925 5.783-64.525 1.245-7.388-1.552-13.502-5.353-18.739-10.994-1.741-1.875-3.525-3.704-5.289-5.554 4.608 10.38 10.879 19.204 21.534 21.897 10.414 2.633 21.075 4.978 31.721 5.553 18.935 1.022 36.967-4.327 54.201-12.535 5.582-2.658 11.186-5.617 16.1-9.441 5.311-4.133 7.559-10.372 7.233-18.104m-114.603-4.654c3.905 4.859 6.854 9.28 10.498 12.896 6.233 6.187 14.14 8.654 22.423 8.605 8.084-.05 16.236-.683 24.215-2.032 4.186-.707 8.202-3.226 12.04-5.437 2.674-1.541 4.865-3.985 5.279-8.262-1.244.219-2.351.113-3.138.6-6.339 3.929-13.337 4.714-20.389 4.715-7.685.002-15.396-.217-23.05-.915-8.311-.76-14.546-5.423-18.727-11.645 3.644-6.883 6.618-12.497 9.759-18.427 17.358.732 35.513 3.483 50.537-12.549l5.569 8.622c-5.469 5.018-10.579 10.072-17.026 13.155-6.144 2.938-13.302 2.2-19.365 5.635 14.908 4.248 28.423.788 41.038-8.25 2.604 2.589 5.095 4.859 7.36 7.365 3.453 3.82 7.525 5.674 12.462 4.835 8.665-1.473 17.347-2.871 25.953-4.688 6.197-1.308 12.23-4.147 18.433-4.542 3.35-.214 7.323 2.707 10.249 5.234 3.355 2.895 6.28 6.636 8.587 10.554 1.516 2.573 2.354 6.15 2.201 9.206-.506 10.114-2.175 20.053-6.271 29.75-7.327.558-14.713 1.133-22.1 1.68-13.13.975-26.299 1.528-39.383 2.976-30.554 3.38-61.04 7.487-91.61 10.659-10.392 1.078-20.882 1.108-31.419-1.01-10.518-2.112-21.369-2.287-32.046-3.57-11.987-1.44-23.953-3.093-35.906-4.818-3.409-.491-6.745-1.552-9.87-2.294-.887-11.155 3.75-20.273 5.787-29.98.267-1.267 1.321-2.327 1.906-3.541.85-1.763 1.88-3.5 2.348-5.385 1.412-5.675 3.936-8.188 9.114-8.221 3.421-.022 6.925-1.184 10.24-2.34 13.935-4.86 27.96-5.381 42.227-1.95 10.711 2.574 21.492 4.859 32.075 3.369" fill="#FFF"/><path d="M275.981 324.829c-2.589-6.209-4.876-12.589-7.825-18.594-7.475-15.216-5.529-30.459-.579-45.781.859-2.66 2.271-5.109 3.249-7.731 2.061-5.533 6.661-7.321 11.354-8.658 3.28-.934 5.575 1.9 4.633 5.439-.474 1.778-1.632 3.335-2.295 5.073-2.411 6.316-4.878 12.614-7.071 19.019-2.628 7.674-1.602 14.852 3.393 21.142 3.777 4.754 7.216 9.665 13.72 11.022 6.506 1.356 12.085 5.011 17.085 10.04 4.408 4.433 9.873 7.335 16.52 2.456-.034 2.862.146 5.101-.126 7.276-.565 4.517 1.009 8.343 3.047 12.022.992 1.79 2.326 4.115 4.53 2.431.927-.709 1.046-3.242.877-4.867-.358-3.454-1.748-6.887-1.595-10.271.177-3.908 1.57-7.751 2.419-11.626 1.448-6.607 2.903-13.211 4.3-19.83.19-.902.297-1.965.028-2.802-.389-1.214-1.153-2.289-1.758-3.423-1.222.768-3.091 1.241-3.541 2.364-1.11 2.766-1.76 5.794-2.25 8.78-1.04 6.344-4 11.379-8.52 15.49-2.28 2.072-4.617 2.654-7.602.134.161-1.448.32-3.257.57-5.052.648-4.638 1.643-9.245 1.952-13.907.936-14.136 11.066-26.277 25.21-29.135.889 2.663 2.069 5.382 2.703 8.239 2.064 9.307 5.596 17.893 11.023 25.441 2.323 3.233 2.542 6.084 1.178 9.749-3.907 10.501-7.607 21.091-11.288 31.685-.759 2.185-1.861 4.718-1.453 6.782 1.001 5.085-1.793 7.651-4.569 10.762a221.176 221.176 0 00-12.966 15.93c-2.821 3.823-3.344 8.05-.039 12.243.882 1.118 1.434 3.01 1.317 4.472-.446 5.57-1.23 11.106-1.925 16.98-4.251.377-8.356.894-12.474 1.061-3.914.161-7.84-.045-11.707-.089.829-5.26 1.427-10.617 2.547-15.846 2.262-10.558-.849-20.503-2.565-30.622-.078-.46-.071-1.152-.341-1.333-5.605-3.764-7.138-11.168-12.093-15.529.987-9.73.056-11.519-7.877-16.213-2.072-1.227-3.8-3.116-5.862-4.371-.971-.591-2.355-.405-3.539-.558l.205.206m57.504-85.847c2.899-10.183 5.69-19.56 8.234-29.011 4.399-16.34 4.538-32.454-2.649-48.071-.382-.829-.59-1.749-.868-2.594 1.237-1.095 2.427-2.015 3.448-3.115.402-.434.431-1.268.802-2.488-6.83-2.286-8.934-8.628-11.342-14.962-3.865-10.163-5.619-20.697-5.742-31.587-.053-4.709 1.585-6.54 6.097-7.536 5.114-1.129 9.409.404 10.551 4.424 3.445 12.113 6.942 24.231 9.732 36.527 1.433 6.315 1.451 13.01 2.03 19.541.787 8.867 1.728 17.73 2.152 26.62.221 4.643-.499 9.341-.834 14.011-1.395 19.43-2.805 38.859-4.237 58.673-3.268.544-4.883-1.4-5.311-4.767-.265-2.083-.208-4.218-.247-6.33-.115-6.174-.827-7.102-6.61-8.363-1.49-.325-2.997-.563-5.206-.972m-191.835 80.28c19.559 4.92 37.673 6.507 53.107-10.31l5.925 13.693c-5.812 8.232-14.233 11.288-22.855 12.932-7.501 1.43-15.287 1.095-22.938 1.683-2.805.216-4.477-.971-5.746-3.584-2.201-4.538-4.633-8.948-7.493-14.414" fill="#FFF"/><path d="M302.173 290.62c-3.517-3.061-4.073-5.745-3.136-8.576 2.851-8.609 5.333-17.353 11.669-24.17 4.323-4.65 9.005-7.764 15.105-8.964 4.409-.868 8.551-3.668 13.897-.742l2.779 10.298c-5.665 2.535-10.083 6.83-16.491 7.88-8.37 1.371-13.135 8.761-17.948 15.505-1.936 2.712-3.723 5.546-5.875 8.769m-174.138-27.472c15.975 14.94 33.433 26.068 56.688 24.775-5.446 5.799-11.124 7.906-16.938 7.568-8.712-.507-17.39-2.091-26.016-3.633-6.202-1.108-9.478-5.619-10.822-12.129-1.078-5.227-2.624-10.342-3.962-15.506l1.05-1.075" fill="#FFF"/><path d="M190.598 294.873c2.748 4.176 1.132 6.764-1.437 9.06-5.276 4.714-11.002 8.651-17.794 10.228-8.67 2.013-17.384 1.515-26.126.225-5.048-.745-6.322-5.093-8.038-8.887-1.205-2.663-1.575-5.761-2.573-9.659 1.802.639 2.906.938 3.942 1.413 10.88 4.985 22.286 6.808 34.032 6.131 6.831-.394 12.377-4.385 17.994-8.511" fill="#FFF"/><path d="M241.499 150.412c-8.838-.118-17.575.304-26.052 3.287-1.452.511-3.594.756-4.159 1.86-3.935 7.705-9.77 14.617-10.304 23.838-.173 3.013.798 6.746 2.501 9.11 4.455 6.182 9.962 11.287 17.268 13.439 13.614 4.01 26.952 2.518 39.805-3.274 2.779-1.253 5.387-4.208 6.945-7.08 4.334-7.997 5.306-16.911 3.917-25.931-1.338-8.69-5.245-12.631-13.534-13.876-5.415-.814-10.922-.939-16.387-1.373m-24.48 60.331c13.992 11.209 28.008 7.774 42.817 4.027-2.829 4.369-6.301 5.345-9.509 6.586-9.125 3.533-18.613 4.138-27.883 1.602-12.017-3.287-19.302-12.369-23.218-24.746-.63-1.991-1.061-4.105-1.984-5.93-2.354-4.662-2.108-9.413-1.14-14.377 1.044-5.362 3.298-10.257 3.942-15.906.627-5.502 4.695-9.879 10.04-12.168 14.324-6.135 29.157-8.416 44.49-7.217 1.093.086 2.175.328 3.268.397 15.484.961 18.267 9.978 19.293 20.182 1.063 10.588-1.236 20.561-5.591 30.019-2.094 4.546-5.183 8.246-9.567 10.344-11.364 5.436-23.266 8.431-35.735 8.426-2.589-.001-5.177-.673-9.223-1.239M110.806 225.02c2.506-.2 6.001-.513 9.5-.755 8.958-.618 15.28-9.433 16.087-16.228 1.459-12.286.767-24.407-5.108-35.514-.794-1.502-2.218-3.218-3.657-3.636-11.767-3.428-23.149-8.62-35.963-6.685-8.749 1.32-15.53 5.309-19.889 13.218-2.636 4.781-4.102 10.322-5.925 15.587-1.432 4.133-.57 7.744 2.433 10.91 5.154 5.432 10.087 11.105 15.254 16.523 3.235 3.392 7.284 5.189 11.81 5.555 4.81.386 9.63.645 15.458 1.025m-36.604-.156c7.75 3.504 14.72 9.679 23.672 8.894 6.931-.608 13.666-2.667 19.708-7.552-6.189.324-12.454.112-18.549 1.101-9.066 1.471-16.34-1.029-22.49-8.357-4.09-4.875-9.008-8.956-13.06-13.863-3.933-4.758-6.397-10.06-1.833-16.368 1.225-1.693 1.084-4.499 1.641-6.773 2.736-11.164 7.344-21.079 18.22-25.155 9.356-3.507 19.012-3.311 28.4.485 5.944 2.402 11.771 5.144 17.754 7.421 3.297 1.255 5.832 2.972 7.214 6.592 2.487 6.511 5.85 12.731 7.612 19.446 2.409 9.181 2.33 18.494-2.039 27.43-2.694 5.513-6.446 9.651-11.668 11.948-10.239 4.503-20.905 7.521-32.037 7.249-9.238-.228-16.506-5.248-22.545-12.498" fill="#000"/><path d="M197.752 212.806l-7.879 4.433c-3.453-1.905-5.76-4.626-5.389-8.415.397-4.034 4.439-2.592 6.893-3.886-2.897-6.295-8.52-5.457-13.237-5.163-7.587.472-15.848-.062-21.958 8.305 4.382-1.046 7.779-2.202 11.249-2.592 3.679-.414 5.509 1.917 4.537 5.577-.954 3.592-2.11 7.287-6.529 8.718-3.057-3.617-8.045-3.018-11.885-5.786-5.522 13.83-9.249 27.563-7.842 43.651-5.531-3.747-5.262-8.168-4.951-12.43.799-10.938 4.616-20.982 8.342-31.041.809-2.186 2.13-4.336 2.298-6.58.508-6.779 4.641-9.732 9.863-11.792 8.981-3.542 18.174-3.437 27.175-.739 4.536 1.36 7.474 5.447 9.218 10.352.643 1.809 1.771 3.578 3.075 4.922 2.842 2.928 5.953 5.556 8.93 8.335 4.955 4.626 7.927 10.606 9.852 17.202.415 1.422.027 3.114.007 4.918-3.951-.258-4.294-3.607-5.153-5.933-3.46-9.379-10.626-15.266-16.616-22.056M50.33 184.205c2.476-13.295 4.654-26.834 11.58-38.401 4.064-6.785 11.51-8.39 18.654-8.909 6.8-.494 13.534.16 20.134 2.511 11.932 4.252 24.207 6.235 36.839 6.673 8.807.306 17.489.048 26.156-1.39 6.195-1.027 8.307-3.589 8.474-10.383.086-3.49-.343-6.993-.542-10.55 4.55-2.859 5.683-2.384 5.955 2.627.038.704-.014 1.414-.007 2.12.178 19.543-6.037 20.437-17.473 21.044-16.009.848-32.072 1.248-48.086.827-5.454-.143-11.123-2.695-16.181-5.292-8.814-4.525-17.108-4.561-25.803.193-5.461 2.986-8.943 7.434-10.995 13.41-2.918 8.5-5.804 17.013-8.704 25.52m239.653-11.579c.03-2.654-.228-3.639.091-4.31 2.942-6.199 2.29-12.766-.002-18.527-2.808-7.055-6.523-13.914-10.912-19.969-5.911-8.152-21.435-11.101-30.391-6.498a1936.267 1936.267 0 00-39.659 20.939c-6.914 3.758-13.991 5.573-21.612 3.651-2.233-.562-4.314-1.814-6.227-3.725 4.795-.63 9.656-.925 14.365-1.997 3.832-.871 7.627-2.336 11.186-4.119 13.545-6.781 26.841-14.154 40.515-20.605 10.012-4.723 20.156-3.532 29.681 2.265 1.277.777 2.481 2.055 3.22 3.414 3.969 7.287 8.305 14.421 11.492 22.098 2.961 7.13 3.752 14.963 1.515 22.716-.362 1.253-1.527 2.239-3.262 4.667M149.177 262.11c.373-.686.464-1.021.571-1.027 11.588-.682 23.173-1.69 34.768-1.87 7.39-.116 14.398-1.379 21.184-4.339 5.066-2.21 10.051-4.637 15.151-6.749 1.51-.625 3.286-.511 4.956-.738 1.051 3.739.092 6.077-2.506 7.687-1.138.706-2.309 1.581-3.557 1.819-13.374 2.558-26.159 8.09-39.981 8.55-7.168.238-14.273 2.601-21.518.781-3.257-.817-6.819-.994-9.068-4.114m-1.145-67.444c1.426-2.336 1.894-3.967 2.91-4.631 8.236-5.381 17.319-7.773 26.88-8.188 1.029-.045 2.219.358 3.096.956 1.726 1.175 1.503 2.731-.017 3.919-.639.499-1.638.665-2.47.654-9.186-.126-17.718 2.67-26.038 6.534-.895.416-1.98.363-4.361.756m3.321-15.384c.872-.917 1.616-2.068 2.639-2.713 7.37-4.654 15.317-6.857 23.894-6.145.654.054 1.487-.063 1.914.316.764.677 1.964 2.024 1.767 2.462-.466 1.032-1.769 2.507-2.522 2.38-9.455-1.59-18.113 1.904-26.852 4.963l-.84-1.263m98.005 187.188c.326 7.732-1.922 13.97-7.233 18.104-4.914 3.824-10.518 6.783-16.1 9.44-17.234 8.209-35.266 13.558-54.201 12.536-10.646-.575-21.307-2.92-31.721-5.553-10.655-2.693-16.926-11.517-21.534-21.897 1.764 1.85 3.548 3.679 5.289 5.554 5.237 5.64 11.351 9.442 18.739 10.994 21.6 4.538 43.155 5.375 64.525-1.245 4.344-1.346 8.583-3.643 12.401-6.282 9.751-6.738 19.237-13.916 29.835-21.651" fill="#000"/><path d="M216.221 172.151c1.253 13.88 5.354 19.614 14.979 21.349 4.721.851 9.164-.222 13.354-2.625 5.808-3.332 7.931-9.446 9.951-16.124l9.336 8.349c.281-3.116.977-4.996.455-6.327-.91-2.325-2.256-4.68-3.977-6.368-4.023-3.941-8.227-7.721-12.668-11.099-1.826-1.387-4.573-2.485-6.687-2.149-9.51 1.51-18.879 3.762-25.844 11.801-.885 1.021-1.553 2.274-2.226 3.481-.157.283.075.816.154 1.432l3.173-1.72m25.277-21.738c5.465.433 10.972.558 16.387 1.373 8.289 1.245 12.196 5.185 13.534 13.876 1.389 9.019.417 17.933-3.917 25.93-1.557 2.872-4.166 5.828-6.945 7.08-12.853 5.792-26.19 7.285-39.805 3.275-7.305-2.152-12.812-7.257-17.267-13.44-1.703-2.363-2.675-6.096-2.501-9.109.533-9.222 6.368-16.134 10.303-23.838.565-1.104 2.707-1.349 4.16-1.86 8.476-2.984 17.213-3.405 26.051-3.287M90.416 183.502l1.09.873c-.172 2.762-.593 5.536-.47 8.282.359 7.959 6.46 15.153 13.824 16.603 8.265 1.628 14.592-1.893 17.754-10.553a37.249 37.249 0 002.209-11.57c.211-8.082-4.782-13.666-12.33-14.6a46.614 46.614 0 00-3.932-.308c-13.657-.53-24.052 5.825-31.795 17.559-1.294 1.96-2.894 4.315-.318 6.535 4.775-4.383 9.37-8.602 13.968-12.821m20.39 41.518c-5.827-.38-10.648-.639-15.457-1.026-4.527-.365-8.576-2.162-11.81-5.554-5.167-5.418-10.101-11.091-15.255-16.523-3.004-3.166-3.864-6.777-2.432-10.91 1.823-5.266 3.289-10.807 5.924-15.587 4.36-7.909 11.14-11.898 19.89-13.219 12.813-1.934 24.195 3.258 35.963 6.686 1.438.418 2.862 2.134 3.656 3.636 5.875 11.107 6.568 23.228 5.109 35.513-.807 6.795-7.129 15.611-16.087 16.229-3.5.242-6.995.554-9.5.755" fill="#FFF"/><path d="M235.69 165.786c-6.635-1.706-11.181-.515-13.316 3.492-1.7 3.187-1.032 9.122 2.152 12.375 2.298 2.348 5.311 4.017 8.231 5.468 1.007.5 2.697-.576 4.272-.982-7.301-10.046-7.375-11.476-1.339-20.353m-19.469 6.364l-3.173 1.72c-.079-.615-.311-1.148-.154-1.432.673-1.207 1.341-2.46 2.227-3.481 6.965-8.039 16.334-10.291 25.843-11.801 2.115-.336 4.862.762 6.687 2.15 4.441 3.377 8.645 7.157 12.668 11.098 1.722 1.689 3.067 4.043 3.977 6.368.522 1.331-.173 3.211-.455 6.327l-9.336-8.349c-2.02 6.679-4.143 12.792-9.951 16.124-4.19 2.403-8.633 3.476-13.354 2.625-9.624-1.734-13.726-7.469-14.979-21.349m-105.404 29.986c-1.888-3.893-4.054-7.405-5.338-11.257-1.485-4.452 1.698-7.639 4.292-10.966-8.587-.663-11.502 1.641-12.106 9.116-.536 6.642 5.31 12.401 13.152 13.107m-20.4-18.634c-4.598 4.219-9.195 8.439-13.969 12.822-2.576-2.221-.977-4.576.317-6.536 7.743-11.734 18.14-18.089 31.795-17.559 1.314.051 2.628.147 3.933.308 7.548.934 12.541 6.518 12.33 14.6a37.272 37.272 0 01-2.209 11.57c-3.162 8.66-9.489 12.181-17.754 10.553-7.364-1.45-13.465-8.644-13.823-16.603-.124-2.746.297-5.52.47-8.282l-1.09-.873" fill="#000"/><path d="M235.69 165.786c-6.036 8.877-5.962 10.307 1.339 20.353-1.575.406-3.265 1.482-4.272.982-2.92-1.451-5.933-3.12-8.231-5.468-3.184-3.253-3.852-9.188-2.152-12.375 2.135-4.007 6.681-5.198 13.316-3.492m-124.873 36.35c-7.842-.706-13.688-6.465-13.152-13.107.604-7.475 3.52-9.779 12.106-9.116-2.594 3.327-5.777 6.514-4.292 10.966 1.284 3.852 3.45 7.364 5.338 11.257" fill="#FFF"/><path d="M339.326 98.871s-6.21-2.674-11.813 2.349c-5.604 5.023-2.976 12.427-2.146 20.783.829 8.355 3.711 14.268 5.782 22.347 1.738 6.775 7.351 15.929 7.351 15.929s12.883-4.062 13.821-16.723c.938-12.663-4.808-26.656-5.419-30.779-.609-4.123-1.413-9.758-7.576-13.906" fill="#FF499E"/></g></svg>