<?xml version="1.0" encoding="UTF-8"?>
<svg width="300px" height="300px" viewBox="0 0 300 300" version="1.1" xmlns="http://www.w3.org/2000/svg" xmlns:xlink="http://www.w3.org/1999/xlink">
    <title>games</title>
    <g id="games" stroke="none" stroke-width="1" fill="none" fill-rule="evenodd">
        <g id="Group-19" transform="translate(68.000000, 76.500000)">
            <path d="M20.8711,87.8912 C17.4211,83.2182 13.9721,78.5442 10.5221,73.8712 L9.7621,74.2682 C11.7991,79.7812 13.8361,85.2952 15.8301,90.6932 C17.8751,89.6012 19.2611,88.8612 20.6471,88.1212 C21.4141,91.2982 20.2531,93.6182 17.3651,94.8142 C21.5221,108.5652 33.8301,132.9292 38.4841,135.9262 C34.9831,124.2832 31.6511,113.1982 28.1261,101.4752 C26.5451,104.7522 24.4021,104.4682 22.4631,103.4542 C20.5131,102.4342 20.2191,99.9352 21.4721,97.1542 C21.7771,96.4772 22.5591,96.0152 23.5751,95.0032 C23.8461,96.5372 23.9921,97.3672 24.1391,98.1982 C26.7571,96.5582 29.8871,96.8842 31.1021,99.1272 C32.1291,101.0212 32.9891,103.0392 33.6621,105.0882 C36.8151,114.6902 39.8431,124.3342 42.9861,133.9392 C44.8901,139.7562 44.9551,139.9292 50.9421,139.7222 C65.5541,139.2182 80.1601,138.5452 94.7651,137.8792 C99.4481,137.6662 104.128,137.3222 108.8,136.9332 C114.389,136.4692 119.144,134.6632 122.802,129.8912 C127.075,124.3152 132.007,119.2462 136.604,113.9162 C139.609,110.4332 142.528,106.8772 145.485,103.3532 C145.209,103.0632 144.934,102.7732 144.658,102.4832 C134.228,111.9482 123.396,120.8642 111.119,127.8702 C118.009,120.8422 125.278,114.2832 132.711,107.9162 C140.324,101.3952 148.096,95.0602 156.391,88.1512 C153.187,85.6272 150.643,83.3972 147.88,81.4862 C139.259,75.5252 130.535,69.7142 121.903,63.7692 C120.316,62.6762 118.078,61.8572 118.348,58.2332 C124.686,61.4252 130.527,64.1702 136.174,67.2672 C141.732,70.3152 147.094,73.7222 152.975,77.2292 C151.064,66.4982 133.133,19.427 129.719,15.753 C128.959,18.288 128.329,20.87 127.415,23.349 C124.667,30.802 121.834,38.225 118.98,45.639 C118.009,48.1632 116.978,50.6762 115.773,53.0952 C115.105,54.4372 113.978,55.4352 111.767,53.9222 C112.317,52.0652 112.809,50.0272 113.52,48.0692 C116.664,39.41 119.896,30.783 123.047,22.126 C124.615,17.815 125.233,13.429 123.443,8.313 C121.673,8.313 119.723,8.24 117.778,8.324 C97.0381,9.218 76.3001,10.144 55.5601,11.045 C50.0561,11.284 45.4521,13.242 41.8011,17.529 C35.2481,25.222 28.4661,32.719 21.9541,40.446 C17.4261,45.819 13.1821,51.4332 8.8251,56.9512 C6.6541,59.7012 6.6211,62.1222 8.9131,65.1592 C13.3681,71.0622 17.2621,77.3862 21.4821,83.4702 C22.5791,85.0522 24.0231,86.3932 25.8681,88.4772 C30.0101,65.5052 35.5691,43.819 42.7071,21.762 C43.1791,22.925 43.4351,23.234 43.3881,23.487 C41.4041,34.291 39.3691,45.086 37.3921,55.8912 C35.3521,67.0502 33.2461,78.2002 31.4401,89.3972 C30.9741,92.2892 29.3581,93.2202 26.5951,94.2382 C24.6881,92.1232 22.7801,90.0062 20.8711,87.8912 L20.8711,87.8912 Z M59.5461,146.7152 C55.2071,146.7152 50.8561,146.5132 46.5311,146.7632 C40.0041,147.1392 35.0091,144.3522 30.8421,139.7222 C25.5591,133.8532 22.0831,126.8872 19.5451,119.5192 C14.0791,103.6522 8.8711,87.6962 3.5671,71.7732 C2.9391,69.8892 2.7811,67.7042 1.7051,66.1422 C-1.0039,62.2122 -0.1839,58.4702 2.0661,55.0142 C5.9001,49.1282 9.8221,43.256 14.2201,37.791 C20.1001,30.484 26.3711,23.482 32.6561,16.512 C40.7641,7.521 50.9211,2.769 63.0871,2.28 C67.5851,2.099 72.0901,1.697 76.5541,1.111 C88.9771,-0.516 101.405,-0.084 113.848,0.688 C117.811,0.934 121.791,0.935 125.748,1.249 C129.775,1.568 132.634,3.601 134.945,7.071 C140.328,15.156 143.356,24.256 146.569,33.232 C151.187,46.132 155.231,59.2382 159.532,72.2532 C160.099,73.9662 160.665,75.6842 161.351,77.3522 C164.632,85.3342 163.755,93.0632 159.159,100.1102 C155.326,105.9882 150.936,111.5332 146.48,116.9672 C141.79,122.6862 136.496,127.9142 131.892,133.6962 C126.847,140.0332 120.267,143.3462 112.546,144.4482 C106.127,145.3652 99.6271,146.0002 93.1481,146.1572 C81.9531,146.4282 70.7461,146.2322 59.5451,146.2322 L59.5461,146.7152 Z" id="Fill-1" fill="#000000"></path>
            <path d="M19.5835,52.1077 C21.9805,53.2087 24.0085,54.1407 26.9035,55.4707 C24.9025,51.0787 22.0825,49.1467 18.9335,47.5897 C15.0115,51.5067 14.6285,53.5807 17.2405,57.4617 C18.0185,55.6837 18.7105,54.1027 19.5835,52.1077 L19.5835,52.1077 Z M24.6395,66.3947 C20.8935,62.1727 16.1945,61.8797 12.2825,64.5617 C13.5345,67.9807 15.7755,70.3267 19.9325,71.7857 C19.4255,69.7057 19.0755,68.2697 18.7015,66.7357 C20.7415,66.6187 22.6905,66.5067 24.6395,66.3947 L24.6395,66.3947 Z M68.1665,124.5057 C63.5395,126.6257 60.0595,129.5077 57.3905,134.2747 C61.2755,136.3757 64.7475,136.8067 69.6145,135.4327 C67.4245,133.8617 66.1555,132.9527 64.9105,132.0587 C66.4825,129.7127 69.6835,128.5327 68.1665,124.5057 L68.1665,124.5057 Z M125.893,37.213 C132.022,45.213 136.449,49.0027 140.011,49.4877 C140.218,44.787 139.353,41.443 137.407,40.431 C136.818,40.777 136.072,41.216 135.325,41.659 C132.379,40.192 130.992,35.599 125.893,37.213 L125.893,37.213 Z M129.652,53.9327 C127.062,51.7347 127.062,51.7347 127.107,47.0537 C124.086,47.8597 123.209,49.0207 123.727,51.5287 C124.432,54.9477 127.696,56.6497 132.6,56.1557 C135.772,59.9597 137.724,60.8167 139.521,59.1967 C141.181,57.6997 140.948,55.7497 138.865,53.7157 C138.278,54.6867 137.691,55.6567 136.78,57.1627 C135.459,54.7357 134.47,52.9177 133.305,50.7777 C131.9,51.9917 130.759,52.9767 129.652,53.9327 L129.652,53.9327 Z M53.3495,118.3117 C51.2125,118.4067 50.1605,118.4517 49.1085,118.5017 C48.0345,118.5537 46.9165,118.4387 45.8955,118.7017 C43.4895,119.3237 42.5825,121.3027 44.0625,123.1687 C46.2585,125.9387 48.5915,128.7427 52.7415,128.9827 C55.0075,124.7757 48.4835,125.2067 49.2225,121.8347 C52.4695,121.9967 55.6825,122.2637 58.8935,122.2507 C59.8095,122.2467 61.4595,121.4687 61.4855,120.9777 C61.5405,119.9247 61.0645,118.3967 60.2625,117.8247 C57.0525,115.5347 53.6625,113.4897 50.2805,111.4517 C48.8545,110.5927 47.5515,110.7257 46.8625,112.8957 C48.6805,114.4137 50.5625,115.9847 53.3495,118.3117 L53.3495,118.3117 Z M92.7625,107.8507 C93.3235,104.2817 91.4185,103.8987 89.9715,103.6107 C83.2575,102.2777 76.5055,101.1367 69.7725,99.9027 C67.6305,99.5107 65.8125,99.6857 64.8805,102.6787 C68.4245,106.4797 72.5705,109.6967 77.5905,111.7967 C80.1155,108.2837 75.3915,107.8957 75.1125,105.2297 C78.0705,105.6967 80.8735,106.1607 83.6835,106.5777 C86.6365,107.0157 89.5965,107.4087 92.7625,107.8507 L92.7625,107.8507 Z M50.4525,58.6527 C52.0225,57.8497 53.2685,57.2247 54.5015,56.5787 C57.7015,54.9047 60.8975,53.2267 64.0895,51.5397 C66.2505,50.3967 66.7125,48.8807 64.9385,46.276 C57.6765,51.0537 49.0345,52.8327 42.2725,58.4037 C47.0015,64.0527 53.8465,67.4727 58.3545,66.4967 C57.6965,62.1647 53.0625,61.9407 50.4525,58.6527 L50.4525,58.6527 Z M84.7015,20.798 C87.6935,22.229 90.3905,23.641 93.1845,24.822 C96.3215,26.147 99.5265,27.324 102.742,28.448 C104.681,29.126 106.614,29.335 108.002,26.234 C102.935,24.285 97.9875,22.497 93.1345,20.483 C88.1105,18.398 83.3075,15.685 77.0775,14.932 C77.3565,21.117 80.9335,25.073 82.6235,29.959 C88.1085,27.65 83.4985,24.149 84.7015,20.798 L84.7015,20.798 Z M92.4395,96.7917 C93.9495,96.3787 94.5535,96.3827 94.9125,96.0887 C98.6205,93.0427 98.6735,87.9727 95.0805,84.2747 C91.3345,80.4207 85.4195,80.3277 82.2325,84.4257 C80.6425,86.4717 79.8205,89.1167 78.4965,91.8057 C77.2815,91.4257 75.8185,90.9677 74.3945,90.5227 C74.1195,87.8357 73.8795,85.4847 73.6405,83.1357 C73.2475,83.0747 72.8545,83.0137 72.4615,82.9517 C71.8475,84.1177 70.9585,85.2227 70.6815,86.4647 C70.2585,88.3577 70.1515,90.3447 70.148499,92.2927 C70.1475,92.8427 70.8805,93.7307 71.4415,93.8917 C75.1505,94.9577 78.6905,96.9187 83.4015,96.4327 C83.2355,94.5007 83.0225,92.7997 82.9565,91.0937 C82.8315,87.8917 85.6025,84.8827 88.5295,84.9517 C91.4815,85.0207 93.9485,88.1517 93.5345,91.4427 C93.3425,92.9737 92.9235,94.4747 92.4395,96.7917 L92.4395,96.7917 Z M50.8425,17.016 L49.7815,18.059 C50.2385,18.749 50.5865,19.551 51.1665,20.114 C64.6005,33.162 81.5915,41.314 96.1985,52.7557 C97.4165,53.7097 98.9775,54.6097 101.388,52.2367 C85.4025,39.004 67.9455,28.259 50.8425,17.016 L50.8425,17.016 Z M134.973,85.7537 C135.303,85.3717 135.633,84.9907 135.963,84.6087 C134.762,83.2627 133.796,81.4367 132.296,80.7007 C130.674,79.9057 128.416,79.5797 126.674,80.0107 C121.569,81.2717 118.874,86.1717 120.142,90.6787 C121.416,95.2067 125.058,96.9267 129.386,98.3447 C127.941,100.2697 126.803,101.7867 125.906,102.9817 C121.865,102.5067 119.315,98.7607 114.73,100.4517 C115.744,101.6407 116.339,102.7417 117.26,103.3397 C119.518,104.8067 121.936,106.0257 124.271,107.3757 C126.412,108.6137 127.925,108.0247 129.258,106.0167 C130.748,103.7737 132.623,101.7757 134.017,99.4807 C134.948,97.9467 135.334,96.0797 136.066,94.0847 C130.904,92.6457 125.122,93.3287 124.153,86.7627 C127.178,81.2107 131.244,84.9357 134.973,85.7537 L134.973,85.7537 Z M37.5625,94.7077 C37.2405,95.0457 36.9175,95.3837 36.5945,95.7217 C37.5825,96.4437 38.5655,97.1727 39.5585,97.8877 C43.0775,100.4217 46.5035,103.0987 50.1375,105.4567 C63.9265,114.4007 77.7835,123.2427 91.6165,132.1207 C93.4055,133.2687 95.1795,134.7027 97.3395,132.7157 C93.6195,127.4837 43.5825,95.7367 37.5625,94.7077 L37.5625,94.7077 Z M37.6045,87.4777 C37.7335,88.0437 37.8635,88.6107 37.9925,89.1767 C39.4765,88.9507 41.0285,88.9257 42.4305,88.4557 C45.3295,87.4847 48.1985,86.3897 50.9905,85.1457 C61.3535,80.5287 71.6805,75.8307 82.0205,71.1607 C87.5985,68.6407 93.2265,66.2247 98.7325,63.5557 C102.52,61.7197 103.122,60.1567 102.375,55.6077 C80.7225,66.2617 59.1635,76.8697 37.6045,87.4777 L37.6045,87.4777 Z M110.041,61.1927 C109.262,63.2117 108.673,64.1367 108.562,65.1157 C106.104,86.7787 103.676,108.4467 101.31,130.1207 C101.003,132.9307 102.041,135.0437 105.521,135.5267 C105.878,134.7207 106.474,133.9577 106.535,133.1537 C108.264,110.1457 109.948,87.1337 111.578,64.1177 C111.619,63.5347 110.966,62.9027 110.041,61.1927 L110.041,61.1927 Z M20.8725,87.8897 C22.7805,90.0067 24.6875,92.1237 26.5945,94.2387 C29.3575,93.2197 30.9745,92.2897 31.4405,89.3977 C33.2455,78.1997 35.3525,67.0507 37.3925,55.8907 C39.3685,45.086 41.4045,34.292 43.3885,23.488 C43.4355,23.234 43.1785,22.925 42.7075,21.762 C35.5685,43.82 30.0095,65.5057 25.8675,88.4777 C24.0235,86.3937 22.5795,85.0517 21.4815,83.4697 C17.2615,77.3857 13.3675,71.0617 8.9135,65.1597 C6.6215,62.1227 6.6535,59.7017 8.8245,56.9517 C13.1825,51.4337 17.4255,45.82 21.9545,40.446 C28.4655,32.72 35.2485,25.222 41.8005,17.529 C45.4525,13.242 50.0555,11.284 55.5605,11.045 C76.2995,10.145 97.0385,9.219 117.778,8.324 C119.722,8.241 121.673,8.313 123.443,8.313 C125.233,13.43 124.615,17.816 123.046,22.126 C119.896,30.783 116.664,39.41 113.52,48.0697 C112.809,50.0277 112.317,52.0657 111.767,53.9227 C113.978,55.4357 115.104,54.4367 115.773,53.0947 C116.978,50.6767 118.008,48.1627 118.98,45.639 C121.834,38.225 124.667,30.803 127.415,23.349 C128.328,20.871 128.959,18.288 129.715,15.752 C133.132,19.428 151.064,66.4977 152.975,77.2297 C147.093,73.7217 141.731,70.3157 136.173,67.2667 C130.526,64.1697 124.686,61.4257 118.348,58.2337 C118.078,61.8567 120.315,62.6757 121.903,63.7697 C130.535,69.7147 139.259,75.5247 147.879,81.4867 C150.643,83.3977 153.187,85.6267 156.39,88.1507 C148.095,95.0607 140.323,101.3947 132.711,107.9157 C125.278,114.2837 118.008,120.8417 111.118,127.8697 C123.396,120.8637 134.228,111.9487 144.658,102.4837 C144.933,102.7737 145.208,103.0637 145.484,103.3537 C142.527,106.8767 139.608,110.4337 136.604,113.9157 C132.006,119.2467 127.075,124.3157 122.802,129.8907 C119.144,134.6637 114.389,136.4687 108.8,136.9337 C104.127,137.3217 99.4485,137.6657 94.7655,137.8797 C80.1595,138.5447 65.5535,139.2177 50.9425,139.7227 C44.9555,139.9287 44.8905,139.7557 42.9865,133.9397 C39.8425,124.3337 36.8155,114.6907 33.6625,105.0877 C32.9895,103.0387 32.1295,101.0217 31.1025,99.1267 C29.8865,96.8847 26.7565,96.5577 24.1385,98.1977 C23.9925,97.3677 23.8455,96.5367 23.5755,95.0027 C22.5595,96.0157 21.7765,96.4777 21.4715,97.1537 C20.2185,99.9357 20.5125,102.4347 22.4635,103.4547 C24.4025,104.4687 26.5455,104.7517 28.1265,101.4747 C31.6505,113.1977 34.9835,124.2827 38.4835,135.9257 C33.8305,132.9297 21.5225,108.5647 17.3645,94.8147 C20.2525,93.6177 21.4145,91.2977 20.6465,88.1207 L20.8725,87.8897 Z" id="Fill-2" fill="#FF499E"></path>
            <path d="M20.647,88.1209 C19.261,88.8609 17.876,89.6009 15.831,90.6939 C13.836,85.2959 11.799,79.7819 9.762,74.2679 L10.522,73.8709 C13.972,78.5439 17.421,83.2179 20.872,87.8909 C20.872,87.8899 20.647,88.1209 20.647,88.1209" id="Fill-3" fill="#FF499E"></path>
            <path d="M110.042,61.1929 C110.966,62.9029 111.62,63.5349 111.579,64.1179 C109.949,87.1339 108.265,110.1459 106.535,133.1539 C106.475,133.9569 105.879,134.7199 105.521,135.5269 C102.041,135.0439 101.003,132.9309 101.31,130.1209 C103.677,108.4469 106.104,86.7789 108.563,65.1149 C108.673,64.1359 109.263,63.2119 110.042,61.1929" id="Fill-4" fill="#000000"></path>
            <path d="M37.605,87.4773 C59.164,76.8693 80.722,66.2613 102.376,55.6073 C103.123,60.1563 102.521,61.7193 98.732,63.5553 C93.227,66.2243 87.598,68.6413 82.02,71.1603 C71.681,75.8313 61.354,80.5283 50.99,85.1463 C48.198,86.3903 45.329,87.4843 42.431,88.4553 C41.028,88.9253 39.477,88.9503 37.993,89.1763 C37.863,88.6103 37.734,88.0433 37.605,87.4773" id="Fill-5" fill="#000000"></path>
            <path d="M37.563,94.7076 C43.583,95.7376 93.619,127.4846 97.339,132.7166 C95.179,134.7026 93.406,133.2696 91.616,132.1206 C77.784,123.2426 63.927,114.4006 50.138,105.4566 C46.503,103.0996 43.077,100.4216 39.559,97.8876 C38.565,97.1726 37.583,96.4446 36.595,95.7216 C36.917,95.3836 37.24,95.0456 37.563,94.7076" id="Fill-6" fill="#000000"></path>
            <path d="M134.973,85.7539 C131.244,84.9359 127.179,81.2099 124.154,86.7629 C125.122,93.3289 130.905,92.6459 136.067,94.0839 C135.334,96.0799 134.949,97.9459 134.017,99.4809 C132.623,101.7759 130.748,103.7729 129.258,106.0169 C127.925,108.0249 126.412,108.6139 124.271,107.3759 C121.936,106.0259 119.518,104.8069 117.261,103.3399 C116.339,102.7409 115.744,101.6399 114.73,100.4519 C119.316,98.7609 121.865,102.5069 125.906,102.9809 C126.803,101.7869 127.942,100.2699 129.387,98.3449 C125.058,96.9269 121.416,95.2069 120.142,90.6789 C118.874,86.1719 121.57,81.2719 126.675,80.0099 C128.417,79.5799 130.674,79.9059 132.296,80.7009 C133.797,81.4369 134.762,83.2629 135.963,84.6089 C135.633,84.9899 135.303,85.3719 134.973,85.7539" id="Fill-7" fill="#000000"></path>
            <path d="M50.8423,17.016 C67.9463,28.259 85.4033,39.003 101.388,52.2369 C98.9773,54.6099 97.4163,53.7089 96.1983,52.7559 C81.5913,41.314 64.6003,33.162 51.1663,20.114 C50.5863,19.55 50.2383,18.749 49.7813,18.059 L50.8423,17.016 Z" id="Fill-8" fill="#000000"></path>
            <path d="M92.4399,96.7913 C92.9229,94.4753 93.3419,92.9733 93.5349,91.4433 C93.9479,88.1523 91.4819,85.0213 88.5299,84.9513 C85.6029,84.8823 82.8309,87.8913 82.9559,91.0933 C83.0229,92.7993 83.2349,94.5003 83.4019,96.4323 C78.6899,96.9193 75.1499,94.9583 71.4419,93.8913 C70.8809,93.7303 70.1479,92.8433 70.148899,92.2923 C70.1519,90.3443 70.2589,88.3573 70.6809,86.4653 C70.9589,85.2233 71.8469,84.1183 72.4619,82.9523 C72.8549,83.0133 73.2479,83.0743 73.6399,83.1353 C73.8799,85.4853 74.1199,87.8353 74.3939,90.5223 C75.8179,90.9683 77.2819,91.4253 78.4969,91.8053 C79.8209,89.1163 80.6419,86.4713 82.2329,84.4253 C85.4189,80.3273 91.3349,80.4213 95.0799,84.2753 C98.6739,87.9733 98.6209,93.0423 94.9129,96.0883 C94.5539,96.3833 93.9489,96.3783 92.4399,96.7913" id="Fill-9" fill="#000000"></path>
            <path d="M84.7016,20.798 C83.4976,24.149 88.1086,27.65 82.6226,29.958 C80.9336,25.073 77.3566,21.116 77.0776,14.932 C83.3076,15.685 88.1106,18.398 93.1346,20.483 C97.9876,22.497 102.935,24.285 108.003,26.234 C106.615,29.335 104.681,29.126 102.743,28.448 C99.5266,27.323 96.3216,26.147 93.1846,24.822 C90.3896,23.641 87.6936,22.229 84.7016,20.798" id="Fill-10" fill="#000000"></path>
            <path d="M50.4526,58.6529 C53.0626,61.9399 57.6966,62.1649 58.3546,66.4969 C53.8466,67.4729 47.0016,64.0529 42.2726,58.4039 C49.0346,52.8329 57.6766,51.0539 64.9386,46.276 C66.7126,48.8809 66.2506,50.3969 64.0896,51.5389 C60.8976,53.2269 57.7016,54.9049 54.5016,56.5789 C53.2676,57.2249 52.0226,57.8499 50.4526,58.6529" id="Fill-11" fill="#000000"></path>
            <path d="M92.7622,107.8509 C89.5962,107.4089 86.6372,107.0159 83.6832,106.5779 C80.8732,106.1609 78.0702,105.6969 75.1122,105.2289 C75.3912,107.8949 80.1152,108.2839 77.5912,111.7969 C72.5712,109.6969 68.4252,106.4789 64.8802,102.6789 C65.8132,99.6859 67.6312,99.5109 69.7722,99.9029 C76.5062,101.1369 83.2572,102.2779 89.9712,103.6109 C91.4182,103.8989 93.3232,104.2819 92.7622,107.8509" id="Fill-12" fill="#000000"></path>
            <path d="M53.3496,118.3113 C50.5616,115.9843 48.6806,114.4143 46.8626,112.8953 C47.5516,110.7263 48.8536,110.5923 50.2806,111.4513 C53.6626,113.4893 57.0526,115.5353 60.2626,117.8253 C61.0646,118.3973 61.5396,119.9253 61.4856,120.9783 C61.4596,121.4683 59.8096,122.2463 58.8936,122.2503 C55.6826,122.2643 52.4696,121.9973 49.2226,121.8353 C48.4836,125.2063 55.0076,124.7763 52.7416,128.9823 C48.5916,128.7423 46.2586,125.9383 44.0626,123.1693 C42.5826,121.3023 43.4896,119.3233 45.8956,118.7023 C46.9166,118.4383 48.0346,118.5533 49.1086,118.5023 C50.1606,118.4513 51.2126,118.4073 53.3496,118.3113" id="Fill-13" fill="#000000"></path>
            <path d="M129.652,53.9329 C130.759,52.9759 131.9,51.9909 133.305,50.7769 C134.47,52.9179 135.46,54.7359 136.78,57.1629 C137.692,55.6569 138.278,54.6869 138.866,53.7159 C140.948,55.7499 141.181,57.6989 139.521,59.1969 C137.724,60.8169 135.772,59.9589 132.6,56.1559 C127.696,56.6499 124.432,54.9479 123.727,51.5279 C123.209,49.0209 124.086,47.8599 127.108,47.0529 C127.063,51.7349 127.063,51.7349 129.652,53.9329" id="Fill-14" fill="#000000"></path>
            <path d="M125.893,37.213 C130.992,35.599 132.379,40.192 135.326,41.657 C136.072,41.216 136.818,40.777 137.407,40.431 C139.353,41.443 140.218,44.787 140.011,49.4877 C136.449,49.0027 132.022,45.213 125.893,37.213" id="Fill-15" fill="#000000"></path>
            <path d="M68.167,124.5054 C69.684,128.5334 66.483,129.7124 64.91,132.0584 C66.156,132.9524 67.424,133.8614 69.615,135.4324 C64.748,136.8064 61.276,136.3754 57.39,134.2744 C60.059,129.5084 63.54,126.6254 68.167,124.5054" id="Fill-16" fill="#000000"></path>
            <path d="M24.6396,66.3951 C22.6906,66.5071 20.7416,66.6191 18.7016,66.7361 C19.0756,68.2691 19.4256,69.7061 19.9326,71.7861 C15.7756,70.3261 13.5346,67.9801 12.2826,64.5611 C16.1946,61.8801 20.8936,62.1731 24.6396,66.3951" id="Fill-17" fill="#000000"></path>
            <path d="M19.5835,52.1077 C18.7105,54.1027 18.0185,55.6837 17.2405,57.4617 C14.6285,53.5807 15.0115,51.5067 18.9335,47.5897 C22.0825,49.1467 24.9025,51.0787 26.9035,55.4707 C24.0085,54.1407 21.9805,53.2087 19.5835,52.1077" id="Fill-18" fill="#000000"></path>
        </g>
    </g>
</svg>