<?xml version="1.0" encoding="UTF-8"?>
<svg width="300px" height="300px" viewBox="0 0 300 300" version="1.1" xmlns="http://www.w3.org/2000/svg" xmlns:xlink="http://www.w3.org/1999/xlink">
    <title>hall9000</title>
    <g id="hall9000" stroke="none" stroke-width="1" fill="none" fill-rule="evenodd">
        <g id="Group-7" transform="translate(65.500000, 64.500000)">
            <path d="M85.1467,158.0523 C131.017,159.1893 157.989,120.6703 157.945054,82.8953 C157.892,36.76 116.47,8.416 84.3157,9.374 C44.7477,10.552 10.4647,43.206 10.7927,84.0203 C11.1317,126.3003 45.4787,158.4363 85.1467,158.0523 M168.63,81.3323 C166.517,113.7203 154.298,140.8933 125.715,158.8253 C95.0557,178.0603 54.0837,173.2073 28.1007,147.9363 C14.2097,134.4263 4.8967,118.3783 1.4587,99.3033 C-3.4163,72.2583 4.0207,48.618 22.3757,28.314 C23.7087,26.839 25.2367,25.542 26.5797,24.075 C39.9697,9.445 57.1487,2.753 76.3657,0.615 C101.373,-2.168 123.601,4.453 142.605,21.127 C155.714,32.629 163.718,47.125 166.809,64.238 C167.799,69.717 168.015,75.3363 168.63,81.3323" id="Fill-1" fill="#000000"></path>
            <path d="M154.815,82.6436 C154.631,80.8036 154.418,77.3826 153.929,74.0026 C151.591,57.857 144.78,43.811 132.366,33.229 C112.346,16.164 89.1737,11.519 63.9427,18.609 C23.4617,29.982 7.9177,69.328 17.1167,102.2246 C21.0807,116.4016 28.8557,128.1256 40.0757,137.6096 C54.2727,149.6106 70.7537,155.3186 89.1817,153.7636 C107.313,152.2336 122.6,144.2126 135.297,131.0216 C147.937,117.8896 154.413,102.3826 154.815,82.6436 M85.1467,158.0526 C45.4787,158.4366 11.1317,126.2996 10.7927,84.0196 C10.4647,43.207 44.7477,10.553 84.3157,9.374 C116.47,8.417 157.892,36.761 157.945054,82.8946 C157.989,120.6696 131.017,159.1886 85.1467,158.0526" id="Fill-2" fill="#FFFFFF"></path>
            <path d="M139.969,74.3155 C136.988,76.6735 134.516,78.6275 131.982,80.6315 C132.666,83.3065 133.268,85.6595 133.869,88.0135 C140.951,86.1185 142.355,84.3695 139.969,74.3155 M82.3635,78.8135 C77.9515,78.9375 74.4145,81.8515 74.4505,85.3325 C74.4925,89.3595 78.9435,93.4735 83.1165,93.3415 C86.2905,93.2405 89.5615,88.7975 89.5555082,84.5935 C89.5515,81.4635 86.1215,78.7075 82.3635,78.8135 M116.69,47.066 C120.771,54.888 124.73,62.476 128.948,70.561 C131.765,68.487 134.577,66.415 137.461,64.292 C134.259,55.594 130.789,47.692 123.545,41.992 C120.976,43.894 118.827,45.484 116.69,47.066 M154.815,82.6435 C154.414,102.3825 147.937,117.8895 135.297,131.0225 C122.601,144.2125 107.313,152.2335 89.1825,153.7635 C70.7545,155.3185 54.2725,149.6105 40.0755,137.6095 C28.8555,128.1255 21.0815,116.4015 17.1165,102.2245 C7.9175,69.327 23.4615,29.981 63.9425,18.608 C89.1745,11.518 112.346,16.163 132.366,33.228 C144.78,43.81 151.591,57.857 153.929,74.0025 C154.418,77.3825 154.631,80.8035 154.815,82.6435" id="Fill-3" fill="#FF499E"></path>
            <path d="M116.689,47.067 C118.826,45.485 120.975,43.894 123.544,41.992 C130.788,47.692 134.258,55.595 137.46,64.292 C134.577,66.416 131.764,68.487 128.948,70.562 C124.729,62.477 120.77,54.889 116.689,47.067" id="Fill-4" fill="#FFFFFF"></path>
            <path d="M82.363,78.8135 C86.121,78.7075 89.551,81.4635 89.5550082,84.5935 C89.561,88.7975 86.291,93.2405 83.116,93.3415 C78.944,93.4735 74.492,89.3595 74.45,85.3325 C74.415,81.8515 77.952,78.9375 82.363,78.8135" id="Fill-5" fill="#FFFFFF"></path>
            <path d="M139.969,74.3155 C142.355,84.3695 140.951,86.1185 133.869,88.0135 C133.268,85.6595 132.666,83.3065 131.982,80.6315 C134.516,78.6275 136.988,76.6735 139.969,74.3155" id="Fill-6" fill="#FFFFFF"></path>
        </g>
    </g>
</svg>