<?xml version="1.0" encoding="UTF-8"?>
<svg width="300px" height="300px" viewBox="0 0 300 300" version="1.1" xmlns="http://www.w3.org/2000/svg" xmlns:xlink="http://www.w3.org/1999/xlink">
    <title>iteraction</title>
    <g id="iteraction" stroke="none" stroke-width="1" fill="none" fill-rule="evenodd">
        <g id="Group-19" transform="translate(68.000000, 20.500000)">
            <path d="M157.132,50.05 C154.988,47.237 154.988,47.237 153.263,49.679 C154.388,49.787 155.359,49.88 157.132,50.05 L157.132,50.05 Z M158.263,68.267 L158.263,61.804 C156.098,61.38 154.119,60.992 152.031,60.583 L152.031,66.843 C154.12,67.321 155.853,67.716 158.263,68.267 L158.263,68.267 Z M129.724,33.387 C129.348,30.369 129.225,28.052 128.735,25.817 C128.228,23.508 127.363,21.278 126.561,18.71 C122.259,22.998 121.857,24.68 123.115,31.862 C125.078,32.315 127.118,32.785 129.724,33.387 L129.724,33.387 Z M73.3632,18.283 C73.8322,16.799 74.2592,15.623 74.5702,14.418 C74.9322,13.022 75.4312,11.598 75.4192,10.189 C75.4102,9.078 75.0512,7.498 74.2702,6.952 C71.9342,5.318 66.5282,6.949 65.2232,9.608 C64.0682,11.961 63.2502,14.48 62.2442,17.027 C66.0702,17.459 69.4522,17.841 73.3632,18.283 L73.3632,18.283 Z M131.185,50.183 C128.121,48.933 125.204,47.741 121.724,46.32 C121.299,51.58 120.934,56.086 120.555,60.772 C124.743,61.13 128.233,61.428 132.315,61.777 C131.898,57.492 131.554,53.966 131.185,50.183 L131.185,50.183 Z M131.327,79.646 C128.724,79.029 126.652,78.479 124.554,78.05 C116.093,76.319 115.464,76.759 113.975,85.278 C113.95,85.418 114.129,85.595 114.358,86.029 C119.595,86.928 125.02,87.861 130.761,88.847 C130.946,85.821 131.121,82.99 131.327,79.646 L131.327,79.646 Z M27.1862,98.83 C24.5532,93.383 20.9642,90.105 16.4092,87.706 C13.6072,86.23 11.2452,87.045 8.8872,88.656 C7.5162,89.593 6.9732,90.73 7.6582,92.325 C8.9182,95.256 10.1692,98.19 11.4972,101.293 C16.6762,100.48 21.5902,99.708 27.1862,98.83 L27.1862,98.83 Z M102.471,75.049 C96.5982,73.752 91.1542,71.725 84.9122,73.297 C84.7352,76.405 84.5652,79.38 84.3482,83.155 C90.5022,83.655 96.3042,84.126 102.471,84.627 L102.471,75.049 Z M108.386,27.314 C107.24,20.308 111.327,13.966 107.916,7.678 C103.857,7.269 100.648,8.443 99.1052,11.951 C97.4572,15.697 96.4412,19.72 95.0332,23.968 C99.4492,25.075 103.401,26.065 108.386,27.314 L108.386,27.314 Z M88.9022,57.199 C93.8292,57.634 98.5902,58.053 103.832,58.516 C104.335,53.729 104.922,49.134 105.225,44.52 C105.294,43.468 104.679,41.785 103.87,41.362 C100.297,39.488 96.6882,37.303 92.2012,38.43 C91.0872,44.767 90.0062,50.917 88.9022,57.199 L88.9022,57.199 Z M57.6012,33.708 C56.8662,40.74 56.1642,47.461 55.4482,54.316 C59.8262,55.045 63.8132,55.709 68.2142,56.443 C69.0512,49.474 69.8582,42.765 70.7412,35.408 C66.3682,34.842 62.5172,34.344 57.6012,33.708 L57.6012,33.708 Z M59.6142,188.3076 C59.1482,191.8456 58.5972,195.2096 58.3042,198.5966 C58.1662,200.1916 58.4082,201.8486 58.6822,203.4416 C59.3072,207.0806 60.1132,207.9706 63.8402,208.5226 C67.3952,209.0496 70.9902,209.4406 74.5782,209.5656 C79.6302,209.7426 84.6922,209.6316 89.7482,209.6216 C101.633,209.5966 113.519,209.6816 125.4,209.4696 C130.481,209.3796 133.339,206.1356 133.549,201.1906 C133.662,198.5076 133.87,195.8276 134.037,193.1466 C134.199,190.5286 132.282,187.7706 129.586,187.3596 C127.492,187.0396 125.251,186.9496 123.182,187.3326 C111.535,189.4896 99.8882,189.1936 88.1442,188.2256 C78.8772,187.4606 69.5432,185.4746 59.6142,188.3076 L59.6142,188.3076 Z M17.3072,120.5296 C19.9412,129.0036 22.4242,137.0566 24.9782,145.0876 C25.1722,145.6976 25.8202,146.2046 26.3402,146.6646 C30.9322,150.7166 35.8812,154.4296 40.0452,158.8796 C43.6792,162.7626 47.5812,165.1906 52.8932,165.6376 C58.2402,166.0876 63.5592,166.8836 69.5702,167.6106 L69.5702,150.1406 C66.5862,149.6986 63.3882,149.2556 60.1992,148.7456 C56.3642,148.1316 52.7302,146.7926 48.6992,148.9856 C46.3822,150.2476 43.8362,148.4516 42.3872,146.0666 C41.2082,144.1276 40.5402,142.0226 42.0082,139.9746 C44.0032,137.1906 50.9872,137.0156 52.5402,140.1136 C53.8892,142.8046 55.7522,143.0826 58.0742,143.3816 C60.5802,143.7046 63.0732,144.1256 65.5752,144.4836 C74.8822,145.8156 74.8832,145.8126 74.8832,155.1156 C74.8822,159.1996 74.8822,163.2826 74.8822,167.5836 C77.1502,167.7916 79.0652,167.9676 81.0682,168.1516 C82.0592,164.2226 83.2312,160.7396 80.9812,156.9806 C79.6672,154.7866 80.9162,151.9316 82.9022,150.9766 C85.2232,149.8606 88.6892,150.7196 89.3982,153.0386 C89.8692,154.5806 89.8502,156.9196 88.9722,158.1036 C86.5952,161.3126 86.6802,164.7416 86.8322,168.7036 C93.7272,170.6716 100.641,170.1526 107.715,169.7446 C107.93,168.3976 108.157,167.5366 108.191,166.6686 C108.589,156.3516 110.216,146.2346 112.679,136.2076 C113.673,132.1616 115.68,129.3156 119.461,127.7186 C122.615,126.3856 125.808,125.1446 128.969,123.8286 C133.398,121.9836 134.695,118.8266 132.836,114.574 C132.477,113.751 132.087,112.903 131.946,112.029 C131.453,108.95 133.835,105.824 136.894,105.415 C139.736,105.034 142.75,106.976 142.614,109.803 C142.512,111.94 141.19,114.073 140.171,116.087 C139.723,116.973 138.154,117.457 137.991,118.298 C136.543,125.7386 131.487,129.6226 124.895,132.1396 C124.065,132.4566 123.204,132.9286 122.6,133.5606 C120.762,135.4806 118.283,137.2286 117.411,139.5526 C113.81,149.1516 113.659,159.2506 113.719,169.8976 C120.555,170.4276 126.93,169.6686 133.293,168.6956 C135.816,168.3096 136.816,166.5186 137.364,164.2476 C139.188,156.7116 141.124,149.2036 142.891,141.6546 C143.639,138.4616 142.707,134.5766 147.081,133.0886 C147.613,132.9076 147.758,131.5176 148.038,130.6736 C152.488,117.244 154.506,103.33 156.198,89.358 C156.448,87.292 156.234,85.169 156.234,83.054 C153.701,82.345 151.86,81.828 150.099,81.335 C147.773,86.259 145.656,90.74 143.569,95.157 C143.811,96.227 144.072,97.387 144.534,99.438 C141.88,99.048 139.815,98.927 137.845,98.425 C126.483,95.532 115.184,92.372 103.772,89.693 C99.7842,88.758 95.5252,88.561 91.4082,88.686 C84.0172,88.911 76.6352,89.569 69.2602,90.177 C65.7212,90.47 62.2072,91.062 58.3402,91.563 C58.7392,84.782 65.1612,87.137 68.0292,84.33 C67.6702,80.655 67.3072,76.943 66.8842,72.619 C62.6192,72.934 58.5212,73.068 54.4852,73.643 C53.3412,73.805 51.9282,75.044 51.4142,76.149 C49.1872,80.942 48.6282,86.14 51.0662,90.836 C53.5542,95.631 53.9732,100.798 55.1952,105.826 C56.0792,109.464 56.7492,113.154 57.5412,116.953 C66.4442,115.771 75.0152,114.438 83.2952,118.138 C75.3652,120.3176 66.9042,118.221 58.5572,121.5636 C64.6022,123.6956 70.0072,125.5366 75.3632,127.5096 C82.1582,130.0126 87.7342,134.3716 92.1752,139.9326 C94.4972,142.8406 97.5612,145.9356 96.0572,150.9576 C94.9862,150.1326 93.9752,149.6636 93.4162,148.8736 C86.3822,138.9156 76.2062,134.3706 64.7052,132.1196 C59.0382,131.0096 53.3792,129.7296 47.6532,129.1126 C44.0652,128.7266 42.1042,127.0126 40.8212,124.0056 C39.9992,122.0756 39.2632,120.1086 38.5372,118.281 C31.1502,119.0626 24.3802,119.7796 17.3072,120.5296 L17.3072,120.5296 Z M71.9662,25.15 C71.6952,26.235 71.4862,27.078 71.3192,27.741 C71.6342,28.267 71.7502,28.751 72.0002,28.835 C76.9152,30.495 78.5862,33.941 77.7942,38.914 C76.6072,46.367 75.5152,53.834 74.3982,61.193 C72.1782,61.959 70.5062,62.536 68.4352,63.25 C68.0762,64.587 67.6292,66.253 67.0542,68.392 C72.2632,68.938 72.8572,72.502 72.7682,76.63 C72.7352,78.151 73.2272,79.684 73.5262,81.496 C75.9722,81.211 77.8982,80.986 80.0592,80.733 C80.4162,78.798 80.8702,77.062 81.0392,75.298 C81.6232,69.215 81.5852,69.211 87.2812,67.975 L87.2812,62.299 C85.8892,62.067 84.3782,61.815 82.3592,61.479 C83.6192,55.164 84.8402,49.039 86.0652,42.914 C86.2412,42.029 86.4402,41.149 86.6142,40.265 C87.5802,35.368 87.5782,35.368 92.0672,33.117 C92.0472,31.309 92.8612,29.453 90.7832,27.797 C90.0162,27.185 89.9342,25.111 90.2322,23.869 C91.5342,18.431 92.9792,13.019 94.5932,7.665 C95.7932,3.681 99.4752,1.458 104.231,1.079 C108.434,0.744 110.425,3.34 112.142,6.489 C114.549,10.906 113.613,15.705 113.515,20.34 C113.432,24.271 112.634,28.186 112.133,32.275 C110.639,32.843 108.996,33.467 107.486,34.042 C107.423,34.694 107.23,35.256 107.378,35.368 C111.187,38.254 111.157,42.006 110.469,46.31 C109.616,51.637 109.454,57.074 108.966,62.786 C107.683,63.261 106.22,63.802 104.543,64.422 C104.316,65.934 104.077,67.509 103.84,69.083 C105.31,71.33 108.73,71.951 108.571,75.322 C108.453,77.835 108.548,80.359 108.956,83.017 C109.254,81.688 109.531,80.355 109.856,79.033 C110.236,77.475 110.658,75.927 111.044,74.444 C113.451,73.804 115.682,73.211 118.116,72.564 L118.116,65.595 C117.109,65.094 115.706,64.398 114.319,63.709 C114.811,56.43 115.293,49.264 115.793,41.856 C117.438,41.447 118.929,41.077 120.342,40.727 C120.877,38.29 120.4,36.32 118.182,35.06 C116.337,34.012 115.972,32.334 116.176,30.42 C116.502,27.37 116.513,24.231 117.307,21.306 C117.892,19.148 119.172,16.939 120.738,15.333 C124.849,11.117 128.714,11.807 131.55,17.023 C135.36,24.028 135.869,31.767 136.71,39.444 C134.589,40.645 131.444,40.412 131.959,43.87 C133.813,45.506 136.502,46.819 137.294,48.866 C138.104,50.961 136.944,53.77 136.847,56.275 C136.729,59.335 136.819,62.403 136.819,65.644 C135.225,66.423 133.815,67.112 132.476,67.766 C132.324,69.883 132.186,71.838 132.03,74.005 C141.431,76.79 136.375,84.203 137.013,90.057 C139.64,91.205 141.549,90.41 142.638,87.887 C143.347,86.244 143.93,84.466 144.119,82.699 C144.472,79.413 146.017,77.345 149.181,76.808 C149.022,74.806 148.882,73.046 148.698,70.737 C143.243,67.886 145.626,62.044 144.37,57.072 C146.093,56.328 147.546,55.7 149.73,54.758 C148.533,53.233 147.462,51.866 145.886,49.856 C146.39,47.023 147.926,43.953 151.32,42.05 C153.801,40.661 156.161,40.835 158.265,42.865 C161.421,45.91 162.883,49.685 163.039,54.016 C162.145,54.642 161.14,55.171 160.44,55.967 C160.279,56.15 161,57.526 161.597,57.882 C163.645,59.105 163.94,60.781 163.65,62.972 C163.391,64.929 163.646,66.949 163.537,68.934 C163.493,69.741 163.26,71.094 162.819,71.228 C160.725,71.863 161.422,73.258 161.475,74.656 C161.679,80.144 163.496,85.478 162.738,91.073 C160.9,104.667 159.088,118.226 154.074,131.1616 C149.652,142.5746 145.415,154.0736 141.588,165.6956 C139.801,171.1236 136.832,173.9226 131.128,173.7466 C130.608,173.7306 130.081,173.9346 129.195,174.1066 C129.366,176.8616 129.537,179.5996 129.728,182.6436 C130.508,182.7886 131.355,182.9666 132.209,183.1016 C138.323,184.0626 138.5,184.0326 139.468,190.2586 C140.271,195.4176 140.807,200.6416 141.074,205.8566 C141.365,211.5566 138.71,214.5636 133.217,215.4886 C133.039,215.5186 132.86,215.5596 132.681,215.5636 C110.346,216.1146 88.1142,220.3646 65.6662,217.1576 C57.0142,215.9226 51.5082,210.7626 50.6722,202.1056 C50.2902,198.1566 49.8812,194.2056 49.6942,190.2456 C49.3952,183.9486 51.0102,181.4836 57.2342,178.8976 C56.8962,177.0306 56.5322,175.0226 56.1502,172.9086 C47.4192,171.7146 40.0172,168.3536 33.8512,162.3616 C31.9142,160.4786 29.7782,158.7736 27.5942,157.1786 C23.2872,154.0366 21.0382,149.9656 19.8812,144.6626 C18.3902,137.8266 15.7912,131.2306 13.6372,124.5416 C13.2502,123.3426 12.6552,122.2106 12.2502,121.0166 C11.0912,117.606 11.4942,116.393 14.6822,113.622 C13.8982,111.541 13.6602,109.063 10.4062,109.041 C9.7782,109.037 8.9242,108.088 8.5712,107.377 C5.6852,101.566 2.7902,95.754 0.1722,89.821 C-0.2728,88.81 0.2052,86.946 0.9172,85.945 C4.4922,80.917 10.9472,78.935 16.8172,80.977 C22.9892,83.123 27.8822,87.007 31.4542,92.477 C32.7352,94.437 33.7912,96.543 34.9532,98.581 C38.0452,104.001 37.8812,104.501 32.0142,106.691 C32.5962,108.129 33.1762,109.564 33.8482,111.224 C41.1372,110.668 43.0772,116.903 46.3362,121.4316 L52.9012,121.4316 C50.7062,113.341 48.5332,105.599 46.5482,97.81 C46.0872,96 46.1942,94.029 46.1662,92.131 C46.1332,89.783 46.3802,87.425 46.2422,85.087 C46.0012,80.985 45.5592,76.894 45.1642,72.381 C50.4692,71.652 51.2632,68.281 50.7702,64.182 C50.6882,63.505 50.6512,62.365 50.3102,62.246 C46.9172,61.055 47.9152,58.218 47.7592,55.824 C47.1062,45.829 51.0592,36.791 53.3192,27.326 C55.1532,26.928 56.6872,26.595 58.3762,26.228 C58.5102,25.267 58.6312,24.398 58.7922,23.244 C57.4072,22.954 56.0702,22.674 54.3282,22.309 C56.2162,17.155 57.8192,12.191 59.8452,7.407 C62.0952,2.093 68.6352,-0.963 74.2812,0.275 C78.7602,1.256 81.2802,3.779 81.2102,8.641 C81.1392,13.627 80.3632,18.637 79.4312,23.548 C79.2362,24.574 77.0962,25.54 75.6862,25.922 C74.6572,26.201 73.3572,25.477 71.9662,25.15 L71.9662,25.15 Z" id="Fill-1" fill="#000000"></path>
            <path d="M125.946,105.397 C121.594,102.271 117.498,101.312 113.302,100.43 C104.494,98.578 95.8097,97.934 87.3877,102.02 C85.5357,102.919 83.2557,103.352 82.8957,106.178 C90.0497,105.526 96.9797,104.505 103.927,104.369 C110.886,104.232 117.861,104.98 125.946,105.397 M17.3067,120.529 C24.3807,119.78 31.1497,119.063 38.5377,118.28 C39.2627,120.108 39.9997,122.075 40.8217,124.005 C42.1037,127.012 44.0647,128.727 47.6527,129.113 C53.3797,129.729 59.0387,131.01 64.7057,132.119 C76.2067,134.371 86.3827,138.916 93.4167,148.873 C93.9747,149.663 94.9867,150.133 96.0567,150.958 C97.5607,145.935 94.4977,142.841 92.1747,139.932 C87.7337,134.371 82.1587,130.013 75.3637,127.51 C70.0077,125.537 64.6017,123.696 58.5567,121.564 C66.9047,118.221 75.3657,120.317 83.2957,118.137 C75.0147,114.438 66.4437,115.771 57.5417,116.952 C56.7497,113.154 56.0797,109.463 55.1957,105.825 C53.9727,100.797 53.5537,95.631 51.0657,90.835 C48.6287,86.139 49.1867,80.942 51.4147,76.149 C51.9277,75.043 53.3417,73.805 54.4847,73.642 C58.5207,73.068 62.6197,72.934 66.8837,72.619 C67.3067,76.943 67.6707,80.655 68.0297,84.329 C65.1617,87.137 58.7397,84.782 58.3407,91.562 C62.2077,91.062 65.7207,90.469 69.2597,90.177 C76.6347,89.569 84.0167,88.911 91.4087,88.686 C95.5247,88.561 99.7847,88.757 103.772,89.693 C115.184,92.371 126.483,95.532 137.845,98.425 C139.815,98.926 141.881,99.048 144.535,99.438 C144.073,97.387 143.811,96.226 143.57,95.157 C145.657,90.74 147.773,86.259 150.099,81.335 C151.86,81.828 153.702,82.344 156.234,83.054 C156.234,85.168 156.449,87.292 156.199,89.358 C154.507,103.329 152.489,117.244 148.039,130.673 C147.758,131.518 147.614,132.908 147.082,133.089 C142.708,134.576 143.639,138.461 142.891,141.655 C141.125,149.203 139.188,156.712 137.365,164.248 C136.816,166.518 135.816,168.31 133.294,168.696 C126.93,169.668 120.555,170.428 113.719,169.897 C113.66,159.251 113.81,149.152 117.412,139.553 C118.284,137.229 120.762,135.48 122.6,133.56 C123.205,132.929 124.065,132.457 124.895,132.14 C131.488,129.623 136.544,125.738 137.992,118.297 C138.155,117.457 139.723,116.973 140.172,116.086 C141.19,114.073 142.512,111.94 142.615,109.803 C142.751,106.976 139.736,105.034 136.894,105.414 C133.836,105.824 131.454,108.949 131.947,112.028 C132.088,112.902 132.477,113.75 132.837,114.574 C134.695,118.826 133.398,121.983 128.969,123.828 C125.808,125.145 122.616,126.386 119.462,127.719 C115.68,129.316 113.674,132.162 112.679,136.208 C110.217,146.235 108.59,156.351 108.191,166.668 C108.158,167.537 107.93,168.397 107.716,169.744 C100.641,170.152 93.7267,170.671 86.8327,168.704 C86.6797,164.741 86.5947,161.313 88.9717,158.104 C89.8497,156.92 89.8697,154.581 89.3977,153.038 C88.6887,150.72 85.2227,149.86 82.9017,150.976 C80.9167,151.932 79.6677,154.786 80.9807,156.981 C83.2307,160.74 82.0587,164.223 81.0677,168.152 C79.0647,167.968 77.1497,167.792 74.8827,167.583 L74.8827,155.116 C74.8827,145.812 74.8827,145.815 65.5757,144.483 C63.0737,144.126 60.5807,143.704 58.0747,143.381 C55.7527,143.082 53.8887,142.805 52.5407,140.114 C50.9877,137.016 44.0037,137.191 42.0077,139.975 C40.5407,142.023 41.2087,144.127 42.3867,146.066 C43.8367,148.451 46.3827,150.247 48.6997,148.986 C52.7297,146.793 56.3647,148.131 60.1997,148.745 C63.3877,149.255 66.5867,149.699 69.5707,150.141 L69.5707,167.611 C63.5587,166.884 58.2407,166.088 52.8927,165.638 C47.5817,165.191 43.6787,162.763 40.0457,158.879 C35.8817,154.429 30.9317,150.716 26.3407,146.664 C25.8197,146.205 25.1727,145.698 24.9777,145.087 C22.4247,137.057 19.9407,129.003 17.3067,120.529" id="Fill-2" fill="#FFFFFF"></path>
            <path d="M59.6146,188.3079 C69.5436,185.4749 78.8776,187.4609 88.1436,188.2249 C99.8876,189.1939 111.536,189.4889 123.182,187.3329 C125.252,186.9499 127.493,187.0399 129.587,187.3589 C132.283,187.7699 134.2,190.5279 134.038,193.1459 C133.871,195.8279 133.663,198.5069 133.55,201.1909 C133.34,206.1359 130.481,209.3789 125.4,209.4699 C113.519,209.6809 101.634,209.5969 89.7486,209.6209 C84.6916,209.6319 79.6306,209.7429 74.5786,209.5659 C70.9906,209.4409 67.3946,209.0499 63.8406,208.5229 C60.1136,207.9709 59.3066,207.0809 58.6816,203.4419 C58.4086,201.8479 58.1666,200.1909 58.3036,198.5969 C58.5966,195.2099 59.1476,191.8449 59.6146,188.3079" id="Fill-3" fill="#FFFFFF"></path>
            <path d="M57.601,33.707 C62.517,34.343 66.369,34.842 70.742,35.407 C69.858,42.764 69.051,49.473 68.214,56.442 C63.813,55.709 59.827,55.045 55.449,54.315 C56.164,47.46 56.867,40.74 57.601,33.707" id="Fill-4" fill="#FFFFFF"></path>
            <path d="M88.9017,57.199 C90.0057,50.917 91.0877,44.767 92.2017,38.43 C96.6877,37.303 100.298,39.488 103.871,41.362 C104.679,41.785 105.295,43.468 105.225,44.52 C104.923,49.134 104.336,53.729 103.833,58.515 C98.5897,58.053 93.8297,57.634 88.9017,57.199" id="Fill-5" fill="#FFFFFF"></path>
            <path d="M108.386,27.314 C103.401,26.065 99.4491,25.075 95.0331,23.968 C96.4411,19.72 97.4571,15.697 99.1051,11.95 C100.648,8.442 103.857,7.269 107.916,7.678 C111.327,13.966 107.24,20.308 108.386,27.314" id="Fill-6" fill="#FFFFFF"></path>
            <path d="M102.471,75.049 L102.471,84.627 C96.3041,84.126 90.5021,83.655 84.3481,83.155 C84.5651,79.38 84.7351,76.405 84.9121,73.297 C91.1551,71.725 96.5981,73.752 102.471,75.049" id="Fill-7" fill="#FFFFFF"></path>
            <path d="M27.1859,98.829 C21.5899,99.708 16.6759,100.479 11.4979,101.293 C10.1689,98.189 8.9179,95.255 7.6589,92.325 C6.9729,90.729 7.5159,89.592 8.8869,88.655 C11.2459,87.045 13.6069,86.23 16.4099,87.705 C20.9639,90.104 24.5529,93.382 27.1859,98.829" id="Fill-8" fill="#FFFFFF"></path>
            <path d="M131.327,79.645 C131.121,82.989 130.946,85.82 130.761,88.846 C125.019,87.86 119.595,86.927 114.357,86.028 C114.129,85.594 113.95,85.417 113.974,85.277 C115.464,76.758 116.093,76.318 124.554,78.049 C126.651,78.478 128.723,79.028 131.327,79.645" id="Fill-9" fill="#FFFFFF"></path>
            <path d="M131.185,50.183 C131.554,53.965 131.898,57.492 132.315,61.777 C128.233,61.428 124.744,61.13 120.555,60.771 C120.934,56.085 121.299,51.58 121.724,46.32 C125.205,47.741 128.122,48.932 131.185,50.183" id="Fill-10" fill="#FFFFFF"></path>
            <path d="M73.3637,18.283 C69.4527,17.841 66.0707,17.459 62.2447,17.027 C63.2507,14.48 64.0677,11.961 65.2227,9.608 C66.5287,6.949 71.9337,5.318 74.2697,6.952 C75.0507,7.498 75.4107,9.077 75.4197,10.189 C75.4307,11.597 74.9317,13.022 74.5707,14.418 C74.2597,15.623 73.8327,16.799 73.3637,18.283" id="Fill-11" fill="#FFFFFF"></path>
            <path d="M129.724,33.386 C127.119,32.785 125.078,32.314 123.116,31.861 C121.857,24.679 122.259,22.998 126.561,18.709 C127.364,21.278 128.228,23.507 128.735,25.816 C129.225,28.052 129.348,30.369 129.724,33.386" id="Fill-12" fill="#FFFFFF"></path>
            <path d="M158.263,68.266 C155.853,67.716 154.12,67.32 152.032,66.843 L152.032,60.583 C154.119,60.992 156.098,61.379 158.263,61.803 L158.263,68.266 Z" id="Fill-13" fill="#FFFFFF"></path>
            <path d="M157.132,50.05 C155.359,49.88 154.388,49.787 153.263,49.679 C154.988,47.237 154.988,47.237 157.132,50.05" id="Fill-14" fill="#FFFFFF"></path>
            <path d="M125.946,105.397 C117.861,104.98 110.886,104.232 103.927,104.369 C96.9797,104.505 90.0497,105.526 82.8957,106.178 C83.2557,103.352 85.5357,102.919 87.3877,102.02 C95.8097,97.934 104.494,98.578 113.302,100.43 C117.498,101.312 121.594,102.271 125.946,105.397" id="Fill-15" fill="#000000"></path>
            <path d="M136.911,105.418 C133.852,105.827 131.47,108.953 131.964,112.032 C132.103,112.906 132.493,113.754 132.853,114.577 C134.711,118.8297 133.415,121.9867 128.985,123.8317 C125.825,125.1477 122.633,126.3897 119.478,127.7217 C115.697,129.3197 113.69,132.1657 112.696,136.2117 C110.233,146.2377 108.606,156.3547 108.208,166.6717 C108.181,167.3927 108.017,168.1247 107.841,169.1167 L113.733,169.2677 C113.684,158.8547 113.898,148.9647 117.429,139.5567 C118.301,137.2317 120.779,135.4837 122.616,133.5637 C123.221,132.9327 124.081,132.4597 124.911,132.1437 C131.505,129.6257 136.56,125.7417 138.008,118.301 C138.172,117.46 139.739,116.977 140.187,116.09 C141.206,114.076 142.529,111.943 142.632,109.807 C142.766,106.98 139.753,105.038 136.911,105.418" id="Fill-16" fill="#FF499E"></path>
            <path d="M86.8256,168.072 C86.6956,164.376 86.7406,161.143 88.9896,158.108 C89.8676,156.924 89.8866,154.584 89.4146,153.042 C88.7056,150.723 85.2406,149.864 82.9196,150.98 C80.9326,151.935 79.6836,154.79 80.9986,156.985 C83.1296,160.545 82.1906,163.858 81.2436,167.537 L86.8256,168.072 Z" id="Fill-17" fill="#FF499E"></path>
            <path d="M48.7172,148.9895 C52.7462,146.7955 56.3812,148.1345 60.2172,148.7485 C63.4052,149.2585 66.6042,149.7025 69.5882,150.1445 L69.5882,166.9805 L74.9002201,166.9535 L74.9002201,155.1195 C74.9012,145.8155 74.9002201,145.8195 65.5932,144.4875 C63.0912,144.1285 60.5982,143.7075 58.0912,143.3845 C55.7702,143.0855 53.9062,142.8085 52.5582,140.1175 C51.0052,137.0195 44.0202,137.1945 42.0252,139.9785 C40.5572,142.0265 41.2252,144.1315 42.4042,146.0705 C43.8542,148.4545 46.4002,150.2505 48.7172,148.9895" id="Fill-18" fill="#FF499E"></path>
        </g>
    </g>
</svg>