<?xml version="1.0" encoding="UTF-8"?>
<svg width="400px" height="450px" viewBox="0 0 400 450" version="1.1" xmlns="http://www.w3.org/2000/svg" xmlns:xlink="http://www.w3.org/1999/xlink">
    <title>mars-attack</title>
    <g id="mars-attack" stroke="none" stroke-width="1" fill="none" fill-rule="evenodd">
        <g id="Group-29" transform="translate(35.500000, 5.000000)">
            <path d="M180.114,386.189 C175.351,387.789 171.15,389.201 166.95,390.612 C167.071,391.228 167.192,391.845 167.313,392.461 C171.789,392.299 176.265,392.138 181.308,391.956 C180.898,389.975 180.583,388.451 180.114,386.189 M73.9686,261.918 C78.5986,261.971 82.9286,262.021 87.1516,262.069 C87.9876,259.167 86.6306,257.724 84.5106,257.338 C81.2086,256.738 77.8256,256.583 74.0346,256.193 C74.0086,258.489 73.9906,260.066 73.9686,261.918 M95.7976,286.642 C86.5316,285.292 80.6076,285.657 75.8216,287.701 C79.7286,290.68 82.6696,291.314 89.9726,292.011 C94.1016,292.405 95.0556,290.298 95.7976,286.642 M243.448,296.271 C243.324,296.906 243.2,297.54 243.076,298.174 C243.876,299.051 244.613,300.613 245.486,300.694 C250.656,301.172 255.889,301.75 261.037,301.383 C263.873,301.181 265.416,298.558 264.552,294.662 C257.422,295.206 250.435,295.738 243.448,296.271 M74.7996,278.772 C81.5776,278.598 87.5606,279.472 93.8506,277.416 C92.8476,274.112 92.0106,271.357 91.2586,268.88 C85.2986,268.812 79.9986,268.751 73.9136,268.682 C74.2136,272.095 74.4616,274.928 74.7996,278.772 M241.016,291.144 C249.301,290.114 257.538,289.09 266.271,288.004 C266.345,281.55 266.417,275.33 266.491,268.797 C260.957,268.438 256.093,268.122 251.131,267.798 C249.838,270.656 248.787,272.976 247.577,275.65 C262.977,274.325 262.977,274.325 265.479,277.922 C263.723,280.945 261.159,282.181 257.592,282.401 C253.674,282.643 249.806,283.692 245.914,284.376 C242.508,284.973 240.717,286.866 241.016,291.144 M66.5546,403.663 C66.8356,409.539 67.2436,409.936 73.8386,409.668 C101.827,408.528 129.812,407.328 157.8,406.155 C160.971,406.022 164.145,405.918 167.283,405.803 C168.463,408.361 169.373,410.335 170.341,412.43 C173.926,412.471 177.308,412.51 180.538,412.547 C181.352,410.059 181.447,407.167 182.818,406.306 C184.205,405.435 186.851,406.601 188.952,406.824 C189.686,406.901 190.437,406.813 191.18,406.823 C211.552,407.069 231.925,407.351 252.298,407.543 C257.505,407.591 262.716,407.353 267.925,407.247 C267.964,406.578 268.003,405.909 268.041,405.24 C265.53,404.981 263.023,404.541 260.509,404.491 C234.706,403.987 208.902,403.541 183.098,403.09 C170.715,402.875 158.33,402.55 145.945,402.516 C130.306,402.473 114.668,402.589 99.0306,402.799 C88.2046,402.945 77.3836,403.365 66.5546,403.663 M166.218,359.126 C165.998,361.812 166.068,364.32 165.499,366.671 C165.142,368.143 163.825,369.382 162.938,370.725 C161.561,369.55 159.618,368.634 158.936,367.142 C157.836,364.735 157.566,361.948 156.888,359.076 C155.402,359.059 153.988,359.043 152.615,359.027 C151.624,362.63 150.699,365.996 149.598,369.995 C145.725,365.795 145.725,365.795 145.127,357.888 C136.657,356.516 135.652,350.255 136.206,342.883 C136.552,338.275 136.367,333.626 136.427,328.308 C132.943,328.925 130.354,329.384 127.476,329.894 C127.216,333.376 127.035,336.333 126.766,339.281 C126.069,346.958 125.1,354.618 124.676,362.308 C124.22,370.584 127.577,374.108 135.883,374.884 C136.872,374.977 137.874,374.947 138.863,375.042 C159.339,377.012 179.527,374.371 199.657,371.123 C209.816,369.484 210.051,369.347 211.359,359.257 C212.338,351.712 213.259,344.06 212.01,337.309 C207.197,335.243 203.323,333.58 199.029,331.735 C197.01,335.665 198.005,339.898 197.686,343.971 C197.382,347.879 196.898,351.812 196.024,355.627 C195.284,358.864 193.098,360.623 189.418,360.161 C187.067,359.867 184.656,360.056 182.871,360.037 C180.437,363.589 181.983,368.202 176.549,369.625 C174.865,366.264 173.147,362.836 171.317,359.184 C169.897,359.168 168.238,359.149 166.218,359.126 M163.978,411.104 C131.387,412.779 99.7506,414.404 67.7056,416.05 C67.8826,417.748 67.9446,419.187 68.1926,420.594 C69.6526,428.908 70.7846,429.667 79.4256,429.509 C98.2696,429.168 117.115,428.906 135.961,428.724 C152.083,428.568 168.207,428.613 184.33,428.487 C202.438,428.346 220.546,428.036 238.654,427.951 C249.007,427.903 259.36,428.158 269.881,428.278 C271.075,422.821 272.11,418.343 268.704,413.378 C242.075,413.074 215.308,412.768 188.51,412.462 C187.257,414.485 185.982,416.543 184.797,418.458 C181.404,418.625 178.43,418.777 175.457,418.917 C169.805,419.181 164.874,418.296 163.978,411.104 M170.668,226.377 C168.925,224.215 167.797,222.967 166.836,221.602 C155.164,205.013 148.401,203.856 132.832,212.962 C127.027,216.358 121.538,217.916 115.224,216.625 C111.492,215.862 107.896,214.43 104.272,213.31 C101.547,214.282 102.244,219.272 97.9956,218.648 C95.6296,214.221 99.2976,211.793 100.995,208.675 C102.599,205.727 99.8086,201.179 103.589,199.244 C105.498,202.127 106.684,205.319 108.973,207.079 C113.359,210.45 118.864,209.936 123.986,209.075 C125.316,208.851 127.409,206.214 127.213,204.999 C126.056,197.818 128.1,191.387 131.873,184.52 C123.211,182.083 115.641,178.846 108.426,186.396 C107.313,187.561 104.185,187.603 102.308,187.059 C98.9886,186.098 97.1426,183.412 96.8816,178.983 C98.8576,178.189 101.054,176.528 103.209,176.581 C110.367,176.757 112.688,175.316 114.015,168.939 C114.925,164.566 115.85,160.179 117.125,155.904 C118.506,151.271 119.064,151.171 125.671,153.124 C124.51,156.338 123.303,159.483 122.242,162.676 C121.166,165.917 120.233,169.205 119.107,172.899 C121.758,173.595 123.922,174 125.967,174.736 C129.673,176.069 133.485,177.271 136.928,179.129 C141.226,181.451 141.619,183.217 139.414,187.634 C138.2,190.065 136.549,192.284 135.035,194.557 C133.344,197.097 132.37,199.66 133.525,201.75 C140,200.654 145.751,199.249 151.576,198.808 C158.23,198.304 161.834,204.645 167.484,207.654 C167.565,200.552 167.638,194.205 167.718,187.132 C163.421,187.348 159.762,187.407 156.13,187.742 C149.148,188.385 148.031,187.574 146.286,179.848 C149.148,177.179 152.544,177.667 156.022,178.311 C159.595,178.974 163.196,179.49 167.032,180.11 C167.83,166.104 168.234,152.921 169.485,139.818 C170.041,133.988 167.977,130.094 163.557,127.274 C160.686,125.442 157.365,123.814 154.052,123.263 C136.607,120.364 120.418,124.095 107.942,136.674 C98.0976,146.6 91.6736,159.401 88.5316,173.127 C86.5546,181.758 85.5456,190.943 86.1106,199.751 C87.0796,214.826 89.1726,229.876 91.6636,244.791 C93.3236,254.73 96.3526,264.457 99.0596,274.198 C100.101,277.944 102.173,281.393 103.38,285.106 C105.906,292.88 107.667,300.942 110.695,308.504 C113.323,315.065 118.353,319.209 126.179,319.298 C131.331,319.358 136.469,320.418 141.131,320.973 C147.507,329.746 144.435,339.293 145.427,348.628 C147.367,349.276 149.31,349.924 151.378,350.615 C151.976,343.141 152.38,336.228 153.225,329.37 C153.371,328.188 155.399,327.24 156.558,326.183 C157.306,327.335 158.483,328.408 158.708,329.654 C159.1,331.825 158.959,334.103 158.947,336.335 C158.922,341.512 158.84,346.689 158.777,352.162 C161.615,352.535 163.71,352.811 166.254,353.145 C166.323,347.145 166.265,341.727 166.504,336.322 C166.601,334.126 167.066,331.846 167.899,329.827 C168.358,328.715 169.927,327.412 171.002,327.408 C171.888,327.405 173.138,329.046 173.579,330.206 C174.085,331.538 173.894,333.139 173.977,334.626 C174.329,340.98 174.67,347.335 175.02,353.797 C176.587,353.815 177.762,353.829 179.534,353.849 C179.585,349.426 179.468,345.231 179.728,341.059 C179.971,337.139 179.045,332.68 184.793,329.023 C186.309,337.8 183.224,346.085 186.23,353.629 C191.254,352.778 191.387,352.793 191.861,348.598 C192.503,342.919 192.665,337.178 193.494,331.532 C194.375,325.523 195.357,324.889 201.185,324.787 C207.885,324.668 214.586,324.485 221.285,324.535 C224.512,324.558 226.918,323.386 227.155,320.176 C227.815,311.251 233.127,302.582 227.645,292.467 C233.641,292.321 234.028,288.247 235.071,284.386 C235.907,281.294 237.473,278.405 238.645,275.399 C243.428,263.132 248.218,250.869 252.912,238.569 C253.58,236.82 253.741,234.878 253.939,233.95 C250.182,228.394 240.323,231.356 240.736,222.192 C246.181,219.042 251.122,223.358 256.679,222.454 C256.754,215.968 256.826,209.653 256.897,203.389 C244.964,201.948 243.684,201.036 243.786,194.071 C248.296,192.755 253.719,196.729 257.914,191.954 C257.741,183.171 257.183,174.383 254.435,166.084 C247.669,165.292 241.981,169.646 234.959,167.62 C237.02,159.087 247.042,160.944 250.357,154.973 C248.731,145.758 244.09,139.318 235.048,133.648 C232.94,135.87 230.849,138.074 228.862,140.168 C223.215,136.585 226.741,132.646 227.076,129.331 C217.004,123.248 206.534,122.104 195.179,123.632 C195.38,127.075 195.586,129.776 195.682,132.481 C195.842,136.933 195.809,141.396 196.088,145.84 C196.283,148.957 195.334,150.988 191.952,151.954 C186.051,144.206 191.321,134.718 187.119,125.849 C183.928,128.878 180.98,131.413 178.384,134.267 C177.218,135.547 176.191,137.43 176.073,139.108 C175.282,150.272 174.736,161.454 174.155,172.631 C174.031,175.019 174.087,177.415 174.052,180.479 C176.982,179.794 178.843,179.226 180.749,178.94 C185.898,178.167 191.056,177.444 196.228,176.843 C198.374,176.594 200.49,177.237 200.388,179.826 C200.301,182.072 199.393,184.308 196.527,184.462 C194.795,184.555 193.038,184.268 191.311,184.402 C185.685,184.839 179.937,184.899 175.446,188.13 C175.349,196.565 175.26,204.454 175.159,213.258 C179.949,211.186 184.02,209.511 188.016,207.674 C192.908,205.425 197.035,205.986 200.743,210.177 C203,212.729 205.755,214.84 208.777,217.598 C216.619,212.614 224.065,207.881 231.59,203.099 C235.463,206.742 235.465,210.074 230.689,213.306 C226.381,216.223 221.66,218.532 217.123,221.114 C208.033,226.288 205.968,226.029 198.445,218.694 C197.378,217.654 196.552,216.284 195.335,215.502 C194.193,214.772 192.399,213.918 191.376,214.327 C184.202,217.195 175.532,217.397 170.668,226.377 M218.087,335.986 C217.708,339.583 217.187,342.962 217.031,346.36 C216.758,352.316 216.894,358.295 216.509,364.242 C216.141,369.894 213.718,374.139 207.668,375.683 C202.176,377.085 196.78,378.863 190.746,380.651 C191.335,384.43 191.892,388.008 192.54,392.16 C217.71,392.448 242.614,392.732 267.796,393.02 C270.385,374.475 274.34,356.822 280.373,339.703 C291.207,308.959 299.395,277.509 306.988,245.823 C314.567,214.193 318.212,182.287 318.151,149.853 C318.132,139.43 318.837,128.974 318.205,118.594 C317.466,106.467 316.569,94.103 310.266,83.252 C304.531,73.377 298.346,63.747 292.008,54.244 C282.167,39.496 267.621,31.069 251.297,25.535 C228.583,17.834 204.949,14.664 181.183,12.684 C169.558,11.715 157.842,11.598 146.165,11.5846354 C134.241,11.57 122.287,12.004 110.728,15.474 C87.3646,22.487 67.0926,34.854 50.1946,52.284 C38.5886,64.254 28.3456,77.321 22.4266,93.403 C9.3616,128.905 6.7296,165.24 14.9826,201.904 C22.4566,235.11 31.5336,267.965 40.3396,300.859 C48.4336,331.098 58.5046,360.817 64.0316,391.727 C64.1046,392.137 64.5826,392.475 64.8736,392.845 C91.5596,395.158 118.177,392.809 145.257,392.511 C145.294,389.301 145.32,386.942 145.354,383.992 C141.557,383.708 137.882,383.527 134.227,383.135 C128.299,382.501 122.883,380.479 119.811,375.071 C115.367,367.25 114.781,358.291 116.158,349.912 C117.416,342.256 118.372,334.884 117.177,327.069 C103.473,321.373 102.724,308.206 99.9746,295.775 C97.8176,296.535 96.0356,296.795 94.6846,297.702 C88.8956,301.587 83.0836,300.494 76.8846,298.737 C70.3286,296.877 67.6376,292.548 67.0146,286.315 C66.5456,281.622 65.7746,276.913 65.8426,272.221 C65.9376,265.793 66.6916,259.373 67.1786,252.951 C67.5136,248.539 70.3786,247.079 74.3056,247.014 C77.1986,246.966 80.0936,247.064 83.1226,247.098 C82.1896,236.673 81.2416,226.594 80.3976,216.507 C78.2546,190.896 82.4656,166.933 95.3676,144.071 C105.898,125.41 121.265,115.481 141.509,112.695 C156.577,110.621 168.697,114.667 174.255,129.601 C174.418,130.038 174.856,130.372 175.555,131.234 C175.988,130.58 176.385,129.986 176.774,129.387 C183.21,119.507 192.593,115.895 204.075,115.523 C213.318,115.224 221.649,117.834 230.134,120.816 C243.832,125.632 252.579,135.016 257.169,148.554 C258.205,151.612 258.83,154.817 259.98,157.826 C266.777,175.611 267.446,194.113 266.9,212.835 C266.487,227.031 262.271,240.194 257.05,253.169 C255.993,255.795 255.217,258.534 253.97,262.23 C259.16,262.29 263.092,262.376 267.023,262.367 C270.503,262.359 272.802,263.892 273.321,267.382 C273.829,270.802 274.258,274.266 274.302,277.716 C274.41,285.947 274.089,294.121 270.219,301.728 C268.433,305.241 266.084,308.151 262.202,308.957 C255.84,310.278 249.437,310.929 243.412,307.282 C241.657,306.22 239.598,305.661 237.023,304.601 C236.964,309.867 236.839,314.069 236.883,318.27 C236.991,328.757 232.62,333.891 222.318,335.257 C221.342,335.387 220.374,335.589 218.087,335.986 M63.8306,443.256 C56.0446,440.778 55.6496,434.574 55.3986,428.712 C55.1786,423.554 55.8846,418.357 56.1816,413.177 C56.2966,411.191 55.7616,408.841 56.6376,407.284 C60.2106,400.933 58.0476,394.694 56.3016,388.734 C48.6926,362.738 40.2886,336.969 32.9586,310.897 C23.5436,277.404 14.7426,243.735 5.9516,210.07 C1.2196,191.953 -0.1074,173.446 0.0066,154.705 C0.1166,136.388 3.0026,118.644 8.2136,101.21 C19.3916,63.8 43.0756,36.521 76.5316,17.171 C97.5096,5.039 120.051,-0.654 144.277,0.06 C155.451,0.39 166.685,-0.272 177.802,0.627 C203.774,2.725 229.696,5.44 254.447,14.479 C276.178,22.417 294.032,35.014 305,56.048 C306.374,58.683 307.881,61.328 309.762,63.607 C323.446,80.186 328.189,99.922 328.473,120.618 C328.804,144.696 328.108,168.817 326.995,192.879 C326.051,213.3 320.352,233.007 315.826,252.845 C308.52,284.866 298.385,316.052 287.857,347.128 C283.551,359.844 279.847,372.779 279.573,386.358 C279.51,389.49 280.373,392.629 280.62,395.781 C280.968,400.218 282.173,404.922 281.161,409.059 C279.276,416.764 280.067,424.284 280.521,431.921 C280.891,438.148 280.377,439.448 276.177,444.357 C270.356,438.12 262.599,440.462 255.535,440.266 C233.184,439.646 210.819,439.582 188.459,439.311 C171.826,439.11 155.192,439.001 138.562,438.699 C128.89,438.523 119.224,438.022 109.554,437.711 C98.6296,437.362 87.7046,436.949 76.7766,436.845 C74.8106,436.827 72.7356,437.988 70.8846,438.94 C68.4986,440.167 66.2866,441.732 63.8306,443.256" id="Fill-1" fill="#000000"></path>
            <path d="M292.083,159.707 C292.705,168.341 296.084,175.147 298.266,182.241 C300.375,171.841 298.337,163.389 292.083,159.707 M285.343,107.774 C284.715,108.904 284.187,109.459 284.305,109.7 C288.682,118.677 293.118,127.624 297.547,136.575 C296.591,125.695 293.797,115.688 285.343,107.774 M293.345,95.997 C284.656,88.747 278.892,77.96 267.17,74.379 C275.538,82.016 281.897,92.083 293.345,95.997 M243.378,55.643 C255.759,60.104 266.673,68.108 280.094,69.528 C268.861,62.252 257.785,54.595 243.378,55.643 M246.02,42.714 C245.722,41.998 245.644,41.465 245.34,41.146 C244.658,40.433 243.911,39.76 243.11,39.185 C231.096,30.55 217.425,26.327 202.958,24.468 C187.075,22.426 171.167,23.213 155.44,25.725 C141.021,28.026 126.312,28.777 112.391,34.035 C89.2003,42.795 69.8313,56.432 55.5223,76.88 C52.0553,81.835 52.0773,81.928 56.4273,87.054 C57.2223,86.698 58.1363,86.386 58.9533,85.908 C65.7233,81.951 73.1043,79.695 80.8083,78.864 C91.3123,77.73 95.6953,83.907 91.6753,93.647 C84.7243,110.486 66.0263,120.65 48.1283,117.371 C47.2203,117.205 46.2263,117.511 44.5033,117.665 C44.1873,120.682 43.7903,123.558 43.6043,126.446 C43.1583,133.394 43.3643,140.432 42.3203,147.283 C39.0763,168.567 40.2803,189.391 47.5943,209.718 C49.5353,215.116 51.8643,220.375 54.0173,225.698 C53.5633,219.83 51.8093,214.44 50.5093,208.942 C47.0203,194.178 43.7923,179.318 44.5653,164.028 C45.1423,152.627 46.3593,141.258 47.3303,129.878 C47.4923,127.98 47.8583,126.102 48.1523,124.055 C58.3223,126.076 67.5233,124.166 76.0123,119.651 C88.1823,113.179 96.9803,103.563 99.4163,89.577 C101.2,79.337 94.9823,71.962 84.7073,71.466 C80.0643,71.242 75.3823,71.862 70.6823,72.102 C73.6653,66.402 81.5903,58.112 88.8803,54.158 C107.784,43.902 127.375,35.547 149.245,34.154 C155.685,33.744 162.138,33.443 168.557,32.811 C194.423,30.268 219.615,32.674 243.836,42.659 C244.426,42.902 245.197,42.704 246.02,42.714 M218.086,335.985 C220.373,335.589 221.341,335.387 222.317,335.257 C232.619,333.891 236.99,328.757 236.882,318.269 C236.838,314.068 236.963,309.866 237.022,304.601 C239.598,305.66 241.656,306.22 243.411,307.281 C249.437,310.929 255.839,310.277 262.201,308.956 C266.083,308.15 268.433,305.24 270.219,301.728 C274.088,294.12 274.409,285.946 274.302,277.716 C274.257,274.266 273.828,270.802 273.32,267.382 C272.802,263.892 270.502,262.358 267.022,262.366 C263.091,262.376 259.159,262.289 253.97,262.229 C255.216,258.533 255.992,255.795 257.049,253.169 C262.271,240.193 266.486,227.03 266.899,212.834 C267.445,194.112 266.776,175.61 259.979,157.825 C258.829,154.816 258.204,151.611 257.168,148.554 C252.578,135.016 243.831,125.632 230.133,120.815 C221.648,117.833 213.317,115.224 204.074,115.522 C192.592,115.894 183.209,119.507 176.773,129.387 C176.384,129.985 175.987,130.579 175.555,131.233 C174.855,130.371 174.417,130.037 174.254,129.601 C168.696,114.666 156.576,110.62 141.508,112.694 C121.265,115.48 105.897,125.409 95.3673,144.07 C82.4653,166.933 78.2543,190.895 80.3973,216.507 C81.2413,226.594 82.1893,236.673 83.1223,247.098 C80.0943,247.063 77.1983,246.966 74.3063,247.014 C70.3783,247.078 67.5143,248.538 67.1793,252.95 C66.6913,259.372 65.9373,265.792 65.8433,272.221 C65.7743,276.912 66.5453,281.621 67.0153,286.314 C67.6383,292.548 70.3283,296.877 76.8853,298.736 C83.0833,300.493 88.8963,301.587 94.6853,297.701 C96.0353,296.795 97.8173,296.534 99.9753,295.774 C102.724,308.205 103.473,321.372 117.177,327.068 C118.371,334.884 117.415,342.256 116.157,349.9115 C114.78,358.2905 115.366,367.2495 119.811,375.0705 C122.882,380.4785 128.298,382.5005 134.227,383.1355 C137.881,383.5265 141.557,383.7075 145.354,383.9915 C145.319,386.9415 145.293,389.3015 145.256,392.5115 C118.177,392.8095 91.5603,395.1575 64.8723,392.8465 C64.5823,392.4755 64.1043,392.1375 64.0313,391.7275 C58.5043,360.8165 48.4343,331.098 40.3393,300.858 C31.5333,267.965 22.4563,235.109 14.9823,201.903 C6.7293,165.239 9.3613,128.904 22.4273,93.402 C28.3463,77.32 38.5883,64.254 50.1943,52.283 C67.0933,34.853 87.3643,22.486 110.728,15.474 C122.286,12.004 134.24,11.569 146.164,11.5836362 C157.841,11.598 169.558,11.715 181.183,12.684 C204.948,14.663 228.582,17.833 251.296,25.534 C267.62,31.068 282.166,39.495 292.007,54.243 C298.346,63.746 304.53,73.377 310.266,83.251 C316.568,94.103 317.465,106.467 318.204,118.594 C318.836,128.974 318.131,139.43 318.15,149.853 C318.211,182.286 314.566,214.192 306.987,245.822 C299.395,277.509 291.206,308.958 280.372,339.702 C274.339,356.8215 270.384,374.4755 267.795,393.0195 C242.613,392.7315 217.709,392.4475 192.539,392.1595 C191.892,388.0085 191.334,384.4305 190.745,380.6505 C196.779,378.8625 202.175,377.0845 207.667,375.6835 C213.718,374.1395 216.141,369.8945 216.508,364.2415 C216.894,358.2955 216.757,352.3155 217.03,346.3595 C217.187,342.962 217.707,339.582 218.086,335.985" id="Fill-2" fill="#FFFFFF"></path>
            <path d="M177.965,309.052 C181.052,306.368 183.733,302.784 182.407,298.882 C180.535,293.369 177.653,288.056 174.381,283.213 C172.079,279.807 167.193,280.644 165.168,284.275 C162.77,288.578 160.46,292.953 158.453,297.449 C156.478,301.875 159.8,306.744 165.37,307.709 C166.785,305.031 168.238,302.281 169.773,299.377 C173.054,302.489 172.82,307.9 177.965,309.052 M141.841,158.11 C142.192,152.361 142.413,147.487 142.808,142.627 C143.202,137.787 146.204,136.209 150.545,138.524 C151.851,139.219 152.892,140.497 154.242,140.999 C155.883,141.61 157.724,141.681 159.586,142.003 C159.78,135.573 157.35,131.834 151.92,130.41 C149.373,129.743 145.94,129.214 143.963,130.392 C141.129,132.081 139.26,135.39 136.862,138.141 C136.483,137.951 135.794,137.681 135.18,137.292 C125.48,131.144 118.411,132.386 111.697,141.767 C108.522,146.203 105.612,150.862 102.955,155.627 C101.771,157.752 101.506,160.39 100.823,162.795 C101.295,163.012 101.767,163.229 102.237,163.446 C103.234,162.477 104.314,161.579 105.211,160.527 C108.758,156.367 112.153,152.075 115.777,147.986 C123.583,139.178 126.488,139.113 135.203,147.293 C135.547,147.615 135.713,148.127 135.954,148.537 C133.538,161.683 135.151,164.906 144.674,165.996 C154.15,167.081 156.756,165.86 157.125,159.859 C152.052,159.278 146.948,158.694 141.841,158.11 M201.708,158.291 C198.627,159.047 195.921,159.511 193.358,160.39 C190.089,161.51 186.821,162.755 183.8,164.401 C182.872,164.906 182.757,166.9 181.987,168.97 C188.602,167.775 193.929,166.871 199.229,165.835 C203.175,165.065 205.915,166.499 207.96,169.878 C210.951,174.817 213.773,189.159 212.847,195.754 C208.762,196.873 204.623,198.007 200.456,199.149 C202.526,205.343 202.728,205.598 205.246,205.733 C214.137,206.209 218.728,202.667 220.944,193.664 C221.118,192.96 221.51,192.31 221.939,191.313 C225.692,190.65 229.584,190.04 233.444,189.261 C238.172,188.308 241.188,184.624 240.988,179.813 C240.935,178.522 240.234,176.643 239.273,176.174 C238.286,175.694 236.085,176.139 235.339,176.99 C231.322,181.571 225.782,181.491 220.91,182.89 C220.317,182.201 220.069,182.041 220.013,181.831 C218.832,177.291 217.672,172.746 216.376,167.689 C218.687,165.398 221.343,163.147 223.525,160.503 C226.232,157.223 229.967,159.951 233.267,158.818 C232.712,154.99 232.724,151.229 228.695,149.881 C224.69,148.541 221.431,150.398 218.839,153.431 C217.064,155.509 215.458,157.732 213.701,159.825 C213.263,160.348 212.531,160.623 211.759,161.126 C210.126,160.08 208.536,159.062 206.389,157.686 C208.813,151.645 211.128,145.948 213.373,140.224 C213.912,138.85 214.982,136.944 214.469,136.049 C213.357,134.11 211.648,131.887 209.691,131.215 C207.18,130.354 205.94,132.268 205.758,135.098 C205.507,139.002 204.734,142.881 204.044,146.746 C203.354,150.616 202.491,154.456 201.708,158.291 M213.188,239.735 C213.241,239.156 213.295,238.577 213.349,237.999 C219.32,239.465 225.293,240.931 231.266,242.397 C230.057,239.785 228.556,237.733 226.543,236.549 C214.011,229.18 201.004,228.642 188.243,235.533 C177.577,241.293 170.157,259.514 176.793,271.319 C179.586,276.288 182.378,281.267 184.915,286.367 C187.871,292.31 192.881,295.829 198.661,298.342 C207.056,301.99 218.036,298.515 222.429,290.987 C217.143,290.702 212.184,294.759 206.629,292.454 C207.027,291.573 207.1,290.956 207.415,290.783 C221.916,282.851 227.166,269.988 227.096,254.201 C227.075,249.494 224.895,246.118 221.056,243.778 C218.545,242.246 215.818,241.07 213.188,239.735 M133.267,290.226 C127.431,293.105 122.444,289.489 117.006,290.397 C117.597,291.816 117.719,292.947 118.348,293.487 C123.129,297.59 128.465,299.497 134.853,297.695 C142.294,295.594 147.514,290.91 152.793,285.322 C160.315,277.357 164.776,268.503 166.461,257.886 C167.675,250.242 165.266,244.228 159.139,239.599 C155.795,237.072 151.923,234.98 149.262,231.861 C139.074,219.917 118.92,223.76 111.129,232.456 C108.658,235.213 106.405,238.097 107.245,242.614 C108.889,241.999 110.196,241.509 111.581,240.991 C102.16,263.6 115.113,280.041 133.267,290.226 M170.667,226.377 C175.531,217.397 184.201,217.195 191.375,214.326 C192.399,213.917 194.193,214.772 195.334,215.502 C196.552,216.283 197.377,217.654 198.444,218.694 C205.967,226.029 208.032,226.287 217.122,221.114 C221.659,218.531 226.38,216.223 230.689,213.306 C235.464,210.073 235.462,206.741 231.589,203.099 C224.065,207.881 216.618,212.614 208.777,217.598 C205.754,214.84 202.999,212.729 200.742,210.177 C197.034,205.986 192.907,205.425 188.016,207.674 C184.02,209.511 179.948,211.186 175.158,213.258 C175.259,204.453 175.349,196.565 175.445,188.13 C179.937,184.899 185.685,184.839 191.311,184.402 C193.037,184.268 194.794,184.555 196.527,184.462 C199.393,184.308 200.3,182.072 200.388,179.825 C200.489,177.237 198.373,176.594 196.228,176.843 C191.056,177.444 185.898,178.166 180.748,178.94 C178.843,179.226 176.982,179.794 174.051,180.479 C174.086,177.414 174.03,175.019 174.154,172.631 C174.736,161.453 175.281,150.272 176.072,139.108 C176.191,137.43 177.218,135.547 178.383,134.267 C180.98,131.412 183.928,128.878 187.118,125.849 C191.32,134.718 186.05,144.205 191.951,151.953 C195.333,150.988 196.282,148.956 196.087,145.84 C195.809,141.396 195.841,136.933 195.682,132.481 C195.585,129.776 195.379,127.074 195.179,123.632 C206.533,122.104 217.003,123.247 227.075,129.33 C226.74,132.646 223.214,136.584 228.861,140.168 C230.849,138.073 232.94,135.869 235.047,133.648 C244.089,139.318 248.731,145.758 250.357,154.972 C247.041,160.944 237.02,159.087 234.958,167.619 C241.981,169.646 247.668,165.291 254.435,166.083 C257.183,174.383 257.74,183.171 257.913,191.953 C253.719,196.729 248.295,192.755 243.785,194.071 C243.684,201.035 244.963,201.948 256.897,203.389 C256.825,209.653 256.753,215.968 256.679,222.453 C251.121,223.358 246.181,219.041 240.736,222.192 C240.322,231.356 250.182,228.394 253.939,233.949 C253.74,234.878 253.579,236.82 252.911,238.569 C248.217,250.868 243.428,263.132 238.645,275.399 C237.473,278.405 235.906,281.294 235.07,284.386 C234.028,288.246 233.641,292.321 227.645,292.467 C233.126,302.581 227.815,311.251 227.154,320.176 C226.917,323.386 224.512,324.558 221.284,324.534 C214.585,324.485 207.885,324.667 201.185,324.786 C195.357,324.889 194.374,325.523 193.493,331.531 C192.664,337.178 192.502,342.919 191.861,348.5982 C191.387,352.7932 191.253,352.7782 186.23,353.6292 C183.224,346.0852 186.309,337.8 184.792,329.023 C179.044,332.68 179.971,337.139 179.728,341.059 C179.468,345.2312 179.584,349.4262 179.533,353.8492 C177.762,353.8282 176.586,353.8152 175.02,353.7972 C174.669,347.3352 174.328,340.98 173.977,334.625 C173.894,333.139 174.084,331.537 173.578,330.205 C173.138,329.046 171.888,327.405 171.001,327.407 C169.927,327.411 168.358,328.715 167.899,329.826 C167.066,331.846 166.601,334.126 166.503,336.322 C166.265,341.727 166.322,347.1452 166.253,353.1452 C163.709,352.8112 161.614,352.5342 158.777,352.1612 C158.839,346.6892 158.921,341.512 158.946,336.335 C158.958,334.103 159.1,331.824 158.707,329.654 C158.483,328.407 157.306,327.334 156.558,326.183 C155.399,327.239 153.37,328.188 153.225,329.369 C152.379,336.228 151.976,343.141 151.377,350.6152 C149.31,349.9242 147.366,349.2762 145.427,348.6282 C144.435,339.292 147.506,329.745 141.13,320.973 C136.469,320.418 131.33,319.358 126.179,319.298 C118.353,319.208 113.322,315.065 110.694,308.504 C107.666,300.942 105.905,292.88 103.379,285.106 C102.172,281.393 100.101,277.944 99.0601,274.198 C96.3531,264.456 93.3231,254.73 91.6631,244.79 C89.1721,229.875 87.0791,214.825 86.1111,199.75 C85.5451,190.943 86.5551,181.758 88.5311,173.127 C91.6731,159.401 98.0981,146.6 107.942,136.674 C120.417,124.095 136.607,120.364 154.051,123.263 C157.364,123.814 160.686,125.442 163.557,127.274 C167.977,130.094 170.04,133.988 169.485,139.818 C168.234,152.921 167.829,166.104 167.031,180.11 C163.195,179.49 159.595,178.974 156.022,178.311 C152.543,177.666 149.148,177.179 146.285,179.848 C148.03,187.573 149.148,188.385 156.129,187.741 C159.762,187.406 163.42,187.348 167.718,187.132 C167.638,194.204 167.565,200.552 167.484,207.654 C161.833,204.645 158.23,198.304 151.575,198.808 C145.75,199.248 139.999,200.654 133.525,201.749 C132.369,199.659 133.344,197.097 135.034,194.557 C136.548,192.283 138.199,190.065 139.413,187.634 C141.618,183.217 141.226,181.45 136.928,179.129 C133.485,177.271 129.672,176.069 125.966,174.736 C123.921,173.999 121.757,173.595 119.107,172.899 C120.233,169.204 121.165,165.916 122.241,162.676 C123.303,159.483 124.51,156.338 125.67,153.123 C119.064,151.171 118.505,151.271 117.124,155.904 C115.85,160.179 114.924,164.566 114.015,168.939 C112.688,175.316 110.366,176.757 103.208,176.58 C101.054,176.528 98.8581,178.189 96.8811,178.983 C97.1431,183.411 98.9881,186.098 102.308,187.059 C104.185,187.603 107.313,187.561 108.426,186.396 C115.641,178.846 123.21,182.082 131.872,184.52 C128.1,191.387 126.056,197.818 127.212,204.998 C127.408,206.214 125.316,208.851 123.986,209.074 C118.863,209.936 113.359,210.449 108.973,207.078 C106.684,205.319 105.497,202.126 103.588,199.243 C99.8091,201.179 102.599,205.727 100.994,208.675 C99.2971,211.793 95.6291,214.221 97.9951,218.648 C102.243,219.272 101.546,214.281 104.272,213.31 C107.896,214.43 111.491,215.862 115.224,216.624 C121.537,217.915 127.027,216.358 132.831,212.962 C148.401,203.856 155.163,205.013 166.835,221.602 C167.796,222.967 168.924,224.215 170.667,226.377" id="Fill-3" fill="#FFFFFF"></path>
            <path d="M163.978,411.104 C164.874,418.296 169.805,419.181 175.457,418.916 C178.43,418.777 181.404,418.625 184.796,418.458 C185.982,416.543 187.256,414.485 188.509,412.462 C215.308,412.768 242.075,413.074 268.704,413.378 C272.11,418.343 271.075,422.821 269.88,428.278 C259.36,428.158 249.006,427.903 238.654,427.951 C220.545,428.036 202.438,428.346 184.33,428.487 C168.207,428.613 152.082,428.568 135.96,428.724 C117.115,428.906 98.2698,429.168 79.4258,429.509 C70.7848,429.666 69.6528,428.908 68.1928,420.594 C67.9448,419.187 67.8818,417.748 67.7058,416.05 C99.7498,414.404 131.387,412.779 163.978,411.104" id="Fill-4" fill="#FFFFFF"></path>
            <path d="M166.217,359.1255 C168.238,359.1485 169.897,359.1675 171.317,359.1845 C173.147,362.8365 174.864,366.2645 176.548,369.6245 C181.983,368.2015 180.437,363.5895 182.87,360.0365 C184.655,360.0565 187.067,359.8665 189.417,360.1605 C193.098,360.6225 195.283,358.8635 196.024,355.6265 C196.898,351.8125 197.381,347.8795 197.686,343.972 C198.004,339.898 197.01,335.665 199.029,331.735 C203.322,333.58 207.196,335.243 212.009,337.31 C213.258,344.061 212.337,351.7125 211.359,359.2575 C210.05,369.3475 209.816,369.4835 199.656,371.1225 C179.527,374.3705 159.338,377.0125 138.863,375.0415 C137.873,374.9465 136.871,374.9775 135.882,374.8845 C127.576,374.1075 124.22,370.5835 124.676,362.3085 C125.1,354.6175 126.069,346.9575 126.766,339.281 C127.034,336.333 127.215,333.376 127.476,329.895 C130.354,329.385 132.943,328.926 136.427,328.309 C136.366,333.627 136.552,338.275 136.205,342.884 C135.652,350.2555 136.656,356.5165 145.126,357.8885 C145.725,365.7955 145.725,365.7955 149.598,369.9945 C150.698,365.9955 151.623,362.6305 152.614,359.0265 C153.988,359.0425 155.402,359.0595 156.888,359.0755 C157.566,361.9475 157.835,364.7345 158.936,367.1425 C159.617,368.6345 161.561,369.5505 162.938,370.7255 C163.824,369.3825 165.142,368.1435 165.498,366.6715 C166.068,364.3195 165.997,361.8125 166.217,359.1255" id="Fill-5" fill="#FFFFFF"></path>
            <path d="M66.555,403.6626 C77.383,403.3646 88.204,402.9446 99.031,402.7996 C114.667,402.5896 130.306,402.4736 145.945,402.5166 C158.329,402.5506 170.714,402.8746 183.098,403.0906 C208.902,403.5406 234.705,403.9866 260.508,404.4906 C263.023,404.5406 265.53,404.9806 268.04,405.2396 C268.002,405.9086 267.963,406.5776 267.924,407.2466 C262.715,407.3526 257.504,407.5916 252.297,407.5426 C231.924,407.3506 211.552,407.0686 191.18,406.8226 C190.437,406.8126 189.686,406.9006 188.951,406.8236 C186.851,406.6006 184.204,405.4346 182.818,406.3066 C181.447,407.1666 181.352,410.0586 180.537,412.5476 C177.308,412.5106 173.925,412.4716 170.34,412.4306 C169.372,410.3346 168.462,408.3606 167.283,405.8036 C164.145,405.9186 160.971,406.0216 157.799,406.1546 C129.812,407.3276 101.826,408.5276 73.838,409.6676 C67.243,409.9356 66.835,409.5386 66.555,403.6626" id="Fill-6" fill="#FFFFFF"></path>
            <path d="M241.016,291.144 C240.716,286.866 242.507,284.973 245.913,284.375 C249.806,283.692 253.673,282.643 257.591,282.401 C261.159,282.181 263.723,280.945 265.479,277.922 C262.977,274.325 262.977,274.325 247.577,275.65 C248.787,272.976 249.837,270.656 251.13,267.798 C256.092,268.122 260.956,268.438 266.491,268.797 C266.416,275.33 266.345,281.55 266.271,288.004 C257.537,289.09 249.3,290.114 241.016,291.144" id="Fill-7" fill="#FFFFFF"></path>
            <path d="M74.7991,278.772 C74.4611,274.928 74.2131,272.095 73.9131,268.682 C79.9981,268.751 85.2981,268.812 91.2581,268.88 C92.0111,271.357 92.8481,274.112 93.8511,277.416 C87.5611,279.472 81.5771,278.598 74.7991,278.772" id="Fill-8" fill="#FFFFFF"></path>
            <path d="M243.448,296.271 C250.435,295.738 257.422,295.206 264.552,294.662 C265.416,298.558 263.873,301.181 261.037,301.383 C255.889,301.75 250.656,301.172 245.486,300.694 C244.613,300.613 243.876,299.051 243.076,298.174 C243.2,297.54 243.324,296.906 243.448,296.271" id="Fill-9" fill="#FFFFFF"></path>
            <path d="M95.7971,286.642 C95.0561,290.298 94.1021,292.405 89.9731,292.011 C82.6691,291.314 79.7291,290.68 75.8211,287.701 C80.6081,285.657 86.5311,285.291 95.7971,286.642" id="Fill-10" fill="#FFFFFF"></path>
            <path d="M73.969,261.918 C73.99,260.065 74.008,258.488 74.034,256.192 C77.825,256.582 81.208,256.737 84.511,257.338 C86.63,257.724 87.988,259.166 87.152,262.068 C82.929,262.021 78.599,261.971 73.969,261.918" id="Fill-11" fill="#FFFFFF"></path>
            <path d="M180.114,386.189 C180.583,388.451 180.898,389.975 181.308,391.956 C176.265,392.138 171.789,392.299 167.313,392.461 C167.192,391.845 167.071,391.228 166.95,390.612 C171.15,389.201 175.351,387.789 180.114,386.189" id="Fill-12" fill="#FFFFFF"></path>
            <path d="M246.02,42.714 C245.198,42.704 244.426,42.902 243.836,42.659 C219.616,32.674 194.423,30.268 168.557,32.812 C162.138,33.443 155.685,33.744 149.246,34.154 C127.375,35.547 107.785,43.902 88.8798,54.158 C81.5898,58.112 73.6658,66.402 70.6818,72.102 C75.3818,71.862 80.0648,71.242 84.7078,71.466 C94.9828,71.962 101.201,79.337 99.4158,89.577 C96.9808,103.564 88.1818,113.179 76.0118,119.652 C67.5238,124.166 58.3228,126.076 48.1528,124.055 C47.8588,126.102 47.4928,127.981 47.3308,129.878 C46.3598,141.258 45.1418,152.627 44.5658,164.028 C43.7918,179.318 47.0198,194.178 50.5088,208.943 C51.8088,214.441 53.5638,219.83 54.0168,225.698 C51.8648,220.375 49.5358,215.116 47.5938,209.718 C40.2808,189.391 39.0768,168.568 42.3208,147.283 C43.3648,140.432 43.1588,133.394 43.6048,126.446 C43.7908,123.558 44.1878,120.682 44.5028,117.665 C46.2258,117.511 47.2198,117.205 48.1278,117.371 C66.0268,120.651 84.7238,110.486 91.6748,93.648 C95.6958,83.907 91.3128,77.731 80.8078,78.864 C73.1048,79.695 65.7228,81.951 58.9538,85.908 C58.1358,86.386 57.2218,86.698 56.4268,87.054 C52.0778,81.928 52.0548,81.835 55.5228,76.88 C69.8318,56.432 89.2008,42.795 112.391,34.035 C126.312,28.777 141.021,28.026 155.441,25.725 C171.167,23.213 187.076,22.426 202.958,24.468 C217.425,26.327 231.096,30.55 243.111,39.185 C243.912,39.76 244.659,40.433 245.34,41.147 C245.644,41.465 245.722,41.998 246.02,42.714" id="Fill-13" fill="#000000"></path>
            <path d="M243.378,55.643 C257.785,54.595 268.861,62.252 280.094,69.529 C266.673,68.109 255.759,60.105 243.378,55.643" id="Fill-14" fill="#000000"></path>
            <path d="M293.345,95.998 C281.898,92.084 275.538,82.017 267.17,74.38 C278.892,77.961 284.657,88.748 293.345,95.998" id="Fill-15" fill="#000000"></path>
            <path d="M285.343,107.775 C293.797,115.689 296.591,125.696 297.547,136.576 C293.118,127.625 288.682,118.677 284.305,109.701 C284.188,109.46 284.715,108.905 285.343,107.775" id="Fill-16" fill="#000000"></path>
            <path d="M292.083,159.708 C298.337,163.39 300.375,171.842 298.266,182.242 C296.084,175.148 292.705,168.342 292.083,159.708" id="Fill-17" fill="#000000"></path>
            <path d="M160.144,254.992 C159.698,253.328 159.608,250.649 158.353,248.735 C153.245,240.946 139.244,236.222 130.331,238.922 C119.751,242.126 114.654,251.928 118.817,261.724 C121.919,269.026 127.205,274.59 134.112,278.528 C138.101,280.804 142.14,280.808 146.171,278.525 C155.01,273.521 158.388,265.263 160.144,254.992 M133.267,290.226 C115.114,280.042 102.161,263.6 111.581,240.992 C110.197,241.51 108.889,242 107.246,242.615 C106.406,238.097 108.659,235.214 111.129,232.457 C118.92,223.761 139.075,219.918 149.262,231.861 C151.923,234.98 155.795,237.072 159.139,239.599 C165.266,244.228 167.675,250.243 166.461,257.887 C164.776,268.504 160.315,277.357 152.793,285.322 C147.514,290.911 142.294,295.595 134.853,297.695 C128.465,299.498 123.129,297.591 118.348,293.487 C117.719,292.947 117.597,291.816 117.006,290.397 C122.444,289.489 127.431,293.105 133.267,290.226" id="Fill-18" fill="#000000"></path>
            <path d="M221.708,260.089 C221.994,252.818 220.667,250.675 214.882,249.422 C207.628,247.852 200.264,246.707 192.898,245.765 C187.647,245.093 186.807,246.009 184.465,250.813 C179.281,261.447 184.059,270.209 190.058,278.318 C195.512,285.689 203.862,286.202 210.938,280.236 C217.72,274.521 221.564,267.213 221.708,260.089 M213.187,239.735 C215.817,241.069 218.545,242.246 221.056,243.777 C224.895,246.118 227.075,249.494 227.096,254.201 C227.166,269.987 221.916,282.851 207.415,290.783 C207.1,290.956 207.027,291.572 206.629,292.454 C212.184,294.759 217.143,290.702 222.429,290.986 C218.036,298.515 207.056,301.99 198.661,298.342 C192.881,295.829 187.871,292.31 184.915,286.367 C182.378,281.267 179.586,276.288 176.793,271.318 C170.157,259.514 177.577,241.293 188.243,235.533 C201.004,228.642 214.011,229.18 226.543,236.549 C228.556,237.733 230.057,239.785 231.266,242.397 C225.293,240.931 219.32,239.465 213.349,237.999 C213.295,238.577 213.241,239.155 213.187,239.735" id="Fill-19" fill="#000000"></path>
            <path d="M201.708,158.292 C202.491,154.457 203.354,150.617 204.044,146.747 C204.733,142.882 205.507,139.003 205.758,135.099 C205.939,132.269 207.18,130.355 209.69,131.216 C211.647,131.888 213.356,134.11 214.469,136.05 C214.981,136.944 213.912,138.851 213.373,140.225 C211.128,145.949 208.812,151.646 206.389,157.687 C208.536,159.063 210.126,160.081 211.759,161.127 C212.531,160.624 213.263,160.349 213.701,159.826 C215.458,157.732 217.063,155.51 218.839,153.432 C221.431,150.398 224.689,148.542 228.695,149.882 C232.724,151.23 232.712,154.991 233.267,158.818 C229.967,159.952 226.231,157.224 223.524,160.504 C221.343,163.147 218.687,165.398 216.376,167.689 C217.672,172.747 218.832,177.292 220.013,181.832 C220.068,182.042 220.316,182.202 220.91,182.891 C225.782,181.492 231.322,181.571 235.339,176.99 C236.085,176.14 238.286,175.694 239.272,176.175 C240.233,176.644 240.935,178.522 240.988,179.813 C241.187,184.625 238.172,188.309 233.443,189.262 C229.584,190.041 225.691,190.65 221.938,191.313 C221.51,192.311 221.118,192.961 220.944,193.665 C218.728,202.668 214.137,206.21 205.246,205.733 C202.728,205.599 202.525,205.344 200.456,199.149 C204.623,198.008 208.762,196.874 212.847,195.755 C213.772,189.16 210.951,174.817 207.96,169.879 C205.915,166.5 203.175,165.065 199.229,165.836 C193.929,166.872 188.602,167.775 181.987,168.971 C182.757,166.9 182.872,164.906 183.8,164.401 C186.821,162.756 190.089,161.511 193.357,160.391 C195.921,159.512 198.627,159.048 201.708,158.292" id="Fill-20" fill="#000000"></path>
            <path d="M141.841,158.11 C146.948,158.694 152.052,159.278 157.125,159.859 C156.756,165.86 154.15,167.082 144.674,165.997 C135.151,164.906 133.538,161.683 135.954,148.538 C135.713,148.128 135.547,147.616 135.203,147.294 C126.488,139.113 123.583,139.178 115.778,147.986 C112.154,152.076 108.758,156.368 105.211,160.527 C104.314,161.58 103.234,162.477 102.237,163.446 C101.767,163.229 101.295,163.012 100.823,162.796 C101.506,160.39 101.771,157.753 102.955,155.628 C105.612,150.862 108.522,146.204 111.697,141.767 C118.411,132.386 125.48,131.144 135.18,137.293 C135.794,137.681 136.483,137.952 136.862,138.141 C139.26,135.39 141.129,132.082 143.963,130.392 C145.94,129.214 149.373,129.744 151.92,130.411 C157.35,131.835 159.78,135.573 159.586,142.004 C157.724,141.681 155.883,141.61 154.242,141 C152.892,140.498 151.851,139.219 150.545,138.524 C146.204,136.21 143.202,137.788 142.808,142.628 C142.413,147.487 142.192,152.361 141.841,158.11" id="Fill-21" fill="#000000"></path>
            <path d="M177.965,309.052 C172.82,307.9 173.054,302.489 169.773,299.377 C168.238,302.281 166.785,305.031 165.37,307.709 C159.8,306.744 156.478,301.875 158.453,297.449 C160.46,292.953 162.77,288.578 165.168,284.275 C167.193,280.644 172.079,279.807 174.381,283.213 C177.653,288.056 180.535,293.369 182.407,298.882 C183.733,302.784 181.052,306.368 177.965,309.052" id="Fill-22" fill="#000000"></path>
            <path d="M145.826,255.296 C141.845,254.793 139.306,256.848 138.775,261.002 C138.337,264.425 140.634,268.016 143.471,268.343 C147.149,268.768 150.712,265.344 151.118,260.992 C151.426,257.696 149.643,255.777 145.826,255.296 M160.143,254.991 C158.388,265.263 155.01,273.521 146.171,278.525 C142.139,280.808 138.1,280.803 134.111,278.527 C127.204,274.589 121.919,269.025 118.816,261.724 C114.653,251.927 119.751,242.125 130.33,238.921 C139.243,236.222 153.244,240.945 158.352,248.734 C159.607,250.649 159.697,253.327 160.143,254.991" id="Fill-23" fill="#FFFFFF"></path>
            <path d="M198.821,263.58 C198.842,260.319 196.673,259.467 193.984,259.288 C190.106,259.03 186.592,261.281 186.672,263.897 C186.772,267.208 190.223,271.134 192.973,271.064 C195.83,270.992 198.767,267.23 198.821,263.58 M221.709,260.09 C221.565,267.214 217.72,274.521 210.939,280.237 C203.863,286.203 195.512,285.689 190.058,278.318 C184.059,270.21 179.282,261.448 184.466,250.813 C186.807,246.01 187.648,245.094 192.899,245.766 C200.264,246.708 207.629,247.852 214.883,249.423 C220.668,250.676 221.995,252.818 221.709,260.09" id="Fill-24" fill="#FFFFFF"></path>
            <path d="M145.826,255.296 C149.643,255.777 151.426,257.696 151.118,260.992 C150.712,265.344 147.149,268.768 143.471,268.343 C140.634,268.016 138.337,264.425 138.775,261.002 C139.306,256.848 141.845,254.793 145.826,255.296" id="Fill-25" fill="#000000"></path>
            <path d="M198.821,263.58 C198.767,267.23 195.83,270.992 192.973,271.064 C190.223,271.134 186.772,267.208 186.672,263.897 C186.592,261.281 190.106,259.03 193.984,259.288 C196.673,259.467 198.842,260.319 198.821,263.58" id="Fill-26" fill="#000000"></path>
            <path d="M102.955,155.627 C105.612,150.861 108.521,146.203 111.697,141.766 C118.411,132.386 125.479,131.144 135.18,137.292 C135.794,137.682 136.482,137.951 136.862,138.141 C139.26,135.39 141.129,132.08 143.963,130.392 C145.939,129.213 149.373,129.742 151.92,130.41 C157.35,131.834 159.78,135.572 159.586,142.003 C157.724,141.68 155.883,141.609 154.242,140.999 C152.892,140.496 151.851,139.219 150.545,138.523 C146.204,136.209 143.202,137.787 142.808,142.627 C142.413,147.486 142.191,152.36 141.841,158.109 C146.948,158.693 152.052,159.277 157.125,159.858 C156.756,165.859 154.149,167.081 144.674,165.996 C135.15,164.905 133.538,161.684 135.954,148.537 C135.713,148.127 135.547,147.615 135.204,147.293 C126.488,139.112 123.583,139.178 115.777,147.985 C112.153,152.074 108.758,156.367 105.211,160.526 C104.313,161.579 103.233,162.477 102.237,163.445 C101.767,163.229 101.295,163.012 100.823,162.795 C101.506,160.39 101.77,157.752 102.955,155.627 M97.9954,218.648 C95.6294,214.221 99.2974,211.793 100.994,208.676 C102.599,205.727 99.8094,201.179 103.588,199.242 C105.497,202.126 106.684,205.318 108.973,207.078 C113.358,210.449 118.863,209.936 123.985,209.074 C125.315,208.85 127.408,206.215 127.212,204.998 C126.056,197.817 128.1,191.387 131.872,184.52 C123.21,182.082 115.641,178.846 108.426,186.395 C107.312,187.561 104.184,187.603 102.308,187.059 C98.9884,186.098 97.1434,183.412 96.8814,178.982 C98.8574,178.188 101.054,176.527 103.208,176.58 C110.366,176.756 112.687,175.315 114.015,168.939 C114.924,164.565 115.85,160.178 117.124,155.903 C118.505,151.271 119.063,151.171 125.67,153.123 C124.51,156.338 123.303,159.482 122.241,162.676 C121.165,165.916 120.232,169.204 119.106,172.898 C121.757,173.595 123.921,174 125.966,174.734 C129.672,176.068 133.484,177.27 136.928,179.129 C141.226,181.45 141.618,183.217 139.413,187.633 C138.199,190.065 136.548,192.283 135.034,194.557 C133.344,197.097 132.369,199.659 133.524,201.748 C139.999,200.652 145.75,199.248 151.575,198.808 C158.229,198.304 161.833,204.645 167.483,207.652 C167.564,200.551 167.638,194.204 167.718,187.132 C163.42,187.348 159.762,187.406 156.129,187.74 C149.147,188.385 148.03,187.573 146.285,179.848 C149.147,177.179 152.543,177.666 156.021,178.311 C159.595,178.973 163.195,179.488 167.031,180.109 C167.829,166.104 168.233,152.92 169.484,139.818 C170.04,133.987 167.976,130.094 163.557,127.273 C160.685,125.441 157.364,123.813 154.051,123.263 C136.606,120.363 120.417,124.095 107.941,136.674 C98.0984,146.6 91.6734,159.4 88.5314,173.127 C86.5554,181.758 85.5454,190.942 86.1104,199.75 C86.4884,205.633 87.0424,211.512 87.7194,217.381 C89.9734,219.223 93.2684,219.878 97.9954,218.648" id="Fill-27" fill="#FF499E"></path>
            <path d="M233.444,189.262 C229.585,190.039 225.692,190.65 221.939,191.313 C221.51,192.31 221.119,192.959 220.945,193.664 C218.728,202.667 214.137,206.209 205.247,205.733 C202.728,205.598 202.526,205.342 200.457,199.149 C204.624,198.007 208.762,196.873 212.847,195.754 C213.773,189.159 210.952,174.817 207.962,169.877 C205.916,166.499 203.175,165.065 199.229,165.836 C193.929,166.871 188.602,167.775 181.988,168.969 C182.757,166.9 182.873,164.906 183.8,164.401 C186.822,162.756 190.09,161.51 193.358,160.39 C195.922,159.512 198.628,159.047 201.709,158.291 C202.492,154.456 203.354,150.617 204.045,146.746 C204.734,142.881 205.507,139.002 205.758,135.098 C205.94,132.268 207.18,130.354 209.691,131.215 C211.648,131.887 213.358,134.11 214.469,136.049 C214.982,136.944 213.913,138.85 213.374,140.224 C211.129,145.949 208.813,151.645 206.389,157.686 C208.537,159.062 210.127,160.08 211.759,161.127 C212.532,160.623 213.263,160.348 213.702,159.825 C215.459,157.731 217.064,155.508 218.84,153.431 C221.431,150.397 224.69,148.541 228.696,149.881 C232.724,151.229 232.713,154.991 233.267,158.818 C229.967,159.951 226.232,157.223 223.525,160.503 C221.343,163.147 218.687,165.399 216.377,167.689 C217.673,172.746 218.833,177.291 220.013,181.831 C220.069,182.041 220.317,182.201 220.911,182.889 C225.783,181.492 231.323,181.571 235.34,176.99 C236.086,176.139 238.287,175.694 239.273,176.174 C240.234,176.643 240.935,178.522 240.989,179.813 C241.188,184.624 238.173,188.308 233.444,189.262 M243.786,194.071 C248.296,192.756 253.719,196.729 257.914,191.953 C257.741,183.17 257.183,174.383 254.435,166.082 C247.669,165.291 241.981,169.646 234.959,167.619 C237.02,159.087 247.042,160.944 250.357,154.973 C248.731,145.758 244.09,139.319 235.048,133.647 C232.94,135.869 230.849,138.074 228.862,140.168 C223.215,136.584 226.741,132.647 227.076,129.33 C217.004,123.248 206.534,122.104 195.179,123.632 C195.38,127.074 195.586,129.776 195.682,132.481 C195.841,136.934 195.809,141.396 196.088,145.84 C196.283,148.956 195.334,150.988 191.952,151.953 C186.05,144.205 191.321,134.719 187.119,125.849 C183.928,128.879 180.98,131.412 178.383,134.267 C177.218,135.547 176.191,137.43 176.073,139.108 C175.282,150.272 174.736,161.453 174.155,172.631 C174.031,175.018 174.087,177.414 174.051,180.479 C176.982,179.794 178.843,179.227 180.749,178.94 C185.898,178.166 191.056,177.444 196.228,176.843 C198.374,176.594 200.49,177.237 200.388,179.824 C200.3,182.072 199.393,184.307 196.527,184.461 C194.795,184.555 193.038,184.268 191.311,184.403 C185.685,184.839 179.937,184.899 175.446,188.129 C175.349,196.565 175.259,204.453 175.159,213.258 C179.949,211.186 184.02,209.512 188.016,207.674 C192.908,205.425 197.035,205.986 200.743,210.177 C203,212.729 205.755,214.84 208.777,217.598 C216.619,212.614 224.065,207.881 231.59,203.099 C235.463,206.741 235.465,210.074 230.689,213.306 C230.689,213.306 250.718,209.797 256.897,203.389 C244.964,201.948 243.684,201.035 243.786,194.071" id="Fill-28" fill="#FF499E"></path>
        </g>
    </g>
</svg>