<svg width="400" height="450" viewBox="0 0 400 450" xmlns="http://www.w3.org/2000/svg"><g fill="none" fill-rule="evenodd"><path d="M215.614 391.189l-13.164 4.423.363 1.849 13.995-.505-1.194-5.767M109.469 266.918l13.183.151c.836-2.902-.521-4.345-2.641-4.731-3.302-.6-6.685-.755-10.476-1.145l-.066 5.725m21.829 24.724c-9.266-1.35-15.19-.985-19.976 1.059 3.907 2.979 6.848 3.613 14.15 4.31 4.13.394 5.084-1.713 5.826-5.369m147.65 9.629l-.372 1.903c.8.877 1.537 2.439 2.41 2.52 5.17.478 10.403 1.056 15.551.689 2.836-.202 4.379-2.825 3.515-6.721l-21.104 1.609M110.3 283.772c6.778-.174 12.76.7 19.05-1.356l-2.591-8.536-17.345-.198.886 10.09m166.216 12.372l25.255-3.14.22-19.207c-5.534-.359-10.398-.675-15.36-.999l-3.554 7.852c15.4-1.325 15.4-1.325 17.902 2.272-1.756 3.023-4.32 4.259-7.887 4.479-3.918.242-7.786 1.291-11.678 1.975-3.406.597-5.197 2.49-4.898 6.768M102.055 408.663c.28 5.876.689 6.273 7.284 6.005 27.988-1.14 55.973-2.34 83.961-3.513 3.171-.133 6.345-.237 9.483-.352 1.18 2.558 2.09 4.532 3.058 6.627l10.197.117c.814-2.488.909-5.38 2.28-6.241 1.387-.871 4.033.295 6.134.518.734.077 1.485-.011 2.228-.001 20.372.246 40.745.528 61.118.72 5.207.048 10.418-.19 15.627-.296l.116-2.007c-2.511-.259-5.018-.699-7.532-.749-25.803-.504-51.607-.95-77.411-1.401-12.383-.215-24.768-.54-37.153-.574-15.639-.043-31.277.073-46.914.283-10.826.146-21.647.566-32.476.864m99.663-44.537c-.22 2.686-.15 5.194-.719 7.545-.357 1.472-1.674 2.711-2.561 4.054-1.377-1.175-3.32-2.091-4.002-3.583-1.1-2.407-1.37-5.194-2.048-8.066l-4.273-.049-3.017 10.968c-3.873-4.2-3.873-4.2-4.471-12.107-8.47-1.372-9.475-7.633-8.921-15.005.346-4.608.161-9.257.221-14.575l-8.951 1.586c-.26 3.482-.441 6.439-.71 9.387-.697 7.677-1.666 15.337-2.09 23.027-.456 8.276 2.901 11.8 11.207 12.576.989.093 1.991.063 2.98.158 20.476 1.97 40.664-.671 60.794-3.919 10.159-1.639 10.394-1.776 11.702-11.866.979-7.545 1.9-15.197.651-21.948-4.813-2.066-8.687-3.729-12.981-5.574-2.019 3.93-1.024 8.163-1.343 12.236-.304 3.908-.788 7.841-1.662 11.656-.74 3.237-2.926 4.996-6.606 4.534-2.351-.294-4.762-.105-6.547-.124-2.434 3.552-.888 8.165-6.322 9.588l-5.232-10.441-5.099-.058m-2.24 51.978l-96.272 4.946c.177 1.698.239 3.137.487 4.544 1.46 8.314 2.592 9.073 11.233 8.915a6701.44 6701.44 0 0156.535-.785c16.122-.156 32.246-.111 48.369-.237 18.108-.141 36.216-.451 54.324-.536 10.353-.048 20.706.207 31.227.327 1.194-5.457 2.229-9.935-1.177-14.9l-80.194-.916-3.713 5.996c-3.393.167-6.367.319-9.34.459-5.652.264-10.583-.621-11.479-7.813m6.69-184.727c-1.743-2.162-2.871-3.41-3.832-4.775-11.672-16.589-18.435-17.746-34.004-8.64-5.805 3.396-11.294 4.954-17.608 3.663-3.732-.763-7.328-2.195-10.952-3.315-2.725.972-2.028 5.962-6.276 5.338-2.366-4.427 1.302-6.855 2.999-9.973 1.604-2.948-1.186-7.496 2.594-9.431 1.909 2.883 3.095 6.075 5.384 7.835 4.386 3.371 9.891 2.857 15.013 1.996 1.33-.224 3.423-2.861 3.227-4.076-1.157-7.181.887-13.612 4.66-20.479-8.662-2.437-16.232-5.674-23.447 1.876-1.113 1.165-4.241 1.207-6.118.663-3.32-.961-5.165-3.647-5.426-8.076 1.976-.794 4.172-2.455 6.327-2.402 7.158.176 9.479-1.265 10.806-7.642.91-4.373 1.835-8.76 3.11-13.035 1.381-4.633 1.939-4.733 8.546-2.78-1.161 3.214-2.368 6.359-3.429 9.552-1.076 3.241-2.009 6.529-3.135 10.223 2.651.696 4.815 1.101 6.86 1.837 3.706 1.333 7.518 2.535 10.961 4.393 4.298 2.322 4.691 4.088 2.486 8.505-1.214 2.431-2.865 4.65-4.379 6.923-1.691 2.54-2.665 5.103-1.51 7.193 6.475-1.096 12.226-2.501 18.051-2.942 6.654-.504 10.258 5.837 15.908 8.846l.234-20.522c-4.297.216-7.956.275-11.588.61-6.982.643-8.099-.168-9.844-7.894 2.862-2.669 6.258-2.181 9.736-1.537 3.573.663 7.174 1.179 11.01 1.799.798-14.006 1.202-27.189 2.453-40.292.556-5.83-1.508-9.724-5.928-12.544-2.871-1.832-6.192-3.46-9.505-4.011-17.445-2.899-33.634.832-46.11 13.411-9.844 9.926-16.268 22.727-19.41 36.453-1.977 8.631-2.986 17.816-2.421 26.624.969 15.075 3.062 30.125 5.553 45.04 1.66 9.939 4.689 19.666 7.396 29.407 1.041 3.746 3.113 7.195 4.32 10.908 2.526 7.774 4.287 15.836 7.315 23.398 2.628 6.561 7.658 10.705 15.484 10.794 5.152.06 10.29 1.12 14.952 1.675 6.376 8.773 3.304 18.32 4.296 27.655l5.951 1.987c.598-7.474 1.002-14.387 1.847-21.245.146-1.182 2.174-2.13 3.333-3.187.748 1.152 1.925 2.225 2.15 3.471.392 2.171.251 4.449.239 6.681-.025 5.177-.107 10.354-.17 15.827l7.477.983c.069-6 .011-11.418.25-16.823.097-2.196.562-4.476 1.395-6.495.459-1.112 2.028-2.415 3.103-2.419.886-.003 2.136 1.638 2.577 2.798.506 1.332.315 2.933.398 4.42.352 6.354.693 12.709 1.043 19.171l4.514.052c.051-4.423-.066-8.618.194-12.79.243-3.92-.683-8.379 5.065-12.036 1.516 8.777-1.569 17.062 1.437 24.606 5.024-.851 5.157-.836 5.631-5.031.642-5.679.804-11.42 1.633-17.066.881-6.009 1.863-6.643 7.691-6.745 6.7-.119 13.401-.302 20.1-.252 3.227.023 5.633-1.149 5.87-4.359.66-8.925 5.972-17.594.49-27.709 5.996-.146 6.383-4.22 7.426-8.081.836-3.092 2.402-5.981 3.574-8.987 4.783-12.267 9.573-24.53 14.267-36.83.668-1.749.829-3.691 1.027-4.619-3.757-5.556-13.616-2.594-13.203-11.758 5.445-3.15 10.386 1.166 15.943.262l.218-19.065c-11.933-1.441-13.213-2.353-13.111-9.318 4.51-1.316 9.933 2.658 14.128-2.117-.173-8.783-.731-17.571-3.479-25.87-6.766-.792-12.454 3.562-19.476 1.536 2.061-8.533 12.083-6.676 15.398-12.647-1.626-9.215-6.267-15.655-15.309-21.325l-6.186 6.52c-5.647-3.583-2.121-7.522-1.786-10.837-10.072-6.083-20.542-7.227-31.897-5.699.201 3.443.407 6.144.503 8.849.16 4.452.127 8.915.406 13.359.195 3.117-.754 5.148-4.136 6.114-5.901-7.748-.631-17.236-4.833-26.105-3.191 3.029-6.139 5.564-8.735 8.418-1.166 1.28-2.193 3.163-2.311 4.841-.791 11.164-1.337 22.346-1.918 33.523-.124 2.388-.068 4.784-.103 7.848 2.93-.685 4.791-1.253 6.697-1.539 5.149-.773 10.307-1.496 15.479-2.097 2.146-.249 4.262.394 4.16 2.983-.087 2.246-.995 4.482-3.861 4.636-1.732.093-3.489-.194-5.216-.06-5.626.437-11.374.497-15.865 3.728l-.287 25.128c4.79-2.072 8.861-3.747 12.857-5.584 4.892-2.249 9.019-1.688 12.727 2.503 2.257 2.552 5.012 4.663 8.034 7.421l22.813-14.499c3.873 3.643 3.875 6.975-.901 10.207-4.308 2.917-9.029 5.226-13.566 7.808-9.09 5.174-11.155 4.915-18.678-2.42-1.067-1.04-1.893-2.41-3.11-3.192-1.142-.73-2.936-1.584-3.959-1.175-7.174 2.868-15.844 3.07-20.708 12.05m47.419 109.609c-.379 3.597-.9 6.976-1.056 10.374-.273 5.956-.137 11.935-.522 17.882-.368 5.652-2.791 9.897-8.841 11.441-5.492 1.402-10.888 3.18-16.922 4.968l1.794 11.509 75.256.86c2.589-18.545 6.544-36.198 12.577-53.317 10.834-30.744 19.022-62.194 26.615-93.88 7.579-31.63 11.224-63.536 11.163-95.97-.019-10.423.686-20.879.054-31.259-.739-12.127-1.636-24.491-7.939-35.342-5.735-9.875-11.92-19.505-18.258-29.008-9.841-14.748-24.387-23.175-40.711-28.709-22.714-7.701-46.348-10.871-70.114-12.851-11.625-.969-23.341-1.086-35.018-1.1-11.924-.014-23.878.42-35.437 3.89-23.363 7.013-43.635 19.38-60.533 36.81-11.606 11.97-21.85 25.037-27.768 41.119-13.065 35.502-15.697 71.837-7.444 108.501 7.474 33.206 16.55 66.061 25.357 98.955 8.094 30.239 18.165 59.958 23.692 90.868.073.41.55.748.842 1.118 26.686 2.313 53.303-.036 80.383-.334l.097-8.519c-3.797-.284-7.472-.465-11.127-.857-5.928-.634-11.344-2.656-14.416-8.064-4.444-7.821-5.03-16.78-3.653-25.159 1.258-7.656 2.214-15.028 1.019-22.843-13.704-5.696-14.453-18.863-17.202-31.294-2.157.76-3.94 1.02-5.29 1.927-5.79 3.885-11.601 2.792-17.8 1.035-6.556-1.86-9.247-6.189-9.87-12.422-.47-4.693-1.24-9.402-1.172-14.094.095-6.428.849-12.848 1.336-19.27.335-4.412 3.2-5.872 7.127-5.937 2.893-.048 5.788.05 8.817.084-.933-10.425-1.881-20.504-2.725-30.591-2.143-25.611 2.068-49.574 14.97-72.436 10.53-18.661 25.897-28.59 46.141-31.376 15.068-2.074 27.188 1.972 32.746 16.906.163.437.601.771 1.3 1.633.433-.654.83-1.248 1.219-1.847 6.436-9.88 15.819-13.492 27.301-13.864 9.243-.299 17.574 2.311 26.059 5.293 13.698 4.816 22.445 14.2 27.035 27.738 1.036 3.058 1.661 6.263 2.811 9.272 6.797 17.785 7.466 36.287 6.92 55.009-.413 14.196-4.629 27.359-9.85 40.334-1.057 2.626-1.833 5.365-3.08 9.061 5.19.06 9.122.146 13.053.137 3.48-.008 5.779 1.525 6.298 5.015.508 3.42.937 6.884.981 10.334.108 8.231-.213 16.405-4.083 24.012-1.786 3.513-4.135 6.423-8.017 7.229-6.362 1.321-12.765 1.972-18.79-1.675-1.755-1.062-3.814-1.621-6.389-2.681-.059 5.266-.184 9.468-.14 13.669.108 10.487-4.263 15.621-14.565 16.987-.976.13-1.944.332-4.231.729M99.331 448.256c-7.786-2.478-8.181-8.682-8.432-14.544-.22-5.158.486-10.355.783-15.535.115-1.986-.42-4.336.456-5.893 3.573-6.351 1.41-12.59-.336-18.55-7.61-25.996-16.013-51.765-23.343-77.837-9.415-33.493-18.216-67.162-27.007-100.827-4.732-18.117-6.06-36.624-5.945-55.365.11-18.317 2.996-36.061 8.207-53.495 11.178-37.41 34.862-64.689 68.318-84.039C133.01 10.039 155.55 4.346 179.777 5.06c11.174.33 22.408-.332 33.525.567 25.972 2.098 51.894 4.813 76.645 13.852 21.731 7.938 39.585 20.535 50.553 41.569 1.374 2.635 2.881 5.28 4.762 7.559 13.684 16.579 18.427 36.315 18.711 57.011.331 24.078-.365 48.199-1.478 72.261-.944 20.421-6.643 40.128-11.169 59.966-7.306 32.021-17.441 63.207-27.969 94.283-4.306 12.716-8.01 25.651-8.284 39.23-.063 3.132.8 6.271 1.047 9.423.348 4.437 1.553 9.141.541 13.278-1.885 7.705-1.094 15.225-.64 22.862.37 6.227-.144 7.527-4.344 12.436-5.821-6.237-13.578-3.895-20.642-4.091-22.351-.62-44.716-.684-67.076-.955-16.633-.201-33.267-.31-49.897-.612-9.672-.176-19.338-.677-29.008-.988-10.924-.349-21.85-.762-32.777-.866-1.966-.018-4.041 1.143-5.892 2.095-2.386 1.227-4.598 2.792-7.054 4.316" fill="#000"/><path d="M327.583 164.707c.622 8.634 4.001 15.44 6.183 22.534 2.109-10.4.071-18.852-6.183-22.534m-6.74-51.933c-.628 1.13-1.156 1.685-1.038 1.926 4.377 8.977 8.813 17.924 13.242 26.875-.956-10.88-3.75-20.887-12.204-28.801m8.002-11.777c-8.689-7.25-14.453-18.037-26.175-21.618 8.368 7.637 14.727 17.704 26.175 21.618m-49.967-40.354c12.381 4.461 23.295 12.465 36.716 13.885-11.233-7.276-22.309-14.933-36.716-13.885m2.642-12.929c-.298-.716-.376-1.249-.68-1.568a16.166 16.166 0 00-2.23-1.961c-12.014-8.635-25.685-12.858-40.152-14.717-15.883-2.042-31.791-1.255-47.518 1.257-14.419 2.301-29.128 3.052-43.049 8.31-23.19 8.76-42.56 22.397-56.869 42.845-3.467 4.955-3.445 5.048.905 10.174.795-.356 1.71-.668 2.526-1.146 6.77-3.957 14.151-6.213 21.855-7.044 10.504-1.134 14.887 5.043 10.867 14.783-6.95 16.839-25.649 27.003-43.547 23.724-.908-.166-1.902.14-3.625.294-.316 3.017-.713 5.893-.899 8.781-.446 6.948-.24 13.986-1.284 20.837-3.244 21.284-2.04 42.108 5.274 62.435 1.941 5.398 4.27 10.657 6.423 15.98-.454-5.868-2.208-11.258-3.508-16.756-3.489-14.764-6.717-29.624-5.944-44.914.577-11.401 1.794-22.77 2.765-34.15.162-1.898.528-3.776.822-5.823 10.17 2.021 19.371.111 27.86-4.404 12.17-6.472 20.968-16.088 23.404-30.074 1.784-10.24-4.434-17.615-14.709-18.111-4.643-.224-9.325.396-14.025.636 2.983-5.7 10.908-13.99 18.198-17.944 18.904-10.256 38.495-18.611 60.365-20.004 6.44-.41 12.893-.711 19.312-1.343 25.866-2.543 51.058-.137 75.279 9.848.59.243 1.361.045 2.184.055m-27.934 293.271c2.287-.396 3.255-.598 4.231-.728 10.302-1.366 14.673-6.5 14.565-16.988-.044-4.201.081-8.403.14-13.668 2.576 1.059 4.634 1.619 6.389 2.68 6.026 3.648 12.428 2.996 18.79 1.675 3.882-.806 6.232-3.716 8.018-7.228 3.869-7.608 4.19-15.782 4.083-24.012-.045-3.45-.474-6.914-.982-10.334-.518-3.49-2.818-5.024-6.298-5.016-3.931.01-7.863-.077-13.052-.137 1.246-3.696 2.022-6.434 3.079-9.06 5.222-12.976 9.437-26.139 9.85-40.335.546-18.722-.123-37.224-6.92-55.009-1.15-3.009-1.775-6.214-2.811-9.271-4.59-13.538-13.337-22.922-27.035-27.739-8.485-2.982-16.816-5.591-26.059-5.293-11.482.372-20.865 3.985-27.301 13.865-.389.598-.786 1.192-1.218 1.846-.7-.862-1.138-1.196-1.301-1.632-5.558-14.935-17.678-18.981-32.746-16.907-20.243 2.786-35.611 12.715-46.14 31.376-12.903 22.863-17.114 46.825-14.97 72.437.843 10.087 1.791 20.166 2.724 30.591-3.028-.035-5.924-.132-8.816-.084-3.928.064-6.792 1.524-7.127 5.936-.488 6.422-1.242 12.842-1.336 19.271-.069 4.691.702 9.4 1.172 14.093.623 6.234 3.313 10.563 9.87 12.422 6.198 1.757 12.011 2.851 17.8-1.035 1.35-.906 3.132-1.167 5.29-1.927 2.749 12.431 3.498 25.598 17.202 31.294 1.194 7.816.238 15.188-1.02 22.843-1.377 8.38-.791 17.338 3.654 25.16 3.071 5.407 8.487 7.43 14.416 8.064 3.654.391 7.33.572 11.127.856-.035 2.95-.061 5.31-.098 8.52-27.079.298-53.696 2.646-80.384.335-.29-.37-.768-.709-.84-1.119-5.528-30.91-15.598-60.629-23.693-90.869-8.806-32.893-17.883-65.749-25.357-98.955-8.253-36.664-5.62-72.999 7.445-108.501 5.92-16.082 16.161-29.148 27.767-41.119 16.9-17.43 37.17-29.797 60.534-36.809 11.558-3.47 23.512-3.905 35.436-3.89 11.677.014 23.394.131 35.019 1.1 23.765 1.979 47.399 5.149 70.113 12.85 16.324 5.534 30.87 13.961 40.711 28.709 6.339 9.503 12.523 19.134 18.259 29.008 6.302 10.852 7.199 23.216 7.938 35.343.632 10.38-.073 20.836-.054 31.259.061 32.433-3.584 64.339-11.163 95.969-7.592 31.687-15.781 63.136-26.615 93.88-6.033 17.12-9.988 34.773-12.577 53.317l-75.256-.86-1.794-11.509c6.034-1.788 11.43-3.566 16.922-4.967 6.051-1.544 8.474-5.789 8.841-11.442.386-5.946.249-11.926.522-17.882.157-3.397.677-6.777 1.056-10.374" fill="#FFF"/><path d="M213.465 314.052c3.087-2.684 5.768-6.268 4.442-10.17-1.872-5.513-4.754-10.826-8.026-15.669-2.302-3.406-7.188-2.569-9.213 1.062-2.398 4.303-4.708 8.678-6.715 13.174-1.975 4.426 1.347 9.295 6.917 10.26l4.403-8.332c3.281 3.112 3.047 8.523 8.192 9.675M177.341 163.11c.351-5.749.572-10.623.967-15.483.394-4.84 3.396-6.418 7.737-4.103 1.306.695 2.347 1.973 3.697 2.475 1.641.611 3.482.682 5.344 1.004.194-6.43-2.236-10.169-7.666-11.593-2.547-.667-5.98-1.196-7.957-.018-2.834 1.689-4.703 4.998-7.101 7.749-.379-.19-1.068-.46-1.682-.849-9.7-6.148-16.769-4.906-23.483 4.475-3.175 4.436-6.085 9.095-8.742 13.86-1.184 2.125-1.449 4.763-2.132 7.168l1.414.651c.997-.969 2.077-1.867 2.974-2.919 3.547-4.16 6.942-8.452 10.566-12.541 7.806-8.808 10.711-8.873 19.426-.693.344.322.51.834.751 1.244-2.416 13.146-.803 16.369 8.72 17.459 9.476 1.085 12.082-.136 12.451-6.137l-15.284-1.749m59.867.181c-3.081.756-5.787 1.22-8.35 2.099-3.269 1.12-6.537 2.365-9.558 4.011-.928.505-1.043 2.499-1.813 4.569 6.615-1.195 11.942-2.099 17.242-3.135 3.946-.77 6.686.664 8.731 4.043 2.991 4.939 5.813 19.281 4.887 25.876l-12.391 3.395c2.07 6.194 2.272 6.449 4.79 6.584 8.891.476 13.482-3.066 15.698-12.069.174-.704.566-1.354.995-2.351 3.753-.663 7.645-1.273 11.505-2.052 4.728-.953 7.744-4.637 7.544-9.448-.053-1.291-.754-3.17-1.715-3.639-.987-.48-3.188-.035-3.934.816-4.017 4.581-9.557 4.501-14.429 5.9-.593-.689-.841-.849-.897-1.059-1.181-4.54-2.341-9.085-3.637-14.142 2.311-2.291 4.967-4.542 7.149-7.186 2.707-3.28 6.442-.552 9.742-1.685-.555-3.828-.543-7.589-4.572-8.937-4.005-1.34-7.264.517-9.856 3.55-1.775 2.078-3.381 4.301-5.138 6.394-.438.523-1.17.798-1.942 1.301l-5.37-3.44c2.424-6.041 4.739-11.738 6.984-17.462.539-1.374 1.609-3.28 1.096-4.175-1.112-1.939-2.821-4.162-4.778-4.834-2.511-.861-3.751 1.053-3.933 3.883-.251 3.904-1.024 7.783-1.714 11.648-.69 3.87-1.553 7.71-2.336 11.545m11.48 81.444l.161-1.736 17.917 4.398c-1.209-2.612-2.71-4.664-4.723-5.848-12.532-7.369-25.539-7.907-38.3-1.016-10.666 5.76-18.086 23.981-11.45 35.786 2.793 4.969 5.585 9.948 8.122 15.048 2.956 5.943 7.966 9.462 13.746 11.975 8.395 3.648 19.375.173 23.768-7.355-5.286-.285-10.245 3.772-15.8 1.467.398-.881.471-1.498.786-1.671 14.501-7.932 19.751-20.795 19.681-36.582-.021-4.707-2.201-8.083-6.04-10.423-2.511-1.532-5.238-2.708-7.868-4.043m-79.921 50.491c-5.836 2.879-10.823-.737-16.261.171.591 1.419.713 2.55 1.342 3.09 4.781 4.103 10.117 6.01 16.505 4.208 7.441-2.101 12.661-6.785 17.94-12.373 7.522-7.965 11.983-16.819 13.668-27.436 1.214-7.644-1.195-13.658-7.322-18.287-3.344-2.527-7.216-4.619-9.877-7.738-10.188-11.944-30.342-8.101-38.133.595-2.471 2.757-4.724 5.641-3.884 10.158l4.336-1.623c-9.421 22.609 3.532 39.05 21.686 49.235m37.4-63.849c4.864-8.98 13.534-9.182 20.708-12.051 1.024-.409 2.818.446 3.959 1.176 1.218.781 2.043 2.152 3.11 3.192 7.523 7.335 9.588 7.593 18.678 2.42 4.537-2.583 9.258-4.891 13.567-7.808 4.775-3.233 4.773-6.565.9-10.207l-22.812 14.499c-3.023-2.758-5.778-4.869-8.035-7.421-3.708-4.191-7.835-4.752-12.726-2.503-3.996 1.837-8.068 3.512-12.858 5.584l.287-25.128c4.492-3.231 10.24-3.291 15.866-3.728 1.726-.134 3.483.153 5.216.06 2.866-.154 3.773-2.39 3.861-4.637.101-2.588-2.015-3.231-4.16-2.982-5.172.601-10.33 1.323-15.48 2.097-1.905.286-3.766.854-6.697 1.539.035-3.065-.021-5.46.103-7.848.582-11.178 1.127-22.359 1.918-33.523.119-1.678 1.146-3.561 2.311-4.841 2.597-2.855 5.545-5.389 8.735-8.418 4.202 8.869-1.068 18.356 4.833 26.104 3.382-.965 4.331-2.997 4.136-6.113-.278-4.444-.246-8.907-.405-13.359-.097-2.705-.303-5.407-.503-8.849 11.354-1.528 21.824-.385 31.896 5.698-.335 3.316-3.861 7.254 1.786 10.838l6.186-6.52c9.042 5.67 13.684 12.11 15.31 21.324-3.316 5.972-13.337 4.115-15.399 12.647 7.023 2.027 12.71-2.328 19.477-1.536 2.748 8.3 3.305 17.088 3.478 25.87-4.194 4.776-9.618.802-14.128 2.118-.101 6.964 1.178 7.877 13.112 9.318l-.218 19.064c-5.558.905-10.498-3.412-15.943-.261-.414 9.164 9.446 6.202 13.203 11.757-.199.929-.36 2.871-1.028 4.62-4.694 12.299-9.483 24.563-14.266 36.83-1.172 3.006-2.739 5.895-3.575 8.987-1.042 3.86-1.429 7.935-7.425 8.081 5.481 10.114.17 18.784-.491 27.709-.237 3.21-2.642 4.382-5.87 4.358-6.699-.049-13.399.133-20.099.252-5.828.103-6.811.737-7.692 6.745-.829 5.647-.991 11.388-1.632 17.067-.474 4.195-.608 4.18-5.631 5.031-3.006-7.544.079-15.829-1.438-24.606-5.748 3.657-4.821 8.116-5.064 12.036-.26 4.172-.144 8.367-.195 12.79l-4.513-.052c-.351-6.462-.692-12.817-1.043-19.172-.083-1.486.107-3.088-.399-4.42-.44-1.159-1.69-2.8-2.577-2.798-1.074.004-2.643 1.308-3.102 2.419-.833 2.02-1.298 4.3-1.396 6.496-.238 5.405-.181 10.823-.25 16.823l-7.476-.984c.062-5.472.144-10.649.169-15.826.012-2.232.154-4.511-.239-6.681-.224-1.247-1.401-2.32-2.149-3.471-1.159 1.056-3.188 2.005-3.333 3.186-.846 6.859-1.249 13.772-1.848 21.246l-5.95-1.987c-.992-9.336 2.079-18.883-4.297-27.655-4.661-.555-9.8-1.615-14.951-1.675-7.826-.09-12.857-4.233-15.485-10.794-3.028-7.562-4.789-15.624-7.315-23.398-1.207-3.713-3.278-7.162-4.319-10.908-2.707-9.742-5.737-19.468-7.397-29.408-2.49-14.915-4.584-29.965-5.552-45.04-.566-8.807.444-17.992 2.42-26.623 3.142-13.726 9.567-26.527 19.411-36.453 12.475-12.579 28.665-16.31 46.109-13.411 3.313.551 6.635 2.179 9.506 4.011 4.42 2.82 6.483 6.714 5.928 12.544-1.251 13.103-1.656 26.286-2.454 40.292-3.836-.62-7.436-1.136-11.009-1.799-3.479-.645-6.874-1.132-9.737 1.537 1.745 7.725 2.863 8.537 9.844 7.893 3.633-.335 7.291-.393 11.589-.609l-.234 20.522c-5.651-3.009-9.254-9.35-15.909-8.846-5.825.44-11.576 1.846-18.05 2.941-1.156-2.09-.181-4.652 1.509-7.192 1.514-2.274 3.165-4.492 4.379-6.923 2.205-4.417 1.813-6.184-2.485-8.505-3.443-1.858-7.256-3.06-10.962-4.393-2.045-.737-4.209-1.141-6.859-1.837 1.126-3.695 2.058-6.983 3.134-10.223 1.062-3.193 2.269-6.338 3.429-9.553-6.606-1.952-7.165-1.852-8.546 2.781-1.274 4.275-2.2 8.662-3.109 13.035-1.327 6.377-3.649 7.818-10.807 7.641-2.154-.052-4.35 1.609-6.327 2.403.262 4.428 2.107 7.115 5.427 8.076 1.877.544 5.005.502 6.118-.663 7.215-7.55 14.784-4.314 23.446-1.876-3.772 6.867-5.816 13.298-4.66 20.478.196 1.216-1.896 3.853-3.226 4.076-5.123.862-10.627 1.375-15.013-1.996-2.289-1.759-3.476-4.952-5.385-7.835-3.779 1.936-.989 6.484-2.594 9.432-1.697 3.118-5.365 5.546-2.999 9.973 4.248.624 3.551-4.367 6.277-5.338 3.624 1.12 7.219 2.552 10.952 3.314 6.313 1.291 11.803-.266 17.607-3.662 15.57-9.106 22.332-7.949 34.004 8.64.961 1.365 2.089 2.613 3.832 4.775m-6.689 184.727c.896 7.192 5.827 8.077 11.479 7.812 2.973-.139 5.947-.291 9.339-.458l3.713-5.996 80.195.916c3.406 4.965 2.371 9.443 1.176 14.9-10.52-.12-20.874-.375-31.226-.327-18.109.085-36.216.395-54.324.536-16.123.126-32.248.081-48.37.237-18.845.182-37.69.444-56.534.785-8.641.157-9.773-.601-11.233-8.915-.248-1.407-.311-2.846-.487-4.544l96.272-4.946" fill="#FFF"/><path d="M201.717 364.125l5.1.06 5.231 10.44c5.435-1.423 3.889-6.036 6.322-9.589 1.785.02 4.197-.17 6.547.125 3.681.462 5.866-1.298 6.607-4.534.874-3.815 1.357-7.748 1.662-11.655.318-4.074-.676-8.307 1.343-12.237 4.293 1.845 8.167 3.508 12.98 5.575 1.249 6.751.328 14.402-.65 21.947-1.309 10.09-1.543 10.226-11.703 11.865-20.129 3.248-40.318 5.89-60.793 3.92-.99-.095-1.992-.064-2.981-.157-8.306-.777-11.662-4.301-11.206-12.577.424-7.69 1.393-15.35 2.09-23.027.268-2.948.449-5.905.71-9.386l8.951-1.586c-.061 5.318.125 9.966-.222 14.575-.553 7.371.451 13.632 8.921 15.005.599 7.906.599 7.906 4.472 12.106l3.016-10.969c1.374.017 2.788.034 4.274.05.678 2.871.947 5.659 2.048 8.066.681 1.493 2.625 2.409 4.002 3.584.886-1.344 2.204-2.582 2.56-4.055.57-2.351.499-4.858.719-7.546m-99.662 44.538c10.828-.298 21.649-.718 32.476-.863 15.636-.21 31.275-.326 46.914-.283 12.384.034 24.769.358 37.153.574 25.804.45 51.607.896 77.41 1.4 2.515.05 5.022.49 7.532.749l-.116 2.007c-5.209.106-10.42.345-15.627.296-20.373-.192-40.745-.474-61.117-.72-.743-.01-1.494.078-2.229 0-2.1-.222-4.747-1.388-6.133-.516-1.371.86-1.466 3.752-2.281 6.24l-10.197-.116c-.968-2.096-1.878-4.07-3.057-6.627-3.138.115-6.312.218-9.484.35-27.987 1.174-55.973 2.374-83.961 3.514-6.595.268-7.003-.13-7.283-6.005m174.461-112.519c-.3-4.278 1.491-6.171 4.897-6.769 3.893-.683 7.76-1.732 11.678-1.974 3.568-.22 6.132-1.456 7.888-4.479-2.502-3.597-2.502-3.597-17.902-2.272l3.553-7.852c4.962.324 9.826.64 15.361.999l-.22 19.207-25.255 3.14M110.3 283.772c-.339-3.844-.587-6.677-.887-10.09l17.345.198 2.593 8.536c-6.29 2.056-12.274 1.182-19.052 1.356m168.649 17.499l21.104-1.609c.864 3.896-.679 6.519-3.515 6.721-5.148.367-10.381-.211-15.551-.689-.873-.081-1.61-1.643-2.41-2.52l.372-1.903m-147.651-9.629c-.74 3.656-1.695 5.763-5.824 5.369-7.304-.697-10.244-1.331-14.152-4.31 4.787-2.044 10.71-2.41 19.976-1.059m-21.828-24.724l.065-5.726c3.791.39 7.174.545 10.477 1.146 2.119.386 3.477 1.828 2.641 4.73-4.223-.047-8.553-.097-13.183-.15m106.145 124.271l1.194 5.767-13.995.505-.363-1.849 13.164-4.423" fill="#FFF"/><path d="M281.52 47.714c-.822-.01-1.594.188-2.184-.055-24.22-9.985-49.413-12.391-75.279-9.847-6.419.631-12.872.932-19.311 1.342-21.871 1.393-41.461 9.748-60.366 20.004-7.29 3.954-15.214 12.244-18.198 17.944 4.7-.24 9.383-.86 14.026-.636 10.275.496 16.493 7.871 14.708 18.111-2.435 13.987-11.234 23.602-23.404 30.075-8.488 4.514-17.69 6.424-27.86 4.403-.293 2.047-.66 3.926-.821 5.823-.971 11.38-2.19 22.749-2.765 34.15-.774 15.29 2.454 30.15 5.943 44.915 1.3 5.498 3.055 10.887 3.508 16.755-2.152-5.323-4.481-10.582-6.423-15.98-7.313-20.327-8.517-41.15-5.273-62.435 1.044-6.851.838-13.889 1.284-20.837.186-2.888.583-5.764.898-8.781 1.723-.154 2.717-.46 3.625-.294 17.899 3.28 36.596-6.885 43.547-23.723 4.02-9.741-.362-15.917-10.867-14.784-7.703.831-15.085 3.087-21.854 7.044-.818.478-1.732.79-2.527 1.146-4.35-5.126-4.372-5.219-.904-10.174 14.309-20.448 33.678-34.085 56.868-42.845 13.921-5.258 28.63-6.009 43.05-8.31 15.726-2.512 31.635-3.299 47.517-1.257 14.467 1.859 28.138 6.082 40.153 14.717a16.042 16.042 0 012.229 1.962c.304.318.382.851.68 1.567m-2.642 12.929c14.407-1.048 25.483 6.609 36.716 13.886-13.421-1.42-24.335-9.424-36.716-13.886m49.967 40.355c-11.447-3.914-17.807-13.981-26.175-21.618 11.722 3.581 17.487 14.368 26.175 21.618m-8.002 11.777c8.454 7.914 11.248 17.921 12.204 28.801-4.429-8.951-8.865-17.899-13.242-26.875-.117-.241.41-.796 1.038-1.926m6.74 51.933c6.254 3.682 8.292 12.134 6.183 22.534-2.182-7.094-5.561-13.9-6.183-22.534m-131.939 95.284c-.446-1.664-.536-4.343-1.791-6.257-5.108-7.789-19.109-12.513-28.022-9.813-10.58 3.204-15.677 13.006-11.514 22.802 3.102 7.302 8.388 12.866 15.295 16.804 3.989 2.276 8.028 2.28 12.059-.003 8.839-5.004 12.217-13.262 13.973-23.533m-26.877 35.234c-18.153-10.184-31.106-26.626-21.686-49.234l-4.335 1.623c-.84-4.518 1.413-7.401 3.883-10.158 7.791-8.696 27.946-12.539 38.133-.596 2.661 3.119 6.533 5.211 9.877 7.738 6.127 4.629 8.536 10.644 7.322 18.288-1.685 10.617-6.146 19.47-13.668 27.435-5.279 5.589-10.499 10.273-17.94 12.373-6.388 1.803-11.724-.104-16.505-4.208-.629-.54-.751-1.671-1.342-3.09 5.438-.908 10.425 2.708 16.261-.171m88.441-30.137c.286-7.271-1.041-9.414-6.826-10.667-7.254-1.57-14.618-2.715-21.984-3.657-5.251-.672-6.091.244-8.433 5.048-5.184 10.634-.406 19.396 5.593 27.505 5.454 7.371 13.804 7.884 20.88 1.918 6.782-5.715 10.626-13.023 10.77-20.147m-8.521-20.354c2.63 1.334 5.358 2.511 7.869 4.042 3.839 2.341 6.019 5.717 6.04 10.424.07 15.786-5.18 28.65-19.681 36.582-.315.173-.388.789-.786 1.671 5.555 2.305 10.514-1.752 15.8-1.468-4.393 7.529-15.373 11.004-23.768 7.356-5.78-2.513-10.79-6.032-13.746-11.975-2.537-5.1-5.329-10.079-8.122-15.049-6.636-11.804.784-30.025 11.45-35.785 12.761-6.891 25.768-6.353 38.3 1.016 2.013 1.184 3.514 3.236 4.723 5.848l-17.917-4.398-.162 1.736m-11.479-81.443c.783-3.835 1.646-7.675 2.336-11.545.689-3.865 1.463-7.744 1.714-11.648.181-2.83 1.422-4.744 3.932-3.883 1.957.672 3.666 2.894 4.779 4.834.512.894-.557 2.801-1.096 4.175-2.245 5.724-4.561 11.421-6.984 17.462l5.37 3.44c.772-.503 1.504-.778 1.942-1.301 1.757-2.094 3.362-4.316 5.138-6.394 2.592-3.034 5.85-4.89 9.856-3.55 4.029 1.348 4.017 5.109 4.572 8.936-3.3 1.134-7.036-1.594-9.743 1.686-2.181 2.643-4.837 4.894-7.148 7.185 1.296 5.058 2.456 9.603 3.637 14.143.055.21.303.37.897 1.059 4.872-1.399 10.412-1.32 14.429-5.901.746-.85 2.947-1.296 3.933-.815.961.469 1.663 2.347 1.716 3.638.199 4.812-2.816 8.496-7.545 9.449-3.859.779-7.752 1.388-11.505 2.051-.428.998-.82 1.648-.994 2.352-2.216 9.003-6.807 12.545-15.698 12.068-2.518-.134-2.721-.389-4.79-6.584l12.391-3.394c.925-6.595-1.896-20.938-4.887-25.876-2.045-3.379-4.785-4.814-8.731-4.043-5.3 1.036-10.627 1.939-17.242 3.135.77-2.071.885-4.065 1.813-4.57 3.021-1.645 6.289-2.89 9.557-4.01 2.564-.879 5.27-1.343 8.351-2.099" fill="#000"/><path d="M177.341 163.11l15.284 1.749c-.369 6.001-2.975 7.223-12.451 6.138-9.523-1.091-11.136-4.314-8.72-17.459-.241-.41-.407-.922-.751-1.244-8.715-8.181-11.62-8.116-19.425.692-3.624 4.09-7.02 8.382-10.567 12.541-.897 1.053-1.977 1.95-2.974 2.919l-1.414-.65c.683-2.406.948-5.043 2.132-7.168 2.657-4.766 5.567-9.424 8.742-13.861 6.714-9.381 13.783-10.623 23.483-4.474.614.388 1.303.659 1.682.848 2.398-2.751 4.267-6.059 7.101-7.749 1.977-1.178 5.41-.648 7.957.019 5.43 1.424 7.86 5.162 7.666 11.593-1.862-.323-3.703-.394-5.344-1.004-1.35-.502-2.391-1.781-3.697-2.476-4.341-2.314-7.343-.736-7.737 4.104-.395 4.859-.616 9.733-.967 15.482m36.124 150.942c-5.145-1.152-4.911-6.563-8.192-9.675l-4.403 8.332c-5.57-.965-8.892-5.834-6.917-10.26 2.007-4.496 4.317-8.871 6.715-13.174 2.025-3.631 6.911-4.468 9.213-1.062 3.272 4.843 6.154 10.156 8.026 15.669 1.326 3.902-1.355 7.486-4.442 10.17" fill="#000"/><path d="M181.326 260.296c-3.981-.503-6.52 1.552-7.051 5.706-.438 3.423 1.859 7.014 4.696 7.341 3.678.425 7.241-2.999 7.647-7.351.308-3.296-1.475-5.215-5.292-5.696m14.317-.305c-1.755 10.272-5.133 18.53-13.972 23.534-4.032 2.283-8.071 2.278-12.06.002-6.907-3.938-12.192-9.502-15.295-16.803-4.163-9.797.935-19.599 11.514-22.803 8.913-2.699 22.914 2.024 28.022 9.813 1.255 1.915 1.345 4.593 1.791 6.257m38.678 8.589c.021-3.261-2.148-4.113-4.837-4.292-3.878-.258-7.392 1.993-7.312 4.609.1 3.311 3.551 7.237 6.301 7.167 2.857-.072 5.794-3.834 5.848-7.484m22.888-3.49c-.144 7.124-3.989 14.431-10.77 20.147-7.076 5.966-15.427 5.452-20.881-1.919-5.999-8.108-10.776-16.87-5.592-27.505 2.341-4.803 3.182-5.719 8.433-5.047 7.365.942 14.73 2.086 21.984 3.657 5.785 1.253 7.112 3.395 6.826 10.667" fill="#FFF"/><path d="M181.326 260.296c3.817.481 5.6 2.4 5.292 5.696-.406 4.352-3.969 7.776-7.647 7.351-2.837-.327-5.134-3.918-4.696-7.341.531-4.154 3.07-6.209 7.051-5.706m52.995 8.284c-.054 3.65-2.991 7.412-5.848 7.484-2.75.07-6.201-3.856-6.301-7.167-.08-2.616 3.434-4.867 7.312-4.609 2.689.179 4.858 1.031 4.837 4.292" fill="#000"/><path d="M138.455 160.627c2.657-4.766 5.566-9.424 8.742-13.861 6.714-9.38 13.782-10.622 23.483-4.474.614.39 1.302.659 1.682.849 2.398-2.751 4.267-6.061 7.101-7.749 1.976-1.179 5.41-.65 7.957.018 5.43 1.424 7.86 5.162 7.666 11.593-1.862-.323-3.703-.394-5.344-1.004-1.35-.503-2.391-1.78-3.697-2.476-4.341-2.314-7.343-.736-7.737 4.104-.395 4.859-.617 9.733-.967 15.482l15.284 1.749c-.369 6.001-2.976 7.223-12.451 6.138-9.524-1.091-11.136-4.312-8.72-17.459-.241-.41-.407-.922-.75-1.244-8.716-8.181-11.621-8.115-19.427.692-3.624 4.089-7.019 8.382-10.566 12.541-.898 1.053-1.978 1.951-2.974 2.919l-1.414-.65c.683-2.405.947-5.043 2.132-7.168m-4.96 63.021c-2.366-4.427 1.302-6.855 2.999-9.972 1.605-2.949-1.185-7.497 2.594-9.434 1.909 2.884 3.096 6.076 5.385 7.836 4.385 3.371 9.89 2.858 15.012 1.996 1.33-.224 3.423-2.859 3.227-4.076-1.156-7.181.888-13.611 4.66-20.478-8.662-2.438-16.231-5.674-23.446 1.875-1.114 1.166-4.242 1.208-6.118.664-3.32-.961-5.165-3.647-5.427-8.077 1.976-.794 4.173-2.455 6.327-2.402 7.158.176 9.479-1.265 10.807-7.641.909-4.374 1.835-8.761 3.109-13.036 1.381-4.632 1.939-4.732 8.546-2.78-1.16 3.215-2.367 6.359-3.429 9.553-1.076 3.24-2.009 6.528-3.135 10.222 2.651.697 4.815 1.102 6.86 1.836 3.706 1.334 7.518 2.536 10.962 4.395 4.298 2.321 4.69 4.088 2.485 8.504-1.214 2.432-2.865 4.65-4.379 6.924-1.69 2.54-2.665 5.102-1.51 7.191 6.475-1.096 12.226-2.5 18.051-2.94 6.654-.504 10.258 5.837 15.908 8.844l.235-20.52c-4.298.216-7.956.274-11.589.608-6.982.645-8.099-.167-9.844-7.892 2.862-2.669 6.258-2.182 9.736-1.537 3.574.662 7.174 1.177 11.01 1.798.798-14.005 1.202-27.189 2.453-40.291.556-5.831-1.508-9.724-5.927-12.545-2.872-1.832-6.193-3.46-9.506-4.01-17.445-2.9-33.634.832-46.11 13.411-9.843 9.926-16.268 22.726-19.41 36.453-1.976 8.631-2.986 17.815-2.42 26.623.377 5.883.931 11.762 1.608 17.631 2.254 1.842 5.55 2.497 10.276 1.267m135.449-29.386c-3.859.777-7.752 1.388-11.505 2.051-.429.997-.82 1.646-.994 2.351-2.217 9.003-6.808 12.545-15.698 12.069-2.519-.135-2.721-.391-4.79-6.584l12.39-3.395c.926-6.595-1.895-20.937-4.885-25.877-2.046-3.378-4.787-4.812-8.733-4.041-5.3 1.035-10.627 1.939-17.241 3.133.769-2.069.885-4.063 1.812-4.568 3.022-1.645 6.29-2.891 9.558-4.011 2.564-.878 5.27-1.343 8.351-2.099.783-3.835 1.645-7.674 2.336-11.545.689-3.865 1.462-7.744 1.713-11.648.182-2.83 1.422-4.744 3.933-3.883 1.957.672 3.667 2.895 4.778 4.834.513.895-.556 2.801-1.095 4.175-2.245 5.725-4.561 11.421-6.985 17.462 2.148 1.376 3.738 2.394 5.37 3.441.773-.504 1.504-.779 1.943-1.302 1.757-2.094 3.362-4.317 5.138-6.394 2.591-3.034 5.85-4.89 9.856-3.55 4.028 1.348 4.017 5.11 4.571 8.937-3.3 1.133-7.035-1.595-9.742 1.685-2.182 2.644-4.838 4.896-7.148 7.186 1.296 5.057 2.456 9.602 3.636 14.142.056.21.304.37.898 1.058 4.872-1.397 10.412-1.318 14.429-5.899.746-.851 2.947-1.296 3.933-.816.961.469 1.662 2.348 1.716 3.639.199 4.811-2.816 8.495-7.545 9.449m10.342 4.809c4.51-1.315 9.933 2.658 14.128-2.118-.173-8.783-.731-17.57-3.479-25.871-6.766-.791-12.454 3.564-19.476 1.537 2.061-8.532 12.083-6.675 15.398-12.646-1.626-9.215-6.267-15.654-15.309-21.326l-6.186 6.521c-5.647-3.584-2.121-7.521-1.786-10.838-10.072-6.082-20.542-7.226-31.897-5.698.201 3.442.407 6.144.503 8.849.159 4.453.127 8.915.406 13.359.195 3.116-.754 5.148-4.136 6.113-5.902-7.748-.631-17.234-4.833-26.104-3.191 3.03-6.139 5.563-8.736 8.418-1.165 1.28-2.192 3.163-2.31 4.841-.791 11.164-1.337 22.345-1.918 33.523-.124 2.387-.068 4.783-.104 7.848 2.931-.685 4.792-1.252 6.698-1.539 5.149-.774 10.307-1.496 15.479-2.097 2.146-.249 4.262.394 4.16 2.981-.088 2.248-.995 4.483-3.861 4.637-1.732.094-3.489-.193-5.216-.058-5.626.436-11.374.496-15.865 3.726l-.287 25.129c4.79-2.072 8.861-3.746 12.857-5.584 4.892-2.249 9.019-1.688 12.727 2.503 2.257 2.552 5.012 4.663 8.034 7.421l22.813-14.499c3.873 3.642 3.875 6.975-.901 10.207 0 0 20.029-3.509 26.208-9.917-11.933-1.441-13.213-2.354-13.111-9.318" fill="#FF499E"/></g></svg>