<?xml version="1.0" encoding="UTF-8"?>
<svg width="400px" height="450px" viewBox="0 0 400 450" version="1.1" xmlns="http://www.w3.org/2000/svg" xmlns:xlink="http://www.w3.org/1999/xlink">
    <title>mars-attack</title>
    <g id="mars-attack" stroke="none" stroke-width="1" fill="none" fill-rule="evenodd">
        <g id="LOGOS-Y-GRAFICAMesa-de-trabajo-1-copia-7" transform="translate(35.500000, 11.000000)" fill-rule="nonzero">
            <path d="M63.94,444.08 C56.15,441.6 55.75,435.4 55.5,429.53 C55.28,424.38 55.99,419.18 56.29,414 C56.4,412 55.87,409.66 56.74,408.11 C60.32,401.75 58.15,395.52 56.41,389.56 C48.8,363.56 40.41,337.79 33.06,311.72 C23.65,278.23 14.85,244.56 6.06,210.89 C1.32,192.77 -5.32907052e-15,174.27 0.11,155.53 C0.275228409,137.395902 3.04003439,119.379201 8.32,102.03 C19.5,64.62 43.18,37.34 76.64,18.03 C97.1412412,6.01988864 120.634518,0.085876685 144.38,0.92 C155.55,1.25 166.79,0.59 177.91,1.49 C203.91,3.59 229.8,6.3 254.55,15.34 C276.28,23.28 294.14,35.88 305.1,56.91 C306.424361,59.5881306 308.022913,62.1216843 309.87,64.47 C323.55,81.05 328.29,100.78 328.58,121.47 C328.91,145.55 328.21,169.67 327.1,193.73 C326.16,214.15 320.46,233.86 315.93,253.73 C308.62,285.73 298.49,316.93 287.93,348.01 C283.62,360.73 279.93,373.66 279.65,387.24 C279.58,390.37 280.45,393.51 280.65,396.66 C281,401.1 282.21,405.8 281.2,409.94 C279.31,417.65 280.1,425.16 280.56,432.8 C280.93,439.03 280.41,440.33 276.21,445.24 C270.39,439 262.63,441.34 255.57,441.15 C233.22,440.53 210.85,440.46 188.49,440.15 C171.86,439.95 155.23,439.84 138.6,439.54 C128.92,439.36 119.26,438.86 109.6,438.54 C98.67,438.19 87.75,437.78 76.82,437.68 C74.82,437.68 72.82,438.82 70.93,439.77 C68.6,441 66.39,442.55 63.94,444.08 Z M218.19,336.81 C217.81,340.4 217.29,343.81 217.19,347.18 C216.91,353.18 217.05,359.12 216.66,365.06 C216.3,370.72 213.87,374.96 207.82,376.5 C202.33,377.91 196.93,379.68 190.9,381.5 C191.49,385.28 192.05,388.86 192.69,393.01 L267.95,393.87 C270.339818,375.718885 274.554486,357.855127 280.53,340.55 C291.36,309.81 299.53,278.36 307.14,246.67 C314.667898,215.228091 318.417731,183.000346 318.31,150.67 C318.31,140.25 318.99,129.8 318.31,119.42 C317.57,107.29 316.67,94.92 310.37,84.07 C304.64,74.2 298.45,64.57 292.11,55.07 C282.27,40.32 267.72,31.89 251.4,26.36 C228.69,18.65 205.05,15.49 181.29,13.51 C169.66,12.51 157.95,12.42 146.29,12.41 C134.37,12.41 122.41,12.83 110.85,16.3 C87.8305815,23.1260548 66.9749832,35.8054868 50.32,53.1 C38.71,65.1 28.47,78.1 22.55,94.22 C9.49,129.73 6.85,166.06 15.11,202.73 C22.58,235.93 31.66,268.79 40.46,301.68 C48.56,331.92 58.63,361.68 64.16,392.55 C64.23,392.96 64.71,393.3 65,393.67 C91.68,395.98 118.3,393.67 145.38,393.33 L145.48,384.81 C141.68,384.53 138.01,384.35 134.35,383.96 C128.42,383.32 123.01,381.3 119.94,375.89 C115.49,368.07 114.94,359.11 116.28,350.73 C117.54,343.08 118.5,335.73 117.28,327.89 C103.58,322.19 102.83,309.03 100.08,296.6 C97.92,297.36 96.14,297.6 94.79,298.52 C89,302.41 83.19,301.32 76.99,299.52 C70.43,297.66 67.74,293.33 67.12,287.1 C66.65,282.4 65.88,277.69 65.95,273 C66.04,266.57 66.8,260.15 67.28,253.73 C67.62,249.32 70.48,247.86 74.41,247.79 C77.3,247.79 80.2,247.85 83.23,247.88 C82.29,237.45 81.35,227.38 80.5,217.29 C78.36,191.68 82.57,167.71 95.5,144.85 C106.03,126.19 121.4,116.26 141.64,113.48 C156.71,111.4 168.83,115.48 174.39,130.38 C174.55,130.82 174.99,131.15 175.69,132.02 L176.91,130.17 C183.34,120.29 192.73,116.68 204.21,116.3 C213.45,116.01 221.78,118.61 230.27,121.6 C243.97,126.41 252.71,135.8 257.27,149.34 C258.27,152.39 258.93,155.6 260.08,158.61 C266.88,176.39 267.55,194.89 267,213.61 C266.59,227.8 262.38,240.96 257.15,253.94 C256.1,256.57 255.32,259.31 254.07,263 C259.26,263.06 263.2,263.15 267.13,263.14 C270.61,263.14 272.91,264.66 273.43,268.14 C273.987418,271.561307 274.321458,275.015281 274.43,278.48 C274.53,286.71 274.21,294.88 270.34,302.48 C268.56,305.99 266.21,308.9 262.34,309.71 C255.97,311.03 249.57,311.71 243.55,308.03 C241.483467,306.992298 239.348504,306.096883 237.16,305.35 C237.1,310.62 236.97,314.82 237.02,319.02 C237.13,329.51 232.75,334.64 222.45,336.02 C221.45,336.21 220.48,336.41 218.19,336.81 L218.19,336.81 Z M170.77,227.2 C169.03,225.04 167.9,223.79 166.94,222.42 C155.27,205.83 148.51,204.68 132.94,213.78 C127.13,217.18 121.64,218.78 115.33,217.45 C111.6,216.68 108,215.25 104.38,214.13 C101.65,215.13 102.38,220.13 98.1,219.47 C95.73,215.04 99.4,212.62 101.1,209.47 C102.7,206.47 99.91,201.97 103.69,200.03 C105.6,202.92 106.79,206.11 109.08,207.87 C113.46,211.24 118.97,210.73 124.08,209.87 C125.41,209.64 127.5,207.01 127.31,205.79 C126.15,198.61 128.19,192.18 131.97,185.31 C123.3,182.87 115.74,179.64 108.52,187.19 C107.41,188.35 104.28,188.39 102.4,187.85 C99.08,186.85 97.24,184.2 96.98,179.77 C98.98,178.98 101.15,177.32 103.3,177.37 C110.46,177.55 112.78,176.11 114.11,169.73 C115.02,165.36 115.94,160.97 117.22,156.73 C118.6,152.09 119.16,151.99 125.77,153.94 C124.6,157.16 123.4,160.3 122.34,163.5 C121.28,166.7 120.34,170.03 119.2,173.72 C121.85,174.42 124.02,174.82 126.06,175.56 C129.831919,176.744427 133.509035,178.211931 137.06,179.95 C141.36,182.27 141.75,184.04 139.55,188.46 C138.228705,190.851594 136.766115,193.162353 135.17,195.38 C133.48,197.92 132.5,200.48 133.66,202.57 C140.13,201.47 145.89,200.07 151.66,199.63 C158.31,199.13 161.92,205.47 167.57,208.47 L167.8,187.95 C163.5,188.17 159.8,188.23 156.21,188.56 C149.21,189.21 148.12,188.39 146.37,180.67 C149.23,178 152.63,178.49 156.11,179.13 C159.59,179.77 163.28,180.31 167.11,180.93 C167.9,166.93 168.31,153.74 169.56,140.64 C170.12,134.81 168.05,130.92 163.63,128.1 C160.757673,126.154018 157.529199,124.79466 154.13,124.1 C136.68,121.21 120.49,124.94 108.02,137.52 C98.17,147.44 91.75,160.24 88.61,173.97 C86.5347828,182.681998 85.7198187,191.646602 86.19,200.59 C87.2762796,215.674354 89.12867,230.693736 91.74,245.59 C93.4,255.53 96.43,265.26 99.13,275 C100.13,278.75 102.25,282.19 103.45,285.91 C105.98,293.68 107.74,301.74 110.77,309.31 C113.4,315.87 118.43,320.01 126.25,320.1 C131.4,320.16 136.54,321.22 141.25,321.77 C147.62,330.55 144.55,340.09 145.54,349.43 L151.54,351.43 C152.14,343.95 152.54,337.04 153.39,330.18 C153.54,329 155.56,328.05 156.72,326.99 C157.47,328.15 158.65,329.22 158.87,330.47 C159.150835,332.684909 159.231161,334.920648 159.11,337.15 C159.11,342.32 159,347.5 158.94,352.97 L166.42,353.97 C166.49,347.97 166.42,342.55 166.67,337.14 C166.763525,334.913696 167.233507,332.71932 168.06,330.65 C168.650897,329.393111 169.80645,328.493935 171.17,328.23 C172.05,328.23 173.3,329.87 173.74,331.03 C174.25,332.36 174.06,333.96 174.14,335.45 C174.49,341.8 174.83,348.16 175.14,354.62 L179.66,354.62 C179.66,350.2 179.59,346 179.85,341.83 C180.1,337.91 179.17,333.45 184.92,329.83 C186.43,338.61 183.35,346.9 186.35,354.44 C191.35,353.59 191.51,353.6 191.99,349.44 C192.63,343.76 192.79,338.02 193.62,332.37 C194.5,326.37 195.48,325.73 201.31,325.63 C208.01,325.51 214.71,325.33 221.41,325.38 C224.64,325.38 227.04,324.23 227.28,321.02 C227.94,312.09 233.28,303.42 227.77,293.31 C233.77,293.16 234.15,289.09 235.2,285.23 C236.03,282.14 237.6,279.23 238.77,276.23 C243.55,263.96 248.34,251.7 253.04,239.4 C253.512924,237.893559 253.84764,236.347169 254.04,234.78 C250.29,229.23 240.43,232.19 240.84,223.02 C246.29,219.87 251.23,224.19 256.78,223.28 L257,204.22 C245.07,202.78 243.79,201.87 243.89,194.9 C248.4,193.59 253.82,197.56 258.02,192.79 C257.85,184 257.29,175.21 254.54,166.91 C247.77,166.12 242.09,170.48 235.06,168.45 C237.12,159.92 247.15,161.77 250.46,155.8 C248.84,146.59 244.19,140.15 235.15,134.48 L229,141 C223.35,137.42 226.87,133.48 227.21,130.16 C217.14,124.08 206.67,122.94 195.31,124.46 C195.51,127.91 195.72,130.61 195.82,133.31 C195.98,137.76 195.94,142.23 196.22,146.67 C196.42,149.79 195.47,151.82 192.09,152.78 C186.18,145.04 191.46,135.55 187.25,126.68 C184.06,129.68 181.11,132.24 178.52,135.1 C177.263499,136.432544 176.455719,138.125037 176.21,139.94 C175.42,151.1 174.87,162.28 174.29,173.46 C174.17,175.85 174.22,178.25 174.19,181.31 C177.12,180.63 178.98,180.06 180.88,179.77 C186.03,179 191.19,178.27 196.36,177.67 C198.51,177.43 200.62,178.07 200.52,180.67 C200.43,182.91 199.52,185.15 196.66,185.3 C194.93,185.4 193.17,185.11 191.45,185.24 C185.82,185.68 180.07,185.74 175.58,188.97 L175.29,214.1 C180.08,212.03 184.15,210.35 188.15,208.52 C193.04,206.27 197.15,206.83 200.88,211.02 C203.13,213.57 205.88,215.68 208.88,218.44 L231.69,203.94 C235.57,207.58 235.57,210.94 230.79,214.15 C226.48,217.06 221.79,219.37 217.23,221.96 C208.14,227.13 206.07,226.87 198.55,219.54 C197.48,218.54 196.66,217.12 195.44,216.34 C194.22,215.56 192.5,214.76 191.44,215.17 C184.31,218 175.64,218.22 170.77,227.2 Z M164.08,411.93 L67.81,416.87 C67.99,418.57 68.05,420.01 68.3,421.42 C69.76,429.73 70.89,430.49 79.53,430.33 C98.37,429.99 117.216667,429.73 136.07,429.55 C152.19,429.39 168.31,429.43 184.43,429.31 C202.54,429.17 220.65,428.86 238.76,428.77 C249.11,428.77 259.46,428.98 269.98,429.1 C271.18,423.64 272.21,419.16 268.81,414.2 L188.61,413.28 L184.9,419.28 L175.56,419.74 C169.91,420 165,419.12 164.08,411.93 L164.08,411.93 Z M166.32,359.93 C166.269539,362.457839 166.028859,364.978294 165.6,367.47 C165.25,368.94 163.93,370.18 163.04,371.53 C161.67,370.35 159.72,369.44 159.04,367.94 C157.94,365.54 157.67,362.75 157.04,359.88 L152.77,359.88 L149.77,370.88 C145.9,366.68 145.9,366.68 145.3,358.77 C136.83,357.4 135.83,351.14 136.38,343.77 C136.73,339.17 136.54,334.52 136.6,329.2 L127.6,330.79 C127.34,334.27 127.16,337.22 126.89,340.17 C126.19,347.85 125.22,355.51 124.8,363.17 C124.34,371.44 127.7,374.97 136.01,375.75 C137.01,375.84 138.01,375.81 139.01,375.9 C159.48,377.9 179.67,375.23 199.8,371.98 C209.96,370.35 210.19,370.21 211.5,360.12 C212.5,352.57 213.4,344.92 212.15,338.12 L199.15,332.55 C197.15,336.48 198.15,340.71 197.81,344.78 C197.54304,348.702083 196.988212,352.599245 196.15,356.44 C195.41,359.67 193.22,361.44 189.54,360.97 C187.364338,360.799742 185.180444,360.759671 183,360.85 C180.56,364.4 182.11,369.01 176.67,370.44 L171.42,360 L166.32,359.93 Z M66.66,404.46 C66.94,410.34 67.35,410.74 73.94,410.46 C101.94,409.32 129.94,408.15 157.94,406.95 C161.12,406.81 164.29,406.71 167.43,406.59 L170.43,413.22 L180.63,413.34 C181.45,410.85 181.54,407.96 182.91,407.1 C184.28,406.24 186.91,407.39 189.05,407.61 C189.78,407.69 190.53,407.61 191.27,407.61 C211.65,407.86 232.02,408.14 252.39,408.33 C257.6,408.33 262.81,408.14 268.02,408.04 L268.14,406.04 C265.62,405.78 263.14,405.34 260.6,405.29 C234.8,404.79 208.996667,404.323333 183.19,403.89 C170.81,403.68 158.42,403.35 146.04,403.32 C130.4,403.27 114.76,403.39 99.12,403.6 C88.31,403.77 77.49,404.19 66.66,404.48 L66.66,404.46 Z M241.12,292 L266.38,288.87 L266.6,269.66 L251.23,268.66 L247.68,276.51 C263.08,275.19 263.08,275.19 265.58,278.78 C263.83,281.78 261.26,283.04 257.7,283.26 C253.78,283.5 249.91,284.55 246.02,285.26 C242.61,285.79 240.82,287.69 241.12,292 Z M74.9,279.59 C81.68,279.42 87.67,280.29 93.96,278.24 C92.96,274.93 92.12,272.18 91.36,269.7 L74.02,269.5 C74.32,272.92 74.57,275.75 74.9,279.59 Z M243.55,297.09 L243.18,299 C243.98,299.87 244.72,301.43 245.59,301.51 C250.76,301.99 255.99,302.57 261.14,302.2 C263.98,302 265.52,299.38 264.66,295.48 L243.55,297.09 Z M95.9,287.46 C86.64,286.11 80.71,286.46 75.9,288.52 C79.8,291.52 82.74,292.13 90.05,292.83 C94.21,293.23 95.16,291.12 95.9,287.46 Z M74.07,262.74 L87.26,262.89 C88.09,259.99 86.73,258.55 84.62,258.16 C81.31,257.56 77.93,257.4 74.14,257.01 L74.07,262.74 Z M180.22,387 L167.05,391.42 C167.18,392.04 167.3,392.66 167.42,393.27 L181.42,392.77 C181,390.8 180.69,389.27 180.22,387 Z" id="Shape" fill="#000000"></path>
            <path d="M218.19,336.81 C220.48,336.41 221.45,336.21 222.42,336.08 C232.72,334.71 237.1,329.58 236.99,319.08 C236.99,314.88 237.07,310.68 237.13,305.41 C239.318504,306.156883 241.453467,307.052298 243.52,308.09 C249.52,311.74 255.94,311.09 262.31,309.77 C266.19,308.96 268.54,306.05 270.31,302.54 C274.18,294.93 274.5,286.76 274.4,278.54 C274.291458,275.075281 273.957418,271.621307 273.4,268.2 C272.88,264.71 270.58,263.2 267.1,263.2 C263.17,263.2 259.23,263.12 254.04,263.06 C255.29,259.37 256.04,256.63 257.12,254 C262.35,241 266.56,227.86 266.97,213.67 C267.52,194.94 266.85,176.44 260.05,158.67 C258.9,155.67 258.28,152.45 257.24,149.4 C252.65,135.86 243.91,126.47 230.24,121.66 C221.75,118.66 213.42,116.07 204.18,116.36 C192.7,116.74 183.31,120.36 176.88,130.23 L175.66,132.08 C174.96,131.21 174.52,130.88 174.36,130.44 C168.8,115.51 156.68,111.44 141.61,113.54 C121.37,116.32 106,126.25 95.47,144.91 C82.57,167.77 78.36,191.74 80.47,217.35 C81.32,227.44 82.26,237.51 83.2,247.94 C80.2,247.94 77.27,247.81 74.38,247.85 C70.45,247.92 67.59,249.38 67.25,253.79 C66.77,260.21 66.01,266.63 65.92,273.06 C65.85,277.75 66.62,282.46 67.09,287.16 C67.71,293.39 70.4,297.72 76.96,299.58 C83.16,301.34 88.96,302.43 94.76,298.58 C96.11,297.68 97.89,297.42 100.05,296.66 C102.8,309.09 103.55,322.25 117.25,327.95 C118.45,335.77 117.49,343.14 116.25,350.79 C114.88,359.17 115.46,368.13 119.91,375.95 C122.98,381.36 128.39,383.38 134.32,384.02 C137.98,384.41 141.65,384.59 145.45,384.87 L145.35,393.39 C118.27,393.69 91.65,396.04 64.97,393.73 C64.68,393.36 64.2,393.02 64.13,392.61 C58.6,361.7 48.53,331.98 40.43,301.74 C31.63,268.85 22.55,235.99 15.08,202.79 C6.82,166.12 9.46,129.79 22.52,94.28 C28.44,78.2 38.68,65.14 50.29,53.16 C66.9449832,35.8654868 87.8005815,23.1860548 110.82,16.36 C122.38,12.89 134.34,12.45 146.26,12.4693721 C157.94,12.4693721 169.65,12.6 181.26,13.57 C205.02,15.57 228.66,18.71 251.37,26.42 C267.69,31.95 282.24,40.42 292.08,55.13 C298.42,64.63 304.61,74.26 310.34,84.13 C316.64,94.98 317.54,107.35 318.28,119.48 C318.91,129.86 318.21,140.31 318.28,150.73 C318.387731,183.060346 314.637898,215.288091 307.11,246.73 C299.52,278.42 291.33,309.87 280.5,340.61 C274.524486,357.915127 270.309818,375.778885 267.92,393.93 L192.66,393.07 C192.02,388.92 191.46,385.34 190.87,381.56 C196.87,379.77 202.3,378 207.79,376.56 C213.79,375.02 216.27,370.78 216.63,365.12 C217.02,359.18 216.88,353.2 217.16,347.24 C217.29,343.78 217.81,340.4 218.19,336.81 Z M246.12,43.54 C245.978207,42.9838553 245.74866,42.4538713 245.44,41.97 C244.766025,41.2298261 244.018887,40.5597467 243.21,39.97 C231.21,31.33 217.53,27.11 203.06,25.25 C187.18,23.25 171.27,24 155.55,26.51 C141.13,28.81 126.42,29.56 112.55,34.82 C89.36,43.58 69.99,57.21 55.68,77.66 C52.21,82.66 52.23,82.71 56.58,87.84 C57.4436028,87.5029226 58.2881891,87.1190197 59.11,86.69 C65.813104,82.8303792 73.2619655,80.4440163 80.96,79.69 C91.47,78.55 95.85,84.69 91.83,94.47 C84.5342894,111.48627 66.5328011,121.290985 48.28,118.19 C47.0660821,118.160428 45.8524895,118.261002 44.66,118.49 C44.34,121.49 43.95,124.38 43.76,127.27 C43.31,134.27 43.52,141.27 42.48,148.1 C39.23,169.39 40.48,190.21 47.75,210.54 C49.69,215.94 52.02,221.2 54.17,226.54 C53.72,220.67 51.96,215.28 50.66,209.78 C47.17,195.02 43.95,180.16 44.72,164.87 C45.3,153.47 46.51,142.1 47.49,130.72 C47.65,128.82 48.01,126.94 48.31,124.9 C57.8254492,126.797906 67.7058945,125.233916 76.17,120.49 C88.34,114.02 97.17,104.41 99.57,90.42 C101.36,80.18 95.14,72.8 84.86,72.31 C80.22,72.08 75.54,72.7 70.86,72.94 C73.86,67.24 81.77,58.94 89.05,55 C107.96,44.74 127.55,36.39 149.42,35 C155.86,34.59 162.31,34.29 168.73,33.65 C194.6,31.11 219.79,33.52 244.01,43.5 C244.706837,43.6243784 245.41895,43.6378781 246.12,43.54 L246.12,43.54 Z M243.48,56.46 C255.86,60.93 266.78,68.93 280.2,70.35 C269,63.07 257.89,55.42 243.48,56.46 Z M293.48,96.82 C284.79,89.57 279.03,78.82 267.3,75.2 C275.64,82.84 282,92.9 293.45,96.82 L293.48,96.82 Z M285.48,108.6 C284.85,109.73 284.32,110.28 284.48,110.52 C288.826667,119.506667 293.216667,128.466667 297.65,137.4 C296.7,126.52 293.9,116.51 285.45,108.6 L285.48,108.6 Z M292.22,160.53 C292.84,169.16 296.22,175.97 298.4,183.06 C300.48,172.66 298.44,164.21 292.19,160.53 L292.22,160.53 Z" id="Shape" fill="#FFFFFF"></path>
            <path d="M170.77,227.2 C175.64,218.2 184.31,218.02 191.48,215.15 C192.48,214.74 194.3,215.59 195.48,216.32 C196.66,217.05 197.48,218.47 198.59,219.52 C206.11,226.85 208.18,227.11 217.27,221.94 C221.8,219.35 226.52,217.04 230.83,214.13 C235.61,210.9 235.61,207.56 231.73,203.92 L208.92,218.42 C205.92,215.66 203.14,213.55 200.92,211 C197.21,206.81 193.08,206.25 188.19,208.5 C184.19,210.33 180.12,212.01 175.33,214.08 L175.62,188.95 C180.11,185.72 185.86,185.66 191.49,185.22 C193.21,185.09 194.97,185.38 196.7,185.28 C199.57,185.13 200.47,182.89 200.56,180.65 C200.66,178.06 198.56,177.42 196.4,177.65 C191.23,178.25 186.07,178.98 180.92,179.75 C179.02,180.04 177.16,180.61 174.23,181.29 C174.23,178.23 174.23,175.83 174.33,173.44 C174.91,162.26 175.46,151.08 176.25,139.92 C176.495719,138.105037 177.303499,136.412544 178.56,135.08 C181.15,132.22 184.1,129.69 187.29,126.66 C191.5,135.53 186.22,145.02 192.13,152.76 C195.51,151.76 196.46,149.76 196.26,146.65 C195.98,142.21 196.02,137.74 195.86,133.29 C195.76,130.59 195.55,127.89 195.35,124.44 C206.71,122.92 217.18,124.06 227.25,130.14 C226.91,133.46 223.39,137.4 229.04,140.98 L235.22,134.46 C244.22,140.13 248.91,146.57 250.53,155.78 C247.22,161.78 237.19,159.9 235.13,168.43 C242.13,170.43 247.84,166.1 254.61,166.89 C257.36,175.19 257.92,183.98 258.09,192.77 C253.89,197.54 248.47,193.57 243.96,194.88 C243.86,201.88 245.14,202.76 257.07,204.2 L256.85,223.26 C251.3,224.17 246.36,219.85 240.91,223 C240.5,232.17 250.36,229.21 254.11,234.76 C253.91764,236.327169 253.582924,237.873559 253.11,239.38 C248.41,251.68 243.62,263.94 238.84,276.21 C237.67,279.21 236.1,282.11 235.27,285.21 C234.27,289.07 233.84,293.14 227.84,293.29 C233.32,303.4 228.01,312.07 227.35,321 C227.11,324.21 224.71,325.38 221.48,325.36 C214.78,325.31 208.08,325.49 201.38,325.61 C195.55,325.71 194.57,326.34 193.69,332.35 C192.86,338 192.69,343.74 192.06,349.42 C191.58,353.61 191.45,353.6 186.42,354.42 C183.42,346.88 186.5,338.59 184.99,329.81 C179.24,333.47 180.17,337.93 179.92,341.81 C179.66,345.98 179.78,350.18 179.73,354.6 L175.21,354.6 C174.86,348.14 174.52,341.78 174.21,335.43 C174.13,333.94 174.32,332.34 173.81,331.01 C173.37,329.85 172.12,328.21 171.24,328.21 C169.87645,328.473935 168.720897,329.373111 168.13,330.63 C167.303507,332.69932 166.833525,334.893696 166.74,337.12 C166.5,342.53 166.56,347.95 166.49,353.95 L159.01,352.95 C159.07,347.48 159.16,342.3 159.18,337.13 C159.301161,334.900648 159.220835,332.664909 158.94,330.45 C158.72,329.2 157.54,328.13 156.79,326.97 C155.63,328.03 153.61,328.97 153.46,330.16 C152.61,337.02 152.21,343.93 151.61,351.41 L145.61,349.41 C144.61,340.07 147.69,330.53 141.32,321.75 C136.65,321.2 131.51,320.14 126.32,320.08 C118.5,319.99 113.47,315.85 110.84,309.29 C107.84,301.72 106.05,293.66 103.52,285.89 C102.32,282.17 100.25,278.73 99.2,274.98 C96.5,265.24 93.47,255.51 91.81,245.57 C89.19867,230.673736 87.3462796,215.654354 86.26,200.57 C85.7898187,191.626602 86.6047828,182.661998 88.68,173.95 C91.82,160.22 98.24,147.42 108.09,137.5 C120.56,124.92 136.75,121.19 154.2,124.08 C157.599199,124.77466 160.827673,126.134018 163.7,128.08 C168.12,130.9 170.19,134.79 169.63,140.62 C168.38,153.72 167.97,166.91 167.18,180.91 C163.34,180.29 159.74,179.78 156.18,179.11 C152.62,178.44 149.3,177.98 146.44,180.65 C148.19,188.37 149.3,189.19 156.28,188.54 C159.92,188.21 163.57,188.15 167.87,187.93 L167.64,208.45 C161.99,205.45 158.38,199.11 151.73,199.61 C145.91,200.05 140.15,201.45 133.73,202.55 C132.57,200.46 133.55,197.9 135.24,195.36 C136.836115,193.142353 138.298705,190.831594 139.62,188.44 C141.82,184.02 141.43,182.25 137.13,179.93 C133.579035,178.191931 129.901919,176.724427 126.13,175.54 C124.13,174.8 121.92,174.4 119.27,173.7 C120.4,170.01 121.33,166.7 122.41,163.48 C123.49,160.26 124.67,157.14 125.84,153.92 C119.23,151.97 118.67,152.07 117.29,156.71 C116.01,160.98 115.09,165.37 114.18,169.71 C112.85,176.09 110.53,177.53 103.37,177.35 C101.22,177.35 99.02,178.96 97.05,179.75 C97.31,184.18 99.15,186.87 102.47,187.83 C104.35,188.37 107.47,188.33 108.59,187.17 C115.81,179.62 123.37,182.85 132.04,185.29 C128.26,192.16 126.22,198.59 127.38,205.77 C127.57,206.99 125.48,209.62 124.15,209.85 C119.03,210.71 113.52,211.22 109.15,207.85 C106.86,206.09 105.67,202.9 103.76,200.01 C99.98,201.95 102.76,206.5 101.17,209.45 C99.47,212.57 95.8,214.99 98.17,219.45 C102.42,220.07 101.72,215.08 104.45,214.11 C108.07,215.23 111.67,216.66 115.4,217.43 C121.71,218.72 127.2,217.16 133.01,213.76 C148.58,204.66 155.34,205.81 167.01,222.4 C167.9,223.79 169,225 170.77,227.2 Z M133.37,291.05 C127.54,293.93 122.55,290.31 117.11,291.22 C117.7,292.64 117.82,293.77 118.45,294.31 C123.23,298.41 128.57,300.31 134.96,298.52 C142.4,296.42 147.62,291.73 152.9,286.14 C160.208966,278.648292 164.989183,269.056385 166.57,258.71 C167.78,251.06 165.37,245.05 159.24,240.42 C155.9,237.89 152.03,235.8 149.37,232.68 C139.18,220.74 119.03,224.58 111.23,233.28 C108.76,236.03 106.51,238.92 107.35,243.44 L111.69,241.81 C102.27,264.42 115.22,280.86 133.37,291.05 L133.37,291.05 Z M213.29,240.56 C213.35,239.98 213.4,239.4 213.45,238.82 L231.37,243.22 C230.426846,240.836159 228.780587,238.795775 226.65,237.37 C214.12,230 201.11,229.46 188.35,236.37 C177.68,242.14 170.26,260.37 176.9,272.16 C179.69,277.16 182.48,282.16 185.02,287.21 C188.02,293.15 193.02,296.67 198.77,299.21 C207.16,302.86 218.14,299.39 222.53,291.86 C217.25,291.57 212.29,295.63 206.73,293.33 C207.13,292.44 207.2,291.83 207.52,291.65 C222.02,283.72 227.27,270.86 227.2,255.07 C227.29445,250.750869 224.982906,246.736488 221.2,244.65 C218.65,243.07 215.92,241.89 213.29,240.56 L213.29,240.56 Z M201.81,159.11 C198.73,159.87 196.03,160.33 193.46,161.21 C190.168417,162.277251 186.970831,163.615153 183.9,165.21 C182.98,165.72 182.9,167.71 182.09,169.78 C188.71,168.59 194.03,167.68 199.33,166.65 C203.33,165.88 206.02,167.31 208.07,170.65 C211.07,175.59 213.88,189.93 212.95,196.53 L200.56,200 C202.63,206.19 202.83,206.45 205.35,206.58 C214.24,207.06 218.83,203.52 221.05,194.52 C221.323256,193.709208 221.657546,192.920284 222.05,192.16 C225.81,191.5 229.7,190.89 233.56,190.11 C238.12979,189.368148 241.391305,185.28044 241.1,180.66 C241.1,179.37 240.35,177.49 239.39,177.03 C238.02419,176.616452 236.541899,176.921187 235.45,177.84 C231.45,182.42 225.9,182.34 221.03,183.74 C220.43,183.05 220.18,182.89 220.13,182.68 C218.95,178.14 217.79,173.6 216.49,168.54 C218.994466,166.266915 221.380922,163.867108 223.64,161.35 C226.35,158.07 230.08,160.8 233.38,159.67 C232.83,155.84 232.84,152.08 228.81,150.73 C224.78,149.38 221.55,151.25 218.95,154.28 C217.18,156.36 215.57,158.58 213.82,160.68 C213.212168,161.197747 212.539925,161.634705 211.82,161.98 L206.45,158.54 C208.88,152.54 211.19,146.8 213.45,141.08 C213.99,139.7 215.06,137.79 214.54,136.9 C213.43,134.96 211.72,132.74 209.77,132.07 C207.25,131.21 206.01,133.07 205.83,135.95 C205.477965,139.862215 204.907071,143.75164 204.12,147.6 C203.46,151.44 202.6,155.28 201.81,159.11 L201.81,159.11 Z M141.95,158.93 C142.3,153.18 142.52,148.31 142.95,143.45 C143.38,138.59 146.35,137.03 150.69,139.34 C152,140.04 153.04,141.34 154.39,141.82 C156.137537,142.307969 157.924309,142.64257 159.73,142.82 C159.93,136.38 157.49,132.65 152.07,131.22 C149.52,130.55 146.07,130.03 144.07,131.22 C141.23,132.91 139.36,136.22 136.97,138.97 C136.393428,138.720684 135.832411,138.436835 135.29,138.12 C125.58,131.98 118.52,133.22 111.8,142.6 C108.632018,147.05443 105.714181,151.681572 103.06,156.46 C101.88,158.58 101.61,161.22 100.93,163.63 L102.34,164.28 C103.34,163.28 104.42,162.41 105.34,161.36 C108.88,157.2 112.28,152.91 115.9,148.82 C123.71,140.01 126.61,139.94 135.33,148.13 C135.635389,148.507189 135.88773,148.924392 136.08,149.37 C133.66,162.51 135.28,165.74 144.8,166.83 C154.32,167.92 156.88,166.69 157.25,160.69 L141.95,158.93 Z M178.07,309.87 C181.16,307.19 183.84,303.61 182.51,299.7 C180.543081,294.147999 177.85327,288.879332 174.51,284.03 C172.2,280.63 167.32,281.47 165.29,285.1 C162.89,289.4 160.58,293.77 158.58,298.27 C156.58,302.77 159.92,307.57 165.5,308.53 C166.91,305.85 168.36,303.1 169.9,300.2 C173.16,303.31 172.93,308.72 178.07,309.87 L178.07,309.87 Z" id="Shape" fill="#FFFFFF"></path>
            <path d="M164.08,411.93 C164.98,419.12 169.91,420 175.56,419.74 L184.9,419.28 L188.61,413.28 L268.81,414.2 C272.21,419.2 271.18,423.64 269.98,429.1 C259.46,428.98 249.11,428.72 238.76,428.77 C220.65,428.86 202.54,429.17 184.43,429.31 C168.31,429.43 152.19,429.39 136.07,429.55 C117.223333,429.73 98.3766667,429.99 79.53,430.33 C70.89,430.49 69.76,429.73 68.3,421.42 C68.05,420.01 67.99,418.57 67.81,416.87 L164.08,411.93 Z" id="Path" fill="#FFFFFF"></path>
            <path d="M166.32,360 L171.42,360.06 L176.65,370.5 C182.09,369.07 180.54,364.5 182.98,360.91 C185.160444,360.819671 187.344338,360.859742 189.52,361.03 C193.2,361.49 195.39,359.73 196.13,356.5 C196.968212,352.659245 197.52304,348.762083 197.79,344.84 C198.11,340.77 197.12,336.54 199.13,332.61 L212.13,338.18 C213.38,344.93 212.46,352.58 211.48,360.18 C210.17,370.27 209.94,370.41 199.78,372.04 C179.65,375.29 159.46,377.93 138.99,375.96 C137.99,375.87 136.99,375.9 135.99,375.81 C127.68,375.03 124.32,371.5 124.78,363.23 C125.2,355.54 126.17,347.88 126.87,340.23 C127.14,337.23 127.32,334.33 127.58,330.85 L136.58,329.26 C136.52,334.58 136.71,339.26 136.36,343.83 C135.81,351.21 136.81,357.47 145.28,358.83 C145.88,366.74 145.88,366.74 149.75,370.94 L152.75,359.94 L157.02,359.94 C157.7,362.81 158.02,365.6 159.02,368 C159.7,369.5 161.65,370.41 163.02,371.59 C163.91,370.24 165.23,369 165.58,367.53 C166.015065,365.042097 166.26243,362.525001 166.32,360 L166.32,360 Z" id="Path" fill="#FFFFFF"></path>
            <path d="M66.66,404.48 C77.49,404.19 88.31,403.77 99.13,403.62 C114.77,403.41 130.41,403.29 146.05,403.34 C158.43,403.34 170.82,403.7 183.2,403.91 C209.006667,404.363333 234.81,404.83 260.61,405.31 C263.13,405.36 265.61,405.8 268.15,406.06 L268.03,408.06 C262.82,408.16 257.61,408.4 252.4,408.35 C232.03,408.16 211.66,407.88 191.28,407.63 C190.54,407.63 189.79,407.71 189.06,407.63 C186.96,407.41 184.31,406.25 182.92,407.12 C181.53,407.99 181.46,410.87 180.64,413.36 L170.44,413.24 L167.44,406.61 C164.3,406.73 161.13,406.83 157.95,406.97 C129.95,408.136667 101.95,409.306667 73.95,410.48 C67.35,410.76 66.94,410.36 66.66,404.48 Z" id="Path" fill="#FFFFFF"></path>
            <path d="M241.12,292 C240.82,287.73 242.61,285.83 246.02,285.24 C249.91,284.55 253.78,283.5 257.7,283.24 C261.26,283.02 263.83,281.79 265.58,278.76 C263.08,275.17 263.08,275.17 247.68,276.49 L251.23,268.64 L266.6,269.64 L266.38,288.85 L241.12,292 Z" id="Path" fill="#FFFFFF"></path>
            <path d="M74.9,279.59 C74.57,275.75 74.32,272.92 74.02,269.5 L91.36,269.7 C92.12,272.18 92.95,274.93 93.96,278.24 C87.67,280.29 81.68,279.42 74.9,279.59 Z" id="Path" fill="#FFFFFF"></path>
            <path d="M243.55,297.09 L264.66,295.48 C265.52,299.38 263.98,302 261.14,302.2 C255.99,302.57 250.76,301.99 245.59,301.51 C244.72,301.43 243.98,299.87 243.18,299 L243.55,297.09 Z" id="Path" fill="#FFFFFF"></path>
            <path d="M95.9,287.46 C95.16,291.12 94.21,293.23 90.08,292.83 C82.77,292.13 79.83,291.5 75.93,288.52 C80.71,286.48 86.64,286.11 95.9,287.46 Z" id="Path" fill="#FFFFFF"></path>
            <path d="M74.07,262.74 L74.14,257.01 C77.93,257.4 81.31,257.56 84.62,258.16 C86.73,258.55 88.09,259.99 87.26,262.89 L74.07,262.74 Z" id="Path" fill="#FFFFFF"></path>
            <path d="M180.22,387 C180.69,389.26 181,390.79 181.41,392.77 L167.41,393.27 C167.29,392.66 167.17,392.04 167.04,391.42 L180.22,387 Z" id="Path" fill="#FFFFFF"></path>
            <path d="M246.12,43.54 C245.394914,43.6388316 244.658553,43.6185648 243.94,43.48 C219.72,33.48 194.53,31.09 168.66,33.63 C162.24,34.27 155.79,34.57 149.35,34.98 C127.48,36.37 107.89,44.72 88.98,54.98 C81.7,58.93 73.77,67.22 70.79,72.92 C75.49,72.68 80.17,72.06 84.79,72.29 C95.07,72.78 101.29,80.16 99.5,90.4 C97.07,104.4 88.27,114 76.1,120.47 C67.6358945,125.213916 57.7554492,126.777906 48.24,124.88 C47.94,126.88 47.58,128.8 47.42,130.7 C46.42,142.08 45.23,153.45 44.65,164.85 C43.88,180.14 47.1,195 50.59,209.76 C51.89,215.26 53.65,220.65 54.1,226.52 C51.95,221.2 49.62,215.94 47.68,210.52 C40.37,190.19 39.16,169.37 42.41,148.08 C43.41,141.23 43.24,134.2 43.69,127.25 C43.88,124.36 44.27,121.48 44.59,118.47 C45.7824895,118.241002 46.9960821,118.140428 48.21,118.17 C66.4628011,121.270985 84.4642894,111.46627 91.76,94.45 C95.76,84.71 91.4,78.53 80.89,79.67 C73.1919655,80.4240163 65.743104,82.8103792 59.04,86.67 C58.2181891,87.0990197 57.3736028,87.4829226 56.51,87.82 C52.16,82.69 52.14,82.6 55.61,77.64 C69.92,57.19 89.29,43.56 112.48,34.8 C126.4,29.54 141.11,28.8 155.48,26.49 C171.2,23.98 187.11,23.19 202.99,25.23 C217.46,27.09 231.13,31.31 243.14,39.95 C243.948887,40.5397467 244.696025,41.2098261 245.37,41.95 C245.705174,42.435474 245.95853,42.9725903 246.12,43.54 Z" id="Path" fill="#000000"></path>
            <path d="M243.48,56.46 C257.89,55.46 268.97,63.07 280.2,70.35 C266.78,68.93 255.86,60.93 243.48,56.46 Z" id="Path" fill="#000000"></path>
            <path d="M293.45,96.82 C282,92.9 275.64,82.82 267.27,75.2 C279,78.78 284.76,89.57 293.45,96.82 Z" id="Path" fill="#000000"></path>
            <path d="M285.45,108.6 C293.9,116.51 296.7,126.52 297.65,137.4 C293.216667,128.466667 288.803333,119.506667 284.41,110.52 C284.29,110.28 284.82,109.73 285.45,108.6 Z" id="Path" fill="#000000"></path>
            <path d="M292.19,160.53 C298.44,164.21 300.48,172.66 298.37,183.06 C296.19,176 292.81,169.16 292.19,160.53 Z" id="Path" fill="#000000"></path>
            <path d="M133.37,291.05 C115.22,280.86 102.27,264.42 111.69,241.81 L107.35,243.44 C106.51,238.92 108.76,236.03 111.23,233.28 C119.03,224.58 139.23,220.74 149.37,232.68 C152.03,235.8 155.9,237.89 159.24,240.42 C165.37,245.05 167.78,251.06 166.57,258.71 C164.989183,269.056385 160.208966,278.648292 152.9,286.14 C147.62,291.73 142.4,296.42 134.96,298.52 C128.57,300.32 123.23,298.41 118.45,294.31 C117.82,293.77 117.7,292.64 117.11,291.22 C122.55,290.31 127.54,293.93 133.37,291.05 Z M160.25,255.81 C159.8,254.15 159.71,251.47 158.46,249.56 C153.35,241.77 139.35,237.04 130.46,239.74 C119.88,242.95 114.78,252.74 118.94,262.55 C122.019187,269.702498 127.405818,275.61723 134.24,279.35 C137.938242,281.624613 142.601758,281.624613 146.3,279.35 C155.11,274.34 158.49,266.08 160.25,255.81 Z" id="Shape" fill="#000000"></path>
            <path d="M213.29,240.56 C215.92,241.89 218.65,243.07 221.16,244.56 C224.942906,246.646488 227.25445,250.660869 227.16,254.98 C227.23,270.77 221.98,283.63 207.48,291.56 C207.16,291.74 207.09,292.35 206.69,293.24 C212.25,295.54 217.21,291.48 222.49,291.77 C218.1,299.3 207.12,302.77 198.73,299.12 C192.95,296.61 187.94,293.12 184.98,287.12 C182.44,282.02 179.65,277.04 176.86,272.07 C170.22,260.27 177.64,242.07 188.31,236.28 C201.07,229.39 214.08,229.93 226.61,237.28 C228.740587,238.705775 230.386846,240.746159 231.33,243.13 L213.41,238.73 C213.4,239.4 213.35,240 213.29,240.56 Z M221.81,260.91 C222.1,253.64 220.81,251.5 214.99,250.24 C207.73,248.67 200.37,247.53 192.99,246.59 C187.74,245.91 186.9,246.83 184.56,251.59 C179.38,262.23 184.15,270.99 190.15,279.1 C195.61,286.47 203.96,286.98 211.03,281.02 C217.82,275.34 221.67,268 221.81,260.91 Z" id="Shape" fill="#000000"></path>
            <path d="M201.81,159.11 C202.6,155.28 203.46,151.44 204.15,147.57 C204.937071,143.72164 205.507965,139.832215 205.86,135.92 C206.04,133.09 207.28,131.18 209.8,132.04 C211.8,132.71 213.46,134.93 214.57,136.87 C215.09,137.76 214.02,139.67 213.48,141.05 C211.23,146.77 208.92,152.47 206.48,158.51 L211.85,161.95 C212.569925,161.604705 213.242168,161.167747 213.85,160.65 C215.6,158.55 217.21,156.33 218.98,154.25 C221.58,151.25 224.83,149.36 228.84,150.7 C232.85,152.04 232.84,155.81 233.41,159.64 C230.11,160.77 226.41,158.04 223.67,161.32 C221.410922,163.837108 219.024466,166.236915 216.52,168.51 C217.82,173.57 218.98,178.11 220.16,182.65 C220.21,182.86 220.46,183.02 221.06,183.71 C225.93,182.31 231.47,182.39 235.48,177.81 C236.571899,176.891187 238.05419,176.586452 239.42,177 C240.42,177.46 241.08,179.34 241.13,180.63 C241.421305,185.25044 238.15979,189.338148 233.59,190.08 C229.73,190.86 225.84,191.47 222.08,192.13 C221.687546,192.890284 221.353256,193.679208 221.08,194.49 C218.86,203.49 214.27,207.03 205.38,206.55 C202.86,206.42 202.66,206.16 200.59,199.97 L212.98,196.58 C213.91,189.98 211.09,175.64 208.1,170.7 C206.1,167.32 203.31,165.89 199.36,166.7 C194.06,167.7 188.74,168.64 182.12,169.83 C182.89,167.76 183.01,165.77 183.93,165.26 C187.000831,163.665153 190.198417,162.327251 193.49,161.26 C196,160.33 198.73,159.87 201.81,159.11 Z" id="Path" fill="#000000"></path>
            <path d="M142,158.93 L157.28,160.68 C156.91,166.68 154.28,167.9 144.83,166.82 C135.38,165.74 133.69,162.5 136.11,149.36 C135.91773,148.914392 135.665389,148.497189 135.36,148.12 C126.64,139.93 123.74,140 115.93,148.81 C112.31,152.9 108.93,157.19 105.37,161.35 C104.47,162.35 103.37,163.3 102.37,164.27 L100.96,163.62 C101.64,161.21 101.96,158.57 103.09,156.45 C105.744181,151.671572 108.662018,147.04443 111.83,142.59 C118.55,133.21 125.61,131.97 135.32,138.11 C135.862411,138.426835 136.423428,138.710684 137,138.96 C139.39,136.21 141.26,132.9 144.1,131.21 C146.1,130.04 149.51,130.56 152.1,131.21 C157.52,132.64 159.96,136.37 159.76,142.81 C157.954309,142.63257 156.167537,142.297969 154.42,141.81 C153.07,141.31 152.03,140.03 150.72,139.33 C146.38,137.02 143.38,138.6 142.98,143.44 C142.58,148.28 142.3,153.18 142,158.93 Z" id="Path" fill="#000000"></path>
            <path d="M178.07,309.87 C172.93,308.72 173.16,303.31 169.88,300.2 C168.34,303.1 166.88,305.85 165.48,308.53 C159.9,307.53 156.58,302.7 158.56,298.27 C160.54,293.84 162.87,289.4 165.27,285.1 C167.27,281.47 172.18,280.63 174.49,284.03 C177.83327,288.879332 180.523081,294.147999 182.49,299.7 C183.84,303.61 181.16,307.19 178.07,309.87 Z" id="Path" fill="#000000"></path>
            <path d="M160.25,255.81 C158.49,266.08 155.11,274.34 146.25,279.35 C142.551758,281.624613 137.888242,281.624613 134.19,279.35 C127.355818,275.61723 121.969187,269.702498 118.89,262.55 C114.73,252.75 119.83,242.95 130.41,239.74 C139.32,237.04 153.32,241.74 158.41,249.56 C159.71,251.47 159.8,254.15 160.25,255.81 Z M145.93,256.12 C141.93,255.62 139.41,257.67 138.93,261.82 C138.49,265.25 140.79,268.82 143.63,269.16 C147.3,269.59 150.87,266.16 151.27,261.81 C151.53,258.52 149.75,256.6 145.93,256.12 L145.93,256.12 Z" id="Shape" fill="#FFFFFF"></path>
            <path d="M221.81,260.91 C221.67,268.03 217.81,275.34 211.04,281.06 C203.97,287.06 195.62,286.51 190.16,279.14 C184.16,271.03 179.39,262.27 184.57,251.63 C186.91,246.83 187.75,245.91 193,246.63 C200.37,247.57 207.73,248.71 215,250.28 C220.77,251.5 222.1,253.64 221.81,260.91 Z M198.92,264.4 C198.92,261.14 196.78,260.29 194.09,260.11 C190.21,259.85 186.7,262.11 186.78,264.72 C186.88,268.03 190.33,271.95 193.08,271.89 C195.83,271.83 198.87,268.05 198.92,264.4 L198.92,264.4 Z" id="Shape" fill="#FFFFFF"></path>
            <path d="M145.93,256.12 C149.75,256.6 151.53,258.52 151.22,261.81 C150.82,266.17 147.22,269.59 143.58,269.16 C140.74,268.84 138.44,265.25 138.88,261.82 C139.41,257.67 142,255.62 145.93,256.12 Z" id="Path" fill="#000000"></path>
            <path d="M198.92,264.4 C198.87,268.05 195.92,271.81 193.08,271.89 C190.24,271.97 186.88,268.03 186.78,264.72 C186.7,262.1 190.21,259.85 194.09,260.11 C196.78,260.29 199,261.14 198.92,264.4 Z" id="Path" fill="#000000"></path>
        </g>
    </g>
</svg>