<?xml version="1.0" encoding="UTF-8"?>
<svg width="300px" height="300px" viewBox="0 0 300 300" version="1.1" xmlns="http://www.w3.org/2000/svg" xmlns:xlink="http://www.w3.org/1999/xlink">
    <title>network</title>
    <g id="network" stroke="none" stroke-width="1" fill="none" fill-rule="evenodd">
        <g id="Group-10" transform="translate(60.000000, 19.000000)">
            <path d="M143.541,185.1928 C143.561,184.7348 143.581,184.2778 143.602,183.8208 C141.813,183.3428 140.046,182.7518 138.231,182.4178 C136.284,182.0608 134.949,181.5158 134.947,179.0918 C134.944,175.8658 134.58,172.6378 134.33,169.4138 C133.509,158.8088 132.703,148.2028 131.807,137.6048 C131.632,135.5418 130.728,133.5058 130.762,131.4678 C130.871,124.8838 132.478,118.643 135.515,112.746 C137.58,108.735 139.165,104.474 141.299,100.504 C145.539,92.614 146.863,84.302 146.427,75.397 C146.008,66.838 144.97,58.578 141.533,50.612 C138.815,44.316 136.485,37.821 134.457,31.267 C132.702,25.6 129.492,21.311 124.594,18.14 C122.315,16.666 120.148,15.004 117.795,13.667 C107.57,7.858 96.6712,5.7 84.9312,7.27 C74.1452,8.713 64.1012,12.454 55.0042,17.995 C36.8652,29.044 23.1022,43.507 22.0552,66.391 C21.9492,68.695 22.2222,71.05 21.8422,73.301 C20.6162,80.568 21.9802,87.712 22.8282,94.839 C23.2932,98.745 23.3462,102.416 21.6042,105.91 C19.2742,110.584 18.1872,115.506 18.9382,120.615 C19.8542,126.8418 20.8832,133.0948 22.5082,139.1638 C24.6912,147.3208 27.5252,155.3018 30.0142,163.3798 C31.3482,167.7128 37.2322,172.5398 41.7462,172.2678 C46.0152,172.0118 50.2442,171.1068 54.3712,170.5048 C55.1522,167.5348 53.9612,166.2158 51.8212,165.4728 C49.6052,164.7028 47.3722,163.9848 45.1582,163.2118 C42.6632,162.3388 41.2172,160.6118 40.5202,158.2188 C47.3182,160.4378 53.7692,162.5428 60.2712,164.6638 C60.9582,170.3308 61.8382,175.8258 62.1822,181.3548 C62.3082,183.3748 61.3172,185.5348 60.5392,187.5138 C60.0382,188.7878 58.9952,189.8488 57.6582,191.7808 C64.3582,192.4418 70.4092,193.1938 76.4822,193.6038 C86.7452,194.2958 97.0212,194.8178 107.296,195.3258 C118.951,195.9018 129.822,192.9758 140.108,187.6688 C141.349,187.0288 142.401,186.0268 143.541,185.1928 M54.8372,176.9298 C50.9912,177.6038 47.6302,178.1308 44.2952,178.7928 C39.7292,179.6988 35.7542,178.4718 32.0572,175.8068 C25.7432,171.2548 21.9962,165.1028 20.3162,157.5708 C19.4532,153.7028 18.6172,149.8178 17.4852,146.0258 C15.0972,138.0188 13.8342,129.8548 13.6012,121.523 C13.4362,115.65 14.2192,109.938 17.6052,104.964 C19.9622,101.502 20.0552,97.957 18.7192,94.225 C12.8362,77.787 15.8562,61.431 19.3802,45.162 C21.1702,36.891 26.6412,30.808 32.7342,25.202 C46.2012,12.812 61.5622,3.946 79.7352,1.01 C87.1452,-0.187 94.8752,-0.191 102.384,0.332 C106.895,0.646 111.615,2.395 115.61,4.627 C121.25,7.779 126.359,11.902 131.601,15.74 C139.602,21.599 143.158,30.379 146.479,39.196 C151.52,52.582 154.967,66.298 154.664,80.781 C154.507,88.341 152.77,95.38 149.218,102.038 C146.583,106.977 144.029,111.965 141.615,117.014 C140.781,118.757 140.406,120.735 139.937,122.6348 C137.216,133.6608 137.466,144.7848 138.901,155.9438 C139.567,161.1218 139.936,166.3608 141.01,171.4518 C141.487,173.7138 142.922,176.2898 144.73,177.6378 C147.708,179.8588 151.255,181.4138 154.728,182.8468 C158.053,184.2178 161.607,185.0268 165.03,186.1738 C169.227,187.5788 172.611,189.9808 175.439,193.5398 C180.62,200.0628 181.073,204.3698 176.684,211.4298 C163.127,213.2288 149.745,215.0578 136.349,216.7728 C110.878,220.0328 85.3372,222.3188 59.6202,221.8288 C56.1972,221.7648 52.7852,221.2788 49.3632,221.0648 C46.8412,220.9068 44.2972,220.6508 41.7882,220.8218 C29.9992,221.6268 18.4222,220.3838 7.0182,217.4278 C2.4392,216.2418 -0.6768,210.6938 0.1262,206.2028 C0.5052,204.0878 1.6212,203.0068 3.2872,202.2028 C7.8362,200.0088 12.3402,197.6958 16.9982,195.7598 C23.1442,193.2048 29.2872,190.8678 36.0832,190.0188 C41.1592,189.3858 46.0612,186.9808 50.9102,185.0428 C54.0182,183.8018 54.4512,182.4868 54.8372,176.9298" id="Fill-1" fill="#000000"></path>
            <path d="M68.4143,109.803 C70.9253,115.415 74.7013,117.224 79.0303,118.28 C90.2553,121.018 101.597,120.46 112.931,119.333 C116.505,118.978 120.12,118.397 123.539,117.343 C125.598,116.708 128.744,116.324 128.247,112.485 C118.258,113.116 108.42,113.906 98.5663,114.314 C88.6523,114.725 78.8473,113.813 68.4143,109.803 M38.5273,82.503 C38.2283,81.011 37.9033,79.787 37.7503,78.543 C37.1713,73.846 34.0453,70.945 30.7003,68.09 C28.8203,66.484 27.0603,67.063 26.0353,68.533 C24.6573,70.511 23.2993,72.575 23.7833,75.479 C25.1433,83.622 26.2143,91.816 27.2153,100.013 C27.3953,101.499 26.8823,103.154 26.3743,104.622 C25.1943,108.03 23.6323,111.313 22.5833,114.755 C21.5433,118.167 23.7473,122.1536 27.0803,123.6236 C30.0113,124.9156 32.7393,124.1236 35.0263,120.943 C36.2703,119.211 37.2683,117.239 38.0423,115.245 C40.1263,109.878 39.7823,104.282 39.4073,98.67 C39.1893,95.412 39.3683,92.128 39.3683,87.827 C44.0883,94.683 42.8313,102.027 44.7853,109.585 C47.7693,106.351 48.5033,103.274 48.0213,100.14 C47.4793,96.614 46.1723,93.213 45.3513,89.721 C44.4563,85.918 42.6923,83.021 38.5273,82.503 M106,182.7866 C117.94,182.7826 126.709,175.7006 129.235,164.0276 C131.12,155.3216 128.901,147.7166 123.695,140.5616 C119.251,134.4536 113.531,132.7316 106.582,134.2556 C95.8783,136.6026 88.9573,142.8836 84.9753,153.3886 C80.0903,166.2746 90.7523,183.6146 106,182.7866 M143.541,185.1926 C142.401,186.0266 141.349,187.0286 140.108,187.6686 C129.822,192.9756 118.951,195.9016 107.296,195.3256 C97.0213,194.8176 86.7453,194.2956 76.4823,193.6036 C70.4093,193.1946 64.3583,192.4416 57.6583,191.7806 C58.9953,189.8486 60.0383,188.7876 60.5393,187.5136 C61.3173,185.5346 62.3083,183.3746 62.1823,181.3546 C61.8383,175.8256 60.9583,170.3306 60.2713,164.6646 C53.7683,162.5426 47.3183,160.4376 40.5203,158.2186 C41.2173,160.6116 42.6633,162.3386 45.1583,163.2116 C47.3723,163.9856 49.6053,164.7026 51.8213,165.4726 C53.9613,166.2166 55.1523,167.5346 54.3713,170.5046 C50.2443,171.1066 46.0153,172.0116 41.7463,172.2686 C37.2323,172.5396 31.3483,167.7126 30.0143,163.3796 C27.5253,155.3026 24.6913,147.3206 22.5083,139.1636 C20.8833,133.0946 19.8543,126.8416 18.9383,120.616 C18.1873,115.506 19.2743,110.584 21.6043,105.91 C23.3463,102.417 23.2933,98.746 22.8283,94.839 C21.9803,87.712 20.6163,80.568 21.8423,73.301 C22.2223,71.05 21.9493,68.695 22.0553,66.391 C23.1013,43.508 36.8653,29.044 55.0043,17.995 C64.1013,12.455 74.1443,8.713 84.9313,7.271 C96.6713,5.7 107.57,7.858 117.795,13.667 C120.148,15.004 122.315,16.666 124.594,18.14 C129.492,21.312 132.702,25.6 134.457,31.267 C136.485,37.821 138.815,44.316 141.533,50.612 C144.97,58.578 146.008,66.838 146.427,75.397 C146.863,84.303 145.539,92.614 141.299,100.504 C139.165,104.474 137.58,108.736 135.515,112.746 C132.477,118.643 130.871,124.8846 130.762,131.4686 C130.728,133.5066 131.632,135.5426 131.807,137.6046 C132.703,148.2026 133.509,158.8086 134.33,169.4136 C134.58,172.6376 134.944,175.8656 134.947,179.0916 C134.949,181.5156 136.284,182.0606 138.231,182.4176 C140.046,182.7516 141.813,183.3426 143.602,183.8206 C143.581,184.2776 143.56,184.7356 143.541,185.1926" id="Fill-2" fill="#FFFFFF"></path>
            <path d="M116.696,154.8668 C116.367,159.0818 116.089,162.6468 115.802,166.3088 C121.552,162.9628 122.623,159.2668 119.474,154.0048 C118.472,154.3158 117.455,154.6318 116.696,154.8668 M121.71,148.7338 C115.635,141.4618 109.507,139.8438 102.236,142.8368 C94.2765,146.1148 91.8795,150.1378 92.6925,158.8508 C93.3325,165.7008 96.6895,169.6008 103.601,171.1708 C100.283,164.2998 96.5075,157.2328 102.514,150.5068 C107.541,144.8798 114.226,146.1458 121.71,148.7338 M106,182.7858 C90.7525,183.6148 80.0905,166.2748 84.9745,153.3888 C88.9575,142.8838 95.8785,136.6028 106.582,134.2548 C113.531,132.7318 119.251,134.4538 123.695,140.5618 C128.901,147.7168 131.12,155.3208 129.235,164.0278 C126.709,175.7008 117.94,182.7828 106,182.7858" id="Fill-3" fill="#000000"></path>
            <path d="M27.6926,111.071 C27.3686,110.974 27.0456,110.876 26.7206,110.779 L25.2536,115.232 C25.6356,115.349 26.0176,115.466 26.3996,115.583 C26.8306,114.079 27.2616,112.575 27.6926,111.071 M27.9146,73.378 C27.9146,77.397 27.5076,80.802 28.0056,84.069 C28.8456,89.587 30.1816,95.037 31.4516,100.482 C32.7156,105.904 33.0516,111.166 29.9736,116.173 C29.4706,116.991 29.3246,118.028 28.8336,119.506 C33.1996,119.047 34.5416,116.211 35.2206,113.359 C35.8766,110.608 36.0786,107.602 35.7556,104.792 C34.7686,96.204 33.4366,87.655 32.2306,79.093 C31.9206,76.885 31.3086,74.849 27.9146,73.378 M38.5276,82.503 C42.6926,83.021 44.4566,85.919 45.3506,89.721 C46.1716,93.213 47.4796,96.614 48.0216,100.14 C48.5036,103.274 47.7696,106.351 44.7856,109.585 C42.8316,102.028 44.0886,94.684 39.3686,87.828 C39.3686,92.128 39.1896,95.412 39.4076,98.67 C39.7826,104.282 40.1266,109.878 38.0426,115.245 C37.2676,117.239 36.2706,119.212 35.0266,120.943 C32.7396,124.1235 30.0106,124.9155 27.0806,123.6235 C23.7476,122.1535 21.5436,118.167 22.5836,114.755 C23.6316,111.313 25.1946,108.03 26.3746,104.622 C26.8816,103.154 27.3956,101.499 27.2146,100.013 C26.2136,91.816 25.1426,83.622 23.7836,75.479 C23.2986,72.576 24.6576,70.511 26.0356,68.533 C27.0606,67.063 28.8206,66.484 30.7006,68.09 C34.0456,70.945 37.1716,73.846 37.7506,78.543 C37.9036,79.788 38.2286,81.011 38.5276,82.503" id="Fill-4" fill="#000000"></path>
            <path d="M68.4143,109.803 C78.8473,113.813 88.6523,114.725 98.5663,114.314 C108.42,113.906 118.258,113.116 128.247,112.485 C128.744,116.324 125.598,116.708 123.539,117.343 C120.12,118.397 116.505,118.978 112.931,119.333 C101.597,120.46 90.2553,121.018 79.0303,118.28 C74.7013,117.224 70.9253,115.415 68.4143,109.803" id="Fill-5" fill="#000000"></path>
            <path d="M121.71,148.734 C114.227,146.145 107.541,144.88 102.515,150.506 C96.5072,157.233 100.283,164.299 103.602,171.171 C96.6892,169.601 93.3322,165.701 92.6922,158.851 C91.8792,150.138 94.2762,146.115 102.236,142.837 C109.507,139.844 115.636,141.462 121.71,148.734" id="Fill-6" fill="#FF499E"></path>
            <path d="M116.696,154.8668 C117.455,154.6318 118.472,154.3158 119.474,154.0048 C122.623,159.2668 121.552,162.9628 115.802,166.3088 C116.089,162.6468 116.367,159.0818 116.696,154.8668" id="Fill-7" fill="#FF499E"></path>
            <path d="M27.9143,73.377 C31.3093,74.848 31.9203,76.884 32.2303,79.092 C33.4363,87.654 34.7683,96.203 35.7563,104.791 C36.0783,107.601 35.8763,110.607 35.2213,113.358 C34.5413,116.21 33.1993,119.046 28.8333,119.505 C29.3243,118.027 29.4713,116.99 29.9743,116.172 C33.0523,111.166 32.7163,105.903 31.4513,100.481 C30.1823,95.036 28.8463,89.586 28.0063,84.068 C27.5083,80.801 27.9143,77.396 27.9143,73.377" id="Fill-8" fill="#FFFFFF"></path>
            <path d="M27.6926,111.071 C27.2616,112.575 26.8306,114.079 26.3996,115.583 C26.0176,115.466 25.6356,115.349 25.2536,115.232 L26.7206,110.779 C27.0456,110.876 27.3686,110.974 27.6926,111.071" id="Fill-9" fill="#FFFFFF"></path>
        </g>
    </g>
</svg>