<svg width="300" height="300" viewBox="0 0 300 300" xmlns="http://www.w3.org/2000/svg"><g fill="none" fill-rule="evenodd"><path d="M185.61 67.719c0 3.346-.06 5.808.01 8.266.42 14.975.84 29.951 1.339 44.924.083 2.498-.558 4.383-2.416 6.223-14.007 13.867-27.903 27.846-41.823 41.799-1.07 1.073-2.061 2.223-3.089 3.337l.797.791 46.032-43.049c1.462 6.307-.079 10.774-4.609 14.573-3.299 2.768-6.031 6.22-8.953 9.425-.619.679-.961 1.612-1.431 2.427l.846.695 14.34-14.083c.129 2.742.241 4.297.269 5.853.352 19.507-.297 38.976-2.106 58.408-.175 1.881.15 3.809.256 5.971l22.135 1.368c.17-1.476.346-2.17.314-2.854-.683-14.239-1.465-28.474-2.075-42.716-.804-18.758-1.484-37.521-2.205-56.283-.38-9.916-.797-19.832-1.053-29.752-.062-2.429-.973-4.027-2.916-5.386-4.288-2.998-8.472-6.146-13.662-9.937m30.942 148.387c19.52 3.271 38.311 7.31 56.714 12.945l-.123 1.211c-2.137 0-4.274.019-6.411-.004-2.351-.027-4.712.032-7.051-.16-16.72-1.369-33.451-2.646-50.151-4.238-16.792-1.6-33.611-1.316-50.376-.427-25.222 1.338-50.457 2.921-75.575 5.493-15.217 1.559-30.22 5.197-45.325 7.865-3.492.616-7.008 1.087-11.754 1.815 3.578-4.007 7.17-5.605 10.953-6.555 9.282-2.33 18.648-4.326 27.946-6.6 5.242-1.282 10.416-2.847 15.489-4.248.989-11.439 1.918-22.391 2.884-33.341 1.297-14.713 2.627-29.423 3.931-44.135.381-4.302.547-8.633 1.17-12.897.237-1.619 1.152-3.429 2.323-4.574 9.958-9.737 20.047-19.341 30.095-28.985 12.006-11.524 24.071-22.986 35.948-34.64 1.813-1.78 3.653-2.839 6.02-3.157 6.44-.866 12.873-1.825 19.339-2.416 2.011-.184 4.366.223 6.136 1.164 5.26 2.796 10.287 6.025 15.442 9.02 3.577 2.077 5.212 4.837 5.331 9.234.246 8.998 1.339 17.97 1.888 26.965.352 5.77.442 11.561.495 17.344.162 17.33.91 34.619 2.806 51.86.532 4.836.263 9.756.485 14.632.402 8.812.895 17.619 1.371 26.829M152.445 64.191c-20.45 19.926-41.479 39.241-63.004 59.631.34-5.372.433-9.578.965-13.728.183-1.425 1.204-2.972 2.277-4.018 10.736-10.459 21.557-20.83 32.366-31.213 2.212-2.125 4.642-4.049 6.672-6.332 2.186-2.456 4.777-3.643 7.971-3.94 4.074-.379 8.134-.905 12.199-1.367l.554.967m-61.331 36.407c.77-10.752 1.458-20.338 2.165-30.188l33.007-3.946.517.849-35.69 33.285" fill="#000"/><path d="M185.61 67.719c5.19 3.791 9.374 6.939 13.662 9.937 1.943 1.359 2.854 2.957 2.916 5.386.256 9.92.673 19.836 1.053 29.752.721 18.762 1.401 37.525 2.205 56.283.61 14.242 1.392 28.477 2.075 42.716.032.684-.144 1.378-.314 2.854l-22.135-1.368c-.106-2.162-.431-4.09-.256-5.971 1.809-19.432 2.458-38.901 2.106-58.408-.028-1.556-.14-3.111-.269-5.853l-14.34 14.083a629.48 629.48 0 00-.846-.695c.47-.815.812-1.748 1.431-2.427 2.922-3.205 5.654-6.657 8.953-9.425 4.53-3.799 6.071-8.266 4.609-14.573l-46.032 43.049-.797-.791c1.028-1.114 2.019-2.264 3.089-3.337 13.92-13.953 27.816-27.932 41.823-41.799 1.858-1.84 2.499-3.725 2.416-6.223-.499-14.973-.919-29.949-1.339-44.924-.07-2.458-.01-4.92-.01-8.266" fill="#FF499E"/></g></svg>