<?xml version="1.0" encoding="UTF-8"?>
<svg width="300px" height="300px" viewBox="0 0 300 300" version="1.1" xmlns="http://www.w3.org/2000/svg" xmlns:xlink="http://www.w3.org/1999/xlink">
    <title>thing</title>
    <g id="thing" stroke="none" stroke-width="1" fill="none" fill-rule="evenodd">
        <g id="Group-5" transform="translate(26.500000, 59.000000)">
            <path d="M159.11,8.719 C159.11,12.065 159.05,14.527 159.12,16.985 C159.54,31.96 159.96,46.936 160.459,61.909 C160.542,64.407 159.901,66.292 158.043,68.132 C144.036,81.999 130.14,95.978 116.22,109.931 C115.15,111.004 114.159,112.154 113.131,113.268 L113.928,114.059 C129.191,99.784 144.455,85.51 159.96,71.01 C161.422,77.317 159.881,81.784 155.351,85.583 C152.052,88.351 149.32,91.803 146.398,95.008 C145.779,95.687 145.437,96.62 144.967,97.435 C145.25,97.667 145.531,97.898 145.813,98.13 C150.338,93.687 154.862,89.243 160.153,84.047 C160.282,86.789 160.394,88.344 160.422,89.9 C160.774,109.407 160.125,128.876 158.316,148.308 C158.141,150.189 158.466,152.117 158.572,154.279 C166.325,154.758 173.445,155.198 180.707,155.647 C180.877,154.171 181.053,153.477 181.021,152.793 C180.338,138.554 179.556,124.319 178.946,110.077 C178.142,91.319 177.462,72.556 176.741,53.794 C176.361,43.878 175.944,33.962 175.688,24.042 C175.626,21.613 174.715,20.015 172.772,18.656 C168.484,15.658 164.3,12.51 159.11,8.719 M190.052,157.106 C209.572,160.377 228.363,164.416 246.766,170.051 C246.725,170.455 246.684,170.859 246.643,171.262 C244.506,171.262 242.369,171.281 240.232,171.258 C237.881,171.231 235.52,171.29 233.181,171.098 C216.461,169.729 199.73,168.452 183.03,166.86 C166.238,165.26 149.419,165.544 132.654,166.433 C107.432,167.771 82.197,169.354 57.079,171.926 C41.862,173.485 26.859,177.123 11.754,179.791 C8.262,180.407 4.746,180.878 0,181.606 C3.578,177.599 7.17,176.001 10.953,175.051 C20.235,172.721 29.601,170.725 38.899,168.451 C44.141,167.169 49.315,165.604 54.388,164.203 C55.377,152.764 56.306,141.812 57.272,130.862 C58.569,116.149 59.899,101.439 61.203,86.727 C61.584,82.425 61.75,78.094 62.373,73.83 C62.61,72.211 63.525,70.401 64.696,69.256 C74.654,59.519 84.743,49.915 94.791,40.271 C106.797,28.747 118.862,17.285 130.739,5.631 C132.552,3.851 134.392,2.792 136.759,2.474 C143.199,1.608 149.632,0.649 156.098,0.058 C158.109,-0.126 160.464,0.281 162.234,1.222 C167.494,4.018 172.521,7.247 177.676,10.242 C181.253,12.319 182.888,15.079 183.007,19.476 C183.253,28.474 184.346,37.446 184.895,46.441 C185.247,52.211 185.337,58.002 185.39,63.785 C185.552,81.115 186.3,98.404 188.196,115.645 C188.728,120.481 188.459,125.401 188.681,130.277 C189.083,139.089 189.576,147.896 190.052,157.106" id="Fill-1" fill="#000000"></path>
            <path d="M125.945,5.191 C105.495,25.117 84.466,44.432 62.941,64.822 C63.281,59.45 63.374,55.244 63.906,51.094 C64.089,49.669 65.11,48.122 66.183,47.076 C76.919,36.617 87.74,26.246 98.549,15.863 C100.761,13.738 103.191,11.814 105.221,9.531 C107.407,7.075 109.998,5.888 113.192,5.591 C117.266,5.212 121.326,4.686 125.391,4.224 C125.576,4.546 125.76,4.869 125.945,5.191" id="Fill-2" fill="#000000"></path>
            <path d="M64.6139,41.598 C65.3849,30.846 66.0719,21.26 66.7789,11.41 C78.0339,10.064 88.9099,8.764 99.7859,7.464 C99.9579,7.747 100.131,8.03 100.303,8.313 C88.7109,19.124 77.1189,29.935 64.6139,41.598" id="Fill-3" fill="#000000"></path>
            <path d="M159.11,8.719 C164.3,12.51 168.484,15.658 172.772,18.656 C174.715,20.015 175.626,21.613 175.688,24.042 C175.944,33.962 176.361,43.878 176.741,53.794 C177.462,72.556 178.142,91.319 178.946,110.077 C179.556,124.319 180.338,138.554 181.021,152.793 C181.053,153.477 180.877,154.171 180.707,155.647 C173.445,155.198 166.325,154.758 158.572,154.279 C158.466,152.117 158.141,150.189 158.316,148.308 C160.125,128.876 160.774,109.407 160.422,89.9 C160.394,88.344 160.282,86.789 160.153,84.047 C154.862,89.243 150.338,93.687 145.813,98.13 C145.531,97.898 145.25,97.667 144.967,97.435 C145.437,96.62 145.779,95.687 146.398,95.008 C149.32,91.803 152.052,88.351 155.351,85.583 C159.881,81.784 161.422,77.317 159.96,71.01 C144.455,85.51 129.191,99.784 113.928,114.059 L113.131,113.268 C114.159,112.154 115.15,111.004 116.22,109.931 C130.14,95.978 144.036,81.999 158.043,68.132 C159.901,66.292 160.542,64.407 160.459,61.909 C159.96,46.936 159.54,31.96 159.12,16.985 C159.05,14.527 159.11,12.065 159.11,8.719" id="Fill-4" fill="#FF499E"></path>
        </g>
    </g>
</svg>