<svg id="Capa_1" data-name="Capa 1" xmlns="http://www.w3.org/2000/svg" viewBox="0 0 595.28 643.31"><defs><style>.cls-1{fill:#fff;}</style></defs><title>iconosMesa de trabajo 1 copia</title><path d="M210.2,430.42c.35-4.12.7-8.28,1.11-13.27l12.9-3.26c0-3.54-.14-7.35,0-11.14s.67-7.71,1.11-12.44c-16.15-12.4-25.33-30.38-33.75-48.84-5.51-12.06-9.38-24.54-7.92-38,.67-6.16-1.41-10.17-7.49-12.22-7-2.37-9.61-7.77-9.54-14.9.1-9.58.55-19.21-.13-28.75-.65-9.06.9-16.16,10.8-18.66,0-13.72.25-26.84-.05-40-.55-24.17,9.53-44,25-61.46,3.21-3.61,7.86-6,12-8.74,8.5-5.74,16.74-12,25.71-16.88,14.54-7.94,30.72-11.63,47-12,25-.6,48.73,5.39,68.52,21.55C362,116.65,367,123.91,371.63,131c10.35,15.75,19.68,32.11,21.7,51.41.55,5.25.7,10.56.81,15.84.13,6.37,0,12.75,0,19.84,9,3.94,10.17,12.3,10.71,20.93.64,10.24,1,20.5,1.9,30.71,1,11.57-2.55,20.26-14.18,24.52-.69,8.67-1.64,17.06-2,25.48-.52,13.68-6.52,25.24-13.4,36.52-2.21,3.64-4.15,7.65-7.11,10.59-9.34,9.29-12.05,20.27-10.07,32.95.53,3.43.08,7,.08,10.32,4.36,1.4,10.09,1.53,12.07,4.32,2.27,3.22,1.24,8.78,1.73,14.33,11.64-.51,23.15-1,34.67-1.52,26.17-1.11,52.51-4.56,78.42.94,21.27,4.51,41.41,12.45,57.48,28.1,4.61,4.48,9.18,9,7.94,13.57l-22.73,19.73c16.36,18.25,24.44,39.52,29.24,62.22,1.31,6.21,2,12.56,2.84,18.86,1.15,8.45-2.28,13-10.78,13-23,.22-46,0-69,.06-12.41,0-24.83.19-37.24.14-51.84-.2-103.67-.72-155.5-.61-48.27.1-96.54,1.09-144.82,1.21-27.66.07-55.32-.91-83-1.2-4.8,0-9.62,1-15.39,1.58-7-5-7.32-5.69-5.42-13.74a114,114,0,0,0,2.49-12.46c1.9-15.74,11.91-27.84,18.4-41.51C63,514,64.93,511.06,66.66,508c-5.22-5.5-10.3-10.44-14.81-15.85-1.56-1.86-2.9-5.28-2.26-7.32,1.58-5,3.55-10.27,6.83-14.21a120.51,120.51,0,0,1,48.5-35.36,73.46,73.46,0,0,1,32.19-5.11c16.54,1,33.18.27,49.77.28ZM366,141.76l.31.35c-1.55-3.48-2.41-7.54-4.77-10.33-22.15-26.08-51.25-34.3-84.07-30.89-26.37,2.75-48.3,15.55-67.53,33.24-14.64,13.47-23.8,29.68-24.24,50.08-.4,18.35-1.09,36.55,1.65,55,3.42,23,3.79,46.52,6.44,69.7C198,345.2,217,372,248.49,390c1.07.61,2.64.49,4,.46,21.27-.38,42.55-.62,63.82-1.29,7.37-.24,15.78.45,21.81-2.8,9.41-5.07,16.88-13.43,23-24.86H340.8c3.31-4.57,7.59-4,11.59-4.2,10.44-.5,17.52-5.34,22.58-14.68,6.86-12.67,8-26.42,8.87-40.13,1.5-24.59-.34-49.26,1.31-73.92.9-13.53-.62-27.27-1.55-40.88C382.43,170.68,375.71,155.61,366,141.76Zm79.79,293c-6.84,1.42-11.69,3.29-16.52,3.27-20.86-.07-41.72-.55-62.56-1.2-7.25-.23-13.75-.32-19.25,6-7,7.94-16.54,12.16-26.61,14.75-27,7-53.47,5.78-78.2-8.16-14.63-8.25-30.3-10.3-46.53-10.35-5.62,0-11.25.85-16.88,1.34l-34.69,3c0,4.43,0,8.61,0,12.79,0,16,.23,31.93,0,47.89-.14,11-1,21.91-1.3,32.86-.39,12.32-.1,24.6,2.84,37.15,3.15.2,5.93.61,8.68.51,10.26-.36,20.5-1.13,30.75-1.32,42.89-.81,85.78-1.73,128.67-2.11,40.42-.35,80.85-.06,121.27-.1,3.77,0,7.55-.31,11.67-.49.31-3.39.72-5.8.73-8.2.06-15.52.13-31,0-46.56q-.23-34.05-.75-68.09C447.11,443.66,446.33,439.6,445.8,434.8Zm24.47,0c.89,17.68,1.65,33.85,2.53,50,.86,15.92-3.71,31.89.1,50.35,18.26-29.55,46.27-45.88,70.45-67.81C522.12,449.14,499.27,437.73,470.27,434.78Zm7.07,135.34c24.45,1.67,48.11,4.88,72.77-.31-5.64-26.24-9.44-52.13-26.39-75C513.93,505.12,505,514.68,495.93,524c-3.89,4-8.68,7.14-12.23,11.36-2.78,3.3-5.53,7.51-6.09,11.61C476.64,554.26,477.34,561.75,477.34,570.12Zm-420-81.79C76.7,503.7,92.22,523,114.52,536.5c.64-32,1.25-62.22,1.88-93.63C92.87,453.32,71.22,464.55,57.35,488.33Zm55.35,86.51c0-7.05-.35-13,.1-19,.42-5.57-1.76-8.91-6.09-12.4-9.86-7.94-19-16.74-28.52-25.15-2-1.73-4.09-3.29-6.61-5.31-8,20.59-18.42,39.31-17.45,61.84Zm251.94-156.2c-4.65,1.78-8.83,3.17-12.84,4.95-7.1,3.15-13.79,7.71-21.18,9.62-33.59,8.68-66.5,8.07-97.41-10-4.24-2.48-8.47-2.64-11.84.07-1.81,1.45-1.65,5.35-2.19,7.41,5,2.4,8.88,4,12.46,6,23.55,13.63,48.42,21.34,75.94,17.09,14.58-2.25,28.41-6.53,38.79-17.83a17.08,17.08,0,0,1,13-5.83C365.48,430,367.48,426.75,364.64,418.64ZM136.33,574c-1.68-44.33-3.87-88.18-.9-132.28H123.66c0,16.76-.23,33,.07,49.18.29,15.73,1.24,31.45,1.66,47.19.1,3.45-.72,6.95-1.27,10.41a64.35,64.35,0,0,0,1.12,26.33ZM454.26,437.1c-2.1,26.55-1.18,124.63,1.32,133.25l8.18-.57c.28-22.55,0-44.22-1-65.93-1-22,2.58-44.31.91-66.75ZM233.4,412.65,231.91,414c1,1.63,1.63,4,3.09,4.76,4.94,2.69,10,5.41,15.34,7.07,16.71,5.2,34,6.91,51.39,6.61A86.65,86.65,0,0,0,348,418.59c3.34-2.16,5.73-4.32,3.32-8-16.43,3.36-32.51,7.39-48.83,9.76-17,2.48-34.39,4.88-51.38-1C245.12,417.32,239.29,414.9,233.4,412.65Zm89.14-18c-32.31-1.77-55.67-.88-60.8,2.32,3,1.5,6.8,2.31,8.67,4.68,2.24,2.84,2.81,7,4.26,11,8.06,0,15.48.37,22.85-.1s14.56-1.77,21.43-2.65Zm68.17-169.47c-4.72,19.41,1.33,37.9.8,56.81,2.39-1.74,4.33-3.78,4.5-6,1-13,1.48-26,2.51-39C399,231,396,228.06,390.71,225.16Zm-208,56.1c2-12.77,1.19-39.4-2-49.58-2.59,4.32-6.4,7.75-6.36,11.14.13,11.27,1.59,22.53,2.66,33.79C177.34,279.88,179.08,281.82,182.7,281.26ZM262,405.32l-33.09-8.84c2.23,4.87,2.74,8.83,4.65,9.71,9.79,4.45,19.82,8.58,31.95,9C264.08,411.18,263,408,262,405.32Zm90.88-16.45c-7.71,6.76-15.07,11.54-21.23,19.58C350.09,406.64,353.68,403.45,352.89,388.87Z"/><path class="cls-1" d="M445.8,434.8c.53,4.8,1.31,8.86,1.37,12.94q.54,34,.75,68.09c.11,15.52,0,31,0,46.56,0,2.4-.42,4.81-.73,8.2-4.12.18-7.9.49-11.67.49-40.42,0-80.85-.25-121.27.1-42.89.38-85.78,1.3-128.67,2.11-10.25.19-20.49,1-30.75,1.32-2.75.1-5.53-.31-8.68-.51-2.94-12.55-3.23-24.83-2.84-37.15.35-11,1.16-21.9,1.3-32.86.2-16,0-31.93,0-47.89,0-4.18,0-8.36,0-12.79l34.69-3c5.63-.49,11.26-1.36,16.88-1.34,16.23.05,31.9,2.1,46.53,10.35,24.73,13.94,51.16,15.12,78.2,8.16,10.07-2.59,19.65-6.81,26.61-14.75,5.5-6.29,12-6.2,19.25-6,20.84.65,41.7,1.13,62.56,1.2C434.11,438.09,439,436.22,445.8,434.8ZM297.58,529.37c1.57-1.17,3-1.67,3.12-2.41,1.42-7.75,7.49-10.5,13.73-13.16,3.26-1.39,6.53-2.78,9.68-4.38,29.37-14.93,58.74-29.83,88-44.94,4.41-2.27,9.14-4.67,11.78-11.27-3.49,1.35-5.77,2.05-7.9,3.09q-57.33,27.87-114.64,55.81C294.42,515.5,293.26,520.27,297.58,529.37Zm-24.77-14L160.28,456.52c-.38.6-.76,1.2-1.15,1.79,5.07,3.53,9.94,7.41,15.25,10.53,25.58,15,50.83,30.71,78.37,42.13,8.14,3.38,16.36,6.75,18.34,16.9.05.31,1.21.39,2.4.74C278,523.52,273.05,518.94,272.81,515.37Z"/><path class="cls-1" d="M366,141.76c9.7,13.85,16.42,28.92,17.59,46,.93,13.61,2.45,27.35,1.55,40.88-1.65,24.66.19,49.33-1.31,73.92-.84,13.71-2,27.46-8.87,40.13-5.06,9.34-12.14,14.18-22.58,14.68-4,.19-8.28-.37-11.59,4.2H361c-6.07,11.43-13.54,19.79-23,24.86-6,3.25-14.44,2.56-21.81,2.8-21.27.67-42.55.91-63.82,1.29-1.33,0-2.9.15-4-.46C217,372,198,345.2,193.8,308.88c-2.65-23.18-3-46.66-6.44-69.7-2.74-18.42-2.05-36.62-1.65-55,.44-20.4,9.6-36.61,24.24-50.08,19.23-17.69,41.16-30.49,67.53-33.24,32.82-3.41,61.92,4.81,84.07,30.89,2.36,2.79,3.22,6.85,4.79,10.34l-4.94-1.55,17.53,60.13c.37-5.74.67-11.72-.77-17.24C374.52,169.45,370.11,155.65,366,141.76ZM333.2,352.1c7.42-.05,12.15-4.5,15.64-10.23,12.49-20.55,20.72-42.52,22.48-66.79.88-12.23,1.37-24.49,4.6-36.57,7.24-27.12-12.88-49.24-40.36-45-23.46,3.6-35.17,17.76-33.07,41.11,1.31,14.57,9.6,25,22.61,31.23,12.52,6,24.75,4.79,36.09-3.43,2.79-2,5.48-4.17,9.89-7.52-1.81,11.82-2.18,22.09-5.07,31.6-7.05,23.21-13.27,47.11-33.18,63.74C332.7,350.32,333,350.88,333.2,352.1ZM214.88,258.53c1.91,2.06,3.75,4.2,5.75,6.17,15.63,15.42,38.24,14.35,52.33-2.53,8.71-10.44,11.26-22.51,8.61-35.68-4.08-20.3-22.5-34.12-41.82-30.65-22.52,4-34.43,20.55-32.8,41.23.58,7.39,1.28,14.78,1.61,22.18,1.13,24.56,3.67,48.63,17.82,70,5.61,8.47,11.81,15.91,21.14,20.24,1.57.72,3.52.64,5.29.94l1.48-1.5C221.91,327.1,213.54,294.88,214.88,258.53Zm82.24,68.68C303.7,322.89,310,319,316,314.7c4.48-3.18,6-7.27,3.69-12.87-8.11-19.93-15.86-40-23.89-60-.78-2-2.52-3.51-5.07-6.93-7.21,24.29-13.78,46.59-20.5,68.86-1.39,4.62-1,8.25,3.64,10.73C281.35,318.54,288.74,322.63,297.12,327.21ZM322,145.92c-3.35,8.73-1.33,12.33,7.07,13.19,3.59.36,7.19.57,10.78.86a4.43,4.43,0,0,1-3,1.81c-5.45,1-12.6.15-14.59,6.43-1.94,6.13,2.61,11.35,6.72,15.88a22.34,22.34,0,0,0,3.35,2.54c.08-.57.17-1.14.25-1.71l30.22,2.27,4.11-9.3c-2.93-2-5.35-3.43-7.49-5.19-1.49-1.24-3.45-2.8-3.73-4.46-1.32-7.92-6.15-13.07-12.52-17,2.86-13,2.81-12.88-9.78-17.76-2.71-1.05-5-3.2-7.36-5.07-6-4.88-12.64-6.82-21-4.67l12.79,4C312.85,137.62,312.85,137.62,322,145.92ZM210,186.44c2.45,4.63,3.21,9.9,9.56,8.89a88.58,88.58,0,0,0,14.36-3.71c4.89-1.65,7.65-5.6,6.93-10.65-.8-5.66-2.72-11.17-4-16.17,2.66-3.38,6.43-6,6.71-9,.72-7.57,6.24-10.43,11.18-14.13,3.69-2.76,7.6-5.26,11.08-8.27,4.71-4.06,8-8.85,5.5-16-1.66.15-3.24-.13-4.34.47-9,4.91-18.13,9.69-26.85,15.09-11.9,7.38-12.32,9.9-5.54,22.16.25.45,0,1.16,0,1.74-2.49.68-4.84,1.39-7.22,2-12,2.89-14.26,6.2-8.1,17.87.27.52,0,1.35-.11,2.58ZM322,348c-11-2.1-45.14-1.81-53.74.55.23,3.82.47,7.82.78,12.91,16.58,0,32.05.18,47.49-.24,1.87-.05,4.44-3,5.26-5.15C322.75,353.68,322,350.65,322,348ZM190.69,220c5-3.07,3.43-6.93,3.64-10.13.72-11.24.4-22.62,2.12-33.7,2-12.94,6-25.46,16.46-34.68.56-.5.69-1.47,1-2.22C188.49,160.88,188.78,189.57,190.69,220ZM248,361.5c-11.64-3-17.64-2.66-25.92,1.56C232.35,363.57,240.2,364.86,248,361.5Z"/><path class="cls-1" d="M470.27,434.78c29,3,51.85,14.36,73.08,32.55-24.18,21.93-52.19,38.26-70.45,67.81-3.81-18.46.76-34.43-.1-50.35C471.92,468.63,471.16,452.46,470.27,434.78Z"/><path class="cls-1" d="M477.34,570.12c0-8.37-.7-15.86.27-23.12.56-4.1,3.31-8.31,6.09-11.61,3.55-4.22,8.34-7.38,12.23-11.36,9.11-9.35,18-18.91,27.79-29.24,16.95,22.89,20.75,48.78,26.39,75C525.45,575,501.79,571.79,477.34,570.12Z"/><path class="cls-1" d="M57.35,488.33c13.87-23.78,35.52-35,59.05-45.46-.63,31.41-1.24,61.6-1.88,93.63C92.22,523,76.7,503.7,57.35,488.33Z"/><path class="cls-1" d="M112.7,574.84H54.13c-1-22.53,9.47-41.25,17.45-61.84,2.52,2,4.64,3.58,6.61,5.31,9.49,8.41,18.66,17.21,28.52,25.15,4.33,3.49,6.51,6.83,6.09,12.4C112.35,561.8,112.7,567.79,112.7,574.84Z"/><path class="cls-1" d="M364.64,418.64c2.84,8.11.84,11.37-5.23,11.51a17.08,17.08,0,0,0-13,5.83c-10.38,11.3-24.21,15.58-38.79,17.83-27.52,4.25-52.39-3.46-75.94-17.09-3.58-2.07-7.46-3.63-12.46-6,.54-2.06.38-6,2.19-7.41,3.37-2.71,7.6-2.55,11.84-.07,30.91,18.07,63.82,18.68,97.41,10,7.39-1.91,14.08-6.47,21.18-9.62C355.81,421.81,360,420.42,364.64,418.64Z"/><path class="cls-1" d="M136.33,574l-11.09.83a64.35,64.35,0,0,1-1.12-26.33c.55-3.46,1.37-7,1.27-10.41-.42-15.74-1.37-31.46-1.66-47.19-.3-16.21-.07-32.42-.07-49.18h11.77C132.46,485.81,134.65,529.66,136.33,574Z"/><path class="cls-1" d="M454.26,437.1h9.41c1.67,22.44-1.91,44.71-.91,66.75,1,21.71,1.28,43.38,1,65.93l-8.18.57C453.08,561.73,452.16,463.65,454.26,437.1Z"/><path class="cls-1" d="M233.4,412.65c5.89,2.25,11.72,4.67,17.68,6.73,17,5.86,34.33,3.46,51.38,1,16.32-2.37,32.4-6.4,48.83-9.76,2.41,3.67,0,5.83-3.32,8a86.65,86.65,0,0,1-46.24,13.84c-17.36.3-34.68-1.41-51.39-6.61-5.34-1.66-10.4-4.38-15.34-7.07-1.46-.79-2.08-3.13-3.09-4.76Z"/><path class="cls-1" d="M322.54,394.63,319,409.91c-6.87.88-14.12,2.19-21.43,2.65s-14.79.1-22.85.1c-1.45-4-2-8.19-4.26-11-1.87-2.37-5.71-3.18-8.67-4.67C266.87,393.75,290.23,392.86,322.54,394.63Z"/><path class="cls-1" d="M390.71,225.16C396,228.06,399,231,398.52,237c-1,13-1.48,26-2.51,39-.17,2.18-2.11,4.22-4.5,6C392,263.06,386,244.57,390.71,225.16Z"/><path class="cls-1" d="M182.7,281.27c-3.62.55-5.36-1.39-5.67-4.66-1.07-11.26-2.53-22.52-2.66-33.79,0-3.39,3.77-6.82,6.36-11.14C183.89,241.86,184.7,268.49,182.7,281.27Z"/><path class="cls-1" d="M262,405.32c1,2.72,2.07,5.86,3.51,9.91-12.13-.46-22.16-4.59-31.95-9-1.91-.88-2.42-4.84-4.65-9.71Z"/><path class="cls-1" d="M352.89,388.87c.79,14.58-2.8,17.77-21.23,19.58C337.82,400.41,345.18,395.63,352.89,388.87Z"/><path d="M297.58,529.37c-4.32-9.1-3.16-13.87,3.78-17.26Q358.67,484.17,416,456.3c2.13-1,4.41-1.74,7.9-3.09-2.64,6.6-7.37,9-11.78,11.27-29.27,15.11-58.64,30-88,44.94-3.15,1.6-6.42,3-9.68,4.38-6.24,2.66-12.31,5.41-13.73,13.16C300.56,527.7,299.15,528.2,297.58,529.37Z"/><path d="M272.81,515.37c.24,3.57,5.17,8.15.68,13.24-1.19-.35-2.35-.43-2.4-.74-2-10.15-10.2-13.52-18.34-16.9-27.54-11.42-52.79-27.09-78.37-42.13-5.31-3.12-10.18-7-15.25-10.53.39-.59.77-1.19,1.15-1.79Z"/><path d="M333.2,352.1c-.25-1.22-.5-1.78-.37-1.88C352.74,333.59,359,309.69,366,286.48c2.89-9.51,3.26-19.78,5.07-31.6-4.41,3.35-7.1,5.5-9.89,7.52-11.34,8.22-23.57,9.44-36.09,3.43-13-6.24-21.3-16.66-22.61-31.23-2.1-23.35,9.61-37.51,33.07-41.11,27.48-4.22,47.6,17.9,40.36,45-3.23,12.08-3.72,24.34-4.6,36.57-1.76,24.27-10,46.24-22.48,66.79C345.35,347.6,340.62,352.05,333.2,352.1ZM309.11,236.37c6.43,18.08,21.79,28,37,24.85,14.62-3,25-15.42,23.9-29.35l-13.22.59c-1.73,9.92-7.85,15.14-16.66,15.89-9.44.8-15.79-4.83-19.35-13.17-2.24.25-4,.47-5.72.65S311.62,236.14,309.11,236.37ZM352,231.29c-.07-6.54-5.72-11.64-12.62-11.41-6.11.2-13.51,7.51-13.26,13.1.22,4.86,7.13,9.93,13.41,9.83C346.74,242.7,352.09,237.75,352,231.29Z"/><path d="M214.88,258.53c-1.34,36.35,7,68.57,39.41,90.38l-1.48,1.5c-1.77-.3-3.72-.22-5.29-.94-9.33-4.33-15.53-11.77-21.14-20.24-14.15-21.35-16.69-45.42-17.82-70-.33-7.4-1-14.79-1.61-22.18-1.63-20.68,10.28-37.19,32.8-41.23,19.32-3.47,37.74,10.35,41.82,30.65,2.65,13.17.1,25.24-8.61,35.68-14.09,16.88-36.7,17.95-52.33,2.53C218.63,262.73,216.79,260.59,214.88,258.53Zm.19-17.2c2.48,14.81,19.44,27.84,33.88,26.36,16-1.65,28.08-15.2,27.15-30.8l-9.77.52a24.62,24.62,0,0,1-19.8,16.93c-11.16,2-17-6.43-22.82-14Zm46.75-6.24c0-8.21-7-13.47-18-13.42-8.09,0-15.28,6.85-15.27,14.48,0,6.42,7.68,13,15.37,13.19C253.27,249.55,261.79,242.77,261.82,235.09Z"/><path d="M297.12,327.21c-8.38-4.58-15.77-8.67-23.21-12.68-4.6-2.48-5-6.11-3.64-10.73,6.72-22.27,13.29-44.57,20.5-68.86,2.55,3.42,4.29,5,5.07,6.93,8,20,15.78,40,23.89,60,2.28,5.6.79,9.69-3.69,12.87C310,319,303.7,322.89,297.12,327.21Zm15-19.42c-5.52-16.76-10.88-33-16.25-49.28-1.28,10-.6,19.48.06,29S294.39,307,298,317.36Zm-22.51-42.41-2.44-.19c-2.53,11.57-5.25,23.11-7.54,34.72-1.56,7.93-1.29,8,8.95,11.82C290.57,296.06,289,280.67,289.59,265.38Z"/><path d="M322,145.92c-9.14-8.3-9.14-8.3-4.16-18.19l-12.79-4c8.34-2.15,14.94-.21,21,4.67,2.32,1.87,4.65,4,7.36,5.07,12.59,4.88,12.64,4.76,9.78,17.76,6.37,3.89,11.2,9,12.52,17,.28,1.66,2.24,3.22,3.73,4.46,2.14,1.76,4.56,3.19,7.49,5.19l-4.11,9.3-30.22-2.27c-.08.57-.17,1.14-.25,1.71a22.34,22.34,0,0,1-3.35-2.54c-4.11-4.53-8.66-9.75-6.72-15.88,2-6.28,9.14-5.45,14.59-6.43a4.43,4.43,0,0,0,3-1.81c-3.59-.29-7.19-.5-10.78-.86C320.66,158.25,318.64,154.65,322,145.92Z"/><path d="M210,186.44l9.18-7.09c.07-1.23.38-2.06.11-2.58-6.16-11.67-3.87-15,8.1-17.87,2.38-.57,4.73-1.28,7.22-2,0-.58.22-1.29,0-1.74-6.78-12.26-6.36-14.78,5.54-22.16C248.85,127.64,258,122.86,267,118c1.1-.6,2.68-.32,4.34-.47,2.52,7.12-.79,11.91-5.5,16-3.48,3-7.39,5.51-11.08,8.27-4.94,3.7-10.46,6.56-11.18,14.13-.28,3-4.05,5.57-6.71,9,1.29,5,3.21,10.51,4,16.17.72,5.05-2,9-6.93,10.65a88.58,88.58,0,0,1-14.36,3.71C213.22,196.34,212.46,191.07,210,186.44Z"/><path d="M322,348c0,2.63.71,5.66-.21,8.07-.82,2.15-3.39,5.1-5.26,5.15-15.44.42-30.91.24-47.49.24-.31-5.09-.55-9.09-.78-12.91C276.9,346.21,311,345.92,322,348Z"/><path d="M190.69,220c-1.91-30.4-2.2-59.09,23.24-80.73-.33.75-.46,1.72-1,2.22-10.42,9.22-14.45,21.74-16.46,34.68-1.72,11.08-1.4,22.46-2.12,33.7C194.12,213,195.66,216.9,190.69,220Z"/><path d="M366,141.76c4.1,13.89,8.51,27.69,12.15,41.7,1.44,5.52,1.14,11.5.77,17.24L361.4,140.57l4.94,1.55S366,141.76,366,141.76Z"/><path d="M248,361.5c-7.84,3.36-15.69,2.07-25.92,1.56C230.4,358.84,236.4,358.52,248,361.5Z"/><path class="cls-1" d="M309.11,236.37c2.51-.23,4.21-.37,5.91-.54s3.48-.4,5.72-.65c3.56,8.34,9.91,14,19.35,13.17,8.81-.75,14.93-6,16.66-15.89l13.22-.59c1.14,13.93-9.28,26.34-23.9,29.35C330.9,264.34,315.54,254.45,309.11,236.37Z"/><path class="cls-1" d="M352,231.29c.07,6.46-5.28,11.41-12.47,11.52-6.28.1-13.19-5-13.41-9.83-.25-5.59,7.15-12.9,13.26-13.1C346.3,219.65,352,224.75,352,231.29Zm-14.51-2.93c-1.38,2-2.91,3.21-2.82,4.31.1,1.37,1.54,2.63,2.4,3.93,1.23-1.3,2.9-2.44,3.49-4C340.85,231.89,339,230.37,337.51,228.36Z"/><path class="cls-1" d="M215.07,241.33l8.64-1c5.82,7.56,11.66,16,22.82,14a24.62,24.62,0,0,0,19.8-16.93l9.77-.52C277,252.49,265,266,249,267.69,234.51,269.17,217.55,256.14,215.07,241.33Z"/><path class="cls-1" d="M261.82,235.09c0,7.68-8.55,14.46-17.91,14.25-7.69-.18-15.37-6.77-15.37-13.19,0-7.63,7.18-14.45,15.27-14.48C254.79,221.62,261.86,226.88,261.82,235.09Zm-14.59-1.67-7,2.57c.68,1.36,1.18,3.73,2.08,3.89C245.69,240.5,247.26,238.46,247.23,233.42Z"/><path class="cls-1" d="M312.1,307.79,298,317.36c-3.63-10.41-1.44-20.27-2.11-29.88s-1.34-19-.06-29C301.22,274.77,306.58,291,312.1,307.79Z"/><path class="cls-1" d="M289.59,265.38c-.55,15.29,1,30.68-1,46.35-10.24-3.84-10.51-3.89-8.95-11.82,2.29-11.61,5-23.15,7.54-34.72Z"/><path d="M337.51,228.36c1.52,2,3.34,3.53,3.07,4.26-.59,1.54-2.26,2.68-3.49,4-.86-1.3-2.3-2.56-2.4-3.93C334.6,231.57,336.13,230.35,337.51,228.36Z"/><path d="M247.23,233.42c0,5-1.54,7.08-4.92,6.46-.9-.16-1.4-2.53-2.08-3.89Z"/></svg>