<svg width="400" height="450" viewBox="0 0 400 450" xmlns="http://www.w3.org/2000/svg"><g fill="none" fill-rule="evenodd"><path d="M210.382 295.95c13.72 3.847 26.545 2.821 39.529 2.881 5.325-10.177 10.712-19.852 13.885-30.799-10.585 7.045-23.65 8.427-33.421 17.116-5.192 4.616-12.483 6.871-19.993 10.802m33.758 11.491c-9.9-.789-19.509-1.241-29.035-2.385-16.824-2.019-32.096-8.419-46.359-17.418-5.919-3.734-11.452-8.295-20.161-10.358 21.902 25.439 41.354 50.805 68.207 69.734l12.339-16.514c-5.31-2.165-10.006-3.941-14.582-5.986a202.215 202.215 0 01-13.011-6.375c-4.211-2.254-8.273-4.785-12.401-7.194 3.356-.148 6.073.899 8.849 1.76 7.676 2.38 15.252 5.307 23.095 6.883 15.37 3.089 15.518 2.731 23.033-11.041.106-.196.019-.495.026-1.106m30.047 10.74l-1.548-.827c1.438-2.746 2.782-5.547 4.328-8.231 8.874-15.402 17.648-30.864 26.774-46.116 3.542-5.92.383-10.425-2.389-14.822-2.478-3.928-6.731-3.709-10.95-2.736-3.194.736-5.933 1.503-7.957 4.623-2.017 3.111-4.723 5.965-7.662 8.243-3.429 2.657-5.026 6.019-6.303 9.954-7.338 22.615-16.139 44.596-29.238 64.596-4.521 6.902-9.403 13.568-14.357 20.684 6.706 4.615 13.154 8.926 19.47 13.423 14.028 9.991 28.234 19.755 41.873 30.253 6.715 5.168 12.647 11.523 15.561 20.43 21.772.977 42.967-5.454 65.777-6.085.051-4.463.128-8.659.14-12.856.015-5.372-.28-10.759.015-16.115.807-14.679 3.726-29.304 1.032-44.06-2.173-11.904-3.517-24.053-6.844-35.629-4.429-15.418-12.905-27.733-30.531-30.808-2.749-.478-5.704-3.058-7.433-5.476-4.958-6.937-4.783-7.121-13.72-5.212-9.014 20.826-21.653 39.367-36.038 56.767m16.259 100.281c-4.9-8.33-11.175-12.92-17.382-17.523-18.137-13.446-36.473-26.628-54.476-40.25-21.541-16.3-41.422-34.376-57.417-56.354-8.856-12.17-17.101-24.829-26.593-36.476-5.849-7.177-11.463-14.116-14.434-23.017-.527-1.58-2.862-3.159-4.644-3.602-5.163-1.284-7.964.133-9.965 5.412-2.111 5.569-5.414 8.42-11.549 7.539-1.566-.225-3.228.012-4.823.218-5.497.711-9.779 2.758-10.588 9.104-.509 3.998-3.082 6.514-6.485 8.699-6.106 3.919-12.136 8.045-17.731 12.649-7.274 5.985-14.382 12.339-18.133 21.327-4.797 11.492-8.272 23.341-8.078 35.965.284 18.542.585 37.085 1.009 55.624.114 4.993.703 9.976 1.134 15.764 16.395 1.412 32.143 2.861 47.906 4.102 19.545 1.54 39.09 3.121 58.659 4.285 16.604.987 33.164 1.958 49.893.605 26.228-2.12 52.554-3.078 78.85-4.287 7.715-.355 15.468.11 24.847.216M240.674 272.94c29.801-9.783 43.259-26.365 47.442-52.94 1.457-9.257 1.515-18.754 1.907-28.154.576-13.821 5.351-25.219 17.911-32.279 15.111-8.494 31.097-14.796 48.055-18.477 1.778-.386 3.781.271 5.68.444l.459 2.059c-1.669.904-3.242 2.206-5.026 2.64-5.487 1.34-11.081 2.23-16.583 3.509-11.116 2.583-21.475 7.118-31.098 13.153-9.725 6.101-13.35 14.97-10.63 26.824 3.935.729 7.89 2.196 11.788 2.056 15.46-.554 29.292-5.946 39.365-17.789 10.093-11.866 18.941-24.794 28.296-37.286 1.002-1.338 1.744-2.871 3.09-5.122-30.442 5-59.103 12.839-87.462 20.879-3.254-8.485-5.679-16.21-9.105-23.463-8.441-17.873-22.3-30.011-40.822-36.873-2.235-.828-4.45-1.768-6.556-2.879-4.423-2.336-8.527-5.524-13.188-7.124-21.448-7.361-41.942-2.943-61.912 5.946-1.455.649-2.831 1.6-4.046 2.642-5.471 4.693-10.587 9.853-16.356 14.138-12.345 9.166-20.91 20.755-25.105 35.615-.935 3.311-1.584 6.185 1.187 8.933.53.526.275 1.843.524 4.054-32.859-9.879-65.517-16.027-99.995-19.084 1.365 2.666 1.954 4.148 2.816 5.447 6.994 10.555 13.885 21.182 21.108 31.578 8.072 11.618 19.516 19.246 32.025 25.215 3.749 1.789 8.317 2.776 12.458 2.631 7.713-.269 15.388-1.637 23.475-2.595.271-8.958-.369-16.254-8.219-21.77-17.409-12.232-37.137-19.409-56.577-27.293-1.746-.708-3.498-1.4-5.248-2.1l.539-1.692c4.886 1.135 10.036 1.629 14.605 3.526a766.091 766.091 0 0137.589 16.83c5.305 2.545 10.102 6.166 15.072 9.387 4.907 3.181 7.002 7.912 7.492 13.617.32 3.721 1.081 7.403 1.591 11.109.548 3.99 1.969 8.145 1.334 11.949-1.042 6.235.639 11.687 2.558 17.285 1.572 4.588 3.225 9.152 4.624 13.793 5.648 18.729 19.573 28.269 37.253 33.569 1.825.548 3.943.117 6.309.144l-.637-11.224c1.674 1.875 2.236 3.923 3.046 5.868 3.767 9.044 9.311 16.054 19.503 18.607 12.022 3.012 23.149 2.731 33.949-4.57 8.56-5.786 14.633-12.484 15.142-23.244.129-2.745.785-5.463 1.198-8.194l2.178.355c1.455 6.715-2.839 12.902-3.003 20.35m57.064-127.066c15.742-5.05 31.018-10.263 46.493-14.793 9.014-2.639 18.274-4.69 27.564-6.032 5.692-.824 11.649.192 18.736.423-1.996 4.417-3.023 7.774-4.87 10.594-9.292 14.186-18.304 28.535-29.907 41.108-16.179 17.531-35.275 24.886-59.181 21.541-.534 2.781-1.788 5.685-1.494 8.423 1.094 10.212-1.045 19.798-4.571 29.227-.364.973-.564 2.006-1.094 3.933 11.267-2.552 18.093 2.193 21.429 12.14 2.171.474 3.979 1.096 5.823 1.23 5.606.405 9.533 2.724 11.832 8.189.761 1.81 3.353 3.667 5.361 4.007 20.1 3.411 29.194 17.994 35.053 35.144 3.021 8.843 3.916 18.406 5.907 27.615.882 4.082.436 8.45 3.826 12.016 1.297 1.365.892 4.607.807 6.978-.276 7.762-.831 15.514-1.151 23.274-.577 13.974-.94 27.958-1.687 41.922-.151 2.826-1.247 5.78-2.614 8.286-.693 1.271-3.055 2.508-4.507 2.348-11.703-1.284-23.093.985-34.49 2.823-13.605 2.194-27.256 2.602-41.008 2.765a4413.19 4413.19 0 00-95.217 2.176c-20.14.673-40.284 3.46-60.37 2.974-22.52-.545-45.005-3.442-67.449-5.847-11.73-1.257-23.346-3.613-34.995-5.574-2.099-.353-4.2-1.006-6.151-1.86-5.15-2.254-9.143-5.479-9.687-11.705-.514-5.868-1.418-11.7-2.021-17.563-3.053-29.68 1.297-58.363 11.813-86.181 3.94-10.422 11.467-18.244 19.7-25.222 6.125-5.192 13.014-9.522 19.775-13.909 2.376-1.541 4.072-2.904 4.833-5.873 2.24-8.741 5.761-11.594 14.499-12.4 2.934-.272 5.896-.243 9.621-.379 2.357-9.664 8.247-14.684 19.736-11.231l-6.864-36.172c-15.742 6.944-31.17 7.895-46.872.785-14.933-6.762-27.049-16.612-35.022-31.079-5.454-9.895-10.735-19.894-15.764-30.01-1.616-3.25-2.181-7.024-3.56-11.683 18.069-1.268 34.75 1.308 51.252 3.987 16.382 2.661 32.495 6.986 49.109 10.665.147-.629.512-1.868.717-3.131 3.401-20.994 16.45-34.52 34.401-44.094 3.565-1.902 6.624-3.593 9.101-7.256 2.418-3.575 6.666-6.339 10.668-8.347 21.647-10.864 43.728-12.806 65.839-1.445 4.425 2.273 7.75 6.743 12.216 8.865 4.485 2.13 10.204 1.714 14.618 3.935 21.622 10.878 34.472 28.6 39.129 52.315.101.511.323.997.688 2.098" fill="#000"/><path d="M132.3 137.207c.682-.507 1.363-1.015 2.045-1.521l-5.705-7.374-1.403.888 5.063 8.007zm141.875-13.182c-5.482 3.197-5.482 3.197-3.259 7.243l3.259-7.243zm2.821 59.551l-.267 1.592c6.696 2.594 6.914 2.551 8.667-2.479l-8.4.887zm-142.46.703c-.735-5.489-2.952-6.209-11.54-3.364l11.54 3.364zm3.824 5.822c-5.623-4.536-7.558-4.529-13.575-.142 4.69 1.991 8.726.766 13.575.142zm138.893-11.683c3.836-1.062 8.941 1.56 11.435-3.919-6.991-2.059-8.294-1.669-11.435 3.919zm-108.945 4.475c-2.503 3.005-4.997 4.689-4.926 6.257.082 1.829 2.119 4.645 3.818 5.091 3.086.812 3.945-2.418 3.978-4.703.025-1.678-1.382-3.377-2.87-6.645zm13.612 33.963c-7.015 5.052-10.367 12.188-9.675 21.212l9.675-21.212zm13.756 42.939c5.643 2.232 11.261 2.758 16.855.846.627-.215.677-2.118 1.107-3.632-6.689-1.267-12.457-.413-17.962 2.786zm43.652-132.998l1.665.22c3.109-6.187 4.025-18.325.82-24.718l-2.485 24.498zm-49.8 53.174l2.704-.746c1.516-4.893-3.098-7.915-4.984-11.671-2.163-4.308-4.909-8.323-7.402-12.464l-1.446.774 11.128 24.107zm55.143 59.418c1.991-7.499-3.886-17.262-13.293-22.336l13.293 22.336zM162.806 99.394c-2.415 5.189.22 9.752 1.774 14.224 1.492 4.293.492 10.032 6.921 13.341-1.078-10.571-3.417-19.477-8.695-27.565zm64.217 77.565c5.601-3.953 14.183-21.539 13.946-29.939-5.179 9.188-9.896 17.492-14.517 25.847-.474.859-.486 2.028-.494 3.056-.003.339.682.682 1.065 1.036zm-17.166-28.066c-2.846 12.147-2.272 24.941 1.225 30.247 2.948-10.855 1.185-20.568-1.225-30.247zm-2.579-12.225c4.413-5.424 4.829-10.206 2.255-24.273-1.452-7.934-3.283-15.798-4.944-23.695-.524 8.196-.361 16.255 1.248 24.015 1.591 7.679-1.48 15.679 1.441 23.953zm-76.41 18.602c13.938-22.061 33.765-21.068 55.175-14.006-24.138-14.215-50.068-7.457-55.175 14.006zm109.306 87.832c-11.691 1.209-22.764 2.856-33.889 3.366-11.123.51-22.297-.115-34.331-.252 11.679 8.015 55.045 5.735 68.22-3.114zm-43.625-98.849c8.259 1.31 16.704-1.471 25.235-3.212 10.516-2.147 20.969-4.432 31.842-3.791 7.215.425 12.889 3.196 16.922 9.236.947 1.418 1.981 2.779 3.504 4.904-1.258-10.449-7.448-16.112-17.622-17.453-9.458-1.247-18.619-.145-27.778 2.324-10.819 2.916-21.746 5.431-32.103 7.992zm19.094 78.258c2.619-1.218 4.943-2.013 6.962-3.289 6.938-4.383 7.598-16.7 1.22-20.859-7.148-4.662-24.513-2.935-30.485 3.031-4.107 4.102-5.019 11.726-1.981 16.464 1.625 2.535 3.877 3.591 6.877 3.067 2.871-.502 4.313-1.91 3.519-4.844-.599-.453-.98-.944-1.456-1.067-2.031-.526-4.091-.943-6.058-1.38-1.422-6.885-.329-9.494 4.956-11.823 6.832-3.008 13.802-2.018 20.533.049 1.708.525 3.215 3.276 3.837 5.303.578 1.888-.145 4.175-.29 6.222-10.011.906-10.83 1.801-7.634 9.126zm24.212-15.853c4.013-.222 6.322-.256 8.61-.495 8.118-.85 15.114-3.971 20.009-10.727 6.576-9.079 4.515-19.494-5.386-24.632-3.869-2.008-8.67-2.915-13.085-3.046-15.715-.467-24.347 10.989-20.091 26.053.586 2.074 1.13 4.161 1.633 6.255 2.217 9.238 8.516 14.207 17.43 15.803 10.773 1.929 19.595-1.965 26.409-10.381 2.416-2.983 3.347-6.498 2.222-10.735-1.363 8.808-7.338 12.842-14.84 15.339-7.534 2.508-14.629 1.854-22.911-3.434zm-106.43-9.049c.671 11.557 7.634 19.998 17.548 22.209 12.162 2.713 23.747-1.985 28.955-12.22 2.537-4.985 4.913-10.231 6.134-15.636.752-3.33.044-7.605-1.495-10.722-4.242-8.591-13.818-13.096-23.651-11.907-9.614 1.162-14.048 8.092-17.319 16.083-.362.885.555 2.294.77 3.067 13.324-7.026 26.398-8.614 40.341-3.155.584 8.64-4.578 14.086-10.788 16.725-11.295 4.8-19.798-1.79-27.205-10.519-.445 12.749 7.68 18.369 25.584 18.506-12.298 10.272-26.494 6.03-38.874-12.431zm107.249 75.33c.164-7.448 4.459-13.634 3.003-20.35l-2.178-.355c-.413 2.731-1.069 5.45-1.198 8.194-.509 10.76-6.582 17.458-15.142 23.244-10.8 7.302-21.927 7.582-33.949 4.57-10.192-2.553-15.736-9.563-19.503-18.607-.81-1.945-1.372-3.992-3.046-5.867l.637 11.223c-2.366-.027-4.484.404-6.309-.143-17.68-5.301-31.605-14.841-37.253-33.57-1.399-4.64-3.052-9.205-4.624-13.793-1.919-5.598-3.6-11.049-2.558-17.285.635-3.804-.786-7.959-1.334-11.949-.51-3.706-1.271-7.388-1.591-11.108-.49-5.706-2.585-10.437-7.492-13.618-4.97-3.221-9.767-6.841-15.072-9.386a764.202 764.202 0 00-37.589-16.83c-4.569-1.898-9.719-2.392-14.605-3.527l-.539 1.693c1.75.699 3.502 1.391 5.248 2.099 19.44 7.884 39.168 15.061 56.577 27.293 7.85 5.516 8.49 12.813 8.219 21.77-8.087.958-15.762 2.326-23.475 2.595-4.141.145-8.709-.841-12.458-2.63-12.509-5.97-23.953-13.598-32.025-25.216-7.223-10.396-14.114-21.023-21.108-31.577-.862-1.3-1.451-2.782-2.816-5.448 34.478 3.057 67.136 9.205 99.995 19.084-.249-2.211.006-3.528-.524-4.053-2.77-2.748-2.122-5.623-1.187-8.934 4.195-14.859 12.76-26.449 25.105-35.615 5.769-4.284 10.885-9.445 16.356-14.138 1.215-1.042 2.591-1.993 4.046-2.642 19.97-8.889 40.464-13.307 61.912-5.946 4.661 1.6 8.765 4.788 13.188 7.124 2.106 1.112 4.321 2.051 6.556 2.879 18.522 6.862 32.381 19 40.822 36.873 3.426 7.253 5.851 14.978 9.105 23.463 28.359-8.04 57.02-15.879 87.462-20.879-1.346 2.251-2.088 3.784-3.09 5.122-9.355 12.492-18.203 25.42-28.296 37.286-10.073 11.843-23.905 17.235-39.365 17.789-3.898.14-7.853-1.327-11.788-2.056-2.72-11.854.905-20.723 10.63-26.824 9.623-6.035 19.983-10.57 31.098-13.153 5.502-1.279 11.096-2.169 16.583-3.509 1.784-.434 3.357-1.736 5.026-2.64l-.459-2.059c-1.899-.173-3.902-.83-5.68-.444-16.958 3.681-32.944 9.983-48.055 18.477-12.56 7.06-17.335 18.458-17.911 32.279-.392 9.4-.45 18.897-1.907 28.154-4.183 26.575-17.641 43.157-47.442 52.94z" fill="#FFF"/><path d="M169.324 349.142c-2.601-3.63-4.165-6.631-6.478-8.852-3.675-3.53-7.781-6.629-11.827-9.752-13.516-10.429-25.662-22.152-35.063-36.529-.626-.958-1.549-1.721-3.074-3.38 6.894 20.66 40.061 55.48 56.442 58.513m-68.715-11.743l-1.168 1.633c4.525 2.869 9.022 5.784 13.582 8.596 6.187 3.817 13.104 6.777 18.496 11.49 11.424 9.984 24.79 15.662 38.688 21.023 16.842 6.497 33.572 13.132 51.425 16.273 4.448.784 9.032.795 13.554 1.162l.223-1.748c-7.235-2.736-14.463-5.492-21.708-8.202-9.056-3.385-18.163-6.638-27.18-10.126-7.512-2.904-14.989-5.922-22.369-9.146-8.846-3.864-17.666-7.808-26.328-12.063-12.485-6.133-24.817-12.58-37.215-18.892m189.837 81.063c-9.379-.106-17.132-.57-24.847-.216-26.296 1.209-52.622 2.167-78.85 4.288-16.729 1.352-33.289.38-49.893-.606-19.569-1.163-39.114-2.744-58.658-4.284-15.764-1.241-31.512-2.69-47.907-4.103-.431-5.788-1.02-10.77-1.134-15.763-.424-18.54-.725-37.082-1.01-55.624-.193-12.624 3.282-24.473 8.079-35.965 3.75-8.988 10.859-15.342 18.133-21.327 5.595-4.605 11.625-8.731 17.73-12.65 3.404-2.184 5.977-4.701 6.486-8.698.809-6.347 5.09-8.393 10.588-9.104 1.595-.206 3.257-.444 4.823-.218 6.135.881 9.439-1.97 11.549-7.539 2-5.28 4.802-6.697 9.965-5.412 1.782.443 4.117 2.022 4.644 3.601 2.971 8.902 8.585 15.841 14.434 23.018 9.493 11.646 17.737 24.305 26.593 36.475 15.995 21.979 35.876 40.055 57.417 56.354 18.003 13.623 36.34 26.805 54.476 40.25 6.207 4.602 12.482 9.193 17.382 17.523" fill="#FFF"/><path d="M323.134 302.567c-11.785 8.495-48.557 51.034-49.873 55.59 8.131-.114 13.611-4.761 18.032-10.58 9.402-12.376 18.484-24.996 27.596-37.589 1.661-2.296 2.842-4.939 4.245-7.421m-48.947 15.615c14.385-17.4 27.024-35.941 36.038-56.767 8.937-1.91 8.763-1.725 13.721 5.212 1.728 2.418 4.683 4.998 7.432 5.476 17.626 3.074 26.102 15.39 30.531 30.808 3.327 11.576 4.671 23.724 6.844 35.629 2.694 14.756-.225 29.38-1.032 44.06-.295 5.356 0 10.742-.015 16.114-.012 4.198-.089 8.394-.14 12.857-22.81.63-44.005 7.06-65.777 6.084-2.914-8.906-8.846-15.261-15.561-20.43-13.639-10.497-27.845-20.262-41.873-30.252-6.316-4.497-12.763-8.808-19.47-13.424 4.954-7.115 9.836-13.781 14.357-20.683 13.1-20 21.9-41.982 29.238-64.596 1.277-3.935 2.874-7.297 6.303-9.954 2.939-2.278 5.645-5.132 7.663-8.243 2.023-3.12 4.762-3.887 7.956-4.623 4.219-.973 8.472-1.193 10.95 2.736 2.772 4.397 5.931 8.902 2.389 14.821-9.126 15.252-17.9 30.715-26.774 46.117-1.546 2.684-2.89 5.485-4.328 8.231l1.548.827" fill="#FFF"/><path d="M244.14 307.442c-.007.61.081.91-.026 1.105-7.515 13.773-7.662 14.13-23.033 11.041-7.843-1.576-15.419-4.502-23.095-6.882-2.776-.862-5.493-1.909-8.849-1.76 4.128 2.409 8.19 4.939 12.401 7.194a202.74 202.74 0 0013.011 6.375c4.576 2.045 9.273 3.821 14.582 5.986l-12.339 16.514c-26.853-18.929-46.305-44.296-68.207-69.734 8.709 2.062 14.242 6.624 20.161 10.358 14.263 8.999 29.535 15.399 46.359 17.418 9.526 1.144 19.136 1.596 29.035 2.385" fill="#FF499E"/><path d="M210.382 295.95c7.51-3.931 14.801-6.186 19.993-10.802 9.771-8.689 22.836-10.071 33.421-17.116-3.173 10.947-8.56 20.622-13.885 30.799-12.984-.06-25.809.966-39.529-2.881" fill="#FFF"/><path d="M154.828 179.704l17.668-.757c-6.133-2.771-12.185-3.872-17.668.757m-21.403 17.905c12.38 18.461 26.576 22.703 38.873 12.431-17.904-.137-26.029-5.757-25.584-18.506 7.407 8.729 15.91 15.318 27.206 10.519 6.209-2.639 11.371-8.085 10.788-16.725-13.943-5.459-27.018-3.871-40.341 3.155-.215-.773-1.133-2.182-.77-3.067 3.271-7.991 7.705-14.921 17.318-16.083 9.833-1.189 19.41 3.316 23.652 11.907 1.539 3.117 2.247 7.392 1.494 10.722-1.221 5.405-3.597 10.651-6.133 15.636-5.208 10.235-16.793 14.933-28.955 12.22-9.915-2.211-16.877-10.652-17.548-22.209m125.001-22.067c-8.279-4.562-14.371-4.01-20.507 1.873l20.507-1.873m8.371 7.183c-10.89-3.973-21.739-3.397-32.531.835-1.011.397-2.001 1.892-2.236 3.036-.87 4.217 5.984 14.153 10.195 15.108 11.315 2.568 23.325-6.294 24.572-18.979m-26.942 23.933c8.282 5.288 15.377 5.942 22.911 3.434 7.502-2.497 13.477-6.53 14.84-15.339 1.125 4.237.194 7.752-2.222 10.735-6.814 8.416-15.636 12.31-26.409 10.381-8.914-1.596-15.213-6.565-17.43-15.803a162.683 162.683 0 00-1.633-6.254c-4.256-15.065 4.376-26.521 20.091-26.054 4.415.131 9.216 1.038 13.085 3.046 9.901 5.138 11.962 15.553 5.386 24.632-4.895 6.756-11.891 9.877-20.009 10.727-2.288.239-4.597.273-8.61.495m-24.212 15.853c-3.196-7.324-2.376-8.22 7.634-9.126.145-2.047.868-4.334.29-6.222-.622-2.027-2.129-4.778-3.837-5.302-6.731-2.068-13.701-3.058-20.533-.049-5.285 2.328-6.378 4.937-4.955 11.822 1.966.438 4.026.855 6.057 1.38.476.123.858.614 1.456 1.067.794 2.934-.648 4.342-3.519 4.844-3 .524-5.252-.532-6.877-3.066-3.037-4.739-2.126-12.363 1.981-16.465 5.972-5.966 23.337-7.693 30.486-3.03 6.378 4.159 5.717 16.475-1.221 20.858-2.019 1.276-4.342 2.071-6.962 3.289m-19.095-78.258c10.358-2.561 21.285-5.076 32.104-7.992 9.158-2.469 18.319-3.571 27.778-2.323 10.173 1.34 16.364 7.003 17.621 17.452-1.523-2.125-2.557-3.486-3.503-4.904-4.034-6.04-9.708-8.811-16.922-9.236-10.874-.641-21.326 1.645-31.842 3.791-8.531 1.741-16.977 4.523-25.236 3.212m43.626 98.849c-13.175 8.85-56.541 11.13-68.22 3.114 12.033.138 23.208.763 34.331.252 11.125-.51 22.198-2.156 33.889-3.366m-109.306-87.831c5.107-21.464 31.037-28.222 55.174-14.007-21.409-7.061-41.236-8.055-55.174 14.007m76.41-18.603c-2.92-8.274.15-16.274-1.441-23.953-1.608-7.76-1.772-15.818-1.247-24.015 1.66 7.897 3.492 15.761 4.943 23.695 2.575 14.067 2.159 18.849-2.255 24.273m2.579 12.225c2.411 9.68 4.173 19.393 1.226 30.247-3.497-5.306-4.071-18.1-1.226-30.247" fill="#000"/><path d="M227.023 176.959c-.383-.354-1.068-.697-1.065-1.036.008-1.027.02-2.197.494-3.056 4.622-8.355 9.338-16.659 14.518-25.846.237 8.399-8.345 25.985-13.947 29.938m-64.217-77.564c5.278 8.088 7.617 16.993 8.695 27.564-6.428-3.308-5.428-9.047-6.921-13.34-1.554-4.472-4.189-9.036-1.774-14.224m81.865 139.994l-13.293-22.336c9.407 5.074 15.284 14.837 13.293 22.336m-55.143-59.418L178.4 155.865l1.446-.775c2.493 4.142 5.239 8.156 7.402 12.464 1.886 3.756 6.5 6.778 4.984 11.671l-2.704.746m49.8-53.174l2.484-24.498c3.205 6.394 2.289 18.531-.819 24.718l-1.665-.22m-43.652 132.998c5.504-3.199 11.273-4.053 17.961-2.786-.429 1.515-.479 3.417-1.106 3.632-5.595 1.912-11.212 1.386-16.855-.846m-13.756-42.938l-9.675 21.212c-.692-9.024 2.66-16.16 9.675-21.212m-13.612-33.964c1.488 3.269 2.895 4.968 2.871 6.646-.034 2.285-.892 5.514-3.979 4.703-1.699-.447-3.736-3.262-3.818-5.091-.071-1.569 2.423-3.252 4.926-6.258m108.945-4.475c3.141-5.588 4.444-5.978 11.435-3.919-2.494 5.479-7.599 2.857-11.435 3.919M138.36 190.101c-4.849.624-8.884 1.85-13.574-.142 6.017-4.386 7.951-4.393 13.574.142m-3.824-5.821l-11.54-3.364c8.588-2.845 10.805-2.125 11.54 3.364m142.46-.704c2.675-.282 5.351-.564 8.4-.887-1.753 5.03-1.971 5.073-8.667 2.479l.267-1.592m-2.821-59.55l-3.259 7.242c-2.223-4.046-2.223-4.046 3.259-7.242M132.3 137.207l-5.063-8.007 1.403-.888 5.705 7.374c-.682.506-1.363 1.014-2.045 1.521m-31.69 200.192c12.396 6.312 24.728 12.759 37.214 18.893 8.661 4.254 17.482 8.198 26.327 12.062 7.381 3.224 14.857 6.242 22.37 9.147 9.017 3.487 18.124 6.74 27.18 10.126 7.245 2.71 14.472 5.465 21.708 8.2l-.223 1.749c-4.522-.366-9.106-.378-13.555-1.161-17.853-3.142-34.582-9.777-51.424-16.274-13.898-5.361-27.264-11.04-38.688-21.023-5.392-4.713-12.309-7.673-18.496-11.49-4.56-2.812-9.057-5.727-13.582-8.596.39-.544.778-1.09 1.168-1.633m68.715 11.743c-16.381-3.033-49.548-37.853-56.442-58.513 1.525 1.659 2.448 2.422 3.074 3.38 9.401 14.377 21.547 26.1 35.063 36.529 4.046 3.123 8.152 6.222 11.827 9.752 2.313 2.22 3.877 5.222 6.478 8.852m153.81-46.575c-1.403 2.482-2.584 5.125-4.245 7.421-9.112 12.593-18.194 25.213-27.596 37.589-4.421 5.819-9.901 10.466-18.032 10.58 1.316-4.556 38.088-47.095 49.873-55.59" fill="#000"/><path d="M154.828 179.704c5.483-4.629 11.535-3.528 17.668-.757l-17.668.757m93.432 2.579c-2.552 2.155-4.588 3.11-5.312 4.674-.974 2.101 2.191 5.867 4.437 5.202 1.561-.462 3.335-2.512 3.66-4.125.272-1.356-1.411-3.105-2.785-5.751m18.537.441c-1.247 12.686-13.257 21.548-24.572 18.98-4.211-.955-11.065-10.892-10.195-15.109.235-1.143 1.225-2.638 2.236-3.036 10.792-4.231 21.641-4.807 32.531-.835m-8.371-7.182l-20.507 1.873c6.136-5.883 12.228-6.435 20.507-1.873" fill="#FFF"/><path d="M248.26 182.283c1.374 2.646 3.057 4.395 2.785 5.751-.325 1.613-2.099 3.663-3.66 4.125-2.246.665-5.411-3.101-4.437-5.202.724-1.564 2.76-2.519 5.312-4.674" fill="#000"/></g></svg>