<?xml version="1.0" encoding="UTF-8"?>
<svg width="400px" height="450px" viewBox="0 0 400 450" version="1.1" xmlns="http://www.w3.org/2000/svg" xmlns:xlink="http://www.w3.org/1999/xlink">
    <title>yoda</title>
    <g id="yoda" stroke="none" stroke-width="1" fill="none" fill-rule="evenodd">
        <g id="Group-36" transform="translate(10.000000, 71.000000)">
            <path d="M200.382,224.95 C214.102,228.797 226.927,227.771 239.911,227.831 C245.236,217.654 250.623,207.979 253.796,197.032 C243.211,204.077 230.146,205.459 220.375,214.148 C215.183,218.764 207.892,221.019 200.382,224.95 M234.14,236.441 C224.24,235.652 214.631,235.2 205.105,234.056 C188.281,232.037 173.009,225.637 158.746,216.638 C152.827,212.904 147.294,208.343 138.585,206.28 C160.487,231.719 179.939,257.085 206.792,276.0144 C210.957,270.4404 214.928,265.1254 219.131,259.5 C213.821,257.335 209.125,255.559 204.549,253.514 C200.141,251.546 195.794,249.418 191.538,247.139 C187.327,244.885 183.265,242.354 179.137,239.945 C182.493,239.797 185.21,240.844 187.986,241.705 C195.662,244.085 203.238,247.012 211.081,248.588 C226.451,251.677 226.599,251.319 234.114,237.547 C234.22,237.351 234.133,237.052 234.14,236.441 M264.187,247.181 C263.671,246.906 263.155,246.63 262.639,246.354 C264.077,243.608 265.421,240.807 266.967,238.123 C275.841,222.721 284.615,207.259 293.741,192.007 C297.283,186.087 294.124,181.582 291.352,177.185 C288.874,173.257 284.621,173.476 280.402,174.449 C277.208,175.185 274.469,175.952 272.445,179.072 C270.428,182.183 267.722,185.037 264.783,187.315 C261.354,189.972 259.757,193.334 258.48,197.269 C251.142,219.884 242.341,241.865 229.242,261.865 C224.721,268.7674 219.839,275.4334 214.885,282.5494 C221.591,287.1644 228.039,291.4754 234.355,295.9724 C248.383,305.9634 262.589,315.7274 276.228,326.2254 C282.943,331.3934 288.875,337.7484 291.789,346.6544 C313.561,347.6324 334.756,341.2014 357.566,340.5704 C357.617,336.1074 357.694,331.9114 357.706,327.7144 C357.721,322.3424 357.426,316.9554 357.721,311.5994 C358.528,296.9204 361.447,282.2954 358.753,267.5394 C356.58,255.635 355.236,243.486 351.909,231.91 C347.48,216.492 339.004,204.177 321.378,201.102 C318.629,200.624 315.674,198.044 313.945,195.626 C308.987,188.689 309.162,188.505 300.225,190.414 C291.211,211.24 278.572,229.781 264.187,247.181 M280.446,347.4624 C275.546,339.1324 269.271,334.5414 263.064,329.9394 C244.927,316.4934 226.591,303.3114 208.588,289.6884 C187.047,273.3894 167.166,255.313 151.171,233.335 C142.315,221.165 134.07,208.506 124.578,196.859 C118.729,189.682 113.115,182.743 110.144,173.842 C109.617,172.262 107.282,170.683 105.5,170.24 C100.337,168.956 97.536,170.373 95.535,175.652 C93.424,181.221 90.121,184.072 83.986,183.191 C82.42,182.966 80.758,183.203 79.163,183.409 C73.666,184.12 69.384,186.167 68.575,192.513 C68.066,196.511 65.493,199.027 62.09,201.212 C55.984,205.131 49.954,209.257 44.359,213.861 C37.085,219.846 29.977,226.2 26.226,235.188 C21.429,246.68 17.954,258.529 18.148,271.1534 C18.432,289.6954 18.733,308.2384 19.157,326.7774 C19.271,331.7704 19.86,336.7534 20.291,342.5414 C36.686,343.9534 52.434,345.4024 68.197,346.6434 C87.742,348.1834 107.287,349.7644 126.856,350.9284 C143.46,351.9154 160.02,352.8864 176.749,351.5334 C202.977,349.4124 229.303,348.4554 255.599,347.2464 C263.314,346.8914 271.067,347.3554 280.446,347.4624 M230.674,201.939 C260.475,192.156 273.933,175.574 278.116,148.999 C279.573,139.742 279.631,130.245 280.023,120.845 C280.599,107.024 285.374,95.626 297.934,88.566 C313.045,80.072 329.031,73.77 345.989,70.089 C347.767,69.703 349.77,70.36 351.669,70.533 C351.822,71.22 351.975,71.905 352.128,72.592 C350.459,73.496 348.886,74.798 347.102,75.232 C341.615,76.572 336.021,77.462 330.519,78.741 C319.403,81.324 309.044,85.859 299.421,91.894 C289.696,97.995 286.071,106.864 288.791,118.718 C292.726,119.447 296.681,120.914 300.579,120.774 C316.039,120.22 329.871,114.828 339.944,102.985 C350.037,91.119 358.885,78.191 368.24,65.699 C369.242,64.361 369.984,62.828 371.33,60.577 C340.888,65.577 312.227,73.416 283.868,81.456 C280.614,72.971 278.189,65.246 274.763,57.993 C266.322,40.12 252.463,27.982 233.941,21.12 C231.706,20.292 229.491,19.352 227.385,18.241 C222.962,15.905 218.858,12.717 214.197,11.117 C192.749,3.756 172.255,8.174 152.285,17.063 C150.83,17.712 149.454,18.663 148.239,19.705 C142.768,24.398 137.652,29.558 131.883,33.843 C119.538,43.009 110.973,54.598 106.778,69.458 C105.843,72.769 105.194,75.643 107.965,78.391 C108.495,78.917 108.24,80.234 108.489,82.445 C75.63,72.566 42.972,66.418 8.494,63.361 C9.859,66.027 10.448,67.509 11.31,68.808 C18.304,79.363 25.195,89.99 32.418,100.386 C40.49,112.004 51.934,119.632 64.443,125.601 C68.192,127.39 72.76,128.377 76.901,128.232 C84.614,127.963 92.289,126.595 100.376,125.637 C100.647,116.679 100.007,109.383 92.157,103.867 C74.748,91.635 55.02,84.458 35.58,76.574 C33.834,75.866 32.082,75.174 30.332,74.474 C30.512,73.911 30.692,73.346 30.871,72.782 C35.757,73.917 40.907,74.411 45.476,76.308 C58.152,81.572 70.69,87.2 83.065,93.138 C88.37,95.683 93.167,99.304 98.137,102.525 C103.044,105.706 105.139,110.437 105.629,116.142 C105.949,119.863 106.71,123.545 107.22,127.251 C107.768,131.241 109.189,135.396 108.554,139.2 C107.512,145.435 109.193,150.887 111.112,156.485 C112.684,161.073 114.337,165.637 115.736,170.278 C121.384,189.007 135.309,198.547 152.989,203.847 C154.814,204.395 156.932,203.964 159.298,203.991 C159.042,199.48 158.851,196.124 158.661,192.767 C160.335,194.642 160.897,196.69 161.707,198.635 C165.474,207.679 171.018,214.689 181.21,217.242 C193.232,220.254 204.359,219.973 215.159,212.672 C223.719,206.886 229.792,200.188 230.301,189.428 C230.43,186.683 231.086,183.965 231.499,181.234 L233.677,181.589 C235.132,188.304 230.838,194.491 230.674,201.939 M287.738,74.873 C303.48,69.823 318.756,64.61 334.231,60.08 C343.245,57.441 352.505,55.39 361.795,54.048 C367.487,53.224 373.444,54.24 380.531,54.471 C378.535,58.888 377.508,62.245 375.661,65.065 C366.369,79.251 357.357,93.6 345.754,106.173 C329.575,123.704 310.479,131.059 286.573,127.714 C286.039,130.495 284.785,133.399 285.079,136.137 C286.173,146.349 284.034,155.935 280.508,165.364 C280.144,166.337 279.944,167.37 279.414,169.297 C290.681,166.745 297.507,171.49 300.843,181.437 C303.014,181.911 304.822,182.533 306.666,182.667 C312.272,183.072 316.199,185.391 318.498,190.856 C319.259,192.666 321.851,194.523 323.859,194.863 C343.959,198.274 353.053,212.857 358.912,230.007 C361.933,238.85 362.828,248.413 364.819,257.622 C365.701,261.704 365.255,266.0714 368.645,269.6384 C369.942,271.0034 369.537,274.2454 369.452,276.6164 C369.176,284.3784 368.621,292.1304 368.301,299.8904 C367.724,313.8644 367.361,327.8484 366.614,341.8124 C366.463,344.6384 365.367,347.5914 364,350.0984 C363.307,351.3694 360.945,352.6064 359.493,352.4464 C347.79,351.1624 336.4,353.4314 325.003,355.2694 C311.398,357.4634 297.747,357.8714 283.995,358.0344 C252.251,358.4084 220.507,359.1514 188.778,360.2104 C168.638,360.8834 148.494,363.6704 128.408,363.1844 C105.888,362.6394 83.403,359.7424 60.959,357.3374 C49.229,356.0804 37.613,353.7244 25.964,351.7634 C23.865,351.4104 21.764,350.7574 19.813,349.9034 C14.663,347.6494 10.67,344.4244 10.126,338.1984 C9.612,332.3304 8.708,326.4974 8.105,320.6354 C5.052,290.9554 9.402,262.272 19.918,234.454 C23.858,224.032 31.385,216.21 39.618,209.232 C45.743,204.04 52.632,199.71 59.393,195.323 C61.769,193.782 63.465,192.419 64.226,189.45 C66.466,180.709 69.987,177.856 78.725,177.05 C81.659,176.778 84.621,176.807 88.346,176.671 C90.703,167.007 96.593,161.987 108.082,165.44 C105.637,152.554 103.422,140.882 101.218,129.268 C85.476,136.212 70.048,137.163 54.346,130.053 C39.413,123.291 27.297,113.441 19.324,98.974 C13.87,89.079 8.589,79.08 3.56,68.964 C1.944,65.714 1.379,61.94 0,57.281 C18.069,56.013 34.75,58.589 51.252,61.268 C67.634,63.929 83.747,68.254 100.361,71.933 C100.508,71.304 100.873,70.065 101.078,68.802 C104.479,47.808 117.528,34.282 135.479,24.708 C139.044,22.806 142.103,21.115 144.58,17.452 C146.998,13.877 151.246,11.113 155.248,9.105 C176.895,-1.759 198.976,-3.701 221.087,7.66 C225.512,9.933 228.837,14.403 233.303,16.525 C237.788,18.655 243.507,18.239 247.921,20.46 C269.543,31.338 282.393,49.06 287.05,72.775 C287.151,73.286 287.373,73.772 287.738,74.873" id="Fill-1" fill="#000000"></path>
            <path d="M122.3,66.207 C122.982,65.7 123.663,65.192 124.345,64.686 C122.444,62.228 120.542,59.77 118.64,57.312 C118.173,57.608 117.704,57.904 117.237,58.2 C118.924,60.869 120.612,63.538 122.3,66.207 L122.3,66.207 Z M264.175,53.025 C258.693,56.222 258.693,56.222 260.916,60.268 C262.131,57.567 263.153,55.297 264.175,53.025 L264.175,53.025 Z M266.996,112.576 C266.907,113.107 266.818,113.638 266.729,114.168 C273.425,116.762 273.643,116.719 275.396,111.689 C272.346,112.012 269.671,112.294 266.996,112.576 L266.996,112.576 Z M124.536,113.279 C123.801,107.79 121.584,107.07 112.996,109.915 C117.657,111.273 120.943,112.231 124.536,113.279 L124.536,113.279 Z M128.36,119.101 C122.737,114.565 120.802,114.572 114.785,118.959 C119.475,120.95 123.511,119.725 128.36,119.101 L128.36,119.101 Z M267.253,107.418 C271.089,106.356 276.194,108.978 278.688,103.499 C271.697,101.44 270.394,101.83 267.253,107.418 L267.253,107.418 Z M158.308,111.893 C155.805,114.898 153.311,116.582 153.382,118.15 C153.464,119.979 155.501,122.795 157.2,123.241 C160.286,124.053 161.145,120.823 161.178,118.538 C161.203,116.86 159.796,115.161 158.308,111.893 L158.308,111.893 Z M171.92,145.856 C164.905,150.908 161.553,158.044 162.245,167.068 C165.47,159.998 168.695,152.928 171.92,145.856 L171.92,145.856 Z M185.676,188.795 C191.319,191.027 196.937,191.553 202.531,189.641 C203.158,189.426 203.208,187.523 203.638,186.009 C196.949,184.742 191.181,185.596 185.676,188.795 L185.676,188.795 Z M229.328,55.797 C229.883,55.871 230.438,55.943 230.993,56.017 C234.102,49.83 235.018,37.692 231.813,31.299 L229.328,55.797 Z M179.528,108.971 C180.429,108.722 181.331,108.474 182.232,108.225 C183.748,103.332 179.134,100.31 177.248,96.554 C175.085,92.246 172.339,88.231 169.846,84.09 C169.364,84.348 168.882,84.605 168.4,84.864 C172.11,92.899 175.819,100.936 179.528,108.971 L179.528,108.971 Z M234.671,168.389 C236.662,160.89 230.785,151.127 221.378,146.053 C226.05,153.904 230.17,160.825 234.671,168.389 L234.671,168.389 Z M152.806,28.394 C150.391,33.583 153.026,38.146 154.58,42.618 C156.072,46.911 155.072,52.65 161.501,55.959 C160.423,45.388 158.084,36.482 152.806,28.394 L152.806,28.394 Z M217.023,105.959 C222.624,102.006 231.206,84.42 230.969,76.02 C225.79,85.208 221.073,93.512 216.452,101.867 C215.978,102.726 215.966,103.895 215.95799,104.923 C215.955,105.262 216.64,105.605 217.023,105.959 L217.023,105.959 Z M199.857,77.893 C197.011,90.04 197.585,102.834 201.082,108.14 C204.03,97.285 202.267,87.572 199.857,77.893 L199.857,77.893 Z M197.278,65.668 C201.691,60.244 202.107,55.462 199.533,41.395 C198.081,33.461 196.25,25.597 194.589,17.7 C194.065,25.896 194.228,33.955 195.837,41.715 C197.428,49.394 194.357,57.394 197.278,65.668 L197.278,65.668 Z M120.868,84.27 C134.806,62.209 154.633,63.202 176.043,70.264 C151.905,56.049 125.975,62.807 120.868,84.27 L120.868,84.27 Z M230.174,172.102 C218.483,173.311 207.41,174.958 196.285,175.468 C185.162,175.978 173.988,175.353 161.954,175.216 C173.633,183.231 216.999,180.951 230.174,172.102 L230.174,172.102 Z M186.549,73.253 C194.808,74.563 203.253,71.782 211.784,70.041 C222.3,67.894 232.753,65.609 243.626,66.25 C250.841,66.675 256.515,69.446 260.548,75.486 C261.495,76.904 262.529,78.265 264.052,80.39 C262.794,69.941 256.604,64.278 246.43,62.937 C236.972,61.69 227.811,62.792 218.652,65.261 C207.833,68.177 196.906,70.692 186.549,73.253 L186.549,73.253 Z M205.643,151.511 C208.262,150.293 210.586,149.498 212.605,148.222 C219.543,143.839 220.203,131.522 213.825,127.363 C206.677,122.701 189.312,124.428 183.34,130.394 C179.233,134.496 178.321,142.12 181.359,146.858 C182.984,149.393 185.236,150.449 188.236,149.925 C191.107,149.423 192.549,148.015 191.755,145.081 C191.156,144.628 190.775,144.137 190.299,144.014 C188.268,143.488 186.208,143.071 184.241,142.634 C182.819,135.749 183.912,133.14 189.197,130.811 C196.029,127.803 202.999,128.793 209.73,130.86 C211.438,131.385 212.945,134.136 213.567,136.163 C214.145,138.051 213.422,140.338 213.277,142.385 C203.266,143.291 202.447,144.186 205.643,151.511 L205.643,151.511 Z M229.855,135.658 C233.868,135.436 236.177,135.402 238.465,135.163 C246.583,134.313 253.579,131.192 258.474,124.436 C265.05,115.357 262.989,104.942 253.088,99.804 C249.219,97.796 244.418,96.889 240.003,96.758 C224.288,96.291 215.656,107.747 219.912,122.811 C220.498,124.885 221.042,126.972 221.545,129.066 C223.762,138.304 230.061,143.273 238.975,144.869 C249.748,146.798 258.57,142.904 265.384,134.488 C267.8,131.505 268.731,127.99 267.606,123.753 C266.243,132.561 260.268,136.595 252.766,139.092 C245.232,141.6 238.137,140.946 229.855,135.658 L229.855,135.658 Z M123.425,126.609 C124.096,138.166 131.059,146.607 140.973,148.818 C153.135,151.531 164.72,146.833 169.928,136.598 C172.465,131.613 174.841,126.367 176.062,120.962 C176.814,117.632 176.106,113.357 174.567,110.24 C170.325,101.649 160.749,97.144 150.916,98.333 C141.302,99.495 136.868,106.425 133.597,114.416 C133.235,115.301 134.152,116.71 134.367,117.483 C147.691,110.457 160.765,108.869 174.708,114.328 C175.292,122.968 170.13,128.414 163.92,131.053 C152.625,135.853 144.122,129.263 136.715,120.534 C136.27,133.283 144.395,138.903 162.299,139.04 C150.001,149.312 135.805,145.07 123.425,126.609 L123.425,126.609 Z M230.674,201.939 C230.838,194.491 235.133,188.305 233.677,181.589 L231.499,181.234 C231.086,183.965 230.43,186.684 230.301,189.428 C229.792,200.188 223.719,206.886 215.159,212.672 C204.359,219.974 193.232,220.254 181.21,217.242 C171.018,214.689 165.474,207.679 161.707,198.635 C160.897,196.69 160.335,194.643 158.661,192.768 C158.851,196.124 159.042,199.48 159.298,203.991 C156.932,203.964 154.814,204.395 152.989,203.848 C135.309,198.547 121.384,189.007 115.736,170.278 C114.337,165.638 112.684,161.073 111.112,156.485 C109.193,150.887 107.512,145.436 108.554,139.2 C109.189,135.396 107.768,131.241 107.22,127.251 C106.71,123.545 105.949,119.863 105.629,116.143 C105.139,110.437 103.044,105.706 98.137,102.525 C93.167,99.304 88.37,95.684 83.065,93.139 C70.69,87.2 58.152,81.572 45.476,76.309 C40.907,74.411 35.757,73.917 30.871,72.782 C30.692,73.347 30.512,73.911 30.332,74.475 C32.082,75.174 33.834,75.866 35.58,76.574 C55.02,84.458 74.748,91.635 92.157,103.867 C100.007,109.383 100.647,116.68 100.376,125.637 C92.289,126.595 84.614,127.963 76.901,128.232 C72.76,128.377 68.192,127.391 64.443,125.602 C51.934,119.632 40.49,112.004 32.418,100.386 C25.195,89.99 18.304,79.363 11.31,68.809 C10.448,67.509 9.859,66.027 8.494,63.361 C42.972,66.418 75.63,72.566 108.489,82.445 C108.24,80.234 108.495,78.917 107.965,78.392 C105.195,75.644 105.843,72.769 106.778,69.458 C110.973,54.599 119.538,43.009 131.883,33.843 C137.652,29.559 142.768,24.398 148.239,19.705 C149.454,18.663 150.83,17.712 152.285,17.063 C172.255,8.174 192.749,3.756 214.197,11.117 C218.858,12.717 222.962,15.905 227.385,18.241 C229.491,19.353 231.706,20.292 233.941,21.12 C252.463,27.982 266.322,40.12 274.763,57.993 C278.189,65.246 280.614,72.971 283.868,81.456 C312.227,73.416 340.888,65.577 371.33,60.577 C369.984,62.828 369.242,64.361 368.24,65.699 C358.885,78.191 350.037,91.119 339.944,102.985 C329.871,114.828 316.039,120.22 300.579,120.774 C296.681,120.914 292.726,119.447 288.791,118.718 C286.071,106.864 289.696,97.995 299.421,91.894 C309.044,85.859 319.404,81.324 330.519,78.741 C336.021,77.462 341.615,76.572 347.102,75.232 C348.886,74.798 350.459,73.496 352.128,72.592 C351.975,71.905 351.822,71.22 351.669,70.533 C349.77,70.36 347.767,69.703 345.989,70.089 C329.031,73.77 313.045,80.072 297.934,88.566 C285.374,95.626 280.599,107.024 280.023,120.845 C279.631,130.245 279.573,139.742 278.116,148.999 C273.933,175.574 260.475,192.156 230.674,201.939 L230.674,201.939 Z" id="Fill-2" fill="#FFFFFF"></path>
            <path d="M159.324,278.1418 C156.723,274.5118 155.159,271.5108 152.846,269.2898 C149.171,265.7598 145.065,262.661 141.019,259.538 C127.503,249.109 115.357,237.386 105.956,223.009 C105.33,222.051 104.407,221.288 102.882,219.629 C109.776,240.289 142.943,275.1088 159.324,278.1418 M90.6089,266.3988 C90.2199,266.9428 89.8299,267.4878 89.4409,268.0318 C93.9659,270.9008 98.4629,273.8158 103.023,276.6278 C109.21,280.4448 116.127,283.4048 121.519,288.1178 C132.943,298.1018 146.309,303.7798 160.207,309.1408 C177.049,315.6378 193.779,322.2728 211.632,325.4138 C216.08,326.1978 220.664,326.2088 225.186,326.5758 C225.26,325.9938 225.335,325.4108 225.409,324.8278 C218.174,322.0918 210.946,319.3358 203.701,316.6258 C194.645,313.2408 185.538,309.9878 176.521,306.4998 C169.009,303.5958 161.532,300.5778 154.152,297.3538 C145.306,293.4898 136.486,289.5458 127.824,285.2908 C115.339,279.1578 103.007,272.7108 90.6089,266.3988 M280.446,347.4618 C271.067,347.3558 263.314,346.8918 255.599,347.2458 C229.303,348.4548 202.977,349.4128 176.749,351.5338 C160.02,352.8858 143.46,351.9148 126.856,350.9278 C107.287,349.7648 87.7419,348.1838 68.1979,346.6438 C52.4339,345.4028 36.6859,343.9538 20.2909,342.5408 C19.8599,336.7528 19.2709,331.7708 19.1569,326.7778 C18.7329,308.2388 18.4319,289.6958 18.1479,271.1538 C17.9539,258.53 21.4289,246.681 26.2259,235.189 C29.9769,226.201 37.0849,219.847 44.3589,213.862 C49.9539,209.257 55.9839,205.131 62.0899,201.212 C65.4929,199.028 68.0659,196.511 68.5749,192.514 C69.3839,186.167 73.6659,184.121 79.1629,183.41 C80.7579,183.204 82.4199,182.966 83.9859,183.192 C90.1209,184.073 93.4249,181.222 95.5349,175.653 C97.5359,170.373 100.337,168.956 105.5,170.241 C107.282,170.684 109.617,172.263 110.144,173.842 C113.115,182.744 118.729,189.683 124.578,196.86 C134.071,208.506 142.315,221.165 151.171,233.335 C167.166,255.314 187.047,273.3898 208.588,289.6888 C226.591,303.3118 244.928,316.4938 263.064,329.9398 C269.271,334.5408 275.546,339.1318 280.446,347.4618" id="Fill-3" fill="#FFFFFF"></path>
            <path d="M313.134,231.567 C301.349,240.062 264.577,282.6006 263.261,287.1576 C271.392,287.0426 276.872,282.3956 281.293,276.5766 C290.695,264.2006 299.777,251.581 308.889,238.988 C310.55,236.692 311.731,234.049 313.134,231.567 M264.187,247.182 C278.572,229.782 291.211,211.241 300.225,190.415 C309.162,188.505 308.988,188.69 313.946,195.627 C315.674,198.045 318.629,200.625 321.378,201.103 C339.004,204.177 347.48,216.493 351.909,231.911 C355.236,243.487 356.58,255.635 358.753,267.5396 C361.447,282.2956 358.528,296.9206 357.721,311.5996 C357.426,316.9556 357.721,322.3416 357.706,327.7136 C357.694,331.9116 357.617,336.1076 357.566,340.5706 C334.756,341.2016 313.561,347.6316 291.789,346.6546 C288.875,337.7486 282.943,331.3936 276.228,326.2256 C262.589,315.7276 248.383,305.9626 234.355,295.9726 C228.039,291.4756 221.592,287.1646 214.885,282.5486 C219.839,275.4336 224.721,268.7676 229.242,261.866 C242.342,241.866 251.142,219.884 258.48,197.27 C259.757,193.335 261.354,189.973 264.783,187.316 C267.722,185.038 270.428,182.184 272.446,179.073 C274.469,175.953 277.208,175.186 280.402,174.45 C284.621,173.477 288.874,173.257 291.352,177.186 C294.124,181.583 297.283,186.088 293.741,192.007 C284.615,207.259 275.841,222.722 266.967,238.124 C265.421,240.808 264.077,243.609 262.639,246.355 C263.155,246.63 263.671,246.907 264.187,247.182" id="Fill-4" fill="#FFFFFF"></path>
            <path d="M234.14,236.442 C234.133,237.052 234.221,237.352 234.114,237.547 C226.599,251.32 226.452,251.677 211.081,248.588 C203.238,247.012 195.662,244.086 187.986,241.706 C185.21,240.844 182.493,239.797 179.137,239.946 C183.265,242.355 187.327,244.885 191.538,247.14 C195.794,249.419 200.141,251.546 204.549,253.515 C209.125,255.56 213.822,257.336 219.131,259.501 C214.928,265.1256 210.957,270.4406 206.792,276.0146 C179.939,257.086 160.487,231.719 138.585,206.281 C147.294,208.343 152.827,212.905 158.746,216.639 C173.009,225.638 188.281,232.038 205.105,234.057 C214.631,235.201 224.241,235.653 234.14,236.442" id="Fill-5" fill="#FF499E"></path>
            <path d="M200.382,224.95 C207.892,221.019 215.183,218.764 220.375,214.148 C230.146,205.459 243.211,204.077 253.796,197.032 C250.623,207.979 245.236,217.654 239.911,227.831 C226.927,227.771 214.102,228.797 200.382,224.95" id="Fill-6" fill="#FFFFFF"></path>
            <path d="M144.828,108.704 C150.718,108.452 156.607,108.2 162.496,107.947 C156.363,105.176 150.311,104.075 144.828,108.704 M123.425,126.609 C135.805,145.07 150.001,149.312 162.298,139.04 C144.394,138.903 136.269,133.283 136.714,120.534 C144.121,129.263 152.624,135.852 163.92,131.053 C170.129,128.414 175.291,122.968 174.708,114.328 C160.765,108.869 147.69,110.457 134.367,117.483 C134.152,116.71 133.234,115.301 133.597,114.416 C136.868,106.425 141.302,99.495 150.915,98.333 C160.748,97.144 170.325,101.649 174.567,110.24 C176.106,113.357 176.814,117.632 176.061,120.962 C174.84,126.367 172.464,131.613 169.928,136.598 C164.72,146.833 153.135,151.531 140.973,148.818 C131.058,146.607 124.096,138.166 123.425,126.609" id="Fill-7" fill="#000000"></path>
            <path d="M248.426,104.542 C240.147,99.98 234.055,100.532 227.919,106.415 C234.805,105.786 241.102,105.211 248.426,104.542 M256.797,111.725 C245.907,107.752 235.058,108.328 224.266,112.56 C223.255,112.957 222.265,114.452 222.03,115.596 C221.16,119.813 228.014,129.749 232.225,130.704 C243.54,133.272 255.55,124.41 256.797,111.725 M229.855,135.658 C238.137,140.946 245.232,141.6 252.766,139.092 C260.268,136.595 266.243,132.562 267.606,123.753 C268.731,127.99 267.8,131.505 265.384,134.488 C258.57,142.904 249.748,146.798 238.975,144.869 C230.061,143.273 223.762,138.304 221.545,129.066 C221.042,126.972 220.498,124.885 219.912,122.812 C215.656,107.747 224.288,96.291 240.003,96.758 C244.418,96.889 249.219,97.796 253.088,99.804 C262.989,104.942 265.05,115.357 258.474,124.436 C253.579,131.192 246.583,134.313 238.465,135.163 C236.177,135.402 233.868,135.436 229.855,135.658" id="Fill-8" fill="#000000"></path>
            <path d="M205.643,151.511 C202.447,144.187 203.267,143.291 213.277,142.385 C213.422,140.338 214.145,138.051 213.567,136.163 C212.945,134.136 211.438,131.385 209.73,130.861 C202.999,128.793 196.029,127.803 189.197,130.812 C183.912,133.14 182.819,135.749 184.242,142.634 C186.208,143.072 188.268,143.489 190.299,144.014 C190.775,144.137 191.157,144.628 191.755,145.081 C192.549,148.015 191.107,149.423 188.236,149.925 C185.236,150.449 182.984,149.393 181.359,146.859 C178.322,142.12 179.233,134.496 183.34,130.394 C189.312,124.428 206.677,122.701 213.826,127.364 C220.204,131.523 219.543,143.839 212.605,148.222 C210.586,149.498 208.263,150.293 205.643,151.511" id="Fill-9" fill="#000000"></path>
            <path d="M186.548,73.253 C196.906,70.692 207.833,68.177 218.652,65.261 C227.81,62.792 236.971,61.69 246.43,62.938 C256.603,64.278 262.794,69.941 264.051,80.39 C262.528,78.265 261.494,76.904 260.548,75.486 C256.514,69.446 250.84,66.675 243.626,66.25 C232.752,65.609 222.3,67.895 211.784,70.041 C203.253,71.782 194.807,74.564 186.548,73.253" id="Fill-10" fill="#000000"></path>
            <path d="M230.174,172.102 C216.999,180.952 173.633,183.232 161.954,175.216 C173.987,175.354 185.162,175.979 196.285,175.468 C207.41,174.958 218.483,173.312 230.174,172.102" id="Fill-11" fill="#000000"></path>
            <path d="M120.868,84.271 C125.975,62.807 151.905,56.049 176.042,70.264 C154.633,63.203 134.806,62.209 120.868,84.271" id="Fill-12" fill="#000000"></path>
            <path d="M197.278,65.668 C194.358,57.394 197.428,49.394 195.837,41.715 C194.229,33.955 194.065,25.897 194.59,17.7 C196.25,25.597 198.082,33.461 199.533,41.395 C202.108,55.462 201.692,60.244 197.278,65.668" id="Fill-13" fill="#000000"></path>
            <path d="M199.857,77.893 C202.268,87.573 204.03,97.286 201.083,108.14 C197.586,102.834 197.012,90.04 199.857,77.893" id="Fill-14" fill="#000000"></path>
            <path d="M217.023,105.959 C216.64,105.605 215.955,105.262 215.95799,104.923 C215.966,103.896 215.978,102.726 216.452,101.867 C221.074,93.512 225.79,85.208 230.97,76.021 C231.207,84.42 222.625,102.006 217.023,105.959" id="Fill-15" fill="#000000"></path>
            <path d="M152.806,28.395 C158.084,36.483 160.423,45.388 161.501,55.959 C155.073,52.651 156.073,46.912 154.58,42.619 C153.026,38.147 150.391,33.583 152.806,28.395" id="Fill-16" fill="#000000"></path>
            <path d="M234.671,168.389 C230.17,160.826 226.05,153.905 221.378,146.053 C230.785,151.127 236.662,160.89 234.671,168.389" id="Fill-17" fill="#000000"></path>
            <path d="M179.528,108.971 C175.819,100.936 172.11,92.9 168.4,84.865 C168.882,84.606 169.364,84.348 169.846,84.09 C172.339,88.232 175.085,92.246 177.248,96.554 C179.134,100.31 183.748,103.332 182.232,108.225 C181.331,108.474 180.429,108.722 179.528,108.971" id="Fill-18" fill="#000000"></path>
            <path d="M229.328,55.797 L231.812,31.299 C235.017,37.693 234.101,49.83 230.993,56.017 C230.438,55.943 229.883,55.871 229.328,55.797" id="Fill-19" fill="#000000"></path>
            <path d="M185.676,188.795 C191.18,185.596 196.949,184.742 203.637,186.009 C203.208,187.524 203.158,189.426 202.531,189.641 C196.936,191.553 191.319,191.027 185.676,188.795" id="Fill-20" fill="#000000"></path>
            <path d="M171.92,145.857 C168.695,152.928 165.47,159.999 162.245,167.069 C161.553,158.045 164.905,150.909 171.92,145.857" id="Fill-21" fill="#000000"></path>
            <path d="M158.308,111.893 C159.796,115.162 161.203,116.861 161.179,118.539 C161.145,120.824 160.287,124.053 157.2,123.242 C155.501,122.795 153.464,119.98 153.382,118.151 C153.311,116.582 155.805,114.899 158.308,111.893" id="Fill-22" fill="#000000"></path>
            <path d="M267.253,107.418 C270.394,101.83 271.697,101.44 278.688,103.499 C276.194,108.978 271.089,106.356 267.253,107.418" id="Fill-23" fill="#000000"></path>
            <path d="M128.36,119.101 C123.511,119.725 119.476,120.951 114.786,118.959 C120.803,114.573 122.737,114.566 128.36,119.101" id="Fill-24" fill="#000000"></path>
            <path d="M124.536,113.28 C120.942,112.232 117.657,111.274 112.996,109.916 C121.584,107.071 123.801,107.791 124.536,113.28" id="Fill-25" fill="#000000"></path>
            <path d="M266.996,112.576 C269.671,112.294 272.347,112.012 275.396,111.689 C273.643,116.719 273.425,116.762 266.729,114.168 C266.818,113.638 266.907,113.107 266.996,112.576" id="Fill-26" fill="#000000"></path>
            <path d="M264.175,53.026 C263.153,55.297 262.131,57.568 260.916,60.268 C258.693,56.222 258.693,56.222 264.175,53.026" id="Fill-27" fill="#000000"></path>
            <path d="M122.3,66.207 C120.612,63.538 118.924,60.869 117.237,58.2 C117.704,57.904 118.173,57.608 118.64,57.312 C120.542,59.77 122.444,62.228 124.345,64.686 C123.663,65.192 122.982,65.7 122.3,66.207" id="Fill-28" fill="#000000"></path>
            <path d="M90.6091,266.3986 C103.006,272.7106 115.338,279.1576 127.824,285.2916 C136.485,289.5456 145.306,293.4896 154.151,297.3536 C161.532,300.5776 169.008,303.5956 176.521,306.5006 C185.538,309.9876 194.645,313.2406 203.701,316.6266 C210.946,319.3366 218.173,322.0916 225.409,324.8276 C225.335,325.4106 225.26,325.9936 225.186,326.5756 C220.664,326.2096 216.08,326.1976 211.631,325.4146 C193.778,322.2726 177.049,315.6376 160.207,309.1406 C146.309,303.7796 132.943,298.1016 121.519,288.1176 C116.127,283.4046 109.21,280.4446 103.023,276.6276 C98.4631,273.8156 93.9661,270.9006 89.4411,268.0316 C89.8301,267.4876 90.2191,266.9426 90.6091,266.3986" id="Fill-29" fill="#000000"></path>
            <path d="M159.324,278.1418 C142.943,275.1088 109.776,240.289 102.882,219.629 C104.407,221.288 105.33,222.051 105.956,223.009 C115.357,237.386 127.503,249.109 141.019,259.538 C145.065,262.661 149.171,265.7598 152.846,269.2898 C155.159,271.5108 156.723,274.5118 159.324,278.1418" id="Fill-30" fill="#000000"></path>
            <path d="M313.134,231.567 C311.731,234.049 310.55,236.692 308.889,238.988 C299.777,251.581 290.695,264.2006 281.293,276.5766 C276.872,282.3956 271.392,287.0426 263.261,287.1576 C264.577,282.6006 301.349,240.062 313.134,231.567" id="Fill-31" fill="#000000"></path>
            <path d="M144.828,108.704 C150.311,104.075 156.363,105.176 162.496,107.947 C156.607,108.2 150.718,108.452 144.828,108.704" id="Fill-32" fill="#FFFFFF"></path>
            <path d="M238.26,111.283 C235.708,113.438 233.672,114.393 232.948,115.957 C231.974,118.058 235.139,121.824 237.385,121.159 C238.946,120.697 240.72,118.647 241.045,117.034 C241.317,115.678 239.634,113.929 238.26,111.283 M256.797,111.724 C255.55,124.41 243.54,133.272 232.225,130.704 C228.014,129.749 221.16,119.812 222.03,115.595 C222.265,114.452 223.255,112.957 224.266,112.559 C235.058,108.328 245.907,107.752 256.797,111.724" id="Fill-33" fill="#FFFFFF"></path>
            <path d="M248.426,104.542 C241.102,105.211 234.805,105.786 227.919,106.415 C234.055,100.532 240.147,99.98 248.426,104.542" id="Fill-34" fill="#FFFFFF"></path>
            <path d="M238.26,111.283 C239.634,113.929 241.317,115.678 241.045,117.034 C240.72,118.647 238.946,120.697 237.385,121.159 C235.139,121.824 231.974,118.058 232.948,115.957 C233.672,114.393 235.708,113.438 238.26,111.283" id="Fill-35" fill="#000000"></path>
        </g>
    </g>
</svg>