<?xml version="1.0" encoding="UTF-8"?>
<svg width="400px" height="450px" viewBox="0 0 400 450" version="1.1" xmlns="http://www.w3.org/2000/svg" xmlns:xlink="http://www.w3.org/1999/xlink">
    <title>yoda</title>
    <g id="yoda" stroke="none" stroke-width="1" fill="none" fill-rule="evenodd">
        <g id="LOGOS-Y-GRAFICAMesa-de-trabajo-1-copia-8" transform="translate(9.000000, 66.000000)" fill-rule="nonzero">
            <path d="M288.45,75.25 C304.19,70.2 319.45,64.99 334.94,60.46 C343.973817,57.8131222 353.183435,55.8081256 362.5,54.46 C368.19,53.63 374.15,54.65 381.24,54.88 C379.24,59.3 378.24,62.65 376.37,65.47 C367.08,79.66 358.06,94.01 346.46,106.58 C330.28,124.11 311.19,131.47 287.28,128.12 C286.75,130.91 285.49,133.81 285.79,136.55 C286.88,146.76 284.79,156.34 281.22,165.77 C280.85,166.77 280.65,167.77 280.12,169.71 C291.39,167.15 298.22,171.9 301.55,181.85 C303.461603,182.384436 305.405621,182.795286 307.37,183.08 C312.98,183.48 316.91,185.8 319.21,191.27 C320.337115,193.313133 322.290586,194.770947 324.57,195.27 C344.67,198.68 353.76,213.27 359.57,230.42 C362.57,239.26 363.49,248.82 365.48,258.03 C366.36,262.11 365.91,266.48 369.3,270.03 C370.6,271.39 370.19,274.63 370.11,277.03 C369.83,284.79 369.28,292.54 368.96,300.3 C368.38,314.3 368.02,328.3 367.27,342.22 C367.011187,345.139852 366.120617,347.96852 364.66,350.51 C363.615177,351.965113 361.941227,352.837348 360.15,352.86 C348.45,351.57 337.06,353.86 325.66,355.68 C312.06,357.87 298.4,358.28 284.66,358.44 C252.92,358.82 221.183333,359.546667 189.45,360.62 C169.31,361.29 149.16,364.08 129.08,363.62 C106.56,363.08 84.08,360.18 61.63,357.78 C49.9,356.52 38.28,354.16 26.63,352.2 C24.5109829,351.836657 22.4452136,351.211887 20.48,350.34 C15.33,348.09 11.34,344.86 10.79,338.64 C10.28,332.77 9.38,326.94 8.79,321.07 C5.79,291.39 10.09,262.71 20.61,234.89 C24.55,224.47 32.07,216.65 40.31,209.67 C46.43,204.48 53.31,200.15 60.08,195.76 C62.46,194.22 64.15,192.86 64.91,189.89 C67.15,181.15 70.68,178.3 79.41,177.49 C82.35,177.22 85.31,177.25 89.03,177.11 C91.39,167.45 97.28,162.43 108.77,165.88 C106.32,152.99 104.11,141.32 101.91,129.71 C86.16,136.65 70.74,137.6 55.03,130.49 C40.1,123.73 28.03,113.88 20.03,99.41 C14.58,89.52 9.3,79.52 4.27,69.41 C2.65,66.16 2.09,62.41 0.71,57.73 C18.78,56.46 35.46,59.04 51.96,61.73 C68.46,64.42 84.45,68.73 101.07,72.39 C101.22,71.76 101.58,70.53 101.79,69.26 C105.19,48.26 118.24,34.74 136.19,25.17 C139.75,23.27 142.81,21.57 145.29,17.91 C147.77,14.25 151.95,11.57 155.96,9.56 C177.6,-1.3 199.68,-3.24 221.79,8.12 C226.22,10.39 229.54,14.86 234.01,16.98 C238.48,19.1 244.22,18.7 248.63,20.92 C270.25,31.8 283.1,49.52 287.76,73.23 C287.954936,73.9148053 288.185245,74.5890436 288.45,75.25 L288.45,75.25 Z M231.38,202.32 C261.18,192.54 274.64,175.95 278.82,149.38 C280.28,140.12 280.34,130.62 280.73,121.22 C281.31,107.4 286.08,96.01 298.64,88.95 C313.642899,80.415336 329.844101,74.1856605 346.7,70.47 C348.47,70.08 350.48,70.74 352.38,70.91 L352.84,72.97 C351.17,73.88 349.59,75.18 347.84,75.61 C342.35,76.95 336.76,77.84 331.26,79.12 C320.233185,81.7402838 309.721757,86.1848261 300.16,92.27 C290.43,98.37 286.81,107.27 289.53,119.1 C293.46,119.83 297.42,121.29 301.32,121.1 C316.78,120.55 330.61,115.16 340.68,103.31 C350.75,91.46 359.62,78.52 368.98,66.03 C369.98,64.69 370.72,63.16 372.07,60.91 C341.63,65.91 312.96,73.75 284.61,81.79 C281.35,73.3 278.93,65.58 275.5,58.32 C267.06,40.45 253.2,28.32 234.68,21.45 C232.433578,20.6323107 230.242346,19.6703062 228.12,18.57 C223.7,16.23 219.6,13.05 214.93,11.45 C193.49,4.08 172.99,8.5 153.02,17.39 C151.568689,18.0766941 150.221976,18.9655248 149.02,20.03 C143.55,24.73 138.43,29.89 132.66,34.17 C120.32,43.34 111.75,54.93 107.56,69.79 C106.62,73.1 105.97,75.97 108.74,78.72 C109.27,79.25 109.02,80.56 109.27,82.77 C76.68045,72.9923295 43.1701746,66.598569 9.27,63.69 C10.64,66.36 11.27,67.84 12.09,69.14 C19.09,79.69 25.97,90.32 33.2,100.72 C41.27,112.33 52.71,119.96 65.2,125.93 C69.0926031,127.762783 73.3587455,128.663261 77.66,128.56 C85.37,128.29 93.05,126.92 101.13,125.97 C101.4,116.97 100.76,109.71 92.91,104.2 C75.51,91.96 55.78,84.79 36.34,76.9 L31.09,74.8 L31.63,73.11 C36.51,74.25 41.63,74.74 46.23,76.64 C58.8966667,81.9 71.4266667,87.51 83.82,93.47 C89.13,96.01 93.92,99.63 98.89,102.85 C103.86,106.07 105.89,110.77 106.39,116.47 C106.71,120.19 107.47,123.87 107.98,127.58 C108.53,131.58 109.98,135.73 109.31,139.53 C108.31,145.77 109.95,151.22 111.87,156.82 C113.44,161.4 115.09,165.97 116.49,170.61 C122.14,189.34 136.07,198.88 153.75,204.18 C155.57,204.72 157.69,204.29 160.06,204.32 C159.8,199.81 159.61,196.45 159.42,193.1 C161.09,194.97 161.65,197.02 162.42,198.96 C166.19,207.96 171.74,215.02 181.93,217.57 C193.93,220.57 205.08,220.3 215.88,213 C224.44,207.21 230.51,200.52 231.02,189.76 C231.276258,187.007554 231.676809,184.270456 232.22,181.56 L234.4,181.92 C235.84,188.68 231.55,194.87 231.38,202.32 L231.38,202.32 Z M281.15,347.84 C276.25,339.51 269.98,334.92 263.77,330.32 C245.64,316.87 227.3,303.69 209.3,290.07 C187.75,273.77 167.87,255.69 151.88,233.71 C143.02,221.54 134.78,208.89 125.29,197.24 C119.44,190.06 113.82,183.12 110.85,174.24 C110.32,172.66 107.99,171.08 106.21,170.64 C101.04,169.36 98.21,170.77 96.21,176.05 C94.1,181.62 90.8,184.47 84.66,183.59 C83.0506849,183.44933 81.4298091,183.523312 79.84,183.81 C74.34,184.52 70.06,186.57 69.25,192.91 C68.74,196.91 66.17,199.43 62.77,201.61 C56.6166979,205.474812 50.6964406,209.698797 45.04,214.26 C37.76,220.26 30.65,226.6 26.9,235.59 C22.11,247.08 18.63,258.93 18.83,271.59 C19.11,290.13 19.41,308.68 19.83,327.22 C19.95,332.22 20.54,337.22 20.97,342.98 C37.36,344.39 53.11,345.84 68.88,347.08 C88.42,348.62 107.96,350.2 127.53,351.37 C144.14,352.37 160.7,353.37 177.43,351.97 C203.65,349.85 229.98,348.89 256.28,347.69 C264,347.27 271.77,347.73 281.15,347.84 L281.15,347.84 Z M264.89,247.56 L263.35,246.73 C264.78,243.99 266.13,241.19 267.68,238.5 C276.55,223.1 285.32,207.64 294.45,192.39 C297.99,186.47 294.83,181.96 292.06,177.56 C289.58,173.64 285.33,173.86 281.06,174.83 C277.87,175.57 275.13,176.33 273.06,179.45 C270.983294,182.604026 268.394337,185.389014 265.4,187.69 C261.97,190.35 260.4,193.69 259.1,197.69 C251.76,220.3 242.96,242.29 229.86,262.28 C225.34,269.19 220.46,275.85 215.5,282.97 C222.21,287.58 228.66,291.89 234.97,296.39 C248.97,306.39 263.21,316.15 276.85,326.65 C283.56,331.81 289.49,338.17 292.41,347.07 C314.18,348.07 335.41,341.62 358.18,340.99 C358.18,336.53 358.31,332.33 358.32,328.13 C358.32,322.76 358.04,317.37 358.32,312.02 C359.13,297.34 362.05,282.71 359.32,267.96 C357.15,256.05 355.8,243.96 352.48,232.33 C348.05,216.91 339.57,204.6 321.95,201.52 C319.2,201.04 316.24,198.46 314.51,196.05 C309.51,189.11 309.73,188.92 300.79,190.83 C291.92,211.62 279.28,230.16 264.89,247.56 Z M234.89,236.82 C224.99,236.03 215.38,235.58 205.89,234.44 C189.07,232.44 173.8,226.02 159.53,217.02 C153.61,213.28 148.08,208.72 139.37,206.66 C161.27,232.1 180.73,257.46 207.58,276.39 L219.92,259.88 C214.61,257.71 209.92,255.94 205.34,253.88 C200.93,251.88 196.58,249.79 192.34,247.51 C188.1,245.23 184.06,242.72 179.93,240.32 C183.29,240.17 186.01,241.21 188.78,242.07 C196.46,244.45 204.04,247.38 211.88,248.96 C227.25,252.05 227.4,251.69 234.88,237.96 C234.93,237.73 234.84,237.43 234.85,236.82 L234.89,236.82 Z M201.13,225.33 C214.85,229.18 227.67,228.15 240.66,228.21 C245.98,218.03 251.37,208.36 254.54,197.41 C243.96,204.46 230.89,205.84 221.12,214.53 C215.89,219.14 208.6,221.4 201.09,225.33 L201.13,225.33 Z" id="Shape" fill="#000000"></path>
            <path d="M231.38,202.32 C231.55,194.87 235.84,188.68 234.38,181.97 L232.2,181.61 C231.656809,184.320456 231.256258,187.057554 231,189.81 C230.49,200.57 224.42,207.26 215.86,213.05 C205.06,220.35 193.93,220.63 181.91,217.62 C171.72,215.07 166.17,208.06 162.4,199.01 C161.59,197.07 161.03,195.01 159.4,193.15 C159.59,196.5 159.78,199.86 160.04,204.37 C157.67,204.37 155.55,204.77 153.73,204.23 C136.05,198.93 122.12,189.39 116.47,170.66 C115.07,166.02 113.47,161.45 111.85,156.87 C109.93,151.27 108.25,145.82 109.29,139.58 C109.93,135.78 108.51,131.58 107.96,127.63 C107.45,123.92 106.69,120.24 106.37,116.52 C105.88,110.82 103.78,106.09 98.87,102.9 C93.96,99.71 89.11,96.06 83.8,93.52 C71.4333333,87.58 58.9033333,81.97 46.21,76.69 C41.64,74.79 36.49,74.3 31.61,73.16 L31.07,74.85 L36.32,76.95 C55.76,84.84 75.49,92.01 92.89,104.25 C100.74,109.76 101.38,117.06 101.11,126.02 C93.03,127.02 85.35,128.34 77.64,128.61 C73.3387455,128.713261 69.0726031,127.812783 65.18,125.98 C52.67,119.98 41.18,112.38 33.18,100.77 C25.95,90.37 19.06,79.77 12.07,69.19 C11.21,67.89 10.62,66.41 9.25,63.74 C43.1501746,66.648569 76.66045,73.0423295 109.25,82.82 C109,80.61 109.25,79.3 108.72,78.77 C105.95,76.02 106.6,73.15 107.54,69.84 C111.73,54.98 120.3,43.39 132.64,34.22 C138.41,29.94 143.53,24.78 149,20.08 C150.201976,19.0155248 151.548689,18.1266941 153,17.44 C173,8.55 193.47,4.13 214.91,11.5 C219.58,13.1 223.68,16.28 228.1,18.62 C230.222346,19.7203062 232.413578,20.6823107 234.66,21.5 C253.18,28.36 267.04,40.5 275.48,58.37 C278.91,65.63 281.33,73.37 284.59,81.84 C312.94,73.84 341.59,65.96 372.05,60.96 C370.7,63.21 369.96,64.74 368.96,66.08 C359.6,78.57 350.75,91.5 340.66,103.36 C330.57,115.22 316.76,120.6 301.3,121.15 C297.4,121.29 293.44,119.83 289.51,119.15 C286.79,107.29 290.41,98.42 300.14,92.32 C309.701757,86.2348261 320.213185,81.7902838 331.24,79.17 C336.74,77.89 342.33,77 347.82,75.66 C349.6,75.23 351.18,73.93 352.82,73.02 L352.36,70.96 C350.46,70.79 348.45,70.13 346.68,70.52 C329.831003,74.2375718 313.636676,80.4671962 298.64,89 C286.08,96.06 281.31,107.45 280.73,121.27 C280.34,130.67 280.28,140.17 278.82,149.43 C274.64,176 261.18,192.54 231.38,202.32 Z M124.13,127 C124.8,138.56 131.77,147 141.68,149.21 C153.84,151.92 165.43,147.21 170.68,136.99 C173.354777,132.046754 175.413465,126.794245 176.81,121.35 C177.46035,117.70803 176.935009,113.953589 175.31,110.63 C171.07,102.04 161.5,97.53 151.66,98.72 C142.05,99.88 137.66,106.81 134.34,114.81 C133.98,115.69 134.9,117.1 135.11,117.87 C148.44,110.87 161.51,109.26 175.46,114.72 C176.04,123.36 170.88,128.8 164.67,131.44 C153.37,136.24 144.87,129.65 137.46,120.92 C137.02,133.67 145.14,139.29 163.05,139.43 C150.71,149.69 136.51,145.45 124.13,127 Z M230.56,136 C234.56,135.77 236.88,135.74 239.17,135.5 C247.29,134.65 254.29,131.5 259.17,124.78 C265.75,115.7 263.69,105.28 253.79,100.14 C249.695112,98.2047015 245.228995,97.1811454 240.7,97.14 C224.99,96.67 216.35,108.14 220.61,123.19 C221.203333,125.256667 221.746667,127.343333 222.24,129.45 C224.46,138.68 230.76,143.65 239.67,145.25 C250.45,147.18 259.27,143.25 266.08,134.87 C268.599602,131.901126 269.436053,127.854512 268.3,124.13 C266.94,132.94 260.97,136.97 253.46,139.47 C245.95,141.97 238.84,141.33 230.56,136 Z M206.35,151.85 C208.748027,150.896613 211.085697,149.797908 213.35,148.56 C220.29,144.18 220.95,131.86 214.57,127.7 C207.42,123.04 190.06,124.77 184.09,130.7 C179.98,134.81 179.09,142.43 182.09,147.17 C183.441452,149.607816 186.243857,150.856049 188.96,150.23 C191.83,149.73 193.28,148.32 192.48,145.39 C191.88,144.94 191.48,144.45 191.03,144.32 C189.03,143.8 186.94,143.38 184.97,142.94 C183.55,136.06 184.64,133.45 189.97,131.12 C196.81,128.12 203.78,129.12 210.51,131.17 C212.22,131.69 213.72,134.44 214.34,136.47 C214.96,138.5 214.2,140.65 214.05,142.69 C204,143.67 203.15,144.57 206.35,151.89 L206.35,151.85 Z M187.26,73.59 C195.52,74.9 203.96,72.12 212.49,70.38 C223.01,68.23 233.49,65.95 244.33,66.59 C251.55,67.01 257.22,69.79 261.26,75.83 C262.2,77.24 263.26,78.6 264.76,80.73 C263.5,70.28 257.31,64.62 247.14,63.28 C237.68,62.03 228.52,63.13 219.36,65.6 C208.54,68.56 197.61,71.07 187.26,73.63 L187.26,73.59 Z M230.88,172.44 C219.19,173.65 208.12,175.3 196.99,175.81 C185.86,176.32 174.7,175.69 162.66,175.56 C174.34,183.61 217.71,181.33 230.88,172.48 L230.88,172.44 Z M121.58,84.61 C135.51,62.55 155.34,63.54 176.75,70.61 C152.61,56.43 126.68,63.19 121.58,84.65 L121.58,84.61 Z M197.99,66.01 C202.4,60.58 202.81,55.8 200.24,41.73 C198.79,33.8 196.96,25.94 195.3,18.04 C194.638583,26.059461 195.055633,34.1314045 196.54,42.04 C198.14,49.77 195.06,57.77 198,66.05 L197.99,66.01 Z M200.56,78.23 C197.72,90.38 198.29,103.17 201.79,108.48 C204.74,97.66 203,88 200.56,78.27 L200.56,78.23 Z M217.73,106.3 C223.33,102.35 231.91,84.76 231.73,76.36 C226.55,85.55 221.83,93.85 217.21,102.21 C216.806581,103.173273 216.638605,104.218839 216.72,105.26 C216.66,105.64 217.35,106 217.73,106.34 L217.73,106.3 Z M153.51,28.73 C151.1,33.92 153.73,38.49 155.29,42.96 C156.78,47.25 155.78,52.96 162.21,56.3 C161.13,45.77 158.79,36.86 153.51,28.77 L153.51,28.73 Z M235.38,168.73 C237.38,161.23 231.49,151.47 222.09,146.39 L235.38,168.73 Z M180.24,109.31 L182.94,108.56 C184.46,103.67 179.84,100.65 177.94,96.89 C175.77,92.59 173.03,88.57 170.53,84.43 L169.09,85.2 L180.24,109.31 Z M230.04,56.14 L231.7,56.36 C234.81,50.17 235.7,38.03 232.52,31.64 C231.693333,39.8266667 230.853333,48.0066667 230,56.18 L230.04,56.14 Z M186.38,189.14 C192.03,191.38 197.64,191.9 203.24,189.99 C203.87,189.78 203.92,187.87 204.35,186.36 C197.66,185.12 191.89,186 186.38,189.17 L186.38,189.14 Z M172.63,146.21 C165.63,151.26 162.26,158.39 162.95,167.42 L172.63,146.21 Z M159.02,112.21 C156.51,115.21 154.02,116.9 154.09,118.47 C154.17,120.3 156.21,123.11 157.91,123.56 C160.99,124.37 161.85,121.14 161.91,118.86 C161.91,117.24 160.5,115.54 159,112.27 L159.02,112.21 Z M268,107.8 C271.84,106.74 276.94,109.36 279.44,103.88 C272.41,101.82 271.1,102.21 268,107.8 Z M129.11,119.48 C123.48,114.94 121.55,114.95 115.53,119.34 C120.18,121.33 124.22,120.1 129.07,119.48 L129.11,119.48 Z M125.28,113.66 C124.55,108.17 122.28,107.45 113.74,110.29 L125.28,113.66 Z M267.74,112.96 C267.65,113.49 267.57,114.02 267.48,114.55 C274.17,117.14 274.39,117.1 276.14,112.07 L267.74,112.96 Z M264.92,53.4 C259.44,56.6 259.44,56.6 261.66,60.65 C262.84,58 263.86,55.68 264.88,53.4 L264.92,53.4 Z M123,66.59 L125,65.06 L119.3,57.69 L117.89,58.58 L123,66.59 Z" id="Shape" fill="#FFFFFF"></path>
            <path d="M281.15,347.84 C271.77,347.73 264.02,347.27 256.31,347.63 C230.01,348.83 203.68,349.79 177.46,351.91 C160.73,353.27 144.17,352.29 127.56,351.31 C107.99,350.14 88.45,348.56 68.91,347.02 C53.14,345.78 37.39,344.33 21,342.92 C20.57,337.13 20,332.15 19.86,327.16 C19.44,308.62 19.14,290.07 18.86,271.53 C18.66,258.91 22.14,247.06 26.93,235.53 C30.68,226.53 37.79,220.19 45.07,214.2 C50.7264406,209.638797 56.6466979,205.414812 62.8,201.55 C66.2,199.37 68.8,196.85 69.28,192.85 C70.09,186.51 74.37,184.46 79.87,183.75 C81.4598091,183.463312 83.0806849,183.38933 84.69,183.53 C90.83,184.41 94.13,181.53 96.24,175.99 C98.24,170.71 101.04,169.3 106.24,170.58 C108.02,171.02 110.35,172.58 110.88,174.18 C113.88,183.08 119.47,190.02 125.32,197.18 C134.81,208.83 143.05,221.48 151.91,233.65 C167.91,255.65 187.78,273.71 209.33,290.01 C227.33,303.63 245.67,316.81 263.8,330.26 C270,334.92 276.25,339.51 281.15,347.84 Z M91.32,266.78 L90.15,268.41 C94.67,271.28 99.15,274.19 103.73,277.01 C109.92,280.82 116.83,283.78 122.23,288.5 C133.65,298.5 147.02,304.16 160.91,309.5 C177.76,316 194.49,322.63 212.34,325.77 C216.79,326.56 221.34,326.57 225.89,326.93 C225.97,326.35 226.04,325.77 226.12,325.19 C218.88,322.45 211.65,319.69 204.41,316.99 C195.35,313.6 186.25,310.35 177.23,306.86 C169.72,303.95 162.23,300.94 154.86,297.71 C146.01,293.85 137.19,289.91 128.53,285.65 C116.05,279.54 103.71,273.09 91.32,266.78 L91.32,266.78 Z M160,278.52 C157.4,274.89 155.84,271.89 153.52,269.67 C149.758343,266.209643 145.8126,262.954906 141.7,259.92 C128.18,249.49 116.03,237.76 106.63,223.39 C105.68272,222.196528 104.657124,221.06737 103.56,220.01 C110.48,240.67 143.65,275.49 160,278.52 Z" id="Shape" fill="#FFFFFF"></path>
            <path d="M264.89,247.56 C279.28,230.16 291.89,211.62 300.89,190.79 C309.83,188.88 309.66,189.07 314.61,196.01 C316.34,198.42 319.3,201.01 322.05,201.48 C339.67,204.56 348.15,216.87 352.58,232.29 C355.9,243.87 357.25,256.01 359.42,267.92 C362.12,282.67 359.2,297.3 358.42,311.98 C358.12,317.33 358.42,322.72 358.42,328.09 C358.42,332.29 358.33,336.49 358.28,340.95 C335.47,341.58 314.28,348.01 292.51,347.03 C289.59,338.13 283.66,331.77 276.95,326.61 C263.31,316.11 249.1,306.34 235.07,296.35 C228.76,291.85 222.31,287.54 215.6,282.93 C220.6,275.81 225.44,269.15 229.96,262.24 C243.06,242.24 251.86,220.24 259.2,197.65 C260.47,193.71 262.07,190.35 265.5,187.65 C268.494337,185.349014 271.083294,182.564026 273.16,179.41 C275.16,176.29 277.93,175.53 281.16,174.79 C285.38,173.79 289.63,173.6 292.16,177.52 C294.93,181.92 298.09,186.43 294.55,192.35 C285.42,207.6 276.65,223.06 267.78,238.46 C266.23,241.15 264.88,243.95 263.45,246.69 L264.89,247.56 Z M313.84,232 C302.06,240.49 265.28,283 263.97,287.59 C272.1,287.47 277.58,282.82 281.97,277.01 C291.37,264.63 300.45,252.01 309.57,239.42 C311.129253,237.027411 312.55477,234.550282 313.84,232 L313.84,232 Z" id="Shape" fill="#FFFFFF"></path>
            <path d="M234.85,236.82 C234.85,237.43 234.93,237.73 234.85,237.93 C227.34,251.7 227.19,252.06 211.85,248.93 C204.01,247.35 196.43,244.42 188.75,242.04 C185.98,241.18 183.26,240.14 179.9,240.29 C184.03,242.69 188.1,245.22 192.31,247.48 C196.52,249.74 200.91,251.89 205.31,253.85 C209.88,255.9 214.58,257.67 219.89,259.85 L207.55,276.36 C180.7,257.43 161.24,232.07 139.34,206.63 C148.05,208.69 153.58,213.25 159.5,216.99 C173.77,225.99 189.04,232.39 205.86,234.41 C215.34,235.58 225,236 234.85,236.82 Z" id="Path" fill="#FFFFFF"></path>
            <path d="M201.09,225.33 C208.6,221.4 215.89,219.14 221.09,214.53 C230.86,205.84 243.93,204.46 254.51,197.41 C251.34,208.41 245.95,218.03 240.63,228.21 C227.63,228.15 214.81,229.18 201.09,225.33 Z" id="Path" fill="#FFFFFF"></path>
            <path d="M124.13,127 C136.51,145.46 150.71,149.7 163.01,139.43 C145.1,139.29 137.01,133.67 137.42,120.92 C144.83,129.65 153.33,136.24 164.63,131.44 C170.84,128.8 176,123.36 175.42,114.72 C161.42,109.26 148.42,110.85 135.07,117.87 C134.86,117.1 133.94,115.69 134.3,114.81 C137.58,106.81 142.01,99.88 151.62,98.72 C161.46,97.53 171.03,102.04 175.27,110.63 C176.895009,113.953589 177.42035,117.70803 176.77,121.35 C175.373465,126.794245 173.314777,132.046754 170.64,136.99 C165.43,147.22 153.84,151.92 141.64,149.21 C131.77,147 124.8,138.55 124.13,127 Z M145.54,109.09 L163.2,108.34 C157.07,105.56 151,104.45 145.54,109.08 L145.54,109.09 Z" id="Shape" fill="#000000"></path>
            <path d="M230.56,136 C238.84,141.29 245.94,141.94 253.47,139.43 C261,136.92 266.95,132.9 268.31,124.09 C269.446053,127.814512 268.609602,131.861126 266.09,134.83 C259.28,143.24 250.46,147.14 239.68,145.21 C230.77,143.61 224.47,138.64 222.25,129.41 C221.75,127.31 221.206667,125.223333 220.62,123.15 C216.36,108.09 225,96.63 240.71,97.1 C245.238995,97.1411454 249.705112,98.1647015 253.8,100.1 C263.7,105.24 265.8,115.66 259.18,124.74 C254.29,131.49 247.29,134.61 239.18,135.46 C236.88,135.78 234.58,135.81 230.56,136 Z M257.5,112.06 C246.61,108.06 235.77,108.67 224.97,112.9 C223.837244,113.541208 223.027531,114.630508 222.74,115.9 C221.87,120.12 228.74,130.06 232.93,131.01 C244.25,133.65 256.26,124.79 257.5,112.1 L257.5,112.06 Z M249.13,104.88 C240.85,100.32 234.76,100.88 228.63,106.75 L249.13,104.88 Z" id="Shape" fill="#000000"></path>
            <path d="M206.35,151.89 C203.15,144.57 203.97,143.67 213.98,142.76 C214.13,140.76 214.85,138.43 214.27,136.54 C213.69,134.65 212.15,131.76 210.44,131.24 C203.71,129.17 196.74,128.18 189.9,131.19 C184.62,133.52 183.53,136.13 184.9,143.01 C186.9,143.45 188.9,143.87 190.96,144.39 C191.43,144.52 191.81,145.01 192.41,145.46 C193.21,148.39 191.76,149.8 188.89,150.3 C186.173857,150.926049 183.371452,149.677816 182.02,147.24 C179.02,142.5 179.89,134.88 184.02,130.77 C190.02,124.77 207.35,123.08 214.5,127.77 C220.88,131.93 220.22,144.25 213.28,148.63 C211.037704,149.855126 208.723495,150.943772 206.35,151.89 Z" id="Path" fill="#000000"></path>
            <path d="M187.26,73.63 C197.61,71.07 208.54,68.56 219.36,65.63 C228.52,63.16 237.68,62.06 247.14,63.31 C257.31,64.65 263.5,70.31 264.76,80.76 C263.24,78.63 262.2,77.27 261.26,75.86 C257.26,69.86 251.55,67.04 244.33,66.62 C233.46,65.98 223.01,68.26 212.49,70.41 C204,72.16 195.52,74.94 187.26,73.63 Z" id="Path" fill="#000000"></path>
            <path d="M230.88,172.48 C217.71,181.33 174.34,183.61 162.66,175.6 C174.66,175.73 185.87,176.36 196.99,175.85 C208.11,175.34 219.19,173.69 230.88,172.48 Z" id="Path" fill="#000000"></path>
            <path d="M121.58,84.65 C126.68,63.19 152.58,56.43 176.75,70.65 C155.34,63.58 135.51,62.59 121.58,84.65 Z" id="Path" fill="#000000"></path>
            <path d="M198,66.05 C195.07,57.77 198.15,49.77 196.55,42.05 C195.065633,34.1414045 194.648583,26.069461 195.31,18.05 C196.97,25.95 198.8,33.81 200.25,41.74 C202.81,55.84 202.4,60.62 198,66.05 Z" id="Path" fill="#000000"></path>
            <path d="M200.56,78.27 C202.97,87.95 204.74,97.66 201.79,108.52 C198.29,103.21 197.72,90.42 200.56,78.27 Z" id="Path" fill="#000000"></path>
            <path d="M217.73,106.34 C217.35,105.99 216.66,105.64 216.67,105.34 C216.588605,104.298839 216.756581,103.253273 217.16,102.29 C221.78,93.93 226.5,85.63 231.68,76.44 C231.91,84.8 223.33,102.39 217.73,106.34 Z" id="Path" fill="#000000"></path>
            <path d="M153.51,28.77 C158.79,36.86 161.13,45.77 162.21,56.34 C155.78,53.03 156.78,47.34 155.29,43 C153.73,38.53 151.1,34 153.51,28.77 Z" id="Path" fill="#000000"></path>
            <path d="M235.38,168.77 L222.09,146.43 C231.49,151.51 237.37,161.27 235.38,168.77 Z" id="Path" fill="#000000"></path>
            <path d="M180.24,109.35 L169.11,85.24 L170.55,84.47 C173.05,88.61 175.79,92.63 177.96,96.93 C179.84,100.69 184.46,103.71 182.96,108.6 L180.24,109.35 Z" id="Path" fill="#000000"></path>
            <path d="M230,56.18 C230.82,48.0066667 231.646667,39.84 232.48,31.68 C235.69,38.07 234.77,50.21 231.66,56.4 L230,56.18 Z" id="Path" fill="#000000"></path>
            <path d="M186.38,189.17 C191.89,185.98 197.66,185.17 204.38,186.39 C203.95,187.9 203.9,189.81 203.27,190.02 C197.64,191.93 192,191.41 186.38,189.17 Z" id="Path" fill="#000000"></path>
            <path d="M172.63,146.24 L163,167.45 C162.26,158.42 165.61,151.29 172.63,146.24 Z" id="Path" fill="#000000"></path>
            <path d="M159,112.27 C160.48,115.54 161.89,117.27 161.87,118.92 C161.87,121.2 160.97,124.43 157.87,123.62 C156.17,123.17 154.13,120.36 154.05,118.53 C154,117 156.51,115.28 159,112.27 Z" id="Path" fill="#000000"></path>
            <path d="M268,107.8 C271.14,102.21 272.45,101.8 279.44,103.88 C276.9,109.36 271.8,106.74 268,107.8 Z" id="Path" fill="#000000"></path>
            <path d="M129.07,119.48 C124.22,120.1 120.18,121.33 115.49,119.34 C121.51,115 123.44,114.94 129.07,119.48 Z" id="Path" fill="#000000"></path>
            <path d="M125.24,113.66 L113.7,110.29 C122.29,107.45 124.51,108.17 125.24,113.66 Z" id="Path" fill="#000000"></path>
            <path d="M267.7,113 L276.1,112.11 C274.35,117.11 274.1,117.18 267.44,114.59 C267.53,114 267.61,113.49 267.7,113 Z" id="Path" fill="#000000"></path>
            <path d="M264.88,53.4 C263.88,55.68 262.88,57.95 261.62,60.65 C259.4,56.6 259.4,56.6 264.88,53.4 Z" id="Path" fill="#000000"></path>
            <polygon id="Path" fill="#000000" points="123 66.59 117.93 58.59 119.34 57.7 125.04 65.07"></polygon>
            <path d="M91.32,266.78 C103.71,273.09 116.05,279.54 128.53,285.67 C137.19,289.93 146.01,293.87 154.86,297.73 C162.24,300.96 169.72,303.97 177.23,306.88 C186.23,310.37 195.35,313.62 204.41,317.01 C211.65,319.71 218.88,322.47 226.12,325.21 C226.04,325.79 225.97,326.37 225.89,326.95 C221.37,326.59 216.79,326.58 212.34,325.79 C194.49,322.65 177.76,316.02 160.91,309.52 C147.02,304.16 133.65,298.52 122.23,288.52 C116.83,283.8 109.92,280.84 103.73,277.03 C99.17,274.21 94.67,271.3 90.15,268.43 L91.32,266.78 Z" id="Path" fill="#000000"></path>
            <path d="M160,278.52 C143.62,275.52 110.45,240.67 103.56,220.01 C104.657124,221.06737 105.68272,222.196528 106.63,223.39 C116.03,237.76 128.18,249.49 141.7,259.92 C145.8126,262.954906 149.758343,266.209643 153.52,269.67 C155.87,271.89 157.43,274.89 160,278.52 Z" id="Path" fill="#000000"></path>
            <path d="M313.84,232 C312.56452,234.549598 311.149025,237.026713 309.6,239.42 C300.48,252.01 291.4,264.63 282,277.01 C277.58,282.82 272.1,287.47 264,287.59 C265.28,283 302.06,240.44 313.84,232 Z" id="Path" fill="#000000"></path>
            <path d="M145.54,109.08 C151.02,104.45 157.07,105.56 163.2,108.33 L145.54,109.08 Z" id="Path" fill="#FFFFFF"></path>
            <path d="M257.5,112.1 C256.26,124.79 244.25,133.65 232.93,131.1 C228.72,130.15 221.87,120.21 222.74,115.99 C223.027531,114.720508 223.837244,113.631208 224.97,112.99 C235.77,108.71 246.61,108.13 257.5,112.1 Z M238.97,111.66 C236.42,113.82 234.38,114.77 233.66,116.34 C232.66,118.44 235.85,122.2 238.09,121.54 C239.880112,120.799299 241.229897,119.276181 241.75,117.41 C242,116.06 240.34,114.31 239,111.66 L238.97,111.66 Z" id="Shape" fill="#FFFFFF"></path>
            <path d="M249.13,104.92 L228.63,106.79 C234.76,100.91 240.85,100.36 249.13,104.92 Z" id="Path" fill="#FFFFFF"></path>
            <path d="M239,111.66 C240.37,114.31 242,116.06 241.78,117.41 C241.259897,119.276181 239.910112,120.799299 238.12,121.54 C235.88,122.2 232.71,118.44 233.69,116.34 C234.38,114.77 236.42,113.82 239,111.66 Z" id="Path" fill="#000000"></path>
        </g>
    </g>
</svg>